<?xml version="1.0" encoding="UTF-8" standalone="no"?>
<!DOCTYPE svg PUBLIC "-//W3C//DTD SVG 1.1//EN"
 "http://www.w3.org/Graphics/SVG/1.1/DTD/svg11.dtd">
<!-- Generated by graphviz version 2.40.1 (20161225.0304)
 -->
<!-- Title: include/indigox/algorithm/access.hpp Pages: 1 -->
<svg width="230pt" height="102pt"
 viewBox="0.00 0.00 229.59 102.00" xmlns="http://www.w3.org/2000/svg" xmlns:xlink="http://www.w3.org/1999/xlink">
<g id="graph0" class="graph" transform="scale(1 1) rotate(0) translate(4 98)">
<title>include/indigox/algorithm/access.hpp</title>
<polygon fill="#ffffff" stroke="transparent" points="-4,4 -4,-98 225.5908,-98 225.5908,4 -4,4"/>
<!-- Node37 -->
<g id="node1" class="node">
<title>Node37</title>
<polygon fill="#bfbfbf" stroke="#000000" points="47.7637,-65.5 47.7637,-93.5 173.8271,-93.5 173.8271,-65.5 47.7637,-65.5"/>
<text text-anchor="start" x="55.7637" y="-81.5" font-family="Helvetica,sans-Serif" font-size="10.00" fill="#000000">include/indigox/algorithm</text>
<text text-anchor="middle" x="110.7954" y="-71.5" font-family="Helvetica,sans-Serif" font-size="10.00" fill="#000000">/access.hpp</text>
</g>
<!-- Node38 -->
<g id="node2" class="node">
<title>Node38</title>
<g id="a_node2"><a xlink:href="connectivity_8cpp.html" target="_top" xlink:title="src/algorithm/graph\l/connectivity.cpp">
<polygon fill="#ffffff" stroke="#000000" points="0,-.5 0,-28.5 101.5908,-28.5 101.5908,-.5 0,-.5"/>
<text text-anchor="start" x="8" y="-16.5" font-family="Helvetica,sans-Serif" font-size="10.00" fill="#000000">src/algorithm/graph</text>
<text text-anchor="middle" x="50.7954" y="-6.5" font-family="Helvetica,sans-Serif" font-size="10.00" fill="#000000">/connectivity.cpp</text>
</a>
</g>
</g>
<!-- Node37&#45;&gt;Node38 -->
<g id="edge1" class="edge">
<title>Node37&#45;&gt;Node38</title>
<path fill="none" stroke="#191970" d="M90.9716,-58.0243C82.0322,-48.3398 71.7252,-37.1739 63.7891,-28.5765"/>
<polygon fill="#191970" stroke="#191970" points="88.4216,-60.4219 97.7763,-65.396 93.5653,-55.6739 88.4216,-60.4219"/>
</g>
<!-- Node39 -->
<g id="node3" class="node">
<title>Node39</title>
<g id="a_node3"><a xlink:href="isomorphism_8cpp.html" target="_top" xlink:title="src/algorithm/graph\l/isomorphism.cpp">
<polygon fill="#ffffff" stroke="#000000" points="120,-.5 120,-28.5 221.5908,-28.5 221.5908,-.5 120,-.5"/>
<text text-anchor="start" x="128" y="-16.5" font-family="Helvetica,sans-Serif" font-size="10.00" fill="#000000">src/algorithm/graph</text>
<text text-anchor="middle" x="170.7954" y="-6.5" font-family="Helvetica,sans-Serif" font-size="10.00" fill="#000000">/isomorphism.cpp</text>
</a>
</g>
</g>
<!-- Node37&#45;&gt;Node39 -->
<g id="edge2" class="edge">
<title>Node37&#45;&gt;Node39</title>
<path fill="none" stroke="#191970" d="M130.6192,-58.0243C139.5586,-48.3398 149.8656,-37.1739 157.8017,-28.5765"/>
<polygon fill="#191970" stroke="#191970" points="128.0255,-55.6739 123.8145,-65.396 133.1692,-60.4219 128.0255,-55.6739"/>
</g>
</g>
</svg>
