<?xml version="1.0" encoding="UTF-8" standalone="no"?>
<!DOCTYPE svg PUBLIC "-//W3C//DTD SVG 1.1//EN"
 "http://www.w3.org/Graphics/SVG/1.1/DTD/svg11.dtd">
<!-- Generated by graphviz version 2.40.1 (20161225.0304)
 -->
<!-- Title: include/indigox/algorithm/access.hpp Pages: 1 -->
<!--zoomable 407 -->
<svg id="main" version="1.1" xmlns="http://www.w3.org/2000/svg" xmlns:xlink="http://www.w3.org/1999/xlink" xml:space="preserve" onload="init(evt)">
<style type="text/css"><![CDATA[
.edge:hover path { stroke: red; }
.edge:hover polygon { stroke: red; fill: red; }
]]></style>
<script type="text/javascript"><![CDATA[
var edges = document.getElementsByTagName('g');
if (edges && edges.length) {
  for (var i=0;i<edges.length;i++) {
    if (edges[i].id.substr(0,4)=='edge') {
      edges[i].setAttribute('class','edge');
    }
  }
}
]]></script>
        <defs>
                <circle id="rim" cx="0" cy="0" r="7"/>
                <circle id="rim2" cx="0" cy="0" r="3.5"/>
                <g id="zoomPlus">
                        <use xlink:href="#rim" fill="#404040">
                                <set attributeName="fill" to="#808080" begin="zoomplus.mouseover" end="zoomplus.mouseout"/>
                        </use>
                        <path d="M-4,0h8M0,-4v8" fill="none" stroke="white" stroke-width="1.5" pointer-events="none"/>
                </g>
                <g id="zoomMin">
                        <use xlink:href="#rim" fill="#404040">
                                <set attributeName="fill" to="#808080" begin="zoomminus.mouseover" end="zoomminus.mouseout"/>
                        </use>
                        <path d="M-4,0h8" fill="none" stroke="white" stroke-width="1.5" pointer-events="none"/>
                </g>
                <g id="dirArrow">
                        <path fill="none" stroke="white" stroke-width="1.5" d="M0,-3.0v7 M-2.5,-0.5L0,-3.0L2.5,-0.5"/>
                </g>
               <g id="resetDef">
                       <use xlink:href="#rim2" fill="#404040">
                               <set attributeName="fill" to="#808080" begin="reset.mouseover" end="reset.mouseout"/>
                       </use>
               </g>
        </defs>

<script type="text/javascript">
var viewWidth = 2522;
var viewHeight = 407;
var sectionId = 'dynsection-0';
</script>
<script xlink:href="svgpan.js"/>
<svg id="graph" class="graph">
<g id="viewport">
<title>include/indigox/algorithm/access.hpp</title>
<polygon fill="#ffffff" stroke="transparent" points="-4,4 -4,-403 2518.32,-403 2518.32,4 -4,4"/>
<!-- Node0 -->
<g id="node1" class="node">
<title>Node0</title>
<g id="a_node1"><a xlink:title=" ">
<polygon fill="#bfbfbf" stroke="#000000" points="2266.2883,-370.5 2266.2883,-398.5 2392.3518,-398.5 2392.3518,-370.5 2266.2883,-370.5"/>
<text text-anchor="start" x="2274.2883" y="-386.5" font-family="Helvetica,sans-Serif" font-size="10.00" fill="#000000">include/indigox/algorithm</text>
<text text-anchor="middle" x="2329.32" y="-376.5" font-family="Helvetica,sans-Serif" font-size="10.00" fill="#000000">/access.hpp</text>
</a>
</g>
</g>
<!-- Node1 -->
<g id="node2" class="node">
<title>Node1</title>
<g id="a_node2"><a xlink:href="base__graph_8hpp.html" target="_top" xlink:title=" ">
<polygon fill="#ffffff" stroke="#000000" points="2129.8327,-315.5 2129.8327,-333.5 2254.8074,-333.5 2254.8074,-315.5 2129.8327,-315.5"/>
<text text-anchor="middle" x="2192.32" y="-321.5" font-family="Helvetica,sans-Serif" font-size="10.00" fill="#000000">../graph/base_graph.hpp</text>
</a>
</g>
</g>
<!-- Node0&#45;&gt;Node1 -->
<g id="edge1" class="edge">
<title>Node0&#45;&gt;Node1</title>
<path fill="none" stroke="#191970" d="M2297.1996,-370.4327C2274.6027,-360.5362 2244.565,-347.381 2222.4281,-337.686"/>
<polygon fill="#191970" stroke="#191970" points="2223.7335,-334.4368 2213.1693,-333.6311 2220.9252,-340.8488 2223.7335,-334.4368"/>
</g>
<!-- Node2 -->
<g id="node3" class="node">
<title>Node2</title>
<g id="a_node3"><a xlink:href="fwd__declares_8hpp.html" target="_top" xlink:title=" ">
<polygon fill="#ffffff" stroke="#000000" points="2324.6799,-60.5 2324.6799,-78.5 2447.9602,-78.5 2447.9602,-60.5 2324.6799,-60.5"/>
<text text-anchor="middle" x="2386.32" y="-66.5" font-family="Helvetica,sans-Serif" font-size="10.00" fill="#000000">../utils/fwd_declares.hpp</text>
</a>
</g>
</g>
<!-- Node0&#45;&gt;Node2 -->
<g id="edge50" class="edge">
<title>Node0&#45;&gt;Node2</title>
<path fill="none" stroke="#191970" d="M2392.4691,-371.0624C2446.0622,-355.5159 2514.32,-324.0303 2514.32,-264.5 2514.32,-264.5 2514.32,-264.5 2514.32,-199.5 2514.32,-143.584 2453.4489,-102.9657 2415.6607,-83.1375"/>
<polygon fill="#191970" stroke="#191970" points="2417.1043,-79.9454 2406.602,-78.5477 2413.9405,-86.1896 2417.1043,-79.9454"/>
</g>
<!-- Node1&#45;&gt;Node2 -->
<g id="edge2" class="edge">
<title>Node1&#45;&gt;Node2</title>
<path fill="none" stroke="#191970" d="M2204.8813,-315.4023C2236.6306,-291.7336 2320.6636,-224.7812 2364.32,-149 2375.1234,-130.2469 2380.8385,-105.9298 2383.7079,-89.1532"/>
<polygon fill="#191970" stroke="#191970" points="2387.2232,-89.3172 2385.2674,-78.9044 2380.3028,-88.2641 2387.2232,-89.3172"/>
</g>
<!-- Node3 -->
<g id="node4" class="node">
<title>Node3</title>
<g id="a_node4"><a xlink:title=" ">
<polygon fill="#ffffff" stroke="#bfbfbf" points="2167.8694,-.5 2167.8694,-18.5 2212.7707,-18.5 2212.7707,-.5 2167.8694,-.5"/>
<text text-anchor="middle" x="2190.32" y="-6.5" font-family="Helvetica,sans-Serif" font-size="10.00" fill="#000000">cstdint</text>
</a>
</g>
</g>
<!-- Node1&#45;&gt;Node3 -->
<g id="edge8" class="edge">
<title>Node1&#45;&gt;Node3</title>
<path fill="none" stroke="#191970" d="M2129.7236,-324.2845C1771.988,-322.6533 2.32,-309.0473 2.32,-199.5 2.32,-199.5 2.32,-199.5 2.32,-134.5 2.32,-98.1716 -6.9601,-77.8032 21.32,-55 64.767,-19.9674 1888.1165,-10.7982 2157.2704,-9.6347"/>
<polygon fill="#191970" stroke="#191970" points="2157.5732,-13.1335 2167.5582,-9.5909 2157.5434,-6.1336 2157.5732,-13.1335"/>
</g>
<!-- Node4 -->
<g id="node5" class="node">
<title>Node4</title>
<g id="a_node5"><a xlink:title=" ">
<polygon fill="#ffffff" stroke="#bfbfbf" points="2405.2634,-.5 2405.2634,-18.5 2457.3767,-18.5 2457.3767,-.5 2405.2634,-.5"/>
<text text-anchor="middle" x="2431.32" y="-6.5" font-family="Helvetica,sans-Serif" font-size="10.00" fill="#000000">memory</text>
</a>
</g>
</g>
<!-- Node1&#45;&gt;Node4 -->
<g id="edge9" class="edge">
<title>Node1&#45;&gt;Node4</title>
<path fill="none" stroke="#191970" d="M2233.3128,-315.4658C2311.9611,-296.9421 2476.32,-251.956 2476.32,-199.5 2476.32,-199.5 2476.32,-199.5 2476.32,-134.5 2476.32,-98.1716 2470.6893,-88.7789 2457.32,-55 2453.5178,-45.3931 2447.9725,-35.3559 2442.9789,-27.1605"/>
<polygon fill="#191970" stroke="#191970" points="2445.8153,-25.0975 2437.5077,-18.5222 2439.9016,-28.843 2445.8153,-25.0975"/>
</g>
<!-- Node5 -->
<g id="node6" class="node">
<title>Node5</title>
<g id="a_node6"><a xlink:href="simple__bimap_8hpp.html" target="_top" xlink:title=" ">
<polygon fill="#ffffff" stroke="#000000" points="1700.2932,-255.5 1700.2932,-273.5 1826.3469,-273.5 1826.3469,-255.5 1700.2932,-255.5"/>
<text text-anchor="middle" x="1763.32" y="-261.5" font-family="Helvetica,sans-Serif" font-size="10.00" fill="#000000">../utils/simple_bimap.hpp</text>
</a>
</g>
</g>
<!-- Node1&#45;&gt;Node5 -->
<g id="edge5" class="edge">
<title>Node1&#45;&gt;Node5</title>
<path fill="none" stroke="#191970" d="M2129.4803,-315.7112C2051.6206,-304.8218 1919.1791,-286.2985 1836.7263,-274.7666"/>
<polygon fill="#191970" stroke="#191970" points="1837.0661,-271.2802 1826.6777,-273.3612 1836.0965,-278.2127 1837.0661,-271.2802"/>
</g>
<!-- Node7 -->
<g id="node8" class="node">
<title>Node7</title>
<g id="a_node8"><a xlink:title=" ">
<polygon fill="#ffffff" stroke="#bfbfbf" points="2091.0075,-250.5 2091.0075,-278.5 2207.6325,-278.5 2207.6325,-250.5 2091.0075,-250.5"/>
<text text-anchor="start" x="2099.0075" y="-266.5" font-family="Helvetica,sans-Serif" font-size="10.00" fill="#000000">boost/graph/adjacency</text>
<text text-anchor="middle" x="2149.32" y="-256.5" font-family="Helvetica,sans-Serif" font-size="10.00" fill="#000000">_list.hpp</text>
</a>
</g>
</g>
<!-- Node1&#45;&gt;Node7 -->
<g id="edge7" class="edge">
<title>Node1&#45;&gt;Node7</title>
<path fill="none" stroke="#191970" d="M2185.7893,-315.3873C2180.4105,-307.8821 2172.5504,-296.9144 2165.5033,-287.0813"/>
<polygon fill="#191970" stroke="#191970" points="2168.2726,-284.937 2159.6025,-278.8477 2162.5829,-289.0147 2168.2726,-284.937"/>
</g>
<!-- Node8 -->
<g id="node9" class="node">
<title>Node8</title>
<g id="a_node9"><a xlink:title=" ">
<polygon fill="#ffffff" stroke="#bfbfbf" points="2168.7043,-60.5 2168.7043,-78.5 2211.9358,-78.5 2211.9358,-60.5 2168.7043,-60.5"/>
<text text-anchor="middle" x="2190.32" y="-66.5" font-family="Helvetica,sans-Serif" font-size="10.00" fill="#000000">vector</text>
</a>
</g>
</g>
<!-- Node1&#45;&gt;Node8 -->
<g id="edge10" class="edge">
<title>Node1&#45;&gt;Node8</title>
<path fill="none" stroke="#191970" d="M2198.9127,-315.2865C2204.7922,-306.4614 2212.9719,-292.5238 2216.32,-279 2233.395,-210.0302 2209.6987,-125.377 2197.1896,-88.3459"/>
<polygon fill="#191970" stroke="#191970" points="2200.4675,-87.1164 2193.8622,-78.8327 2193.86,-89.4275 2200.4675,-87.1164"/>
</g>
<!-- Node9 -->
<g id="node10" class="node">
<title>Node9</title>
<g id="a_node10"><a xlink:href="base__graph__impl_8hpp.html" target="_top" xlink:title=" ">
<polygon fill="#ffffff" stroke="#000000" points="1934.2292,-255.5 1934.2292,-273.5 2046.4109,-273.5 2046.4109,-255.5 1934.2292,-255.5"/>
<text text-anchor="middle" x="1990.32" y="-261.5" font-family="Helvetica,sans-Serif" font-size="10.00" fill="#000000">base_graph_impl.hpp</text>
</a>
</g>
</g>
<!-- Node1&#45;&gt;Node9 -->
<g id="edge11" class="edge">
<title>Node1&#45;&gt;Node9</title>
<path fill="none" stroke="#191970" d="M2161.6406,-315.3873C2126.5855,-304.9749 2069.0939,-287.8982 2030.4927,-276.4325"/>
<polygon fill="#191970" stroke="#191970" points="2031.209,-272.9942 2020.6264,-273.5019 2029.2158,-279.7044 2031.209,-272.9942"/>
</g>
<!-- Node2&#45;&gt;Node3 -->
<g id="edge3" class="edge">
<title>Node2&#45;&gt;Node3</title>
<path fill="none" stroke="#191970" d="M2356.5519,-60.3873C2320.5293,-49.36 2260.0891,-30.8579 2222.8635,-19.4623"/>
<polygon fill="#191970" stroke="#191970" points="2223.6057,-16.0292 2213.0192,-16.4487 2221.5567,-22.7226 2223.6057,-16.0292"/>
</g>
<!-- Node2&#45;&gt;Node4 -->
<g id="edge4" class="edge">
<title>Node2&#45;&gt;Node4</title>
<path fill="none" stroke="#191970" d="M2393.1546,-60.3873C2399.8284,-51.4888 2410.1528,-37.723 2418.3813,-26.7517"/>
<polygon fill="#191970" stroke="#191970" points="2421.2212,-28.7985 2424.4212,-18.6985 2415.6211,-24.5985 2421.2212,-28.7985"/>
</g>
<!-- Node6 -->
<g id="node7" class="node">
<title>Node6</title>
<g id="a_node7"><a xlink:title=" ">
<polygon fill="#ffffff" stroke="#bfbfbf" points="1643.7981,-190.5 1643.7981,-208.5 1754.842,-208.5 1754.842,-190.5 1643.7981,-190.5"/>
<text text-anchor="middle" x="1699.32" y="-196.5" font-family="Helvetica,sans-Serif" font-size="10.00" fill="#000000">EASTL/vector_map.h</text>
</a>
</g>
</g>
<!-- Node5&#45;&gt;Node6 -->
<g id="edge6" class="edge">
<title>Node5&#45;&gt;Node6</title>
<path fill="none" stroke="#191970" d="M1754.4211,-255.462C1744.4091,-245.2936 1727.9368,-228.5639 1715.6058,-216.0402"/>
<polygon fill="#191970" stroke="#191970" points="1718.0679,-213.5522 1708.5578,-208.8821 1713.0799,-218.4635 1718.0679,-213.5522"/>
</g>
<!-- Node9&#45;&gt;Node6 -->
<g id="edge47" class="edge">
<title>Node9&#45;&gt;Node6</title>
<path fill="none" stroke="#191970" d="M1949.8577,-255.462C1897.5577,-243.7799 1806.4877,-223.4378 1749.7411,-210.7624"/>
<polygon fill="#191970" stroke="#191970" points="1750.4292,-207.33 1739.9067,-208.5658 1748.9032,-214.1616 1750.4292,-207.33"/>
</g>
<!-- Node9&#45;&gt;Node8 -->
<g id="edge49" class="edge">
<title>Node9&#45;&gt;Node8</title>
<path fill="none" stroke="#191970" d="M1997.1826,-255.2592C2008.6966,-239.9888 2032.9463,-208.8104 2056.32,-185 2094.1782,-146.4347 2143.2991,-106.3186 2170.3151,-85.0028"/>
<polygon fill="#191970" stroke="#191970" points="2172.557,-87.6926 2178.2675,-78.7684 2168.2382,-82.1836 2172.557,-87.6926"/>
</g>
<!-- Node10 -->
<g id="node11" class="node">
<title>Node10</title>
<g id="a_node11"><a xlink:href="connectivity_8hpp.html" target="_top" xlink:title=" ">
<polygon fill="#ffffff" stroke="#000000" points="2233.4114,-120.5 2233.4114,-148.5 2327.2287,-148.5 2327.2287,-120.5 2233.4114,-120.5"/>
<text text-anchor="start" x="2241.4114" y="-136.5" font-family="Helvetica,sans-Serif" font-size="10.00" fill="#000000">../algorithm/graph</text>
<text text-anchor="middle" x="2280.32" y="-126.5" font-family="Helvetica,sans-Serif" font-size="10.00" fill="#000000">/connectivity.hpp</text>
</a>
</g>
</g>
<!-- Node9&#45;&gt;Node10 -->
<g id="edge12" class="edge">
<title>Node9&#45;&gt;Node10</title>
<path fill="none" stroke="#191970" d="M2046.7197,-255.4598C2085.2068,-247.8484 2136.5761,-234.7986 2178.32,-214 2208.8755,-198.7759 2239.1173,-173.5909 2258.6388,-155.6482"/>
<polygon fill="#191970" stroke="#191970" points="2261.1631,-158.0793 2266.0699,-148.6893 2256.3783,-152.9699 2261.1631,-158.0793"/>
</g>
<!-- Node12 -->
<g id="node13" class="node">
<title>Node12</title>
<g id="a_node13"><a xlink:href="cycles_8hpp.html" target="_top" xlink:title=" ">
<polygon fill="#ffffff" stroke="#000000" points="1915.4114,-185.5 1915.4114,-213.5 2009.2287,-213.5 2009.2287,-185.5 1915.4114,-185.5"/>
<text text-anchor="start" x="1923.4114" y="-201.5" font-family="Helvetica,sans-Serif" font-size="10.00" fill="#000000">../algorithm/graph</text>
<text text-anchor="middle" x="1962.32" y="-191.5" font-family="Helvetica,sans-Serif" font-size="10.00" fill="#000000">/cycles.hpp</text>
</a>
</g>
</g>
<!-- Node9&#45;&gt;Node12 -->
<g id="edge17" class="edge">
<title>Node9&#45;&gt;Node12</title>
<path fill="none" stroke="#191970" d="M1986.4268,-255.462C1982.8471,-247.1522 1977.38,-234.4605 1972.5566,-223.2634"/>
<polygon fill="#191970" stroke="#191970" points="1975.7179,-221.7553 1968.5472,-213.9559 1969.289,-224.5247 1975.7179,-221.7553"/>
</g>
<!-- Node19 -->
<g id="node20" class="node">
<title>Node19</title>
<g id="a_node20"><a xlink:href="serialise_8hpp.html" target="_top" xlink:title=" ">
<polygon fill="#ffffff" stroke="#000000" points="1065.8005,-125.5 1065.8005,-143.5 1166.8396,-143.5 1166.8396,-125.5 1065.8005,-125.5"/>
<text text-anchor="middle" x="1116.32" y="-131.5" font-family="Helvetica,sans-Serif" font-size="10.00" fill="#000000">../utils/serialise.hpp</text>
</a>
</g>
</g>
<!-- Node9&#45;&gt;Node19 -->
<g id="edge27" class="edge">
<title>Node9&#45;&gt;Node19</title>
<path fill="none" stroke="#191970" d="M1934.8216,-255.49C1896.2754,-247.8411 1844.4726,-234.7348 1802.32,-214 1783.2564,-204.6226 1784.167,-192.5799 1764.32,-185 1710.317,-164.3752 1327.5756,-144.4121 1176.978,-137.2662"/>
<polygon fill="#191970" stroke="#191970" points="1177.1255,-133.7694 1166.9716,-136.7941 1176.7955,-140.7616 1177.1255,-133.7694"/>
</g>
<!-- Node34 -->
<g id="node35" class="node">
<title>Node34</title>
<g id="a_node35"><a xlink:href="triple_8hpp.html" target="_top" xlink:title=" ">
<polygon fill="#ffffff" stroke="#000000" points="1811.303,-190.5 1811.303,-208.5 1897.3371,-208.5 1897.3371,-190.5 1811.303,-190.5"/>
<text text-anchor="middle" x="1854.32" y="-196.5" font-family="Helvetica,sans-Serif" font-size="10.00" fill="#000000">../utils/triple.hpp</text>
</a>
</g>
</g>
<!-- Node9&#45;&gt;Node34 -->
<g id="edge43" class="edge">
<title>Node9&#45;&gt;Node34</title>
<path fill="none" stroke="#191970" d="M1971.4098,-255.462C1948.3986,-244.464 1909.328,-225.7906 1882.7019,-213.0648"/>
<polygon fill="#191970" stroke="#191970" points="1884.0399,-209.8252 1873.5081,-208.6708 1881.0213,-216.1409 1884.0399,-209.8252"/>
</g>
<!-- Node36 -->
<g id="node37" class="node">
<title>Node36</title>
<g id="a_node37"><a xlink:title=" ">
<polygon fill="#ffffff" stroke="#bfbfbf" points="2064.8547,-190.5 2064.8547,-208.5 2169.7854,-208.5 2169.7854,-190.5 2064.8547,-190.5"/>
<text text-anchor="middle" x="2117.32" y="-196.5" font-family="Helvetica,sans-Serif" font-size="10.00" fill="#000000">EASTL/vector_set.h</text>
</a>
</g>
</g>
<!-- Node9&#45;&gt;Node36 -->
<g id="edge48" class="edge">
<title>Node9&#45;&gt;Node36</title>
<path fill="none" stroke="#191970" d="M2007.9789,-255.462C2029.3731,-244.5122 2065.6326,-225.9542 2090.4886,-213.2326"/>
<polygon fill="#191970" stroke="#191970" points="2092.0946,-216.3425 2099.4018,-208.6708 2088.9053,-210.1112 2092.0946,-216.3425"/>
</g>
<!-- Node10&#45;&gt;Node2 -->
<g id="edge13" class="edge">
<title>Node10&#45;&gt;Node2</title>
<path fill="none" stroke="#191970" d="M2303.3205,-120.396C2320.9499,-109.5855 2345.1824,-94.7259 2362.9124,-83.8537"/>
<polygon fill="#191970" stroke="#191970" points="2364.8267,-86.7856 2371.5219,-78.5743 2361.1674,-80.8182 2364.8267,-86.7856"/>
</g>
<!-- Node10&#45;&gt;Node3 -->
<g id="edge14" class="edge">
<title>Node10&#45;&gt;Node3</title>
<path fill="none" stroke="#191970" d="M2269.9959,-120.1609C2253.3826,-97.0869 2220.7701,-51.7917 2202.8503,-26.9032"/>
<polygon fill="#191970" stroke="#191970" points="2205.6534,-24.8062 2196.9699,-18.736 2199.9726,-28.8964 2205.6534,-24.8062"/>
</g>
<!-- Node10&#45;&gt;Node8 -->
<g id="edge16" class="edge">
<title>Node10&#45;&gt;Node8</title>
<path fill="none" stroke="#191970" d="M2260.7914,-120.396C2246.0977,-109.7838 2226.0014,-95.2699 2211.0286,-84.4562"/>
<polygon fill="#191970" stroke="#191970" points="2213.0405,-81.5919 2202.8845,-78.5743 2208.9421,-87.2666 2213.0405,-81.5919"/>
</g>
<!-- Node11 -->
<g id="node12" class="node">
<title>Node11</title>
<g id="a_node12"><a xlink:title=" ">
<polygon fill="#ffffff" stroke="#bfbfbf" points="2267.9333,-60.5 2267.9333,-78.5 2306.7068,-78.5 2306.7068,-60.5 2267.9333,-60.5"/>
<text text-anchor="middle" x="2287.32" y="-66.5" font-family="Helvetica,sans-Serif" font-size="10.00" fill="#000000">limits</text>
</a>
</g>
</g>
<!-- Node10&#45;&gt;Node11 -->
<g id="edge15" class="edge">
<title>Node10&#45;&gt;Node11</title>
<path fill="none" stroke="#191970" d="M2281.8389,-120.396C2282.8429,-111.0732 2284.1712,-98.739 2285.2687,-88.5479"/>
<polygon fill="#191970" stroke="#191970" points="2288.7519,-88.8916 2286.3428,-78.5743 2281.7921,-88.142 2288.7519,-88.8916"/>
</g>
<!-- Node12&#45;&gt;Node2 -->
<g id="edge18" class="edge">
<title>Node12&#45;&gt;Node2</title>
<path fill="none" stroke="#191970" d="M2009.6237,-191.9652C2024.5515,-189.6514 2041.1147,-187.1499 2056.32,-185 2118.4366,-176.2173 2283.4573,-182.7807 2336.32,-149 2358.4745,-134.8427 2372.5572,-106.9785 2379.9468,-88.2918"/>
<polygon fill="#191970" stroke="#191970" points="2383.285,-89.3547 2383.4537,-78.7612 2376.7156,-86.9373 2383.285,-89.3547"/>
</g>
<!-- Node13 -->
<g id="node14" class="node">
<title>Node13</title>
<g id="a_node14"><a xlink:href="numerics_8hpp.html" target="_top" xlink:title=" ">
<polygon fill="#ffffff" stroke="#000000" points="1900.6897,-125.5 1900.6897,-143.5 2013.9504,-143.5 2013.9504,-125.5 1900.6897,-125.5"/>
<text text-anchor="middle" x="1957.32" y="-131.5" font-family="Helvetica,sans-Serif" font-size="10.00" fill="#000000">../../utils/numerics.hpp</text>
</a>
</g>
</g>
<!-- Node12&#45;&gt;Node13 -->
<g id="edge19" class="edge">
<title>Node12&#45;&gt;Node13</title>
<path fill="none" stroke="#191970" d="M1961.2351,-185.396C1960.518,-176.0732 1959.5692,-163.739 1958.7853,-153.5479"/>
<polygon fill="#191970" stroke="#191970" points="1962.2748,-153.2764 1958.0181,-143.5743 1955.2954,-153.8133 1962.2748,-153.2764"/>
</g>
<!-- Node13&#45;&gt;Node3 -->
<g id="edge22" class="edge">
<title>Node13&#45;&gt;Node3</title>
<path fill="none" stroke="#191970" d="M1994.6234,-125.422C2036.1255,-114.905 2100.1337,-97.3185 2121.32,-84 2144.995,-69.1171 2165.8224,-44.0744 2178.2414,-27.1767"/>
<polygon fill="#191970" stroke="#191970" points="2181.296,-28.9207 2184.2405,-18.7433 2175.5919,-24.8632 2181.296,-28.9207"/>
</g>
<!-- Node13&#45;&gt;Node8 -->
<g id="edge26" class="edge">
<title>Node13&#45;&gt;Node8</title>
<path fill="none" stroke="#191970" d="M1999.2868,-125.4347C2039.4872,-116.3549 2101.6482,-101.275 2154.32,-84 2155.9927,-83.4514 2157.6988,-82.8638 2159.4142,-82.2508"/>
<polygon fill="#191970" stroke="#191970" points="2161.0578,-85.3711 2169.1715,-78.558 2158.58,-78.8243 2161.0578,-85.3711"/>
</g>
<!-- Node14 -->
<g id="node15" class="node">
<title>Node14</title>
<g id="a_node15"><a xlink:title=" ">
<polygon fill="#ffffff" stroke="#bfbfbf" points="1928.7561,-60.5 1928.7561,-78.5 1985.884,-78.5 1985.884,-60.5 1928.7561,-60.5"/>
<text text-anchor="middle" x="1957.32" y="-66.5" font-family="Helvetica,sans-Serif" font-size="10.00" fill="#000000">algorithm</text>
</a>
</g>
</g>
<!-- Node13&#45;&gt;Node14 -->
<g id="edge20" class="edge">
<title>Node13&#45;&gt;Node14</title>
<path fill="none" stroke="#191970" d="M1957.32,-125.462C1957.32,-116.061 1957.32,-101.0518 1957.32,-88.943"/>
<polygon fill="#191970" stroke="#191970" points="1960.8201,-88.8821 1957.32,-78.8821 1953.8201,-88.8822 1960.8201,-88.8821"/>
</g>
<!-- Node15 -->
<g id="node16" class="node">
<title>Node15</title>
<g id="a_node16"><a xlink:title=" ">
<polygon fill="#ffffff" stroke="#bfbfbf" points="2003.7043,-60.5 2003.7043,-78.5 2046.9358,-78.5 2046.9358,-60.5 2003.7043,-60.5"/>
<text text-anchor="middle" x="2025.32" y="-66.5" font-family="Helvetica,sans-Serif" font-size="10.00" fill="#000000">cmath</text>
</a>
</g>
</g>
<!-- Node13&#45;&gt;Node15 -->
<g id="edge21" class="edge">
<title>Node13&#45;&gt;Node15</title>
<path fill="none" stroke="#191970" d="M1966.7752,-125.462C1977.4129,-115.2936 1994.9147,-98.5639 2008.0165,-86.0402"/>
<polygon fill="#191970" stroke="#191970" points="2010.6946,-88.322 2015.5049,-78.8821 2005.8577,-83.2619 2010.6946,-88.322"/>
</g>
<!-- Node16 -->
<g id="node17" class="node">
<title>Node16</title>
<g id="a_node17"><a xlink:title=" ">
<polygon fill="#ffffff" stroke="#bfbfbf" points="2064.7585,-60.5 2064.7585,-78.5 2111.8816,-78.5 2111.8816,-60.5 2064.7585,-60.5"/>
<text text-anchor="middle" x="2088.32" y="-66.5" font-family="Helvetica,sans-Serif" font-size="10.00" fill="#000000">iterator</text>
</a>
</g>
</g>
<!-- Node13&#45;&gt;Node16 -->
<g id="edge23" class="edge">
<title>Node13&#45;&gt;Node16</title>
<path fill="none" stroke="#191970" d="M1975.535,-125.462C1997.6031,-114.5122 2035.0046,-95.9542 2060.6435,-83.2326"/>
<polygon fill="#191970" stroke="#191970" points="2062.4352,-86.2508 2069.8374,-78.6708 2059.3238,-79.9803 2062.4352,-86.2508"/>
</g>
<!-- Node17 -->
<g id="node18" class="node">
<title>Node17</title>
<g id="a_node18"><a xlink:title=" ">
<polygon fill="#ffffff" stroke="#bfbfbf" points="1800.5368,-60.5 1800.5368,-78.5 1852.1033,-78.5 1852.1033,-60.5 1800.5368,-60.5"/>
<text text-anchor="middle" x="1826.32" y="-66.5" font-family="Helvetica,sans-Serif" font-size="10.00" fill="#000000">numeric</text>
</a>
</g>
</g>
<!-- Node13&#45;&gt;Node17 -->
<g id="edge24" class="edge">
<title>Node13&#45;&gt;Node17</title>
<path fill="none" stroke="#191970" d="M1939.1051,-125.462C1917.037,-114.5122 1879.6355,-95.9542 1853.9966,-83.2326"/>
<polygon fill="#191970" stroke="#191970" points="1855.3162,-79.9803 1844.8026,-78.6708 1852.2049,-86.2508 1855.3162,-79.9803"/>
</g>
<!-- Node18 -->
<g id="node19" class="node">
<title>Node18</title>
<g id="a_node19"><a xlink:title=" ">
<polygon fill="#ffffff" stroke="#bfbfbf" points="1870.0935,-60.5 1870.0935,-78.5 1910.5466,-78.5 1910.5466,-60.5 1870.0935,-60.5"/>
<text text-anchor="middle" x="1890.32" y="-66.5" font-family="Helvetica,sans-Serif" font-size="10.00" fill="#000000">string</text>
</a>
</g>
</g>
<!-- Node13&#45;&gt;Node18 -->
<g id="edge25" class="edge">
<title>Node13&#45;&gt;Node18</title>
<path fill="none" stroke="#191970" d="M1948.004,-125.462C1937.5226,-115.2936 1920.2782,-98.5639 1907.3691,-86.0402"/>
<polygon fill="#191970" stroke="#191970" points="1909.6054,-83.3332 1899.9909,-78.8821 1904.7312,-88.3574 1909.6054,-83.3332"/>
</g>
<!-- Node19&#45;&gt;Node2 -->
<g id="edge28" class="edge">
<title>Node19&#45;&gt;Node2</title>
<path fill="none" stroke="#191970" d="M1166.9499,-133.4438C1365.0283,-129.1449 2087.7092,-111.855 2315.32,-84 2322.6175,-83.1069 2330.283,-81.866 2337.7683,-80.4826"/>
<polygon fill="#191970" stroke="#191970" points="2338.6655,-83.8737 2347.8123,-78.5271 2337.3277,-77.0028 2338.6655,-83.8737"/>
</g>
<!-- Node20 -->
<g id="node21" class="node">
<title>Node20</title>
<g id="a_node21"><a xlink:title=" ">
<polygon fill="#ffffff" stroke="#bfbfbf" points="1606.0198,-60.5 1606.0198,-78.5 1702.6203,-78.5 1702.6203,-60.5 1606.0198,-60.5"/>
<text text-anchor="middle" x="1654.32" y="-66.5" font-family="Helvetica,sans-Serif" font-size="10.00" fill="#000000">cereal/access.hpp</text>
</a>
</g>
</g>
<!-- Node19&#45;&gt;Node20 -->
<g id="edge29" class="edge">
<title>Node19&#45;&gt;Node20</title>
<path fill="none" stroke="#191970" d="M1167.0937,-131.5059C1255.0411,-125.7977 1441.192,-111.4121 1596.32,-84 1601.3651,-83.1085 1606.6208,-82.0218 1611.8185,-80.8482"/>
<polygon fill="#191970" stroke="#191970" points="1612.7484,-84.2248 1621.6716,-78.5128 1611.1339,-77.4135 1612.7484,-84.2248"/>
</g>
<!-- Node21 -->
<g id="node22" class="node">
<title>Node21</title>
<g id="a_node22"><a xlink:title=" ">
<polygon fill="#ffffff" stroke="#bfbfbf" points="30.4016,-60.5 30.4016,-78.5 154.2385,-78.5 154.2385,-60.5 30.4016,-60.5"/>
<text text-anchor="middle" x="92.32" y="-66.5" font-family="Helvetica,sans-Serif" font-size="10.00" fill="#000000">cereal/archives/json.hpp</text>
</a>
</g>
</g>
<!-- Node19&#45;&gt;Node21 -->
<g id="edge30" class="edge">
<title>Node19&#45;&gt;Node21</title>
<path fill="none" stroke="#191970" d="M1065.6074,-132.8086C894.6666,-126.951 340.4018,-106.6467 163.32,-84 156.1133,-83.0783 148.5449,-81.8346 141.1448,-80.461"/>
<polygon fill="#191970" stroke="#191970" points="141.6925,-77.002 131.2078,-78.5255 140.3542,-83.8729 141.6925,-77.002"/>
</g>
<!-- Node22 -->
<g id="node23" class="node">
<title>Node22</title>
<g id="a_node23"><a xlink:title=" ">
<polygon fill="#ffffff" stroke="#bfbfbf" points="172.2366,-55.5 172.2366,-83.5 294.4035,-83.5 294.4035,-55.5 172.2366,-55.5"/>
<text text-anchor="start" x="180.2366" y="-71.5" font-family="Helvetica,sans-Serif" font-size="10.00" fill="#000000">cereal/archives/portable</text>
<text text-anchor="middle" x="233.32" y="-61.5" font-family="Helvetica,sans-Serif" font-size="10.00" fill="#000000">_binary.hpp</text>
</a>
</g>
</g>
<!-- Node19&#45;&gt;Node22 -->
<g id="edge31" class="edge">
<title>Node19&#45;&gt;Node22</title>
<path fill="none" stroke="#191970" d="M1065.6525,-133.8522C938.8844,-131.6966 597.7371,-122.5994 304.6627,-84.053"/>
<polygon fill="#191970" stroke="#191970" points="305.0695,-80.5764 294.6955,-82.7282 304.1471,-87.5154 305.0695,-80.5764"/>
</g>
<!-- Node23 -->
<g id="node24" class="node">
<title>Node23</title>
<g id="a_node24"><a xlink:title=" ">
<polygon fill="#ffffff" stroke="#bfbfbf" points="311.9631,-60.5 311.9631,-78.5 404.677,-78.5 404.677,-60.5 311.9631,-60.5"/>
<text text-anchor="middle" x="358.32" y="-66.5" font-family="Helvetica,sans-Serif" font-size="10.00" fill="#000000">cereal/cereal.hpp</text>
</a>
</g>
</g>
<!-- Node19&#45;&gt;Node23 -->
<g id="edge32" class="edge">
<title>Node19&#45;&gt;Node23</title>
<path fill="none" stroke="#191970" d="M1065.6903,-132.0901C926.3409,-125.2617 539.1565,-104.9201 413.32,-84 408.5195,-83.2019 403.529,-82.1738 398.5996,-81.0337"/>
<polygon fill="#191970" stroke="#191970" points="399.1952,-77.5756 388.6475,-78.5742 397.5157,-84.3712 399.1952,-77.5756"/>
</g>
<!-- Node24 -->
<g id="node25" class="node">
<title>Node24</title>
<g id="a_node25"><a xlink:title=" ">
<polygon fill="#ffffff" stroke="#bfbfbf" points="422.2185,-60.5 422.2185,-78.5 536.4216,-78.5 536.4216,-60.5 422.2185,-60.5"/>
<text text-anchor="middle" x="479.32" y="-66.5" font-family="Helvetica,sans-Serif" font-size="10.00" fill="#000000">cereal/types/array.hpp</text>
</a>
</g>
</g>
<!-- Node19&#45;&gt;Node24 -->
<g id="edge33" class="edge">
<title>Node19&#45;&gt;Node24</title>
<path fill="none" stroke="#191970" d="M1065.647,-132.2005C965.6689,-127.1829 736.1538,-113.2784 545.32,-84 539.1561,-83.0543 532.7063,-81.8762 526.3552,-80.6029"/>
<polygon fill="#191970" stroke="#191970" points="527.0162,-77.1655 516.5113,-78.5435 525.5827,-84.0171 527.0162,-77.1655"/>
</g>
<!-- Node25 -->
<g id="node26" class="node">
<title>Node25</title>
<g id="a_node26"><a xlink:title=" ">
<polygon fill="#ffffff" stroke="#bfbfbf" points="554.2908,-60.5 554.2908,-78.5 670.3493,-78.5 670.3493,-60.5 554.2908,-60.5"/>
<text text-anchor="middle" x="612.32" y="-66.5" font-family="Helvetica,sans-Serif" font-size="10.00" fill="#000000">cereal/types/bitset.hpp</text>
</a>
</g>
</g>
<!-- Node19&#45;&gt;Node25 -->
<g id="edge34" class="edge">
<title>Node19&#45;&gt;Node25</title>
<path fill="none" stroke="#191970" d="M1065.6275,-130.2692C983.9566,-123.0881 818.3354,-107.0181 679.32,-84 673.3778,-83.0161 667.1665,-81.8545 661.0248,-80.624"/>
<polygon fill="#191970" stroke="#191970" points="661.3165,-77.1101 650.8142,-78.5071 659.8955,-83.9643 661.3165,-77.1101"/>
</g>
<!-- Node26 -->
<g id="node27" class="node">
<title>Node26</title>
<g id="a_node27"><a xlink:title=" ">
<polygon fill="#ffffff" stroke="#bfbfbf" points="688.4582,-55.5 688.4582,-83.5 796.1819,-83.5 796.1819,-55.5 688.4582,-55.5"/>
<text text-anchor="start" x="696.4582" y="-71.5" font-family="Helvetica,sans-Serif" font-size="10.00" fill="#000000">cereal/types/boost</text>
<text text-anchor="middle" x="742.32" y="-61.5" font-family="Helvetica,sans-Serif" font-size="10.00" fill="#000000">_dynamic_bitset.hpp</text>
</a>
</g>
</g>
<!-- Node19&#45;&gt;Node26 -->
<g id="edge35" class="edge">
<title>Node19&#45;&gt;Node26</title>
<path fill="none" stroke="#191970" d="M1065.7754,-127.3284C1006.1387,-118.6363 903.788,-102.999 806.2566,-84.1083"/>
<polygon fill="#191970" stroke="#191970" points="806.7122,-80.6312 796.2269,-82.1506 805.3712,-87.5016 806.7122,-80.6312"/>
</g>
<!-- Node27 -->
<g id="node28" class="node">
<title>Node27</title>
<g id="a_node28"><a xlink:title=" ">
<polygon fill="#ffffff" stroke="#bfbfbf" points="814.4114,-55.5 814.4114,-83.5 908.2287,-83.5 908.2287,-55.5 814.4114,-55.5"/>
<text text-anchor="start" x="822.4114" y="-71.5" font-family="Helvetica,sans-Serif" font-size="10.00" fill="#000000">cereal/types/eastl</text>
<text text-anchor="middle" x="861.32" y="-61.5" font-family="Helvetica,sans-Serif" font-size="10.00" fill="#000000">_bitset.hpp</text>
</a>
</g>
</g>
<!-- Node19&#45;&gt;Node27 -->
<g id="edge36" class="edge">
<title>Node19&#45;&gt;Node27</title>
<path fill="none" stroke="#191970" d="M1080.3569,-125.4293C1042.5153,-115.8726 980.9457,-100.2888 918.4108,-84.2733"/>
<polygon fill="#191970" stroke="#191970" points="918.9254,-80.7921 908.3695,-81.7001 917.1876,-87.573 918.9254,-80.7921"/>
</g>
<!-- Node28 -->
<g id="node29" class="node">
<title>Node28</title>
<g id="a_node29"><a xlink:title=" ">
<polygon fill="#ffffff" stroke="#bfbfbf" points="926.0075,-60.5 926.0075,-78.5 1042.6325,-78.5 1042.6325,-60.5 926.0075,-60.5"/>
<text text-anchor="middle" x="984.32" y="-66.5" font-family="Helvetica,sans-Serif" font-size="10.00" fill="#000000">cereal/types/eigen.hpp</text>
</a>
</g>
</g>
<!-- Node19&#45;&gt;Node28 -->
<g id="edge37" class="edge">
<title>Node19&#45;&gt;Node28</title>
<path fill="none" stroke="#191970" d="M1097.966,-125.462C1075.7295,-114.5122 1038.0425,-95.9542 1012.2079,-83.2326"/>
<polygon fill="#191970" stroke="#191970" points="1013.4612,-79.9485 1002.9437,-78.6708 1010.3688,-86.2284 1013.4612,-79.9485"/>
</g>
<!-- Node29 -->
<g id="node30" class="node">
<title>Node29</title>
<g id="a_node30"><a xlink:title=" ">
<polygon fill="#ffffff" stroke="#bfbfbf" points="1060.5149,-60.5 1060.5149,-78.5 1172.1252,-78.5 1172.1252,-60.5 1060.5149,-60.5"/>
<text text-anchor="middle" x="1116.32" y="-66.5" font-family="Helvetica,sans-Serif" font-size="10.00" fill="#000000">cereal/types/map.hpp</text>
</a>
</g>
</g>
<!-- Node19&#45;&gt;Node29 -->
<g id="edge38" class="edge">
<title>Node19&#45;&gt;Node29</title>
<path fill="none" stroke="#191970" d="M1116.32,-125.462C1116.32,-116.061 1116.32,-101.0518 1116.32,-88.943"/>
<polygon fill="#191970" stroke="#191970" points="1119.8201,-88.8821 1116.32,-78.8821 1112.8201,-88.8822 1119.8201,-88.8821"/>
</g>
<!-- Node30 -->
<g id="node31" class="node">
<title>Node30</title>
<g id="a_node31"><a xlink:title=" ">
<polygon fill="#ffffff" stroke="#bfbfbf" points="1190.5534,-60.5 1190.5534,-78.5 1318.0866,-78.5 1318.0866,-60.5 1190.5534,-60.5"/>
<text text-anchor="middle" x="1254.32" y="-66.5" font-family="Helvetica,sans-Serif" font-size="10.00" fill="#000000">cereal/types/memory.hpp</text>
</a>
</g>
</g>
<!-- Node19&#45;&gt;Node30 -->
<g id="edge39" class="edge">
<title>Node19&#45;&gt;Node30</title>
<path fill="none" stroke="#191970" d="M1135.5084,-125.462C1158.858,-114.464 1198.5032,-95.7906 1225.5208,-83.0648"/>
<polygon fill="#191970" stroke="#191970" points="1227.2945,-86.0983 1234.8498,-78.6708 1224.3117,-79.7656 1227.2945,-86.0983"/>
</g>
<!-- Node31 -->
<g id="node32" class="node">
<title>Node31</title>
<g id="a_node32"><a xlink:title=" ">
<polygon fill="#ffffff" stroke="#bfbfbf" points="1336.2185,-60.5 1336.2185,-78.5 1450.4216,-78.5 1450.4216,-60.5 1336.2185,-60.5"/>
<text text-anchor="middle" x="1393.32" y="-66.5" font-family="Helvetica,sans-Serif" font-size="10.00" fill="#000000">cereal/types/utility.hpp</text>
</a>
</g>
</g>
<!-- Node19&#45;&gt;Node31 -->
<g id="edge40" class="edge">
<title>Node19&#45;&gt;Node31</title>
<path fill="none" stroke="#191970" d="M1154.8357,-125.462C1204.4135,-113.8283 1290.5909,-93.6061 1344.652,-80.9203"/>
<polygon fill="#191970" stroke="#191970" points="1345.75,-84.2578 1354.686,-78.5658 1344.1508,-77.4429 1345.75,-84.2578"/>
</g>
<!-- Node32 -->
<g id="node33" class="node">
<title>Node32</title>
<g id="a_node33"><a xlink:title=" ">
<polygon fill="#ffffff" stroke="#bfbfbf" points="1468.8991,-60.5 1468.8991,-78.5 1587.7409,-78.5 1587.7409,-60.5 1468.8991,-60.5"/>
<text text-anchor="middle" x="1528.32" y="-66.5" font-family="Helvetica,sans-Serif" font-size="10.00" fill="#000000">cereal/types/vector.hpp</text>
</a>
</g>
</g>
<!-- Node19&#45;&gt;Node32 -->
<g id="edge41" class="edge">
<title>Node19&#45;&gt;Node32</title>
<path fill="none" stroke="#191970" d="M1167.0381,-128.0164C1234.1152,-119.2167 1355.9221,-102.4582 1459.32,-84 1465.187,-82.9526 1471.3182,-81.7792 1477.4007,-80.5655"/>
<polygon fill="#191970" stroke="#191970" points="1478.4365,-83.9265 1487.5362,-78.5001 1477.0387,-77.0674 1478.4365,-83.9265"/>
</g>
<!-- Node33 -->
<g id="node34" class="node">
<title>Node33</title>
<g id="a_node34"><a xlink:title=" ">
<polygon fill="#ffffff" stroke="#bfbfbf" points="1720.2536,-60.5 1720.2536,-78.5 1782.3865,-78.5 1782.3865,-60.5 1720.2536,-60.5"/>
<text text-anchor="middle" x="1751.32" y="-66.5" font-family="Helvetica,sans-Serif" font-size="10.00" fill="#000000">type_traits</text>
</a>
</g>
</g>
<!-- Node19&#45;&gt;Node33 -->
<g id="edge42" class="edge">
<title>Node19&#45;&gt;Node33</title>
<path fill="none" stroke="#191970" d="M1167.2114,-131.9037C1291.5312,-125.2842 1608.0388,-106.686 1711.32,-84 1714.1608,-83.376 1717.074,-82.601 1719.9701,-81.7361"/>
<polygon fill="#191970" stroke="#191970" points="1721.2293,-85.006 1729.6209,-78.5383 1719.0275,-78.3613 1721.2293,-85.006"/>
</g>
<!-- Node34&#45;&gt;Node19 -->
<g id="edge46" class="edge">
<title>Node34&#45;&gt;Node19</title>
<path fill="none" stroke="#191970" d="M1822.87,-190.4521C1814.6173,-188.3668 1805.6848,-186.3633 1797.32,-185 1570.4962,-148.0318 1296.7062,-138.0939 1177.1373,-135.4475"/>
<polygon fill="#191970" stroke="#191970" points="1177.1525,-131.9471 1167.0805,-135.2342 1177.004,-138.9455 1177.1525,-131.9471"/>
</g>
<!-- Node34&#45;&gt;Node33 -->
<g id="edge44" class="edge">
<title>Node34&#45;&gt;Node33</title>
<path fill="none" stroke="#191970" d="M1846.9125,-190.1507C1829.7641,-168.5071 1787.1198,-114.6841 1765.046,-86.8241"/>
<polygon fill="#191970" stroke="#191970" points="1767.6139,-84.429 1758.6604,-78.7646 1762.1273,-88.7762 1767.6139,-84.429"/>
</g>
<!-- Node35 -->
<g id="node36" class="node">
<title>Node35</title>
<g id="a_node36"><a xlink:title=" ">
<polygon fill="#ffffff" stroke="#bfbfbf" points="1834.9284,-125.5 1834.9284,-143.5 1873.7116,-143.5 1873.7116,-125.5 1834.9284,-125.5"/>
<text text-anchor="middle" x="1854.32" y="-131.5" font-family="Helvetica,sans-Serif" font-size="10.00" fill="#000000">utility</text>
</a>
</g>
</g>
<!-- Node34&#45;&gt;Node35 -->
<g id="edge45" class="edge">
<title>Node34&#45;&gt;Node35</title>
<path fill="none" stroke="#191970" d="M1854.32,-190.462C1854.32,-181.061 1854.32,-166.0518 1854.32,-153.943"/>
<polygon fill="#191970" stroke="#191970" points="1857.8201,-153.8821 1854.32,-143.8821 1850.8201,-153.8822 1857.8201,-153.8821"/>
</g>
</g>
</svg>
        <g id="navigator" transform="translate(0 0)" fill="#404254">
                <rect fill="#f2f5e9" fill-opacity="0.5" stroke="#606060" stroke-width=".5" x="0" y="0" width="60" height="60"/>
                <use id="zoomplus" xlink:href="#zoomPlus" x="17" y="9" onmousedown="handleZoom(evt,'in')"/>
                <use id="zoomminus" xlink:href="#zoomMin" x="42" y="9" onmousedown="handleZoom(evt,'out')"/>
                <use id="reset" xlink:href="#resetDef" x="30" y="36" onmousedown="handleReset()"/>
                <g id="arrowUp" xlink:href="#dirArrow" transform="translate(30 24)" onmousedown="handlePan(0,-1)">
                  <use xlink:href="#rim" fill="#404040">
                        <set attributeName="fill" to="#808080" begin="arrowUp.mouseover" end="arrowUp.mouseout"/>
                  </use>
                  <path fill="none" stroke="white" stroke-width="1.5" d="M0,-3.0v7 M-2.5,-0.5L0,-3.0L2.5,-0.5"/>
                </g>
                <g id="arrowRight" xlink:href="#dirArrow" transform="rotate(90) translate(36 -43)" onmousedown="handlePan(1,0)">
                  <use xlink:href="#rim" fill="#404040">
                        <set attributeName="fill" to="#808080" begin="arrowRight.mouseover" end="arrowRight.mouseout"/>
                  </use>
                  <path fill="none" stroke="white" stroke-width="1.5" d="M0,-3.0v7 M-2.5,-0.5L0,-3.0L2.5,-0.5"/>
                </g>
                <g id="arrowDown" xlink:href="#dirArrow" transform="rotate(180) translate(-30 -48)" onmousedown="handlePan(0,1)">
                  <use xlink:href="#rim" fill="#404040">
                        <set attributeName="fill" to="#808080" begin="arrowDown.mouseover" end="arrowDown.mouseout"/>
                  </use>
                  <path fill="none" stroke="white" stroke-width="1.5" d="M0,-3.0v7 M-2.5,-0.5L0,-3.0L2.5,-0.5"/>
                </g>
                <g id="arrowLeft" xlink:href="#dirArrow" transform="rotate(270) translate(-36 17)" onmousedown="handlePan(-1,0)">
                  <use xlink:href="#rim" fill="#404040">
                        <set attributeName="fill" to="#808080" begin="arrowLeft.mouseover" end="arrowLeft.mouseout"/>
                  </use>
                  <path fill="none" stroke="white" stroke-width="1.5" d="M0,-3.0v7 M-2.5,-0.5L0,-3.0L2.5,-0.5"/>
                </g>
        </g>
        <svg viewBox="0 0 15 15" width="100%" height="30px" preserveAspectRatio="xMaxYMin meet">
         <g id="arrow_out" transform="scale(0.3 0.3)">
          <a xlink:href="access_8hpp__incl_org.svg" target="_base">
           <rect id="button" ry="5" rx="5" y="6" x="6" height="38" width="38"
                fill="#f2f5e9" fill-opacity="0.5" stroke="#606060" stroke-width="1.0"/>
           <path id="arrow"
             d="M 11.500037,31.436501 C 11.940474,20.09759 22.043105,11.32322 32.158766,21.979434 L 37.068811,17.246167 C 37.068811,17.246167 37.088388,32 37.088388,32 L 22.160133,31.978069 C 22.160133,31.978069 26.997745,27.140456 26.997745,27.140456 C 18.528582,18.264221 13.291696,25.230495 11.500037,31.436501 z"
             style="fill:#404040;"/>
          </a>
         </g>
        </svg>
</svg>
