<?xml version="1.0" encoding="UTF-8" standalone="no"?>
<!DOCTYPE svg PUBLIC "-//W3C//DTD SVG 1.1//EN"
 "http://www.w3.org/Graphics/SVG/1.1/DTD/svg11.dtd">
<!-- Generated by graphviz version 2.40.1 (20161225.0304)
 -->
<!-- Title: src/python/graph/algorithms.cpp Pages: 1 -->
<!--zoomable 322 -->
<svg id="main" version="1.1" xmlns="http://www.w3.org/2000/svg" xmlns:xlink="http://www.w3.org/1999/xlink" xml:space="preserve" onload="init(evt)">
<style type="text/css"><![CDATA[
.edge:hover path { stroke: red; }
.edge:hover polygon { stroke: red; fill: red; }
]]></style>
<script type="text/javascript"><![CDATA[
var edges = document.getElementsByTagName('g');
if (edges && edges.length) {
  for (var i=0;i<edges.length;i++) {
    if (edges[i].id.substr(0,4)=='edge') {
      edges[i].setAttribute('class','edge');
    }
  }
}
]]></script>
        <defs>
                <circle id="rim" cx="0" cy="0" r="7"/>
                <circle id="rim2" cx="0" cy="0" r="3.5"/>
                <g id="zoomPlus">
                        <use xlink:href="#rim" fill="#404040">
                                <set attributeName="fill" to="#808080" begin="zoomplus.mouseover" end="zoomplus.mouseout"/>
                        </use>
                        <path d="M-4,0h8M0,-4v8" fill="none" stroke="white" stroke-width="1.5" pointer-events="none"/>
                </g>
                <g id="zoomMin">
                        <use xlink:href="#rim" fill="#404040">
                                <set attributeName="fill" to="#808080" begin="zoomminus.mouseover" end="zoomminus.mouseout"/>
                        </use>
                        <path d="M-4,0h8" fill="none" stroke="white" stroke-width="1.5" pointer-events="none"/>
                </g>
                <g id="dirArrow">
                        <path fill="none" stroke="white" stroke-width="1.5" d="M0,-3.0v7 M-2.5,-0.5L0,-3.0L2.5,-0.5"/>
                </g>
               <g id="resetDef">
                       <use xlink:href="#rim2" fill="#404040">
                               <set attributeName="fill" to="#808080" begin="reset.mouseover" end="reset.mouseout"/>
                       </use>
               </g>
        </defs>

<script type="text/javascript">
var viewWidth = 3138;
var viewHeight = 322;
var sectionId = 'dynsection-0';
</script>
<script xlink:href="svgpan.js"/>
<svg id="graph" class="graph">
<g id="viewport">
<title>src/python/graph/algorithms.cpp</title>
<polygon fill="#ffffff" stroke="transparent" points="-4,4 -4,-318 3133.7211,-318 3133.7211,4 -4,4"/>
<!-- Node0 -->
<g id="node1" class="node">
<title>Node0</title>
<polygon fill="#bfbfbf" stroke="#000000" points="1161.2958,-295.5 1161.2958,-313.5 1319.5907,-313.5 1319.5907,-295.5 1161.2958,-295.5"/>
<text text-anchor="middle" x="1240.4433" y="-301.5" font-family="Helvetica,sans-Serif" font-size="10.00" fill="#000000">src/python/graph/algorithms.cpp</text>
</g>
<!-- Node1 -->
<g id="node2" class="node">
<title>Node1</title>
<g id="a_node2"><a xlink:href="cherrypicker_8hpp.html" target="_top" xlink:title="indigox/algorithm/cherrypicker.hpp">
<polygon fill="#ffffff" stroke="#000000" points="301.5693,-240.5 301.5693,-258.5 469.3173,-258.5 469.3173,-240.5 301.5693,-240.5"/>
<text text-anchor="middle" x="385.4433" y="-246.5" font-family="Helvetica,sans-Serif" font-size="10.00" fill="#000000">indigox/algorithm/cherrypicker.hpp</text>
</a>
</g>
</g>
<!-- Node0&#45;&gt;Node1 -->
<g id="edge1" class="edge">
<title>Node0&#45;&gt;Node1</title>
<path fill="none" stroke="#191970" d="M1161.1575,-299.3997C1003.0381,-289.2283 649.1431,-266.4631 479.5599,-255.5543"/>
<polygon fill="#191970" stroke="#191970" points="479.605,-252.05 469.401,-254.9008 479.1556,-259.0356 479.605,-252.05"/>
</g>
<!-- Node2 -->
<g id="node3" class="node">
<title>Node2</title>
<g id="a_node3"><a xlink:href="athenaeum_8hpp.html" target="_top" xlink:title="../classes/athenaeum.hpp">
<polygon fill="#ffffff" stroke="#000000" points="368.4633,-180.5 368.4633,-198.5 498.4233,-198.5 498.4233,-180.5 368.4633,-180.5"/>
<text text-anchor="middle" x="433.4433" y="-186.5" font-family="Helvetica,sans-Serif" font-size="10.00" fill="#000000">../classes/athenaeum.hpp</text>
</a>
</g>
</g>
<!-- Node0&#45;&gt;Node2 -->
<g id="edge53" class="edge">
<title>Node0&#45;&gt;Node2</title>
<path fill="none" stroke="#191970" d="M1161.049,-301.0322C1020.7373,-294.4848 734.495,-279.1337 636.4433,-259 573.1677,-246.0071 502.4724,-218.7279 463.4414,-202.4779"/>
<polygon fill="#191970" stroke="#191970" points="464.5688,-199.1551 453.9941,-198.5017 461.8533,-205.6069 464.5688,-199.1551"/>
</g>
<!-- Node27 -->
<g id="node13" class="node">
<title>Node27</title>
<polygon fill="#ffffff" stroke="#bfbfbf" points="893.8276,-55.5 893.8276,-73.5 937.059,-73.5 937.059,-55.5 893.8276,-55.5"/>
<text text-anchor="middle" x="915.4433" y="-61.5" font-family="Helvetica,sans-Serif" font-size="10.00" fill="#000000">vector</text>
</g>
<!-- Node0&#45;&gt;Node27 -->
<g id="edge114" class="edge">
<title>Node0&#45;&gt;Node27</title>
<path fill="none" stroke="#191970" d="M1185.2106,-295.4979C1150.2888,-288.4855 1104.8495,-276.8802 1067.4433,-259 986.2799,-220.2038 945.0316,-219.2822 904.4433,-139 895.6244,-121.5566 900.8571,-99.0792 906.7372,-83.3963"/>
<polygon fill="#191970" stroke="#191970" points="910.1327,-84.3467 910.7467,-73.7697 903.6708,-81.6553 910.1327,-84.3467"/>
</g>
<!-- Node28 -->
<g id="node14" class="node">
<title>Node28</title>
<g id="a_node14"><a xlink:href="forcefield_8hpp.html" target="_top" xlink:title="../classes/forcefield.hpp">
<polygon fill="#ffffff" stroke="#000000" points="1436.1948,-180.5 1436.1948,-198.5 1556.6918,-198.5 1556.6918,-180.5 1436.1948,-180.5"/>
<text text-anchor="middle" x="1496.4433" y="-186.5" font-family="Helvetica,sans-Serif" font-size="10.00" fill="#000000">../classes/forcefield.hpp</text>
</a>
</g>
</g>
<!-- Node0&#45;&gt;Node28 -->
<g id="edge59" class="edge">
<title>Node0&#45;&gt;Node28</title>
<path fill="none" stroke="#191970" d="M1260.5312,-295.4761C1305.4715,-275.2881 1414.3008,-226.3999 1466.9463,-202.7506"/>
<polygon fill="#191970" stroke="#191970" points="1468.4068,-205.9315 1476.0945,-198.6411 1465.5384,-199.5462 1468.4068,-205.9315"/>
</g>
<!-- Node39 -->
<g id="node21" class="node">
<title>Node39</title>
<g id="a_node21"><a xlink:href="connectivity_8hpp.html" target="_top" xlink:title="indigox/algorithm/graph\l/connectivity.hpp">
<polygon fill="#ffffff" stroke="#000000" points="615.4682,-110.5 615.4682,-138.5 735.4184,-138.5 735.4184,-110.5 615.4682,-110.5"/>
<text text-anchor="start" x="623.4682" y="-126.5" font-family="Helvetica,sans-Serif" font-size="10.00" fill="#000000">indigox/algorithm/graph</text>
<text text-anchor="middle" x="675.4433" y="-116.5" font-family="Helvetica,sans-Serif" font-size="10.00" fill="#000000">/connectivity.hpp</text>
</a>
</g>
</g>
<!-- Node0&#45;&gt;Node39 -->
<g id="edge31" class="edge">
<title>Node0&#45;&gt;Node39</title>
<path fill="none" stroke="#191970" d="M1161.1338,-301.3731C1076.5562,-296.7602 939.1342,-285.5827 823.4433,-259 752.6105,-242.7245 711.3097,-263.4086 669.4433,-204 658.1524,-187.9781 661.1888,-165.3556 666.1568,-148.3374"/>
<polygon fill="#191970" stroke="#191970" points="669.5686,-149.1678 669.3888,-138.5745 662.9233,-146.9678 669.5686,-149.1678"/>
</g>
<!-- Node41 -->
<g id="node23" class="node">
<title>Node41</title>
<g id="a_node23"><a xlink:href="cycles_8hpp.html" target="_top" xlink:title="indigox/algorithm/graph\l/cycles.hpp">
<polygon fill="#ffffff" stroke="#000000" points="1046.4682,-175.5 1046.4682,-203.5 1166.4184,-203.5 1166.4184,-175.5 1046.4682,-175.5"/>
<text text-anchor="start" x="1054.4682" y="-191.5" font-family="Helvetica,sans-Serif" font-size="10.00" fill="#000000">indigox/algorithm/graph</text>
<text text-anchor="middle" x="1106.4433" y="-181.5" font-family="Helvetica,sans-Serif" font-size="10.00" fill="#000000">/cycles.hpp</text>
</a>
</g>
</g>
<!-- Node0&#45;&gt;Node41 -->
<g id="edge36" class="edge">
<title>Node0&#45;&gt;Node41</title>
<path fill="none" stroke="#191970" d="M1229.9285,-295.4761C1208.7238,-277.278 1160.345,-235.759 1130.829,-210.428"/>
<polygon fill="#191970" stroke="#191970" points="1132.9104,-207.6021 1123.0424,-203.7455 1128.3516,-212.9141 1132.9104,-207.6021"/>
</g>
<!-- Node45 -->
<g id="node29" class="node">
<title>Node45</title>
<g id="a_node29"><a xlink:href="isomorphism_8hpp.html" target="_top" xlink:title="indigox/algorithm/graph\l/isomorphism.hpp">
<polygon fill="#ffffff" stroke="#000000" points="2389.4682,-110.5 2389.4682,-138.5 2509.4184,-138.5 2509.4184,-110.5 2389.4682,-110.5"/>
<text text-anchor="start" x="2397.4682" y="-126.5" font-family="Helvetica,sans-Serif" font-size="10.00" fill="#000000">indigox/algorithm/graph</text>
<text text-anchor="middle" x="2449.4433" y="-116.5" font-family="Helvetica,sans-Serif" font-size="10.00" fill="#000000">/isomorphism.hpp</text>
</a>
</g>
</g>
<!-- Node0&#45;&gt;Node45 -->
<g id="edge46" class="edge">
<title>Node0&#45;&gt;Node45</title>
<path fill="none" stroke="#191970" d="M1319.7658,-299.8379C1526.582,-287.1736 2078.4875,-249.9801 2255.4433,-204 2312.2776,-189.2322 2374.5239,-161.505 2412.79,-143.0169"/>
<polygon fill="#191970" stroke="#191970" points="2414.5328,-146.061 2421.9841,-138.5292 2411.4622,-139.7704 2414.5328,-146.061"/>
</g>
<!-- Node46 -->
<g id="node30" class="node">
<title>Node46</title>
<g id="a_node30"><a xlink:href="paths_8hpp.html" target="_top" xlink:title="indigox/algorithm/graph\l/paths.hpp">
<polygon fill="#ffffff" stroke="#000000" points="1260.4682,-175.5 1260.4682,-203.5 1380.4184,-203.5 1380.4184,-175.5 1260.4682,-175.5"/>
<text text-anchor="start" x="1268.4682" y="-191.5" font-family="Helvetica,sans-Serif" font-size="10.00" fill="#000000">indigox/algorithm/graph</text>
<text text-anchor="middle" x="1320.4433" y="-181.5" font-family="Helvetica,sans-Serif" font-size="10.00" fill="#000000">/paths.hpp</text>
</a>
</g>
</g>
<!-- Node0&#45;&gt;Node46 -->
<g id="edge49" class="edge">
<title>Node0&#45;&gt;Node46</title>
<path fill="none" stroke="#191970" d="M1246.7208,-295.4761C1259.1098,-277.6669 1287.0362,-237.5226 1304.7399,-212.0736"/>
<polygon fill="#191970" stroke="#191970" points="1307.6959,-213.9533 1310.5334,-203.7455 1301.9495,-209.9558 1307.6959,-213.9533"/>
</g>
<!-- Node47 -->
<g id="node31" class="node">
<title>Node47</title>
<g id="a_node31"><a xlink:href="atom_8hpp.html" target="_top" xlink:title="indigox/classes/atom.hpp">
<polygon fill="#ffffff" stroke="#000000" points="1057.3007,-115.5 1057.3007,-133.5 1185.5859,-133.5 1185.5859,-115.5 1057.3007,-115.5"/>
<text text-anchor="middle" x="1121.4433" y="-121.5" font-family="Helvetica,sans-Serif" font-size="10.00" fill="#000000">indigox/classes/atom.hpp</text>
</a>
</g>
</g>
<!-- Node0&#45;&gt;Node47 -->
<g id="edge54" class="edge">
<title>Node0&#45;&gt;Node47</title>
<path fill="none" stroke="#191970" d="M1191.1211,-295.4754C1142.518,-283.6742 1070.8358,-257.7925 1037.4433,-204 1030.6456,-193.0495 1031.0979,-186.2187 1037.4433,-175 1047.2682,-157.6296 1065.7211,-145.5759 1082.8345,-137.6132"/>
<polygon fill="#191970" stroke="#191970" points="1084.3425,-140.7746 1092.1407,-133.6026 1081.572,-134.3461 1084.3425,-140.7746"/>
</g>
<!-- Node49 -->
<g id="node33" class="node">
<title>Node49</title>
<g id="a_node33"><a xlink:href="molecule_8hpp.html" target="_top" xlink:title="indigox/classes/molecule.hpp">
<polygon fill="#ffffff" stroke="#000000" points="2100.4067,-180.5 2100.4067,-198.5 2246.4799,-198.5 2246.4799,-180.5 2100.4067,-180.5"/>
<text text-anchor="middle" x="2173.4433" y="-186.5" font-family="Helvetica,sans-Serif" font-size="10.00" fill="#000000">indigox/classes/molecule.hpp</text>
</a>
</g>
</g>
<!-- Node0&#45;&gt;Node49 -->
<g id="edge60" class="edge">
<title>Node0&#45;&gt;Node49</title>
<path fill="none" stroke="#191970" d="M1319.9124,-298.0581C1413.8264,-290.1633 1574.742,-275.7516 1712.4433,-259 1879.2237,-238.7109 1920.4626,-230.0338 2086.4433,-204 2094.1016,-202.7988 2102.1333,-201.5056 2110.0912,-200.2039"/>
<polygon fill="#191970" stroke="#191970" points="2110.7993,-203.6345 2120.098,-198.5566 2109.6623,-196.7274 2110.7993,-203.6345"/>
</g>
<!-- Node52 -->
<g id="node36" class="node">
<title>Node52</title>
<g id="a_node36"><a xlink:href="parameterised_8hpp.html" target="_top" xlink:title="indigox/classes/parameterised.hpp">
<polygon fill="#ffffff" stroke="#000000" points="678.456,-180.5 678.456,-198.5 848.4306,-198.5 848.4306,-180.5 678.456,-180.5"/>
<text text-anchor="middle" x="763.4433" y="-186.5" font-family="Helvetica,sans-Serif" font-size="10.00" fill="#000000">indigox/classes/parameterised.hpp</text>
</a>
</g>
</g>
<!-- Node0&#45;&gt;Node52 -->
<g id="edge67" class="edge">
<title>Node0&#45;&gt;Node52</title>
<path fill="none" stroke="#191970" d="M1160.9663,-299.5003C1066.5859,-292.7696 915.293,-279.2518 862.4433,-259 830.4736,-246.7493 799.0721,-221.9153 780.4809,-205.4935"/>
<polygon fill="#191970" stroke="#191970" points="782.6466,-202.7329 772.8844,-198.6157 777.9484,-207.922 782.6466,-202.7329"/>
</g>
<!-- Node53 -->
<g id="node37" class="node">
<title>Node53</title>
<g id="a_node37"><a xlink:href="condensed_8hpp.html" target="_top" xlink:title="indigox/graph/condensed.hpp">
<polygon fill="#ffffff" stroke="#000000" points="1796.8354,-180.5 1796.8354,-198.5 1944.0512,-198.5 1944.0512,-180.5 1796.8354,-180.5"/>
<text text-anchor="middle" x="1870.4433" y="-186.5" font-family="Helvetica,sans-Serif" font-size="10.00" fill="#000000">indigox/graph/condensed.hpp</text>
</a>
</g>
</g>
<!-- Node0&#45;&gt;Node53 -->
<g id="edge75" class="edge">
<title>Node0&#45;&gt;Node53</title>
<path fill="none" stroke="#191970" d="M1319.8088,-301.1616C1405.6256,-296.3544 1546.0339,-284.9997 1664.4433,-259 1728.1671,-245.0079 1799.7529,-218.2259 1839.5323,-202.3045"/>
<polygon fill="#191970" stroke="#191970" points="1840.9755,-205.4963 1848.9363,-198.5051 1838.3533,-199.006 1840.9755,-205.4963"/>
</g>
<!-- Node59 -->
<g id="node40" class="node">
<title>Node59</title>
<g id="a_node40"><a xlink:href="molecular_8hpp.html" target="_top" xlink:title="indigox/graph/molecular.hpp">
<polygon fill="#ffffff" stroke="#000000" points="1513.8993,-240.5 1513.8993,-258.5 1654.9872,-258.5 1654.9872,-240.5 1513.8993,-240.5"/>
<text text-anchor="middle" x="1584.4433" y="-246.5" font-family="Helvetica,sans-Serif" font-size="10.00" fill="#000000">indigox/graph/molecular.hpp</text>
</a>
</g>
</g>
<!-- Node0&#45;&gt;Node59 -->
<g id="edge87" class="edge">
<title>Node0&#45;&gt;Node59</title>
<path fill="none" stroke="#191970" d="M1296.8627,-295.4795C1357.4742,-285.7887 1453.7258,-270.3996 1517.9678,-260.1283"/>
<polygon fill="#191970" stroke="#191970" points="1518.6711,-263.5604 1527.9931,-258.5255 1517.5659,-256.6482 1518.6711,-263.5604"/>
</g>
<!-- Node62 -->
<g id="node43" class="node">
<title>Node62</title>
<g id="a_node43"><a xlink:href="interface_8hpp.html" target="_top" xlink:title="indigox/python/interface.hpp">
<polygon fill="#ffffff" stroke="#000000" points="2748.8993,-180.5 2748.8993,-198.5 2889.9872,-198.5 2889.9872,-180.5 2748.8993,-180.5"/>
<text text-anchor="middle" x="2819.4433" y="-186.5" font-family="Helvetica,sans-Serif" font-size="10.00" fill="#000000">indigox/python/interface.hpp</text>
</a>
</g>
</g>
<!-- Node0&#45;&gt;Node62 -->
<g id="edge98" class="edge">
<title>Node0&#45;&gt;Node62</title>
<path fill="none" stroke="#191970" d="M1319.8106,-303.024C1590.0552,-297.832 2464.5919,-279.6077 2589.4433,-259 2661.7994,-247.0571 2743.2467,-218.7404 2787.1745,-202.1715"/>
<polygon fill="#191970" stroke="#191970" points="2788.6376,-205.3595 2796.7348,-198.5267 2786.144,-198.8187 2788.6376,-205.3595"/>
</g>
<!-- Node1&#45;&gt;Node2 -->
<g id="edge2" class="edge">
<title>Node1&#45;&gt;Node2</title>
<path fill="none" stroke="#191970" d="M392.7335,-240.3873C399.8522,-231.4888 410.8649,-217.723 419.6419,-206.7517"/>
<polygon fill="#191970" stroke="#191970" points="422.5706,-208.6936 426.0845,-198.6985 417.1045,-204.3207 422.5706,-208.6936"/>
</g>
<!-- Node3 -->
<g id="node4" class="node">
<title>Node3</title>
<g id="a_node4"><a xlink:href="fwd__declares_8hpp.html" target="_top" xlink:title="../utils/fwd_declares.hpp">
<polygon fill="#ffffff" stroke="#000000" points="1513.8031,-55.5 1513.8031,-73.5 1637.0834,-73.5 1637.0834,-55.5 1513.8031,-55.5"/>
<text text-anchor="middle" x="1575.4433" y="-61.5" font-family="Helvetica,sans-Serif" font-size="10.00" fill="#000000">../utils/fwd_declares.hpp</text>
</a>
</g>
</g>
<!-- Node1&#45;&gt;Node3 -->
<g id="edge27" class="edge">
<title>Node1&#45;&gt;Node3</title>
<path fill="none" stroke="#191970" d="M469.6071,-243.0128C564.1546,-235.3475 722.1057,-221.4074 857.4433,-204 937.8128,-193.6627 957.4232,-187.7634 1037.4433,-175 1138.7514,-158.8411 1171.1229,-179.3498 1265.4433,-139 1284.9762,-130.6439 1283.9488,-118.4453 1303.4433,-110 1338.4406,-94.8387 1435.2273,-80.9257 1503.3393,-72.5794"/>
<polygon fill="#191970" stroke="#191970" points="1504.0829,-76.015 1513.5898,-71.3387 1503.2417,-69.0658 1504.0829,-76.015"/>
</g>
<!-- Node4 -->
<g id="node5" class="node">
<title>Node4</title>
<polygon fill="#ffffff" stroke="#bfbfbf" points="1507.9926,-.5 1507.9926,-18.5 1552.894,-18.5 1552.894,-.5 1507.9926,-.5"/>
<text text-anchor="middle" x="1530.4433" y="-6.5" font-family="Helvetica,sans-Serif" font-size="10.00" fill="#000000">cstdint</text>
</g>
<!-- Node1&#45;&gt;Node4 -->
<g id="edge28" class="edge">
<title>Node1&#45;&gt;Node4</title>
<path fill="none" stroke="#191970" d="M301.2926,-246.996C213.5282,-242.8897 83.1608,-232.1183 42.4433,-204 5.7603,-178.6678 -9.9837,-151.0324 7.4433,-110 21.205,-77.5975 32.0086,-68.6858 64.4433,-55 132.6496,-26.2203 1286.9713,-12.1784 1497.5952,-9.8501"/>
<polygon fill="#191970" stroke="#191970" points="1497.754,-13.3487 1507.715,-9.7393 1497.6773,-6.3491 1497.754,-13.3487"/>
</g>
<!-- Node7 -->
<g id="node8" class="node">
<title>Node7</title>
<polygon fill="#ffffff" stroke="#bfbfbf" points="73.3769,-55.5 73.3769,-73.5 135.5097,-73.5 135.5097,-55.5 73.3769,-55.5"/>
<text text-anchor="middle" x="104.4433" y="-61.5" font-family="Helvetica,sans-Serif" font-size="10.00" fill="#000000">type_traits</text>
</g>
<!-- Node1&#45;&gt;Node7 -->
<g id="edge30" class="edge">
<title>Node1&#45;&gt;Node7</title>
<path fill="none" stroke="#191970" d="M301.4126,-243.7075C247.6792,-237.9523 177.2829,-226.5426 118.4433,-204 67.895,-184.6339 41.5813,-186.4023 15.4433,-139 9.2197,-127.7133 8.7163,-120.9942 15.4433,-110 25.9892,-92.7644 45.3536,-81.7947 63.3329,-74.9566"/>
<polygon fill="#191970" stroke="#191970" points="64.8102,-78.149 73.1142,-71.5692 62.5194,-71.5345 64.8102,-78.149"/>
</g>
<!-- Node1&#45;&gt;Node28 -->
<g id="edge14" class="edge">
<title>Node1&#45;&gt;Node28</title>
<path fill="none" stroke="#191970" d="M469.5757,-248.2262C642.2976,-245.0516 1049.272,-234.6951 1389.4433,-204 1401.4769,-202.9142 1414.2336,-201.4559 1426.5866,-199.8817"/>
<polygon fill="#191970" stroke="#191970" points="1427.3829,-203.3074 1436.8434,-198.5377 1426.4733,-196.3667 1427.3829,-203.3074"/>
</g>
<!-- Node37 -->
<g id="node19" class="node">
<title>Node37</title>
<g id="a_node19"><a xlink:href="enum__class__bitwise_8hpp.html" target="_top" xlink:title="../utils/enum_class\l_bitwise.hpp">
<polygon fill="#ffffff" stroke="#000000" points="127.3154,-175.5 127.3154,-203.5 225.5712,-203.5 225.5712,-175.5 127.3154,-175.5"/>
<text text-anchor="start" x="135.3154" y="-191.5" font-family="Helvetica,sans-Serif" font-size="10.00" fill="#000000">../utils/enum_class</text>
<text text-anchor="middle" x="176.4433" y="-181.5" font-family="Helvetica,sans-Serif" font-size="10.00" fill="#000000">_bitwise.hpp</text>
</a>
</g>
</g>
<!-- Node1&#45;&gt;Node37 -->
<g id="edge25" class="edge">
<title>Node1&#45;&gt;Node37</title>
<path fill="none" stroke="#191970" d="M353.7007,-240.3873C322.3577,-231.3893 273.6789,-217.4145 235.2585,-206.3847"/>
<polygon fill="#191970" stroke="#191970" points="235.8015,-202.8993 225.224,-203.504 233.8699,-209.6276 235.8015,-202.8993"/>
</g>
<!-- Node38 -->
<g id="node20" class="node">
<title>Node38</title>
<polygon fill="#ffffff" stroke="#bfbfbf" points="321.9433,-180.5 321.9433,-198.5 350.9433,-198.5 350.9433,-180.5 321.9433,-180.5"/>
<text text-anchor="middle" x="336.0541" y="-186.5" font-family="Helvetica,sans-Serif" font-size="10.00" fill="#000000">list</text>
</g>
<!-- Node1&#45;&gt;Node38 -->
<g id="edge29" class="edge">
<title>Node1&#45;&gt;Node38</title>
<path fill="none" stroke="#191970" d="M378.0012,-240.3873C370.7341,-231.4888 359.4921,-217.723 350.5322,-206.7517"/>
<polygon fill="#191970" stroke="#191970" points="352.9916,-204.2299 343.9554,-198.6985 347.5699,-208.6577 352.9916,-204.2299"/>
</g>
<!-- Node2&#45;&gt;Node3 -->
<g id="edge3" class="edge">
<title>Node2&#45;&gt;Node3</title>
<path fill="none" stroke="#191970" d="M498.5261,-185.4563C681.2818,-174.0661 1186.4328,-142.3267 1194.4433,-139 1212.4754,-131.5115 1209.659,-118.0594 1227.4433,-110 1252.008,-98.8679 1409.0455,-81.3707 1503.5709,-71.6372"/>
<polygon fill="#191970" stroke="#191970" points="1504.0541,-75.1061 1513.6452,-70.6048 1503.3404,-68.1425 1504.0541,-75.1061"/>
</g>
<!-- Node6 -->
<g id="node7" class="node">
<title>Node6</title>
<g id="a_node7"><a xlink:href="quad_8hpp.html" target="_top" xlink:title="../utils/quad.hpp">
<polygon fill="#ffffff" stroke="#ff0000" points="265.1406,-115.5 265.1406,-133.5 351.746,-133.5 351.746,-115.5 265.1406,-115.5"/>
<text text-anchor="middle" x="308.4433" y="-121.5" font-family="Helvetica,sans-Serif" font-size="10.00" fill="#000000">../utils/quad.hpp</text>
</a>
</g>
</g>
<!-- Node2&#45;&gt;Node6 -->
<g id="edge6" class="edge">
<title>Node2&#45;&gt;Node6</title>
<path fill="none" stroke="#191970" d="M416.0626,-180.462C395.098,-169.5605 359.6309,-151.1176 335.1762,-138.4011"/>
<polygon fill="#191970" stroke="#191970" points="336.5663,-135.1791 326.0794,-133.6708 333.3368,-141.3896 336.5663,-135.1791"/>
</g>
<!-- Node23 -->
<g id="node9" class="node">
<title>Node23</title>
<g id="a_node9"><a xlink:href="triple_8hpp.html" target="_top" xlink:title="../utils/triple.hpp">
<polygon fill="#ffffff" stroke="#ff0000" points="161.4262,-115.5 161.4262,-133.5 247.4604,-133.5 247.4604,-115.5 161.4262,-115.5"/>
<text text-anchor="middle" x="204.4433" y="-121.5" font-family="Helvetica,sans-Serif" font-size="10.00" fill="#000000">../utils/triple.hpp</text>
</a>
</g>
</g>
<!-- Node2&#45;&gt;Node23 -->
<g id="edge8" class="edge">
<title>Node2&#45;&gt;Node23</title>
<path fill="none" stroke="#191970" d="M401.6018,-180.462C361.0412,-168.9492 290.8489,-149.0256 246.0802,-136.3183"/>
<polygon fill="#191970" stroke="#191970" points="246.9583,-132.9294 236.3826,-133.5658 245.0469,-139.6634 246.9583,-132.9294"/>
</g>
<!-- Node24 -->
<g id="node10" class="node">
<title>Node24</title>
<polygon fill="#ffffff" stroke="#bfbfbf" points="33.4731,-110.5 33.4731,-138.5 143.4135,-138.5 143.4135,-110.5 33.4731,-110.5"/>
<text text-anchor="start" x="41.4731" y="-126.5" font-family="Helvetica,sans-Serif" font-size="10.00" fill="#000000">boost/dynamic_bitset</text>
<text text-anchor="middle" x="88.4433" y="-116.5" font-family="Helvetica,sans-Serif" font-size="10.00" fill="#000000">_fwd.hpp</text>
</g>
<!-- Node2&#45;&gt;Node24 -->
<g id="edge10" class="edge">
<title>Node2&#45;&gt;Node24</title>
<path fill="none" stroke="#191970" d="M388.076,-180.4519C378.6207,-178.6107 368.7121,-176.7139 359.4433,-175 270.7575,-158.6013 245.7026,-157.3895 153.5995,-139.1735"/>
<polygon fill="#191970" stroke="#191970" points="154.0545,-135.6955 143.5634,-137.1742 152.6869,-142.5606 154.0545,-135.6955"/>
</g>
<!-- Node25 -->
<g id="node11" class="node">
<title>Node25</title>
<polygon fill="#ffffff" stroke="#bfbfbf" points="308.8793,-55.5 308.8793,-73.5 366.0073,-73.5 366.0073,-55.5 308.8793,-55.5"/>
<text text-anchor="middle" x="337.4433" y="-61.5" font-family="Helvetica,sans-Serif" font-size="10.00" fill="#000000">algorithm</text>
</g>
<!-- Node2&#45;&gt;Node25 -->
<g id="edge11" class="edge">
<title>Node2&#45;&gt;Node25</title>
<path fill="none" stroke="#191970" d="M426.2277,-180.1047C410.1653,-159.1901 371.2593,-108.5313 350.6936,-81.753"/>
<polygon fill="#191970" stroke="#191970" points="353.3486,-79.4638 344.4817,-73.6646 347.7969,-83.7275 353.3486,-79.4638"/>
</g>
<!-- Node26 -->
<g id="node12" class="node">
<title>Node26</title>
<polygon fill="#ffffff" stroke="#bfbfbf" points="1393.7167,-115.5 1393.7167,-133.5 1429.1698,-133.5 1429.1698,-115.5 1393.7167,-115.5"/>
<text text-anchor="middle" x="1411.4433" y="-121.5" font-family="Helvetica,sans-Serif" font-size="10.00" fill="#000000">map</text>
</g>
<!-- Node2&#45;&gt;Node26 -->
<g id="edge12" class="edge">
<title>Node2&#45;&gt;Node26</title>
<path fill="none" stroke="#191970" d="M498.6102,-185.483C662.0224,-175.3894 1086.2219,-149.0548 1227.4433,-139 1282.7685,-135.0609 1347.398,-129.8196 1383.4563,-126.8379"/>
<polygon fill="#191970" stroke="#191970" points="1384.0113,-130.304 1393.6876,-125.989 1383.4324,-123.3279 1384.0113,-130.304"/>
</g>
<!-- Node2&#45;&gt;Node27 -->
<g id="edge13" class="edge">
<title>Node2&#45;&gt;Node27</title>
<path fill="none" stroke="#191970" d="M449.0667,-180.4635C478.71,-163.7463 545.6016,-128.0551 606.4433,-110 704.8482,-80.7978 826.6797,-69.9039 883.4853,-66.2096"/>
<polygon fill="#191970" stroke="#191970" points="883.8696,-69.6926 893.6345,-65.582 883.4375,-62.7059 883.8696,-69.6926"/>
</g>
<!-- Node3&#45;&gt;Node4 -->
<g id="edge4" class="edge">
<title>Node3&#45;&gt;Node4</title>
<path fill="none" stroke="#191970" d="M1568.0125,-55.4179C1561.6671,-47.6624 1552.3624,-36.29 1544.6007,-26.8035"/>
<polygon fill="#191970" stroke="#191970" points="1547.0768,-24.3027 1538.0356,-18.7795 1541.6591,-28.7354 1547.0768,-24.3027"/>
</g>
<!-- Node5 -->
<g id="node6" class="node">
<title>Node5</title>
<polygon fill="#ffffff" stroke="#bfbfbf" points="1749.3866,-.5 1749.3866,-18.5 1801.4999,-18.5 1801.4999,-.5 1749.3866,-.5"/>
<text text-anchor="middle" x="1775.4433" y="-6.5" font-family="Helvetica,sans-Serif" font-size="10.00" fill="#000000">memory</text>
</g>
<!-- Node3&#45;&gt;Node5 -->
<g id="edge5" class="edge">
<title>Node3&#45;&gt;Node5</title>
<path fill="none" stroke="#191970" d="M1608.4692,-55.4179C1644.5725,-45.4895 1702.231,-29.6334 1739.4621,-19.3948"/>
<polygon fill="#191970" stroke="#191970" points="1740.6726,-22.692 1749.3866,-16.6656 1738.8164,-15.9425 1740.6726,-22.692"/>
</g>
<!-- Node6&#45;&gt;Node7 -->
<g id="edge7" class="edge">
<title>Node6&#45;&gt;Node7</title>
<path fill="none" stroke="#191970" d="M277.4601,-115.3873C242.0579,-104.9749 183.997,-87.8982 145.0137,-76.4325"/>
<polygon fill="#191970" stroke="#191970" points="145.6309,-72.9658 135.0497,-73.5019 143.6557,-79.6814 145.6309,-72.9658"/>
</g>
<!-- Node23&#45;&gt;Node7 -->
<g id="edge9" class="edge">
<title>Node23&#45;&gt;Node7</title>
<path fill="none" stroke="#191970" d="M189.2554,-115.3873C173.0092,-105.6395 147.0283,-90.051 128.099,-78.6934"/>
<polygon fill="#191970" stroke="#191970" points="129.8221,-75.6456 119.4464,-73.5019 126.2206,-81.6481 129.8221,-75.6456"/>
</g>
<!-- Node28&#45;&gt;Node3 -->
<g id="edge15" class="edge">
<title>Node28&#45;&gt;Node3</title>
<path fill="none" stroke="#191970" d="M1508.7245,-180.3056C1520.3711,-171.0211 1537.649,-155.6983 1548.4433,-139 1559.5014,-121.8936 1566.7999,-99.6538 1570.9887,-83.9408"/>
<polygon fill="#191970" stroke="#191970" points="1574.4887,-84.3681 1573.4985,-73.8196 1567.6945,-82.6833 1574.4887,-84.3681"/>
</g>
<!-- Node28&#45;&gt;Node5 -->
<g id="edge23" class="edge">
<title>Node28&#45;&gt;Node5</title>
<path fill="none" stroke="#191970" d="M1556.8659,-181.2099C1641.2157,-169.3483 1784.8682,-147.9769 1792.4433,-139 1819.143,-107.3593 1799.1114,-54.9807 1785.4249,-27.5385"/>
<polygon fill="#191970" stroke="#191970" points="1788.5062,-25.8778 1780.7679,-18.6411 1782.3044,-29.1239 1788.5062,-25.8778"/>
</g>
<!-- Node28&#45;&gt;Node26 -->
<g id="edge22" class="edge">
<title>Node28&#45;&gt;Node26</title>
<path fill="none" stroke="#191970" d="M1484.6244,-180.462C1470.8731,-169.9464 1447.946,-152.4138 1431.415,-139.7725"/>
<polygon fill="#191970" stroke="#191970" points="1433.5055,-136.965 1423.4358,-133.6708 1429.2533,-142.5256 1433.5055,-136.965"/>
</g>
<!-- Node28&#45;&gt;Node27 -->
<g id="edge24" class="edge">
<title>Node28&#45;&gt;Node27</title>
<path fill="none" stroke="#191970" d="M1435.957,-180.7927C1420.7877,-178.7497 1404.5344,-176.6809 1389.4433,-175 1298.1037,-164.8264 1058.8796,-181.5974 977.4433,-139 953.4142,-126.4309 935.0685,-100.1631 924.7731,-82.4246"/>
<polygon fill="#191970" stroke="#191970" points="927.7929,-80.6527 919.8967,-73.5886 921.6642,-84.035 927.7929,-80.6527"/>
</g>
<!-- Node29 -->
<g id="node15" class="node">
<title>Node29</title>
<g id="a_node15"><a xlink:href="periodictable_8hpp.html" target="_top" xlink:title="periodictable.hpp">
<polygon fill="#ffffff" stroke="#ff0000" points="1447.3598,-115.5 1447.3598,-133.5 1539.5268,-133.5 1539.5268,-115.5 1447.3598,-115.5"/>
<text text-anchor="middle" x="1493.4433" y="-121.5" font-family="Helvetica,sans-Serif" font-size="10.00" fill="#000000">periodictable.hpp</text>
</a>
</g>
</g>
<!-- Node28&#45;&gt;Node29 -->
<g id="edge16" class="edge">
<title>Node28&#45;&gt;Node29</title>
<path fill="none" stroke="#191970" d="M1496.0261,-180.462C1495.5923,-171.061 1494.8995,-156.0518 1494.3407,-143.943"/>
<polygon fill="#191970" stroke="#191970" points="1497.8337,-143.7101 1493.8763,-133.8821 1490.8412,-144.0329 1497.8337,-143.7101"/>
</g>
<!-- Node36 -->
<g id="node18" class="node">
<title>Node36</title>
<polygon fill="#ffffff" stroke="#bfbfbf" points="1595.0937,-115.5 1595.0937,-133.5 1677.7929,-133.5 1677.7929,-115.5 1595.0937,-115.5"/>
<text text-anchor="middle" x="1636.4433" y="-121.5" font-family="Helvetica,sans-Serif" font-size="10.00" fill="#000000">EASTL/bitset.h</text>
</g>
<!-- Node28&#45;&gt;Node36 -->
<g id="edge21" class="edge">
<title>Node28&#45;&gt;Node36</title>
<path fill="none" stroke="#191970" d="M1515.9097,-180.462C1539.7017,-169.4158 1580.1706,-150.6266 1607.5866,-137.8977"/>
<polygon fill="#191970" stroke="#191970" points="1609.0947,-141.0565 1616.6909,-133.6708 1606.1469,-134.7074 1609.0947,-141.0565"/>
</g>
<!-- Node29&#45;&gt;Node3 -->
<g id="edge17" class="edge">
<title>Node29&#45;&gt;Node3</title>
<path fill="none" stroke="#191970" d="M1505.8973,-115.3873C1518.856,-105.9054 1539.3674,-90.897 1554.763,-79.6319"/>
<polygon fill="#191970" stroke="#191970" points="1557.1372,-82.2316 1563.1407,-73.5019 1553.0036,-76.5824 1557.1372,-82.2316"/>
</g>
<!-- Node29&#45;&gt;Node4 -->
<g id="edge20" class="edge">
<title>Node29&#45;&gt;Node4</title>
<path fill="none" stroke="#191970" d="M1493.8478,-115.2458C1494.6749,-101.6768 1497.1505,-75.7445 1504.4433,-55 1507.8266,-45.3762 1513.2339,-35.4542 1518.2431,-27.3414"/>
<polygon fill="#191970" stroke="#191970" points="1521.2935,-29.0701 1523.7956,-18.7749 1515.4195,-25.2627 1521.2935,-29.0701"/>
</g>
<!-- Node33 -->
<g id="node16" class="node">
<title>Node33</title>
<polygon fill="#ffffff" stroke="#bfbfbf" points="2192.9213,-55.5 2192.9213,-73.5 2303.9653,-73.5 2303.9653,-55.5 2192.9213,-55.5"/>
<text text-anchor="middle" x="2248.4433" y="-61.5" font-family="Helvetica,sans-Serif" font-size="10.00" fill="#000000">EASTL/vector_map.h</text>
</g>
<!-- Node29&#45;&gt;Node33 -->
<g id="edge18" class="edge">
<title>Node29&#45;&gt;Node33</title>
<path fill="none" stroke="#191970" d="M1539.6964,-116.4852C1554.5849,-114.1209 1571.1785,-111.7114 1586.4433,-110 1803.9218,-85.618 2063.1599,-72.3674 2182.4325,-67.1537"/>
<polygon fill="#191970" stroke="#191970" points="2182.6608,-70.6472 2192.5001,-66.7182 2182.3582,-63.6537 2182.6608,-70.6472"/>
</g>
<!-- Node34 -->
<g id="node17" class="node">
<title>Node34</title>
<polygon fill="#ffffff" stroke="#bfbfbf" points="991.0517,-55.5 991.0517,-73.5 1029.8349,-73.5 1029.8349,-55.5 991.0517,-55.5"/>
<text text-anchor="middle" x="1010.4433" y="-61.5" font-family="Helvetica,sans-Serif" font-size="10.00" fill="#000000">array</text>
</g>
<!-- Node29&#45;&gt;Node34 -->
<g id="edge19" class="edge">
<title>Node29&#45;&gt;Node34</title>
<path fill="none" stroke="#191970" d="M1462.513,-115.4252C1454.7118,-113.3913 1446.3151,-111.4187 1438.4433,-110 1278.889,-81.2444 1236.3633,-93.7283 1075.4433,-74 1063.8625,-72.5802 1051.1571,-70.7781 1040.0754,-69.1258"/>
<polygon fill="#191970" stroke="#191970" points="1040.4494,-65.6426 1030.0379,-67.6051 1039.4007,-72.5637 1040.4494,-65.6426"/>
</g>
<!-- Node37&#45;&gt;Node7 -->
<g id="edge26" class="edge">
<title>Node37&#45;&gt;Node7</title>
<path fill="none" stroke="#191970" d="M127.2988,-179.6645C87.7393,-170.632 36.768,-156.0819 24.4433,-139 16.9019,-128.5477 17.9627,-121.1412 24.4433,-110 33.1587,-95.0167 48.8538,-84.5614 64.0479,-77.4872"/>
<polygon fill="#191970" stroke="#191970" points="65.5511,-80.6512 73.3768,-73.5092 62.8053,-74.2122 65.5511,-80.6512"/>
</g>
<!-- Node39&#45;&gt;Node3 -->
<g id="edge32" class="edge">
<title>Node39&#45;&gt;Node3</title>
<path fill="none" stroke="#191970" d="M735.5416,-120.4934C895.5024,-109.8294 1331.1902,-80.7835 1503.7144,-69.2819"/>
<polygon fill="#191970" stroke="#191970" points="1503.9621,-72.7733 1513.7071,-68.6157 1503.4964,-65.7888 1503.9621,-72.7733"/>
</g>
<!-- Node39&#45;&gt;Node4 -->
<g id="edge33" class="edge">
<title>Node39&#45;&gt;Node4</title>
<path fill="none" stroke="#191970" d="M709.1269,-110.374C749.8558,-93.984 820.8662,-67.6017 884.4433,-55 1003.8355,-31.3351 1383.3672,-15.1531 1497.6018,-10.7244"/>
<polygon fill="#191970" stroke="#191970" points="1497.9525,-14.2136 1507.8109,-10.3326 1497.684,-7.2188 1497.9525,-14.2136"/>
</g>
<!-- Node39&#45;&gt;Node27 -->
<g id="edge35" class="edge">
<title>Node39&#45;&gt;Node27</title>
<path fill="none" stroke="#191970" d="M731.7126,-110.4327C778.95,-98.6233 844.7484,-82.1737 883.4411,-72.5005"/>
<polygon fill="#191970" stroke="#191970" points="884.7452,-75.7823 893.5978,-69.9614 883.0474,-68.9913 884.7452,-75.7823"/>
</g>
<!-- Node40 -->
<g id="node22" class="node">
<title>Node40</title>
<polygon fill="#ffffff" stroke="#bfbfbf" points="677.0566,-55.5 677.0566,-73.5 715.83,-73.5 715.83,-55.5 677.0566,-55.5"/>
<text text-anchor="middle" x="696.4433" y="-61.5" font-family="Helvetica,sans-Serif" font-size="10.00" fill="#000000">limits</text>
</g>
<!-- Node39&#45;&gt;Node40 -->
<g id="edge34" class="edge">
<title>Node39&#45;&gt;Node40</title>
<path fill="none" stroke="#191970" d="M680.42,-110.2808C683.2483,-102.2 686.824,-91.9836 689.8797,-83.2531"/>
<polygon fill="#191970" stroke="#191970" points="693.2638,-84.179 693.2638,-73.5842 686.6567,-81.8665 693.2638,-84.179"/>
</g>
<!-- Node41&#45;&gt;Node3 -->
<g id="edge37" class="edge">
<title>Node41&#45;&gt;Node3</title>
<path fill="none" stroke="#191970" d="M1166.6506,-179.1358C1206.5002,-171.061 1259.3426,-157.9958 1303.4433,-139 1325.6399,-129.4391 1327.0044,-118.9776 1349.4433,-110 1399.018,-90.1656 1458.2997,-78.6471 1503.7077,-72.1636"/>
<polygon fill="#191970" stroke="#191970" points="1504.3337,-75.6105 1513.762,-70.7776 1503.3777,-68.6761 1504.3337,-75.6105"/>
</g>
<!-- Node42 -->
<g id="node24" class="node">
<title>Node42</title>
<g id="a_node24"><a xlink:href="numerics_8hpp.html" target="_top" xlink:title="../../utils/numerics.hpp">
<polygon fill="#ffffff" stroke="#000000" points="407.8129,-115.5 407.8129,-133.5 521.0737,-133.5 521.0737,-115.5 407.8129,-115.5"/>
<text text-anchor="middle" x="464.4433" y="-121.5" font-family="Helvetica,sans-Serif" font-size="10.00" fill="#000000">../../utils/numerics.hpp</text>
</a>
</g>
</g>
<!-- Node41&#45;&gt;Node42 -->
<g id="edge38" class="edge">
<title>Node41&#45;&gt;Node42</title>
<path fill="none" stroke="#191970" d="M1046.1705,-186.4193C941.7412,-180.5804 720.5799,-166.003 535.4433,-139 528.6683,-138.0118 521.5651,-136.7885 514.5795,-135.4747"/>
<polygon fill="#191970" stroke="#191970" points="514.9664,-131.9842 504.4808,-133.5018 513.6242,-138.8543 514.9664,-131.9842"/>
</g>
<!-- Node42&#45;&gt;Node4 -->
<g id="edge41" class="edge">
<title>Node42&#45;&gt;Node4</title>
<path fill="none" stroke="#191970" d="M449.3939,-115.3609C428.3144,-101.4868 394.5789,-74.6484 413.4433,-55 451.973,-14.8688 1317.7476,-10.1249 1497.8198,-9.5719"/>
<polygon fill="#191970" stroke="#191970" points="1497.9943,-13.0716 1507.9842,-9.543 1497.9743,-6.0716 1497.9943,-13.0716"/>
</g>
<!-- Node42&#45;&gt;Node25 -->
<g id="edge39" class="edge">
<title>Node42&#45;&gt;Node25</title>
<path fill="none" stroke="#191970" d="M445.1547,-115.3873C423.9592,-105.3737 389.7173,-89.1964 365.5395,-77.7738"/>
<polygon fill="#191970" stroke="#191970" points="367.0341,-74.609 356.4973,-73.5019 364.0439,-80.9382 367.0341,-74.609"/>
</g>
<!-- Node42&#45;&gt;Node27 -->
<g id="edge45" class="edge">
<title>Node42&#45;&gt;Node27</title>
<path fill="none" stroke="#191970" d="M521.1061,-116.9617C616.7142,-104.2422 807.0681,-78.918 883.0365,-68.8113"/>
<polygon fill="#191970" stroke="#191970" points="883.939,-72.2222 893.3901,-67.4339 883.0158,-65.2833 883.939,-72.2222"/>
</g>
<!-- Node43 -->
<g id="node25" class="node">
<title>Node43</title>
<polygon fill="#ffffff" stroke="#bfbfbf" points="422.8276,-55.5 422.8276,-73.5 466.059,-73.5 466.059,-55.5 422.8276,-55.5"/>
<text text-anchor="middle" x="444.4433" y="-61.5" font-family="Helvetica,sans-Serif" font-size="10.00" fill="#000000">cmath</text>
</g>
<!-- Node42&#45;&gt;Node43 -->
<g id="edge40" class="edge">
<title>Node42&#45;&gt;Node43</title>
<path fill="none" stroke="#191970" d="M461.4057,-115.3873C458.5864,-106.9293 454.3013,-94.074 450.7435,-83.4007"/>
<polygon fill="#191970" stroke="#191970" points="453.9922,-82.0785 447.5094,-73.6985 447.3514,-84.2921 453.9922,-82.0785"/>
</g>
<!-- Node31 -->
<g id="node26" class="node">
<title>Node31</title>
<polygon fill="#ffffff" stroke="#bfbfbf" points="611.8818,-55.5 611.8818,-73.5 659.0048,-73.5 659.0048,-55.5 611.8818,-55.5"/>
<text text-anchor="middle" x="635.4433" y="-61.5" font-family="Helvetica,sans-Serif" font-size="10.00" fill="#000000">iterator</text>
</g>
<!-- Node42&#45;&gt;Node31 -->
<g id="edge42" class="edge">
<title>Node42&#45;&gt;Node31</title>
<path fill="none" stroke="#191970" d="M490.4145,-115.3873C520.3037,-104.8999 569.461,-87.6517 602.1397,-76.1855"/>
<polygon fill="#191970" stroke="#191970" points="603.4356,-79.44 611.7128,-72.8265 601.118,-72.8348 603.4356,-79.44"/>
</g>
<!-- Node44 -->
<g id="node27" class="node">
<title>Node44</title>
<polygon fill="#ffffff" stroke="#bfbfbf" points="483.6601,-55.5 483.6601,-73.5 535.2265,-73.5 535.2265,-55.5 483.6601,-55.5"/>
<text text-anchor="middle" x="509.4433" y="-61.5" font-family="Helvetica,sans-Serif" font-size="10.00" fill="#000000">numeric</text>
</g>
<!-- Node42&#45;&gt;Node44 -->
<g id="edge43" class="edge">
<title>Node42&#45;&gt;Node44</title>
<path fill="none" stroke="#191970" d="M471.2778,-115.3873C477.9517,-106.4888 488.276,-92.723 496.5045,-81.7517"/>
<polygon fill="#191970" stroke="#191970" points="499.3444,-83.7985 502.5444,-73.6985 493.7444,-79.5985 499.3444,-83.7985"/>
</g>
<!-- Node32 -->
<g id="node28" class="node">
<title>Node32</title>
<polygon fill="#ffffff" stroke="#bfbfbf" points="553.2167,-55.5 553.2167,-73.5 593.6698,-73.5 593.6698,-55.5 553.2167,-55.5"/>
<text text-anchor="middle" x="573.4433" y="-61.5" font-family="Helvetica,sans-Serif" font-size="10.00" fill="#000000">string</text>
</g>
<!-- Node42&#45;&gt;Node32 -->
<g id="edge44" class="edge">
<title>Node42&#45;&gt;Node32</title>
<path fill="none" stroke="#191970" d="M480.998,-115.3873C498.8675,-105.5509 527.5414,-89.7671 548.2194,-78.3847"/>
<polygon fill="#191970" stroke="#191970" points="550.0172,-81.3904 557.0899,-73.5019 546.6416,-75.258 550.0172,-81.3904"/>
</g>
<!-- Node45&#45;&gt;Node3 -->
<g id="edge47" class="edge">
<title>Node45&#45;&gt;Node3</title>
<path fill="none" stroke="#191970" d="M2389.3789,-112.0178C2384.6758,-111.2586 2379.9895,-110.572 2375.4433,-110 2108.3204,-76.3928 1787.8695,-67.5948 1647.3845,-65.3022"/>
<polygon fill="#191970" stroke="#191970" points="1647.2331,-61.7995 1637.1794,-65.1421 1647.1232,-68.7987 1647.2331,-61.7995"/>
</g>
<!-- Node45&#45;&gt;Node33 -->
<g id="edge48" class="edge">
<title>Node45&#45;&gt;Node33</title>
<path fill="none" stroke="#191970" d="M2402.3177,-110.4327C2367.7214,-100.1054 2321.2372,-86.2295 2288.4428,-76.4402"/>
<polygon fill="#191970" stroke="#191970" points="2289.3164,-73.0484 2278.7331,-73.5417 2287.3141,-79.7559 2289.3164,-73.0484"/>
</g>
<!-- Node46&#45;&gt;Node3 -->
<g id="edge50" class="edge">
<title>Node46&#45;&gt;Node3</title>
<path fill="none" stroke="#191970" d="M1327.913,-175.3236C1338.1789,-157.2757 1358.3782,-126.4663 1384.4433,-110 1405.251,-96.855 1463.3577,-84.0622 1510.0636,-75.4068"/>
<polygon fill="#191970" stroke="#191970" points="1510.9311,-78.8065 1520.1413,-73.5699 1509.6758,-71.9199 1510.9311,-78.8065"/>
</g>
<!-- Node46&#45;&gt;Node26 -->
<g id="edge51" class="edge">
<title>Node46&#45;&gt;Node26</title>
<path fill="none" stroke="#191970" d="M1340.1889,-175.396C1355.0459,-164.7838 1375.3654,-150.2699 1390.5046,-139.4562"/>
<polygon fill="#191970" stroke="#191970" points="1392.6363,-142.2348 1398.7393,-133.5743 1388.5676,-136.5387 1392.6363,-142.2348"/>
</g>
<!-- Node46&#45;&gt;Node27 -->
<g id="edge52" class="edge">
<title>Node46&#45;&gt;Node27</title>
<path fill="none" stroke="#191970" d="M1260.3361,-177.3217C1255.6427,-176.4932 1250.9703,-175.7079 1246.4433,-175 1178.5783,-164.388 992.5099,-182.6142 939.4433,-139 923.0812,-125.5524 917.7464,-100.8645 916.0764,-83.6076"/>
<polygon fill="#191970" stroke="#191970" points="919.5632,-83.2883 915.4291,-73.5333 912.5776,-83.7372 919.5632,-83.2883"/>
</g>
<!-- Node47&#45;&gt;Node3 -->
<g id="edge55" class="edge">
<title>Node47&#45;&gt;Node3</title>
<path fill="none" stroke="#191970" d="M1167.5551,-115.4276C1178.0181,-113.5085 1189.0962,-111.5862 1199.4433,-110 1304.8157,-93.8468 1427.525,-79.9046 1503.3509,-71.8515"/>
<polygon fill="#191970" stroke="#191970" points="1504.1556,-75.2861 1513.7324,-70.7547 1503.42,-68.3248 1504.1556,-75.2861"/>
</g>
<!-- Node47&#45;&gt;Node5 -->
<g id="edge57" class="edge">
<title>Node47&#45;&gt;Node5</title>
<path fill="none" stroke="#191970" d="M1169.7015,-115.4869C1179.5406,-113.6611 1189.8239,-111.7614 1199.4433,-110 1334.9325,-85.1904 1368.7427,-78.6262 1504.4433,-55 1588.4275,-40.3779 1687.2032,-24.0003 1739.2032,-15.4419"/>
<polygon fill="#191970" stroke="#191970" points="1739.9649,-18.8638 1749.2645,-13.7875 1738.8291,-11.9565 1739.9649,-18.8638"/>
</g>
<!-- Node47&#45;&gt;Node27 -->
<g id="edge58" class="edge">
<title>Node47&#45;&gt;Node27</title>
<path fill="none" stroke="#191970" d="M1090.1563,-115.3873C1051.4108,-104.1022 985.7881,-84.9888 946.944,-73.675"/>
<polygon fill="#191970" stroke="#191970" points="947.7901,-70.276 937.2103,-70.8399 945.8326,-76.9968 947.7901,-70.276"/>
</g>
<!-- Node48 -->
<g id="node32" class="node">
<title>Node48</title>
<polygon fill="#ffffff" stroke="#bfbfbf" points="1084.8129,-55.5 1084.8129,-73.5 1158.0737,-73.5 1158.0737,-55.5 1084.8129,-55.5"/>
<text text-anchor="middle" x="1121.4433" y="-61.5" font-family="Helvetica,sans-Serif" font-size="10.00" fill="#000000">Eigen/Dense</text>
</g>
<!-- Node47&#45;&gt;Node48 -->
<g id="edge56" class="edge">
<title>Node47&#45;&gt;Node48</title>
<path fill="none" stroke="#191970" d="M1121.4433,-115.3873C1121.4433,-107.0174 1121.4433,-94.3414 1121.4433,-83.735"/>
<polygon fill="#191970" stroke="#191970" points="1124.9434,-83.6984 1121.4433,-73.6985 1117.9434,-83.6985 1124.9434,-83.6984"/>
</g>
<!-- Node49&#45;&gt;Node3 -->
<g id="edge61" class="edge">
<title>Node49&#45;&gt;Node3</title>
<path fill="none" stroke="#191970" d="M2168.1467,-180.3249C2157.601,-163.0398 2132.1502,-125.9574 2099.4433,-110 2059.8012,-90.6589 1781.5027,-74.5942 1647.3822,-67.8778"/>
<polygon fill="#191970" stroke="#191970" points="1647.3616,-64.3726 1637.2002,-67.372 1647.0142,-71.3639 1647.3616,-64.3726"/>
</g>
<!-- Node49&#45;&gt;Node4 -->
<g id="edge63" class="edge">
<title>Node49&#45;&gt;Node4</title>
<path fill="none" stroke="#191970" d="M2171.4373,-180.3671C2167.2189,-163.4894 2155.7445,-127.5413 2131.4433,-110 2038.8841,-43.1881 1675.2619,-17.6001 1563.381,-11.2129"/>
<polygon fill="#191970" stroke="#191970" points="1563.2402,-7.6997 1553.061,-10.6379 1562.8507,-14.6889 1563.2402,-7.6997"/>
</g>
<!-- Node49&#45;&gt;Node26 -->
<g id="edge64" class="edge">
<title>Node49&#45;&gt;Node26</title>
<path fill="none" stroke="#191970" d="M2100.1808,-184.6678C1915.7487,-172.477 1446.3405,-141.277 1438.4433,-139 1437.2067,-138.6435 1435.9628,-138.2248 1434.7239,-137.7591"/>
<polygon fill="#191970" stroke="#191970" points="1436.0788,-134.5296 1425.5328,-133.5132 1433.1432,-140.8843 1436.0788,-134.5296"/>
</g>
<!-- Node49&#45;&gt;Node27 -->
<g id="edge66" class="edge">
<title>Node49&#45;&gt;Node27</title>
<path fill="none" stroke="#191970" d="M2100.1383,-184.1888C2057.37,-181.21 2002.37,-177.585 1953.4433,-175 1852.9484,-169.6903 1143.1208,-173.1115 1048.4433,-139 1028.4558,-131.7987 1028.5635,-121.0913 1010.4433,-110 989.989,-97.48 965.5611,-85.8471 946.5983,-77.478"/>
<polygon fill="#191970" stroke="#191970" points="947.7968,-74.1828 937.2301,-73.4116 945.0096,-80.604 947.7968,-74.1828"/>
</g>
<!-- Node50 -->
<g id="node34" class="node">
<title>Node50</title>
<polygon fill="#ffffff" stroke="#bfbfbf" points="2293.4926,-115.5 2293.4926,-133.5 2333.394,-133.5 2333.394,-115.5 2293.4926,-115.5"/>
<text text-anchor="middle" x="2313.4433" y="-121.5" font-family="Helvetica,sans-Serif" font-size="10.00" fill="#000000">bitset</text>
</g>
<!-- Node49&#45;&gt;Node50 -->
<g id="edge62" class="edge">
<title>Node49&#45;&gt;Node50</title>
<path fill="none" stroke="#191970" d="M2194.0057,-180.4161C2216.3667,-170.4746 2253.1081,-153.9557 2284.4433,-139 2284.9989,-138.7348 2285.56,-138.4658 2286.1251,-138.1938"/>
<polygon fill="#191970" stroke="#191970" points="2287.9537,-141.1954 2295.3939,-133.6526 2284.8739,-134.9093 2287.9537,-141.1954"/>
</g>
<!-- Node51 -->
<g id="node35" class="node">
<title>Node51</title>
<polygon fill="#ffffff" stroke="#bfbfbf" points="2189.1406,-115.5 2189.1406,-133.5 2275.746,-133.5 2275.746,-115.5 2189.1406,-115.5"/>
<text text-anchor="middle" x="2232.4433" y="-121.5" font-family="Helvetica,sans-Serif" font-size="10.00" fill="#000000">unordered_map</text>
</g>
<!-- Node49&#45;&gt;Node51 -->
<g id="edge65" class="edge">
<title>Node49&#45;&gt;Node51</title>
<path fill="none" stroke="#191970" d="M2181.647,-180.462C2190.7897,-170.3895 2205.7762,-153.879 2217.1072,-141.3957"/>
<polygon fill="#191970" stroke="#191970" points="2219.7977,-143.6391 2223.9272,-133.8821 2214.6145,-138.9343 2219.7977,-143.6391"/>
</g>
<!-- Node52&#45;&gt;Node3 -->
<g id="edge68" class="edge">
<title>Node52&#45;&gt;Node3</title>
<path fill="none" stroke="#191970" d="M848.839,-184.6318C963.1483,-177.3567 1159.4104,-161.995 1227.4433,-139 1251.0556,-131.0191 1252.0043,-118.4763 1275.4433,-110 1316.1331,-95.2853 1428.1332,-80.7197 1503.1701,-72.1709"/>
<polygon fill="#191970" stroke="#191970" points="1503.957,-75.6044 1513.5015,-71.0052 1503.1721,-68.6486 1503.957,-75.6044"/>
</g>
<!-- Node52&#45;&gt;Node6 -->
<g id="edge70" class="edge">
<title>Node52&#45;&gt;Node6</title>
<path fill="none" stroke="#191970" d="M694.7603,-180.461C621.3446,-170.6908 501.5678,-154.4393 398.4433,-139 386.582,-137.2242 373.8565,-135.2291 361.8179,-133.3002"/>
<polygon fill="#191970" stroke="#191970" points="362.3306,-129.8378 351.9011,-131.7018 361.2166,-136.7486 362.3306,-129.8378"/>
</g>
<!-- Node52&#45;&gt;Node23 -->
<g id="edge71" class="edge">
<title>Node52&#45;&gt;Node23</title>
<path fill="none" stroke="#191970" d="M678.0332,-185.4999C576.7448,-179.7203 403.1496,-166.547 256.4433,-139 252.1946,-138.2022 247.7889,-137.2212 243.4206,-136.1489"/>
<polygon fill="#191970" stroke="#191970" points="243.9476,-132.6691 233.3874,-133.5244 242.1761,-139.4412 243.9476,-132.6691"/>
</g>
<!-- Node52&#45;&gt;Node27 -->
<g id="edge74" class="edge">
<title>Node52&#45;&gt;Node27</title>
<path fill="none" stroke="#191970" d="M763.6385,-180.3268C764.4799,-164.018 768.5475,-129.8323 787.4433,-110 812.7996,-83.387 854.7264,-72.314 883.6477,-67.7232"/>
<polygon fill="#191970" stroke="#191970" points="884.2479,-71.1732 893.6598,-66.3084 883.2684,-64.2421 884.2479,-71.1732"/>
</g>
<!-- Node52&#45;&gt;Node33 -->
<g id="edge72" class="edge">
<title>Node52&#45;&gt;Node33</title>
<path fill="none" stroke="#191970" d="M848.5983,-184.8788C902.683,-181.9722 974.1674,-178.1828 1037.4433,-175 1205.1996,-166.5618 1628.0292,-173.3714 1792.4433,-139 1827.8316,-131.6019 1833.3421,-118.6586 1868.4433,-110 1976.4181,-83.3652 2105.6428,-72.1088 2182.1734,-67.5072"/>
<polygon fill="#191970" stroke="#191970" points="2182.8345,-70.9748 2192.6148,-66.9012 2182.4288,-63.9866 2182.8345,-70.9748"/>
</g>
<!-- Node52&#45;&gt;Node34 -->
<g id="edge73" class="edge">
<title>Node52&#45;&gt;Node34</title>
<path fill="none" stroke="#191970" d="M781.6058,-180.3085C824.6226,-158.5388 932.9019,-103.7416 983.5464,-78.1118"/>
<polygon fill="#191970" stroke="#191970" points="985.2452,-81.1748 992.5873,-73.5364 982.0844,-74.929 985.2452,-81.1748"/>
</g>
<!-- Node52&#45;&gt;Node42 -->
<g id="edge69" class="edge">
<title>Node52&#45;&gt;Node42</title>
<path fill="none" stroke="#191970" d="M721.8686,-180.462C668.1308,-168.7799 574.5571,-148.4378 516.2505,-135.7624"/>
<polygon fill="#191970" stroke="#191970" points="516.661,-132.27 506.1457,-133.5658 515.174,-139.1102 516.661,-132.27"/>
</g>
<!-- Node53&#45;&gt;Node3 -->
<g id="edge76" class="edge">
<title>Node53&#45;&gt;Node3</title>
<path fill="none" stroke="#191970" d="M1907.6486,-180.4404C1952.8393,-167.7584 2019.6337,-142.5657 1990.4433,-110 1979.1434,-97.3935 1763.2326,-78.9487 1647.4319,-69.9052"/>
<polygon fill="#191970" stroke="#191970" points="1647.4699,-66.3977 1637.2288,-69.1125 1646.9277,-73.3767 1647.4699,-66.3977"/>
</g>
<!-- Node53&#45;&gt;Node5 -->
<g id="edge85" class="edge">
<title>Node53&#45;&gt;Node5</title>
<path fill="none" stroke="#191970" d="M1944.1037,-184.5693C1987.0738,-181.7174 2042.3238,-178.0924 2091.4433,-175 2157.7658,-170.8246 2642.8895,-187.3835 2688.4433,-139 2697.2786,-129.6159 2696.7229,-119.8778 2688.4433,-110 2631.0581,-41.5373 1974.6174,-15.9268 1811.8101,-10.6046"/>
<polygon fill="#191970" stroke="#191970" points="1811.919,-7.1064 1801.8117,-10.2831 1811.694,-14.1028 1811.919,-7.1064"/>
</g>
<!-- Node53&#45;&gt;Node27 -->
<g id="edge86" class="edge">
<title>Node53&#45;&gt;Node27</title>
<path fill="none" stroke="#191970" d="M1796.6553,-181.299C1774.4299,-179.0229 1749.9616,-176.7098 1727.4433,-175 1569.4737,-163.0051 1164.5108,-192.6391 1015.4433,-139 1013.1357,-138.1696 963.9682,-101.1701 935.4519,-79.6337"/>
<polygon fill="#191970" stroke="#191970" points="937.4281,-76.7402 927.3397,-73.5036 933.2078,-82.325 937.4281,-76.7402"/>
</g>
<!-- Node53&#45;&gt;Node33 -->
<g id="edge83" class="edge">
<title>Node53&#45;&gt;Node33</title>
<path fill="none" stroke="#191970" d="M1897.9326,-180.4096C1964.7576,-158.3114 2135.7769,-101.7574 2211.4579,-76.7306"/>
<polygon fill="#191970" stroke="#191970" points="2212.6616,-80.0191 2221.057,-73.5563 2210.4638,-73.373 2212.6616,-80.0191"/>
</g>
<!-- Node53&#45;&gt;Node36 -->
<g id="edge82" class="edge">
<title>Node53&#45;&gt;Node36</title>
<path fill="none" stroke="#191970" d="M1836.8272,-180.4297C1799.907,-170.4316 1738.8867,-153.8002 1686.4433,-139 1683.4518,-138.1558 1680.3618,-137.2767 1677.2536,-136.3874"/>
<polygon fill="#191970" stroke="#191970" points="1677.9408,-132.9432 1667.3629,-133.542 1676.0055,-139.6703 1677.9408,-132.9432"/>
</g>
<!-- Node54 -->
<g id="node38" class="node">
<title>Node54</title>
<g id="a_node38"><a xlink:href="base__graph_8hpp.html" target="_top" xlink:title="base_graph.hpp">
<polygon fill="#ffffff" stroke="#ff0000" points="1695.3007,-115.5 1695.3007,-133.5 1783.5859,-133.5 1783.5859,-115.5 1695.3007,-115.5"/>
<text text-anchor="middle" x="1739.4433" y="-121.5" font-family="Helvetica,sans-Serif" font-size="10.00" fill="#000000">base_graph.hpp</text>
</a>
</g>
</g>
<!-- Node53&#45;&gt;Node54 -->
<g id="edge77" class="edge">
<title>Node53&#45;&gt;Node54</title>
<path fill="none" stroke="#191970" d="M1852.2283,-180.462C1830.1602,-169.5122 1792.7587,-150.9542 1767.1198,-138.2326"/>
<polygon fill="#191970" stroke="#191970" points="1768.4395,-134.9803 1757.9259,-133.6708 1765.3281,-141.2508 1768.4395,-134.9803"/>
</g>
<!-- Node58 -->
<g id="node39" class="node">
<title>Node58</title>
<polygon fill="#ffffff" stroke="#bfbfbf" points="1876.978,-115.5 1876.978,-133.5 1981.9086,-133.5 1981.9086,-115.5 1876.978,-115.5"/>
<text text-anchor="middle" x="1929.4433" y="-121.5" font-family="Helvetica,sans-Serif" font-size="10.00" fill="#000000">EASTL/vector_set.h</text>
</g>
<!-- Node53&#45;&gt;Node58 -->
<g id="edge84" class="edge">
<title>Node53&#45;&gt;Node58</title>
<path fill="none" stroke="#191970" d="M1878.647,-180.462C1887.7897,-170.3895 1902.7762,-153.879 1914.1072,-141.3957"/>
<polygon fill="#191970" stroke="#191970" points="1916.7977,-143.6391 1920.9272,-133.8821 1911.6145,-138.9343 1916.7977,-143.6391"/>
</g>
<!-- Node54&#45;&gt;Node3 -->
<g id="edge78" class="edge">
<title>Node54&#45;&gt;Node3</title>
<path fill="none" stroke="#191970" d="M1714.5352,-115.3873C1686.5591,-105.1521 1640.982,-88.4776 1609.6722,-77.0228"/>
<polygon fill="#191970" stroke="#191970" points="1610.6422,-73.6508 1600.0484,-73.5019 1608.2371,-80.2247 1610.6422,-73.6508"/>
</g>
<!-- Node54&#45;&gt;Node4 -->
<g id="edge79" class="edge">
<title>Node54&#45;&gt;Node4</title>
<path fill="none" stroke="#191970" d="M1729.2025,-115.3792C1712.7167,-101.0478 1678.8512,-73.0337 1646.4433,-55 1619.4827,-39.9975 1586.5576,-27.5888 1562.6824,-19.5404"/>
<polygon fill="#191970" stroke="#191970" points="1563.6411,-16.1712 1553.048,-16.3632 1561.4487,-22.819 1563.6411,-16.1712"/>
</g>
<!-- Node54&#45;&gt;Node5 -->
<g id="edge80" class="edge">
<title>Node54&#45;&gt;Node5</title>
<path fill="none" stroke="#191970" d="M1742.2681,-115.4761C1748.1014,-96.842 1761.5892,-53.7561 1769.453,-28.6357"/>
<polygon fill="#191970" stroke="#191970" points="1772.8842,-29.3903 1772.5316,-18.8014 1766.2038,-27.2991 1772.8842,-29.3903"/>
</g>
<!-- Node54&#45;&gt;Node27 -->
<g id="edge81" class="edge">
<title>Node54&#45;&gt;Node27</title>
<path fill="none" stroke="#191970" d="M1710.8088,-115.4534C1702.9821,-113.3144 1694.4495,-111.2844 1686.4433,-110 1377.101,-60.3733 1294.2993,-104.0217 982.4433,-74 970.9226,-72.8909 958.3468,-71.2286 947.2339,-69.6031"/>
<polygon fill="#191970" stroke="#191970" points="947.5202,-66.1067 937.1098,-68.0751 946.4755,-73.0283 947.5202,-66.1067"/>
</g>
<!-- Node59&#45;&gt;Node3 -->
<g id="edge89" class="edge">
<title>Node59&#45;&gt;Node3</title>
<path fill="none" stroke="#191970" d="M1655.1283,-243.6064C1754.9242,-234.8584 1927.8836,-217.9676 1953.4433,-204 1995.7228,-180.8954 2039.6786,-145.8088 2007.4433,-110 1995.5695,-96.8099 1767.5271,-78.4127 1647.6793,-69.6005"/>
<polygon fill="#191970" stroke="#191970" points="1647.7126,-66.0936 1637.4839,-68.8547 1647.2019,-73.075 1647.7126,-66.0936"/>
</g>
<!-- Node59&#45;&gt;Node5 -->
<g id="edge94" class="edge">
<title>Node59&#45;&gt;Node5</title>
<path fill="none" stroke="#191970" d="M1655.0937,-248.1805C1910.4318,-243.2567 2776.8283,-225.1508 2899.4433,-204 2993.6336,-187.7524 3036.2075,-205.9305 3104.4433,-139 3126.2164,-117.6434 3121.4886,-104.0936 3126.4433,-74 3127.8151,-65.6677 3132.3131,-61.0708 3126.4433,-55 3102.9192,-30.6703 2024.3534,-13.2362 1811.649,-10.0313"/>
<polygon fill="#191970" stroke="#191970" points="1811.6774,-6.5315 1801.626,-9.8812 1811.5725,-13.5307 1811.6774,-6.5315"/>
</g>
<!-- Node59&#45;&gt;Node26 -->
<g id="edge93" class="edge">
<title>Node59&#45;&gt;Node26</title>
<path fill="none" stroke="#191970" d="M1532.5896,-240.4535C1492.5933,-232.4211 1441.7561,-219.5604 1427.4433,-204 1412.5173,-187.773 1409.8652,-161.6494 1410.0559,-143.8095"/>
<polygon fill="#191970" stroke="#191970" points="1413.5576,-143.8383 1410.4743,-133.702 1406.5636,-143.5487 1413.5576,-143.8383"/>
</g>
<!-- Node59&#45;&gt;Node27 -->
<g id="edge97" class="edge">
<title>Node59&#45;&gt;Node27</title>
<path fill="none" stroke="#191970" d="M1513.7381,-243.6325C1430.5855,-236.0717 1297.9852,-221.7619 1251.4433,-204 1229.9071,-195.7811 1230.0296,-183.0864 1208.4433,-175 1147.6311,-152.2192 962.4113,-186.7901 918.4433,-139 904.9271,-124.3089 906.607,-100.2816 910.0793,-83.4982"/>
<polygon fill="#191970" stroke="#191970" points="913.5031,-84.2312 912.4782,-73.6861 906.7033,-82.5687 913.5031,-84.2312"/>
</g>
<!-- Node59&#45;&gt;Node33 -->
<g id="edge91" class="edge">
<title>Node59&#45;&gt;Node33</title>
<path fill="none" stroke="#191970" d="M1655.1383,-246.2731C1803.1528,-239.2604 2141.3803,-221.8226 2255.4433,-204 2374.4057,-185.4118 2444.2166,-233.805 2518.4433,-139 2526.3889,-128.8516 2526.7655,-119.842 2518.4433,-110 2516.7807,-108.0338 2393.5859,-87.8704 2314.1989,-75.0536"/>
<polygon fill="#191970" stroke="#191970" points="2314.6959,-71.5886 2304.2661,-73.4514 2313.5811,-78.4993 2314.6959,-71.5886"/>
</g>
<!-- Node59&#45;&gt;Node41 -->
<g id="edge88" class="edge">
<title>Node59&#45;&gt;Node41</title>
<path fill="none" stroke="#191970" d="M1513.7854,-243.2983C1432.961,-235.7974 1296.7676,-221.9167 1180.4433,-204 1179.1696,-203.8038 1177.8845,-203.6013 1176.5906,-203.3932"/>
<polygon fill="#191970" stroke="#191970" points="1176.9894,-199.9111 1166.5469,-201.7015 1175.8267,-206.8139 1176.9894,-199.9111"/>
</g>
<!-- Node59&#45;&gt;Node31 -->
<g id="edge92" class="edge">
<title>Node59&#45;&gt;Node31</title>
<path fill="none" stroke="#191970" d="M1513.5059,-245.9178C1420.0714,-240.3472 1261.4114,-227.6985 1208.4433,-204 1190.6206,-196.0259 1193.4869,-182.4608 1175.4433,-175 1116.9017,-150.7939 649.8003,-185.1868 606.4433,-139 591.3973,-122.972 606.071,-98.2584 619.4481,-81.7426"/>
<polygon fill="#191970" stroke="#191970" points="622.2907,-83.8052 626.1611,-73.9426 616.9851,-79.239 622.2907,-83.8052"/>
</g>
<!-- Node59&#45;&gt;Node54 -->
<g id="edge90" class="edge">
<title>Node59&#45;&gt;Node54</title>
<path fill="none" stroke="#191970" d="M1584.2008,-240.4724C1584.2816,-225.0904 1586.6623,-193.658 1603.4433,-175 1610.2847,-167.3933 1663.2268,-149.0994 1700.9943,-136.7487"/>
<polygon fill="#191970" stroke="#191970" points="1702.2826,-140.0103 1710.712,-133.5919 1700.1198,-133.3528 1702.2826,-140.0103"/>
</g>
<!-- Node60 -->
<g id="node41" class="node">
<title>Node60</title>
<polygon fill="#ffffff" stroke="#bfbfbf" points="1612.7734,-180.5 1612.7734,-198.5 1642.1132,-198.5 1642.1132,-180.5 1612.7734,-180.5"/>
<text text-anchor="middle" x="1627.4433" y="-186.5" font-family="Helvetica,sans-Serif" font-size="10.00" fill="#000000">set</text>
</g>
<!-- Node59&#45;&gt;Node60 -->
<g id="edge95" class="edge">
<title>Node59&#45;&gt;Node60</title>
<path fill="none" stroke="#191970" d="M1590.9741,-240.3873C1597.2882,-231.5769 1607.0218,-217.9951 1614.8454,-207.0784"/>
<polygon fill="#191970" stroke="#191970" points="1617.8707,-208.8655 1620.8511,-198.6985 1612.181,-204.7878 1617.8707,-208.8655"/>
</g>
<!-- Node61 -->
<g id="node42" class="node">
<title>Node61</title>
<polygon fill="#ffffff" stroke="#bfbfbf" points="1660.0419,-180.5 1660.0419,-198.5 1718.8447,-198.5 1718.8447,-180.5 1660.0419,-180.5"/>
<text text-anchor="middle" x="1689.4433" y="-186.5" font-family="Helvetica,sans-Serif" font-size="10.00" fill="#000000">stdexcept</text>
</g>
<!-- Node59&#45;&gt;Node61 -->
<g id="edge96" class="edge">
<title>Node59&#45;&gt;Node61</title>
<path fill="none" stroke="#191970" d="M1600.3905,-240.3873C1617.5267,-230.5952 1644.9772,-214.9092 1664.8754,-203.5388"/>
<polygon fill="#191970" stroke="#191970" points="1666.7441,-206.5022 1673.69,-198.5019 1663.2711,-200.4245 1666.7441,-206.5022"/>
</g>
<!-- Node62&#45;&gt;Node3 -->
<g id="edge105" class="edge">
<title>Node62&#45;&gt;Node3</title>
<path fill="none" stroke="#191970" d="M2748.593,-185.9253C2641.9036,-179.774 2445.549,-165.2459 2380.4433,-139 2360.7389,-131.0566 2362.3596,-117.3958 2342.4433,-110 2278.3871,-86.2132 1825.5225,-71.3557 1647.2738,-66.3718"/>
<polygon fill="#191970" stroke="#191970" points="1647.3015,-62.8713 1637.2083,-66.0927 1647.1074,-69.8687 1647.3015,-62.8713"/>
</g>
<!-- Node63 -->
<g id="node44" class="node">
<title>Node63</title>
<polygon fill="#ffffff" stroke="#bfbfbf" points="2773.7236,-115.5 2773.7236,-133.5 2865.163,-133.5 2865.163,-115.5 2773.7236,-115.5"/>
<text text-anchor="middle" x="2819.4433" y="-121.5" font-family="Helvetica,sans-Serif" font-size="10.00" fill="#000000">pybind11/eigen.h</text>
</g>
<!-- Node62&#45;&gt;Node63 -->
<g id="edge99" class="edge">
<title>Node62&#45;&gt;Node63</title>
<path fill="none" stroke="#191970" d="M2819.4433,-180.462C2819.4433,-171.061 2819.4433,-156.0518 2819.4433,-143.943"/>
<polygon fill="#191970" stroke="#191970" points="2822.9434,-143.8821 2819.4433,-133.8821 2815.9434,-143.8822 2822.9434,-143.8821"/>
</g>
<!-- Node64 -->
<g id="node45" class="node">
<title>Node64</title>
<polygon fill="#ffffff" stroke="#bfbfbf" points="2882.8344,-115.5 2882.8344,-133.5 2992.0522,-133.5 2992.0522,-115.5 2882.8344,-115.5"/>
<text text-anchor="middle" x="2937.4433" y="-121.5" font-family="Helvetica,sans-Serif" font-size="10.00" fill="#000000">pybind11/operators.h</text>
</g>
<!-- Node62&#45;&gt;Node64 -->
<g id="edge100" class="edge">
<title>Node62&#45;&gt;Node64</title>
<path fill="none" stroke="#191970" d="M2835.8507,-180.462C2855.5536,-169.6087 2888.8261,-151.2806 2911.9004,-138.5702"/>
<polygon fill="#191970" stroke="#191970" points="2913.7245,-141.5614 2920.7948,-133.6708 2910.3471,-135.43 2913.7245,-141.5614"/>
</g>
<!-- Node65 -->
<g id="node46" class="node">
<title>Node65</title>
<polygon fill="#ffffff" stroke="#bfbfbf" points="2876.0307,-55.5 2876.0307,-73.5 2982.8559,-73.5 2982.8559,-55.5 2876.0307,-55.5"/>
<text text-anchor="middle" x="2929.4433" y="-61.5" font-family="Helvetica,sans-Serif" font-size="10.00" fill="#000000">pybind11/pybind11.h</text>
</g>
<!-- Node62&#45;&gt;Node65 -->
<g id="edge101" class="edge">
<title>Node62&#45;&gt;Node65</title>
<path fill="none" stroke="#191970" d="M2890.2888,-185.0469C2956.3648,-179.2404 3048.0202,-166.3838 3070.4433,-139 3097.1913,-106.3344 3042.0411,-86.1501 2993.0718,-75.1683"/>
<polygon fill="#191970" stroke="#191970" points="2993.5785,-71.6976 2983.0676,-73.0285 2992.1143,-78.5427 2993.5785,-71.6976"/>
</g>
<!-- Node66 -->
<g id="node47" class="node">
<title>Node66</title>
<polygon fill="#ffffff" stroke="#bfbfbf" points="3040.9574,-55.5 3040.9574,-73.5 3117.9291,-73.5 3117.9291,-55.5 3040.9574,-55.5"/>
<text text-anchor="middle" x="3079.4433" y="-61.5" font-family="Helvetica,sans-Serif" font-size="10.00" fill="#000000">pybind11/stl.h</text>
</g>
<!-- Node62&#45;&gt;Node66 -->
<g id="edge102" class="edge">
<title>Node62&#45;&gt;Node66</title>
<path fill="none" stroke="#191970" d="M2890.1006,-186.1089C2960.898,-181.0554 3062.8133,-168.7045 3087.4433,-139 3100.2327,-123.5756 3094.7355,-99.7416 3088.3272,-83.2019"/>
<polygon fill="#191970" stroke="#191970" points="3091.5332,-81.7973 3084.3747,-73.9866 3085.0999,-84.5566 3091.5332,-81.7973"/>
</g>
<!-- Node67 -->
<g id="node48" class="node">
<title>Node67</title>
<polygon fill="#ffffff" stroke="#bfbfbf" points="2735.7236,-55.5 2735.7236,-73.5 2837.163,-73.5 2837.163,-55.5 2735.7236,-55.5"/>
<text text-anchor="middle" x="2786.4433" y="-61.5" font-family="Helvetica,sans-Serif" font-size="10.00" fill="#000000">pybind11/stl_bind.h</text>
</g>
<!-- Node62&#45;&gt;Node67 -->
<g id="edge103" class="edge">
<title>Node62&#45;&gt;Node67</title>
<path fill="none" stroke="#191970" d="M2803.7723,-180.3716C2790.5093,-171.6497 2772.4221,-157.1579 2764.4433,-139 2756.2663,-120.3911 2765.3433,-97.8707 2774.1922,-82.4949"/>
<polygon fill="#191970" stroke="#191970" points="2777.2022,-84.2824 2779.5161,-73.9433 2771.2597,-80.5828 2777.2022,-84.2824"/>
</g>
<!-- Node68 -->
<g id="node49" class="node">
<title>Node68</title>
<polygon fill="#ffffff" stroke="#bfbfbf" points="3009.6625,-115.5 3009.6625,-133.5 3061.224,-133.5 3061.224,-115.5 3009.6625,-115.5"/>
<text text-anchor="middle" x="3035.4433" y="-121.5" font-family="Helvetica,sans-Serif" font-size="10.00" fill="#000000">sstream</text>
</g>
<!-- Node62&#45;&gt;Node68 -->
<g id="edge104" class="edge">
<title>Node62&#45;&gt;Node68</title>
<path fill="none" stroke="#191970" d="M2857.5398,-180.4936C2894.6787,-171.3485 2952.5458,-156.1259 3001.4433,-139 3002.8817,-138.4962 3004.3458,-137.9611 3005.8186,-137.4048"/>
<polygon fill="#191970" stroke="#191970" points="3007.4995,-140.5019 3015.4806,-133.5339 3004.8962,-134.004 3007.4995,-140.5019"/>
</g>
<!-- Node69 -->
<g id="node50" class="node">
<title>Node69</title>
<g id="a_node50"><a xlink:href="opaquecontainers_8hpp.html" target="_top" xlink:title="opaquecontainers.hpp">
<polygon fill="#ffffff" stroke="#000000" points="2564.9584,-115.5 2564.9584,-133.5 2679.9281,-133.5 2679.9281,-115.5 2564.9584,-115.5"/>
<text text-anchor="middle" x="2622.4433" y="-121.5" font-family="Helvetica,sans-Serif" font-size="10.00" fill="#000000">opaquecontainers.hpp</text>
</a>
</g>
</g>
<!-- Node62&#45;&gt;Node69 -->
<g id="edge106" class="edge">
<title>Node62&#45;&gt;Node69</title>
<path fill="none" stroke="#191970" d="M2792.0513,-180.462C2757.5984,-169.0943 2698.293,-149.5265 2659.7286,-136.8023"/>
<polygon fill="#191970" stroke="#191970" points="2660.5126,-133.3754 2649.9195,-133.5658 2658.3192,-140.0229 2660.5126,-133.3754"/>
</g>
<!-- Node69&#45;&gt;Node3 -->
<g id="edge107" class="edge">
<title>Node69&#45;&gt;Node3</title>
<path fill="none" stroke="#191970" d="M2564.791,-115.5171C2549.737,-113.4309 2533.5084,-111.4108 2518.4433,-110 2194.0817,-79.6256 1804.943,-68.9892 1647.1437,-65.7513"/>
<polygon fill="#191970" stroke="#191970" points="1647.156,-62.2509 1637.0874,-65.5486 1647.0148,-69.2495 1647.156,-62.2509"/>
</g>
<!-- Node69&#45;&gt;Node4 -->
<g id="edge109" class="edge">
<title>Node69&#45;&gt;Node4</title>
<path fill="none" stroke="#191970" d="M2590.2877,-115.4396C2534.4718,-100.1256 2415.8108,-69.3883 2313.4433,-55 2238.3709,-44.4481 1701.3748,-17.8225 1562.9349,-11.0739"/>
<polygon fill="#191970" stroke="#191970" points="1563.1,-7.5779 1552.9417,-10.5875 1562.7597,-14.5696 1563.1,-7.5779"/>
</g>
<!-- Node69&#45;&gt;Node27 -->
<g id="edge113" class="edge">
<title>Node69&#45;&gt;Node27</title>
<path fill="none" stroke="#191970" d="M2566.4411,-115.4875C2550.9342,-113.3208 2534.0699,-111.2682 2518.4433,-110 1837.827,-54.7618 1662.995,-130.0284 982.4433,-74 970.9084,-73.0504 958.3293,-71.4247 947.2178,-69.784"/>
<polygon fill="#191970" stroke="#191970" points="947.5119,-66.2882 937.0962,-68.228 946.4482,-73.2069 947.5119,-66.2882"/>
</g>
<!-- Node69&#45;&gt;Node33 -->
<g id="edge108" class="edge">
<title>Node69&#45;&gt;Node33</title>
<path fill="none" stroke="#191970" d="M2580.0882,-115.4716C2570.6754,-113.5709 2560.7344,-111.6452 2551.4433,-110 2469.9474,-95.5695 2375.5902,-81.873 2314.108,-73.3486"/>
<polygon fill="#191970" stroke="#191970" points="2314.5382,-69.8748 2304.1534,-71.9737 2313.5805,-76.809 2314.5382,-69.8748"/>
</g>
<!-- Node69&#45;&gt;Node65 -->
<g id="edge110" class="edge">
<title>Node69&#45;&gt;Node65</title>
<path fill="none" stroke="#191970" d="M2668.7367,-115.4524C2723.5243,-104.7447 2814.7061,-86.9242 2873.4244,-75.4483"/>
<polygon fill="#191970" stroke="#191970" points="2874.133,-78.8761 2883.2759,-73.5229 2872.7903,-72.0061 2874.133,-78.8761"/>
</g>
<!-- Node69&#45;&gt;Node66 -->
<g id="edge111" class="edge">
<title>Node69&#45;&gt;Node66</title>
<path fill="none" stroke="#191970" d="M2680.3227,-116.901C2771.1647,-104.9742 2945.5961,-82.0729 3030.5454,-70.9199"/>
<polygon fill="#191970" stroke="#191970" points="3031.236,-74.3593 3040.6953,-69.5873 3030.3248,-67.4189 3031.236,-74.3593"/>
</g>
<!-- Node69&#45;&gt;Node67 -->
<g id="edge112" class="edge">
<title>Node69&#45;&gt;Node67</title>
<path fill="none" stroke="#191970" d="M2647.3514,-115.3873C2675.3275,-105.1521 2720.9046,-88.4776 2752.2144,-77.0228"/>
<polygon fill="#191970" stroke="#191970" points="2753.6495,-80.2247 2761.8382,-73.5019 2751.2444,-73.6508 2753.6495,-80.2247"/>
</g>
</g>
</svg>
        <g id="navigator" transform="translate(0 0)" fill="#404254">
                <rect fill="#f2f5e9" fill-opacity="0.5" stroke="#606060" stroke-width=".5" x="0" y="0" width="60" height="60"/>
                <use id="zoomplus" xlink:href="#zoomPlus" x="17" y="9" onmousedown="handleZoom(evt,'in')"/>
                <use id="zoomminus" xlink:href="#zoomMin" x="42" y="9" onmousedown="handleZoom(evt,'out')"/>
                <use id="reset" xlink:href="#resetDef" x="30" y="36" onmousedown="handleReset()"/>
                <g id="arrowUp" xlink:href="#dirArrow" transform="translate(30 24)" onmousedown="handlePan(0,-1)">
                  <use xlink:href="#rim" fill="#404040">
                        <set attributeName="fill" to="#808080" begin="arrowUp.mouseover" end="arrowUp.mouseout"/>
                  </use>
                  <path fill="none" stroke="white" stroke-width="1.5" d="M0,-3.0v7 M-2.5,-0.5L0,-3.0L2.5,-0.5"/>
                </g>
                <g id="arrowRight" xlink:href="#dirArrow" transform="rotate(90) translate(36 -43)" onmousedown="handlePan(1,0)">
                  <use xlink:href="#rim" fill="#404040">
                        <set attributeName="fill" to="#808080" begin="arrowRight.mouseover" end="arrowRight.mouseout"/>
                  </use>
                  <path fill="none" stroke="white" stroke-width="1.5" d="M0,-3.0v7 M-2.5,-0.5L0,-3.0L2.5,-0.5"/>
                </g>
                <g id="arrowDown" xlink:href="#dirArrow" transform="rotate(180) translate(-30 -48)" onmousedown="handlePan(0,1)">
                  <use xlink:href="#rim" fill="#404040">
                        <set attributeName="fill" to="#808080" begin="arrowDown.mouseover" end="arrowDown.mouseout"/>
                  </use>
                  <path fill="none" stroke="white" stroke-width="1.5" d="M0,-3.0v7 M-2.5,-0.5L0,-3.0L2.5,-0.5"/>
                </g>
                <g id="arrowLeft" xlink:href="#dirArrow" transform="rotate(270) translate(-36 17)" onmousedown="handlePan(-1,0)">
                  <use xlink:href="#rim" fill="#404040">
                        <set attributeName="fill" to="#808080" begin="arrowLeft.mouseover" end="arrowLeft.mouseout"/>
                  </use>
                  <path fill="none" stroke="white" stroke-width="1.5" d="M0,-3.0v7 M-2.5,-0.5L0,-3.0L2.5,-0.5"/>
                </g>
        </g>
        <svg viewBox="0 0 15 15" width="100%" height="30px" preserveAspectRatio="xMaxYMin meet">
         <g id="arrow_out" transform="scale(0.3 0.3)">
          <a xlink:href="algorithms_8cpp__incl_org.svg" target="_base">
           <rect id="button" ry="5" rx="5" y="6" x="6" height="38" width="38"
                fill="#f2f5e9" fill-opacity="0.5" stroke="#606060" stroke-width="1.0"/>
           <path id="arrow"
             d="M 11.500037,31.436501 C 11.940474,20.09759 22.043105,11.32322 32.158766,21.979434 L 37.068811,17.246167 C 37.068811,17.246167 37.088388,32 37.088388,32 L 22.160133,31.978069 C 22.160133,31.978069 26.997745,27.140456 26.997745,27.140456 C 18.528582,18.264221 13.291696,25.230495 11.500037,31.436501 z"
             style="fill:#404040;"/>
          </a>
         </g>
        </svg>
</svg>
