<?xml version="1.0" encoding="UTF-8" standalone="no"?>
<!DOCTYPE svg PUBLIC "-//W3C//DTD SVG 1.1//EN"
 "http://www.w3.org/Graphics/SVG/1.1/DTD/svg11.dtd">
<!-- Generated by graphviz version 2.40.1 (20161225.0304)
 -->
<!-- Title: src/classes/angle.cpp Pages: 1 -->
<svg width="3820pt" height="387pt"
 viewBox="0.00 0.00 3819.88 387.00" xmlns="http://www.w3.org/2000/svg" xmlns:xlink="http://www.w3.org/1999/xlink">
<g id="graph0" class="graph" transform="scale(1 1) rotate(0) translate(4 383)">
<title>src/classes/angle.cpp</title>
<polygon fill="#ffffff" stroke="transparent" points="-4,4 -4,-383 3815.8823,-383 3815.8823,4 -4,4"/>
<!-- Node0 -->
<g id="node1" class="node">
<title>Node0</title>
<polygon fill="#bfbfbf" stroke="#000000" points="1982.5261,-360.5 1982.5261,-378.5 2094.1267,-378.5 2094.1267,-360.5 1982.5261,-360.5"/>
<text text-anchor="middle" x="2038.3264" y="-366.5" font-family="Helvetica,sans-Serif" font-size="10.00" fill="#000000">src/classes/angle.cpp</text>
</g>
<!-- Node1 -->
<g id="node2" class="node">
<title>Node1</title>
<g id="a_node2"><a xlink:href="angle_8hpp.html" target="_top" xlink:title="indigox/classes/angle.hpp">
<polygon fill="#ffffff" stroke="#000000" points="1761.0657,-125.5 1761.0657,-143.5 1891.5872,-143.5 1891.5872,-125.5 1761.0657,-125.5"/>
<text text-anchor="middle" x="1826.3264" y="-131.5" font-family="Helvetica,sans-Serif" font-size="10.00" fill="#000000">indigox/classes/angle.hpp</text>
</a>
</g>
</g>
<!-- Node0&#45;&gt;Node1 -->
<g id="edge1" class="edge">
<title>Node0&#45;&gt;Node1</title>
<path fill="none" stroke="#191970" d="M2022.7683,-360.2746C1994.296,-342.9028 1932.8312,-303.0957 1890.3264,-259 1869.7067,-237.6086 1866.0805,-230.3361 1852.3264,-204 1843.7723,-187.6206 1836.6415,-167.7773 1832.0246,-153.4939"/>
<polygon fill="#191970" stroke="#191970" points="1835.3212,-152.3085 1829.0021,-143.8045 1828.6388,-154.3931 1835.3212,-152.3085"/>
</g>
<!-- Node4 -->
<g id="node5" class="node">
<title>Node4</title>
<polygon fill="#ffffff" stroke="#bfbfbf" points="2290.2698,-.5 2290.2698,-18.5 2342.3831,-18.5 2342.3831,-.5 2290.2698,-.5"/>
<text text-anchor="middle" x="2316.3264" y="-6.5" font-family="Helvetica,sans-Serif" font-size="10.00" fill="#000000">memory</text>
</g>
<!-- Node0&#45;&gt;Node4 -->
<g id="edge105" class="edge">
<title>Node0&#45;&gt;Node4</title>
<path fill="none" stroke="#191970" d="M1982.2809,-369.2054C1654.709,-367.1258 2.3264,-351.5763 2.3264,-249.5 2.3264,-249.5 2.3264,-249.5 2.3264,-134.5 2.3264,-98.1716 -6.9793,-77.7715 21.3264,-55 62.9106,-21.5461 1888.9689,-20.1776 1942.3264,-19 2066.2191,-16.2656 2213.1793,-12.3303 2280.0071,-10.5029"/>
<polygon fill="#191970" stroke="#191970" points="2280.1284,-14.001 2290.0287,-10.2282 2279.9365,-7.0036 2280.1284,-14.001"/>
</g>
<!-- Node5 -->
<g id="node6" class="node">
<title>Node5</title>
<polygon fill="#ffffff" stroke="#bfbfbf" points="1795.9348,-60.5 1795.9348,-78.5 1834.718,-78.5 1834.718,-60.5 1795.9348,-60.5"/>
<text text-anchor="middle" x="1815.3264" y="-66.5" font-family="Helvetica,sans-Serif" font-size="10.00" fill="#000000">array</text>
</g>
<!-- Node0&#45;&gt;Node5 -->
<g id="edge104" class="edge">
<title>Node0&#45;&gt;Node5</title>
<path fill="none" stroke="#191970" d="M1987.9619,-360.4636C1901.3333,-343.4743 1733.3264,-303.5572 1733.3264,-249.5 1733.3264,-249.5 1733.3264,-249.5 1733.3264,-194.5 1733.3264,-160.329 1733.8177,-148.7242 1752.3264,-120 1761.8268,-105.2561 1777.0906,-92.8607 1790.2143,-84.0403"/>
<polygon fill="#191970" stroke="#191970" points="1792.3155,-86.8514 1798.8608,-78.5201 1788.5487,-80.9512 1792.3155,-86.8514"/>
</g>
<!-- Node6 -->
<g id="node7" class="node">
<title>Node6</title>
<g id="a_node7"><a xlink:href="atom_8hpp.html" target="_top" xlink:title="indigox/classes/atom.hpp">
<polygon fill="#ffffff" stroke="#000000" points="2247.1838,-125.5 2247.1838,-143.5 2375.469,-143.5 2375.469,-125.5 2247.1838,-125.5"/>
<text text-anchor="middle" x="2311.3264" y="-131.5" font-family="Helvetica,sans-Serif" font-size="10.00" fill="#000000">indigox/classes/atom.hpp</text>
</a>
</g>
</g>
<!-- Node0&#45;&gt;Node6 -->
<g id="edge7" class="edge">
<title>Node0&#45;&gt;Node6</title>
<path fill="none" stroke="#191970" d="M2049.0283,-360.2877C2090.397,-324.6774 2240.1537,-195.7659 2292.8377,-150.4152"/>
<polygon fill="#191970" stroke="#191970" points="2295.403,-152.8251 2300.6985,-143.6486 2290.8362,-147.5199 2295.403,-152.8251"/>
</g>
<!-- Node9 -->
<g id="node10" class="node">
<title>Node9</title>
<g id="a_node10"><a xlink:href="forcefield_8hpp.html" target="_top" xlink:title="indigox/classes/forcefield.hpp">
<polygon fill="#ffffff" stroke="#000000" points="2463.0115,-185.5 2463.0115,-203.5 2609.6414,-203.5 2609.6414,-185.5 2463.0115,-185.5"/>
<text text-anchor="middle" x="2536.3264" y="-191.5" font-family="Helvetica,sans-Serif" font-size="10.00" fill="#000000">indigox/classes/forcefield.hpp</text>
</a>
</g>
</g>
<!-- Node0&#45;&gt;Node9 -->
<g id="edge12" class="edge">
<title>Node0&#45;&gt;Node9</title>
<path fill="none" stroke="#191970" d="M2094.4909,-366.7153C2205.4888,-360.7719 2444.884,-345.603 2475.3264,-324 2512.3635,-297.7172 2527.6071,-242.9692 2533.2984,-213.7878"/>
<polygon fill="#191970" stroke="#191970" points="2536.7972,-214.101 2535.0886,-203.6448 2529.9037,-212.8843 2536.7972,-214.101"/>
</g>
<!-- Node20 -->
<g id="node21" class="node">
<title>Node20</title>
<g id="a_node21"><a xlink:href="molecule_8hpp.html" target="_top" xlink:title="indigox/classes/molecule.hpp">
<polygon fill="#ffffff" stroke="#000000" points="3012.2898,-185.5 3012.2898,-203.5 3158.363,-203.5 3158.363,-185.5 3012.2898,-185.5"/>
<text text-anchor="middle" x="3085.3264" y="-191.5" font-family="Helvetica,sans-Serif" font-size="10.00" fill="#000000">indigox/classes/molecule.hpp</text>
</a>
</g>
</g>
<!-- Node0&#45;&gt;Node20 -->
<g id="edge30" class="edge">
<title>Node0&#45;&gt;Node20</title>
<path fill="none" stroke="#191970" d="M2094.3153,-366.2019C2181.7993,-360.556 2356.0515,-347.3301 2502.3264,-324 2706.0367,-291.5092 2945.2467,-231.3012 3041.733,-206.0836"/>
<polygon fill="#191970" stroke="#191970" points="3042.6471,-209.4623 3051.4326,-203.5405 3040.8718,-202.6911 3042.6471,-209.4623"/>
</g>
<!-- Node23 -->
<g id="node24" class="node">
<title>Node23</title>
<g id="a_node24"><a xlink:href="molecule__impl_8hpp.html" target="_top" xlink:title="indigox/classes/molecule\l_impl.hpp">
<polygon fill="#ffffff" stroke="#000000" points="2340.0212,-295.5 2340.0212,-323.5 2466.6316,-323.5 2466.6316,-295.5 2340.0212,-295.5"/>
<text text-anchor="start" x="2348.0212" y="-311.5" font-family="Helvetica,sans-Serif" font-size="10.00" fill="#000000">indigox/classes/molecule</text>
<text text-anchor="middle" x="2403.3264" y="-301.5" font-family="Helvetica,sans-Serif" font-size="10.00" fill="#000000">_impl.hpp</text>
</a>
</g>
</g>
<!-- Node0&#45;&gt;Node23 -->
<g id="edge37" class="edge">
<title>Node0&#45;&gt;Node23</title>
<path fill="none" stroke="#191970" d="M2093.3658,-360.4524C2156.3851,-350.0931 2259.9048,-333.0762 2329.7911,-321.588"/>
<polygon fill="#191970" stroke="#191970" points="2330.5495,-325.0104 2339.8493,-319.9346 2329.414,-318.1031 2330.5495,-325.0104"/>
</g>
<!-- Node35 -->
<g id="node36" class="node">
<title>Node35</title>
<g id="a_node36"><a xlink:href="serialise_8hpp.html" target="_top" xlink:title="../utils/serialise.hpp">
<polygon fill="#ffffff" stroke="#000000" points="967.8069,-125.5 967.8069,-143.5 1068.8459,-143.5 1068.8459,-125.5 967.8069,-125.5"/>
<text text-anchor="middle" x="1018.3264" y="-131.5" font-family="Helvetica,sans-Serif" font-size="10.00" fill="#000000">../utils/serialise.hpp</text>
</a>
</g>
</g>
<!-- Node0&#45;&gt;Node35 -->
<g id="edge103" class="edge">
<title>Node0&#45;&gt;Node35</title>
<path fill="none" stroke="#191970" d="M1982.3601,-363.6178C1918.3816,-356.4084 1810.6979,-342.7929 1719.3264,-324 1462.9872,-271.2771 1161.4375,-179.4552 1056.5519,-146.6115"/>
<polygon fill="#191970" stroke="#191970" points="1057.3263,-143.1863 1046.737,-143.5303 1055.2296,-149.8649 1057.3263,-143.1863"/>
</g>
<!-- Node2 -->
<g id="node3" class="node">
<title>Node2</title>
<g id="a_node3"><a xlink:href="fwd__declares_8hpp.html" target="_top" xlink:title="../utils/fwd_declares.hpp">
<polygon fill="#ffffff" stroke="#000000" points="2365.6863,-60.5 2365.6863,-78.5 2488.9666,-78.5 2488.9666,-60.5 2365.6863,-60.5"/>
<text text-anchor="middle" x="2427.3264" y="-66.5" font-family="Helvetica,sans-Serif" font-size="10.00" fill="#000000">../utils/fwd_declares.hpp</text>
</a>
</g>
</g>
<!-- Node1&#45;&gt;Node2 -->
<g id="edge2" class="edge">
<title>Node1&#45;&gt;Node2</title>
<path fill="none" stroke="#191970" d="M1891.6544,-128.4229C1985.9596,-119.5075 2165.6829,-101.9826 2318.3264,-84 2330.25,-82.5953 2342.8935,-81.0057 2355.1836,-79.4068"/>
<polygon fill="#191970" stroke="#191970" points="2355.9413,-82.8374 2365.4006,-78.0653 2355.03,-75.897 2355.9413,-82.8374"/>
</g>
<!-- Node1&#45;&gt;Node4 -->
<g id="edge6" class="edge">
<title>Node1&#45;&gt;Node4</title>
<path fill="none" stroke="#191970" d="M1815.6736,-125.413C1798.3005,-109.5378 1767.6809,-76.4077 1787.3264,-55 1820.5718,-18.7723 2165.8771,-11.3264 2279.9656,-9.8512"/>
<polygon fill="#191970" stroke="#191970" points="2280.3095,-13.3474 2290.2663,-9.7263 2280.2246,-6.3479 2280.3095,-13.3474"/>
</g>
<!-- Node1&#45;&gt;Node5 -->
<g id="edge5" class="edge">
<title>Node1&#45;&gt;Node5</title>
<path fill="none" stroke="#191970" d="M1824.7969,-125.462C1823.206,-116.061 1820.6659,-101.0518 1818.6168,-88.943"/>
<polygon fill="#191970" stroke="#191970" points="1822.0338,-88.1579 1816.9142,-78.8821 1815.1319,-89.326 1822.0338,-88.1579"/>
</g>
<!-- Node3 -->
<g id="node4" class="node">
<title>Node3</title>
<polygon fill="#ffffff" stroke="#bfbfbf" points="2425.8757,-.5 2425.8757,-18.5 2470.7771,-18.5 2470.7771,-.5 2425.8757,-.5"/>
<text text-anchor="middle" x="2448.3264" y="-6.5" font-family="Helvetica,sans-Serif" font-size="10.00" fill="#000000">cstdint</text>
</g>
<!-- Node2&#45;&gt;Node3 -->
<g id="edge3" class="edge">
<title>Node2&#45;&gt;Node3</title>
<path fill="none" stroke="#191970" d="M2430.5159,-60.3873C2433.4762,-51.9293 2437.9755,-39.074 2441.7112,-28.4007"/>
<polygon fill="#191970" stroke="#191970" points="2445.1069,-29.2933 2445.107,-18.6985 2438.4999,-26.9808 2445.1069,-29.2933"/>
</g>
<!-- Node2&#45;&gt;Node4 -->
<g id="edge4" class="edge">
<title>Node2&#45;&gt;Node4</title>
<path fill="none" stroke="#191970" d="M2410.4679,-60.3873C2392.2706,-50.5509 2363.0706,-34.7671 2342.0132,-23.3847"/>
<polygon fill="#191970" stroke="#191970" points="2343.4413,-20.1781 2332.9799,-18.5019 2340.1126,-26.3361 2343.4413,-20.1781"/>
</g>
<!-- Node6&#45;&gt;Node2 -->
<g id="edge8" class="edge">
<title>Node6&#45;&gt;Node2</title>
<path fill="none" stroke="#191970" d="M2327.4557,-125.462C2346.8247,-114.6087 2379.5333,-96.2806 2402.2165,-83.5702"/>
<polygon fill="#191970" stroke="#191970" points="2403.9473,-86.6125 2410.9601,-78.6708 2400.5254,-80.5058 2403.9473,-86.6125"/>
</g>
<!-- Node6&#45;&gt;Node4 -->
<g id="edge10" class="edge">
<title>Node6&#45;&gt;Node4</title>
<path fill="none" stroke="#191970" d="M2313.0018,-125.2324C2314.7357,-115.1338 2317.3275,-98.4815 2318.3264,-84 2319.2133,-71.1417 2318.6095,-67.8858 2318.3264,-55 2318.1376,-46.4033 2317.7483,-36.8995 2317.3629,-28.8107"/>
<polygon fill="#191970" stroke="#191970" points="2320.8451,-28.3701 2316.842,-18.5606 2313.8541,-28.7254 2320.8451,-28.3701"/>
</g>
<!-- Node7 -->
<g id="node8" class="node">
<title>Node7</title>
<polygon fill="#ffffff" stroke="#bfbfbf" points="2235.696,-60.5 2235.696,-78.5 2308.9568,-78.5 2308.9568,-60.5 2235.696,-60.5"/>
<text text-anchor="middle" x="2272.3264" y="-66.5" font-family="Helvetica,sans-Serif" font-size="10.00" fill="#000000">Eigen/Dense</text>
</g>
<!-- Node6&#45;&gt;Node7 -->
<g id="edge9" class="edge">
<title>Node6&#45;&gt;Node7</title>
<path fill="none" stroke="#191970" d="M2305.9036,-125.462C2300.0328,-115.6773 2290.5167,-99.8172 2283.1116,-87.4753"/>
<polygon fill="#191970" stroke="#191970" points="2286.1019,-85.6563 2277.9557,-78.8821 2280.0995,-89.2578 2286.1019,-85.6563"/>
</g>
<!-- Node8 -->
<g id="node9" class="node">
<title>Node8</title>
<polygon fill="#ffffff" stroke="#bfbfbf" points="3213.7107,-60.5 3213.7107,-78.5 3256.9421,-78.5 3256.9421,-60.5 3213.7107,-60.5"/>
<text text-anchor="middle" x="3235.3264" y="-66.5" font-family="Helvetica,sans-Serif" font-size="10.00" fill="#000000">vector</text>
</g>
<!-- Node6&#45;&gt;Node8 -->
<g id="edge11" class="edge">
<title>Node6&#45;&gt;Node8</title>
<path fill="none" stroke="#191970" d="M2375.5667,-129.9809C2557.0876,-117.2116 3069.3026,-81.1792 3203.0514,-71.7704"/>
<polygon fill="#191970" stroke="#191970" points="3203.6886,-75.2343 3213.4184,-71.0412 3203.1974,-68.2516 3203.6886,-75.2343"/>
</g>
<!-- Node9&#45;&gt;Node2 -->
<g id="edge13" class="edge">
<title>Node9&#45;&gt;Node2</title>
<path fill="none" stroke="#191970" d="M2516.1021,-185.3917C2500.5785,-177.568 2479.475,-165.022 2465.3264,-149 2449.4777,-131.0528 2438.8042,-105.3342 2432.9019,-88.0555"/>
<polygon fill="#191970" stroke="#191970" points="2436.2331,-86.9812 2429.8399,-78.5327 2429.5691,-89.1241 2436.2331,-86.9812"/>
</g>
<!-- Node9&#45;&gt;Node4 -->
<g id="edge28" class="edge">
<title>Node9&#45;&gt;Node4</title>
<path fill="none" stroke="#191970" d="M2536.7632,-185.4695C2537.434,-160.7566 2535.7176,-91.4395 2498.3264,-55 2452.4126,-10.2547 2419.6468,-33.3731 2352.7971,-19.116"/>
<polygon fill="#191970" stroke="#191970" points="2353.2176,-15.6192 2342.6811,-16.7287 2351.6098,-22.432 2353.2176,-15.6192"/>
</g>
<!-- Node9&#45;&gt;Node8 -->
<g id="edge29" class="edge">
<title>Node9&#45;&gt;Node8</title>
<path fill="none" stroke="#191970" d="M2538.0234,-185.2477C2541.5565,-168.9244 2551.368,-135.2952 2574.3264,-120 2627.085,-84.8515 3078.6531,-72.7977 3203.4737,-70.1209"/>
<polygon fill="#191970" stroke="#191970" points="3203.6125,-73.6189 3213.5371,-69.9105 3203.466,-66.6204 3203.6125,-73.6189"/>
</g>
<!-- Node10 -->
<g id="node11" class="node">
<title>Node10</title>
<g id="a_node11"><a xlink:href="periodictable_8hpp.html" target="_top" xlink:title="periodictable.hpp">
<polygon fill="#ffffff" stroke="#000000" points="2099.2429,-125.5 2099.2429,-143.5 2191.4099,-143.5 2191.4099,-125.5 2099.2429,-125.5"/>
<text text-anchor="middle" x="2145.3264" y="-131.5" font-family="Helvetica,sans-Serif" font-size="10.00" fill="#000000">periodictable.hpp</text>
</a>
</g>
</g>
<!-- Node9&#45;&gt;Node10 -->
<g id="edge14" class="edge">
<title>Node9&#45;&gt;Node10</title>
<path fill="none" stroke="#191970" d="M2476.9508,-185.4906C2416.801,-176.3505 2321.0842,-161.7694 2238.3264,-149 2226.4664,-147.17 2213.7577,-145.1967 2201.6633,-143.3129"/>
<polygon fill="#191970" stroke="#191970" points="2202.1003,-139.8389 2191.6805,-141.7567 2201.022,-146.7553 2202.1003,-139.8389"/>
</g>
<!-- Node18 -->
<g id="node19" class="node">
<title>Node18</title>
<polygon fill="#ffffff" stroke="#bfbfbf" points="3338.9768,-125.5 3338.9768,-143.5 3421.676,-143.5 3421.676,-125.5 3338.9768,-125.5"/>
<text text-anchor="middle" x="3380.3264" y="-131.5" font-family="Helvetica,sans-Serif" font-size="10.00" fill="#000000">EASTL/bitset.h</text>
</g>
<!-- Node9&#45;&gt;Node18 -->
<g id="edge26" class="edge">
<title>Node9&#45;&gt;Node18</title>
<path fill="none" stroke="#191970" d="M2609.8485,-187.4197C2619.4254,-186.5657 2629.1076,-185.7365 2638.3264,-185 2878.0953,-165.8453 2938.3679,-165.6109 3178.3264,-149 3229.5781,-145.4522 3288.1312,-141.2305 3328.9542,-138.2601"/>
<polygon fill="#191970" stroke="#191970" points="3329.2164,-141.7503 3338.9356,-137.533 3328.7078,-134.7688 3329.2164,-141.7503"/>
</g>
<!-- Node19 -->
<g id="node20" class="node">
<title>Node19</title>
<polygon fill="#ffffff" stroke="#bfbfbf" points="2583.5999,-125.5 2583.5999,-143.5 2619.053,-143.5 2619.053,-125.5 2583.5999,-125.5"/>
<text text-anchor="middle" x="2601.3264" y="-131.5" font-family="Helvetica,sans-Serif" font-size="10.00" fill="#000000">map</text>
</g>
<!-- Node9&#45;&gt;Node19 -->
<g id="edge27" class="edge">
<title>Node9&#45;&gt;Node19</title>
<path fill="none" stroke="#191970" d="M2546.1985,-185.3873C2556.1249,-176.2245 2571.6421,-161.9009 2583.6879,-150.7817"/>
<polygon fill="#191970" stroke="#191970" points="2586.3873,-153.0531 2591.3614,-143.6985 2581.6394,-147.9095 2586.3873,-153.0531"/>
</g>
<!-- Node10&#45;&gt;Node2 -->
<g id="edge21" class="edge">
<title>Node10&#45;&gt;Node2</title>
<path fill="none" stroke="#191970" d="M2182.4353,-125.4496C2190.0048,-123.6266 2197.9187,-121.7376 2205.3264,-120 2264.1781,-106.1957 2331.9422,-90.8621 2376.967,-80.7529"/>
<polygon fill="#191970" stroke="#191970" points="2377.7875,-84.1559 2386.7788,-78.5518 2376.2552,-77.3257 2377.7875,-84.1559"/>
</g>
<!-- Node10&#45;&gt;Node3 -->
<g id="edge24" class="edge">
<title>Node10&#45;&gt;Node3</title>
<path fill="none" stroke="#191970" d="M2148.0148,-125.3241C2153.4953,-108.3747 2167.6642,-72.3119 2193.3264,-55 2274.3048,-.3715 2316.4335,-39.2227 2415.9269,-18.9666"/>
<polygon fill="#191970" stroke="#191970" points="2416.7186,-22.3762 2425.7376,-16.8167 2415.2201,-15.5385 2416.7186,-22.3762"/>
</g>
<!-- Node10&#45;&gt;Node5 -->
<g id="edge23" class="edge">
<title>Node10&#45;&gt;Node5</title>
<path fill="none" stroke="#191970" d="M2113.478,-125.4543C2105.9267,-123.4902 2097.8729,-121.5419 2090.3264,-120 1982.0651,-97.8807 1949.7417,-117.1268 1844.3264,-84 1843.0879,-83.6108 1841.8373,-83.1741 1840.5866,-82.7015"/>
<polygon fill="#191970" stroke="#191970" points="1841.7662,-79.3967 1831.2035,-78.5721 1838.9465,-85.8037 1841.7662,-79.3967"/>
</g>
<!-- Node11 -->
<g id="node12" class="node">
<title>Node11</title>
<g id="a_node12"><a xlink:href="common_8hpp.html" target="_top" xlink:title="../utils/common.hpp">
<polygon fill="#ffffff" stroke="#000000" points="1852.9744,-60.5 1852.9744,-78.5 1955.6785,-78.5 1955.6785,-60.5 1852.9744,-60.5"/>
<text text-anchor="middle" x="1904.3264" y="-66.5" font-family="Helvetica,sans-Serif" font-size="10.00" fill="#000000">../utils/common.hpp</text>
</a>
</g>
</g>
<!-- Node10&#45;&gt;Node11 -->
<g id="edge15" class="edge">
<title>Node10&#45;&gt;Node11</title>
<path fill="none" stroke="#191970" d="M2111.8164,-125.462C2069.0407,-113.925 1994.9493,-93.9419 1947.8485,-81.2383"/>
<polygon fill="#191970" stroke="#191970" points="1948.5059,-77.7906 1937.9394,-78.5658 1946.683,-84.5491 1948.5059,-77.7906"/>
</g>
<!-- Node16 -->
<g id="node17" class="node">
<title>Node16</title>
<polygon fill="#ffffff" stroke="#bfbfbf" points="3155.8044,-.5 3155.8044,-18.5 3266.8484,-18.5 3266.8484,-.5 3155.8044,-.5"/>
<text text-anchor="middle" x="3211.3264" y="-6.5" font-family="Helvetica,sans-Serif" font-size="10.00" fill="#000000">EASTL/vector_map.h</text>
</g>
<!-- Node10&#45;&gt;Node16 -->
<g id="edge22" class="edge">
<title>Node10&#45;&gt;Node16</title>
<path fill="none" stroke="#191970" d="M2153.9621,-125.3169C2172.9368,-105.2454 2217.2952,-58.9371 2226.3264,-55 2310.0453,-18.503 2938.6298,-11.2364 3145.5246,-9.8286"/>
<polygon fill="#191970" stroke="#191970" points="3145.6609,-13.3279 3155.6377,-9.7622 3145.6149,-6.328 3145.6609,-13.3279"/>
</g>
<!-- Node17 -->
<g id="node18" class="node">
<title>Node17</title>
<polygon fill="#ffffff" stroke="#bfbfbf" points="2087.1541,-60.5 2087.1541,-78.5 2141.4988,-78.5 2141.4988,-60.5 2087.1541,-60.5"/>
<text text-anchor="middle" x="2114.3264" y="-66.5" font-family="Helvetica,sans-Serif" font-size="10.00" fill="#000000">iostream</text>
</g>
<!-- Node10&#45;&gt;Node17 -->
<g id="edge25" class="edge">
<title>Node10&#45;&gt;Node17</title>
<path fill="none" stroke="#191970" d="M2141.016,-125.462C2136.4409,-115.8691 2129.0809,-100.4368 2123.2474,-88.2053"/>
<polygon fill="#191970" stroke="#191970" points="2126.2649,-86.4015 2118.801,-78.8821 2119.9466,-89.4149 2126.2649,-86.4015"/>
</g>
<!-- Node11&#45;&gt;Node4 -->
<g id="edge18" class="edge">
<title>Node11&#45;&gt;Node4</title>
<path fill="none" stroke="#191970" d="M1942.0203,-60.4945C1950.9423,-58.5288 1960.4456,-56.5696 1969.3264,-55 2081.8797,-35.1075 2216.3901,-19.8813 2279.8115,-13.205"/>
<polygon fill="#191970" stroke="#191970" points="2280.504,-16.6518 2290.0868,-12.1329 2279.7776,-9.6896 2280.504,-16.6518"/>
</g>
<!-- Node12 -->
<g id="node13" class="node">
<title>Node12</title>
<polygon fill="#ffffff" stroke="#bfbfbf" points="1875.7625,-.5 1875.7625,-18.5 1932.8904,-18.5 1932.8904,-.5 1875.7625,-.5"/>
<text text-anchor="middle" x="1904.3264" y="-6.5" font-family="Helvetica,sans-Serif" font-size="10.00" fill="#000000">algorithm</text>
</g>
<!-- Node11&#45;&gt;Node12 -->
<g id="edge16" class="edge">
<title>Node11&#45;&gt;Node12</title>
<path fill="none" stroke="#191970" d="M1904.3264,-60.3873C1904.3264,-52.0174 1904.3264,-39.3414 1904.3264,-28.735"/>
<polygon fill="#191970" stroke="#191970" points="1907.8265,-28.6984 1904.3264,-18.6985 1900.8265,-28.6985 1907.8265,-28.6984"/>
</g>
<!-- Node13 -->
<g id="node14" class="node">
<title>Node13</title>
<polygon fill="#ffffff" stroke="#bfbfbf" points="2360.7649,-.5 2360.7649,-18.5 2407.8879,-18.5 2407.8879,-.5 2360.7649,-.5"/>
<text text-anchor="middle" x="2384.3264" y="-6.5" font-family="Helvetica,sans-Serif" font-size="10.00" fill="#000000">iterator</text>
</g>
<!-- Node11&#45;&gt;Node13 -->
<g id="edge17" class="edge">
<title>Node11&#45;&gt;Node13</title>
<path fill="none" stroke="#191970" d="M1955.8857,-61.8749C1972.3107,-59.5443 1990.5676,-57.0559 2007.3264,-55 2156.6283,-36.6845 2198.6425,-47.8716 2350.4918,-18.8268"/>
<polygon fill="#191970" stroke="#191970" points="2351.5049,-22.1956 2360.655,-16.8547 2350.1714,-15.3237 2351.5049,-22.1956"/>
</g>
<!-- Node14 -->
<g id="node15" class="node">
<title>Node14</title>
<polygon fill="#ffffff" stroke="#bfbfbf" points="773.0999,-.5 773.0999,-18.5 813.553,-18.5 813.553,-.5 773.0999,-.5"/>
<text text-anchor="middle" x="793.3264" y="-6.5" font-family="Helvetica,sans-Serif" font-size="10.00" fill="#000000">string</text>
</g>
<!-- Node11&#45;&gt;Node14 -->
<g id="edge19" class="edge">
<title>Node11&#45;&gt;Node14</title>
<path fill="none" stroke="#191970" d="M1871.3021,-60.442C1862.2941,-58.3031 1852.4906,-56.2759 1843.3264,-55 1638.8098,-26.5253 975.1692,-12.8347 824.1162,-10.0442"/>
<polygon fill="#191970" stroke="#191970" points="823.8164,-6.5383 813.7541,-9.8551 823.6886,-13.5371 823.8164,-6.5383"/>
</g>
<!-- Node15 -->
<g id="node16" class="node">
<title>Node15</title>
<polygon fill="#ffffff" stroke="#bfbfbf" points="1699.26,-.5 1699.26,-18.5 1761.3928,-18.5 1761.3928,-.5 1699.26,-.5"/>
<text text-anchor="middle" x="1730.3264" y="-6.5" font-family="Helvetica,sans-Serif" font-size="10.00" fill="#000000">type_traits</text>
</g>
<!-- Node11&#45;&gt;Node15 -->
<g id="edge20" class="edge">
<title>Node11&#45;&gt;Node15</title>
<path fill="none" stroke="#191970" d="M1877.8996,-60.3873C1848.0891,-50.1078 1799.4423,-33.3331 1766.2119,-21.8743"/>
<polygon fill="#191970" stroke="#191970" points="1767.0266,-18.453 1756.4319,-18.5019 1764.7446,-25.0707 1767.0266,-18.453"/>
</g>
<!-- Node20&#45;&gt;Node2 -->
<g id="edge31" class="edge">
<title>Node20&#45;&gt;Node2</title>
<path fill="none" stroke="#191970" d="M3125.5512,-185.4433C3145.0516,-178.8096 3166.7172,-167.604 3178.3264,-149 3185.1498,-138.0654 3187.1292,-129.4146 3178.3264,-120 3155.3333,-95.4089 2682.5855,-77.6812 2499.1742,-71.7049"/>
<polygon fill="#191970" stroke="#191970" points="2499.1949,-68.2039 2489.087,-71.3786 2498.9685,-75.2002 2499.1949,-68.2039"/>
</g>
<!-- Node20&#45;&gt;Node3 -->
<g id="edge33" class="edge">
<title>Node20&#45;&gt;Node3</title>
<path fill="none" stroke="#191970" d="M3158.7758,-189.6494C3283.3428,-181.0669 3523.8407,-162.8088 3536.3264,-149 3564.3459,-118.0115 3565.244,-85.1522 3536.3264,-55 3498.8967,-15.9722 2659.1043,-10.3614 2481.237,-9.6099"/>
<polygon fill="#191970" stroke="#191970" points="2481.1915,-6.1098 2471.1776,-9.5697 2481.1634,-13.1098 2481.1915,-6.1098"/>
</g>
<!-- Node20&#45;&gt;Node8 -->
<g id="edge36" class="edge">
<title>Node20&#45;&gt;Node8</title>
<path fill="none" stroke="#191970" d="M3143.0662,-185.4504C3167.0479,-178.9758 3193.4052,-167.9038 3211.3264,-149 3226.8598,-132.615 3232.3698,-106.5267 3234.3069,-88.7381"/>
<polygon fill="#191970" stroke="#191970" points="3237.804,-88.9133 3235.1213,-78.6638 3230.8268,-88.3493 3237.804,-88.9133"/>
</g>
<!-- Node20&#45;&gt;Node19 -->
<g id="edge34" class="edge">
<title>Node20&#45;&gt;Node19</title>
<path fill="none" stroke="#191970" d="M3011.9485,-189.0212C2928.0352,-182.1799 2786.7049,-168.8994 2666.3264,-149 2654.0119,-146.9643 2640.5247,-144.0671 2629.0436,-141.3968"/>
<polygon fill="#191970" stroke="#191970" points="2629.694,-137.9539 2619.155,-139.0397 2628.0708,-144.7631 2629.694,-137.9539"/>
</g>
<!-- Node21 -->
<g id="node22" class="node">
<title>Node21</title>
<polygon fill="#ffffff" stroke="#bfbfbf" points="3025.3757,-125.5 3025.3757,-143.5 3065.2771,-143.5 3065.2771,-125.5 3025.3757,-125.5"/>
<text text-anchor="middle" x="3045.3264" y="-131.5" font-family="Helvetica,sans-Serif" font-size="10.00" fill="#000000">bitset</text>
</g>
<!-- Node20&#45;&gt;Node21 -->
<g id="edge32" class="edge">
<title>Node20&#45;&gt;Node21</title>
<path fill="none" stroke="#191970" d="M3079.2513,-185.3873C3073.3777,-176.5769 3064.3232,-162.9951 3057.0454,-152.0784"/>
<polygon fill="#191970" stroke="#191970" points="3059.918,-150.0775 3051.4587,-143.6985 3054.0936,-153.9605 3059.918,-150.0775"/>
</g>
<!-- Node22 -->
<g id="node23" class="node">
<title>Node22</title>
<polygon fill="#ffffff" stroke="#bfbfbf" points="3083.0237,-125.5 3083.0237,-143.5 3169.6292,-143.5 3169.6292,-125.5 3083.0237,-125.5"/>
<text text-anchor="middle" x="3126.3264" y="-131.5" font-family="Helvetica,sans-Serif" font-size="10.00" fill="#000000">unordered_map</text>
</g>
<!-- Node20&#45;&gt;Node22 -->
<g id="edge35" class="edge">
<title>Node20&#45;&gt;Node22</title>
<path fill="none" stroke="#191970" d="M3091.5534,-185.3873C3097.5739,-176.5769 3106.8548,-162.9951 3114.3145,-152.0784"/>
<polygon fill="#191970" stroke="#191970" points="3117.2886,-153.9296 3120.0408,-143.6985 3111.5091,-149.9802 3117.2886,-153.9296"/>
</g>
<!-- Node23&#45;&gt;Node1 -->
<g id="edge65" class="edge">
<title>Node23&#45;&gt;Node1</title>
<path fill="none" stroke="#191970" d="M2339.5809,-305.9174C2215.0276,-298.4872 1948.3233,-280.3042 1912.3264,-259 1890.9068,-246.3232 1854.0774,-184.1994 1836.3868,-152.776"/>
<polygon fill="#191970" stroke="#191970" points="1839.2845,-150.7857 1831.3594,-143.754 1833.1697,-154.193 1839.2845,-150.7857"/>
</g>
<!-- Node23&#45;&gt;Node2 -->
<g id="edge64" class="edge">
<title>Node23&#45;&gt;Node2</title>
<path fill="none" stroke="#191970" d="M2404.7559,-295.2056C2408.8678,-254.0867 2420.7301,-135.4634 2425.4024,-88.7405"/>
<polygon fill="#191970" stroke="#191970" points="2428.9137,-88.8005 2426.4262,-78.5019 2421.9485,-88.104 2428.9137,-88.8005"/>
</g>
<!-- Node23&#45;&gt;Node6 -->
<g id="edge66" class="edge">
<title>Node23&#45;&gt;Node6</title>
<path fill="none" stroke="#191970" d="M2395.9532,-295.4748C2379.4208,-264.0275 2339.3967,-187.8946 2320.9412,-152.7891"/>
<polygon fill="#191970" stroke="#191970" points="2323.9011,-150.8975 2316.1497,-143.6748 2317.7051,-154.1549 2323.9011,-150.8975"/>
</g>
<!-- Node23&#45;&gt;Node9 -->
<g id="edge95" class="edge">
<title>Node23&#45;&gt;Node9</title>
<path fill="none" stroke="#191970" d="M2419.6348,-295.3987C2444.546,-273.859 2491.9232,-232.8938 2517.9932,-210.352"/>
<polygon fill="#191970" stroke="#191970" points="2520.3781,-212.9169 2525.6533,-203.7286 2515.7996,-207.6218 2520.3781,-212.9169"/>
</g>
<!-- Node23&#45;&gt;Node10 -->
<g id="edge97" class="edge">
<title>Node23&#45;&gt;Node10</title>
<path fill="none" stroke="#191970" d="M2382.6493,-295.4748C2334.695,-262.9477 2216.26,-182.6139 2167.1777,-149.3216"/>
<polygon fill="#191970" stroke="#191970" points="2169.0933,-146.3918 2158.8527,-143.6748 2165.1638,-152.1848 2169.0933,-146.3918"/>
</g>
<!-- Node23&#45;&gt;Node20 -->
<g id="edge96" class="edge">
<title>Node23&#45;&gt;Node20</title>
<path fill="none" stroke="#191970" d="M2466.9453,-306.4026C2546.6413,-301.4024 2686.8833,-288.8876 2803.3264,-259 2825.5499,-253.2959 2829.3047,-246.4394 2851.3264,-240 2904.2465,-224.5256 2965.4596,-212.8347 3012.002,-205.1802"/>
<polygon fill="#191970" stroke="#191970" points="3012.6895,-208.6146 3022.0012,-203.5606 3011.5702,-201.7046 3012.6895,-208.6146"/>
</g>
<!-- Node23&#45;&gt;Node21 -->
<g id="edge102" class="edge">
<title>Node23&#45;&gt;Node21</title>
<path fill="none" stroke="#191970" d="M2465.8474,-295.4053C2576.3973,-269.9325 2813.1392,-212.9055 3008.3264,-149 3010.736,-148.2111 3013.2163,-147.3498 3015.6973,-146.4533"/>
<polygon fill="#191970" stroke="#191970" points="3017.0002,-149.7027 3025.1219,-142.899 3014.5301,-143.153 3017.0002,-149.7027"/>
</g>
<!-- Node24 -->
<g id="node25" class="node">
<title>Node24</title>
<g id="a_node25"><a xlink:href="condensed_8hpp.html" target="_top" xlink:title="../graph/condensed.hpp">
<polygon fill="#ffffff" stroke="#000000" points="3614.7849,-185.5 3614.7849,-203.5 3735.8679,-203.5 3735.8679,-185.5 3614.7849,-185.5"/>
<text text-anchor="middle" x="3675.3264" y="-191.5" font-family="Helvetica,sans-Serif" font-size="10.00" fill="#000000">../graph/condensed.hpp</text>
</a>
</g>
</g>
<!-- Node23&#45;&gt;Node24 -->
<g id="edge38" class="edge">
<title>Node23&#45;&gt;Node24</title>
<path fill="none" stroke="#191970" d="M2466.8403,-303.7578C2681.5193,-284.3489 3379.2304,-221.2697 3604.4984,-200.9035"/>
<polygon fill="#191970" stroke="#191970" points="3604.9026,-204.3813 3614.5468,-199.995 3604.2722,-197.4097 3604.9026,-204.3813"/>
</g>
<!-- Node52 -->
<g id="node29" class="node">
<title>Node52</title>
<g id="a_node29"><a xlink:href="molecular_8hpp.html" target="_top" xlink:title="../graph/molecular.hpp">
<polygon fill="#ffffff" stroke="#000000" points="2646.8489,-185.5 2646.8489,-203.5 2761.804,-203.5 2761.804,-185.5 2646.8489,-185.5"/>
<text text-anchor="middle" x="2704.3264" y="-191.5" font-family="Helvetica,sans-Serif" font-size="10.00" fill="#000000">../graph/molecular.hpp</text>
</a>
</g>
</g>
<!-- Node23&#45;&gt;Node52 -->
<g id="edge52" class="edge">
<title>Node23&#45;&gt;Node52</title>
<path fill="none" stroke="#191970" d="M2440.2349,-295.3987C2499.3237,-272.8233 2614.2632,-228.9095 2671.0005,-207.2325"/>
<polygon fill="#191970" stroke="#191970" points="2672.4738,-210.4164 2680.5661,-203.5779 2669.9755,-203.8774 2672.4738,-210.4164"/>
</g>
<!-- Node55 -->
<g id="node33" class="node">
<title>Node55</title>
<g id="a_node33"><a xlink:href="bond_8hpp.html" target="_top" xlink:title="bond.hpp">
<polygon fill="#ffffff" stroke="#000000" points="2023.4719,-125.5 2023.4719,-143.5 2081.1809,-143.5 2081.1809,-125.5 2023.4719,-125.5"/>
<text text-anchor="middle" x="2052.3264" y="-131.5" font-family="Helvetica,sans-Serif" font-size="10.00" fill="#000000">bond.hpp</text>
</a>
</g>
</g>
<!-- Node23&#45;&gt;Node55 -->
<g id="edge67" class="edge">
<title>Node23&#45;&gt;Node55</title>
<path fill="none" stroke="#191970" d="M2373.3773,-295.2935C2352.3292,-285.2611 2323.5405,-271.4422 2298.3264,-259 2218.1457,-219.4339 2124.0022,-171.3227 2078.9612,-148.2019"/>
<polygon fill="#191970" stroke="#191970" points="2080.3589,-144.9851 2069.8645,-143.5293 2077.1605,-151.2118 2080.3589,-144.9851"/>
</g>
<!-- Node56 -->
<g id="node34" class="node">
<title>Node56</title>
<g id="a_node34"><a xlink:href="dihedral_8hpp.html" target="_top" xlink:title="dihedral.hpp">
<polygon fill="#ffffff" stroke="#000000" points="1921.8044,-240.5 1921.8044,-258.5 1992.8484,-258.5 1992.8484,-240.5 1921.8044,-240.5"/>
<text text-anchor="middle" x="1957.3264" y="-246.5" font-family="Helvetica,sans-Serif" font-size="10.00" fill="#000000">dihedral.hpp</text>
</a>
</g>
</g>
<!-- Node23&#45;&gt;Node56 -->
<g id="edge71" class="edge">
<title>Node23&#45;&gt;Node56</title>
<path fill="none" stroke="#191970" d="M2339.8991,-300.9672C2248.8709,-288.7212 2083.3482,-266.4536 2003.2226,-255.6744"/>
<polygon fill="#191970" stroke="#191970" points="2003.3384,-252.1585 1992.961,-254.2939 2002.4051,-259.096 2003.3384,-252.1585"/>
</g>
<!-- Node58 -->
<g id="node50" class="node">
<title>Node58</title>
<g id="a_node50"><a xlink:href="residue_8hpp.html" target="_top" xlink:title="residue.hpp">
<polygon fill="#ffffff" stroke="#000000" points="3258.196,-185.5 3258.196,-203.5 3326.4568,-203.5 3326.4568,-185.5 3258.196,-185.5"/>
<text text-anchor="middle" x="3292.3264" y="-191.5" font-family="Helvetica,sans-Serif" font-size="10.00" fill="#000000">residue.hpp</text>
</a>
</g>
</g>
<!-- Node23&#45;&gt;Node58 -->
<g id="edge98" class="edge">
<title>Node23&#45;&gt;Node58</title>
<path fill="none" stroke="#191970" d="M2466.9983,-307.376C2553.0837,-303.3288 2710.843,-291.7416 2841.3264,-259 2863.5804,-253.4159 2867.0659,-245.5578 2889.3264,-240 2956.4339,-223.2453 3157.9039,-205.4083 3247.9731,-198.0188"/>
<polygon fill="#191970" stroke="#191970" points="3248.4498,-201.4916 3258.1325,-197.1909 3247.8812,-194.5148 3248.4498,-201.4916"/>
</g>
<!-- Node24&#45;&gt;Node2 -->
<g id="edge39" class="edge">
<title>Node24&#45;&gt;Node2</title>
<path fill="none" stroke="#191970" d="M3682.6897,-185.3788C3694.3006,-169.8554 3713.8317,-138.2157 3696.3264,-120 3675.4552,-98.2817 2765.0967,-76.8352 2499.4039,-71.0294"/>
<polygon fill="#191970" stroke="#191970" points="2499.1778,-67.5238 2489.104,-70.8052 2499.0254,-74.5221 2499.1778,-67.5238"/>
</g>
<!-- Node24&#45;&gt;Node4 -->
<g id="edge50" class="edge">
<title>Node24&#45;&gt;Node4</title>
<path fill="none" stroke="#191970" d="M3700.5013,-185.4592C3716.4734,-178.2567 3735.8549,-166.453 3745.3264,-149 3751.4741,-137.6717 3753.9655,-129.565 3745.3264,-120 3692.4742,-61.4836 3469.5991,-99.6993 3392.3264,-84 3349.481,-75.2952 3341.4271,-62.3374 3298.3264,-55 2886.3512,15.1338 2769.5153,-81.0501 2352.4701,-18.8074"/>
<polygon fill="#191970" stroke="#191970" points="2352.9738,-15.3439 2342.5625,-17.3075 2351.9259,-22.265 2352.9738,-15.3439"/>
</g>
<!-- Node24&#45;&gt;Node8 -->
<g id="edge51" class="edge">
<title>Node24&#45;&gt;Node8</title>
<path fill="none" stroke="#191970" d="M3690.4254,-185.301C3712.5404,-170.7307 3749.0783,-141.7669 3729.3264,-120 3701.5694,-89.4112 3400.3968,-88.3989 3359.3264,-84 3328.0233,-80.6472 3292.3234,-76.4312 3267.2932,-73.4108"/>
<polygon fill="#191970" stroke="#191970" points="3267.6116,-69.9239 3257.2632,-72.1956 3266.7696,-76.8731 3267.6116,-69.9239"/>
</g>
<!-- Node24&#45;&gt;Node16 -->
<g id="edge48" class="edge">
<title>Node24&#45;&gt;Node16</title>
<path fill="none" stroke="#191970" d="M3724.9347,-185.4018C3771.6576,-174.5802 3830.9424,-153.6251 3805.3264,-120 3742.0725,-36.9692 3418.1655,-16.2538 3277.1087,-11.1456"/>
<polygon fill="#191970" stroke="#191970" points="3276.9846,-7.6393 3266.8694,-10.7907 3276.7421,-14.6351 3276.9846,-7.6393"/>
</g>
<!-- Node24&#45;&gt;Node18 -->
<g id="edge47" class="edge">
<title>Node24&#45;&gt;Node18</title>
<path fill="none" stroke="#191970" d="M3617.5671,-185.4263C3567.7059,-177.2002 3493.8877,-164.0797 3430.3264,-149 3426.8802,-148.1824 3423.3175,-147.2753 3419.7546,-146.3254"/>
<polygon fill="#191970" stroke="#191970" points="3420.3813,-142.8673 3409.81,-143.5732 3418.5142,-149.6137 3420.3813,-142.8673"/>
</g>
<!-- Node25 -->
<g id="node26" class="node">
<title>Node25</title>
<g id="a_node26"><a xlink:href="base__graph_8hpp.html" target="_top" xlink:title="base_graph.hpp">
<polygon fill="#ffffff" stroke="#ff0000" points="3439.1838,-125.5 3439.1838,-143.5 3527.469,-143.5 3527.469,-125.5 3439.1838,-125.5"/>
<text text-anchor="middle" x="3483.3264" y="-131.5" font-family="Helvetica,sans-Serif" font-size="10.00" fill="#000000">base_graph.hpp</text>
</a>
</g>
</g>
<!-- Node24&#45;&gt;Node25 -->
<g id="edge40" class="edge">
<title>Node24&#45;&gt;Node25</title>
<path fill="none" stroke="#191970" d="M3646.1657,-185.3873C3612.9879,-175.0192 3558.6652,-158.0434 3521.9797,-146.5791"/>
<polygon fill="#191970" stroke="#191970" points="3522.7212,-143.144 3512.1324,-143.5019 3520.6332,-149.8254 3522.7212,-143.144"/>
</g>
<!-- Node51 -->
<g id="node28" class="node">
<title>Node51</title>
<polygon fill="#ffffff" stroke="#bfbfbf" points="3582.8611,-125.5 3582.8611,-143.5 3687.7917,-143.5 3687.7917,-125.5 3582.8611,-125.5"/>
<text text-anchor="middle" x="3635.3264" y="-131.5" font-family="Helvetica,sans-Serif" font-size="10.00" fill="#000000">EASTL/vector_set.h</text>
</g>
<!-- Node24&#45;&gt;Node51 -->
<g id="edge49" class="edge">
<title>Node24&#45;&gt;Node51</title>
<path fill="none" stroke="#191970" d="M3669.2513,-185.3873C3663.3777,-176.5769 3654.3232,-162.9951 3647.0454,-152.0784"/>
<polygon fill="#191970" stroke="#191970" points="3649.918,-150.0775 3641.4587,-143.6985 3644.0936,-153.9605 3649.918,-150.0775"/>
</g>
<!-- Node25&#45;&gt;Node2 -->
<g id="edge41" class="edge">
<title>Node25&#45;&gt;Node2</title>
<path fill="none" stroke="#191970" d="M3454.6926,-125.4491C3446.8659,-123.3102 3438.3332,-121.2813 3430.3264,-120 3250.7418,-91.2622 2697.7487,-75.8253 2499.2173,-71.0959"/>
<polygon fill="#191970" stroke="#191970" points="2499.2669,-67.5962 2489.187,-70.8589 2499.1015,-74.5942 2499.2669,-67.5962"/>
</g>
<!-- Node25&#45;&gt;Node3 -->
<g id="edge44" class="edge">
<title>Node25&#45;&gt;Node3</title>
<path fill="none" stroke="#191970" d="M3468.0174,-125.4809C3437.6467,-108.119 3367.1019,-70.4091 3302.3264,-55 3142.0026,-16.8615 2617.5734,-10.6529 2481.0539,-9.6764"/>
<polygon fill="#191970" stroke="#191970" points="2480.8541,-6.1751 2470.8309,-9.6081 2480.8072,-13.1749 2480.8541,-6.1751"/>
</g>
<!-- Node25&#45;&gt;Node4 -->
<g id="edge45" class="edge">
<title>Node25&#45;&gt;Node4</title>
<path fill="none" stroke="#191970" d="M3450.0557,-125.3995C3398.711,-111.3298 3305.6808,-85.7255 3302.3264,-84 3284.0563,-74.6018 3285.5643,-62.2131 3266.3264,-55 3078.7658,15.3247 2568.7378,-47.8106 2352.6293,-18.7577"/>
<polygon fill="#191970" stroke="#191970" points="2352.9608,-15.2694 2342.5631,-17.3037 2351.96,-22.1975 2352.9608,-15.2694"/>
</g>
<!-- Node25&#45;&gt;Node8 -->
<g id="edge46" class="edge">
<title>Node25&#45;&gt;Node8</title>
<path fill="none" stroke="#191970" d="M3451.1493,-125.4741C3444.2902,-123.6126 3437.0791,-121.7021 3430.3264,-120 3361.3291,-102.608 3342.4827,-104.441 3274.3264,-84 3271.7555,-83.2289 3269.1093,-82.3763 3266.4639,-81.4819"/>
<polygon fill="#191970" stroke="#191970" points="3267.617,-78.1773 3257.0222,-78.1316 3265.2761,-84.7743 3267.617,-78.1773"/>
</g>
<!-- Node26 -->
<g id="node27" class="node">
<title>Node26</title>
<g id="a_node27"><a xlink:href="simple__bimap_8hpp.html" target="_top" xlink:title="../utils/simple_bimap.hpp">
<polygon fill="#ffffff" stroke="#000000" points="3401.2996,-60.5 3401.2996,-78.5 3527.3533,-78.5 3527.3533,-60.5 3401.2996,-60.5"/>
<text text-anchor="middle" x="3464.3264" y="-66.5" font-family="Helvetica,sans-Serif" font-size="10.00" fill="#000000">../utils/simple_bimap.hpp</text>
</a>
</g>
</g>
<!-- Node25&#45;&gt;Node26 -->
<g id="edge42" class="edge">
<title>Node25&#45;&gt;Node26</title>
<path fill="none" stroke="#191970" d="M3480.6845,-125.462C3477.9085,-115.9651 3473.4595,-100.7449 3469.9017,-88.5732"/>
<polygon fill="#191970" stroke="#191970" points="3473.2341,-87.4985 3467.0689,-78.8821 3466.5152,-89.4625 3473.2341,-87.4985"/>
</g>
<!-- Node26&#45;&gt;Node16 -->
<g id="edge43" class="edge">
<title>Node26&#45;&gt;Node16</title>
<path fill="none" stroke="#191970" d="M3426.1758,-60.4524C3381.5848,-49.8775 3307.7403,-32.3649 3259.3036,-20.878"/>
<polygon fill="#191970" stroke="#191970" points="3259.9109,-17.425 3249.3731,-18.5229 3258.2956,-24.2361 3259.9109,-17.425"/>
</g>
<!-- Node52&#45;&gt;Node2 -->
<g id="edge55" class="edge">
<title>Node52&#45;&gt;Node2</title>
<path fill="none" stroke="#191970" d="M2674.1155,-185.4316C2647.427,-177.0676 2607.6788,-163.7433 2574.3264,-149 2529.504,-129.1864 2479.8359,-100.9103 2451.2286,-83.9639"/>
<polygon fill="#191970" stroke="#191970" points="2452.7528,-80.7977 2442.3718,-78.6798 2449.1663,-86.8091 2452.7528,-80.7977"/>
</g>
<!-- Node52&#45;&gt;Node4 -->
<g id="edge60" class="edge">
<title>Node52&#45;&gt;Node4</title>
<path fill="none" stroke="#191970" d="M2696.0429,-185.0863C2682.6875,-170.2216 2655.1698,-140.8619 2628.3264,-120 2584.3919,-85.8553 2573.0555,-75.4989 2521.3264,-55 2452.4722,-27.7148 2428.3801,-36.3208 2352.6646,-19.1654"/>
<polygon fill="#191970" stroke="#191970" points="2353.1939,-15.6946 2342.6588,-16.8181 2351.595,-22.5096 2353.1939,-15.6946"/>
</g>
<!-- Node52&#45;&gt;Node8 -->
<g id="edge63" class="edge">
<title>Node52&#45;&gt;Node8</title>
<path fill="none" stroke="#191970" d="M2761.9838,-186.0749C2835.1079,-175.1844 2954.0586,-156.706 2973.3264,-149 2994.7294,-140.4401 2995.1856,-129.1882 3016.3264,-120 3079.6346,-92.485 3160.031,-78.8819 3203.6631,-73.1031"/>
<polygon fill="#191970" stroke="#191970" points="3204.1972,-76.5635 3213.6758,-71.8298 3203.3141,-69.6194 3204.1972,-76.5635"/>
</g>
<!-- Node52&#45;&gt;Node13 -->
<g id="edge58" class="edge">
<title>Node52&#45;&gt;Node13</title>
<path fill="none" stroke="#191970" d="M2759.1719,-185.4777C2814.5926,-175.8043 2893.3184,-160.3128 2902.3264,-149 2910.3551,-138.9171 2910.1643,-130.2319 2902.3264,-120 2770.3941,52.2301 2636.4939,-62.1643 2417.8314,-18.7738"/>
<polygon fill="#191970" stroke="#191970" points="2418.5263,-15.3435 2408.0229,-16.7326 2417.1,-22.1967 2418.5263,-15.3435"/>
</g>
<!-- Node52&#45;&gt;Node16 -->
<g id="edge57" class="edge">
<title>Node52&#45;&gt;Node16</title>
<path fill="none" stroke="#191970" d="M2761.8368,-186.6851C2805.615,-179.6885 2866.8973,-167.6195 2918.3264,-149 2944.3102,-139.5928 2948.564,-132.2669 2973.3264,-120 3047.4865,-83.2622 3136.2484,-43.0184 3181.5407,-22.7458"/>
<polygon fill="#191970" stroke="#191970" points="3183.0834,-25.8901 3190.7857,-18.6151 3180.2278,-19.499 3183.0834,-25.8901"/>
</g>
<!-- Node52&#45;&gt;Node19 -->
<g id="edge59" class="edge">
<title>Node52&#45;&gt;Node19</title>
<path fill="none" stroke="#191970" d="M2688.6829,-185.3873C2671.8732,-175.5952 2644.9455,-159.9092 2625.4264,-148.5388"/>
<polygon fill="#191970" stroke="#191970" points="2627.1822,-145.5111 2616.7796,-143.5019 2623.6587,-151.5597 2627.1822,-145.5111"/>
</g>
<!-- Node52&#45;&gt;Node25 -->
<g id="edge56" class="edge">
<title>Node52&#45;&gt;Node25</title>
<path fill="none" stroke="#191970" d="M2761.9078,-192.4134C2910.1025,-186.7992 3302.0116,-170.3425 3430.3264,-149 3435.0198,-148.2194 3439.8961,-147.1925 3444.7059,-146.0451"/>
<polygon fill="#191970" stroke="#191970" points="3445.5866,-149.4325 3454.4054,-143.5605 3443.8496,-142.6515 3445.5866,-149.4325"/>
</g>
<!-- Node31 -->
<g id="node30" class="node">
<title>Node31</title>
<g id="a_node30"><a xlink:href="cycles_8hpp.html" target="_top" xlink:title="../algorithm/graph\l/cycles.hpp">
<polygon fill="#ffffff" stroke="#ff0000" points="2799.4177,-120.5 2799.4177,-148.5 2893.2351,-148.5 2893.2351,-120.5 2799.4177,-120.5"/>
<text text-anchor="start" x="2807.4177" y="-136.5" font-family="Helvetica,sans-Serif" font-size="10.00" fill="#000000">../algorithm/graph</text>
<text text-anchor="middle" x="2846.3264" y="-126.5" font-family="Helvetica,sans-Serif" font-size="10.00" fill="#000000">/cycles.hpp</text>
</a>
</g>
</g>
<!-- Node52&#45;&gt;Node31 -->
<g id="edge53" class="edge">
<title>Node52&#45;&gt;Node31</title>
<path fill="none" stroke="#191970" d="M2725.8932,-185.3873C2746.4635,-176.6956 2778.0238,-163.3602 2803.6764,-152.5211"/>
<polygon fill="#191970" stroke="#191970" points="2805.3344,-155.6203 2813.1836,-148.504 2802.6098,-149.1722 2805.3344,-155.6203"/>
</g>
<!-- Node53 -->
<g id="node31" class="node">
<title>Node53</title>
<polygon fill="#ffffff" stroke="#bfbfbf" points="2751.6565,-125.5 2751.6565,-143.5 2780.9963,-143.5 2780.9963,-125.5 2751.6565,-125.5"/>
<text text-anchor="middle" x="2766.3264" y="-131.5" font-family="Helvetica,sans-Serif" font-size="10.00" fill="#000000">set</text>
</g>
<!-- Node52&#45;&gt;Node53 -->
<g id="edge61" class="edge">
<title>Node52&#45;&gt;Node53</title>
<path fill="none" stroke="#191970" d="M2713.7429,-185.3873C2723.2111,-176.2245 2738.0121,-161.9009 2749.502,-150.7817"/>
<polygon fill="#191970" stroke="#191970" points="2752.0693,-153.1678 2756.8213,-143.6985 2747.2013,-148.1376 2752.0693,-153.1678"/>
</g>
<!-- Node54 -->
<g id="node32" class="node">
<title>Node54</title>
<polygon fill="#ffffff" stroke="#bfbfbf" points="2674.925,-125.5 2674.925,-143.5 2733.7278,-143.5 2733.7278,-125.5 2674.925,-125.5"/>
<text text-anchor="middle" x="2704.3264" y="-131.5" font-family="Helvetica,sans-Serif" font-size="10.00" fill="#000000">stdexcept</text>
</g>
<!-- Node52&#45;&gt;Node54 -->
<g id="edge62" class="edge">
<title>Node52&#45;&gt;Node54</title>
<path fill="none" stroke="#191970" d="M2704.3264,-185.3873C2704.3264,-177.0174 2704.3264,-164.3414 2704.3264,-153.735"/>
<polygon fill="#191970" stroke="#191970" points="2707.8265,-153.6984 2704.3264,-143.6985 2700.8265,-153.6985 2707.8265,-153.6984"/>
</g>
<!-- Node31&#45;&gt;Node2 -->
<g id="edge54" class="edge">
<title>Node31&#45;&gt;Node2</title>
<path fill="none" stroke="#191970" d="M2799.363,-121.9212C2796.3134,-121.234 2793.2817,-120.5861 2790.3264,-120 2690.0354,-100.1084 2572.6244,-85.2913 2499.1016,-77.0156"/>
<polygon fill="#191970" stroke="#191970" points="2499.3513,-73.5218 2489.0249,-75.8915 2498.5752,-80.4787 2499.3513,-73.5218"/>
</g>
<!-- Node55&#45;&gt;Node2 -->
<g id="edge68" class="edge">
<title>Node55&#45;&gt;Node2</title>
<path fill="none" stroke="#191970" d="M2073.7652,-125.3962C2079.1026,-123.3876 2084.8625,-121.4339 2090.3264,-120 2115.422,-113.4144 2264.3681,-92.1412 2355.6437,-79.4022"/>
<polygon fill="#191970" stroke="#191970" points="2356.2349,-82.8537 2365.656,-78.0067 2355.2686,-75.9207 2356.2349,-82.8537"/>
</g>
<!-- Node55&#45;&gt;Node4 -->
<g id="edge70" class="edge">
<title>Node55&#45;&gt;Node4</title>
<path fill="none" stroke="#191970" d="M2052.4773,-125.2714C2053.2812,-108.5605 2057.5074,-73.3263 2078.3264,-55 2107.8166,-29.0407 2220.9745,-16.7404 2280.0078,-11.9867"/>
<polygon fill="#191970" stroke="#191970" points="2280.3262,-15.4727 2290.026,-11.2108 2279.7855,-8.4936 2280.3262,-15.4727"/>
</g>
<!-- Node55&#45;&gt;Node5 -->
<g id="edge69" class="edge">
<title>Node55&#45;&gt;Node5</title>
<path fill="none" stroke="#191970" d="M2023.4635,-129.625C1982.7368,-122.2705 1906.4406,-106.7378 1844.3264,-84 1843.2957,-83.6227 1842.2537,-83.2187 1841.2081,-82.7943"/>
<polygon fill="#191970" stroke="#191970" points="1842.4645,-79.5213 1831.9104,-78.5929 1839.582,-85.9003 1842.4645,-79.5213"/>
</g>
<!-- Node56&#45;&gt;Node2 -->
<g id="edge72" class="edge">
<title>Node56&#45;&gt;Node2</title>
<path fill="none" stroke="#191970" d="M1985.7616,-240.4397C2032.3055,-225.0263 2126.9186,-191.227 2200.3264,-149 2218.7421,-138.4066 2219.2566,-129.3647 2238.3264,-120 2276.921,-101.0471 2323.5642,-88.4896 2360.8572,-80.6371"/>
<polygon fill="#191970" stroke="#191970" points="2362.0143,-83.9733 2371.1133,-78.5457 2360.6156,-77.1144 2362.0143,-83.9733"/>
</g>
<!-- Node56&#45;&gt;Node3 -->
<g id="edge92" class="edge">
<title>Node56&#45;&gt;Node3</title>
<path fill="none" stroke="#191970" d="M1959.3717,-240.4055C1967.401,-207.2262 2000.2422,-92.6683 2078.3264,-55 2211.8594,9.4172 2266.5184,-46.8088 2415.7974,-18.9205"/>
<polygon fill="#191970" stroke="#191970" points="2416.632,-22.3235 2425.7688,-16.9597 2415.2814,-15.455 2416.632,-22.3235"/>
</g>
<!-- Node56&#45;&gt;Node4 -->
<g id="edge93" class="edge">
<title>Node56&#45;&gt;Node4</title>
<path fill="none" stroke="#191970" d="M1956.2777,-240.1559C1953.2586,-208.0492 1948.2156,-101.6621 2007.3264,-55 2049.0082,-22.0964 2207.7927,-12.9072 2280.0879,-10.4056"/>
<polygon fill="#191970" stroke="#191970" points="2280.2206,-13.9033 2290.1027,-10.0831 2279.9951,-6.9069 2280.2206,-13.9033"/>
</g>
<!-- Node56&#45;&gt;Node5 -->
<g id="edge91" class="edge">
<title>Node56&#45;&gt;Node5</title>
<path fill="none" stroke="#191970" d="M1954.1227,-240.3294C1944.8269,-214.0821 1917.424,-139.3111 1900.3264,-120 1891.8023,-110.3723 1864.1404,-94.7161 1842.6618,-83.3857"/>
<polygon fill="#191970" stroke="#191970" points="1844.1007,-80.1889 1833.6148,-78.6734 1840.867,-86.3972 1844.1007,-80.1889"/>
</g>
<!-- Node56&#45;&gt;Node14 -->
<g id="edge94" class="edge">
<title>Node56&#45;&gt;Node14</title>
<path fill="none" stroke="#191970" d="M1921.7057,-249.2947C1668.3938,-247.4759 145.8681,-230.4696 11.3264,-84 2.6073,-74.5079 2.4812,-64.3748 11.3264,-55 37.562,-27.1935 621.1945,-13.1283 762.6521,-10.1205"/>
<polygon fill="#191970" stroke="#191970" points="762.8655,-13.6169 772.7899,-9.9079 762.7187,-6.6185 762.8655,-13.6169"/>
</g>
<!-- Node57 -->
<g id="node35" class="node">
<title>Node57</title>
<g id="a_node35"><a xlink:href="quad_8hpp.html" target="_top" xlink:title="../utils/quad.hpp">
<polygon fill="#ffffff" stroke="#ff0000" points="1619.0237,-185.5 1619.0237,-203.5 1705.6292,-203.5 1705.6292,-185.5 1619.0237,-185.5"/>
<text text-anchor="middle" x="1662.3264" y="-191.5" font-family="Helvetica,sans-Serif" font-size="10.00" fill="#000000">../utils/quad.hpp</text>
</a>
</g>
</g>
<!-- Node56&#45;&gt;Node57 -->
<g id="edge73" class="edge">
<title>Node56&#45;&gt;Node57</title>
<path fill="none" stroke="#191970" d="M1921.7425,-242.8657C1870.4608,-233.3047 1775.395,-215.5806 1715.6861,-204.4484"/>
<polygon fill="#191970" stroke="#191970" points="1716.1658,-200.9776 1705.6937,-202.5854 1714.8828,-207.859 1716.1658,-200.9776"/>
</g>
<!-- Node57&#45;&gt;Node15 -->
<g id="edge74" class="edge">
<title>Node57&#45;&gt;Node15</title>
<path fill="none" stroke="#191970" d="M1667.0648,-185.2543C1676.511,-166.5408 1697.9287,-122.6666 1711.3264,-84 1717.7266,-65.5288 1723.0222,-43.8094 1726.3824,-28.6036"/>
<polygon fill="#191970" stroke="#191970" points="1729.8055,-29.3331 1728.4752,-18.8221 1722.9604,-27.8685 1729.8055,-29.3331"/>
</g>
<!-- Node57&#45;&gt;Node35 -->
<g id="edge75" class="edge">
<title>Node57&#45;&gt;Node35</title>
<path fill="none" stroke="#191970" d="M1618.8202,-190.4466C1506.8507,-180.0147 1208.4954,-152.2176 1079.337,-140.1842"/>
<polygon fill="#191970" stroke="#191970" points="1079.5046,-136.6848 1069.223,-139.2419 1078.8552,-143.6546 1079.5046,-136.6848"/>
</g>
<!-- Node35&#45;&gt;Node2 -->
<g id="edge76" class="edge">
<title>Node35&#45;&gt;Node2</title>
<path fill="none" stroke="#191970" d="M1068.9256,-134.2327C1242.9897,-132.9515 1833.0864,-125.6084 2318.3264,-84 2330.8584,-82.9254 2344.1598,-81.4435 2357.0044,-79.8351"/>
<polygon fill="#191970" stroke="#191970" points="2357.7134,-83.2727 2367.1841,-78.5234 2356.8188,-76.3301 2357.7134,-83.2727"/>
</g>
<!-- Node35&#45;&gt;Node15 -->
<g id="edge90" class="edge">
<title>Node35&#45;&gt;Node15</title>
<path fill="none" stroke="#191970" d="M967.6887,-133.8486C769.3035,-131.0533 54.2202,-118.6021 21.3264,-84 12.4461,-74.6585 12.3347,-64.2343 21.3264,-55 51.3548,-24.1615 1430.9395,-11.8464 1688.9854,-9.8108"/>
<polygon fill="#191970" stroke="#191970" points="1689.0906,-13.3102 1699.0629,-9.7321 1689.0359,-6.3104 1689.0906,-13.3102"/>
</g>
<!-- Node36 -->
<g id="node37" class="node">
<title>Node36</title>
<polygon fill="#ffffff" stroke="#bfbfbf" points="576.0261,-60.5 576.0261,-78.5 672.6267,-78.5 672.6267,-60.5 576.0261,-60.5"/>
<text text-anchor="middle" x="624.3264" y="-66.5" font-family="Helvetica,sans-Serif" font-size="10.00" fill="#000000">cereal/access.hpp</text>
</g>
<!-- Node35&#45;&gt;Node36 -->
<g id="edge77" class="edge">
<title>Node35&#45;&gt;Node36</title>
<path fill="none" stroke="#191970" d="M967.5224,-128.5014C901.3136,-120.3154 782.0902,-104.3129 681.3264,-84 676.8706,-83.1017 672.2408,-82.0774 667.6324,-80.9981"/>
<polygon fill="#191970" stroke="#191970" points="668.1972,-77.5336 657.6536,-78.5748 666.5452,-84.3359 668.1972,-77.5336"/>
</g>
<!-- Node37 -->
<g id="node38" class="node">
<title>Node37</title>
<polygon fill="#ffffff" stroke="#bfbfbf" points="690.408,-60.5 690.408,-78.5 814.2449,-78.5 814.2449,-60.5 690.408,-60.5"/>
<text text-anchor="middle" x="752.3264" y="-66.5" font-family="Helvetica,sans-Serif" font-size="10.00" fill="#000000">cereal/archives/json.hpp</text>
</g>
<!-- Node35&#45;&gt;Node37 -->
<g id="edge78" class="edge">
<title>Node35&#45;&gt;Node37</title>
<path fill="none" stroke="#191970" d="M981.3403,-125.462C933.8303,-113.8524 851.32,-93.6902 799.386,-80.9995"/>
<polygon fill="#191970" stroke="#191970" points="799.9713,-77.5396 789.4263,-78.5658 798.3096,-84.3396 799.9713,-77.5396"/>
</g>
<!-- Node38 -->
<g id="node39" class="node">
<title>Node38</title>
<polygon fill="#ffffff" stroke="#bfbfbf" points="832.2429,-55.5 832.2429,-83.5 954.4099,-83.5 954.4099,-55.5 832.2429,-55.5"/>
<text text-anchor="start" x="840.2429" y="-71.5" font-family="Helvetica,sans-Serif" font-size="10.00" fill="#000000">cereal/archives/portable</text>
<text text-anchor="middle" x="893.3264" y="-61.5" font-family="Helvetica,sans-Serif" font-size="10.00" fill="#000000">_binary.hpp</text>
</g>
<!-- Node35&#45;&gt;Node38 -->
<g id="edge79" class="edge">
<title>Node35&#45;&gt;Node38</title>
<path fill="none" stroke="#191970" d="M1000.9457,-125.462C982.5869,-115.9155 953.1067,-100.5857 929.6394,-88.3828"/>
<polygon fill="#191970" stroke="#191970" points="931.1389,-85.2176 920.652,-83.7093 927.9094,-91.4281 931.1389,-85.2176"/>
</g>
<!-- Node39 -->
<g id="node40" class="node">
<title>Node39</title>
<polygon fill="#ffffff" stroke="#bfbfbf" points="971.9695,-60.5 971.9695,-78.5 1064.6834,-78.5 1064.6834,-60.5 971.9695,-60.5"/>
<text text-anchor="middle" x="1018.3264" y="-66.5" font-family="Helvetica,sans-Serif" font-size="10.00" fill="#000000">cereal/cereal.hpp</text>
</g>
<!-- Node35&#45;&gt;Node39 -->
<g id="edge80" class="edge">
<title>Node35&#45;&gt;Node39</title>
<path fill="none" stroke="#191970" d="M1018.3264,-125.462C1018.3264,-116.061 1018.3264,-101.0518 1018.3264,-88.943"/>
<polygon fill="#191970" stroke="#191970" points="1021.8265,-88.8821 1018.3264,-78.8821 1014.8265,-88.8822 1021.8265,-88.8821"/>
</g>
<!-- Node40 -->
<g id="node41" class="node">
<title>Node40</title>
<polygon fill="#ffffff" stroke="#bfbfbf" points="1082.2249,-60.5 1082.2249,-78.5 1196.428,-78.5 1196.428,-60.5 1082.2249,-60.5"/>
<text text-anchor="middle" x="1139.3264" y="-66.5" font-family="Helvetica,sans-Serif" font-size="10.00" fill="#000000">cereal/types/array.hpp</text>
</g>
<!-- Node35&#45;&gt;Node40 -->
<g id="edge81" class="edge">
<title>Node35&#45;&gt;Node40</title>
<path fill="none" stroke="#191970" d="M1035.1509,-125.462C1055.3548,-114.6087 1089.4732,-96.2806 1113.1341,-83.5702"/>
<polygon fill="#191970" stroke="#191970" points="1115.1016,-86.4864 1122.2547,-78.6708 1111.789,-80.3198 1115.1016,-86.4864"/>
</g>
<!-- Node41 -->
<g id="node42" class="node">
<title>Node41</title>
<polygon fill="#ffffff" stroke="#bfbfbf" points="1214.2971,-60.5 1214.2971,-78.5 1330.3557,-78.5 1330.3557,-60.5 1214.2971,-60.5"/>
<text text-anchor="middle" x="1272.3264" y="-66.5" font-family="Helvetica,sans-Serif" font-size="10.00" fill="#000000">cereal/types/bitset.hpp</text>
</g>
<!-- Node35&#45;&gt;Node41 -->
<g id="edge82" class="edge">
<title>Node35&#45;&gt;Node41</title>
<path fill="none" stroke="#191970" d="M1053.644,-125.462C1098.9162,-113.8766 1177.4706,-93.7741 1227.0795,-81.0789"/>
<polygon fill="#191970" stroke="#191970" points="1228.0802,-84.4357 1236.9002,-78.5658 1226.3447,-77.6543 1228.0802,-84.4357"/>
</g>
<!-- Node42 -->
<g id="node43" class="node">
<title>Node42</title>
<polygon fill="#ffffff" stroke="#bfbfbf" points="1348.4646,-55.5 1348.4646,-83.5 1456.1882,-83.5 1456.1882,-55.5 1348.4646,-55.5"/>
<text text-anchor="start" x="1356.4646" y="-71.5" font-family="Helvetica,sans-Serif" font-size="10.00" fill="#000000">cereal/types/boost</text>
<text text-anchor="middle" x="1402.3264" y="-61.5" font-family="Helvetica,sans-Serif" font-size="10.00" fill="#000000">_dynamic_bitset.hpp</text>
</g>
<!-- Node35&#45;&gt;Node42 -->
<g id="edge83" class="edge">
<title>Node35&#45;&gt;Node42</title>
<path fill="none" stroke="#191970" d="M1069.1112,-127.6335C1130.5108,-119.0824 1237.1827,-103.43 1338.3379,-84.1103"/>
<polygon fill="#191970" stroke="#191970" points="1339.2653,-87.4961 1348.423,-82.1682 1337.9415,-80.6224 1339.2653,-87.4961"/>
</g>
<!-- Node43 -->
<g id="node44" class="node">
<title>Node43</title>
<polygon fill="#ffffff" stroke="#bfbfbf" points="1474.4177,-55.5 1474.4177,-83.5 1568.2351,-83.5 1568.2351,-55.5 1474.4177,-55.5"/>
<text text-anchor="start" x="1482.4177" y="-71.5" font-family="Helvetica,sans-Serif" font-size="10.00" fill="#000000">cereal/types/eastl</text>
<text text-anchor="middle" x="1521.3264" y="-61.5" font-family="Helvetica,sans-Serif" font-size="10.00" fill="#000000">_bitset.hpp</text>
</g>
<!-- Node35&#45;&gt;Node43 -->
<g id="edge84" class="edge">
<title>Node35&#45;&gt;Node43</title>
<path fill="none" stroke="#191970" d="M1068.9449,-131.1157C1150.2948,-125.1674 1315.2478,-111.0089 1464.1432,-84.0467"/>
<polygon fill="#191970" stroke="#191970" points="1465.1762,-87.4157 1474.38,-82.1678 1463.9125,-80.5307 1465.1762,-87.4157"/>
</g>
<!-- Node44 -->
<g id="node45" class="node">
<title>Node44</title>
<polygon fill="#ffffff" stroke="#bfbfbf" points="1586.0139,-60.5 1586.0139,-78.5 1702.6389,-78.5 1702.6389,-60.5 1586.0139,-60.5"/>
<text text-anchor="middle" x="1644.3264" y="-66.5" font-family="Helvetica,sans-Serif" font-size="10.00" fill="#000000">cereal/types/eigen.hpp</text>
</g>
<!-- Node35&#45;&gt;Node44 -->
<g id="edge85" class="edge">
<title>Node35&#45;&gt;Node44</title>
<path fill="none" stroke="#191970" d="M1069.0666,-132.0114C1167.5242,-126.7201 1391.1764,-112.4411 1577.3264,-84 1583.5801,-83.0445 1590.1254,-81.8607 1596.5717,-80.5845"/>
<polygon fill="#191970" stroke="#191970" points="1597.4775,-83.9714 1606.5638,-78.5226 1596.0628,-77.1158 1597.4775,-83.9714"/>
</g>
<!-- Node45 -->
<g id="node46" class="node">
<title>Node45</title>
<polygon fill="#ffffff" stroke="#bfbfbf" points="30.5212,-60.5 30.5212,-78.5 142.1316,-78.5 142.1316,-60.5 30.5212,-60.5"/>
<text text-anchor="middle" x="86.3264" y="-66.5" font-family="Helvetica,sans-Serif" font-size="10.00" fill="#000000">cereal/types/map.hpp</text>
</g>
<!-- Node35&#45;&gt;Node45 -->
<g id="edge86" class="edge">
<title>Node35&#45;&gt;Node45</title>
<path fill="none" stroke="#191970" d="M967.754,-132.6283C807.2782,-126.5199 310.7311,-106.2738 151.3264,-84 145.0141,-83.118 138.4064,-81.9435 131.9232,-80.6434"/>
<polygon fill="#191970" stroke="#191970" points="132.4062,-77.1681 121.898,-78.5209 130.9562,-84.0163 132.4062,-77.1681"/>
</g>
<!-- Node46 -->
<g id="node47" class="node">
<title>Node46</title>
<polygon fill="#ffffff" stroke="#bfbfbf" points="160.5598,-60.5 160.5598,-78.5 288.093,-78.5 288.093,-60.5 160.5598,-60.5"/>
<text text-anchor="middle" x="224.3264" y="-66.5" font-family="Helvetica,sans-Serif" font-size="10.00" fill="#000000">cereal/types/memory.hpp</text>
</g>
<!-- Node35&#45;&gt;Node46 -->
<g id="edge87" class="edge">
<title>Node35&#45;&gt;Node46</title>
<path fill="none" stroke="#191970" d="M967.4036,-133.1401C849.2182,-129.5033 547.3142,-117.4465 297.3264,-84 290.1064,-83.034 282.5262,-81.7903 275.0946,-80.438"/>
<polygon fill="#191970" stroke="#191970" points="275.5775,-76.9673 265.1004,-78.5426 274.2731,-83.8447 275.5775,-76.9673"/>
</g>
<!-- Node47 -->
<g id="node48" class="node">
<title>Node47</title>
<polygon fill="#ffffff" stroke="#bfbfbf" points="306.2249,-60.5 306.2249,-78.5 420.428,-78.5 420.428,-60.5 306.2249,-60.5"/>
<text text-anchor="middle" x="363.3264" y="-66.5" font-family="Helvetica,sans-Serif" font-size="10.00" fill="#000000">cereal/types/utility.hpp</text>
</g>
<!-- Node35&#45;&gt;Node47 -->
<g id="edge88" class="edge">
<title>Node35&#45;&gt;Node47</title>
<path fill="none" stroke="#191970" d="M967.7331,-132.3301C865.6474,-127.4734 627.896,-113.739 430.3264,-84 424.0706,-83.0584 417.5241,-81.8826 411.0772,-80.6105"/>
<polygon fill="#191970" stroke="#191970" points="411.5851,-77.1417 401.0846,-78.5521 410.1728,-83.9978 411.5851,-77.1417"/>
</g>
<!-- Node48 -->
<g id="node49" class="node">
<title>Node48</title>
<polygon fill="#ffffff" stroke="#bfbfbf" points="438.9055,-60.5 438.9055,-78.5 557.7473,-78.5 557.7473,-60.5 438.9055,-60.5"/>
<text text-anchor="middle" x="498.3264" y="-66.5" font-family="Helvetica,sans-Serif" font-size="10.00" fill="#000000">cereal/types/vector.hpp</text>
</g>
<!-- Node35&#45;&gt;Node48 -->
<g id="edge89" class="edge">
<title>Node35&#45;&gt;Node48</title>
<path fill="none" stroke="#191970" d="M967.7233,-130.4238C884.0696,-123.3295 711.8216,-107.2177 567.3264,-84 561.0607,-82.9932 554.5029,-81.7995 548.0284,-80.5359"/>
<polygon fill="#191970" stroke="#191970" points="548.471,-77.0548 537.9765,-78.5096 547.0876,-83.9168 548.471,-77.0548"/>
</g>
<!-- Node58&#45;&gt;Node2 -->
<g id="edge99" class="edge">
<title>Node58&#45;&gt;Node2</title>
<path fill="none" stroke="#191970" d="M3283.9757,-185.2957C3268.2945,-168.7319 3232.5607,-134.2987 3194.3264,-120 3130.2994,-96.0554 2677.4173,-78.0896 2499.1604,-71.8711"/>
<polygon fill="#191970" stroke="#191970" points="2499.2097,-68.3708 2489.0945,-71.5223 2498.9672,-75.3666 2499.2097,-68.3708"/>
</g>
<!-- Node58&#45;&gt;Node8 -->
<g id="edge101" class="edge">
<title>Node58&#45;&gt;Node8</title>
<path fill="none" stroke="#191970" d="M3293.7401,-185.2723C3295.5454,-170.6625 3297.346,-141.6456 3287.3264,-120 3280.8391,-105.9852 3268.6221,-93.8023 3257.6594,-84.9155"/>
<polygon fill="#191970" stroke="#191970" points="3259.7076,-82.0758 3249.6363,-78.7864 3255.4582,-87.6384 3259.7076,-82.0758"/>
</g>
<!-- Node58&#45;&gt;Node51 -->
<g id="edge100" class="edge">
<title>Node58&#45;&gt;Node51</title>
<path fill="none" stroke="#191970" d="M3326.5458,-189.4813C3378.9619,-181.658 3482.2176,-165.7106 3569.3264,-149 3574.7271,-147.9639 3580.3629,-146.8212 3585.9665,-145.6455"/>
<polygon fill="#191970" stroke="#191970" points="3586.9129,-149.0223 3595.9606,-143.5096 3585.4499,-142.1769 3586.9129,-149.0223"/>
</g>
</g>
</svg>
