<?xml version="1.0" encoding="UTF-8" standalone="no"?>
<!DOCTYPE svg PUBLIC "-//W3C//DTD SVG 1.1//EN"
 "http://www.w3.org/Graphics/SVG/1.1/DTD/svg11.dtd">
<!-- Generated by graphviz version 2.40.1 (20161225.0304)
 -->
<!-- Title: include/indigox/classes/angle.hpp Pages: 1 -->
<svg width="1073pt" height="157pt"
 viewBox="0.00 0.00 1073.14 157.00" xmlns="http://www.w3.org/2000/svg" xmlns:xlink="http://www.w3.org/1999/xlink">
<g id="graph0" class="graph" transform="scale(1 1) rotate(0) translate(4 153)">
<title>include/indigox/classes/angle.hpp</title>
<polygon fill="#ffffff" stroke="transparent" points="-4,4 -4,-153 1069.1426,-153 1069.1426,4 -4,4"/>
<!-- Node5 -->
<g id="node1" class="node">
<title>Node5</title>
<polygon fill="#bfbfbf" stroke="#000000" points="465.6602,-120.5 465.6602,-148.5 583.9404,-148.5 583.9404,-120.5 465.6602,-120.5"/>
<text text-anchor="start" x="473.6602" y="-136.5" font-family="Helvetica,sans-Serif" font-size="10.00" fill="#000000">include/indigox/classes</text>
<text text-anchor="middle" x="524.8003" y="-126.5" font-family="Helvetica,sans-Serif" font-size="10.00" fill="#000000">/angle.hpp</text>
</g>
<!-- Node6 -->
<g id="node2" class="node">
<title>Node6</title>
<g id="a_node2"><a xlink:href="molecule__impl_8hpp.html" target="_top" xlink:title="include/indigox/classes\l/molecule_impl.hpp">
<polygon fill="#ffffff" stroke="#000000" points="327.6602,-55.5 327.6602,-83.5 445.9404,-83.5 445.9404,-55.5 327.6602,-55.5"/>
<text text-anchor="start" x="335.6602" y="-71.5" font-family="Helvetica,sans-Serif" font-size="10.00" fill="#000000">include/indigox/classes</text>
<text text-anchor="middle" x="386.8003" y="-61.5" font-family="Helvetica,sans-Serif" font-size="10.00" fill="#000000">/molecule_impl.hpp</text>
</a>
</g>
</g>
<!-- Node5&#45;&gt;Node6 -->
<g id="edge1" class="edge">
<title>Node5&#45;&gt;Node6</title>
<path fill="none" stroke="#191970" d="M485.8005,-116.1305C463.8733,-105.8025 436.9267,-93.1103 416.6858,-83.5765"/>
<polygon fill="#191970" stroke="#191970" points="484.3182,-119.3011 494.8563,-120.396 487.3011,-112.9684 484.3182,-119.3011"/>
</g>
<!-- Node7 -->
<g id="node3" class="node">
<title>Node7</title>
<g id="a_node3"><a xlink:href="angle_8cpp.html" target="_top" xlink:title="src/classes/angle.cpp">
<polygon fill="#ffffff" stroke="#000000" points="0,-.5 0,-18.5 111.6006,-18.5 111.6006,-.5 0,-.5"/>
<text text-anchor="middle" x="55.8003" y="-6.5" font-family="Helvetica,sans-Serif" font-size="10.00" fill="#000000">src/classes/angle.cpp</text>
</a>
</g>
</g>
<!-- Node5&#45;&gt;Node7 -->
<g id="edge10" class="edge">
<title>Node5&#45;&gt;Node7</title>
<path fill="none" stroke="#191970" d="M455.3486,-124.6134C401.0306,-116.1036 323.8978,-102.3024 257.8003,-84 190.077,-65.2474 112.8824,-33.8593 76.651,-18.5075"/>
<polygon fill="#191970" stroke="#191970" points="455.1399,-128.1226 465.5574,-126.1926 456.21,-121.2049 455.1399,-128.1226"/>
</g>
<!-- Node8 -->
<g id="node4" class="node">
<title>Node8</title>
<g id="a_node4"><a xlink:href="atom_8cpp.html" target="_top" xlink:title="src/classes/atom.cpp">
<polygon fill="#ffffff" stroke="#000000" points="129.1182,-.5 129.1182,-18.5 238.4824,-18.5 238.4824,-.5 129.1182,-.5"/>
<text text-anchor="middle" x="183.8003" y="-6.5" font-family="Helvetica,sans-Serif" font-size="10.00" fill="#000000">src/classes/atom.cpp</text>
</a>
</g>
</g>
<!-- Node5&#45;&gt;Node8 -->
<g id="edge12" class="edge">
<title>Node5&#45;&gt;Node8</title>
<path fill="none" stroke="#191970" d="M455.5567,-122.2802C414.9077,-113.9438 363.0038,-101.2637 318.8003,-84 271.922,-65.6916 221.0898,-34.0953 197.3928,-18.6016"/>
<polygon fill="#191970" stroke="#191970" points="454.8775,-125.7136 465.3713,-124.2538 456.2576,-118.851 454.8775,-125.7136"/>
</g>
<!-- Node11 -->
<g id="node7" class="node">
<title>Node11</title>
<g id="a_node7"><a xlink:href="molecule_8cpp.html" target="_top" xlink:title="src/classes/molecule.cpp">
<polygon fill="#ffffff" stroke="#000000" points="802.2241,-.5 802.2241,-18.5 929.3765,-18.5 929.3765,-.5 802.2241,-.5"/>
<text text-anchor="middle" x="865.8003" y="-6.5" font-family="Helvetica,sans-Serif" font-size="10.00" fill="#000000">src/classes/molecule.cpp</text>
</a>
</g>
</g>
<!-- Node5&#45;&gt;Node11 -->
<g id="edge13" class="edge">
<title>Node5&#45;&gt;Node11</title>
<path fill="none" stroke="#191970" d="M504.428,-112.4155C490.9806,-95.1277 478.2871,-71.3524 492.8003,-55 537.5172,-4.6162 726.9612,-27.4062 793.8003,-19 796.5524,-18.6539 799.3633,-18.2971 802.2025,-17.934"/>
<polygon fill="#191970" stroke="#191970" points="501.9002,-114.8506 510.974,-120.3201 507.2915,-110.3858 501.9002,-114.8506"/>
</g>
<!-- Node14 -->
<g id="node10" class="node">
<title>Node14</title>
<g id="a_node10"><a xlink:href="cherrypicker_8cpp.html" target="_top" xlink:title="src/algorithm/cherrypicker.cpp">
<polygon fill="#ffffff" stroke="#000000" points="501.3867,-60.5 501.3867,-78.5 650.2139,-78.5 650.2139,-60.5 501.3867,-60.5"/>
<text text-anchor="middle" x="575.8003" y="-66.5" font-family="Helvetica,sans-Serif" font-size="10.00" fill="#000000">src/algorithm/cherrypicker.cpp</text>
</a>
</g>
</g>
<!-- Node5&#45;&gt;Node14 -->
<g id="edge9" class="edge">
<title>Node5&#45;&gt;Node14</title>
<path fill="none" stroke="#191970" d="M542.1281,-112.4155C551.2069,-100.8445 561.8312,-87.3037 568.6805,-78.5743"/>
<polygon fill="#191970" stroke="#191970" points="539.2858,-110.368 535.8665,-120.396 544.793,-114.6891 539.2858,-110.368"/>
</g>
<!-- Node15 -->
<g id="node11" class="node">
<title>Node15</title>
<g id="a_node11"><a xlink:href="athenaeum_8cpp.html" target="_top" xlink:title="src/classes/athenaeum.cpp">
<polygon fill="#ffffff" stroke="#000000" points="668.2144,-60.5 668.2144,-78.5 805.3862,-78.5 805.3862,-60.5 668.2144,-60.5"/>
<text text-anchor="middle" x="736.8003" y="-66.5" font-family="Helvetica,sans-Serif" font-size="10.00" fill="#000000">src/classes/athenaeum.cpp</text>
</a>
</g>
</g>
<!-- Node5&#45;&gt;Node15 -->
<g id="edge11" class="edge">
<title>Node5&#45;&gt;Node15</title>
<path fill="none" stroke="#191970" d="M580.3276,-117.4751C621.0409,-104.9923 674.7135,-88.536 707.4414,-78.5016"/>
<polygon fill="#191970" stroke="#191970" points="579.0748,-114.1983 570.5401,-120.476 581.1268,-120.8908 579.0748,-114.1983"/>
</g>
<!-- Node16 -->
<g id="node12" class="node">
<title>Node16</title>
<g id="a_node12"><a xlink:href="parameterised_8cpp.html" target="_top" xlink:title="src/classes/parameterised.cpp">
<polygon fill="#ffffff" stroke="#000000" points="823.2734,-60.5 823.2734,-78.5 974.3271,-78.5 974.3271,-60.5 823.2734,-60.5"/>
<text text-anchor="middle" x="898.8003" y="-66.5" font-family="Helvetica,sans-Serif" font-size="10.00" fill="#000000">src/classes/parameterised.cpp</text>
</a>
</g>
</g>
<!-- Node5&#45;&gt;Node16 -->
<g id="edge14" class="edge">
<title>Node5&#45;&gt;Node16</title>
<path fill="none" stroke="#191970" d="M594.1057,-122.4549C667.2563,-109.7416 780.8911,-89.9922 846.7488,-78.5464"/>
<polygon fill="#191970" stroke="#191970" points="593.3147,-119.0399 584.0617,-124.2006 594.5134,-125.9365 593.3147,-119.0399"/>
</g>
<!-- Node17 -->
<g id="node13" class="node">
<title>Node17</title>
<g id="a_node13"><a xlink:href="main_8cpp.html" target="_top" xlink:title="src/main.cpp">
<polygon fill="#ffffff" stroke="#000000" points="992.458,-60.5 992.458,-78.5 1065.1426,-78.5 1065.1426,-60.5 992.458,-60.5"/>
<text text-anchor="middle" x="1028.8003" y="-66.5" font-family="Helvetica,sans-Serif" font-size="10.00" fill="#000000">src/main.cpp</text>
</a>
</g>
</g>
<!-- Node5&#45;&gt;Node17 -->
<g id="edge15" class="edge">
<title>Node5&#45;&gt;Node17</title>
<path fill="none" stroke="#191970" d="M594.2339,-131.2351C684.7378,-125.9857 847.5462,-113.134 983.8003,-84 990.3821,-82.5927 997.3645,-80.5992 1003.8155,-78.5395"/>
<polygon fill="#191970" stroke="#191970" points="593.8841,-127.7492 584.0978,-131.8087 594.2796,-134.738 593.8841,-127.7492"/>
</g>
<!-- Node6&#45;&gt;Node7 -->
<g id="edge2" class="edge">
<title>Node6&#45;&gt;Node7</title>
<path fill="none" stroke="#191970" d="M317.7096,-56.976C254.323,-45.486 161.9674,-28.7448 105.5516,-18.5184"/>
<polygon fill="#191970" stroke="#191970" points="317.1602,-60.4334 327.6241,-58.7732 318.4088,-53.5456 317.1602,-60.4334"/>
</g>
<!-- Node6&#45;&gt;Node8 -->
<g id="edge3" class="edge">
<title>Node6&#45;&gt;Node8</title>
<path fill="none" stroke="#191970" d="M329.4417,-52.5467C292.062,-41.4985 244.7629,-27.5185 214.3915,-18.5417"/>
<polygon fill="#191970" stroke="#191970" points="328.6238,-55.9546 339.2058,-55.4327 330.608,-49.2417 328.6238,-55.9546"/>
</g>
<!-- Node9 -->
<g id="node5" class="node">
<title>Node9</title>
<g id="a_node5"><a xlink:href="bond_8cpp.html" target="_top" xlink:title="src/classes/bond.cpp">
<polygon fill="#ffffff" stroke="#000000" points="675.1108,-.5 675.1108,-18.5 784.4897,-18.5 784.4897,-.5 675.1108,-.5"/>
<text text-anchor="middle" x="729.8003" y="-6.5" font-family="Helvetica,sans-Serif" font-size="10.00" fill="#000000">src/classes/bond.cpp</text>
</a>
</g>
</g>
<!-- Node6&#45;&gt;Node9 -->
<g id="edge4" class="edge">
<title>Node6&#45;&gt;Node9</title>
<path fill="none" stroke="#191970" d="M456.0148,-55.6995C457.2865,-55.463 458.5493,-55.2296 459.8003,-55 534.1407,-41.356 620.2909,-27.1084 674.9035,-18.2703"/>
<polygon fill="#191970" stroke="#191970" points="455.3123,-52.2702 446.1349,-57.5642 456.6106,-59.1488 455.3123,-52.2702"/>
</g>
<!-- Node10 -->
<g id="node6" class="node">
<title>Node10</title>
<g id="a_node6"><a xlink:href="dihedral_8cpp.html" target="_top" xlink:title="src/classes/dihedral.cpp">
<polygon fill="#ffffff" stroke="#000000" points="256.4434,-.5 256.4434,-18.5 379.1572,-18.5 379.1572,-.5 256.4434,-.5"/>
<text text-anchor="middle" x="317.8003" y="-6.5" font-family="Helvetica,sans-Serif" font-size="10.00" fill="#000000">src/classes/dihedral.cpp</text>
</a>
</g>
</g>
<!-- Node6&#45;&gt;Node10 -->
<g id="edge5" class="edge">
<title>Node6&#45;&gt;Node10</title>
<path fill="none" stroke="#191970" d="M362.6595,-48.508C350.8895,-38.2733 337.3465,-26.4967 328.2471,-18.5842"/>
<polygon fill="#191970" stroke="#191970" points="360.6055,-51.3601 370.4483,-55.2808 365.1988,-46.0779 360.6055,-51.3601"/>
</g>
<!-- Node6&#45;&gt;Node11 -->
<g id="edge6" class="edge">
<title>Node6&#45;&gt;Node11</title>
<path fill="none" stroke="#191970" d="M455.9973,-55.5959C457.2744,-55.3911 458.543,-55.1922 459.8003,-55 607.3893,-32.4338 645.5569,-36.7666 793.8003,-19 796.5544,-18.6699 799.3669,-18.3264 802.2074,-17.9742"/>
<polygon fill="#191970" stroke="#191970" points="455.3638,-52.1532 446.0849,-57.2672 456.5277,-59.0558 455.3638,-52.1532"/>
</g>
<!-- Node12 -->
<g id="node8" class="node">
<title>Node12</title>
<g id="a_node8"><a xlink:href="residue_8cpp.html" target="_top" xlink:title="src/classes/residue.cpp">
<polygon fill="#ffffff" stroke="#000000" points="396.835,-.5 396.835,-18.5 516.7656,-18.5 516.7656,-.5 396.835,-.5"/>
<text text-anchor="middle" x="456.8003" y="-6.5" font-family="Helvetica,sans-Serif" font-size="10.00" fill="#000000">src/classes/residue.cpp</text>
</a>
</g>
</g>
<!-- Node6&#45;&gt;Node12 -->
<g id="edge7" class="edge">
<title>Node6&#45;&gt;Node12</title>
<path fill="none" stroke="#191970" d="M411.291,-48.508C423.2315,-38.2733 436.9708,-26.4967 446.2021,-18.5842"/>
<polygon fill="#191970" stroke="#191970" points="408.7041,-46.1155 403.3893,-55.2808 413.2597,-51.4303 408.7041,-46.1155"/>
</g>
<!-- Node13 -->
<g id="node9" class="node">
<title>Node13</title>
<g id="a_node9"><a xlink:href="molecular_8cpp.html" target="_top" xlink:title="src/graph/molecular.cpp">
<polygon fill="#ffffff" stroke="#000000" points="534.7168,-.5 534.7168,-18.5 656.8838,-18.5 656.8838,-.5 534.7168,-.5"/>
<text text-anchor="middle" x="595.8003" y="-6.5" font-family="Helvetica,sans-Serif" font-size="10.00" fill="#000000">src/graph/molecular.cpp</text>
</a>
</g>
</g>
<!-- Node6&#45;&gt;Node13 -->
<g id="edge8" class="edge">
<title>Node6&#45;&gt;Node13</title>
<path fill="none" stroke="#191970" d="M445.8542,-52.5467C484.3387,-41.4985 533.0358,-27.5185 564.3049,-18.5417"/>
<polygon fill="#191970" stroke="#191970" points="444.4475,-49.3091 435.8015,-55.4327 446.3791,-56.0374 444.4475,-49.3091"/>
</g>
</g>
</svg>
