<?xml version="1.0" encoding="UTF-8" standalone="no"?>
<!DOCTYPE svg PUBLIC "-//W3C//DTD SVG 1.1//EN"
 "http://www.w3.org/Graphics/SVG/1.1/DTD/svg11.dtd">
<!-- Generated by graphviz version 2.40.1 (20161225.0304)
 -->
<!-- Title: include/indigox/algorithm/electron_assignment/assigner.hpp Pages: 1 -->
<svg width="526pt" height="177pt"
 viewBox="0.00 0.00 525.58 177.00" xmlns="http://www.w3.org/2000/svg" xmlns:xlink="http://www.w3.org/1999/xlink">
<g id="graph0" class="graph" transform="scale(1 1) rotate(0) translate(4 173)">
<title>include/indigox/algorithm/electron_assignment/assigner.hpp</title>
<polygon fill="#ffffff" stroke="transparent" points="-4,4 -4,-173 521.5806,-173 521.5806,4 -4,4"/>
<!-- Node46 -->
<g id="node1" class="node">
<title>Node46</title>
<polygon fill="#bfbfbf" stroke="#000000" points="152.542,-140.5 152.542,-168.5 323.0879,-168.5 323.0879,-140.5 152.542,-140.5"/>
<text text-anchor="start" x="160.542" y="-156.5" font-family="Helvetica,sans-Serif" font-size="10.00" fill="#000000">include/indigox/algorithm</text>
<text text-anchor="middle" x="237.8149" y="-146.5" font-family="Helvetica,sans-Serif" font-size="10.00" fill="#000000">/electron_assignment/assigner.hpp</text>
</g>
<!-- Node47 -->
<g id="node2" class="node">
<title>Node47</title>
<g id="a_node2"><a xlink:href="astar__optimisation_8hpp.html" target="_top" xlink:title="include/indigox/algorithm\l/electron_assignment/astar\l_optimisation.hpp">
<polygon fill="#ffffff" stroke="#000000" points="265.7832,-65.5 265.7832,-103.5 401.8467,-103.5 401.8467,-65.5 265.7832,-65.5"/>
<text text-anchor="start" x="273.7832" y="-91.5" font-family="Helvetica,sans-Serif" font-size="10.00" fill="#000000">include/indigox/algorithm</text>
<text text-anchor="start" x="273.7832" y="-81.5" font-family="Helvetica,sans-Serif" font-size="10.00" fill="#000000">/electron_assignment/astar</text>
<text text-anchor="middle" x="333.8149" y="-71.5" font-family="Helvetica,sans-Serif" font-size="10.00" fill="#000000">_optimisation.hpp</text>
</a>
</g>
</g>
<!-- Node46&#45;&gt;Node47 -->
<g id="edge1" class="edge">
<title>Node46&#45;&gt;Node47</title>
<path fill="none" stroke="#191970" d="M265.5113,-134.3047C278.7302,-124.6659 294.4678,-113.1906 307.5032,-103.6857"/>
<polygon fill="#191970" stroke="#191970" points="263.26,-131.6147 257.242,-140.3345 267.3842,-137.2707 263.26,-131.6147"/>
</g>
<!-- Node48 -->
<g id="node3" class="node">
<title>Node48</title>
<g id="a_node3"><a xlink:href="assigner_8cpp.html" target="_top" xlink:title="src/algorithm/electron\l_assignment/assigner.cpp">
<polygon fill="#ffffff" stroke="#000000" points="0,-.5 0,-28.5 131.6299,-28.5 131.6299,-.5 0,-.5"/>
<text text-anchor="start" x="8" y="-16.5" font-family="Helvetica,sans-Serif" font-size="10.00" fill="#000000">src/algorithm/electron</text>
<text text-anchor="middle" x="65.8149" y="-6.5" font-family="Helvetica,sans-Serif" font-size="10.00" fill="#000000">_assignment/assigner.cpp</text>
</a>
</g>
</g>
<!-- Node46&#45;&gt;Node48 -->
<g id="edge7" class="edge">
<title>Node46&#45;&gt;Node48</title>
<path fill="none" stroke="#191970" d="M148.4079,-138.1723C112.6891,-129.68 77.4807,-118.1059 66.8149,-104 50.2266,-82.0611 56.0988,-47.6748 61.3027,-28.5412"/>
<polygon fill="#191970" stroke="#191970" points="147.9462,-141.6574 158.476,-140.4854 149.5136,-134.8351 147.9462,-141.6574"/>
</g>
<!-- Node49 -->
<g id="node4" class="node">
<title>Node49</title>
<g id="a_node4"><a xlink:href="astar__optimisation_8cpp.html" target="_top" xlink:title="src/algorithm/electron\l_assignment/astar_optimisation.cpp">
<polygon fill="#ffffff" stroke="#000000" points="342.0493,-.5 342.0493,-28.5 517.5806,-28.5 517.5806,-.5 342.0493,-.5"/>
<text text-anchor="start" x="350.0493" y="-16.5" font-family="Helvetica,sans-Serif" font-size="10.00" fill="#000000">src/algorithm/electron</text>
<text text-anchor="middle" x="429.8149" y="-6.5" font-family="Helvetica,sans-Serif" font-size="10.00" fill="#000000">_assignment/astar_optimisation.cpp</text>
</a>
</g>
</g>
<!-- Node46&#45;&gt;Node49 -->
<g id="edge8" class="edge">
<title>Node46&#45;&gt;Node49</title>
<path fill="none" stroke="#191970" d="M323.0918,-138.1872C360.2544,-129.4025 398.2147,-117.5803 410.8149,-104 430.0461,-83.2731 431.7196,-48.0999 430.9542,-28.5904"/>
<polygon fill="#191970" stroke="#191970" points="322.1286,-134.8173 313.1668,-140.4686 323.6968,-141.6394 322.1286,-134.8173"/>
</g>
<!-- Node50 -->
<g id="node5" class="node">
<title>Node50</title>
<g id="a_node5"><a xlink:href="local__optimisation_8hpp.html" target="_top" xlink:title="include/indigox/algorithm\l/electron_assignment/local\l_optimisation.hpp">
<polygon fill="#ffffff" stroke="#000000" points="75.6157,-65.5 75.6157,-103.5 210.0142,-103.5 210.0142,-65.5 75.6157,-65.5"/>
<text text-anchor="start" x="83.6157" y="-91.5" font-family="Helvetica,sans-Serif" font-size="10.00" fill="#000000">include/indigox/algorithm</text>
<text text-anchor="start" x="83.6157" y="-81.5" font-family="Helvetica,sans-Serif" font-size="10.00" fill="#000000">/electron_assignment/local</text>
<text text-anchor="middle" x="142.8149" y="-71.5" font-family="Helvetica,sans-Serif" font-size="10.00" fill="#000000">_optimisation.hpp</text>
</a>
</g>
</g>
<!-- Node46&#45;&gt;Node50 -->
<g id="edge4" class="edge">
<title>Node46&#45;&gt;Node50</title>
<path fill="none" stroke="#191970" d="M210.4071,-134.3047C197.3259,-124.6659 181.7522,-113.1906 168.8526,-103.6857"/>
<polygon fill="#191970" stroke="#191970" points="208.4635,-137.2201 218.5903,-140.3345 212.6159,-131.5847 208.4635,-137.2201"/>
</g>
<!-- Node51 -->
<g id="node6" class="node">
<title>Node51</title>
<g id="a_node6"><a xlink:href="local__optimisation_8cpp.html" target="_top" xlink:title="src/algorithm/electron\l_assignment/local_optimisation.cpp">
<polygon fill="#ffffff" stroke="#000000" points="149.8818,-.5 149.8818,-28.5 323.748,-28.5 323.748,-.5 149.8818,-.5"/>
<text text-anchor="start" x="157.8818" y="-16.5" font-family="Helvetica,sans-Serif" font-size="10.00" fill="#000000">src/algorithm/electron</text>
<text text-anchor="middle" x="236.8149" y="-6.5" font-family="Helvetica,sans-Serif" font-size="10.00" fill="#000000">_assignment/local_optimisation.cpp</text>
</a>
</g>
</g>
<!-- Node46&#45;&gt;Node51 -->
<g id="edge9" class="edge">
<title>Node46&#45;&gt;Node51</title>
<path fill="none" stroke="#191970" d="M237.6405,-130.0816C237.4311,-100.7574 237.0867,-52.551 236.9166,-28.732"/>
<polygon fill="#191970" stroke="#191970" points="234.1421,-130.3309 237.7136,-140.3056 241.1419,-130.2808 234.1421,-130.3309"/>
</g>
<!-- Node47&#45;&gt;Node48 -->
<g id="edge2" class="edge">
<title>Node47&#45;&gt;Node48</title>
<path fill="none" stroke="#191970" d="M255.755,-64.1112C212.0544,-52.6969 158.6795,-38.7557 119.6509,-28.5616"/>
<polygon fill="#191970" stroke="#191970" points="254.9339,-67.5141 265.4938,-66.6549 256.7029,-60.7413 254.9339,-67.5141"/>
</g>
<!-- Node47&#45;&gt;Node49 -->
<g id="edge3" class="edge">
<title>Node47&#45;&gt;Node49</title>
<path fill="none" stroke="#191970" d="M368.1458,-59.4671C382.3112,-49.1381 398.2094,-37.5457 410.3156,-28.7183"/>
<polygon fill="#191970" stroke="#191970" points="366.0653,-56.6524 360.0474,-65.3722 370.1896,-62.3085 366.0653,-56.6524"/>
</g>
<!-- Node50&#45;&gt;Node48 -->
<g id="edge5" class="edge">
<title>Node50&#45;&gt;Node48</title>
<path fill="none" stroke="#191970" d="M114.3737,-58.6443C103.3396,-48.6133 91.1201,-37.5047 81.6994,-28.9404"/>
<polygon fill="#191970" stroke="#191970" points="112.0206,-61.2352 121.7744,-65.3722 116.7293,-56.0556 112.0206,-61.2352"/>
</g>
<!-- Node50&#45;&gt;Node51 -->
<g id="edge6" class="edge">
<title>Node50&#45;&gt;Node51</title>
<path fill="none" stroke="#191970" d="M176.8199,-59.1772C190.5915,-48.9217 205.9787,-37.4632 217.7219,-28.7183"/>
<polygon fill="#191970" stroke="#191970" points="174.4309,-56.5923 168.5009,-65.3722 178.6117,-62.2066 174.4309,-56.5923"/>
</g>
</g>
</svg>
