<?xml version="1.0" encoding="UTF-8" standalone="no"?>
<!DOCTYPE svg PUBLIC "-//W3C//DTD SVG 1.1//EN"
 "http://www.w3.org/Graphics/SVG/1.1/DTD/svg11.dtd">
<!-- Generated by graphviz version 2.40.1 (20161225.0304)
 -->
<!-- Title: include/indigox/graph/assignment.hpp Pages: 1 -->
<svg width="2675pt" height="407pt"
 viewBox="0.00 0.00 2674.73 407.00" xmlns="http://www.w3.org/2000/svg" xmlns:xlink="http://www.w3.org/1999/xlink">
<g id="graph0" class="graph" transform="scale(1 1) rotate(0) translate(4 403)">
<title>include/indigox/graph/assignment.hpp</title>
<polygon fill="#ffffff" stroke="transparent" points="-4,4 -4,-403 2670.7266,-403 2670.7266,4 -4,4"/>
<!-- Node0 -->
<g id="node1" class="node">
<title>Node0</title>
<polygon fill="#bfbfbf" stroke="#000000" points="2433.7441,-370.5 2433.7441,-398.5 2544.2559,-398.5 2544.2559,-370.5 2433.7441,-370.5"/>
<text text-anchor="start" x="2441.7441" y="-386.5" font-family="Helvetica,sans-Serif" font-size="10.00" fill="#000000">include/indigox/graph</text>
<text text-anchor="middle" x="2489" y="-376.5" font-family="Helvetica,sans-Serif" font-size="10.00" fill="#000000">/assignment.hpp</text>
</g>
<!-- Node1 -->
<g id="node2" class="node">
<title>Node1</title>
<g id="a_node2"><a xlink:href="common_8hpp.html" target="_top" xlink:title="../utils/common.hpp">
<polygon fill="#ffffff" stroke="#000000" points="1949.6479,-125.5 1949.6479,-143.5 2052.3521,-143.5 2052.3521,-125.5 1949.6479,-125.5"/>
<text text-anchor="middle" x="2001" y="-131.5" font-family="Helvetica,sans-Serif" font-size="10.00" fill="#000000">../utils/common.hpp</text>
</a>
</g>
</g>
<!-- Node0&#45;&gt;Node1 -->
<g id="edge1" class="edge">
<title>Node0&#45;&gt;Node1</title>
<path fill="none" stroke="#191970" d="M2433.547,-380.1917C2341.6037,-372.5608 2161.7969,-355.4339 2102,-334 2058.5832,-318.4375 2042.6148,-315.1718 2014,-279 1987.3798,-245.3495 1988.2213,-227.74 1992,-185 1992.9245,-174.5434 1994.9057,-163.0096 1996.7746,-153.6075"/>
<polygon fill="#191970" stroke="#191970" points="2000.2164,-154.2477 1998.8467,-143.7418 1993.3659,-152.8088 2000.2164,-154.2477"/>
</g>
<!-- Node4 -->
<g id="node5" class="node">
<title>Node4</title>
<polygon fill="#ffffff" stroke="#bfbfbf" points="941.9434,-.5 941.9434,-18.5 994.0566,-18.5 994.0566,-.5 941.9434,-.5"/>
<text text-anchor="middle" x="968" y="-6.5" font-family="Helvetica,sans-Serif" font-size="10.00" fill="#000000">memory</text>
</g>
<!-- Node0&#45;&gt;Node4 -->
<g id="edge61" class="edge">
<title>Node0&#45;&gt;Node4</title>
<path fill="none" stroke="#191970" d="M2433.5239,-383.3196C2066.2757,-375.3289 0,-327.5679 0,-264.5 0,-264.5 0,-264.5 0,-134.5 0,-93.4538 11.8603,-76.213 47,-55 85.4726,-31.7749 765.1767,-14.2838 931.4995,-10.3389"/>
<polygon fill="#191970" stroke="#191970" points="931.7854,-13.8332 941.7002,-10.0987 931.6206,-6.8352 931.7854,-13.8332"/>
</g>
<!-- Node7 -->
<g id="node8" class="node">
<title>Node7</title>
<g id="a_node8"><a xlink:href="fwd__declares_8hpp.html" target="_top" xlink:title="../utils/fwd_declares.hpp">
<polygon fill="#ffffff" stroke="#000000" points="1836.3599,-60.5 1836.3599,-78.5 1959.6401,-78.5 1959.6401,-60.5 1836.3599,-60.5"/>
<text text-anchor="middle" x="1898" y="-66.5" font-family="Helvetica,sans-Serif" font-size="10.00" fill="#000000">../utils/fwd_declares.hpp</text>
</a>
</g>
</g>
<!-- Node0&#45;&gt;Node7 -->
<g id="edge7" class="edge">
<title>Node0&#45;&gt;Node7</title>
<path fill="none" stroke="#191970" d="M2433.6217,-379.9958C2277.6532,-366.5736 1846,-324.0477 1846,-264.5 1846,-264.5 1846,-264.5 1846,-199.5 1846,-156.7957 1870.4887,-111.4811 1885.8555,-87.2499"/>
<polygon fill="#191970" stroke="#191970" points="1888.8589,-89.0523 1891.4142,-78.7702 1883.0046,-85.2146 1888.8589,-89.0523"/>
</g>
<!-- Node8 -->
<g id="node9" class="node">
<title>Node8</title>
<polygon fill="#ffffff" stroke="#bfbfbf" points="2433.5493,-.5 2433.5493,-18.5 2478.4507,-18.5 2478.4507,-.5 2433.5493,-.5"/>
<text text-anchor="middle" x="2456" y="-6.5" font-family="Helvetica,sans-Serif" font-size="10.00" fill="#000000">cstdint</text>
</g>
<!-- Node0&#45;&gt;Node8 -->
<g id="edge58" class="edge">
<title>Node0&#45;&gt;Node8</title>
<path fill="none" stroke="#191970" d="M2517.4729,-370.3491C2551.2389,-351.3214 2603,-314.069 2603,-264.5 2603,-264.5 2603,-264.5 2603,-134.5 2603,-97.5917 2604.2885,-81.8834 2579,-55 2555.3456,-29.8537 2516.5614,-18.5334 2488.8686,-13.4827"/>
<polygon fill="#191970" stroke="#191970" points="2489.2877,-10.0047 2478.8528,-11.8381 2488.1535,-16.9122 2489.2877,-10.0047"/>
</g>
<!-- Node9 -->
<g id="node10" class="node">
<title>Node9</title>
<g id="a_node10"><a xlink:href="base__graph_8hpp.html" target="_top" xlink:title="base_graph.hpp">
<polygon fill="#ffffff" stroke="#000000" points="2110.8574,-315.5 2110.8574,-333.5 2199.1426,-333.5 2199.1426,-315.5 2110.8574,-315.5"/>
<text text-anchor="middle" x="2155" y="-321.5" font-family="Helvetica,sans-Serif" font-size="10.00" fill="#000000">base_graph.hpp</text>
</a>
</g>
</g>
<!-- Node0&#45;&gt;Node9 -->
<g id="edge10" class="edge">
<title>Node0&#45;&gt;Node9</title>
<path fill="none" stroke="#191970" d="M2433.4718,-374.5249C2371.1809,-363.3349 2270.8104,-345.3043 2209.1063,-334.2197"/>
<polygon fill="#191970" stroke="#191970" points="2209.6352,-330.7588 2199.1739,-332.4354 2208.3974,-337.6485 2209.6352,-330.7588"/>
</g>
<!-- Node11 -->
<g id="node12" class="node">
<title>Node11</title>
<polygon fill="#ffffff" stroke="#bfbfbf" points="2349.478,-190.5 2349.478,-208.5 2460.522,-208.5 2460.522,-190.5 2349.478,-190.5"/>
<text text-anchor="middle" x="2405" y="-196.5" font-family="Helvetica,sans-Serif" font-size="10.00" fill="#000000">EASTL/vector_map.h</text>
</g>
<!-- Node0&#45;&gt;Node11 -->
<g id="edge57" class="edge">
<title>Node0&#45;&gt;Node11</title>
<path fill="none" stroke="#191970" d="M2483.4239,-370.1772C2473.6646,-345.3893 2452.5631,-293.0165 2432,-250 2426.781,-239.0823 2420.4211,-227.1302 2415.1851,-217.5955"/>
<polygon fill="#191970" stroke="#191970" points="2418.1471,-215.7201 2410.2303,-208.679 2412.0283,-219.1202 2418.1471,-215.7201"/>
</g>
<!-- Node13 -->
<g id="node14" class="node">
<title>Node13</title>
<polygon fill="#ffffff" stroke="#bfbfbf" points="2384.3843,-60.5 2384.3843,-78.5 2427.6157,-78.5 2427.6157,-60.5 2384.3843,-60.5"/>
<text text-anchor="middle" x="2406" y="-66.5" font-family="Helvetica,sans-Serif" font-size="10.00" fill="#000000">vector</text>
</g>
<!-- Node0&#45;&gt;Node13 -->
<g id="edge62" class="edge">
<title>Node0&#45;&gt;Node13</title>
<path fill="none" stroke="#191970" d="M2492.3709,-370.2948C2499.9146,-334.7338 2514.2165,-240.7424 2470,-185 2438.8185,-145.6904 2392.2808,-189.7451 2363,-149 2348.1503,-128.3361 2369.3681,-101.951 2386.9179,-85.3846"/>
<polygon fill="#191970" stroke="#191970" points="2389.4678,-87.7994 2394.5804,-78.5198 2384.7968,-82.5857 2389.4678,-87.7994"/>
</g>
<!-- Node16 -->
<g id="node17" class="node">
<title>Node16</title>
<polygon fill="#ffffff" stroke="#bfbfbf" points="2531.6133,-60.5 2531.6133,-78.5 2570.3867,-78.5 2570.3867,-60.5 2531.6133,-60.5"/>
<text text-anchor="middle" x="2551" y="-66.5" font-family="Helvetica,sans-Serif" font-size="10.00" fill="#000000">limits</text>
</g>
<!-- Node0&#45;&gt;Node16 -->
<g id="edge59" class="edge">
<title>Node0&#45;&gt;Node16</title>
<path fill="none" stroke="#191970" d="M2507.509,-370.3003C2518.5415,-361.0068 2532.0882,-348.0185 2541,-334 2558.5317,-306.4221 2565,-297.1788 2565,-264.5 2565,-264.5 2565,-264.5 2565,-199.5 2565,-159.9329 2558.5097,-113.9793 2554.3673,-88.679"/>
<polygon fill="#191970" stroke="#191970" points="2557.7819,-87.8801 2552.661,-78.6051 2550.8802,-89.0492 2557.7819,-87.8801"/>
</g>
<!-- Node38 -->
<g id="node39" class="node">
<title>Node38</title>
<polygon fill="#ffffff" stroke="#bfbfbf" points="2631.2734,-315.5 2631.2734,-333.5 2666.7266,-333.5 2666.7266,-315.5 2631.2734,-315.5"/>
<text text-anchor="middle" x="2649" y="-321.5" font-family="Helvetica,sans-Serif" font-size="10.00" fill="#000000">map</text>
</g>
<!-- Node0&#45;&gt;Node38 -->
<g id="edge60" class="edge">
<title>Node0&#45;&gt;Node38</title>
<path fill="none" stroke="#191970" d="M2526.5129,-370.4327C2555.5417,-359.5469 2595.0846,-344.7183 2621.2962,-334.8889"/>
<polygon fill="#191970" stroke="#191970" points="2622.8396,-338.0482 2630.9739,-331.2598 2620.3817,-331.4939 2622.8396,-338.0482"/>
</g>
<!-- Node2 -->
<g id="node3" class="node">
<title>Node2</title>
<polygon fill="#ffffff" stroke="#bfbfbf" points="2140.436,-60.5 2140.436,-78.5 2197.564,-78.5 2197.564,-60.5 2140.436,-60.5"/>
<text text-anchor="middle" x="2169" y="-66.5" font-family="Helvetica,sans-Serif" font-size="10.00" fill="#000000">algorithm</text>
</g>
<!-- Node1&#45;&gt;Node2 -->
<g id="edge2" class="edge">
<title>Node1&#45;&gt;Node2</title>
<path fill="none" stroke="#191970" d="M2024.3597,-125.462C2053.3658,-114.2394 2103.0282,-95.0248 2135.9353,-82.2929"/>
<polygon fill="#191970" stroke="#191970" points="2137.5052,-85.4384 2145.5685,-78.5658 2134.9793,-78.91 2137.5052,-85.4384"/>
</g>
<!-- Node3 -->
<g id="node4" class="node">
<title>Node3</title>
<polygon fill="#ffffff" stroke="#bfbfbf" points="2016.4385,-60.5 2016.4385,-78.5 2063.5615,-78.5 2063.5615,-60.5 2016.4385,-60.5"/>
<text text-anchor="middle" x="2040" y="-66.5" font-family="Helvetica,sans-Serif" font-size="10.00" fill="#000000">iterator</text>
</g>
<!-- Node1&#45;&gt;Node3 -->
<g id="edge3" class="edge">
<title>Node1&#45;&gt;Node3</title>
<path fill="none" stroke="#191970" d="M2006.4228,-125.462C2012.2936,-115.6773 2021.8097,-99.8172 2029.2148,-87.4753"/>
<polygon fill="#191970" stroke="#191970" points="2032.2269,-89.2578 2034.3707,-78.8821 2026.2245,-85.6563 2032.2269,-89.2578"/>
</g>
<!-- Node1&#45;&gt;Node4 -->
<g id="edge4" class="edge">
<title>Node1&#45;&gt;Node4</title>
<path fill="none" stroke="#191970" d="M2000.3958,-125.4433C1998.7171,-108.3605 1992.4242,-71.6089 1969,-55 1928.907,-26.5721 1179.3485,-12.8748 1004.325,-10.0563"/>
<polygon fill="#191970" stroke="#191970" points="1004.1533,-6.5532 994.0988,-9.8936 1004.0419,-13.5524 1004.1533,-6.5532"/>
</g>
<!-- Node5 -->
<g id="node6" class="node">
<title>Node5</title>
<polygon fill="#ffffff" stroke="#bfbfbf" points="2081.7734,-60.5 2081.7734,-78.5 2122.2266,-78.5 2122.2266,-60.5 2081.7734,-60.5"/>
<text text-anchor="middle" x="2102" y="-66.5" font-family="Helvetica,sans-Serif" font-size="10.00" fill="#000000">string</text>
</g>
<!-- Node1&#45;&gt;Node5 -->
<g id="edge5" class="edge">
<title>Node1&#45;&gt;Node5</title>
<path fill="none" stroke="#191970" d="M2015.0436,-125.462C2031.6082,-114.8017 2059.3781,-96.9299 2079.0755,-84.2534"/>
<polygon fill="#191970" stroke="#191970" points="2081.2351,-87.0258 2087.7501,-78.6708 2077.4468,-81.1394 2081.2351,-87.0258"/>
</g>
<!-- Node6 -->
<g id="node7" class="node">
<title>Node6</title>
<polygon fill="#ffffff" stroke="#bfbfbf" points="1755.9336,-60.5 1755.9336,-78.5 1818.0664,-78.5 1818.0664,-60.5 1755.9336,-60.5"/>
<text text-anchor="middle" x="1787" y="-66.5" font-family="Helvetica,sans-Serif" font-size="10.00" fill="#000000">type_traits</text>
</g>
<!-- Node1&#45;&gt;Node6 -->
<g id="edge6" class="edge">
<title>Node1&#45;&gt;Node6</title>
<path fill="none" stroke="#191970" d="M1967.445,-125.4619C1932.2574,-115.8208 1875.4478,-99.793 1827,-84 1825.1038,-83.3819 1823.1627,-82.7329 1821.2071,-82.0663"/>
<polygon fill="#191970" stroke="#191970" points="1822.0458,-78.6517 1811.451,-78.6497 1819.7321,-85.2583 1822.0458,-78.6517"/>
</g>
<!-- Node7&#45;&gt;Node4 -->
<g id="edge9" class="edge">
<title>Node7&#45;&gt;Node4</title>
<path fill="none" stroke="#191970" d="M1859.1122,-60.4743C1848.7302,-58.3624 1837.4825,-56.3405 1827,-55 1664.0384,-34.1609 1146.6926,-15.5335 1004.4814,-10.7089"/>
<polygon fill="#191970" stroke="#191970" points="1004.2558,-7.1994 994.1435,-10.3601 1004.0197,-14.1954 1004.2558,-7.1994"/>
</g>
<!-- Node7&#45;&gt;Node8 -->
<g id="edge8" class="edge">
<title>Node7&#45;&gt;Node8</title>
<path fill="none" stroke="#191970" d="M1959.9242,-60.9207C1975.2946,-58.8855 1991.7367,-56.7881 2007,-55 2162.7584,-36.7525 2349.4304,-19.2246 2423.4598,-12.4458"/>
<polygon fill="#191970" stroke="#191970" points="2423.9073,-15.9196 2433.5477,-11.5249 2423.2709,-8.9486 2423.9073,-15.9196"/>
</g>
<!-- Node9&#45;&gt;Node4 -->
<g id="edge16" class="edge">
<title>Node9&#45;&gt;Node4</title>
<path fill="none" stroke="#191970" d="M2110.6807,-322.8843C1820.4928,-311.8641 199.1488,-243.3747 57,-84 48.4208,-74.3812 48.1164,-64.3384 57,-55 87.6387,-22.7928 765.5578,-12.0782 931.5604,-9.9327"/>
<polygon fill="#191970" stroke="#191970" points="931.7873,-13.4302 941.7421,-9.8036 931.6985,-6.4308 931.7873,-13.4302"/>
</g>
<!-- Node9&#45;&gt;Node7 -->
<g id="edge11" class="edge">
<title>Node9&#45;&gt;Node7</title>
<path fill="none" stroke="#191970" d="M2110.8573,-317.4598C2081.3541,-311.1107 2042.8162,-299.5066 2014,-279 1955.0479,-237.0476 1946.4462,-214.6383 1916,-149 1907.001,-129.5991 1902.3539,-105.3991 1900.0567,-88.8271"/>
<polygon fill="#191970" stroke="#191970" points="1903.5091,-88.2248 1898.8171,-78.7256 1896.5613,-89.0775 1903.5091,-88.2248"/>
</g>
<!-- Node9&#45;&gt;Node8 -->
<g id="edge15" class="edge">
<title>Node9&#45;&gt;Node8</title>
<path fill="none" stroke="#191970" d="M2199.362,-321.7751C2267.7737,-316.827 2395.0031,-304.4353 2432,-279 2512.5986,-223.5887 2477.9624,-80.0252 2462.2264,-28.3676"/>
<polygon fill="#191970" stroke="#191970" points="2465.4744,-27.0303 2459.1208,-18.552 2458.8005,-29.142 2465.4744,-27.0303"/>
</g>
<!-- Node10 -->
<g id="node11" class="node">
<title>Node10</title>
<g id="a_node11"><a xlink:href="simple__bimap_8hpp.html" target="_top" xlink:title="../utils/simple_bimap.hpp">
<polygon fill="#ffffff" stroke="#000000" points="2296.9731,-255.5 2296.9731,-273.5 2423.0269,-273.5 2423.0269,-255.5 2296.9731,-255.5"/>
<text text-anchor="middle" x="2360" y="-261.5" font-family="Helvetica,sans-Serif" font-size="10.00" fill="#000000">../utils/simple_bimap.hpp</text>
</a>
</g>
</g>
<!-- Node9&#45;&gt;Node10 -->
<g id="edge12" class="edge">
<title>Node9&#45;&gt;Node10</title>
<path fill="none" stroke="#191970" d="M2186.1351,-315.3873C2221.7865,-304.9527 2280.3047,-287.8255 2319.4805,-276.3594"/>
<polygon fill="#191970" stroke="#191970" points="2320.6294,-279.67 2329.2436,-273.5019 2318.663,-272.9518 2320.6294,-279.67"/>
</g>
<!-- Node12 -->
<g id="node13" class="node">
<title>Node12</title>
<polygon fill="#ffffff" stroke="#bfbfbf" points="2162.6875,-250.5 2162.6875,-278.5 2279.3125,-278.5 2279.3125,-250.5 2162.6875,-250.5"/>
<text text-anchor="start" x="2170.6875" y="-266.5" font-family="Helvetica,sans-Serif" font-size="10.00" fill="#000000">boost/graph/adjacency</text>
<text text-anchor="middle" x="2221" y="-256.5" font-family="Helvetica,sans-Serif" font-size="10.00" fill="#000000">_list.hpp</text>
</g>
<!-- Node9&#45;&gt;Node12 -->
<g id="edge14" class="edge">
<title>Node9&#45;&gt;Node12</title>
<path fill="none" stroke="#191970" d="M2165.024,-315.3873C2173.7553,-307.4497 2186.7467,-295.6394 2198.0164,-285.3942"/>
<polygon fill="#191970" stroke="#191970" points="2200.4248,-287.9348 2205.4699,-278.6183 2195.7161,-282.7552 2200.4248,-287.9348"/>
</g>
<!-- Node9&#45;&gt;Node13 -->
<g id="edge17" class="edge">
<title>Node9&#45;&gt;Node13</title>
<path fill="none" stroke="#191970" d="M2110.7433,-317.2273C2064.0089,-307.4609 2000.1338,-286.9112 2024,-250 2045.1703,-217.2583 2071.0599,-234.8601 2104,-214 2120.7796,-203.3739 2122.1036,-196.9069 2138,-185 2161.3831,-167.4853 2168.7554,-165.3012 2193,-149 2211.8247,-136.343 2214.4042,-129.5069 2235,-120 2291.3801,-93.9753 2311.0899,-103.6367 2370,-84 2371.67,-83.4433 2373.374,-82.8493 2375.0877,-82.2313"/>
<polygon fill="#191970" stroke="#191970" points="2376.7367,-85.3488 2384.8399,-78.5232 2374.2488,-78.8059 2376.7367,-85.3488"/>
</g>
<!-- Node14 -->
<g id="node15" class="node">
<title>Node14</title>
<g id="a_node15"><a xlink:href="base__graph__impl_8hpp.html" target="_top" xlink:title="base_graph_impl.hpp">
<polygon fill="#ffffff" stroke="#000000" points="2032.9092,-255.5 2032.9092,-273.5 2145.0908,-273.5 2145.0908,-255.5 2032.9092,-255.5"/>
<text text-anchor="middle" x="2089" y="-261.5" font-family="Helvetica,sans-Serif" font-size="10.00" fill="#000000">base_graph_impl.hpp</text>
</a>
</g>
</g>
<!-- Node9&#45;&gt;Node14 -->
<g id="edge18" class="edge">
<title>Node9&#45;&gt;Node14</title>
<path fill="none" stroke="#191970" d="M2144.976,-315.3873C2134.8,-306.1364 2118.8375,-291.625 2106.558,-280.4618"/>
<polygon fill="#191970" stroke="#191970" points="2108.8721,-277.8354 2099.1183,-273.6985 2104.1634,-283.015 2108.8721,-277.8354"/>
</g>
<!-- Node10&#45;&gt;Node11 -->
<g id="edge13" class="edge">
<title>Node10&#45;&gt;Node11</title>
<path fill="none" stroke="#191970" d="M2366.2571,-255.462C2373.0975,-245.5813 2384.2269,-229.5056 2392.8061,-217.1134"/>
<polygon fill="#191970" stroke="#191970" points="2395.6902,-219.0963 2398.5047,-208.8821 2389.9349,-215.1118 2395.6902,-219.0963"/>
</g>
<!-- Node14&#45;&gt;Node11 -->
<g id="edge54" class="edge">
<title>Node14&#45;&gt;Node11</title>
<path fill="none" stroke="#191970" d="M2128.8435,-255.4588C2137.1493,-253.6171 2145.8546,-251.7183 2154,-250 2234.2539,-233.0699 2254.6196,-230.3185 2335,-214 2340.3972,-212.9043 2346.0265,-211.7528 2351.6454,-210.5977"/>
<polygon fill="#191970" stroke="#191970" points="2352.6082,-213.9729 2361.6956,-208.526 2351.1949,-207.117 2352.6082,-213.9729"/>
</g>
<!-- Node14&#45;&gt;Node13 -->
<g id="edge56" class="edge">
<title>Node14&#45;&gt;Node13</title>
<path fill="none" stroke="#191970" d="M2097.9387,-255.3331C2113.5746,-239.6232 2147.3439,-207.1145 2180,-185 2245.4316,-140.6902 2330.1011,-101.7789 2374.9424,-82.4482"/>
<polygon fill="#191970" stroke="#191970" points="2376.3263,-85.663 2384.1465,-78.5148 2373.5755,-79.2261 2376.3263,-85.663"/>
</g>
<!-- Node15 -->
<g id="node16" class="node">
<title>Node15</title>
<g id="a_node16"><a xlink:href="connectivity_8hpp.html" target="_top" xlink:title="../algorithm/graph\l/connectivity.hpp">
<polygon fill="#ffffff" stroke="#000000" points="2372.0913,-120.5 2372.0913,-148.5 2465.9087,-148.5 2465.9087,-120.5 2372.0913,-120.5"/>
<text text-anchor="start" x="2380.0913" y="-136.5" font-family="Helvetica,sans-Serif" font-size="10.00" fill="#000000">../algorithm/graph</text>
<text text-anchor="middle" x="2419" y="-126.5" font-family="Helvetica,sans-Serif" font-size="10.00" fill="#000000">/connectivity.hpp</text>
</a>
</g>
</g>
<!-- Node14&#45;&gt;Node15 -->
<g id="edge19" class="edge">
<title>Node14&#45;&gt;Node15</title>
<path fill="none" stroke="#191970" d="M2129.1653,-255.4306C2188.6758,-241.9278 2294.1432,-217.7212 2302,-214 2321.2005,-204.9061 2322.5903,-197.1763 2340,-185 2355.2443,-174.3382 2372.6215,-163.1317 2387.1894,-153.9915"/>
<polygon fill="#191970" stroke="#191970" points="2389.2182,-156.8512 2395.8527,-148.5909 2385.515,-150.9109 2389.2182,-156.8512"/>
</g>
<!-- Node17 -->
<g id="node18" class="node">
<title>Node17</title>
<g id="a_node18"><a xlink:href="cycles_8hpp.html" target="_top" xlink:title="../algorithm/graph\l/cycles.hpp">
<polygon fill="#ffffff" stroke="#000000" points="2001.0913,-185.5 2001.0913,-213.5 2094.9087,-213.5 2094.9087,-185.5 2001.0913,-185.5"/>
<text text-anchor="start" x="2009.0913" y="-201.5" font-family="Helvetica,sans-Serif" font-size="10.00" fill="#000000">../algorithm/graph</text>
<text text-anchor="middle" x="2048" y="-191.5" font-family="Helvetica,sans-Serif" font-size="10.00" fill="#000000">/cycles.hpp</text>
</a>
</g>
</g>
<!-- Node14&#45;&gt;Node17 -->
<g id="edge24" class="edge">
<title>Node14&#45;&gt;Node17</title>
<path fill="none" stroke="#191970" d="M2083.2991,-255.462C2077.9516,-246.9843 2069.7274,-233.9459 2062.5623,-222.5866"/>
<polygon fill="#191970" stroke="#191970" points="2065.4137,-220.5466 2057.1183,-213.9559 2059.4931,-224.2811 2065.4137,-220.5466"/>
</g>
<!-- Node21 -->
<g id="node22" class="node">
<title>Node21</title>
<g id="a_node22"><a xlink:href="serialise_8hpp.html" target="_top" xlink:title="../utils/serialise.hpp">
<polygon fill="#ffffff" stroke="#000000" points="1115.4805,-125.5 1115.4805,-143.5 1216.5195,-143.5 1216.5195,-125.5 1115.4805,-125.5"/>
<text text-anchor="middle" x="1166" y="-131.5" font-family="Helvetica,sans-Serif" font-size="10.00" fill="#000000">../utils/serialise.hpp</text>
</a>
</g>
</g>
<!-- Node14&#45;&gt;Node21 -->
<g id="edge34" class="edge">
<title>Node14&#45;&gt;Node21</title>
<path fill="none" stroke="#191970" d="M2032.7654,-257.1711C1959.0654,-247.5194 1825.7964,-229.9057 1712,-214 1535.6701,-189.3537 1327.5693,-158.5885 1226.7816,-143.5816"/>
<polygon fill="#191970" stroke="#191970" points="1227.1894,-140.1038 1216.7828,-142.092 1226.1579,-147.0274 1227.1894,-140.1038"/>
</g>
<!-- Node35 -->
<g id="node36" class="node">
<title>Node35</title>
<g id="a_node36"><a xlink:href="triple_8hpp.html" target="_top" xlink:title="../utils/triple.hpp">
<polygon fill="#ffffff" stroke="#000000" points="1720.9829,-190.5 1720.9829,-208.5 1807.0171,-208.5 1807.0171,-190.5 1720.9829,-190.5"/>
<text text-anchor="middle" x="1764" y="-196.5" font-family="Helvetica,sans-Serif" font-size="10.00" fill="#000000">../utils/triple.hpp</text>
</a>
</g>
</g>
<!-- Node14&#45;&gt;Node35 -->
<g id="edge50" class="edge">
<title>Node14&#45;&gt;Node35</title>
<path fill="none" stroke="#191970" d="M2043.8101,-255.462C1984.4967,-243.5993 1880.5347,-222.8069 1817.4015,-210.1803"/>
<polygon fill="#191970" stroke="#191970" points="1817.7442,-206.6796 1807.252,-208.1504 1816.3713,-213.5437 1817.7442,-206.6796"/>
</g>
<!-- Node37 -->
<g id="node38" class="node">
<title>Node37</title>
<polygon fill="#ffffff" stroke="#bfbfbf" points="2188.5347,-190.5 2188.5347,-208.5 2293.4653,-208.5 2293.4653,-190.5 2188.5347,-190.5"/>
<text text-anchor="middle" x="2241" y="-196.5" font-family="Helvetica,sans-Serif" font-size="10.00" fill="#000000">EASTL/vector_set.h</text>
</g>
<!-- Node14&#45;&gt;Node37 -->
<g id="edge55" class="edge">
<title>Node14&#45;&gt;Node37</title>
<path fill="none" stroke="#191970" d="M2110.1349,-255.462C2136.079,-244.3675 2180.288,-225.4624 2210.059,-212.7313"/>
<polygon fill="#191970" stroke="#191970" points="2211.7361,-215.8208 2219.5545,-208.6708 2208.9838,-209.3846 2211.7361,-215.8208"/>
</g>
<!-- Node15&#45;&gt;Node7 -->
<g id="edge20" class="edge">
<title>Node15&#45;&gt;Node7</title>
<path fill="none" stroke="#191970" d="M2372.0218,-128.9012C2295.5122,-119.7469 2139.2412,-100.9 2007,-84 1995.0169,-82.4686 1982.2977,-80.8083 1969.9385,-79.1764"/>
<polygon fill="#191970" stroke="#191970" points="1970.0386,-75.6591 1959.6656,-77.8157 1969.1194,-82.5985 1970.0386,-75.6591"/>
</g>
<!-- Node15&#45;&gt;Node8 -->
<g id="edge21" class="edge">
<title>Node15&#45;&gt;Node8</title>
<path fill="none" stroke="#191970" d="M2424.3964,-120.4677C2428.1714,-110.3985 2433.1983,-96.4638 2437,-84 2442.6479,-65.4834 2447.9945,-44.036 2451.5685,-28.9216"/>
<polygon fill="#191970" stroke="#191970" points="2455.0775,-29.2841 2453.9317,-18.7515 2448.2591,-27.6998 2455.0775,-29.2841"/>
</g>
<!-- Node15&#45;&gt;Node13 -->
<g id="edge23" class="edge">
<title>Node15&#45;&gt;Node13</title>
<path fill="none" stroke="#191970" d="M2416.1792,-120.396C2414.3146,-111.0732 2411.8478,-98.739 2409.8096,-88.5479"/>
<polygon fill="#191970" stroke="#191970" points="2413.2081,-87.6937 2407.8149,-78.5743 2406.3441,-89.0665 2413.2081,-87.6937"/>
</g>
<!-- Node15&#45;&gt;Node16 -->
<g id="edge22" class="edge">
<title>Node15&#45;&gt;Node16</title>
<path fill="none" stroke="#191970" d="M2447.642,-120.396C2470.0992,-109.3375 2501.1605,-94.0422 2523.3571,-83.112"/>
<polygon fill="#191970" stroke="#191970" points="2525.1471,-86.132 2532.5722,-78.5743 2522.0547,-79.8521 2525.1471,-86.132"/>
</g>
<!-- Node17&#45;&gt;Node7 -->
<g id="edge25" class="edge">
<title>Node17&#45;&gt;Node7</title>
<path fill="none" stroke="#191970" d="M2002.5246,-185.4066C1981.8964,-177.2851 1958.3046,-165.3806 1941,-149 1923.0695,-132.0269 1910.9362,-105.8858 1904.2474,-88.2583"/>
<polygon fill="#191970" stroke="#191970" points="1907.438,-86.7849 1900.7831,-78.5409 1900.8445,-89.1356 1907.438,-86.7849"/>
</g>
<!-- Node18 -->
<g id="node19" class="node">
<title>Node18</title>
<g id="a_node19"><a xlink:href="numerics_8hpp.html" target="_top" xlink:title="../../utils/numerics.hpp">
<polygon fill="#ffffff" stroke="#000000" points="2070.3696,-125.5 2070.3696,-143.5 2183.6304,-143.5 2183.6304,-125.5 2070.3696,-125.5"/>
<text text-anchor="middle" x="2127" y="-131.5" font-family="Helvetica,sans-Serif" font-size="10.00" fill="#000000">../../utils/numerics.hpp</text>
</a>
</g>
</g>
<!-- Node17&#45;&gt;Node18 -->
<g id="edge26" class="edge">
<title>Node17&#45;&gt;Node18</title>
<path fill="none" stroke="#191970" d="M2065.1418,-185.396C2077.7986,-174.9822 2095.0219,-160.8111 2108.0808,-150.0664"/>
<polygon fill="#191970" stroke="#191970" points="2110.4729,-152.6307 2115.9712,-143.5743 2106.0253,-147.2252 2110.4729,-152.6307"/>
</g>
<!-- Node18&#45;&gt;Node2 -->
<g id="edge27" class="edge">
<title>Node18&#45;&gt;Node2</title>
<path fill="none" stroke="#191970" d="M2132.8399,-125.462C2139.1624,-115.6773 2149.4104,-99.8172 2157.3852,-87.4753"/>
<polygon fill="#191970" stroke="#191970" points="2160.4502,-89.1808 2162.9377,-78.8821 2154.5708,-85.3818 2160.4502,-89.1808"/>
</g>
<!-- Node18&#45;&gt;Node3 -->
<g id="edge30" class="edge">
<title>Node18&#45;&gt;Node3</title>
<path fill="none" stroke="#191970" d="M2114.903,-125.462C2100.8282,-114.9464 2077.3616,-97.4138 2060.4416,-84.7725"/>
<polygon fill="#191970" stroke="#191970" points="2062.3806,-81.8522 2052.2747,-78.6708 2058.1909,-87.4599 2062.3806,-81.8522"/>
</g>
<!-- Node18&#45;&gt;Node5 -->
<g id="edge32" class="edge">
<title>Node18&#45;&gt;Node5</title>
<path fill="none" stroke="#191970" d="M2123.5239,-125.462C2119.8712,-115.9651 2114.0173,-100.7449 2109.3359,-88.5732"/>
<polygon fill="#191970" stroke="#191970" points="2112.4651,-86.9592 2105.6085,-78.8821 2105.9317,-89.4721 2112.4651,-86.9592"/>
</g>
<!-- Node18&#45;&gt;Node8 -->
<g id="edge29" class="edge">
<title>Node18&#45;&gt;Node8</title>
<path fill="none" stroke="#191970" d="M2168.454,-125.4983C2225.2137,-113.0253 2321.8463,-91.207 2337,-84 2356.1859,-74.8753 2357.2506,-66.6755 2375,-55 2392.5726,-43.4408 2413.2608,-31.8514 2429.3305,-23.2621"/>
<polygon fill="#191970" stroke="#191970" points="2430.9943,-26.3415 2438.1999,-18.5744 2427.7233,-20.1527 2430.9943,-26.3415"/>
</g>
<!-- Node18&#45;&gt;Node13 -->
<g id="edge33" class="edge">
<title>Node18&#45;&gt;Node13</title>
<path fill="none" stroke="#191970" d="M2171.0491,-125.4489C2239.7772,-111.3125 2365.2186,-85.4472 2370,-84 2371.8863,-83.4291 2373.8116,-82.7993 2375.7422,-82.1316"/>
<polygon fill="#191970" stroke="#191970" points="2377.138,-85.3467 2385.2853,-78.5738 2374.6926,-78.7877 2377.138,-85.3467"/>
</g>
<!-- Node19 -->
<g id="node20" class="node">
<title>Node19</title>
<polygon fill="#ffffff" stroke="#bfbfbf" points="2215.3843,-60.5 2215.3843,-78.5 2258.6157,-78.5 2258.6157,-60.5 2215.3843,-60.5"/>
<text text-anchor="middle" x="2237" y="-66.5" font-family="Helvetica,sans-Serif" font-size="10.00" fill="#000000">cmath</text>
</g>
<!-- Node18&#45;&gt;Node19 -->
<g id="edge28" class="edge">
<title>Node18&#45;&gt;Node19</title>
<path fill="none" stroke="#191970" d="M2142.295,-125.462C2160.4989,-114.7052 2191.1285,-96.6059 2212.613,-83.9105"/>
<polygon fill="#191970" stroke="#191970" points="2214.6516,-86.7713 2221.4803,-78.6708 2211.0904,-80.7448 2214.6516,-86.7713"/>
</g>
<!-- Node20 -->
<g id="node21" class="node">
<title>Node20</title>
<polygon fill="#ffffff" stroke="#bfbfbf" points="2276.2168,-60.5 2276.2168,-78.5 2327.7832,-78.5 2327.7832,-60.5 2276.2168,-60.5"/>
<text text-anchor="middle" x="2302" y="-66.5" font-family="Helvetica,sans-Serif" font-size="10.00" fill="#000000">numeric</text>
</g>
<!-- Node18&#45;&gt;Node20 -->
<g id="edge31" class="edge">
<title>Node18&#45;&gt;Node20</title>
<path fill="none" stroke="#191970" d="M2153.6814,-125.4714C2182.1664,-115.7098 2228.5393,-99.4653 2268,-84 2269.2099,-83.5258 2270.4411,-83.0359 2271.6827,-82.5358"/>
<polygon fill="#191970" stroke="#191970" points="2273.3186,-85.6468 2281.2225,-78.5914 2270.6439,-79.178 2273.3186,-85.6468"/>
</g>
<!-- Node21&#45;&gt;Node6 -->
<g id="edge49" class="edge">
<title>Node21&#45;&gt;Node6</title>
<path fill="none" stroke="#191970" d="M1216.5905,-131.801C1338.6044,-125.0181 1646.401,-106.2039 1747,-84 1749.8401,-83.3731 1752.7529,-82.5961 1755.6487,-81.7299"/>
<polygon fill="#191970" stroke="#191970" points="1756.9088,-84.9995 1765.299,-78.53 1754.7056,-78.3552 1756.9088,-84.9995"/>
</g>
<!-- Node21&#45;&gt;Node7 -->
<g id="edge35" class="edge">
<title>Node21&#45;&gt;Node7</title>
<path fill="none" stroke="#191970" d="M1216.8173,-132.787C1327.9474,-128.5665 1600.7424,-115.6201 1827,-84 1833.8645,-83.0407 1841.0628,-81.8227 1848.1333,-80.5018"/>
<polygon fill="#191970" stroke="#191970" points="1849.2014,-83.8596 1858.3471,-78.5111 1847.8622,-76.9888 1849.2014,-83.8596"/>
</g>
<!-- Node22 -->
<g id="node23" class="node">
<title>Node22</title>
<polygon fill="#ffffff" stroke="#bfbfbf" points="1117.6997,-60.5 1117.6997,-78.5 1214.3003,-78.5 1214.3003,-60.5 1117.6997,-60.5"/>
<text text-anchor="middle" x="1166" y="-66.5" font-family="Helvetica,sans-Serif" font-size="10.00" fill="#000000">cereal/access.hpp</text>
</g>
<!-- Node21&#45;&gt;Node22 -->
<g id="edge36" class="edge">
<title>Node21&#45;&gt;Node22</title>
<path fill="none" stroke="#191970" d="M1166,-125.462C1166,-116.061 1166,-101.0518 1166,-88.943"/>
<polygon fill="#191970" stroke="#191970" points="1169.5001,-88.8821 1166,-78.8821 1162.5001,-88.8822 1169.5001,-88.8821"/>
</g>
<!-- Node23 -->
<g id="node24" class="node">
<title>Node23</title>
<polygon fill="#ffffff" stroke="#bfbfbf" points="1232.0815,-60.5 1232.0815,-78.5 1355.9185,-78.5 1355.9185,-60.5 1232.0815,-60.5"/>
<text text-anchor="middle" x="1294" y="-66.5" font-family="Helvetica,sans-Serif" font-size="10.00" fill="#000000">cereal/archives/json.hpp</text>
</g>
<!-- Node21&#45;&gt;Node23 -->
<g id="edge37" class="edge">
<title>Node21&#45;&gt;Node23</title>
<path fill="none" stroke="#191970" d="M1183.7979,-125.462C1205.3605,-114.5122 1241.9055,-95.9542 1266.9573,-83.2326"/>
<polygon fill="#191970" stroke="#191970" points="1268.6092,-86.3193 1275.9407,-78.6708 1265.4397,-80.0779 1268.6092,-86.3193"/>
</g>
<!-- Node24 -->
<g id="node25" class="node">
<title>Node24</title>
<polygon fill="#ffffff" stroke="#bfbfbf" points="1373.9165,-55.5 1373.9165,-83.5 1496.0835,-83.5 1496.0835,-55.5 1373.9165,-55.5"/>
<text text-anchor="start" x="1381.9165" y="-71.5" font-family="Helvetica,sans-Serif" font-size="10.00" fill="#000000">cereal/archives/portable</text>
<text text-anchor="middle" x="1435" y="-61.5" font-family="Helvetica,sans-Serif" font-size="10.00" fill="#000000">_binary.hpp</text>
</g>
<!-- Node21&#45;&gt;Node24 -->
<g id="edge38" class="edge">
<title>Node21&#45;&gt;Node24</title>
<path fill="none" stroke="#191970" d="M1203.4033,-125.462C1245.6496,-115.2538 1315.2619,-98.433 1367.1562,-85.8935"/>
<polygon fill="#191970" stroke="#191970" points="1368.0589,-89.2762 1376.957,-83.5253 1366.4147,-82.472 1368.0589,-89.2762"/>
</g>
<!-- Node25 -->
<g id="node26" class="node">
<title>Node25</title>
<polygon fill="#ffffff" stroke="#bfbfbf" points="1513.6431,-60.5 1513.6431,-78.5 1606.3569,-78.5 1606.3569,-60.5 1513.6431,-60.5"/>
<text text-anchor="middle" x="1560" y="-66.5" font-family="Helvetica,sans-Serif" font-size="10.00" fill="#000000">cereal/cereal.hpp</text>
</g>
<!-- Node21&#45;&gt;Node25 -->
<g id="edge39" class="edge">
<title>Node21&#45;&gt;Node25</title>
<path fill="none" stroke="#191970" d="M1216.5606,-128.7293C1283.0768,-120.7362 1403.4404,-104.8861 1505,-84 1509.3617,-83.103 1513.8933,-82.0721 1518.3996,-80.9823"/>
<polygon fill="#191970" stroke="#191970" points="1519.3037,-84.364 1528.1487,-78.5316 1517.5971,-77.5752 1519.3037,-84.364"/>
</g>
<!-- Node26 -->
<g id="node27" class="node">
<title>Node26</title>
<polygon fill="#ffffff" stroke="#bfbfbf" points="1623.8984,-60.5 1623.8984,-78.5 1738.1016,-78.5 1738.1016,-60.5 1623.8984,-60.5"/>
<text text-anchor="middle" x="1681" y="-66.5" font-family="Helvetica,sans-Serif" font-size="10.00" fill="#000000">cereal/types/array.hpp</text>
</g>
<!-- Node21&#45;&gt;Node26 -->
<g id="edge40" class="edge">
<title>Node21&#45;&gt;Node26</title>
<path fill="none" stroke="#191970" d="M1216.7393,-130.5292C1300.1807,-123.6108 1471.444,-107.7759 1615,-84 1620.8575,-83.0299 1626.9785,-81.8766 1633.0298,-80.6506"/>
<polygon fill="#191970" stroke="#191970" points="1634.0221,-84.0186 1643.0892,-78.538 1632.5834,-77.1681 1634.0221,-84.0186"/>
</g>
<!-- Node27 -->
<g id="node28" class="node">
<title>Node27</title>
<polygon fill="#ffffff" stroke="#bfbfbf" points="65.9707,-60.5 65.9707,-78.5 182.0293,-78.5 182.0293,-60.5 65.9707,-60.5"/>
<text text-anchor="middle" x="124" y="-66.5" font-family="Helvetica,sans-Serif" font-size="10.00" fill="#000000">cereal/types/bitset.hpp</text>
</g>
<!-- Node21&#45;&gt;Node27 -->
<g id="edge41" class="edge">
<title>Node21&#45;&gt;Node27</title>
<path fill="none" stroke="#191970" d="M1115.3176,-132.9571C941.8207,-127.5058 372.4545,-108.1733 191,-84 184.3421,-83.113 177.3634,-81.9124 170.529,-80.5795"/>
<polygon fill="#191970" stroke="#191970" points="171.1732,-77.1389 160.6732,-78.5532 169.7634,-83.9954 171.1732,-77.1389"/>
</g>
<!-- Node28 -->
<g id="node29" class="node">
<title>Node28</title>
<polygon fill="#ffffff" stroke="#bfbfbf" points="200.1382,-55.5 200.1382,-83.5 307.8618,-83.5 307.8618,-55.5 200.1382,-55.5"/>
<text text-anchor="start" x="208.1382" y="-71.5" font-family="Helvetica,sans-Serif" font-size="10.00" fill="#000000">cereal/types/boost</text>
<text text-anchor="middle" x="254" y="-61.5" font-family="Helvetica,sans-Serif" font-size="10.00" fill="#000000">_dynamic_bitset.hpp</text>
</g>
<!-- Node21&#45;&gt;Node28 -->
<g id="edge42" class="edge">
<title>Node21&#45;&gt;Node28</title>
<path fill="none" stroke="#191970" d="M1115.3616,-132.5987C960.1244,-126.5984 491.4497,-107.1617 318.186,-83.9665"/>
<polygon fill="#191970" stroke="#191970" points="318.5749,-80.487 308.188,-82.5759 317.6105,-87.4202 318.5749,-80.487"/>
</g>
<!-- Node29 -->
<g id="node30" class="node">
<title>Node29</title>
<polygon fill="#ffffff" stroke="#bfbfbf" points="326.0913,-55.5 326.0913,-83.5 419.9087,-83.5 419.9087,-55.5 326.0913,-55.5"/>
<text text-anchor="start" x="334.0913" y="-71.5" font-family="Helvetica,sans-Serif" font-size="10.00" fill="#000000">cereal/types/eastl</text>
<text text-anchor="middle" x="373" y="-61.5" font-family="Helvetica,sans-Serif" font-size="10.00" fill="#000000">_bitset.hpp</text>
</g>
<!-- Node21&#45;&gt;Node29 -->
<g id="edge43" class="edge">
<title>Node21&#45;&gt;Node29</title>
<path fill="none" stroke="#191970" d="M1115.2689,-132.2488C974.4753,-125.8107 579.9514,-106.4315 429.8718,-83.8802"/>
<polygon fill="#191970" stroke="#191970" points="430.3411,-80.4111 419.9198,-82.3208 429.2574,-87.3267 430.3411,-80.4111"/>
</g>
<!-- Node30 -->
<g id="node31" class="node">
<title>Node30</title>
<polygon fill="#ffffff" stroke="#bfbfbf" points="437.6875,-60.5 437.6875,-78.5 554.3125,-78.5 554.3125,-60.5 437.6875,-60.5"/>
<text text-anchor="middle" x="496" y="-66.5" font-family="Helvetica,sans-Serif" font-size="10.00" fill="#000000">cereal/types/eigen.hpp</text>
</g>
<!-- Node21&#45;&gt;Node30 -->
<g id="edge44" class="edge">
<title>Node21&#45;&gt;Node30</title>
<path fill="none" stroke="#191970" d="M1115.3172,-132.4756C1011.3002,-127.8331 766.3847,-114.3938 563,-84 556.7432,-83.065 550.1961,-81.8931 543.7489,-80.623"/>
<polygon fill="#191970" stroke="#191970" points="544.2563,-77.1542 533.756,-78.5663 542.8451,-84.0105 544.2563,-77.1542"/>
</g>
<!-- Node31 -->
<g id="node32" class="node">
<title>Node31</title>
<polygon fill="#ffffff" stroke="#bfbfbf" points="572.1948,-60.5 572.1948,-78.5 683.8052,-78.5 683.8052,-60.5 572.1948,-60.5"/>
<text text-anchor="middle" x="628" y="-66.5" font-family="Helvetica,sans-Serif" font-size="10.00" fill="#000000">cereal/types/map.hpp</text>
</g>
<!-- Node21&#45;&gt;Node31 -->
<g id="edge45" class="edge">
<title>Node21&#45;&gt;Node31</title>
<path fill="none" stroke="#191970" d="M1115.3456,-130.9828C1028.5066,-124.5316 845.7958,-109.1166 693,-84 687.1529,-83.0389 681.0418,-81.8814 675.0068,-80.6448"/>
<polygon fill="#191970" stroke="#191970" points="675.492,-77.1697 664.9823,-78.5095 674.0337,-84.0161 675.492,-77.1697"/>
</g>
<!-- Node32 -->
<g id="node33" class="node">
<title>Node32</title>
<polygon fill="#ffffff" stroke="#bfbfbf" points="702.2334,-60.5 702.2334,-78.5 829.7666,-78.5 829.7666,-60.5 702.2334,-60.5"/>
<text text-anchor="middle" x="766" y="-66.5" font-family="Helvetica,sans-Serif" font-size="10.00" fill="#000000">cereal/types/memory.hpp</text>
</g>
<!-- Node21&#45;&gt;Node32 -->
<g id="edge46" class="edge">
<title>Node21&#45;&gt;Node32</title>
<path fill="none" stroke="#191970" d="M1115.4727,-127.3825C1051.1303,-118.1616 936.5832,-101.2184 839,-84 832.8206,-82.9097 826.3587,-81.7112 819.9439,-80.4849"/>
<polygon fill="#191970" stroke="#191970" points="820.4331,-77.0146 809.9496,-78.5464 819.1002,-83.8865 820.4331,-77.0146"/>
</g>
<!-- Node33 -->
<g id="node34" class="node">
<title>Node33</title>
<polygon fill="#ffffff" stroke="#bfbfbf" points="847.8984,-60.5 847.8984,-78.5 962.1016,-78.5 962.1016,-60.5 847.8984,-60.5"/>
<text text-anchor="middle" x="905" y="-66.5" font-family="Helvetica,sans-Serif" font-size="10.00" fill="#000000">cereal/types/utility.hpp</text>
</g>
<!-- Node21&#45;&gt;Node33 -->
<g id="edge47" class="edge">
<title>Node21&#45;&gt;Node33</title>
<path fill="none" stroke="#191970" d="M1129.7091,-125.462C1083.0921,-113.8524 1002.1328,-93.6902 951.175,-80.9995"/>
<polygon fill="#191970" stroke="#191970" points="951.9519,-77.5862 941.4025,-78.5658 950.2603,-84.3787 951.9519,-77.5862"/>
</g>
<!-- Node34 -->
<g id="node35" class="node">
<title>Node34</title>
<polygon fill="#ffffff" stroke="#bfbfbf" points="980.5791,-60.5 980.5791,-78.5 1099.4209,-78.5 1099.4209,-60.5 980.5791,-60.5"/>
<text text-anchor="middle" x="1040" y="-66.5" font-family="Helvetica,sans-Serif" font-size="10.00" fill="#000000">cereal/types/vector.hpp</text>
</g>
<!-- Node21&#45;&gt;Node34 -->
<g id="edge48" class="edge">
<title>Node21&#45;&gt;Node34</title>
<path fill="none" stroke="#191970" d="M1148.4802,-125.462C1127.348,-114.5605 1091.5972,-96.1176 1066.9467,-83.4011"/>
<polygon fill="#191970" stroke="#191970" points="1068.2689,-80.1449 1057.7772,-78.6708 1065.0597,-86.3659 1068.2689,-80.1449"/>
</g>
<!-- Node35&#45;&gt;Node6 -->
<g id="edge51" class="edge">
<title>Node35&#45;&gt;Node6</title>
<path fill="none" stroke="#191970" d="M1764.1636,-190.1041C1764.5724,-175.132 1766.002,-144.9994 1771,-120 1773.1484,-109.254 1776.7632,-97.5708 1780.0139,-88.151"/>
<polygon fill="#191970" stroke="#191970" points="1783.3408,-89.2425 1783.4317,-78.648 1776.7538,-86.8734 1783.3408,-89.2425"/>
</g>
<!-- Node35&#45;&gt;Node21 -->
<g id="edge53" class="edge">
<title>Node35&#45;&gt;Node21</title>
<path fill="none" stroke="#191970" d="M1720.5116,-194.773C1615.5261,-183.3615 1347.9797,-154.2804 1227.0209,-141.1327"/>
<polygon fill="#191970" stroke="#191970" points="1227.1455,-137.6257 1216.8259,-140.0246 1226.3891,-144.5847 1227.1455,-137.6257"/>
</g>
<!-- Node36 -->
<g id="node37" class="node">
<title>Node36</title>
<polygon fill="#ffffff" stroke="#bfbfbf" points="1779.6084,-125.5 1779.6084,-143.5 1818.3916,-143.5 1818.3916,-125.5 1779.6084,-125.5"/>
<text text-anchor="middle" x="1799" y="-131.5" font-family="Helvetica,sans-Serif" font-size="10.00" fill="#000000">utility</text>
</g>
<!-- Node35&#45;&gt;Node36 -->
<g id="edge52" class="edge">
<title>Node35&#45;&gt;Node36</title>
<path fill="none" stroke="#191970" d="M1768.8666,-190.462C1774.0837,-180.7732 1782.5082,-165.1276 1789.125,-152.8393"/>
<polygon fill="#191970" stroke="#191970" points="1792.2887,-154.3462 1793.9481,-143.8821 1786.1254,-151.0275 1792.2887,-154.3462"/>
</g>
</g>
</svg>
