<?xml version="1.0" encoding="UTF-8" standalone="no"?>
<!DOCTYPE svg PUBLIC "-//W3C//DTD SVG 1.1//EN"
 "http://www.w3.org/Graphics/SVG/1.1/DTD/svg11.dtd">
<!-- Generated by graphviz version 2.40.1 (20161225.0304)
 -->
<!-- Title: include/indigox/graph/assignment.hpp Pages: 1 -->
<!--zoomable 242 -->
<svg id="main" version="1.1" xmlns="http://www.w3.org/2000/svg" xmlns:xlink="http://www.w3.org/1999/xlink" xml:space="preserve" onload="init(evt)">
<style type="text/css"><![CDATA[
.edge:hover path { stroke: red; }
.edge:hover polygon { stroke: red; fill: red; }
]]></style>
<script type="text/javascript"><![CDATA[
var edges = document.getElementsByTagName('g');
if (edges && edges.length) {
  for (var i=0;i<edges.length;i++) {
    if (edges[i].id.substr(0,4)=='edge') {
      edges[i].setAttribute('class','edge');
    }
  }
}
]]></script>
        <defs>
                <circle id="rim" cx="0" cy="0" r="7"/>
                <circle id="rim2" cx="0" cy="0" r="3.5"/>
                <g id="zoomPlus">
                        <use xlink:href="#rim" fill="#404040">
                                <set attributeName="fill" to="#808080" begin="zoomplus.mouseover" end="zoomplus.mouseout"/>
                        </use>
                        <path d="M-4,0h8M0,-4v8" fill="none" stroke="white" stroke-width="1.5" pointer-events="none"/>
                </g>
                <g id="zoomMin">
                        <use xlink:href="#rim" fill="#404040">
                                <set attributeName="fill" to="#808080" begin="zoomminus.mouseover" end="zoomminus.mouseout"/>
                        </use>
                        <path d="M-4,0h8" fill="none" stroke="white" stroke-width="1.5" pointer-events="none"/>
                </g>
                <g id="dirArrow">
                        <path fill="none" stroke="white" stroke-width="1.5" d="M0,-3.0v7 M-2.5,-0.5L0,-3.0L2.5,-0.5"/>
                </g>
               <g id="resetDef">
                       <use xlink:href="#rim2" fill="#404040">
                               <set attributeName="fill" to="#808080" begin="reset.mouseover" end="reset.mouseout"/>
                       </use>
               </g>
        </defs>

<script type="text/javascript">
var viewWidth = 680;
var viewHeight = 242;
var sectionId = 'dynsection-1';
</script>
<script xlink:href="svgpan.js"/>
<svg id="graph" class="graph">
<g id="viewport">
<title>include/indigox/graph/assignment.hpp</title>
<polygon fill="#ffffff" stroke="transparent" points="-4,4 -4,-238 676.0659,-238 676.0659,4 -4,4"/>
<!-- Node39 -->
<g id="node1" class="node">
<title>Node39</title>
<polygon fill="#bfbfbf" stroke="#000000" points="325.5591,-205.5 325.5591,-233.5 436.0708,-233.5 436.0708,-205.5 325.5591,-205.5"/>
<text text-anchor="start" x="333.5591" y="-221.5" font-family="Helvetica,sans-Serif" font-size="10.00" fill="#000000">include/indigox/graph</text>
<text text-anchor="middle" x="380.8149" y="-211.5" font-family="Helvetica,sans-Serif" font-size="10.00" fill="#000000">/assignment.hpp</text>
</g>
<!-- Node40 -->
<g id="node2" class="node">
<title>Node40</title>
<g id="a_node2"><a xlink:href="assigner_8hpp.html" target="_top" xlink:title="include/indigox/algorithm\l/electron_assignment/assigner.hpp">
<polygon fill="#ffffff" stroke="#000000" points="181.542,-140.5 181.542,-168.5 352.0879,-168.5 352.0879,-140.5 181.542,-140.5"/>
<text text-anchor="start" x="189.542" y="-156.5" font-family="Helvetica,sans-Serif" font-size="10.00" fill="#000000">include/indigox/algorithm</text>
<text text-anchor="middle" x="266.8149" y="-146.5" font-family="Helvetica,sans-Serif" font-size="10.00" fill="#000000">/electron_assignment/assigner.hpp</text>
</a>
</g>
</g>
<!-- Node39&#45;&gt;Node40 -->
<g id="edge1" class="edge">
<title>Node39&#45;&gt;Node40</title>
<path fill="none" stroke="#191970" d="M347.1334,-200.2956C329.2954,-190.1248 307.7759,-177.8549 291.503,-168.5765"/>
<polygon fill="#191970" stroke="#191970" points="345.6579,-203.4832 356.0786,-205.396 349.1251,-197.4022 345.6579,-203.4832"/>
</g>
<!-- Node41 -->
<g id="node3" class="node">
<title>Node41</title>
<g id="a_node3"><a xlink:href="astar__optimisation_8hpp.html" target="_top" xlink:title="include/indigox/algorithm\l/electron_assignment/astar\l_optimisation.hpp">
<polygon fill="#ffffff" stroke="#000000" points="83.7832,-65.5 83.7832,-103.5 219.8467,-103.5 219.8467,-65.5 83.7832,-65.5"/>
<text text-anchor="start" x="91.7832" y="-91.5" font-family="Helvetica,sans-Serif" font-size="10.00" fill="#000000">include/indigox/algorithm</text>
<text text-anchor="start" x="91.7832" y="-81.5" font-family="Helvetica,sans-Serif" font-size="10.00" fill="#000000">/electron_assignment/astar</text>
<text text-anchor="middle" x="151.8149" y="-71.5" font-family="Helvetica,sans-Serif" font-size="10.00" fill="#000000">_optimisation.hpp</text>
</a>
</g>
</g>
<!-- Node39&#45;&gt;Node41 -->
<g id="edge11" class="edge">
<title>Node39&#45;&gt;Node41</title>
<path fill="none" stroke="#191970" d="M315.3438,-211.0842C262.1578,-202.9333 192.8021,-188.8794 172.8149,-169 155.5594,-151.8375 151.7021,-122.8405 151.2155,-103.6827"/>
<polygon fill="#191970" stroke="#191970" points="315.0009,-214.5718 325.4081,-212.5866 316.0345,-207.6485 315.0009,-214.5718"/>
</g>
<!-- Node42 -->
<g id="node4" class="node">
<title>Node42</title>
<g id="a_node4"><a xlink:href="assigner_8cpp.html" target="_top" xlink:title="src/algorithm/electron\l_assignment/assigner.cpp">
<polygon fill="#ffffff" stroke="#000000" points="0,-.5 0,-28.5 131.6299,-28.5 131.6299,-.5 0,-.5"/>
<text text-anchor="start" x="8" y="-16.5" font-family="Helvetica,sans-Serif" font-size="10.00" fill="#000000">src/algorithm/electron</text>
<text text-anchor="middle" x="65.8149" y="-6.5" font-family="Helvetica,sans-Serif" font-size="10.00" fill="#000000">_assignment/assigner.cpp</text>
</a>
</g>
</g>
<!-- Node39&#45;&gt;Node42 -->
<g id="edge13" class="edge">
<title>Node39&#45;&gt;Node42</title>
<path fill="none" stroke="#191970" d="M315.4113,-211.6064C268.9335,-204.4215 205.7979,-191.4107 153.8149,-169 106.4981,-148.6009 81.9651,-149.5168 57.8149,-104 45.0927,-80.0218 53.3605,-47.2922 59.9624,-28.785"/>
<polygon fill="#191970" stroke="#191970" points="314.9544,-215.0769 325.3623,-213.0953 315.9903,-208.154 314.9544,-215.0769"/>
</g>
<!-- Node43 -->
<g id="node5" class="node">
<title>Node43</title>
<g id="a_node5"><a xlink:href="astar__optimisation_8cpp.html" target="_top" xlink:title="src/algorithm/electron\l_assignment/astar_optimisation.cpp">
<polygon fill="#ffffff" stroke="#000000" points="155.0493,-.5 155.0493,-28.5 330.5806,-28.5 330.5806,-.5 155.0493,-.5"/>
<text text-anchor="start" x="163.0493" y="-16.5" font-family="Helvetica,sans-Serif" font-size="10.00" fill="#000000">src/algorithm/electron</text>
<text text-anchor="middle" x="242.8149" y="-6.5" font-family="Helvetica,sans-Serif" font-size="10.00" fill="#000000">_assignment/astar_optimisation.cpp</text>
</a>
</g>
</g>
<!-- Node39&#45;&gt;Node43 -->
<g id="edge14" class="edge">
<title>Node39&#45;&gt;Node43</title>
<path fill="none" stroke="#191970" d="M405.4696,-198.1656C438.7685,-166.7803 490.3059,-107.3141 456.8149,-65 448.1974,-54.1122 380.2466,-39.2876 323.1916,-28.5184"/>
<polygon fill="#191970" stroke="#191970" points="402.8634,-195.8071 397.8659,-205.1493 407.5984,-200.9626 402.8634,-195.8071"/>
</g>
<!-- Node44 -->
<g id="node6" class="node">
<title>Node44</title>
<g id="a_node6"><a xlink:href="local__optimisation_8hpp.html" target="_top" xlink:title="include/indigox/algorithm\l/electron_assignment/local\l_optimisation.hpp">
<polygon fill="#ffffff" stroke="#000000" points="313.6157,-65.5 313.6157,-103.5 448.0142,-103.5 448.0142,-65.5 313.6157,-65.5"/>
<text text-anchor="start" x="321.6157" y="-91.5" font-family="Helvetica,sans-Serif" font-size="10.00" fill="#000000">include/indigox/algorithm</text>
<text text-anchor="start" x="321.6157" y="-81.5" font-family="Helvetica,sans-Serif" font-size="10.00" fill="#000000">/electron_assignment/local</text>
<text text-anchor="middle" x="380.8149" y="-71.5" font-family="Helvetica,sans-Serif" font-size="10.00" fill="#000000">_optimisation.hpp</text>
</a>
</g>
</g>
<!-- Node39&#45;&gt;Node44 -->
<g id="edge12" class="edge">
<title>Node39&#45;&gt;Node44</title>
<path fill="none" stroke="#191970" d="M380.8149,-195.069C380.8149,-168.8306 380.8149,-127.6826 380.8149,-103.6765"/>
<polygon fill="#191970" stroke="#191970" points="377.315,-195.3078 380.8149,-205.3078 384.315,-195.3078 377.315,-195.3078"/>
</g>
<!-- Node45 -->
<g id="node7" class="node">
<title>Node45</title>
<g id="a_node7"><a xlink:href="local__optimisation_8cpp.html" target="_top" xlink:title="src/algorithm/electron\l_assignment/local_optimisation.cpp">
<polygon fill="#ffffff" stroke="#000000" points="348.8818,-.5 348.8818,-28.5 522.748,-28.5 522.748,-.5 348.8818,-.5"/>
<text text-anchor="start" x="356.8818" y="-16.5" font-family="Helvetica,sans-Serif" font-size="10.00" fill="#000000">src/algorithm/electron</text>
<text text-anchor="middle" x="435.8149" y="-6.5" font-family="Helvetica,sans-Serif" font-size="10.00" fill="#000000">_assignment/local_optimisation.cpp</text>
</a>
</g>
</g>
<!-- Node39&#45;&gt;Node45 -->
<g id="edge15" class="edge">
<title>Node39&#45;&gt;Node45</title>
<path fill="none" stroke="#191970" d="M445.7239,-203.4655C462.9805,-195.9265 479.6312,-184.9418 489.8149,-169 514.6983,-130.0473 508.2158,-107.4017 489.8149,-65 483.3254,-50.046 469.9848,-37.5006 458.1879,-28.6544"/>
<polygon fill="#191970" stroke="#191970" points="444.0975,-200.3463 436.1118,-207.3089 446.6965,-206.846 444.0975,-200.3463"/>
</g>
<!-- Node46 -->
<g id="node8" class="node">
<title>Node46</title>
<g id="a_node8"><a xlink:href="assignment_8cpp.html" target="_top" xlink:title="src/graph/assignment.cpp">
<polygon fill="#ffffff" stroke="#000000" points="541.564,-145.5 541.564,-163.5 672.0659,-163.5 672.0659,-145.5 541.564,-145.5"/>
<text text-anchor="middle" x="606.8149" y="-151.5" font-family="Helvetica,sans-Serif" font-size="10.00" fill="#000000">src/graph/assignment.cpp</text>
</a>
</g>
</g>
<!-- Node39&#45;&gt;Node46 -->
<g id="edge16" class="edge">
<title>Node39&#45;&gt;Node46</title>
<path fill="none" stroke="#191970" d="M439.4593,-202.6333C482.9268,-190.1315 540.4806,-173.5785 575.5172,-163.5016"/>
<polygon fill="#191970" stroke="#191970" points="438.2183,-199.3482 429.5753,-205.476 440.1532,-206.0755 438.2183,-199.3482"/>
</g>
<!-- Node40&#45;&gt;Node41 -->
<g id="edge2" class="edge">
<title>Node40&#45;&gt;Node41</title>
<path fill="none" stroke="#191970" d="M234.9868,-135.1263C218.8818,-125.3233 199.3957,-113.4622 183.3342,-103.6857"/>
<polygon fill="#191970" stroke="#191970" points="233.1811,-138.1246 243.543,-140.3345 236.8208,-132.1452 233.1811,-138.1246"/>
</g>
<!-- Node40&#45;&gt;Node42 -->
<g id="edge8" class="edge">
<title>Node40&#45;&gt;Node42</title>
<path fill="none" stroke="#191970" d="M171.3835,-139.8339C130.038,-131.4543 88.0527,-119.4978 74.8149,-104 56.8622,-82.9823 59.4324,-48.2433 62.7283,-28.8044"/>
<polygon fill="#191970" stroke="#191970" points="170.813,-143.2886 181.2999,-141.7803 172.1613,-136.4197 170.813,-143.2886"/>
</g>
<!-- Node40&#45;&gt;Node43 -->
<g id="edge9" class="edge">
<title>Node40&#45;&gt;Node43</title>
<path fill="none" stroke="#191970" d="M262.6289,-130.0816C257.6019,-100.7574 249.338,-52.551 245.2547,-28.732"/>
<polygon fill="#191970" stroke="#191970" points="259.2422,-131.0408 264.3816,-140.3056 266.1416,-129.858 259.2422,-131.0408"/>
</g>
<!-- Node40&#45;&gt;Node44 -->
<g id="edge5" class="edge">
<title>Node40&#45;&gt;Node44</title>
<path fill="none" stroke="#191970" d="M298.8107,-134.8535C314.6887,-125.1038 333.7953,-113.3717 349.5697,-103.6857"/>
<polygon fill="#191970" stroke="#191970" points="296.5748,-132.1192 289.8845,-140.3345 300.2377,-138.0844 296.5748,-132.1192"/>
</g>
<!-- Node40&#45;&gt;Node45 -->
<g id="edge10" class="edge">
<title>Node40&#45;&gt;Node45</title>
<path fill="none" stroke="#191970" d="M271.5129,-130.5777C276.5781,-110.6302 286.5051,-82.7052 304.8149,-65 322.6876,-47.7175 347.1146,-36.1901 370.0355,-28.5752"/>
<polygon fill="#191970" stroke="#191970" points="268.072,-129.9231 269.2325,-140.4542 274.8926,-131.498 268.072,-129.9231"/>
</g>
<!-- Node41&#45;&gt;Node42 -->
<g id="edge3" class="edge">
<title>Node41&#45;&gt;Node42</title>
<path fill="none" stroke="#191970" d="M120.3471,-58.8866C107.8391,-48.7057 93.9255,-37.3807 83.2831,-28.7183"/>
<polygon fill="#191970" stroke="#191970" points="118.35,-61.7739 128.3151,-65.3722 122.7689,-56.345 118.35,-61.7739"/>
</g>
<!-- Node41&#45;&gt;Node43 -->
<g id="edge4" class="edge">
<title>Node41&#45;&gt;Node43</title>
<path fill="none" stroke="#191970" d="M184.7346,-59.1772C198.0667,-48.9217 212.9628,-37.4632 224.3312,-28.7183"/>
<polygon fill="#191970" stroke="#191970" points="182.4734,-56.5009 176.6811,-65.3722 186.7414,-62.0492 182.4734,-56.5009"/>
</g>
<!-- Node44&#45;&gt;Node42 -->
<g id="edge6" class="edge">
<title>Node44&#45;&gt;Node42</title>
<path fill="none" stroke="#191970" d="M303.4286,-67.303C249.7855,-55.3823 179.2443,-39.7065 128.9888,-28.5386"/>
<polygon fill="#191970" stroke="#191970" points="302.7184,-70.7305 313.2395,-69.4832 304.2369,-63.8972 302.7184,-70.7305"/>
</g>
<!-- Node44&#45;&gt;Node45 -->
<g id="edge7" class="edge">
<title>Node44&#45;&gt;Node45</title>
<path fill="none" stroke="#191970" d="M402.0431,-57.4823C409.6801,-47.7626 417.9987,-37.1753 424.4689,-28.9404"/>
<polygon fill="#191970" stroke="#191970" points="399.2701,-55.3466 395.8439,-65.3722 404.7743,-59.6714 399.2701,-55.3466"/>
</g>
</g>
</svg>
        <g id="navigator" transform="translate(0 0)" fill="#404254">
                <rect fill="#f2f5e9" fill-opacity="0.5" stroke="#606060" stroke-width=".5" x="0" y="0" width="60" height="60"/>
                <use id="zoomplus" xlink:href="#zoomPlus" x="17" y="9" onmousedown="handleZoom(evt,'in')"/>
                <use id="zoomminus" xlink:href="#zoomMin" x="42" y="9" onmousedown="handleZoom(evt,'out')"/>
                <use id="reset" xlink:href="#resetDef" x="30" y="36" onmousedown="handleReset()"/>
                <g id="arrowUp" xlink:href="#dirArrow" transform="translate(30 24)" onmousedown="handlePan(0,-1)">
                  <use xlink:href="#rim" fill="#404040">
                        <set attributeName="fill" to="#808080" begin="arrowUp.mouseover" end="arrowUp.mouseout"/>
                  </use>
                  <path fill="none" stroke="white" stroke-width="1.5" d="M0,-3.0v7 M-2.5,-0.5L0,-3.0L2.5,-0.5"/>
                </g>
                <g id="arrowRight" xlink:href="#dirArrow" transform="rotate(90) translate(36 -43)" onmousedown="handlePan(1,0)">
                  <use xlink:href="#rim" fill="#404040">
                        <set attributeName="fill" to="#808080" begin="arrowRight.mouseover" end="arrowRight.mouseout"/>
                  </use>
                  <path fill="none" stroke="white" stroke-width="1.5" d="M0,-3.0v7 M-2.5,-0.5L0,-3.0L2.5,-0.5"/>
                </g>
                <g id="arrowDown" xlink:href="#dirArrow" transform="rotate(180) translate(-30 -48)" onmousedown="handlePan(0,1)">
                  <use xlink:href="#rim" fill="#404040">
                        <set attributeName="fill" to="#808080" begin="arrowDown.mouseover" end="arrowDown.mouseout"/>
                  </use>
                  <path fill="none" stroke="white" stroke-width="1.5" d="M0,-3.0v7 M-2.5,-0.5L0,-3.0L2.5,-0.5"/>
                </g>
                <g id="arrowLeft" xlink:href="#dirArrow" transform="rotate(270) translate(-36 17)" onmousedown="handlePan(-1,0)">
                  <use xlink:href="#rim" fill="#404040">
                        <set attributeName="fill" to="#808080" begin="arrowLeft.mouseover" end="arrowLeft.mouseout"/>
                  </use>
                  <path fill="none" stroke="white" stroke-width="1.5" d="M0,-3.0v7 M-2.5,-0.5L0,-3.0L2.5,-0.5"/>
                </g>
        </g>
        <svg viewBox="0 0 15 15" width="100%" height="30px" preserveAspectRatio="xMaxYMin meet">
         <g id="arrow_out" transform="scale(0.3 0.3)">
          <a xlink:href="assignment_8hpp__dep__incl_org.svg" target="_base">
           <rect id="button" ry="5" rx="5" y="6" x="6" height="38" width="38"
                fill="#f2f5e9" fill-opacity="0.5" stroke="#606060" stroke-width="1.0"/>
           <path id="arrow"
             d="M 11.500037,31.436501 C 11.940474,20.09759 22.043105,11.32322 32.158766,21.979434 L 37.068811,17.246167 C 37.068811,17.246167 37.088388,32 37.088388,32 L 22.160133,31.978069 C 22.160133,31.978069 26.997745,27.140456 26.997745,27.140456 C 18.528582,18.264221 13.291696,25.230495 11.500037,31.436501 z"
             style="fill:#404040;"/>
          </a>
         </g>
        </svg>
</svg>
