<?xml version="1.0" encoding="UTF-8" standalone="no"?>
<!DOCTYPE svg PUBLIC "-//W3C//DTD SVG 1.1//EN"
 "http://www.w3.org/Graphics/SVG/1.1/DTD/svg11.dtd">
<!-- Generated by graphviz version 2.40.1 (20161225.0304)
 -->
<!-- Title: src/algorithm/electron_assignment/assigner.cpp Pages: 1 -->
<!--zoomable 592 -->
<svg id="main" version="1.1" xmlns="http://www.w3.org/2000/svg" xmlns:xlink="http://www.w3.org/1999/xlink" xml:space="preserve" onload="init(evt)">
<style type="text/css"><![CDATA[
.edge:hover path { stroke: red; }
.edge:hover polygon { stroke: red; fill: red; }
]]></style>
<script type="text/javascript"><![CDATA[
var edges = document.getElementsByTagName('g');
if (edges && edges.length) {
  for (var i=0;i<edges.length;i++) {
    if (edges[i].id.substr(0,4)=='edge') {
      edges[i].setAttribute('class','edge');
    }
  }
}
]]></script>
        <defs>
                <circle id="rim" cx="0" cy="0" r="7"/>
                <circle id="rim2" cx="0" cy="0" r="3.5"/>
                <g id="zoomPlus">
                        <use xlink:href="#rim" fill="#404040">
                                <set attributeName="fill" to="#808080" begin="zoomplus.mouseover" end="zoomplus.mouseout"/>
                        </use>
                        <path d="M-4,0h8M0,-4v8" fill="none" stroke="white" stroke-width="1.5" pointer-events="none"/>
                </g>
                <g id="zoomMin">
                        <use xlink:href="#rim" fill="#404040">
                                <set attributeName="fill" to="#808080" begin="zoomminus.mouseover" end="zoomminus.mouseout"/>
                        </use>
                        <path d="M-4,0h8" fill="none" stroke="white" stroke-width="1.5" pointer-events="none"/>
                </g>
                <g id="dirArrow">
                        <path fill="none" stroke="white" stroke-width="1.5" d="M0,-3.0v7 M-2.5,-0.5L0,-3.0L2.5,-0.5"/>
                </g>
               <g id="resetDef">
                       <use xlink:href="#rim2" fill="#404040">
                               <set attributeName="fill" to="#808080" begin="reset.mouseover" end="reset.mouseout"/>
                       </use>
               </g>
        </defs>

<script type="text/javascript">
var viewWidth = 2387;
var viewHeight = 592;
var sectionId = 'dynsection-0';
</script>
<script xlink:href="svgpan.js"/>
<svg id="graph" class="graph">
<g id="viewport">
<title>src/algorithm/electron_assignment/assigner.cpp</title>
<polygon fill="#ffffff" stroke="transparent" points="-4,4 -4,-588 2382.8338,-588 2382.8338,4 -4,4"/>
<!-- Node0 -->
<g id="node1" class="node">
<title>Node0</title>
<polygon fill="#bfbfbf" stroke="#000000" points="608.1851,-555.5 608.1851,-583.5 739.8149,-583.5 739.8149,-555.5 608.1851,-555.5"/>
<text text-anchor="start" x="616.1851" y="-571.5" font-family="Helvetica,sans-Serif" font-size="10.00" fill="#000000">src/algorithm/electron</text>
<text text-anchor="middle" x="674" y="-561.5" font-family="Helvetica,sans-Serif" font-size="10.00" fill="#000000">_assignment/assigner.cpp</text>
</g>
<!-- Node1 -->
<g id="node2" class="node">
<title>Node1</title>
<g id="a_node2"><a xlink:href="assigner_8hpp.html" target="_top" xlink:title="indigox/algorithm/electron\l_assignment/assigner.hpp">
<polygon fill="#ffffff" stroke="#000000" points="537.9043,-425.5 537.9043,-453.5 670.0957,-453.5 670.0957,-425.5 537.9043,-425.5"/>
<text text-anchor="start" x="545.9043" y="-441.5" font-family="Helvetica,sans-Serif" font-size="10.00" fill="#000000">indigox/algorithm/electron</text>
<text text-anchor="middle" x="604" y="-431.5" font-family="Helvetica,sans-Serif" font-size="10.00" fill="#000000">_assignment/assigner.hpp</text>
</a>
</g>
</g>
<!-- Node0&#45;&gt;Node1 -->
<g id="edge1" class="edge">
<title>Node0&#45;&gt;Node1</title>
<path fill="none" stroke="#191970" d="M666.3755,-555.3402C654.3832,-533.0687 630.9909,-489.6259 616.5095,-462.732"/>
<polygon fill="#191970" stroke="#191970" points="619.4378,-460.7876 611.6151,-453.6423 613.2745,-464.1064 619.4378,-460.7876"/>
</g>
<!-- Node2 -->
<g id="node3" class="node">
<title>Node2</title>
<g id="a_node3"><a xlink:href="periodictable_8hpp.html" target="_top" xlink:title="../../classes/periodictable.hpp">
<polygon fill="#ffffff" stroke="#000000" points="327.52,-245.5 327.52,-263.5 472.48,-263.5 472.48,-245.5 327.52,-245.5"/>
<text text-anchor="middle" x="400" y="-251.5" font-family="Helvetica,sans-Serif" font-size="10.00" fill="#000000">../../classes/periodictable.hpp</text>
</a>
</g>
</g>
<!-- Node0&#45;&gt;Node2 -->
<g id="edge98" class="edge">
<title>Node0&#45;&gt;Node2</title>
<path fill="none" stroke="#191970" d="M607.9217,-566.1022C531.8082,-560.8574 412.9828,-548.1541 380,-519 352.3463,-494.5563 356,-476.4083 356,-439.5 356,-439.5 356,-439.5 356,-374.5 356,-336.4214 375.7713,-295.4718 388.8071,-272.6109"/>
<polygon fill="#191970" stroke="#191970" points="391.9884,-274.1072 394.066,-263.7181 385.9631,-270.5441 391.9884,-274.1072"/>
</g>
<!-- Node3 -->
<g id="node4" class="node">
<title>Node3</title>
<g id="a_node4"><a xlink:href="common_8hpp.html" target="_top" xlink:title="../utils/common.hpp">
<polygon fill="#ffffff" stroke="#000000" points="531.6479,-120.5 531.6479,-138.5 634.3521,-138.5 634.3521,-120.5 531.6479,-120.5"/>
<text text-anchor="middle" x="583" y="-126.5" font-family="Helvetica,sans-Serif" font-size="10.00" fill="#000000">../utils/common.hpp</text>
</a>
</g>
</g>
<!-- Node0&#45;&gt;Node3 -->
<g id="edge111" class="edge">
<title>Node0&#45;&gt;Node3</title>
<path fill="none" stroke="#191970" d="M678.402,-555.2312C685.3306,-531.4714 698,-482.1886 698,-439.5 698,-439.5 698,-439.5 698,-254.5 698,-215.7128 688.0598,-203.7286 662,-175 649.4952,-161.2146 631.8093,-150.4932 616.3408,-142.9297"/>
<polygon fill="#191970" stroke="#191970" points="617.6068,-139.6589 607.0621,-138.6293 614.6632,-146.0099 617.6068,-139.6589"/>
</g>
<!-- Node4 -->
<g id="node5" class="node">
<title>Node4</title>
<polygon fill="#ffffff" stroke="#bfbfbf" points="290.436,-60.5 290.436,-78.5 347.564,-78.5 347.564,-60.5 290.436,-60.5"/>
<text text-anchor="middle" x="319" y="-66.5" font-family="Helvetica,sans-Serif" font-size="10.00" fill="#000000">algorithm</text>
</g>
<!-- Node0&#45;&gt;Node4 -->
<g id="edge117" class="edge">
<title>Node0&#45;&gt;Node4</title>
<path fill="none" stroke="#191970" d="M607.9592,-568.0789C454.025,-564.2314 80.9342,-551.6179 35,-519 3.5228,-496.6481 0,-478.106 0,-439.5 0,-439.5 0,-439.5 0,-314.5 0,-213.1596 37.3854,-180.0744 119,-120 144.4308,-101.281 229.7329,-84.3876 280.3512,-75.6875"/>
<polygon fill="#191970" stroke="#191970" points="281.0114,-79.1256 290.2883,-74.0081 279.8448,-72.2235 281.0114,-79.1256"/>
</g>
<!-- Node13 -->
<g id="node14" class="node">
<title>Node13</title>
<polygon fill="#ffffff" stroke="#bfbfbf" points="179.8276,-180.5 179.8276,-198.5 234.1724,-198.5 234.1724,-180.5 179.8276,-180.5"/>
<text text-anchor="middle" x="207" y="-186.5" font-family="Helvetica,sans-Serif" font-size="10.00" fill="#000000">iostream</text>
</g>
<!-- Node0&#45;&gt;Node13 -->
<g id="edge119" class="edge">
<title>Node0&#45;&gt;Node13</title>
<path fill="none" stroke="#191970" d="M607.9892,-566.4815C452.6215,-559.0586 75.481,-539.0554 57,-519 -34.1387,-420.0971 131.8742,-256.328 188.8334,-205.2264"/>
<polygon fill="#191970" stroke="#191970" points="191.2351,-207.7747 196.4024,-198.5254 186.595,-202.5336 191.2351,-207.7747"/>
</g>
<!-- Node14 -->
<g id="node15" class="node">
<title>Node14</title>
<g id="a_node15"><a xlink:href="assignment_8hpp.html" target="_top" xlink:title="../../graph/assignment.hpp">
<polygon fill="#ffffff" stroke="#000000" points="1610.1875,-365.5 1610.1875,-383.5 1741.8125,-383.5 1741.8125,-365.5 1610.1875,-365.5"/>
<text text-anchor="middle" x="1676" y="-371.5" font-family="Helvetica,sans-Serif" font-size="10.00" fill="#000000">../../graph/assignment.hpp</text>
</a>
</g>
</g>
<!-- Node0&#45;&gt;Node14 -->
<g id="edge99" class="edge">
<title>Node0&#45;&gt;Node14</title>
<path fill="none" stroke="#191970" d="M740.0004,-566.0191C872.9575,-558.6572 1168.7932,-540.4147 1268,-519 1414.7191,-487.3293 1580.8722,-417.1092 1646.8092,-387.7779"/>
<polygon fill="#191970" stroke="#191970" points="1648.4577,-390.8747 1656.1553,-383.5948 1645.598,-384.4855 1648.4577,-390.8747"/>
</g>
<!-- Node21 -->
<g id="node22" class="node">
<title>Node21</title>
<polygon fill="#ffffff" stroke="#bfbfbf" points="1545.6133,-120.5 1545.6133,-138.5 1584.3867,-138.5 1584.3867,-120.5 1545.6133,-120.5"/>
<text text-anchor="middle" x="1565" y="-126.5" font-family="Helvetica,sans-Serif" font-size="10.00" fill="#000000">limits</text>
</g>
<!-- Node0&#45;&gt;Node21 -->
<g id="edge120" class="edge">
<title>Node0&#45;&gt;Node21</title>
<path fill="none" stroke="#191970" d="M739.8894,-567.5182C997.409,-559.2884 1927.1103,-524.8737 2037,-454 2037.873,-453.437 2110.7342,-325.0042 2111,-324 2113.1606,-315.8367 2116.2459,-311.6173 2111,-305 1988.7771,-150.8244 1861.0207,-281.0716 1680,-204 1643.642,-188.5202 1606.0478,-161.7616 1584.13,-144.8791"/>
<polygon fill="#191970" stroke="#191970" points="1586.0388,-141.9284 1576.0076,-138.5187 1581.7231,-147.4397 1586.0388,-141.9284"/>
</g>
<!-- Node24 -->
<g id="node25" class="node">
<title>Node24</title>
<polygon fill="#ffffff" stroke="#bfbfbf" points="365.3843,-60.5 365.3843,-78.5 408.6157,-78.5 408.6157,-60.5 365.3843,-60.5"/>
<text text-anchor="middle" x="387" y="-66.5" font-family="Helvetica,sans-Serif" font-size="10.00" fill="#000000">cmath</text>
</g>
<!-- Node0&#45;&gt;Node24 -->
<g id="edge118" class="edge">
<title>Node0&#45;&gt;Node24</title>
<path fill="none" stroke="#191970" d="M608.0387,-564.5173C522.9171,-557.2717 380.1545,-542.1163 333,-519 278.8085,-492.434 283.4636,-460.9688 235,-425 208.7935,-405.55 190.8559,-414.9003 171,-389 150.21,-361.8812 152,-348.671 152,-314.5 152,-314.5 152,-314.5 152,-189.5 152,-178.8774 161.9613,-180.5804 171,-175 175.385,-172.2928 301.6539,-110.9271 359.0649,-83.0559"/>
<polygon fill="#191970" stroke="#191970" points="360.8327,-86.0883 368.3005,-78.5728 357.7759,-79.791 360.8327,-86.0883"/>
</g>
<!-- Node25 -->
<g id="node26" class="node">
<title>Node25</title>
<polygon fill="#ffffff" stroke="#bfbfbf" points="426.2168,-60.5 426.2168,-78.5 477.7832,-78.5 477.7832,-60.5 426.2168,-60.5"/>
<text text-anchor="middle" x="452" y="-66.5" font-family="Helvetica,sans-Serif" font-size="10.00" fill="#000000">numeric</text>
</g>
<!-- Node0&#45;&gt;Node25 -->
<g id="edge121" class="edge">
<title>Node0&#45;&gt;Node25</title>
<path fill="none" stroke="#191970" d="M608.0829,-563.2405C519.8997,-554.2412 372.5198,-536.7666 355,-519 292.7424,-455.8655 296.724,-188.52 353,-120 357.9021,-114.0314 395.4023,-95.7728 422.8045,-82.9333"/>
<polygon fill="#191970" stroke="#191970" points="424.4191,-86.0423 432.0058,-78.6468 421.4631,-79.697 424.4191,-86.0423"/>
</g>
<!-- Node42 -->
<g id="node37" class="node">
<title>Node42</title>
<polygon fill="#ffffff" stroke="#bfbfbf" points="527.5347,-180.5 527.5347,-198.5 632.4653,-198.5 632.4653,-180.5 527.5347,-180.5"/>
<text text-anchor="middle" x="580" y="-186.5" font-family="Helvetica,sans-Serif" font-size="10.00" fill="#000000">EASTL/vector_set.h</text>
</g>
<!-- Node0&#45;&gt;Node42 -->
<g id="edge116" class="edge">
<title>Node0&#45;&gt;Node42</title>
<path fill="none" stroke="#191970" d="M615.2655,-555.437C592.7225,-547.6895 568.0918,-536.0672 550,-519 526.7186,-497.0371 526.063,-485.2171 519,-454 498.0117,-361.2359 548.0284,-250.3449 570.1394,-207.5621"/>
<polygon fill="#191970" stroke="#191970" points="573.2824,-209.1057 574.8683,-198.6302 567.096,-205.8303 573.2824,-209.1057"/>
</g>
<!-- Node46 -->
<g id="node41" class="node">
<title>Node46</title>
<polygon fill="#ffffff" stroke="#bfbfbf" points="602.3301,-305.5 602.3301,-323.5 631.6699,-323.5 631.6699,-305.5 602.3301,-305.5"/>
<text text-anchor="middle" x="617" y="-311.5" font-family="Helvetica,sans-Serif" font-size="10.00" fill="#000000">set</text>
</g>
<!-- Node0&#45;&gt;Node46 -->
<g id="edge122" class="edge">
<title>Node0&#45;&gt;Node46</title>
<path fill="none" stroke="#191970" d="M643.0122,-555.3657C607.9125,-537.4336 552.5432,-502.8526 529,-454 505.9483,-406.1672 562.4611,-354.4381 595.37,-329.5532"/>
<polygon fill="#191970" stroke="#191970" points="597.5626,-332.2855 603.5533,-323.5469 593.4207,-326.6424 597.5626,-332.2855"/>
</g>
<!-- Node47 -->
<g id="node42" class="node">
<title>Node47</title>
<g id="a_node42"><a xlink:href="astar__optimisation_8hpp.html" target="_top" xlink:title="indigox/algorithm/electron\l_assignment/astar_optimisation.hpp">
<polygon fill="#ffffff" stroke="#000000" points="65.9536,-490.5 65.9536,-518.5 242.0464,-518.5 242.0464,-490.5 65.9536,-490.5"/>
<text text-anchor="start" x="73.9536" y="-506.5" font-family="Helvetica,sans-Serif" font-size="10.00" fill="#000000">indigox/algorithm/electron</text>
<text text-anchor="middle" x="154" y="-496.5" font-family="Helvetica,sans-Serif" font-size="10.00" fill="#000000">_assignment/astar_optimisation.hpp</text>
</a>
</g>
</g>
<!-- Node0&#45;&gt;Node47 -->
<g id="edge76" class="edge">
<title>Node0&#45;&gt;Node47</title>
<path fill="none" stroke="#191970" d="M608.0648,-561.9671C525.6486,-552.4516 380.292,-535.3407 256,-519 254.7282,-518.8328 253.4475,-518.6636 252.1596,-518.4926"/>
<polygon fill="#191970" stroke="#191970" points="252.544,-515.0129 242.1672,-517.1511 251.6126,-521.9506 252.544,-515.0129"/>
</g>
<!-- Node49 -->
<g id="node44" class="node">
<title>Node49</title>
<g id="a_node44"><a xlink:href="local__optimisation_8hpp.html" target="_top" xlink:title="indigox/algorithm/electron\l_assignment/local_optimisation.hpp">
<polygon fill="#ffffff" stroke="#000000" points="1084.7861,-490.5 1084.7861,-518.5 1259.2139,-518.5 1259.2139,-490.5 1084.7861,-490.5"/>
<text text-anchor="start" x="1092.7861" y="-506.5" font-family="Helvetica,sans-Serif" font-size="10.00" fill="#000000">indigox/algorithm/electron</text>
<text text-anchor="middle" x="1172" y="-496.5" font-family="Helvetica,sans-Serif" font-size="10.00" fill="#000000">_assignment/local_optimisation.hpp</text>
</a>
</g>
</g>
<!-- Node0&#45;&gt;Node49 -->
<g id="edge83" class="edge">
<title>Node0&#45;&gt;Node49</title>
<path fill="none" stroke="#191970" d="M739.8735,-560.902C825.4906,-549.7271 975.704,-530.121 1074.5307,-517.2219"/>
<polygon fill="#191970" stroke="#191970" points="1075.0634,-520.6821 1084.5263,-515.9172 1074.1574,-513.741 1075.0634,-520.6821"/>
</g>
<!-- Node50 -->
<g id="node45" class="node">
<title>Node50</title>
<g id="a_node45"><a xlink:href="molecule_8hpp.html" target="_top" xlink:title="indigox/classes/molecule.hpp">
<polygon fill="#ffffff" stroke="#000000" points="2099.9634,-365.5 2099.9634,-383.5 2246.0366,-383.5 2246.0366,-365.5 2099.9634,-365.5"/>
<text text-anchor="middle" x="2173" y="-371.5" font-family="Helvetica,sans-Serif" font-size="10.00" fill="#000000">indigox/classes/molecule.hpp</text>
</a>
</g>
</g>
<!-- Node0&#45;&gt;Node50 -->
<g id="edge91" class="edge">
<title>Node0&#45;&gt;Node50</title>
<path fill="none" stroke="#191970" d="M739.9136,-568.8831C1010.87,-566.1247 2027.4145,-553.5075 2086,-519 2133.3974,-491.0824 2158.0804,-426.3296 2167.8631,-393.833"/>
<polygon fill="#191970" stroke="#191970" points="2171.3482,-394.3729 2170.7148,-383.797 2164.6147,-392.4595 2171.3482,-394.3729"/>
</g>
<!-- Node52 -->
<g id="node47" class="node">
<title>Node52</title>
<g id="a_node47"><a xlink:href="molecular_8hpp.html" target="_top" xlink:title="indigox/graph/molecular.hpp">
<polygon fill="#ffffff" stroke="#000000" points="1007.4561,-365.5 1007.4561,-383.5 1148.5439,-383.5 1148.5439,-365.5 1007.4561,-365.5"/>
<text text-anchor="middle" x="1078" y="-371.5" font-family="Helvetica,sans-Serif" font-size="10.00" fill="#000000">indigox/graph/molecular.hpp</text>
</a>
</g>
</g>
<!-- Node0&#45;&gt;Node52 -->
<g id="edge100" class="edge">
<title>Node0&#45;&gt;Node52</title>
<path fill="none" stroke="#191970" d="M724.5858,-555.4668C754.619,-546.4569 793.1297,-533.7067 826,-519 914.7777,-479.2796 1012.8068,-417.4012 1055.7685,-389.2899"/>
<polygon fill="#191970" stroke="#191970" points="1057.8806,-392.0899 1064.3106,-383.6693 1054.0329,-386.2422 1057.8806,-392.0899"/>
</g>
<!-- Node53 -->
<g id="node48" class="node">
<title>Node53</title>
<polygon fill="#ffffff" stroke="#bfbfbf" points="839.5986,-305.5 839.5986,-323.5 898.4014,-323.5 898.4014,-305.5 839.5986,-305.5"/>
<text text-anchor="middle" x="869" y="-311.5" font-family="Helvetica,sans-Serif" font-size="10.00" fill="#000000">stdexcept</text>
</g>
<!-- Node0&#45;&gt;Node53 -->
<g id="edge123" class="edge">
<title>Node0&#45;&gt;Node53</title>
<path fill="none" stroke="#191970" d="M727.4269,-555.4985C748.5582,-547.6939 771.6519,-536.0134 788,-519 840.0161,-464.8674 859.9101,-373.2749 866.342,-333.6809"/>
<polygon fill="#191970" stroke="#191970" points="869.8376,-333.9724 867.8712,-323.5617 862.9162,-332.9264 869.8376,-333.9724"/>
</g>
<!-- Node54 -->
<g id="node49" class="node">
<title>Node54</title>
<g id="a_node49"><a xlink:href="filereader_8hpp.html" target="_top" xlink:title="Declaration of the FileReader class. ">
<polygon fill="#ffffff" stroke="#000000" points="652.1826,-120.5 652.1826,-138.5 783.8174,-138.5 783.8174,-120.5 652.1826,-120.5"/>
<text text-anchor="middle" x="718" y="-126.5" font-family="Helvetica,sans-Serif" font-size="10.00" fill="#000000">indigox/utils/filereader.hpp</text>
</a>
</g>
</g>
<!-- Node0&#45;&gt;Node54 -->
<g id="edge112" class="edge">
<title>Node0&#45;&gt;Node54</title>
<path fill="none" stroke="#191970" d="M695.2074,-555.4821C724.5615,-534.202 774,-490.7538 774,-439.5 774,-439.5 774,-439.5 774,-374.5 774,-287.9865 740.4053,-188.5117 725.2564,-148.0535"/>
<polygon fill="#191970" stroke="#191970" points="728.5114,-146.766 721.6743,-138.6725 721.9719,-149.2631 728.5114,-146.766"/>
</g>
<!-- Node55 -->
<g id="node50" class="node">
<title>Node55</title>
<polygon fill="#ffffff" stroke="#bfbfbf" points="2138.4683,-495.5 2138.4683,-513.5 2269.5317,-513.5 2269.5317,-495.5 2138.4683,-495.5"/>
<text text-anchor="middle" x="2204" y="-501.5" font-family="Helvetica,sans-Serif" font-size="10.00" fill="#000000">boost/algorithm/string.hpp</text>
</g>
<!-- Node0&#45;&gt;Node55 -->
<g id="edge115" class="edge">
<title>Node0&#45;&gt;Node55</title>
<path fill="none" stroke="#191970" d="M740.1891,-568.4665C986.5436,-564.4217 1850.2306,-548.4218 2124,-519 2132.6673,-518.0685 2141.8086,-516.7426 2150.6907,-515.2668"/>
<polygon fill="#191970" stroke="#191970" points="2151.3168,-518.7105 2160.5698,-513.5498 2150.1182,-511.8139 2151.3168,-518.7105"/>
</g>
<!-- Node1&#45;&gt;Node2 -->
<g id="edge2" class="edge">
<title>Node1&#45;&gt;Node2</title>
<path fill="none" stroke="#191970" d="M581.8111,-425.4656C567.169,-415.8412 547.8386,-402.428 532,-389 486.062,-350.0536 437.9386,-297.5745 414.5244,-271.1611"/>
<polygon fill="#191970" stroke="#191970" points="417.0598,-268.7442 407.8248,-263.5514 411.8059,-273.3698 417.0598,-268.7442"/>
</g>
<!-- Node1&#45;&gt;Node3 -->
<g id="edge66" class="edge">
<title>Node1&#45;&gt;Node3</title>
<path fill="none" stroke="#191970" d="M615.0638,-425.4196C631.3839,-403.1934 660,-358.0168 660,-314.5 660,-314.5 660,-314.5 660,-254.5 660,-218.1716 660.6068,-205.5831 641,-175 632.9088,-162.3791 620.0783,-151.7816 608.5399,-143.9983"/>
<polygon fill="#191970" stroke="#191970" points="610.384,-141.0232 600.0681,-138.608 606.6262,-146.9291 610.384,-141.0232"/>
</g>
<!-- Node7 -->
<g id="node8" class="node">
<title>Node7</title>
<polygon fill="#ffffff" stroke="#bfbfbf" points="533.7734,-60.5 533.7734,-78.5 574.2266,-78.5 574.2266,-60.5 533.7734,-60.5"/>
<text text-anchor="middle" x="554" y="-66.5" font-family="Helvetica,sans-Serif" font-size="10.00" fill="#000000">string</text>
</g>
<!-- Node1&#45;&gt;Node7 -->
<g id="edge74" class="edge">
<title>Node1&#45;&gt;Node7</title>
<path fill="none" stroke="#191970" d="M596.9239,-425.3732C579.4039,-389.5081 534.3181,-291.5603 519,-204 512.5592,-167.1835 511.5422,-155.5761 523,-120 526.8317,-108.1025 534.0092,-96.123 540.4934,-86.8193"/>
<polygon fill="#191970" stroke="#191970" points="543.498,-88.6412 546.597,-78.5097 537.8563,-84.4972 543.498,-88.6412"/>
</g>
<!-- Node9 -->
<g id="node10" class="node">
<title>Node9</title>
<g id="a_node10"><a xlink:href="fwd__declares_8hpp.html" target="_top" xlink:title="../utils/fwd_declares.hpp">
<polygon fill="#ffffff" stroke="#000000" points="2170.3599,-60.5 2170.3599,-78.5 2293.6401,-78.5 2293.6401,-60.5 2170.3599,-60.5"/>
<text text-anchor="middle" x="2232" y="-66.5" font-family="Helvetica,sans-Serif" font-size="10.00" fill="#000000">../utils/fwd_declares.hpp</text>
</a>
</g>
</g>
<!-- Node1&#45;&gt;Node9 -->
<g id="edge67" class="edge">
<title>Node1&#45;&gt;Node9</title>
<path fill="none" stroke="#191970" d="M670.1708,-438.0202C906.4357,-432.5596 1700.3364,-412.6282 1812,-389 1831.2778,-384.9208 1960.5161,-334.796 1977,-324 2084.6927,-253.4672 2184.0488,-131.8421 2218.8615,-86.8716"/>
<polygon fill="#191970" stroke="#191970" points="2221.812,-88.7757 2225.1192,-78.7103 2216.2569,-84.5164 2221.812,-88.7757"/>
</g>
<!-- Node10 -->
<g id="node11" class="node">
<title>Node10</title>
<polygon fill="#ffffff" stroke="#bfbfbf" points="796.5493,-.5 796.5493,-18.5 841.4507,-18.5 841.4507,-.5 796.5493,-.5"/>
<text text-anchor="middle" x="819" y="-6.5" font-family="Helvetica,sans-Serif" font-size="10.00" fill="#000000">cstdint</text>
</g>
<!-- Node1&#45;&gt;Node10 -->
<g id="edge71" class="edge">
<title>Node1&#45;&gt;Node10</title>
<path fill="none" stroke="#191970" d="M537.7077,-426.5725C380.7316,-392.8378 7.5512,-292.5835 119,-120 157.0923,-61.0123 195.0143,-72.5647 263,-55 363.0758,-29.1445 682.7904,-14.7736 786.3146,-10.7104"/>
<polygon fill="#191970" stroke="#191970" points="786.6166,-14.2015 796.4739,-10.3177 786.3462,-7.2067 786.6166,-14.2015"/>
</g>
<!-- Node1&#45;&gt;Node14 -->
<g id="edge16" class="edge">
<title>Node1&#45;&gt;Node14</title>
<path fill="none" stroke="#191970" d="M670.378,-430.524C687.1955,-428.4754 705.2427,-426.4713 722,-425 1047.7682,-396.397 1437.6426,-381.8971 1599.6264,-376.7434"/>
<polygon fill="#191970" stroke="#191970" points="1600.0787,-380.2309 1609.9633,-376.4174 1599.8579,-373.2344 1600.0787,-380.2309"/>
</g>
<!-- Node18 -->
<g id="node19" class="node">
<title>Node18</title>
<polygon fill="#ffffff" stroke="#bfbfbf" points="980.3843,-60.5 980.3843,-78.5 1023.6157,-78.5 1023.6157,-60.5 980.3843,-60.5"/>
<text text-anchor="middle" x="1002" y="-66.5" font-family="Helvetica,sans-Serif" font-size="10.00" fill="#000000">vector</text>
</g>
<!-- Node1&#45;&gt;Node18 -->
<g id="edge75" class="edge">
<title>Node1&#45;&gt;Node18</title>
<path fill="none" stroke="#191970" d="M619.1161,-425.4474C681.4807,-367.4702 918.6086,-147.0246 984.7678,-85.5199"/>
<polygon fill="#191970" stroke="#191970" points="987.3504,-87.8978 992.2914,-78.5256 982.5843,-82.771 987.3504,-87.8978"/>
</g>
<!-- Node1&#45;&gt;Node42 -->
<g id="edge69" class="edge">
<title>Node1&#45;&gt;Node42</title>
<path fill="none" stroke="#191970" d="M602.6409,-425.3426C598.5741,-382.9801 586.4954,-257.1603 581.8495,-208.7657"/>
<polygon fill="#191970" stroke="#191970" points="585.3231,-208.322 580.8834,-198.7023 578.3551,-208.991 585.3231,-208.322"/>
</g>
<!-- Node43 -->
<g id="node38" class="node">
<title>Node43</title>
<polygon fill="#ffffff" stroke="#bfbfbf" points="1932.2734,-305.5 1932.2734,-323.5 1967.7266,-323.5 1967.7266,-305.5 1932.2734,-305.5"/>
<text text-anchor="middle" x="1950" y="-311.5" font-family="Helvetica,sans-Serif" font-size="10.00" fill="#000000">map</text>
</g>
<!-- Node1&#45;&gt;Node43 -->
<g id="edge72" class="edge">
<title>Node1&#45;&gt;Node43</title>
<path fill="none" stroke="#191970" d="M670.3403,-437.7929C898.891,-431.7442 1645.3508,-410.5382 1751,-389 1814.8747,-375.9782 1885.3858,-345.4363 1922.937,-327.7661"/>
<polygon fill="#191970" stroke="#191970" points="1924.664,-330.8202 1932.186,-323.359 1921.6529,-324.5009 1924.664,-330.8202"/>
</g>
<!-- Node44 -->
<g id="node39" class="node">
<title>Node44</title>
<polygon fill="#ffffff" stroke="#bfbfbf" points="180.0298,-360.5 180.0298,-388.5 289.9702,-388.5 289.9702,-360.5 180.0298,-360.5"/>
<text text-anchor="start" x="188.0298" y="-376.5" font-family="Helvetica,sans-Serif" font-size="10.00" fill="#000000">boost/dynamic_bitset</text>
<text text-anchor="middle" x="235" y="-366.5" font-family="Helvetica,sans-Serif" font-size="10.00" fill="#000000">/dynamic_bitset.hpp</text>
</g>
<!-- Node1&#45;&gt;Node44 -->
<g id="edge68" class="edge">
<title>Node1&#45;&gt;Node44</title>
<path fill="none" stroke="#191970" d="M537.604,-427.8042C470.3031,-415.9491 366.8319,-397.7224 300.0268,-385.9546"/>
<polygon fill="#191970" stroke="#191970" points="300.4938,-382.483 290.0382,-384.1951 299.2794,-389.3769 300.4938,-382.483"/>
</g>
<!-- Node45 -->
<g id="node40" class="node">
<title>Node45</title>
<polygon fill="#ffffff" stroke="#bfbfbf" points="2062.0493,-305.5 2062.0493,-323.5 2101.9507,-323.5 2101.9507,-305.5 2062.0493,-305.5"/>
<text text-anchor="middle" x="2082" y="-311.5" font-family="Helvetica,sans-Serif" font-size="10.00" fill="#000000">bitset</text>
</g>
<!-- Node1&#45;&gt;Node45 -->
<g id="edge70" class="edge">
<title>Node1&#45;&gt;Node45</title>
<path fill="none" stroke="#191970" d="M670.4779,-438.2291C917.697,-433.3209 1775.9366,-414.5929 1896,-389 1955.7074,-376.2727 2020.9656,-345.9826 2056.103,-328.1915"/>
<polygon fill="#191970" stroke="#191970" points="2057.8868,-331.2101 2065.1852,-323.5299 2054.6904,-324.9825 2057.8868,-331.2101"/>
</g>
<!-- Node1&#45;&gt;Node46 -->
<g id="edge73" class="edge">
<title>Node1&#45;&gt;Node46</title>
<path fill="none" stroke="#191970" d="M605.4913,-425.1609C607.8278,-402.6941 612.3553,-359.1603 614.9814,-333.9097"/>
<polygon fill="#191970" stroke="#191970" points="618.4862,-334.0444 616.0395,-323.736 611.5237,-333.3202 618.4862,-334.0444"/>
</g>
<!-- Node2&#45;&gt;Node3 -->
<g id="edge3" class="edge">
<title>Node2&#45;&gt;Node3</title>
<path fill="none" stroke="#191970" d="M413.4564,-245.3085C444.787,-223.9078 522.8445,-170.5898 561.1279,-144.44"/>
<polygon fill="#191970" stroke="#191970" points="563.2405,-147.2356 569.5238,-138.705 559.2922,-141.4553 563.2405,-147.2356"/>
</g>
<!-- Node2&#45;&gt;Node9 -->
<g id="edge9" class="edge">
<title>Node2&#45;&gt;Node9</title>
<path fill="none" stroke="#191970" d="M472.8891,-253.0764C754.9547,-247.4181 1762.3972,-225.7691 1827,-204 1888.3487,-183.3274 1886.1302,-144.6296 1946,-120 2035.6002,-83.1398 2065.7439,-101.696 2161,-84 2166.7845,-82.9254 2172.825,-81.7595 2178.8349,-80.5716"/>
<polygon fill="#191970" stroke="#191970" points="2179.7507,-83.9578 2188.8696,-78.5637 2178.3772,-77.0938 2179.7507,-83.9578"/>
</g>
<!-- Node2&#45;&gt;Node10 -->
<g id="edge14" class="edge">
<title>Node2&#45;&gt;Node10</title>
<path fill="none" stroke="#191970" d="M387.0174,-245.4931C345.5671,-215.712 222.4652,-118.6942 281,-55 315.2211,-17.7625 674.0925,-10.9729 785.9195,-9.7588"/>
<polygon fill="#191970" stroke="#191970" points="786.2837,-13.2554 796.248,-9.6552 786.2133,-6.2558 786.2837,-13.2554"/>
</g>
<!-- Node11 -->
<g id="node12" class="node">
<title>Node11</title>
<polygon fill="#ffffff" stroke="#bfbfbf" points="1412.478,-180.5 1412.478,-198.5 1523.522,-198.5 1523.522,-180.5 1412.478,-180.5"/>
<text text-anchor="middle" x="1468" y="-186.5" font-family="Helvetica,sans-Serif" font-size="10.00" fill="#000000">EASTL/vector_map.h</text>
</g>
<!-- Node2&#45;&gt;Node11 -->
<g id="edge12" class="edge">
<title>Node2&#45;&gt;Node11</title>
<path fill="none" stroke="#191970" d="M472.7912,-252.2407C671.1117,-245.8571 1218.0775,-226.6701 1397,-204 1404.2078,-203.0867 1411.7768,-201.8476 1419.1771,-200.4762"/>
<polygon fill="#191970" stroke="#191970" points="1419.9672,-203.8882 1429.1143,-198.5421 1418.6298,-197.0171 1419.9672,-203.8882"/>
</g>
<!-- Node12 -->
<g id="node13" class="node">
<title>Node12</title>
<polygon fill="#ffffff" stroke="#bfbfbf" points="380.6084,-180.5 380.6084,-198.5 419.3916,-198.5 419.3916,-180.5 380.6084,-180.5"/>
<text text-anchor="middle" x="400" y="-186.5" font-family="Helvetica,sans-Serif" font-size="10.00" fill="#000000">array</text>
</g>
<!-- Node2&#45;&gt;Node12 -->
<g id="edge13" class="edge">
<title>Node2&#45;&gt;Node12</title>
<path fill="none" stroke="#191970" d="M400,-245.462C400,-236.061 400,-221.0518 400,-208.943"/>
<polygon fill="#191970" stroke="#191970" points="403.5001,-208.8821 400,-198.8821 396.5001,-208.8822 403.5001,-208.8821"/>
</g>
<!-- Node2&#45;&gt;Node13 -->
<g id="edge15" class="edge">
<title>Node2&#45;&gt;Node13</title>
<path fill="none" stroke="#191970" d="M372.2098,-245.4441C341.6928,-235.4584 291.2695,-218.8377 248,-204 246.1253,-203.3571 244.2039,-202.6936 242.2652,-202.0205"/>
<polygon fill="#191970" stroke="#191970" points="243.1575,-198.6247 232.5627,-198.6255 240.8456,-205.2319 243.1575,-198.6247"/>
</g>
<!-- Node3&#45;&gt;Node4 -->
<g id="edge4" class="edge">
<title>Node3&#45;&gt;Node4</title>
<path fill="none" stroke="#191970" d="M531.4384,-121.8198C485.0175,-114.2807 415.197,-101.3856 356,-84 354.0637,-83.4313 352.0869,-82.8033 350.1041,-82.137"/>
<polygon fill="#191970" stroke="#191970" points="350.8939,-78.7004 340.2997,-78.5826 348.5081,-85.2813 350.8939,-78.7004"/>
</g>
<!-- Node5 -->
<g id="node6" class="node">
<title>Node5</title>
<polygon fill="#ffffff" stroke="#bfbfbf" points="592.4385,-60.5 592.4385,-78.5 639.5615,-78.5 639.5615,-60.5 592.4385,-60.5"/>
<text text-anchor="middle" x="616" y="-66.5" font-family="Helvetica,sans-Serif" font-size="10.00" fill="#000000">iterator</text>
</g>
<!-- Node3&#45;&gt;Node5 -->
<g id="edge5" class="edge">
<title>Node3&#45;&gt;Node5</title>
<path fill="none" stroke="#191970" d="M588.012,-120.3873C592.7608,-111.7531 600.0299,-98.5365 605.9699,-87.7366"/>
<polygon fill="#191970" stroke="#191970" points="609.1884,-89.1474 610.9408,-78.6985 603.0548,-85.7739 609.1884,-89.1474"/>
</g>
<!-- Node6 -->
<g id="node7" class="node">
<title>Node6</title>
<polygon fill="#ffffff" stroke="#bfbfbf" points="2295.9434,-.5 2295.9434,-18.5 2348.0566,-18.5 2348.0566,-.5 2295.9434,-.5"/>
<text text-anchor="middle" x="2322" y="-6.5" font-family="Helvetica,sans-Serif" font-size="10.00" fill="#000000">memory</text>
</g>
<!-- Node3&#45;&gt;Node6 -->
<g id="edge6" class="edge">
<title>Node3&#45;&gt;Node6</title>
<path fill="none" stroke="#191970" d="M619.6206,-120.4832C688.108,-104.0652 840.4654,-69.6395 971,-55 1236.3828,-25.2372 2097.6243,-12.4332 2285.5629,-9.9573"/>
<polygon fill="#191970" stroke="#191970" points="2285.784,-13.4548 2295.7375,-9.8247 2285.6928,-6.4554 2285.784,-13.4548"/>
</g>
<!-- Node3&#45;&gt;Node7 -->
<g id="edge7" class="edge">
<title>Node3&#45;&gt;Node7</title>
<path fill="none" stroke="#191970" d="M578.5955,-120.3873C574.4223,-111.7531 568.0343,-98.5365 562.8143,-87.7366"/>
<polygon fill="#191970" stroke="#191970" points="565.9489,-86.1789 558.4459,-78.6985 559.6464,-89.2251 565.9489,-86.1789"/>
</g>
<!-- Node8 -->
<g id="node9" class="node">
<title>Node8</title>
<polygon fill="#ffffff" stroke="#bfbfbf" points="1079.9336,-60.5 1079.9336,-78.5 1142.0664,-78.5 1142.0664,-60.5 1079.9336,-60.5"/>
<text text-anchor="middle" x="1111" y="-66.5" font-family="Helvetica,sans-Serif" font-size="10.00" fill="#000000">type_traits</text>
</g>
<!-- Node3&#45;&gt;Node8 -->
<g id="edge8" class="edge">
<title>Node3&#45;&gt;Node8</title>
<path fill="none" stroke="#191970" d="M634.3558,-121.1438C637.2776,-120.7385 640.1745,-120.3537 643,-120 815.7221,-98.3776 860.5828,-107.9323 1033,-84 1044.9237,-82.3449 1057.797,-80.1299 1069.582,-77.9302"/>
<polygon fill="#191970" stroke="#191970" points="1070.4411,-81.3294 1079.6069,-76.0155 1069.1279,-74.4537 1070.4411,-81.3294"/>
</g>
<!-- Node9&#45;&gt;Node6 -->
<g id="edge11" class="edge">
<title>Node9&#45;&gt;Node6</title>
<path fill="none" stroke="#191970" d="M2245.6691,-60.3873C2260.0249,-50.8168 2282.8261,-35.6159 2299.7744,-24.3171"/>
<polygon fill="#191970" stroke="#191970" points="2302.1181,-26.9611 2308.4972,-18.5019 2298.2352,-21.1367 2302.1181,-26.9611"/>
</g>
<!-- Node9&#45;&gt;Node10 -->
<g id="edge10" class="edge">
<title>Node9&#45;&gt;Node10</title>
<path fill="none" stroke="#191970" d="M2193.8689,-60.4901C2183.2829,-58.3234 2171.7447,-56.2702 2161,-55 1895.842,-23.6531 1030.7036,-11.9742 851.6237,-9.8639"/>
<polygon fill="#191970" stroke="#191970" points="851.5587,-6.363 841.5186,-9.7465 851.4772,-13.3625 851.5587,-6.363"/>
</g>
<!-- Node14&#45;&gt;Node3 -->
<g id="edge17" class="edge">
<title>Node14&#45;&gt;Node3</title>
<path fill="none" stroke="#191970" d="M1609.7919,-371.6224C1479.8985,-365.4932 1196.1216,-349.584 1102,-324 952.9381,-283.4822 934.0988,-225.1624 788,-175 761.0082,-165.7325 690.357,-150.7825 639.5437,-140.5668"/>
<polygon fill="#191970" stroke="#191970" points="640.1568,-137.1202 629.6644,-138.5899 638.7832,-143.9841 640.1568,-137.1202"/>
</g>
<!-- Node14&#45;&gt;Node6 -->
<g id="edge64" class="edge">
<title>Node14&#45;&gt;Node6</title>
<path fill="none" stroke="#191970" d="M1711.0789,-365.4926C1841.6454,-331.1811 2295.9797,-204.5109 2374,-84 2381.0046,-73.1806 2379.3259,-66.737 2374,-55 2368.3461,-42.54 2357.4074,-32.1506 2347.0156,-24.4602"/>
<polygon fill="#191970" stroke="#191970" points="2348.7695,-21.4191 2338.5432,-18.6489 2344.81,-27.1916 2348.7695,-21.4191"/>
</g>
<!-- Node14&#45;&gt;Node9 -->
<g id="edge18" class="edge">
<title>Node14&#45;&gt;Node9</title>
<path fill="none" stroke="#191970" d="M1700.7601,-365.3516C1726.7071,-355.6206 1768.5479,-339.5203 1804,-324 1901.7675,-281.199 1929.6414,-271.8784 2012,-204 2053.2307,-170.0184 2052.9319,-148.6981 2098,-120 2125.3616,-102.5769 2159.641,-89.7958 2186.679,-81.4507"/>
<polygon fill="#191970" stroke="#191970" points="2187.7092,-84.7959 2196.2865,-78.5766 2185.7029,-78.0896 2187.7092,-84.7959"/>
</g>
<!-- Node14&#45;&gt;Node10 -->
<g id="edge61" class="edge">
<title>Node14&#45;&gt;Node10</title>
<path fill="none" stroke="#191970" d="M1609.9008,-371.2027C1486.7388,-364.5754 1226.7743,-348.1769 1140,-324 1112.9045,-316.4507 1048.4343,-285.9665 1026,-269 938.3619,-202.7214 926.2348,-173.1469 862,-84 848.8227,-65.7122 836.2361,-43.0911 828.1244,-27.6038"/>
<polygon fill="#191970" stroke="#191970" points="831.1659,-25.865 823.4788,-18.5739 824.9413,-29.0674 831.1659,-25.865"/>
</g>
<!-- Node14&#45;&gt;Node11 -->
<g id="edge60" class="edge">
<title>Node14&#45;&gt;Node11</title>
<path fill="none" stroke="#191970" d="M1677.3806,-365.2422C1680.4071,-341.1898 1684.9385,-276.0912 1652,-240 1642.9196,-230.0504 1571.0968,-212.3573 1519.9275,-200.7774"/>
<polygon fill="#191970" stroke="#191970" points="1520.5176,-197.3229 1509.9937,-198.5471 1518.984,-204.1528 1520.5176,-197.3229"/>
</g>
<!-- Node15 -->
<g id="node16" class="node">
<title>Node15</title>
<g id="a_node16"><a xlink:href="base__graph_8hpp.html" target="_top" xlink:title="base_graph.hpp">
<polygon fill="#ffffff" stroke="#000000" points="1325.8574,-305.5 1325.8574,-323.5 1414.1426,-323.5 1414.1426,-305.5 1325.8574,-305.5"/>
<text text-anchor="middle" x="1370" y="-311.5" font-family="Helvetica,sans-Serif" font-size="10.00" fill="#000000">base_graph.hpp</text>
</a>
</g>
</g>
<!-- Node14&#45;&gt;Node15 -->
<g id="edge19" class="edge">
<title>Node14&#45;&gt;Node15</title>
<path fill="none" stroke="#191970" d="M1629.8574,-365.4524C1574.8885,-354.6742 1483.1646,-336.6891 1424.6841,-325.2224"/>
<polygon fill="#191970" stroke="#191970" points="1425.0117,-321.72 1414.5251,-323.2304 1423.6647,-328.5892 1425.0117,-321.72"/>
</g>
<!-- Node14&#45;&gt;Node18 -->
<g id="edge65" class="edge">
<title>Node14&#45;&gt;Node18</title>
<path fill="none" stroke="#191970" d="M1679.821,-365.3967C1683.777,-355.4387 1689.6952,-338.9057 1692,-324 1697.8345,-286.2676 1699.5219,-268.3974 1674,-240 1644.9264,-207.6507 1622.1426,-222.9634 1583,-204 1559.8808,-192.7994 1557.0386,-184.0606 1533,-175 1337.1701,-101.1881 1276.0998,-125.6124 1071,-84 1058.7524,-81.5151 1045.2995,-78.706 1033.5506,-76.2266"/>
<polygon fill="#191970" stroke="#191970" points="1034.2457,-72.7962 1023.7376,-74.1489 1032.7957,-79.6444 1034.2457,-72.7962"/>
</g>
<!-- Node14&#45;&gt;Node21 -->
<g id="edge62" class="edge">
<title>Node14&#45;&gt;Node21</title>
<path fill="none" stroke="#191970" d="M1690.5246,-365.3447C1724.0571,-343.0973 1801.3787,-284.7366 1766,-240 1722.9363,-185.5457 1670.8723,-243.8157 1614,-204 1594.1509,-190.1038 1580.2568,-165.3517 1572.4556,-148.2125"/>
<polygon fill="#191970" stroke="#191970" points="1575.5345,-146.5103 1568.3868,-138.6897 1569.0974,-149.2607 1575.5345,-146.5103"/>
</g>
<!-- Node14&#45;&gt;Node43 -->
<g id="edge63" class="edge">
<title>Node14&#45;&gt;Node43</title>
<path fill="none" stroke="#191970" d="M1725.4035,-365.4342C1774.5042,-356.1325 1851.8326,-340.695 1918,-324 1919.4399,-323.6367 1920.9122,-323.2509 1922.3959,-322.8509"/>
<polygon fill="#191970" stroke="#191970" points="1923.4669,-326.1852 1932.1322,-320.0891 1921.5566,-319.4509 1923.4669,-326.1852"/>
</g>
<!-- Node15&#45;&gt;Node6 -->
<g id="edge25" class="edge">
<title>Node15&#45;&gt;Node6</title>
<path fill="none" stroke="#191970" d="M1414.5822,-309.0261C1470.772,-301.7456 1570.1511,-287.5998 1654,-269 1877.883,-219.3371 1926.8033,-180.5149 2148,-120 2216.2158,-101.3375 2252.457,-133.468 2303,-84 2317.5714,-69.7385 2321.5184,-45.9721 2322.3319,-29.1211"/>
<polygon fill="#191970" stroke="#191970" points="2325.8368,-28.8127 2322.4866,-18.7616 2318.8376,-28.7082 2325.8368,-28.8127"/>
</g>
<!-- Node15&#45;&gt;Node9 -->
<g id="edge20" class="edge">
<title>Node15&#45;&gt;Node9</title>
<path fill="none" stroke="#191970" d="M1413.7313,-305.4798C1456.465,-296.5687 1523.3205,-282.3705 1581,-269 1588.3047,-267.3067 1836.0653,-206.8524 1843,-204 1910.4605,-176.2516 1915.9648,-146.3077 1984,-120 2058.8746,-91.0477 2082.3398,-100.0316 2161,-84 2166.3932,-82.9008 2172.0167,-81.7538 2177.6343,-80.6075"/>
<polygon fill="#191970" stroke="#191970" points="2178.5904,-83.9846 2187.6883,-78.5553 2177.1904,-77.126 2178.5904,-83.9846"/>
</g>
<!-- Node15&#45;&gt;Node10 -->
<g id="edge24" class="edge">
<title>Node15&#45;&gt;Node10</title>
<path fill="none" stroke="#191970" d="M1325.6766,-309.2916C1267.3585,-301.8563 1168.562,-287.0778 1137,-269 1088.6382,-241.2997 1095.173,-212.5627 1054,-175 987.2777,-114.1282 964.5013,-106.0568 890,-55 874.3477,-44.2732 856.3453,-32.7453 842.3846,-23.9769"/>
<polygon fill="#191970" stroke="#191970" points="844.1946,-20.9808 833.8594,-18.6495 840.485,-26.9171 844.1946,-20.9808"/>
</g>
<!-- Node16 -->
<g id="node17" class="node">
<title>Node16</title>
<g id="a_node17"><a xlink:href="simple__bimap_8hpp.html" target="_top" xlink:title="../utils/simple_bimap.hpp">
<polygon fill="#ffffff" stroke="#000000" points="1445.9731,-245.5 1445.9731,-263.5 1572.0269,-263.5 1572.0269,-245.5 1445.9731,-245.5"/>
<text text-anchor="middle" x="1509" y="-251.5" font-family="Helvetica,sans-Serif" font-size="10.00" fill="#000000">../utils/simple_bimap.hpp</text>
</a>
</g>
</g>
<!-- Node15&#45;&gt;Node16 -->
<g id="edge21" class="edge">
<title>Node15&#45;&gt;Node16</title>
<path fill="none" stroke="#191970" d="M1391.1111,-305.3873C1414.5146,-295.2851 1452.4511,-278.9096 1478.9489,-267.4717"/>
<polygon fill="#191970" stroke="#191970" points="1480.3516,-270.6784 1488.1457,-263.5019 1477.5774,-264.2516 1480.3516,-270.6784"/>
</g>
<!-- Node17 -->
<g id="node18" class="node">
<title>Node17</title>
<polygon fill="#ffffff" stroke="#bfbfbf" points="1311.6875,-240.5 1311.6875,-268.5 1428.3125,-268.5 1428.3125,-240.5 1311.6875,-240.5"/>
<text text-anchor="start" x="1319.6875" y="-256.5" font-family="Helvetica,sans-Serif" font-size="10.00" fill="#000000">boost/graph/adjacency</text>
<text text-anchor="middle" x="1370" y="-246.5" font-family="Helvetica,sans-Serif" font-size="10.00" fill="#000000">_list.hpp</text>
</g>
<!-- Node15&#45;&gt;Node17 -->
<g id="edge23" class="edge">
<title>Node15&#45;&gt;Node17</title>
<path fill="none" stroke="#191970" d="M1370,-305.3873C1370,-298.3369 1370,-288.2311 1370,-278.8806"/>
<polygon fill="#191970" stroke="#191970" points="1373.5001,-278.8476 1370,-268.8477 1366.5001,-278.8477 1373.5001,-278.8476"/>
</g>
<!-- Node15&#45;&gt;Node18 -->
<g id="edge26" class="edge">
<title>Node15&#45;&gt;Node18</title>
<path fill="none" stroke="#191970" d="M1325.6701,-308.138C1275.4546,-300.2681 1197.4241,-285.8296 1173,-269 1107.3272,-223.7477 1128.6237,-177.155 1073,-120 1059.3265,-105.9501 1041.2993,-93.1823 1026.8317,-83.9997"/>
<polygon fill="#191970" stroke="#191970" points="1028.2691,-80.7742 1017.9199,-78.5057 1024.5956,-86.7329 1028.2691,-80.7742"/>
</g>
<!-- Node19 -->
<g id="node20" class="node">
<title>Node19</title>
<g id="a_node20"><a xlink:href="base__graph__impl_8hpp.html" target="_top" xlink:title="base_graph_impl.hpp">
<polygon fill="#ffffff" stroke="#000000" points="1181.9092,-245.5 1181.9092,-263.5 1294.0908,-263.5 1294.0908,-245.5 1181.9092,-245.5"/>
<text text-anchor="middle" x="1238" y="-251.5" font-family="Helvetica,sans-Serif" font-size="10.00" fill="#000000">base_graph_impl.hpp</text>
</a>
</g>
</g>
<!-- Node15&#45;&gt;Node19 -->
<g id="edge27" class="edge">
<title>Node15&#45;&gt;Node19</title>
<path fill="none" stroke="#191970" d="M1349.952,-305.3873C1327.9221,-295.3737 1292.3321,-279.1964 1267.2024,-267.7738"/>
<polygon fill="#191970" stroke="#191970" points="1268.3561,-264.4537 1257.8041,-263.5019 1265.4595,-270.8262 1268.3561,-264.4537"/>
</g>
<!-- Node16&#45;&gt;Node11 -->
<g id="edge22" class="edge">
<title>Node16&#45;&gt;Node11</title>
<path fill="none" stroke="#191970" d="M1503.2991,-245.462C1497.1272,-235.6773 1487.1232,-219.8172 1479.3383,-207.4753"/>
<polygon fill="#191970" stroke="#191970" points="1482.2133,-205.4729 1473.918,-198.8821 1476.2927,-209.2074 1482.2133,-205.4729"/>
</g>
<!-- Node19&#45;&gt;Node11 -->
<g id="edge57" class="edge">
<title>Node19&#45;&gt;Node11</title>
<path fill="none" stroke="#191970" d="M1269.9805,-245.462C1310.7182,-233.9492 1381.2171,-214.0256 1426.1813,-201.3183"/>
<polygon fill="#191970" stroke="#191970" points="1427.25,-204.6535 1435.9212,-198.5658 1425.3462,-197.9173 1427.25,-204.6535"/>
</g>
<!-- Node19&#45;&gt;Node18 -->
<g id="edge59" class="edge">
<title>Node19&#45;&gt;Node18</title>
<path fill="none" stroke="#191970" d="M1242.5304,-245.3186C1249.582,-229.5867 1260.9967,-197.0457 1247,-175 1192.6976,-89.4702 1132.1619,-121.3851 1038,-84 1036.407,-83.3675 1034.7751,-82.7176 1033.1279,-82.0599"/>
<polygon fill="#191970" stroke="#191970" points="1034.2724,-78.748 1023.6881,-78.2759 1031.6678,-85.2454 1034.2724,-78.748"/>
</g>
<!-- Node20 -->
<g id="node21" class="node">
<title>Node20</title>
<g id="a_node21"><a xlink:href="connectivity_8hpp.html" target="_top" xlink:title="../algorithm/graph\l/connectivity.hpp">
<polygon fill="#ffffff" stroke="#000000" points="1294.0913,-175.5 1294.0913,-203.5 1387.9087,-203.5 1387.9087,-175.5 1294.0913,-175.5"/>
<text text-anchor="start" x="1302.0913" y="-191.5" font-family="Helvetica,sans-Serif" font-size="10.00" fill="#000000">../algorithm/graph</text>
<text text-anchor="middle" x="1341" y="-181.5" font-family="Helvetica,sans-Serif" font-size="10.00" fill="#000000">/connectivity.hpp</text>
</a>
</g>
</g>
<!-- Node19&#45;&gt;Node20 -->
<g id="edge28" class="edge">
<title>Node19&#45;&gt;Node20</title>
<path fill="none" stroke="#191970" d="M1252.3217,-245.462C1267.1147,-236.1267 1290.6707,-221.2612 1309.7875,-209.1972"/>
<polygon fill="#191970" stroke="#191970" points="1311.8948,-212.0061 1318.4837,-203.7093 1308.159,-206.0863 1311.8948,-212.0061"/>
</g>
<!-- Node22 -->
<g id="node23" class="node">
<title>Node22</title>
<g id="a_node23"><a xlink:href="cycles_8hpp.html" target="_top" xlink:title="../algorithm/graph\l/cycles.hpp">
<polygon fill="#ffffff" stroke="#000000" points="1144.0913,-175.5 1144.0913,-203.5 1237.9087,-203.5 1237.9087,-175.5 1144.0913,-175.5"/>
<text text-anchor="start" x="1152.0913" y="-191.5" font-family="Helvetica,sans-Serif" font-size="10.00" fill="#000000">../algorithm/graph</text>
<text text-anchor="middle" x="1191" y="-181.5" font-family="Helvetica,sans-Serif" font-size="10.00" fill="#000000">/cycles.hpp</text>
</a>
</g>
</g>
<!-- Node19&#45;&gt;Node22 -->
<g id="edge33" class="edge">
<title>Node19&#45;&gt;Node22</title>
<path fill="none" stroke="#191970" d="M1231.4649,-245.462C1225.2741,-236.9004 1215.72,-223.6873 1207.4498,-212.2497"/>
<polygon fill="#191970" stroke="#191970" points="1210.1484,-210.0086 1201.4527,-203.9559 1204.476,-214.1102 1210.1484,-210.0086"/>
</g>
<!-- Node26 -->
<g id="node27" class="node">
<title>Node26</title>
<g id="a_node27"><a xlink:href="serialise_8hpp.html" target="_top" xlink:title="../utils/serialise.hpp">
<polygon fill="#ffffff" stroke="#ff0000" points="1716.4805,-120.5 1716.4805,-138.5 1817.5195,-138.5 1817.5195,-120.5 1716.4805,-120.5"/>
<text text-anchor="middle" x="1767" y="-126.5" font-family="Helvetica,sans-Serif" font-size="10.00" fill="#000000">../utils/serialise.hpp</text>
</a>
</g>
</g>
<!-- Node19&#45;&gt;Node26 -->
<g id="edge43" class="edge">
<title>Node19&#45;&gt;Node26</title>
<path fill="none" stroke="#191970" d="M1273.9211,-245.4715C1283.3313,-243.386 1293.5028,-241.3775 1303,-240 1360.7551,-231.623 1787.1729,-246.6572 1827,-204 1845.4912,-184.1948 1816.0411,-159.3735 1792.2476,-143.9744"/>
<polygon fill="#191970" stroke="#191970" points="1793.861,-140.8567 1783.5172,-138.5641 1790.1737,-146.8068 1793.861,-140.8567"/>
</g>
<!-- Node40 -->
<g id="node36" class="node">
<title>Node40</title>
<g id="a_node36"><a xlink:href="triple_8hpp.html" target="_top" xlink:title="../utils/triple.hpp">
<polygon fill="#ffffff" stroke="#ff0000" points="1731.9829,-180.5 1731.9829,-198.5 1818.0171,-198.5 1818.0171,-180.5 1731.9829,-180.5"/>
<text text-anchor="middle" x="1775" y="-186.5" font-family="Helvetica,sans-Serif" font-size="10.00" fill="#000000">../utils/triple.hpp</text>
</a>
</g>
</g>
<!-- Node19&#45;&gt;Node40 -->
<g id="edge54" class="edge">
<title>Node19&#45;&gt;Node40</title>
<path fill="none" stroke="#191970" d="M1274.9825,-245.4919C1284.1027,-243.4804 1293.873,-241.5013 1303,-240 1453.8155,-215.1917 1633.8357,-199.8242 1721.5919,-193.2389"/>
<polygon fill="#191970" stroke="#191970" points="1722.1148,-196.7098 1731.8284,-192.4793 1721.5967,-189.729 1722.1148,-196.7098"/>
</g>
<!-- Node19&#45;&gt;Node42 -->
<g id="edge58" class="edge">
<title>Node19&#45;&gt;Node42</title>
<path fill="none" stroke="#191970" d="M1181.8993,-248.9581C1059.8034,-236.897 770.7038,-208.3385 642.7715,-195.7008"/>
<polygon fill="#191970" stroke="#191970" points="643.0346,-192.2099 632.7389,-194.7098 642.3464,-199.176 643.0346,-192.2099"/>
</g>
<!-- Node20&#45;&gt;Node9 -->
<g id="edge29" class="edge">
<title>Node20&#45;&gt;Node9</title>
<path fill="none" stroke="#191970" d="M1388.2468,-177.6745C1393.2082,-176.6655 1398.1938,-175.7469 1403,-175 1604.3236,-143.7122 1661.5214,-185.0039 1860,-139 1882.3513,-133.8194 1885.8222,-125.879 1908,-120 2017.7852,-90.8974 2049.0872,-103.3719 2161,-84 2167.1827,-82.9298 2173.6513,-81.7262 2180.0596,-80.4818"/>
<polygon fill="#191970" stroke="#191970" points="2180.9015,-83.8832 2190.0305,-78.5062 2179.5409,-77.0167 2180.9015,-83.8832"/>
</g>
<!-- Node20&#45;&gt;Node10 -->
<g id="edge30" class="edge">
<title>Node20&#45;&gt;Node10</title>
<path fill="none" stroke="#191970" d="M1327.8609,-175.3416C1312.1307,-159.3038 1284.2271,-133.6329 1255,-120 1179.483,-84.7752 1146.9996,-118.1712 1071,-84 1051.6233,-75.2878 1052.3051,-63.8697 1033,-55 972.7045,-27.2974 895.0464,-16.2153 851.8003,-11.9703"/>
<polygon fill="#191970" stroke="#191970" points="851.8565,-8.4609 841.5785,-11.0325 851.2169,-15.4316 851.8565,-8.4609"/>
</g>
<!-- Node20&#45;&gt;Node18 -->
<g id="edge32" class="edge">
<title>Node20&#45;&gt;Node18</title>
<path fill="none" stroke="#191970" d="M1321.5929,-175.2421C1299.0309,-159.359 1260.1283,-134.0701 1223,-120 1144.6712,-90.3167 1118.3254,-107.7556 1038,-84 1036.1101,-83.4411 1034.1821,-82.8206 1032.2493,-82.1599"/>
<polygon fill="#191970" stroke="#191970" points="1033.2939,-78.8144 1022.7008,-78.6202 1030.8607,-85.3779 1033.2939,-78.8144"/>
</g>
<!-- Node20&#45;&gt;Node21 -->
<g id="edge31" class="edge">
<title>Node20&#45;&gt;Node21</title>
<path fill="none" stroke="#191970" d="M1387.9577,-176.922C1432.5181,-164.9862 1498.0994,-147.4198 1535.672,-137.3557"/>
<polygon fill="#191970" stroke="#191970" points="1536.732,-140.6953 1545.4859,-134.727 1534.9208,-133.9336 1536.732,-140.6953"/>
</g>
<!-- Node22&#45;&gt;Node9 -->
<g id="edge34" class="edge">
<title>Node22&#45;&gt;Node9</title>
<path fill="none" stroke="#191970" d="M1238.232,-181.395C1253.1564,-179.0543 1269.7357,-176.681 1285,-175 1524.9689,-148.5727 1595.9645,-209.0432 1827,-139 1843.196,-134.0898 1843.939,-125.3353 1860,-120 1987.8611,-77.526 2027.995,-105.4978 2161,-84 2167.3573,-82.9725 2174.0109,-81.7761 2180.5882,-80.5196"/>
<polygon fill="#191970" stroke="#191970" points="2181.6702,-83.8739 2190.8075,-78.511 2180.3202,-77.0053 2181.6702,-83.8739"/>
</g>
<!-- Node23 -->
<g id="node24" class="node">
<title>Node23</title>
<g id="a_node24"><a xlink:href="numerics_8hpp.html" target="_top" xlink:title="../../utils/numerics.hpp">
<polygon fill="#ffffff" stroke="#000000" points="362.3696,-120.5 362.3696,-138.5 475.6304,-138.5 475.6304,-120.5 362.3696,-120.5"/>
<text text-anchor="middle" x="419" y="-126.5" font-family="Helvetica,sans-Serif" font-size="10.00" fill="#000000">../../utils/numerics.hpp</text>
</a>
</g>
</g>
<!-- Node22&#45;&gt;Node23 -->
<g id="edge35" class="edge">
<title>Node22&#45;&gt;Node23</title>
<path fill="none" stroke="#191970" d="M1144.0071,-186.2012C1034.9019,-178.4868 755.9593,-158.4445 523,-139 511.0018,-137.9985 498.2303,-136.8774 485.894,-135.7661"/>
<polygon fill="#191970" stroke="#191970" points="485.9357,-132.2556 475.6604,-134.8377 485.3033,-139.2269 485.9357,-132.2556"/>
</g>
<!-- Node23&#45;&gt;Node4 -->
<g id="edge36" class="edge">
<title>Node23&#45;&gt;Node4</title>
<path fill="none" stroke="#191970" d="M403.8122,-120.3873C387.5659,-110.6395 361.585,-95.051 342.6557,-83.6934"/>
<polygon fill="#191970" stroke="#191970" points="344.3788,-80.6456 334.0031,-78.5019 340.7773,-86.6481 344.3788,-80.6456"/>
</g>
<!-- Node23&#45;&gt;Node5 -->
<g id="edge39" class="edge">
<title>Node23&#45;&gt;Node5</title>
<path fill="none" stroke="#191970" d="M457.5926,-120.4562C491.1375,-112.2026 540.8325,-99.0262 583,-84 584.4,-83.5011 585.8243,-82.97 587.2562,-82.4169"/>
<polygon fill="#191970" stroke="#191970" points="588.7254,-85.5972 596.643,-78.5572 586.0633,-79.1232 588.7254,-85.5972"/>
</g>
<!-- Node23&#45;&gt;Node7 -->
<g id="edge41" class="edge">
<title>Node23&#45;&gt;Node7</title>
<path fill="none" stroke="#191970" d="M439.5036,-120.3873C462.1339,-110.3294 498.7555,-94.0531 524.4745,-82.6225"/>
<polygon fill="#191970" stroke="#191970" points="526.0292,-85.7617 533.7458,-78.5019 523.1862,-79.365 526.0292,-85.7617"/>
</g>
<!-- Node23&#45;&gt;Node10 -->
<g id="edge38" class="edge">
<title>Node23&#45;&gt;Node10</title>
<path fill="none" stroke="#191970" d="M433.2398,-120.3409C447.1203,-111.3268 468.7442,-97.0546 487,-84 504.2813,-71.6423 505.4543,-63.3262 525,-55 571.5872,-35.1545 719.2923,-19.0163 785.8802,-12.5492"/>
<polygon fill="#191970" stroke="#191970" points="786.5944,-15.997 796.2154,-11.5601 785.9275,-9.0288 786.5944,-15.997"/>
</g>
<!-- Node23&#45;&gt;Node18 -->
<g id="edge42" class="edge">
<title>Node23&#45;&gt;Node18</title>
<path fill="none" stroke="#191970" d="M475.6958,-123.6651C596.5129,-111.2311 875.9865,-82.4688 970.2763,-72.7649"/>
<polygon fill="#191970" stroke="#191970" points="970.744,-76.2353 980.3331,-71.7299 970.0273,-69.2721 970.744,-76.2353"/>
</g>
<!-- Node23&#45;&gt;Node24 -->
<g id="edge37" class="edge">
<title>Node23&#45;&gt;Node24</title>
<path fill="none" stroke="#191970" d="M414.1399,-120.3873C409.535,-111.7531 402.4861,-98.5365 396.7262,-87.7366"/>
<polygon fill="#191970" stroke="#191970" points="399.7,-85.8749 391.9058,-78.6985 393.5235,-89.1691 399.7,-85.8749"/>
</g>
<!-- Node23&#45;&gt;Node25 -->
<g id="edge40" class="edge">
<title>Node23&#45;&gt;Node25</title>
<path fill="none" stroke="#191970" d="M424.012,-120.3873C428.7608,-111.7531 436.0299,-98.5365 441.9699,-87.7366"/>
<polygon fill="#191970" stroke="#191970" points="445.1884,-89.1474 446.9408,-78.6985 439.0548,-85.7739 445.1884,-89.1474"/>
</g>
<!-- Node26&#45;&gt;Node8 -->
<g id="edge53" class="edge">
<title>Node26&#45;&gt;Node8</title>
<path fill="none" stroke="#191970" d="M1716.3073,-121.6918C1711.4779,-121.0683 1706.65,-120.4909 1702,-120 1457.9453,-94.2341 1391.1969,-134.3192 1151,-84 1148.1533,-83.4036 1145.236,-82.6477 1142.3372,-81.7954"/>
<polygon fill="#191970" stroke="#191970" points="1143.275,-78.4194 1132.682,-78.6181 1141.0869,-85.0687 1143.275,-78.4194"/>
</g>
<!-- Node26&#45;&gt;Node9 -->
<g id="edge44" class="edge">
<title>Node26&#45;&gt;Node9</title>
<path fill="none" stroke="#191970" d="M1817.7178,-121.9067C1822.542,-121.2389 1827.3618,-120.5925 1832,-120 1977.9093,-101.3607 2015.6735,-106.7408 2161,-84 2167.5974,-82.9676 2174.5112,-81.74 2181.3266,-80.4425"/>
<polygon fill="#191970" stroke="#191970" points="2182.0545,-83.8665 2191.1932,-78.5061 2180.7063,-76.9976 2182.0545,-83.8665"/>
</g>
<!-- Node27 -->
<g id="node28" class="node">
<title>Node27</title>
<polygon fill="#ffffff" stroke="#bfbfbf" points="1397.6997,-60.5 1397.6997,-78.5 1494.3003,-78.5 1494.3003,-60.5 1397.6997,-60.5"/>
<text text-anchor="middle" x="1446" y="-66.5" font-family="Helvetica,sans-Serif" font-size="10.00" fill="#000000">cereal/access.hpp</text>
</g>
<!-- Node26&#45;&gt;Node27 -->
<g id="edge45" class="edge">
<title>Node26&#45;&gt;Node27</title>
<path fill="none" stroke="#191970" d="M1716.1634,-121.9508C1662.8362,-113.7488 1576.6912,-99.698 1503,-84 1498.612,-83.0652 1494.0512,-82.0242 1489.5061,-80.941"/>
<polygon fill="#191970" stroke="#191970" points="1490.2002,-77.5076 1479.6545,-78.5269 1488.5341,-84.3064 1490.2002,-77.5076"/>
</g>
<!-- Node28 -->
<g id="node29" class="node">
<title>Node28</title>
<polygon fill="#ffffff" stroke="#bfbfbf" points="1512.0815,-60.5 1512.0815,-78.5 1635.9185,-78.5 1635.9185,-60.5 1512.0815,-60.5"/>
<text text-anchor="middle" x="1574" y="-66.5" font-family="Helvetica,sans-Serif" font-size="10.00" fill="#000000">cereal/archives/json.hpp</text>
</g>
<!-- Node26&#45;&gt;Node28 -->
<g id="edge46" class="edge">
<title>Node26&#45;&gt;Node28</title>
<path fill="none" stroke="#191970" d="M1737.6875,-120.3873C1704.3368,-110.0192 1649.7312,-93.0434 1612.8546,-81.5791"/>
<polygon fill="#191970" stroke="#191970" points="1613.5443,-78.1284 1602.956,-78.5019 1611.4662,-84.8128 1613.5443,-78.1284"/>
</g>
<!-- Node29 -->
<g id="node30" class="node">
<title>Node29</title>
<polygon fill="#ffffff" stroke="#bfbfbf" points="1653.9165,-55.5 1653.9165,-83.5 1776.0835,-83.5 1776.0835,-55.5 1653.9165,-55.5"/>
<text text-anchor="start" x="1661.9165" y="-71.5" font-family="Helvetica,sans-Serif" font-size="10.00" fill="#000000">cereal/archives/portable</text>
<text text-anchor="middle" x="1715" y="-61.5" font-family="Helvetica,sans-Serif" font-size="10.00" fill="#000000">_binary.hpp</text>
</g>
<!-- Node26&#45;&gt;Node29 -->
<g id="edge47" class="edge">
<title>Node26&#45;&gt;Node29</title>
<path fill="none" stroke="#191970" d="M1759.1023,-120.3873C1752.4664,-112.7304 1742.7072,-101.4698 1734.0552,-91.4868"/>
<polygon fill="#191970" stroke="#191970" points="1736.6289,-89.1123 1727.4346,-83.8477 1731.3391,-93.6968 1736.6289,-89.1123"/>
</g>
<!-- Node30 -->
<g id="node31" class="node">
<title>Node30</title>
<polygon fill="#ffffff" stroke="#bfbfbf" points="1793.6431,-60.5 1793.6431,-78.5 1886.3569,-78.5 1886.3569,-60.5 1793.6431,-60.5"/>
<text text-anchor="middle" x="1840" y="-66.5" font-family="Helvetica,sans-Serif" font-size="10.00" fill="#000000">cereal/cereal.hpp</text>
</g>
<!-- Node26&#45;&gt;Node30 -->
<g id="edge48" class="edge">
<title>Node26&#45;&gt;Node30</title>
<path fill="none" stroke="#191970" d="M1778.0871,-120.3873C1789.4496,-111.0483 1807.3348,-96.3481 1820.9667,-85.1438"/>
<polygon fill="#191970" stroke="#191970" points="1823.3055,-87.7521 1828.8085,-78.6985 1818.8607,-82.3443 1823.3055,-87.7521"/>
</g>
<!-- Node31 -->
<g id="node32" class="node">
<title>Node31</title>
<polygon fill="#ffffff" stroke="#bfbfbf" points="1903.8984,-60.5 1903.8984,-78.5 2018.1016,-78.5 2018.1016,-60.5 1903.8984,-60.5"/>
<text text-anchor="middle" x="1961" y="-66.5" font-family="Helvetica,sans-Serif" font-size="10.00" fill="#000000">cereal/types/array.hpp</text>
</g>
<!-- Node26&#45;&gt;Node31 -->
<g id="edge49" class="edge">
<title>Node26&#45;&gt;Node31</title>
<path fill="none" stroke="#191970" d="M1796.4644,-120.3873C1829.9879,-110.0192 1884.8764,-93.0434 1921.9441,-81.5791"/>
<polygon fill="#191970" stroke="#191970" points="1923.3746,-84.8004 1931.8939,-78.5019 1921.3062,-78.1129 1923.3746,-84.8004"/>
</g>
<!-- Node32 -->
<g id="node33" class="node">
<title>Node32</title>
<polygon fill="#ffffff" stroke="#bfbfbf" points="2035.9707,-60.5 2035.9707,-78.5 2152.0293,-78.5 2152.0293,-60.5 2035.9707,-60.5"/>
<text text-anchor="middle" x="2094" y="-66.5" font-family="Helvetica,sans-Serif" font-size="10.00" fill="#000000">cereal/types/bitset.hpp</text>
</g>
<!-- Node26&#45;&gt;Node32 -->
<g id="edge50" class="edge">
<title>Node26&#45;&gt;Node32</title>
<path fill="none" stroke="#191970" d="M1817.9274,-121.2048C1870.4255,-112.5091 1954.5945,-98.1646 2027,-84 2032.4019,-82.9432 2038.0388,-81.795 2043.6495,-80.6229"/>
<polygon fill="#191970" stroke="#191970" points="2044.6062,-83.998 2053.6639,-78.5019 2043.1557,-77.1499 2044.6062,-83.998"/>
</g>
<!-- Node33 -->
<g id="node34" class="node">
<title>Node33</title>
<polygon fill="#ffffff" stroke="#bfbfbf" points="1160.1382,-55.5 1160.1382,-83.5 1267.8618,-83.5 1267.8618,-55.5 1160.1382,-55.5"/>
<text text-anchor="start" x="1168.1382" y="-71.5" font-family="Helvetica,sans-Serif" font-size="10.00" fill="#000000">cereal/types/boost</text>
<text text-anchor="middle" x="1214" y="-61.5" font-family="Helvetica,sans-Serif" font-size="10.00" fill="#000000">_dynamic_bitset.hpp</text>
</g>
<!-- Node26&#45;&gt;Node33 -->
<g id="edge51" class="edge">
<title>Node26&#45;&gt;Node33</title>
<path fill="none" stroke="#191970" d="M1716.2968,-121.7865C1711.4696,-121.1435 1706.6451,-120.5357 1702,-120 1516.9011,-98.6539 1466.0112,-112.8292 1278.1271,-84.0298"/>
<polygon fill="#191970" stroke="#191970" points="1278.6199,-80.5645 1268.2012,-82.4882 1277.5456,-87.4816 1278.6199,-80.5645"/>
</g>
<!-- Node34 -->
<g id="node35" class="node">
<title>Node34</title>
<polygon fill="#ffffff" stroke="#bfbfbf" points="1286.0913,-55.5 1286.0913,-83.5 1379.9087,-83.5 1379.9087,-55.5 1286.0913,-55.5"/>
<text text-anchor="start" x="1294.0913" y="-71.5" font-family="Helvetica,sans-Serif" font-size="10.00" fill="#000000">cereal/types/eastl</text>
<text text-anchor="middle" x="1333" y="-61.5" font-family="Helvetica,sans-Serif" font-size="10.00" fill="#000000">_bitset.hpp</text>
</g>
<!-- Node26&#45;&gt;Node34 -->
<g id="edge52" class="edge">
<title>Node26&#45;&gt;Node34</title>
<path fill="none" stroke="#191970" d="M1716.2787,-121.9338C1711.4552,-121.2604 1706.6365,-120.6053 1702,-120 1566.4044,-102.2975 1528.4325,-109.263 1390.0849,-84.0338"/>
<polygon fill="#191970" stroke="#191970" points="1390.4172,-80.536 1379.9477,-82.1609 1389.1453,-87.4195 1390.4172,-80.536"/>
</g>
<!-- Node40&#45;&gt;Node8 -->
<g id="edge55" class="edge">
<title>Node40&#45;&gt;Node8</title>
<path fill="none" stroke="#191970" d="M1764.567,-180.4438C1745.8899,-164.8447 1704.8613,-133.3026 1664,-120 1446.6665,-49.2458 1374.5911,-131.4029 1151,-84 1148.1548,-83.3968 1145.2385,-82.6361 1142.3403,-81.7807"/>
<polygon fill="#191970" stroke="#191970" points="1143.2793,-78.405 1132.6862,-78.5983 1141.0878,-85.0531 1143.2793,-78.405"/>
</g>
<!-- Node40&#45;&gt;Node26 -->
<g id="edge56" class="edge">
<title>Node40&#45;&gt;Node26</title>
<path fill="none" stroke="#191970" d="M1773.785,-180.3873C1772.669,-172.0174 1770.9788,-159.3414 1769.5647,-148.735"/>
<polygon fill="#191970" stroke="#191970" points="1773.0175,-148.1481 1768.2265,-138.6985 1766.0789,-149.0734 1773.0175,-148.1481"/>
</g>
<!-- Node47&#45;&gt;Node1 -->
<g id="edge78" class="edge">
<title>Node47&#45;&gt;Node1</title>
<path fill="none" stroke="#191970" d="M242.1006,-491.7744C325.1133,-479.7836 448.2338,-461.9996 527.3012,-450.5787"/>
<polygon fill="#191970" stroke="#191970" points="528.2801,-453.9737 537.677,-449.08 527.2793,-447.0456 528.2801,-453.9737"/>
</g>
<!-- Node47&#45;&gt;Node4 -->
<g id="edge80" class="edge">
<title>Node47&#45;&gt;Node4</title>
<path fill="none" stroke="#191970" d="M146.4763,-490.1288C134.8893,-466.6218 114,-418.1853 114,-374.5 114,-374.5 114,-374.5 114,-189.5 114,-156.8212 114.2052,-142.3989 138,-120 158.4833,-100.7183 233.5101,-84.4974 280.2972,-75.9638"/>
<polygon fill="#191970" stroke="#191970" points="281.1631,-79.3646 290.3923,-74.1615 279.9328,-72.4736 281.1631,-79.3646"/>
</g>
<!-- Node47&#45;&gt;Node10 -->
<g id="edge81" class="edge">
<title>Node47&#45;&gt;Node10</title>
<path fill="none" stroke="#191970" d="M140.8968,-490.1587C132.9444,-480.6148 123.3308,-467.4069 118,-454 96.4486,-399.7984 105.2201,-382.0949 100,-324 89.1171,-202.8847 44.5803,-115.6139 150,-55 205.4669,-23.1078 659.0348,-12.4363 786.0522,-10.058"/>
<polygon fill="#191970" stroke="#191970" points="786.3737,-13.5528 796.3081,-9.8708 786.2459,-6.554 786.3737,-13.5528"/>
</g>
<!-- Node47&#45;&gt;Node14 -->
<g id="edge77" class="edge">
<title>Node47&#45;&gt;Node14</title>
<path fill="none" stroke="#191970" d="M242.1292,-496.9725C515.1321,-473.6543 1343.7746,-402.8767 1599.8081,-381.0078"/>
<polygon fill="#191970" stroke="#191970" points="1600.4562,-384.4653 1610.122,-380.1269 1599.8604,-377.4907 1600.4562,-384.4653"/>
</g>
<!-- Node47&#45;&gt;Node44 -->
<g id="edge79" class="edge">
<title>Node47&#45;&gt;Node44</title>
<path fill="none" stroke="#191970" d="M154.6712,-490.2316C156.0482,-473.4493 160.242,-445.3074 173,-425 180.4741,-413.1033 191.7282,-402.7205 202.6057,-394.5139"/>
<polygon fill="#191970" stroke="#191970" points="204.6789,-397.3342 210.7815,-388.6734 200.6099,-391.6382 204.6789,-397.3342"/>
</g>
<!-- Node48 -->
<g id="node43" class="node">
<title>Node48</title>
<polygon fill="#ffffff" stroke="#bfbfbf" points="182.0962,-430.5 182.0962,-448.5 225.9038,-448.5 225.9038,-430.5 182.0962,-430.5"/>
<text text-anchor="middle" x="204" y="-436.5" font-family="Helvetica,sans-Serif" font-size="10.00" fill="#000000">queue</text>
</g>
<!-- Node47&#45;&gt;Node48 -->
<g id="edge82" class="edge">
<title>Node47&#45;&gt;Node48</title>
<path fill="none" stroke="#191970" d="M164.8493,-490.396C172.4784,-480.4781 182.7291,-467.1522 190.8278,-456.6239"/>
<polygon fill="#191970" stroke="#191970" points="193.6968,-458.6346 197.0198,-448.5743 188.1484,-454.3666 193.6968,-458.6346"/>
</g>
<!-- Node49&#45;&gt;Node1 -->
<g id="edge86" class="edge">
<title>Node49&#45;&gt;Node1</title>
<path fill="none" stroke="#191970" d="M1084.4948,-494.4862C973.969,-481.838 785.5645,-460.2776 680.5165,-448.2563"/>
<polygon fill="#191970" stroke="#191970" points="680.6386,-444.7475 670.3055,-447.0878 679.8427,-451.7021 680.6386,-444.7475"/>
</g>
<!-- Node49&#45;&gt;Node3 -->
<g id="edge85" class="edge">
<title>Node49&#45;&gt;Node3</title>
<path fill="none" stroke="#191970" d="M1084.5617,-494.5356C1020.5715,-485.953 940.2056,-472.0927 912,-454 783.5808,-371.6243 834.0119,-266.5987 712,-175 690.6343,-158.96 663.1346,-148.2307 639.0184,-141.2422"/>
<polygon fill="#191970" stroke="#191970" points="639.8379,-137.8377 629.2679,-138.5625 637.9829,-144.5874 639.8379,-137.8377"/>
</g>
<!-- Node49&#45;&gt;Node10 -->
<g id="edge88" class="edge">
<title>Node49&#45;&gt;Node10</title>
<path fill="none" stroke="#191970" d="M1141.893,-490.492C1104.2935,-471.773 1039.8334,-435.4953 998,-389 895.7524,-275.358 894.4811,-226.4462 839,-84 831.8818,-65.7243 826.3625,-43.9768 822.9422,-28.711"/>
<polygon fill="#191970" stroke="#191970" points="826.3531,-27.9243 820.8299,-18.8831 819.5094,-29.3953 826.3531,-27.9243"/>
</g>
<!-- Node49&#45;&gt;Node14 -->
<g id="edge84" class="edge">
<title>Node49&#45;&gt;Node14</title>
<path fill="none" stroke="#191970" d="M1226.4157,-490.4642C1326.6373,-464.6134 1538.596,-409.9415 1631.1643,-386.0648"/>
<polygon fill="#191970" stroke="#191970" points="1632.2503,-389.3993 1641.0592,-383.5125 1630.5019,-382.6211 1632.2503,-389.3993"/>
</g>
<!-- Node49&#45;&gt;Node18 -->
<g id="edge90" class="edge">
<title>Node49&#45;&gt;Node18</title>
<path fill="none" stroke="#191970" d="M1259.541,-498.6261C1485.2881,-481.684 2063.6652,-426.0114 1977,-305 1895.8199,-191.6475 1799.0203,-276.6167 1680,-204 1634.1173,-176.006 1642.113,-141.8358 1593,-120 1486.7523,-72.762 1186.1702,-99.9944 1071,-84 1058.6217,-82.2809 1045.1423,-79.6269 1033.4089,-77.057"/>
<polygon fill="#191970" stroke="#191970" points="1034.144,-73.6349 1023.6186,-74.8459 1032.6019,-80.463 1034.144,-73.6349"/>
</g>
<!-- Node49&#45;&gt;Node43 -->
<g id="edge89" class="edge">
<title>Node49&#45;&gt;Node43</title>
<path fill="none" stroke="#191970" d="M1259.3624,-497.5393C1384.6835,-485.6025 1621.3851,-455.7386 1812,-389 1855.4452,-373.7889 1901.6952,-346.176 1928.0967,-329.1763"/>
<polygon fill="#191970" stroke="#191970" points="1930.1106,-332.0414 1936.5703,-323.6436 1926.2836,-326.1801 1930.1106,-332.0414"/>
</g>
<!-- Node49&#45;&gt;Node45 -->
<g id="edge87" class="edge">
<title>Node49&#45;&gt;Node45</title>
<path fill="none" stroke="#191970" d="M1259.3617,-501.5608C1467.7426,-494.2374 1978.9765,-474.3005 2010,-454 2049.2526,-428.3148 2036.3901,-401.6354 2058,-360 2062.7313,-350.8842 2068.055,-340.7766 2072.484,-332.4078"/>
<polygon fill="#191970" stroke="#191970" points="2075.5906,-334.0204 2077.1833,-323.5459 2069.4063,-330.7409 2075.5906,-334.0204"/>
</g>
<!-- Node50&#45;&gt;Node9 -->
<g id="edge92" class="edge">
<title>Node50&#45;&gt;Node9</title>
<path fill="none" stroke="#191970" d="M2177.3142,-365.4001C2186.2592,-345.67 2206,-297.2813 2206,-254.5 2206,-254.5 2206,-254.5 2206,-189.5 2206,-153.0634 2217.5912,-111.7859 2225.2948,-88.3761"/>
<polygon fill="#191970" stroke="#191970" points="2228.6835,-89.2829 2228.601,-78.6884 2222.0587,-87.022 2228.6835,-89.2829"/>
</g>
<!-- Node50&#45;&gt;Node10 -->
<g id="edge94" class="edge">
<title>Node50&#45;&gt;Node10</title>
<path fill="none" stroke="#191970" d="M2099.6421,-371.9387C1920.9835,-365.4158 1466.9929,-347.0514 1317,-324 1217.8086,-308.756 1186.7122,-315.9196 1098,-269 988.6351,-211.1573 978.9748,-169.9649 890,-84 884.4133,-78.6023 853.6494,-46.1553 834.4951,-25.9021"/>
<polygon fill="#191970" stroke="#191970" points="836.98,-23.4359 827.567,-18.5731 831.893,-28.2445 836.98,-23.4359"/>
</g>
<!-- Node50&#45;&gt;Node18 -->
<g id="edge97" class="edge">
<title>Node50&#45;&gt;Node18</title>
<path fill="none" stroke="#191970" d="M2171.5857,-365.4946C2167.0893,-340.2883 2150.5688,-268.981 2104,-240 1959.5928,-150.1315 1879.3979,-270.854 1723,-204 1670.5607,-181.5842 1678.7635,-141.6416 1626,-120 1511.6523,-73.0989 1193.4521,-100.751 1071,-84 1058.8361,-82.336 1045.6123,-79.7502 1034.0262,-77.2203"/>
<polygon fill="#191970" stroke="#191970" points="1034.4489,-73.7277 1023.9237,-74.9407 1032.908,-80.5561 1034.4489,-73.7277"/>
</g>
<!-- Node50&#45;&gt;Node43 -->
<g id="edge95" class="edge">
<title>Node50&#45;&gt;Node43</title>
<path fill="none" stroke="#191970" d="M2139.1311,-365.3873C2094.9692,-353.5052 2018.5524,-332.9446 1977.6787,-321.9472"/>
<polygon fill="#191970" stroke="#191970" points="1978.4234,-318.5231 1967.8574,-319.3047 1976.6046,-325.2827 1978.4234,-318.5231"/>
</g>
<!-- Node50&#45;&gt;Node45 -->
<g id="edge93" class="edge">
<title>Node50&#45;&gt;Node45</title>
<path fill="none" stroke="#191970" d="M2159.1791,-365.3873C2144.6637,-355.8168 2121.6092,-340.6159 2104.4725,-329.3171"/>
<polygon fill="#191970" stroke="#191970" points="2105.9281,-326.0845 2095.6528,-323.5019 2102.0749,-331.9285 2105.9281,-326.0845"/>
</g>
<!-- Node51 -->
<g id="node46" class="node">
<title>Node51</title>
<polygon fill="#ffffff" stroke="#bfbfbf" points="2233.6973,-305.5 2233.6973,-323.5 2320.3027,-323.5 2320.3027,-305.5 2233.6973,-305.5"/>
<text text-anchor="middle" x="2277" y="-311.5" font-family="Helvetica,sans-Serif" font-size="10.00" fill="#000000">unordered_map</text>
</g>
<!-- Node50&#45;&gt;Node51 -->
<g id="edge96" class="edge">
<title>Node50&#45;&gt;Node51</title>
<path fill="none" stroke="#191970" d="M2188.7954,-365.3873C2205.7683,-355.5952 2232.9574,-339.9092 2252.6661,-328.5388"/>
<polygon fill="#191970" stroke="#191970" points="2254.4839,-331.5308 2261.3968,-323.5019 2250.9858,-325.4675 2254.4839,-331.5308"/>
</g>
<!-- Node52&#45;&gt;Node5 -->
<g id="edge105" class="edge">
<title>Node52&#45;&gt;Node5</title>
<path fill="none" stroke="#191970" d="M1070.6759,-365.4954C1040.5106,-329.0061 921.4136,-190.7249 793,-120 746.8883,-94.6036 686.8268,-80.9806 649.8642,-74.4951"/>
<polygon fill="#191970" stroke="#191970" points="650.0702,-70.9809 639.6291,-72.7787 648.9125,-77.8845 650.0702,-70.9809"/>
</g>
<!-- Node52&#45;&gt;Node6 -->
<g id="edge107" class="edge">
<title>Node52&#45;&gt;Node6</title>
<path fill="none" stroke="#191970" d="M1148.6165,-371.059C1244.6642,-365.5152 1421.5376,-352.2337 1570,-324 1790.6958,-282.0293 2310.0808,-103.2791 2324,-84 2335.446,-68.1465 2332.6811,-45.048 2328.4948,-28.7833"/>
<polygon fill="#191970" stroke="#191970" points="2331.7286,-27.3778 2325.5267,-18.7878 2325.0182,-29.3705 2331.7286,-27.3778"/>
</g>
<!-- Node52&#45;&gt;Node9 -->
<g id="edge102" class="edge">
<title>Node52&#45;&gt;Node9</title>
<path fill="none" stroke="#191970" d="M1148.8921,-370.7404C1236.1133,-365.1067 1388.3305,-351.9879 1516,-324 1683.2158,-287.3428 1722.3674,-265.8248 1882,-204 1966.9617,-171.0948 1983.7716,-152.208 2069,-120 2108.9324,-104.9095 2155.553,-90.8075 2188.6814,-81.3622"/>
<polygon fill="#191970" stroke="#191970" points="2189.8364,-84.6729 2198.5071,-78.5845 2187.9321,-77.9369 2189.8364,-84.6729"/>
</g>
<!-- Node52&#45;&gt;Node11 -->
<g id="edge104" class="edge">
<title>Node52&#45;&gt;Node11</title>
<path fill="none" stroke="#191970" d="M1148.7714,-371.0139C1275.2639,-363.0616 1531.5699,-338.5461 1581,-269 1603.1451,-237.8427 1553.9311,-214.6695 1513.6189,-201.6138"/>
<polygon fill="#191970" stroke="#191970" points="1514.4619,-198.2108 1503.8739,-198.5919 1512.3886,-204.8968 1514.4619,-198.2108"/>
</g>
<!-- Node52&#45;&gt;Node15 -->
<g id="edge103" class="edge">
<title>Node52&#45;&gt;Node15</title>
<path fill="none" stroke="#191970" d="M1122.0315,-365.4524C1173.9269,-354.789 1260.1527,-337.0714 1316.0243,-325.5909"/>
<polygon fill="#191970" stroke="#191970" points="1316.9975,-328.9641 1326.0884,-323.5229 1315.5885,-322.1074 1316.9975,-328.9641"/>
</g>
<!-- Node52&#45;&gt;Node18 -->
<g id="edge110" class="edge">
<title>Node52&#45;&gt;Node18</title>
<path fill="none" stroke="#191970" d="M1075.7255,-365.372C1065.2146,-323.1902 1021.241,-146.7171 1006.6946,-88.3403"/>
<polygon fill="#191970" stroke="#191970" points="1010.0798,-87.4495 1004.2657,-78.5924 1003.2875,-89.142 1010.0798,-87.4495"/>
</g>
<!-- Node52&#45;&gt;Node22 -->
<g id="edge101" class="edge">
<title>Node52&#45;&gt;Node22</title>
<path fill="none" stroke="#191970" d="M1083.6037,-365.3258C1100.6255,-337.4582 1152.0862,-253.2084 1177.0796,-212.2901"/>
<polygon fill="#191970" stroke="#191970" points="1180.1837,-213.9225 1182.4095,-203.564 1174.21,-210.2736 1180.1837,-213.9225"/>
</g>
<!-- Node52&#45;&gt;Node43 -->
<g id="edge106" class="edge">
<title>Node52&#45;&gt;Node43</title>
<path fill="none" stroke="#191970" d="M1148.6081,-370.3472C1283.4397,-362.303 1586.8686,-343.6507 1842,-324 1869.132,-321.9102 1900.0637,-319.151 1921.8501,-317.1449"/>
<polygon fill="#191970" stroke="#191970" points="1922.4128,-320.6078 1932.047,-316.1994 1921.7665,-313.6377 1922.4128,-320.6078"/>
</g>
<!-- Node52&#45;&gt;Node46 -->
<g id="edge108" class="edge">
<title>Node52&#45;&gt;Node46</title>
<path fill="none" stroke="#191970" d="M1008.4845,-365.4524C903.8849,-351.8386 710.9441,-326.727 642.1668,-317.7755"/>
<polygon fill="#191970" stroke="#191970" points="642.2395,-314.2555 631.8714,-316.4355 641.336,-321.197 642.2395,-314.2555"/>
</g>
<!-- Node52&#45;&gt;Node53 -->
<g id="edge109" class="edge">
<title>Node52&#45;&gt;Node53</title>
<path fill="none" stroke="#191970" d="M1046.2574,-365.3873C1009.3069,-354.7795 948.2627,-337.2548 908.337,-325.7929"/>
<polygon fill="#191970" stroke="#191970" points="909.2466,-322.4127 898.669,-323.0174 907.315,-329.141 909.2466,-322.4127"/>
</g>
<!-- Node54&#45;&gt;Node7 -->
<g id="edge113" class="edge">
<title>Node54&#45;&gt;Node7</title>
<path fill="none" stroke="#191970" d="M687.2613,-120.4738C659.6048,-112.0396 618.0508,-98.5869 583,-84 582.1587,-83.6499 581.3079,-83.2861 580.4521,-82.9117"/>
<polygon fill="#191970" stroke="#191970" points="581.842,-79.698 571.3002,-78.6389 578.8806,-86.0408 581.842,-79.698"/>
</g>
<!-- Node54&#45;&gt;Node18 -->
<g id="edge114" class="edge">
<title>Node54&#45;&gt;Node18</title>
<path fill="none" stroke="#191970" d="M760.8252,-120.4524C818.3781,-108.2934 919.344,-86.9625 970.4523,-76.165"/>
<polygon fill="#191970" stroke="#191970" points="971.2144,-79.5813 980.275,-74.0898 969.7674,-72.7325 971.2144,-79.5813"/>
</g>
</g>
</svg>
        <g id="navigator" transform="translate(0 0)" fill="#404254">
                <rect fill="#f2f5e9" fill-opacity="0.5" stroke="#606060" stroke-width=".5" x="0" y="0" width="60" height="60"/>
                <use id="zoomplus" xlink:href="#zoomPlus" x="17" y="9" onmousedown="handleZoom(evt,'in')"/>
                <use id="zoomminus" xlink:href="#zoomMin" x="42" y="9" onmousedown="handleZoom(evt,'out')"/>
                <use id="reset" xlink:href="#resetDef" x="30" y="36" onmousedown="handleReset()"/>
                <g id="arrowUp" xlink:href="#dirArrow" transform="translate(30 24)" onmousedown="handlePan(0,-1)">
                  <use xlink:href="#rim" fill="#404040">
                        <set attributeName="fill" to="#808080" begin="arrowUp.mouseover" end="arrowUp.mouseout"/>
                  </use>
                  <path fill="none" stroke="white" stroke-width="1.5" d="M0,-3.0v7 M-2.5,-0.5L0,-3.0L2.5,-0.5"/>
                </g>
                <g id="arrowRight" xlink:href="#dirArrow" transform="rotate(90) translate(36 -43)" onmousedown="handlePan(1,0)">
                  <use xlink:href="#rim" fill="#404040">
                        <set attributeName="fill" to="#808080" begin="arrowRight.mouseover" end="arrowRight.mouseout"/>
                  </use>
                  <path fill="none" stroke="white" stroke-width="1.5" d="M0,-3.0v7 M-2.5,-0.5L0,-3.0L2.5,-0.5"/>
                </g>
                <g id="arrowDown" xlink:href="#dirArrow" transform="rotate(180) translate(-30 -48)" onmousedown="handlePan(0,1)">
                  <use xlink:href="#rim" fill="#404040">
                        <set attributeName="fill" to="#808080" begin="arrowDown.mouseover" end="arrowDown.mouseout"/>
                  </use>
                  <path fill="none" stroke="white" stroke-width="1.5" d="M0,-3.0v7 M-2.5,-0.5L0,-3.0L2.5,-0.5"/>
                </g>
                <g id="arrowLeft" xlink:href="#dirArrow" transform="rotate(270) translate(-36 17)" onmousedown="handlePan(-1,0)">
                  <use xlink:href="#rim" fill="#404040">
                        <set attributeName="fill" to="#808080" begin="arrowLeft.mouseover" end="arrowLeft.mouseout"/>
                  </use>
                  <path fill="none" stroke="white" stroke-width="1.5" d="M0,-3.0v7 M-2.5,-0.5L0,-3.0L2.5,-0.5"/>
                </g>
        </g>
        <svg viewBox="0 0 15 15" width="100%" height="30px" preserveAspectRatio="xMaxYMin meet">
         <g id="arrow_out" transform="scale(0.3 0.3)">
          <a xlink:href="assigner_8cpp__incl_org.svg" target="_base">
           <rect id="button" ry="5" rx="5" y="6" x="6" height="38" width="38"
                fill="#f2f5e9" fill-opacity="0.5" stroke="#606060" stroke-width="1.0"/>
           <path id="arrow"
             d="M 11.500037,31.436501 C 11.940474,20.09759 22.043105,11.32322 32.158766,21.979434 L 37.068811,17.246167 C 37.068811,17.246167 37.088388,32 37.088388,32 L 22.160133,31.978069 C 22.160133,31.978069 26.997745,27.140456 26.997745,27.140456 C 18.528582,18.264221 13.291696,25.230495 11.500037,31.436501 z"
             style="fill:#404040;"/>
          </a>
         </g>
        </svg>
</svg>
