<?xml version="1.0" encoding="UTF-8" standalone="no"?>
<!DOCTYPE svg PUBLIC "-//W3C//DTD SVG 1.1//EN"
 "http://www.w3.org/Graphics/SVG/1.1/DTD/svg11.dtd">
<!-- Generated by graphviz version 2.40.1 (20161225.0304)
 -->
<!-- Title: include/indigox/graph/assignment.hpp Pages: 1 -->
<svg width="332pt" height="177pt"
 viewBox="0.00 0.00 332.23 177.00" xmlns="http://www.w3.org/2000/svg" xmlns:xlink="http://www.w3.org/1999/xlink">
<g id="graph0" class="graph" transform="scale(1 1) rotate(0) translate(4 173)">
<title>include/indigox/graph/assignment.hpp</title>
<polygon fill="#ffffff" stroke="transparent" points="-4,4 -4,-173 328.231,-173 328.231,4 -4,4"/>
<!-- Node39 -->
<g id="node1" class="node">
<title>Node39</title>
<g id="a_node1"><a xlink:title=" ">
<polygon fill="#bfbfbf" stroke="#000000" points="107.7759,-140.5 107.7759,-168.5 218.2876,-168.5 218.2876,-140.5 107.7759,-140.5"/>
<text text-anchor="start" x="115.7759" y="-156.5" font-family="Helvetica,sans-Serif" font-size="10.00" fill="#000000">include/indigox/graph</text>
<text text-anchor="middle" x="163.0317" y="-146.5" font-family="Helvetica,sans-Serif" font-size="10.00" fill="#000000">/assignment.hpp</text>
</a>
</g>
</g>
<!-- Node40 -->
<g id="node2" class="node">
<title>Node40</title>
<g id="a_node2"><a xlink:href="assigner_8hpp.html" target="_top" xlink:title=" ">
<polygon fill="#ffffff" stroke="#000000" points="77.7588,-75.5 77.7588,-103.5 248.3047,-103.5 248.3047,-75.5 77.7588,-75.5"/>
<text text-anchor="start" x="85.7588" y="-91.5" font-family="Helvetica,sans-Serif" font-size="10.00" fill="#000000">include/indigox/algorithm</text>
<text text-anchor="middle" x="163.0317" y="-81.5" font-family="Helvetica,sans-Serif" font-size="10.00" fill="#000000">/electron_assignment/assigner.hpp</text>
</a>
</g>
</g>
<!-- Node39&#45;&gt;Node40 -->
<g id="edge1" class="edge">
<title>Node39&#45;&gt;Node40</title>
<path fill="none" stroke="#191970" d="M163.0317,-130.1081C163.0317,-121.1539 163.0317,-111.3227 163.0317,-103.5765"/>
<polygon fill="#191970" stroke="#191970" points="159.5318,-130.3959 163.0317,-140.396 166.5318,-130.396 159.5318,-130.3959"/>
</g>
<!-- Node41 -->
<g id="node3" class="node">
<title>Node41</title>
<g id="a_node3"><a xlink:href="astar__optimisation_8hpp.html" target="_top" xlink:title=" ">
<polygon fill="#ffffff" stroke="#000000" points="0,-.5 0,-38.5 136.0635,-38.5 136.0635,-.5 0,-.5"/>
<text text-anchor="start" x="8" y="-26.5" font-family="Helvetica,sans-Serif" font-size="10.00" fill="#000000">include/indigox/algorithm</text>
<text text-anchor="start" x="8" y="-16.5" font-family="Helvetica,sans-Serif" font-size="10.00" fill="#000000">/electron_assignment/astar</text>
<text text-anchor="middle" x="68.0317" y="-6.5" font-family="Helvetica,sans-Serif" font-size="10.00" fill="#000000">_optimisation.hpp</text>
</a>
</g>
</g>
<!-- Node39&#45;&gt;Node41 -->
<g id="edge4" class="edge">
<title>Node39&#45;&gt;Node41</title>
<path fill="none" stroke="#191970" d="M105.933,-135.9688C91.419,-128.4091 77.5392,-118.0387 69.0317,-104 57.0942,-84.3011 59.4227,-56.9825 63.0089,-38.7993"/>
<polygon fill="#191970" stroke="#191970" points="104.4791,-139.1532 115.0095,-140.3202 107.5053,-132.8411 104.4791,-139.1532"/>
</g>
<!-- Node42 -->
<g id="node4" class="node">
<title>Node42</title>
<g id="a_node4"><a xlink:href="local__optimisation_8hpp.html" target="_top" xlink:title=" ">
<polygon fill="#ffffff" stroke="#000000" points="189.8325,-.5 189.8325,-38.5 324.231,-38.5 324.231,-.5 189.8325,-.5"/>
<text text-anchor="start" x="197.8325" y="-26.5" font-family="Helvetica,sans-Serif" font-size="10.00" fill="#000000">include/indigox/algorithm</text>
<text text-anchor="start" x="197.8325" y="-16.5" font-family="Helvetica,sans-Serif" font-size="10.00" fill="#000000">/electron_assignment/local</text>
<text text-anchor="middle" x="257.0317" y="-6.5" font-family="Helvetica,sans-Serif" font-size="10.00" fill="#000000">_optimisation.hpp</text>
</a>
</g>
</g>
<!-- Node39&#45;&gt;Node42 -->
<g id="edge5" class="edge">
<title>Node39&#45;&gt;Node42</title>
<path fill="none" stroke="#191970" d="M220.2372,-136.0331C234.7533,-128.4746 248.6075,-118.0887 257.0317,-104 268.8517,-84.2322 266.1737,-56.9292 262.3348,-38.7684"/>
<polygon fill="#191970" stroke="#191970" points="218.6637,-132.9059 211.1561,-140.3817 221.687,-139.2194 218.6637,-132.9059"/>
</g>
<!-- Node40&#45;&gt;Node41 -->
<g id="edge2" class="edge">
<title>Node40&#45;&gt;Node41</title>
<path fill="none" stroke="#191970" d="M135.6239,-69.3047C122.5427,-59.6659 106.969,-48.1906 94.0694,-38.6857"/>
<polygon fill="#191970" stroke="#191970" points="133.6803,-72.2201 143.8071,-75.3345 137.8327,-66.5847 133.6803,-72.2201"/>
</g>
<!-- Node40&#45;&gt;Node42 -->
<g id="edge3" class="edge">
<title>Node40&#45;&gt;Node42</title>
<path fill="none" stroke="#191970" d="M190.1511,-69.3047C203.0946,-59.6659 218.5043,-48.1906 231.2681,-38.6857"/>
<polygon fill="#191970" stroke="#191970" points="187.984,-66.5546 182.054,-75.3345 192.1649,-72.1689 187.984,-66.5546"/>
</g>
</g>
</svg>
