<?xml version="1.0" encoding="UTF-8" standalone="no"?>
<!DOCTYPE svg PUBLIC "-//W3C//DTD SVG 1.1//EN"
 "http://www.w3.org/Graphics/SVG/1.1/DTD/svg11.dtd">
<!-- Generated by graphviz version 2.40.1 (20161225.0304)
 -->
<!-- Title: include/indigox/algorithm/electron_assignment/assigner.hpp Pages: 1 -->
<svg width="2804pt" height="472pt"
 viewBox="0.00 0.00 2804.39 472.00" xmlns="http://www.w3.org/2000/svg" xmlns:xlink="http://www.w3.org/1999/xlink">
<g id="graph0" class="graph" transform="scale(1 1) rotate(0) translate(4 468)">
<title>include/indigox/algorithm/electron_assignment/assigner.hpp</title>
<polygon fill="#ffffff" stroke="transparent" points="-4,4 -4,-468 2800.3867,-468 2800.3867,4 -4,4"/>
<!-- Node0 -->
<g id="node1" class="node">
<title>Node0</title>
<polygon fill="#bfbfbf" stroke="#000000" points="980.7271,-435.5 980.7271,-463.5 1151.2729,-463.5 1151.2729,-435.5 980.7271,-435.5"/>
<text text-anchor="start" x="988.7271" y="-451.5" font-family="Helvetica,sans-Serif" font-size="10.00" fill="#000000">include/indigox/algorithm</text>
<text text-anchor="middle" x="1066" y="-441.5" font-family="Helvetica,sans-Serif" font-size="10.00" fill="#000000">/electron_assignment/assigner.hpp</text>
</g>
<!-- Node1 -->
<g id="node2" class="node">
<title>Node1</title>
<g id="a_node2"><a xlink:href="periodictable_8hpp.html" target="_top" xlink:title="../../classes/periodictable.hpp">
<polygon fill="#ffffff" stroke="#000000" points="184.52,-255.5 184.52,-273.5 329.48,-273.5 329.48,-255.5 184.52,-255.5"/>
<text text-anchor="middle" x="257" y="-261.5" font-family="Helvetica,sans-Serif" font-size="10.00" fill="#000000">../../classes/periodictable.hpp</text>
</a>
</g>
</g>
<!-- Node0&#45;&gt;Node1 -->
<g id="edge1" class="edge">
<title>Node0&#45;&gt;Node1</title>
<path fill="none" stroke="#191970" d="M980.4114,-446.6999C808.6303,-440.5721 433.7197,-424.453 381,-399 327.0612,-372.9584 285.2993,-312.2928 267.0457,-282.1494"/>
<polygon fill="#191970" stroke="#191970" points="270.0517,-280.3565 261.9596,-273.5177 264.0208,-283.9101 270.0517,-280.3565"/>
</g>
<!-- Node2 -->
<g id="node3" class="node">
<title>Node2</title>
<g id="a_node3"><a xlink:href="common_8hpp.html" target="_top" xlink:title="../utils/common.hpp">
<polygon fill="#ffffff" stroke="#000000" points="264.6479,-125.5 264.6479,-143.5 367.3521,-143.5 367.3521,-125.5 264.6479,-125.5"/>
<text text-anchor="middle" x="316" y="-131.5" font-family="Helvetica,sans-Serif" font-size="10.00" fill="#000000">../utils/common.hpp</text>
</a>
</g>
</g>
<!-- Node0&#45;&gt;Node2 -->
<g id="edge71" class="edge">
<title>Node0&#45;&gt;Node2</title>
<path fill="none" stroke="#191970" d="M980.6785,-447.1878C747.0091,-439.729 114,-411.4947 114,-324.5 114,-324.5 114,-324.5 114,-264.5 114,-228.1716 107.761,-211.1294 133,-185 149.9059,-167.4977 208.1959,-153.3844 254.503,-144.5738"/>
<polygon fill="#191970" stroke="#191970" points="255.2889,-147.9877 264.4818,-142.7207 254.0108,-141.1054 255.2889,-147.9877"/>
</g>
<!-- Node6 -->
<g id="node7" class="node">
<title>Node6</title>
<polygon fill="#ffffff" stroke="#bfbfbf" points="264.7734,-60.5 264.7734,-78.5 305.2266,-78.5 305.2266,-60.5 264.7734,-60.5"/>
<text text-anchor="middle" x="285" y="-66.5" font-family="Helvetica,sans-Serif" font-size="10.00" fill="#000000">string</text>
</g>
<!-- Node0&#45;&gt;Node6 -->
<g id="edge79" class="edge">
<title>Node0&#45;&gt;Node6</title>
<path fill="none" stroke="#191970" d="M980.5556,-448.8341C790.598,-446.6633 338.411,-437.4882 191,-399 117.8203,-379.8932 38,-400.133 38,-324.5 38,-324.5 38,-324.5 38,-199.5 38,-102.8737 187.8528,-77.9027 254.1165,-71.5842"/>
<polygon fill="#191970" stroke="#191970" points="254.7065,-75.0462 264.3658,-70.6932 254.1002,-68.0725 254.7065,-75.0462"/>
</g>
<!-- Node8 -->
<g id="node9" class="node">
<title>Node8</title>
<g id="a_node9"><a xlink:href="fwd__declares_8hpp.html" target="_top" xlink:title="../utils/fwd_declares.hpp">
<polygon fill="#ffffff" stroke="#000000" points="540.3599,-60.5 540.3599,-78.5 663.6401,-78.5 663.6401,-60.5 540.3599,-60.5"/>
<text text-anchor="middle" x="602" y="-66.5" font-family="Helvetica,sans-Serif" font-size="10.00" fill="#000000">../utils/fwd_declares.hpp</text>
</a>
</g>
</g>
<!-- Node0&#45;&gt;Node8 -->
<g id="edge72" class="edge">
<title>Node0&#45;&gt;Node8</title>
<path fill="none" stroke="#191970" d="M980.4947,-444.4196C866.026,-436.8968 669.4418,-421.2475 601,-399 537.6689,-378.4138 471,-391.0929 471,-324.5 471,-324.5 471,-324.5 471,-264.5 471,-185.9649 545.1199,-115.2464 581.8541,-85.0205"/>
<polygon fill="#191970" stroke="#191970" points="584.3065,-87.5399 589.9106,-78.5486 579.9226,-82.0827 584.3065,-87.5399"/>
</g>
<!-- Node9 -->
<g id="node10" class="node">
<title>Node9</title>
<polygon fill="#ffffff" stroke="#bfbfbf" points="579.5493,-.5 579.5493,-18.5 624.4507,-18.5 624.4507,-.5 579.5493,-.5"/>
<text text-anchor="middle" x="602" y="-6.5" font-family="Helvetica,sans-Serif" font-size="10.00" fill="#000000">cstdint</text>
</g>
<!-- Node0&#45;&gt;Node9 -->
<g id="edge76" class="edge">
<title>Node0&#45;&gt;Node9</title>
<path fill="none" stroke="#191970" d="M980.4956,-448.0142C842.1825,-444.6128 576.0652,-433.648 489,-399 439.47,-379.2893 395,-377.8079 395,-324.5 395,-324.5 395,-324.5 395,-199.5 395,-163.1716 390.5241,-153.2987 376,-120 368.312,-102.3741 357.5724,-102.4045 352,-84 348.265,-71.6641 343.7423,-64.8962 352,-55 379.2631,-22.3272 507.4077,-13.0588 568.9065,-10.475"/>
<polygon fill="#191970" stroke="#191970" points="569.3688,-13.9599 579.2269,-10.0783 569.0998,-6.9651 569.3688,-13.9599"/>
</g>
<!-- Node13 -->
<g id="node14" class="node">
<title>Node13</title>
<g id="a_node14"><a xlink:href="assignment_8hpp.html" target="_top" xlink:title="../../graph/assignment.hpp">
<polygon fill="#ffffff" stroke="#000000" points="610.1875,-375.5 610.1875,-393.5 741.8125,-393.5 741.8125,-375.5 610.1875,-375.5"/>
<text text-anchor="middle" x="676" y="-381.5" font-family="Helvetica,sans-Serif" font-size="10.00" fill="#000000">../../graph/assignment.hpp</text>
</a>
</g>
</g>
<!-- Node0&#45;&gt;Node13 -->
<g id="edge15" class="edge">
<title>Node0&#45;&gt;Node13</title>
<path fill="none" stroke="#191970" d="M981.856,-435.476C909.3753,-423.3959 806.297,-406.2162 740.2767,-395.2128"/>
<polygon fill="#191970" stroke="#191970" points="740.4487,-391.6933 730.0094,-393.5016 739.2979,-398.598 740.4487,-391.6933"/>
</g>
<!-- Node17 -->
<g id="node18" class="node">
<title>Node17</title>
<polygon fill="#ffffff" stroke="#bfbfbf" points="2696.3843,-60.5 2696.3843,-78.5 2739.6157,-78.5 2739.6157,-60.5 2696.3843,-60.5"/>
<text text-anchor="middle" x="2718" y="-66.5" font-family="Helvetica,sans-Serif" font-size="10.00" fill="#000000">vector</text>
</g>
<!-- Node0&#45;&gt;Node17 -->
<g id="edge80" class="edge">
<title>Node0&#45;&gt;Node17</title>
<path fill="none" stroke="#191970" d="M1151.4434,-437.8453C1215.4417,-428.6421 1305.0231,-414.7554 1383,-399 1908.58,-292.8058 2539.5709,-119.3091 2686.4123,-78.3576"/>
<polygon fill="#191970" stroke="#191970" points="2687.4501,-81.7018 2696.1401,-75.6409 2685.5672,-74.9598 2687.4501,-81.7018"/>
</g>
<!-- Node41 -->
<g id="node42" class="node">
<title>Node41</title>
<polygon fill="#ffffff" stroke="#bfbfbf" points="1348.5347,-190.5 1348.5347,-208.5 1453.4653,-208.5 1453.4653,-190.5 1348.5347,-190.5"/>
<text text-anchor="middle" x="1401" y="-196.5" font-family="Helvetica,sans-Serif" font-size="10.00" fill="#000000">EASTL/vector_set.h</text>
</g>
<!-- Node0&#45;&gt;Node41 -->
<g id="edge74" class="edge">
<title>Node0&#45;&gt;Node41</title>
<path fill="none" stroke="#191970" d="M1151.5791,-436.9656C1256.7453,-419.5719 1425.7528,-384.4553 1462,-334 1489.7759,-295.3366 1445.1732,-242.0055 1418.5705,-215.6213"/>
<polygon fill="#191970" stroke="#191970" points="1420.9397,-213.044 1411.3055,-208.6357 1416.0879,-218.0898 1420.9397,-213.044"/>
</g>
<!-- Node42 -->
<g id="node43" class="node">
<title>Node42</title>
<polygon fill="#ffffff" stroke="#bfbfbf" points="1417.2734,-315.5 1417.2734,-333.5 1452.7266,-333.5 1452.7266,-315.5 1417.2734,-315.5"/>
<text text-anchor="middle" x="1435" y="-321.5" font-family="Helvetica,sans-Serif" font-size="10.00" fill="#000000">map</text>
</g>
<!-- Node0&#45;&gt;Node42 -->
<g id="edge77" class="edge">
<title>Node0&#45;&gt;Node42</title>
<path fill="none" stroke="#191970" d="M1107.6117,-435.4039C1183.6709,-409.6386 1343.2069,-355.5952 1407.3874,-333.8539"/>
<polygon fill="#191970" stroke="#191970" points="1408.8404,-337.0571 1417.1887,-330.5336 1406.5944,-330.4272 1408.8404,-337.0571"/>
</g>
<!-- Node43 -->
<g id="node44" class="node">
<title>Node43</title>
<polygon fill="#ffffff" stroke="#bfbfbf" points="1556.0298,-370.5 1556.0298,-398.5 1665.9702,-398.5 1665.9702,-370.5 1556.0298,-370.5"/>
<text text-anchor="start" x="1564.0298" y="-386.5" font-family="Helvetica,sans-Serif" font-size="10.00" fill="#000000">boost/dynamic_bitset</text>
<text text-anchor="middle" x="1611" y="-376.5" font-family="Helvetica,sans-Serif" font-size="10.00" fill="#000000">/dynamic_bitset.hpp</text>
</g>
<!-- Node0&#45;&gt;Node43 -->
<g id="edge73" class="edge">
<title>Node0&#45;&gt;Node43</title>
<path fill="none" stroke="#191970" d="M1151.4674,-443.0613C1247.0052,-435.2541 1406.1441,-420.4248 1542,-399 1543.2583,-398.8016 1544.5282,-398.5953 1545.8069,-398.3822"/>
<polygon fill="#191970" stroke="#191970" points="1546.4907,-401.8157 1555.7296,-396.6299 1545.2733,-394.9223 1546.4907,-401.8157"/>
</g>
<!-- Node44 -->
<g id="node45" class="node">
<title>Node44</title>
<polygon fill="#ffffff" stroke="#bfbfbf" points="1684.0493,-375.5 1684.0493,-393.5 1723.9507,-393.5 1723.9507,-375.5 1684.0493,-375.5"/>
<text text-anchor="middle" x="1704" y="-381.5" font-family="Helvetica,sans-Serif" font-size="10.00" fill="#000000">bitset</text>
</g>
<!-- Node0&#45;&gt;Node44 -->
<g id="edge75" class="edge">
<title>Node0&#45;&gt;Node44</title>
<path fill="none" stroke="#191970" d="M1151.4668,-446.4106C1295.1703,-440.5486 1578.908,-425.9246 1675,-399 1676.4228,-398.6013 1677.8588,-398.132 1679.2902,-397.6106"/>
<polygon fill="#191970" stroke="#191970" points="1680.7087,-400.8104 1688.4838,-393.6134 1677.9175,-394.3909 1680.7087,-400.8104"/>
</g>
<!-- Node45 -->
<g id="node46" class="node">
<title>Node45</title>
<polygon fill="#ffffff" stroke="#bfbfbf" points="1742.3301,-375.5 1742.3301,-393.5 1771.6699,-393.5 1771.6699,-375.5 1742.3301,-375.5"/>
<text text-anchor="middle" x="1757" y="-381.5" font-family="Helvetica,sans-Serif" font-size="10.00" fill="#000000">set</text>
</g>
<!-- Node0&#45;&gt;Node45 -->
<g id="edge78" class="edge">
<title>Node0&#45;&gt;Node45</title>
<path fill="none" stroke="#191970" d="M1151.5184,-447.9484C1306.3951,-444.326 1627.0896,-432.8703 1733,-399 1733.7303,-398.7665 1734.4616,-398.5068 1735.1909,-398.225"/>
<polygon fill="#191970" stroke="#191970" points="1736.9524,-401.2575 1744.3308,-393.6542 1733.8214,-394.9967 1736.9524,-401.2575"/>
</g>
<!-- Node1&#45;&gt;Node2 -->
<g id="edge2" class="edge">
<title>Node1&#45;&gt;Node2</title>
<path fill="none" stroke="#191970" d="M265.7909,-255.185C274.4094,-245.5729 287.3376,-229.7951 295,-214 304.4163,-194.5896 310.0334,-170.3912 313.0554,-153.8223"/>
<polygon fill="#191970" stroke="#191970" points="316.5469,-154.1639 314.7478,-143.723 309.6432,-153.007 316.5469,-154.1639"/>
</g>
<!-- Node1&#45;&gt;Node8 -->
<g id="edge8" class="edge">
<title>Node1&#45;&gt;Node8</title>
<path fill="none" stroke="#191970" d="M270.9165,-255.3409C307.1185,-231.6721 407.5076,-167.0402 495,-120 520.4168,-106.3347 550.1603,-92.4597 571.8277,-82.7204"/>
<polygon fill="#191970" stroke="#191970" points="573.4639,-85.823 581.1701,-78.5522 570.6118,-79.4304 573.4639,-85.823"/>
</g>
<!-- Node1&#45;&gt;Node9 -->
<g id="edge13" class="edge">
<title>Node1&#45;&gt;Node9</title>
<path fill="none" stroke="#191970" d="M258.197,-255.2129C259.4358,-245.0976 261.2873,-228.4312 262,-214 262.6357,-201.1268 263.0631,-197.845 262,-185 257.2294,-127.3578 217.8607,-98.4831 256,-55 276.524,-31.6003 487.039,-16.4494 569.3069,-11.3819"/>
<polygon fill="#191970" stroke="#191970" points="569.5886,-14.8714 579.359,-10.7738 569.1658,-7.8841 569.5886,-14.8714"/>
</g>
<!-- Node10 -->
<g id="node11" class="node">
<title>Node10</title>
<polygon fill="#ffffff" stroke="#bfbfbf" points="583.478,-190.5 583.478,-208.5 694.522,-208.5 694.522,-190.5 583.478,-190.5"/>
<text text-anchor="middle" x="639" y="-196.5" font-family="Helvetica,sans-Serif" font-size="10.00" fill="#000000">EASTL/vector_map.h</text>
</g>
<!-- Node1&#45;&gt;Node10 -->
<g id="edge11" class="edge">
<title>Node1&#45;&gt;Node10</title>
<path fill="none" stroke="#191970" d="M310.1155,-255.462C379.7213,-243.6181 501.6403,-222.8727 575.8801,-210.2403"/>
<polygon fill="#191970" stroke="#191970" points="576.7576,-213.6414 586.0288,-208.5134 575.5834,-206.7406 576.7576,-213.6414"/>
</g>
<!-- Node11 -->
<g id="node12" class="node">
<title>Node11</title>
<polygon fill="#ffffff" stroke="#bfbfbf" points="141.6084,-190.5 141.6084,-208.5 180.3916,-208.5 180.3916,-190.5 141.6084,-190.5"/>
<text text-anchor="middle" x="161" y="-196.5" font-family="Helvetica,sans-Serif" font-size="10.00" fill="#000000">array</text>
</g>
<!-- Node1&#45;&gt;Node11 -->
<g id="edge12" class="edge">
<title>Node1&#45;&gt;Node11</title>
<path fill="none" stroke="#191970" d="M243.6516,-255.462C227.9783,-244.8499 201.7506,-227.0915 183.0442,-214.4258"/>
<polygon fill="#191970" stroke="#191970" points="184.7873,-211.3792 174.5445,-208.6708 180.8627,-217.1755 184.7873,-211.3792"/>
</g>
<!-- Node12 -->
<g id="node13" class="node">
<title>Node12</title>
<polygon fill="#ffffff" stroke="#bfbfbf" points="198.8276,-190.5 198.8276,-208.5 253.1724,-208.5 253.1724,-190.5 198.8276,-190.5"/>
<text text-anchor="middle" x="226" y="-196.5" font-family="Helvetica,sans-Serif" font-size="10.00" fill="#000000">iostream</text>
</g>
<!-- Node1&#45;&gt;Node12 -->
<g id="edge14" class="edge">
<title>Node1&#45;&gt;Node12</title>
<path fill="none" stroke="#191970" d="M252.6896,-255.462C248.1145,-245.8691 240.7545,-230.4368 234.921,-218.2053"/>
<polygon fill="#191970" stroke="#191970" points="237.9385,-216.4015 230.4746,-208.8821 231.6202,-219.4149 237.9385,-216.4015"/>
</g>
<!-- Node3 -->
<g id="node4" class="node">
<title>Node3</title>
<polygon fill="#ffffff" stroke="#bfbfbf" points="361.436,-60.5 361.436,-78.5 418.564,-78.5 418.564,-60.5 361.436,-60.5"/>
<text text-anchor="middle" x="390" y="-66.5" font-family="Helvetica,sans-Serif" font-size="10.00" fill="#000000">algorithm</text>
</g>
<!-- Node2&#45;&gt;Node3 -->
<g id="edge3" class="edge">
<title>Node2&#45;&gt;Node3</title>
<path fill="none" stroke="#191970" d="M326.2894,-125.462C337.975,-115.1976 357.2719,-98.2477 371.5719,-85.6869"/>
<polygon fill="#191970" stroke="#191970" points="374.1154,-88.1112 379.3188,-78.8821 369.4958,-82.852 374.1154,-88.1112"/>
</g>
<!-- Node4 -->
<g id="node5" class="node">
<title>Node4</title>
<polygon fill="#ffffff" stroke="#bfbfbf" points="475.4385,-60.5 475.4385,-78.5 522.5615,-78.5 522.5615,-60.5 475.4385,-60.5"/>
<text text-anchor="middle" x="499" y="-66.5" font-family="Helvetica,sans-Serif" font-size="10.00" fill="#000000">iterator</text>
</g>
<!-- Node2&#45;&gt;Node4 -->
<g id="edge4" class="edge">
<title>Node2&#45;&gt;Node4</title>
<path fill="none" stroke="#191970" d="M341.4454,-125.462C373.8523,-113.9514 429.9298,-94.0331 465.7065,-81.3255"/>
<polygon fill="#191970" stroke="#191970" points="466.9708,-84.5908 475.2226,-77.9455 464.6278,-77.9945 466.9708,-84.5908"/>
</g>
<!-- Node5 -->
<g id="node6" class="node">
<title>Node5</title>
<polygon fill="#ffffff" stroke="#bfbfbf" points="90.9434,-.5 90.9434,-18.5 143.0566,-18.5 143.0566,-.5 90.9434,-.5"/>
<text text-anchor="middle" x="117" y="-6.5" font-family="Helvetica,sans-Serif" font-size="10.00" fill="#000000">memory</text>
</g>
<!-- Node2&#45;&gt;Node5 -->
<g id="edge5" class="edge">
<title>Node2&#45;&gt;Node5</title>
<path fill="none" stroke="#191970" d="M301.3671,-125.3085C267.07,-103.7651 181.2806,-49.8773 139.9573,-23.9204"/>
<polygon fill="#191970" stroke="#191970" points="141.7157,-20.8918 131.386,-18.5364 137.9923,-26.8194 141.7157,-20.8918"/>
</g>
<!-- Node2&#45;&gt;Node6 -->
<g id="edge6" class="edge">
<title>Node2&#45;&gt;Node6</title>
<path fill="none" stroke="#191970" d="M311.6896,-125.462C307.1145,-115.8691 299.7545,-100.4368 293.921,-88.2053"/>
<polygon fill="#191970" stroke="#191970" points="296.9385,-86.4015 289.4746,-78.8821 290.6202,-89.4149 296.9385,-86.4015"/>
</g>
<!-- Node7 -->
<g id="node8" class="node">
<title>Node7</title>
<polygon fill="#ffffff" stroke="#bfbfbf" points="888.9336,-60.5 888.9336,-78.5 951.0664,-78.5 951.0664,-60.5 888.9336,-60.5"/>
<text text-anchor="middle" x="920" y="-66.5" font-family="Helvetica,sans-Serif" font-size="10.00" fill="#000000">type_traits</text>
</g>
<!-- Node2&#45;&gt;Node7 -->
<g id="edge7" class="edge">
<title>Node2&#45;&gt;Node7</title>
<path fill="none" stroke="#191970" d="M367.7594,-131.5804C487.9502,-124.5237 783.07,-105.5263 880,-84 882.8393,-83.3694 885.7515,-82.5898 888.6469,-81.7219"/>
<polygon fill="#191970" stroke="#191970" points="889.9082,-84.9911 898.2966,-78.5193 887.7032,-78.3475 889.9082,-84.9911"/>
</g>
<!-- Node8&#45;&gt;Node5 -->
<g id="edge10" class="edge">
<title>Node8&#45;&gt;Node5</title>
<path fill="none" stroke="#191970" d="M561.7727,-60.485C552.0577,-58.497 541.6843,-56.5304 532,-55 392.7983,-33.0028 225.6477,-18.1726 153.3055,-12.312"/>
<polygon fill="#191970" stroke="#191970" points="153.5823,-8.823 143.3346,-11.5126 153.0229,-15.8006 153.5823,-8.823"/>
</g>
<!-- Node8&#45;&gt;Node9 -->
<g id="edge9" class="edge">
<title>Node8&#45;&gt;Node9</title>
<path fill="none" stroke="#191970" d="M602,-60.3873C602,-52.0174 602,-39.3414 602,-28.735"/>
<polygon fill="#191970" stroke="#191970" points="605.5001,-28.6984 602,-18.6985 598.5001,-28.6985 605.5001,-28.6984"/>
</g>
<!-- Node13&#45;&gt;Node2 -->
<g id="edge16" class="edge">
<title>Node13&#45;&gt;Node2</title>
<path fill="none" stroke="#191970" d="M610.3929,-375.4368C574.3113,-368.2607 529.9187,-355.6883 495,-334 416.2875,-285.111 351.7262,-191.5748 326.9244,-152.4264"/>
<polygon fill="#191970" stroke="#191970" points="329.7496,-150.3423 321.491,-143.7056 323.8084,-154.0439 329.7496,-150.3423"/>
</g>
<!-- Node13&#45;&gt;Node5 -->
<g id="edge69" class="edge">
<title>Node13&#45;&gt;Node5</title>
<path fill="none" stroke="#191970" d="M609.9514,-380.5158C439.8523,-368.4577 0,-325.1311 0,-199.5 0,-199.5 0,-199.5 0,-134.5 0,-82.6051 54.4157,-43.356 89.0267,-23.6402"/>
<polygon fill="#191970" stroke="#191970" points="91.1204,-26.4836 98.2019,-18.6031 87.7517,-20.3475 91.1204,-26.4836"/>
</g>
<!-- Node13&#45;&gt;Node8 -->
<g id="edge17" class="edge">
<title>Node13&#45;&gt;Node8</title>
<path fill="none" stroke="#191970" d="M652.6391,-375.3824C615.4648,-359.1623 547,-321.5459 547,-264.5 547,-264.5 547,-264.5 547,-199.5 547,-156.4475 572.9016,-111.2626 589.1548,-87.147"/>
<polygon fill="#191970" stroke="#191970" points="592.1876,-88.9168 595.0342,-78.7115 586.4448,-84.9142 592.1876,-88.9168"/>
</g>
<!-- Node13&#45;&gt;Node9 -->
<g id="edge66" class="edge">
<title>Node13&#45;&gt;Node9</title>
<path fill="none" stroke="#191970" d="M638.422,-375.469C614.3526,-367.9571 583.9928,-355.0184 564,-334 481.7478,-247.5284 488.1633,-201.267 466,-84 463.6064,-71.3353 458.4695,-65.4602 466,-55 478.2468,-37.9888 533.2182,-23.6714 569.4137,-15.8635"/>
<polygon fill="#191970" stroke="#191970" points="570.4547,-19.2215 579.5245,-13.7452 569.0192,-12.3702 570.4547,-19.2215"/>
</g>
<!-- Node13&#45;&gt;Node10 -->
<g id="edge65" class="edge">
<title>Node13&#45;&gt;Node10</title>
<path fill="none" stroke="#191970" d="M666.8482,-375.3766C650.4235,-358.2781 616.4934,-319.4695 604,-279 600.1981,-266.6846 600.1538,-262.3016 604,-250 607.8995,-237.5281 616.0812,-225.4288 623.5541,-216.2014"/>
<polygon fill="#191970" stroke="#191970" points="626.2162,-218.4736 630.0745,-208.6062 620.905,-213.9139 626.2162,-218.4736"/>
</g>
<!-- Node14 -->
<g id="node15" class="node">
<title>Node14</title>
<g id="a_node15"><a xlink:href="base__graph_8hpp.html" target="_top" xlink:title="base_graph.hpp">
<polygon fill="#ffffff" stroke="#000000" points="741.8574,-315.5 741.8574,-333.5 830.1426,-333.5 830.1426,-315.5 741.8574,-315.5"/>
<text text-anchor="middle" x="786" y="-321.5" font-family="Helvetica,sans-Serif" font-size="10.00" fill="#000000">base_graph.hpp</text>
</a>
</g>
</g>
<!-- Node13&#45;&gt;Node14 -->
<g id="edge18" class="edge">
<title>Node13&#45;&gt;Node14</title>
<path fill="none" stroke="#191970" d="M692.7066,-375.3873C710.74,-365.5509 739.677,-349.7671 760.5447,-338.3847"/>
<polygon fill="#191970" stroke="#191970" points="762.3936,-341.3631 769.4966,-333.5019 759.0416,-335.2178 762.3936,-341.3631"/>
</g>
<!-- Node13&#45;&gt;Node17 -->
<g id="edge70" class="edge">
<title>Node13&#45;&gt;Node17</title>
<path fill="none" stroke="#191970" d="M742.137,-375.8304C851.9528,-360.7334 1078.4063,-326.6172 1266,-279 1354.9554,-256.4203 1385.7333,-265.0519 1462,-214 1507.8289,-183.3227 1493.2411,-143.7789 1543,-120 1655.6408,-66.1711 2542.5974,-102.902 2666,-84 2672.6268,-82.985 2679.6101,-81.4051 2686.2334,-79.6552"/>
<polygon fill="#191970" stroke="#191970" points="2687.5733,-82.9136 2696.2421,-76.8224 2685.6669,-76.1782 2687.5733,-82.9136"/>
</g>
<!-- Node20 -->
<g id="node21" class="node">
<title>Node20</title>
<polygon fill="#ffffff" stroke="#bfbfbf" points="2757.6133,-60.5 2757.6133,-78.5 2796.3867,-78.5 2796.3867,-60.5 2757.6133,-60.5"/>
<text text-anchor="middle" x="2777" y="-66.5" font-family="Helvetica,sans-Serif" font-size="10.00" fill="#000000">limits</text>
</g>
<!-- Node13&#45;&gt;Node20 -->
<g id="edge67" class="edge">
<title>Node13&#45;&gt;Node20</title>
<path fill="none" stroke="#191970" d="M742.1015,-376.4741C820.593,-366.8454 955.437,-349.9942 1071,-334 1817.8899,-230.6287 2031.5935,-316.0734 2749,-84 2750.0677,-83.6546 2751.144,-83.2715 2752.2207,-82.859"/>
<polygon fill="#191970" stroke="#191970" points="2754.0268,-85.8836 2761.6973,-78.5751 2751.1433,-79.5051 2754.0268,-85.8836"/>
</g>
<!-- Node13&#45;&gt;Node42 -->
<g id="edge68" class="edge">
<title>Node13&#45;&gt;Node42</title>
<path fill="none" stroke="#191970" d="M742.0381,-381.7683C896.3666,-375.0842 1277.1008,-356.7758 1403,-334 1404.4613,-333.7356 1405.9507,-333.429 1407.4479,-333.0912"/>
<polygon fill="#191970" stroke="#191970" points="1408.4414,-336.4492 1417.2271,-330.5279 1406.6664,-329.6779 1408.4414,-336.4492"/>
</g>
<!-- Node14&#45;&gt;Node5 -->
<g id="edge24" class="edge">
<title>Node14&#45;&gt;Node5</title>
<path fill="none" stroke="#191970" d="M741.8522,-322.7087C610.5402,-317.1716 228.2892,-299.4658 176,-279 123.1275,-258.3058 76,-256.2781 76,-199.5 76,-199.5 76,-199.5 76,-134.5 76,-94.7317 94.9682,-51.2324 107.1012,-27.4759"/>
<polygon fill="#191970" stroke="#191970" points="110.2289,-29.0484 111.8073,-18.5718 104.0401,-25.7774 110.2289,-29.0484"/>
</g>
<!-- Node14&#45;&gt;Node8 -->
<g id="edge19" class="edge">
<title>Node14&#45;&gt;Node8</title>
<path fill="none" stroke="#191970" d="M781.6781,-315.1278C774.9739,-300.8098 761.4356,-272.7548 748,-250 730.263,-219.9603 725.3678,-212.5754 704,-185 675.5216,-148.2483 638.6993,-108.164 617.988,-86.2108"/>
<polygon fill="#191970" stroke="#191970" points="620.3119,-83.575 610.89,-78.7295 615.2338,-88.393 620.3119,-83.575"/>
</g>
<!-- Node14&#45;&gt;Node9 -->
<g id="edge23" class="edge">
<title>Node14&#45;&gt;Node9</title>
<path fill="none" stroke="#191970" d="M784.43,-315.4536C777.6404,-278.709 747.7032,-138.6129 673,-55 661.429,-42.049 645.3364,-31.3307 631.3972,-23.5567"/>
<polygon fill="#191970" stroke="#191970" points="632.6459,-20.2568 622.173,-18.6539 629.3605,-26.4379 632.6459,-20.2568"/>
</g>
<!-- Node15 -->
<g id="node16" class="node">
<title>Node15</title>
<g id="a_node16"><a xlink:href="simple__bimap_8hpp.html" target="_top" xlink:title="../utils/simple_bimap.hpp">
<polygon fill="#ffffff" stroke="#000000" points="612.9731,-255.5 612.9731,-273.5 739.0269,-273.5 739.0269,-255.5 612.9731,-255.5"/>
<text text-anchor="middle" x="676" y="-261.5" font-family="Helvetica,sans-Serif" font-size="10.00" fill="#000000">../utils/simple_bimap.hpp</text>
</a>
</g>
</g>
<!-- Node14&#45;&gt;Node15 -->
<g id="edge20" class="edge">
<title>Node14&#45;&gt;Node15</title>
<path fill="none" stroke="#191970" d="M769.2934,-315.3873C751.26,-305.5509 722.323,-289.7671 701.4553,-278.3847"/>
<polygon fill="#191970" stroke="#191970" points="702.9584,-275.2178 692.5034,-273.5019 699.6064,-281.3631 702.9584,-275.2178"/>
</g>
<!-- Node16 -->
<g id="node17" class="node">
<title>Node16</title>
<polygon fill="#ffffff" stroke="#bfbfbf" points="832.6875,-250.5 832.6875,-278.5 949.3125,-278.5 949.3125,-250.5 832.6875,-250.5"/>
<text text-anchor="start" x="840.6875" y="-266.5" font-family="Helvetica,sans-Serif" font-size="10.00" fill="#000000">boost/graph/adjacency</text>
<text text-anchor="middle" x="891" y="-256.5" font-family="Helvetica,sans-Serif" font-size="10.00" fill="#000000">_list.hpp</text>
</g>
<!-- Node14&#45;&gt;Node16 -->
<g id="edge22" class="edge">
<title>Node14&#45;&gt;Node16</title>
<path fill="none" stroke="#191970" d="M801.9472,-315.3873C816.6393,-306.9918 838.9134,-294.2637 857.5091,-283.6377"/>
<polygon fill="#191970" stroke="#191970" points="859.3471,-286.6186 866.293,-278.6183 855.8741,-280.5409 859.3471,-286.6186"/>
</g>
<!-- Node14&#45;&gt;Node17 -->
<g id="edge25" class="edge">
<title>Node14&#45;&gt;Node17</title>
<path fill="none" stroke="#191970" d="M830.327,-323.3316C928.1897,-320.2134 1159.6769,-309.7255 1231,-279 1289.751,-253.6905 1285.9688,-219.2473 1340,-185 1373.2744,-163.9093 1386.2468,-167.5531 1421,-149 1442.3202,-137.6181 1443.8847,-127.0557 1467,-120 1721.9519,-42.1785 2402.4678,-124.0924 2666,-84 2672.6278,-82.9917 2679.6116,-81.4148 2686.235,-79.6657"/>
<polygon fill="#191970" stroke="#191970" points="2687.5751,-82.924 2696.2437,-76.8325 2685.6684,-76.1887 2687.5751,-82.924"/>
</g>
<!-- Node18 -->
<g id="node19" class="node">
<title>Node18</title>
<g id="a_node19"><a xlink:href="base__graph__impl_8hpp.html" target="_top" xlink:title="base_graph_impl.hpp">
<polygon fill="#ffffff" stroke="#000000" points="1109.9092,-255.5 1109.9092,-273.5 1222.0908,-273.5 1222.0908,-255.5 1109.9092,-255.5"/>
<text text-anchor="middle" x="1166" y="-261.5" font-family="Helvetica,sans-Serif" font-size="10.00" fill="#000000">base_graph_impl.hpp</text>
</a>
</g>
</g>
<!-- Node14&#45;&gt;Node18 -->
<g id="edge26" class="edge">
<title>Node14&#45;&gt;Node18</title>
<path fill="none" stroke="#191970" d="M830.3345,-317.4998C896.663,-307.0269 1022.1816,-287.2082 1099.517,-274.9973"/>
<polygon fill="#191970" stroke="#191970" points="1100.3008,-278.417 1109.6325,-273.4001 1099.209,-271.5027 1100.3008,-278.417"/>
</g>
<!-- Node15&#45;&gt;Node10 -->
<g id="edge21" class="edge">
<title>Node15&#45;&gt;Node10</title>
<path fill="none" stroke="#191970" d="M670.8553,-255.462C665.3401,-245.7732 656.4342,-230.1276 649.4393,-217.8393"/>
<polygon fill="#191970" stroke="#191970" points="652.3294,-215.8413 644.3406,-208.8821 646.2459,-219.3043 652.3294,-215.8413"/>
</g>
<!-- Node18&#45;&gt;Node10 -->
<g id="edge62" class="edge">
<title>Node18&#45;&gt;Node10</title>
<path fill="none" stroke="#191970" d="M1109.6018,-257.5439C1011.3095,-245.4205 809.1531,-220.4866 704.6986,-207.6032"/>
<polygon fill="#191970" stroke="#191970" points="704.9494,-204.1077 694.5962,-206.3572 704.0925,-211.0551 704.9494,-204.1077"/>
</g>
<!-- Node18&#45;&gt;Node17 -->
<g id="edge64" class="edge">
<title>Node18&#45;&gt;Node17</title>
<path fill="none" stroke="#191970" d="M1184.3072,-255.475C1203.8192,-245.7165 1235.4897,-229.4745 1262,-214 1282.5488,-202.0053 1286.1196,-196.4076 1307,-185 1340.861,-166.5008 1352.3341,-167.8519 1386,-149 1406.1126,-137.7376 1407.0562,-127.0588 1429,-120 1559.897,-77.8936 2530.052,-104.6183 2666,-84 2672.6282,-82.9947 2679.6123,-81.4192 2686.2358,-79.6705"/>
<polygon fill="#191970" stroke="#191970" points="2687.5759,-82.9287 2696.2444,-76.8371 2685.6691,-76.1934 2687.5759,-82.9287"/>
</g>
<!-- Node19 -->
<g id="node20" class="node">
<title>Node19</title>
<g id="a_node20"><a xlink:href="connectivity_8hpp.html" target="_top" xlink:title="../algorithm/graph\l/connectivity.hpp">
<polygon fill="#ffffff" stroke="#000000" points="1283.0913,-120.5 1283.0913,-148.5 1376.9087,-148.5 1376.9087,-120.5 1283.0913,-120.5"/>
<text text-anchor="start" x="1291.0913" y="-136.5" font-family="Helvetica,sans-Serif" font-size="10.00" fill="#000000">../algorithm/graph</text>
<text text-anchor="middle" x="1330" y="-126.5" font-family="Helvetica,sans-Serif" font-size="10.00" fill="#000000">/connectivity.hpp</text>
</a>
</g>
</g>
<!-- Node18&#45;&gt;Node19 -->
<g id="edge27" class="edge">
<title>Node18&#45;&gt;Node19</title>
<path fill="none" stroke="#191970" d="M1177.5322,-255.3587C1203.6541,-234.6522 1267.876,-183.7447 1304.0851,-155.0423"/>
<polygon fill="#191970" stroke="#191970" points="1306.557,-157.5491 1312.2195,-148.5943 1302.2087,-152.0635 1306.557,-157.5491"/>
</g>
<!-- Node21 -->
<g id="node22" class="node">
<title>Node21</title>
<g id="a_node22"><a xlink:href="cycles_8hpp.html" target="_top" xlink:title="../algorithm/graph\l/cycles.hpp">
<polygon fill="#ffffff" stroke="#000000" points="796.0913,-185.5 796.0913,-213.5 889.9087,-213.5 889.9087,-185.5 796.0913,-185.5"/>
<text text-anchor="start" x="804.0913" y="-201.5" font-family="Helvetica,sans-Serif" font-size="10.00" fill="#000000">../algorithm/graph</text>
<text text-anchor="middle" x="843" y="-191.5" font-family="Helvetica,sans-Serif" font-size="10.00" fill="#000000">/cycles.hpp</text>
</a>
</g>
</g>
<!-- Node18&#45;&gt;Node21 -->
<g id="edge32" class="edge">
<title>Node18&#45;&gt;Node21</title>
<path fill="none" stroke="#191970" d="M1121.0882,-255.462C1063.4534,-243.8637 963.4005,-223.7292 900.327,-211.0364"/>
<polygon fill="#191970" stroke="#191970" points="900.6446,-207.5302 890.1506,-208.9885 899.2636,-214.3926 900.6446,-207.5302"/>
</g>
<!-- Node25 -->
<g id="node26" class="node">
<title>Node25</title>
<g id="a_node26"><a xlink:href="serialise_8hpp.html" target="_top" xlink:title="../utils/serialise.hpp">
<polygon fill="#ffffff" stroke="#000000" points="1164.4805,-125.5 1164.4805,-143.5 1265.5195,-143.5 1265.5195,-125.5 1164.4805,-125.5"/>
<text text-anchor="middle" x="1215" y="-131.5" font-family="Helvetica,sans-Serif" font-size="10.00" fill="#000000">../utils/serialise.hpp</text>
</a>
</g>
</g>
<!-- Node18&#45;&gt;Node25 -->
<g id="edge42" class="edge">
<title>Node18&#45;&gt;Node25</title>
<path fill="none" stroke="#191970" d="M1169.524,-255.1507C1177.5407,-233.8819 1197.2701,-181.5385 1207.916,-153.2944"/>
<polygon fill="#191970" stroke="#191970" points="1211.256,-154.3564 1211.508,-143.7646 1204.7058,-151.8875 1211.256,-154.3564"/>
</g>
<!-- Node39 -->
<g id="node40" class="node">
<title>Node39</title>
<g id="a_node40"><a xlink:href="triple_8hpp.html" target="_top" xlink:title="../utils/triple.hpp">
<polygon fill="#ffffff" stroke="#000000" points="1085.9829,-190.5 1085.9829,-208.5 1172.0171,-208.5 1172.0171,-190.5 1085.9829,-190.5"/>
<text text-anchor="middle" x="1129" y="-196.5" font-family="Helvetica,sans-Serif" font-size="10.00" fill="#000000">../utils/triple.hpp</text>
</a>
</g>
</g>
<!-- Node18&#45;&gt;Node39 -->
<g id="edge58" class="edge">
<title>Node18&#45;&gt;Node39</title>
<path fill="none" stroke="#191970" d="M1160.8553,-255.462C1155.3401,-245.7732 1146.4342,-230.1276 1139.4393,-217.8393"/>
<polygon fill="#191970" stroke="#191970" points="1142.3294,-215.8413 1134.3406,-208.8821 1136.2459,-219.3043 1142.3294,-215.8413"/>
</g>
<!-- Node18&#45;&gt;Node41 -->
<g id="edge63" class="edge">
<title>Node18&#45;&gt;Node41</title>
<path fill="none" stroke="#191970" d="M1198.6757,-255.462C1240.3865,-243.925 1312.6333,-223.9419 1358.5614,-211.2383"/>
<polygon fill="#191970" stroke="#191970" points="1359.5188,-214.605 1368.2238,-208.5658 1357.6526,-207.8583 1359.5188,-214.605"/>
</g>
<!-- Node19&#45;&gt;Node8 -->
<g id="edge28" class="edge">
<title>Node19&#45;&gt;Node8</title>
<path fill="none" stroke="#191970" d="M1283.0219,-121.4888C1280.3186,-120.9356 1277.6309,-120.4328 1275,-120 1043.7833,-81.9618 982.5116,-103.5032 749,-84 724.5144,-81.9549 697.766,-79.4096 673.8783,-77.0249"/>
<polygon fill="#191970" stroke="#191970" points="674.1309,-73.5327 663.8308,-76.0146 673.4305,-80.4976 674.1309,-73.5327"/>
</g>
<!-- Node19&#45;&gt;Node9 -->
<g id="edge29" class="edge">
<title>Node19&#45;&gt;Node9</title>
<path fill="none" stroke="#191970" d="M1377.1108,-122.2947C1381.78,-121.3887 1386.4673,-120.5972 1391,-120 1460.3185,-110.8676 2600.2731,-134.1413 2649,-84 2657.9825,-74.7567 2658.012,-64.2145 2649,-55 2612.2459,-17.4199 894.8997,-10.439 634.8465,-9.5968"/>
<polygon fill="#191970" stroke="#191970" points="634.5629,-6.096 624.5519,-9.5643 634.5407,-13.096 634.5629,-6.096"/>
</g>
<!-- Node19&#45;&gt;Node17 -->
<g id="edge31" class="edge">
<title>Node19&#45;&gt;Node17</title>
<path fill="none" stroke="#191970" d="M1377.1104,-122.2912C1381.7796,-121.3859 1386.4671,-120.5955 1391,-120 1675.5553,-82.6168 2401.0318,-142.533 2682,-84 2684.4819,-83.483 2687.0118,-82.8047 2689.5221,-82.0238"/>
<polygon fill="#191970" stroke="#191970" points="2690.7388,-85.3057 2698.9634,-78.6269 2688.3689,-78.7191 2690.7388,-85.3057"/>
</g>
<!-- Node19&#45;&gt;Node20 -->
<g id="edge30" class="edge">
<title>Node19&#45;&gt;Node20</title>
<path fill="none" stroke="#191970" d="M1377.167,-131.3958C1427.5991,-128.1656 1509.9217,-123.1479 1581,-120 1710.7123,-114.2554 2623.337,-116.6662 2749,-84 2750.2815,-83.6669 2751.5708,-83.2673 2752.855,-82.8167"/>
<polygon fill="#191970" stroke="#191970" points="2754.6412,-85.8546 2762.3845,-78.6233 2751.8218,-79.4475 2754.6412,-85.8546"/>
</g>
<!-- Node21&#45;&gt;Node8 -->
<g id="edge33" class="edge">
<title>Node21&#45;&gt;Node8</title>
<path fill="none" stroke="#191970" d="M816.989,-185.4046C787.6192,-169.4957 738.3963,-142.8526 696,-120 672.9819,-107.5927 646.7696,-93.5148 627.8834,-83.3805"/>
<polygon fill="#191970" stroke="#191970" points="629.4556,-80.2522 618.989,-78.6088 626.1463,-86.4206 629.4556,-80.2522"/>
</g>
<!-- Node22 -->
<g id="node23" class="node">
<title>Node22</title>
<g id="a_node23"><a xlink:href="numerics_8hpp.html" target="_top" xlink:title="../../utils/numerics.hpp">
<polygon fill="#ffffff" stroke="#000000" points="786.3696,-125.5 786.3696,-143.5 899.6304,-143.5 899.6304,-125.5 786.3696,-125.5"/>
<text text-anchor="middle" x="843" y="-131.5" font-family="Helvetica,sans-Serif" font-size="10.00" fill="#000000">../../utils/numerics.hpp</text>
</a>
</g>
</g>
<!-- Node21&#45;&gt;Node22 -->
<g id="edge34" class="edge">
<title>Node21&#45;&gt;Node22</title>
<path fill="none" stroke="#191970" d="M843,-185.396C843,-176.1723 843,-164.0011 843,-153.8738"/>
<polygon fill="#191970" stroke="#191970" points="846.5001,-153.5743 843,-143.5743 839.5001,-153.5743 846.5001,-153.5743"/>
</g>
<!-- Node22&#45;&gt;Node3 -->
<g id="edge35" class="edge">
<title>Node22&#45;&gt;Node3</title>
<path fill="none" stroke="#191970" d="M786.3308,-127.9013C712.4407,-119.0702 579.2566,-102.3751 466,-84 453.899,-82.0367 440.7669,-79.6304 428.8767,-77.3464"/>
<polygon fill="#191970" stroke="#191970" points="429.2893,-73.8611 418.8047,-75.385 427.9513,-80.732 429.2893,-73.8611"/>
</g>
<!-- Node22&#45;&gt;Node4 -->
<g id="edge38" class="edge">
<title>Node22&#45;&gt;Node4</title>
<path fill="none" stroke="#191970" d="M786.1901,-129.8611C722.8696,-123.6482 617.9433,-110.2254 531,-84 529.5401,-83.5597 528.0602,-83.067 526.5781,-82.5365"/>
<polygon fill="#191970" stroke="#191970" points="527.5366,-79.1486 516.954,-78.6389 524.909,-85.6367 527.5366,-79.1486"/>
</g>
<!-- Node22&#45;&gt;Node6 -->
<g id="edge40" class="edge">
<title>Node22&#45;&gt;Node6</title>
<path fill="none" stroke="#191970" d="M786.0305,-130.6972C694.2497,-124.1097 508.1385,-108.847 352,-84 339.9418,-82.0811 326.7878,-79.3715 315.3529,-76.813"/>
<polygon fill="#191970" stroke="#191970" points="315.9451,-73.358 305.4156,-74.533 314.3796,-80.1807 315.9451,-73.358"/>
</g>
<!-- Node22&#45;&gt;Node9 -->
<g id="edge37" class="edge">
<title>Node22&#45;&gt;Node9</title>
<path fill="none" stroke="#191970" d="M824.678,-125.348C805.5099,-115.6139 774.6918,-99.5113 749,-84 729.2664,-72.0859 726.1974,-66.1096 706,-55 682.5957,-42.1265 654.8222,-30.1307 633.8662,-21.6916"/>
<polygon fill="#191970" stroke="#191970" points="635.0529,-18.3971 624.4671,-17.9604 632.4701,-24.9032 635.0529,-18.3971"/>
</g>
<!-- Node22&#45;&gt;Node17 -->
<g id="edge41" class="edge">
<title>Node22&#45;&gt;Node17</title>
<path fill="none" stroke="#191970" d="M899.6606,-130.7471C951.5181,-127.4416 1030.3892,-122.7391 1099,-120 1443.2631,-106.2563 2306.7454,-123.5949 2649,-84 2661.1958,-82.5891 2674.4265,-80.058 2686.0092,-77.5011"/>
<polygon fill="#191970" stroke="#191970" points="2687.1461,-80.8311 2696.1061,-75.1771 2685.5758,-74.0094 2687.1461,-80.8311"/>
</g>
<!-- Node23 -->
<g id="node24" class="node">
<title>Node23</title>
<polygon fill="#ffffff" stroke="#bfbfbf" points="758.3843,-60.5 758.3843,-78.5 801.6157,-78.5 801.6157,-60.5 758.3843,-60.5"/>
<text text-anchor="middle" x="780" y="-66.5" font-family="Helvetica,sans-Serif" font-size="10.00" fill="#000000">cmath</text>
</g>
<!-- Node22&#45;&gt;Node23 -->
<g id="edge36" class="edge">
<title>Node22&#45;&gt;Node23</title>
<path fill="none" stroke="#191970" d="M834.2401,-125.462C824.4775,-115.3895 808.475,-98.879 796.3759,-86.3957"/>
<polygon fill="#191970" stroke="#191970" points="798.5665,-83.6269 789.0935,-78.8821 793.54,-88.4988 798.5665,-83.6269"/>
</g>
<!-- Node24 -->
<g id="node25" class="node">
<title>Node24</title>
<polygon fill="#ffffff" stroke="#bfbfbf" points="819.2168,-60.5 819.2168,-78.5 870.7832,-78.5 870.7832,-60.5 819.2168,-60.5"/>
<text text-anchor="middle" x="845" y="-66.5" font-family="Helvetica,sans-Serif" font-size="10.00" fill="#000000">numeric</text>
</g>
<!-- Node22&#45;&gt;Node24 -->
<g id="edge39" class="edge">
<title>Node22&#45;&gt;Node24</title>
<path fill="none" stroke="#191970" d="M843.2781,-125.462C843.5674,-116.061 844.0292,-101.0518 844.4018,-88.943"/>
<polygon fill="#191970" stroke="#191970" points="847.902,-88.9851 844.7113,-78.8821 840.9053,-88.7697 847.902,-88.9851"/>
</g>
<!-- Node25&#45;&gt;Node7 -->
<g id="edge57" class="edge">
<title>Node25&#45;&gt;Node7</title>
<path fill="none" stroke="#191970" d="M1178.9027,-125.4391C1171.0419,-123.5604 1162.7563,-121.6519 1155,-120 1068.802,-101.642 1045.051,-107.0963 960,-84 957.5674,-83.3394 955.0726,-82.5973 952.5753,-81.8071"/>
<polygon fill="#191970" stroke="#191970" points="953.6525,-78.4767 943.0583,-78.592 951.4121,-85.1085 953.6525,-78.4767"/>
</g>
<!-- Node25&#45;&gt;Node8 -->
<g id="edge43" class="edge">
<title>Node25&#45;&gt;Node8</title>
<path fill="none" stroke="#191970" d="M1181.5422,-125.4838C1172.9437,-123.4236 1163.6714,-121.4241 1155,-120 976.2423,-90.6422 929.3632,-100.8914 749,-84 724.5362,-81.7089 697.7932,-79.1017 673.9039,-76.7359"/>
<polygon fill="#191970" stroke="#191970" points="674.1522,-73.2434 663.8553,-75.7384 673.4606,-80.2092 674.1522,-73.2434"/>
</g>
<!-- Node26 -->
<g id="node27" class="node">
<title>Node26</title>
<polygon fill="#ffffff" stroke="#bfbfbf" points="968.6997,-60.5 968.6997,-78.5 1065.3003,-78.5 1065.3003,-60.5 968.6997,-60.5"/>
<text text-anchor="middle" x="1017" y="-66.5" font-family="Helvetica,sans-Serif" font-size="10.00" fill="#000000">cereal/access.hpp</text>
</g>
<!-- Node25&#45;&gt;Node26 -->
<g id="edge44" class="edge">
<title>Node25&#45;&gt;Node26</title>
<path fill="none" stroke="#191970" d="M1187.4689,-125.462C1152.8411,-114.0943 1093.2347,-94.5265 1054.4746,-81.8023"/>
<polygon fill="#191970" stroke="#191970" points="1055.2085,-78.3595 1044.6157,-78.5658 1053.0251,-85.0103 1055.2085,-78.3595"/>
</g>
<!-- Node27 -->
<g id="node28" class="node">
<title>Node27</title>
<polygon fill="#ffffff" stroke="#bfbfbf" points="1083.0815,-60.5 1083.0815,-78.5 1206.9185,-78.5 1206.9185,-60.5 1083.0815,-60.5"/>
<text text-anchor="middle" x="1145" y="-66.5" font-family="Helvetica,sans-Serif" font-size="10.00" fill="#000000">cereal/archives/json.hpp</text>
</g>
<!-- Node25&#45;&gt;Node27 -->
<g id="edge45" class="edge">
<title>Node25&#45;&gt;Node27</title>
<path fill="none" stroke="#191970" d="M1205.2668,-125.462C1194.2128,-115.1976 1175.959,-98.2477 1162.432,-85.6869"/>
<polygon fill="#191970" stroke="#191970" points="1164.8134,-83.1219 1155.1038,-78.8821 1160.0502,-88.2515 1164.8134,-83.1219"/>
</g>
<!-- Node28 -->
<g id="node29" class="node">
<title>Node28</title>
<polygon fill="#ffffff" stroke="#bfbfbf" points="1224.9165,-55.5 1224.9165,-83.5 1347.0835,-83.5 1347.0835,-55.5 1224.9165,-55.5"/>
<text text-anchor="start" x="1232.9165" y="-71.5" font-family="Helvetica,sans-Serif" font-size="10.00" fill="#000000">cereal/archives/portable</text>
<text text-anchor="middle" x="1286" y="-61.5" font-family="Helvetica,sans-Serif" font-size="10.00" fill="#000000">_binary.hpp</text>
</g>
<!-- Node25&#45;&gt;Node28 -->
<g id="edge46" class="edge">
<title>Node25&#45;&gt;Node28</title>
<path fill="none" stroke="#191970" d="M1224.8722,-125.462C1234.6541,-116.5068 1249.9945,-102.4628 1262.8601,-90.6844"/>
<polygon fill="#191970" stroke="#191970" points="1265.4666,-93.0434 1270.4791,-83.7093 1260.7398,-87.8803 1265.4666,-93.0434"/>
</g>
<!-- Node29 -->
<g id="node30" class="node">
<title>Node29</title>
<polygon fill="#ffffff" stroke="#bfbfbf" points="1364.6431,-60.5 1364.6431,-78.5 1457.3569,-78.5 1457.3569,-60.5 1364.6431,-60.5"/>
<text text-anchor="middle" x="1411" y="-66.5" font-family="Helvetica,sans-Serif" font-size="10.00" fill="#000000">cereal/cereal.hpp</text>
</g>
<!-- Node25&#45;&gt;Node29 -->
<g id="edge47" class="edge">
<title>Node25&#45;&gt;Node29</title>
<path fill="none" stroke="#191970" d="M1242.253,-125.462C1276.531,-114.0943 1335.5354,-94.5265 1373.904,-81.8023"/>
<polygon fill="#191970" stroke="#191970" points="1375.2733,-85.0356 1383.6633,-78.5658 1373.0699,-78.3915 1375.2733,-85.0356"/>
</g>
<!-- Node30 -->
<g id="node31" class="node">
<title>Node30</title>
<polygon fill="#ffffff" stroke="#bfbfbf" points="1474.8984,-60.5 1474.8984,-78.5 1589.1016,-78.5 1589.1016,-60.5 1474.8984,-60.5"/>
<text text-anchor="middle" x="1532" y="-66.5" font-family="Helvetica,sans-Serif" font-size="10.00" fill="#000000">cereal/types/array.hpp</text>
</g>
<!-- Node25&#45;&gt;Node30 -->
<g id="edge48" class="edge">
<title>Node25&#45;&gt;Node30</title>
<path fill="none" stroke="#191970" d="M1250.493,-125.4381C1258.223,-123.5595 1266.3713,-121.6513 1274,-120 1358.8553,-101.6326 1380.9242,-101.317 1466,-84 1471.1139,-82.9591 1476.4434,-81.8421 1481.7591,-80.7069"/>
<polygon fill="#191970" stroke="#191970" points="1482.8683,-84.0482 1491.9044,-78.5166 1481.391,-77.2058 1482.8683,-84.0482"/>
</g>
<!-- Node31 -->
<g id="node32" class="node">
<title>Node31</title>
<polygon fill="#ffffff" stroke="#bfbfbf" points="1606.9707,-60.5 1606.9707,-78.5 1723.0293,-78.5 1723.0293,-60.5 1606.9707,-60.5"/>
<text text-anchor="middle" x="1665" y="-66.5" font-family="Helvetica,sans-Serif" font-size="10.00" fill="#000000">cereal/types/bitset.hpp</text>
</g>
<!-- Node25&#45;&gt;Node31 -->
<g id="edge49" class="edge">
<title>Node25&#45;&gt;Node31</title>
<path fill="none" stroke="#191970" d="M1248.5352,-125.456C1256.8145,-123.4455 1265.6918,-121.476 1274,-120 1416.6525,-94.6569 1455.0084,-107.3539 1598,-84 1603.9444,-83.0291 1610.157,-81.8755 1616.2994,-80.6492"/>
<polygon fill="#191970" stroke="#191970" points="1617.4273,-83.99 1626.5106,-78.5363 1616.0089,-77.1352 1617.4273,-83.99"/>
</g>
<!-- Node32 -->
<g id="node33" class="node">
<title>Node32</title>
<polygon fill="#ffffff" stroke="#bfbfbf" points="1741.1382,-55.5 1741.1382,-83.5 1848.8618,-83.5 1848.8618,-55.5 1741.1382,-55.5"/>
<text text-anchor="start" x="1749.1382" y="-71.5" font-family="Helvetica,sans-Serif" font-size="10.00" fill="#000000">cereal/types/boost</text>
<text text-anchor="middle" x="1795" y="-61.5" font-family="Helvetica,sans-Serif" font-size="10.00" fill="#000000">_dynamic_bitset.hpp</text>
</g>
<!-- Node25&#45;&gt;Node32 -->
<g id="edge50" class="edge">
<title>Node25&#45;&gt;Node32</title>
<path fill="none" stroke="#191970" d="M1247.5741,-125.4918C1256.1161,-123.406 1265.3567,-121.3923 1274,-120 1472.3365,-88.0508 1528.3834,-114.1139 1730.741,-84.033"/>
<polygon fill="#191970" stroke="#191970" points="1731.4389,-87.4673 1740.8021,-82.5094 1730.3907,-80.5462 1731.4389,-87.4673"/>
</g>
<!-- Node33 -->
<g id="node34" class="node">
<title>Node33</title>
<polygon fill="#ffffff" stroke="#bfbfbf" points="1867.0913,-55.5 1867.0913,-83.5 1960.9087,-83.5 1960.9087,-55.5 1867.0913,-55.5"/>
<text text-anchor="start" x="1875.0913" y="-71.5" font-family="Helvetica,sans-Serif" font-size="10.00" fill="#000000">cereal/types/eastl</text>
<text text-anchor="middle" x="1914" y="-61.5" font-family="Helvetica,sans-Serif" font-size="10.00" fill="#000000">_bitset.hpp</text>
</g>
<!-- Node25&#45;&gt;Node33 -->
<g id="edge51" class="edge">
<title>Node25&#45;&gt;Node33</title>
<path fill="none" stroke="#191970" d="M1247.2499,-125.4672C1255.8778,-123.3554 1265.241,-121.3352 1274,-120 1527.8147,-81.3083 1599.3593,-123.6765 1857.0503,-83.9194"/>
<polygon fill="#191970" stroke="#191970" points="1857.7476,-87.3529 1867.084,-82.3446 1856.6622,-80.4375 1857.7476,-87.3529"/>
</g>
<!-- Node34 -->
<g id="node35" class="node">
<title>Node34</title>
<polygon fill="#ffffff" stroke="#bfbfbf" points="1978.6875,-60.5 1978.6875,-78.5 2095.3125,-78.5 2095.3125,-60.5 1978.6875,-60.5"/>
<text text-anchor="middle" x="2037" y="-66.5" font-family="Helvetica,sans-Serif" font-size="10.00" fill="#000000">cereal/types/eigen.hpp</text>
</g>
<!-- Node25&#45;&gt;Node34 -->
<g id="edge52" class="edge">
<title>Node25&#45;&gt;Node34</title>
<path fill="none" stroke="#191970" d="M1246.9333,-125.484C1255.646,-123.345 1265.1301,-121.3073 1274,-120 1580.4364,-74.8356 1662.9643,-124.8922 1970,-84 1976.658,-83.1133 1983.6367,-81.9128 1990.4711,-80.58"/>
<polygon fill="#191970" stroke="#191970" points="1991.2366,-83.9959 2000.3269,-78.5537 1989.8269,-77.1393 1991.2366,-83.9959"/>
</g>
<!-- Node35 -->
<g id="node36" class="node">
<title>Node35</title>
<polygon fill="#ffffff" stroke="#bfbfbf" points="2113.1948,-60.5 2113.1948,-78.5 2224.8052,-78.5 2224.8052,-60.5 2113.1948,-60.5"/>
<text text-anchor="middle" x="2169" y="-66.5" font-family="Helvetica,sans-Serif" font-size="10.00" fill="#000000">cereal/types/map.hpp</text>
</g>
<!-- Node25&#45;&gt;Node35 -->
<g id="edge53" class="edge">
<title>Node25&#45;&gt;Node35</title>
<path fill="none" stroke="#191970" d="M1246.9261,-125.4345C1255.6388,-123.2956 1265.1248,-121.2703 1274,-120 1639.5106,-67.6837 1737.948,-132.3835 2104,-84 2110.3939,-83.1549 2117.0874,-81.9896 2123.6466,-80.6839"/>
<polygon fill="#191970" stroke="#191970" points="2124.7205,-84.0343 2133.7806,-78.5421 2123.273,-77.1856 2124.7205,-84.0343"/>
</g>
<!-- Node36 -->
<g id="node37" class="node">
<title>Node36</title>
<polygon fill="#ffffff" stroke="#bfbfbf" points="2243.2334,-60.5 2243.2334,-78.5 2370.7666,-78.5 2370.7666,-60.5 2243.2334,-60.5"/>
<text text-anchor="middle" x="2307" y="-66.5" font-family="Helvetica,sans-Serif" font-size="10.00" fill="#000000">cereal/types/memory.hpp</text>
</g>
<!-- Node25&#45;&gt;Node36 -->
<g id="edge54" class="edge">
<title>Node25&#45;&gt;Node36</title>
<path fill="none" stroke="#191970" d="M1246.614,-125.4752C1255.4106,-123.3084 1265.0166,-121.2589 1274,-120 1696.8346,-60.7434 1809.9415,-133.748 2234,-84 2241.5846,-83.1102 2249.558,-81.8584 2257.3364,-80.4592"/>
<polygon fill="#191970" stroke="#191970" points="2258.2266,-83.8529 2267.4005,-78.553 2256.9238,-76.9752 2258.2266,-83.8529"/>
</g>
<!-- Node37 -->
<g id="node38" class="node">
<title>Node37</title>
<polygon fill="#ffffff" stroke="#bfbfbf" points="2388.8984,-60.5 2388.8984,-78.5 2503.1016,-78.5 2503.1016,-60.5 2388.8984,-60.5"/>
<text text-anchor="middle" x="2446" y="-66.5" font-family="Helvetica,sans-Serif" font-size="10.00" fill="#000000">cereal/types/utility.hpp</text>
</g>
<!-- Node25&#45;&gt;Node37 -->
<g id="edge55" class="edge">
<title>Node25&#45;&gt;Node37</title>
<path fill="none" stroke="#191970" d="M1246.6099,-125.4458C1255.4065,-123.2789 1265.0135,-121.2367 1274,-120 1761.2236,-52.9475 1891.9847,-145.0241 2380,-84 2386.7263,-83.1589 2393.7785,-81.9588 2400.6669,-80.6046"/>
<polygon fill="#191970" stroke="#191970" points="2401.5112,-84.0039 2410.5849,-78.5342 2400.0807,-77.1516 2401.5112,-84.0039"/>
</g>
<!-- Node38 -->
<g id="node39" class="node">
<title>Node38</title>
<polygon fill="#ffffff" stroke="#bfbfbf" points="2521.5791,-60.5 2521.5791,-78.5 2640.4209,-78.5 2640.4209,-60.5 2521.5791,-60.5"/>
<text text-anchor="middle" x="2581" y="-66.5" font-family="Helvetica,sans-Serif" font-size="10.00" fill="#000000">cereal/types/vector.hpp</text>
</g>
<!-- Node25&#45;&gt;Node38 -->
<g id="edge56" class="edge">
<title>Node25&#45;&gt;Node38</title>
<path fill="none" stroke="#191970" d="M1246.6071,-125.4252C1255.4036,-123.2582 1265.0114,-121.2211 1274,-120 1819.4443,-45.8984 1965.3796,-148.8582 2512,-84 2519.187,-83.1472 2526.7347,-81.9149 2534.0932,-80.5239"/>
<polygon fill="#191970" stroke="#191970" points="2534.84,-83.9439 2543.9586,-78.5494 2533.4662,-77.0801 2534.84,-83.9439"/>
</g>
<!-- Node39&#45;&gt;Node7 -->
<g id="edge59" class="edge">
<title>Node39&#45;&gt;Node7</title>
<path fill="none" stroke="#191970" d="M1114.3035,-190.3587C1078.5526,-168.1212 986.8021,-111.0516 943.4097,-84.0611"/>
<polygon fill="#191970" stroke="#191970" points="945.0202,-80.941 934.6802,-78.6312 941.323,-86.885 945.0202,-80.941"/>
</g>
<!-- Node39&#45;&gt;Node25 -->
<g id="edge61" class="edge">
<title>Node39&#45;&gt;Node25</title>
<path fill="none" stroke="#191970" d="M1140.9579,-190.462C1154.871,-179.9464 1178.0679,-162.4138 1194.7934,-149.7725"/>
<polygon fill="#191970" stroke="#191970" points="1196.9991,-152.4926 1202.8664,-143.6708 1192.7783,-146.9082 1196.9991,-152.4926"/>
</g>
<!-- Node40 -->
<g id="node41" class="node">
<title>Node40</title>
<polygon fill="#ffffff" stroke="#bfbfbf" points="1107.6084,-125.5 1107.6084,-143.5 1146.3916,-143.5 1146.3916,-125.5 1107.6084,-125.5"/>
<text text-anchor="middle" x="1127" y="-131.5" font-family="Helvetica,sans-Serif" font-size="10.00" fill="#000000">utility</text>
</g>
<!-- Node39&#45;&gt;Node40 -->
<g id="edge60" class="edge">
<title>Node39&#45;&gt;Node40</title>
<path fill="none" stroke="#191970" d="M1128.7219,-190.462C1128.4326,-181.061 1127.9708,-166.0518 1127.5982,-153.943"/>
<polygon fill="#191970" stroke="#191970" points="1131.0947,-153.7697 1127.2887,-143.8821 1124.098,-153.9851 1131.0947,-153.7697"/>
</g>
</g>
</svg>
