<?xml version="1.0" encoding="UTF-8" standalone="no"?>
<!DOCTYPE svg PUBLIC "-//W3C//DTD SVG 1.1//EN"
 "http://www.w3.org/Graphics/SVG/1.1/DTD/svg11.dtd">
<!-- Generated by graphviz version 2.40.1 (20161225.0304)
 -->
<!-- Title: src/algorithm/electron_assignment/astar_optimisation.cpp Pages: 1 -->
<svg width="2750pt" height="602pt"
 viewBox="0.00 0.00 2750.16 602.00" xmlns="http://www.w3.org/2000/svg" xmlns:xlink="http://www.w3.org/1999/xlink">
<g id="graph0" class="graph" transform="scale(1 1) rotate(0) translate(4 598)">
<title>src/algorithm/electron_assignment/astar_optimisation.cpp</title>
<polygon fill="#ffffff" stroke="transparent" points="-4,4 -4,-598 2746.1609,-598 2746.1609,4 -4,4"/>
<!-- Node0 -->
<g id="node1" class="node">
<title>Node0</title>
<polygon fill="#bfbfbf" stroke="#000000" points="2169.595,-565.5 2169.595,-593.5 2345.1262,-593.5 2345.1262,-565.5 2169.595,-565.5"/>
<text text-anchor="start" x="2177.595" y="-581.5" font-family="Helvetica,sans-Serif" font-size="10.00" fill="#000000">src/algorithm/electron</text>
<text text-anchor="middle" x="2257.3606" y="-571.5" font-family="Helvetica,sans-Serif" font-size="10.00" fill="#000000">_assignment/astar_optimisation.cpp</text>
</g>
<!-- Node1 -->
<g id="node2" class="node">
<title>Node1</title>
<g id="a_node2"><a xlink:href="assigner_8hpp.html" target="_top" xlink:title="indigox/algorithm/electron\l_assignment/assigner.hpp">
<polygon fill="#ffffff" stroke="#000000" points="1898.2649,-435.5 1898.2649,-463.5 2030.4563,-463.5 2030.4563,-435.5 1898.2649,-435.5"/>
<text text-anchor="start" x="1906.2649" y="-451.5" font-family="Helvetica,sans-Serif" font-size="10.00" fill="#000000">indigox/algorithm/electron</text>
<text text-anchor="middle" x="1964.3606" y="-441.5" font-family="Helvetica,sans-Serif" font-size="10.00" fill="#000000">_assignment/assigner.hpp</text>
</a>
</g>
</g>
<!-- Node0&#45;&gt;Node1 -->
<g id="edge1" class="edge">
<title>Node0&#45;&gt;Node1</title>
<path fill="none" stroke="#191970" d="M2169.4531,-569.7479C2129.4186,-562.5895 2082.5565,-550.2414 2044.3606,-529 2018.7722,-514.7699 1995.782,-490.0397 1981.0851,-471.9309"/>
<polygon fill="#191970" stroke="#191970" points="1983.4985,-469.3383 1974.5614,-463.648 1977.9993,-473.6695 1983.4985,-469.3383"/>
</g>
<!-- Node4 -->
<g id="node5" class="node">
<title>Node4</title>
<polygon fill="#ffffff" stroke="#bfbfbf" points="2250.7966,-60.5 2250.7966,-78.5 2307.9246,-78.5 2307.9246,-60.5 2250.7966,-60.5"/>
<text text-anchor="middle" x="2279.3606" y="-66.5" font-family="Helvetica,sans-Serif" font-size="10.00" fill="#000000">algorithm</text>
</g>
<!-- Node0&#45;&gt;Node4 -->
<g id="edge106" class="edge">
<title>Node0&#45;&gt;Node4</title>
<path fill="none" stroke="#191970" d="M2345.3365,-567.2965C2394.5155,-558.7899 2449.4357,-545.9279 2467.3606,-529 2494.1942,-503.6588 2491.3606,-486.4083 2491.3606,-449.5 2491.3606,-449.5 2491.3606,-449.5 2491.3606,-384.5 2491.3606,-248.0616 2352.78,-126.3359 2299.7053,-84.7196"/>
<polygon fill="#191970" stroke="#191970" points="2301.7308,-81.8617 2291.6749,-78.5254 2297.4554,-87.4044 2301.7308,-81.8617"/>
</g>
<!-- Node7 -->
<g id="node8" class="node">
<title>Node7</title>
<polygon fill="#ffffff" stroke="#bfbfbf" points="2059.134,-60.5 2059.134,-78.5 2099.5871,-78.5 2099.5871,-60.5 2059.134,-60.5"/>
<text text-anchor="middle" x="2079.3606" y="-66.5" font-family="Helvetica,sans-Serif" font-size="10.00" fill="#000000">string</text>
</g>
<!-- Node0&#45;&gt;Node7 -->
<g id="edge110" class="edge">
<title>Node0&#45;&gt;Node7</title>
<path fill="none" stroke="#191970" d="M2272.6737,-565.44C2282.0375,-556.0083 2293.4972,-542.8197 2300.3606,-529 2356.5775,-415.8046 2409.6779,-364.1191 2355.3606,-250 2307.0952,-148.5958 2170.7559,-96.6172 2109.647,-77.8561"/>
<polygon fill="#191970" stroke="#191970" points="2110.4113,-74.4318 2099.8282,-74.9304 2108.4124,-81.1403 2110.4113,-74.4318"/>
</g>
<!-- Node10 -->
<g id="node11" class="node">
<title>Node10</title>
<polygon fill="#ffffff" stroke="#bfbfbf" points="2313.9099,-.5 2313.9099,-18.5 2358.8113,-18.5 2358.8113,-.5 2313.9099,-.5"/>
<text text-anchor="middle" x="2336.3606" y="-6.5" font-family="Helvetica,sans-Serif" font-size="10.00" fill="#000000">cstdint</text>
</g>
<!-- Node0&#45;&gt;Node10 -->
<g id="edge108" class="edge">
<title>Node0&#45;&gt;Node10</title>
<path fill="none" stroke="#191970" d="M2345.3117,-569.2203C2390.3653,-561.8164 2445.2877,-549.4115 2491.3606,-529 2546.841,-504.4207 2602.3606,-510.1813 2602.3606,-449.5 2602.3606,-449.5 2602.3606,-449.5 2602.3606,-134.5 2602.3606,-90.4994 2580.3009,-78.9052 2543.3606,-55 2514.8811,-36.5701 2420.0423,-21.0848 2369.2093,-13.8632"/>
<polygon fill="#191970" stroke="#191970" points="2369.4572,-10.364 2359.0697,-12.4495 2368.4906,-17.2969 2369.4572,-10.364"/>
</g>
<!-- Node12 -->
<g id="node13" class="node">
<title>Node12</title>
<polygon fill="#ffffff" stroke="#bfbfbf" points="2203.969,-190.5 2203.969,-208.5 2242.7522,-208.5 2242.7522,-190.5 2203.969,-190.5"/>
<text text-anchor="middle" x="2223.3606" y="-196.5" font-family="Helvetica,sans-Serif" font-size="10.00" fill="#000000">array</text>
</g>
<!-- Node0&#45;&gt;Node12 -->
<g id="edge107" class="edge">
<title>Node0&#45;&gt;Node12</title>
<path fill="none" stroke="#191970" d="M2268.1673,-565.3716C2274.8542,-555.7075 2282.8173,-542.2854 2286.3606,-529 2289.682,-516.5464 2286.5588,-512.8874 2286.3606,-500 2285.4716,-442.2017 2302.3674,-424.2325 2282.3606,-370 2264.415,-321.3549 2226.556,-327.9154 2209.3606,-279 2202.2692,-258.8271 2208.604,-234.4602 2214.8798,-218.0645"/>
<polygon fill="#191970" stroke="#191970" points="2218.2231,-219.1416 2218.8537,-208.5655 2211.7654,-216.44 2218.2231,-219.1416"/>
</g>
<!-- Node14 -->
<g id="node15" class="node">
<title>Node14</title>
<g id="a_node15"><a xlink:href="assignment_8hpp.html" target="_top" xlink:title="../../graph/assignment.hpp">
<polygon fill="#ffffff" stroke="#000000" points="1651.5481,-375.5 1651.5481,-393.5 1783.1731,-393.5 1783.1731,-375.5 1651.5481,-375.5"/>
<text text-anchor="middle" x="1717.3606" y="-381.5" font-family="Helvetica,sans-Serif" font-size="10.00" fill="#000000">../../graph/assignment.hpp</text>
</a>
</g>
</g>
<!-- Node0&#45;&gt;Node14 -->
<g id="edge93" class="edge">
<title>Node0&#45;&gt;Node14</title>
<path fill="none" stroke="#191970" d="M2169.4392,-569.9919C2076.1517,-556.9507 1926.8509,-527.4577 1813.3606,-464 1782.2403,-446.5992 1751.4119,-418.6651 1733.3909,-400.9646"/>
<polygon fill="#191970" stroke="#191970" points="1735.6019,-398.2256 1726.0572,-393.6267 1730.6507,-403.174 1735.6019,-398.2256"/>
</g>
<!-- Node18 -->
<g id="node19" class="node">
<title>Node18</title>
<polygon fill="#ffffff" stroke="#bfbfbf" points="1341.7449,-60.5 1341.7449,-78.5 1384.9763,-78.5 1384.9763,-60.5 1341.7449,-60.5"/>
<text text-anchor="middle" x="1363.3606" y="-66.5" font-family="Helvetica,sans-Serif" font-size="10.00" fill="#000000">vector</text>
</g>
<!-- Node0&#45;&gt;Node18 -->
<g id="edge111" class="edge">
<title>Node0&#45;&gt;Node18</title>
<path fill="none" stroke="#191970" d="M2169.4051,-576.6119C1845.5684,-565.4074 738.3606,-521.8112 738.3606,-449.5 738.3606,-449.5 738.3606,-449.5 738.3606,-264.5 738.3606,-221.0233 760.8075,-211.3876 795.3606,-185 811.8456,-172.4107 950.1521,-124.6758 970.3606,-120 1127.8815,-83.5528 1176.4633,-126.8633 1332.3606,-84 1334.0148,-83.5452 1335.6903,-83.0085 1337.3611,-82.4142"/>
<polygon fill="#191970" stroke="#191970" points="1338.7987,-85.6072 1346.7003,-78.5492 1336.1219,-79.1392 1338.7987,-85.6072"/>
</g>
<!-- Node47 -->
<g id="node43" class="node">
<title>Node47</title>
<g id="a_node43"><a xlink:href="astar__optimisation_8hpp.html" target="_top" xlink:title="indigox/algorithm/electron\l_assignment/astar_optimisation.hpp">
<polygon fill="#ffffff" stroke="#000000" points="2053.3142,-500.5 2053.3142,-528.5 2229.407,-528.5 2229.407,-500.5 2053.3142,-500.5"/>
<text text-anchor="start" x="2061.3142" y="-516.5" font-family="Helvetica,sans-Serif" font-size="10.00" fill="#000000">indigox/algorithm/electron</text>
<text text-anchor="middle" x="2141.3606" y="-506.5" font-family="Helvetica,sans-Serif" font-size="10.00" fill="#000000">_assignment/astar_optimisation.hpp</text>
</a>
</g>
</g>
<!-- Node0&#45;&gt;Node47 -->
<g id="edge77" class="edge">
<title>Node0&#45;&gt;Node47</title>
<path fill="none" stroke="#191970" d="M2232.1903,-565.396C2215.6214,-556.1117 2193.7228,-543.8409 2175.5792,-533.6742"/>
<polygon fill="#191970" stroke="#191970" points="2176.9165,-530.4116 2166.4817,-528.5765 2173.4946,-536.5182 2176.9165,-530.4116"/>
</g>
<!-- Node48 -->
<g id="node44" class="node">
<title>Node48</title>
<polygon fill="#ffffff" stroke="#bfbfbf" points="2229.4568,-440.5 2229.4568,-458.5 2273.2644,-458.5 2273.2644,-440.5 2229.4568,-440.5"/>
<text text-anchor="middle" x="2251.3606" y="-446.5" font-family="Helvetica,sans-Serif" font-size="10.00" fill="#000000">queue</text>
</g>
<!-- Node0&#45;&gt;Node48 -->
<g id="edge109" class="edge">
<title>Node0&#45;&gt;Node48</title>
<path fill="none" stroke="#191970" d="M2256.7071,-565.3402C2255.6276,-541.9521 2253.4706,-495.2164 2252.2521,-468.8163"/>
<polygon fill="#191970" stroke="#191970" points="2255.7368,-468.4015 2251.7794,-458.5736 2248.7442,-468.7243 2255.7368,-468.4015"/>
</g>
<!-- Node49 -->
<g id="node45" class="node">
<title>Node49</title>
<g id="a_node45"><a xlink:href="atom_8hpp.html" target="_top" xlink:title="indigox/classes/atom.hpp">
<polygon fill="#ffffff" stroke="#000000" points="546.218,-125.5 546.218,-143.5 674.5032,-143.5 674.5032,-125.5 546.218,-125.5"/>
<text text-anchor="middle" x="610.3606" y="-131.5" font-family="Helvetica,sans-Serif" font-size="10.00" fill="#000000">indigox/classes/atom.hpp</text>
</a>
</g>
</g>
<!-- Node0&#45;&gt;Node49 -->
<g id="edge84" class="edge">
<title>Node0&#45;&gt;Node49</title>
<path fill="none" stroke="#191970" d="M2169.4771,-578.1187C1853.8276,-572.9612 792.4499,-553.8458 724.3606,-529 670.6951,-509.4175 623.3606,-506.6267 623.3606,-449.5 623.3606,-449.5 623.3606,-449.5 623.3606,-264.5 623.3606,-224.9642 617.3339,-178.9992 613.4873,-153.6886"/>
<polygon fill="#191970" stroke="#191970" points="616.9135,-152.9452 611.9029,-143.6101 609.9985,-154.0323 616.9135,-152.9452"/>
</g>
<!-- Node51 -->
<g id="node47" class="node">
<title>Node51</title>
<g id="a_node47"><a xlink:href="bond_8hpp.html" target="_top" xlink:title="indigox/classes/bond.hpp">
<polygon fill="#ffffff" stroke="#000000" points="2218.2107,-255.5 2218.2107,-273.5 2346.5105,-273.5 2346.5105,-255.5 2218.2107,-255.5"/>
<text text-anchor="middle" x="2282.3606" y="-261.5" font-family="Helvetica,sans-Serif" font-size="10.00" fill="#000000">indigox/classes/bond.hpp</text>
</a>
</g>
</g>
<!-- Node0&#45;&gt;Node51 -->
<g id="edge89" class="edge">
<title>Node0&#45;&gt;Node51</title>
<path fill="none" stroke="#191970" d="M2260.4514,-565.3529C2262.6608,-555.2296 2265.7013,-541.2774 2268.3606,-529 2274.6164,-500.1184 2279.2319,-493.3853 2282.3606,-464 2289.3754,-398.1159 2285.9065,-319.2977 2283.7049,-283.6644"/>
<polygon fill="#191970" stroke="#191970" points="2287.1973,-283.4328 2283.0495,-273.6837 2280.2124,-283.8915 2287.1973,-283.4328"/>
</g>
<!-- Node52 -->
<g id="node48" class="node">
<title>Node52</title>
<g id="a_node48"><a xlink:href="molecular_8hpp.html" target="_top" xlink:title="indigox/graph/molecular.hpp">
<polygon fill="#ffffff" stroke="#000000" points="1223.8166,-375.5 1223.8166,-393.5 1364.9045,-393.5 1364.9045,-375.5 1223.8166,-375.5"/>
<text text-anchor="middle" x="1294.3606" y="-381.5" font-family="Helvetica,sans-Serif" font-size="10.00" fill="#000000">indigox/graph/molecular.hpp</text>
</a>
</g>
</g>
<!-- Node0&#45;&gt;Node52 -->
<g id="edge94" class="edge">
<title>Node0&#45;&gt;Node52</title>
<path fill="none" stroke="#191970" d="M2169.456,-569.9354C2094.8548,-561.2144 1985.1468,-546.9642 1890.3606,-529 1680.4659,-489.2201 1433.4613,-423.0288 1336.4618,-396.2654"/>
<polygon fill="#191970" stroke="#191970" points="1337.3067,-392.8677 1326.7355,-393.5751 1335.4405,-399.6144 1337.3067,-392.8677"/>
</g>
<!-- Node54 -->
<g id="node50" class="node">
<title>Node54</title>
<polygon fill="#ffffff" stroke="#bfbfbf" points="2630.5603,-500.5 2630.5603,-528.5 2742.1609,-528.5 2742.1609,-500.5 2630.5603,-500.5"/>
<text text-anchor="start" x="2638.5603" y="-516.5" font-family="Helvetica,sans-Serif" font-size="10.00" fill="#000000">boost/algorithm/string</text>
<text text-anchor="middle" x="2686.3606" y="-506.5" font-family="Helvetica,sans-Serif" font-size="10.00" fill="#000000">/join.hpp</text>
</g>
<!-- Node0&#45;&gt;Node54 -->
<g id="edge105" class="edge">
<title>Node0&#45;&gt;Node54</title>
<path fill="none" stroke="#191970" d="M2345.393,-568.7267C2418.222,-559.428 2524.2739,-544.9973 2616.3606,-529 2617.633,-528.779 2618.9177,-528.5519 2620.2115,-528.3197"/>
<polygon fill="#191970" stroke="#191970" points="2621.0651,-531.7211 2630.2575,-526.4533 2619.7864,-524.8389 2621.0651,-531.7211"/>
</g>
<!-- Node2 -->
<g id="node3" class="node">
<title>Node2</title>
<g id="a_node3"><a xlink:href="periodictable_8hpp.html" target="_top" xlink:title="../../classes/periodictable.hpp">
<polygon fill="#ffffff" stroke="#000000" points="1941.8806,-255.5 1941.8806,-273.5 2086.8406,-273.5 2086.8406,-255.5 1941.8806,-255.5"/>
<text text-anchor="middle" x="2014.3606" y="-261.5" font-family="Helvetica,sans-Serif" font-size="10.00" fill="#000000">../../classes/periodictable.hpp</text>
</a>
</g>
</g>
<!-- Node1&#45;&gt;Node2 -->
<g id="edge2" class="edge">
<title>Node1&#45;&gt;Node2</title>
<path fill="none" stroke="#191970" d="M1976.0762,-435.4267C1983.4398,-425.7859 1992.4461,-412.369 1997.3606,-399 2011.7206,-359.9357 2014.3536,-310.664 2014.6087,-283.9254"/>
<polygon fill="#191970" stroke="#191970" points="2018.1085,-283.637 2014.5961,-273.6413 2011.1085,-283.6456 2018.1085,-283.637"/>
</g>
<!-- Node3 -->
<g id="node4" class="node">
<title>Node3</title>
<g id="a_node4"><a xlink:href="common_8hpp.html" target="_top" xlink:title="../utils/common.hpp">
<polygon fill="#ffffff" stroke="#000000" points="1902.0085,-125.5 1902.0085,-143.5 2004.7126,-143.5 2004.7126,-125.5 1902.0085,-125.5"/>
<text text-anchor="middle" x="1953.3606" y="-131.5" font-family="Helvetica,sans-Serif" font-size="10.00" fill="#000000">../utils/common.hpp</text>
</a>
</g>
</g>
<!-- Node1&#45;&gt;Node3 -->
<g id="edge67" class="edge">
<title>Node1&#45;&gt;Node3</title>
<path fill="none" stroke="#191970" d="M1963.9714,-435.3807C1963.4166,-419.4502 1962.1391,-392.788 1959.3606,-370 1956.3535,-345.3375 1956.68,-338.7426 1949.3606,-315 1944.2024,-298.268 1936.9953,-296.1277 1933.3606,-279 1930.685,-266.3919 1932.257,-262.8416 1933.3606,-250 1936.2972,-215.8298 1944.0348,-176.5943 1948.9797,-153.771"/>
<polygon fill="#191970" stroke="#191970" points="1952.4623,-154.2326 1951.2103,-143.712 1945.6283,-152.7171 1952.4623,-154.2326"/>
</g>
<!-- Node1&#45;&gt;Node7 -->
<g id="edge75" class="edge">
<title>Node1&#45;&gt;Node7</title>
<path fill="none" stroke="#191970" d="M1981.4503,-435.3155C2012.0471,-408.5927 2074.8972,-347.2985 2095.3606,-279 2115.6648,-211.2329 2096.0228,-125.9081 2085.3058,-88.5201"/>
<polygon fill="#191970" stroke="#191970" points="2088.5368,-87.108 2082.3204,-78.5285 2081.8298,-89.1119 2088.5368,-87.108"/>
</g>
<!-- Node9 -->
<g id="node10" class="node">
<title>Node9</title>
<g id="a_node10"><a xlink:href="fwd__declares_8hpp.html" target="_top" xlink:title="../utils/fwd_declares.hpp">
<polygon fill="#ffffff" stroke="#000000" points="1812.7204,-60.5 1812.7204,-78.5 1936.0007,-78.5 1936.0007,-60.5 1812.7204,-60.5"/>
<text text-anchor="middle" x="1874.3606" y="-66.5" font-family="Helvetica,sans-Serif" font-size="10.00" fill="#000000">../utils/fwd_declares.hpp</text>
</a>
</g>
</g>
<!-- Node1&#45;&gt;Node9 -->
<g id="edge68" class="edge">
<title>Node1&#45;&gt;Node9</title>
<path fill="none" stroke="#191970" d="M1960.9424,-435.0676C1947.0409,-376.3723 1894.7388,-155.5415 1878.9205,-88.7531"/>
<polygon fill="#191970" stroke="#191970" points="1882.2665,-87.6937 1876.556,-78.7695 1875.455,-89.307 1882.2665,-87.6937"/>
</g>
<!-- Node1&#45;&gt;Node10 -->
<g id="edge72" class="edge">
<title>Node1&#45;&gt;Node10</title>
<path fill="none" stroke="#191970" d="M1997.2075,-435.4582C2035.0027,-419.3704 2098.9856,-392.3482 2154.3606,-370 2238.688,-335.9672 2526.3606,-290.4359 2526.3606,-199.5 2526.3606,-199.5 2526.3606,-199.5 2526.3606,-134.5 2526.3606,-59.9412 2422.9855,-27.3642 2368.7378,-15.4019"/>
<polygon fill="#191970" stroke="#191970" points="2369.4076,-11.9663 2358.9022,-13.3402 2367.9714,-18.8174 2369.4076,-11.9663"/>
</g>
<!-- Node1&#45;&gt;Node14 -->
<g id="edge16" class="edge">
<title>Node1&#45;&gt;Node14</title>
<path fill="none" stroke="#191970" d="M1911.0694,-435.476C1866.3928,-423.719 1803.3606,-407.1316 1761.4741,-396.1088"/>
<polygon fill="#191970" stroke="#191970" points="1762.128,-392.6618 1751.5665,-393.5016 1760.3465,-399.4313 1762.128,-392.6618"/>
</g>
<!-- Node1&#45;&gt;Node18 -->
<g id="edge76" class="edge">
<title>Node1&#45;&gt;Node18</title>
<path fill="none" stroke="#191970" d="M1915.0923,-435.4499C1897.2035,-427.7198 1878.8303,-416.1065 1868.3606,-399 1848.8704,-367.1549 1887.6979,-346.3109 1867.3606,-315 1791.9653,-198.923 1716.4308,-226.422 1584.3606,-185 1497.7649,-157.8405 1449.7165,-210.9139 1383.3606,-149 1366.9014,-133.6426 1363.1461,-106.9135 1362.6796,-88.7276"/>
<polygon fill="#191970" stroke="#191970" points="1366.1797,-88.7039 1362.7299,-78.6864 1359.1797,-88.6687 1366.1797,-88.7039"/>
</g>
<!-- Node42 -->
<g id="node38" class="node">
<title>Node42</title>
<polygon fill="#ffffff" stroke="#bfbfbf" points="803.8953,-190.5 803.8953,-208.5 908.8259,-208.5 908.8259,-190.5 803.8953,-190.5"/>
<text text-anchor="middle" x="856.3606" y="-196.5" font-family="Helvetica,sans-Serif" font-size="10.00" fill="#000000">EASTL/vector_set.h</text>
</g>
<!-- Node1&#45;&gt;Node42 -->
<g id="edge70" class="edge">
<title>Node1&#45;&gt;Node42</title>
<path fill="none" stroke="#191970" d="M1898.0932,-447.3678C1672.7575,-439.4625 946.1525,-408.3565 875.3606,-334 845.645,-302.7881 848.6718,-247.6004 852.8376,-218.5709"/>
<polygon fill="#191970" stroke="#191970" points="856.323,-218.9444 854.4828,-208.5106 849.4147,-217.8146 856.323,-218.9444"/>
</g>
<!-- Node43 -->
<g id="node39" class="node">
<title>Node43</title>
<polygon fill="#ffffff" stroke="#bfbfbf" points="1322.634,-315.5 1322.634,-333.5 1358.0871,-333.5 1358.0871,-315.5 1322.634,-315.5"/>
<text text-anchor="middle" x="1340.3606" y="-321.5" font-family="Helvetica,sans-Serif" font-size="10.00" fill="#000000">map</text>
</g>
<!-- Node1&#45;&gt;Node43 -->
<g id="edge73" class="edge">
<title>Node1&#45;&gt;Node43</title>
<path fill="none" stroke="#191970" d="M1898.0991,-440.7013C1832.8055,-431.6568 1730.334,-416.4584 1642.3606,-399 1521.2931,-374.9741 1491.5635,-366.0192 1372.3606,-334 1370.9264,-333.6148 1369.4587,-333.2115 1367.9786,-332.7976"/>
<polygon fill="#191970" stroke="#191970" points="1368.8321,-329.4011 1358.2537,-329.9918 1366.8916,-336.1268 1368.8321,-329.4011"/>
</g>
<!-- Node44 -->
<g id="node40" class="node">
<title>Node44</title>
<polygon fill="#ffffff" stroke="#bfbfbf" points="2163.3904,-370.5 2163.3904,-398.5 2273.3308,-398.5 2273.3308,-370.5 2163.3904,-370.5"/>
<text text-anchor="start" x="2171.3904" y="-386.5" font-family="Helvetica,sans-Serif" font-size="10.00" fill="#000000">boost/dynamic_bitset</text>
<text text-anchor="middle" x="2218.3606" y="-376.5" font-family="Helvetica,sans-Serif" font-size="10.00" fill="#000000">/dynamic_bitset.hpp</text>
</g>
<!-- Node1&#45;&gt;Node44 -->
<g id="edge69" class="edge">
<title>Node1&#45;&gt;Node44</title>
<path fill="none" stroke="#191970" d="M2019.1621,-435.476C2058.5862,-425.3871 2111.9098,-411.7413 2153.4652,-401.1071"/>
<polygon fill="#191970" stroke="#191970" points="2154.3994,-404.4809 2163.2195,-398.6109 2152.6639,-397.6994 2154.3994,-404.4809"/>
</g>
<!-- Node45 -->
<g id="node41" class="node">
<title>Node45</title>
<polygon fill="#ffffff" stroke="#bfbfbf" points="1877.4099,-375.5 1877.4099,-393.5 1917.3113,-393.5 1917.3113,-375.5 1877.4099,-375.5"/>
<text text-anchor="middle" x="1897.3606" y="-381.5" font-family="Helvetica,sans-Serif" font-size="10.00" fill="#000000">bitset</text>
</g>
<!-- Node1&#45;&gt;Node45 -->
<g id="edge71" class="edge">
<title>Node1&#45;&gt;Node45</title>
<path fill="none" stroke="#191970" d="M1949.8226,-435.396C1939.2928,-425.1805 1925.0363,-411.3496 1914.0426,-400.6841"/>
<polygon fill="#191970" stroke="#191970" points="1916.3286,-398.0254 1906.7141,-393.5743 1911.4544,-403.0496 1916.3286,-398.0254"/>
</g>
<!-- Node46 -->
<g id="node42" class="node">
<title>Node46</title>
<polygon fill="#ffffff" stroke="#bfbfbf" points="1828.6907,-315.5 1828.6907,-333.5 1858.0305,-333.5 1858.0305,-315.5 1828.6907,-315.5"/>
<text text-anchor="middle" x="1843.3606" y="-321.5" font-family="Helvetica,sans-Serif" font-size="10.00" fill="#000000">set</text>
</g>
<!-- Node1&#45;&gt;Node46 -->
<g id="edge74" class="edge">
<title>Node1&#45;&gt;Node46</title>
<path fill="none" stroke="#191970" d="M1911.628,-435.4127C1880.1472,-425.8183 1844.5454,-412.4591 1835.3606,-399 1824.1727,-382.6057 1829.1628,-359.2893 1835.0206,-343.1258"/>
<polygon fill="#191970" stroke="#191970" points="1838.3353,-344.2647 1838.8341,-333.6816 1831.8445,-341.6438 1838.3353,-344.2647"/>
</g>
<!-- Node2&#45;&gt;Node3 -->
<g id="edge3" class="edge">
<title>Node2&#45;&gt;Node3</title>
<path fill="none" stroke="#191970" d="M2005.6474,-255.1468C1997.0892,-245.5049 1984.207,-229.7045 1976.3606,-214 1966.6556,-194.5757 1960.3937,-170.3799 1956.8918,-153.8153"/>
<polygon fill="#191970" stroke="#191970" points="1960.2694,-152.8526 1954.8999,-143.7191 1953.4017,-154.2075 1960.2694,-152.8526"/>
</g>
<!-- Node2&#45;&gt;Node9 -->
<g id="edge9" class="edge">
<title>Node2&#45;&gt;Node9</title>
<path fill="none" stroke="#191970" d="M2013.1636,-255.2129C2011.9248,-245.0976 2010.0733,-228.4312 2009.3606,-214 2008.7249,-201.1268 2008.6478,-197.8692 2009.3606,-185 2010.2508,-168.9262 2012.4703,-165.0738 2013.3606,-149 2014.0733,-136.1308 2020.7564,-130.5558 2013.3606,-120 2002.6545,-104.7197 1959.3042,-90.5128 1923.8258,-81.0855"/>
<polygon fill="#191970" stroke="#191970" points="1924.6196,-77.6757 1914.0614,-78.5563 1922.8643,-84.4521 1924.6196,-77.6757"/>
</g>
<!-- Node2&#45;&gt;Node10 -->
<g id="edge14" class="edge">
<title>Node2&#45;&gt;Node10</title>
<path fill="none" stroke="#191970" d="M2027.6141,-255.3248C2041.4348,-245.5719 2063.5284,-229.4541 2081.3606,-214 2157.1214,-148.3428 2159.446,-112.7976 2241.3606,-55 2260.8285,-41.2637 2285.0874,-29.7239 2304.218,-21.7028"/>
<polygon fill="#191970" stroke="#191970" points="2305.7636,-24.8524 2313.7021,-17.836 2303.1208,-18.3705 2305.7636,-24.8524"/>
</g>
<!-- Node11 -->
<g id="node12" class="node">
<title>Node11</title>
<polygon fill="#ffffff" stroke="#bfbfbf" points="1463.8386,-190.5 1463.8386,-208.5 1574.8826,-208.5 1574.8826,-190.5 1463.8386,-190.5"/>
<text text-anchor="middle" x="1519.3606" y="-196.5" font-family="Helvetica,sans-Serif" font-size="10.00" fill="#000000">EASTL/vector_map.h</text>
</g>
<!-- Node2&#45;&gt;Node11 -->
<g id="edge12" class="edge">
<title>Node2&#45;&gt;Node11</title>
<path fill="none" stroke="#191970" d="M1945.793,-255.4962C1850.3948,-242.9691 1678.8038,-220.437 1584.9962,-208.1188"/>
<polygon fill="#191970" stroke="#191970" points="1585.4298,-204.6458 1575.0592,-206.814 1584.5184,-211.5862 1585.4298,-204.6458"/>
</g>
<!-- Node2&#45;&gt;Node12 -->
<g id="edge13" class="edge">
<title>Node2&#45;&gt;Node12</title>
<path fill="none" stroke="#191970" d="M2043.4211,-255.462C2083.2491,-243.0753 2154.3821,-220.9526 2194.241,-208.5563"/>
<polygon fill="#191970" stroke="#191970" points="2195.3883,-211.8649 2203.8978,-205.553 2193.3095,-205.1807 2195.3883,-211.8649"/>
</g>
<!-- Node13 -->
<g id="node14" class="node">
<title>Node13</title>
<polygon fill="#ffffff" stroke="#bfbfbf" points="2018.1882,-190.5 2018.1882,-208.5 2072.5329,-208.5 2072.5329,-190.5 2018.1882,-190.5"/>
<text text-anchor="middle" x="2045.3606" y="-196.5" font-family="Helvetica,sans-Serif" font-size="10.00" fill="#000000">iostream</text>
</g>
<!-- Node2&#45;&gt;Node13 -->
<g id="edge15" class="edge">
<title>Node2&#45;&gt;Node13</title>
<path fill="none" stroke="#191970" d="M2018.671,-255.462C2023.2461,-245.8691 2030.6061,-230.4368 2036.4396,-218.2053"/>
<polygon fill="#191970" stroke="#191970" points="2039.7404,-219.4149 2040.886,-208.8821 2033.4221,-216.4015 2039.7404,-219.4149"/>
</g>
<!-- Node3&#45;&gt;Node4 -->
<g id="edge4" class="edge">
<title>Node3&#45;&gt;Node4</title>
<path fill="none" stroke="#191970" d="M1998.6895,-125.462C2063.1897,-112.6016 2180.3266,-89.246 2240.8542,-77.1777"/>
<polygon fill="#191970" stroke="#191970" points="2241.6469,-80.5886 2250.7694,-75.2007 2240.278,-73.7237 2241.6469,-80.5886"/>
</g>
<!-- Node5 -->
<g id="node6" class="node">
<title>Node5</title>
<polygon fill="#ffffff" stroke="#bfbfbf" points="1652.7991,-60.5 1652.7991,-78.5 1699.9221,-78.5 1699.9221,-60.5 1652.7991,-60.5"/>
<text text-anchor="middle" x="1676.3606" y="-66.5" font-family="Helvetica,sans-Serif" font-size="10.00" fill="#000000">iterator</text>
</g>
<!-- Node3&#45;&gt;Node5 -->
<g id="edge5" class="edge">
<title>Node3&#45;&gt;Node5</title>
<path fill="none" stroke="#191970" d="M1914.8449,-125.462C1860.4666,-112.7018 1762.0576,-89.6094 1710.2903,-77.4619"/>
<polygon fill="#191970" stroke="#191970" points="1710.82,-73.9911 1700.2848,-75.114 1709.2208,-80.806 1710.82,-73.9911"/>
</g>
<!-- Node6 -->
<g id="node7" class="node">
<title>Node6</title>
<polygon fill="#ffffff" stroke="#bfbfbf" points="142.3039,-.5 142.3039,-18.5 194.4172,-18.5 194.4172,-.5 142.3039,-.5"/>
<text text-anchor="middle" x="168.3606" y="-6.5" font-family="Helvetica,sans-Serif" font-size="10.00" fill="#000000">memory</text>
</g>
<!-- Node3&#45;&gt;Node6 -->
<g id="edge6" class="edge">
<title>Node3&#45;&gt;Node6</title>
<path fill="none" stroke="#191970" d="M1955.7711,-125.475C1959.6221,-108.7771 1964.8836,-73.1167 1945.3606,-55 1912.2748,-24.2975 454.8015,-11.7061 204.6987,-9.7698"/>
<polygon fill="#191970" stroke="#191970" points="204.7033,-6.2698 194.6767,-9.6929 204.6495,-13.2696 204.7033,-6.2698"/>
</g>
<!-- Node3&#45;&gt;Node7 -->
<g id="edge7" class="edge">
<title>Node3&#45;&gt;Node7</title>
<path fill="none" stroke="#191970" d="M1970.8803,-125.462C1992.0126,-114.5605 2027.7634,-96.1176 2052.4138,-83.4011"/>
<polygon fill="#191970" stroke="#191970" points="2054.3009,-86.3659 2061.5834,-78.6708 2051.0916,-80.1449 2054.3009,-86.3659"/>
</g>
<!-- Node8 -->
<g id="node9" class="node">
<title>Node8</title>
<polygon fill="#ffffff" stroke="#bfbfbf" points="1403.2942,-60.5 1403.2942,-78.5 1465.427,-78.5 1465.427,-60.5 1403.2942,-60.5"/>
<text text-anchor="middle" x="1434.3606" y="-66.5" font-family="Helvetica,sans-Serif" font-size="10.00" fill="#000000">type_traits</text>
</g>
<!-- Node3&#45;&gt;Node8 -->
<g id="edge8" class="edge">
<title>Node3&#45;&gt;Node8</title>
<path fill="none" stroke="#191970" d="M1901.9992,-133.1604C1813.5772,-129.9537 1627.3517,-119.2419 1474.3606,-84 1471.686,-83.3839 1468.9452,-82.6412 1466.2137,-81.8216"/>
<polygon fill="#191970" stroke="#191970" points="1467.0906,-78.4252 1456.4973,-78.6056 1464.891,-85.0706 1467.0906,-78.4252"/>
</g>
<!-- Node9&#45;&gt;Node6 -->
<g id="edge11" class="edge">
<title>Node9&#45;&gt;Node6</title>
<path fill="none" stroke="#191970" d="M1836.2346,-60.447C1825.6486,-58.2801 1814.1091,-56.2376 1803.3606,-55 1478.5974,-17.6057 415.4307,-10.6704 204.8108,-9.6534"/>
<polygon fill="#191970" stroke="#191970" points="204.6225,-6.1526 194.6062,-9.6056 204.5896,-13.1525 204.6225,-6.1526"/>
</g>
<!-- Node9&#45;&gt;Node10 -->
<g id="edge10" class="edge">
<title>Node9&#45;&gt;Node10</title>
<path fill="none" stroke="#191970" d="M1936.1886,-61.4704C2035.5238,-48.5697 2227.2489,-23.6703 2303.7144,-13.7398"/>
<polygon fill="#191970" stroke="#191970" points="2304.2515,-17.1995 2313.7174,-12.4407 2303.3499,-10.2578 2304.2515,-17.1995"/>
</g>
<!-- Node14&#45;&gt;Node3 -->
<g id="edge17" class="edge">
<title>Node14&#45;&gt;Node3</title>
<path fill="none" stroke="#191970" d="M1729.1794,-375.3641C1741.4705,-365.6433 1761.0232,-349.5513 1776.3606,-334 1836.8578,-272.6591 1841.5201,-247.9318 1900.3606,-185 1911.5661,-173.0153 1924.9478,-160.276 1935.4614,-150.5908"/>
<polygon fill="#191970" stroke="#191970" points="1937.8295,-153.1681 1942.8586,-143.8429 1933.1119,-147.9965 1937.8295,-153.1681"/>
</g>
<!-- Node14&#45;&gt;Node6 -->
<g id="edge65" class="edge">
<title>Node14&#45;&gt;Node6</title>
<path fill="none" stroke="#191970" d="M1651.2723,-376.8378C1572.3679,-367.1904 1445.4093,-349.9451 1400.3606,-334 1384.4065,-328.353 1383.4557,-320.2313 1367.3606,-315 1223.6872,-268.3023 1177.7557,-307.3128 1029.3606,-279 923.3353,-258.7711 891.1151,-263.816 795.3606,-214 755.0245,-193.0153 750.9978,-178.4554 716.3606,-149 701.4865,-136.3511 701.38,-127.5191 683.3606,-120 630.3204,-97.8674 206.5602,-126.0298 167.3606,-84 153.7546,-69.4117 156.9045,-45.3633 161.5599,-28.5469"/>
<polygon fill="#191970" stroke="#191970" points="164.9918,-29.3027 164.6756,-18.7126 158.3187,-27.1885 164.9918,-29.3027"/>
</g>
<!-- Node14&#45;&gt;Node9 -->
<g id="edge18" class="edge">
<title>Node14&#45;&gt;Node9</title>
<path fill="none" stroke="#191970" d="M1721.89,-375.4124C1743.4228,-332.2095 1835.6186,-147.2306 1865.192,-87.8955"/>
<polygon fill="#191970" stroke="#191970" points="1868.4845,-89.1357 1869.8128,-78.6245 1862.2195,-86.0132 1868.4845,-89.1357"/>
</g>
<!-- Node14&#45;&gt;Node10 -->
<g id="edge62" class="edge">
<title>Node14&#45;&gt;Node10</title>
<path fill="none" stroke="#191970" d="M1783.2668,-376.5001C1936.4451,-357.4965 2307.1253,-308.9944 2355.3606,-279 2392.2811,-256.0415 2412.3606,-242.9767 2412.3606,-199.5 2412.3606,-199.5 2412.3606,-199.5 2412.3606,-134.5 2412.3606,-89.9707 2376.7124,-47.8036 2354.2452,-25.6498"/>
<polygon fill="#191970" stroke="#191970" points="2356.5821,-23.042 2346.9281,-18.6773 2351.7531,-28.1097 2356.5821,-23.042"/>
</g>
<!-- Node14&#45;&gt;Node11 -->
<g id="edge61" class="edge">
<title>Node14&#45;&gt;Node11</title>
<path fill="none" stroke="#191970" d="M1709.9779,-375.4021C1691.3975,-352.7906 1640.6545,-292.7859 1591.3606,-250 1575.9872,-236.6563 1557.0974,-223.5138 1542.5239,-213.9824"/>
<polygon fill="#191970" stroke="#191970" points="1544.3806,-211.0151 1534.0777,-208.5448 1540.5914,-216.9008 1544.3806,-211.0151"/>
</g>
<!-- Node15 -->
<g id="node16" class="node">
<title>Node15</title>
<g id="a_node16"><a xlink:href="base__graph_8hpp.html" target="_top" xlink:title="base_graph.hpp">
<polygon fill="#ffffff" stroke="#000000" points="1452.218,-315.5 1452.218,-333.5 1540.5032,-333.5 1540.5032,-315.5 1452.218,-315.5"/>
<text text-anchor="middle" x="1496.3606" y="-321.5" font-family="Helvetica,sans-Serif" font-size="10.00" fill="#000000">base_graph.hpp</text>
</a>
</g>
</g>
<!-- Node14&#45;&gt;Node15 -->
<g id="edge19" class="edge">
<title>Node14&#45;&gt;Node15</title>
<path fill="none" stroke="#191970" d="M1683.7954,-375.3873C1645.1167,-364.8863 1581.4714,-347.607 1539.2381,-336.141"/>
<polygon fill="#191970" stroke="#191970" points="1540.0852,-332.7443 1529.5175,-333.5019 1538.2511,-339.4998 1540.0852,-332.7443"/>
</g>
<!-- Node14&#45;&gt;Node18 -->
<g id="edge66" class="edge">
<title>Node14&#45;&gt;Node18</title>
<path fill="none" stroke="#191970" d="M1651.2747,-376.7324C1595.1215,-369.0917 1512.8094,-355.4194 1443.3606,-334 1423.395,-327.8422 1420.5566,-320.3539 1400.3606,-315 1324.5693,-294.908 1101.8997,-337.2034 1049.3606,-279 993.1036,-216.6779 1074.1344,-152.9395 1151.3606,-120 1226.8046,-87.8206 1254.4251,-109.561 1332.3606,-84 1333.772,-83.5371 1335.2034,-83.0263 1336.6374,-82.4814"/>
<polygon fill="#191970" stroke="#191970" points="1338.1108,-85.6584 1345.9549,-78.5365 1335.3816,-79.2124 1338.1108,-85.6584"/>
</g>
<!-- Node21 -->
<g id="node22" class="node">
<title>Node21</title>
<polygon fill="#ffffff" stroke="#bfbfbf" points="1755.9739,-60.5 1755.9739,-78.5 1794.7473,-78.5 1794.7473,-60.5 1755.9739,-60.5"/>
<text text-anchor="middle" x="1775.3606" y="-66.5" font-family="Helvetica,sans-Serif" font-size="10.00" fill="#000000">limits</text>
</g>
<!-- Node14&#45;&gt;Node21 -->
<g id="edge63" class="edge">
<title>Node14&#45;&gt;Node21</title>
<path fill="none" stroke="#191970" d="M1719.0339,-375.4124C1726.9557,-332.3884 1760.7667,-148.7601 1771.8366,-88.639"/>
<polygon fill="#191970" stroke="#191970" points="1775.3117,-89.093 1773.6805,-78.6245 1768.4275,-87.8254 1775.3117,-89.093"/>
</g>
<!-- Node14&#45;&gt;Node43 -->
<g id="edge64" class="edge">
<title>Node14&#45;&gt;Node43</title>
<path fill="none" stroke="#191970" d="M1651.3557,-377.6855C1581.5406,-369.8158 1468.4223,-355.1754 1372.3606,-334 1370.9104,-333.6803 1369.4299,-333.3295 1367.9397,-332.9569"/>
<polygon fill="#191970" stroke="#191970" points="1368.7522,-329.5505 1358.1827,-330.2826 1366.9018,-336.3015 1368.7522,-329.5505"/>
</g>
<!-- Node15&#45;&gt;Node6 -->
<g id="edge25" class="edge">
<title>Node15&#45;&gt;Node6</title>
<path fill="none" stroke="#191970" d="M1452.1352,-320.0722C1339.7208,-308.8079 1051.7103,-279.8848 1049.3606,-279 981.9587,-253.6199 983.0813,-214.461 917.3606,-185 851.6399,-155.539 825.4511,-177.6219 759.3606,-149 738.2078,-139.8393 738.1631,-127.4837 716.3606,-120 604.9156,-81.7465 277.8948,-159.4113 187.3606,-84 171.3754,-70.685 167.8119,-45.9682 167.47,-28.6685"/>
<polygon fill="#191970" stroke="#191970" points="170.971,-28.6139 167.6124,-18.5656 163.9717,-28.5152 170.971,-28.6139"/>
</g>
<!-- Node15&#45;&gt;Node9 -->
<g id="edge20" class="edge">
<title>Node15&#45;&gt;Node9</title>
<path fill="none" stroke="#191970" d="M1522.632,-315.4165C1542.7072,-307.6824 1570.4011,-295.2425 1591.3606,-279 1634.4968,-245.5718 1628.4474,-219.9494 1670.3606,-185 1715.1548,-147.6482 1733.595,-148.7148 1784.3606,-120 1806.2725,-107.6059 1831.2435,-93.6041 1849.3146,-83.4931"/>
<polygon fill="#191970" stroke="#191970" points="1851.0634,-86.5252 1858.083,-78.5894 1847.6467,-80.4157 1851.0634,-86.5252"/>
</g>
<!-- Node15&#45;&gt;Node10 -->
<g id="edge24" class="edge">
<title>Node15&#45;&gt;Node10</title>
<path fill="none" stroke="#191970" d="M1540.7128,-322.8334C1670.7399,-317.7105 2045.0193,-301.1887 2095.3606,-279 2151.1767,-254.3982 2149.6229,-225.3578 2195.3606,-185 2248.1427,-138.4263 2279.7012,-143.4712 2317.3606,-84 2327.9339,-67.3028 2332.6324,-44.9988 2334.7148,-29.159"/>
<polygon fill="#191970" stroke="#191970" points="2338.2243,-29.2576 2335.8153,-18.9403 2331.2645,-28.508 2338.2243,-29.2576"/>
</g>
<!-- Node16 -->
<g id="node17" class="node">
<title>Node16</title>
<g id="a_node17"><a xlink:href="simple__bimap_8hpp.html" target="_top" xlink:title="../utils/simple_bimap.hpp">
<polygon fill="#ffffff" stroke="#000000" points="1456.3337,-255.5 1456.3337,-273.5 1582.3874,-273.5 1582.3874,-255.5 1456.3337,-255.5"/>
<text text-anchor="middle" x="1519.3606" y="-261.5" font-family="Helvetica,sans-Serif" font-size="10.00" fill="#000000">../utils/simple_bimap.hpp</text>
</a>
</g>
</g>
<!-- Node15&#45;&gt;Node16 -->
<g id="edge21" class="edge">
<title>Node15&#45;&gt;Node16</title>
<path fill="none" stroke="#191970" d="M1499.8538,-315.3873C1503.1298,-306.8412 1508.1267,-293.8057 1512.2429,-283.0679"/>
<polygon fill="#191970" stroke="#191970" points="1515.5232,-284.2887 1515.8345,-273.6985 1508.987,-281.7831 1515.5232,-284.2887"/>
</g>
<!-- Node17 -->
<g id="node18" class="node">
<title>Node17</title>
<polygon fill="#ffffff" stroke="#bfbfbf" points="1322.0481,-250.5 1322.0481,-278.5 1438.6731,-278.5 1438.6731,-250.5 1322.0481,-250.5"/>
<text text-anchor="start" x="1330.0481" y="-266.5" font-family="Helvetica,sans-Serif" font-size="10.00" fill="#000000">boost/graph/adjacency</text>
<text text-anchor="middle" x="1380.3606" y="-256.5" font-family="Helvetica,sans-Serif" font-size="10.00" fill="#000000">_list.hpp</text>
</g>
<!-- Node15&#45;&gt;Node17 -->
<g id="edge23" class="edge">
<title>Node15&#45;&gt;Node17</title>
<path fill="none" stroke="#191970" d="M1478.7427,-315.3873C1462.3639,-306.9155 1437.4557,-294.032 1416.8008,-283.3484"/>
<polygon fill="#191970" stroke="#191970" points="1418.1461,-280.1038 1407.6559,-278.6183 1414.9301,-286.3213 1418.1461,-280.1038"/>
</g>
<!-- Node15&#45;&gt;Node18 -->
<g id="edge26" class="edge">
<title>Node15&#45;&gt;Node18</title>
<path fill="none" stroke="#191970" d="M1452.0708,-316.941C1447.4473,-316.2431 1442.8124,-315.5811 1438.3606,-315 1397.5125,-309.6678 1097.0393,-309.5105 1069.3606,-279 1006.6855,-209.9126 1125.1031,-165.8089 1206.3606,-120 1257.0948,-91.3986 1277.8103,-104.4025 1332.3606,-84 1333.5501,-83.5551 1334.7571,-83.0834 1335.9704,-82.5925"/>
<polygon fill="#191970" stroke="#191970" points="1337.431,-85.774 1345.2078,-78.5788 1334.6414,-79.3539 1337.431,-85.774"/>
</g>
<!-- Node19 -->
<g id="node20" class="node">
<title>Node19</title>
<g id="a_node20"><a xlink:href="base__graph__impl_8hpp.html" target="_top" xlink:title="base_graph_impl.hpp">
<polygon fill="#ffffff" stroke="#000000" points="1078.2698,-255.5 1078.2698,-273.5 1190.4514,-273.5 1190.4514,-255.5 1078.2698,-255.5"/>
<text text-anchor="middle" x="1134.3606" y="-261.5" font-family="Helvetica,sans-Serif" font-size="10.00" fill="#000000">base_graph_impl.hpp</text>
</a>
</g>
</g>
<!-- Node15&#45;&gt;Node19 -->
<g id="edge27" class="edge">
<title>Node15&#45;&gt;Node19</title>
<path fill="none" stroke="#191970" d="M1451.9723,-317.1428C1388.591,-306.6376 1271.7779,-287.2764 1198.8507,-275.189"/>
<polygon fill="#191970" stroke="#191970" points="1199.2995,-271.7157 1188.8618,-273.5333 1198.1548,-278.6215 1199.2995,-271.7157"/>
</g>
<!-- Node16&#45;&gt;Node11 -->
<g id="edge22" class="edge">
<title>Node16&#45;&gt;Node11</title>
<path fill="none" stroke="#191970" d="M1519.3606,-255.462C1519.3606,-246.061 1519.3606,-231.0518 1519.3606,-218.943"/>
<polygon fill="#191970" stroke="#191970" points="1522.8607,-218.8821 1519.3606,-208.8821 1515.8607,-218.8822 1522.8607,-218.8821"/>
</g>
<!-- Node19&#45;&gt;Node11 -->
<g id="edge58" class="edge">
<title>Node19&#45;&gt;Node11</title>
<path fill="none" stroke="#191970" d="M1187.8932,-255.462C1258.0456,-243.6181 1380.9221,-222.8727 1455.745,-210.2403"/>
<polygon fill="#191970" stroke="#191970" points="1456.6956,-213.6294 1465.9734,-208.5134 1455.5302,-206.7271 1456.6956,-213.6294"/>
</g>
<!-- Node19&#45;&gt;Node18 -->
<g id="edge60" class="edge">
<title>Node19&#45;&gt;Node18</title>
<path fill="none" stroke="#191970" d="M1134.2427,-255.3972C1134.4941,-239.4975 1137.102,-206.3307 1153.3606,-185 1165.704,-168.8058 1281.9516,-109.8476 1335.9886,-82.9916"/>
<polygon fill="#191970" stroke="#191970" points="1337.6084,-86.0951 1345.0132,-78.5175 1334.4992,-79.8235 1337.6084,-86.0951"/>
</g>
<!-- Node20 -->
<g id="node21" class="node">
<title>Node20</title>
<g id="a_node21"><a xlink:href="connectivity_8hpp.html" target="_top" xlink:title="../algorithm/graph\l/connectivity.hpp">
<polygon fill="#ffffff" stroke="#000000" points="1562.4519,-120.5 1562.4519,-148.5 1656.2693,-148.5 1656.2693,-120.5 1562.4519,-120.5"/>
<text text-anchor="start" x="1570.4519" y="-136.5" font-family="Helvetica,sans-Serif" font-size="10.00" fill="#000000">../algorithm/graph</text>
<text text-anchor="middle" x="1609.3606" y="-126.5" font-family="Helvetica,sans-Serif" font-size="10.00" fill="#000000">/connectivity.hpp</text>
</a>
</g>
</g>
<!-- Node19&#45;&gt;Node20 -->
<g id="edge28" class="edge">
<title>Node19&#45;&gt;Node20</title>
<path fill="none" stroke="#191970" d="M1160.4586,-255.4564C1185.8186,-246.2837 1225.114,-231.0413 1257.3606,-214 1278.0679,-203.0569 1279.5469,-193.5267 1301.3606,-185 1307.186,-182.7229 1464.9106,-157.4477 1552.3315,-143.5428"/>
<polygon fill="#191970" stroke="#191970" points="1553.0447,-146.9735 1562.3711,-141.9468 1551.9456,-140.0603 1553.0447,-146.9735"/>
</g>
<!-- Node22 -->
<g id="node23" class="node">
<title>Node22</title>
<g id="a_node23"><a xlink:href="cycles_8hpp.html" target="_top" xlink:title="../algorithm/graph\l/cycles.hpp">
<polygon fill="#ffffff" stroke="#000000" points="1310.4519,-185.5 1310.4519,-213.5 1404.2693,-213.5 1404.2693,-185.5 1310.4519,-185.5"/>
<text text-anchor="start" x="1318.4519" y="-201.5" font-family="Helvetica,sans-Serif" font-size="10.00" fill="#000000">../algorithm/graph</text>
<text text-anchor="middle" x="1357.3606" y="-191.5" font-family="Helvetica,sans-Serif" font-size="10.00" fill="#000000">/cycles.hpp</text>
</a>
</g>
</g>
<!-- Node19&#45;&gt;Node22 -->
<g id="edge33" class="edge">
<title>Node19&#45;&gt;Node22</title>
<path fill="none" stroke="#191970" d="M1165.3678,-255.462C1200.2305,-245.3002 1257.5736,-228.5859 1300.5304,-216.0648"/>
<polygon fill="#191970" stroke="#191970" points="1301.6684,-219.3789 1310.2895,-213.2203 1299.7095,-212.6585 1301.6684,-219.3789"/>
</g>
<!-- Node26 -->
<g id="node27" class="node">
<title>Node26</title>
<g id="a_node27"><a xlink:href="serialise_8hpp.html" target="_top" xlink:title="../utils/serialise.hpp">
<polygon fill="#ffffff" stroke="#ff0000" points="768.8411,-125.5 768.8411,-143.5 869.8801,-143.5 869.8801,-125.5 768.8411,-125.5"/>
<text text-anchor="middle" x="819.3606" y="-131.5" font-family="Helvetica,sans-Serif" font-size="10.00" fill="#000000">../utils/serialise.hpp</text>
</a>
</g>
</g>
<!-- Node19&#45;&gt;Node26 -->
<g id="edge43" class="edge">
<title>Node19&#45;&gt;Node26</title>
<path fill="none" stroke="#191970" d="M1119.9418,-255.3221C1094.2986,-239.3062 1038.7187,-205.9653 988.3606,-185 948.7361,-168.5034 901.8399,-154.9325 867.5132,-146.0289"/>
<polygon fill="#191970" stroke="#191970" points="868.2895,-142.6148 857.7343,-143.5303 866.5566,-149.397 868.2895,-142.6148"/>
</g>
<!-- Node40 -->
<g id="node37" class="node">
<title>Node40</title>
<g id="a_node37"><a xlink:href="triple_8hpp.html" target="_top" xlink:title="../utils/triple.hpp">
<polygon fill="#ffffff" stroke="#ff0000" points="1162.3435,-190.5 1162.3435,-208.5 1248.3777,-208.5 1248.3777,-190.5 1162.3435,-190.5"/>
<text text-anchor="middle" x="1205.3606" y="-196.5" font-family="Helvetica,sans-Serif" font-size="10.00" fill="#000000">../utils/triple.hpp</text>
</a>
</g>
</g>
<!-- Node19&#45;&gt;Node40 -->
<g id="edge55" class="edge">
<title>Node19&#45;&gt;Node40</title>
<path fill="none" stroke="#191970" d="M1144.2328,-255.462C1155.4447,-245.1976 1173.9593,-228.2477 1187.6796,-215.6869"/>
<polygon fill="#191970" stroke="#191970" points="1190.0999,-218.2163 1195.1124,-208.8821 1185.3731,-213.0532 1190.0999,-218.2163"/>
</g>
<!-- Node19&#45;&gt;Node42 -->
<g id="edge59" class="edge">
<title>Node19&#45;&gt;Node42</title>
<path fill="none" stroke="#191970" d="M1095.7059,-255.462C1045.9492,-243.8283 959.4606,-223.6061 905.2043,-210.9203"/>
<polygon fill="#191970" stroke="#191970" points="905.6684,-207.4345 895.1341,-208.5658 904.0746,-214.2506 905.6684,-207.4345"/>
</g>
<!-- Node20&#45;&gt;Node9 -->
<g id="edge29" class="edge">
<title>Node20&#45;&gt;Node9</title>
<path fill="none" stroke="#191970" d="M1656.4319,-122.9542C1704.7533,-111.1018 1779.5002,-92.7676 1827.6789,-80.9502"/>
<polygon fill="#191970" stroke="#191970" points="1828.6591,-84.3136 1837.5374,-78.5321 1826.9915,-77.5152 1828.6591,-84.3136"/>
</g>
<!-- Node20&#45;&gt;Node10 -->
<g id="edge30" class="edge">
<title>Node20&#45;&gt;Node10</title>
<path fill="none" stroke="#191970" d="M1640.8005,-120.4527C1660.9125,-111.026 1687.276,-97.8384 1709.3606,-84 1727.3635,-72.7193 1727.511,-62.5732 1747.3606,-55 1799.4557,-35.1242 2188.0553,-16.1839 2303.876,-10.9317"/>
<polygon fill="#191970" stroke="#191970" points="2304.0747,-14.4264 2313.9072,-10.4802 2303.7599,-7.4335 2304.0747,-14.4264"/>
</g>
<!-- Node20&#45;&gt;Node18 -->
<g id="edge32" class="edge">
<title>Node20&#45;&gt;Node18</title>
<path fill="none" stroke="#191970" d="M1562.438,-126.3818C1518.3439,-118.0763 1450.867,-103.6144 1394.3606,-84 1393.1292,-83.5726 1391.8813,-83.1119 1390.6286,-82.6269"/>
<polygon fill="#191970" stroke="#191970" points="1391.7022,-79.2799 1381.1307,-78.5778 1388.957,-85.7191 1391.7022,-79.2799"/>
</g>
<!-- Node20&#45;&gt;Node21 -->
<g id="edge31" class="edge">
<title>Node20&#45;&gt;Node21</title>
<path fill="none" stroke="#191970" d="M1647.977,-120.4312C1674.6318,-110.5755 1710.8156,-96.9093 1742.3606,-84 1743.7361,-83.4371 1745.1404,-82.8538 1746.5564,-82.2588"/>
<polygon fill="#191970" stroke="#191970" points="1748.0789,-85.4142 1755.8873,-78.2533 1745.3176,-78.9818 1748.0789,-85.4142"/>
</g>
<!-- Node22&#45;&gt;Node9 -->
<g id="edge34" class="edge">
<title>Node22&#45;&gt;Node9</title>
<path fill="none" stroke="#191970" d="M1404.5206,-192.3096C1487.8046,-179.5353 1653.3366,-153.7737 1665.3606,-149 1686.7851,-140.4941 1687.5477,-129.9087 1708.3606,-120 1744.9637,-102.5737 1788.9577,-89.5133 1822.4564,-81.0444"/>
<polygon fill="#191970" stroke="#191970" points="1823.6274,-84.3604 1832.4958,-78.5637 1821.9482,-77.5647 1823.6274,-84.3604"/>
</g>
<!-- Node23 -->
<g id="node24" class="node">
<title>Node23</title>
<g id="a_node24"><a xlink:href="numerics_8hpp.html" target="_top" xlink:title="../../utils/numerics.hpp">
<polygon fill="#ffffff" stroke="#000000" points="1392.7302,-125.5 1392.7302,-143.5 1505.991,-143.5 1505.991,-125.5 1392.7302,-125.5"/>
<text text-anchor="middle" x="1449.3606" y="-131.5" font-family="Helvetica,sans-Serif" font-size="10.00" fill="#000000">../../utils/numerics.hpp</text>
</a>
</g>
</g>
<!-- Node22&#45;&gt;Node23 -->
<g id="edge35" class="edge">
<title>Node22&#45;&gt;Node23</title>
<path fill="none" stroke="#191970" d="M1377.3232,-185.396C1392.3435,-174.7838 1412.8863,-160.2699 1428.1918,-149.4562"/>
<polygon fill="#191970" stroke="#191970" points="1430.3693,-152.2032 1436.517,-143.5743 1426.3301,-146.4861 1430.3693,-152.2032"/>
</g>
<!-- Node23&#45;&gt;Node4 -->
<g id="edge36" class="edge">
<title>Node23&#45;&gt;Node4</title>
<path fill="none" stroke="#191970" d="M1506.2145,-125.8012C1521.4965,-123.6742 1538.0356,-121.5632 1553.3606,-120 1799.2696,-94.9164 1861.8646,-102.4435 2108.3606,-84 2153.7302,-80.6053 2205.8174,-76.1013 2240.4652,-73.0191"/>
<polygon fill="#191970" stroke="#191970" points="2240.9824,-76.487 2250.6314,-72.1111 2240.3596,-69.5147 2240.9824,-76.487"/>
</g>
<!-- Node23&#45;&gt;Node5 -->
<g id="edge39" class="edge">
<title>Node23&#45;&gt;Node5</title>
<path fill="none" stroke="#191970" d="M1487.7092,-125.489C1526.1345,-116.1715 1586.8175,-100.6706 1638.3606,-84 1640.225,-83.397 1642.1317,-82.7544 1644.0496,-82.0877"/>
<polygon fill="#191970" stroke="#191970" points="1645.3819,-85.3277 1653.589,-78.6275 1642.9949,-78.7472 1645.3819,-85.3277"/>
</g>
<!-- Node23&#45;&gt;Node7 -->
<g id="edge41" class="edge">
<title>Node23&#45;&gt;Node7</title>
<path fill="none" stroke="#191970" d="M1506.2446,-126.0775C1521.5264,-123.9493 1538.0579,-121.7685 1553.3606,-120 1727.1592,-99.9149 1771.2738,-101.4115 1945.3606,-84 1980.9207,-80.4434 2021.7443,-75.9697 2048.8946,-72.9389"/>
<polygon fill="#191970" stroke="#191970" points="2049.3913,-76.4053 2058.9396,-71.8138 2048.6121,-69.4488 2049.3913,-76.4053"/>
</g>
<!-- Node23&#45;&gt;Node10 -->
<g id="edge38" class="edge">
<title>Node23&#45;&gt;Node10</title>
<path fill="none" stroke="#191970" d="M1489.6297,-125.4738C1522.0433,-117.2784 1568.1646,-103.4816 1605.3606,-84 1624.1807,-74.1429 1623.4677,-62.4586 1643.3606,-55 1705.6091,-31.6607 2174.96,-14.765 2303.7552,-10.5332"/>
<polygon fill="#191970" stroke="#191970" points="2303.9126,-14.03 2313.7934,-10.2065 2303.6848,-7.0337 2303.9126,-14.03"/>
</g>
<!-- Node23&#45;&gt;Node18 -->
<g id="edge42" class="edge">
<title>Node23&#45;&gt;Node18</title>
<path fill="none" stroke="#191970" d="M1437.4027,-125.462C1423.4896,-114.9464 1400.2927,-97.4138 1383.5672,-84.7725"/>
<polygon fill="#191970" stroke="#191970" points="1385.5823,-81.9082 1375.4942,-78.6708 1381.3615,-87.4926 1385.5823,-81.9082"/>
</g>
<!-- Node24 -->
<g id="node25" class="node">
<title>Node24</title>
<polygon fill="#ffffff" stroke="#bfbfbf" points="1483.7449,-60.5 1483.7449,-78.5 1526.9763,-78.5 1526.9763,-60.5 1483.7449,-60.5"/>
<text text-anchor="middle" x="1505.3606" y="-66.5" font-family="Helvetica,sans-Serif" font-size="10.00" fill="#000000">cmath</text>
</g>
<!-- Node23&#45;&gt;Node24 -->
<g id="edge37" class="edge">
<title>Node23&#45;&gt;Node24</title>
<path fill="none" stroke="#191970" d="M1457.1471,-125.462C1465.7424,-115.4854 1479.779,-99.1929 1490.496,-86.7535"/>
<polygon fill="#191970" stroke="#191970" points="1493.402,-88.7427 1497.2775,-78.8821 1488.0987,-84.1738 1493.402,-88.7427"/>
</g>
<!-- Node25 -->
<g id="node26" class="node">
<title>Node25</title>
<polygon fill="#ffffff" stroke="#bfbfbf" points="1544.5774,-60.5 1544.5774,-78.5 1596.1438,-78.5 1596.1438,-60.5 1544.5774,-60.5"/>
<text text-anchor="middle" x="1570.3606" y="-66.5" font-family="Helvetica,sans-Serif" font-size="10.00" fill="#000000">numeric</text>
</g>
<!-- Node23&#45;&gt;Node25 -->
<g id="edge40" class="edge">
<title>Node23&#45;&gt;Node25</title>
<path fill="none" stroke="#191970" d="M1466.1851,-125.462C1486.389,-114.6087 1520.5074,-96.2806 1544.1683,-83.5702"/>
<polygon fill="#191970" stroke="#191970" points="1546.1358,-86.4864 1553.2889,-78.6708 1542.8232,-80.3198 1546.1358,-86.4864"/>
</g>
<!-- Node26&#45;&gt;Node8 -->
<g id="edge54" class="edge">
<title>Node26&#45;&gt;Node8</title>
<path fill="none" stroke="#191970" d="M870.3223,-131.7273C991.679,-124.8501 1295.0472,-105.967 1394.3606,-84 1397.2004,-83.3719 1400.113,-82.5939 1403.0087,-81.7271"/>
<polygon fill="#191970" stroke="#191970" points="1404.2692,-84.9966 1412.6588,-78.5263 1402.0654,-78.3525 1404.2692,-84.9966"/>
</g>
<!-- Node26&#45;&gt;Node9 -->
<g id="edge44" class="edge">
<title>Node26&#45;&gt;Node9</title>
<path fill="none" stroke="#191970" d="M869.8942,-132.9115C1044.2349,-127.2738 1619.8787,-107.31 1803.3606,-84 1810.5681,-83.0843 1818.1369,-81.8439 1825.5372,-80.4718"/>
<polygon fill="#191970" stroke="#191970" points="1826.3274,-83.8838 1835.4743,-78.5374 1824.9897,-77.0128 1826.3274,-83.8838"/>
</g>
<!-- Node27 -->
<g id="node28" class="node">
<title>Node27</title>
<polygon fill="#ffffff" stroke="#bfbfbf" points="1085.0603,-60.5 1085.0603,-78.5 1181.6609,-78.5 1181.6609,-60.5 1085.0603,-60.5"/>
<text text-anchor="middle" x="1133.3606" y="-66.5" font-family="Helvetica,sans-Serif" font-size="10.00" fill="#000000">cereal/access.hpp</text>
</g>
<!-- Node26&#45;&gt;Node27 -->
<g id="edge45" class="edge">
<title>Node26&#45;&gt;Node27</title>
<path fill="none" stroke="#191970" d="M858.845,-125.472C867.2557,-123.6106 876.0934,-121.7007 884.3606,-120 968.9723,-102.5937 990.9776,-102.4835 1075.3606,-84 1079.6982,-83.0499 1084.2058,-82.0124 1088.7054,-80.9432"/>
<polygon fill="#191970" stroke="#191970" points="1089.5811,-84.3324 1098.4743,-78.5738 1087.931,-77.5297 1089.5811,-84.3324"/>
</g>
<!-- Node28 -->
<g id="node29" class="node">
<title>Node28</title>
<polygon fill="#ffffff" stroke="#bfbfbf" points="1199.4421,-60.5 1199.4421,-78.5 1323.279,-78.5 1323.279,-60.5 1199.4421,-60.5"/>
<text text-anchor="middle" x="1261.3606" y="-66.5" font-family="Helvetica,sans-Serif" font-size="10.00" fill="#000000">cereal/archives/json.hpp</text>
</g>
<!-- Node26&#45;&gt;Node28 -->
<g id="edge46" class="edge">
<title>Node26&#45;&gt;Node28</title>
<path fill="none" stroke="#191970" d="M856.6967,-125.4845C865.7184,-123.4965 875.3556,-121.53 884.3606,-120 1019.3638,-97.0625 1055.1561,-105.7196 1190.3606,-84 1196.7189,-82.9786 1203.3731,-81.7859 1209.9507,-80.5313"/>
<polygon fill="#191970" stroke="#191970" points="1211.0321,-83.8859 1220.1702,-78.5246 1209.6832,-77.0171 1211.0321,-83.8859"/>
</g>
<!-- Node29 -->
<g id="node30" class="node">
<title>Node29</title>
<polygon fill="#ffffff" stroke="#bfbfbf" points="196.2771,-55.5 196.2771,-83.5 318.4441,-83.5 318.4441,-55.5 196.2771,-55.5"/>
<text text-anchor="start" x="204.2771" y="-71.5" font-family="Helvetica,sans-Serif" font-size="10.00" fill="#000000">cereal/archives/portable</text>
<text text-anchor="middle" x="257.3606" y="-61.5" font-family="Helvetica,sans-Serif" font-size="10.00" fill="#000000">_binary.hpp</text>
</g>
<!-- Node26&#45;&gt;Node29 -->
<g id="edge47" class="edge">
<title>Node26&#45;&gt;Node29</title>
<path fill="none" stroke="#191970" d="M783.084,-125.497C773.7695,-123.4366 763.7325,-121.4337 754.3606,-120 569.3169,-91.6932 517.5938,-110.6897 328.7242,-84.0805"/>
<polygon fill="#191970" stroke="#191970" points="329.1422,-80.6047 318.7468,-82.6506 328.1492,-87.5339 329.1422,-80.6047"/>
</g>
<!-- Node30 -->
<g id="node31" class="node">
<title>Node30</title>
<polygon fill="#ffffff" stroke="#bfbfbf" points="336.0037,-60.5 336.0037,-78.5 428.7175,-78.5 428.7175,-60.5 336.0037,-60.5"/>
<text text-anchor="middle" x="382.3606" y="-66.5" font-family="Helvetica,sans-Serif" font-size="10.00" fill="#000000">cereal/cereal.hpp</text>
</g>
<!-- Node26&#45;&gt;Node30 -->
<g id="edge48" class="edge">
<title>Node26&#45;&gt;Node30</title>
<path fill="none" stroke="#191970" d="M782.0288,-125.4584C773.007,-123.4714 763.3687,-121.5118 754.3606,-120 614.5219,-96.5307 576.7244,-110.1419 437.3606,-84 432.8717,-83.158 428.2097,-82.1469 423.5835,-81.0554"/>
<polygon fill="#191970" stroke="#191970" points="424.1435,-77.5882 413.5945,-78.5717 422.4544,-84.3813 424.1435,-77.5882"/>
</g>
<!-- Node31 -->
<g id="node32" class="node">
<title>Node31</title>
<polygon fill="#ffffff" stroke="#bfbfbf" points="446.259,-60.5 446.259,-78.5 560.4621,-78.5 560.4621,-60.5 446.259,-60.5"/>
<text text-anchor="middle" x="503.3606" y="-66.5" font-family="Helvetica,sans-Serif" font-size="10.00" fill="#000000">cereal/types/array.hpp</text>
</g>
<!-- Node26&#45;&gt;Node31 -->
<g id="edge49" class="edge">
<title>Node26&#45;&gt;Node31</title>
<path fill="none" stroke="#191970" d="M779.5226,-125.4327C771.2163,-123.5928 762.5096,-121.7015 754.3606,-120 672.3643,-102.8796 651.3843,-100.9883 569.3606,-84 564.3203,-82.9561 559.0691,-81.8441 553.8272,-80.718"/>
<polygon fill="#191970" stroke="#191970" points="554.3307,-77.246 543.8164,-78.5493 552.8486,-84.0873 554.3307,-77.246"/>
</g>
<!-- Node32 -->
<g id="node33" class="node">
<title>Node32</title>
<polygon fill="#ffffff" stroke="#bfbfbf" points="578.3313,-60.5 578.3313,-78.5 694.3899,-78.5 694.3899,-60.5 578.3313,-60.5"/>
<text text-anchor="middle" x="636.3606" y="-66.5" font-family="Helvetica,sans-Serif" font-size="10.00" fill="#000000">cereal/types/bitset.hpp</text>
</g>
<!-- Node26&#45;&gt;Node32 -->
<g id="edge50" class="edge">
<title>Node26&#45;&gt;Node32</title>
<path fill="none" stroke="#191970" d="M793.9152,-125.462C762.0469,-114.1427 707.2884,-94.6929 671.4545,-81.9651"/>
<polygon fill="#191970" stroke="#191970" points="672.4789,-78.6147 661.8842,-78.5658 670.1359,-85.211 672.4789,-78.6147"/>
</g>
<!-- Node33 -->
<g id="node34" class="node">
<title>Node33</title>
<polygon fill="#ffffff" stroke="#bfbfbf" points="712.4988,-55.5 712.4988,-83.5 820.2224,-83.5 820.2224,-55.5 712.4988,-55.5"/>
<text text-anchor="start" x="720.4988" y="-71.5" font-family="Helvetica,sans-Serif" font-size="10.00" fill="#000000">cereal/types/boost</text>
<text text-anchor="middle" x="766.3606" y="-61.5" font-family="Helvetica,sans-Serif" font-size="10.00" fill="#000000">_dynamic_bitset.hpp</text>
</g>
<!-- Node26&#45;&gt;Node33 -->
<g id="edge51" class="edge">
<title>Node26&#45;&gt;Node33</title>
<path fill="none" stroke="#191970" d="M811.9912,-125.462C804.9417,-116.8164 794.0248,-103.4278 784.6365,-91.9138"/>
<polygon fill="#191970" stroke="#191970" points="787.1797,-89.4943 778.1477,-83.9559 781.7545,-93.9179 787.1797,-89.4943"/>
</g>
<!-- Node34 -->
<g id="node35" class="node">
<title>Node34</title>
<polygon fill="#ffffff" stroke="#bfbfbf" points="838.4519,-55.5 838.4519,-83.5 932.2693,-83.5 932.2693,-55.5 838.4519,-55.5"/>
<text text-anchor="start" x="846.4519" y="-71.5" font-family="Helvetica,sans-Serif" font-size="10.00" fill="#000000">cereal/types/eastl</text>
<text text-anchor="middle" x="885.3606" y="-61.5" font-family="Helvetica,sans-Serif" font-size="10.00" fill="#000000">_bitset.hpp</text>
</g>
<!-- Node26&#45;&gt;Node34 -->
<g id="edge52" class="edge">
<title>Node26&#45;&gt;Node34</title>
<path fill="none" stroke="#191970" d="M828.5376,-125.462C837.4867,-116.6486 851.4406,-102.906 863.2808,-91.2453"/>
<polygon fill="#191970" stroke="#191970" points="866.0134,-93.4665 870.6823,-83.9559 861.1015,-88.4791 866.0134,-93.4665"/>
</g>
<!-- Node35 -->
<g id="node36" class="node">
<title>Node35</title>
<polygon fill="#ffffff" stroke="#bfbfbf" points="950.0481,-60.5 950.0481,-78.5 1066.6731,-78.5 1066.6731,-60.5 950.0481,-60.5"/>
<text text-anchor="middle" x="1008.3606" y="-66.5" font-family="Helvetica,sans-Serif" font-size="10.00" fill="#000000">cereal/types/eigen.hpp</text>
</g>
<!-- Node26&#45;&gt;Node35 -->
<g id="edge53" class="edge">
<title>Node26&#45;&gt;Node35</title>
<path fill="none" stroke="#191970" d="M845.6402,-125.462C878.5534,-114.1427 935.1073,-94.6929 972.116,-81.9651"/>
<polygon fill="#191970" stroke="#191970" points="973.6821,-85.1277 982.0002,-78.5658 971.4055,-78.5083 973.6821,-85.1277"/>
</g>
<!-- Node40&#45;&gt;Node8 -->
<g id="edge56" class="edge">
<title>Node40&#45;&gt;Node8</title>
<path fill="none" stroke="#191970" d="M1221.4634,-190.3587C1260.7998,-168.028 1362.01,-110.5724 1409.3059,-83.7232"/>
<polygon fill="#191970" stroke="#191970" points="1411.307,-86.6119 1418.2755,-78.6312 1407.8512,-80.5244 1411.307,-86.6119"/>
</g>
<!-- Node40&#45;&gt;Node26 -->
<g id="edge57" class="edge">
<title>Node40&#45;&gt;Node26</title>
<path fill="none" stroke="#191970" d="M1162.2051,-192.2329C1093.4843,-180.6607 958.9481,-158.0057 880.3906,-144.7771"/>
<polygon fill="#191970" stroke="#191970" points="880.6013,-141.2634 870.159,-143.0541 879.4389,-148.1662 880.6013,-141.2634"/>
</g>
<!-- Node47&#45;&gt;Node1 -->
<g id="edge79" class="edge">
<title>Node47&#45;&gt;Node1</title>
<path fill="none" stroke="#191970" d="M2102.9542,-500.396C2076.3966,-490.6432 2040.8653,-477.5949 2012.4283,-467.152"/>
<polygon fill="#191970" stroke="#191970" points="2013.2856,-463.7383 2002.692,-463.5765 2010.8725,-470.3093 2013.2856,-463.7383"/>
</g>
<!-- Node47&#45;&gt;Node4 -->
<g id="edge81" class="edge">
<title>Node47&#45;&gt;Node4</title>
<path fill="none" stroke="#191970" d="M2146.1014,-500.4808C2152.7206,-482.8878 2166.3367,-452.861 2187.3606,-435 2221.7713,-405.7661 2247.6307,-427.854 2282.3606,-399 2330.3775,-359.1069 2338.5133,-339.1103 2355.3606,-279 2358.839,-266.5893 2357.9119,-262.6339 2355.3606,-250 2342.7285,-187.4465 2307.7678,-119.5943 2290.009,-87.8363"/>
<polygon fill="#191970" stroke="#191970" points="2292.8829,-85.8094 2284.8978,-78.846 2286.7976,-89.2691 2292.8829,-85.8094"/>
</g>
<!-- Node47&#45;&gt;Node10 -->
<g id="edge82" class="edge">
<title>Node47&#45;&gt;Node10</title>
<path fill="none" stroke="#191970" d="M2154.2481,-500.1878C2172.6219,-480.0247 2205.7377,-444.6355 2220.3606,-435 2256.6791,-411.0684 2273.1012,-419.6875 2311.3606,-399 2392.7124,-355.0118 2409.9902,-337.8162 2481.3606,-279 2520.7803,-246.5143 2564.3606,-250.5807 2564.3606,-199.5 2564.3606,-199.5 2564.3606,-199.5 2564.3606,-134.5 2564.3606,-46.5932 2432.4316,-20.095 2369.2854,-12.4467"/>
<polygon fill="#191970" stroke="#191970" points="2369.3833,-8.9359 2359.0557,-11.3003 2368.6036,-15.8923 2369.3833,-8.9359"/>
</g>
<!-- Node47&#45;&gt;Node14 -->
<g id="edge78" class="edge">
<title>Node47&#45;&gt;Node14</title>
<path fill="none" stroke="#191970" d="M2053.1717,-502.0507C2004.1996,-493.8446 1942.5968,-481.3687 1889.3606,-464 1834.9936,-446.2624 1775.1502,-415.9552 1742.338,-398.3287"/>
<polygon fill="#191970" stroke="#191970" points="1743.9016,-395.1951 1733.4426,-393.5039 1740.5641,-401.3483 1743.9016,-395.1951"/>
</g>
<!-- Node47&#45;&gt;Node44 -->
<g id="edge80" class="edge">
<title>Node47&#45;&gt;Node44</title>
<path fill="none" stroke="#191970" d="M2139.471,-500.2459C2137.9617,-483.4774 2137.7194,-455.3487 2149.3606,-435 2156.5973,-422.3503 2168.4308,-411.976 2180.2713,-403.9922"/>
<polygon fill="#191970" stroke="#191970" points="2182.2321,-406.8937 2188.8286,-398.6029 2178.5017,-400.9704 2182.2321,-406.8937"/>
</g>
<!-- Node47&#45;&gt;Node48 -->
<g id="edge83" class="edge">
<title>Node47&#45;&gt;Node48</title>
<path fill="none" stroke="#191970" d="M2165.2289,-500.396C2183.6076,-489.5359 2208.9014,-474.5895 2227.3224,-463.7044"/>
<polygon fill="#191970" stroke="#191970" points="2229.1754,-466.6749 2236.0041,-458.5743 2225.6142,-460.6484 2229.1754,-466.6749"/>
</g>
<!-- Node49&#45;&gt;Node6 -->
<g id="edge87" class="edge">
<title>Node49&#45;&gt;Node6</title>
<path fill="none" stroke="#191970" d="M546.0241,-131.3209C396.5213,-123.6233 36.9902,-103.2003 19.3606,-84 -16.8406,-44.5736 77.1741,-23.2162 132.0486,-14.4081"/>
<polygon fill="#191970" stroke="#191970" points="132.7729,-17.838 142.1254,-12.86 131.7099,-10.9192 132.7729,-17.838"/>
</g>
<!-- Node49&#45;&gt;Node9 -->
<g id="edge85" class="edge">
<title>Node49&#45;&gt;Node9</title>
<path fill="none" stroke="#191970" d="M674.8288,-127.3384C701.0284,-124.6597 731.6111,-121.8269 759.3606,-120 1222.6335,-89.5007 1342.3113,-138.64 1803.3606,-84 1810.8312,-83.1146 1818.6857,-81.8518 1826.337,-80.436"/>
<polygon fill="#191970" stroke="#191970" points="1827.0845,-83.8563 1836.229,-78.5058 1825.7438,-76.9858 1827.0845,-83.8563"/>
</g>
<!-- Node49&#45;&gt;Node18 -->
<g id="edge88" class="edge">
<title>Node49&#45;&gt;Node18</title>
<path fill="none" stroke="#191970" d="M674.8578,-127.7369C701.0617,-125.1162 731.6397,-122.219 759.3606,-120 1013.7158,-99.6395 1085.1324,-147.1612 1332.3606,-84 1334.0624,-83.5652 1335.7846,-83.0375 1337.4997,-82.4441"/>
<polygon fill="#191970" stroke="#191970" points="1339.1361,-85.5557 1347.055,-78.517 1336.4752,-79.0811 1339.1361,-85.5557"/>
</g>
<!-- Node50 -->
<g id="node46" class="node">
<title>Node50</title>
<polygon fill="#ffffff" stroke="#bfbfbf" points="28.7302,-60.5 28.7302,-78.5 101.991,-78.5 101.991,-60.5 28.7302,-60.5"/>
<text text-anchor="middle" x="65.3606" y="-66.5" font-family="Helvetica,sans-Serif" font-size="10.00" fill="#000000">Eigen/Dense</text>
</g>
<!-- Node49&#45;&gt;Node50 -->
<g id="edge86" class="edge">
<title>Node49&#45;&gt;Node50</title>
<path fill="none" stroke="#191970" d="M545.892,-131.5165C451.0762,-126.3167 268.764,-113.2215 116.3606,-84 112.1907,-83.2005 107.8678,-82.2183 103.5824,-81.1454"/>
<polygon fill="#191970" stroke="#191970" points="104.3051,-77.7158 93.7409,-78.52 102.5009,-84.4793 104.3051,-77.7158"/>
</g>
<!-- Node51&#45;&gt;Node6 -->
<g id="edge92" class="edge">
<title>Node51&#45;&gt;Node6</title>
<path fill="none" stroke="#191970" d="M2288.4477,-255.3759C2309.269,-222.9517 2373.3412,-112.1785 2317.3606,-55 2278.8388,-15.654 483.6518,-10.182 204.6384,-9.5689"/>
<polygon fill="#191970" stroke="#191970" points="204.6418,-6.069 194.6343,-9.5476 204.6268,-13.0689 204.6418,-6.069"/>
</g>
<!-- Node51&#45;&gt;Node9 -->
<g id="edge90" class="edge">
<title>Node51&#45;&gt;Node9</title>
<path fill="none" stroke="#191970" d="M2281.391,-255.4497C2279.1485,-239.0288 2272.0997,-204.2486 2251.3606,-185 2226.5203,-161.945 2014.5101,-105.4427 1919.7731,-81.0373"/>
<polygon fill="#191970" stroke="#191970" points="1920.4555,-77.599 1909.8991,-78.5005 1918.7136,-84.3788 1920.4555,-77.599"/>
</g>
<!-- Node51&#45;&gt;Node12 -->
<g id="edge91" class="edge">
<title>Node51&#45;&gt;Node12</title>
<path fill="none" stroke="#191970" d="M2274.1569,-255.462C2265.0141,-245.3895 2250.0277,-228.879 2238.6967,-216.3957"/>
<polygon fill="#191970" stroke="#191970" points="2241.1894,-213.9343 2231.8767,-208.8821 2236.0062,-218.6391 2241.1894,-213.9343"/>
</g>
<!-- Node52&#45;&gt;Node5 -->
<g id="edge99" class="edge">
<title>Node52&#45;&gt;Node5</title>
<path fill="none" stroke="#191970" d="M1290.7108,-375.3192C1281.89,-351.4526 1262.3382,-286.7639 1293.3606,-250 1329.27,-207.4446 1363.3082,-238.3968 1413.3606,-214 1433.4239,-204.2206 1435.6226,-197.1268 1454.3606,-185 1480.7891,-167.8961 1489.2464,-166.5801 1515.3606,-149 1532.9843,-137.1357 1534.9313,-130.5697 1553.3606,-120 1561.6303,-115.2571 1610.4439,-95.6073 1644.0331,-82.264"/>
<polygon fill="#191970" stroke="#191970" points="1645.4758,-85.4571 1653.4814,-78.5173 1642.8954,-78.9501 1645.4758,-85.4571"/>
</g>
<!-- Node52&#45;&gt;Node6 -->
<g id="edge101" class="edge">
<title>Node52&#45;&gt;Node6</title>
<path fill="none" stroke="#191970" d="M1223.4218,-379.4856C975.8205,-360.3416 156.8932,-282.6794 7.3606,-84 -27.249,-38.0153 74.4554,-19.4679 131.9082,-12.8041"/>
<polygon fill="#191970" stroke="#191970" points="132.5169,-16.2586 142.0781,-11.6942 131.7574,-9.2999 132.5169,-16.2586"/>
</g>
<!-- Node52&#45;&gt;Node9 -->
<g id="edge96" class="edge">
<title>Node52&#45;&gt;Node9</title>
<path fill="none" stroke="#191970" d="M1364.9435,-379.3322C1417.6883,-373.4123 1490.5237,-360.7918 1549.3606,-334 1688.0154,-270.8626 1817.3139,-134.0134 1859.7713,-86.3091"/>
<polygon fill="#191970" stroke="#191970" points="1862.4772,-88.5323 1866.463,-78.7157 1857.2255,-83.9042 1862.4772,-88.5323"/>
</g>
<!-- Node52&#45;&gt;Node11 -->
<g id="edge98" class="edge">
<title>Node52&#45;&gt;Node11</title>
<path fill="none" stroke="#191970" d="M1292.5222,-375.2348C1288.3271,-351.1645 1280.7704,-286.0263 1313.3606,-250 1318.6148,-244.1919 1407.8931,-223.7943 1467.1771,-210.7678"/>
<polygon fill="#191970" stroke="#191970" points="1468.1232,-214.1436 1477.1429,-208.5852 1466.6256,-207.3057 1468.1232,-214.1436"/>
</g>
<!-- Node52&#45;&gt;Node15 -->
<g id="edge97" class="edge">
<title>Node52&#45;&gt;Node15</title>
<path fill="none" stroke="#191970" d="M1325.04,-375.3873C1360.0951,-364.9749 1417.5868,-347.8982 1456.1879,-336.4325"/>
<polygon fill="#191970" stroke="#191970" points="1457.4648,-339.7044 1466.0543,-333.5019 1455.4716,-332.9942 1457.4648,-339.7044"/>
</g>
<!-- Node52&#45;&gt;Node18 -->
<g id="edge104" class="edge">
<title>Node52&#45;&gt;Node18</title>
<path fill="none" stroke="#191970" d="M1240.943,-375.4449C1155.3917,-359.733 993.8343,-324.6771 960.3606,-279 952.742,-268.6039 958.5341,-262.7588 960.3606,-250 968.8911,-190.4119 952.2001,-158.6357 998.3606,-120 1055.6069,-72.0855 1260.4618,-104.0875 1332.3606,-84 1334.0129,-83.5384 1335.6869,-82.9964 1337.3567,-82.3981"/>
<polygon fill="#191970" stroke="#191970" points="1338.799,-85.589 1346.6929,-78.5223 1336.1151,-79.1239 1338.799,-85.589"/>
</g>
<!-- Node52&#45;&gt;Node22 -->
<g id="edge95" class="edge">
<title>Node52&#45;&gt;Node22</title>
<path fill="none" stroke="#191970" d="M1279.7679,-375.3388C1267.1924,-366.4991 1249.9078,-351.85 1242.3606,-334 1227.8218,-299.614 1221.9476,-281.2584 1242.3606,-250 1249.7406,-238.699 1276.8758,-226.5185 1302.9339,-216.9518"/>
<polygon fill="#191970" stroke="#191970" points="1304.2081,-220.2132 1312.4469,-213.5519 1301.8523,-213.6215 1304.2081,-220.2132"/>
</g>
<!-- Node52&#45;&gt;Node43 -->
<g id="edge100" class="edge">
<title>Node52&#45;&gt;Node43</title>
<path fill="none" stroke="#191970" d="M1301.347,-375.3873C1308.1692,-366.4888 1318.723,-352.723 1327.1343,-341.7517"/>
<polygon fill="#191970" stroke="#191970" points="1330.0017,-343.7641 1333.3084,-333.6985 1324.4464,-339.505 1330.0017,-343.7641"/>
</g>
<!-- Node52&#45;&gt;Node46 -->
<g id="edge102" class="edge">
<title>Node52&#45;&gt;Node46</title>
<path fill="none" stroke="#191970" d="M1365.0088,-376.7789C1488.6456,-363.2667 1738.682,-335.9403 1818.3661,-327.2316"/>
<polygon fill="#191970" stroke="#191970" points="1818.8878,-330.6955 1828.4484,-326.1298 1818.1273,-323.737 1818.8878,-330.6955"/>
</g>
<!-- Node53 -->
<g id="node49" class="node">
<title>Node53</title>
<polygon fill="#ffffff" stroke="#bfbfbf" points="883.9592,-315.5 883.9592,-333.5 942.762,-333.5 942.762,-315.5 883.9592,-315.5"/>
<text text-anchor="middle" x="913.3606" y="-321.5" font-family="Helvetica,sans-Serif" font-size="10.00" fill="#000000">stdexcept</text>
</g>
<!-- Node52&#45;&gt;Node53 -->
<g id="edge103" class="edge">
<title>Node52&#45;&gt;Node53</title>
<path fill="none" stroke="#191970" d="M1224.2129,-375.4594C1155.6879,-366.2889 1048.5418,-351.048 956.3606,-334 955.2705,-333.7984 954.166,-333.5892 953.0521,-333.3738"/>
<polygon fill="#191970" stroke="#191970" points="953.4111,-329.8752 942.914,-331.3109 952.0152,-336.7346 953.4111,-329.8752"/>
</g>
</g>
</svg>
