<?xml version="1.0" encoding="UTF-8" standalone="no"?>
<!DOCTYPE svg PUBLIC "-//W3C//DTD SVG 1.1//EN"
 "http://www.w3.org/Graphics/SVG/1.1/DTD/svg11.dtd">
<!-- Generated by graphviz version 2.40.1 (20161225.0304)
 -->
<!-- Title: include/indigox/algorithm/formalbonds/astar.hpp Pages: 1 -->
<svg width="867pt" height="287pt"
 viewBox="0.00 0.00 867.43 287.00" xmlns="http://www.w3.org/2000/svg" xmlns:xlink="http://www.w3.org/1999/xlink">
<g id="graph0" class="graph" transform="scale(1 1) rotate(0) translate(4 283)">
<title>include/indigox/algorithm/formalbonds/astar.hpp</title>
<polygon fill="#ffffff" stroke="transparent" points="-4,4 -4,-283 863.4282,-283 863.4282,4 -4,4"/>
<!-- Node0 -->
<g id="node1" class="node">
<title>Node0</title>
<polygon fill="#bfbfbf" stroke="#000000" points="539.6948,-250.5 539.6948,-278.5 665.7583,-278.5 665.7583,-250.5 539.6948,-250.5"/>
<text text-anchor="start" x="547.6948" y="-266.5" font-family="Helvetica,sans-Serif" font-size="10.00" fill="#000000">include/indigox/algorithm</text>
<text text-anchor="middle" x="602.7266" y="-256.5" font-family="Helvetica,sans-Serif" font-size="10.00" fill="#000000">/formalbonds/astar.hpp</text>
</g>
<!-- Node1 -->
<g id="node2" class="node">
<title>Node1</title>
<polygon fill="#ffffff" stroke="#bfbfbf" points="0,-125.5 0,-143.5 35.4531,-143.5 35.4531,-125.5 0,-125.5"/>
<text text-anchor="middle" x="17.7266" y="-131.5" font-family="Helvetica,sans-Serif" font-size="10.00" fill="#000000">map</text>
</g>
<!-- Node0&#45;&gt;Node1 -->
<g id="edge1" class="edge">
<title>Node0&#45;&gt;Node1</title>
<path fill="none" stroke="#191970" d="M539.519,-256.7202C435.2881,-242.7004 221.7674,-208.9324 49.7266,-149 48.2866,-148.4984 46.8227,-147.9564 45.3533,-147.3869"/>
<polygon fill="#191970" stroke="#191970" points="46.346,-144.0076 35.7709,-143.3608 43.6345,-150.4612 46.346,-144.0076"/>
</g>
<!-- Node2 -->
<g id="node3" class="node">
<title>Node2</title>
<polygon fill="#ffffff" stroke="#bfbfbf" points="605.8228,-190.5 605.8228,-208.5 649.6304,-208.5 649.6304,-190.5 605.8228,-190.5"/>
<text text-anchor="middle" x="627.7266" y="-196.5" font-family="Helvetica,sans-Serif" font-size="10.00" fill="#000000">queue</text>
</g>
<!-- Node0&#45;&gt;Node2 -->
<g id="edge2" class="edge">
<title>Node0&#45;&gt;Node2</title>
<path fill="none" stroke="#191970" d="M608.1512,-250.396C611.775,-240.974 616.5818,-228.4763 620.5253,-218.2233"/>
<polygon fill="#191970" stroke="#191970" points="623.9133,-219.1642 624.2364,-208.5743 617.3799,-216.6513 623.9133,-219.1642"/>
</g>
<!-- Node3 -->
<g id="node4" class="node">
<title>Node3</title>
<polygon fill="#ffffff" stroke="#bfbfbf" points="667.8228,-190.5 667.8228,-208.5 711.6304,-208.5 711.6304,-190.5 667.8228,-190.5"/>
<text text-anchor="middle" x="689.7266" y="-196.5" font-family="Helvetica,sans-Serif" font-size="10.00" fill="#000000">deque</text>
</g>
<!-- Node0&#45;&gt;Node3 -->
<g id="edge3" class="edge">
<title>Node0&#45;&gt;Node3</title>
<path fill="none" stroke="#191970" d="M621.6043,-250.396C635.6755,-239.883 654.8719,-225.5408 669.3012,-214.7603"/>
<polygon fill="#191970" stroke="#191970" points="671.6648,-217.3635 677.581,-208.5743 667.475,-211.7557 671.6648,-217.3635"/>
</g>
<!-- Node4 -->
<g id="node5" class="node">
<title>Node4</title>
<polygon fill="#ffffff" stroke="#bfbfbf" points="537.1108,-60.5 537.1108,-78.5 580.3423,-78.5 580.3423,-60.5 537.1108,-60.5"/>
<text text-anchor="middle" x="558.7266" y="-66.5" font-family="Helvetica,sans-Serif" font-size="10.00" fill="#000000">vector</text>
</g>
<!-- Node0&#45;&gt;Node4 -->
<g id="edge4" class="edge">
<title>Node0&#45;&gt;Node4</title>
<path fill="none" stroke="#191970" d="M599.5622,-250.4761C591.7979,-216.0663 571.7985,-127.4324 562.9946,-88.4153"/>
<polygon fill="#191970" stroke="#191970" points="566.3977,-87.5956 560.7824,-78.6112 559.5694,-89.1364 566.3977,-87.5956"/>
</g>
<!-- Node5 -->
<g id="node6" class="node">
<title>Node5</title>
<polygon fill="#ffffff" stroke="#bfbfbf" points="730.0249,-190.5 730.0249,-208.5 859.4282,-208.5 859.4282,-190.5 730.0249,-190.5"/>
<text text-anchor="middle" x="794.7266" y="-196.5" font-family="Helvetica,sans-Serif" font-size="10.00" fill="#000000">boost/dynamic_bitset.hpp</text>
</g>
<!-- Node0&#45;&gt;Node5 -->
<g id="edge5" class="edge">
<title>Node0&#45;&gt;Node5</title>
<path fill="none" stroke="#191970" d="M644.3877,-250.396C678.371,-238.8912 725.8999,-222.8007 758.3631,-211.8106"/>
<polygon fill="#191970" stroke="#191970" points="759.5729,-215.0962 767.9225,-208.5743 757.3282,-208.4658 759.5729,-215.0962"/>
</g>
<!-- Node6 -->
<g id="node7" class="node">
<title>Node6</title>
<g id="a_node7"><a xlink:href="electron__optimisation__algorithm_8hpp.html" target="_top" xlink:title="electron_optimisation\l_algorithm.hpp">
<polygon fill="#ffffff" stroke="#000000" points="318.478,-185.5 318.478,-213.5 428.9751,-213.5 428.9751,-185.5 318.478,-185.5"/>
<text text-anchor="start" x="326.478" y="-201.5" font-family="Helvetica,sans-Serif" font-size="10.00" fill="#000000">electron_optimisation</text>
<text text-anchor="middle" x="373.7266" y="-191.5" font-family="Helvetica,sans-Serif" font-size="10.00" fill="#000000">_algorithm.hpp</text>
</a>
</g>
</g>
<!-- Node0&#45;&gt;Node6 -->
<g id="edge6" class="edge">
<title>Node0&#45;&gt;Node6</title>
<path fill="none" stroke="#191970" d="M553.3189,-250.476C518.0751,-240.4723 470.5104,-226.9714 433.1853,-216.3769"/>
<polygon fill="#191970" stroke="#191970" points="434.0161,-212.9746 423.4404,-213.6109 432.1047,-219.7085 434.0161,-212.9746"/>
</g>
<!-- Node6&#45;&gt;Node1 -->
<g id="edge8" class="edge">
<title>Node6&#45;&gt;Node1</title>
<path fill="none" stroke="#191970" d="M318.2629,-195.4487C252.9289,-189.6315 141.6458,-176.4334 49.7266,-149 48.0791,-148.5083 46.4065,-147.9491 44.7343,-147.3432"/>
<polygon fill="#191970" stroke="#191970" points="45.9193,-144.0466 35.3382,-143.5076 43.2737,-150.5275 45.9193,-144.0466"/>
</g>
<!-- Node6&#45;&gt;Node4 -->
<g id="edge9" class="edge">
<title>Node6&#45;&gt;Node4</title>
<path fill="none" stroke="#191970" d="M429.3116,-191.1584C459.3355,-184.2081 495.3427,-171.6211 520.7266,-149 538.791,-132.9017 549.0394,-106.3472 554.2341,-88.403"/>
<polygon fill="#191970" stroke="#191970" points="557.6764,-89.0751 556.8401,-78.5134 550.9074,-87.2914 557.6764,-89.0751"/>
</g>
<!-- Node7 -->
<g id="node8" class="node">
<title>Node7</title>
<polygon fill="#ffffff" stroke="#bfbfbf" points="299.2759,-.5 299.2759,-18.5 344.1772,-18.5 344.1772,-.5 299.2759,-.5"/>
<text text-anchor="middle" x="321.7266" y="-6.5" font-family="Helvetica,sans-Serif" font-size="10.00" fill="#000000">cstdint</text>
</g>
<!-- Node6&#45;&gt;Node7 -->
<g id="edge7" class="edge">
<title>Node6&#45;&gt;Node7</title>
<path fill="none" stroke="#191970" d="M318.2297,-186.0818C240.9052,-166.0511 107.4235,-126.1487 82.7266,-84 76.2105,-72.8795 74.509,-64.9295 82.7266,-55 108.522,-23.8304 229.5543,-13.8311 288.8376,-10.7723"/>
<polygon fill="#191970" stroke="#191970" points="289.3305,-14.2528 299.1516,-10.2784 288.9956,-7.2609 289.3305,-14.2528"/>
</g>
<!-- Node8 -->
<g id="node9" class="node">
<title>Node8</title>
<polygon fill="#ffffff" stroke="#bfbfbf" points="401.7563,-120.5 401.7563,-148.5 511.6968,-148.5 511.6968,-120.5 401.7563,-120.5"/>
<text text-anchor="start" x="409.7563" y="-136.5" font-family="Helvetica,sans-Serif" font-size="10.00" fill="#000000">boost/dynamic_bitset</text>
<text text-anchor="middle" x="456.7266" y="-126.5" font-family="Helvetica,sans-Serif" font-size="10.00" fill="#000000">/dynamic_bitset.hpp</text>
</g>
<!-- Node6&#45;&gt;Node8 -->
<g id="edge10" class="edge">
<title>Node6&#45;&gt;Node8</title>
<path fill="none" stroke="#191970" d="M391.7363,-185.396C403.1566,-176.4524 418.1157,-164.7375 430.8028,-154.8018"/>
<polygon fill="#191970" stroke="#191970" points="433.0369,-157.4978 438.7519,-148.5765 428.7209,-151.9866 433.0369,-157.4978"/>
</g>
<!-- Node9 -->
<g id="node10" class="node">
<title>Node9</title>
<g id="a_node10"><a xlink:href="electron__graph_8hpp.html" target="_top" xlink:title="../../classes/electron\l_graph.hpp">
<polygon fill="#ffffff" stroke="#000000" points="414.542,-55.5 414.542,-83.5 518.9111,-83.5 518.9111,-55.5 414.542,-55.5"/>
<text text-anchor="start" x="422.542" y="-71.5" font-family="Helvetica,sans-Serif" font-size="10.00" fill="#000000">../../classes/electron</text>
<text text-anchor="middle" x="466.7266" y="-61.5" font-family="Helvetica,sans-Serif" font-size="10.00" fill="#000000">_graph.hpp</text>
</a>
</g>
</g>
<!-- Node6&#45;&gt;Node9 -->
<g id="edge11" class="edge">
<title>Node6&#45;&gt;Node9</title>
<path fill="none" stroke="#191970" d="M374.0848,-185.3382C375.1522,-168.4053 379.0398,-139.8659 392.7266,-120 401.4736,-107.3039 414.5416,-96.8684 427.2729,-88.8464"/>
<polygon fill="#191970" stroke="#191970" points="429.1634,-91.7944 435.9758,-83.6801 425.5902,-85.7751 429.1634,-91.7944"/>
</g>
<!-- Node13 -->
<g id="node14" class="node">
<title>Node13</title>
<g id="a_node14"><a xlink:href="electron__optimisation_8hpp.html" target="_top" xlink:title="../electron_optimisation.hpp">
<polygon fill="#ffffff" stroke="#000000" points="207.5791,-125.5 207.5791,-143.5 345.874,-143.5 345.874,-125.5 207.5791,-125.5"/>
<text text-anchor="middle" x="276.7266" y="-131.5" font-family="Helvetica,sans-Serif" font-size="10.00" fill="#000000">../electron_optimisation.hpp</text>
</a>
</g>
</g>
<!-- Node6&#45;&gt;Node13 -->
<g id="edge16" class="edge">
<title>Node6&#45;&gt;Node13</title>
<path fill="none" stroke="#191970" d="M352.679,-185.396C336.6944,-174.6846 314.7778,-159.9983 298.5948,-149.154"/>
<polygon fill="#191970" stroke="#191970" points="300.5239,-146.2335 290.2682,-143.5743 296.6272,-152.0487 300.5239,-146.2335"/>
</g>
<!-- Node9&#45;&gt;Node7 -->
<g id="edge14" class="edge">
<title>Node9&#45;&gt;Node7</title>
<path fill="none" stroke="#191970" d="M432.7305,-55.4327C408.7068,-45.4918 376.7371,-32.263 353.2781,-22.5558"/>
<polygon fill="#191970" stroke="#191970" points="354.3717,-19.2206 343.7933,-18.6311 351.6952,-25.6887 354.3717,-19.2206"/>
</g>
<!-- Node10 -->
<g id="node11" class="node">
<title>Node10</title>
<polygon fill="#ffffff" stroke="#bfbfbf" points="561.7588,-.5 561.7588,-18.5 651.6943,-18.5 651.6943,-.5 561.7588,-.5"/>
<text text-anchor="middle" x="606.7266" y="-6.5" font-family="Helvetica,sans-Serif" font-size="10.00" fill="#000000">../utils/graph.hpp</text>
</g>
<!-- Node9&#45;&gt;Node10 -->
<g id="edge12" class="edge">
<title>Node9&#45;&gt;Node10</title>
<path fill="none" stroke="#191970" d="M499.5503,-55.4327C522.6421,-45.5362 553.3375,-32.381 575.9592,-22.686"/>
<polygon fill="#191970" stroke="#191970" points="577.608,-25.7873 585.4208,-18.6311 574.8506,-19.3533 577.608,-25.7873"/>
</g>
<!-- Node11 -->
<g id="node12" class="node">
<title>Node11</title>
<polygon fill="#ffffff" stroke="#bfbfbf" points="361.7515,-.5 361.7515,-18.5 471.7017,-18.5 471.7017,-.5 361.7515,-.5"/>
<text text-anchor="middle" x="416.7266" y="-6.5" font-family="Helvetica,sans-Serif" font-size="10.00" fill="#000000">molecular_graph.hpp</text>
</g>
<!-- Node9&#45;&gt;Node11 -->
<g id="edge13" class="edge">
<title>Node9&#45;&gt;Node11</title>
<path fill="none" stroke="#191970" d="M454.8773,-55.2808C447.6992,-46.6672 438.4991,-35.6271 430.9321,-26.5466"/>
<polygon fill="#191970" stroke="#191970" points="433.3874,-24.0258 424.2967,-18.5842 428.0098,-28.5071 433.3874,-24.0258"/>
</g>
<!-- Node12 -->
<g id="node13" class="node">
<title>Node12</title>
<polygon fill="#ffffff" stroke="#bfbfbf" points="489.5542,-.5 489.5542,-18.5 543.8989,-18.5 543.8989,-.5 489.5542,-.5"/>
<text text-anchor="middle" x="516.7266" y="-6.5" font-family="Helvetica,sans-Serif" font-size="10.00" fill="#000000">iostream</text>
</g>
<!-- Node9&#45;&gt;Node12 -->
<g id="edge15" class="edge">
<title>Node9&#45;&gt;Node12</title>
<path fill="none" stroke="#191970" d="M478.5759,-55.2808C485.7539,-46.6672 494.954,-35.6271 502.5211,-26.5466"/>
<polygon fill="#191970" stroke="#191970" points="505.4433,-28.5071 509.1564,-18.5842 500.0657,-24.0258 505.4433,-28.5071"/>
</g>
<!-- Node13&#45;&gt;Node4 -->
<g id="edge22" class="edge">
<title>Node13&#45;&gt;Node4</title>
<path fill="none" stroke="#191970" d="M343.6402,-125.4939C394.8612,-117.5381 466.8233,-104.0494 527.7266,-84 529.1375,-83.5355 530.5685,-83.0235 532.0021,-82.4776"/>
<polygon fill="#191970" stroke="#191970" points="533.4769,-85.654 541.3185,-78.5294 530.7455,-79.2089 533.4769,-85.654"/>
</g>
<!-- Node13&#45;&gt;Node7 -->
<g id="edge19" class="edge">
<title>Node13&#45;&gt;Node7</title>
<path fill="none" stroke="#191970" d="M310.2041,-125.4071C330.7221,-117.9141 355.3517,-105.02 367.7266,-84 374.2655,-72.893 372.6914,-66.8943 367.7266,-55 362.7735,-43.1341 353.0528,-32.7826 343.8184,-24.9636"/>
<polygon fill="#191970" stroke="#191970" points="345.9808,-22.2115 335.9605,-18.7699 341.6475,-27.7091 345.9808,-22.2115"/>
</g>
<!-- Node13&#45;&gt;Node9 -->
<g id="edge17" class="edge">
<title>Node13&#45;&gt;Node9</title>
<path fill="none" stroke="#191970" d="M303.1452,-125.462C332.1316,-115.5456 379.3576,-99.3894 415.6336,-86.9792"/>
<polygon fill="#191970" stroke="#191970" points="417.2219,-90.135 425.5506,-83.5865 414.956,-83.5119 417.2219,-90.135"/>
</g>
<!-- Node14 -->
<g id="node15" class="node">
<title>Node14</title>
<polygon fill="#ffffff" stroke="#bfbfbf" points="91.8228,-55.5 91.8228,-83.5 195.6304,-83.5 195.6304,-55.5 91.8228,-55.5"/>
<text text-anchor="start" x="99.8228" y="-71.5" font-family="Helvetica,sans-Serif" font-size="10.00" fill="#000000">../classes/molecular</text>
<text text-anchor="middle" x="143.7266" y="-61.5" font-family="Helvetica,sans-Serif" font-size="10.00" fill="#000000">_graph.hpp</text>
</g>
<!-- Node13&#45;&gt;Node14 -->
<g id="edge18" class="edge">
<title>Node13&#45;&gt;Node14</title>
<path fill="none" stroke="#191970" d="M258.2335,-125.462C238.55,-115.8423 206.8512,-100.3504 181.7906,-88.1027"/>
<polygon fill="#191970" stroke="#191970" points="183.071,-84.8329 172.5497,-83.5865 179.9974,-91.122 183.071,-84.8329"/>
</g>
<!-- Node15 -->
<g id="node16" class="node">
<title>Node15</title>
<polygon fill="#ffffff" stroke="#bfbfbf" points="213.5,-60.5 213.5,-78.5 253.9531,-78.5 253.9531,-60.5 213.5,-60.5"/>
<text text-anchor="middle" x="233.7266" y="-66.5" font-family="Helvetica,sans-Serif" font-size="10.00" fill="#000000">string</text>
</g>
<!-- Node13&#45;&gt;Node15 -->
<g id="edge20" class="edge">
<title>Node13&#45;&gt;Node15</title>
<path fill="none" stroke="#191970" d="M270.7476,-125.462C264.2746,-115.6773 253.7826,-99.8172 245.6179,-87.4753"/>
<polygon fill="#191970" stroke="#191970" points="248.3697,-85.2913 239.9332,-78.8821 242.5315,-89.1534 248.3697,-85.2913"/>
</g>
<!-- Node16 -->
<g id="node17" class="node">
<title>Node16</title>
<polygon fill="#ffffff" stroke="#bfbfbf" points="272.4238,-60.5 272.4238,-78.5 359.0293,-78.5 359.0293,-60.5 272.4238,-60.5"/>
<text text-anchor="middle" x="315.7266" y="-66.5" font-family="Helvetica,sans-Serif" font-size="10.00" fill="#000000">unordered_map</text>
</g>
<!-- Node13&#45;&gt;Node16 -->
<g id="edge21" class="edge">
<title>Node13&#45;&gt;Node16</title>
<path fill="none" stroke="#191970" d="M282.1493,-125.462C288.0202,-115.6773 297.5362,-99.8172 304.9414,-87.4753"/>
<polygon fill="#191970" stroke="#191970" points="307.9535,-89.2578 310.0973,-78.8821 301.951,-85.6563 307.9535,-89.2578"/>
</g>
</g>
</svg>
