<?xml version="1.0" encoding="UTF-8" standalone="no"?>
<!DOCTYPE svg PUBLIC "-//W3C//DTD SVG 1.1//EN"
 "http://www.w3.org/Graphics/SVG/1.1/DTD/svg11.dtd">
<!-- Generated by graphviz version 2.40.1 (20161225.0304)
 -->
<!-- Title: include/indigox/algorithm/formalbonds/astar.hpp Pages: 1 -->
<svg width="268pt" height="102pt"
 viewBox="0.00 0.00 268.32 102.00" xmlns="http://www.w3.org/2000/svg" xmlns:xlink="http://www.w3.org/1999/xlink">
<g id="graph0" class="graph" transform="scale(1 1) rotate(0) translate(4 98)">
<title>include/indigox/algorithm/formalbonds/astar.hpp</title>
<polygon fill="#ffffff" stroke="transparent" points="-4,4 -4,-98 264.3174,-98 264.3174,4 -4,4"/>
<!-- Node17 -->
<g id="node1" class="node">
<title>Node17</title>
<polygon fill="#bfbfbf" stroke="#000000" points="61.7637,-65.5 61.7637,-93.5 187.8271,-93.5 187.8271,-65.5 61.7637,-65.5"/>
<text text-anchor="start" x="69.7637" y="-81.5" font-family="Helvetica,sans-Serif" font-size="10.00" fill="#000000">include/indigox/algorithm</text>
<text text-anchor="middle" x="124.7954" y="-71.5" font-family="Helvetica,sans-Serif" font-size="10.00" fill="#000000">/formalbonds/astar.hpp</text>
</g>
<!-- Node18 -->
<g id="node2" class="node">
<title>Node18</title>
<g id="a_node2"><a xlink:href="electron__optimisation_8cpp.html" target="_top" xlink:title="src/algorithm/electron\l_optimisation.cpp">
<polygon fill="#ffffff" stroke="#000000" points="0,-.5 0,-28.5 111.5908,-28.5 111.5908,-.5 0,-.5"/>
<text text-anchor="start" x="8" y="-16.5" font-family="Helvetica,sans-Serif" font-size="10.00" fill="#000000">src/algorithm/electron</text>
<text text-anchor="middle" x="55.7954" y="-6.5" font-family="Helvetica,sans-Serif" font-size="10.00" fill="#000000">_optimisation.cpp</text>
</a>
</g>
</g>
<!-- Node17&#45;&gt;Node18 -->
<g id="edge1" class="edge">
<title>Node17&#45;&gt;Node18</title>
<path fill="none" stroke="#191970" d="M102.303,-58.3115C91.9527,-48.5612 79.955,-37.259 70.7382,-28.5765"/>
<polygon fill="#191970" stroke="#191970" points="100.1446,-61.0866 109.8234,-65.396 104.9444,-55.9914 100.1446,-61.0866"/>
</g>
<!-- Node19 -->
<g id="node3" class="node">
<title>Node19</title>
<g id="a_node3"><a xlink:href="astar_8cpp.html" target="_top" xlink:title="src/algorithm/formalbonds\l/astar.cpp">
<polygon fill="#ffffff" stroke="#000000" points="129.2734,-.5 129.2734,-28.5 260.3174,-28.5 260.3174,-.5 129.2734,-.5"/>
<text text-anchor="start" x="137.2734" y="-16.5" font-family="Helvetica,sans-Serif" font-size="10.00" fill="#000000">src/algorithm/formalbonds</text>
<text text-anchor="middle" x="194.7954" y="-6.5" font-family="Helvetica,sans-Serif" font-size="10.00" fill="#000000">/astar.cpp</text>
</a>
</g>
</g>
<!-- Node17&#45;&gt;Node19 -->
<g id="edge2" class="edge">
<title>Node17&#45;&gt;Node19</title>
<path fill="none" stroke="#191970" d="M147.6138,-58.3115C158.1141,-48.5612 170.2857,-37.259 179.6361,-28.5765"/>
<polygon fill="#191970" stroke="#191970" points="144.9307,-56.0266 139.9844,-65.396 149.6939,-61.1562 144.9307,-56.0266"/>
</g>
</g>
</svg>
