<?xml version="1.0" encoding="UTF-8" standalone="no"?>
<!DOCTYPE svg PUBLIC "-//W3C//DTD SVG 1.1//EN"
 "http://www.w3.org/Graphics/SVG/1.1/DTD/svg11.dtd">
<!-- Generated by graphviz version 2.40.1 (20161225.0304)
 -->
<!-- Title: src/algorithm/formalbonds/astar.cpp Pages: 1 -->
<!--zoomable 352 -->
<svg id="main" version="1.1" xmlns="http://www.w3.org/2000/svg" xmlns:xlink="http://www.w3.org/1999/xlink" xml:space="preserve" onload="init(evt)">
<style type="text/css"><![CDATA[
.edge:hover path { stroke: red; }
.edge:hover polygon { stroke: red; fill: red; }
]]></style>
<script type="text/javascript"><![CDATA[
var edges = document.getElementsByTagName('g');
if (edges && edges.length) {
  for (var i=0;i<edges.length;i++) {
    if (edges[i].id.substr(0,4)=='edge') {
      edges[i].setAttribute('class','edge');
    }
  }
}
]]></script>
        <defs>
                <circle id="rim" cx="0" cy="0" r="7"/>
                <circle id="rim2" cx="0" cy="0" r="3.5"/>
                <g id="zoomPlus">
                        <use xlink:href="#rim" fill="#404040">
                                <set attributeName="fill" to="#808080" begin="zoomplus.mouseover" end="zoomplus.mouseout"/>
                        </use>
                        <path d="M-4,0h8M0,-4v8" fill="none" stroke="white" stroke-width="1.5" pointer-events="none"/>
                </g>
                <g id="zoomMin">
                        <use xlink:href="#rim" fill="#404040">
                                <set attributeName="fill" to="#808080" begin="zoomminus.mouseover" end="zoomminus.mouseout"/>
                        </use>
                        <path d="M-4,0h8" fill="none" stroke="white" stroke-width="1.5" pointer-events="none"/>
                </g>
                <g id="dirArrow">
                        <path fill="none" stroke="white" stroke-width="1.5" d="M0,-3.0v7 M-2.5,-0.5L0,-3.0L2.5,-0.5"/>
                </g>
               <g id="resetDef">
                       <use xlink:href="#rim2" fill="#404040">
                               <set attributeName="fill" to="#808080" begin="reset.mouseover" end="reset.mouseout"/>
                       </use>
               </g>
        </defs>

<script type="text/javascript">
var viewWidth = 913;
var viewHeight = 352;
var sectionId = 'dynsection-0';
</script>
<script xlink:href="svgpan.js"/>
<svg id="graph" class="graph">
<g id="viewport">
<title>src/algorithm/formalbonds/astar.cpp</title>
<polygon fill="#ffffff" stroke="transparent" points="-4,4 -4,-348 908.9331,-348 908.9331,4 -4,4"/>
<!-- Node0 -->
<g id="node1" class="node">
<title>Node0</title>
<polygon fill="#bfbfbf" stroke="#000000" points="393.042,-315.5 393.042,-343.5 524.0859,-343.5 524.0859,-315.5 393.042,-315.5"/>
<text text-anchor="start" x="401.042" y="-331.5" font-family="Helvetica,sans-Serif" font-size="10.00" fill="#000000">src/algorithm/formalbonds</text>
<text text-anchor="middle" x="458.564" y="-321.5" font-family="Helvetica,sans-Serif" font-size="10.00" fill="#000000">/astar.cpp</text>
</g>
<!-- Node1 -->
<g id="node2" class="node">
<title>Node1</title>
<polygon fill="#ffffff" stroke="#bfbfbf" points="0,-255.5 0,-273.5 57.1279,-273.5 57.1279,-255.5 0,-255.5"/>
<text text-anchor="middle" x="28.564" y="-261.5" font-family="Helvetica,sans-Serif" font-size="10.00" fill="#000000">algorithm</text>
</g>
<!-- Node0&#45;&gt;Node1 -->
<g id="edge1" class="edge">
<title>Node0&#45;&gt;Node1</title>
<path fill="none" stroke="#191970" d="M392.8305,-325.7888C314.2393,-320.2659 179.1944,-307.3186 66.564,-279 64.1072,-278.3823 61.5928,-277.653 59.0851,-276.8554"/>
<polygon fill="#191970" stroke="#191970" points="60.1775,-273.5297 49.5827,-273.5332 57.8673,-280.1375 60.1775,-273.5297"/>
</g>
<!-- Node2 -->
<g id="node3" class="node">
<title>Node2</title>
<polygon fill="#ffffff" stroke="#bfbfbf" points="75.2759,-255.5 75.2759,-273.5 121.8521,-273.5 121.8521,-255.5 75.2759,-255.5"/>
<text text-anchor="middle" x="98.564" y="-261.5" font-family="Helvetica,sans-Serif" font-size="10.00" fill="#000000">chrono</text>
</g>
<!-- Node0&#45;&gt;Node2 -->
<g id="edge2" class="edge">
<title>Node0&#45;&gt;Node2</title>
<path fill="none" stroke="#191970" d="M393.0368,-323.4966C327.1543,-316.4754 223.0859,-302.6856 135.564,-279 133.3996,-278.4143 131.1884,-277.7435 128.9772,-277.0189"/>
<polygon fill="#191970" stroke="#191970" points="130.0223,-273.6754 119.4278,-273.5925 127.6582,-280.2642 130.0223,-273.6754"/>
</g>
<!-- Node3 -->
<g id="node4" class="node">
<title>Node3</title>
<polygon fill="#ffffff" stroke="#bfbfbf" points="102.3916,-.5 102.3916,-18.5 156.7363,-18.5 156.7363,-.5 102.3916,-.5"/>
<text text-anchor="middle" x="129.564" y="-6.5" font-family="Helvetica,sans-Serif" font-size="10.00" fill="#000000">iostream</text>
</g>
<!-- Node0&#45;&gt;Node3 -->
<g id="edge3" class="edge">
<title>Node0&#45;&gt;Node3</title>
<path fill="none" stroke="#191970" d="M393.033,-315.7799C302.3289,-294.8707 149.564,-251.8801 149.564,-199.5 149.564,-199.5 149.564,-199.5 149.564,-134.5 149.564,-96.3829 140.3841,-52.5396 134.4629,-28.2245"/>
<polygon fill="#191970" stroke="#191970" points="137.8543,-27.3589 132.0164,-18.5175 131.0666,-29.0697 137.8543,-27.3589"/>
</g>
<!-- Node4 -->
<g id="node5" class="node">
<title>Node4</title>
<polygon fill="#ffffff" stroke="#bfbfbf" points="673.8374,-125.5 673.8374,-143.5 709.2905,-143.5 709.2905,-125.5 673.8374,-125.5"/>
<text text-anchor="middle" x="691.564" y="-131.5" font-family="Helvetica,sans-Serif" font-size="10.00" fill="#000000">map</text>
</g>
<!-- Node0&#45;&gt;Node4 -->
<g id="edge4" class="edge">
<title>Node0&#45;&gt;Node4</title>
<path fill="none" stroke="#191970" d="M492.0292,-315.3671C508.7667,-306.8877 528.2414,-294.6834 541.564,-279 570.7379,-244.6562 548.3223,-217.4742 579.564,-185 606.5955,-156.902 624.0292,-165.0461 659.564,-149 661.1309,-148.2925 662.7407,-147.5649 664.3649,-146.8304"/>
<polygon fill="#191970" stroke="#191970" points="665.961,-149.9498 673.6276,-142.6373 663.0742,-143.5728 665.961,-149.9498"/>
</g>
<!-- Node5 -->
<g id="node6" class="node">
<title>Node5</title>
<polygon fill="#ffffff" stroke="#bfbfbf" points="432.5073,-255.5 432.5073,-273.5 484.6206,-273.5 484.6206,-255.5 432.5073,-255.5"/>
<text text-anchor="middle" x="458.564" y="-261.5" font-family="Helvetica,sans-Serif" font-size="10.00" fill="#000000">memory</text>
</g>
<!-- Node0&#45;&gt;Node5 -->
<g id="edge5" class="edge">
<title>Node0&#45;&gt;Node5</title>
<path fill="none" stroke="#191970" d="M458.564,-315.396C458.564,-306.1723 458.564,-294.0011 458.564,-283.8738"/>
<polygon fill="#191970" stroke="#191970" points="462.0641,-283.5743 458.564,-273.5743 455.0641,-283.5743 462.0641,-283.5743"/>
</g>
<!-- Node6 -->
<g id="node7" class="node">
<title>Node6</title>
<polygon fill="#ffffff" stroke="#bfbfbf" points="502.894,-255.5 502.894,-273.5 532.2339,-273.5 532.2339,-255.5 502.894,-255.5"/>
<text text-anchor="middle" x="517.564" y="-261.5" font-family="Helvetica,sans-Serif" font-size="10.00" fill="#000000">set</text>
</g>
<!-- Node0&#45;&gt;Node6 -->
<g id="edge6" class="edge">
<title>Node0&#45;&gt;Node6</title>
<path fill="none" stroke="#191970" d="M471.3661,-315.396C480.5485,-305.2797 492.9493,-291.6178 502.591,-280.9956"/>
<polygon fill="#191970" stroke="#191970" points="505.1978,-283.3313 509.3273,-273.5743 500.0146,-278.6265 505.1978,-283.3313"/>
</g>
<!-- Node7 -->
<g id="node8" class="node">
<title>Node7</title>
<polygon fill="#ffffff" stroke="#bfbfbf" points="660.9482,-60.5 660.9482,-78.5 704.1797,-78.5 704.1797,-60.5 660.9482,-60.5"/>
<text text-anchor="middle" x="682.564" y="-66.5" font-family="Helvetica,sans-Serif" font-size="10.00" fill="#000000">vector</text>
</g>
<!-- Node0&#45;&gt;Node7 -->
<g id="edge7" class="edge">
<title>Node0&#45;&gt;Node7</title>
<path fill="none" stroke="#191970" d="M444.1236,-315.3182C429.1798,-298.8645 409.8077,-271.2752 423.564,-250 444.7343,-217.2583 468.6822,-231.4202 503.564,-214 510.2598,-210.6561 615.8877,-153.878 621.564,-149 642.6046,-130.9184 661.1019,-104.515 672.06,-87.1737"/>
<polygon fill="#191970" stroke="#191970" points="675.0859,-88.9346 677.3405,-78.5824 669.1223,-85.2692 675.0859,-88.9346"/>
</g>
<!-- Node8 -->
<g id="node9" class="node">
<title>Node8</title>
<g id="a_node9"><a xlink:href="astar_8hpp.html" target="_top" xlink:title="indigox/algorithm/formalbonds\l/astar.hpp">
<polygon fill="#ffffff" stroke="#000000" points="614.8623,-250.5 614.8623,-278.5 764.2656,-278.5 764.2656,-250.5 614.8623,-250.5"/>
<text text-anchor="start" x="622.8623" y="-266.5" font-family="Helvetica,sans-Serif" font-size="10.00" fill="#000000">indigox/algorithm/formalbonds</text>
<text text-anchor="middle" x="689.564" y="-256.5" font-family="Helvetica,sans-Serif" font-size="10.00" fill="#000000">/astar.hpp</text>
</a>
</g>
</g>
<!-- Node0&#45;&gt;Node8 -->
<g id="edge8" class="edge">
<title>Node0&#45;&gt;Node8</title>
<path fill="none" stroke="#191970" d="M508.4031,-315.476C543.9548,-305.4723 591.9348,-291.9714 629.5859,-281.3769"/>
<polygon fill="#191970" stroke="#191970" points="630.7378,-284.6888 639.4159,-278.6109 628.8417,-277.9505 630.7378,-284.6888"/>
</g>
<!-- Node22 -->
<g id="node23" class="node">
<title>Node22</title>
<polygon fill="#ffffff" stroke="#bfbfbf" points="782.1948,-255.5 782.1948,-273.5 904.9331,-273.5 904.9331,-255.5 782.1948,-255.5"/>
<text text-anchor="middle" x="843.564" y="-261.5" font-family="Helvetica,sans-Serif" font-size="10.00" fill="#000000">indigox/utils/options.hpp</text>
</g>
<!-- Node0&#45;&gt;Node22 -->
<g id="edge31" class="edge">
<title>Node0&#45;&gt;Node22</title>
<path fill="none" stroke="#191970" d="M524.1702,-319.8675C587.9922,-310.2883 687.6297,-294.7803 773.564,-279 779.3507,-277.9374 785.3947,-276.7711 791.4022,-275.5759"/>
<polygon fill="#191970" stroke="#191970" points="792.3174,-278.9618 801.4261,-273.5506 790.931,-272.1005 792.3174,-278.9618"/>
</g>
<!-- Node8&#45;&gt;Node4 -->
<g id="edge9" class="edge">
<title>Node8&#45;&gt;Node4</title>
<path fill="none" stroke="#191970" d="M742.2512,-250.4518C760.4729,-242.7922 778.9642,-231.2275 789.564,-214 796.3182,-203.0226 796.2732,-196.005 789.564,-185 774.3759,-160.0875 742.5262,-146.9377 719.2436,-140.3756"/>
<polygon fill="#191970" stroke="#191970" points="720.109,-136.9843 709.552,-137.8784 718.3624,-143.7629 720.109,-136.9843"/>
</g>
<!-- Node8&#45;&gt;Node7 -->
<g id="edge12" class="edge">
<title>Node8&#45;&gt;Node7</title>
<path fill="none" stroke="#191970" d="M763.0635,-250.4778C816.7318,-239.493 881.4768,-224.383 889.564,-214 943.7425,-144.4409 784.9417,-94.972 714.4364,-76.9732"/>
<polygon fill="#191970" stroke="#191970" points="714.8666,-73.4735 704.3171,-74.4517 713.1741,-80.2658 714.8666,-73.4735"/>
</g>
<!-- Node9 -->
<g id="node10" class="node">
<title>Node9</title>
<polygon fill="#ffffff" stroke="#bfbfbf" points="836.6602,-190.5 836.6602,-208.5 880.4678,-208.5 880.4678,-190.5 836.6602,-190.5"/>
<text text-anchor="middle" x="858.564" y="-196.5" font-family="Helvetica,sans-Serif" font-size="10.00" fill="#000000">queue</text>
</g>
<!-- Node8&#45;&gt;Node9 -->
<g id="edge10" class="edge">
<title>Node8&#45;&gt;Node9</title>
<path fill="none" stroke="#191970" d="M727.1909,-250.4422C753.8668,-240.4199 790.477,-226.5522 822.564,-214 823.9758,-213.4477 825.4176,-212.8805 826.8731,-212.3052"/>
<polygon fill="#191970" stroke="#191970" points="828.5137,-215.4191 836.507,-208.4652 825.9218,-208.9166 828.5137,-215.4191"/>
</g>
<!-- Node10 -->
<g id="node11" class="node">
<title>Node10</title>
<polygon fill="#ffffff" stroke="#bfbfbf" points="588.6602,-190.5 588.6602,-208.5 632.4678,-208.5 632.4678,-190.5 588.6602,-190.5"/>
<text text-anchor="middle" x="610.564" y="-196.5" font-family="Helvetica,sans-Serif" font-size="10.00" fill="#000000">deque</text>
</g>
<!-- Node8&#45;&gt;Node10 -->
<g id="edge11" class="edge">
<title>Node8&#45;&gt;Node10</title>
<path fill="none" stroke="#191970" d="M672.4221,-250.396C659.7654,-239.9822 642.5421,-225.8111 629.4831,-215.0664"/>
<polygon fill="#191970" stroke="#191970" points="631.5387,-212.2252 621.5927,-208.5743 627.0911,-217.6307 631.5387,-212.2252"/>
</g>
<!-- Node11 -->
<g id="node12" class="node">
<title>Node11</title>
<polygon fill="#ffffff" stroke="#bfbfbf" points="650.8623,-190.5 650.8623,-208.5 780.2656,-208.5 780.2656,-190.5 650.8623,-190.5"/>
<text text-anchor="middle" x="715.564" y="-196.5" font-family="Helvetica,sans-Serif" font-size="10.00" fill="#000000">boost/dynamic_bitset.hpp</text>
</g>
<!-- Node8&#45;&gt;Node11 -->
<g id="edge13" class="edge">
<title>Node8&#45;&gt;Node11</title>
<path fill="none" stroke="#191970" d="M695.2056,-250.396C699.014,-240.8748 704.0788,-228.2128 708.2038,-217.9003"/>
<polygon fill="#191970" stroke="#191970" points="711.4699,-219.159 711.9342,-208.5743 704.9706,-216.5592 711.4699,-219.159"/>
</g>
<!-- Node12 -->
<g id="node13" class="node">
<title>Node12</title>
<g id="a_node13"><a xlink:href="electron__optimisation__algorithm_8hpp.html" target="_top" xlink:title="electron_optimisation\l_algorithm.hpp">
<polygon fill="#ffffff" stroke="#000000" points="384.3154,-185.5 384.3154,-213.5 494.8125,-213.5 494.8125,-185.5 384.3154,-185.5"/>
<text text-anchor="start" x="392.3154" y="-201.5" font-family="Helvetica,sans-Serif" font-size="10.00" fill="#000000">electron_optimisation</text>
<text text-anchor="middle" x="439.564" y="-191.5" font-family="Helvetica,sans-Serif" font-size="10.00" fill="#000000">_algorithm.hpp</text>
</a>
</g>
</g>
<!-- Node8&#45;&gt;Node12 -->
<g id="edge14" class="edge">
<title>Node8&#45;&gt;Node12</title>
<path fill="none" stroke="#191970" d="M635.6255,-250.476C596.9041,-240.4084 544.5598,-226.7989 503.6964,-216.1744"/>
<polygon fill="#191970" stroke="#191970" points="504.3957,-212.7399 493.8367,-213.6109 502.6342,-219.5147 504.3957,-212.7399"/>
</g>
<!-- Node12&#45;&gt;Node4 -->
<g id="edge16" class="edge">
<title>Node12&#45;&gt;Node4</title>
<path fill="none" stroke="#191970" d="M493.934,-185.476C546.2435,-171.9835 623.2174,-152.1291 663.9428,-141.6245"/>
<polygon fill="#191970" stroke="#191970" points="664.9051,-144.9909 673.714,-139.1042 663.1567,-138.2128 664.9051,-144.9909"/>
</g>
<!-- Node12&#45;&gt;Node7 -->
<g id="edge17" class="edge">
<title>Node12&#45;&gt;Node7</title>
<path fill="none" stroke="#191970" d="M495.0982,-186.054C524.0657,-177.7328 559.435,-165.4621 588.564,-149 619.2226,-131.6734 649.3552,-103.718 666.9388,-85.9929"/>
<polygon fill="#191970" stroke="#191970" points="669.625,-88.2511 674.0915,-78.6437 664.6086,-83.3688 669.625,-88.2511"/>
</g>
<!-- Node13 -->
<g id="node14" class="node">
<title>Node13</title>
<polygon fill="#ffffff" stroke="#bfbfbf" points="410.1133,-.5 410.1133,-18.5 455.0146,-18.5 455.0146,-.5 410.1133,-.5"/>
<text text-anchor="middle" x="432.564" y="-6.5" font-family="Helvetica,sans-Serif" font-size="10.00" fill="#000000">cstdint</text>
</g>
<!-- Node12&#45;&gt;Node13 -->
<g id="edge15" class="edge">
<title>Node12&#45;&gt;Node13</title>
<path fill="none" stroke="#191970" d="M384.0474,-185.6212C351.2065,-176.1638 314.1906,-162.8792 304.564,-149 286.8546,-123.4675 322.7156,-61.2022 328.564,-55 338.8745,-44.0657 373.813,-30.0104 400.3749,-20.4338"/>
<polygon fill="#191970" stroke="#191970" points="401.8179,-23.6359 410.0761,-16.9986 399.4813,-17.0373 401.8179,-23.6359"/>
</g>
<!-- Node14 -->
<g id="node15" class="node">
<title>Node14</title>
<polygon fill="#ffffff" stroke="#bfbfbf" points="313.5938,-120.5 313.5938,-148.5 423.5342,-148.5 423.5342,-120.5 313.5938,-120.5"/>
<text text-anchor="start" x="321.5938" y="-136.5" font-family="Helvetica,sans-Serif" font-size="10.00" fill="#000000">boost/dynamic_bitset</text>
<text text-anchor="middle" x="368.564" y="-126.5" font-family="Helvetica,sans-Serif" font-size="10.00" fill="#000000">/dynamic_bitset.hpp</text>
</g>
<!-- Node12&#45;&gt;Node14 -->
<g id="edge18" class="edge">
<title>Node12&#45;&gt;Node14</title>
<path fill="none" stroke="#191970" d="M424.158,-185.396C414.5749,-176.6227 402.079,-165.1827 391.362,-155.3714"/>
<polygon fill="#191970" stroke="#191970" points="393.6791,-152.7475 383.9398,-148.5765 388.9523,-157.9106 393.6791,-152.7475"/>
</g>
<!-- Node15 -->
<g id="node16" class="node">
<title>Node15</title>
<g id="a_node16"><a xlink:href="electron__graph_8hpp.html" target="_top" xlink:title="../../classes/electron\l_graph.hpp">
<polygon fill="#ffffff" stroke="#000000" points="177.3794,-55.5 177.3794,-83.5 281.7485,-83.5 281.7485,-55.5 177.3794,-55.5"/>
<text text-anchor="start" x="185.3794" y="-71.5" font-family="Helvetica,sans-Serif" font-size="10.00" fill="#000000">../../classes/electron</text>
<text text-anchor="middle" x="229.564" y="-61.5" font-family="Helvetica,sans-Serif" font-size="10.00" fill="#000000">_graph.hpp</text>
</a>
</g>
</g>
<!-- Node12&#45;&gt;Node15 -->
<g id="edge19" class="edge">
<title>Node12&#45;&gt;Node15</title>
<path fill="none" stroke="#191970" d="M384.1218,-193.8927C348.6326,-187.8286 303.434,-175.217 271.564,-149 254.1303,-134.6587 242.9903,-111.1501 236.5968,-93.4083"/>
<polygon fill="#191970" stroke="#191970" points="239.8561,-92.1183 233.3692,-83.7415 233.2164,-94.3352 239.8561,-92.1183"/>
</g>
<!-- Node18 -->
<g id="node19" class="node">
<title>Node18</title>
<g id="a_node19"><a xlink:href="electron__optimisation_8hpp.html" target="_top" xlink:title="../electron_optimisation.hpp">
<polygon fill="#ffffff" stroke="#000000" points="441.4165,-125.5 441.4165,-143.5 579.7114,-143.5 579.7114,-125.5 441.4165,-125.5"/>
<text text-anchor="middle" x="510.564" y="-131.5" font-family="Helvetica,sans-Serif" font-size="10.00" fill="#000000">../electron_optimisation.hpp</text>
</a>
</g>
</g>
<!-- Node12&#45;&gt;Node18 -->
<g id="edge24" class="edge">
<title>Node12&#45;&gt;Node18</title>
<path fill="none" stroke="#191970" d="M454.9699,-185.396C466.2366,-175.0814 481.5297,-161.0807 493.2243,-150.3743"/>
<polygon fill="#191970" stroke="#191970" points="495.6396,-152.9084 500.652,-143.5743 490.9128,-147.7453 495.6396,-152.9084"/>
</g>
<!-- Node15&#45;&gt;Node3 -->
<g id="edge23" class="edge">
<title>Node15&#45;&gt;Node3</title>
<path fill="none" stroke="#191970" d="M206.1184,-55.4327C190.29,-45.9356 169.4599,-33.4376 153.5245,-23.8763"/>
<polygon fill="#191970" stroke="#191970" points="155.1581,-20.7748 144.7824,-18.6311 151.5566,-26.7773 155.1581,-20.7748"/>
</g>
<!-- Node15&#45;&gt;Node13 -->
<g id="edge22" class="edge">
<title>Node15&#45;&gt;Node13</title>
<path fill="none" stroke="#191970" d="M278.17,-55.3947C310.421,-45.9977 353.9318,-33.2483 400.2714,-19.3675"/>
<polygon fill="#191970" stroke="#191970" points="401.3138,-22.709 409.8864,-16.4833 399.3024,-16.0042 401.3138,-22.709"/>
</g>
<!-- Node16 -->
<g id="node17" class="node">
<title>Node16</title>
<polygon fill="#ffffff" stroke="#bfbfbf" points="302.5962,-.5 302.5962,-18.5 392.5317,-18.5 392.5317,-.5 302.5962,-.5"/>
<text text-anchor="middle" x="347.564" y="-6.5" font-family="Helvetica,sans-Serif" font-size="10.00" fill="#000000">../utils/graph.hpp</text>
</g>
<!-- Node15&#45;&gt;Node16 -->
<g id="edge20" class="edge">
<title>Node15&#45;&gt;Node16</title>
<path fill="none" stroke="#191970" d="M257.2297,-55.4327C276.3437,-45.7137 301.6386,-32.8519 320.599,-23.211"/>
<polygon fill="#191970" stroke="#191970" points="322.2787,-26.2834 329.6062,-18.6311 319.106,-20.0437 322.2787,-26.2834"/>
</g>
<!-- Node17 -->
<g id="node18" class="node">
<title>Node17</title>
<polygon fill="#ffffff" stroke="#bfbfbf" points="174.5889,-.5 174.5889,-18.5 284.5391,-18.5 284.5391,-.5 174.5889,-.5"/>
<text text-anchor="middle" x="229.564" y="-6.5" font-family="Helvetica,sans-Serif" font-size="10.00" fill="#000000">molecular_graph.hpp</text>
</g>
<!-- Node15&#45;&gt;Node17 -->
<g id="edge21" class="edge">
<title>Node15&#45;&gt;Node17</title>
<path fill="none" stroke="#191970" d="M229.564,-55.2808C229.564,-47.3776 229.564,-37.4316 229.564,-28.8308"/>
<polygon fill="#191970" stroke="#191970" points="233.0641,-28.5842 229.564,-18.5842 226.0641,-28.5842 233.0641,-28.5842"/>
</g>
<!-- Node18&#45;&gt;Node7 -->
<g id="edge30" class="edge">
<title>Node18&#45;&gt;Node7</title>
<path fill="none" stroke="#191970" d="M538.1464,-125.4741C566.7821,-115.9055 612.7357,-99.9931 651.564,-84 652.5803,-83.5814 653.6117,-83.1475 654.6505,-82.7028"/>
<polygon fill="#191970" stroke="#191970" points="656.2981,-85.8003 664.0017,-78.5267 653.4436,-79.4087 656.2981,-85.8003"/>
</g>
<!-- Node18&#45;&gt;Node13 -->
<g id="edge27" class="edge">
<title>Node18&#45;&gt;Node13</title>
<path fill="none" stroke="#191970" d="M510.3219,-125.3935C509.5095,-109.7747 506.0556,-77.3997 491.564,-55 483.3333,-42.2779 470.2816,-31.6718 458.5443,-23.909"/>
<polygon fill="#191970" stroke="#191970" points="460.2646,-20.8571 449.9264,-18.5389 456.5625,-26.798 460.2646,-20.8571"/>
</g>
<!-- Node18&#45;&gt;Node15 -->
<g id="edge25" class="edge">
<title>Node18&#45;&gt;Node15</title>
<path fill="none" stroke="#191970" d="M471.4921,-125.462C424.998,-114.7072 346.7735,-96.6125 291.8919,-83.9175"/>
<polygon fill="#191970" stroke="#191970" points="292.4604,-80.4567 281.9289,-81.6129 290.8828,-87.2766 292.4604,-80.4567"/>
</g>
<!-- Node19 -->
<g id="node20" class="node">
<title>Node19</title>
<polygon fill="#ffffff" stroke="#bfbfbf" points="538.6602,-55.5 538.6602,-83.5 642.4678,-83.5 642.4678,-55.5 538.6602,-55.5"/>
<text text-anchor="start" x="546.6602" y="-71.5" font-family="Helvetica,sans-Serif" font-size="10.00" fill="#000000">../classes/molecular</text>
<text text-anchor="middle" x="590.564" y="-61.5" font-family="Helvetica,sans-Serif" font-size="10.00" fill="#000000">_graph.hpp</text>
</g>
<!-- Node18&#45;&gt;Node19 -->
<g id="edge26" class="edge">
<title>Node18&#45;&gt;Node19</title>
<path fill="none" stroke="#191970" d="M521.6876,-125.462C532.9173,-116.3379 550.6488,-101.931 565.3083,-90.0202"/>
<polygon fill="#191970" stroke="#191970" points="567.5215,-92.7317 573.0756,-83.7093 563.1074,-87.2988 567.5215,-92.7317"/>
</g>
<!-- Node20 -->
<g id="node21" class="node">
<title>Node20</title>
<polygon fill="#ffffff" stroke="#bfbfbf" points="337.3374,-60.5 337.3374,-78.5 377.7905,-78.5 377.7905,-60.5 337.3374,-60.5"/>
<text text-anchor="middle" x="357.564" y="-66.5" font-family="Helvetica,sans-Serif" font-size="10.00" fill="#000000">string</text>
</g>
<!-- Node18&#45;&gt;Node20 -->
<g id="edge28" class="edge">
<title>Node18&#45;&gt;Node20</title>
<path fill="none" stroke="#191970" d="M487.2629,-125.4215C462.3928,-115.6183 421.922,-99.3394 387.564,-84 386.732,-83.6286 385.8889,-83.248 385.0391,-82.8607"/>
<polygon fill="#191970" stroke="#191970" points="386.4258,-79.6454 375.8854,-78.5727 383.4563,-85.9843 386.4258,-79.6454"/>
</g>
<!-- Node21 -->
<g id="node22" class="node">
<title>Node21</title>
<polygon fill="#ffffff" stroke="#bfbfbf" points="396.2612,-60.5 396.2612,-78.5 482.8667,-78.5 482.8667,-60.5 396.2612,-60.5"/>
<text text-anchor="middle" x="439.564" y="-66.5" font-family="Helvetica,sans-Serif" font-size="10.00" fill="#000000">unordered_map</text>
</g>
<!-- Node18&#45;&gt;Node21 -->
<g id="edge29" class="edge">
<title>Node18&#45;&gt;Node21</title>
<path fill="none" stroke="#191970" d="M500.6917,-125.462C489.4798,-115.1976 470.9653,-98.2477 457.245,-85.6869"/>
<polygon fill="#191970" stroke="#191970" points="459.5514,-83.0532 449.8121,-78.8821 454.8246,-88.2163 459.5514,-83.0532"/>
</g>
</g>
</svg>
        <g id="navigator" transform="translate(0 0)" fill="#404254">
                <rect fill="#f2f5e9" fill-opacity="0.5" stroke="#606060" stroke-width=".5" x="0" y="0" width="60" height="60"/>
                <use id="zoomplus" xlink:href="#zoomPlus" x="17" y="9" onmousedown="handleZoom(evt,'in')"/>
                <use id="zoomminus" xlink:href="#zoomMin" x="42" y="9" onmousedown="handleZoom(evt,'out')"/>
                <use id="reset" xlink:href="#resetDef" x="30" y="36" onmousedown="handleReset()"/>
                <g id="arrowUp" xlink:href="#dirArrow" transform="translate(30 24)" onmousedown="handlePan(0,-1)">
                  <use xlink:href="#rim" fill="#404040">
                        <set attributeName="fill" to="#808080" begin="arrowUp.mouseover" end="arrowUp.mouseout"/>
                  </use>
                  <path fill="none" stroke="white" stroke-width="1.5" d="M0,-3.0v7 M-2.5,-0.5L0,-3.0L2.5,-0.5"/>
                </g>
                <g id="arrowRight" xlink:href="#dirArrow" transform="rotate(90) translate(36 -43)" onmousedown="handlePan(1,0)">
                  <use xlink:href="#rim" fill="#404040">
                        <set attributeName="fill" to="#808080" begin="arrowRight.mouseover" end="arrowRight.mouseout"/>
                  </use>
                  <path fill="none" stroke="white" stroke-width="1.5" d="M0,-3.0v7 M-2.5,-0.5L0,-3.0L2.5,-0.5"/>
                </g>
                <g id="arrowDown" xlink:href="#dirArrow" transform="rotate(180) translate(-30 -48)" onmousedown="handlePan(0,1)">
                  <use xlink:href="#rim" fill="#404040">
                        <set attributeName="fill" to="#808080" begin="arrowDown.mouseover" end="arrowDown.mouseout"/>
                  </use>
                  <path fill="none" stroke="white" stroke-width="1.5" d="M0,-3.0v7 M-2.5,-0.5L0,-3.0L2.5,-0.5"/>
                </g>
                <g id="arrowLeft" xlink:href="#dirArrow" transform="rotate(270) translate(-36 17)" onmousedown="handlePan(-1,0)">
                  <use xlink:href="#rim" fill="#404040">
                        <set attributeName="fill" to="#808080" begin="arrowLeft.mouseover" end="arrowLeft.mouseout"/>
                  </use>
                  <path fill="none" stroke="white" stroke-width="1.5" d="M0,-3.0v7 M-2.5,-0.5L0,-3.0L2.5,-0.5"/>
                </g>
        </g>
        <svg viewBox="0 0 15 15" width="100%" height="30px" preserveAspectRatio="xMaxYMin meet">
         <g id="arrow_out" transform="scale(0.3 0.3)">
          <a xlink:href="astar_8cpp__incl_org.svg" target="_base">
           <rect id="button" ry="5" rx="5" y="6" x="6" height="38" width="38"
                fill="#f2f5e9" fill-opacity="0.5" stroke="#606060" stroke-width="1.0"/>
           <path id="arrow"
             d="M 11.500037,31.436501 C 11.940474,20.09759 22.043105,11.32322 32.158766,21.979434 L 37.068811,17.246167 C 37.068811,17.246167 37.088388,32 37.088388,32 L 22.160133,31.978069 C 22.160133,31.978069 26.997745,27.140456 26.997745,27.140456 C 18.528582,18.264221 13.291696,25.230495 11.500037,31.436501 z"
             style="fill:#404040;"/>
          </a>
         </g>
        </svg>
</svg>
