<?xml version="1.0" encoding="UTF-8" standalone="no"?>
<!DOCTYPE svg PUBLIC "-//W3C//DTD SVG 1.1//EN"
 "http://www.w3.org/Graphics/SVG/1.1/DTD/svg11.dtd">
<!-- Generated by graphviz version 2.40.1 (20161225.0304)
 -->
<!-- Title: include/indigox/classes/athenaeum.hpp Pages: 1 -->
<svg width="613pt" height="157pt"
 viewBox="0.00 0.00 612.54 157.00" xmlns="http://www.w3.org/2000/svg" xmlns:xlink="http://www.w3.org/1999/xlink">
<g id="graph0" class="graph" transform="scale(1 1) rotate(0) translate(4 153)">
<title>include/indigox/classes/athenaeum.hpp</title>
<polygon fill="#ffffff" stroke="transparent" points="-4,4 -4,-153 608.5415,-153 608.5415,4 -4,4"/>
<!-- Node26 -->
<g id="node1" class="node">
<title>Node26</title>
<polygon fill="#bfbfbf" stroke="#000000" points="244.2734,-120.5 244.2734,-148.5 362.5537,-148.5 362.5537,-120.5 244.2734,-120.5"/>
<text text-anchor="start" x="252.2734" y="-136.5" font-family="Helvetica,sans-Serif" font-size="10.00" fill="#000000">include/indigox/classes</text>
<text text-anchor="middle" x="303.4136" y="-126.5" font-family="Helvetica,sans-Serif" font-size="10.00" fill="#000000">/athenaeum.hpp</text>
</g>
<!-- Node27 -->
<g id="node2" class="node">
<title>Node27</title>
<g id="a_node2"><a xlink:href="cherrypicker_8hpp.html" target="_top" xlink:title="include/indigox/algorithm\l/cherrypicker.hpp">
<polygon fill="#ffffff" stroke="#000000" points="130.3818,-55.5 130.3818,-83.5 256.4453,-83.5 256.4453,-55.5 130.3818,-55.5"/>
<text text-anchor="start" x="138.3818" y="-71.5" font-family="Helvetica,sans-Serif" font-size="10.00" fill="#000000">include/indigox/algorithm</text>
<text text-anchor="middle" x="193.4136" y="-61.5" font-family="Helvetica,sans-Serif" font-size="10.00" fill="#000000">/cherrypicker.hpp</text>
</a>
</g>
</g>
<!-- Node26&#45;&gt;Node27 -->
<g id="edge1" class="edge">
<title>Node26&#45;&gt;Node27</title>
<path fill="none" stroke="#191970" d="M270.9138,-115.2956C253.7017,-105.1248 232.9373,-92.8549 217.2354,-83.5765"/>
<polygon fill="#191970" stroke="#191970" points="269.1554,-118.3219 279.5452,-120.396 272.7165,-112.2954 269.1554,-118.3219"/>
</g>
<!-- Node28 -->
<g id="node3" class="node">
<title>Node28</title>
<g id="a_node3"><a xlink:href="cherrypicker_8cpp.html" target="_top" xlink:title="src/algorithm/cherrypicker.cpp">
<polygon fill="#ffffff" stroke="#000000" points="0,-.5 0,-18.5 148.8271,-18.5 148.8271,-.5 0,-.5"/>
<text text-anchor="middle" x="74.4136" y="-6.5" font-family="Helvetica,sans-Serif" font-size="10.00" fill="#000000">src/algorithm/cherrypicker.cpp</text>
</a>
</g>
</g>
<!-- Node26&#45;&gt;Node28 -->
<g id="edge5" class="edge">
<title>Node26&#45;&gt;Node28</title>
<path fill="none" stroke="#191970" d="M234.0482,-127.3942C197.6624,-120.8374 154.0058,-108.2322 121.4136,-84 98.2186,-66.7547 83.6547,-34.3662 77.6201,-18.5942"/>
<polygon fill="#191970" stroke="#191970" points="233.6603,-130.8781 244.1028,-129.0877 234.8231,-123.9753 233.6603,-130.8781"/>
</g>
<!-- Node29 -->
<g id="node4" class="node">
<title>Node29</title>
<g id="a_node4"><a xlink:href="main_8cpp.html" target="_top" xlink:title="src/main.cpp">
<polygon fill="#ffffff" stroke="#000000" points="167.0713,-.5 167.0713,-18.5 239.7559,-18.5 239.7559,-.5 167.0713,-.5"/>
<text text-anchor="middle" x="203.4136" y="-6.5" font-family="Helvetica,sans-Serif" font-size="10.00" fill="#000000">src/main.cpp</text>
</a>
</g>
</g>
<!-- Node26&#45;&gt;Node29 -->
<g id="edge7" class="edge">
<title>Node26&#45;&gt;Node29</title>
<path fill="none" stroke="#191970" d="M295.5987,-110.7628C289.2721,-93.9715 279.152,-71.5853 265.4136,-55 252.6379,-39.577 233.5477,-26.6067 219.929,-18.5098"/>
<polygon fill="#191970" stroke="#191970" points="292.3805,-112.1576 299.0462,-120.3929 298.9709,-109.7983 292.3805,-112.1576"/>
</g>
<!-- Node30 -->
<g id="node5" class="node">
<title>Node30</title>
<g id="a_node5"><a xlink:href="algorithms_8cpp.html" target="_top" xlink:title="src/python/graph/algorithms.cpp">
<polygon fill="#ffffff" stroke="#000000" points="257.2661,-.5 257.2661,-18.5 415.561,-18.5 415.561,-.5 257.2661,-.5"/>
<text text-anchor="middle" x="336.4136" y="-6.5" font-family="Helvetica,sans-Serif" font-size="10.00" fill="#000000">src/python/graph/algorithms.cpp</text>
</a>
</g>
</g>
<!-- Node26&#45;&gt;Node30 -->
<g id="edge9" class="edge">
<title>Node26&#45;&gt;Node30</title>
<path fill="none" stroke="#191970" d="M309.7851,-110.3656C317.1544,-82.4514 328.9199,-37.8851 333.9753,-18.736"/>
<polygon fill="#191970" stroke="#191970" points="306.3677,-109.5988 307.1991,-120.1609 313.1358,-111.3856 306.3677,-109.5988"/>
</g>
<!-- Node31 -->
<g id="node6" class="node">
<title>Node31</title>
<g id="a_node6"><a xlink:href="classes_2athenaeum_8cpp.html" target="_top" xlink:title="src/classes/athenaeum.cpp">
<polygon fill="#ffffff" stroke="#000000" points="350.8276,-60.5 350.8276,-78.5 487.9995,-78.5 487.9995,-60.5 350.8276,-60.5"/>
<text text-anchor="middle" x="419.4136" y="-66.5" font-family="Helvetica,sans-Serif" font-size="10.00" fill="#000000">src/classes/athenaeum.cpp</text>
</a>
</g>
</g>
<!-- Node26&#45;&gt;Node31 -->
<g id="edge6" class="edge">
<title>Node26&#45;&gt;Node31</title>
<path fill="none" stroke="#191970" d="M337.5014,-115.3991C359.1872,-103.2475 386.2795,-88.0665 403.2194,-78.5743"/>
<polygon fill="#191970" stroke="#191970" points="335.5967,-112.4543 328.5838,-120.396 339.0186,-118.5609 335.5967,-112.4543"/>
</g>
<!-- Node32 -->
<g id="node7" class="node">
<title>Node32</title>
<g id="a_node7"><a xlink:href="python_2classes_2athenaeum_8cpp.html" target="_top" xlink:title="src/python/classes\l/athenaeum.cpp">
<polygon fill="#ffffff" stroke="#000000" points="506.2856,-55.5 506.2856,-83.5 604.5415,-83.5 604.5415,-55.5 506.2856,-55.5"/>
<text text-anchor="start" x="514.2856" y="-71.5" font-family="Helvetica,sans-Serif" font-size="10.00" fill="#000000">src/python/classes</text>
<text text-anchor="middle" x="555.4136" y="-61.5" font-family="Helvetica,sans-Serif" font-size="10.00" fill="#000000">/athenaeum.cpp</text>
</a>
</g>
</g>
<!-- Node26&#45;&gt;Node32 -->
<g id="edge8" class="edge">
<title>Node26&#45;&gt;Node32</title>
<path fill="none" stroke="#191970" d="M367.6121,-117.9409C410.7299,-106.8192 466.6817,-92.3872 506.2629,-82.1777"/>
<polygon fill="#191970" stroke="#191970" points="366.5925,-114.5892 357.7836,-120.476 368.3408,-121.3674 366.5925,-114.5892"/>
</g>
<!-- Node27&#45;&gt;Node28 -->
<g id="edge2" class="edge">
<title>Node27&#45;&gt;Node28</title>
<path fill="none" stroke="#191970" d="M156.4182,-50.8469C135.1691,-40.1331 109.429,-27.1548 92.5235,-18.6311"/>
<polygon fill="#191970" stroke="#191970" points="155.0084,-54.0557 165.5134,-55.4327 158.1599,-47.8053 155.0084,-54.0557"/>
</g>
<!-- Node27&#45;&gt;Node29 -->
<g id="edge3" class="edge">
<title>Node27&#45;&gt;Node29</title>
<path fill="none" stroke="#191970" d="M197.4611,-45.2151C199.026,-35.8253 200.7203,-25.6598 201.8995,-18.5842"/>
<polygon fill="#191970" stroke="#191970" points="193.9751,-44.8415 195.7834,-55.2808 200.8799,-45.9923 193.9751,-44.8415"/>
</g>
<!-- Node27&#45;&gt;Node30 -->
<g id="edge4" class="edge">
<title>Node27&#45;&gt;Node30</title>
<path fill="none" stroke="#191970" d="M236.5015,-51.4212C262.2917,-40.6001 293.9719,-27.3077 314.6512,-18.6311"/>
<polygon fill="#191970" stroke="#191970" points="234.8077,-48.3361 226.9407,-55.4327 237.5161,-54.791 234.8077,-48.3361"/>
</g>
</g>
</svg>
