<?xml version="1.0" encoding="UTF-8" standalone="no"?>
<!DOCTYPE svg PUBLIC "-//W3C//DTD SVG 1.1//EN"
 "http://www.w3.org/Graphics/SVG/1.1/DTD/svg11.dtd">
<!-- Generated by graphviz version 2.40.1 (20161225.0304)
 -->
<!-- Title: include/indigox/classes/athenaeum.hpp Pages: 1 -->
<svg width="404pt" height="157pt"
 viewBox="0.00 0.00 404.00 157.00" xmlns="http://www.w3.org/2000/svg" xmlns:xlink="http://www.w3.org/1999/xlink">
<g id="graph0" class="graph" transform="scale(1 1) rotate(0) translate(4 153)">
<title>include/indigox/classes/athenaeum.hpp</title>
<polygon fill="#ffffff" stroke="transparent" points="-4,4 -4,-153 399.9995,-153 399.9995,4 -4,4"/>
<!-- Node26 -->
<g id="node1" class="node">
<title>Node26</title>
<polygon fill="#bfbfbf" stroke="#000000" points="125.2734,-120.5 125.2734,-148.5 243.5537,-148.5 243.5537,-120.5 125.2734,-120.5"/>
<text text-anchor="start" x="133.2734" y="-136.5" font-family="Helvetica,sans-Serif" font-size="10.00" fill="#000000">include/indigox/classes</text>
<text text-anchor="middle" x="184.4136" y="-126.5" font-family="Helvetica,sans-Serif" font-size="10.00" fill="#000000">/athenaeum.hpp</text>
</g>
<!-- Node27 -->
<g id="node2" class="node">
<title>Node27</title>
<g id="a_node2"><a xlink:href="cherrypicker_8hpp.html" target="_top" xlink:title="include/indigox/algorithm\l/cherrypicker.hpp">
<polygon fill="#ffffff" stroke="#000000" points="76.3818,-55.5 76.3818,-83.5 202.4453,-83.5 202.4453,-55.5 76.3818,-55.5"/>
<text text-anchor="start" x="84.3818" y="-71.5" font-family="Helvetica,sans-Serif" font-size="10.00" fill="#000000">include/indigox/algorithm</text>
<text text-anchor="middle" x="139.4136" y="-61.5" font-family="Helvetica,sans-Serif" font-size="10.00" fill="#000000">/cherrypicker.hpp</text>
</a>
</g>
</g>
<!-- Node26&#45;&gt;Node27 -->
<g id="edge1" class="edge">
<title>Node26&#45;&gt;Node27</title>
<path fill="none" stroke="#191970" d="M168.9457,-112.1575C162.3835,-102.6788 154.9341,-91.9186 149.1588,-83.5765"/>
<polygon fill="#191970" stroke="#191970" points="166.0794,-114.1663 174.6492,-120.396 171.8348,-110.1818 166.0794,-114.1663"/>
</g>
<!-- Node28 -->
<g id="node3" class="node">
<title>Node28</title>
<g id="a_node3"><a xlink:href="cherrypicker_8cpp.html" target="_top" xlink:title="src/algorithm/cherrypicker.cpp">
<polygon fill="#ffffff" stroke="#000000" points="0,-.5 0,-18.5 148.8271,-18.5 148.8271,-.5 0,-.5"/>
<text text-anchor="middle" x="74.4136" y="-6.5" font-family="Helvetica,sans-Serif" font-size="10.00" fill="#000000">src/algorithm/cherrypicker.cpp</text>
</a>
</g>
</g>
<!-- Node26&#45;&gt;Node28 -->
<g id="edge4" class="edge">
<title>Node26&#45;&gt;Node28</title>
<path fill="none" stroke="#191970" d="M115.6301,-119.8081C96.8374,-112.3028 78.5918,-100.9999 67.4136,-84 54.1379,-63.8104 63.8487,-33.6308 70.1519,-18.6358"/>
<polygon fill="#191970" stroke="#191970" points="114.5768,-123.1496 125.1706,-123.2961 116.9804,-116.5752 114.5768,-123.1496"/>
</g>
<!-- Node29 -->
<g id="node4" class="node">
<title>Node29</title>
<g id="a_node4"><a xlink:href="main_8cpp.html" target="_top" xlink:title="src/main.cpp">
<polygon fill="#ffffff" stroke="#000000" points="180.0713,-.5 180.0713,-18.5 252.7559,-18.5 252.7559,-.5 180.0713,-.5"/>
<text text-anchor="middle" x="216.4136" y="-6.5" font-family="Helvetica,sans-Serif" font-size="10.00" fill="#000000">src/main.cpp</text>
</a>
</g>
</g>
<!-- Node26&#45;&gt;Node29 -->
<g id="edge6" class="edge">
<title>Node26&#45;&gt;Node29</title>
<path fill="none" stroke="#191970" d="M199.3912,-111.4445C204.0687,-103.1211 208.7082,-93.4439 211.4136,-84 217.9109,-61.3194 217.697,-33.2331 217.0304,-18.8908"/>
<polygon fill="#191970" stroke="#191970" points="196.2982,-109.7981 194.1951,-120.1821 202.3147,-113.3761 196.2982,-109.7981"/>
</g>
<!-- Node30 -->
<g id="node5" class="node">
<title>Node30</title>
<g id="a_node5"><a xlink:href="athenaeum_8cpp.html" target="_top" xlink:title="src/classes/athenaeum.cpp">
<polygon fill="#ffffff" stroke="#000000" points="258.8276,-60.5 258.8276,-78.5 395.9995,-78.5 395.9995,-60.5 258.8276,-60.5"/>
<text text-anchor="middle" x="327.4136" y="-66.5" font-family="Helvetica,sans-Serif" font-size="10.00" fill="#000000">src/classes/athenaeum.cpp</text>
</a>
</g>
</g>
<!-- Node26&#45;&gt;Node30 -->
<g id="edge5" class="edge">
<title>Node26&#45;&gt;Node30</title>
<path fill="none" stroke="#191970" d="M224.6556,-116.2082C251.6718,-103.9281 286.1011,-88.2784 307.4501,-78.5743"/>
<polygon fill="#191970" stroke="#191970" points="223.0978,-113.0716 215.4424,-120.396 225.9944,-119.4442 223.0978,-113.0716"/>
</g>
<!-- Node27&#45;&gt;Node28 -->
<g id="edge2" class="edge">
<title>Node27&#45;&gt;Node28</title>
<path fill="none" stroke="#191970" d="M116.3519,-48.2123C105.3396,-38.0471 92.7443,-26.4206 84.2548,-18.5842"/>
<polygon fill="#191970" stroke="#191970" points="114.2874,-51.0698 124.0095,-55.2808 119.0354,-45.9262 114.2874,-51.0698"/>
</g>
<!-- Node27&#45;&gt;Node29 -->
<g id="edge3" class="edge">
<title>Node27&#45;&gt;Node29</title>
<path fill="none" stroke="#191970" d="M165.5978,-49.0967C178.9048,-38.7276 194.4058,-26.6489 204.7555,-18.5842"/>
<polygon fill="#191970" stroke="#191970" points="163.3982,-46.3735 157.6615,-55.2808 167.7008,-51.8951 163.3982,-46.3735"/>
</g>
</g>
</svg>
