<?xml version="1.0" encoding="UTF-8" standalone="no"?>
<!DOCTYPE svg PUBLIC "-//W3C//DTD SVG 1.1//EN"
 "http://www.w3.org/Graphics/SVG/1.1/DTD/svg11.dtd">
<!-- Generated by graphviz version 2.40.1 (20161225.0304)
 -->
<!-- Title: include/indigox/classes/athenaeum.hpp Pages: 1 -->
<!--zoomable 277 -->
<svg id="main" version="1.1" xmlns="http://www.w3.org/2000/svg" xmlns:xlink="http://www.w3.org/1999/xlink" xml:space="preserve" onload="init(evt)">
<style type="text/css"><![CDATA[
.edge:hover path { stroke: red; }
.edge:hover polygon { stroke: red; fill: red; }
]]></style>
<script type="text/javascript"><![CDATA[
var edges = document.getElementsByTagName('g');
if (edges && edges.length) {
  for (var i=0;i<edges.length;i++) {
    if (edges[i].id.substr(0,4)=='edge') {
      edges[i].setAttribute('class','edge');
    }
  }
}
]]></script>
        <defs>
                <circle id="rim" cx="0" cy="0" r="7"/>
                <circle id="rim2" cx="0" cy="0" r="3.5"/>
                <g id="zoomPlus">
                        <use xlink:href="#rim" fill="#404040">
                                <set attributeName="fill" to="#808080" begin="zoomplus.mouseover" end="zoomplus.mouseout"/>
                        </use>
                        <path d="M-4,0h8M0,-4v8" fill="none" stroke="white" stroke-width="1.5" pointer-events="none"/>
                </g>
                <g id="zoomMin">
                        <use xlink:href="#rim" fill="#404040">
                                <set attributeName="fill" to="#808080" begin="zoomminus.mouseover" end="zoomminus.mouseout"/>
                        </use>
                        <path d="M-4,0h8" fill="none" stroke="white" stroke-width="1.5" pointer-events="none"/>
                </g>
                <g id="dirArrow">
                        <path fill="none" stroke="white" stroke-width="1.5" d="M0,-3.0v7 M-2.5,-0.5L0,-3.0L2.5,-0.5"/>
                </g>
               <g id="resetDef">
                       <use xlink:href="#rim2" fill="#404040">
                               <set attributeName="fill" to="#808080" begin="reset.mouseover" end="reset.mouseout"/>
                       </use>
               </g>
        </defs>

<script type="text/javascript">
var viewWidth = 1902;
var viewHeight = 277;
var sectionId = 'dynsection-0';
</script>
<script xlink:href="svgpan.js"/>
<svg id="graph" class="graph">
<g id="viewport">
<title>include/indigox/classes/athenaeum.hpp</title>
<polygon fill="#ffffff" stroke="transparent" points="-4,4 -4,-273 1897.7065,-273 1897.7065,4 -4,4"/>
<!-- Node0 -->
<g id="node1" class="node">
<title>Node0</title>
<polygon fill="#bfbfbf" stroke="#000000" points="1187.5,-240.5 1187.5,-268.5 1305.7803,-268.5 1305.7803,-240.5 1187.5,-240.5"/>
<text text-anchor="start" x="1195.5" y="-256.5" font-family="Helvetica,sans-Serif" font-size="10.00" fill="#000000">include/indigox/classes</text>
<text text-anchor="middle" x="1246.6401" y="-246.5" font-family="Helvetica,sans-Serif" font-size="10.00" fill="#000000">/athenaeum.hpp</text>
</g>
<!-- Node1 -->
<g id="node2" class="node">
<title>Node1</title>
<g id="a_node2"><a xlink:href="fwd__declares_8hpp.html" target="_top" xlink:title="../utils/fwd_declares.hpp">
<polygon fill="#ffffff" stroke="#000000" points="0,-60.5 0,-78.5 123.2803,-78.5 123.2803,-60.5 0,-60.5"/>
<text text-anchor="middle" x="61.6401" y="-66.5" font-family="Helvetica,sans-Serif" font-size="10.00" fill="#000000">../utils/fwd_declares.hpp</text>
</a>
</g>
</g>
<!-- Node0&#45;&gt;Node1 -->
<g id="edge1" class="edge">
<title>Node0&#45;&gt;Node1</title>
<path fill="none" stroke="#191970" d="M1187.2928,-246.4733C1020.622,-223.7037 534.2312,-155.6942 132.6401,-84 126.5444,-82.9118 120.1681,-81.706 113.8446,-80.4681"/>
<polygon fill="#191970" stroke="#191970" points="114.4896,-77.0279 103.9987,-78.5087 113.1233,-83.8933 114.4896,-77.0279"/>
</g>
<!-- Node4 -->
<g id="node5" class="node">
<title>Node4</title>
<g id="a_node5"><a xlink:href="quad_8hpp.html" target="_top" xlink:title="../utils/quad.hpp">
<polygon fill="#ffffff" stroke="#000000" points="1087.3374,-180.5 1087.3374,-198.5 1173.9429,-198.5 1173.9429,-180.5 1087.3374,-180.5"/>
<text text-anchor="middle" x="1130.6401" y="-186.5" font-family="Helvetica,sans-Serif" font-size="10.00" fill="#000000">../utils/quad.hpp</text>
</a>
</g>
</g>
<!-- Node0&#45;&gt;Node4 -->
<g id="edge4" class="edge">
<title>Node0&#45;&gt;Node4</title>
<path fill="none" stroke="#191970" d="M1221.4699,-240.396C1202.0003,-229.4863 1175.1716,-214.453 1155.7238,-203.5555"/>
<polygon fill="#191970" stroke="#191970" points="1157.269,-200.4094 1146.8343,-198.5743 1153.8471,-206.516 1157.269,-200.4094"/>
</g>
<!-- Node21 -->
<g id="node22" class="node">
<title>Node21</title>
<g id="a_node22"><a xlink:href="triple_8hpp.html" target="_top" xlink:title="../utils/triple.hpp">
<polygon fill="#ffffff" stroke="#000000" points="983.623,-180.5 983.623,-198.5 1069.6572,-198.5 1069.6572,-180.5 983.623,-180.5"/>
<text text-anchor="middle" x="1026.6401" y="-186.5" font-family="Helvetica,sans-Serif" font-size="10.00" fill="#000000">../utils/triple.hpp</text>
</a>
</g>
</g>
<!-- Node0&#45;&gt;Node21 -->
<g id="edge23" class="edge">
<title>Node0&#45;&gt;Node21</title>
<path fill="none" stroke="#191970" d="M1199.1743,-240.476C1159.8021,-228.8433 1104.4245,-212.4817 1067.1209,-201.4602"/>
<polygon fill="#191970" stroke="#191970" points="1067.6889,-197.9785 1057.107,-198.5016 1065.7054,-204.6917 1067.6889,-197.9785"/>
</g>
<!-- Node22 -->
<g id="node23" class="node">
<title>Node22</title>
<polygon fill="#ffffff" stroke="#bfbfbf" points="1191.6699,-175.5 1191.6699,-203.5 1301.6104,-203.5 1301.6104,-175.5 1191.6699,-175.5"/>
<text text-anchor="start" x="1199.6699" y="-191.5" font-family="Helvetica,sans-Serif" font-size="10.00" fill="#000000">boost/dynamic_bitset</text>
<text text-anchor="middle" x="1246.6401" y="-181.5" font-family="Helvetica,sans-Serif" font-size="10.00" fill="#000000">_fwd.hpp</text>
</g>
<!-- Node0&#45;&gt;Node22 -->
<g id="edge27" class="edge">
<title>Node0&#45;&gt;Node22</title>
<path fill="none" stroke="#191970" d="M1246.6401,-240.396C1246.6401,-232.6448 1246.6401,-222.8122 1246.6401,-213.8601"/>
<polygon fill="#191970" stroke="#191970" points="1250.1402,-213.5765 1246.6401,-203.5765 1243.1402,-213.5765 1250.1402,-213.5765"/>
</g>
<!-- Node23 -->
<g id="node24" class="node">
<title>Node23</title>
<polygon fill="#ffffff" stroke="#bfbfbf" points="1320.0762,-180.5 1320.0762,-198.5 1377.2041,-198.5 1377.2041,-180.5 1320.0762,-180.5"/>
<text text-anchor="middle" x="1348.6401" y="-186.5" font-family="Helvetica,sans-Serif" font-size="10.00" fill="#000000">algorithm</text>
</g>
<!-- Node0&#45;&gt;Node23 -->
<g id="edge28" class="edge">
<title>Node0&#45;&gt;Node23</title>
<path fill="none" stroke="#191970" d="M1268.7726,-240.396C1285.5812,-229.6846 1308.6275,-214.9983 1325.6447,-204.154"/>
<polygon fill="#191970" stroke="#191970" points="1327.8482,-206.9001 1334.4005,-198.5743 1324.0863,-200.9968 1327.8482,-206.9001"/>
</g>
<!-- Node24 -->
<g id="node25" class="node">
<title>Node24</title>
<polygon fill="#ffffff" stroke="#bfbfbf" points="1394.9136,-180.5 1394.9136,-198.5 1430.3667,-198.5 1430.3667,-180.5 1394.9136,-180.5"/>
<text text-anchor="middle" x="1412.6401" y="-186.5" font-family="Helvetica,sans-Serif" font-size="10.00" fill="#000000">map</text>
</g>
<!-- Node0&#45;&gt;Node24 -->
<g id="edge29" class="edge">
<title>Node0&#45;&gt;Node24</title>
<path fill="none" stroke="#191970" d="M1291.1977,-240.4903C1319.0758,-231.2222 1355.4846,-218.1929 1386.6401,-204 1387.1987,-203.7456 1387.7613,-203.4835 1388.3265,-203.2152"/>
<polygon fill="#191970" stroke="#191970" points="1390.1704,-206.2024 1397.4557,-198.5098 1386.9634,-199.9802 1390.1704,-206.2024"/>
</g>
<!-- Node25 -->
<g id="node26" class="node">
<title>Node25</title>
<polygon fill="#ffffff" stroke="#bfbfbf" points="1448.0244,-180.5 1448.0244,-198.5 1491.2559,-198.5 1491.2559,-180.5 1448.0244,-180.5"/>
<text text-anchor="middle" x="1469.6401" y="-186.5" font-family="Helvetica,sans-Serif" font-size="10.00" fill="#000000">vector</text>
</g>
<!-- Node0&#45;&gt;Node25 -->
<g id="edge30" class="edge">
<title>Node0&#45;&gt;Node25</title>
<path fill="none" stroke="#191970" d="M1305.8278,-242.1551C1344.4948,-233.3273 1395.7672,-220.1678 1439.6401,-204 1440.8309,-203.5612 1442.0379,-203.0911 1443.2495,-202.5983"/>
<polygon fill="#191970" stroke="#191970" points="1444.7189,-205.7755 1452.4387,-198.5191 1441.8787,-199.3775 1444.7189,-205.7755"/>
</g>
<!-- Node2 -->
<g id="node3" class="node">
<title>Node2</title>
<polygon fill="#ffffff" stroke="#bfbfbf" points="6.1895,-.5 6.1895,-18.5 51.0908,-18.5 51.0908,-.5 6.1895,-.5"/>
<text text-anchor="middle" x="28.6401" y="-6.5" font-family="Helvetica,sans-Serif" font-size="10.00" fill="#000000">cstdint</text>
</g>
<!-- Node1&#45;&gt;Node2 -->
<g id="edge2" class="edge">
<title>Node1&#45;&gt;Node2</title>
<path fill="none" stroke="#191970" d="M56.6281,-60.3873C51.8793,-51.7531 44.6102,-38.5365 38.6702,-27.7366"/>
<polygon fill="#191970" stroke="#191970" points="41.5853,-25.7739 33.6993,-18.6985 35.4518,-29.1474 41.5853,-25.7739"/>
</g>
<!-- Node3 -->
<g id="node4" class="node">
<title>Node3</title>
<polygon fill="#ffffff" stroke="#bfbfbf" points="69.5835,-.5 69.5835,-18.5 121.6968,-18.5 121.6968,-.5 69.5835,-.5"/>
<text text-anchor="middle" x="95.6401" y="-6.5" font-family="Helvetica,sans-Serif" font-size="10.00" fill="#000000">memory</text>
</g>
<!-- Node1&#45;&gt;Node3 -->
<g id="edge3" class="edge">
<title>Node1&#45;&gt;Node3</title>
<path fill="none" stroke="#191970" d="M66.804,-60.3873C71.7466,-51.665 79.3393,-38.2663 85.493,-27.4067"/>
<polygon fill="#191970" stroke="#191970" points="88.5426,-29.1243 90.4277,-18.6985 82.4524,-25.6731 88.5426,-29.1243"/>
</g>
<!-- Node5 -->
<g id="node6" class="node">
<title>Node5</title>
<polygon fill="#ffffff" stroke="#bfbfbf" points="1831.5737,-60.5 1831.5737,-78.5 1893.7065,-78.5 1893.7065,-60.5 1831.5737,-60.5"/>
<text text-anchor="middle" x="1862.6401" y="-66.5" font-family="Helvetica,sans-Serif" font-size="10.00" fill="#000000">type_traits</text>
</g>
<!-- Node4&#45;&gt;Node5 -->
<g id="edge5" class="edge">
<title>Node4&#45;&gt;Node5</title>
<path fill="none" stroke="#191970" d="M1160.448,-180.4683C1167.6675,-178.481 1175.3935,-176.5187 1182.6401,-175 1463.8363,-116.067 1543.8799,-153.5494 1822.6401,-84 1825.2382,-83.3518 1827.9024,-82.5964 1830.5621,-81.7773"/>
<polygon fill="#191970" stroke="#191970" points="1831.6717,-85.0968 1840.0475,-78.6086 1829.4537,-78.4575 1831.6717,-85.0968"/>
</g>
<!-- Node6 -->
<g id="node7" class="node">
<title>Node6</title>
<polygon fill="#ffffff" stroke="#bfbfbf" points="1111.2485,-120.5 1111.2485,-138.5 1150.0317,-138.5 1150.0317,-120.5 1111.2485,-120.5"/>
<text text-anchor="middle" x="1130.6401" y="-126.5" font-family="Helvetica,sans-Serif" font-size="10.00" fill="#000000">utility</text>
</g>
<!-- Node4&#45;&gt;Node6 -->
<g id="edge6" class="edge">
<title>Node4&#45;&gt;Node6</title>
<path fill="none" stroke="#191970" d="M1130.6401,-180.3873C1130.6401,-172.0174 1130.6401,-159.3414 1130.6401,-148.735"/>
<polygon fill="#191970" stroke="#191970" points="1134.1402,-148.6984 1130.6401,-138.6985 1127.1402,-148.6985 1134.1402,-148.6984"/>
</g>
<!-- Node7 -->
<g id="node8" class="node">
<title>Node7</title>
<g id="a_node8"><a xlink:href="serialise_8hpp.html" target="_top" xlink:title="serialise.hpp">
<polygon fill="#ffffff" stroke="#000000" points="983.5688,-120.5 983.5688,-138.5 1055.7114,-138.5 1055.7114,-120.5 983.5688,-120.5"/>
<text text-anchor="middle" x="1019.6401" y="-126.5" font-family="Helvetica,sans-Serif" font-size="10.00" fill="#000000">serialise.hpp</text>
</a>
</g>
</g>
<!-- Node4&#45;&gt;Node7 -->
<g id="edge7" class="edge">
<title>Node4&#45;&gt;Node7</title>
<path fill="none" stroke="#191970" d="M1113.7816,-180.3873C1095.5843,-170.5509 1066.3843,-154.7671 1045.3269,-143.3847"/>
<polygon fill="#191970" stroke="#191970" points="1046.755,-140.1781 1036.2936,-138.5019 1043.4264,-146.3361 1046.755,-140.1781"/>
</g>
<!-- Node7&#45;&gt;Node1 -->
<g id="edge8" class="edge">
<title>Node7&#45;&gt;Node1</title>
<path fill="none" stroke="#191970" d="M983.4224,-128.3695C838.6822,-123.7388 301.4767,-105.4473 132.6401,-84 125.4326,-83.0844 117.8638,-81.844 110.4635,-80.472"/>
<polygon fill="#191970" stroke="#191970" points="111.0109,-77.0129 100.5264,-78.5375 109.6733,-83.884 111.0109,-77.0129"/>
</g>
<!-- Node7&#45;&gt;Node5 -->
<g id="edge22" class="edge">
<title>Node7&#45;&gt;Node5</title>
<path fill="none" stroke="#191970" d="M1055.8687,-121.9994C1060.4886,-121.225 1065.1651,-120.5295 1069.6401,-120 1402.3683,-80.6334 1494.1222,-149.8314 1822.6401,-84 1825.6572,-83.3954 1828.7514,-82.6037 1831.8179,-81.7017"/>
<polygon fill="#191970" stroke="#191970" points="1832.9927,-84.9997 1841.3898,-78.5391 1830.7966,-78.3531 1832.9927,-84.9997"/>
</g>
<!-- Node8 -->
<g id="node9" class="node">
<title>Node8</title>
<polygon fill="#ffffff" stroke="#bfbfbf" points="1575.3398,-60.5 1575.3398,-78.5 1671.9404,-78.5 1671.9404,-60.5 1575.3398,-60.5"/>
<text text-anchor="middle" x="1623.6401" y="-66.5" font-family="Helvetica,sans-Serif" font-size="10.00" fill="#000000">cereal/access.hpp</text>
</g>
<!-- Node7&#45;&gt;Node8 -->
<g id="edge9" class="edge">
<title>Node7&#45;&gt;Node8</title>
<path fill="none" stroke="#191970" d="M1055.8819,-122.1056C1060.4996,-121.3134 1065.1719,-120.5846 1069.6401,-120 1288.7963,-91.3241 1347.3939,-118.933 1565.6401,-84 1570.8238,-83.1703 1576.2232,-82.1024 1581.5507,-80.9229"/>
<polygon fill="#191970" stroke="#191970" points="1582.6994,-84.2483 1591.6316,-78.5503 1581.0957,-77.4345 1582.6994,-84.2483"/>
</g>
<!-- Node9 -->
<g id="node10" class="node">
<title>Node9</title>
<polygon fill="#ffffff" stroke="#bfbfbf" points="1689.7217,-60.5 1689.7217,-78.5 1813.5586,-78.5 1813.5586,-60.5 1689.7217,-60.5"/>
<text text-anchor="middle" x="1751.6401" y="-66.5" font-family="Helvetica,sans-Serif" font-size="10.00" fill="#000000">cereal/archives/json.hpp</text>
</g>
<!-- Node7&#45;&gt;Node9 -->
<g id="edge10" class="edge">
<title>Node7&#45;&gt;Node9</title>
<path fill="none" stroke="#191970" d="M1055.8744,-122.0471C1060.4934,-121.2647 1065.1681,-120.5542 1069.6401,-120 1339.6012,-86.5422 1410.9144,-119.3053 1680.6401,-84 1687.7583,-83.0683 1695.2309,-81.8315 1702.5461,-80.4719"/>
<polygon fill="#191970" stroke="#191970" points="1703.2285,-83.9049 1712.3758,-78.559 1701.8913,-77.0338 1703.2285,-83.9049"/>
</g>
<!-- Node10 -->
<g id="node11" class="node">
<title>Node10</title>
<polygon fill="#ffffff" stroke="#bfbfbf" points="141.5566,-55.5 141.5566,-83.5 263.7236,-83.5 263.7236,-55.5 141.5566,-55.5"/>
<text text-anchor="start" x="149.5566" y="-71.5" font-family="Helvetica,sans-Serif" font-size="10.00" fill="#000000">cereal/archives/portable</text>
<text text-anchor="middle" x="202.6401" y="-61.5" font-family="Helvetica,sans-Serif" font-size="10.00" fill="#000000">_binary.hpp</text>
</g>
<!-- Node7&#45;&gt;Node10 -->
<g id="edge11" class="edge">
<title>Node7&#45;&gt;Node10</title>
<path fill="none" stroke="#191970" d="M983.3148,-129.1297C876.1783,-127.6478 552.1042,-120.3684 274.2928,-84.0907"/>
<polygon fill="#191970" stroke="#191970" points="274.3874,-80.5728 264.015,-82.7324 273.4702,-87.5125 274.3874,-80.5728"/>
</g>
<!-- Node11 -->
<g id="node12" class="node">
<title>Node11</title>
<polygon fill="#ffffff" stroke="#bfbfbf" points="281.2832,-60.5 281.2832,-78.5 373.9971,-78.5 373.9971,-60.5 281.2832,-60.5"/>
<text text-anchor="middle" x="327.6401" y="-66.5" font-family="Helvetica,sans-Serif" font-size="10.00" fill="#000000">cereal/cereal.hpp</text>
</g>
<!-- Node7&#45;&gt;Node11 -->
<g id="edge12" class="edge">
<title>Node7&#45;&gt;Node11</title>
<path fill="none" stroke="#191970" d="M983.2788,-127.7969C866.1711,-122.1711 499.6709,-103.4318 382.6401,-84 377.7816,-83.1933 372.7285,-82.1505 367.7412,-80.9943"/>
<polygon fill="#191970" stroke="#191970" points="368.228,-77.5092 357.6797,-78.501 366.5442,-84.3037 368.228,-77.5092"/>
</g>
<!-- Node12 -->
<g id="node13" class="node">
<title>Node12</title>
<polygon fill="#ffffff" stroke="#bfbfbf" points="391.5386,-60.5 391.5386,-78.5 505.7417,-78.5 505.7417,-60.5 391.5386,-60.5"/>
<text text-anchor="middle" x="448.6401" y="-66.5" font-family="Helvetica,sans-Serif" font-size="10.00" fill="#000000">cereal/types/array.hpp</text>
</g>
<!-- Node7&#45;&gt;Node12 -->
<g id="edge13" class="edge">
<title>Node7&#45;&gt;Node12</title>
<path fill="none" stroke="#191970" d="M983.321,-127.8059C900.0444,-123.5777 689.0744,-110.9092 514.6401,-84 508.477,-83.0492 502.0277,-81.8681 495.6768,-80.5934"/>
<polygon fill="#191970" stroke="#191970" points="496.3381,-77.156 485.8331,-78.5327 494.9037,-84.0075 496.3381,-77.156"/>
</g>
<!-- Node13 -->
<g id="node14" class="node">
<title>Node13</title>
<polygon fill="#ffffff" stroke="#bfbfbf" points="523.6108,-60.5 523.6108,-78.5 639.6694,-78.5 639.6694,-60.5 523.6108,-60.5"/>
<text text-anchor="middle" x="581.6401" y="-66.5" font-family="Helvetica,sans-Serif" font-size="10.00" fill="#000000">cereal/types/bitset.hpp</text>
</g>
<!-- Node7&#45;&gt;Node13 -->
<g id="edge14" class="edge">
<title>Node7&#45;&gt;Node13</title>
<path fill="none" stroke="#191970" d="M983.4069,-126.163C916.8351,-119.7865 770.6882,-104.6466 648.6401,-84 642.7766,-83.0081 636.6493,-81.8509 630.5848,-80.6309"/>
<polygon fill="#191970" stroke="#191970" points="630.9982,-77.1421 620.4955,-78.5362 629.5752,-83.996 630.9982,-77.1421"/>
</g>
<!-- Node14 -->
<g id="node15" class="node">
<title>Node14</title>
<polygon fill="#ffffff" stroke="#bfbfbf" points="657.7783,-55.5 657.7783,-83.5 765.502,-83.5 765.502,-55.5 657.7783,-55.5"/>
<text text-anchor="start" x="665.7783" y="-71.5" font-family="Helvetica,sans-Serif" font-size="10.00" fill="#000000">cereal/types/boost</text>
<text text-anchor="middle" x="711.6401" y="-61.5" font-family="Helvetica,sans-Serif" font-size="10.00" fill="#000000">_dynamic_bitset.hpp</text>
</g>
<!-- Node7&#45;&gt;Node14 -->
<g id="edge15" class="edge">
<title>Node7&#45;&gt;Node14</title>
<path fill="none" stroke="#191970" d="M983.4303,-123.2725C937.5014,-115.2645 855.6225,-100.6262 775.7921,-84.1885"/>
<polygon fill="#191970" stroke="#191970" points="776.0654,-80.6709 765.5633,-82.0699 774.6456,-87.5254 776.0654,-80.6709"/>
</g>
<!-- Node15 -->
<g id="node16" class="node">
<title>Node15</title>
<polygon fill="#ffffff" stroke="#bfbfbf" points="783.7314,-55.5 783.7314,-83.5 877.5488,-83.5 877.5488,-55.5 783.7314,-55.5"/>
<text text-anchor="start" x="791.7314" y="-71.5" font-family="Helvetica,sans-Serif" font-size="10.00" fill="#000000">cereal/types/eastl</text>
<text text-anchor="middle" x="830.6401" y="-61.5" font-family="Helvetica,sans-Serif" font-size="10.00" fill="#000000">_bitset.hpp</text>
</g>
<!-- Node7&#45;&gt;Node15 -->
<g id="edge16" class="edge">
<title>Node7&#45;&gt;Node15</title>
<path fill="none" stroke="#191970" d="M990.9351,-120.3873C962.8327,-111.4659 919.3191,-97.652 884.7162,-86.667"/>
<polygon fill="#191970" stroke="#191970" points="885.3431,-83.1939 874.7528,-83.504 883.225,-89.8658 885.3431,-83.1939"/>
</g>
<!-- Node16 -->
<g id="node17" class="node">
<title>Node16</title>
<polygon fill="#ffffff" stroke="#bfbfbf" points="895.3276,-60.5 895.3276,-78.5 1011.9526,-78.5 1011.9526,-60.5 895.3276,-60.5"/>
<text text-anchor="middle" x="953.6401" y="-66.5" font-family="Helvetica,sans-Serif" font-size="10.00" fill="#000000">cereal/types/eigen.hpp</text>
</g>
<!-- Node7&#45;&gt;Node16 -->
<g id="edge17" class="edge">
<title>Node7&#45;&gt;Node16</title>
<path fill="none" stroke="#191970" d="M1009.6162,-120.3873C999.4402,-111.1364 983.4776,-96.625 971.1981,-85.4618"/>
<polygon fill="#191970" stroke="#191970" points="973.5122,-82.8354 963.7585,-78.6985 968.8035,-88.015 973.5122,-82.8354"/>
</g>
<!-- Node17 -->
<g id="node18" class="node">
<title>Node17</title>
<polygon fill="#ffffff" stroke="#bfbfbf" points="1029.835,-60.5 1029.835,-78.5 1141.4453,-78.5 1141.4453,-60.5 1029.835,-60.5"/>
<text text-anchor="middle" x="1085.6401" y="-66.5" font-family="Helvetica,sans-Serif" font-size="10.00" fill="#000000">cereal/types/map.hpp</text>
</g>
<!-- Node7&#45;&gt;Node17 -->
<g id="edge18" class="edge">
<title>Node7&#45;&gt;Node17</title>
<path fill="none" stroke="#191970" d="M1029.6641,-120.3873C1039.8401,-111.1364 1055.8026,-96.625 1068.0821,-85.4618"/>
<polygon fill="#191970" stroke="#191970" points="1070.4768,-88.015 1075.5218,-78.6985 1065.768,-82.8354 1070.4768,-88.015"/>
</g>
<!-- Node18 -->
<g id="node19" class="node">
<title>Node18</title>
<polygon fill="#ffffff" stroke="#bfbfbf" points="1159.8735,-60.5 1159.8735,-78.5 1287.4067,-78.5 1287.4067,-60.5 1159.8735,-60.5"/>
<text text-anchor="middle" x="1223.6401" y="-66.5" font-family="Helvetica,sans-Serif" font-size="10.00" fill="#000000">cereal/types/memory.hpp</text>
</g>
<!-- Node7&#45;&gt;Node18 -->
<g id="edge19" class="edge">
<title>Node7&#45;&gt;Node18</title>
<path fill="none" stroke="#191970" d="M1050.6233,-120.3873C1086.0255,-109.9749 1144.0864,-92.8982 1183.0697,-81.4325"/>
<polygon fill="#191970" stroke="#191970" points="1184.4277,-84.6814 1193.0338,-78.5019 1182.4525,-77.9658 1184.4277,-84.6814"/>
</g>
<!-- Node19 -->
<g id="node20" class="node">
<title>Node19</title>
<polygon fill="#ffffff" stroke="#bfbfbf" points="1305.5386,-60.5 1305.5386,-78.5 1419.7417,-78.5 1419.7417,-60.5 1305.5386,-60.5"/>
<text text-anchor="middle" x="1362.6401" y="-66.5" font-family="Helvetica,sans-Serif" font-size="10.00" fill="#000000">cereal/types/utility.hpp</text>
</g>
<!-- Node7&#45;&gt;Node19 -->
<g id="edge20" class="edge">
<title>Node7&#45;&gt;Node19</title>
<path fill="none" stroke="#191970" d="M1055.9373,-122.4691C1060.5458,-121.616 1065.2007,-120.7736 1069.6401,-120 1170.2735,-102.4643 1196.2669,-102.9679 1296.6401,-84 1302.0437,-82.9789 1307.6812,-81.8455 1313.2859,-80.6753"/>
<polygon fill="#191970" stroke="#191970" points="1314.2302,-84.0528 1323.2811,-78.5454 1312.7712,-77.2065 1314.2302,-84.0528"/>
</g>
<!-- Node20 -->
<g id="node21" class="node">
<title>Node20</title>
<polygon fill="#ffffff" stroke="#bfbfbf" points="1438.2192,-60.5 1438.2192,-78.5 1557.061,-78.5 1557.061,-60.5 1438.2192,-60.5"/>
<text text-anchor="middle" x="1497.6401" y="-66.5" font-family="Helvetica,sans-Serif" font-size="10.00" fill="#000000">cereal/types/vector.hpp</text>
</g>
<!-- Node7&#45;&gt;Node20 -->
<g id="edge21" class="edge">
<title>Node7&#45;&gt;Node20</title>
<path fill="none" stroke="#191970" d="M1055.8982,-122.2236C1060.5132,-121.4117 1065.1804,-120.646 1069.6401,-120 1228.3396,-97.0118 1270.1707,-108.524 1428.6401,-84 1434.991,-83.0172 1441.6389,-81.8276 1448.195,-80.5575"/>
<polygon fill="#191970" stroke="#191970" points="1449.2516,-83.9152 1458.3659,-78.5134 1447.8723,-77.0524 1449.2516,-83.9152"/>
</g>
<!-- Node21&#45;&gt;Node5 -->
<g id="edge24" class="edge">
<title>Node21&#45;&gt;Node5</title>
<path fill="none" stroke="#191970" d="M1033.3122,-180.1343C1045.1731,-164.3593 1071.6194,-132.9459 1102.6401,-120 1250.4821,-58.3011 1665.5975,-115.6482 1822.6401,-84 1825.6565,-83.3921 1828.7503,-82.5982 1831.8165,-81.6947"/>
<polygon fill="#191970" stroke="#191970" points="1832.9923,-84.9924 1841.388,-78.5301 1830.7948,-78.3463 1832.9923,-84.9924"/>
</g>
<!-- Node21&#45;&gt;Node6 -->
<g id="edge25" class="edge">
<title>Node21&#45;&gt;Node6</title>
<path fill="none" stroke="#191970" d="M1042.4355,-180.3873C1059.4084,-170.5952 1086.5976,-154.9092 1106.3062,-143.5388"/>
<polygon fill="#191970" stroke="#191970" points="1108.1241,-146.5308 1115.0369,-138.5019 1104.626,-140.4675 1108.1241,-146.5308"/>
</g>
<!-- Node21&#45;&gt;Node7 -->
<g id="edge26" class="edge">
<title>Node21&#45;&gt;Node7</title>
<path fill="none" stroke="#191970" d="M1025.577,-180.3873C1024.6005,-172.0174 1023.1216,-159.3414 1021.8842,-148.735"/>
<polygon fill="#191970" stroke="#191970" points="1025.3486,-148.2255 1020.7133,-138.6985 1018.3958,-149.0367 1025.3486,-148.2255"/>
</g>
</g>
</svg>
        <g id="navigator" transform="translate(0 0)" fill="#404254">
                <rect fill="#f2f5e9" fill-opacity="0.5" stroke="#606060" stroke-width=".5" x="0" y="0" width="60" height="60"/>
                <use id="zoomplus" xlink:href="#zoomPlus" x="17" y="9" onmousedown="handleZoom(evt,'in')"/>
                <use id="zoomminus" xlink:href="#zoomMin" x="42" y="9" onmousedown="handleZoom(evt,'out')"/>
                <use id="reset" xlink:href="#resetDef" x="30" y="36" onmousedown="handleReset()"/>
                <g id="arrowUp" xlink:href="#dirArrow" transform="translate(30 24)" onmousedown="handlePan(0,-1)">
                  <use xlink:href="#rim" fill="#404040">
                        <set attributeName="fill" to="#808080" begin="arrowUp.mouseover" end="arrowUp.mouseout"/>
                  </use>
                  <path fill="none" stroke="white" stroke-width="1.5" d="M0,-3.0v7 M-2.5,-0.5L0,-3.0L2.5,-0.5"/>
                </g>
                <g id="arrowRight" xlink:href="#dirArrow" transform="rotate(90) translate(36 -43)" onmousedown="handlePan(1,0)">
                  <use xlink:href="#rim" fill="#404040">
                        <set attributeName="fill" to="#808080" begin="arrowRight.mouseover" end="arrowRight.mouseout"/>
                  </use>
                  <path fill="none" stroke="white" stroke-width="1.5" d="M0,-3.0v7 M-2.5,-0.5L0,-3.0L2.5,-0.5"/>
                </g>
                <g id="arrowDown" xlink:href="#dirArrow" transform="rotate(180) translate(-30 -48)" onmousedown="handlePan(0,1)">
                  <use xlink:href="#rim" fill="#404040">
                        <set attributeName="fill" to="#808080" begin="arrowDown.mouseover" end="arrowDown.mouseout"/>
                  </use>
                  <path fill="none" stroke="white" stroke-width="1.5" d="M0,-3.0v7 M-2.5,-0.5L0,-3.0L2.5,-0.5"/>
                </g>
                <g id="arrowLeft" xlink:href="#dirArrow" transform="rotate(270) translate(-36 17)" onmousedown="handlePan(-1,0)">
                  <use xlink:href="#rim" fill="#404040">
                        <set attributeName="fill" to="#808080" begin="arrowLeft.mouseover" end="arrowLeft.mouseout"/>
                  </use>
                  <path fill="none" stroke="white" stroke-width="1.5" d="M0,-3.0v7 M-2.5,-0.5L0,-3.0L2.5,-0.5"/>
                </g>
        </g>
        <svg viewBox="0 0 15 15" width="100%" height="30px" preserveAspectRatio="xMaxYMin meet">
         <g id="arrow_out" transform="scale(0.3 0.3)">
          <a xlink:href="athenaeum_8hpp__incl_org.svg" target="_base">
           <rect id="button" ry="5" rx="5" y="6" x="6" height="38" width="38"
                fill="#f2f5e9" fill-opacity="0.5" stroke="#606060" stroke-width="1.0"/>
           <path id="arrow"
             d="M 11.500037,31.436501 C 11.940474,20.09759 22.043105,11.32322 32.158766,21.979434 L 37.068811,17.246167 C 37.068811,17.246167 37.088388,32 37.088388,32 L 22.160133,31.978069 C 22.160133,31.978069 26.997745,27.140456 26.997745,27.140456 C 18.528582,18.264221 13.291696,25.230495 11.500037,31.436501 z"
             style="fill:#404040;"/>
          </a>
         </g>
        </svg>
</svg>
