<?xml version="1.0" encoding="UTF-8" standalone="no"?>
<!DOCTYPE svg PUBLIC "-//W3C//DTD SVG 1.1//EN"
 "http://www.w3.org/Graphics/SVG/1.1/DTD/svg11.dtd">
<!-- Generated by graphviz version 2.40.1 (20161225.0304)
 -->
<!-- Title: include/indigox/classes/atom.hpp Pages: 1 -->
<svg width="2463pt" height="157pt"
 viewBox="0.00 0.00 2463.35 157.00" xmlns="http://www.w3.org/2000/svg" xmlns:xlink="http://www.w3.org/1999/xlink">
<g id="graph0" class="graph" transform="scale(1 1) rotate(0) translate(4 153)">
<title>include/indigox/classes/atom.hpp</title>
<polygon fill="#ffffff" stroke="transparent" points="-4,4 -4,-153 2459.3545,-153 2459.3545,4 -4,4"/>
<!-- Node6 -->
<g id="node1" class="node">
<title>Node6</title>
<polygon fill="#bfbfbf" stroke="#000000" points="928.8721,-120.5 928.8721,-148.5 1047.1523,-148.5 1047.1523,-120.5 928.8721,-120.5"/>
<text text-anchor="start" x="936.8721" y="-136.5" font-family="Helvetica,sans-Serif" font-size="10.00" fill="#000000">include/indigox/classes</text>
<text text-anchor="middle" x="988.0122" y="-126.5" font-family="Helvetica,sans-Serif" font-size="10.00" fill="#000000">/atom.hpp</text>
</g>
<!-- Node7 -->
<g id="node2" class="node">
<title>Node7</title>
<g id="a_node2"><a xlink:href="iters_8hpp.html" target="_top" xlink:title="include/indigox/classes\l/iters.hpp">
<polygon fill="#ffffff" stroke="#000000" points="58.8721,-55.5 58.8721,-83.5 177.1523,-83.5 177.1523,-55.5 58.8721,-55.5"/>
<text text-anchor="start" x="66.8721" y="-71.5" font-family="Helvetica,sans-Serif" font-size="10.00" fill="#000000">include/indigox/classes</text>
<text text-anchor="middle" x="118.0122" y="-61.5" font-family="Helvetica,sans-Serif" font-size="10.00" fill="#000000">/iters.hpp</text>
</a>
</g>
</g>
<!-- Node6&#45;&gt;Node7 -->
<g id="edge1" class="edge">
<title>Node6&#45;&gt;Node7</title>
<path fill="none" stroke="#191970" d="M918.0943,-132.0611C781.7547,-126.8398 470.9578,-112.6535 211.0122,-84 200.1297,-82.8004 188.5733,-81.2356 177.4412,-79.5788"/>
<polygon fill="#191970" stroke="#191970" points="918.2656,-135.57 928.3909,-132.451 918.5306,-128.575 918.2656,-135.57"/>
</g>
<!-- Node9 -->
<g id="node4" class="node">
<title>Node9</title>
<g id="a_node4"><a xlink:href="molecule__impl_8hpp.html" target="_top" xlink:title="include/indigox/classes\l/molecule_impl.hpp">
<polygon fill="#ffffff" stroke="#000000" points="509.8721,-55.5 509.8721,-83.5 628.1523,-83.5 628.1523,-55.5 509.8721,-55.5"/>
<text text-anchor="start" x="517.8721" y="-71.5" font-family="Helvetica,sans-Serif" font-size="10.00" fill="#000000">include/indigox/classes</text>
<text text-anchor="middle" x="569.0122" y="-61.5" font-family="Helvetica,sans-Serif" font-size="10.00" fill="#000000">/molecule_impl.hpp</text>
</a>
</g>
</g>
<!-- Node6&#45;&gt;Node9 -->
<g id="edge3" class="edge">
<title>Node6&#45;&gt;Node9</title>
<path fill="none" stroke="#191970" d="M918.7693,-125.4544C848.8017,-116.0651 737.6654,-100.4692 642.0122,-84 637.5554,-83.2326 632.9527,-82.4041 628.3273,-81.5454"/>
<polygon fill="#191970" stroke="#191970" points="918.4112,-128.9376 928.7869,-126.794 919.3391,-121.9993 918.4112,-128.9376"/>
</g>
<!-- Node10 -->
<g id="node5" class="node">
<title>Node10</title>
<g id="a_node5"><a xlink:href="angle_8cpp.html" target="_top" xlink:title="src/classes/angle.cpp">
<polygon fill="#ffffff" stroke="#000000" points="124.2119,-.5 124.2119,-18.5 235.8125,-18.5 235.8125,-.5 124.2119,-.5"/>
<text text-anchor="middle" x="180.0122" y="-6.5" font-family="Helvetica,sans-Serif" font-size="10.00" fill="#000000">src/classes/angle.cpp</text>
</a>
</g>
</g>
<!-- Node6&#45;&gt;Node10 -->
<g id="edge17" class="edge">
<title>Node6&#45;&gt;Node10</title>
<path fill="none" stroke="#191970" d="M918.2212,-130.9324C782.2796,-123.605 486.595,-105.7099 387.0122,-84 315.9221,-68.5018 236.0088,-34.8152 199.7695,-18.5918"/>
<polygon fill="#191970" stroke="#191970" points="918.3415,-134.4437 928.5143,-131.4834 918.7157,-127.4537 918.3415,-134.4437"/>
</g>
<!-- Node11 -->
<g id="node6" class="node">
<title>Node11</title>
<g id="a_node6"><a xlink:href="atom_8cpp.html" target="_top" xlink:title="src/classes/atom.cpp">
<polygon fill="#ffffff" stroke="#000000" points="253.3301,-.5 253.3301,-18.5 362.6943,-18.5 362.6943,-.5 253.3301,-.5"/>
<text text-anchor="middle" x="308.0122" y="-6.5" font-family="Helvetica,sans-Serif" font-size="10.00" fill="#000000">src/classes/atom.cpp</text>
</a>
</g>
</g>
<!-- Node6&#45;&gt;Node11 -->
<g id="edge19" class="edge">
<title>Node6&#45;&gt;Node11</title>
<path fill="none" stroke="#191970" d="M918.7159,-131.0043C795.5715,-124.2749 543.6063,-108.0285 459.0122,-84 405.3031,-68.7442 347.683,-34.7821 321.8853,-18.5192"/>
<polygon fill="#191970" stroke="#191970" points="918.6151,-134.5039 928.7896,-131.5493 918.9933,-127.5141 918.6151,-134.5039"/>
</g>
<!-- Node12 -->
<g id="node7" class="node">
<title>Node12</title>
<g id="a_node7"><a xlink:href="bond_8cpp.html" target="_top" xlink:title="src/classes/bond.cpp">
<polygon fill="#ffffff" stroke="#000000" points="380.3228,-.5 380.3228,-18.5 489.7017,-18.5 489.7017,-.5 380.3228,-.5"/>
<text text-anchor="middle" x="435.0122" y="-6.5" font-family="Helvetica,sans-Serif" font-size="10.00" fill="#000000">src/classes/bond.cpp</text>
</a>
</g>
</g>
<!-- Node6&#45;&gt;Node12 -->
<g id="edge20" class="edge">
<title>Node6&#45;&gt;Node12</title>
<path fill="none" stroke="#191970" d="M918.3826,-130.4751C790.6043,-122.6418 528.3818,-104.3237 492.0122,-84 464.8589,-68.8265 446.4941,-34.8238 438.9187,-18.5351"/>
<polygon fill="#191970" stroke="#191970" points="918.2667,-133.9745 928.4608,-131.0883 918.6919,-126.9874 918.2667,-133.9745"/>
</g>
<!-- Node13 -->
<g id="node8" class="node">
<title>Node13</title>
<g id="a_node8"><a xlink:href="dihedral_8cpp.html" target="_top" xlink:title="src/classes/dihedral.cpp">
<polygon fill="#ffffff" stroke="#000000" points="507.6553,-.5 507.6553,-18.5 630.3691,-18.5 630.3691,-.5 507.6553,-.5"/>
<text text-anchor="middle" x="569.0122" y="-6.5" font-family="Helvetica,sans-Serif" font-size="10.00" fill="#000000">src/classes/dihedral.cpp</text>
</a>
</g>
</g>
<!-- Node6&#45;&gt;Node13 -->
<g id="edge21" class="edge">
<title>Node6&#45;&gt;Node13</title>
<path fill="none" stroke="#191970" d="M918.5987,-132.3482C790.7275,-127.6646 528.4454,-114.425 501.0122,-84 492.3812,-74.4277 494.9401,-66.369 501.0122,-55 510.2471,-37.7093 529.2856,-25.8384 544.8747,-18.5685"/>
<polygon fill="#191970" stroke="#191970" points="918.5652,-135.8492 928.6843,-132.7101 918.8163,-128.8537 918.5652,-135.8492"/>
</g>
<!-- Node14 -->
<g id="node9" class="node">
<title>Node14</title>
<g id="a_node9"><a xlink:href="molecule_8cpp.html" target="_top" xlink:title="src/classes/molecule.cpp">
<polygon fill="#ffffff" stroke="#000000" points="648.436,-.5 648.436,-18.5 775.5884,-18.5 775.5884,-.5 648.436,-.5"/>
<text text-anchor="middle" x="712.0122" y="-6.5" font-family="Helvetica,sans-Serif" font-size="10.00" fill="#000000">src/classes/molecule.cpp</text>
</a>
</g>
</g>
<!-- Node6&#45;&gt;Node14 -->
<g id="edge23" class="edge">
<title>Node6&#45;&gt;Node14</title>
<path fill="none" stroke="#191970" d="M918.7062,-129.4256C851.3777,-123.0552 755.5373,-109.6951 729.0122,-84 711.0982,-66.6465 710.3272,-34.6026 711.1815,-18.8037"/>
<polygon fill="#191970" stroke="#191970" points="918.5592,-132.9267 928.8364,-130.3521 919.1968,-125.9558 918.5592,-132.9267"/>
</g>
<!-- Node15 -->
<g id="node10" class="node">
<title>Node15</title>
<g id="a_node10"><a xlink:href="residue_8cpp.html" target="_top" xlink:title="src/classes/residue.cpp">
<polygon fill="#ffffff" stroke="#000000" points="794.0469,-.5 794.0469,-18.5 913.9775,-18.5 913.9775,-.5 794.0469,-.5"/>
<text text-anchor="middle" x="854.0122" y="-6.5" font-family="Helvetica,sans-Serif" font-size="10.00" fill="#000000">src/classes/residue.cpp</text>
</a>
</g>
</g>
<!-- Node6&#45;&gt;Node15 -->
<g id="edge25" class="edge">
<title>Node6&#45;&gt;Node15</title>
<path fill="none" stroke="#191970" d="M918.5647,-129.9737C853.2305,-124.0961 762.2095,-111.1728 740.0122,-84 714.5843,-52.8724 773.1994,-30.2332 815.4511,-18.5354"/>
<polygon fill="#191970" stroke="#191970" points="918.5516,-133.4855 928.8154,-130.8576 919.1531,-126.5114 918.5516,-133.4855"/>
</g>
<!-- Node16 -->
<g id="node11" class="node">
<title>Node16</title>
<g id="a_node11"><a xlink:href="molecular_8cpp.html" target="_top" xlink:title="src/graph/molecular.cpp">
<polygon fill="#ffffff" stroke="#000000" points="931.9287,-.5 931.9287,-18.5 1054.0957,-18.5 1054.0957,-.5 931.9287,-.5"/>
<text text-anchor="middle" x="993.0122" y="-6.5" font-family="Helvetica,sans-Serif" font-size="10.00" fill="#000000">src/graph/molecular.cpp</text>
</a>
</g>
</g>
<!-- Node6&#45;&gt;Node16 -->
<g id="edge28" class="edge">
<title>Node6&#45;&gt;Node16</title>
<path fill="none" stroke="#191970" d="M918.4272,-129.2024C856.2306,-122.8496 771.7901,-109.6716 751.0122,-84 742.9035,-73.9814 742.7834,-64.9202 751.0122,-55 756.9144,-47.8846 865.3561,-29.6072 935.0533,-18.5033"/>
<polygon fill="#191970" stroke="#191970" points="918.2987,-132.7065 928.593,-130.2009 918.9831,-125.74 918.2987,-132.7065"/>
</g>
<!-- Node17 -->
<g id="node12" class="node">
<title>Node17</title>
<g id="a_node12"><a xlink:href="indigox_8hpp.html" target="_top" xlink:title="include/indigox/indigox.hpp">
<polygon fill="#ffffff" stroke="#000000" points="759.9683,-60.5 759.9683,-78.5 896.0562,-78.5 896.0562,-60.5 759.9683,-60.5"/>
<text text-anchor="middle" x="828.0122" y="-66.5" font-family="Helvetica,sans-Serif" font-size="10.00" fill="#000000">include/indigox/indigox.hpp</text>
</a>
</g>
</g>
<!-- Node6&#45;&gt;Node17 -->
<g id="edge11" class="edge">
<title>Node6&#45;&gt;Node17</title>
<path fill="none" stroke="#191970" d="M943.7762,-116.5291C913.4323,-104.2019 874.4445,-88.3631 850.349,-78.5743"/>
<polygon fill="#191970" stroke="#191970" points="942.7126,-119.8748 953.2946,-120.396 945.3473,-113.3895 942.7126,-119.8748"/>
</g>
<!-- Node18 -->
<g id="node13" class="node">
<title>Node18</title>
<g id="a_node13"><a xlink:href="cherrypicker_8cpp.html" target="_top" xlink:title="src/algorithm/cherrypicker.cpp">
<polygon fill="#ffffff" stroke="#000000" points="913.5986,-60.5 913.5986,-78.5 1062.4258,-78.5 1062.4258,-60.5 913.5986,-60.5"/>
<text text-anchor="middle" x="988.0122" y="-66.5" font-family="Helvetica,sans-Serif" font-size="10.00" fill="#000000">src/algorithm/cherrypicker.cpp</text>
</a>
</g>
</g>
<!-- Node6&#45;&gt;Node18 -->
<g id="edge12" class="edge">
<title>Node6&#45;&gt;Node18</title>
<path fill="none" stroke="#191970" d="M988.0122,-110.3747C988.0122,-99.2832 988.0122,-86.7952 988.0122,-78.5743"/>
<polygon fill="#191970" stroke="#191970" points="984.5123,-110.3959 988.0122,-120.396 991.5123,-110.396 984.5123,-110.3959"/>
</g>
<!-- Node19 -->
<g id="node14" class="node">
<title>Node19</title>
<g id="a_node14"><a xlink:href="astar__optimisation_8cpp.html" target="_top" xlink:title="src/algorithm/electron\l_assignment/astar_optimisation.cpp">
<polygon fill="#ffffff" stroke="#000000" points="1080.2466,-55.5 1080.2466,-83.5 1255.7778,-83.5 1255.7778,-55.5 1080.2466,-55.5"/>
<text text-anchor="start" x="1088.2466" y="-71.5" font-family="Helvetica,sans-Serif" font-size="10.00" fill="#000000">src/algorithm/electron</text>
<text text-anchor="middle" x="1168.0122" y="-61.5" font-family="Helvetica,sans-Serif" font-size="10.00" fill="#000000">_assignment/astar_optimisation.cpp</text>
</a>
</g>
</g>
<!-- Node6&#45;&gt;Node19 -->
<g id="edge13" class="edge">
<title>Node6&#45;&gt;Node19</title>
<path fill="none" stroke="#191970" d="M1036.5977,-116.9553C1065.5931,-106.4847 1101.9227,-93.3656 1129.0311,-83.5765"/>
<polygon fill="#191970" stroke="#191970" points="1035.2863,-113.7075 1027.0695,-120.396 1037.6638,-120.2914 1035.2863,-113.7075"/>
</g>
<!-- Node20 -->
<g id="node15" class="node">
<title>Node20</title>
<g id="a_node15"><a xlink:href="electron__optimisation_8cpp.html" target="_top" xlink:title="src/algorithm/electron\l_optimisation.cpp">
<polygon fill="#ffffff" stroke="#000000" points="1274.2168,-55.5 1274.2168,-83.5 1385.8076,-83.5 1385.8076,-55.5 1274.2168,-55.5"/>
<text text-anchor="start" x="1282.2168" y="-71.5" font-family="Helvetica,sans-Serif" font-size="10.00" fill="#000000">src/algorithm/electron</text>
<text text-anchor="middle" x="1330.0122" y="-61.5" font-family="Helvetica,sans-Serif" font-size="10.00" fill="#000000">_optimisation.cpp</text>
</a>
</g>
</g>
<!-- Node6&#45;&gt;Node20 -->
<g id="edge14" class="edge">
<title>Node6&#45;&gt;Node20</title>
<path fill="none" stroke="#191970" d="M1057.4894,-122.6104C1113.6007,-112.8212 1194.5399,-98.2786 1265.0122,-84 1267.9585,-83.403 1270.9768,-82.7778 1274.022,-82.1361"/>
<polygon fill="#191970" stroke="#191970" points="1056.5612,-119.2192 1047.3092,-124.3818 1057.7612,-126.1156 1056.5612,-119.2192"/>
</g>
<!-- Node21 -->
<g id="node16" class="node">
<title>Node21</title>
<g id="a_node16"><a xlink:href="connectivity_8cpp.html" target="_top" xlink:title="src/algorithm/graph\l/connectivity.cpp">
<polygon fill="#ffffff" stroke="#000000" points="1404.2168,-55.5 1404.2168,-83.5 1505.8076,-83.5 1505.8076,-55.5 1404.2168,-55.5"/>
<text text-anchor="start" x="1412.2168" y="-71.5" font-family="Helvetica,sans-Serif" font-size="10.00" fill="#000000">src/algorithm/graph</text>
<text text-anchor="middle" x="1455.0122" y="-61.5" font-family="Helvetica,sans-Serif" font-size="10.00" fill="#000000">/connectivity.cpp</text>
</a>
</g>
</g>
<!-- Node6&#45;&gt;Node21 -->
<g id="edge15" class="edge">
<title>Node6&#45;&gt;Node21</title>
<path fill="none" stroke="#191970" d="M1057.4201,-128.3127C1138.7247,-120.5056 1277.2888,-105.4566 1395.0122,-84 1397.9642,-83.462 1400.9882,-82.8682 1404.0332,-82.2372"/>
<polygon fill="#191970" stroke="#191970" points="1056.9319,-124.8432 1047.3083,-129.2746 1057.5948,-131.8118 1056.9319,-124.8432"/>
</g>
<!-- Node22 -->
<g id="node17" class="node">
<title>Node22</title>
<g id="a_node17"><a xlink:href="isomorphism_8cpp.html" target="_top" xlink:title="src/algorithm/graph\l/isomorphism.cpp">
<polygon fill="#ffffff" stroke="#000000" points="1524.2168,-55.5 1524.2168,-83.5 1625.8076,-83.5 1625.8076,-55.5 1524.2168,-55.5"/>
<text text-anchor="start" x="1532.2168" y="-71.5" font-family="Helvetica,sans-Serif" font-size="10.00" fill="#000000">src/algorithm/graph</text>
<text text-anchor="middle" x="1575.0122" y="-61.5" font-family="Helvetica,sans-Serif" font-size="10.00" fill="#000000">/isomorphism.cpp</text>
</a>
</g>
</g>
<!-- Node6&#45;&gt;Node22 -->
<g id="edge16" class="edge">
<title>Node6&#45;&gt;Node22</title>
<path fill="none" stroke="#191970" d="M1057.3395,-130.992C1158.4969,-125.1654 1352.2319,-111.3272 1515.0122,-84 1517.9714,-83.5032 1521.0011,-82.9416 1524.0504,-82.3354"/>
<polygon fill="#191970" stroke="#191970" points="1057.0355,-127.5035 1047.2498,-131.5642 1057.4319,-134.4923 1057.0355,-127.5035"/>
</g>
<!-- Node23 -->
<g id="node18" class="node">
<title>Node23</title>
<g id="a_node18"><a xlink:href="athenaeum_8cpp.html" target="_top" xlink:title="src/classes/athenaeum.cpp">
<polygon fill="#ffffff" stroke="#000000" points="1643.4263,-60.5 1643.4263,-78.5 1780.5981,-78.5 1780.5981,-60.5 1643.4263,-60.5"/>
<text text-anchor="middle" x="1712.0122" y="-66.5" font-family="Helvetica,sans-Serif" font-size="10.00" fill="#000000">src/classes/athenaeum.cpp</text>
</a>
</g>
</g>
<!-- Node6&#45;&gt;Node23 -->
<g id="edge18" class="edge">
<title>Node6&#45;&gt;Node23</title>
<path fill="none" stroke="#191970" d="M1057.6093,-131.542C1176.4209,-125.94 1425.8309,-111.7763 1635.0122,-84 1645.9348,-82.5496 1657.6541,-80.5654 1668.5725,-78.5304"/>
<polygon fill="#191970" stroke="#191970" points="1057.3841,-128.0486 1047.5577,-132.0101 1057.7098,-135.041 1057.3841,-128.0486"/>
</g>
<!-- Node24 -->
<g id="node19" class="node">
<title>Node24</title>
<g id="a_node19"><a xlink:href="electron__graph_8cpp.html" target="_top" xlink:title="src/classes/electron\l_graph.cpp">
<polygon fill="#ffffff" stroke="#000000" points="1798.1084,-55.5 1798.1084,-83.5 1901.916,-83.5 1901.916,-55.5 1798.1084,-55.5"/>
<text text-anchor="start" x="1806.1084" y="-71.5" font-family="Helvetica,sans-Serif" font-size="10.00" fill="#000000">src/classes/electron</text>
<text text-anchor="middle" x="1850.0122" y="-61.5" font-family="Helvetica,sans-Serif" font-size="10.00" fill="#000000">_graph.cpp</text>
</a>
</g>
</g>
<!-- Node6&#45;&gt;Node24 -->
<g id="edge22" class="edge">
<title>Node6&#45;&gt;Node24</title>
<path fill="none" stroke="#191970" d="M1057.3807,-131.6877C1225.192,-124.6332 1649.5757,-105.2252 1790.0122,-84 1792.6613,-83.5996 1795.3651,-83.1392 1798.0878,-82.6342"/>
<polygon fill="#191970" stroke="#191970" points="1057.0275,-128.1993 1047.1826,-132.1144 1057.3202,-135.1932 1057.0275,-128.1993"/>
</g>
<!-- Node25 -->
<g id="node20" class="node">
<title>Node25</title>
<g id="a_node20"><a xlink:href="parameterised_8cpp.html" target="_top" xlink:title="src/classes/parameterised.cpp">
<polygon fill="#ffffff" stroke="#000000" points="1919.4854,-60.5 1919.4854,-78.5 2070.5391,-78.5 2070.5391,-60.5 1919.4854,-60.5"/>
<text text-anchor="middle" x="1995.0122" y="-66.5" font-family="Helvetica,sans-Serif" font-size="10.00" fill="#000000">src/classes/parameterised.cpp</text>
</a>
</g>
</g>
<!-- Node6&#45;&gt;Node25 -->
<g id="edge24" class="edge">
<title>Node6&#45;&gt;Node25</title>
<path fill="none" stroke="#191970" d="M1057.5955,-133.4526C1211.7685,-130.5281 1593.5991,-119.9557 1911.0122,-84 1923.2173,-82.6174 1936.3381,-80.6072 1948.4978,-78.5216"/>
<polygon fill="#191970" stroke="#191970" points="1057.2659,-129.958 1047.3323,-133.6423 1057.3953,-136.9568 1057.2659,-129.958"/>
</g>
<!-- Node26 -->
<g id="node21" class="node">
<title>Node26</title>
<g id="a_node21"><a xlink:href="assignment_8cpp.html" target="_top" xlink:title="src/graph/assignment.cpp">
<polygon fill="#ffffff" stroke="#000000" points="2088.7612,-60.5 2088.7612,-78.5 2219.2632,-78.5 2219.2632,-60.5 2088.7612,-60.5"/>
<text text-anchor="middle" x="2154.0122" y="-66.5" font-family="Helvetica,sans-Serif" font-size="10.00" fill="#000000">src/graph/assignment.cpp</text>
</a>
</g>
</g>
<!-- Node6&#45;&gt;Node26 -->
<g id="edge26" class="edge">
<title>Node6&#45;&gt;Node26</title>
<path fill="none" stroke="#191970" d="M1057.6713,-132.6223C1265.7866,-126.7996 1880.8187,-107.989 2080.0122,-84 2090.9302,-82.6851 2102.6506,-80.672 2113.4712,-78.5604"/>
<polygon fill="#191970" stroke="#191970" points="1057.3817,-129.1289 1047.4831,-132.906 1057.5767,-136.1262 1057.3817,-129.1289"/>
</g>
<!-- Node27 -->
<g id="node22" class="node">
<title>Node27</title>
<g id="a_node22"><a xlink:href="condensed_8cpp.html" target="_top" xlink:title="src/graph/condensed.cpp">
<polygon fill="#ffffff" stroke="#000000" points="2236.8647,-60.5 2236.8647,-78.5 2365.1597,-78.5 2365.1597,-60.5 2236.8647,-60.5"/>
<text text-anchor="middle" x="2301.0122" y="-66.5" font-family="Helvetica,sans-Serif" font-size="10.00" fill="#000000">src/graph/condensed.cpp</text>
</a>
</g>
</g>
<!-- Node6&#45;&gt;Node27 -->
<g id="edge27" class="edge">
<title>Node6&#45;&gt;Node27</title>
<path fill="none" stroke="#191970" d="M1057.2619,-133.0976C1283.3689,-128.2958 1998.6022,-111.2876 2228.0122,-84 2238.9183,-82.7027 2250.63,-80.6684 2261.4099,-78.5295"/>
<polygon fill="#191970" stroke="#191970" points="1057.1106,-129.5999 1047.1867,-133.3104 1057.2584,-136.5984 1057.1106,-129.5999"/>
</g>
<!-- Node28 -->
<g id="node23" class="node">
<title>Node28</title>
<g id="a_node23"><a xlink:href="main_8cpp.html" target="_top" xlink:title="src/main.cpp">
<polygon fill="#ffffff" stroke="#000000" points="2382.6699,-60.5 2382.6699,-78.5 2455.3545,-78.5 2455.3545,-60.5 2382.6699,-60.5"/>
<text text-anchor="middle" x="2419.0122" y="-66.5" font-family="Helvetica,sans-Serif" font-size="10.00" fill="#000000">src/main.cpp</text>
</a>
</g>
</g>
<!-- Node6&#45;&gt;Node28 -->
<g id="edge29" class="edge">
<title>Node6&#45;&gt;Node28</title>
<path fill="none" stroke="#191970" d="M1057.6553,-133.0858C1320.5132,-127.5942 2244.0582,-106.8522 2374.0122,-84 2380.9645,-82.7775 2388.3241,-80.7399 2395.0328,-78.5729"/>
<polygon fill="#191970" stroke="#191970" points="1057.4023,-129.5902 1047.4774,-133.2977 1057.5481,-136.5887 1057.4023,-129.5902"/>
</g>
<!-- Node8 -->
<g id="node3" class="node">
<title>Node8</title>
<g id="a_node3"><a xlink:href="iters_8cpp.html" target="_top" xlink:title="src/classes/iters.cpp">
<polygon fill="#ffffff" stroke="#000000" points="0,-.5 0,-18.5 106.0244,-18.5 106.0244,-.5 0,-.5"/>
<text text-anchor="middle" x="53.0122" y="-6.5" font-family="Helvetica,sans-Serif" font-size="10.00" fill="#000000">src/classes/iters.cpp</text>
</a>
</g>
</g>
<!-- Node7&#45;&gt;Node8 -->
<g id="edge2" class="edge">
<title>Node7&#45;&gt;Node8</title>
<path fill="none" stroke="#191970" d="M94.9506,-48.2123C83.9383,-38.0471 71.3429,-26.4206 62.8534,-18.5842"/>
<polygon fill="#191970" stroke="#191970" points="92.8861,-51.0698 102.6081,-55.2808 97.634,-45.9262 92.8861,-51.0698"/>
</g>
<!-- Node9&#45;&gt;Node10 -->
<g id="edge4" class="edge">
<title>Node9&#45;&gt;Node10</title>
<path fill="none" stroke="#191970" d="M499.1784,-58.7287C423.878,-47.1143 305.4903,-28.8539 236.0372,-18.1414"/>
<polygon fill="#191970" stroke="#191970" points="499.0913,-62.2566 509.508,-60.322 500.1585,-55.3384 499.0913,-62.2566"/>
</g>
<!-- Node9&#45;&gt;Node11 -->
<g id="edge5" class="edge">
<title>Node9&#45;&gt;Node11</title>
<path fill="none" stroke="#191970" d="M499.9249,-53.6179C451.1242,-42.3993 387.4814,-27.7688 347.1682,-18.5014"/>
<polygon fill="#191970" stroke="#191970" points="499.2573,-57.0556 509.7873,-55.8851 500.8256,-50.2336 499.2573,-57.0556"/>
</g>
<!-- Node9&#45;&gt;Node12 -->
<g id="edge6" class="edge">
<title>Node9&#45;&gt;Node12</title>
<path fill="none" stroke="#191970" d="M528.3164,-51.278C504.2077,-40.4831 474.6974,-27.2695 455.4049,-18.6311"/>
<polygon fill="#191970" stroke="#191970" points="527.038,-54.5404 537.5952,-55.4327 529.8987,-48.1516 527.038,-54.5404"/>
</g>
<!-- Node9&#45;&gt;Node13 -->
<g id="edge7" class="edge">
<title>Node9&#45;&gt;Node13</title>
<path fill="none" stroke="#191970" d="M569.0122,-45.2151C569.0122,-35.8253 569.0122,-25.6598 569.0122,-18.5842"/>
<polygon fill="#191970" stroke="#191970" points="565.5123,-45.2808 569.0122,-55.2808 572.5123,-45.2809 565.5123,-45.2808"/>
</g>
<!-- Node9&#45;&gt;Node14 -->
<g id="edge8" class="edge">
<title>Node9&#45;&gt;Node14</title>
<path fill="none" stroke="#191970" d="M612.1001,-51.4212C637.8904,-40.6001 669.5705,-27.3077 690.2498,-18.6311"/>
<polygon fill="#191970" stroke="#191970" points="610.4064,-48.3361 602.5394,-55.4327 613.1147,-54.791 610.4064,-48.3361"/>
</g>
<!-- Node9&#45;&gt;Node15 -->
<g id="edge9" class="edge">
<title>Node9&#45;&gt;Node15</title>
<path fill="none" stroke="#191970" d="M638.2339,-54.927C692.0973,-43.5873 765.1507,-28.2077 810.9264,-18.5707"/>
<polygon fill="#191970" stroke="#191970" points="637.4751,-51.51 628.4106,-56.9951 638.9172,-58.3598 637.4751,-51.51"/>
</g>
<!-- Node9&#45;&gt;Node16 -->
<g id="edge10" class="edge">
<title>Node9&#45;&gt;Node16</title>
<path fill="none" stroke="#191970" d="M638.5751,-59.6562C720.0674,-48.1243 853.8077,-29.1988 931.6072,-18.1894"/>
<polygon fill="#191970" stroke="#191970" points="637.825,-56.2274 628.414,-61.0941 638.8058,-63.1583 637.825,-56.2274"/>
</g>
</g>
</svg>
