<?xml version="1.0" encoding="UTF-8" standalone="no"?>
<!DOCTYPE svg PUBLIC "-//W3C//DTD SVG 1.1//EN"
 "http://www.w3.org/Graphics/SVG/1.1/DTD/svg11.dtd">
<!-- Generated by graphviz version 2.40.1 (20161225.0304)
 -->
<!-- Title: include/indigox/classes/atom.hpp Pages: 1 -->
<svg width="322pt" height="147pt"
 viewBox="0.00 0.00 322.26 147.00" xmlns="http://www.w3.org/2000/svg" xmlns:xlink="http://www.w3.org/1999/xlink">
<g id="graph0" class="graph" transform="scale(1 1) rotate(0) translate(4 143)">
<title>include/indigox/classes/atom.hpp</title>
<polygon fill="#ffffff" stroke="transparent" points="-4,4 -4,-143 318.2559,-143 318.2559,4 -4,4"/>
<!-- Node0 -->
<g id="node1" class="node">
<title>Node0</title>
<polygon fill="#bfbfbf" stroke="#000000" points="124.5,-110.5 124.5,-138.5 242.7803,-138.5 242.7803,-110.5 124.5,-110.5"/>
<text text-anchor="start" x="132.5" y="-126.5" font-family="Helvetica,sans-Serif" font-size="10.00" fill="#000000">include/indigox/classes</text>
<text text-anchor="middle" x="183.6401" y="-116.5" font-family="Helvetica,sans-Serif" font-size="10.00" fill="#000000">/atom.hpp</text>
</g>
<!-- Node1 -->
<g id="node2" class="node">
<title>Node1</title>
<g id="a_node2"><a xlink:href="fwd__declares_8hpp.html" target="_top" xlink:title="../utils/fwd_declares.hpp">
<polygon fill="#ffffff" stroke="#000000" points="0,-55.5 0,-73.5 123.2803,-73.5 123.2803,-55.5 0,-55.5"/>
<text text-anchor="middle" x="61.6401" y="-61.5" font-family="Helvetica,sans-Serif" font-size="10.00" fill="#000000">../utils/fwd_declares.hpp</text>
</a>
</g>
</g>
<!-- Node0&#45;&gt;Node1 -->
<g id="edge1" class="edge">
<title>Node0&#45;&gt;Node1</title>
<path fill="none" stroke="#191970" d="M155.0366,-110.4327C135.1844,-100.6693 108.8834,-87.7344 89.2511,-78.0792"/>
<polygon fill="#191970" stroke="#191970" points="90.7248,-74.9036 80.2066,-73.6311 87.6355,-81.185 90.7248,-74.9036"/>
</g>
<!-- Node3 -->
<g id="node4" class="node">
<title>Node3</title>
<polygon fill="#ffffff" stroke="#bfbfbf" points="113.5835,-.5 113.5835,-18.5 165.6968,-18.5 165.6968,-.5 113.5835,-.5"/>
<text text-anchor="middle" x="139.6401" y="-6.5" font-family="Helvetica,sans-Serif" font-size="10.00" fill="#000000">memory</text>
</g>
<!-- Node0&#45;&gt;Node3 -->
<g id="edge5" class="edge">
<title>Node0&#45;&gt;Node3</title>
<path fill="none" stroke="#191970" d="M178.2449,-110.3987C170.3247,-89.6982 155.54,-51.0564 146.7446,-28.0684"/>
<polygon fill="#191970" stroke="#191970" points="150.0135,-26.8176 143.1711,-18.7286 143.4757,-29.3191 150.0135,-26.8176"/>
</g>
<!-- Node4 -->
<g id="node5" class="node">
<title>Node4</title>
<polygon fill="#ffffff" stroke="#bfbfbf" points="180.0098,-55.5 180.0098,-73.5 253.2705,-73.5 253.2705,-55.5 180.0098,-55.5"/>
<text text-anchor="middle" x="216.6401" y="-61.5" font-family="Helvetica,sans-Serif" font-size="10.00" fill="#000000">Eigen/Dense</text>
</g>
<!-- Node0&#45;&gt;Node4 -->
<g id="edge4" class="edge">
<title>Node0&#45;&gt;Node4</title>
<path fill="none" stroke="#191970" d="M191.4607,-110.2808C196.0517,-101.9336 201.8959,-91.3076 206.7981,-82.3946"/>
<polygon fill="#191970" stroke="#191970" points="209.8914,-84.0331 211.6438,-73.5842 203.7578,-80.6596 209.8914,-84.0331"/>
</g>
<!-- Node5 -->
<g id="node6" class="node">
<title>Node5</title>
<polygon fill="#ffffff" stroke="#bfbfbf" points="271.0244,-55.5 271.0244,-73.5 314.2559,-73.5 314.2559,-55.5 271.0244,-55.5"/>
<text text-anchor="middle" x="292.6401" y="-61.5" font-family="Helvetica,sans-Serif" font-size="10.00" fill="#000000">vector</text>
</g>
<!-- Node0&#45;&gt;Node5 -->
<g id="edge6" class="edge">
<title>Node0&#45;&gt;Node5</title>
<path fill="none" stroke="#191970" d="M209.1958,-110.4327C226.61,-100.8468 249.5784,-88.2037 267.0087,-78.609"/>
<polygon fill="#191970" stroke="#191970" points="268.9794,-81.5195 276.052,-73.6311 265.6038,-75.3872 268.9794,-81.5195"/>
</g>
<!-- Node2 -->
<g id="node3" class="node">
<title>Node2</title>
<polygon fill="#ffffff" stroke="#bfbfbf" points="39.1895,-.5 39.1895,-18.5 84.0908,-18.5 84.0908,-.5 39.1895,-.5"/>
<text text-anchor="middle" x="61.6401" y="-6.5" font-family="Helvetica,sans-Serif" font-size="10.00" fill="#000000">cstdint</text>
</g>
<!-- Node1&#45;&gt;Node2 -->
<g id="edge2" class="edge">
<title>Node1&#45;&gt;Node2</title>
<path fill="none" stroke="#191970" d="M61.6401,-55.4179C61.6401,-48.2164 61.6401,-37.8962 61.6401,-28.8632"/>
<polygon fill="#191970" stroke="#191970" points="65.1402,-28.7794 61.6401,-18.7795 58.1402,-28.7795 65.1402,-28.7794"/>
</g>
<!-- Node1&#45;&gt;Node3 -->
<g id="edge3" class="edge">
<title>Node1&#45;&gt;Node3</title>
<path fill="none" stroke="#191970" d="M74.5203,-55.4179C86.3755,-47.0584 104.1904,-34.4966 118.1917,-24.6239"/>
<polygon fill="#191970" stroke="#191970" points="120.5853,-27.2188 126.7409,-18.5956 116.5513,-21.498 120.5853,-27.2188"/>
</g>
</g>
</svg>
