<?xml version="1.0" encoding="UTF-8" standalone="no"?>
<!DOCTYPE svg PUBLIC "-//W3C//DTD SVG 1.1//EN"
 "http://www.w3.org/Graphics/SVG/1.1/DTD/svg11.dtd">
<!-- Generated by graphviz version 2.40.1 (20161225.0304)
 -->
<!-- Title: include/indigox/graph/base_graph.hpp Pages: 1 -->
<!--zoomable 307 -->
<svg id="main" version="1.1" xmlns="http://www.w3.org/2000/svg" xmlns:xlink="http://www.w3.org/1999/xlink" xml:space="preserve" onload="init(evt)">
<style type="text/css"><![CDATA[
.edge:hover path { stroke: red; }
.edge:hover polygon { stroke: red; fill: red; }
]]></style>
<script type="text/javascript"><![CDATA[
var edges = document.getElementsByTagName('g');
if (edges && edges.length) {
  for (var i=0;i<edges.length;i++) {
    if (edges[i].id.substr(0,4)=='edge') {
      edges[i].setAttribute('class','edge');
    }
  }
}
]]></script>
        <defs>
                <circle id="rim" cx="0" cy="0" r="7"/>
                <circle id="rim2" cx="0" cy="0" r="3.5"/>
                <g id="zoomPlus">
                        <use xlink:href="#rim" fill="#404040">
                                <set attributeName="fill" to="#808080" begin="zoomplus.mouseover" end="zoomplus.mouseout"/>
                        </use>
                        <path d="M-4,0h8M0,-4v8" fill="none" stroke="white" stroke-width="1.5" pointer-events="none"/>
                </g>
                <g id="zoomMin">
                        <use xlink:href="#rim" fill="#404040">
                                <set attributeName="fill" to="#808080" begin="zoomminus.mouseover" end="zoomminus.mouseout"/>
                        </use>
                        <path d="M-4,0h8" fill="none" stroke="white" stroke-width="1.5" pointer-events="none"/>
                </g>
                <g id="dirArrow">
                        <path fill="none" stroke="white" stroke-width="1.5" d="M0,-3.0v7 M-2.5,-0.5L0,-3.0L2.5,-0.5"/>
                </g>
               <g id="resetDef">
                       <use xlink:href="#rim2" fill="#404040">
                               <set attributeName="fill" to="#808080" begin="reset.mouseover" end="reset.mouseout"/>
                       </use>
               </g>
        </defs>

<script type="text/javascript">
var viewWidth = 2007;
var viewHeight = 307;
var sectionId = 'dynsection-1';
</script>
<script xlink:href="svgpan.js"/>
<svg id="graph" class="graph">
<g id="viewport">
<title>include/indigox/graph/base_graph.hpp</title>
<polygon fill="#ffffff" stroke="transparent" points="-4,4 -4,-303 2003.3542,-303 2003.3542,4 -4,4"/>
<!-- Node36 -->
<g id="node1" class="node">
<title>Node36</title>
<polygon fill="#bfbfbf" stroke="#000000" points="919.6772,-270.5 919.6772,-298.5 1030.189,-298.5 1030.189,-270.5 919.6772,-270.5"/>
<text text-anchor="start" x="927.6772" y="-286.5" font-family="Helvetica,sans-Serif" font-size="10.00" fill="#000000">include/indigox/graph</text>
<text text-anchor="middle" x="974.9331" y="-276.5" font-family="Helvetica,sans-Serif" font-size="10.00" fill="#000000">/base_graph.hpp</text>
</g>
<!-- Node37 -->
<g id="node2" class="node">
<title>Node37</title>
<g id="a_node2"><a xlink:href="access_8hpp.html" target="_top" xlink:title="include/indigox/algorithm\l/access.hpp">
<polygon fill="#ffffff" stroke="#000000" points="843.9014,-205.5 843.9014,-233.5 969.9648,-233.5 969.9648,-205.5 843.9014,-205.5"/>
<text text-anchor="start" x="851.9014" y="-221.5" font-family="Helvetica,sans-Serif" font-size="10.00" fill="#000000">include/indigox/algorithm</text>
<text text-anchor="middle" x="906.9331" y="-211.5" font-family="Helvetica,sans-Serif" font-size="10.00" fill="#000000">/access.hpp</text>
</a>
</g>
</g>
<!-- Node36&#45;&gt;Node37 -->
<g id="edge1" class="edge">
<title>Node36&#45;&gt;Node37</title>
<path fill="none" stroke="#191970" d="M952.7666,-263.3115C942.5664,-253.5612 930.7426,-242.259 921.6593,-233.5765"/>
<polygon fill="#191970" stroke="#191970" points="950.5309,-266.0162 960.1781,-270.396 955.3678,-260.9561 950.5309,-266.0162"/>
</g>
<!-- Node40 -->
<g id="node5" class="node">
<title>Node40</title>
<g id="a_node5"><a xlink:href="assignment_8hpp.html" target="_top" xlink:title="include/indigox/graph\l/assignment.hpp">
<polygon fill="#ffffff" stroke="#000000" points="296.6772,-205.5 296.6772,-233.5 407.189,-233.5 407.189,-205.5 296.6772,-205.5"/>
<text text-anchor="start" x="304.6772" y="-221.5" font-family="Helvetica,sans-Serif" font-size="10.00" fill="#000000">include/indigox/graph</text>
<text text-anchor="middle" x="351.9331" y="-211.5" font-family="Helvetica,sans-Serif" font-size="10.00" fill="#000000">/assignment.hpp</text>
</a>
</g>
</g>
<!-- Node36&#45;&gt;Node40 -->
<g id="edge4" class="edge">
<title>Node36&#45;&gt;Node40</title>
<path fill="none" stroke="#191970" d="M909.613,-277.6849C786.6122,-264.8518 522.6698,-237.3136 407.5433,-225.302"/>
<polygon fill="#191970" stroke="#191970" points="909.3368,-281.175 919.646,-278.7317 910.0632,-274.2128 909.3368,-281.175"/>
</g>
<!-- Node48 -->
<g id="node13" class="node">
<title>Node48</title>
<g id="a_node13"><a xlink:href="condensed_8hpp.html" target="_top" xlink:title="include/indigox/graph\l/condensed.hpp">
<polygon fill="#ffffff" stroke="#000000" points="1443.6772,-205.5 1443.6772,-233.5 1554.189,-233.5 1554.189,-205.5 1443.6772,-205.5"/>
<text text-anchor="start" x="1451.6772" y="-221.5" font-family="Helvetica,sans-Serif" font-size="10.00" fill="#000000">include/indigox/graph</text>
<text text-anchor="middle" x="1498.9331" y="-211.5" font-family="Helvetica,sans-Serif" font-size="10.00" fill="#000000">/condensed.hpp</text>
</a>
</g>
</g>
<!-- Node36&#45;&gt;Node48 -->
<g id="edge21" class="edge">
<title>Node36&#45;&gt;Node48</title>
<path fill="none" stroke="#191970" d="M1040.5926,-276.3552C1144.7884,-263.4302 1346.1524,-238.4518 1443.5284,-226.3727"/>
<polygon fill="#191970" stroke="#191970" points="1040.0073,-272.9009 1030.5142,-277.6054 1040.869,-279.8477 1040.0073,-272.9009"/>
</g>
<!-- Node62 -->
<g id="node27" class="node">
<title>Node62</title>
<g id="a_node27"><a xlink:href="molecular_8hpp.html" target="_top" xlink:title="include/indigox/graph\l/molecular.hpp">
<polygon fill="#ffffff" stroke="#000000" points="1028.6772,-205.5 1028.6772,-233.5 1139.189,-233.5 1139.189,-205.5 1028.6772,-205.5"/>
<text text-anchor="start" x="1036.6772" y="-221.5" font-family="Helvetica,sans-Serif" font-size="10.00" fill="#000000">include/indigox/graph</text>
<text text-anchor="middle" x="1083.9331" y="-211.5" font-family="Helvetica,sans-Serif" font-size="10.00" fill="#000000">/molecular.hpp</text>
</a>
</g>
</g>
<!-- Node36&#45;&gt;Node62 -->
<g id="edge39" class="edge">
<title>Node36&#45;&gt;Node62</title>
<path fill="none" stroke="#191970" d="M1007.6077,-265.0151C1024.5701,-254.8999 1044.9115,-242.7698 1060.3279,-233.5765"/>
<polygon fill="#191970" stroke="#191970" points="1005.3807,-262.2681 998.5845,-270.396 1008.9659,-268.2802 1005.3807,-262.2681"/>
</g>
<!-- Node38 -->
<g id="node3" class="node">
<title>Node38</title>
<g id="a_node3"><a xlink:href="connectivity_8cpp.html" target="_top" xlink:title="src/algorithm/graph\l/connectivity.cpp">
<polygon fill="#ffffff" stroke="#000000" points="856.1377,-140.5 856.1377,-168.5 957.7285,-168.5 957.7285,-140.5 856.1377,-140.5"/>
<text text-anchor="start" x="864.1377" y="-156.5" font-family="Helvetica,sans-Serif" font-size="10.00" fill="#000000">src/algorithm/graph</text>
<text text-anchor="middle" x="906.9331" y="-146.5" font-family="Helvetica,sans-Serif" font-size="10.00" fill="#000000">/connectivity.cpp</text>
</a>
</g>
</g>
<!-- Node37&#45;&gt;Node38 -->
<g id="edge2" class="edge">
<title>Node37&#45;&gt;Node38</title>
<path fill="none" stroke="#191970" d="M906.9331,-195.1081C906.9331,-186.1539 906.9331,-176.3227 906.9331,-168.5765"/>
<polygon fill="#191970" stroke="#191970" points="903.4332,-195.3959 906.9331,-205.396 910.4332,-195.396 903.4332,-195.3959"/>
</g>
<!-- Node39 -->
<g id="node4" class="node">
<title>Node39</title>
<g id="a_node4"><a xlink:href="isomorphism_8cpp.html" target="_top" xlink:title="src/algorithm/graph\l/isomorphism.cpp">
<polygon fill="#ffffff" stroke="#000000" points="698.1377,-140.5 698.1377,-168.5 799.7285,-168.5 799.7285,-140.5 698.1377,-140.5"/>
<text text-anchor="start" x="706.1377" y="-156.5" font-family="Helvetica,sans-Serif" font-size="10.00" fill="#000000">src/algorithm/graph</text>
<text text-anchor="middle" x="748.9331" y="-146.5" font-family="Helvetica,sans-Serif" font-size="10.00" fill="#000000">/isomorphism.cpp</text>
</a>
</g>
</g>
<!-- Node37&#45;&gt;Node39 -->
<g id="edge3" class="edge">
<title>Node37&#45;&gt;Node39</title>
<path fill="none" stroke="#191970" d="M863.2867,-201.5442C838.0038,-191.143 806.6346,-178.238 783.1498,-168.5765"/>
<polygon fill="#191970" stroke="#191970" points="862.0698,-204.8282 872.6495,-205.396 864.7331,-198.3546 862.0698,-204.8282"/>
</g>
<!-- Node41 -->
<g id="node6" class="node">
<title>Node41</title>
<g id="a_node6"><a xlink:href="assigner_8hpp.html" target="_top" xlink:title="include/indigox/algorithm\l/electron_assignment/assigner.hpp">
<polygon fill="#ffffff" stroke="#000000" points="209.6602,-140.5 209.6602,-168.5 380.2061,-168.5 380.2061,-140.5 209.6602,-140.5"/>
<text text-anchor="start" x="217.6602" y="-156.5" font-family="Helvetica,sans-Serif" font-size="10.00" fill="#000000">include/indigox/algorithm</text>
<text text-anchor="middle" x="294.9331" y="-146.5" font-family="Helvetica,sans-Serif" font-size="10.00" fill="#000000">/electron_assignment/assigner.hpp</text>
</a>
</g>
</g>
<!-- Node40&#45;&gt;Node41 -->
<g id="edge5" class="edge">
<title>Node40&#45;&gt;Node41</title>
<path fill="none" stroke="#191970" d="M332.8479,-197.7362C324.4144,-188.119 314.7417,-177.0888 307.2771,-168.5765"/>
<polygon fill="#191970" stroke="#191970" points="330.3402,-200.185 339.565,-205.396 335.6032,-195.5697 330.3402,-200.185"/>
</g>
<!-- Node42 -->
<g id="node7" class="node">
<title>Node42</title>
<g id="a_node7"><a xlink:href="astar__optimisation_8hpp.html" target="_top" xlink:title="include/indigox/algorithm\l/electron_assignment/astar\l_optimisation.hpp">
<polygon fill="#ffffff" stroke="#000000" points="285.9014,-65.5 285.9014,-103.5 421.9648,-103.5 421.9648,-65.5 285.9014,-65.5"/>
<text text-anchor="start" x="293.9014" y="-91.5" font-family="Helvetica,sans-Serif" font-size="10.00" fill="#000000">include/indigox/algorithm</text>
<text text-anchor="start" x="293.9014" y="-81.5" font-family="Helvetica,sans-Serif" font-size="10.00" fill="#000000">/electron_assignment/astar</text>
<text text-anchor="middle" x="353.9331" y="-71.5" font-family="Helvetica,sans-Serif" font-size="10.00" fill="#000000">_optimisation.hpp</text>
</a>
</g>
</g>
<!-- Node40&#45;&gt;Node42 -->
<g id="edge15" class="edge">
<title>Node40&#45;&gt;Node42</title>
<path fill="none" stroke="#191970" d="M372.5441,-197.7293C379.1049,-189.3951 385.5369,-179.3817 388.9331,-169 396.4374,-146.0605 382.6914,-120.5721 370.2844,-103.6487"/>
<polygon fill="#191970" stroke="#191970" points="369.8047,-195.5488 366.048,-205.4553 375.1625,-200.0537 369.8047,-195.5488"/>
</g>
<!-- Node43 -->
<g id="node8" class="node">
<title>Node43</title>
<g id="a_node8"><a xlink:href="assigner_8cpp.html" target="_top" xlink:title="src/algorithm/electron\l_assignment/assigner.cpp">
<polygon fill="#ffffff" stroke="#000000" points="192.1182,-.5 192.1182,-28.5 323.748,-28.5 323.748,-.5 192.1182,-.5"/>
<text text-anchor="start" x="200.1182" y="-16.5" font-family="Helvetica,sans-Serif" font-size="10.00" fill="#000000">src/algorithm/electron</text>
<text text-anchor="middle" x="257.9331" y="-6.5" font-family="Helvetica,sans-Serif" font-size="10.00" fill="#000000">_assignment/assigner.cpp</text>
</a>
</g>
</g>
<!-- Node40&#45;&gt;Node43 -->
<g id="edge17" class="edge">
<title>Node40&#45;&gt;Node43</title>
<path fill="none" stroke="#191970" d="M286.4165,-205.587C250.6315,-196.516 211.4891,-183.661 200.9331,-169 168.3575,-123.7564 218.4811,-57.7953 244.2177,-28.9296"/>
<polygon fill="#191970" stroke="#191970" points="285.8473,-209.0513 296.3941,-208.0435 287.5208,-202.2543 285.8473,-209.0513"/>
</g>
<!-- Node44 -->
<g id="node9" class="node">
<title>Node44</title>
<g id="a_node9"><a xlink:href="astar__optimisation_8cpp.html" target="_top" xlink:title="src/algorithm/electron\l_assignment/astar_optimisation.cpp">
<polygon fill="#ffffff" stroke="#000000" points="381.1675,-.5 381.1675,-28.5 556.6987,-28.5 556.6987,-.5 381.1675,-.5"/>
<text text-anchor="start" x="389.1675" y="-16.5" font-family="Helvetica,sans-Serif" font-size="10.00" fill="#000000">src/algorithm/electron</text>
<text text-anchor="middle" x="468.9331" y="-6.5" font-family="Helvetica,sans-Serif" font-size="10.00" fill="#000000">_assignment/astar_optimisation.cpp</text>
</a>
</g>
</g>
<!-- Node40&#45;&gt;Node44 -->
<g id="edge18" class="edge">
<title>Node40&#45;&gt;Node44</title>
<path fill="none" stroke="#191970" d="M379.2675,-199.0351C404.6798,-178.2407 441.0712,-143.532 457.9331,-104 468.5589,-79.0882 469.8468,-46.9733 469.5649,-28.7676"/>
<polygon fill="#191970" stroke="#191970" points="377.0706,-196.3104 371.4413,-205.2861 381.4392,-201.7799 377.0706,-196.3104"/>
</g>
<!-- Node45 -->
<g id="node10" class="node">
<title>Node45</title>
<g id="a_node10"><a xlink:href="local__optimisation_8hpp.html" target="_top" xlink:title="include/indigox/algorithm\l/electron_assignment/local\l_optimisation.hpp">
<polygon fill="#ffffff" stroke="#000000" points="19.7339,-65.5 19.7339,-103.5 154.1323,-103.5 154.1323,-65.5 19.7339,-65.5"/>
<text text-anchor="start" x="27.7339" y="-91.5" font-family="Helvetica,sans-Serif" font-size="10.00" fill="#000000">include/indigox/algorithm</text>
<text text-anchor="start" x="27.7339" y="-81.5" font-family="Helvetica,sans-Serif" font-size="10.00" fill="#000000">/electron_assignment/local</text>
<text text-anchor="middle" x="86.9331" y="-71.5" font-family="Helvetica,sans-Serif" font-size="10.00" fill="#000000">_optimisation.hpp</text>
</a>
</g>
</g>
<!-- Node40&#45;&gt;Node45 -->
<g id="edge16" class="edge">
<title>Node40&#45;&gt;Node45</title>
<path fill="none" stroke="#191970" d="M286.4356,-210.3631C249.6827,-203.136 204.0926,-190.5378 167.9331,-169 139.8238,-152.2572 115.0334,-123.152 100.5052,-103.8562"/>
<polygon fill="#191970" stroke="#191970" points="286.0782,-213.857 296.5523,-212.262 287.3696,-206.9772 286.0782,-213.857"/>
</g>
<!-- Node46 -->
<g id="node11" class="node">
<title>Node46</title>
<g id="a_node11"><a xlink:href="local__optimisation_8cpp.html" target="_top" xlink:title="src/algorithm/electron\l_assignment/local_optimisation.cpp">
<polygon fill="#ffffff" stroke="#000000" points="0,-.5 0,-28.5 173.8662,-28.5 173.8662,-.5 0,-.5"/>
<text text-anchor="start" x="8" y="-16.5" font-family="Helvetica,sans-Serif" font-size="10.00" fill="#000000">src/algorithm/electron</text>
<text text-anchor="middle" x="86.9331" y="-6.5" font-family="Helvetica,sans-Serif" font-size="10.00" fill="#000000">_assignment/local_optimisation.cpp</text>
</a>
</g>
</g>
<!-- Node40&#45;&gt;Node46 -->
<g id="edge19" class="edge">
<title>Node40&#45;&gt;Node46</title>
<path fill="none" stroke="#191970" d="M286.4881,-209.5195C241.5245,-201.4848 180.9697,-188.3155 129.9331,-169 73.5702,-147.6687 41.6807,-155.8304 10.9331,-104 2.0894,-89.0925 2.7426,-80.2761 10.9331,-65 19.6913,-48.665 36.3187,-36.7129 51.7929,-28.5494"/>
<polygon fill="#191970" stroke="#191970" points="285.9581,-212.9798 296.4116,-211.2548 287.164,-206.0844 285.9581,-212.9798"/>
</g>
<!-- Node47 -->
<g id="node12" class="node">
<title>Node47</title>
<g id="a_node12"><a xlink:href="assignment_8cpp.html" target="_top" xlink:title="src/graph/assignment.cpp">
<polygon fill="#ffffff" stroke="#000000" points="473.6821,-145.5 473.6821,-163.5 604.1841,-163.5 604.1841,-145.5 473.6821,-145.5"/>
<text text-anchor="middle" x="538.9331" y="-151.5" font-family="Helvetica,sans-Serif" font-size="10.00" fill="#000000">src/graph/assignment.cpp</text>
</a>
</g>
</g>
<!-- Node40&#45;&gt;Node47 -->
<g id="edge20" class="edge">
<title>Node40&#45;&gt;Node47</title>
<path fill="none" stroke="#191970" d="M402.2574,-202.0076C437.9119,-189.6143 484.2996,-173.4903 512.827,-163.5743"/>
<polygon fill="#191970" stroke="#191970" points="400.8058,-198.8067 392.5093,-205.396 403.1041,-205.4186 400.8058,-198.8067"/>
</g>
<!-- Node41&#45;&gt;Node42 -->
<g id="edge6" class="edge">
<title>Node41&#45;&gt;Node42</title>
<path fill="none" stroke="#191970" d="M313.3621,-132.6351C321.1789,-123.3609 330.2088,-112.6475 337.7623,-103.6857"/>
<polygon fill="#191970" stroke="#191970" points="310.6412,-130.4325 306.8726,-140.3345 315.9936,-134.9438 310.6412,-130.4325"/>
</g>
<!-- Node41&#45;&gt;Node43 -->
<g id="edge12" class="edge">
<title>Node41&#45;&gt;Node43</title>
<path fill="none" stroke="#191970" d="M285.6756,-130.5933C282.6441,-122.2555 279.4197,-112.7866 276.9331,-104 269.4933,-77.7112 263.4738,-46.3462 260.3246,-28.5934"/>
<polygon fill="#191970" stroke="#191970" points="282.4403,-131.9348 289.215,-140.0806 288.9988,-129.4879 282.4403,-131.9348"/>
</g>
<!-- Node41&#45;&gt;Node44 -->
<g id="edge13" class="edge">
<title>Node41&#45;&gt;Node44</title>
<path fill="none" stroke="#191970" d="M374.2457,-137.1451C394.6247,-129.6488 415.2093,-119.0171 430.9331,-104 452.6628,-83.247 462.5461,-48.084 466.5515,-28.5832"/>
<polygon fill="#191970" stroke="#191970" points="372.9092,-133.9037 364.599,-140.4757 375.1938,-140.5204 372.9092,-133.9037"/>
</g>
<!-- Node41&#45;&gt;Node45 -->
<g id="edge9" class="edge">
<title>Node41&#45;&gt;Node45</title>
<path fill="none" stroke="#191970" d="M243.3045,-137.125C213.0035,-126.9275 174.6765,-114.029 143.5511,-103.5541"/>
<polygon fill="#191970" stroke="#191970" points="242.2471,-140.462 252.8412,-140.3345 244.4799,-133.8276 242.2471,-140.462"/>
</g>
<!-- Node41&#45;&gt;Node46 -->
<g id="edge14" class="edge">
<title>Node41&#45;&gt;Node46</title>
<path fill="none" stroke="#191970" d="M265.9029,-134.7028C239.1928,-116.5149 198.4583,-88.8456 162.9331,-65 144.5184,-52.6395 123.5153,-38.6952 108.2622,-28.596"/>
<polygon fill="#191970" stroke="#191970" points="264.1605,-137.7508 274.3956,-140.4881 268.1015,-131.9655 264.1605,-137.7508"/>
</g>
<!-- Node42&#45;&gt;Node43 -->
<g id="edge7" class="edge">
<title>Node42&#45;&gt;Node43</title>
<path fill="none" stroke="#191970" d="M319.6023,-59.4671C305.4368,-49.1381 289.5386,-37.5457 277.4324,-28.7183"/>
<polygon fill="#191970" stroke="#191970" points="317.5585,-62.3085 327.7007,-65.3722 321.6827,-56.6524 317.5585,-62.3085"/>
</g>
<!-- Node42&#45;&gt;Node44 -->
<g id="edge8" class="edge">
<title>Node42&#45;&gt;Node44</title>
<path fill="none" stroke="#191970" d="M394.1093,-60.0449C411.3141,-49.5725 430.8013,-37.7107 445.5745,-28.7183"/>
<polygon fill="#191970" stroke="#191970" points="392.0795,-57.183 385.3574,-65.3722 395.7192,-63.1624 392.0795,-57.183"/>
</g>
<!-- Node45&#45;&gt;Node43 -->
<g id="edge10" class="edge">
<title>Node45&#45;&gt;Node43</title>
<path fill="none" stroke="#191970" d="M143.2092,-61.463C169.713,-50.6135 200.4756,-38.0206 223.4702,-28.6076"/>
<polygon fill="#191970" stroke="#191970" points="141.5882,-58.3446 133.6596,-65.3722 144.2402,-64.8228 141.5882,-58.3446"/>
</g>
<!-- Node45&#45;&gt;Node46 -->
<g id="edge11" class="edge">
<title>Node45&#45;&gt;Node46</title>
<path fill="none" stroke="#191970" d="M86.9331,-55.1346C86.9331,-46.0837 86.9331,-36.5165 86.9331,-28.9404"/>
<polygon fill="#191970" stroke="#191970" points="83.4332,-55.3722 86.9331,-65.3722 90.4332,-55.3722 83.4332,-55.3722"/>
</g>
<!-- Node48&#45;&gt;Node38 -->
<g id="edge31" class="edge">
<title>Node48&#45;&gt;Node38</title>
<path fill="none" stroke="#191970" d="M1433.4213,-216.2919C1332.6277,-210.6796 1133.6889,-196.9181 966.9331,-169 963.9737,-168.5045 960.9438,-167.944 957.8944,-167.3385"/>
<polygon fill="#191970" stroke="#191970" points="1433.277,-219.7892 1443.4535,-216.8416 1433.66,-212.7996 1433.277,-219.7892"/>
</g>
<!-- Node48&#45;&gt;Node39 -->
<g id="edge33" class="edge">
<title>Node48&#45;&gt;Node39</title>
<path fill="none" stroke="#191970" d="M1433.1381,-215.9225C1315.348,-209.1798 1060.7623,-193.0704 846.9331,-169 831.6365,-167.2781 815.0574,-164.9879 799.9621,-162.7372"/>
<polygon fill="#191970" stroke="#191970" points="1433.2419,-219.434 1443.4245,-216.5074 1433.6394,-212.4453 1433.2419,-219.434"/>
</g>
<!-- Node49 -->
<g id="node14" class="node">
<title>Node49</title>
<g id="a_node14"><a xlink:href="molecule__impl_8hpp.html" target="_top" xlink:title="include/indigox/classes\l/molecule_impl.hpp">
<polygon fill="#ffffff" stroke="#000000" points="1065.793,-140.5 1065.793,-168.5 1184.0732,-168.5 1184.0732,-140.5 1065.793,-140.5"/>
<text text-anchor="start" x="1073.793" y="-156.5" font-family="Helvetica,sans-Serif" font-size="10.00" fill="#000000">include/indigox/classes</text>
<text text-anchor="middle" x="1124.9331" y="-146.5" font-family="Helvetica,sans-Serif" font-size="10.00" fill="#000000">/molecule_impl.hpp</text>
</a>
</g>
</g>
<!-- Node48&#45;&gt;Node49 -->
<g id="edge22" class="edge">
<title>Node48&#45;&gt;Node49</title>
<path fill="none" stroke="#191970" d="M1433.2605,-208.0863C1362.8544,-195.85 1252.0722,-176.5964 1184.228,-164.8053"/>
<polygon fill="#191970" stroke="#191970" points="1432.8937,-211.575 1443.3454,-209.839 1434.0924,-204.6783 1432.8937,-211.575"/>
</g>
<!-- Node54 -->
<g id="node19" class="node">
<title>Node54</title>
<g id="a_node19"><a xlink:href="molecule_8cpp.html" target="_top" xlink:title="src/classes/molecule.cpp">
<polygon fill="#ffffff" stroke="#000000" points="1535.3569,-75.5 1535.3569,-93.5 1662.5093,-93.5 1662.5093,-75.5 1535.3569,-75.5"/>
<text text-anchor="middle" x="1598.9331" y="-81.5" font-family="Helvetica,sans-Serif" font-size="10.00" fill="#000000">src/classes/molecule.cpp</text>
</a>
</g>
</g>
<!-- Node48&#45;&gt;Node54 -->
<g id="edge36" class="edge">
<title>Node48&#45;&gt;Node54</title>
<path fill="none" stroke="#191970" d="M1564.494,-217.5922C1692.2883,-213.1945 1964.7358,-200.2268 1992.9331,-169 2001.5711,-159.434 2001.3874,-149.7287 1992.9331,-140 1971.6086,-115.4611 1768.5938,-97.0005 1662.6322,-88.948"/>
<polygon fill="#191970" stroke="#191970" points="1564.314,-214.0962 1554.4375,-217.9308 1564.5496,-221.0922 1564.314,-214.0962"/>
</g>
<!-- Node56 -->
<g id="node21" class="node">
<title>Node56</title>
<g id="a_node21"><a xlink:href="molecular_8cpp.html" target="_top" xlink:title="src/graph/molecular.cpp">
<polygon fill="#ffffff" stroke="#000000" points="1394.8496,-75.5 1394.8496,-93.5 1517.0166,-93.5 1517.0166,-75.5 1394.8496,-75.5"/>
<text text-anchor="middle" x="1455.9331" y="-81.5" font-family="Helvetica,sans-Serif" font-size="10.00" fill="#000000">src/graph/molecular.cpp</text>
</a>
</g>
</g>
<!-- Node48&#45;&gt;Node56 -->
<g id="edge38" class="edge">
<title>Node48&#45;&gt;Node56</title>
<path fill="none" stroke="#191970" d="M1564.4763,-217.3352C1688.7964,-212.5506 1948.913,-199.0317 1975.9331,-169 1984.5538,-159.4184 1984.676,-149.4702 1975.9331,-140 1941.9084,-103.1446 1575.3201,-112.7706 1525.9331,-104 1511.773,-101.4853 1496.343,-97.3434 1483.5821,-93.5221"/>
<polygon fill="#191970" stroke="#191970" points="1564.1825,-213.8437 1554.3216,-217.7181 1564.4464,-220.8387 1564.1825,-213.8437"/>
</g>
<!-- Node57 -->
<g id="node22" class="node">
<title>Node57</title>
<g id="a_node22"><a xlink:href="cherrypicker_8cpp.html" target="_top" xlink:title="src/algorithm/cherrypicker.cpp">
<polygon fill="#ffffff" stroke="#000000" points="1424.5195,-145.5 1424.5195,-163.5 1573.3467,-163.5 1573.3467,-145.5 1424.5195,-145.5"/>
<text text-anchor="middle" x="1498.9331" y="-151.5" font-family="Helvetica,sans-Serif" font-size="10.00" fill="#000000">src/algorithm/cherrypicker.cpp</text>
</a>
</g>
</g>
<!-- Node48&#45;&gt;Node57 -->
<g id="edge30" class="edge">
<title>Node48&#45;&gt;Node57</title>
<path fill="none" stroke="#191970" d="M1498.9331,-195.3747C1498.9331,-184.2832 1498.9331,-171.7952 1498.9331,-163.5743"/>
<polygon fill="#191970" stroke="#191970" points="1495.4332,-195.3959 1498.9331,-205.396 1502.4332,-195.396 1495.4332,-195.3959"/>
</g>
<!-- Node58 -->
<g id="node23" class="node">
<title>Node58</title>
<g id="a_node23"><a xlink:href="cycles_8cpp.html" target="_top" xlink:title="src/algorithm/graph\l/cycles.cpp">
<polygon fill="#ffffff" stroke="#000000" points="1865.1377,-140.5 1865.1377,-168.5 1966.7285,-168.5 1966.7285,-140.5 1865.1377,-140.5"/>
<text text-anchor="start" x="1873.1377" y="-156.5" font-family="Helvetica,sans-Serif" font-size="10.00" fill="#000000">src/algorithm/graph</text>
<text text-anchor="middle" x="1915.9331" y="-146.5" font-family="Helvetica,sans-Serif" font-size="10.00" fill="#000000">/cycles.cpp</text>
</a>
</g>
</g>
<!-- Node48&#45;&gt;Node58 -->
<g id="edge32" class="edge">
<title>Node48&#45;&gt;Node58</title>
<path fill="none" stroke="#191970" d="M1564.7012,-212.2397C1636.7627,-203.8162 1755.6016,-188.5471 1856.9331,-169 1859.5223,-168.5005 1862.1685,-167.9603 1864.8359,-167.3921"/>
<polygon fill="#191970" stroke="#191970" points="1563.9464,-208.8037 1554.4162,-213.4325 1564.7529,-215.7571 1563.9464,-208.8037"/>
</g>
<!-- Node59 -->
<g id="node24" class="node">
<title>Node59</title>
<g id="a_node24"><a xlink:href="paths_8cpp.html" target="_top" xlink:title="src/algorithm/graph\l/paths.cpp">
<polygon fill="#ffffff" stroke="#000000" points="1591.1377,-140.5 1591.1377,-168.5 1692.7285,-168.5 1692.7285,-140.5 1591.1377,-140.5"/>
<text text-anchor="start" x="1599.1377" y="-156.5" font-family="Helvetica,sans-Serif" font-size="10.00" fill="#000000">src/algorithm/graph</text>
<text text-anchor="middle" x="1641.9331" y="-146.5" font-family="Helvetica,sans-Serif" font-size="10.00" fill="#000000">/paths.cpp</text>
</a>
</g>
</g>
<!-- Node48&#45;&gt;Node59 -->
<g id="edge34" class="edge">
<title>Node48&#45;&gt;Node59</title>
<path fill="none" stroke="#191970" d="M1539.346,-201.1305C1562.0676,-190.8025 1589.9905,-178.1103 1610.9648,-168.5765"/>
<polygon fill="#191970" stroke="#191970" points="1537.6173,-198.0716 1529.962,-205.396 1540.514,-204.4442 1537.6173,-198.0716"/>
</g>
<!-- Node60 -->
<g id="node25" class="node">
<title>Node60</title>
<g id="a_node25"><a xlink:href="athenaeum_8cpp.html" target="_top" xlink:title="src/classes/athenaeum.cpp">
<polygon fill="#ffffff" stroke="#000000" points="1710.3472,-145.5 1710.3472,-163.5 1847.519,-163.5 1847.519,-145.5 1710.3472,-145.5"/>
<text text-anchor="middle" x="1778.9331" y="-151.5" font-family="Helvetica,sans-Serif" font-size="10.00" fill="#000000">src/classes/athenaeum.cpp</text>
</a>
</g>
</g>
<!-- Node48&#45;&gt;Node60 -->
<g id="edge35" class="edge">
<title>Node48&#45;&gt;Node60</title>
<path fill="none" stroke="#191970" d="M1564.1627,-204.3574C1618.6369,-191.7116 1694.4853,-174.104 1739.9451,-163.5508"/>
<polygon fill="#191970" stroke="#191970" points="1563.2016,-200.9874 1554.2521,-206.6581 1564.7846,-207.8061 1563.2016,-200.9874"/>
</g>
<!-- Node61 -->
<g id="node26" class="node">
<title>Node61</title>
<g id="a_node26"><a xlink:href="condensed_8cpp.html" target="_top" xlink:title="src/graph/condensed.cpp">
<polygon fill="#ffffff" stroke="#000000" points="1277.7856,-145.5 1277.7856,-163.5 1406.0806,-163.5 1406.0806,-145.5 1277.7856,-145.5"/>
<text text-anchor="middle" x="1341.9331" y="-151.5" font-family="Helvetica,sans-Serif" font-size="10.00" fill="#000000">src/graph/condensed.cpp</text>
</a>
</g>
</g>
<!-- Node48&#45;&gt;Node61 -->
<g id="edge37" class="edge">
<title>Node48&#45;&gt;Node61</title>
<path fill="none" stroke="#191970" d="M1455.5265,-201.5291C1425.7516,-189.2019 1387.4948,-173.3631 1363.851,-163.5743"/>
<polygon fill="#191970" stroke="#191970" points="1454.2881,-204.8045 1464.8664,-205.396 1456.9658,-198.3368 1454.2881,-204.8045"/>
</g>
<!-- Node50 -->
<g id="node15" class="node">
<title>Node50</title>
<g id="a_node15"><a xlink:href="angle_8cpp.html" target="_top" xlink:title="src/classes/angle.cpp">
<polygon fill="#ffffff" stroke="#000000" points="871.1328,-75.5 871.1328,-93.5 982.7334,-93.5 982.7334,-75.5 871.1328,-75.5"/>
<text text-anchor="middle" x="926.9331" y="-81.5" font-family="Helvetica,sans-Serif" font-size="10.00" fill="#000000">src/classes/angle.cpp</text>
</a>
</g>
</g>
<!-- Node49&#45;&gt;Node50 -->
<g id="edge23" class="edge">
<title>Node49&#45;&gt;Node50</title>
<path fill="none" stroke="#191970" d="M1075.2557,-136.9373C1036.2094,-123.133 983.4141,-104.468 952.4823,-93.5325"/>
<polygon fill="#191970" stroke="#191970" points="1074.2701,-140.3011 1084.8649,-140.3345 1076.6033,-133.7014 1074.2701,-140.3011"/>
</g>
<!-- Node51 -->
<g id="node16" class="node">
<title>Node51</title>
<g id="a_node16"><a xlink:href="atom_8cpp.html" target="_top" xlink:title="src/classes/atom.cpp">
<polygon fill="#ffffff" stroke="#000000" points="1000.251,-75.5 1000.251,-93.5 1109.6152,-93.5 1109.6152,-75.5 1000.251,-75.5"/>
<text text-anchor="middle" x="1054.9331" y="-81.5" font-family="Helvetica,sans-Serif" font-size="10.00" fill="#000000">src/classes/atom.cpp</text>
</a>
</g>
</g>
<!-- Node49&#45;&gt;Node51 -->
<g id="edge24" class="edge">
<title>Node49&#45;&gt;Node51</title>
<path fill="none" stroke="#191970" d="M1103.4379,-133.0048C1090.2803,-119.8472 1074.1153,-103.6822 1064.1699,-93.7368"/>
<polygon fill="#191970" stroke="#191970" points="1101.2216,-135.7382 1110.7676,-140.3345 1106.1713,-130.7885 1101.2216,-135.7382"/>
</g>
<!-- Node52 -->
<g id="node17" class="node">
<title>Node52</title>
<g id="a_node17"><a xlink:href="bond_8cpp.html" target="_top" xlink:title="src/classes/bond.cpp">
<polygon fill="#ffffff" stroke="#000000" points="1127.2437,-75.5 1127.2437,-93.5 1236.6226,-93.5 1236.6226,-75.5 1127.2437,-75.5"/>
<text text-anchor="middle" x="1181.9331" y="-81.5" font-family="Helvetica,sans-Serif" font-size="10.00" fill="#000000">src/classes/bond.cpp</text>
</a>
</g>
</g>
<!-- Node49&#45;&gt;Node52 -->
<g id="edge25" class="edge">
<title>Node49&#45;&gt;Node52</title>
<path fill="none" stroke="#191970" d="M1143.0397,-132.2639C1153.6407,-119.2451 1166.4647,-103.4963 1174.4117,-93.7368"/>
<polygon fill="#191970" stroke="#191970" points="1140.0682,-130.3701 1136.4679,-140.3345 1145.4962,-134.7901 1140.0682,-130.3701"/>
</g>
<!-- Node53 -->
<g id="node18" class="node">
<title>Node53</title>
<g id="a_node18"><a xlink:href="dihedral_8cpp.html" target="_top" xlink:title="src/classes/dihedral.cpp">
<polygon fill="#ffffff" stroke="#000000" points="1254.5762,-75.5 1254.5762,-93.5 1377.29,-93.5 1377.29,-75.5 1254.5762,-75.5"/>
<text text-anchor="middle" x="1315.9331" y="-81.5" font-family="Helvetica,sans-Serif" font-size="10.00" fill="#000000">src/classes/dihedral.cpp</text>
</a>
</g>
</g>
<!-- Node49&#45;&gt;Node53 -->
<g id="edge26" class="edge">
<title>Node49&#45;&gt;Node53</title>
<path fill="none" stroke="#191970" d="M1173.3337,-136.7615C1210.9514,-122.975 1261.5753,-104.4217 1291.2872,-93.5325"/>
<polygon fill="#191970" stroke="#191970" points="1171.7697,-133.607 1163.5848,-140.3345 1174.1785,-140.1795 1171.7697,-133.607"/>
</g>
<!-- Node49&#45;&gt;Node54 -->
<g id="edge27" class="edge">
<title>Node49&#45;&gt;Node54</title>
<path fill="none" stroke="#191970" d="M1194.1974,-145.3826C1208.0205,-143.5825 1222.4365,-141.7192 1235.9331,-140 1364.7702,-123.5883 1398.4481,-128.8178 1525.9331,-104 1540.2258,-101.2176 1555.8483,-97.182 1568.9603,-93.5031"/>
<polygon fill="#191970" stroke="#191970" points="1193.7216,-141.9149 1184.2584,-146.6791 1194.6272,-148.8561 1193.7216,-141.9149"/>
</g>
<!-- Node55 -->
<g id="node20" class="node">
<title>Node55</title>
<g id="a_node20"><a xlink:href="residue_8cpp.html" target="_top" xlink:title="src/classes/residue.cpp">
<polygon fill="#ffffff" stroke="#000000" points="732.9678,-75.5 732.9678,-93.5 852.8984,-93.5 852.8984,-75.5 732.9678,-75.5"/>
<text text-anchor="middle" x="792.9331" y="-81.5" font-family="Helvetica,sans-Serif" font-size="10.00" fill="#000000">src/classes/residue.cpp</text>
</a>
</g>
</g>
<!-- Node49&#45;&gt;Node55 -->
<g id="edge28" class="edge">
<title>Node49&#45;&gt;Node55</title>
<path fill="none" stroke="#191970" d="M1055.5811,-139.7744C968.7698,-122.8674 944.6624,-123.2827 861.9331,-104 848.9611,-100.9765 834.7787,-97.0738 822.6639,-93.5551"/>
<polygon fill="#191970" stroke="#191970" points="1055.1269,-143.2521 1065.6148,-141.7508 1056.4798,-136.3841 1055.1269,-143.2521"/>
</g>
<!-- Node49&#45;&gt;Node56 -->
<g id="edge29" class="edge">
<title>Node49&#45;&gt;Node56</title>
<path fill="none" stroke="#191970" d="M1194.1549,-140.7381C1195.4244,-140.4897 1196.6847,-140.2435 1197.9331,-140 1281.4331,-123.7127 1303.1083,-123.4314 1385.9331,-104 1398.9521,-100.9456 1413.191,-97.0774 1425.4076,-93.593"/>
<polygon fill="#191970" stroke="#191970" points="1193.4272,-137.3141 1184.2886,-142.6747 1194.7756,-144.183 1193.4272,-137.3141"/>
</g>
<!-- Node62&#45;&gt;Node38 -->
<g id="edge44" class="edge">
<title>Node62&#45;&gt;Node38</title>
<path fill="none" stroke="#191970" d="M1035.7851,-201.8185C1007.3348,-191.3707 971.8052,-178.3231 945.2645,-168.5765"/>
<polygon fill="#191970" stroke="#191970" points="1034.9331,-205.2342 1045.5267,-205.396 1037.3462,-198.6632 1034.9331,-205.2342"/>
</g>
<!-- Node62&#45;&gt;Node39 -->
<g id="edge46" class="edge">
<title>Node62&#45;&gt;Node39</title>
<path fill="none" stroke="#191970" d="M1018.573,-207.9286C963.8146,-198.0776 883.64,-183.2894 813.9331,-169 809.4025,-168.0713 804.7008,-167.0787 799.992,-166.0651"/>
<polygon fill="#191970" stroke="#191970" points="1018.0325,-211.3875 1028.4936,-209.7093 1019.2693,-204.4976 1018.0325,-211.3875"/>
</g>
<!-- Node62&#45;&gt;Node43 -->
<g id="edge42" class="edge">
<title>Node62&#45;&gt;Node43</title>
<path fill="none" stroke="#191970" d="M1018.7238,-210.2606C1005.5582,-208.4612 991.8083,-206.6292 978.9331,-205 840.0127,-187.4211 799.3892,-211.3953 665.9331,-169 640.3421,-160.8704 637.1603,-151.5771 612.9331,-140 533.9949,-102.2789 513.4868,-93.9656 430.9331,-65 391.3715,-51.119 345.8262,-37.9333 311.4008,-28.5183"/>
<polygon fill="#191970" stroke="#191970" points="1018.2698,-213.731 1028.6535,-211.6264 1019.2237,-206.7963 1018.2698,-213.731"/>
</g>
<!-- Node62&#45;&gt;Node44 -->
<g id="edge43" class="edge">
<title>Node62&#45;&gt;Node44</title>
<path fill="none" stroke="#191970" d="M1018.712,-210.3517C1005.5474,-208.5451 991.8008,-206.6871 978.9331,-205 914.5451,-196.5581 740.5859,-208.3583 688.9331,-169 649.1492,-138.6855 683.2603,-98.2928 645.9331,-65 630.1339,-50.9084 583.2733,-37.8755 541.7372,-28.5803"/>
<polygon fill="#191970" stroke="#191970" points="1018.2574,-213.8221 1028.6415,-211.7196 1019.2127,-206.8876 1018.2574,-213.8221"/>
</g>
<!-- Node62&#45;&gt;Node47 -->
<g id="edge51" class="edge">
<title>Node62&#45;&gt;Node47</title>
<path fill="none" stroke="#191970" d="M1018.7426,-210.1073C1005.5755,-208.3201 991.8202,-206.5318 978.9331,-205 818.82,-185.968 777.5854,-191.5733 617.9331,-169 607.1636,-167.4773 595.6228,-165.5364 584.7806,-163.5735"/>
<polygon fill="#191970" stroke="#191970" points="1018.2899,-213.5778 1028.6728,-211.4694 1019.2412,-206.6428 1018.2899,-213.5778"/>
</g>
<!-- Node62&#45;&gt;Node49 -->
<g id="edge40" class="edge">
<title>Node62&#45;&gt;Node49</title>
<path fill="none" stroke="#191970" d="M1098.2094,-196.8669C1104.1433,-187.4594 1110.8459,-176.8334 1116.0541,-168.5765"/>
<polygon fill="#191970" stroke="#191970" points="1095.2043,-195.0707 1092.8295,-205.396 1101.1249,-198.8053 1095.2043,-195.0707"/>
</g>
<!-- Node62&#45;&gt;Node54 -->
<g id="edge49" class="edge">
<title>Node62&#45;&gt;Node54</title>
<path fill="none" stroke="#191970" d="M1145.6624,-202.3942C1172.0494,-193.9761 1202.7425,-182.6759 1228.9331,-169 1248.3977,-158.8362 1248.5676,-148.2109 1268.9331,-140 1375.9037,-96.8722 1412.8971,-126.9254 1525.9331,-104 1539.9464,-101.1579 1555.2606,-97.2009 1568.2275,-93.5936"/>
<polygon fill="#191970" stroke="#191970" points="1144.282,-199.1584 1135.7785,-205.4783 1146.3671,-205.8406 1144.282,-199.1584"/>
</g>
<!-- Node62&#45;&gt;Node55 -->
<g id="edge50" class="edge">
<title>Node62&#45;&gt;Node55</title>
<path fill="none" stroke="#191970" d="M1018.4378,-208.2207C953.2849,-196.5745 861.0258,-178.7669 846.9331,-169 819.1731,-149.7609 802.4758,-111.1544 796.0162,-93.5829"/>
<polygon fill="#191970" stroke="#191970" points="1018.1875,-211.7309 1028.6456,-210.0347 1019.4123,-204.8389 1018.1875,-211.7309"/>
</g>
<!-- Node62&#45;&gt;Node56 -->
<g id="edge53" class="edge">
<title>Node62&#45;&gt;Node56</title>
<path fill="none" stroke="#191970" d="M1127.3376,-201.2997C1147.6405,-192.3062 1171.9198,-180.8536 1192.9331,-169 1213.0102,-157.6745 1214.8334,-149.2824 1235.9331,-140 1298.6885,-112.392 1319.5664,-121.2019 1385.9331,-104 1398.5114,-100.7398 1412.2998,-96.9463 1424.2882,-93.5765"/>
<polygon fill="#191970" stroke="#191970" points="1125.7761,-198.1625 1118.0194,-205.3795 1128.5836,-204.5749 1125.7761,-198.1625"/>
</g>
<!-- Node62&#45;&gt;Node57 -->
<g id="edge41" class="edge">
<title>Node62&#45;&gt;Node57</title>
<path fill="none" stroke="#191970" d="M1149.2958,-209.9125C1216.1055,-200.0224 1322.8373,-183.9727 1414.9331,-169 1425.4503,-167.2901 1436.6961,-165.3951 1447.4288,-163.5543"/>
<polygon fill="#191970" stroke="#191970" points="1148.7104,-206.4609 1139.3298,-211.386 1149.7342,-213.3857 1148.7104,-206.4609"/>
</g>
<!-- Node62&#45;&gt;Node58 -->
<g id="edge45" class="edge">
<title>Node62&#45;&gt;Node58</title>
<path fill="none" stroke="#191970" d="M1149.5386,-216.7002C1310.4195,-209.5949 1721.2658,-189.9361 1856.9331,-169 1859.5392,-168.5978 1862.199,-168.1359 1864.8771,-167.6298"/>
<polygon fill="#191970" stroke="#191970" points="1149.1453,-213.214 1139.3087,-217.1499 1149.4528,-220.2073 1149.1453,-213.214"/>
</g>
<!-- Node62&#45;&gt;Node59 -->
<g id="edge47" class="edge">
<title>Node62&#45;&gt;Node59</title>
<path fill="none" stroke="#191970" d="M1149.6365,-215.6949C1245.277,-209.5106 1428.2026,-195.2449 1581.9331,-169 1584.8909,-168.495 1587.9195,-167.9271 1590.968,-167.3159"/>
<polygon fill="#191970" stroke="#191970" points="1149.2922,-212.2096 1139.5351,-216.3389 1149.7376,-219.1954 1149.2922,-212.2096"/>
</g>
<!-- Node62&#45;&gt;Node60 -->
<g id="edge48" class="edge">
<title>Node62&#45;&gt;Node60</title>
<path fill="none" stroke="#191970" d="M1149.7722,-216.3862C1262.9992,-210.5255 1501.744,-195.953 1701.9331,-169 1712.853,-167.5298 1724.5714,-165.5383 1735.4897,-163.5026"/>
<polygon fill="#191970" stroke="#191970" points="1149.3479,-212.9032 1139.5398,-216.9097 1149.7056,-219.894 1149.3479,-212.9032"/>
</g>
<!-- Node62&#45;&gt;Node61 -->
<g id="edge52" class="edge">
<title>Node62&#45;&gt;Node61</title>
<path fill="none" stroke="#191970" d="M1148.9999,-203.1072C1198.7946,-190.562 1265.5992,-173.7314 1306.1133,-163.5244"/>
<polygon fill="#191970" stroke="#191970" points="1148.1225,-199.7188 1139.2806,-205.5559 1149.8327,-206.5067 1148.1225,-199.7188"/>
</g>
<!-- Node63 -->
<g id="node28" class="node">
<title>Node63</title>
<g id="a_node28"><a xlink:href="main_8cpp.html" target="_top" xlink:title="src/main.cpp">
<polygon fill="#ffffff" stroke="#000000" points="975.5908,-145.5 975.5908,-163.5 1048.2754,-163.5 1048.2754,-145.5 975.5908,-145.5"/>
<text text-anchor="middle" x="1011.9331" y="-151.5" font-family="Helvetica,sans-Serif" font-size="10.00" fill="#000000">src/main.cpp</text>
</a>
</g>
</g>
<!-- Node62&#45;&gt;Node63 -->
<g id="edge54" class="edge">
<title>Node62&#45;&gt;Node63</title>
<path fill="none" stroke="#191970" d="M1060.5845,-198.4214C1047.5314,-186.6373 1031.9358,-172.558 1021.9846,-163.5743"/>
<polygon fill="#191970" stroke="#191970" points="1058.5421,-201.2929 1068.3102,-205.396 1063.2328,-196.097 1058.5421,-201.2929"/>
</g>
</g>
</svg>
        <g id="navigator" transform="translate(0 0)" fill="#404254">
                <rect fill="#f2f5e9" fill-opacity="0.5" stroke="#606060" stroke-width=".5" x="0" y="0" width="60" height="60"/>
                <use id="zoomplus" xlink:href="#zoomPlus" x="17" y="9" onmousedown="handleZoom(evt,'in')"/>
                <use id="zoomminus" xlink:href="#zoomMin" x="42" y="9" onmousedown="handleZoom(evt,'out')"/>
                <use id="reset" xlink:href="#resetDef" x="30" y="36" onmousedown="handleReset()"/>
                <g id="arrowUp" xlink:href="#dirArrow" transform="translate(30 24)" onmousedown="handlePan(0,-1)">
                  <use xlink:href="#rim" fill="#404040">
                        <set attributeName="fill" to="#808080" begin="arrowUp.mouseover" end="arrowUp.mouseout"/>
                  </use>
                  <path fill="none" stroke="white" stroke-width="1.5" d="M0,-3.0v7 M-2.5,-0.5L0,-3.0L2.5,-0.5"/>
                </g>
                <g id="arrowRight" xlink:href="#dirArrow" transform="rotate(90) translate(36 -43)" onmousedown="handlePan(1,0)">
                  <use xlink:href="#rim" fill="#404040">
                        <set attributeName="fill" to="#808080" begin="arrowRight.mouseover" end="arrowRight.mouseout"/>
                  </use>
                  <path fill="none" stroke="white" stroke-width="1.5" d="M0,-3.0v7 M-2.5,-0.5L0,-3.0L2.5,-0.5"/>
                </g>
                <g id="arrowDown" xlink:href="#dirArrow" transform="rotate(180) translate(-30 -48)" onmousedown="handlePan(0,1)">
                  <use xlink:href="#rim" fill="#404040">
                        <set attributeName="fill" to="#808080" begin="arrowDown.mouseover" end="arrowDown.mouseout"/>
                  </use>
                  <path fill="none" stroke="white" stroke-width="1.5" d="M0,-3.0v7 M-2.5,-0.5L0,-3.0L2.5,-0.5"/>
                </g>
                <g id="arrowLeft" xlink:href="#dirArrow" transform="rotate(270) translate(-36 17)" onmousedown="handlePan(-1,0)">
                  <use xlink:href="#rim" fill="#404040">
                        <set attributeName="fill" to="#808080" begin="arrowLeft.mouseover" end="arrowLeft.mouseout"/>
                  </use>
                  <path fill="none" stroke="white" stroke-width="1.5" d="M0,-3.0v7 M-2.5,-0.5L0,-3.0L2.5,-0.5"/>
                </g>
        </g>
        <svg viewBox="0 0 15 15" width="100%" height="30px" preserveAspectRatio="xMaxYMin meet">
         <g id="arrow_out" transform="scale(0.3 0.3)">
          <a xlink:href="base__graph_8hpp__dep__incl_org.svg" target="_base">
           <rect id="button" ry="5" rx="5" y="6" x="6" height="38" width="38"
                fill="#f2f5e9" fill-opacity="0.5" stroke="#606060" stroke-width="1.0"/>
           <path id="arrow"
             d="M 11.500037,31.436501 C 11.940474,20.09759 22.043105,11.32322 32.158766,21.979434 L 37.068811,17.246167 C 37.068811,17.246167 37.088388,32 37.088388,32 L 22.160133,31.978069 C 22.160133,31.978069 26.997745,27.140456 26.997745,27.140456 C 18.528582,18.264221 13.291696,25.230495 11.500037,31.436501 z"
             style="fill:#404040;"/>
          </a>
         </g>
        </svg>
</svg>
