<?xml version="1.0" encoding="UTF-8" standalone="no"?>
<!DOCTYPE svg PUBLIC "-//W3C//DTD SVG 1.1//EN"
 "http://www.w3.org/Graphics/SVG/1.1/DTD/svg11.dtd">
<!-- Generated by graphviz version 2.40.1 (20161225.0304)
 -->
<!-- Title: include/indigox/graph/base_graph.hpp Pages: 1 -->
<!--zoomable 352 -->
<svg id="main" version="1.1" xmlns="http://www.w3.org/2000/svg" xmlns:xlink="http://www.w3.org/1999/xlink" xml:space="preserve" onload="init(evt)">
<style type="text/css"><![CDATA[
.edge:hover path { stroke: red; }
.edge:hover polygon { stroke: red; fill: red; }
]]></style>
<script type="text/javascript"><![CDATA[
var edges = document.getElementsByTagName('g');
if (edges && edges.length) {
  for (var i=0;i<edges.length;i++) {
    if (edges[i].id.substr(0,4)=='edge') {
      edges[i].setAttribute('class','edge');
    }
  }
}
]]></script>
        <defs>
                <circle id="rim" cx="0" cy="0" r="7"/>
                <circle id="rim2" cx="0" cy="0" r="3.5"/>
                <g id="zoomPlus">
                        <use xlink:href="#rim" fill="#404040">
                                <set attributeName="fill" to="#808080" begin="zoomplus.mouseover" end="zoomplus.mouseout"/>
                        </use>
                        <path d="M-4,0h8M0,-4v8" fill="none" stroke="white" stroke-width="1.5" pointer-events="none"/>
                </g>
                <g id="zoomMin">
                        <use xlink:href="#rim" fill="#404040">
                                <set attributeName="fill" to="#808080" begin="zoomminus.mouseover" end="zoomminus.mouseout"/>
                        </use>
                        <path d="M-4,0h8" fill="none" stroke="white" stroke-width="1.5" pointer-events="none"/>
                </g>
                <g id="dirArrow">
                        <path fill="none" stroke="white" stroke-width="1.5" d="M0,-3.0v7 M-2.5,-0.5L0,-3.0L2.5,-0.5"/>
                </g>
               <g id="resetDef">
                       <use xlink:href="#rim2" fill="#404040">
                               <set attributeName="fill" to="#808080" begin="reset.mouseover" end="reset.mouseout"/>
                       </use>
               </g>
        </defs>

<script type="text/javascript">
var viewWidth = 2481;
var viewHeight = 352;
var sectionId = 'dynsection-0';
</script>
<script xlink:href="svgpan.js"/>
<svg id="graph" class="graph">
<g id="viewport">
<title>include/indigox/graph/base_graph.hpp</title>
<polygon fill="#ffffff" stroke="transparent" points="-4,4 -4,-348 2477.3101,-348 2477.3101,4 -4,4"/>
<!-- Node0 -->
<g id="node1" class="node">
<title>Node0</title>
<g id="a_node1"><a xlink:title=" ">
<polygon fill="#bfbfbf" stroke="#000000" points="384.7441,-315.5 384.7441,-343.5 495.2559,-343.5 495.2559,-315.5 384.7441,-315.5"/>
<text text-anchor="start" x="392.7441" y="-331.5" font-family="Helvetica,sans-Serif" font-size="10.00" fill="#000000">include/indigox/graph</text>
<text text-anchor="middle" x="440" y="-321.5" font-family="Helvetica,sans-Serif" font-size="10.00" fill="#000000">/base_graph.hpp</text>
</a>
</g>
</g>
<!-- Node1 -->
<g id="node2" class="node">
<title>Node1</title>
<g id="a_node2"><a xlink:href="fwd__declares_8hpp.html" target="_top" xlink:title=" ">
<polygon fill="#ffffff" stroke="#000000" points="456.3599,-60.5 456.3599,-78.5 579.6401,-78.5 579.6401,-60.5 456.3599,-60.5"/>
<text text-anchor="middle" x="518" y="-66.5" font-family="Helvetica,sans-Serif" font-size="10.00" fill="#000000">../utils/fwd_declares.hpp</text>
</a>
</g>
</g>
<!-- Node0&#45;&gt;Node1 -->
<g id="edge1" class="edge">
<title>Node0&#45;&gt;Node1</title>
<path fill="none" stroke="#191970" d="M407.412,-315.4408C392.5304,-307.1649 376.3832,-295.1195 368,-279 348.7239,-241.935 349.5536,-222.4849 368,-185 392.7116,-134.7836 450.9158,-100.2691 487.1226,-82.7858"/>
<polygon fill="#191970" stroke="#191970" points="488.6892,-85.917 496.2625,-78.5078 485.7217,-79.5771 488.6892,-85.917"/>
</g>
<!-- Node2 -->
<g id="node3" class="node">
<title>Node2</title>
<g id="a_node3"><a xlink:title=" ">
<polygon fill="#ffffff" stroke="#bfbfbf" points="568.5493,-.5 568.5493,-18.5 613.4507,-18.5 613.4507,-.5 568.5493,-.5"/>
<text text-anchor="middle" x="591" y="-6.5" font-family="Helvetica,sans-Serif" font-size="10.00" fill="#000000">cstdint</text>
</a>
</g>
</g>
<!-- Node0&#45;&gt;Node2 -->
<g id="edge7" class="edge">
<title>Node0&#45;&gt;Node2</title>
<path fill="none" stroke="#191970" d="M495.3777,-328.9297C820.888,-325.224 2471,-301.4124 2471,-199.5 2471,-199.5 2471,-199.5 2471,-134.5 2471,-98.1716 2480.2406,-77.8522 2452,-55 2415.0021,-25.0614 869.5923,-11.6891 623.7949,-9.7499"/>
<polygon fill="#191970" stroke="#191970" points="623.7307,-6.2494 613.7036,-9.671 623.6759,-13.2492 623.7307,-6.2494"/>
</g>
<!-- Node3 -->
<g id="node4" class="node">
<title>Node3</title>
<g id="a_node4"><a xlink:title=" ">
<polygon fill="#ffffff" stroke="#bfbfbf" points="272.9434,-.5 272.9434,-18.5 325.0566,-18.5 325.0566,-.5 272.9434,-.5"/>
<text text-anchor="middle" x="299" y="-6.5" font-family="Helvetica,sans-Serif" font-size="10.00" fill="#000000">memory</text>
</a>
</g>
</g>
<!-- Node0&#45;&gt;Node3 -->
<g id="edge8" class="edge">
<title>Node0&#45;&gt;Node3</title>
<path fill="none" stroke="#191970" d="M384.7192,-324.8659C266.5443,-313.4343 0,-278.8546 0,-199.5 0,-199.5 0,-199.5 0,-134.5 0,-93.899 11.8731,-78.4745 45,-55 79.4669,-30.576 200.9965,-17.4446 262.6092,-12.2226"/>
<polygon fill="#191970" stroke="#191970" points="262.9928,-15.703 272.6723,-11.3951 262.4191,-8.7265 262.9928,-15.703"/>
</g>
<!-- Node4 -->
<g id="node5" class="node">
<title>Node4</title>
<g id="a_node5"><a xlink:href="simple__bimap_8hpp.html" target="_top" xlink:title=" ">
<polygon fill="#ffffff" stroke="#000000" points="376.9731,-255.5 376.9731,-273.5 503.0269,-273.5 503.0269,-255.5 376.9731,-255.5"/>
<text text-anchor="middle" x="440" y="-261.5" font-family="Helvetica,sans-Serif" font-size="10.00" fill="#000000">../utils/simple_bimap.hpp</text>
</a>
</g>
</g>
<!-- Node0&#45;&gt;Node4 -->
<g id="edge4" class="edge">
<title>Node0&#45;&gt;Node4</title>
<path fill="none" stroke="#191970" d="M440,-315.396C440,-306.1723 440,-294.0011 440,-283.8738"/>
<polygon fill="#191970" stroke="#191970" points="443.5001,-283.5743 440,-273.5743 436.5001,-283.5743 443.5001,-283.5743"/>
</g>
<!-- Node6 -->
<g id="node7" class="node">
<title>Node6</title>
<g id="a_node7"><a xlink:title=" ">
<polygon fill="#ffffff" stroke="#bfbfbf" points="520.6875,-250.5 520.6875,-278.5 637.3125,-278.5 637.3125,-250.5 520.6875,-250.5"/>
<text text-anchor="start" x="528.6875" y="-266.5" font-family="Helvetica,sans-Serif" font-size="10.00" fill="#000000">boost/graph/adjacency</text>
<text text-anchor="middle" x="579" y="-256.5" font-family="Helvetica,sans-Serif" font-size="10.00" fill="#000000">_list.hpp</text>
</a>
</g>
</g>
<!-- Node0&#45;&gt;Node6 -->
<g id="edge6" class="edge">
<title>Node0&#45;&gt;Node6</title>
<path fill="none" stroke="#191970" d="M470.1609,-315.396C490.5615,-305.8561 517.7049,-293.1632 539.7813,-282.8397"/>
<polygon fill="#191970" stroke="#191970" points="541.322,-285.983 548.8979,-278.5765 538.3568,-279.6421 541.322,-285.983"/>
</g>
<!-- Node7 -->
<g id="node8" class="node">
<title>Node7</title>
<g id="a_node8"><a xlink:title=" ">
<polygon fill="#ffffff" stroke="#bfbfbf" points="395.3843,-60.5 395.3843,-78.5 438.6157,-78.5 438.6157,-60.5 395.3843,-60.5"/>
<text text-anchor="middle" x="417" y="-66.5" font-family="Helvetica,sans-Serif" font-size="10.00" fill="#000000">vector</text>
</a>
</g>
</g>
<!-- Node0&#45;&gt;Node7 -->
<g id="edge9" class="edge">
<title>Node0&#45;&gt;Node7</title>
<path fill="none" stroke="#191970" d="M384.4736,-315.9579C365.4388,-308.3712 346.1431,-296.7241 335,-279 297.388,-219.1743 300.5391,-181.6946 335,-120 341.0369,-109.1923 367.5281,-93.9901 388.7896,-83.094"/>
<polygon fill="#191970" stroke="#191970" points="390.4364,-86.1836 397.8018,-78.5677 387.2946,-79.9282 390.4364,-86.1836"/>
</g>
<!-- Node8 -->
<g id="node9" class="node">
<title>Node8</title>
<g id="a_node9"><a xlink:href="base__graph__impl_8hpp.html" target="_top" xlink:title=" ">
<polygon fill="#ffffff" stroke="#000000" points="674.9092,-255.5 674.9092,-273.5 787.0908,-273.5 787.0908,-255.5 674.9092,-255.5"/>
<text text-anchor="middle" x="731" y="-261.5" font-family="Helvetica,sans-Serif" font-size="10.00" fill="#000000">base_graph_impl.hpp</text>
</a>
</g>
</g>
<!-- Node0&#45;&gt;Node8 -->
<g id="edge10" class="edge">
<title>Node0&#45;&gt;Node8</title>
<path fill="none" stroke="#191970" d="M495.4198,-317.121C548.7561,-305.2074 628.717,-287.3467 680.3798,-275.8069"/>
<polygon fill="#191970" stroke="#191970" points="681.3223,-279.1827 690.3188,-273.5869 679.7962,-272.3511 681.3223,-279.1827"/>
</g>
<!-- Node1&#45;&gt;Node2 -->
<g id="edge2" class="edge">
<title>Node1&#45;&gt;Node2</title>
<path fill="none" stroke="#191970" d="M529.0871,-60.3873C540.4496,-51.0483 558.3348,-36.3481 571.9667,-25.1438"/>
<polygon fill="#191970" stroke="#191970" points="574.3055,-27.7521 579.8085,-18.6985 569.8607,-22.3443 574.3055,-27.7521"/>
</g>
<!-- Node1&#45;&gt;Node3 -->
<g id="edge3" class="edge">
<title>Node1&#45;&gt;Node3</title>
<path fill="none" stroke="#191970" d="M484.7386,-60.3873C444.3905,-49.333 376.6259,-30.7674 335.0578,-19.3789"/>
<polygon fill="#191970" stroke="#191970" points="335.9094,-15.9832 325.34,-16.7164 334.0597,-22.7345 335.9094,-15.9832"/>
</g>
<!-- Node5 -->
<g id="node6" class="node">
<title>Node5</title>
<g id="a_node6"><a xlink:title=" ">
<polygon fill="#ffffff" stroke="#bfbfbf" points="377.478,-190.5 377.478,-208.5 488.522,-208.5 488.522,-190.5 377.478,-190.5"/>
<text text-anchor="middle" x="433" y="-196.5" font-family="Helvetica,sans-Serif" font-size="10.00" fill="#000000">EASTL/vector_map.h</text>
</a>
</g>
</g>
<!-- Node4&#45;&gt;Node5 -->
<g id="edge5" class="edge">
<title>Node4&#45;&gt;Node5</title>
<path fill="none" stroke="#191970" d="M439.0267,-255.462C438.0143,-246.061 436.3979,-231.0518 435.0939,-218.943"/>
<polygon fill="#191970" stroke="#191970" points="438.5611,-218.4499 434.0104,-208.8821 431.6013,-219.1994 438.5611,-218.4499"/>
</g>
<!-- Node8&#45;&gt;Node5 -->
<g id="edge46" class="edge">
<title>Node8&#45;&gt;Node5</title>
<path fill="none" stroke="#191970" d="M688.2718,-255.4161C641.3384,-245.4062 563.7533,-228.7646 497,-214 492.3106,-212.9628 487.4301,-211.874 482.5487,-210.7787"/>
<polygon fill="#191970" stroke="#191970" points="483.113,-207.3182 472.5884,-208.5358 481.5752,-214.1472 483.113,-207.3182"/>
</g>
<!-- Node8&#45;&gt;Node7 -->
<g id="edge48" class="edge">
<title>Node8&#45;&gt;Node7</title>
<path fill="none" stroke="#191970" d="M734.2883,-255.2472C739.3761,-239.1156 747.0022,-205.6011 731,-185 691.3246,-133.9219 651.011,-170.4654 590,-149 524.1439,-125.8299 510.2103,-113.6368 447,-84 446.3126,-83.6777 445.6167,-83.3503 444.9152,-83.0192"/>
<polygon fill="#191970" stroke="#191970" points="446.2237,-79.7656 435.6912,-78.6181 443.2093,-86.0833 446.2237,-79.7656"/>
</g>
<!-- Node9 -->
<g id="node10" class="node">
<title>Node9</title>
<g id="a_node10"><a xlink:href="connectivity_8hpp.html" target="_top" xlink:title=" ">
<polygon fill="#ffffff" stroke="#000000" points="599.0913,-120.5 599.0913,-148.5 692.9087,-148.5 692.9087,-120.5 599.0913,-120.5"/>
<text text-anchor="start" x="607.0913" y="-136.5" font-family="Helvetica,sans-Serif" font-size="10.00" fill="#000000">../algorithm/graph</text>
<text text-anchor="middle" x="646" y="-126.5" font-family="Helvetica,sans-Serif" font-size="10.00" fill="#000000">/connectivity.hpp</text>
</a>
</g>
</g>
<!-- Node8&#45;&gt;Node9 -->
<g id="edge11" class="edge">
<title>Node8&#45;&gt;Node9</title>
<path fill="none" stroke="#191970" d="M740.4862,-255.1226C754.9507,-239.6556 779.3072,-208.2011 764,-185 750.2022,-164.0867 725.7619,-151.8024 702.6893,-144.6014"/>
<polygon fill="#191970" stroke="#191970" points="703.4963,-141.1921 692.9198,-141.8162 701.577,-147.9238 703.4963,-141.1921"/>
</g>
<!-- Node11 -->
<g id="node12" class="node">
<title>Node11</title>
<g id="a_node12"><a xlink:href="cycles_8hpp.html" target="_top" xlink:title=" ">
<polygon fill="#ffffff" stroke="#000000" points="506.0913,-185.5 506.0913,-213.5 599.9087,-213.5 599.9087,-185.5 506.0913,-185.5"/>
<text text-anchor="start" x="514.0913" y="-201.5" font-family="Helvetica,sans-Serif" font-size="10.00" fill="#000000">../algorithm/graph</text>
<text text-anchor="middle" x="553" y="-191.5" font-family="Helvetica,sans-Serif" font-size="10.00" fill="#000000">/cycles.hpp</text>
</a>
</g>
</g>
<!-- Node8&#45;&gt;Node11 -->
<g id="edge16" class="edge">
<title>Node8&#45;&gt;Node11</title>
<path fill="none" stroke="#191970" d="M706.2499,-255.462C679.2103,-245.588 635.2287,-229.5273 601.3023,-217.1385"/>
<polygon fill="#191970" stroke="#191970" points="602.1693,-213.7291 591.5754,-213.5865 599.7681,-220.3044 602.1693,-213.7291"/>
</g>
<!-- Node18 -->
<g id="node19" class="node">
<title>Node18</title>
<g id="a_node19"><a xlink:href="serialise_8hpp.html" target="_top" xlink:title=" ">
<polygon fill="#ffffff" stroke="#000000" points="1402.4805,-125.5 1402.4805,-143.5 1503.5195,-143.5 1503.5195,-125.5 1402.4805,-125.5"/>
<text text-anchor="middle" x="1453" y="-131.5" font-family="Helvetica,sans-Serif" font-size="10.00" fill="#000000">../utils/serialise.hpp</text>
</a>
</g>
</g>
<!-- Node8&#45;&gt;Node18 -->
<g id="edge26" class="edge">
<title>Node8&#45;&gt;Node18</title>
<path fill="none" stroke="#191970" d="M781.1964,-255.4619C910.202,-232.2337 1252.9671,-170.517 1392.5646,-145.3817"/>
<polygon fill="#191970" stroke="#191970" points="1393.4351,-148.7813 1402.6566,-143.5646 1392.1946,-141.8921 1393.4351,-148.7813"/>
</g>
<!-- Node33 -->
<g id="node34" class="node">
<title>Node33</title>
<g id="a_node34"><a xlink:href="triple_8hpp.html" target="_top" xlink:title=" ">
<polygon fill="#ffffff" stroke="#000000" points="1453.9829,-190.5 1453.9829,-208.5 1540.0171,-208.5 1540.0171,-190.5 1453.9829,-190.5"/>
<text text-anchor="middle" x="1497" y="-196.5" font-family="Helvetica,sans-Serif" font-size="10.00" fill="#000000">../utils/triple.hpp</text>
</a>
</g>
</g>
<!-- Node8&#45;&gt;Node33 -->
<g id="edge42" class="edge">
<title>Node8&#45;&gt;Node33</title>
<path fill="none" stroke="#191970" d="M787.3258,-259.7204C930.0746,-247.6072 1304.5622,-215.8296 1443.8289,-204.0119"/>
<polygon fill="#191970" stroke="#191970" points="1444.1668,-207.4959 1453.8351,-203.1628 1443.5749,-200.521 1444.1668,-207.4959"/>
</g>
<!-- Node35 -->
<g id="node36" class="node">
<title>Node35</title>
<g id="a_node36"><a xlink:title=" ">
<polygon fill="#ffffff" stroke="#bfbfbf" points="617.5347,-190.5 617.5347,-208.5 722.4653,-208.5 722.4653,-190.5 617.5347,-190.5"/>
<text text-anchor="middle" x="670" y="-196.5" font-family="Helvetica,sans-Serif" font-size="10.00" fill="#000000">EASTL/vector_set.h</text>
</a>
</g>
</g>
<!-- Node8&#45;&gt;Node35 -->
<g id="edge47" class="edge">
<title>Node8&#45;&gt;Node35</title>
<path fill="none" stroke="#191970" d="M722.5182,-255.462C713.0655,-245.3895 697.5711,-228.879 685.856,-216.3957"/>
<polygon fill="#191970" stroke="#191970" points="688.2001,-213.7789 678.8048,-208.8821 683.0958,-218.5691 688.2001,-213.7789"/>
</g>
<!-- Node9&#45;&gt;Node1 -->
<g id="edge12" class="edge">
<title>Node9&#45;&gt;Node1</title>
<path fill="none" stroke="#191970" d="M618.2259,-120.396C596.4493,-109.3375 566.3292,-94.0422 544.8053,-83.112"/>
<polygon fill="#191970" stroke="#191970" points="546.3704,-79.9815 535.8694,-78.5743 543.2009,-86.2228 546.3704,-79.9815"/>
</g>
<!-- Node9&#45;&gt;Node2 -->
<g id="edge13" class="edge">
<title>Node9&#45;&gt;Node2</title>
<path fill="none" stroke="#191970" d="M649.24,-120.2081C652.2443,-103.6511 654.9108,-75.9648 645,-55 638.964,-42.2318 627.425,-31.741 616.5581,-24.0636"/>
<polygon fill="#191970" stroke="#191970" points="618.3867,-21.0774 608.1052,-18.52 614.5478,-26.9308 618.3867,-21.0774"/>
</g>
<!-- Node9&#45;&gt;Node7 -->
<g id="edge15" class="edge">
<title>Node9&#45;&gt;Node7</title>
<path fill="none" stroke="#191970" d="M598.9568,-125.3658C558.1172,-116.7774 497.7379,-102.4848 447,-84 445.8076,-83.5656 444.5993,-83.0992 443.3865,-82.6094"/>
<polygon fill="#191970" stroke="#191970" points="444.7541,-79.3872 434.1931,-78.5418 441.9218,-85.7887 444.7541,-79.3872"/>
</g>
<!-- Node10 -->
<g id="node11" class="node">
<title>Node10</title>
<g id="a_node11"><a xlink:title=" ">
<polygon fill="#ffffff" stroke="#bfbfbf" points="597.6133,-60.5 597.6133,-78.5 636.3867,-78.5 636.3867,-60.5 597.6133,-60.5"/>
<text text-anchor="middle" x="617" y="-66.5" font-family="Helvetica,sans-Serif" font-size="10.00" fill="#000000">limits</text>
</a>
</g>
</g>
<!-- Node9&#45;&gt;Node10 -->
<g id="edge14" class="edge">
<title>Node9&#45;&gt;Node10</title>
<path fill="none" stroke="#191970" d="M639.7074,-120.396C635.4595,-110.8748 629.8103,-98.2128 625.2094,-87.9003"/>
<polygon fill="#191970" stroke="#191970" points="628.3193,-86.2806 621.0485,-78.5743 621.9267,-89.1327 628.3193,-86.2806"/>
</g>
<!-- Node11&#45;&gt;Node1 -->
<g id="edge17" class="edge">
<title>Node11&#45;&gt;Node1</title>
<path fill="none" stroke="#191970" d="M549.1878,-185.3402C542.8627,-161.8472 530.1953,-114.7968 523.1052,-88.4623"/>
<polygon fill="#191970" stroke="#191970" points="526.4223,-87.3198 520.4429,-78.5736 519.663,-89.1397 526.4223,-87.3198"/>
</g>
<!-- Node12 -->
<g id="node13" class="node">
<title>Node12</title>
<g id="a_node13"><a xlink:href="numerics_8hpp.html" target="_top" xlink:title=" ">
<polygon fill="#ffffff" stroke="#000000" points="169.3696,-125.5 169.3696,-143.5 282.6304,-143.5 282.6304,-125.5 169.3696,-125.5"/>
<text text-anchor="middle" x="226" y="-131.5" font-family="Helvetica,sans-Serif" font-size="10.00" fill="#000000">../../utils/numerics.hpp</text>
</a>
</g>
</g>
<!-- Node11&#45;&gt;Node12 -->
<g id="edge18" class="edge">
<title>Node11&#45;&gt;Node12</title>
<path fill="none" stroke="#191970" d="M505.9516,-186.8508C503.2662,-186.2054 500.6016,-185.5836 498,-185 427.7412,-169.2392 346.4895,-154.6191 291.2157,-145.2088"/>
<polygon fill="#191970" stroke="#191970" points="291.6498,-141.7325 281.2057,-143.5132 290.4807,-148.6342 291.6498,-141.7325"/>
</g>
<!-- Node12&#45;&gt;Node2 -->
<g id="edge21" class="edge">
<title>Node12&#45;&gt;Node2</title>
<path fill="none" stroke="#191970" d="M169.2493,-127.4013C106.7296,-117.3983 19.6595,-95.6575 57,-55 74.0337,-36.4532 444.2337,-16.7319 558.0247,-11.0897"/>
<polygon fill="#191970" stroke="#191970" points="558.4,-14.5755 568.2158,-10.5881 558.0558,-7.584 558.4,-14.5755"/>
</g>
<!-- Node12&#45;&gt;Node7 -->
<g id="edge25" class="edge">
<title>Node12&#45;&gt;Node7</title>
<path fill="none" stroke="#191970" d="M258.9193,-125.4871C291.5769,-116.2256 342.847,-100.8179 386,-84 387.0242,-83.6009 388.0622,-83.1837 389.1067,-82.7532"/>
<polygon fill="#191970" stroke="#191970" points="390.7298,-85.8633 398.4851,-78.6448 387.921,-79.4515 390.7298,-85.8633"/>
</g>
<!-- Node13 -->
<g id="node14" class="node">
<title>Node13</title>
<g id="a_node14"><a xlink:title=" ">
<polygon fill="#ffffff" stroke="#bfbfbf" points="66.436,-60.5 66.436,-78.5 123.564,-78.5 123.564,-60.5 66.436,-60.5"/>
<text text-anchor="middle" x="95" y="-66.5" font-family="Helvetica,sans-Serif" font-size="10.00" fill="#000000">algorithm</text>
</a>
</g>
</g>
<!-- Node12&#45;&gt;Node13 -->
<g id="edge19" class="edge">
<title>Node12&#45;&gt;Node13</title>
<path fill="none" stroke="#191970" d="M207.785,-125.462C185.717,-114.5122 148.3154,-95.9542 122.6765,-83.2326"/>
<polygon fill="#191970" stroke="#191970" points="123.9962,-79.9803 113.4826,-78.6708 120.8848,-86.2508 123.9962,-79.9803"/>
</g>
<!-- Node14 -->
<g id="node15" class="node">
<title>Node14</title>
<g id="a_node15"><a xlink:title=" ">
<polygon fill="#ffffff" stroke="#bfbfbf" points="141.3843,-60.5 141.3843,-78.5 184.6157,-78.5 184.6157,-60.5 141.3843,-60.5"/>
<text text-anchor="middle" x="163" y="-66.5" font-family="Helvetica,sans-Serif" font-size="10.00" fill="#000000">cmath</text>
</a>
</g>
</g>
<!-- Node12&#45;&gt;Node14 -->
<g id="edge20" class="edge">
<title>Node12&#45;&gt;Node14</title>
<path fill="none" stroke="#191970" d="M217.2401,-125.462C207.4775,-115.3895 191.475,-98.879 179.3759,-86.3957"/>
<polygon fill="#191970" stroke="#191970" points="181.5665,-83.6269 172.0935,-78.8821 176.54,-88.4988 181.5665,-83.6269"/>
</g>
<!-- Node15 -->
<g id="node16" class="node">
<title>Node15</title>
<g id="a_node16"><a xlink:title=" ">
<polygon fill="#ffffff" stroke="#bfbfbf" points="202.4385,-60.5 202.4385,-78.5 249.5615,-78.5 249.5615,-60.5 202.4385,-60.5"/>
<text text-anchor="middle" x="226" y="-66.5" font-family="Helvetica,sans-Serif" font-size="10.00" fill="#000000">iterator</text>
</a>
</g>
</g>
<!-- Node12&#45;&gt;Node15 -->
<g id="edge22" class="edge">
<title>Node12&#45;&gt;Node15</title>
<path fill="none" stroke="#191970" d="M226,-125.462C226,-116.061 226,-101.0518 226,-88.943"/>
<polygon fill="#191970" stroke="#191970" points="229.5001,-88.8821 226,-78.8821 222.5001,-88.8822 229.5001,-88.8821"/>
</g>
<!-- Node16 -->
<g id="node17" class="node">
<title>Node16</title>
<g id="a_node17"><a xlink:title=" ">
<polygon fill="#ffffff" stroke="#bfbfbf" points="267.2168,-60.5 267.2168,-78.5 318.7832,-78.5 318.7832,-60.5 267.2168,-60.5"/>
<text text-anchor="middle" x="293" y="-66.5" font-family="Helvetica,sans-Serif" font-size="10.00" fill="#000000">numeric</text>
</a>
</g>
</g>
<!-- Node12&#45;&gt;Node16 -->
<g id="edge23" class="edge">
<title>Node12&#45;&gt;Node16</title>
<path fill="none" stroke="#191970" d="M235.3161,-125.462C245.7974,-115.2936 263.0418,-98.5639 275.9509,-86.0402"/>
<polygon fill="#191970" stroke="#191970" points="278.5889,-88.3574 283.3292,-78.8821 273.7147,-83.3332 278.5889,-88.3574"/>
</g>
<!-- Node17 -->
<g id="node18" class="node">
<title>Node17</title>
<g id="a_node18"><a xlink:title=" ">
<polygon fill="#ffffff" stroke="#bfbfbf" points="336.7734,-60.5 336.7734,-78.5 377.2266,-78.5 377.2266,-60.5 336.7734,-60.5"/>
<text text-anchor="middle" x="357" y="-66.5" font-family="Helvetica,sans-Serif" font-size="10.00" fill="#000000">string</text>
</a>
</g>
</g>
<!-- Node12&#45;&gt;Node17 -->
<g id="edge24" class="edge">
<title>Node12&#45;&gt;Node17</title>
<path fill="none" stroke="#191970" d="M244.4373,-125.3988C264.8746,-115.3041 298.8097,-98.5235 328,-84 328.5512,-83.7257 329.1083,-83.4485 329.6696,-83.1689"/>
<polygon fill="#191970" stroke="#191970" points="331.5203,-86.1571 338.9059,-78.5608 328.3952,-79.8934 331.5203,-86.1571"/>
</g>
<!-- Node18&#45;&gt;Node1 -->
<g id="edge27" class="edge">
<title>Node18&#45;&gt;Node1</title>
<path fill="none" stroke="#191970" d="M1402.1217,-134.0624C1268.3491,-132.3641 895.9188,-124.1004 589,-84 581.8816,-83.0699 574.4089,-81.8341 567.0937,-80.4749"/>
<polygon fill="#191970" stroke="#191970" points="567.7483,-77.0368 557.2639,-78.5623 566.4113,-83.9079 567.7483,-77.0368"/>
</g>
<!-- Node19 -->
<g id="node20" class="node">
<title>Node19</title>
<g id="a_node20"><a xlink:title=" ">
<polygon fill="#ffffff" stroke="#bfbfbf" points="691.6997,-60.5 691.6997,-78.5 788.3003,-78.5 788.3003,-60.5 691.6997,-60.5"/>
<text text-anchor="middle" x="740" y="-66.5" font-family="Helvetica,sans-Serif" font-size="10.00" fill="#000000">cereal/access.hpp</text>
</a>
</g>
</g>
<!-- Node18&#45;&gt;Node19 -->
<g id="edge28" class="edge">
<title>Node18&#45;&gt;Node19</title>
<path fill="none" stroke="#191970" d="M1402.4442,-133.5691C1291.9128,-130.8877 1020.7341,-120.7874 797,-84 791.9039,-83.1621 786.5965,-82.0893 781.3603,-80.9071"/>
<polygon fill="#191970" stroke="#191970" points="781.9931,-77.4597 771.4527,-78.5318 780.3611,-84.2668 781.9931,-77.4597"/>
</g>
<!-- Node20 -->
<g id="node21" class="node">
<title>Node20</title>
<g id="a_node21"><a xlink:title=" ">
<polygon fill="#ffffff" stroke="#bfbfbf" points="806.0815,-60.5 806.0815,-78.5 929.9185,-78.5 929.9185,-60.5 806.0815,-60.5"/>
<text text-anchor="middle" x="868" y="-66.5" font-family="Helvetica,sans-Serif" font-size="10.00" fill="#000000">cereal/archives/json.hpp</text>
</a>
</g>
</g>
<!-- Node18&#45;&gt;Node20 -->
<g id="edge29" class="edge">
<title>Node18&#45;&gt;Node20</title>
<path fill="none" stroke="#191970" d="M1402.4443,-131.2769C1310.0559,-124.9999 1107.903,-109.4745 939,-84 932.3134,-82.9915 925.3048,-81.7673 918.404,-80.4624"/>
<polygon fill="#191970" stroke="#191970" points="918.907,-76.9945 908.421,-78.5086 917.5625,-83.8642 918.907,-76.9945"/>
</g>
<!-- Node21 -->
<g id="node22" class="node">
<title>Node21</title>
<g id="a_node22"><a xlink:title=" ">
<polygon fill="#ffffff" stroke="#bfbfbf" points="947.9165,-55.5 947.9165,-83.5 1070.0835,-83.5 1070.0835,-55.5 947.9165,-55.5"/>
<text text-anchor="start" x="955.9165" y="-71.5" font-family="Helvetica,sans-Serif" font-size="10.00" fill="#000000">cereal/archives/portable</text>
<text text-anchor="middle" x="1009" y="-61.5" font-family="Helvetica,sans-Serif" font-size="10.00" fill="#000000">_binary.hpp</text>
</a>
</g>
</g>
<!-- Node18&#45;&gt;Node21 -->
<g id="edge30" class="edge">
<title>Node18&#45;&gt;Node21</title>
<path fill="none" stroke="#191970" d="M1402.3174,-128.7983C1332.2195,-120.6604 1201.5172,-104.5809 1080.5881,-84.2038"/>
<polygon fill="#191970" stroke="#191970" points="1080.859,-80.6997 1070.414,-82.4751 1079.6864,-87.6008 1080.859,-80.6997"/>
</g>
<!-- Node22 -->
<g id="node23" class="node">
<title>Node22</title>
<g id="a_node23"><a xlink:title=" ">
<polygon fill="#ffffff" stroke="#bfbfbf" points="1087.6431,-60.5 1087.6431,-78.5 1180.3569,-78.5 1180.3569,-60.5 1087.6431,-60.5"/>
<text text-anchor="middle" x="1134" y="-66.5" font-family="Helvetica,sans-Serif" font-size="10.00" fill="#000000">cereal/cereal.hpp</text>
</a>
</g>
</g>
<!-- Node18&#45;&gt;Node22 -->
<g id="edge31" class="edge">
<title>Node18&#45;&gt;Node22</title>
<path fill="none" stroke="#191970" d="M1402.1742,-125.8478C1348.8558,-116.5215 1262.7179,-100.7472 1189,-84 1184.9376,-83.0771 1180.7204,-82.0646 1176.5098,-81.0171"/>
<polygon fill="#191970" stroke="#191970" points="1177.3278,-77.6137 1166.7731,-78.535 1175.5986,-84.3968 1177.3278,-77.6137"/>
</g>
<!-- Node23 -->
<g id="node24" class="node">
<title>Node23</title>
<g id="a_node24"><a xlink:title=" ">
<polygon fill="#ffffff" stroke="#bfbfbf" points="1197.8984,-60.5 1197.8984,-78.5 1312.1016,-78.5 1312.1016,-60.5 1197.8984,-60.5"/>
<text text-anchor="middle" x="1255" y="-66.5" font-family="Helvetica,sans-Serif" font-size="10.00" fill="#000000">cereal/types/array.hpp</text>
</a>
</g>
</g>
<!-- Node18&#45;&gt;Node23 -->
<g id="edge32" class="edge">
<title>Node18&#45;&gt;Node23</title>
<path fill="none" stroke="#191970" d="M1425.4689,-125.462C1390.8411,-114.0943 1331.2347,-94.5265 1292.4746,-81.8023"/>
<polygon fill="#191970" stroke="#191970" points="1293.2085,-78.3595 1282.6157,-78.5658 1291.0251,-85.0103 1293.2085,-78.3595"/>
</g>
<!-- Node24 -->
<g id="node25" class="node">
<title>Node24</title>
<g id="a_node25"><a xlink:title=" ">
<polygon fill="#ffffff" stroke="#bfbfbf" points="1329.9707,-60.5 1329.9707,-78.5 1446.0293,-78.5 1446.0293,-60.5 1329.9707,-60.5"/>
<text text-anchor="middle" x="1388" y="-66.5" font-family="Helvetica,sans-Serif" font-size="10.00" fill="#000000">cereal/types/bitset.hpp</text>
</a>
</g>
</g>
<!-- Node18&#45;&gt;Node24 -->
<g id="edge33" class="edge">
<title>Node18&#45;&gt;Node24</title>
<path fill="none" stroke="#191970" d="M1443.962,-125.462C1433.7936,-115.2936 1417.0639,-98.5639 1404.5402,-86.0402"/>
<polygon fill="#191970" stroke="#191970" points="1406.9281,-83.4784 1397.3821,-78.8821 1401.9784,-88.4281 1406.9281,-83.4784"/>
</g>
<!-- Node25 -->
<g id="node26" class="node">
<title>Node25</title>
<g id="a_node26"><a xlink:title=" ">
<polygon fill="#ffffff" stroke="#bfbfbf" points="1464.1382,-55.5 1464.1382,-83.5 1571.8618,-83.5 1571.8618,-55.5 1464.1382,-55.5"/>
<text text-anchor="start" x="1472.1382" y="-71.5" font-family="Helvetica,sans-Serif" font-size="10.00" fill="#000000">cereal/types/boost</text>
<text text-anchor="middle" x="1518" y="-61.5" font-family="Helvetica,sans-Serif" font-size="10.00" fill="#000000">_dynamic_bitset.hpp</text>
</a>
</g>
</g>
<!-- Node18&#45;&gt;Node25 -->
<g id="edge34" class="edge">
<title>Node18&#45;&gt;Node25</title>
<path fill="none" stroke="#191970" d="M1462.038,-125.462C1470.8514,-116.6486 1484.594,-102.906 1496.2547,-91.2453"/>
<polygon fill="#191970" stroke="#191970" points="1498.9479,-93.5019 1503.5441,-83.9559 1493.9981,-88.5521 1498.9479,-93.5019"/>
</g>
<!-- Node26 -->
<g id="node27" class="node">
<title>Node26</title>
<g id="a_node27"><a xlink:title=" ">
<polygon fill="#ffffff" stroke="#bfbfbf" points="1590.0913,-55.5 1590.0913,-83.5 1683.9087,-83.5 1683.9087,-55.5 1590.0913,-55.5"/>
<text text-anchor="start" x="1598.0913" y="-71.5" font-family="Helvetica,sans-Serif" font-size="10.00" fill="#000000">cereal/types/eastl</text>
<text text-anchor="middle" x="1637" y="-61.5" font-family="Helvetica,sans-Serif" font-size="10.00" fill="#000000">_bitset.hpp</text>
</a>
</g>
</g>
<!-- Node18&#45;&gt;Node26 -->
<g id="edge35" class="edge">
<title>Node18&#45;&gt;Node26</title>
<path fill="none" stroke="#191970" d="M1478.5844,-125.462C1506.6554,-115.5456 1552.3901,-99.3894 1587.5205,-86.9792"/>
<polygon fill="#191970" stroke="#191970" points="1588.8612,-90.2176 1597.1243,-83.5865 1586.5295,-83.6173 1588.8612,-90.2176"/>
</g>
<!-- Node27 -->
<g id="node28" class="node">
<title>Node27</title>
<g id="a_node28"><a xlink:title=" ">
<polygon fill="#ffffff" stroke="#bfbfbf" points="1701.6875,-60.5 1701.6875,-78.5 1818.3125,-78.5 1818.3125,-60.5 1701.6875,-60.5"/>
<text text-anchor="middle" x="1760" y="-66.5" font-family="Helvetica,sans-Serif" font-size="10.00" fill="#000000">cereal/types/eigen.hpp</text>
</a>
</g>
</g>
<!-- Node18&#45;&gt;Node27 -->
<g id="edge36" class="edge">
<title>Node18&#45;&gt;Node27</title>
<path fill="none" stroke="#191970" d="M1489.4351,-125.4498C1497.1995,-123.5899 1505.3608,-121.6863 1513,-120 1592.6664,-102.4143 1613.1284,-100.6289 1693,-84 1698.041,-82.9505 1703.2919,-81.8415 1708.5376,-80.7233"/>
<polygon fill="#191970" stroke="#191970" points="1709.5184,-84.0926 1718.5627,-78.5743 1708.0512,-77.2481 1709.5184,-84.0926"/>
</g>
<!-- Node28 -->
<g id="node29" class="node">
<title>Node28</title>
<g id="a_node29"><a xlink:title=" ">
<polygon fill="#ffffff" stroke="#bfbfbf" points="1836.1948,-60.5 1836.1948,-78.5 1947.8052,-78.5 1947.8052,-60.5 1836.1948,-60.5"/>
<text text-anchor="middle" x="1892" y="-66.5" font-family="Helvetica,sans-Serif" font-size="10.00" fill="#000000">cereal/types/map.hpp</text>
</a>
</g>
</g>
<!-- Node18&#45;&gt;Node28 -->
<g id="edge37" class="edge">
<title>Node18&#45;&gt;Node28</title>
<path fill="none" stroke="#191970" d="M1487.1144,-125.4872C1495.5338,-123.4758 1504.5587,-121.498 1513,-120 1651.3087,-95.4551 1688.4802,-107.3243 1827,-84 1832.7703,-83.0284 1838.7994,-81.8742 1844.7596,-80.6477"/>
<polygon fill="#191970" stroke="#191970" points="1845.6171,-84.0436 1854.6671,-78.5346 1844.1569,-77.1976 1845.6171,-84.0436"/>
</g>
<!-- Node29 -->
<g id="node30" class="node">
<title>Node29</title>
<g id="a_node30"><a xlink:title=" ">
<polygon fill="#ffffff" stroke="#bfbfbf" points="1966.2334,-60.5 1966.2334,-78.5 2093.7666,-78.5 2093.7666,-60.5 1966.2334,-60.5"/>
<text text-anchor="middle" x="2030" y="-66.5" font-family="Helvetica,sans-Serif" font-size="10.00" fill="#000000">cereal/types/memory.hpp</text>
</a>
</g>
</g>
<!-- Node18&#45;&gt;Node29 -->
<g id="edge38" class="edge">
<title>Node18&#45;&gt;Node29</title>
<path fill="none" stroke="#191970" d="M1486.4504,-125.4385C1495.0491,-123.3792 1504.3233,-121.3914 1513,-120 1708.4832,-88.6511 1760.9147,-111.331 1957,-84 1964.1266,-83.0067 1971.607,-81.7594 1978.9501,-80.4156"/>
<polygon fill="#191970" stroke="#191970" points="1979.6611,-83.8432 1988.832,-78.5382 1978.3545,-76.9662 1979.6611,-83.8432"/>
</g>
<!-- Node30 -->
<g id="node31" class="node">
<title>Node30</title>
<g id="a_node31"><a xlink:title=" ">
<polygon fill="#ffffff" stroke="#bfbfbf" points="2111.8984,-60.5 2111.8984,-78.5 2226.1016,-78.5 2226.1016,-60.5 2111.8984,-60.5"/>
<text text-anchor="middle" x="2169" y="-66.5" font-family="Helvetica,sans-Serif" font-size="10.00" fill="#000000">cereal/types/utility.hpp</text>
</a>
</g>
</g>
<!-- Node18&#45;&gt;Node30 -->
<g id="edge39" class="edge">
<title>Node18&#45;&gt;Node30</title>
<path fill="none" stroke="#191970" d="M1485.8038,-125.469C1494.5778,-123.3572 1504.0979,-121.3366 1513,-120 1772.7979,-80.9929 1842.8094,-120.2955 2103,-84 2109.3288,-83.1172 2115.9523,-81.9536 2122.4586,-80.6687"/>
<polygon fill="#191970" stroke="#191970" points="2123.4503,-84.0374 2132.5271,-78.5726 2122.0236,-77.1843 2123.4503,-84.0374"/>
</g>
<!-- Node31 -->
<g id="node32" class="node">
<title>Node31</title>
<g id="a_node32"><a xlink:title=" ">
<polygon fill="#ffffff" stroke="#bfbfbf" points="2244.5791,-60.5 2244.5791,-78.5 2363.4209,-78.5 2363.4209,-60.5 2244.5791,-60.5"/>
<text text-anchor="middle" x="2304" y="-66.5" font-family="Helvetica,sans-Serif" font-size="10.00" fill="#000000">cereal/types/vector.hpp</text>
</a>
</g>
</g>
<!-- Node18&#45;&gt;Node31 -->
<g id="edge40" class="edge">
<title>Node18&#45;&gt;Node31</title>
<path fill="none" stroke="#191970" d="M1485.4809,-125.4774C1494.3412,-123.3385 1503.9845,-121.3024 1513,-120 1830.9866,-74.0628 1916.3604,-125.1642 2235,-84 2241.8515,-83.1149 2249.0356,-81.9153 2256.0726,-80.5829"/>
<polygon fill="#191970" stroke="#191970" points="2257.1003,-83.9469 2266.2216,-78.557 2255.7299,-77.0823 2257.1003,-83.9469"/>
</g>
<!-- Node32 -->
<g id="node33" class="node">
<title>Node32</title>
<g id="a_node33"><a xlink:title=" ">
<polygon fill="#ffffff" stroke="#bfbfbf" points="2380.9336,-60.5 2380.9336,-78.5 2443.0664,-78.5 2443.0664,-60.5 2380.9336,-60.5"/>
<text text-anchor="middle" x="2412" y="-66.5" font-family="Helvetica,sans-Serif" font-size="10.00" fill="#000000">type_traits</text>
</a>
</g>
</g>
<!-- Node18&#45;&gt;Node32 -->
<g id="edge41" class="edge">
<title>Node18&#45;&gt;Node32</title>
<path fill="none" stroke="#191970" d="M1485.4741,-125.4295C1494.3344,-123.2907 1503.9794,-121.2666 1513,-120 1891.4008,-66.867 1997.1161,-157.9754 2372,-84 2375.0188,-83.4043 2378.1142,-82.6185 2381.1815,-81.7204"/>
<polygon fill="#191970" stroke="#191970" points="2382.3538,-85.0192 2390.7545,-78.5633 2380.1614,-78.3714 2382.3538,-85.0192"/>
</g>
<!-- Node33&#45;&gt;Node18 -->
<g id="edge45" class="edge">
<title>Node33&#45;&gt;Node18</title>
<path fill="none" stroke="#191970" d="M1490.882,-190.462C1484.2585,-180.6773 1473.5224,-164.8172 1465.1679,-152.4753"/>
<polygon fill="#191970" stroke="#191970" points="1467.8551,-150.2013 1459.351,-143.8821 1462.0583,-154.1252 1467.8551,-150.2013"/>
</g>
<!-- Node33&#45;&gt;Node32 -->
<g id="edge43" class="edge">
<title>Node33&#45;&gt;Node32</title>
<path fill="none" stroke="#191970" d="M1540.4025,-197.1023C1669.0128,-189.2903 2058.663,-160.5141 2372,-84 2374.5115,-83.3867 2377.084,-82.6701 2379.6538,-81.8898"/>
<polygon fill="#191970" stroke="#191970" points="2381.029,-85.1212 2389.4174,-78.6492 2378.8239,-78.4776 2381.029,-85.1212"/>
</g>
<!-- Node34 -->
<g id="node35" class="node">
<title>Node34</title>
<g id="a_node35"><a xlink:title=" ">
<polygon fill="#ffffff" stroke="#bfbfbf" points="1521.6084,-125.5 1521.6084,-143.5 1560.3916,-143.5 1560.3916,-125.5 1521.6084,-125.5"/>
<text text-anchor="middle" x="1541" y="-131.5" font-family="Helvetica,sans-Serif" font-size="10.00" fill="#000000">utility</text>
</a>
</g>
</g>
<!-- Node33&#45;&gt;Node34 -->
<g id="edge44" class="edge">
<title>Node33&#45;&gt;Node34</title>
<path fill="none" stroke="#191970" d="M1503.118,-190.462C1509.7415,-180.6773 1520.4776,-164.8172 1528.8321,-152.4753"/>
<polygon fill="#191970" stroke="#191970" points="1531.9417,-154.1252 1534.649,-143.8821 1526.1449,-150.2013 1531.9417,-154.1252"/>
</g>
</g>
</svg>
        <g id="navigator" transform="translate(0 0)" fill="#404254">
                <rect fill="#f2f5e9" fill-opacity="0.5" stroke="#606060" stroke-width=".5" x="0" y="0" width="60" height="60"/>
                <use id="zoomplus" xlink:href="#zoomPlus" x="17" y="9" onmousedown="handleZoom(evt,'in')"/>
                <use id="zoomminus" xlink:href="#zoomMin" x="42" y="9" onmousedown="handleZoom(evt,'out')"/>
                <use id="reset" xlink:href="#resetDef" x="30" y="36" onmousedown="handleReset()"/>
                <g id="arrowUp" xlink:href="#dirArrow" transform="translate(30 24)" onmousedown="handlePan(0,-1)">
                  <use xlink:href="#rim" fill="#404040">
                        <set attributeName="fill" to="#808080" begin="arrowUp.mouseover" end="arrowUp.mouseout"/>
                  </use>
                  <path fill="none" stroke="white" stroke-width="1.5" d="M0,-3.0v7 M-2.5,-0.5L0,-3.0L2.5,-0.5"/>
                </g>
                <g id="arrowRight" xlink:href="#dirArrow" transform="rotate(90) translate(36 -43)" onmousedown="handlePan(1,0)">
                  <use xlink:href="#rim" fill="#404040">
                        <set attributeName="fill" to="#808080" begin="arrowRight.mouseover" end="arrowRight.mouseout"/>
                  </use>
                  <path fill="none" stroke="white" stroke-width="1.5" d="M0,-3.0v7 M-2.5,-0.5L0,-3.0L2.5,-0.5"/>
                </g>
                <g id="arrowDown" xlink:href="#dirArrow" transform="rotate(180) translate(-30 -48)" onmousedown="handlePan(0,1)">
                  <use xlink:href="#rim" fill="#404040">
                        <set attributeName="fill" to="#808080" begin="arrowDown.mouseover" end="arrowDown.mouseout"/>
                  </use>
                  <path fill="none" stroke="white" stroke-width="1.5" d="M0,-3.0v7 M-2.5,-0.5L0,-3.0L2.5,-0.5"/>
                </g>
                <g id="arrowLeft" xlink:href="#dirArrow" transform="rotate(270) translate(-36 17)" onmousedown="handlePan(-1,0)">
                  <use xlink:href="#rim" fill="#404040">
                        <set attributeName="fill" to="#808080" begin="arrowLeft.mouseover" end="arrowLeft.mouseout"/>
                  </use>
                  <path fill="none" stroke="white" stroke-width="1.5" d="M0,-3.0v7 M-2.5,-0.5L0,-3.0L2.5,-0.5"/>
                </g>
        </g>
        <svg viewBox="0 0 15 15" width="100%" height="30px" preserveAspectRatio="xMaxYMin meet">
         <g id="arrow_out" transform="scale(0.3 0.3)">
          <a xlink:href="base__graph_8hpp__incl_org.svg" target="_base">
           <rect id="button" ry="5" rx="5" y="6" x="6" height="38" width="38"
                fill="#f2f5e9" fill-opacity="0.5" stroke="#606060" stroke-width="1.0"/>
           <path id="arrow"
             d="M 11.500037,31.436501 C 11.940474,20.09759 22.043105,11.32322 32.158766,21.979434 L 37.068811,17.246167 C 37.068811,17.246167 37.088388,32 37.088388,32 L 22.160133,31.978069 C 22.160133,31.978069 26.997745,27.140456 26.997745,27.140456 C 18.528582,18.264221 13.291696,25.230495 11.500037,31.436501 z"
             style="fill:#404040;"/>
          </a>
         </g>
        </svg>
</svg>
