<?xml version="1.0" encoding="UTF-8" standalone="no"?>
<!DOCTYPE svg PUBLIC "-//W3C//DTD SVG 1.1//EN"
 "http://www.w3.org/Graphics/SVG/1.1/DTD/svg11.dtd">
<!-- Generated by graphviz version 2.40.1 (20161225.0304)
 -->
<!-- Title: include/indigox/graph/base_graph_impl.hpp Pages: 1 -->
<svg width="2433pt" height="287pt"
 viewBox="0.00 0.00 2433.45 287.00" xmlns="http://www.w3.org/2000/svg" xmlns:xlink="http://www.w3.org/1999/xlink">
<g id="graph0" class="graph" transform="scale(1 1) rotate(0) translate(4 283)">
<title>include/indigox/graph/base_graph_impl.hpp</title>
<polygon fill="#ffffff" stroke="transparent" points="-4,4 -4,-283 2429.4531,-283 2429.4531,4 -4,4"/>
<!-- Node0 -->
<g id="node1" class="node">
<title>Node0</title>
<g id="a_node1"><a xlink:title=" ">
<polygon fill="#bfbfbf" stroke="#000000" points="1258.9067,-250.5 1258.9067,-278.5 1373.8667,-278.5 1373.8667,-250.5 1258.9067,-250.5"/>
<text text-anchor="start" x="1266.9067" y="-266.5" font-family="Helvetica,sans-Serif" font-size="10.00" fill="#000000">include/indigox/graph</text>
<text text-anchor="middle" x="1316.3867" y="-256.5" font-family="Helvetica,sans-Serif" font-size="10.00" fill="#000000">/base_graph_impl.hpp</text>
</a>
</g>
</g>
<!-- Node1 -->
<g id="node2" class="node">
<title>Node1</title>
<g id="a_node2"><a xlink:href="connectivity_8hpp.html" target="_top" xlink:title=" ">
<polygon fill="#ffffff" stroke="#000000" points="69.478,-120.5 69.478,-148.5 163.2954,-148.5 163.2954,-120.5 69.478,-120.5"/>
<text text-anchor="start" x="77.478" y="-136.5" font-family="Helvetica,sans-Serif" font-size="10.00" fill="#000000">../algorithm/graph</text>
<text text-anchor="middle" x="116.3867" y="-126.5" font-family="Helvetica,sans-Serif" font-size="10.00" fill="#000000">/connectivity.hpp</text>
</a>
</g>
</g>
<!-- Node0&#45;&gt;Node1 -->
<g id="edge1" class="edge">
<title>Node0&#45;&gt;Node1</title>
<path fill="none" stroke="#191970" d="M1258.5525,-263.9981C1045.2805,-261.8545 310.1513,-251.7713 212.3867,-214 181.1244,-201.9218 152.5521,-175.3606 134.8571,-156.261"/>
<polygon fill="#191970" stroke="#191970" points="137.2529,-153.6908 127.9633,-148.5962 132.0483,-158.3719 137.2529,-153.6908"/>
</g>
<!-- Node6 -->
<g id="node7" class="node">
<title>Node6</title>
<g id="a_node7"><a xlink:title=" ">
<polygon fill="#ffffff" stroke="#bfbfbf" points="94.771,-60.5 94.771,-78.5 138.0024,-78.5 138.0024,-60.5 94.771,-60.5"/>
<text text-anchor="middle" x="116.3867" y="-66.5" font-family="Helvetica,sans-Serif" font-size="10.00" fill="#000000">vector</text>
</a>
</g>
</g>
<!-- Node0&#45;&gt;Node6 -->
<g id="edge40" class="edge">
<title>Node0&#45;&gt;Node6</title>
<path fill="none" stroke="#191970" d="M1258.8896,-262.1485C1102.7767,-255.5471 673.3539,-235.8914 533.3867,-214 416.1314,-195.6609 385.6248,-190.3671 274.3867,-149 225.0422,-130.6498 170.9261,-101.2217 140.561,-83.7838"/>
<polygon fill="#191970" stroke="#191970" points="141.9796,-80.5606 131.573,-78.5727 138.4686,-86.6164 141.9796,-80.5606"/>
</g>
<!-- Node7 -->
<g id="node8" class="node">
<title>Node7</title>
<g id="a_node8"><a xlink:href="cycles_8hpp.html" target="_top" xlink:title=" ">
<polygon fill="#ffffff" stroke="#000000" points="542.478,-185.5 542.478,-213.5 636.2954,-213.5 636.2954,-185.5 542.478,-185.5"/>
<text text-anchor="start" x="550.478" y="-201.5" font-family="Helvetica,sans-Serif" font-size="10.00" fill="#000000">../algorithm/graph</text>
<text text-anchor="middle" x="589.3867" y="-191.5" font-family="Helvetica,sans-Serif" font-size="10.00" fill="#000000">/cycles.hpp</text>
</a>
</g>
</g>
<!-- Node0&#45;&gt;Node7 -->
<g id="edge8" class="edge">
<title>Node0&#45;&gt;Node7</title>
<path fill="none" stroke="#191970" d="M1258.7326,-259.3452C1122.5697,-247.1711 782.3346,-216.7512 646.6067,-204.616"/>
<polygon fill="#191970" stroke="#191970" points="646.6943,-201.1099 636.4223,-203.7054 646.0709,-208.0821 646.6943,-201.1099"/>
</g>
<!-- Node14 -->
<g id="node15" class="node">
<title>Node14</title>
<g id="a_node15"><a xlink:href="serialise_8hpp.html" target="_top" xlink:title=" ">
<polygon fill="#ffffff" stroke="#000000" points="1336.8672,-125.5 1336.8672,-143.5 1437.9063,-143.5 1437.9063,-125.5 1336.8672,-125.5"/>
<text text-anchor="middle" x="1387.3867" y="-131.5" font-family="Helvetica,sans-Serif" font-size="10.00" fill="#000000">../utils/serialise.hpp</text>
</a>
</g>
</g>
<!-- Node0&#45;&gt;Node14 -->
<g id="edge18" class="edge">
<title>Node0&#45;&gt;Node14</title>
<path fill="none" stroke="#191970" d="M1317.369,-250.4176C1319.045,-233.8143 1323.5263,-205.8444 1335.3867,-185 1343.1234,-171.403 1355.608,-159.1032 1366.4051,-150.047"/>
<polygon fill="#191970" stroke="#191970" points="1368.6067,-152.768 1374.2262,-143.7862 1364.2321,-147.3032 1368.6067,-152.768"/>
</g>
<!-- Node29 -->
<g id="node30" class="node">
<title>Node29</title>
<g id="a_node30"><a xlink:href="triple_8hpp.html" target="_top" xlink:title=" ">
<polygon fill="#ffffff" stroke="#000000" points="1344.3696,-190.5 1344.3696,-208.5 1430.4038,-208.5 1430.4038,-190.5 1344.3696,-190.5"/>
<text text-anchor="middle" x="1387.3867" y="-196.5" font-family="Helvetica,sans-Serif" font-size="10.00" fill="#000000">../utils/triple.hpp</text>
</a>
</g>
</g>
<!-- Node0&#45;&gt;Node29 -->
<g id="edge34" class="edge">
<title>Node0&#45;&gt;Node29</title>
<path fill="none" stroke="#191970" d="M1331.7927,-250.396C1343.0594,-240.0814 1358.3524,-226.0807 1370.0471,-215.3743"/>
<polygon fill="#191970" stroke="#191970" points="1372.4623,-217.9084 1377.4748,-208.5743 1367.7355,-212.7453 1372.4623,-217.9084"/>
</g>
<!-- Node31 -->
<g id="node32" class="node">
<title>Node31</title>
<g id="a_node32"><a xlink:title=" ">
<polygon fill="#ffffff" stroke="#bfbfbf" points="1448.8647,-190.5 1448.8647,-208.5 1559.9087,-208.5 1559.9087,-190.5 1448.8647,-190.5"/>
<text text-anchor="middle" x="1504.3867" y="-196.5" font-family="Helvetica,sans-Serif" font-size="10.00" fill="#000000">EASTL/vector_map.h</text>
</a>
</g>
</g>
<!-- Node0&#45;&gt;Node31 -->
<g id="edge38" class="edge">
<title>Node0&#45;&gt;Node31</title>
<path fill="none" stroke="#191970" d="M1357.1799,-250.396C1390.3118,-238.9408 1436.593,-222.9393 1468.3689,-211.953"/>
<polygon fill="#191970" stroke="#191970" points="1469.8337,-215.1499 1478.141,-208.5743 1467.5463,-208.5342 1469.8337,-215.1499"/>
</g>
<!-- Node32 -->
<g id="node33" class="node">
<title>Node32</title>
<g id="a_node33"><a xlink:title=" ">
<polygon fill="#ffffff" stroke="#bfbfbf" points="1577.9214,-190.5 1577.9214,-208.5 1682.8521,-208.5 1682.8521,-190.5 1577.9214,-190.5"/>
<text text-anchor="middle" x="1630.3867" y="-196.5" font-family="Helvetica,sans-Serif" font-size="10.00" fill="#000000">EASTL/vector_set.h</text>
</a>
</g>
</g>
<!-- Node0&#45;&gt;Node32 -->
<g id="edge39" class="edge">
<title>Node0&#45;&gt;Node32</title>
<path fill="none" stroke="#191970" d="M1374.0366,-253.6117C1425.3971,-243.764 1502.5479,-228.6096 1569.3867,-214 1573.996,-212.9925 1578.7932,-211.9105 1583.5824,-210.8081"/>
<polygon fill="#191970" stroke="#191970" points="1584.3947,-214.2127 1593.3391,-208.534 1582.8056,-207.3954 1584.3947,-214.2127"/>
</g>
<!-- Node2 -->
<g id="node3" class="node">
<title>Node2</title>
<g id="a_node3"><a xlink:href="fwd__declares_8hpp.html" target="_top" xlink:title=" ">
<polygon fill="#ffffff" stroke="#000000" points="523.5791,-60.5 523.5791,-78.5 655.1943,-78.5 655.1943,-60.5 523.5791,-60.5"/>
<text text-anchor="middle" x="589.3867" y="-66.5" font-family="Helvetica,sans-Serif" font-size="10.00" fill="#000000">../../utils/fwd_declares.hpp</text>
</a>
</g>
</g>
<!-- Node1&#45;&gt;Node2 -->
<g id="edge2" class="edge">
<title>Node1&#45;&gt;Node2</title>
<path fill="none" stroke="#191970" d="M163.3983,-129.5331C238.0032,-121.4265 388.0088,-104.2125 514.3867,-84 521.0736,-82.9305 528.0768,-81.7108 535.0042,-80.4433"/>
<polygon fill="#191970" stroke="#191970" points="535.8673,-83.8427 545.0535,-78.5641 534.5805,-76.9619 535.8673,-83.8427"/>
</g>
<!-- Node3 -->
<g id="node4" class="node">
<title>Node3</title>
<g id="a_node4"><a xlink:title=" ">
<polygon fill="#ffffff" stroke="#bfbfbf" points="218.936,-.5 218.936,-18.5 263.8374,-18.5 263.8374,-.5 218.936,-.5"/>
<text text-anchor="middle" x="241.3867" y="-6.5" font-family="Helvetica,sans-Serif" font-size="10.00" fill="#000000">cstdint</text>
</a>
</g>
</g>
<!-- Node1&#45;&gt;Node3 -->
<g id="edge5" class="edge">
<title>Node1&#45;&gt;Node3</title>
<path fill="none" stroke="#191970" d="M103.126,-120.4335C88.9047,-103.5944 70.2762,-75.1474 85.3867,-55 100.1797,-35.276 167.4927,-21.2753 208.7134,-14.3771"/>
<polygon fill="#191970" stroke="#191970" points="209.5213,-17.7919 218.833,-12.738 208.402,-10.882 209.5213,-17.7919"/>
</g>
<!-- Node5 -->
<g id="node6" class="node">
<title>Node5</title>
<g id="a_node6"><a xlink:title=" ">
<polygon fill="#ffffff" stroke="#bfbfbf" points="0,-60.5 0,-78.5 38.7734,-78.5 38.7734,-60.5 0,-60.5"/>
<text text-anchor="middle" x="19.3867" y="-66.5" font-family="Helvetica,sans-Serif" font-size="10.00" fill="#000000">limits</text>
</a>
</g>
</g>
<!-- Node1&#45;&gt;Node5 -->
<g id="edge6" class="edge">
<title>Node1&#45;&gt;Node5</title>
<path fill="none" stroke="#191970" d="M95.3392,-120.396C79.3546,-109.6846 57.438,-94.9983 41.255,-84.154"/>
<polygon fill="#191970" stroke="#191970" points="43.1841,-81.2335 32.9284,-78.5743 39.2873,-87.0487 43.1841,-81.2335"/>
</g>
<!-- Node1&#45;&gt;Node6 -->
<g id="edge7" class="edge">
<title>Node1&#45;&gt;Node6</title>
<path fill="none" stroke="#191970" d="M116.3867,-120.396C116.3867,-111.1723 116.3867,-99.0011 116.3867,-88.8738"/>
<polygon fill="#191970" stroke="#191970" points="119.8868,-88.5743 116.3867,-78.5743 112.8868,-88.5743 119.8868,-88.5743"/>
</g>
<!-- Node2&#45;&gt;Node3 -->
<g id="edge3" class="edge">
<title>Node2&#45;&gt;Node3</title>
<path fill="none" stroke="#191970" d="M543.811,-60.4935C534.1075,-58.6306 523.9149,-56.7148 514.3867,-55 427.8536,-39.4267 325.5457,-22.8699 274.225,-14.6921"/>
<polygon fill="#191970" stroke="#191970" points="274.4973,-11.1915 264.0717,-13.0776 273.3979,-18.1047 274.4973,-11.1915"/>
</g>
<!-- Node4 -->
<g id="node5" class="node">
<title>Node4</title>
<g id="a_node5"><a xlink:title=" ">
<polygon fill="#ffffff" stroke="#bfbfbf" points="563.3301,-.5 563.3301,-18.5 615.4434,-18.5 615.4434,-.5 563.3301,-.5"/>
<text text-anchor="middle" x="589.3867" y="-6.5" font-family="Helvetica,sans-Serif" font-size="10.00" fill="#000000">memory</text>
</a>
</g>
</g>
<!-- Node2&#45;&gt;Node4 -->
<g id="edge4" class="edge">
<title>Node2&#45;&gt;Node4</title>
<path fill="none" stroke="#191970" d="M589.3867,-60.3873C589.3867,-52.0174 589.3867,-39.3414 589.3867,-28.735"/>
<polygon fill="#191970" stroke="#191970" points="592.8868,-28.6984 589.3867,-18.6985 585.8868,-28.6985 592.8868,-28.6984"/>
</g>
<!-- Node7&#45;&gt;Node2 -->
<g id="edge9" class="edge">
<title>Node7&#45;&gt;Node2</title>
<path fill="none" stroke="#191970" d="M589.3867,-185.3402C589.3867,-161.9521 589.3867,-115.2164 589.3867,-88.8163"/>
<polygon fill="#191970" stroke="#191970" points="592.8868,-88.5735 589.3867,-78.5736 585.8868,-88.5736 592.8868,-88.5735"/>
</g>
<!-- Node8 -->
<g id="node9" class="node">
<title>Node8</title>
<g id="a_node9"><a xlink:href="numerics_8hpp.html" target="_top" xlink:title=" ">
<polygon fill="#ffffff" stroke="#000000" points="283.7563,-125.5 283.7563,-143.5 397.0171,-143.5 397.0171,-125.5 283.7563,-125.5"/>
<text text-anchor="middle" x="340.3867" y="-131.5" font-family="Helvetica,sans-Serif" font-size="10.00" fill="#000000">../../utils/numerics.hpp</text>
</a>
</g>
</g>
<!-- Node7&#45;&gt;Node8 -->
<g id="edge10" class="edge">
<title>Node7&#45;&gt;Node8</title>
<path fill="none" stroke="#191970" d="M542.259,-187.1976C497.0012,-175.3833 429.1437,-157.6695 384.8131,-146.0973"/>
<polygon fill="#191970" stroke="#191970" points="385.4636,-142.6498 374.9038,-143.5105 383.6955,-149.4229 385.4636,-142.6498"/>
</g>
<!-- Node8&#45;&gt;Node3 -->
<g id="edge13" class="edge">
<title>Node8&#45;&gt;Node3</title>
<path fill="none" stroke="#191970" d="M316.9501,-125.4512C298.8565,-117.2801 274.586,-103.5275 260.3867,-84 248.6374,-67.8419 244.1321,-45.1119 242.4164,-29.0178"/>
<polygon fill="#191970" stroke="#191970" points="245.8749,-28.353 241.5965,-18.6604 238.8967,-28.9055 245.8749,-28.353"/>
</g>
<!-- Node8&#45;&gt;Node6 -->
<g id="edge17" class="edge">
<title>Node8&#45;&gt;Node6</title>
<path fill="none" stroke="#191970" d="M295.7135,-125.4799C255.8968,-116.8291 196.3622,-102.3809 146.3867,-84 145.1957,-83.5619 143.9885,-83.0925 142.7766,-82.6002"/>
<polygon fill="#191970" stroke="#191970" points="144.1469,-79.3792 133.5867,-78.5229 141.308,-85.7777 144.1469,-79.3792"/>
</g>
<!-- Node9 -->
<g id="node10" class="node">
<title>Node9</title>
<g id="a_node10"><a xlink:title=" ">
<polygon fill="#ffffff" stroke="#bfbfbf" points="155.8228,-60.5 155.8228,-78.5 212.9507,-78.5 212.9507,-60.5 155.8228,-60.5"/>
<text text-anchor="middle" x="184.3867" y="-66.5" font-family="Helvetica,sans-Serif" font-size="10.00" fill="#000000">algorithm</text>
</a>
</g>
</g>
<!-- Node8&#45;&gt;Node9 -->
<g id="edge11" class="edge">
<title>Node8&#45;&gt;Node9</title>
<path fill="none" stroke="#191970" d="M318.6956,-125.462C291.8775,-114.2878 246.0434,-95.1903 215.4856,-82.4579"/>
<polygon fill="#191970" stroke="#191970" points="216.7215,-79.1812 206.1445,-78.5658 214.0291,-85.6427 216.7215,-79.1812"/>
</g>
<!-- Node10 -->
<g id="node11" class="node">
<title>Node10</title>
<g id="a_node11"><a xlink:title=" ">
<polygon fill="#ffffff" stroke="#bfbfbf" points="269.771,-60.5 269.771,-78.5 313.0024,-78.5 313.0024,-60.5 269.771,-60.5"/>
<text text-anchor="middle" x="291.3867" y="-66.5" font-family="Helvetica,sans-Serif" font-size="10.00" fill="#000000">cmath</text>
</a>
</g>
</g>
<!-- Node8&#45;&gt;Node10 -->
<g id="edge12" class="edge">
<title>Node8&#45;&gt;Node10</title>
<path fill="none" stroke="#191970" d="M333.5735,-125.462C326.125,-115.5813 314.0063,-99.5056 304.6645,-87.1134"/>
<polygon fill="#191970" stroke="#191970" points="307.2739,-84.7605 298.4594,-78.8821 301.6842,-88.9743 307.2739,-84.7605"/>
</g>
<!-- Node11 -->
<g id="node12" class="node">
<title>Node11</title>
<g id="a_node12"><a xlink:title=" ">
<polygon fill="#ffffff" stroke="#bfbfbf" points="330.8252,-60.5 330.8252,-78.5 377.9482,-78.5 377.9482,-60.5 330.8252,-60.5"/>
<text text-anchor="middle" x="354.3867" y="-66.5" font-family="Helvetica,sans-Serif" font-size="10.00" fill="#000000">iterator</text>
</a>
</g>
</g>
<!-- Node8&#45;&gt;Node11 -->
<g id="edge14" class="edge">
<title>Node8&#45;&gt;Node11</title>
<path fill="none" stroke="#191970" d="M342.3334,-125.462C344.3582,-116.061 347.591,-101.0518 350.199,-88.943"/>
<polygon fill="#191970" stroke="#191970" points="353.6818,-89.3949 352.366,-78.8821 346.8388,-87.921 353.6818,-89.3949"/>
</g>
<!-- Node12 -->
<g id="node13" class="node">
<title>Node12</title>
<g id="a_node13"><a xlink:title=" ">
<polygon fill="#ffffff" stroke="#bfbfbf" points="395.6035,-60.5 395.6035,-78.5 447.1699,-78.5 447.1699,-60.5 395.6035,-60.5"/>
<text text-anchor="middle" x="421.3867" y="-66.5" font-family="Helvetica,sans-Serif" font-size="10.00" fill="#000000">numeric</text>
</a>
</g>
</g>
<!-- Node8&#45;&gt;Node12 -->
<g id="edge15" class="edge">
<title>Node8&#45;&gt;Node12</title>
<path fill="none" stroke="#191970" d="M351.6494,-125.462C364.6333,-115.0428 386.2017,-97.7349 401.9198,-85.1216"/>
<polygon fill="#191970" stroke="#191970" points="404.3498,-87.6592 409.9585,-78.6708 399.9687,-82.1997 404.3498,-87.6592"/>
</g>
<!-- Node13 -->
<g id="node14" class="node">
<title>Node13</title>
<g id="a_node14"><a xlink:title=" ">
<polygon fill="#ffffff" stroke="#bfbfbf" points="465.1602,-60.5 465.1602,-78.5 505.6133,-78.5 505.6133,-60.5 465.1602,-60.5"/>
<text text-anchor="middle" x="485.3867" y="-66.5" font-family="Helvetica,sans-Serif" font-size="10.00" fill="#000000">string</text>
</a>
</g>
</g>
<!-- Node8&#45;&gt;Node13 -->
<g id="edge16" class="edge">
<title>Node8&#45;&gt;Node13</title>
<path fill="none" stroke="#191970" d="M362.3486,-125.349C385.7924,-115.4853 423.9509,-99.1563 456.3867,-84 457.0752,-83.6783 457.7717,-83.3502 458.4734,-83.0173"/>
<polygon fill="#191970" stroke="#191970" points="460.2067,-86.0664 467.6688,-78.5452 457.1451,-79.7714 460.2067,-86.0664"/>
</g>
<!-- Node14&#45;&gt;Node2 -->
<g id="edge19" class="edge">
<title>Node14&#45;&gt;Node2</title>
<path fill="none" stroke="#191970" d="M1336.7756,-133.0752C1218.5987,-129.2886 915.4644,-116.9161 664.3867,-84 656.8895,-83.0171 649.0116,-81.7528 641.2944,-80.3812"/>
<polygon fill="#191970" stroke="#191970" points="641.7573,-76.9075 631.2875,-78.5308 640.4844,-83.7908 641.7573,-76.9075"/>
</g>
<!-- Node15 -->
<g id="node16" class="node">
<title>Node15</title>
<g id="a_node16"><a xlink:title=" ">
<polygon fill="#ffffff" stroke="#bfbfbf" points="1465.0864,-60.5 1465.0864,-78.5 1561.687,-78.5 1561.687,-60.5 1465.0864,-60.5"/>
<text text-anchor="middle" x="1513.3867" y="-66.5" font-family="Helvetica,sans-Serif" font-size="10.00" fill="#000000">cereal/access.hpp</text>
</a>
</g>
</g>
<!-- Node14&#45;&gt;Node15 -->
<g id="edge20" class="edge">
<title>Node14&#45;&gt;Node15</title>
<path fill="none" stroke="#191970" d="M1404.9065,-125.462C1426.0387,-114.5605 1461.7896,-96.1176 1486.44,-83.4011"/>
<polygon fill="#191970" stroke="#191970" points="1488.3271,-86.3659 1495.6096,-78.6708 1485.1178,-80.1449 1488.3271,-86.3659"/>
</g>
<!-- Node16 -->
<g id="node17" class="node">
<title>Node16</title>
<g id="a_node17"><a xlink:title=" ">
<polygon fill="#ffffff" stroke="#bfbfbf" points="1579.4683,-60.5 1579.4683,-78.5 1703.3052,-78.5 1703.3052,-60.5 1579.4683,-60.5"/>
<text text-anchor="middle" x="1641.3867" y="-66.5" font-family="Helvetica,sans-Serif" font-size="10.00" fill="#000000">cereal/archives/json.hpp</text>
</a>
</g>
</g>
<!-- Node14&#45;&gt;Node16 -->
<g id="edge21" class="edge">
<title>Node14&#45;&gt;Node16</title>
<path fill="none" stroke="#191970" d="M1422.7043,-125.462C1467.9765,-113.8766 1546.5309,-93.7741 1596.1398,-81.0789"/>
<polygon fill="#191970" stroke="#191970" points="1597.1405,-84.4357 1605.9605,-78.5658 1595.405,-77.6543 1597.1405,-84.4357"/>
</g>
<!-- Node17 -->
<g id="node18" class="node">
<title>Node17</title>
<g id="a_node18"><a xlink:title=" ">
<polygon fill="#ffffff" stroke="#bfbfbf" points="1721.3032,-55.5 1721.3032,-83.5 1843.4702,-83.5 1843.4702,-55.5 1721.3032,-55.5"/>
<text text-anchor="start" x="1729.3032" y="-71.5" font-family="Helvetica,sans-Serif" font-size="10.00" fill="#000000">cereal/archives/portable</text>
<text text-anchor="middle" x="1782.3867" y="-61.5" font-family="Helvetica,sans-Serif" font-size="10.00" fill="#000000">_binary.hpp</text>
</a>
</g>
</g>
<!-- Node14&#45;&gt;Node17 -->
<g id="edge22" class="edge">
<title>Node14&#45;&gt;Node17</title>
<path fill="none" stroke="#191970" d="M1422.1565,-125.4609C1430.3932,-123.4966 1439.1721,-121.5464 1447.3867,-120 1561.0007,-98.6123 1593.4717,-103.7564 1710.8665,-84.1828"/>
<polygon fill="#191970" stroke="#191970" points="1711.6966,-87.5922 1720.9723,-82.4723 1710.5284,-80.6903 1711.6966,-87.5922"/>
</g>
<!-- Node18 -->
<g id="node19" class="node">
<title>Node18</title>
<g id="a_node19"><a xlink:title=" ">
<polygon fill="#ffffff" stroke="#bfbfbf" points="1861.0298,-60.5 1861.0298,-78.5 1953.7437,-78.5 1953.7437,-60.5 1861.0298,-60.5"/>
<text text-anchor="middle" x="1907.3867" y="-66.5" font-family="Helvetica,sans-Serif" font-size="10.00" fill="#000000">cereal/cereal.hpp</text>
</a>
</g>
</g>
<!-- Node14&#45;&gt;Node18 -->
<g id="edge23" class="edge">
<title>Node14&#45;&gt;Node18</title>
<path fill="none" stroke="#191970" d="M1420.8447,-125.4851C1429.4433,-123.4249 1438.7155,-121.4251 1447.3867,-120 1625.7044,-90.6945 1674.3811,-115.1451 1852.3867,-84 1857.1226,-83.1714 1862.0465,-82.1335 1866.9155,-80.9958"/>
<polygon fill="#191970" stroke="#191970" points="1867.8916,-84.3599 1876.7551,-78.5558 1866.2067,-77.5657 1867.8916,-84.3599"/>
</g>
<!-- Node19 -->
<g id="node20" class="node">
<title>Node19</title>
<g id="a_node20"><a xlink:title=" ">
<polygon fill="#ffffff" stroke="#bfbfbf" points="1971.2852,-60.5 1971.2852,-78.5 2085.4883,-78.5 2085.4883,-60.5 1971.2852,-60.5"/>
<text text-anchor="middle" x="2028.3867" y="-66.5" font-family="Helvetica,sans-Serif" font-size="10.00" fill="#000000">cereal/types/array.hpp</text>
</a>
</g>
</g>
<!-- Node14&#45;&gt;Node19 -->
<g id="edge24" class="edge">
<title>Node14&#45;&gt;Node19</title>
<path fill="none" stroke="#191970" d="M1420.5123,-125.447C1429.1991,-123.3618 1438.5965,-121.3596 1447.3867,-120 1674.1379,-84.9282 1735.2821,-116.705 1962.3867,-84 1968.7115,-83.0892 1975.3327,-81.9095 1981.8379,-80.6167"/>
<polygon fill="#191970" stroke="#191970" points="1982.8322,-83.9846 1991.9055,-78.5142 1981.4012,-77.1324 1982.8322,-83.9846"/>
</g>
<!-- Node20 -->
<g id="node21" class="node">
<title>Node20</title>
<g id="a_node21"><a xlink:title=" ">
<polygon fill="#ffffff" stroke="#bfbfbf" points="2103.3574,-60.5 2103.3574,-78.5 2219.416,-78.5 2219.416,-60.5 2103.3574,-60.5"/>
<text text-anchor="middle" x="2161.3867" y="-66.5" font-family="Helvetica,sans-Serif" font-size="10.00" fill="#000000">cereal/types/bitset.hpp</text>
</a>
</g>
</g>
<!-- Node14&#45;&gt;Node20 -->
<g id="edge25" class="edge">
<title>Node14&#45;&gt;Node20</title>
<path fill="none" stroke="#191970" d="M1420.1857,-125.4367C1428.9598,-123.3252 1438.4811,-121.3127 1447.3867,-120 1732.3082,-78.0008 1808.982,-122.5787 2094.3867,-84 2101.0429,-83.1003 2108.0207,-81.8925 2114.8546,-80.5563"/>
<polygon fill="#191970" stroke="#191970" points="2115.6212,-83.9719 2124.7101,-78.5275 2114.2098,-77.1157 2115.6212,-83.9719"/>
</g>
<!-- Node21 -->
<g id="node22" class="node">
<title>Node21</title>
<g id="a_node22"><a xlink:title=" ">
<polygon fill="#ffffff" stroke="#bfbfbf" points="2237.5249,-55.5 2237.5249,-83.5 2345.2485,-83.5 2345.2485,-55.5 2237.5249,-55.5"/>
<text text-anchor="start" x="2245.5249" y="-71.5" font-family="Helvetica,sans-Serif" font-size="10.00" fill="#000000">cereal/types/boost</text>
<text text-anchor="middle" x="2291.3867" y="-61.5" font-family="Helvetica,sans-Serif" font-size="10.00" fill="#000000">_dynamic_bitset.hpp</text>
</a>
</g>
</g>
<!-- Node14&#45;&gt;Node21 -->
<g id="edge26" class="edge">
<title>Node14&#45;&gt;Node21</title>
<path fill="none" stroke="#191970" d="M1419.8644,-125.4548C1428.7247,-123.3158 1438.3688,-121.2855 1447.3867,-120 1788.1136,-71.4311 1882.3335,-130.0237 2227.19,-83.9797"/>
<polygon fill="#191970" stroke="#191970" points="2227.7658,-87.4337 2237.2052,-82.6226 2226.8258,-80.4971 2227.7658,-87.4337"/>
</g>
<!-- Node22 -->
<g id="node23" class="node">
<title>Node22</title>
<g id="a_node23"><a xlink:title=" ">
<polygon fill="#ffffff" stroke="#bfbfbf" points="673.478,-55.5 673.478,-83.5 767.2954,-83.5 767.2954,-55.5 673.478,-55.5"/>
<text text-anchor="start" x="681.478" y="-71.5" font-family="Helvetica,sans-Serif" font-size="10.00" fill="#000000">cereal/types/eastl</text>
<text text-anchor="middle" x="720.3867" y="-61.5" font-family="Helvetica,sans-Serif" font-size="10.00" fill="#000000">_bitset.hpp</text>
</a>
</g>
</g>
<!-- Node14&#45;&gt;Node22 -->
<g id="edge27" class="edge">
<title>Node14&#45;&gt;Node22</title>
<path fill="none" stroke="#191970" d="M1336.728,-133.2364C1233.236,-130.0246 990.0878,-119.2539 777.418,-83.9708"/>
<polygon fill="#191970" stroke="#191970" points="777.7566,-80.4786 767.3146,-82.272 776.5959,-87.3817 777.7566,-80.4786"/>
</g>
<!-- Node23 -->
<g id="node24" class="node">
<title>Node23</title>
<g id="a_node24"><a xlink:title=" ">
<polygon fill="#ffffff" stroke="#bfbfbf" points="785.0742,-60.5 785.0742,-78.5 901.6992,-78.5 901.6992,-60.5 785.0742,-60.5"/>
<text text-anchor="middle" x="843.3867" y="-66.5" font-family="Helvetica,sans-Serif" font-size="10.00" fill="#000000">cereal/types/eigen.hpp</text>
</a>
</g>
</g>
<!-- Node14&#45;&gt;Node23 -->
<g id="edge28" class="edge">
<title>Node14&#45;&gt;Node23</title>
<path fill="none" stroke="#191970" d="M1336.6699,-130.9343C1249.2627,-124.387 1064.7564,-108.8019 910.3867,-84 904.4398,-83.0445 898.2258,-81.9002 892.0825,-80.6789"/>
<polygon fill="#191970" stroke="#191970" points="892.3716,-77.1649 881.8705,-78.5708 890.9564,-84.0203 892.3716,-77.1649"/>
</g>
<!-- Node24 -->
<g id="node25" class="node">
<title>Node24</title>
<g id="a_node25"><a xlink:title=" ">
<polygon fill="#ffffff" stroke="#bfbfbf" points="919.5815,-60.5 919.5815,-78.5 1031.1919,-78.5 1031.1919,-60.5 919.5815,-60.5"/>
<text text-anchor="middle" x="975.3867" y="-66.5" font-family="Helvetica,sans-Serif" font-size="10.00" fill="#000000">cereal/types/map.hpp</text>
</a>
</g>
</g>
<!-- Node14&#45;&gt;Node24 -->
<g id="edge29" class="edge">
<title>Node14&#45;&gt;Node24</title>
<path fill="none" stroke="#191970" d="M1336.621,-128.3236C1268.8437,-119.801 1145.1631,-103.2828 1040.3867,-84 1034.9854,-83.006 1029.3507,-81.8816 1023.7552,-80.7095"/>
<polygon fill="#191970" stroke="#191970" points="1024.2967,-77.246 1013.7844,-78.566 1022.8254,-84.0897 1024.2967,-77.246"/>
</g>
<!-- Node25 -->
<g id="node26" class="node">
<title>Node25</title>
<g id="a_node26"><a xlink:title=" ">
<polygon fill="#ffffff" stroke="#bfbfbf" points="1049.6201,-60.5 1049.6201,-78.5 1177.1533,-78.5 1177.1533,-60.5 1049.6201,-60.5"/>
<text text-anchor="middle" x="1113.3867" y="-66.5" font-family="Helvetica,sans-Serif" font-size="10.00" fill="#000000">cereal/types/memory.hpp</text>
</a>
</g>
</g>
<!-- Node14&#45;&gt;Node25 -->
<g id="edge30" class="edge">
<title>Node14&#45;&gt;Node25</title>
<path fill="none" stroke="#191970" d="M1349.2882,-125.462C1300.2474,-113.8283 1215.0032,-93.6061 1161.5276,-80.9203"/>
<polygon fill="#191970" stroke="#191970" points="1162.1402,-77.4685 1151.6024,-78.5658 1160.5244,-84.2795 1162.1402,-77.4685"/>
</g>
<!-- Node26 -->
<g id="node27" class="node">
<title>Node26</title>
<g id="a_node27"><a xlink:title=" ">
<polygon fill="#ffffff" stroke="#bfbfbf" points="1195.2852,-60.5 1195.2852,-78.5 1309.4883,-78.5 1309.4883,-60.5 1195.2852,-60.5"/>
<text text-anchor="middle" x="1252.3867" y="-66.5" font-family="Helvetica,sans-Serif" font-size="10.00" fill="#000000">cereal/types/utility.hpp</text>
</a>
</g>
</g>
<!-- Node14&#45;&gt;Node26 -->
<g id="edge31" class="edge">
<title>Node14&#45;&gt;Node26</title>
<path fill="none" stroke="#191970" d="M1368.6155,-125.462C1345.7735,-114.464 1306.9902,-95.7906 1280.5599,-83.0648"/>
<polygon fill="#191970" stroke="#191970" points="1281.9621,-79.8555 1271.4337,-78.6708 1278.9253,-86.1625 1281.9621,-79.8555"/>
</g>
<!-- Node27 -->
<g id="node28" class="node">
<title>Node27</title>
<g id="a_node28"><a xlink:title=" ">
<polygon fill="#ffffff" stroke="#bfbfbf" points="1327.9658,-60.5 1327.9658,-78.5 1446.8076,-78.5 1446.8076,-60.5 1327.9658,-60.5"/>
<text text-anchor="middle" x="1387.3867" y="-66.5" font-family="Helvetica,sans-Serif" font-size="10.00" fill="#000000">cereal/types/vector.hpp</text>
</a>
</g>
</g>
<!-- Node14&#45;&gt;Node27 -->
<g id="edge32" class="edge">
<title>Node14&#45;&gt;Node27</title>
<path fill="none" stroke="#191970" d="M1387.3867,-125.462C1387.3867,-116.061 1387.3867,-101.0518 1387.3867,-88.943"/>
<polygon fill="#191970" stroke="#191970" points="1390.8868,-88.8821 1387.3867,-78.8821 1383.8868,-88.8822 1390.8868,-88.8821"/>
</g>
<!-- Node28 -->
<g id="node29" class="node">
<title>Node28</title>
<g id="a_node29"><a xlink:title=" ">
<polygon fill="#ffffff" stroke="#bfbfbf" points="2363.3203,-60.5 2363.3203,-78.5 2425.4531,-78.5 2425.4531,-60.5 2363.3203,-60.5"/>
<text text-anchor="middle" x="2394.3867" y="-66.5" font-family="Helvetica,sans-Serif" font-size="10.00" fill="#000000">type_traits</text>
</a>
</g>
</g>
<!-- Node14&#45;&gt;Node28 -->
<g id="edge33" class="edge">
<title>Node14&#45;&gt;Node28</title>
<path fill="none" stroke="#191970" d="M1419.5465,-125.4917C1428.4922,-123.325 1438.2586,-121.2714 1447.3867,-120 1846.9579,-64.3454 1958.5043,-161.6638 2354.3867,-84 2357.4062,-83.4076 2360.5021,-82.6241 2363.5696,-81.7274"/>
<polygon fill="#191970" stroke="#191970" points="2364.741,-85.0266 2373.143,-78.5725 2362.55,-78.3783 2364.741,-85.0266"/>
</g>
<!-- Node29&#45;&gt;Node14 -->
<g id="edge37" class="edge">
<title>Node29&#45;&gt;Node14</title>
<path fill="none" stroke="#191970" d="M1387.3867,-190.462C1387.3867,-181.061 1387.3867,-166.0518 1387.3867,-153.943"/>
<polygon fill="#191970" stroke="#191970" points="1390.8868,-153.8821 1387.3867,-143.8821 1383.8868,-153.8822 1390.8868,-153.8821"/>
</g>
<!-- Node29&#45;&gt;Node28 -->
<g id="edge35" class="edge">
<title>Node29&#45;&gt;Node28</title>
<path fill="none" stroke="#191970" d="M1416.6144,-190.456C1423.9905,-188.4214 1431.9332,-186.4407 1439.3867,-185 1841.088,-107.3541 1955.9173,-176.8167 2354.3867,-84 2357.0598,-83.3774 2359.7995,-82.63 2362.5303,-81.8073"/>
<polygon fill="#191970" stroke="#191970" points="2363.8553,-85.0553 2372.2453,-78.5856 2361.6519,-78.4112 2363.8553,-85.0553"/>
</g>
<!-- Node30 -->
<g id="node31" class="node">
<title>Node30</title>
<g id="a_node31"><a xlink:title=" ">
<polygon fill="#ffffff" stroke="#bfbfbf" points="1455.9951,-125.5 1455.9951,-143.5 1494.7783,-143.5 1494.7783,-125.5 1455.9951,-125.5"/>
<text text-anchor="middle" x="1475.3867" y="-131.5" font-family="Helvetica,sans-Serif" font-size="10.00" fill="#000000">utility</text>
</a>
</g>
</g>
<!-- Node29&#45;&gt;Node30 -->
<g id="edge36" class="edge">
<title>Node29&#45;&gt;Node30</title>
<path fill="none" stroke="#191970" d="M1399.6227,-190.462C1413.8593,-179.9464 1437.5957,-162.4138 1454.7102,-149.7725"/>
<polygon fill="#191970" stroke="#191970" points="1457.0067,-152.4274 1462.9709,-143.6708 1452.8478,-146.7968 1457.0067,-152.4274"/>
</g>
</g>
</svg>
