<?xml version="1.0" encoding="UTF-8" standalone="no"?>
<!DOCTYPE svg PUBLIC "-//W3C//DTD SVG 1.1//EN"
 "http://www.w3.org/Graphics/SVG/1.1/DTD/svg11.dtd">
<!-- Generated by graphviz version 2.40.1 (20161225.0304)
 -->
<!-- Title: include/indigox/graph/base_graph_impl.hpp Pages: 1 -->
<svg width="520pt" height="307pt"
 viewBox="0.00 0.00 520.29 307.00" xmlns="http://www.w3.org/2000/svg" xmlns:xlink="http://www.w3.org/1999/xlink">
<g id="graph0" class="graph" transform="scale(1 1) rotate(0) translate(4 303)">
<title>include/indigox/graph/base_graph_impl.hpp</title>
<polygon fill="#ffffff" stroke="transparent" points="-4,4 -4,-303 516.2876,-303 516.2876,4 -4,4"/>
<!-- Node33 -->
<g id="node1" class="node">
<title>Node33</title>
<g id="a_node1"><a xlink:title=" ">
<polygon fill="#bfbfbf" stroke="#000000" points="205.5518,-270.5 205.5518,-298.5 320.5117,-298.5 320.5117,-270.5 205.5518,-270.5"/>
<text text-anchor="start" x="213.5518" y="-286.5" font-family="Helvetica,sans-Serif" font-size="10.00" fill="#000000">include/indigox/graph</text>
<text text-anchor="middle" x="263.0317" y="-276.5" font-family="Helvetica,sans-Serif" font-size="10.00" fill="#000000">/base_graph_impl.hpp</text>
</a>
</g>
</g>
<!-- Node34 -->
<g id="node2" class="node">
<title>Node34</title>
<g id="a_node2"><a xlink:href="base__graph_8hpp.html" target="_top" xlink:title=" ">
<polygon fill="#ffffff" stroke="#000000" points="207.7759,-205.5 207.7759,-233.5 318.2876,-233.5 318.2876,-205.5 207.7759,-205.5"/>
<text text-anchor="start" x="215.7759" y="-221.5" font-family="Helvetica,sans-Serif" font-size="10.00" fill="#000000">include/indigox/graph</text>
<text text-anchor="middle" x="263.0317" y="-211.5" font-family="Helvetica,sans-Serif" font-size="10.00" fill="#000000">/base_graph.hpp</text>
</a>
</g>
</g>
<!-- Node33&#45;&gt;Node34 -->
<g id="edge1" class="edge">
<title>Node33&#45;&gt;Node34</title>
<path fill="none" stroke="#191970" d="M263.0317,-260.1081C263.0317,-251.1539 263.0317,-241.3227 263.0317,-233.5765"/>
<polygon fill="#191970" stroke="#191970" points="259.5318,-260.3959 263.0317,-270.396 266.5318,-260.396 259.5318,-260.3959"/>
</g>
<!-- Node35 -->
<g id="node3" class="node">
<title>Node35</title>
<g id="a_node3"><a xlink:href="access_8hpp.html" target="_top" xlink:title=" ">
<polygon fill="#ffffff" stroke="#000000" points="0,-140.5 0,-168.5 126.0635,-168.5 126.0635,-140.5 0,-140.5"/>
<text text-anchor="start" x="8" y="-156.5" font-family="Helvetica,sans-Serif" font-size="10.00" fill="#000000">include/indigox/algorithm</text>
<text text-anchor="middle" x="63.0317" y="-146.5" font-family="Helvetica,sans-Serif" font-size="10.00" fill="#000000">/access.hpp</text>
</a>
</g>
</g>
<!-- Node34&#45;&gt;Node35 -->
<g id="edge2" class="edge">
<title>Node34&#45;&gt;Node35</title>
<path fill="none" stroke="#191970" d="M209.8865,-202.2278C177.5336,-191.7131 136.7264,-178.4508 106.3441,-168.5765"/>
<polygon fill="#191970" stroke="#191970" points="209.0425,-205.6337 219.6347,-205.396 211.2062,-198.9764 209.0425,-205.6337"/>
</g>
<!-- Node36 -->
<g id="node4" class="node">
<title>Node36</title>
<g id="a_node4"><a xlink:href="assignment_8hpp.html" target="_top" xlink:title=" ">
<polygon fill="#ffffff" stroke="#000000" points="143.7759,-140.5 143.7759,-168.5 254.2876,-168.5 254.2876,-140.5 143.7759,-140.5"/>
<text text-anchor="start" x="151.7759" y="-156.5" font-family="Helvetica,sans-Serif" font-size="10.00" fill="#000000">include/indigox/graph</text>
<text text-anchor="middle" x="199.0317" y="-146.5" font-family="Helvetica,sans-Serif" font-size="10.00" fill="#000000">/assignment.hpp</text>
</a>
</g>
</g>
<!-- Node34&#45;&gt;Node36 -->
<g id="edge3" class="edge">
<title>Node34&#45;&gt;Node36</title>
<path fill="none" stroke="#191970" d="M241.8864,-198.0243C232.351,-188.3398 221.3568,-177.1739 212.8917,-168.5765"/>
<polygon fill="#191970" stroke="#191970" points="239.6346,-200.7259 249.1447,-205.396 244.6226,-195.8146 239.6346,-200.7259"/>
</g>
<!-- Node40 -->
<g id="node8" class="node">
<title>Node40</title>
<g id="a_node8"><a xlink:href="condensed_8hpp.html" target="_top" xlink:title=" ">
<polygon fill="#ffffff" stroke="#000000" points="272.7759,-140.5 272.7759,-168.5 383.2876,-168.5 383.2876,-140.5 272.7759,-140.5"/>
<text text-anchor="start" x="280.7759" y="-156.5" font-family="Helvetica,sans-Serif" font-size="10.00" fill="#000000">include/indigox/graph</text>
<text text-anchor="middle" x="328.0317" y="-146.5" font-family="Helvetica,sans-Serif" font-size="10.00" fill="#000000">/condensed.hpp</text>
</a>
</g>
</g>
<!-- Node34&#45;&gt;Node40 -->
<g id="edge9" class="edge">
<title>Node34&#45;&gt;Node40</title>
<path fill="none" stroke="#191970" d="M284.2203,-198.3115C293.9705,-188.5612 305.2727,-177.259 313.9552,-168.5765"/>
<polygon fill="#191970" stroke="#191970" points="281.732,-195.85 277.1358,-205.396 286.6818,-200.7998 281.732,-195.85"/>
</g>
<!-- Node42 -->
<g id="node10" class="node">
<title>Node42</title>
<g id="a_node10"><a xlink:href="molecular_8hpp.html" target="_top" xlink:title=" ">
<polygon fill="#ffffff" stroke="#000000" points="401.7759,-140.5 401.7759,-168.5 512.2876,-168.5 512.2876,-140.5 401.7759,-140.5"/>
<text text-anchor="start" x="409.7759" y="-156.5" font-family="Helvetica,sans-Serif" font-size="10.00" fill="#000000">include/indigox/graph</text>
<text text-anchor="middle" x="457.0317" y="-146.5" font-family="Helvetica,sans-Serif" font-size="10.00" fill="#000000">/molecular.hpp</text>
</a>
</g>
</g>
<!-- Node34&#45;&gt;Node42 -->
<g id="edge11" class="edge">
<title>Node34&#45;&gt;Node42</title>
<path fill="none" stroke="#191970" d="M314.9889,-202.0917C346.306,-191.5988 385.6749,-178.4082 415.0188,-168.5765"/>
<polygon fill="#191970" stroke="#191970" points="313.4968,-198.9003 305.1268,-205.396 315.7207,-205.5376 313.4968,-198.9003"/>
</g>
<!-- Node37 -->
<g id="node5" class="node">
<title>Node37</title>
<g id="a_node5"><a xlink:href="assigner_8hpp.html" target="_top" xlink:title=" ">
<polygon fill="#ffffff" stroke="#000000" points="113.7588,-75.5 113.7588,-103.5 284.3047,-103.5 284.3047,-75.5 113.7588,-75.5"/>
<text text-anchor="start" x="121.7588" y="-91.5" font-family="Helvetica,sans-Serif" font-size="10.00" fill="#000000">include/indigox/algorithm</text>
<text text-anchor="middle" x="199.0317" y="-81.5" font-family="Helvetica,sans-Serif" font-size="10.00" fill="#000000">/electron_assignment/assigner.hpp</text>
</a>
</g>
</g>
<!-- Node36&#45;&gt;Node37 -->
<g id="edge4" class="edge">
<title>Node36&#45;&gt;Node37</title>
<path fill="none" stroke="#191970" d="M199.0317,-130.1081C199.0317,-121.1539 199.0317,-111.3227 199.0317,-103.5765"/>
<polygon fill="#191970" stroke="#191970" points="195.5318,-130.3959 199.0317,-140.396 202.5318,-130.396 195.5318,-130.3959"/>
</g>
<!-- Node38 -->
<g id="node6" class="node">
<title>Node38</title>
<g id="a_node6"><a xlink:href="astar__optimisation_8hpp.html" target="_top" xlink:title=" ">
<polygon fill="#ffffff" stroke="#000000" points="54,-.5 54,-38.5 190.0635,-38.5 190.0635,-.5 54,-.5"/>
<text text-anchor="start" x="62" y="-26.5" font-family="Helvetica,sans-Serif" font-size="10.00" fill="#000000">include/indigox/algorithm</text>
<text text-anchor="start" x="62" y="-16.5" font-family="Helvetica,sans-Serif" font-size="10.00" fill="#000000">/electron_assignment/astar</text>
<text text-anchor="middle" x="122.0317" y="-6.5" font-family="Helvetica,sans-Serif" font-size="10.00" fill="#000000">_optimisation.hpp</text>
</a>
</g>
</g>
<!-- Node36&#45;&gt;Node38 -->
<g id="edge7" class="edge">
<title>Node36&#45;&gt;Node38</title>
<path fill="none" stroke="#191970" d="M141.8262,-136.0331C127.3102,-128.4746 113.456,-118.0887 105.0317,-104 92.9749,-83.8361 102.1005,-56.6229 110.9616,-38.5907"/>
<polygon fill="#191970" stroke="#191970" points="140.3765,-139.2194 150.9074,-140.3817 143.3998,-132.9059 140.3765,-139.2194"/>
</g>
<!-- Node39 -->
<g id="node7" class="node">
<title>Node39</title>
<g id="a_node7"><a xlink:href="local__optimisation_8hpp.html" target="_top" xlink:title=" ">
<polygon fill="#ffffff" stroke="#000000" points="225.8325,-.5 225.8325,-38.5 360.231,-38.5 360.231,-.5 225.8325,-.5"/>
<text text-anchor="start" x="233.8325" y="-26.5" font-family="Helvetica,sans-Serif" font-size="10.00" fill="#000000">include/indigox/algorithm</text>
<text text-anchor="start" x="233.8325" y="-16.5" font-family="Helvetica,sans-Serif" font-size="10.00" fill="#000000">/electron_assignment/local</text>
<text text-anchor="middle" x="293.0317" y="-6.5" font-family="Helvetica,sans-Serif" font-size="10.00" fill="#000000">_optimisation.hpp</text>
</a>
</g>
</g>
<!-- Node36&#45;&gt;Node39 -->
<g id="edge8" class="edge">
<title>Node36&#45;&gt;Node39</title>
<path fill="none" stroke="#191970" d="M256.2372,-136.0331C270.7533,-128.4746 284.6075,-118.0887 293.0317,-104 304.8517,-84.2322 302.1737,-56.9292 298.3348,-38.7684"/>
<polygon fill="#191970" stroke="#191970" points="254.6637,-132.9059 247.1561,-140.3817 257.687,-139.2194 254.6637,-132.9059"/>
</g>
<!-- Node37&#45;&gt;Node38 -->
<g id="edge5" class="edge">
<title>Node37&#45;&gt;Node38</title>
<path fill="none" stroke="#191970" d="M175.9033,-68.4742C165.4947,-59.0118 153.2927,-47.9191 143.136,-38.6857"/>
<polygon fill="#191970" stroke="#191970" points="173.6958,-71.1975 183.4496,-75.3345 178.4046,-66.0179 173.6958,-71.1975"/>
</g>
<!-- Node37&#45;&gt;Node39 -->
<g id="edge6" class="edge">
<title>Node37&#45;&gt;Node39</title>
<path fill="none" stroke="#191970" d="M226.1511,-69.3047C239.0946,-59.6659 254.5043,-48.1906 267.2681,-38.6857"/>
<polygon fill="#191970" stroke="#191970" points="223.984,-66.5546 218.054,-75.3345 228.1649,-72.1689 223.984,-66.5546"/>
</g>
<!-- Node41 -->
<g id="node9" class="node">
<title>Node41</title>
<g id="a_node9"><a xlink:href="molecule__impl_8hpp.html" target="_top" xlink:title=" ">
<polygon fill="#ffffff" stroke="#000000" points="368.8916,-75.5 368.8916,-103.5 487.1719,-103.5 487.1719,-75.5 368.8916,-75.5"/>
<text text-anchor="start" x="376.8916" y="-91.5" font-family="Helvetica,sans-Serif" font-size="10.00" fill="#000000">include/indigox/classes</text>
<text text-anchor="middle" x="428.0317" y="-81.5" font-family="Helvetica,sans-Serif" font-size="10.00" fill="#000000">/molecule_impl.hpp</text>
</a>
</g>
</g>
<!-- Node40&#45;&gt;Node41 -->
<g id="edge10" class="edge">
<title>Node40&#45;&gt;Node41</title>
<path fill="none" stroke="#191970" d="M358.4415,-134.7337C373.9155,-124.6755 392.363,-112.6847 406.3756,-103.5765"/>
<polygon fill="#191970" stroke="#191970" points="356.2072,-132.0115 349.7302,-140.396 360.0222,-137.8806 356.2072,-132.0115"/>
</g>
<!-- Node42&#45;&gt;Node41 -->
<g id="edge12" class="edge">
<title>Node42&#45;&gt;Node41</title>
<path fill="none" stroke="#191970" d="M446.543,-130.9907C442.4445,-121.8044 437.882,-111.5781 434.312,-103.5765"/>
<polygon fill="#191970" stroke="#191970" points="443.4684,-132.6897 450.7392,-140.396 449.861,-129.8376 443.4684,-132.6897"/>
</g>
</g>
</svg>
