<?xml version="1.0" encoding="UTF-8" standalone="no"?>
<!DOCTYPE svg PUBLIC "-//W3C//DTD SVG 1.1//EN"
 "http://www.w3.org/Graphics/SVG/1.1/DTD/svg11.dtd">
<!-- Generated by graphviz version 2.40.1 (20161225.0304)
 -->
<!-- Title: src/classes/bond.cpp Pages: 1 -->
<svg width="3920pt" height="387pt"
 viewBox="0.00 0.00 3919.71 387.00" xmlns="http://www.w3.org/2000/svg" xmlns:xlink="http://www.w3.org/1999/xlink">
<g id="graph0" class="graph" transform="scale(1 1) rotate(0) translate(4 383)">
<title>src/classes/bond.cpp</title>
<polygon fill="#ffffff" stroke="transparent" points="-4,4 -4,-383 3915.7138,-383 3915.7138,4 -4,4"/>
<!-- Node0 -->
<g id="node1" class="node">
<title>Node0</title>
<polygon fill="#bfbfbf" stroke="#000000" points="1394.3183,-360.5 1394.3183,-378.5 1503.6972,-378.5 1503.6972,-360.5 1394.3183,-360.5"/>
<text text-anchor="middle" x="1449.0078" y="-366.5" font-family="Helvetica,sans-Serif" font-size="10.00" fill="#000000">src/classes/bond.cpp</text>
</g>
<!-- Node1 -->
<g id="node2" class="node">
<title>Node1</title>
<g id="a_node2"><a xlink:href="atom_8hpp.html" target="_top" xlink:title="indigox/classes/atom.hpp">
<polygon fill="#ffffff" stroke="#000000" points="190.8652,-125.5 190.8652,-143.5 319.1504,-143.5 319.1504,-125.5 190.8652,-125.5"/>
<text text-anchor="middle" x="255.0078" y="-131.5" font-family="Helvetica,sans-Serif" font-size="10.00" fill="#000000">indigox/classes/atom.hpp</text>
</a>
</g>
</g>
<!-- Node0&#45;&gt;Node1 -->
<g id="edge1" class="edge">
<title>Node0&#45;&gt;Node1</title>
<path fill="none" stroke="#191970" d="M1394.1457,-364.2649C1201.9942,-345.4398 560.6674,-278.3489 369.0078,-204 333.4895,-190.2217 296.589,-165.4885 274.721,-149.546"/>
<polygon fill="#191970" stroke="#191970" points="276.6982,-146.6548 266.5813,-143.5086 272.5281,-152.2771 276.6982,-146.6548"/>
</g>
<!-- Node4 -->
<g id="node5" class="node">
<title>Node4</title>
<polygon fill="#ffffff" stroke="#bfbfbf" points="1156.9511,-.5 1156.9511,-18.5 1209.0644,-18.5 1209.0644,-.5 1156.9511,-.5"/>
<text text-anchor="middle" x="1183.0078" y="-6.5" font-family="Helvetica,sans-Serif" font-size="10.00" fill="#000000">memory</text>
</g>
<!-- Node0&#45;&gt;Node4 -->
<g id="edge105" class="edge">
<title>Node0&#45;&gt;Node4</title>
<path fill="none" stroke="#191970" d="M1394.0126,-367.8782C1129.518,-359.7247 1.0078,-320.7608 1.0078,-249.5 1.0078,-249.5 1.0078,-249.5 1.0078,-194.5 1.0078,-160.329 -3.0234,-145.2432 20.0078,-120 78.1816,-56.2388 118.3128,-71.6264 203.0078,-55 388.8689,-18.5139 991.4913,-11.082 1146.4233,-9.76"/>
<polygon fill="#191970" stroke="#191970" points="1146.8218,-13.2569 1156.7928,-9.675 1146.7644,-6.2572 1146.8218,-13.2569"/>
</g>
<!-- Node7 -->
<g id="node8" class="node">
<title>Node7</title>
<g id="a_node8"><a xlink:href="bond_8hpp.html" target="_top" xlink:title="indigox/classes/bond.hpp">
<polygon fill="#ffffff" stroke="#000000" points="1362.8579,-125.5 1362.8579,-143.5 1491.1577,-143.5 1491.1577,-125.5 1362.8579,-125.5"/>
<text text-anchor="middle" x="1427.0078" y="-131.5" font-family="Helvetica,sans-Serif" font-size="10.00" fill="#000000">indigox/classes/bond.hpp</text>
</a>
</g>
</g>
<!-- Node0&#45;&gt;Node7 -->
<g id="edge8" class="edge">
<title>Node0&#45;&gt;Node7</title>
<path fill="none" stroke="#191970" d="M1448.6862,-360.3129C1448.1548,-346.2368 1446.9542,-318.4933 1445.0078,-295 1440.7584,-243.7094 1433.3491,-183.4589 1429.4957,-153.4644"/>
<polygon fill="#191970" stroke="#191970" points="1432.9647,-152.9984 1428.207,-143.5319 1426.0229,-153.8992 1432.9647,-152.9984"/>
</g>
<!-- Node8 -->
<g id="node9" class="node">
<title>Node8</title>
<polygon fill="#ffffff" stroke="#bfbfbf" points="1747.6162,-60.5 1747.6162,-78.5 1786.3994,-78.5 1786.3994,-60.5 1747.6162,-60.5"/>
<text text-anchor="middle" x="1767.0078" y="-66.5" font-family="Helvetica,sans-Serif" font-size="10.00" fill="#000000">array</text>
</g>
<!-- Node0&#45;&gt;Node8 -->
<g id="edge104" class="edge">
<title>Node0&#45;&gt;Node8</title>
<path fill="none" stroke="#191970" d="M1504.0037,-365.5123C1618.7277,-355.6798 1873.0078,-325.333 1873.0078,-249.5 1873.0078,-249.5 1873.0078,-249.5 1873.0078,-194.5 1873.0078,-167.7113 1815.6606,-112.7042 1785.3279,-85.483"/>
<polygon fill="#191970" stroke="#191970" points="1787.3617,-82.6083 1777.559,-78.5885 1782.7153,-87.844 1787.3617,-82.6083"/>
</g>
<!-- Node9 -->
<g id="node10" class="node">
<title>Node9</title>
<g id="a_node10"><a xlink:href="forcefield_8hpp.html" target="_top" xlink:title="indigox/classes/forcefield.hpp">
<polygon fill="#ffffff" stroke="#000000" points="1074.6928,-185.5 1074.6928,-203.5 1221.3227,-203.5 1221.3227,-185.5 1074.6928,-185.5"/>
<text text-anchor="middle" x="1148.0078" y="-191.5" font-family="Helvetica,sans-Serif" font-size="10.00" fill="#000000">indigox/classes/forcefield.hpp</text>
</a>
</g>
</g>
<!-- Node0&#45;&gt;Node9 -->
<g id="edge12" class="edge">
<title>Node0&#45;&gt;Node9</title>
<path fill="none" stroke="#191970" d="M1403.081,-360.4406C1372.8498,-353.283 1333.0851,-341.5378 1301.0078,-324 1244.2808,-292.9854 1189.3105,-238.7845 1163.4226,-211.3841"/>
<polygon fill="#191970" stroke="#191970" points="1165.7302,-208.7265 1156.3523,-203.7963 1160.6089,-213.4985 1165.7302,-208.7265"/>
</g>
<!-- Node20 -->
<g id="node21" class="node">
<title>Node20</title>
<g id="a_node21"><a xlink:href="molecule_8hpp.html" target="_top" xlink:title="indigox/classes/molecule.hpp">
<polygon fill="#ffffff" stroke="#000000" points="1528.9712,-185.5 1528.9712,-203.5 1675.0444,-203.5 1675.0444,-185.5 1528.9712,-185.5"/>
<text text-anchor="middle" x="1602.0078" y="-191.5" font-family="Helvetica,sans-Serif" font-size="10.00" fill="#000000">indigox/classes/molecule.hpp</text>
</a>
</g>
</g>
<!-- Node0&#45;&gt;Node20 -->
<g id="edge30" class="edge">
<title>Node0&#45;&gt;Node20</title>
<path fill="none" stroke="#191970" d="M1477.9391,-360.3832C1497.2259,-353.0918 1522.0543,-341.2149 1539.0078,-324 1570.6165,-291.9038 1588.9392,-240.839 1597.0201,-213.4052"/>
<polygon fill="#191970" stroke="#191970" points="1600.4611,-214.0962 1599.785,-203.523 1593.72,-212.2101 1600.4611,-214.0962"/>
</g>
<!-- Node23 -->
<g id="node24" class="node">
<title>Node23</title>
<g id="a_node24"><a xlink:href="molecule__impl_8hpp.html" target="_top" xlink:title="indigox/classes/molecule\l_impl.hpp">
<polygon fill="#ffffff" stroke="#000000" points="1309.7026,-295.5 1309.7026,-323.5 1436.313,-323.5 1436.313,-295.5 1309.7026,-295.5"/>
<text text-anchor="start" x="1317.7026" y="-311.5" font-family="Helvetica,sans-Serif" font-size="10.00" fill="#000000">indigox/classes/molecule</text>
<text text-anchor="middle" x="1373.0078" y="-301.5" font-family="Helvetica,sans-Serif" font-size="10.00" fill="#000000">_impl.hpp</text>
</a>
</g>
</g>
<!-- Node0&#45;&gt;Node23 -->
<g id="edge37" class="edge">
<title>Node0&#45;&gt;Node23</title>
<path fill="none" stroke="#191970" d="M1437.465,-360.3873C1427.3141,-352.3734 1412.1628,-340.4119 1399.1,-330.0991"/>
<polygon fill="#191970" stroke="#191970" points="1400.9086,-327.0677 1390.8909,-323.6183 1396.571,-332.5619 1400.9086,-327.0677"/>
</g>
<!-- Node35 -->
<g id="node36" class="node">
<title>Node35</title>
<g id="a_node36"><a xlink:href="serialise_8hpp.html" target="_top" xlink:title="../utils/serialise.hpp">
<polygon fill="#ffffff" stroke="#000000" points="2895.4883,-125.5 2895.4883,-143.5 2996.5273,-143.5 2996.5273,-125.5 2895.4883,-125.5"/>
<text text-anchor="middle" x="2946.0078" y="-131.5" font-family="Helvetica,sans-Serif" font-size="10.00" fill="#000000">../utils/serialise.hpp</text>
</a>
</g>
</g>
<!-- Node0&#45;&gt;Node35 -->
<g id="edge103" class="edge">
<title>Node0&#45;&gt;Node35</title>
<path fill="none" stroke="#191970" d="M1503.7925,-365.1122C1586.875,-358.1638 1749.6127,-343.4025 1887.0078,-324 2274.341,-269.302 2736.7107,-177.2676 2892.0922,-145.598"/>
<polygon fill="#191970" stroke="#191970" points="2893.2141,-148.9412 2902.3119,-143.5118 2891.8139,-142.0827 2893.2141,-148.9412"/>
</g>
<!-- Node2 -->
<g id="node3" class="node">
<title>Node2</title>
<g id="a_node3"><a xlink:href="fwd__declares_8hpp.html" target="_top" xlink:title="../utils/fwd_declares.hpp">
<polygon fill="#ffffff" stroke="#000000" points="1254.3677,-60.5 1254.3677,-78.5 1377.6479,-78.5 1377.6479,-60.5 1254.3677,-60.5"/>
<text text-anchor="middle" x="1316.0078" y="-66.5" font-family="Helvetica,sans-Serif" font-size="10.00" fill="#000000">../utils/fwd_declares.hpp</text>
</a>
</g>
</g>
<!-- Node1&#45;&gt;Node2 -->
<g id="edge2" class="edge">
<title>Node1&#45;&gt;Node2</title>
<path fill="none" stroke="#191970" d="M319.4607,-129.1881C355.4968,-126.2971 401.2348,-122.7584 442.0078,-120 739.4804,-99.8749 1094.2561,-80.94 1243.8446,-73.1883"/>
<polygon fill="#191970" stroke="#191970" points="1244.4509,-76.6617 1254.2567,-72.6496 1244.0892,-69.671 1244.4509,-76.6617"/>
</g>
<!-- Node1&#45;&gt;Node4 -->
<g id="edge6" class="edge">
<title>Node1&#45;&gt;Node4</title>
<path fill="none" stroke="#191970" d="M261.0046,-125.4773C273.1379,-108.109 302.4884,-70.3884 338.0078,-55 412.8819,-22.5616 994.2119,-12.1577 1146.5571,-9.9743"/>
<polygon fill="#191970" stroke="#191970" points="1146.8218,-13.4711 1156.7717,-9.8311 1146.7236,-6.4718 1146.8218,-13.4711"/>
</g>
<!-- Node5 -->
<g id="node6" class="node">
<title>Node5</title>
<polygon fill="#ffffff" stroke="#bfbfbf" points="212.3774,-60.5 212.3774,-78.5 285.6382,-78.5 285.6382,-60.5 212.3774,-60.5"/>
<text text-anchor="middle" x="249.0078" y="-66.5" font-family="Helvetica,sans-Serif" font-size="10.00" fill="#000000">Eigen/Dense</text>
</g>
<!-- Node1&#45;&gt;Node5 -->
<g id="edge5" class="edge">
<title>Node1&#45;&gt;Node5</title>
<path fill="none" stroke="#191970" d="M254.1735,-125.462C253.3057,-116.061 251.9203,-101.0518 250.8025,-88.943"/>
<polygon fill="#191970" stroke="#191970" points="254.2783,-88.5181 249.8738,-78.8821 247.3079,-89.1615 254.2783,-88.5181"/>
</g>
<!-- Node6 -->
<g id="node7" class="node">
<title>Node6</title>
<polygon fill="#ffffff" stroke="#bfbfbf" points="695.3921,-60.5 695.3921,-78.5 738.6235,-78.5 738.6235,-60.5 695.3921,-60.5"/>
<text text-anchor="middle" x="717.0078" y="-66.5" font-family="Helvetica,sans-Serif" font-size="10.00" fill="#000000">vector</text>
</g>
<!-- Node1&#45;&gt;Node6 -->
<g id="edge7" class="edge">
<title>Node1&#45;&gt;Node6</title>
<path fill="none" stroke="#191970" d="M319.2469,-125.462C419.4454,-111.3648 609.2762,-84.657 684.8204,-74.0285"/>
<polygon fill="#191970" stroke="#191970" points="685.6979,-77.4396 695.1128,-72.5805 684.7226,-70.5079 685.6979,-77.4396"/>
</g>
<!-- Node3 -->
<g id="node4" class="node">
<title>Node3</title>
<polygon fill="#ffffff" stroke="#bfbfbf" points="1901.5571,-.5 1901.5571,-18.5 1946.4585,-18.5 1946.4585,-.5 1901.5571,-.5"/>
<text text-anchor="middle" x="1924.0078" y="-6.5" font-family="Helvetica,sans-Serif" font-size="10.00" fill="#000000">cstdint</text>
</g>
<!-- Node2&#45;&gt;Node3 -->
<g id="edge3" class="edge">
<title>Node2&#45;&gt;Node3</title>
<path fill="none" stroke="#191970" d="M1377.652,-63.4167C1505.105,-50.8391 1793.8384,-22.3457 1891.2273,-12.7349"/>
<polygon fill="#191970" stroke="#191970" points="1891.7466,-16.2008 1901.3545,-11.7355 1891.0591,-9.2346 1891.7466,-16.2008"/>
</g>
<!-- Node2&#45;&gt;Node4 -->
<g id="edge4" class="edge">
<title>Node2&#45;&gt;Node4</title>
<path fill="none" stroke="#191970" d="M1295.808,-60.3873C1273.5129,-50.3294 1237.4338,-34.0531 1212.0959,-22.6225"/>
<polygon fill="#191970" stroke="#191970" points="1213.5166,-19.4237 1202.9619,-18.5019 1210.638,-25.8045 1213.5166,-19.4237"/>
</g>
<!-- Node7&#45;&gt;Node2 -->
<g id="edge9" class="edge">
<title>Node7&#45;&gt;Node2</title>
<path fill="none" stroke="#191970" d="M1411.5737,-125.462C1393.122,-114.6569 1362.0188,-96.4434 1340.3254,-83.74"/>
<polygon fill="#191970" stroke="#191970" points="1342.0666,-80.7037 1331.6686,-78.6708 1338.5293,-86.7443 1342.0666,-80.7037"/>
</g>
<!-- Node7&#45;&gt;Node4 -->
<g id="edge11" class="edge">
<title>Node7&#45;&gt;Node4</title>
<path fill="none" stroke="#191970" d="M1425.1449,-125.4974C1421.2069,-108.8368 1410.4059,-73.2361 1387.0078,-55 1361.2357,-34.9137 1270.7658,-20.5706 1219.3808,-13.8308"/>
<polygon fill="#191970" stroke="#191970" points="1219.7145,-10.345 1209.3509,-12.5467 1218.8255,-17.2884 1219.7145,-10.345"/>
</g>
<!-- Node7&#45;&gt;Node8 -->
<g id="edge10" class="edge">
<title>Node7&#45;&gt;Node8</title>
<path fill="none" stroke="#191970" d="M1472.1668,-125.463C1481.3757,-123.6391 1491.0014,-121.7462 1500.0078,-120 1586.303,-103.2691 1688.4245,-84.1404 1737.6186,-74.9677"/>
<polygon fill="#191970" stroke="#191970" points="1738.3758,-78.3869 1747.5654,-73.1143 1737.0935,-71.5054 1738.3758,-78.3869"/>
</g>
<!-- Node9&#45;&gt;Node2 -->
<g id="edge13" class="edge">
<title>Node9&#45;&gt;Node2</title>
<path fill="none" stroke="#191970" d="M1160.3612,-185.3085C1189.0024,-163.9981 1260.1791,-111.0392 1295.4817,-84.7724"/>
<polygon fill="#191970" stroke="#191970" points="1297.7027,-87.4825 1303.6362,-78.705 1293.5241,-81.8664 1297.7027,-87.4825"/>
</g>
<!-- Node9&#45;&gt;Node4 -->
<g id="edge28" class="edge">
<title>Node9&#45;&gt;Node4</title>
<path fill="none" stroke="#191970" d="M1149.7434,-185.3258C1155.1785,-156.5976 1171.9496,-67.9506 1179.3894,-28.6259"/>
<polygon fill="#191970" stroke="#191970" points="1182.8417,-29.2059 1181.2617,-18.7296 1175.9637,-27.9046 1182.8417,-29.2059"/>
</g>
<!-- Node9&#45;&gt;Node6 -->
<g id="edge29" class="edge">
<title>Node9&#45;&gt;Node6</title>
<path fill="none" stroke="#191970" d="M1075.4788,-185.426C1036.9063,-178.7493 989.4393,-167.5093 950.0078,-149 930.776,-139.9725 931.1135,-129.2914 912.0078,-120 857.8775,-93.6758 788.3871,-79.9211 748.6601,-73.7336"/>
<polygon fill="#191970" stroke="#191970" points="749.1628,-70.27 738.7551,-72.2526 748.1276,-77.193 749.1628,-70.27"/>
</g>
<!-- Node10 -->
<g id="node11" class="node">
<title>Node10</title>
<g id="a_node11"><a xlink:href="periodictable_8hpp.html" target="_top" xlink:title="periodictable.hpp">
<polygon fill="#ffffff" stroke="#000000" points="1900.9243,-125.5 1900.9243,-143.5 1993.0913,-143.5 1993.0913,-125.5 1900.9243,-125.5"/>
<text text-anchor="middle" x="1947.0078" y="-131.5" font-family="Helvetica,sans-Serif" font-size="10.00" fill="#000000">periodictable.hpp</text>
</a>
</g>
</g>
<!-- Node9&#45;&gt;Node10 -->
<g id="edge14" class="edge">
<title>Node9&#45;&gt;Node10</title>
<path fill="none" stroke="#191970" d="M1221.7471,-185.7818C1224.535,-185.5078 1227.296,-185.246 1230.0078,-185 1473.0901,-162.9483 1534.6243,-167.4335 1778.0078,-149 1815.5002,-146.1604 1857.6335,-142.5463 1890.4519,-139.6367"/>
<polygon fill="#191970" stroke="#191970" points="1891.1121,-143.0919 1900.7622,-138.7187 1890.4912,-136.1195 1891.1121,-143.0919"/>
</g>
<!-- Node18 -->
<g id="node19" class="node">
<title>Node18</title>
<polygon fill="#ffffff" stroke="#bfbfbf" points="820.6582,-125.5 820.6582,-143.5 903.3574,-143.5 903.3574,-125.5 820.6582,-125.5"/>
<text text-anchor="middle" x="862.0078" y="-131.5" font-family="Helvetica,sans-Serif" font-size="10.00" fill="#000000">EASTL/bitset.h</text>
</g>
<!-- Node9&#45;&gt;Node18 -->
<g id="edge26" class="edge">
<title>Node9&#45;&gt;Node18</title>
<path fill="none" stroke="#191970" d="M1097.3425,-185.4745C1050.4097,-176.8883 978.7507,-163.2046 917.0078,-149 912.9479,-148.066 908.7324,-147.046 904.5229,-145.9938"/>
<polygon fill="#191970" stroke="#191970" points="905.3429,-142.5909 894.7877,-143.5054 903.6094,-149.3729 905.3429,-142.5909"/>
</g>
<!-- Node19 -->
<g id="node20" class="node">
<title>Node19</title>
<polygon fill="#ffffff" stroke="#bfbfbf" points="959.2812,-125.5 959.2812,-143.5 994.7344,-143.5 994.7344,-125.5 959.2812,-125.5"/>
<text text-anchor="middle" x="977.0078" y="-131.5" font-family="Helvetica,sans-Serif" font-size="10.00" fill="#000000">map</text>
</g>
<!-- Node9&#45;&gt;Node19 -->
<g id="edge27" class="edge">
<title>Node9&#45;&gt;Node19</title>
<path fill="none" stroke="#191970" d="M1113.0229,-185.4241C1083.4505,-177.287 1040.2393,-164.2946 1004.0078,-149 1003.3093,-148.7051 1002.6049,-148.3982 1001.8974,-148.0814"/>
<polygon fill="#191970" stroke="#191970" points="1003.2753,-144.8588 992.7564,-143.5925 1000.1898,-151.1421 1003.2753,-144.8588"/>
</g>
<!-- Node10&#45;&gt;Node2 -->
<g id="edge21" class="edge">
<title>Node10&#45;&gt;Node2</title>
<path fill="none" stroke="#191970" d="M1900.7131,-127.1412C1884.3968,-124.6827 1865.9111,-122.0498 1849.0078,-120 1684.4165,-100.0403 1490.423,-83.378 1387.9086,-75.1083"/>
<polygon fill="#191970" stroke="#191970" points="1387.9233,-71.5983 1377.6751,-74.2861 1387.3626,-78.5758 1387.9233,-71.5983"/>
</g>
<!-- Node10&#45;&gt;Node3 -->
<g id="edge24" class="edge">
<title>Node10&#45;&gt;Node3</title>
<path fill="none" stroke="#191970" d="M1945.2791,-125.1047C1941.5144,-104.6447 1932.5122,-55.7198 1927.5098,-28.5327"/>
<polygon fill="#191970" stroke="#191970" points="1930.946,-27.8661 1925.6941,-18.6646 1924.0616,-29.1329 1930.946,-27.8661"/>
</g>
<!-- Node10&#45;&gt;Node8 -->
<g id="edge23" class="edge">
<title>Node10&#45;&gt;Node8</title>
<path fill="none" stroke="#191970" d="M1918.2974,-125.4193C1888.48,-115.8065 1840.6003,-99.859 1800.0078,-84 1798.6235,-83.4592 1797.2119,-82.8939 1795.7902,-82.3133"/>
<polygon fill="#191970" stroke="#191970" points="1797.0127,-79.0302 1786.4392,-78.358 1794.2857,-85.4772 1797.0127,-79.0302"/>
</g>
<!-- Node11 -->
<g id="node12" class="node">
<title>Node11</title>
<g id="a_node12"><a xlink:href="common_8hpp.html" target="_top" xlink:title="../utils/common.hpp">
<polygon fill="#ffffff" stroke="#000000" points="1989.6557,-60.5 1989.6557,-78.5 2092.3598,-78.5 2092.3598,-60.5 1989.6557,-60.5"/>
<text text-anchor="middle" x="2041.0078" y="-66.5" font-family="Helvetica,sans-Serif" font-size="10.00" fill="#000000">../utils/common.hpp</text>
</a>
</g>
</g>
<!-- Node10&#45;&gt;Node11 -->
<g id="edge15" class="edge">
<title>Node10&#45;&gt;Node11</title>
<path fill="none" stroke="#191970" d="M1960.0781,-125.462C1975.4249,-114.8499 2001.1062,-97.0915 2019.4228,-84.4258"/>
<polygon fill="#191970" stroke="#191970" points="2021.511,-87.2371 2027.7455,-78.6708 2017.5297,-81.4796 2021.511,-87.2371"/>
</g>
<!-- Node16 -->
<g id="node17" class="node">
<title>Node16</title>
<polygon fill="#ffffff" stroke="#bfbfbf" points="269.4858,-.5 269.4858,-18.5 380.5298,-18.5 380.5298,-.5 269.4858,-.5"/>
<text text-anchor="middle" x="325.0078" y="-6.5" font-family="Helvetica,sans-Serif" font-size="10.00" fill="#000000">EASTL/vector_map.h</text>
</g>
<!-- Node10&#45;&gt;Node16 -->
<g id="edge22" class="edge">
<title>Node10&#45;&gt;Node16</title>
<path fill="none" stroke="#191970" d="M1922.1689,-125.4507C1898.5049,-116.3824 1862.254,-101.3106 1833.0078,-84 1814.7251,-73.1786 1815.0268,-62.1131 1795.0078,-55 1728.1255,-31.2354 668.0941,-14.4229 390.909,-10.418"/>
<polygon fill="#191970" stroke="#191970" points="390.6578,-6.9141 380.6085,-10.2699 390.5571,-13.9134 390.6578,-6.9141"/>
</g>
<!-- Node17 -->
<g id="node18" class="node">
<title>Node17</title>
<polygon fill="#ffffff" stroke="#bfbfbf" points="1841.8354,-60.5 1841.8354,-78.5 1896.1802,-78.5 1896.1802,-60.5 1841.8354,-60.5"/>
<text text-anchor="middle" x="1869.0078" y="-66.5" font-family="Helvetica,sans-Serif" font-size="10.00" fill="#000000">iostream</text>
</g>
<!-- Node10&#45;&gt;Node17 -->
<g id="edge25" class="edge">
<title>Node10&#45;&gt;Node17</title>
<path fill="none" stroke="#191970" d="M1936.1622,-125.462C1923.7298,-115.1017 1903.1241,-97.9303 1888.0108,-85.3358"/>
<polygon fill="#191970" stroke="#191970" points="1890.1892,-82.5952 1880.2664,-78.8821 1885.7079,-87.9728 1890.1892,-82.5952"/>
</g>
<!-- Node11&#45;&gt;Node4 -->
<g id="edge18" class="edge">
<title>Node11&#45;&gt;Node4</title>
<path fill="none" stroke="#191970" d="M1989.3939,-63.4655C1964.0028,-60.6326 1932.9267,-57.3669 1905.0078,-55 1642.4559,-32.7412 1325.3381,-16.4073 1219.4187,-11.2363"/>
<polygon fill="#191970" stroke="#191970" points="1219.4219,-7.7324 1209.2639,-10.7432 1219.0824,-14.7242 1219.4219,-7.7324"/>
</g>
<!-- Node12 -->
<g id="node13" class="node">
<title>Node12</title>
<polygon fill="#ffffff" stroke="#bfbfbf" points="2012.4438,-.5 2012.4438,-18.5 2069.5718,-18.5 2069.5718,-.5 2012.4438,-.5"/>
<text text-anchor="middle" x="2041.0078" y="-6.5" font-family="Helvetica,sans-Serif" font-size="10.00" fill="#000000">algorithm</text>
</g>
<!-- Node11&#45;&gt;Node12 -->
<g id="edge16" class="edge">
<title>Node11&#45;&gt;Node12</title>
<path fill="none" stroke="#191970" d="M2041.0078,-60.3873C2041.0078,-52.0174 2041.0078,-39.3414 2041.0078,-28.735"/>
<polygon fill="#191970" stroke="#191970" points="2044.5079,-28.6984 2041.0078,-18.6985 2037.5079,-28.6985 2044.5079,-28.6984"/>
</g>
<!-- Node13 -->
<g id="node14" class="node">
<title>Node13</title>
<polygon fill="#ffffff" stroke="#bfbfbf" points="1532.4463,-.5 1532.4463,-18.5 1579.5693,-18.5 1579.5693,-.5 1532.4463,-.5"/>
<text text-anchor="middle" x="1556.0078" y="-6.5" font-family="Helvetica,sans-Serif" font-size="10.00" fill="#000000">iterator</text>
</g>
<!-- Node11&#45;&gt;Node13 -->
<g id="edge17" class="edge">
<title>Node11&#45;&gt;Node13</title>
<path fill="none" stroke="#191970" d="M1989.5635,-63.1358C1889.9685,-50.8147 1673.2839,-24.0084 1589.7699,-13.6768"/>
<polygon fill="#191970" stroke="#191970" points="1590.1587,-10.1983 1579.8046,-12.4439 1589.2992,-17.1453 1590.1587,-10.1983"/>
</g>
<!-- Node14 -->
<g id="node15" class="node">
<title>Node14</title>
<polygon fill="#ffffff" stroke="#bfbfbf" points="2097.7812,-.5 2097.7812,-18.5 2138.2344,-18.5 2138.2344,-.5 2097.7812,-.5"/>
<text text-anchor="middle" x="2118.0078" y="-6.5" font-family="Helvetica,sans-Serif" font-size="10.00" fill="#000000">string</text>
</g>
<!-- Node11&#45;&gt;Node14 -->
<g id="edge19" class="edge">
<title>Node11&#45;&gt;Node14</title>
<path fill="none" stroke="#191970" d="M2052.7024,-60.3873C2064.7572,-50.994 2083.7723,-36.177 2098.1819,-24.9487"/>
<polygon fill="#191970" stroke="#191970" points="2100.7186,-27.4092 2106.4554,-18.5019 2096.4161,-21.8876 2100.7186,-27.4092"/>
</g>
<!-- Node15 -->
<g id="node16" class="node">
<title>Node15</title>
<polygon fill="#ffffff" stroke="#bfbfbf" points="2164.9414,-.5 2164.9414,-18.5 2227.0742,-18.5 2227.0742,-.5 2164.9414,-.5"/>
<text text-anchor="middle" x="2196.0078" y="-6.5" font-family="Helvetica,sans-Serif" font-size="10.00" fill="#000000">type_traits</text>
</g>
<!-- Node11&#45;&gt;Node15 -->
<g id="edge20" class="edge">
<title>Node11&#45;&gt;Node15</title>
<path fill="none" stroke="#191970" d="M2064.549,-60.3873C2090.8753,-50.1964 2133.6931,-33.6218 2163.2722,-22.1718"/>
<polygon fill="#191970" stroke="#191970" points="2164.6908,-25.3759 2172.7529,-18.5019 2162.1638,-18.8479 2164.6908,-25.3759"/>
</g>
<!-- Node20&#45;&gt;Node2 -->
<g id="edge31" class="edge">
<title>Node20&#45;&gt;Node2</title>
<path fill="none" stroke="#191970" d="M1612.0974,-185.3449C1627.4546,-170.3222 1653.1875,-140.1035 1636.0078,-120 1620.0655,-101.3445 1477.1364,-84.6547 1387.7723,-75.9208"/>
<polygon fill="#191970" stroke="#191970" points="1387.9794,-72.4246 1377.6891,-74.9468 1387.3063,-79.3922 1387.9794,-72.4246"/>
</g>
<!-- Node20&#45;&gt;Node3 -->
<g id="edge33" class="edge">
<title>Node20&#45;&gt;Node3</title>
<path fill="none" stroke="#191970" d="M1675.3916,-191.352C1784.929,-185.8902 1980.6845,-172.8864 2002.0078,-149 2010.5911,-139.3849 2005.9069,-132.285 2002.0078,-120 1998.6906,-109.5486 1958.69,-55.5228 1937.3026,-27.0728"/>
<polygon fill="#191970" stroke="#191970" points="1939.8973,-24.7005 1931.0827,-18.8222 1934.3077,-28.9143 1939.8973,-24.7005"/>
</g>
<!-- Node20&#45;&gt;Node6 -->
<g id="edge36" class="edge">
<title>Node20&#45;&gt;Node6</title>
<path fill="none" stroke="#191970" d="M1552.346,-185.4542C1455.9592,-167.9642 1246.6265,-130.3223 1174.0078,-120 1015.0734,-97.4085 823.8178,-79.1464 749.1081,-72.3536"/>
<polygon fill="#191970" stroke="#191970" points="749.2232,-68.8498 738.9487,-71.4355 748.593,-75.8214 749.2232,-68.8498"/>
</g>
<!-- Node20&#45;&gt;Node19 -->
<g id="edge34" class="edge">
<title>Node20&#45;&gt;Node19</title>
<path fill="none" stroke="#191970" d="M1528.7062,-192.7113C1391.3622,-188.736 1100.4474,-177.1904 1004.0078,-149 1002.9353,-148.6865 1001.8571,-148.3269 1000.7813,-147.9308"/>
<polygon fill="#191970" stroke="#191970" points="1001.9356,-144.6103 991.385,-143.6428 999.0295,-150.9786 1001.9356,-144.6103"/>
</g>
<!-- Node21 -->
<g id="node22" class="node">
<title>Node21</title>
<polygon fill="#ffffff" stroke="#bfbfbf" points="1587.0571,-125.5 1587.0571,-143.5 1626.9585,-143.5 1626.9585,-125.5 1587.0571,-125.5"/>
<text text-anchor="middle" x="1607.0078" y="-131.5" font-family="Helvetica,sans-Serif" font-size="10.00" fill="#000000">bitset</text>
</g>
<!-- Node20&#45;&gt;Node21 -->
<g id="edge32" class="edge">
<title>Node20&#45;&gt;Node21</title>
<path fill="none" stroke="#191970" d="M1602.7672,-185.3873C1603.4647,-177.0174 1604.521,-164.3414 1605.4049,-153.735"/>
<polygon fill="#191970" stroke="#191970" points="1608.8986,-153.9546 1606.2412,-143.6985 1601.9228,-153.3732 1608.8986,-153.9546"/>
</g>
<!-- Node22 -->
<g id="node23" class="node">
<title>Node22</title>
<polygon fill="#ffffff" stroke="#bfbfbf" points="1682.7051,-125.5 1682.7051,-143.5 1769.3105,-143.5 1769.3105,-125.5 1682.7051,-125.5"/>
<text text-anchor="middle" x="1726.0078" y="-131.5" font-family="Helvetica,sans-Serif" font-size="10.00" fill="#000000">unordered_map</text>
</g>
<!-- Node20&#45;&gt;Node22 -->
<g id="edge35" class="edge">
<title>Node20&#45;&gt;Node22</title>
<path fill="none" stroke="#191970" d="M1620.8407,-185.3873C1641.444,-175.418 1674.673,-159.3394 1698.2613,-147.9257"/>
<polygon fill="#191970" stroke="#191970" points="1699.9268,-151.0081 1707.4039,-143.5019 1696.8778,-144.707 1699.9268,-151.0081"/>
</g>
<!-- Node23&#45;&gt;Node1 -->
<g id="edge69" class="edge">
<title>Node23&#45;&gt;Node1</title>
<path fill="none" stroke="#191970" d="M1309.411,-304.7803C1125.7153,-290.7706 596.7778,-247.6715 429.0078,-204 375.4293,-190.0532 316.1828,-163.9313 282.4874,-147.9879"/>
<polygon fill="#191970" stroke="#191970" points="283.8172,-144.7442 273.2859,-143.5856 280.796,-151.0588 283.8172,-144.7442"/>
</g>
<!-- Node23&#45;&gt;Node2 -->
<g id="edge64" class="edge">
<title>Node23&#45;&gt;Node2</title>
<path fill="none" stroke="#191970" d="M1369.6129,-295.2056C1359.8264,-253.9996 1331.5546,-134.9605 1320.5071,-88.4445"/>
<polygon fill="#191970" stroke="#191970" points="1323.8618,-87.4225 1318.1457,-78.5019 1317.0513,-89.04 1323.8618,-87.4225"/>
</g>
<!-- Node23&#45;&gt;Node7 -->
<g id="edge70" class="edge">
<title>Node23&#45;&gt;Node7</title>
<path fill="none" stroke="#191970" d="M1374.1467,-295.2493C1376.3828,-271.6526 1382.4605,-223.2718 1397.0078,-185 1401.4101,-173.4182 1408.3912,-161.4548 1414.5117,-152.0807"/>
<polygon fill="#191970" stroke="#191970" points="1417.4943,-153.9187 1420.218,-143.6799 1411.7038,-149.9855 1417.4943,-153.9187"/>
</g>
<!-- Node23&#45;&gt;Node9 -->
<g id="edge95" class="edge">
<title>Node23&#45;&gt;Node9</title>
<path fill="none" stroke="#191970" d="M1345.4184,-295.3987C1301.8892,-273.1505 1217.8124,-230.1779 1174.7904,-208.1889"/>
<polygon fill="#191970" stroke="#191970" points="1176.2661,-205.0125 1165.7688,-203.5779 1173.0803,-211.2456 1176.2661,-205.0125"/>
</g>
<!-- Node23&#45;&gt;Node10 -->
<g id="edge97" class="edge">
<title>Node23&#45;&gt;Node10</title>
<path fill="none" stroke="#191970" d="M1419.0103,-295.4748C1528.8162,-261.9974 1804.724,-177.8792 1907.5607,-146.5266"/>
<polygon fill="#191970" stroke="#191970" points="1908.7011,-149.838 1917.2457,-143.5738 1906.6596,-143.1423 1908.7011,-149.838"/>
</g>
<!-- Node23&#45;&gt;Node20 -->
<g id="edge96" class="edge">
<title>Node23&#45;&gt;Node20</title>
<path fill="none" stroke="#191970" d="M1401.0877,-295.3987C1445.3907,-273.1505 1530.9622,-230.1779 1574.7491,-208.1889"/>
<polygon fill="#191970" stroke="#191970" points="1576.5652,-211.1934 1583.931,-203.5779 1573.4238,-204.9379 1576.5652,-211.1934"/>
</g>
<!-- Node23&#45;&gt;Node21 -->
<g id="edge102" class="edge">
<title>Node23&#45;&gt;Node21</title>
<path fill="none" stroke="#191970" d="M1390.7725,-295.2861C1403.2377,-285.2503 1420.2478,-271.4303 1435.0078,-259 1473.3198,-226.735 1479.2748,-214.149 1520.0078,-185 1539.181,-171.2794 1562.3264,-157.9861 1579.9227,-148.4851"/>
<polygon fill="#191970" stroke="#191970" points="1581.8839,-151.4062 1589.0671,-143.6182 1578.595,-145.2269 1581.8839,-151.4062"/>
</g>
<!-- Node24 -->
<g id="node25" class="node">
<title>Node24</title>
<g id="a_node25"><a xlink:href="condensed_8hpp.html" target="_top" xlink:title="../graph/condensed.hpp">
<polygon fill="#ffffff" stroke="#000000" points="694.4663,-185.5 694.4663,-203.5 815.5493,-203.5 815.5493,-185.5 694.4663,-185.5"/>
<text text-anchor="middle" x="755.0078" y="-191.5" font-family="Helvetica,sans-Serif" font-size="10.00" fill="#000000">../graph/condensed.hpp</text>
</a>
</g>
</g>
<!-- Node23&#45;&gt;Node24 -->
<g id="edge38" class="edge">
<title>Node23&#45;&gt;Node24</title>
<path fill="none" stroke="#191970" d="M1309.4872,-297.6798C1189.2932,-275.3136 930.2268,-227.1055 813.7903,-205.4385"/>
<polygon fill="#191970" stroke="#191970" points="814.1168,-201.9392 803.6453,-203.5507 812.8362,-208.8211 814.1168,-201.9392"/>
</g>
<!-- Node52 -->
<g id="node29" class="node">
<title>Node52</title>
<g id="a_node29"><a xlink:href="molecular_8hpp.html" target="_top" xlink:title="../graph/molecular.hpp">
<polygon fill="#ffffff" stroke="#000000" points="437.5302,-185.5 437.5302,-203.5 552.4853,-203.5 552.4853,-185.5 437.5302,-185.5"/>
<text text-anchor="middle" x="495.0078" y="-191.5" font-family="Helvetica,sans-Serif" font-size="10.00" fill="#000000">../graph/molecular.hpp</text>
</a>
</g>
</g>
<!-- Node23&#45;&gt;Node52 -->
<g id="edge52" class="edge">
<title>Node23&#45;&gt;Node52</title>
<path fill="none" stroke="#191970" d="M1309.511,-301.1832C1148.9094,-280.1477 727.5953,-224.9642 562.628,-203.3569"/>
<polygon fill="#191970" stroke="#191970" points="562.9779,-199.8729 552.608,-202.0445 562.0688,-206.8136 562.9779,-199.8729"/>
</g>
<!-- Node55 -->
<g id="node33" class="node">
<title>Node55</title>
<g id="a_node33"><a xlink:href="angle_8hpp.html" target="_top" xlink:title="angle.hpp">
<polygon fill="#ffffff" stroke="#000000" points="1509.0425,-125.5 1509.0425,-143.5 1568.9731,-143.5 1568.9731,-125.5 1509.0425,-125.5"/>
<text text-anchor="middle" x="1539.0078" y="-131.5" font-family="Helvetica,sans-Serif" font-size="10.00" fill="#000000">angle.hpp</text>
</a>
</g>
</g>
<!-- Node23&#45;&gt;Node55 -->
<g id="edge65" class="edge">
<title>Node23&#45;&gt;Node55</title>
<path fill="none" stroke="#191970" d="M1384.5501,-295.1647C1403.8656,-271.4463 1444.3358,-222.8946 1482.0078,-185 1494.0407,-172.896 1508.4324,-160.1577 1519.7442,-150.5028"/>
<polygon fill="#191970" stroke="#191970" points="1522.3211,-152.9079 1527.7039,-143.7823 1517.8051,-147.5593 1522.3211,-152.9079"/>
</g>
<!-- Node56 -->
<g id="node34" class="node">
<title>Node56</title>
<g id="a_node34"><a xlink:href="dihedral_8hpp.html" target="_top" xlink:title="dihedral.hpp">
<polygon fill="#ffffff" stroke="#000000" points="2023.4858,-240.5 2023.4858,-258.5 2094.5298,-258.5 2094.5298,-240.5 2023.4858,-240.5"/>
<text text-anchor="middle" x="2059.0078" y="-246.5" font-family="Helvetica,sans-Serif" font-size="10.00" fill="#000000">dihedral.hpp</text>
</a>
</g>
</g>
<!-- Node23&#45;&gt;Node56 -->
<g id="edge71" class="edge">
<title>Node23&#45;&gt;Node56</title>
<path fill="none" stroke="#191970" d="M1436.3154,-303.9629C1573.1537,-291.9945 1893.7564,-263.9535 2013.1417,-253.5116"/>
<polygon fill="#191970" stroke="#191970" points="2013.7338,-256.9733 2023.3908,-252.6152 2013.1239,-249.9999 2013.7338,-256.9733"/>
</g>
<!-- Node58 -->
<g id="node50" class="node">
<title>Node58</title>
<g id="a_node50"><a xlink:href="residue_8hpp.html" target="_top" xlink:title="residue.hpp">
<polygon fill="#ffffff" stroke="#000000" points="1238.8774,-185.5 1238.8774,-203.5 1307.1382,-203.5 1307.1382,-185.5 1238.8774,-185.5"/>
<text text-anchor="middle" x="1273.0078" y="-191.5" font-family="Helvetica,sans-Serif" font-size="10.00" fill="#000000">residue.hpp</text>
</a>
</g>
</g>
<!-- Node23&#45;&gt;Node58 -->
<g id="edge98" class="edge">
<title>Node23&#45;&gt;Node58</title>
<path fill="none" stroke="#191970" d="M1356.8803,-295.0965C1346.2623,-285.3163 1332.2917,-271.8681 1321.0078,-259 1307.698,-243.8217 1294.1071,-225.2073 1284.8007,-211.8836"/>
<polygon fill="#191970" stroke="#191970" points="1287.6558,-209.8586 1279.0983,-203.6119 1281.8926,-213.8317 1287.6558,-209.8586"/>
</g>
<!-- Node24&#45;&gt;Node2 -->
<g id="edge39" class="edge">
<title>Node24&#45;&gt;Node2</title>
<path fill="none" stroke="#191970" d="M758.9119,-185.4607C766.4835,-169.1651 784.8424,-135.1518 812.0078,-120 848.8343,-99.4596 1113.4034,-81.3498 1243.7739,-73.559"/>
<polygon fill="#191970" stroke="#191970" points="1244.288,-77.0348 1254.0632,-72.9489 1243.8736,-70.0471 1244.288,-77.0348"/>
</g>
<!-- Node24&#45;&gt;Node4 -->
<g id="edge50" class="edge">
<title>Node24&#45;&gt;Node4</title>
<path fill="none" stroke="#191970" d="M694.243,-189.2372C608.5751,-181.2844 460.5957,-165.3853 442.0078,-149 410.0986,-120.872 394.8435,-85.9649 424.0078,-55 449.0347,-28.4279 997.554,-13.8038 1146.1601,-10.3201"/>
<polygon fill="#191970" stroke="#191970" points="1146.6346,-13.8102 1156.5509,-10.0795 1146.4725,-6.8121 1146.6346,-13.8102"/>
</g>
<!-- Node24&#45;&gt;Node6 -->
<g id="edge51" class="edge">
<title>Node24&#45;&gt;Node6</title>
<path fill="none" stroke="#191970" d="M752.1516,-185.1047C745.9318,-164.6447 731.0586,-115.7198 722.7937,-88.5327"/>
<polygon fill="#191970" stroke="#191970" points="726.0512,-87.2143 719.7938,-78.6646 719.3538,-89.2503 726.0512,-87.2143"/>
</g>
<!-- Node24&#45;&gt;Node16 -->
<g id="edge48" class="edge">
<title>Node24&#45;&gt;Node16</title>
<path fill="none" stroke="#191970" d="M694.22,-190.7541C548.497,-181.6326 190.6307,-158.3347 182.0078,-149 162.6418,-128.0353 189.3546,-69.2744 203.0078,-55 218.658,-38.6377 240.7373,-28.1139 261.8192,-21.3647"/>
<polygon fill="#191970" stroke="#191970" points="262.8159,-24.7199 271.4086,-18.5219 260.8263,-18.0086 262.8159,-24.7199"/>
</g>
<!-- Node24&#45;&gt;Node18 -->
<g id="edge47" class="edge">
<title>Node24&#45;&gt;Node18</title>
<path fill="none" stroke="#191970" d="M771.2588,-185.3873C788.7213,-175.5952 816.6947,-159.9092 836.9719,-148.5388"/>
<polygon fill="#191970" stroke="#191970" points="838.944,-151.4457 845.9544,-143.5019 835.5203,-145.3401 838.944,-151.4457"/>
</g>
<!-- Node25 -->
<g id="node26" class="node">
<title>Node25</title>
<g id="a_node26"><a xlink:href="base__graph_8hpp.html" target="_top" xlink:title="base_graph.hpp">
<polygon fill="#ffffff" stroke="#ff0000" points="450.8652,-125.5 450.8652,-143.5 539.1504,-143.5 539.1504,-125.5 450.8652,-125.5"/>
<text text-anchor="middle" x="495.0078" y="-131.5" font-family="Helvetica,sans-Serif" font-size="10.00" fill="#000000">base_graph.hpp</text>
</a>
</g>
</g>
<!-- Node24&#45;&gt;Node25 -->
<g id="edge40" class="edge">
<title>Node24&#45;&gt;Node25</title>
<path fill="none" stroke="#191970" d="M715.8017,-185.4524C669.881,-174.8554 593.7716,-157.2916 544.0004,-145.806"/>
<polygon fill="#191970" stroke="#191970" points="544.6381,-142.3612 534.1072,-143.5229 543.064,-149.182 544.6381,-142.3612"/>
</g>
<!-- Node51 -->
<g id="node28" class="node">
<title>Node51</title>
<polygon fill="#ffffff" stroke="#bfbfbf" points="1012.5425,-125.5 1012.5425,-143.5 1117.4731,-143.5 1117.4731,-125.5 1012.5425,-125.5"/>
<text text-anchor="middle" x="1065.0078" y="-131.5" font-family="Helvetica,sans-Serif" font-size="10.00" fill="#000000">EASTL/vector_set.h</text>
</g>
<!-- Node24&#45;&gt;Node51 -->
<g id="edge49" class="edge">
<title>Node24&#45;&gt;Node51</title>
<path fill="none" stroke="#191970" d="M809.0833,-185.4639C859.6292,-176.8177 937.133,-163.0481 1004.0078,-149 1008.6884,-148.0168 1013.5592,-146.9439 1018.4171,-145.8412"/>
<polygon fill="#191970" stroke="#191970" points="1019.3508,-149.2177 1028.3052,-143.5548 1017.7737,-142.3976 1019.3508,-149.2177"/>
</g>
<!-- Node25&#45;&gt;Node2 -->
<g id="edge41" class="edge">
<title>Node25&#45;&gt;Node2</title>
<path fill="none" stroke="#191970" d="M539.3331,-126.627C554.137,-124.2141 570.7487,-121.74 586.0078,-120 826.2635,-92.6035 1112.8191,-78.0289 1243.9989,-72.3551"/>
<polygon fill="#191970" stroke="#191970" points="1244.4695,-75.8382 1254.3106,-71.9136 1244.17,-68.8446 1244.4695,-75.8382"/>
</g>
<!-- Node25&#45;&gt;Node3 -->
<g id="edge44" class="edge">
<title>Node25&#45;&gt;Node3</title>
<path fill="none" stroke="#191970" d="M522.0275,-125.465C549.5566,-116.0111 593.301,-100.2996 630.0078,-84 655.624,-72.6251 658.9021,-62.1319 686.0078,-55 716.0223,-47.1027 1698.9033,-16.4401 1891.4663,-10.4998"/>
<polygon fill="#191970" stroke="#191970" points="1891.6412,-13.9962 1901.5286,-10.1897 1891.4255,-6.9995 1891.6412,-13.9962"/>
</g>
<!-- Node25&#45;&gt;Node4 -->
<g id="edge45" class="edge">
<title>Node25&#45;&gt;Node4</title>
<path fill="none" stroke="#191970" d="M508.452,-125.3541C534.5773,-108.1188 594.5982,-71.1179 651.0078,-55 744.6119,-28.2545 1042.7344,-14.7678 1146.7694,-10.787"/>
<polygon fill="#191970" stroke="#191970" points="1146.9239,-14.2838 1156.7852,-10.4104 1146.6607,-7.2887 1146.9239,-14.2838"/>
</g>
<!-- Node25&#45;&gt;Node6 -->
<g id="edge46" class="edge">
<title>Node25&#45;&gt;Node6</title>
<path fill="none" stroke="#191970" d="M529.5667,-125.4429C574.7231,-113.5344 651.3023,-93.0644 679.0078,-84 681.1344,-83.3042 683.3167,-82.5586 685.5084,-81.786"/>
<polygon fill="#191970" stroke="#191970" points="686.8468,-85.0233 695.0335,-78.298 684.4398,-78.4501 686.8468,-85.0233"/>
</g>
<!-- Node26 -->
<g id="node27" class="node">
<title>Node26</title>
<g id="a_node27"><a xlink:href="simple__bimap_8hpp.html" target="_top" xlink:title="../utils/simple_bimap.hpp">
<polygon fill="#ffffff" stroke="#000000" points="432.9809,-60.5 432.9809,-78.5 559.0346,-78.5 559.0346,-60.5 432.9809,-60.5"/>
<text text-anchor="middle" x="496.0078" y="-66.5" font-family="Helvetica,sans-Serif" font-size="10.00" fill="#000000">../utils/simple_bimap.hpp</text>
</a>
</g>
</g>
<!-- Node25&#45;&gt;Node26 -->
<g id="edge42" class="edge">
<title>Node25&#45;&gt;Node26</title>
<path fill="none" stroke="#191970" d="M495.1468,-125.462C495.2915,-116.061 495.5224,-101.0518 495.7087,-88.943"/>
<polygon fill="#191970" stroke="#191970" points="499.2091,-88.9348 495.8634,-78.8821 492.2099,-88.8271 499.2091,-88.9348"/>
</g>
<!-- Node26&#45;&gt;Node16 -->
<g id="edge43" class="edge">
<title>Node26&#45;&gt;Node16</title>
<path fill="none" stroke="#191970" d="M470.0366,-60.3873C440.7401,-50.1078 392.9321,-33.3331 360.2746,-21.8743"/>
<polygon fill="#191970" stroke="#191970" points="361.258,-18.5102 350.6631,-18.5019 358.9403,-25.1154 361.258,-18.5102"/>
</g>
<!-- Node52&#45;&gt;Node2 -->
<g id="edge55" class="edge">
<title>Node52&#45;&gt;Node2</title>
<path fill="none" stroke="#191970" d="M543.009,-185.4792C584.4122,-177.2861 645.6269,-164.1844 698.0078,-149 734.7336,-138.3538 741.6816,-128.2993 779.0078,-120 865.6939,-100.7258 1118.6995,-82.2914 1243.992,-74.0323"/>
<polygon fill="#191970" stroke="#191970" points="1244.4998,-77.5066 1254.2495,-73.3601 1244.042,-70.5216 1244.4998,-77.5066"/>
</g>
<!-- Node52&#45;&gt;Node4 -->
<g id="edge60" class="edge">
<title>Node52&#45;&gt;Node4</title>
<path fill="none" stroke="#191970" d="M456.453,-185.4811C423.936,-177.0018 381.1166,-163.4771 371.0078,-149 349.0676,-117.5788 400.8176,-57.7073 405.0078,-55 436.4982,-34.6536 996.8312,-15.4266 1146.5058,-10.637"/>
<polygon fill="#191970" stroke="#191970" points="1146.6761,-14.1334 1156.5598,-10.3173 1146.4535,-7.137 1146.6761,-14.1334"/>
</g>
<!-- Node52&#45;&gt;Node6 -->
<g id="edge63" class="edge">
<title>Node52&#45;&gt;Node6</title>
<path fill="none" stroke="#191970" d="M505.8955,-185.2585C528.1133,-166.4484 577.3163,-125.0573 586.0078,-120 587.153,-119.3336 647.2294,-96.2552 685.6192,-81.5309"/>
<polygon fill="#191970" stroke="#191970" points="687.25,-84.6541 695.3339,-77.8056 684.7437,-78.1182 687.25,-84.6541"/>
</g>
<!-- Node52&#45;&gt;Node13 -->
<g id="edge58" class="edge">
<title>Node52&#45;&gt;Node13</title>
<path fill="none" stroke="#191970" d="M480.2696,-185.4383C459.1147,-171.2953 424.5154,-143.1902 442.0078,-120 477.0802,-73.5035 513.7288,-105.1137 568.0078,-84 594.8677,-73.5519 598.1285,-62.3051 626.0078,-55 713.91,-31.9672 1364.8649,-14.2935 1521.9619,-10.3338"/>
<polygon fill="#191970" stroke="#191970" points="1522.4956,-13.8217 1532.4049,-10.0725 1522.3204,-6.8239 1522.4956,-13.8217"/>
</g>
<!-- Node52&#45;&gt;Node16 -->
<g id="edge57" class="edge">
<title>Node52&#45;&gt;Node16</title>
<path fill="none" stroke="#191970" d="M437.1568,-193.2249C316.6523,-189.9695 47.5872,-179.3474 20.0078,-149 -54.2336,-67.3073 148.752,-30.1057 259.0775,-16.301"/>
<polygon fill="#191970" stroke="#191970" points="259.6249,-19.7603 269.1279,-15.0759 258.7779,-12.8117 259.6249,-19.7603"/>
</g>
<!-- Node52&#45;&gt;Node19 -->
<g id="edge59" class="edge">
<title>Node52&#45;&gt;Node19</title>
<path fill="none" stroke="#191970" d="M552.6166,-190.2452C633.325,-183.8236 784.4787,-170.1152 912.0078,-149 924.3218,-146.9612 937.8089,-144.0634 949.2901,-141.3937"/>
<polygon fill="#191970" stroke="#191970" points="950.2626,-144.76 959.1788,-139.0372 948.6398,-137.9507 950.2626,-144.76"/>
</g>
<!-- Node52&#45;&gt;Node25 -->
<g id="edge56" class="edge">
<title>Node52&#45;&gt;Node25</title>
<path fill="none" stroke="#191970" d="M495.0078,-185.3873C495.0078,-177.0174 495.0078,-164.3414 495.0078,-153.735"/>
<polygon fill="#191970" stroke="#191970" points="498.5079,-153.6984 495.0078,-143.6985 491.5079,-153.6985 498.5079,-153.6984"/>
</g>
<!-- Node31 -->
<g id="node30" class="node">
<title>Node31</title>
<g id="a_node30"><a xlink:href="cycles_8hpp.html" target="_top" xlink:title="../algorithm/graph\l/cycles.hpp">
<polygon fill="#ffffff" stroke="#ff0000" points="595.0991,-120.5 595.0991,-148.5 688.9165,-148.5 688.9165,-120.5 595.0991,-120.5"/>
<text text-anchor="start" x="603.0991" y="-136.5" font-family="Helvetica,sans-Serif" font-size="10.00" fill="#000000">../algorithm/graph</text>
<text text-anchor="middle" x="642.0078" y="-126.5" font-family="Helvetica,sans-Serif" font-size="10.00" fill="#000000">/cycles.hpp</text>
</a>
</g>
</g>
<!-- Node52&#45;&gt;Node31 -->
<g id="edge53" class="edge">
<title>Node52&#45;&gt;Node31</title>
<path fill="none" stroke="#191970" d="M517.3339,-185.3873C538.7223,-176.6573 571.5883,-163.2427 598.2067,-152.378"/>
<polygon fill="#191970" stroke="#191970" points="599.7621,-155.5235 607.6979,-148.504 597.1168,-149.0426 599.7621,-155.5235"/>
</g>
<!-- Node53 -->
<g id="node31" class="node">
<title>Node53</title>
<polygon fill="#ffffff" stroke="#bfbfbf" points="29.3379,-125.5 29.3379,-143.5 58.6777,-143.5 58.6777,-125.5 29.3379,-125.5"/>
<text text-anchor="middle" x="44.0078" y="-131.5" font-family="Helvetica,sans-Serif" font-size="10.00" fill="#000000">set</text>
</g>
<!-- Node52&#45;&gt;Node53 -->
<g id="edge61" class="edge">
<title>Node52&#45;&gt;Node53</title>
<path fill="none" stroke="#191970" d="M437.4859,-191.4707C337.2933,-185.6806 135.0401,-171.5727 68.0078,-149 67.2812,-148.7553 66.5531,-148.4858 65.8265,-148.1956"/>
<polygon fill="#191970" stroke="#191970" points="67.2057,-144.9708 56.7034,-143.5737 64.0422,-151.2152 67.2057,-144.9708"/>
</g>
<!-- Node54 -->
<g id="node32" class="node">
<title>Node54</title>
<polygon fill="#ffffff" stroke="#bfbfbf" points="76.6064,-125.5 76.6064,-143.5 135.4092,-143.5 135.4092,-125.5 76.6064,-125.5"/>
<text text-anchor="middle" x="106.0078" y="-131.5" font-family="Helvetica,sans-Serif" font-size="10.00" fill="#000000">stdexcept</text>
</g>
<!-- Node52&#45;&gt;Node54 -->
<g id="edge62" class="edge">
<title>Node52&#45;&gt;Node54</title>
<path fill="none" stroke="#191970" d="M437.4581,-190.3764C368.2933,-184.6325 249.0445,-172.2113 149.0078,-149 146.034,-148.31 142.9752,-147.4966 139.9253,-146.6131"/>
<polygon fill="#191970" stroke="#191970" points="140.9177,-143.2564 130.329,-143.617 138.8315,-149.9383 140.9177,-143.2564"/>
</g>
<!-- Node31&#45;&gt;Node2 -->
<g id="edge54" class="edge">
<title>Node31&#45;&gt;Node2</title>
<path fill="none" stroke="#191970" d="M689.0194,-127.0467C705.4404,-124.5942 724.0135,-121.9891 741.0078,-120 921.5558,-98.8676 1134.9411,-82.3276 1243.975,-74.4823"/>
<polygon fill="#191970" stroke="#191970" points="1244.4718,-77.9558 1254.1963,-73.7504 1243.9718,-70.9737 1244.4718,-77.9558"/>
</g>
<!-- Node55&#45;&gt;Node2 -->
<g id="edge66" class="edge">
<title>Node55&#45;&gt;Node2</title>
<path fill="none" stroke="#191970" d="M1515.6143,-125.4216C1510.5004,-123.544 1505.0954,-121.6404 1500.0078,-120 1453.7549,-105.0865 1400.0865,-90.6812 1362.6919,-81.0994"/>
<polygon fill="#191970" stroke="#191970" points="1363.1505,-77.6045 1352.596,-78.5283 1361.4229,-84.388 1363.1505,-77.6045"/>
</g>
<!-- Node55&#45;&gt;Node4 -->
<g id="edge68" class="edge">
<title>Node55&#45;&gt;Node4</title>
<path fill="none" stroke="#191970" d="M1527.6401,-125.2629C1506.4526,-108.5382 1458.9031,-73.2825 1413.0078,-55 1347.5802,-28.9367 1265.5298,-17.3198 1219.2136,-12.5272"/>
<polygon fill="#191970" stroke="#191970" points="1219.3603,-9.0248 1209.0654,-11.5279 1218.6742,-15.9911 1219.3603,-9.0248"/>
</g>
<!-- Node55&#45;&gt;Node8 -->
<g id="edge67" class="edge">
<title>Node55&#45;&gt;Node8</title>
<path fill="none" stroke="#191970" d="M1562.3929,-125.3955C1567.5073,-123.5196 1572.9147,-121.6232 1578.0078,-120 1633.9121,-102.1831 1700.4351,-85.4153 1737.7861,-76.3945"/>
<polygon fill="#191970" stroke="#191970" points="1738.6065,-79.7971 1747.5143,-74.0612 1736.9738,-72.9902 1738.6065,-79.7971"/>
</g>
<!-- Node56&#45;&gt;Node2 -->
<g id="edge72" class="edge">
<title>Node56&#45;&gt;Node2</title>
<path fill="none" stroke="#191970" d="M2043.8414,-240.347C2002.7519,-216.0386 1885.161,-149.697 1778.0078,-120 1706.4709,-100.1739 1499.0869,-82.7587 1388.1003,-74.5315"/>
<polygon fill="#191970" stroke="#191970" points="1388.2246,-71.0312 1377.9947,-73.788 1387.711,-78.0124 1388.2246,-71.0312"/>
</g>
<!-- Node56&#45;&gt;Node3 -->
<g id="edge92" class="edge">
<title>Node56&#45;&gt;Node3</title>
<path fill="none" stroke="#191970" d="M2065.6865,-240.2295C2086.5234,-210.0843 2146.3102,-113.4209 2101.0078,-55 2083.466,-32.3786 2002.7146,-19.0414 1956.5768,-13.1392"/>
<polygon fill="#191970" stroke="#191970" points="1956.8243,-9.6433 1946.4714,-11.8944 1955.9684,-16.5908 1956.8243,-9.6433"/>
</g>
<!-- Node56&#45;&gt;Node4 -->
<g id="edge93" class="edge">
<title>Node56&#45;&gt;Node4</title>
<path fill="none" stroke="#191970" d="M2042.7694,-240.3653C2000.4845,-216.9492 1882.9556,-154.2221 1778.0078,-120 1572.6602,-53.0388 1313.42,-22.3643 1219.2644,-12.8785"/>
<polygon fill="#191970" stroke="#191970" points="1219.4224,-9.3772 1209.1263,-11.8754 1218.733,-16.3432 1219.4224,-9.3772"/>
</g>
<!-- Node56&#45;&gt;Node8 -->
<g id="edge91" class="edge">
<title>Node56&#45;&gt;Node8</title>
<path fill="none" stroke="#191970" d="M2057.8259,-240.2645C2054.2488,-216.3295 2041.2583,-151.937 2002.0078,-120 1942.4392,-71.5309 1908.0675,-100.2395 1833.0078,-84 1821.0685,-81.4169 1807.9228,-78.5362 1796.5272,-76.0275"/>
<polygon fill="#191970" stroke="#191970" points="1797.1578,-72.5825 1786.6387,-73.8472 1795.6505,-79.4183 1797.1578,-72.5825"/>
</g>
<!-- Node56&#45;&gt;Node14 -->
<g id="edge94" class="edge">
<title>Node56&#45;&gt;Node14</title>
<path fill="none" stroke="#191970" d="M2087.0519,-240.4648C2103.9166,-233.4161 2123.9964,-221.7833 2134.0078,-204 2166.2303,-146.7632 2140.4744,-64.6747 2126.0731,-28.1975"/>
<polygon fill="#191970" stroke="#191970" points="2129.2473,-26.7136 2122.2069,-18.7963 2122.7734,-29.376 2129.2473,-26.7136"/>
</g>
<!-- Node57 -->
<g id="node35" class="node">
<title>Node57</title>
<g id="a_node35"><a xlink:href="quad_8hpp.html" target="_top" xlink:title="../utils/quad.hpp">
<polygon fill="#ffffff" stroke="#ff0000" points="2185.7051,-185.5 2185.7051,-203.5 2272.3105,-203.5 2272.3105,-185.5 2185.7051,-185.5"/>
<text text-anchor="middle" x="2229.0078" y="-191.5" font-family="Helvetica,sans-Serif" font-size="10.00" fill="#000000">../utils/quad.hpp</text>
</a>
</g>
</g>
<!-- Node56&#45;&gt;Node57 -->
<g id="edge73" class="edge">
<title>Node56&#45;&gt;Node57</title>
<path fill="none" stroke="#191970" d="M2087.0798,-240.4179C2115.5872,-231.1949 2159.9053,-216.8567 2191.4279,-206.6582"/>
<polygon fill="#191970" stroke="#191970" points="2192.7395,-209.9125 2201.1766,-203.5042 2190.5847,-203.2524 2192.7395,-209.9125"/>
</g>
<!-- Node57&#45;&gt;Node15 -->
<g id="edge74" class="edge">
<title>Node57&#45;&gt;Node15</title>
<path fill="none" stroke="#191970" d="M2227.3713,-185.3258C2222.2468,-156.5976 2206.4341,-67.9506 2199.4194,-28.6259"/>
<polygon fill="#191970" stroke="#191970" points="2202.8559,-27.9595 2197.6541,-18.7296 2195.9647,-29.1888 2202.8559,-27.9595"/>
</g>
<!-- Node57&#45;&gt;Node35 -->
<g id="edge75" class="edge">
<title>Node57&#45;&gt;Node35</title>
<path fill="none" stroke="#191970" d="M2272.512,-190.8595C2395.0557,-180.6048 2743.3703,-151.4571 2884.9983,-139.6054"/>
<polygon fill="#191970" stroke="#191970" points="2885.5626,-143.0705 2895.2359,-138.7487 2884.9788,-136.0949 2885.5626,-143.0705"/>
</g>
<!-- Node35&#45;&gt;Node2 -->
<g id="edge76" class="edge">
<title>Node35&#45;&gt;Node2</title>
<path fill="none" stroke="#191970" d="M2895.4377,-132.4834C2659.3499,-123.0689 1665.4307,-83.434 1388.1229,-72.3758"/>
<polygon fill="#191970" stroke="#191970" points="1387.9157,-68.8648 1377.7842,-71.9635 1387.6367,-75.8592 1387.9157,-68.8648"/>
</g>
<!-- Node35&#45;&gt;Node15 -->
<g id="edge90" class="edge">
<title>Node35&#45;&gt;Node15</title>
<path fill="none" stroke="#191970" d="M2996.6828,-133.7422C3190.222,-130.6047 3873.5054,-117.205 3905.0078,-84 3913.8787,-74.6496 3913.9995,-64.2343 3905.0078,-55 3874.9794,-24.1615 2495.3947,-11.8464 2237.3488,-9.8108"/>
<polygon fill="#191970" stroke="#191970" points="2237.2984,-6.3104 2227.2713,-9.7321 2237.2436,-13.3102 2237.2984,-6.3104"/>
</g>
<!-- Node36 -->
<g id="node37" class="node">
<title>Node36</title>
<polygon fill="#ffffff" stroke="#bfbfbf" points="2769.7075,-60.5 2769.7075,-78.5 2866.3081,-78.5 2866.3081,-60.5 2769.7075,-60.5"/>
<text text-anchor="middle" x="2818.0078" y="-66.5" font-family="Helvetica,sans-Serif" font-size="10.00" fill="#000000">cereal/access.hpp</text>
</g>
<!-- Node35&#45;&gt;Node36 -->
<g id="edge77" class="edge">
<title>Node35&#45;&gt;Node36</title>
<path fill="none" stroke="#191970" d="M2928.2099,-125.462C2906.6473,-114.5122 2870.1022,-95.9542 2845.0505,-83.2326"/>
<polygon fill="#191970" stroke="#191970" points="2846.5681,-80.0779 2836.0671,-78.6708 2843.3986,-86.3193 2846.5681,-80.0779"/>
</g>
<!-- Node37 -->
<g id="node38" class="node">
<title>Node37</title>
<polygon fill="#ffffff" stroke="#bfbfbf" points="2884.0893,-60.5 2884.0893,-78.5 3007.9262,-78.5 3007.9262,-60.5 2884.0893,-60.5"/>
<text text-anchor="middle" x="2946.0078" y="-66.5" font-family="Helvetica,sans-Serif" font-size="10.00" fill="#000000">cereal/archives/json.hpp</text>
</g>
<!-- Node35&#45;&gt;Node37 -->
<g id="edge78" class="edge">
<title>Node35&#45;&gt;Node37</title>
<path fill="none" stroke="#191970" d="M2946.0078,-125.462C2946.0078,-116.061 2946.0078,-101.0518 2946.0078,-88.943"/>
<polygon fill="#191970" stroke="#191970" points="2949.5079,-88.8821 2946.0078,-78.8821 2942.5079,-88.8822 2949.5079,-88.8821"/>
</g>
<!-- Node38 -->
<g id="node39" class="node">
<title>Node38</title>
<polygon fill="#ffffff" stroke="#bfbfbf" points="3025.9243,-55.5 3025.9243,-83.5 3148.0913,-83.5 3148.0913,-55.5 3025.9243,-55.5"/>
<text text-anchor="start" x="3033.9243" y="-71.5" font-family="Helvetica,sans-Serif" font-size="10.00" fill="#000000">cereal/archives/portable</text>
<text text-anchor="middle" x="3087.0078" y="-61.5" font-family="Helvetica,sans-Serif" font-size="10.00" fill="#000000">_binary.hpp</text>
</g>
<!-- Node35&#45;&gt;Node38 -->
<g id="edge79" class="edge">
<title>Node35&#45;&gt;Node38</title>
<path fill="none" stroke="#191970" d="M2965.6132,-125.462C2986.6645,-115.7575 3020.6793,-100.077 3047.3548,-87.7797"/>
<polygon fill="#191970" stroke="#191970" points="3048.8347,-90.9516 3056.4509,-83.5865 3045.9041,-84.5945 3048.8347,-90.9516"/>
</g>
<!-- Node39 -->
<g id="node40" class="node">
<title>Node39</title>
<polygon fill="#ffffff" stroke="#bfbfbf" points="3165.6509,-60.5 3165.6509,-78.5 3258.3647,-78.5 3258.3647,-60.5 3165.6509,-60.5"/>
<text text-anchor="middle" x="3212.0078" y="-66.5" font-family="Helvetica,sans-Serif" font-size="10.00" fill="#000000">cereal/cereal.hpp</text>
</g>
<!-- Node35&#45;&gt;Node39 -->
<g id="edge80" class="edge">
<title>Node35&#45;&gt;Node39</title>
<path fill="none" stroke="#191970" d="M2984.962,-125.458C3027.3543,-115.5525 3097.0996,-99.064 3157.0078,-84 3160.7786,-83.0518 3164.6906,-82.0523 3168.6112,-81.0396"/>
<polygon fill="#191970" stroke="#191970" points="3169.5033,-84.4241 3178.2987,-78.5172 3167.7394,-77.65 3169.5033,-84.4241"/>
</g>
<!-- Node40 -->
<g id="node41" class="node">
<title>Node40</title>
<polygon fill="#ffffff" stroke="#bfbfbf" points="3275.9062,-60.5 3275.9062,-78.5 3390.1094,-78.5 3390.1094,-60.5 3275.9062,-60.5"/>
<text text-anchor="middle" x="3333.0078" y="-66.5" font-family="Helvetica,sans-Serif" font-size="10.00" fill="#000000">cereal/types/array.hpp</text>
</g>
<!-- Node35&#45;&gt;Node40 -->
<g id="edge81" class="edge">
<title>Node35&#45;&gt;Node40</title>
<path fill="none" stroke="#191970" d="M2996.763,-127.4789C3060.1771,-118.4853 3171.9282,-101.9065 3267.0078,-84 3272.412,-82.9822 3278.0499,-81.851 3283.6548,-80.682"/>
<polygon fill="#191970" stroke="#191970" points="3284.5986,-84.0596 3293.6503,-78.5534 3283.1406,-77.2131 3284.5986,-84.0596"/>
</g>
<!-- Node41 -->
<g id="node42" class="node">
<title>Node41</title>
<polygon fill="#ffffff" stroke="#bfbfbf" points="3407.9785,-60.5 3407.9785,-78.5 3524.0371,-78.5 3524.0371,-60.5 3407.9785,-60.5"/>
<text text-anchor="middle" x="3466.0078" y="-66.5" font-family="Helvetica,sans-Serif" font-size="10.00" fill="#000000">cereal/types/bitset.hpp</text>
</g>
<!-- Node35&#45;&gt;Node41 -->
<g id="edge82" class="edge">
<title>Node35&#45;&gt;Node41</title>
<path fill="none" stroke="#191970" d="M2996.8518,-130.5371C3080.8999,-123.6048 3253.9446,-107.7193 3399.0078,-84 3404.952,-83.0281 3411.1645,-81.8737 3417.3068,-80.6471"/>
<polygon fill="#191970" stroke="#191970" points="3418.4348,-83.9879 3427.518,-78.5339 3417.0162,-77.1331 3418.4348,-83.9879"/>
</g>
<!-- Node42 -->
<g id="node43" class="node">
<title>Node42</title>
<polygon fill="#ffffff" stroke="#bfbfbf" points="3542.146,-55.5 3542.146,-83.5 3649.8696,-83.5 3649.8696,-55.5 3542.146,-55.5"/>
<text text-anchor="start" x="3550.146" y="-71.5" font-family="Helvetica,sans-Serif" font-size="10.00" fill="#000000">cereal/types/boost</text>
<text text-anchor="middle" x="3596.0078" y="-61.5" font-family="Helvetica,sans-Serif" font-size="10.00" fill="#000000">_dynamic_bitset.hpp</text>
</g>
<!-- Node35&#45;&gt;Node42 -->
<g id="edge83" class="edge">
<title>Node35&#45;&gt;Node42</title>
<path fill="none" stroke="#191970" d="M2996.5488,-132.5438C3096.8786,-128.1431 3328.3554,-115.4124 3531.832,-84.0401"/>
<polygon fill="#191970" stroke="#191970" points="3532.4651,-87.4837 3541.8059,-82.4837 3531.3858,-80.5674 3532.4651,-87.4837"/>
</g>
<!-- Node43 -->
<g id="node44" class="node">
<title>Node43</title>
<polygon fill="#ffffff" stroke="#bfbfbf" points="3668.0991,-55.5 3668.0991,-83.5 3761.9165,-83.5 3761.9165,-55.5 3668.0991,-55.5"/>
<text text-anchor="start" x="3676.0991" y="-71.5" font-family="Helvetica,sans-Serif" font-size="10.00" fill="#000000">cereal/types/eastl</text>
<text text-anchor="middle" x="3715.0078" y="-61.5" font-family="Helvetica,sans-Serif" font-size="10.00" fill="#000000">_bitset.hpp</text>
</g>
<!-- Node35&#45;&gt;Node43 -->
<g id="edge84" class="edge">
<title>Node35&#45;&gt;Node43</title>
<path fill="none" stroke="#191970" d="M2996.5927,-132.1218C3133.9615,-125.4762 3512.7815,-105.8576 3658.0383,-83.8978"/>
<polygon fill="#191970" stroke="#191970" points="3658.7542,-87.3283 3668.0867,-82.3128 3657.6634,-80.4138 3658.7542,-87.3283"/>
</g>
<!-- Node44 -->
<g id="node45" class="node">
<title>Node44</title>
<polygon fill="#ffffff" stroke="#bfbfbf" points="3779.6953,-60.5 3779.6953,-78.5 3896.3203,-78.5 3896.3203,-60.5 3779.6953,-60.5"/>
<text text-anchor="middle" x="3838.0078" y="-66.5" font-family="Helvetica,sans-Serif" font-size="10.00" fill="#000000">cereal/types/eigen.hpp</text>
</g>
<!-- Node35&#45;&gt;Node44 -->
<g id="edge85" class="edge">
<title>Node35&#45;&gt;Node44</title>
<path fill="none" stroke="#191970" d="M2996.968,-134.0678C3126.731,-132.3859 3479.9555,-124.1651 3771.0078,-84 3777.4294,-83.1138 3784.1515,-81.9483 3790.7555,-80.6625"/>
<polygon fill="#191970" stroke="#191970" points="3791.8833,-84.0041 3800.9758,-78.5657 3790.4764,-77.1469 3791.8833,-84.0041"/>
</g>
<!-- Node45 -->
<g id="node46" class="node">
<title>Node45</title>
<polygon fill="#ffffff" stroke="#bfbfbf" points="2224.2026,-60.5 2224.2026,-78.5 2335.813,-78.5 2335.813,-60.5 2224.2026,-60.5"/>
<text text-anchor="middle" x="2280.0078" y="-66.5" font-family="Helvetica,sans-Serif" font-size="10.00" fill="#000000">cereal/types/map.hpp</text>
</g>
<!-- Node35&#45;&gt;Node45 -->
<g id="edge86" class="edge">
<title>Node35&#45;&gt;Node45</title>
<path fill="none" stroke="#191970" d="M2895.477,-132.5706C2791.7755,-128.1022 2547.6211,-114.9654 2345.0078,-84 2338.8573,-83.06 2332.4205,-81.8745 2326.0895,-80.5883"/>
<polygon fill="#191970" stroke="#191970" points="2326.7932,-77.1597 2316.2841,-78.5048 2325.3383,-84.0069 2326.7932,-77.1597"/>
</g>
<!-- Node46 -->
<g id="node47" class="node">
<title>Node46</title>
<polygon fill="#ffffff" stroke="#bfbfbf" points="2354.2412,-60.5 2354.2412,-78.5 2481.7744,-78.5 2481.7744,-60.5 2354.2412,-60.5"/>
<text text-anchor="middle" x="2418.0078" y="-66.5" font-family="Helvetica,sans-Serif" font-size="10.00" fill="#000000">cereal/types/memory.hpp</text>
</g>
<!-- Node35&#45;&gt;Node46 -->
<g id="edge87" class="edge">
<title>Node35&#45;&gt;Node46</title>
<path fill="none" stroke="#191970" d="M2895.3236,-130.3011C2811.0951,-123.0041 2637.1032,-106.5746 2491.0078,-84 2484.3157,-82.9659 2477.3043,-81.7476 2470.3848,-80.4638"/>
<polygon fill="#191970" stroke="#191970" points="2470.8395,-76.9874 2460.3605,-78.5497 2469.5266,-83.8632 2470.8395,-76.9874"/>
</g>
<!-- Node47 -->
<g id="node48" class="node">
<title>Node47</title>
<polygon fill="#ffffff" stroke="#bfbfbf" points="2499.9062,-60.5 2499.9062,-78.5 2614.1094,-78.5 2614.1094,-60.5 2499.9062,-60.5"/>
<text text-anchor="middle" x="2557.0078" y="-66.5" font-family="Helvetica,sans-Serif" font-size="10.00" fill="#000000">cereal/types/utility.hpp</text>
</g>
<!-- Node35&#45;&gt;Node47 -->
<g id="edge88" class="edge">
<title>Node35&#45;&gt;Node47</title>
<path fill="none" stroke="#191970" d="M2895.3805,-127.4799C2831.8262,-118.4561 2719.5477,-101.8149 2624.0078,-84 2618.5236,-82.9774 2612.8015,-81.8431 2607.1123,-80.6724"/>
<polygon fill="#191970" stroke="#191970" points="2607.472,-77.1716 2596.9661,-78.5419 2606.0334,-84.0222 2607.472,-77.1716"/>
</g>
<!-- Node48 -->
<g id="node49" class="node">
<title>Node48</title>
<polygon fill="#ffffff" stroke="#bfbfbf" points="2632.5869,-60.5 2632.5869,-78.5 2751.4287,-78.5 2751.4287,-60.5 2632.5869,-60.5"/>
<text text-anchor="middle" x="2692.0078" y="-66.5" font-family="Helvetica,sans-Serif" font-size="10.00" fill="#000000">cereal/types/vector.hpp</text>
</g>
<!-- Node35&#45;&gt;Node48 -->
<g id="edge89" class="edge">
<title>Node35&#45;&gt;Node48</title>
<path fill="none" stroke="#191970" d="M2910.6902,-125.462C2865.418,-113.8766 2786.8636,-93.7741 2737.2547,-81.0789"/>
<polygon fill="#191970" stroke="#191970" points="2737.9895,-77.6543 2727.434,-78.5658 2736.254,-84.4357 2737.9895,-77.6543"/>
</g>
<!-- Node58&#45;&gt;Node2 -->
<g id="edge99" class="edge">
<title>Node58&#45;&gt;Node2</title>
<path fill="none" stroke="#191970" d="M1276.2398,-185.1047C1283.3093,-164.5538 1300.258,-115.2844 1309.5848,-88.1715"/>
<polygon fill="#191970" stroke="#191970" points="1312.9118,-89.2593 1312.8552,-78.6646 1306.2925,-86.9822 1312.9118,-89.2593"/>
</g>
<!-- Node58&#45;&gt;Node6 -->
<g id="edge101" class="edge">
<title>Node58&#45;&gt;Node6</title>
<path fill="none" stroke="#191970" d="M1259.1022,-185.3594C1233.793,-169.213 1178.0056,-135.8551 1126.0078,-120 1055.2831,-98.4348 832.1482,-78.773 748.8133,-71.9988"/>
<polygon fill="#191970" stroke="#191970" points="748.934,-68.4972 738.6853,-71.1832 748.372,-75.4747 748.934,-68.4972"/>
</g>
<!-- Node58&#45;&gt;Node51 -->
<g id="edge100" class="edge">
<title>Node58&#45;&gt;Node51</title>
<path fill="none" stroke="#191970" d="M1241.4171,-185.3873C1205.1672,-174.9306 1145.6172,-157.7527 1105.8673,-146.2864"/>
<polygon fill="#191970" stroke="#191970" points="1106.7926,-142.9107 1096.2143,-143.5019 1104.8524,-149.6364 1106.7926,-142.9107"/>
</g>
</g>
</svg>
