<?xml version="1.0" encoding="UTF-8" standalone="no"?>
<!DOCTYPE svg PUBLIC "-//W3C//DTD SVG 1.1//EN"
 "http://www.w3.org/Graphics/SVG/1.1/DTD/svg11.dtd">
<!-- Generated by graphviz version 2.40.1 (20161225.0304)
 -->
<!-- Title: include/indigox/classes/bond.hpp Pages: 1 -->
<svg width="226pt" height="147pt"
 viewBox="0.00 0.00 226.03 147.00" xmlns="http://www.w3.org/2000/svg" xmlns:xlink="http://www.w3.org/1999/xlink">
<g id="graph0" class="graph" transform="scale(1 1) rotate(0) translate(4 143)">
<title>include/indigox/classes/bond.hpp</title>
<polygon fill="#ffffff" stroke="transparent" points="-4,4 -4,-143 222.0317,-143 222.0317,4 -4,4"/>
<!-- Node0 -->
<g id="node1" class="node">
<title>Node0</title>
<polygon fill="#bfbfbf" stroke="#000000" points="92.5,-110.5 92.5,-138.5 210.7803,-138.5 210.7803,-110.5 92.5,-110.5"/>
<text text-anchor="start" x="100.5" y="-126.5" font-family="Helvetica,sans-Serif" font-size="10.00" fill="#000000">include/indigox/classes</text>
<text text-anchor="middle" x="151.6401" y="-116.5" font-family="Helvetica,sans-Serif" font-size="10.00" fill="#000000">/bond.hpp</text>
</g>
<!-- Node1 -->
<g id="node2" class="node">
<title>Node1</title>
<g id="a_node2"><a xlink:href="fwd__declares_8hpp.html" target="_top" xlink:title="../utils/fwd_declares.hpp">
<polygon fill="#ffffff" stroke="#000000" points="0,-55.5 0,-73.5 123.2803,-73.5 123.2803,-55.5 0,-55.5"/>
<text text-anchor="middle" x="61.6401" y="-61.5" font-family="Helvetica,sans-Serif" font-size="10.00" fill="#000000">../utils/fwd_declares.hpp</text>
</a>
</g>
</g>
<!-- Node0&#45;&gt;Node1 -->
<g id="edge1" class="edge">
<title>Node0&#45;&gt;Node1</title>
<path fill="none" stroke="#191970" d="M130.3114,-110.2808C116.3253,-100.9568 98.0744,-88.7895 83.9036,-79.3423"/>
<polygon fill="#191970" stroke="#191970" points="85.5284,-76.2191 75.2664,-73.5842 81.6455,-82.0434 85.5284,-76.2191"/>
</g>
<!-- Node3 -->
<g id="node4" class="node">
<title>Node3</title>
<polygon fill="#ffffff" stroke="#bfbfbf" points="113.5835,-.5 113.5835,-18.5 165.6968,-18.5 165.6968,-.5 113.5835,-.5"/>
<text text-anchor="middle" x="139.6401" y="-6.5" font-family="Helvetica,sans-Serif" font-size="10.00" fill="#000000">memory</text>
</g>
<!-- Node0&#45;&gt;Node3 -->
<g id="edge5" class="edge">
<title>Node0&#45;&gt;Node3</title>
<path fill="none" stroke="#191970" d="M150.1687,-110.3987C148.0281,-89.8847 144.049,-51.7512 141.6429,-28.6935"/>
<polygon fill="#191970" stroke="#191970" points="145.1222,-28.3114 140.6031,-18.7286 138.16,-29.0379 145.1222,-28.3114"/>
</g>
<!-- Node4 -->
<g id="node5" class="node">
<title>Node4</title>
<polygon fill="#ffffff" stroke="#bfbfbf" points="179.2485,-55.5 179.2485,-73.5 218.0317,-73.5 218.0317,-55.5 179.2485,-55.5"/>
<text text-anchor="middle" x="198.6401" y="-61.5" font-family="Helvetica,sans-Serif" font-size="10.00" fill="#000000">array</text>
</g>
<!-- Node0&#45;&gt;Node4 -->
<g id="edge4" class="edge">
<title>Node0&#45;&gt;Node4</title>
<path fill="none" stroke="#191970" d="M162.7785,-110.2808C169.5259,-101.6672 178.1739,-90.6271 185.287,-81.5466"/>
<polygon fill="#191970" stroke="#191970" points="188.1128,-83.6148 191.5242,-73.5842 182.6022,-79.2982 188.1128,-83.6148"/>
</g>
<!-- Node2 -->
<g id="node3" class="node">
<title>Node2</title>
<polygon fill="#ffffff" stroke="#bfbfbf" points="39.1895,-.5 39.1895,-18.5 84.0908,-18.5 84.0908,-.5 39.1895,-.5"/>
<text text-anchor="middle" x="61.6401" y="-6.5" font-family="Helvetica,sans-Serif" font-size="10.00" fill="#000000">cstdint</text>
</g>
<!-- Node1&#45;&gt;Node2 -->
<g id="edge2" class="edge">
<title>Node1&#45;&gt;Node2</title>
<path fill="none" stroke="#191970" d="M61.6401,-55.4179C61.6401,-48.2164 61.6401,-37.8962 61.6401,-28.8632"/>
<polygon fill="#191970" stroke="#191970" points="65.1402,-28.7794 61.6401,-18.7795 58.1402,-28.7795 65.1402,-28.7794"/>
</g>
<!-- Node1&#45;&gt;Node3 -->
<g id="edge3" class="edge">
<title>Node1&#45;&gt;Node3</title>
<path fill="none" stroke="#191970" d="M74.5203,-55.4179C86.3755,-47.0584 104.1904,-34.4966 118.1917,-24.6239"/>
<polygon fill="#191970" stroke="#191970" points="120.5853,-27.2188 126.7409,-18.5956 116.5513,-21.498 120.5853,-27.2188"/>
</g>
</g>
</svg>
