<?xml version="1.0" encoding="UTF-8" standalone="no"?>
<!DOCTYPE svg PUBLIC "-//W3C//DTD SVG 1.1//EN"
 "http://www.w3.org/Graphics/SVG/1.1/DTD/svg11.dtd">
<!-- Generated by graphviz version 2.40.1 (20161225.0304)
 -->
<!-- Title: include/indigox/classes/bond.hpp Pages: 1 -->
<svg width="1838pt" height="157pt"
 viewBox="0.00 0.00 1838.35 157.00" xmlns="http://www.w3.org/2000/svg" xmlns:xlink="http://www.w3.org/1999/xlink">
<g id="graph0" class="graph" transform="scale(1 1) rotate(0) translate(4 153)">
<title>include/indigox/classes/bond.hpp</title>
<polygon fill="#ffffff" stroke="transparent" points="-4,4 -4,-153 1834.3545,-153 1834.3545,4 -4,4"/>
<!-- Node5 -->
<g id="node1" class="node">
<title>Node5</title>
<polygon fill="#bfbfbf" stroke="#000000" points="742.8721,-120.5 742.8721,-148.5 861.1523,-148.5 861.1523,-120.5 742.8721,-120.5"/>
<text text-anchor="start" x="750.8721" y="-136.5" font-family="Helvetica,sans-Serif" font-size="10.00" fill="#000000">include/indigox/classes</text>
<text text-anchor="middle" x="802.0122" y="-126.5" font-family="Helvetica,sans-Serif" font-size="10.00" fill="#000000">/bond.hpp</text>
</g>
<!-- Node6 -->
<g id="node2" class="node">
<title>Node6</title>
<g id="a_node2"><a xlink:href="iters_8hpp.html" target="_top" xlink:title="include/indigox/classes\l/iters.hpp">
<polygon fill="#ffffff" stroke="#000000" points="57.8721,-55.5 57.8721,-83.5 176.1523,-83.5 176.1523,-55.5 57.8721,-55.5"/>
<text text-anchor="start" x="65.8721" y="-71.5" font-family="Helvetica,sans-Serif" font-size="10.00" fill="#000000">include/indigox/classes</text>
<text text-anchor="middle" x="117.0122" y="-61.5" font-family="Helvetica,sans-Serif" font-size="10.00" fill="#000000">/iters.hpp</text>
</a>
</g>
</g>
<!-- Node5&#45;&gt;Node6 -->
<g id="edge1" class="edge">
<title>Node5&#45;&gt;Node6</title>
<path fill="none" stroke="#191970" d="M732.4736,-130.1932C621.5337,-122.9593 397.7524,-106.8805 209.0122,-84 198.418,-82.7157 187.1714,-81.1298 176.313,-79.4833"/>
<polygon fill="#191970" stroke="#191970" points="732.3239,-133.6908 742.5293,-130.8448 732.7766,-126.7054 732.3239,-133.6908"/>
</g>
<!-- Node8 -->
<g id="node4" class="node">
<title>Node8</title>
<g id="a_node4"><a xlink:href="molecule__impl_8hpp.html" target="_top" xlink:title="include/indigox/classes\l/molecule_impl.hpp">
<polygon fill="#ffffff" stroke="#000000" points="441.8721,-55.5 441.8721,-83.5 560.1523,-83.5 560.1523,-55.5 441.8721,-55.5"/>
<text text-anchor="start" x="449.8721" y="-71.5" font-family="Helvetica,sans-Serif" font-size="10.00" fill="#000000">include/indigox/classes</text>
<text text-anchor="middle" x="501.0122" y="-61.5" font-family="Helvetica,sans-Serif" font-size="10.00" fill="#000000">/molecule_impl.hpp</text>
</a>
</g>
</g>
<!-- Node5&#45;&gt;Node8 -->
<g id="edge3" class="edge">
<title>Node5&#45;&gt;Node8</title>
<path fill="none" stroke="#191970" d="M732.7068,-119.5337C680.5765,-108.2763 609.8959,-93.0131 560.3566,-82.3152"/>
<polygon fill="#191970" stroke="#191970" points="732.0308,-122.9683 742.5443,-121.6581 733.5084,-116.1261 732.0308,-122.9683"/>
</g>
<!-- Node10 -->
<g id="node6" class="node">
<title>Node10</title>
<g id="a_node6"><a xlink:href="atom_8cpp.html" target="_top" xlink:title="src/classes/atom.cpp">
<polygon fill="#ffffff" stroke="#000000" points="124.3301,-.5 124.3301,-18.5 233.6943,-18.5 233.6943,-.5 124.3301,-.5"/>
<text text-anchor="middle" x="179.0122" y="-6.5" font-family="Helvetica,sans-Serif" font-size="10.00" fill="#000000">src/classes/atom.cpp</text>
</a>
</g>
</g>
<!-- Node5&#45;&gt;Node10 -->
<g id="edge16" class="edge">
<title>Node5&#45;&gt;Node10</title>
<path fill="none" stroke="#191970" d="M732.4419,-131.7669C646.4279,-127.1557 496.078,-115.0551 371.0122,-84 305.0804,-67.6285 231.2544,-34.5207 197.5702,-18.5377"/>
<polygon fill="#191970" stroke="#191970" points="732.4389,-135.2714 742.6065,-132.2929 732.8008,-128.2807 732.4389,-135.2714"/>
</g>
<!-- Node11 -->
<g id="node7" class="node">
<title>Node11</title>
<g id="a_node7"><a xlink:href="bond_8cpp.html" target="_top" xlink:title="src/classes/bond.cpp">
<polygon fill="#ffffff" stroke="#000000" points="251.3228,-.5 251.3228,-18.5 360.7017,-18.5 360.7017,-.5 251.3228,-.5"/>
<text text-anchor="middle" x="306.0122" y="-6.5" font-family="Helvetica,sans-Serif" font-size="10.00" fill="#000000">src/classes/bond.cpp</text>
</a>
</g>
</g>
<!-- Node5&#45;&gt;Node11 -->
<g id="edge17" class="edge">
<title>Node5&#45;&gt;Node11</title>
<path fill="none" stroke="#191970" d="M732.783,-128.2983C641.7085,-119.5772 486.9004,-102.6549 433.0122,-84 387.1161,-68.1118 339.3901,-34.7699 317.8319,-18.634"/>
<polygon fill="#191970" stroke="#191970" points="732.4621,-131.7834 742.7481,-129.2441 733.1236,-124.8148 732.4621,-131.7834"/>
</g>
<!-- Node13 -->
<g id="node9" class="node">
<title>Node13</title>
<g id="a_node9"><a xlink:href="molecule_8cpp.html" target="_top" xlink:title="src/classes/molecule.cpp">
<polygon fill="#ffffff" stroke="#000000" points="786.436,-.5 786.436,-18.5 913.5884,-18.5 913.5884,-.5 786.436,-.5"/>
<text text-anchor="middle" x="850.0122" y="-6.5" font-family="Helvetica,sans-Serif" font-size="10.00" fill="#000000">src/classes/molecule.cpp</text>
</a>
</g>
</g>
<!-- Node5&#45;&gt;Node13 -->
<g id="edge18" class="edge">
<title>Node5&#45;&gt;Node13</title>
<path fill="none" stroke="#191970" d="M732.6673,-128.7241C664.0929,-120.3241 574.4386,-100.4373 612.0122,-55 617.8095,-47.9894 724.4613,-29.6751 793.0089,-18.5364"/>
<polygon fill="#191970" stroke="#191970" points="732.2766,-132.2022 742.6142,-129.8818 733.0859,-125.2491 732.2766,-132.2022"/>
</g>
<!-- Node15 -->
<g id="node11" class="node">
<title>Node15</title>
<g id="a_node11"><a xlink:href="molecular_8cpp.html" target="_top" xlink:title="src/graph/molecular.cpp">
<polygon fill="#ffffff" stroke="#000000" points="931.9287,-.5 931.9287,-18.5 1054.0957,-18.5 1054.0957,-.5 931.9287,-.5"/>
<text text-anchor="middle" x="993.0122" y="-6.5" font-family="Helvetica,sans-Serif" font-size="10.00" fill="#000000">src/graph/molecular.cpp</text>
</a>
</g>
</g>
<!-- Node5&#45;&gt;Node15 -->
<g id="edge21" class="edge">
<title>Node5&#45;&gt;Node15</title>
<path fill="none" stroke="#191970" d="M732.8196,-123.6334C677.4664,-112.0651 613.8564,-90.4505 645.0122,-55 686.1349,-8.2087 861.2592,-27.1887 923.0122,-19 925.8085,-18.6292 928.6674,-18.2483 931.555,-17.8622"/>
<polygon fill="#191970" stroke="#191970" points="732.1857,-127.0759 742.6785,-125.6093 733.5613,-120.2124 732.1857,-127.0759"/>
</g>
<!-- Node16 -->
<g id="node12" class="node">
<title>Node16</title>
<g id="a_node12"><a xlink:href="indigox_8hpp.html" target="_top" xlink:title="include/indigox/indigox.hpp">
<polygon fill="#ffffff" stroke="#000000" points="653.9683,-60.5 653.9683,-78.5 790.0562,-78.5 790.0562,-60.5 653.9683,-60.5"/>
<text text-anchor="middle" x="722.0122" y="-66.5" font-family="Helvetica,sans-Serif" font-size="10.00" fill="#000000">include/indigox/indigox.hpp</text>
</a>
</g>
</g>
<!-- Node5&#45;&gt;Node16 -->
<g id="edge11" class="edge">
<title>Node5&#45;&gt;Node16</title>
<path fill="none" stroke="#191970" d="M776.8872,-114.0859C762.222,-102.1704 744.446,-87.7275 733.1806,-78.5743"/>
<polygon fill="#191970" stroke="#191970" points="774.6851,-116.8064 784.6534,-120.396 779.0993,-111.3736 774.6851,-116.8064"/>
</g>
<!-- Node17 -->
<g id="node13" class="node">
<title>Node17</title>
<g id="a_node13"><a xlink:href="cherrypicker_8cpp.html" target="_top" xlink:title="src/algorithm/cherrypicker.cpp">
<polygon fill="#ffffff" stroke="#000000" points="807.5986,-60.5 807.5986,-78.5 956.4258,-78.5 956.4258,-60.5 807.5986,-60.5"/>
<text text-anchor="middle" x="882.0122" y="-66.5" font-family="Helvetica,sans-Serif" font-size="10.00" fill="#000000">src/algorithm/cherrypicker.cpp</text>
</a>
</g>
</g>
<!-- Node5&#45;&gt;Node17 -->
<g id="edge12" class="edge">
<title>Node5&#45;&gt;Node17</title>
<path fill="none" stroke="#191970" d="M827.1372,-114.0859C841.8024,-102.1704 859.5784,-87.7275 870.8438,-78.5743"/>
<polygon fill="#191970" stroke="#191970" points="824.9251,-111.3736 819.371,-120.396 829.3393,-116.8064 824.9251,-111.3736"/>
</g>
<!-- Node18 -->
<g id="node14" class="node">
<title>Node18</title>
<g id="a_node14"><a xlink:href="astar__optimisation_8cpp.html" target="_top" xlink:title="src/algorithm/electron\l_assignment/astar_optimisation.cpp">
<polygon fill="#ffffff" stroke="#000000" points="974.2466,-55.5 974.2466,-83.5 1149.7778,-83.5 1149.7778,-55.5 974.2466,-55.5"/>
<text text-anchor="start" x="982.2466" y="-71.5" font-family="Helvetica,sans-Serif" font-size="10.00" fill="#000000">src/algorithm/electron</text>
<text text-anchor="middle" x="1062.0122" y="-61.5" font-family="Helvetica,sans-Serif" font-size="10.00" fill="#000000">_assignment/astar_optimisation.cpp</text>
</a>
</g>
</g>
<!-- Node5&#45;&gt;Node18 -->
<g id="edge13" class="edge">
<title>Node5&#45;&gt;Node18</title>
<path fill="none" stroke="#191970" d="M868.0747,-117.9844C910.5425,-107.3674 965.1318,-93.7201 1005.5685,-83.6109"/>
<polygon fill="#191970" stroke="#191970" points="866.9608,-114.6551 858.1082,-120.476 868.6586,-121.4461 866.9608,-114.6551"/>
</g>
<!-- Node19 -->
<g id="node15" class="node">
<title>Node19</title>
<g id="a_node15"><a xlink:href="isomorphism_8cpp.html" target="_top" xlink:title="src/algorithm/graph\l/isomorphism.cpp">
<polygon fill="#ffffff" stroke="#000000" points="1168.2168,-55.5 1168.2168,-83.5 1269.8076,-83.5 1269.8076,-55.5 1168.2168,-55.5"/>
<text text-anchor="start" x="1176.2168" y="-71.5" font-family="Helvetica,sans-Serif" font-size="10.00" fill="#000000">src/algorithm/graph</text>
<text text-anchor="middle" x="1219.0122" y="-61.5" font-family="Helvetica,sans-Serif" font-size="10.00" fill="#000000">/isomorphism.cpp</text>
</a>
</g>
</g>
<!-- Node5&#45;&gt;Node19 -->
<g id="edge14" class="edge">
<title>Node5&#45;&gt;Node19</title>
<path fill="none" stroke="#191970" d="M871.6917,-126.664C943.8876,-118.0729 1059.8291,-102.9538 1159.0122,-84 1161.9595,-83.4368 1164.9799,-82.8233 1168.022,-82.1773"/>
<polygon fill="#191970" stroke="#191970" points="870.8848,-123.2349 861.3644,-127.8838 871.706,-130.1865 870.8848,-123.2349"/>
</g>
<!-- Node20 -->
<g id="node16" class="node">
<title>Node20</title>
<g id="a_node16"><a xlink:href="athenaeum_8cpp.html" target="_top" xlink:title="src/classes/athenaeum.cpp">
<polygon fill="#ffffff" stroke="#000000" points="1287.4263,-60.5 1287.4263,-78.5 1424.5981,-78.5 1424.5981,-60.5 1287.4263,-60.5"/>
<text text-anchor="middle" x="1356.0122" y="-66.5" font-family="Helvetica,sans-Serif" font-size="10.00" fill="#000000">src/classes/athenaeum.cpp</text>
</a>
</g>
</g>
<!-- Node5&#45;&gt;Node20 -->
<g id="edge15" class="edge">
<title>Node5&#45;&gt;Node20</title>
<path fill="none" stroke="#191970" d="M871.4584,-128.916C964.5123,-121.0304 1134.6761,-105.1953 1279.0122,-84 1289.51,-82.4584 1300.7589,-80.5102 1311.3267,-78.5461"/>
<polygon fill="#191970" stroke="#191970" points="870.995,-125.4426 861.3239,-129.7692 871.5823,-132.4179 870.995,-125.4426"/>
</g>
<!-- Node21 -->
<g id="node17" class="node">
<title>Node21</title>
<g id="a_node17"><a xlink:href="parameterised_8cpp.html" target="_top" xlink:title="src/classes/parameterised.cpp">
<polygon fill="#ffffff" stroke="#000000" points="1442.4854,-60.5 1442.4854,-78.5 1593.5391,-78.5 1593.5391,-60.5 1442.4854,-60.5"/>
<text text-anchor="middle" x="1518.0122" y="-66.5" font-family="Helvetica,sans-Serif" font-size="10.00" fill="#000000">src/classes/parameterised.cpp</text>
</a>
</g>
</g>
<!-- Node5&#45;&gt;Node21 -->
<g id="edge19" class="edge">
<title>Node5&#45;&gt;Node21</title>
<path fill="none" stroke="#191970" d="M871.6626,-131.0163C988.324,-124.7156 1230.4748,-109.6448 1434.0122,-84 1445.7585,-82.52 1458.3665,-80.549 1470.1506,-78.5384"/>
<polygon fill="#191970" stroke="#191970" points="871.2458,-127.5335 861.4471,-131.5629 871.6199,-134.5235 871.2458,-127.5335"/>
</g>
<!-- Node22 -->
<g id="node18" class="node">
<title>Node22</title>
<g id="a_node18"><a xlink:href="condensed_8cpp.html" target="_top" xlink:title="src/graph/condensed.cpp">
<polygon fill="#ffffff" stroke="#000000" points="1611.8647,-60.5 1611.8647,-78.5 1740.1597,-78.5 1740.1597,-60.5 1611.8647,-60.5"/>
<text text-anchor="middle" x="1676.0122" y="-66.5" font-family="Helvetica,sans-Serif" font-size="10.00" fill="#000000">src/graph/condensed.cpp</text>
</a>
</g>
</g>
<!-- Node5&#45;&gt;Node22 -->
<g id="edge20" class="edge">
<title>Node5&#45;&gt;Node22</title>
<path fill="none" stroke="#191970" d="M871.4147,-133.2299C1010.6828,-129.9973 1333.9214,-119.049 1603.0122,-84 1613.647,-82.6148 1625.0594,-80.6036 1635.6272,-78.518"/>
<polygon fill="#191970" stroke="#191970" points="871.2268,-129.7331 861.3085,-133.4583 871.3851,-136.7314 871.2268,-129.7331"/>
</g>
<!-- Node23 -->
<g id="node19" class="node">
<title>Node23</title>
<g id="a_node19"><a xlink:href="main_8cpp.html" target="_top" xlink:title="src/main.cpp">
<polygon fill="#ffffff" stroke="#000000" points="1757.6699,-60.5 1757.6699,-78.5 1830.3545,-78.5 1830.3545,-60.5 1757.6699,-60.5"/>
<text text-anchor="middle" x="1794.0122" y="-66.5" font-family="Helvetica,sans-Serif" font-size="10.00" fill="#000000">src/main.cpp</text>
</a>
</g>
</g>
<!-- Node5&#45;&gt;Node23 -->
<g id="edge22" class="edge">
<title>Node5&#45;&gt;Node23</title>
<path fill="none" stroke="#191970" d="M871.5182,-133.1199C1060.4638,-128.9975 1580.5884,-115.0826 1749.0122,-84 1755.7925,-82.7487 1762.9682,-80.7574 1769.5498,-78.6465"/>
<polygon fill="#191970" stroke="#191970" points="871.3519,-129.6226 861.4297,-133.3375 871.5029,-136.621 871.3519,-129.6226"/>
</g>
<!-- Node7 -->
<g id="node3" class="node">
<title>Node7</title>
<g id="a_node3"><a xlink:href="iters_8cpp.html" target="_top" xlink:title="src/classes/iters.cpp">
<polygon fill="#ffffff" stroke="#000000" points="0,-.5 0,-18.5 106.0244,-18.5 106.0244,-.5 0,-.5"/>
<text text-anchor="middle" x="53.0122" y="-6.5" font-family="Helvetica,sans-Serif" font-size="10.00" fill="#000000">src/classes/iters.cpp</text>
</a>
</g>
</g>
<!-- Node6&#45;&gt;Node7 -->
<g id="edge2" class="edge">
<title>Node6&#45;&gt;Node7</title>
<path fill="none" stroke="#191970" d="M94.3054,-48.2123C83.4625,-38.0471 71.0609,-26.4206 62.702,-18.5842"/>
<polygon fill="#191970" stroke="#191970" points="92.1559,-50.9948 101.8451,-55.2808 96.9435,-45.888 92.1559,-50.9948"/>
</g>
<!-- Node9 -->
<g id="node5" class="node">
<title>Node9</title>
<g id="a_node5"><a xlink:href="angle_8cpp.html" target="_top" xlink:title="src/classes/angle.cpp">
<polygon fill="#ffffff" stroke="#000000" points="378.2119,-.5 378.2119,-18.5 489.8125,-18.5 489.8125,-.5 378.2119,-.5"/>
<text text-anchor="middle" x="434.0122" y="-6.5" font-family="Helvetica,sans-Serif" font-size="10.00" fill="#000000">src/classes/angle.cpp</text>
</a>
</g>
</g>
<!-- Node8&#45;&gt;Node9 -->
<g id="edge4" class="edge">
<title>Node8&#45;&gt;Node9</title>
<path fill="none" stroke="#191970" d="M477.5711,-48.508C466.1423,-38.2733 452.9919,-26.4967 444.1562,-18.5842"/>
<polygon fill="#191970" stroke="#191970" points="475.3497,-51.2169 485.1341,-55.2808 480.0195,-46.0023 475.3497,-51.2169"/>
</g>
<!-- Node8&#45;&gt;Node10 -->
<g id="edge5" class="edge">
<title>Node8&#45;&gt;Node10</title>
<path fill="none" stroke="#191970" d="M431.547,-56.5562C369.936,-45.0759 281.5431,-28.6051 227.3328,-18.5038"/>
<polygon fill="#191970" stroke="#191970" points="431.1052,-60.034 441.5772,-58.4252 432.3876,-53.1525 431.1052,-60.034"/>
</g>
<!-- Node8&#45;&gt;Node11 -->
<g id="edge6" class="edge">
<title>Node8&#45;&gt;Node11</title>
<path fill="none" stroke="#191970" d="M445.4551,-52.4055C409.6211,-41.3797 364.4482,-27.4803 335.3978,-18.5417"/>
<polygon fill="#191970" stroke="#191970" points="444.7063,-55.837 455.2934,-55.4327 446.7649,-49.1465 444.7063,-55.837"/>
</g>
<!-- Node12 -->
<g id="node8" class="node">
<title>Node12</title>
<g id="a_node8"><a xlink:href="dihedral_8cpp.html" target="_top" xlink:title="src/classes/dihedral.cpp">
<polygon fill="#ffffff" stroke="#000000" points="507.6553,-.5 507.6553,-18.5 630.3691,-18.5 630.3691,-.5 507.6553,-.5"/>
<text text-anchor="middle" x="569.0122" y="-6.5" font-family="Helvetica,sans-Serif" font-size="10.00" fill="#000000">src/classes/dihedral.cpp</text>
</a>
</g>
</g>
<!-- Node8&#45;&gt;Node12 -->
<g id="edge7" class="edge">
<title>Node8&#45;&gt;Node12</title>
<path fill="none" stroke="#191970" d="M524.8031,-48.508C536.4025,-38.2733 549.7492,-26.4967 558.7168,-18.5842"/>
<polygon fill="#191970" stroke="#191970" points="522.31,-46.0401 517.1273,-55.2808 526.9413,-51.289 522.31,-46.0401"/>
</g>
<!-- Node8&#45;&gt;Node13 -->
<g id="edge8" class="edge">
<title>Node8&#45;&gt;Node13</title>
<path fill="none" stroke="#191970" d="M570.2255,-55.6934C571.4976,-55.4587 572.7608,-55.2274 574.0122,-55 649.0286,-41.3701 735.8401,-27.3449 791.7646,-18.5357"/>
<polygon fill="#191970" stroke="#191970" points="569.5271,-52.2632 560.3436,-57.5465 570.8174,-59.1433 569.5271,-52.2632"/>
</g>
<!-- Node14 -->
<g id="node10" class="node">
<title>Node14</title>
<g id="a_node10"><a xlink:href="residue_8cpp.html" target="_top" xlink:title="src/classes/residue.cpp">
<polygon fill="#ffffff" stroke="#000000" points="648.0469,-.5 648.0469,-18.5 767.9775,-18.5 767.9775,-.5 648.0469,-.5"/>
<text text-anchor="middle" x="708.0122" y="-6.5" font-family="Helvetica,sans-Serif" font-size="10.00" fill="#000000">src/classes/residue.cpp</text>
</a>
</g>
</g>
<!-- Node8&#45;&gt;Node14 -->
<g id="edge9" class="edge">
<title>Node8&#45;&gt;Node14</title>
<path fill="none" stroke="#191970" d="M559.501,-52.5467C597.6172,-41.4985 645.8484,-27.5185 676.8183,-18.5417"/>
<polygon fill="#191970" stroke="#191970" points="558.1748,-49.287 549.5445,-55.4327 560.1236,-56.0103 558.1748,-49.287"/>
</g>
<!-- Node8&#45;&gt;Node15 -->
<g id="edge10" class="edge">
<title>Node8&#45;&gt;Node15</title>
<path fill="none" stroke="#191970" d="M570.2654,-60.2942C584.0894,-58.5015 598.5086,-56.6635 612.0122,-55 750.1135,-37.9878 784.9538,-36.3571 923.0122,-19 925.8109,-18.6481 928.6718,-18.2828 931.5611,-17.9093"/>
<polygon fill="#191970" stroke="#191970" points="569.7905,-56.8264 560.3262,-61.5885 570.6944,-63.7678 569.7905,-56.8264"/>
</g>
</g>
</svg>
