<?xml version="1.0" encoding="UTF-8" standalone="no"?>
<!DOCTYPE svg PUBLIC "-//W3C//DTD SVG 1.1//EN"
 "http://www.w3.org/Graphics/SVG/1.1/DTD/svg11.dtd">
<!-- Generated by graphviz version 2.40.1 (20161225.0304)
 -->
<!-- Title: include/indigox/algorithm/cherrypicker.hpp Pages: 1 -->
<!--zoomable 342 -->
<svg id="main" version="1.1" xmlns="http://www.w3.org/2000/svg" xmlns:xlink="http://www.w3.org/1999/xlink" xml:space="preserve" onload="init(evt)">
<style type="text/css"><![CDATA[
.edge:hover path { stroke: red; }
.edge:hover polygon { stroke: red; fill: red; }
]]></style>
<script type="text/javascript"><![CDATA[
var edges = document.getElementsByTagName('g');
if (edges && edges.length) {
  for (var i=0;i<edges.length;i++) {
    if (edges[i].id.substr(0,4)=='edge') {
      edges[i].setAttribute('class','edge');
    }
  }
}
]]></script>
        <defs>
                <circle id="rim" cx="0" cy="0" r="7"/>
                <circle id="rim2" cx="0" cy="0" r="3.5"/>
                <g id="zoomPlus">
                        <use xlink:href="#rim" fill="#404040">
                                <set attributeName="fill" to="#808080" begin="zoomplus.mouseover" end="zoomplus.mouseout"/>
                        </use>
                        <path d="M-4,0h8M0,-4v8" fill="none" stroke="white" stroke-width="1.5" pointer-events="none"/>
                </g>
                <g id="zoomMin">
                        <use xlink:href="#rim" fill="#404040">
                                <set attributeName="fill" to="#808080" begin="zoomminus.mouseover" end="zoomminus.mouseout"/>
                        </use>
                        <path d="M-4,0h8" fill="none" stroke="white" stroke-width="1.5" pointer-events="none"/>
                </g>
                <g id="dirArrow">
                        <path fill="none" stroke="white" stroke-width="1.5" d="M0,-3.0v7 M-2.5,-0.5L0,-3.0L2.5,-0.5"/>
                </g>
               <g id="resetDef">
                       <use xlink:href="#rim2" fill="#404040">
                               <set attributeName="fill" to="#808080" begin="reset.mouseover" end="reset.mouseout"/>
                       </use>
               </g>
        </defs>

<script type="text/javascript">
var viewWidth = 2422;
var viewHeight = 342;
var sectionId = 'dynsection-0';
</script>
<script xlink:href="svgpan.js"/>
<svg id="graph" class="graph">
<g id="viewport">
<title>include/indigox/algorithm/cherrypicker.hpp</title>
<polygon fill="#ffffff" stroke="transparent" points="-4,4 -4,-338 2418.0664,-338 2418.0664,4 -4,4"/>
<!-- Node0 -->
<g id="node1" class="node">
<title>Node0</title>
<polygon fill="#bfbfbf" stroke="#000000" points="676.9683,-305.5 676.9683,-333.5 803.0317,-333.5 803.0317,-305.5 676.9683,-305.5"/>
<text text-anchor="start" x="684.9683" y="-321.5" font-family="Helvetica,sans-Serif" font-size="10.00" fill="#000000">include/indigox/algorithm</text>
<text text-anchor="middle" x="740" y="-311.5" font-family="Helvetica,sans-Serif" font-size="10.00" fill="#000000">/cherrypicker.hpp</text>
</g>
<!-- Node1 -->
<g id="node2" class="node">
<title>Node1</title>
<g id="a_node2"><a xlink:href="athenaeum_8hpp.html" target="_top" xlink:title="../classes/athenaeum.hpp">
<polygon fill="#ffffff" stroke="#000000" points="675.02,-245.5 675.02,-263.5 804.98,-263.5 804.98,-245.5 675.02,-245.5"/>
<text text-anchor="middle" x="740" y="-251.5" font-family="Helvetica,sans-Serif" font-size="10.00" fill="#000000">../classes/athenaeum.hpp</text>
</a>
</g>
</g>
<!-- Node0&#45;&gt;Node1 -->
<g id="edge1" class="edge">
<title>Node0&#45;&gt;Node1</title>
<path fill="none" stroke="#191970" d="M740,-305.396C740,-296.1723 740,-284.0011 740,-273.8738"/>
<polygon fill="#191970" stroke="#191970" points="743.5001,-273.5743 740,-263.5743 736.5001,-273.5743 743.5001,-273.5743"/>
</g>
<!-- Node2 -->
<g id="node3" class="node">
<title>Node2</title>
<g id="a_node3"><a xlink:href="fwd__declares_8hpp.html" target="_top" xlink:title="../utils/fwd_declares.hpp">
<polygon fill="#ffffff" stroke="#000000" points="245.3599,-60.5 245.3599,-78.5 368.6401,-78.5 368.6401,-60.5 245.3599,-60.5"/>
<text text-anchor="middle" x="307" y="-66.5" font-family="Helvetica,sans-Serif" font-size="10.00" fill="#000000">../utils/fwd_declares.hpp</text>
</a>
</g>
</g>
<!-- Node0&#45;&gt;Node2 -->
<g id="edge52" class="edge">
<title>Node0&#45;&gt;Node2</title>
<path fill="none" stroke="#191970" d="M676.7434,-315.0794C622.6031,-309.483 543.5673,-296.9323 480,-269 435.4845,-249.4393 425.1117,-239.607 392,-204 357.9733,-167.409 329.5938,-115.3743 315.87,-87.9905"/>
<polygon fill="#191970" stroke="#191970" points="318.8984,-86.2171 311.3466,-78.786 312.616,-89.3046 318.8984,-86.2171"/>
</g>
<!-- Node3 -->
<g id="node4" class="node">
<title>Node3</title>
<polygon fill="#ffffff" stroke="#bfbfbf" points="15.5493,-.5 15.5493,-18.5 60.4507,-18.5 60.4507,-.5 15.5493,-.5"/>
<text text-anchor="middle" x="38" y="-6.5" font-family="Helvetica,sans-Serif" font-size="10.00" fill="#000000">cstdint</text>
</g>
<!-- Node0&#45;&gt;Node3 -->
<g id="edge53" class="edge">
<title>Node0&#45;&gt;Node3</title>
<path fill="none" stroke="#191970" d="M676.908,-315.0495C497.9553,-301.5889 0,-257.9808 0,-189.5 0,-189.5 0,-189.5 0,-129.5 0,-91.8088 17.249,-50.435 28.5044,-27.4496"/>
<polygon fill="#191970" stroke="#191970" points="31.6291,-29.0264 33.0322,-18.5249 25.3865,-25.8593 31.6291,-29.0264"/>
</g>
<!-- Node6 -->
<g id="node7" class="node">
<title>Node6</title>
<polygon fill="#ffffff" stroke="#bfbfbf" points="2351.9336,-60.5 2351.9336,-78.5 2414.0664,-78.5 2414.0664,-60.5 2351.9336,-60.5"/>
<text text-anchor="middle" x="2383" y="-66.5" font-family="Helvetica,sans-Serif" font-size="10.00" fill="#000000">type_traits</text>
</g>
<!-- Node0&#45;&gt;Node6 -->
<g id="edge55" class="edge">
<title>Node0&#45;&gt;Node6</title>
<path fill="none" stroke="#191970" d="M803.1612,-311.8516C947.171,-294.2601 1310.8243,-248.9736 1614,-204 1695.2015,-191.9544 2263.5739,-104.7431 2343,-84 2345.5908,-83.3234 2348.2499,-82.5477 2350.906,-81.7144"/>
<polygon fill="#191970" stroke="#191970" points="2352.0263,-85.0304 2360.3846,-78.5196 2349.7905,-78.397 2352.0263,-85.0304"/>
</g>
<!-- Node27 -->
<g id="node28" class="node">
<title>Node27</title>
<g id="a_node28"><a xlink:href="forcefield_8hpp.html" target="_top" xlink:title="../classes/forcefield.hpp">
<polygon fill="#ffffff" stroke="#000000" points="488.7515,-245.5 488.7515,-263.5 609.2485,-263.5 609.2485,-245.5 488.7515,-245.5"/>
<text text-anchor="middle" x="549" y="-251.5" font-family="Helvetica,sans-Serif" font-size="10.00" fill="#000000">../classes/forcefield.hpp</text>
</a>
</g>
</g>
<!-- Node0&#45;&gt;Node27 -->
<g id="edge32" class="edge">
<title>Node0&#45;&gt;Node27</title>
<path fill="none" stroke="#191970" d="M698.5558,-305.396C664.7496,-293.8912 617.4682,-277.8007 585.1741,-266.8106"/>
<polygon fill="#191970" stroke="#191970" points="586.2589,-263.4827 575.6645,-263.5743 584.0037,-270.1095 586.2589,-263.4827"/>
</g>
<!-- Node36 -->
<g id="node37" class="node">
<title>Node36</title>
<g id="a_node37"><a xlink:href="enum__class__bitwise_8hpp.html" target="_top" xlink:title="../utils/enum_class\l_bitwise.hpp">
<polygon fill="#ffffff" stroke="#000000" points="1677.8721,-240.5 1677.8721,-268.5 1776.1279,-268.5 1776.1279,-240.5 1677.8721,-240.5"/>
<text text-anchor="start" x="1685.8721" y="-256.5" font-family="Helvetica,sans-Serif" font-size="10.00" fill="#000000">../utils/enum_class</text>
<text text-anchor="middle" x="1727" y="-246.5" font-family="Helvetica,sans-Serif" font-size="10.00" fill="#000000">_bitwise.hpp</text>
</a>
</g>
</g>
<!-- Node0&#45;&gt;Node36 -->
<g id="edge50" class="edge">
<title>Node0&#45;&gt;Node36</title>
<path fill="none" stroke="#191970" d="M803.2437,-317.4596C983.4279,-311.4212 1497.1701,-292.5796 1664,-269 1665.1113,-268.8429 1666.2319,-268.676 1667.3594,-268.5002"/>
<polygon fill="#191970" stroke="#191970" points="1668.3788,-271.8753 1677.6274,-266.7068 1667.1743,-264.9797 1668.3788,-271.8753"/>
</g>
<!-- Node37 -->
<g id="node38" class="node">
<title>Node37</title>
<polygon fill="#ffffff" stroke="#bfbfbf" points="1794.5,-245.5 1794.5,-263.5 1823.5,-263.5 1823.5,-245.5 1794.5,-245.5"/>
<text text-anchor="middle" x="1808.6108" y="-251.5" font-family="Helvetica,sans-Serif" font-size="10.00" fill="#000000">list</text>
</g>
<!-- Node0&#45;&gt;Node37 -->
<g id="edge54" class="edge">
<title>Node0&#45;&gt;Node37</title>
<path fill="none" stroke="#191970" d="M803.1598,-318.2505C1014.8732,-313.8135 1691.3963,-297.5333 1785,-269 1785.7334,-268.7764 1786.4674,-268.5255 1787.1992,-268.2514"/>
<polygon fill="#191970" stroke="#191970" points="1788.9398,-271.2953 1796.3533,-263.7263 1785.8378,-265.0201 1788.9398,-271.2953"/>
</g>
<!-- Node1&#45;&gt;Node2 -->
<g id="edge2" class="edge">
<title>Node1&#45;&gt;Node2</title>
<path fill="none" stroke="#191970" d="M736.2444,-245.3721C728.7976,-228.5028 710.4702,-192.5681 683,-175 611.3297,-129.1645 576.954,-161.827 495,-139 491.1127,-137.9173 394.1045,-101.8959 341.0005,-82.1498"/>
<polygon fill="#191970" stroke="#191970" points="341.9096,-78.7538 331.3167,-78.5485 339.4695,-85.3148 341.9096,-78.7538"/>
</g>
<!-- Node5 -->
<g id="node6" class="node">
<title>Node5</title>
<g id="a_node6"><a xlink:href="quad_8hpp.html" target="_top" xlink:title="../utils/quad.hpp">
<polygon fill="#ffffff" stroke="#000000" points="1518.6973,-180.5 1518.6973,-198.5 1605.3027,-198.5 1605.3027,-180.5 1518.6973,-180.5"/>
<text text-anchor="middle" x="1562" y="-186.5" font-family="Helvetica,sans-Serif" font-size="10.00" fill="#000000">../utils/quad.hpp</text>
</a>
</g>
</g>
<!-- Node1&#45;&gt;Node5 -->
<g id="edge5" class="edge">
<title>Node1&#45;&gt;Node5</title>
<path fill="none" stroke="#191970" d="M805.2514,-251.8623C965.1862,-245.1308 1373.4526,-226.2651 1508,-204 1512.7765,-203.2096 1517.7414,-202.1768 1522.6402,-201.026"/>
<polygon fill="#191970" stroke="#191970" points="1523.6781,-204.374 1532.5208,-198.5382 1521.9689,-197.5859 1523.6781,-204.374"/>
</g>
<!-- Node22 -->
<g id="node23" class="node">
<title>Node22</title>
<g id="a_node23"><a xlink:href="triple_8hpp.html" target="_top" xlink:title="../utils/triple.hpp">
<polygon fill="#ffffff" stroke="#000000" points="1412.9829,-180.5 1412.9829,-198.5 1499.0171,-198.5 1499.0171,-180.5 1412.9829,-180.5"/>
<text text-anchor="middle" x="1456" y="-186.5" font-family="Helvetica,sans-Serif" font-size="10.00" fill="#000000">../utils/triple.hpp</text>
</a>
</g>
</g>
<!-- Node1&#45;&gt;Node22 -->
<g id="edge24" class="edge">
<title>Node1&#45;&gt;Node22</title>
<path fill="none" stroke="#191970" d="M805.1204,-248.5882C945.4182,-235.8517 1273.9241,-206.0292 1402.7875,-194.3307"/>
<polygon fill="#191970" stroke="#191970" points="1403.1673,-197.8108 1412.8099,-193.4209 1402.5344,-190.8394 1403.1673,-197.8108"/>
</g>
<!-- Node23 -->
<g id="node24" class="node">
<title>Node23</title>
<polygon fill="#ffffff" stroke="#bfbfbf" points="768.0298,-175.5 768.0298,-203.5 877.9702,-203.5 877.9702,-175.5 768.0298,-175.5"/>
<text text-anchor="start" x="776.0298" y="-191.5" font-family="Helvetica,sans-Serif" font-size="10.00" fill="#000000">boost/dynamic_bitset</text>
<text text-anchor="middle" x="823" y="-181.5" font-family="Helvetica,sans-Serif" font-size="10.00" fill="#000000">_fwd.hpp</text>
</g>
<!-- Node1&#45;&gt;Node23 -->
<g id="edge28" class="edge">
<title>Node1&#45;&gt;Node23</title>
<path fill="none" stroke="#191970" d="M751.5408,-245.462C763.1916,-236.3379 781.5881,-221.931 796.7973,-210.0202"/>
<polygon fill="#191970" stroke="#191970" points="799.1407,-212.6305 804.8558,-203.7093 794.8248,-207.1194 799.1407,-212.6305"/>
</g>
<!-- Node24 -->
<g id="node25" class="node">
<title>Node24</title>
<polygon fill="#ffffff" stroke="#bfbfbf" points="548.436,-60.5 548.436,-78.5 605.564,-78.5 605.564,-60.5 548.436,-60.5"/>
<text text-anchor="middle" x="577" y="-66.5" font-family="Helvetica,sans-Serif" font-size="10.00" fill="#000000">algorithm</text>
</g>
<!-- Node1&#45;&gt;Node24 -->
<g id="edge29" class="edge">
<title>Node1&#45;&gt;Node24</title>
<path fill="none" stroke="#191970" d="M739.0938,-245.3633C737.1612,-229.6988 731.4689,-197.2568 716,-175 687.012,-133.2918 636.3753,-100.9643 604.8788,-83.6193"/>
<polygon fill="#191970" stroke="#191970" points="606.2294,-80.3719 595.7636,-78.7236 602.9172,-86.5387 606.2294,-80.3719"/>
</g>
<!-- Node25 -->
<g id="node26" class="node">
<title>Node25</title>
<polygon fill="#ffffff" stroke="#bfbfbf" points="577.2734,-180.5 577.2734,-198.5 612.7266,-198.5 612.7266,-180.5 577.2734,-180.5"/>
<text text-anchor="middle" x="595" y="-186.5" font-family="Helvetica,sans-Serif" font-size="10.00" fill="#000000">map</text>
</g>
<!-- Node1&#45;&gt;Node25 -->
<g id="edge30" class="edge">
<title>Node1&#45;&gt;Node25</title>
<path fill="none" stroke="#191970" d="M716.4088,-245.359C692.1561,-235.7601 653.4566,-219.8803 621,-204 620.4632,-203.7374 619.9219,-203.4689 619.3775,-203.1956"/>
<polygon fill="#191970" stroke="#191970" points="621.0057,-200.0974 610.5294,-198.517 617.7335,-206.2855 621.0057,-200.0974"/>
</g>
<!-- Node26 -->
<g id="node27" class="node">
<title>Node26</title>
<polygon fill="#ffffff" stroke="#bfbfbf" points="630.3843,-180.5 630.3843,-198.5 673.6157,-198.5 673.6157,-180.5 630.3843,-180.5"/>
<text text-anchor="middle" x="652" y="-186.5" font-family="Helvetica,sans-Serif" font-size="10.00" fill="#000000">vector</text>
</g>
<!-- Node1&#45;&gt;Node26 -->
<g id="edge31" class="edge">
<title>Node1&#45;&gt;Node26</title>
<path fill="none" stroke="#191970" d="M727.764,-245.462C713.5274,-234.9464 689.791,-217.4138 672.6766,-204.7725"/>
<polygon fill="#191970" stroke="#191970" points="674.539,-201.7968 664.4158,-198.6708 670.38,-207.4274 674.539,-201.7968"/>
</g>
<!-- Node2&#45;&gt;Node3 -->
<g id="edge3" class="edge">
<title>Node2&#45;&gt;Node3</title>
<path fill="none" stroke="#191970" d="M266.4367,-60.4524C212.8595,-48.5021 119.5622,-27.6923 70.4162,-16.7304"/>
<polygon fill="#191970" stroke="#191970" points="71.1515,-13.3084 60.6294,-14.5474 69.6275,-20.1406 71.1515,-13.3084"/>
</g>
<!-- Node4 -->
<g id="node5" class="node">
<title>Node4</title>
<polygon fill="#ffffff" stroke="#bfbfbf" points="493.9434,-.5 493.9434,-18.5 546.0566,-18.5 546.0566,-.5 493.9434,-.5"/>
<text text-anchor="middle" x="520" y="-6.5" font-family="Helvetica,sans-Serif" font-size="10.00" fill="#000000">memory</text>
</g>
<!-- Node2&#45;&gt;Node4 -->
<g id="edge4" class="edge">
<title>Node2&#45;&gt;Node4</title>
<path fill="none" stroke="#191970" d="M339.3501,-60.3873C378.2953,-49.4168 443.5029,-31.0485 484.0061,-19.6391"/>
<polygon fill="#191970" stroke="#191970" points="485.0638,-22.9775 493.7402,-16.8971 483.1658,-16.2397 485.0638,-22.9775"/>
</g>
<!-- Node5&#45;&gt;Node6 -->
<g id="edge6" class="edge">
<title>Node5&#45;&gt;Node6</title>
<path fill="none" stroke="#191970" d="M1568.4366,-180.1412C1579.8949,-164.3766 1605.5126,-132.9785 1636,-120 1780.7451,-58.3822 2188.8,-115.1489 2343,-84 2346.0161,-83.3907 2349.1097,-82.5958 2352.1758,-81.6918"/>
<polygon fill="#191970" stroke="#191970" points="2353.3519,-84.9894 2361.7471,-78.5263 2351.1538,-78.3434 2353.3519,-84.9894"/>
</g>
<!-- Node7 -->
<g id="node8" class="node">
<title>Node7</title>
<polygon fill="#ffffff" stroke="#bfbfbf" points="1545.6084,-120.5 1545.6084,-138.5 1584.3916,-138.5 1584.3916,-120.5 1545.6084,-120.5"/>
<text text-anchor="middle" x="1565" y="-126.5" font-family="Helvetica,sans-Serif" font-size="10.00" fill="#000000">utility</text>
</g>
<!-- Node5&#45;&gt;Node7 -->
<g id="edge7" class="edge">
<title>Node5&#45;&gt;Node7</title>
<path fill="none" stroke="#191970" d="M1562.4556,-180.3873C1562.8741,-172.0174 1563.5079,-159.3414 1564.0383,-148.735"/>
<polygon fill="#191970" stroke="#191970" points="1567.5362,-148.8608 1564.5401,-138.6985 1560.545,-148.5112 1567.5362,-148.8608"/>
</g>
<!-- Node8 -->
<g id="node9" class="node">
<title>Node8</title>
<g id="a_node9"><a xlink:href="serialise_8hpp.html" target="_top" xlink:title="serialise.hpp">
<polygon fill="#ffffff" stroke="#000000" points="1417.9287,-120.5 1417.9287,-138.5 1490.0713,-138.5 1490.0713,-120.5 1417.9287,-120.5"/>
<text text-anchor="middle" x="1454" y="-126.5" font-family="Helvetica,sans-Serif" font-size="10.00" fill="#000000">serialise.hpp</text>
</a>
</g>
</g>
<!-- Node5&#45;&gt;Node8 -->
<g id="edge8" class="edge">
<title>Node5&#45;&gt;Node8</title>
<path fill="none" stroke="#191970" d="M1545.5971,-180.3873C1527.8916,-170.5509 1499.4808,-154.7671 1478.9925,-143.3847"/>
<polygon fill="#191970" stroke="#191970" points="1480.6447,-140.2988 1470.2034,-138.5019 1477.2452,-146.4179 1480.6447,-140.2988"/>
</g>
<!-- Node8&#45;&gt;Node2 -->
<g id="edge9" class="edge">
<title>Node8&#45;&gt;Node2</title>
<path fill="none" stroke="#191970" d="M1417.7472,-128.7585C1254.3279,-125.2947 585.1299,-109.7802 377,-84 369.8025,-83.1085 362.2434,-81.8684 354.8628,-80.4854"/>
<polygon fill="#191970" stroke="#191970" points="355.4484,-77.0335 344.9598,-78.5301 354.0924,-83.9009 355.4484,-77.0335"/>
</g>
<!-- Node8&#45;&gt;Node6 -->
<g id="edge23" class="edge">
<title>Node8&#45;&gt;Node6</title>
<path fill="none" stroke="#191970" d="M1490.2261,-121.9784C1494.8464,-121.2075 1499.5236,-120.5185 1504,-120 1874.7529,-77.0535 1976.8651,-156.4387 2343,-84 2346.0185,-83.4028 2349.1137,-82.616 2352.1809,-81.7172"/>
<polygon fill="#191970" stroke="#191970" points="2353.3536,-85.0159 2361.7537,-78.5592 2351.1606,-78.3683 2353.3536,-85.0159"/>
</g>
<!-- Node9 -->
<g id="node10" class="node">
<title>Node9</title>
<polygon fill="#ffffff" stroke="#bfbfbf" points="1341.6997,-60.5 1341.6997,-78.5 1438.3003,-78.5 1438.3003,-60.5 1341.6997,-60.5"/>
<text text-anchor="middle" x="1390" y="-66.5" font-family="Helvetica,sans-Serif" font-size="10.00" fill="#000000">cereal/access.hpp</text>
</g>
<!-- Node8&#45;&gt;Node9 -->
<g id="edge10" class="edge">
<title>Node8&#45;&gt;Node9</title>
<path fill="none" stroke="#191970" d="M1444.2798,-120.3873C1434.5061,-111.2245 1419.2277,-96.9009 1407.3671,-85.7817"/>
<polygon fill="#191970" stroke="#191970" points="1409.5009,-82.9845 1399.8117,-78.6985 1404.7133,-88.0913 1409.5009,-82.9845"/>
</g>
<!-- Node10 -->
<g id="node11" class="node">
<title>Node10</title>
<polygon fill="#ffffff" stroke="#bfbfbf" points="1456.0815,-60.5 1456.0815,-78.5 1579.9185,-78.5 1579.9185,-60.5 1456.0815,-60.5"/>
<text text-anchor="middle" x="1518" y="-66.5" font-family="Helvetica,sans-Serif" font-size="10.00" fill="#000000">cereal/archives/json.hpp</text>
</g>
<!-- Node8&#45;&gt;Node10 -->
<g id="edge11" class="edge">
<title>Node8&#45;&gt;Node10</title>
<path fill="none" stroke="#191970" d="M1463.7202,-120.3873C1473.4939,-111.2245 1488.7723,-96.9009 1500.6329,-85.7817"/>
<polygon fill="#191970" stroke="#191970" points="1503.2867,-88.0913 1508.1883,-78.6985 1498.4991,-82.9845 1503.2867,-88.0913"/>
</g>
<!-- Node11 -->
<g id="node12" class="node">
<title>Node11</title>
<polygon fill="#ffffff" stroke="#bfbfbf" points="1597.9165,-55.5 1597.9165,-83.5 1720.0835,-83.5 1720.0835,-55.5 1597.9165,-55.5"/>
<text text-anchor="start" x="1605.9165" y="-71.5" font-family="Helvetica,sans-Serif" font-size="10.00" fill="#000000">cereal/archives/portable</text>
<text text-anchor="middle" x="1659" y="-61.5" font-family="Helvetica,sans-Serif" font-size="10.00" fill="#000000">_binary.hpp</text>
</g>
<!-- Node8&#45;&gt;Node11 -->
<g id="edge12" class="edge">
<title>Node8&#45;&gt;Node11</title>
<path fill="none" stroke="#191970" d="M1485.1351,-120.3873C1515.8782,-111.3893 1563.6253,-97.4145 1601.3105,-86.3847"/>
<polygon fill="#191970" stroke="#191970" points="1602.5387,-89.6722 1611.1529,-83.504 1600.5724,-82.954 1602.5387,-89.6722"/>
</g>
<!-- Node12 -->
<g id="node13" class="node">
<title>Node12</title>
<polygon fill="#ffffff" stroke="#bfbfbf" points="1737.6431,-60.5 1737.6431,-78.5 1830.3569,-78.5 1830.3569,-60.5 1737.6431,-60.5"/>
<text text-anchor="middle" x="1784" y="-66.5" font-family="Helvetica,sans-Serif" font-size="10.00" fill="#000000">cereal/cereal.hpp</text>
</g>
<!-- Node8&#45;&gt;Node12 -->
<g id="edge13" class="edge">
<title>Node8&#45;&gt;Node12</title>
<path fill="none" stroke="#191970" d="M1490.2982,-122.4749C1494.9065,-121.6209 1499.5611,-120.7766 1504,-120 1603.7566,-102.5464 1629.9154,-104.9341 1729,-84 1733.1847,-83.1159 1737.5277,-82.1159 1741.8558,-81.0645"/>
<polygon fill="#191970" stroke="#191970" points="1743.0034,-84.3848 1751.8457,-78.5484 1741.2937,-77.5968 1743.0034,-84.3848"/>
</g>
<!-- Node13 -->
<g id="node14" class="node">
<title>Node13</title>
<polygon fill="#ffffff" stroke="#bfbfbf" points="1847.8984,-60.5 1847.8984,-78.5 1962.1016,-78.5 1962.1016,-60.5 1847.8984,-60.5"/>
<text text-anchor="middle" x="1905" y="-66.5" font-family="Helvetica,sans-Serif" font-size="10.00" fill="#000000">cereal/types/array.hpp</text>
</g>
<!-- Node8&#45;&gt;Node13 -->
<g id="edge14" class="edge">
<title>Node8&#45;&gt;Node13</title>
<path fill="none" stroke="#191970" d="M1490.2625,-122.2541C1494.8768,-121.437 1499.5426,-120.6619 1504,-120 1652.1222,-98.0062 1691.2063,-108.1021 1839,-84 1844.8599,-83.0444 1850.9823,-81.8999 1857.0344,-80.6786"/>
<polygon fill="#191970" stroke="#191970" points="1858.025,-84.0471 1867.0946,-78.5704 1856.5893,-77.1959 1858.025,-84.0471"/>
</g>
<!-- Node14 -->
<g id="node15" class="node">
<title>Node14</title>
<polygon fill="#ffffff" stroke="#bfbfbf" points="1979.9707,-60.5 1979.9707,-78.5 2096.0293,-78.5 2096.0293,-60.5 1979.9707,-60.5"/>
<text text-anchor="middle" x="2038" y="-66.5" font-family="Helvetica,sans-Serif" font-size="10.00" fill="#000000">cereal/types/bitset.hpp</text>
</g>
<!-- Node8&#45;&gt;Node14 -->
<g id="edge15" class="edge">
<title>Node8&#45;&gt;Node14</title>
<path fill="none" stroke="#191970" d="M1490.2443,-122.1249C1494.8616,-121.3294 1499.5331,-120.5947 1504,-120 1710.3508,-92.5291 1765.0142,-114.086 1971,-84 1977.3371,-83.0744 1983.9705,-81.8972 1990.4956,-80.6152"/>
<polygon fill="#191970" stroke="#191970" points="1991.5129,-83.9792 2000.6021,-78.5352 1990.1018,-77.1229 1991.5129,-83.9792"/>
</g>
<!-- Node15 -->
<g id="node16" class="node">
<title>Node15</title>
<polygon fill="#ffffff" stroke="#bfbfbf" points="2114.1382,-55.5 2114.1382,-83.5 2221.8618,-83.5 2221.8618,-55.5 2114.1382,-55.5"/>
<text text-anchor="start" x="2122.1382" y="-71.5" font-family="Helvetica,sans-Serif" font-size="10.00" fill="#000000">cereal/types/boost</text>
<text text-anchor="middle" x="2168" y="-61.5" font-family="Helvetica,sans-Serif" font-size="10.00" fill="#000000">_dynamic_bitset.hpp</text>
</g>
<!-- Node8&#45;&gt;Node15 -->
<g id="edge16" class="edge">
<title>Node8&#45;&gt;Node15</title>
<path fill="none" stroke="#191970" d="M1490.2348,-122.0513C1494.8537,-121.2682 1499.5282,-120.5564 1504,-120 1766.3006,-87.3615 1838.3897,-121.2926 2103.8797,-83.9903"/>
<polygon fill="#191970" stroke="#191970" points="2104.4058,-87.4508 2113.8118,-82.5745 2103.4179,-80.5208 2104.4058,-87.4508"/>
</g>
<!-- Node16 -->
<g id="node17" class="node">
<title>Node16</title>
<polygon fill="#ffffff" stroke="#bfbfbf" points="2240.0913,-55.5 2240.0913,-83.5 2333.9087,-83.5 2333.9087,-55.5 2240.0913,-55.5"/>
<text text-anchor="start" x="2248.0913" y="-71.5" font-family="Helvetica,sans-Serif" font-size="10.00" fill="#000000">cereal/types/eastl</text>
<text text-anchor="middle" x="2287" y="-61.5" font-family="Helvetica,sans-Serif" font-size="10.00" fill="#000000">_bitset.hpp</text>
</g>
<!-- Node8&#45;&gt;Node16 -->
<g id="edge17" class="edge">
<title>Node8&#45;&gt;Node16</title>
<path fill="none" stroke="#191970" d="M1490.2294,-122.0068C1494.8492,-121.2311 1499.5254,-120.5333 1504,-120 1821.9398,-82.1081 1909.407,-131.7606 2230.0493,-83.9057"/>
<polygon fill="#191970" stroke="#191970" points="2230.7266,-87.3431 2240.0906,-82.3867 2229.6795,-80.4219 2230.7266,-87.3431"/>
</g>
<!-- Node17 -->
<g id="node18" class="node">
<title>Node17</title>
<polygon fill="#ffffff" stroke="#bfbfbf" points="661.6875,-60.5 661.6875,-78.5 778.3125,-78.5 778.3125,-60.5 661.6875,-60.5"/>
<text text-anchor="middle" x="720" y="-66.5" font-family="Helvetica,sans-Serif" font-size="10.00" fill="#000000">cereal/types/eigen.hpp</text>
</g>
<!-- Node8&#45;&gt;Node17 -->
<g id="edge18" class="edge">
<title>Node8&#45;&gt;Node17</title>
<path fill="none" stroke="#191970" d="M1417.6568,-128.8698C1316.9634,-126.726 1026.0379,-117.837 787,-84 780.5815,-83.0914 773.8612,-81.9131 767.2581,-80.6209"/>
<polygon fill="#191970" stroke="#191970" points="767.5386,-77.1054 757.0385,-78.5189 766.1283,-83.9618 767.5386,-77.1054"/>
</g>
<!-- Node18 -->
<g id="node19" class="node">
<title>Node18</title>
<polygon fill="#ffffff" stroke="#bfbfbf" points="796.1948,-60.5 796.1948,-78.5 907.8052,-78.5 907.8052,-60.5 796.1948,-60.5"/>
<text text-anchor="middle" x="852" y="-66.5" font-family="Helvetica,sans-Serif" font-size="10.00" fill="#000000">cereal/types/map.hpp</text>
</g>
<!-- Node8&#45;&gt;Node18 -->
<g id="edge19" class="edge">
<title>Node8&#45;&gt;Node18</title>
<path fill="none" stroke="#191970" d="M1417.6596,-128.1143C1330.7211,-124.4316 1104.0497,-112.6536 917,-84 910.8499,-83.0579 904.4132,-81.8711 898.0823,-80.5842"/>
<polygon fill="#191970" stroke="#191970" points="898.7861,-77.1557 888.277,-78.5003 897.3309,-84.0028 898.7861,-77.1557"/>
</g>
<!-- Node19 -->
<g id="node20" class="node">
<title>Node19</title>
<polygon fill="#ffffff" stroke="#bfbfbf" points="926.2334,-60.5 926.2334,-78.5 1053.7666,-78.5 1053.7666,-60.5 926.2334,-60.5"/>
<text text-anchor="middle" x="990" y="-66.5" font-family="Helvetica,sans-Serif" font-size="10.00" fill="#000000">cereal/types/memory.hpp</text>
</g>
<!-- Node8&#45;&gt;Node19 -->
<g id="edge20" class="edge">
<title>Node8&#45;&gt;Node19</title>
<path fill="none" stroke="#191970" d="M1417.751,-126.2622C1348.5557,-119.8647 1192.9578,-104.4345 1063,-84 1056.3107,-82.9482 1049.3009,-81.7193 1042.3822,-80.43"/>
<polygon fill="#191970" stroke="#191970" points="1042.8384,-76.9539 1032.3587,-78.5114 1041.5223,-83.8291 1042.8384,-76.9539"/>
</g>
<!-- Node20 -->
<g id="node21" class="node">
<title>Node20</title>
<polygon fill="#ffffff" stroke="#bfbfbf" points="1071.8984,-60.5 1071.8984,-78.5 1186.1016,-78.5 1186.1016,-60.5 1071.8984,-60.5"/>
<text text-anchor="middle" x="1129" y="-66.5" font-family="Helvetica,sans-Serif" font-size="10.00" fill="#000000">cereal/types/utility.hpp</text>
</g>
<!-- Node8&#45;&gt;Node20 -->
<g id="edge21" class="edge">
<title>Node8&#45;&gt;Node20</title>
<path fill="none" stroke="#191970" d="M1417.6003,-123.5354C1367.565,-115.2329 1274.7737,-99.4642 1196,-84 1190.6718,-82.954 1185.1146,-81.8203 1179.5794,-80.6633"/>
<polygon fill="#191970" stroke="#191970" points="1180.202,-77.2176 1169.6938,-78.5696 1178.7516,-84.0657 1180.202,-77.2176"/>
</g>
<!-- Node21 -->
<g id="node22" class="node">
<title>Node21</title>
<polygon fill="#ffffff" stroke="#bfbfbf" points="1204.5791,-60.5 1204.5791,-78.5 1323.4209,-78.5 1323.4209,-60.5 1204.5791,-60.5"/>
<text text-anchor="middle" x="1264" y="-66.5" font-family="Helvetica,sans-Serif" font-size="10.00" fill="#000000">cereal/types/vector.hpp</text>
</g>
<!-- Node8&#45;&gt;Node21 -->
<g id="edge22" class="edge">
<title>Node8&#45;&gt;Node21</title>
<path fill="none" stroke="#191970" d="M1425.1431,-120.3873C1392.3108,-110.0192 1338.554,-93.0434 1302.2506,-81.5791"/>
<polygon fill="#191970" stroke="#191970" points="1303.0957,-78.1757 1292.5059,-78.5019 1300.9878,-84.8508 1303.0957,-78.1757"/>
</g>
<!-- Node22&#45;&gt;Node6 -->
<g id="edge25" class="edge">
<title>Node22&#45;&gt;Node6</title>
<path fill="none" stroke="#191970" d="M1463.253,-180.1077C1476.1087,-164.2926 1504.6095,-132.8203 1537,-120 1703.7063,-54.0168 2167.1501,-118.9516 2343,-84 2346.018,-83.4002 2349.1129,-82.6116 2352.1798,-81.7116"/>
<polygon fill="#191970" stroke="#191970" points="2353.3532,-85.0101 2361.7523,-78.552 2351.1591,-78.3628 2353.3532,-85.0101"/>
</g>
<!-- Node22&#45;&gt;Node7 -->
<g id="edge26" class="edge">
<title>Node22&#45;&gt;Node7</title>
<path fill="none" stroke="#191970" d="M1472.5548,-180.3873C1490.4242,-170.5509 1519.0981,-154.7671 1539.7761,-143.3847"/>
<polygon fill="#191970" stroke="#191970" points="1541.5739,-146.3904 1548.6466,-138.5019 1538.1983,-140.258 1541.5739,-146.3904"/>
</g>
<!-- Node22&#45;&gt;Node8 -->
<g id="edge27" class="edge">
<title>Node22&#45;&gt;Node8</title>
<path fill="none" stroke="#191970" d="M1455.6962,-180.3873C1455.4172,-172.0174 1454.9947,-159.3414 1454.6412,-148.735"/>
<polygon fill="#191970" stroke="#191970" points="1458.1379,-148.5763 1454.3066,-138.6985 1451.1418,-148.8096 1458.1379,-148.5763"/>
</g>
<!-- Node27&#45;&gt;Node2 -->
<g id="edge33" class="edge">
<title>Node27&#45;&gt;Node2</title>
<path fill="none" stroke="#191970" d="M544.2303,-245.4297C535.5488,-229.5805 515.8432,-196.4892 492,-175 444.9064,-132.5558 377.9025,-99.6392 338.7878,-82.5288"/>
<polygon fill="#191970" stroke="#191970" points="340.0426,-79.2586 329.4734,-78.5231 337.2771,-85.6891 340.0426,-79.2586"/>
</g>
<!-- Node27&#45;&gt;Node4 -->
<g id="edge48" class="edge">
<title>Node27&#45;&gt;Node4</title>
<path fill="none" stroke="#191970" d="M549.2343,-245.3884C550.035,-229.762 553.4716,-197.3758 568,-175 582.329,-152.9313 603.3521,-162.5939 615,-139 631.5266,-105.5239 634.8963,-86.5898 615,-55 602.0433,-34.4283 576.9233,-22.9522 555.7675,-16.6726"/>
<polygon fill="#191970" stroke="#191970" points="556.6445,-13.2842 546.0784,-14.0647 554.825,-20.0436 556.6445,-13.2842"/>
</g>
<!-- Node27&#45;&gt;Node25 -->
<g id="edge47" class="edge">
<title>Node27&#45;&gt;Node25</title>
<path fill="none" stroke="#191970" d="M555.3961,-245.462C562.3886,-235.5813 573.7652,-219.5056 582.5352,-207.1134"/>
<polygon fill="#191970" stroke="#191970" points="585.4406,-209.0667 588.3603,-198.8821 579.7266,-205.023 585.4406,-209.0667"/>
</g>
<!-- Node27&#45;&gt;Node26 -->
<g id="edge49" class="edge">
<title>Node27&#45;&gt;Node26</title>
<path fill="none" stroke="#191970" d="M563.3217,-245.462C580.2907,-234.7534 608.7906,-216.7681 628.8937,-204.0816"/>
<polygon fill="#191970" stroke="#191970" points="630.8789,-206.9675 637.4679,-198.6708 627.1431,-201.0477 630.8789,-206.9675"/>
</g>
<!-- Node28 -->
<g id="node29" class="node">
<title>Node28</title>
<g id="a_node29"><a xlink:href="periodictable_8hpp.html" target="_top" xlink:title="periodictable.hpp">
<polygon fill="#ffffff" stroke="#000000" points="233.9165,-180.5 233.9165,-198.5 326.0835,-198.5 326.0835,-180.5 233.9165,-180.5"/>
<text text-anchor="middle" x="280" y="-186.5" font-family="Helvetica,sans-Serif" font-size="10.00" fill="#000000">periodictable.hpp</text>
</a>
</g>
</g>
<!-- Node27&#45;&gt;Node28 -->
<g id="edge34" class="edge">
<title>Node27&#45;&gt;Node28</title>
<path fill="none" stroke="#191970" d="M511.5967,-245.462C463.4508,-233.8283 379.7622,-213.6061 327.2624,-200.9203"/>
<polygon fill="#191970" stroke="#191970" points="328.0606,-197.5125 317.5183,-198.5658 326.4164,-204.3167 328.0606,-197.5125"/>
</g>
<!-- Node35 -->
<g id="node36" class="node">
<title>Node35</title>
<polygon fill="#ffffff" stroke="#bfbfbf" points="400.6504,-180.5 400.6504,-198.5 483.3496,-198.5 483.3496,-180.5 400.6504,-180.5"/>
<text text-anchor="middle" x="442" y="-186.5" font-family="Helvetica,sans-Serif" font-size="10.00" fill="#000000">EASTL/bitset.h</text>
</g>
<!-- Node27&#45;&gt;Node35 -->
<g id="edge46" class="edge">
<title>Node27&#45;&gt;Node35</title>
<path fill="none" stroke="#191970" d="M534.1221,-245.462C516.4147,-234.7052 486.6205,-216.6059 465.7219,-203.9105"/>
<polygon fill="#191970" stroke="#191970" points="467.4603,-200.8714 457.0965,-198.6708 463.8259,-206.854 467.4603,-200.8714"/>
</g>
<!-- Node28&#45;&gt;Node2 -->
<g id="edge41" class="edge">
<title>Node28&#45;&gt;Node2</title>
<path fill="none" stroke="#191970" d="M289.1759,-180.4436C298.0002,-171.0325 310.7503,-155.4079 316,-139 321.3181,-122.3784 317.8512,-102.5643 313.7743,-88.3534"/>
<polygon fill="#191970" stroke="#191970" points="317.0702,-87.1697 310.6732,-78.7241 310.4073,-89.3156 317.0702,-87.1697"/>
</g>
<!-- Node28&#45;&gt;Node3 -->
<g id="edge44" class="edge">
<title>Node28&#45;&gt;Node3</title>
<path fill="none" stroke="#191970" d="M233.7402,-185.1316C175.5948,-178.6462 80.5291,-164.415 57,-139 29.1858,-108.9565 31.1118,-57.055 34.6929,-28.9454"/>
<polygon fill="#191970" stroke="#191970" points="38.1924,-29.2057 36.1938,-18.8011 31.2678,-28.1811 38.1924,-29.2057"/>
</g>
<!-- Node29 -->
<g id="node30" class="node">
<title>Node29</title>
<g id="a_node30"><a xlink:href="common_8hpp.html" target="_top" xlink:title="../utils/common.hpp">
<polygon fill="#ffffff" stroke="#000000" points="503.6479,-120.5 503.6479,-138.5 606.3521,-138.5 606.3521,-120.5 503.6479,-120.5"/>
<text text-anchor="middle" x="555" y="-126.5" font-family="Helvetica,sans-Serif" font-size="10.00" fill="#000000">../utils/common.hpp</text>
</a>
</g>
</g>
<!-- Node28&#45;&gt;Node29 -->
<g id="edge35" class="edge">
<title>Node28&#45;&gt;Node29</title>
<path fill="none" stroke="#191970" d="M321.468,-180.4524C370.2407,-169.8111 451.2111,-152.1448 503.8388,-140.6624"/>
<polygon fill="#191970" stroke="#191970" points="504.6208,-144.0742 513.6449,-138.5229 503.1286,-137.2351 504.6208,-144.0742"/>
</g>
<!-- Node32 -->
<g id="node33" class="node">
<title>Node32</title>
<polygon fill="#ffffff" stroke="#bfbfbf" points="66.478,-120.5 66.478,-138.5 177.522,-138.5 177.522,-120.5 66.478,-120.5"/>
<text text-anchor="middle" x="122" y="-126.5" font-family="Helvetica,sans-Serif" font-size="10.00" fill="#000000">EASTL/vector_map.h</text>
</g>
<!-- Node28&#45;&gt;Node32 -->
<g id="edge42" class="edge">
<title>Node28&#45;&gt;Node32</title>
<path fill="none" stroke="#191970" d="M256.0032,-180.3873C229.1673,-170.1964 185.5208,-153.6218 155.3691,-142.1718"/>
<polygon fill="#191970" stroke="#191970" points="156.2961,-138.78 145.7049,-138.5019 153.811,-145.3241 156.2961,-138.78"/>
</g>
<!-- Node33 -->
<g id="node34" class="node">
<title>Node33</title>
<polygon fill="#ffffff" stroke="#bfbfbf" points="195.6084,-120.5 195.6084,-138.5 234.3916,-138.5 234.3916,-120.5 195.6084,-120.5"/>
<text text-anchor="middle" x="215" y="-126.5" font-family="Helvetica,sans-Serif" font-size="10.00" fill="#000000">array</text>
</g>
<!-- Node28&#45;&gt;Node33 -->
<g id="edge43" class="edge">
<title>Node28&#45;&gt;Node33</title>
<path fill="none" stroke="#191970" d="M270.1279,-180.3873C260.2015,-171.2245 244.6843,-156.9009 232.6385,-145.7817"/>
<polygon fill="#191970" stroke="#191970" points="234.6871,-142.9095 224.965,-138.6985 229.9391,-148.0531 234.6871,-142.9095"/>
</g>
<!-- Node34 -->
<g id="node35" class="node">
<title>Node34</title>
<polygon fill="#ffffff" stroke="#bfbfbf" points="252.8276,-120.5 252.8276,-138.5 307.1724,-138.5 307.1724,-120.5 252.8276,-120.5"/>
<text text-anchor="middle" x="280" y="-126.5" font-family="Helvetica,sans-Serif" font-size="10.00" fill="#000000">iostream</text>
</g>
<!-- Node28&#45;&gt;Node34 -->
<g id="edge45" class="edge">
<title>Node28&#45;&gt;Node34</title>
<path fill="none" stroke="#191970" d="M280,-180.3873C280,-172.0174 280,-159.3414 280,-148.735"/>
<polygon fill="#191970" stroke="#191970" points="283.5001,-148.6984 280,-138.6985 276.5001,-148.6985 283.5001,-148.6984"/>
</g>
<!-- Node29&#45;&gt;Node4 -->
<g id="edge38" class="edge">
<title>Node29&#45;&gt;Node4</title>
<path fill="none" stroke="#191970" d="M551.4461,-120.1686C548.0293,-111.0268 542.8329,-96.6627 539,-84 533.3915,-65.4714 528.0396,-44.0257 524.4537,-28.9149"/>
<polygon fill="#191970" stroke="#191970" points="527.762,-27.6904 522.0807,-18.7477 520.9452,-29.2815 527.762,-27.6904"/>
</g>
<!-- Node29&#45;&gt;Node6 -->
<g id="edge40" class="edge">
<title>Node29&#45;&gt;Node6</title>
<path fill="none" stroke="#191970" d="M606.6235,-128.6542C890.8684,-123.938 2255.5622,-100.5083 2343,-84 2346.0236,-83.4291 2349.1223,-82.6601 2352.1916,-81.7726"/>
<polygon fill="#191970" stroke="#191970" points="2353.3568,-85.0739 2361.7676,-78.6312 2351.1748,-78.4227 2353.3568,-85.0739"/>
</g>
<!-- Node29&#45;&gt;Node24 -->
<g id="edge36" class="edge">
<title>Node29&#45;&gt;Node24</title>
<path fill="none" stroke="#191970" d="M558.3413,-120.3873C561.4426,-111.9293 566.1562,-99.074 570.0697,-88.4007"/>
<polygon fill="#191970" stroke="#191970" points="573.4707,-89.2922 573.6272,-78.6985 566.8985,-86.8823 573.4707,-89.2922"/>
</g>
<!-- Node30 -->
<g id="node31" class="node">
<title>Node30</title>
<polygon fill="#ffffff" stroke="#bfbfbf" points="386.4385,-60.5 386.4385,-78.5 433.5615,-78.5 433.5615,-60.5 386.4385,-60.5"/>
<text text-anchor="middle" x="410" y="-66.5" font-family="Helvetica,sans-Serif" font-size="10.00" fill="#000000">iterator</text>
</g>
<!-- Node29&#45;&gt;Node30 -->
<g id="edge37" class="edge">
<title>Node29&#45;&gt;Node30</title>
<path fill="none" stroke="#191970" d="M532.1847,-120.4494C509.4978,-111.3984 473.737,-96.9933 443,-84 441.9913,-83.5736 440.9663,-83.1377 439.9319,-82.6957"/>
<polygon fill="#191970" stroke="#191970" points="441.1251,-79.3984 430.5575,-78.6394 438.3452,-85.8228 441.1251,-79.3984"/>
</g>
<!-- Node31 -->
<g id="node32" class="node">
<title>Node31</title>
<polygon fill="#ffffff" stroke="#bfbfbf" points="451.7734,-60.5 451.7734,-78.5 492.2266,-78.5 492.2266,-60.5 451.7734,-60.5"/>
<text text-anchor="middle" x="472" y="-66.5" font-family="Helvetica,sans-Serif" font-size="10.00" fill="#000000">string</text>
</g>
<!-- Node29&#45;&gt;Node31 -->
<g id="edge39" class="edge">
<title>Node29&#45;&gt;Node31</title>
<path fill="none" stroke="#191970" d="M542.3941,-120.3873C529.2774,-110.9054 508.5158,-95.897 492.9325,-84.6319"/>
<polygon fill="#191970" stroke="#191970" points="494.6073,-81.5239 484.4526,-78.5019 490.5063,-87.1969 494.6073,-81.5239"/>
</g>
<!-- Node36&#45;&gt;Node6 -->
<g id="edge51" class="edge">
<title>Node36&#45;&gt;Node6</title>
<path fill="none" stroke="#191970" d="M1776.4912,-242.196C1881.5845,-215.7641 2134.4804,-150.5409 2343,-84 2345.1155,-83.3249 2347.2858,-82.6084 2349.4687,-81.8696"/>
<polygon fill="#191970" stroke="#191970" points="2350.7026,-85.1461 2358.9906,-78.546 2348.3957,-78.5371 2350.7026,-85.1461"/>
</g>
</g>
</svg>
        <g id="navigator" transform="translate(0 0)" fill="#404254">
                <rect fill="#f2f5e9" fill-opacity="0.5" stroke="#606060" stroke-width=".5" x="0" y="0" width="60" height="60"/>
                <use id="zoomplus" xlink:href="#zoomPlus" x="17" y="9" onmousedown="handleZoom(evt,'in')"/>
                <use id="zoomminus" xlink:href="#zoomMin" x="42" y="9" onmousedown="handleZoom(evt,'out')"/>
                <use id="reset" xlink:href="#resetDef" x="30" y="36" onmousedown="handleReset()"/>
                <g id="arrowUp" xlink:href="#dirArrow" transform="translate(30 24)" onmousedown="handlePan(0,-1)">
                  <use xlink:href="#rim" fill="#404040">
                        <set attributeName="fill" to="#808080" begin="arrowUp.mouseover" end="arrowUp.mouseout"/>
                  </use>
                  <path fill="none" stroke="white" stroke-width="1.5" d="M0,-3.0v7 M-2.5,-0.5L0,-3.0L2.5,-0.5"/>
                </g>
                <g id="arrowRight" xlink:href="#dirArrow" transform="rotate(90) translate(36 -43)" onmousedown="handlePan(1,0)">
                  <use xlink:href="#rim" fill="#404040">
                        <set attributeName="fill" to="#808080" begin="arrowRight.mouseover" end="arrowRight.mouseout"/>
                  </use>
                  <path fill="none" stroke="white" stroke-width="1.5" d="M0,-3.0v7 M-2.5,-0.5L0,-3.0L2.5,-0.5"/>
                </g>
                <g id="arrowDown" xlink:href="#dirArrow" transform="rotate(180) translate(-30 -48)" onmousedown="handlePan(0,1)">
                  <use xlink:href="#rim" fill="#404040">
                        <set attributeName="fill" to="#808080" begin="arrowDown.mouseover" end="arrowDown.mouseout"/>
                  </use>
                  <path fill="none" stroke="white" stroke-width="1.5" d="M0,-3.0v7 M-2.5,-0.5L0,-3.0L2.5,-0.5"/>
                </g>
                <g id="arrowLeft" xlink:href="#dirArrow" transform="rotate(270) translate(-36 17)" onmousedown="handlePan(-1,0)">
                  <use xlink:href="#rim" fill="#404040">
                        <set attributeName="fill" to="#808080" begin="arrowLeft.mouseover" end="arrowLeft.mouseout"/>
                  </use>
                  <path fill="none" stroke="white" stroke-width="1.5" d="M0,-3.0v7 M-2.5,-0.5L0,-3.0L2.5,-0.5"/>
                </g>
        </g>
        <svg viewBox="0 0 15 15" width="100%" height="30px" preserveAspectRatio="xMaxYMin meet">
         <g id="arrow_out" transform="scale(0.3 0.3)">
          <a xlink:href="cherrypicker_8hpp__incl_org.svg" target="_base">
           <rect id="button" ry="5" rx="5" y="6" x="6" height="38" width="38"
                fill="#f2f5e9" fill-opacity="0.5" stroke="#606060" stroke-width="1.0"/>
           <path id="arrow"
             d="M 11.500037,31.436501 C 11.940474,20.09759 22.043105,11.32322 32.158766,21.979434 L 37.068811,17.246167 C 37.068811,17.246167 37.088388,32 37.088388,32 L 22.160133,31.978069 C 22.160133,31.978069 26.997745,27.140456 26.997745,27.140456 C 18.528582,18.264221 13.291696,25.230495 11.500037,31.436501 z"
             style="fill:#404040;"/>
          </a>
         </g>
        </svg>
</svg>
