<?xml version="1.0" encoding="UTF-8" standalone="no"?>
<!DOCTYPE svg PUBLIC "-//W3C//DTD SVG 1.1//EN"
 "http://www.w3.org/Graphics/SVG/1.1/DTD/svg11.dtd">
<!-- Generated by graphviz version 2.40.1 (20161225.0304)
 -->
<!-- Title: include/indigox/algorithm/cherrypicker.hpp Pages: 1 -->
<svg width="2395pt" height="342pt"
 viewBox="0.00 0.00 2395.07 342.00" xmlns="http://www.w3.org/2000/svg" xmlns:xlink="http://www.w3.org/1999/xlink">
<g id="graph0" class="graph" transform="scale(1 1) rotate(0) translate(4 338)">
<title>include/indigox/algorithm/cherrypicker.hpp</title>
<polygon fill="#ffffff" stroke="transparent" points="-4,4 -4,-338 2391.0664,-338 2391.0664,4 -4,4"/>
<!-- Node0 -->
<g id="node1" class="node">
<title>Node0</title>
<g id="a_node1"><a xlink:title=" ">
<polygon fill="#bfbfbf" stroke="#000000" points="1126.9683,-305.5 1126.9683,-333.5 1253.0317,-333.5 1253.0317,-305.5 1126.9683,-305.5"/>
<text text-anchor="start" x="1134.9683" y="-321.5" font-family="Helvetica,sans-Serif" font-size="10.00" fill="#000000">include/indigox/algorithm</text>
<text text-anchor="middle" x="1190" y="-311.5" font-family="Helvetica,sans-Serif" font-size="10.00" fill="#000000">/cherrypicker.hpp</text>
</a>
</g>
</g>
<!-- Node1 -->
<g id="node2" class="node">
<title>Node1</title>
<g id="a_node2"><a xlink:href="athenaeum_8hpp.html" target="_top" xlink:title=" ">
<polygon fill="#ffffff" stroke="#000000" points="745.02,-245.5 745.02,-263.5 874.98,-263.5 874.98,-245.5 745.02,-245.5"/>
<text text-anchor="middle" x="810" y="-251.5" font-family="Helvetica,sans-Serif" font-size="10.00" fill="#000000">../classes/athenaeum.hpp</text>
</a>
</g>
</g>
<!-- Node0&#45;&gt;Node1 -->
<g id="edge1" class="edge">
<title>Node0&#45;&gt;Node1</title>
<path fill="none" stroke="#191970" d="M1126.8242,-308.6936C1056.4212,-296.651 943.2629,-277.295 872.951,-265.2679"/>
<polygon fill="#191970" stroke="#191970" points="873.3452,-261.7846 862.8983,-263.5484 872.165,-268.6844 873.3452,-261.7846"/>
</g>
<!-- Node2 -->
<g id="node3" class="node">
<title>Node2</title>
<g id="a_node3"><a xlink:href="fwd__declares_8hpp.html" target="_top" xlink:title=" ">
<polygon fill="#ffffff" stroke="#000000" points="218.3599,-60.5 218.3599,-78.5 341.6401,-78.5 341.6401,-60.5 218.3599,-60.5"/>
<text text-anchor="middle" x="280" y="-66.5" font-family="Helvetica,sans-Serif" font-size="10.00" fill="#000000">../utils/fwd_declares.hpp</text>
</a>
</g>
</g>
<!-- Node0&#45;&gt;Node2 -->
<g id="edge52" class="edge">
<title>Node0&#45;&gt;Node2</title>
<path fill="none" stroke="#191970" d="M1126.9231,-318.2798C980.959,-314.8999 623.6493,-303.2827 509,-269 452.0076,-251.958 436.5289,-243.4429 392,-204 357.4622,-173.4071 361.0471,-155.0138 331,-120 320.6272,-107.9126 307.8975,-95.3053 297.7509,-85.7109"/>
<polygon fill="#191970" stroke="#191970" points="299.9631,-82.9883 290.2616,-78.73 295.1901,-88.1087 299.9631,-82.9883"/>
</g>
<!-- Node3 -->
<g id="node4" class="node">
<title>Node3</title>
<g id="a_node4"><a xlink:title=" ">
<polygon fill="#ffffff" stroke="#bfbfbf" points="15.5493,-.5 15.5493,-18.5 60.4507,-18.5 60.4507,-.5 15.5493,-.5"/>
<text text-anchor="middle" x="38" y="-6.5" font-family="Helvetica,sans-Serif" font-size="10.00" fill="#000000">cstdint</text>
</a>
</g>
</g>
<!-- Node0&#45;&gt;Node3 -->
<g id="edge54" class="edge">
<title>Node0&#45;&gt;Node3</title>
<path fill="none" stroke="#191970" d="M1126.6304,-317.7007C996.5567,-313.4708 690.188,-300.7484 435,-269 239.968,-244.7357 0,-386.0355 0,-189.5 0,-189.5 0,-189.5 0,-129.5 0,-91.8088 17.249,-50.435 28.5044,-27.4496"/>
<polygon fill="#191970" stroke="#191970" points="31.6291,-29.0264 33.0322,-18.5249 25.3865,-25.8593 31.6291,-29.0264"/>
</g>
<!-- Node6 -->
<g id="node7" class="node">
<title>Node6</title>
<g id="a_node7"><a xlink:title=" ">
<polygon fill="#ffffff" stroke="#bfbfbf" points="2324.9336,-60.5 2324.9336,-78.5 2387.0664,-78.5 2387.0664,-60.5 2324.9336,-60.5"/>
<text text-anchor="middle" x="2356" y="-66.5" font-family="Helvetica,sans-Serif" font-size="10.00" fill="#000000">type_traits</text>
</a>
</g>
</g>
<!-- Node0&#45;&gt;Node6 -->
<g id="edge56" class="edge">
<title>Node0&#45;&gt;Node6</title>
<path fill="none" stroke="#191970" d="M1248.0525,-305.4711C1391.4179,-271.0983 1773.9764,-181.0355 2096,-120 2193.3451,-101.5495 2220.1252,-108.9904 2316,-84 2318.5911,-83.3246 2321.2504,-82.5498 2323.9067,-81.7172"/>
<polygon fill="#191970" stroke="#191970" points="2325.0266,-85.0332 2333.3856,-78.5235 2322.7915,-78.3996 2325.0266,-85.0332"/>
</g>
<!-- Node27 -->
<g id="node28" class="node">
<title>Node27</title>
<g id="a_node28"><a xlink:href="forcefield_8hpp.html" target="_top" xlink:title=" ">
<polygon fill="#ffffff" stroke="#000000" points="517.7515,-245.5 517.7515,-263.5 638.2485,-263.5 638.2485,-245.5 517.7515,-245.5"/>
<text text-anchor="middle" x="578" y="-251.5" font-family="Helvetica,sans-Serif" font-size="10.00" fill="#000000">../classes/forcefield.hpp</text>
</a>
</g>
</g>
<!-- Node0&#45;&gt;Node27 -->
<g id="edge32" class="edge">
<title>Node0&#45;&gt;Node27</title>
<path fill="none" stroke="#191970" d="M1126.8103,-312.7887C1011.8192,-300.5756 769.152,-274.8021 648.7842,-262.0179"/>
<polygon fill="#191970" stroke="#191970" points="648.8912,-258.5097 638.5775,-260.9339 648.1519,-265.4705 648.8912,-258.5097"/>
</g>
<!-- Node36 -->
<g id="node37" class="node">
<title>Node36</title>
<g id="a_node37"><a xlink:href="enum__class__bitwise_8hpp.html" target="_top" xlink:title=" ">
<polygon fill="#ffffff" stroke="#000000" points="1586.8721,-240.5 1586.8721,-268.5 1685.1279,-268.5 1685.1279,-240.5 1586.8721,-240.5"/>
<text text-anchor="start" x="1594.8721" y="-256.5" font-family="Helvetica,sans-Serif" font-size="10.00" fill="#000000">../utils/enum_class</text>
<text text-anchor="middle" x="1636" y="-246.5" font-family="Helvetica,sans-Serif" font-size="10.00" fill="#000000">_bitwise.hpp</text>
</a>
</g>
</g>
<!-- Node0&#45;&gt;Node36 -->
<g id="edge50" class="edge">
<title>Node0&#45;&gt;Node36</title>
<path fill="none" stroke="#191970" d="M1253.3142,-313.019C1329.4962,-304.7909 1461.1282,-289.2022 1573,-269 1574.2425,-268.7756 1575.4975,-268.543 1576.7615,-268.3032"/>
<polygon fill="#191970" stroke="#191970" points="1577.4482,-271.7352 1586.5692,-266.3447 1576.0774,-264.8708 1577.4482,-271.7352"/>
</g>
<!-- Node37 -->
<g id="node38" class="node">
<title>Node37</title>
<g id="a_node38"><a xlink:title=" ">
<polygon fill="#ffffff" stroke="#bfbfbf" points="1703.0493,-245.5 1703.0493,-263.5 1742.9507,-263.5 1742.9507,-245.5 1703.0493,-245.5"/>
<text text-anchor="middle" x="1723" y="-251.5" font-family="Helvetica,sans-Serif" font-size="10.00" fill="#000000">bitset</text>
</a>
</g>
</g>
<!-- Node0&#45;&gt;Node37 -->
<g id="edge53" class="edge">
<title>Node0&#45;&gt;Node37</title>
<path fill="none" stroke="#191970" d="M1253.0912,-316.0373C1369.3211,-309.1859 1612.8026,-292.5031 1694,-269 1695.4193,-268.5892 1696.8525,-268.1101 1698.2818,-267.5812"/>
<polygon fill="#191970" stroke="#191970" points="1699.7109,-270.7763 1707.4688,-263.5606 1696.9044,-264.3635 1699.7109,-270.7763"/>
</g>
<!-- Node38 -->
<g id="node39" class="node">
<title>Node38</title>
<g id="a_node39"><a xlink:title=" ">
<polygon fill="#ffffff" stroke="#bfbfbf" points="1760.5,-245.5 1760.5,-263.5 1789.5,-263.5 1789.5,-245.5 1760.5,-245.5"/>
<text text-anchor="middle" x="1774.6108" y="-251.5" font-family="Helvetica,sans-Serif" font-size="10.00" fill="#000000">list</text>
</a>
</g>
</g>
<!-- Node0&#45;&gt;Node38 -->
<g id="edge55" class="edge">
<title>Node0&#45;&gt;Node38</title>
<path fill="none" stroke="#191970" d="M1253.1564,-317.5458C1379.9354,-313.0167 1661.0549,-299.7509 1752,-269 1752.5869,-268.8016 1753.1741,-268.5853 1753.76,-268.3537"/>
<polygon fill="#191970" stroke="#191970" points="1755.623,-271.3303 1762.8907,-263.6211 1752.4017,-265.1155 1755.623,-271.3303"/>
</g>
<!-- Node1&#45;&gt;Node2 -->
<g id="edge2" class="edge">
<title>Node1&#45;&gt;Node2</title>
<path fill="none" stroke="#191970" d="M797.8483,-245.4066C784.6594,-235.4571 763.0639,-218.9313 745,-204 729.9505,-191.5603 729.7173,-183.2056 712,-175 612.5317,-128.9322 572.3785,-172.4862 468,-139 450.3978,-133.3529 448.0369,-127.1744 431,-120 394.8363,-104.7711 352.3498,-90.9037 321.6719,-81.5704"/>
<polygon fill="#191970" stroke="#191970" points="322.3314,-78.1138 311.7469,-78.5836 320.3141,-84.8169 322.3314,-78.1138"/>
</g>
<!-- Node5 -->
<g id="node6" class="node">
<title>Node5</title>
<g id="a_node6"><a xlink:href="quad_8hpp.html" target="_top" xlink:title=" ">
<polygon fill="#ffffff" stroke="#000000" points="1428.6973,-180.5 1428.6973,-198.5 1515.3027,-198.5 1515.3027,-180.5 1428.6973,-180.5"/>
<text text-anchor="middle" x="1472" y="-186.5" font-family="Helvetica,sans-Serif" font-size="10.00" fill="#000000">../utils/quad.hpp</text>
</a>
</g>
</g>
<!-- Node1&#45;&gt;Node5 -->
<g id="edge5" class="edge">
<title>Node1&#45;&gt;Node5</title>
<path fill="none" stroke="#191970" d="M875.2747,-252.9141C987.1415,-249.3435 1222.3527,-238.1081 1418,-204 1422.7127,-203.1784 1427.6121,-202.1358 1432.4517,-200.9877"/>
<polygon fill="#191970" stroke="#191970" points="1433.3841,-204.3622 1442.2226,-198.52 1431.6699,-197.5753 1433.3841,-204.3622"/>
</g>
<!-- Node22 -->
<g id="node23" class="node">
<title>Node22</title>
<g id="a_node23"><a xlink:href="triple_8hpp.html" target="_top" xlink:title=" ">
<polygon fill="#ffffff" stroke="#000000" points="1322.9829,-180.5 1322.9829,-198.5 1409.0171,-198.5 1409.0171,-180.5 1322.9829,-180.5"/>
<text text-anchor="middle" x="1366" y="-186.5" font-family="Helvetica,sans-Serif" font-size="10.00" fill="#000000">../utils/triple.hpp</text>
</a>
</g>
</g>
<!-- Node1&#45;&gt;Node22 -->
<g id="edge24" class="edge">
<title>Node1&#45;&gt;Node22</title>
<path fill="none" stroke="#191970" d="M875.1416,-246.8845C986.1754,-233.904 1210.0016,-207.7372 1312.5182,-195.7524"/>
<polygon fill="#191970" stroke="#191970" points="1313.1159,-199.2064 1322.6418,-194.5689 1312.303,-192.2538 1313.1159,-199.2064"/>
</g>
<!-- Node23 -->
<g id="node24" class="node">
<title>Node23</title>
<g id="a_node24"><a xlink:title=" ">
<polygon fill="#ffffff" stroke="#bfbfbf" points="797.0298,-175.5 797.0298,-203.5 906.9702,-203.5 906.9702,-175.5 797.0298,-175.5"/>
<text text-anchor="start" x="805.0298" y="-191.5" font-family="Helvetica,sans-Serif" font-size="10.00" fill="#000000">boost/dynamic_bitset</text>
<text text-anchor="middle" x="852" y="-181.5" font-family="Helvetica,sans-Serif" font-size="10.00" fill="#000000">_fwd.hpp</text>
</a>
</g>
</g>
<!-- Node1&#45;&gt;Node23 -->
<g id="edge28" class="edge">
<title>Node1&#45;&gt;Node23</title>
<path fill="none" stroke="#191970" d="M815.8399,-245.462C821.3178,-236.9843 829.7426,-223.9459 837.0825,-212.5866"/>
<polygon fill="#191970" stroke="#191970" points="840.1718,-214.2546 842.6593,-203.9559 834.2924,-210.4555 840.1718,-214.2546"/>
</g>
<!-- Node24 -->
<g id="node25" class="node">
<title>Node24</title>
<g id="a_node25"><a xlink:title=" ">
<polygon fill="#ffffff" stroke="#bfbfbf" points="521.436,-60.5 521.436,-78.5 578.564,-78.5 578.564,-60.5 521.436,-60.5"/>
<text text-anchor="middle" x="550" y="-66.5" font-family="Helvetica,sans-Serif" font-size="10.00" fill="#000000">algorithm</text>
</a>
</g>
</g>
<!-- Node1&#45;&gt;Node24 -->
<g id="edge29" class="edge">
<title>Node1&#45;&gt;Node24</title>
<path fill="none" stroke="#191970" d="M804.3108,-245.4249C794.0241,-229.5681 770.9729,-196.4656 745,-175 694.0176,-132.8651 623.6216,-99.7623 582.8429,-82.5497"/>
<polygon fill="#191970" stroke="#191970" points="583.9651,-79.2259 573.3876,-78.62 581.2786,-85.6899 583.9651,-79.2259"/>
</g>
<!-- Node25 -->
<g id="node26" class="node">
<title>Node25</title>
<g id="a_node26"><a xlink:title=" ">
<polygon fill="#ffffff" stroke="#bfbfbf" points="606.2734,-180.5 606.2734,-198.5 641.7266,-198.5 641.7266,-180.5 606.2734,-180.5"/>
<text text-anchor="middle" x="624" y="-186.5" font-family="Helvetica,sans-Serif" font-size="10.00" fill="#000000">map</text>
</a>
</g>
</g>
<!-- Node1&#45;&gt;Node25 -->
<g id="edge30" class="edge">
<title>Node1&#45;&gt;Node25</title>
<path fill="none" stroke="#191970" d="M774.296,-245.4711C741.3669,-236.623 691.457,-221.8821 650,-204 649.4364,-203.7569 648.8692,-203.5052 648.2999,-203.2461"/>
<polygon fill="#191970" stroke="#191970" points="649.6407,-200.0022 639.1367,-198.6175 646.4845,-206.2504 649.6407,-200.0022"/>
</g>
<!-- Node26 -->
<g id="node27" class="node">
<title>Node26</title>
<g id="a_node27"><a xlink:title=" ">
<polygon fill="#ffffff" stroke="#bfbfbf" points="659.3843,-180.5 659.3843,-198.5 702.6157,-198.5 702.6157,-180.5 659.3843,-180.5"/>
<text text-anchor="middle" x="681" y="-186.5" font-family="Helvetica,sans-Serif" font-size="10.00" fill="#000000">vector</text>
</a>
</g>
</g>
<!-- Node1&#45;&gt;Node26 -->
<g id="edge31" class="edge">
<title>Node1&#45;&gt;Node26</title>
<path fill="none" stroke="#191970" d="M792.0631,-245.462C770.332,-234.5122 733.5014,-215.9542 708.254,-203.2326"/>
<polygon fill="#191970" stroke="#191970" points="709.7058,-200.045 699.2004,-198.6708 706.5559,-206.2963 709.7058,-200.045"/>
</g>
<!-- Node2&#45;&gt;Node3 -->
<g id="edge3" class="edge">
<title>Node2&#45;&gt;Node3</title>
<path fill="none" stroke="#191970" d="M243.5081,-60.4524C196.4686,-48.7897 115.3949,-28.6888 70.4227,-17.5387"/>
<polygon fill="#191970" stroke="#191970" points="71.1521,-14.1136 60.6037,-15.1042 69.4675,-20.9079 71.1521,-14.1136"/>
</g>
<!-- Node4 -->
<g id="node5" class="node">
<title>Node4</title>
<g id="a_node5"><a xlink:title=" ">
<polygon fill="#ffffff" stroke="#bfbfbf" points="466.9434,-.5 466.9434,-18.5 519.0566,-18.5 519.0566,-.5 466.9434,-.5"/>
<text text-anchor="middle" x="493" y="-6.5" font-family="Helvetica,sans-Serif" font-size="10.00" fill="#000000">memory</text>
</a>
</g>
</g>
<!-- Node2&#45;&gt;Node4 -->
<g id="edge4" class="edge">
<title>Node2&#45;&gt;Node4</title>
<path fill="none" stroke="#191970" d="M312.3501,-60.3873C351.2953,-49.4168 416.5029,-31.0485 457.0061,-19.6391"/>
<polygon fill="#191970" stroke="#191970" points="458.0638,-22.9775 466.7402,-16.8971 456.1658,-16.2397 458.0638,-22.9775"/>
</g>
<!-- Node5&#45;&gt;Node6 -->
<g id="edge6" class="edge">
<title>Node5&#45;&gt;Node6</title>
<path fill="none" stroke="#191970" d="M1478.3121,-180.1298C1489.5589,-164.348 1514.7474,-132.9245 1545,-120 1702.7288,-52.615 2147.8047,-117.6071 2316,-84 2319.0174,-83.3971 2322.1118,-82.6065 2325.1785,-81.7052"/>
<polygon fill="#191970" stroke="#191970" points="2326.3528,-85.0034 2334.7506,-78.5436 2324.1574,-78.3565 2326.3528,-85.0034"/>
</g>
<!-- Node7 -->
<g id="node8" class="node">
<title>Node7</title>
<g id="a_node8"><a xlink:title=" ">
<polygon fill="#ffffff" stroke="#bfbfbf" points="1454.6084,-120.5 1454.6084,-138.5 1493.3916,-138.5 1493.3916,-120.5 1454.6084,-120.5"/>
<text text-anchor="middle" x="1474" y="-126.5" font-family="Helvetica,sans-Serif" font-size="10.00" fill="#000000">utility</text>
</a>
</g>
</g>
<!-- Node5&#45;&gt;Node7 -->
<g id="edge7" class="edge">
<title>Node5&#45;&gt;Node7</title>
<path fill="none" stroke="#191970" d="M1472.3038,-180.3873C1472.5828,-172.0174 1473.0053,-159.3414 1473.3588,-148.735"/>
<polygon fill="#191970" stroke="#191970" points="1476.8582,-148.8096 1473.6934,-138.6985 1469.8621,-148.5763 1476.8582,-148.8096"/>
</g>
<!-- Node8 -->
<g id="node9" class="node">
<title>Node8</title>
<g id="a_node9"><a xlink:href="serialise_8hpp.html" target="_top" xlink:title=" ">
<polygon fill="#ffffff" stroke="#000000" points="1326.9287,-120.5 1326.9287,-138.5 1399.0713,-138.5 1399.0713,-120.5 1326.9287,-120.5"/>
<text text-anchor="middle" x="1363" y="-126.5" font-family="Helvetica,sans-Serif" font-size="10.00" fill="#000000">serialise.hpp</text>
</a>
</g>
</g>
<!-- Node5&#45;&gt;Node8 -->
<g id="edge8" class="edge">
<title>Node5&#45;&gt;Node8</title>
<path fill="none" stroke="#191970" d="M1455.4452,-180.3873C1437.5758,-170.5509 1408.9019,-154.7671 1388.2239,-143.3847"/>
<polygon fill="#191970" stroke="#191970" points="1389.8017,-140.258 1379.3534,-138.5019 1386.4261,-146.3904 1389.8017,-140.258"/>
</g>
<!-- Node8&#45;&gt;Node2 -->
<g id="edge9" class="edge">
<title>Node8&#45;&gt;Node2</title>
<path fill="none" stroke="#191970" d="M1326.8152,-128.6489C1169.5826,-124.8317 544.8787,-108.4024 350,-84 342.8037,-83.0989 335.2452,-81.8536 327.8649,-80.4682"/>
<polygon fill="#191970" stroke="#191970" points="328.451,-77.0164 317.9621,-78.5114 327.0939,-83.8837 328.451,-77.0164"/>
</g>
<!-- Node8&#45;&gt;Node6 -->
<g id="edge23" class="edge">
<title>Node8&#45;&gt;Node6</title>
<path fill="none" stroke="#191970" d="M1399.2246,-121.9653C1403.8452,-121.1966 1408.5229,-120.5117 1413,-120 1812.054,-74.389 1921.8675,-161.3564 2316,-84 2319.0194,-83.4074 2322.1153,-82.6237 2325.1828,-81.7268"/>
<polygon fill="#191970" stroke="#191970" points="2326.3542,-85.026 2334.7562,-78.5717 2324.1631,-78.3778 2326.3542,-85.026"/>
</g>
<!-- Node9 -->
<g id="node10" class="node">
<title>Node9</title>
<g id="a_node10"><a xlink:title=" ">
<polygon fill="#ffffff" stroke="#bfbfbf" points="1314.6997,-60.5 1314.6997,-78.5 1411.3003,-78.5 1411.3003,-60.5 1314.6997,-60.5"/>
<text text-anchor="middle" x="1363" y="-66.5" font-family="Helvetica,sans-Serif" font-size="10.00" fill="#000000">cereal/access.hpp</text>
</a>
</g>
</g>
<!-- Node8&#45;&gt;Node9 -->
<g id="edge10" class="edge">
<title>Node8&#45;&gt;Node9</title>
<path fill="none" stroke="#191970" d="M1363,-120.3873C1363,-112.0174 1363,-99.3414 1363,-88.735"/>
<polygon fill="#191970" stroke="#191970" points="1366.5001,-88.6984 1363,-78.6985 1359.5001,-88.6985 1366.5001,-88.6984"/>
</g>
<!-- Node10 -->
<g id="node11" class="node">
<title>Node10</title>
<g id="a_node11"><a xlink:title=" ">
<polygon fill="#ffffff" stroke="#bfbfbf" points="1429.0815,-60.5 1429.0815,-78.5 1552.9185,-78.5 1552.9185,-60.5 1429.0815,-60.5"/>
<text text-anchor="middle" x="1491" y="-66.5" font-family="Helvetica,sans-Serif" font-size="10.00" fill="#000000">cereal/archives/json.hpp</text>
</a>
</g>
</g>
<!-- Node8&#45;&gt;Node10 -->
<g id="edge11" class="edge">
<title>Node8&#45;&gt;Node10</title>
<path fill="none" stroke="#191970" d="M1382.4404,-120.3873C1403.8028,-110.3737 1438.3144,-94.1964 1462.6825,-82.7738"/>
<polygon fill="#191970" stroke="#191970" points="1464.2269,-85.9154 1471.796,-78.5019 1461.2559,-79.5772 1464.2269,-85.9154"/>
</g>
<!-- Node11 -->
<g id="node12" class="node">
<title>Node11</title>
<g id="a_node12"><a xlink:title=" ">
<polygon fill="#ffffff" stroke="#bfbfbf" points="1570.9165,-55.5 1570.9165,-83.5 1693.0835,-83.5 1693.0835,-55.5 1570.9165,-55.5"/>
<text text-anchor="start" x="1578.9165" y="-71.5" font-family="Helvetica,sans-Serif" font-size="10.00" fill="#000000">cereal/archives/portable</text>
<text text-anchor="middle" x="1632" y="-61.5" font-family="Helvetica,sans-Serif" font-size="10.00" fill="#000000">_binary.hpp</text>
</a>
</g>
</g>
<!-- Node8&#45;&gt;Node11 -->
<g id="edge12" class="edge">
<title>Node8&#45;&gt;Node11</title>
<path fill="none" stroke="#191970" d="M1399.2785,-121.4081C1440.5721,-112.1977 1509.0248,-96.9294 1561.0283,-85.3301"/>
<polygon fill="#191970" stroke="#191970" points="1561.8683,-88.7289 1570.8664,-83.1357 1560.3443,-81.8967 1561.8683,-88.7289"/>
</g>
<!-- Node12 -->
<g id="node13" class="node">
<title>Node12</title>
<g id="a_node13"><a xlink:title=" ">
<polygon fill="#ffffff" stroke="#bfbfbf" points="1710.6431,-60.5 1710.6431,-78.5 1803.3569,-78.5 1803.3569,-60.5 1710.6431,-60.5"/>
<text text-anchor="middle" x="1757" y="-66.5" font-family="Helvetica,sans-Serif" font-size="10.00" fill="#000000">cereal/cereal.hpp</text>
</a>
</g>
</g>
<!-- Node8&#45;&gt;Node12 -->
<g id="edge13" class="edge">
<title>Node8&#45;&gt;Node12</title>
<path fill="none" stroke="#191970" d="M1399.2735,-122.3264C1403.886,-121.4972 1408.5483,-120.6994 1413,-120 1540.8685,-99.9094 1574.913,-108.5534 1702,-84 1706.4842,-83.1336 1711.1433,-82.1071 1715.7678,-81.0064"/>
<polygon fill="#191970" stroke="#191970" points="1716.9009,-84.331 1725.7548,-78.5121 1715.2047,-77.5396 1716.9009,-84.331"/>
</g>
<!-- Node13 -->
<g id="node14" class="node">
<title>Node13</title>
<g id="a_node14"><a xlink:title=" ">
<polygon fill="#ffffff" stroke="#bfbfbf" points="1820.8984,-60.5 1820.8984,-78.5 1935.1016,-78.5 1935.1016,-60.5 1820.8984,-60.5"/>
<text text-anchor="middle" x="1878" y="-66.5" font-family="Helvetica,sans-Serif" font-size="10.00" fill="#000000">cereal/types/array.hpp</text>
</a>
</g>
</g>
<!-- Node8&#45;&gt;Node13 -->
<g id="edge14" class="edge">
<title>Node8&#45;&gt;Node13</title>
<path fill="none" stroke="#191970" d="M1399.2519,-122.1809C1403.868,-121.3761 1408.5371,-120.6238 1413,-120 1589.3395,-95.3527 1636.0296,-111.1574 1812,-84 1818.1631,-83.0488 1824.6124,-81.8675 1830.9633,-80.5926"/>
<polygon fill="#191970" stroke="#191970" points="1831.7363,-84.0067 1840.8069,-78.5318 1830.3019,-77.1553 1831.7363,-84.0067"/>
</g>
<!-- Node14 -->
<g id="node15" class="node">
<title>Node14</title>
<g id="a_node15"><a xlink:title=" ">
<polygon fill="#ffffff" stroke="#bfbfbf" points="1952.9707,-60.5 1952.9707,-78.5 2069.0293,-78.5 2069.0293,-60.5 1952.9707,-60.5"/>
<text text-anchor="middle" x="2011" y="-66.5" font-family="Helvetica,sans-Serif" font-size="10.00" fill="#000000">cereal/types/bitset.hpp</text>
</a>
</g>
</g>
<!-- Node8&#45;&gt;Node14 -->
<g id="edge15" class="edge">
<title>Node8&#45;&gt;Node14</title>
<path fill="none" stroke="#191970" d="M1399.2391,-122.0851C1403.8573,-121.2964 1408.5304,-120.574 1413,-120 1647.6149,-89.8692 1709.7862,-117.1043 1944,-84 1950.4187,-83.0928 1957.1391,-81.9152 1963.7422,-80.6234"/>
<polygon fill="#191970" stroke="#191970" points="1964.8719,-83.9644 1973.9619,-78.5217 1963.4618,-77.1078 1964.8719,-83.9644"/>
</g>
<!-- Node15 -->
<g id="node16" class="node">
<title>Node15</title>
<g id="a_node16"><a xlink:title=" ">
<polygon fill="#ffffff" stroke="#bfbfbf" points="2087.1382,-55.5 2087.1382,-83.5 2194.8618,-83.5 2194.8618,-55.5 2087.1382,-55.5"/>
<text text-anchor="start" x="2095.1382" y="-71.5" font-family="Helvetica,sans-Serif" font-size="10.00" fill="#000000">cereal/types/boost</text>
<text text-anchor="middle" x="2141" y="-61.5" font-family="Helvetica,sans-Serif" font-size="10.00" fill="#000000">_dynamic_bitset.hpp</text>
</a>
</g>
</g>
<!-- Node8&#45;&gt;Node15 -->
<g id="edge16" class="edge">
<title>Node8&#45;&gt;Node15</title>
<path fill="none" stroke="#191970" d="M1399.2318,-122.0266C1403.8512,-121.2476 1408.5266,-120.5436 1413,-120 1703.5271,-84.6966 1783.1327,-124.435 2076.7272,-84.0035"/>
<polygon fill="#191970" stroke="#191970" points="2077.3949,-87.4443 2086.8146,-82.5946 2076.4266,-80.5116 2077.3949,-87.4443"/>
</g>
<!-- Node16 -->
<g id="node17" class="node">
<title>Node16</title>
<g id="a_node17"><a xlink:title=" ">
<polygon fill="#ffffff" stroke="#bfbfbf" points="2213.0913,-55.5 2213.0913,-83.5 2306.9087,-83.5 2306.9087,-55.5 2213.0913,-55.5"/>
<text text-anchor="start" x="2221.0913" y="-71.5" font-family="Helvetica,sans-Serif" font-size="10.00" fill="#000000">cereal/types/eastl</text>
<text text-anchor="middle" x="2260" y="-61.5" font-family="Helvetica,sans-Serif" font-size="10.00" fill="#000000">_bitset.hpp</text>
</a>
</g>
</g>
<!-- Node8&#45;&gt;Node16 -->
<g id="edge17" class="edge">
<title>Node8&#45;&gt;Node16</title>
<path fill="none" stroke="#191970" d="M1399.2274,-121.9896C1403.8475,-121.2168 1408.5243,-120.5243 1413,-120 1759.201,-79.4416 1854.1987,-135.3062 2202.6662,-83.9716"/>
<polygon fill="#191970" stroke="#191970" points="2203.4126,-87.399 2212.7864,-82.4612 2202.3793,-80.4757 2203.4126,-87.399"/>
</g>
<!-- Node17 -->
<g id="node18" class="node">
<title>Node17</title>
<g id="a_node18"><a xlink:title=" ">
<polygon fill="#ffffff" stroke="#bfbfbf" points="634.6875,-60.5 634.6875,-78.5 751.3125,-78.5 751.3125,-60.5 634.6875,-60.5"/>
<text text-anchor="middle" x="693" y="-66.5" font-family="Helvetica,sans-Serif" font-size="10.00" fill="#000000">cereal/types/eigen.hpp</text>
</a>
</g>
</g>
<!-- Node8&#45;&gt;Node17 -->
<g id="edge18" class="edge">
<title>Node8&#45;&gt;Node17</title>
<path fill="none" stroke="#191970" d="M1326.7875,-128.5067C1232.7968,-125.5528 973.5045,-115.0074 760,-84 753.6621,-83.0795 747.0283,-81.9054 740.503,-80.6248"/>
<polygon fill="#191970" stroke="#191970" points="740.8964,-77.1325 730.3963,-78.5461 739.4862,-83.989 740.8964,-77.1325"/>
</g>
<!-- Node18 -->
<g id="node19" class="node">
<title>Node18</title>
<g id="a_node19"><a xlink:title=" ">
<polygon fill="#ffffff" stroke="#bfbfbf" points="769.1948,-60.5 769.1948,-78.5 880.8052,-78.5 880.8052,-60.5 769.1948,-60.5"/>
<text text-anchor="middle" x="825" y="-66.5" font-family="Helvetica,sans-Serif" font-size="10.00" fill="#000000">cereal/types/map.hpp</text>
</a>
</g>
</g>
<!-- Node8&#45;&gt;Node18 -->
<g id="edge19" class="edge">
<title>Node8&#45;&gt;Node18</title>
<path fill="none" stroke="#191970" d="M1326.9087,-127.5544C1247.524,-122.9414 1051.9286,-109.7485 890,-84 884.0748,-83.0578 877.881,-81.9018 871.771,-80.6575"/>
<polygon fill="#191970" stroke="#191970" points="872.1388,-77.1575 861.6296,-78.5019 870.6834,-84.0046 872.1388,-77.1575"/>
</g>
<!-- Node19 -->
<g id="node20" class="node">
<title>Node19</title>
<g id="a_node20"><a xlink:title=" ">
<polygon fill="#ffffff" stroke="#bfbfbf" points="899.2334,-60.5 899.2334,-78.5 1026.7666,-78.5 1026.7666,-60.5 899.2334,-60.5"/>
<text text-anchor="middle" x="963" y="-66.5" font-family="Helvetica,sans-Serif" font-size="10.00" fill="#000000">cereal/types/memory.hpp</text>
</a>
</g>
</g>
<!-- Node8&#45;&gt;Node19 -->
<g id="edge20" class="edge">
<title>Node8&#45;&gt;Node19</title>
<path fill="none" stroke="#191970" d="M1326.6031,-125.1335C1266.1112,-117.7201 1141.1249,-101.739 1036,-84 1029.6454,-82.9277 1022.996,-81.7229 1016.4079,-80.4778"/>
<polygon fill="#191970" stroke="#191970" points="1016.6386,-76.9579 1006.1569,-78.5015 1015.3134,-83.8313 1016.6386,-76.9579"/>
</g>
<!-- Node20 -->
<g id="node21" class="node">
<title>Node20</title>
<g id="a_node21"><a xlink:title=" ">
<polygon fill="#ffffff" stroke="#bfbfbf" points="1044.8984,-60.5 1044.8984,-78.5 1159.1016,-78.5 1159.1016,-60.5 1044.8984,-60.5"/>
<text text-anchor="middle" x="1102" y="-66.5" font-family="Helvetica,sans-Serif" font-size="10.00" fill="#000000">cereal/types/utility.hpp</text>
</a>
</g>
</g>
<!-- Node8&#45;&gt;Node20 -->
<g id="edge21" class="edge">
<title>Node8&#45;&gt;Node20</title>
<path fill="none" stroke="#191970" d="M1326.7091,-121.1573C1281.0113,-110.652 1202.3122,-92.5603 1151.2239,-80.8158"/>
<polygon fill="#191970" stroke="#191970" points="1151.9223,-77.3852 1141.3923,-78.5557 1150.3539,-84.2072 1151.9223,-77.3852"/>
</g>
<!-- Node21 -->
<g id="node22" class="node">
<title>Node21</title>
<g id="a_node22"><a xlink:title=" ">
<polygon fill="#ffffff" stroke="#bfbfbf" points="1177.5791,-60.5 1177.5791,-78.5 1296.4209,-78.5 1296.4209,-60.5 1177.5791,-60.5"/>
<text text-anchor="middle" x="1237" y="-66.5" font-family="Helvetica,sans-Serif" font-size="10.00" fill="#000000">cereal/types/vector.hpp</text>
</a>
</g>
</g>
<!-- Node8&#45;&gt;Node21 -->
<g id="edge22" class="edge">
<title>Node8&#45;&gt;Node21</title>
<path fill="none" stroke="#191970" d="M1343.8633,-120.3873C1322.9278,-110.418 1289.1628,-94.3394 1265.194,-82.9257"/>
<polygon fill="#191970" stroke="#191970" points="1266.4373,-79.6413 1255.9039,-78.5019 1263.4278,-85.9613 1266.4373,-79.6413"/>
</g>
<!-- Node22&#45;&gt;Node6 -->
<g id="edge25" class="edge">
<title>Node22&#45;&gt;Node6</title>
<path fill="none" stroke="#191970" d="M1373.1313,-180.0982C1385.7797,-164.2688 1413.8575,-132.7755 1446,-120 1625.816,-48.5298 2126.152,-121.4103 2316,-84 2319.0189,-83.4051 2322.1145,-82.6199 2325.1818,-81.722"/>
<polygon fill="#191970" stroke="#191970" points="2326.3539,-85.021 2334.7549,-78.5655 2324.1618,-78.3731 2326.3539,-85.021"/>
</g>
<!-- Node22&#45;&gt;Node7 -->
<g id="edge26" class="edge">
<title>Node22&#45;&gt;Node7</title>
<path fill="none" stroke="#191970" d="M1382.4029,-180.3873C1400.1084,-170.5509 1428.5192,-154.7671 1449.0075,-143.3847"/>
<polygon fill="#191970" stroke="#191970" points="1450.7548,-146.4179 1457.7966,-138.5019 1447.3553,-140.2988 1450.7548,-146.4179"/>
</g>
<!-- Node22&#45;&gt;Node8 -->
<g id="edge27" class="edge">
<title>Node22&#45;&gt;Node8</title>
<path fill="none" stroke="#191970" d="M1365.5444,-180.3873C1365.1259,-172.0174 1364.4921,-159.3414 1363.9617,-148.735"/>
<polygon fill="#191970" stroke="#191970" points="1367.455,-148.5112 1363.4599,-138.6985 1360.4638,-148.8608 1367.455,-148.5112"/>
</g>
<!-- Node27&#45;&gt;Node2 -->
<g id="edge33" class="edge">
<title>Node27&#45;&gt;Node2</title>
<path fill="none" stroke="#191970" d="M569.6317,-245.316C554.9747,-229.5802 523.2364,-197.0335 492,-175 433.5625,-133.7793 356.6581,-99.8665 313.3642,-82.3623"/>
<polygon fill="#191970" stroke="#191970" points="314.4684,-79.0345 303.8836,-78.5748 311.8715,-85.5349 314.4684,-79.0345"/>
</g>
<!-- Node27&#45;&gt;Node4 -->
<g id="edge48" class="edge">
<title>Node27&#45;&gt;Node4</title>
<path fill="none" stroke="#191970" d="M579.8345,-245.216C586.5316,-210.2874 608.2374,-87.1314 588,-55 575.0433,-34.4283 549.9233,-22.9522 528.7675,-16.6726"/>
<polygon fill="#191970" stroke="#191970" points="529.6445,-13.2842 519.0784,-14.0647 527.825,-20.0436 529.6445,-13.2842"/>
</g>
<!-- Node27&#45;&gt;Node25 -->
<g id="edge47" class="edge">
<title>Node27&#45;&gt;Node25</title>
<path fill="none" stroke="#191970" d="M584.3961,-245.462C591.3886,-235.5813 602.7652,-219.5056 611.5352,-207.1134"/>
<polygon fill="#191970" stroke="#191970" points="614.4406,-209.0667 617.3603,-198.8821 608.7266,-205.023 614.4406,-209.0667"/>
</g>
<!-- Node27&#45;&gt;Node26 -->
<g id="edge49" class="edge">
<title>Node27&#45;&gt;Node26</title>
<path fill="none" stroke="#191970" d="M592.3217,-245.462C609.2907,-234.7534 637.7906,-216.7681 657.8937,-204.0816"/>
<polygon fill="#191970" stroke="#191970" points="659.8789,-206.9675 666.4679,-198.6708 656.1431,-201.0477 659.8789,-206.9675"/>
</g>
<!-- Node28 -->
<g id="node29" class="node">
<title>Node28</title>
<g id="a_node29"><a xlink:href="periodictable_8hpp.html" target="_top" xlink:title=" ">
<polygon fill="#ffffff" stroke="#000000" points="233.9165,-180.5 233.9165,-198.5 326.0835,-198.5 326.0835,-180.5 233.9165,-180.5"/>
<text text-anchor="middle" x="280" y="-186.5" font-family="Helvetica,sans-Serif" font-size="10.00" fill="#000000">periodictable.hpp</text>
</a>
</g>
</g>
<!-- Node27&#45;&gt;Node28 -->
<g id="edge34" class="edge">
<title>Node27&#45;&gt;Node28</title>
<path fill="none" stroke="#191970" d="M536.5644,-245.462C483.0063,-233.7799 389.7456,-213.4378 331.634,-200.7624"/>
<polygon fill="#191970" stroke="#191970" points="332.0792,-197.2773 321.563,-198.5658 330.5874,-204.1165 332.0792,-197.2773"/>
</g>
<!-- Node35 -->
<g id="node36" class="node">
<title>Node35</title>
<g id="a_node36"><a xlink:title=" ">
<polygon fill="#ffffff" stroke="#bfbfbf" points="400.6504,-180.5 400.6504,-198.5 483.3496,-198.5 483.3496,-180.5 400.6504,-180.5"/>
<text text-anchor="middle" x="442" y="-186.5" font-family="Helvetica,sans-Serif" font-size="10.00" fill="#000000">EASTL/bitset.h</text>
</a>
</g>
</g>
<!-- Node27&#45;&gt;Node35 -->
<g id="edge46" class="edge">
<title>Node27&#45;&gt;Node35</title>
<path fill="none" stroke="#191970" d="M559.0898,-245.462C536.0785,-234.464 497.0079,-215.7906 470.3818,-203.0648"/>
<polygon fill="#191970" stroke="#191970" points="471.7198,-199.8252 461.188,-198.6708 468.7012,-206.1409 471.7198,-199.8252"/>
</g>
<!-- Node28&#45;&gt;Node2 -->
<g id="edge41" class="edge">
<title>Node28&#45;&gt;Node2</title>
<path fill="none" stroke="#191970" d="M289.1759,-180.4436C298.0002,-171.0325 310.7503,-155.4079 316,-139 322.1039,-119.9222 309.2426,-99.7718 297.2329,-86.1092"/>
<polygon fill="#191970" stroke="#191970" points="299.4572,-83.3675 290.0423,-78.5083 294.3721,-88.1781 299.4572,-83.3675"/>
</g>
<!-- Node28&#45;&gt;Node3 -->
<g id="edge44" class="edge">
<title>Node28&#45;&gt;Node3</title>
<path fill="none" stroke="#191970" d="M233.7402,-185.1316C175.5948,-178.6462 80.5291,-164.415 57,-139 29.1858,-108.9565 31.1118,-57.055 34.6929,-28.9454"/>
<polygon fill="#191970" stroke="#191970" points="38.1924,-29.2057 36.1938,-18.8011 31.2678,-28.1811 38.1924,-29.2057"/>
</g>
<!-- Node29 -->
<g id="node30" class="node">
<title>Node29</title>
<g id="a_node30"><a xlink:href="common_8hpp.html" target="_top" xlink:title=" ">
<polygon fill="#ffffff" stroke="#000000" points="476.6479,-120.5 476.6479,-138.5 579.3521,-138.5 579.3521,-120.5 476.6479,-120.5"/>
<text text-anchor="middle" x="528" y="-126.5" font-family="Helvetica,sans-Serif" font-size="10.00" fill="#000000">../utils/common.hpp</text>
</a>
</g>
</g>
<!-- Node28&#45;&gt;Node29 -->
<g id="edge35" class="edge">
<title>Node28&#45;&gt;Node29</title>
<path fill="none" stroke="#191970" d="M317.3966,-180.4524C361.1064,-169.8775 433.4916,-152.3649 480.9709,-140.878"/>
<polygon fill="#191970" stroke="#191970" points="481.8087,-144.2764 490.7052,-138.5229 480.1626,-137.4727 481.8087,-144.2764"/>
</g>
<!-- Node32 -->
<g id="node33" class="node">
<title>Node32</title>
<g id="a_node33"><a xlink:title=" ">
<polygon fill="#ffffff" stroke="#bfbfbf" points="66.478,-120.5 66.478,-138.5 177.522,-138.5 177.522,-120.5 66.478,-120.5"/>
<text text-anchor="middle" x="122" y="-126.5" font-family="Helvetica,sans-Serif" font-size="10.00" fill="#000000">EASTL/vector_map.h</text>
</a>
</g>
</g>
<!-- Node28&#45;&gt;Node32 -->
<g id="edge42" class="edge">
<title>Node28&#45;&gt;Node32</title>
<path fill="none" stroke="#191970" d="M256.0032,-180.3873C229.1673,-170.1964 185.5208,-153.6218 155.3691,-142.1718"/>
<polygon fill="#191970" stroke="#191970" points="156.2961,-138.78 145.7049,-138.5019 153.811,-145.3241 156.2961,-138.78"/>
</g>
<!-- Node33 -->
<g id="node34" class="node">
<title>Node33</title>
<g id="a_node34"><a xlink:title=" ">
<polygon fill="#ffffff" stroke="#bfbfbf" points="195.6084,-120.5 195.6084,-138.5 234.3916,-138.5 234.3916,-120.5 195.6084,-120.5"/>
<text text-anchor="middle" x="215" y="-126.5" font-family="Helvetica,sans-Serif" font-size="10.00" fill="#000000">array</text>
</a>
</g>
</g>
<!-- Node28&#45;&gt;Node33 -->
<g id="edge43" class="edge">
<title>Node28&#45;&gt;Node33</title>
<path fill="none" stroke="#191970" d="M270.1279,-180.3873C260.2015,-171.2245 244.6843,-156.9009 232.6385,-145.7817"/>
<polygon fill="#191970" stroke="#191970" points="234.6871,-142.9095 224.965,-138.6985 229.9391,-148.0531 234.6871,-142.9095"/>
</g>
<!-- Node34 -->
<g id="node35" class="node">
<title>Node34</title>
<g id="a_node35"><a xlink:title=" ">
<polygon fill="#ffffff" stroke="#bfbfbf" points="252.8276,-120.5 252.8276,-138.5 307.1724,-138.5 307.1724,-120.5 252.8276,-120.5"/>
<text text-anchor="middle" x="280" y="-126.5" font-family="Helvetica,sans-Serif" font-size="10.00" fill="#000000">iostream</text>
</a>
</g>
</g>
<!-- Node28&#45;&gt;Node34 -->
<g id="edge45" class="edge">
<title>Node28&#45;&gt;Node34</title>
<path fill="none" stroke="#191970" d="M280,-180.3873C280,-172.0174 280,-159.3414 280,-148.735"/>
<polygon fill="#191970" stroke="#191970" points="283.5001,-148.6984 280,-138.6985 276.5001,-148.6985 283.5001,-148.6984"/>
</g>
<!-- Node29&#45;&gt;Node4 -->
<g id="edge38" class="edge">
<title>Node29&#45;&gt;Node4</title>
<path fill="none" stroke="#191970" d="M524.4461,-120.1686C521.0293,-111.0268 515.8329,-96.6627 512,-84 506.3915,-65.4714 501.0396,-44.0257 497.4537,-28.9149"/>
<polygon fill="#191970" stroke="#191970" points="500.762,-27.6904 495.0807,-18.7477 493.9452,-29.2815 500.762,-27.6904"/>
</g>
<!-- Node29&#45;&gt;Node6 -->
<g id="edge40" class="edge">
<title>Node29&#45;&gt;Node6</title>
<path fill="none" stroke="#191970" d="M579.6235,-128.6542C863.8684,-123.938 2228.5622,-100.5083 2316,-84 2319.0236,-83.4291 2322.1223,-82.6601 2325.1916,-81.7726"/>
<polygon fill="#191970" stroke="#191970" points="2326.3568,-85.0739 2334.7676,-78.6312 2324.1748,-78.4227 2326.3568,-85.0739"/>
</g>
<!-- Node29&#45;&gt;Node24 -->
<g id="edge36" class="edge">
<title>Node29&#45;&gt;Node24</title>
<path fill="none" stroke="#191970" d="M531.3413,-120.3873C534.4426,-111.9293 539.1562,-99.074 543.0697,-88.4007"/>
<polygon fill="#191970" stroke="#191970" points="546.4707,-89.2922 546.6272,-78.6985 539.8985,-86.8823 546.4707,-89.2922"/>
</g>
<!-- Node30 -->
<g id="node31" class="node">
<title>Node30</title>
<g id="a_node31"><a xlink:title=" ">
<polygon fill="#ffffff" stroke="#bfbfbf" points="359.4385,-60.5 359.4385,-78.5 406.5615,-78.5 406.5615,-60.5 359.4385,-60.5"/>
<text text-anchor="middle" x="383" y="-66.5" font-family="Helvetica,sans-Serif" font-size="10.00" fill="#000000">iterator</text>
</a>
</g>
</g>
<!-- Node29&#45;&gt;Node30 -->
<g id="edge37" class="edge">
<title>Node29&#45;&gt;Node30</title>
<path fill="none" stroke="#191970" d="M505.1847,-120.4494C482.4978,-111.3984 446.737,-96.9933 416,-84 414.9913,-83.5736 413.9663,-83.1377 412.9319,-82.6957"/>
<polygon fill="#191970" stroke="#191970" points="414.1251,-79.3984 403.5575,-78.6394 411.3452,-85.8228 414.1251,-79.3984"/>
</g>
<!-- Node31 -->
<g id="node32" class="node">
<title>Node31</title>
<g id="a_node32"><a xlink:title=" ">
<polygon fill="#ffffff" stroke="#bfbfbf" points="424.7734,-60.5 424.7734,-78.5 465.2266,-78.5 465.2266,-60.5 424.7734,-60.5"/>
<text text-anchor="middle" x="445" y="-66.5" font-family="Helvetica,sans-Serif" font-size="10.00" fill="#000000">string</text>
</a>
</g>
</g>
<!-- Node29&#45;&gt;Node31 -->
<g id="edge39" class="edge">
<title>Node29&#45;&gt;Node31</title>
<path fill="none" stroke="#191970" d="M515.3941,-120.3873C502.2774,-110.9054 481.5158,-95.897 465.9325,-84.6319"/>
<polygon fill="#191970" stroke="#191970" points="467.6073,-81.5239 457.4526,-78.5019 463.5063,-87.1969 467.6073,-81.5239"/>
</g>
<!-- Node36&#45;&gt;Node6 -->
<g id="edge51" class="edge">
<title>Node36&#45;&gt;Node6</title>
<path fill="none" stroke="#191970" d="M1685.3599,-242.159C1840.4613,-203.3762 2308.2345,-86.3743 2316,-84 2318.1236,-83.3507 2320.3,-82.654 2322.4876,-81.9299"/>
<polygon fill="#191970" stroke="#191970" points="2323.7081,-85.2113 2332.0207,-78.6424 2321.4259,-78.5938 2323.7081,-85.2113"/>
</g>
</g>
</svg>
