<?xml version="1.0" encoding="UTF-8" standalone="no"?>
<!DOCTYPE svg PUBLIC "-//W3C//DTD SVG 1.1//EN"
 "http://www.w3.org/Graphics/SVG/1.1/DTD/svg11.dtd">
<!-- Generated by graphviz version 2.40.1 (20161225.0304)
 -->
<!-- Title: src/algorithm/cherrypicker.cpp Pages: 1 -->
<!--zoomable 442 -->
<svg id="main" version="1.1" xmlns="http://www.w3.org/2000/svg" xmlns:xlink="http://www.w3.org/1999/xlink" xml:space="preserve" onload="init(evt)">
<style type="text/css"><![CDATA[
.edge:hover path { stroke: red; }
.edge:hover polygon { stroke: red; fill: red; }
]]></style>
<script type="text/javascript"><![CDATA[
var edges = document.getElementsByTagName('g');
if (edges && edges.length) {
  for (var i=0;i<edges.length;i++) {
    if (edges[i].id.substr(0,4)=='edge') {
      edges[i].setAttribute('class','edge');
    }
  }
}
]]></script>
        <defs>
                <circle id="rim" cx="0" cy="0" r="7"/>
                <circle id="rim2" cx="0" cy="0" r="3.5"/>
                <g id="zoomPlus">
                        <use xlink:href="#rim" fill="#404040">
                                <set attributeName="fill" to="#808080" begin="zoomplus.mouseover" end="zoomplus.mouseout"/>
                        </use>
                        <path d="M-4,0h8M0,-4v8" fill="none" stroke="white" stroke-width="1.5" pointer-events="none"/>
                </g>
                <g id="zoomMin">
                        <use xlink:href="#rim" fill="#404040">
                                <set attributeName="fill" to="#808080" begin="zoomminus.mouseover" end="zoomminus.mouseout"/>
                        </use>
                        <path d="M-4,0h8" fill="none" stroke="white" stroke-width="1.5" pointer-events="none"/>
                </g>
                <g id="dirArrow">
                        <path fill="none" stroke="white" stroke-width="1.5" d="M0,-3.0v7 M-2.5,-0.5L0,-3.0L2.5,-0.5"/>
                </g>
               <g id="resetDef">
                       <use xlink:href="#rim2" fill="#404040">
                               <set attributeName="fill" to="#808080" begin="reset.mouseover" end="reset.mouseout"/>
                       </use>
               </g>
        </defs>

<script type="text/javascript">
var viewWidth = 3454;
var viewHeight = 442;
var sectionId = 'dynsection-0';
</script>
<script xlink:href="svgpan.js"/>
<svg id="graph" class="graph">
<g id="viewport">
<title>src/algorithm/cherrypicker.cpp</title>
<polygon fill="#ffffff" stroke="transparent" points="-4,4 -4,-438 3450.2017,-438 3450.2017,4 -4,4"/>
<!-- Node0 -->
<g id="node1" class="node">
<title>Node0</title>
<polygon fill="#bfbfbf" stroke="#000000" points="1585.0864,-415.5 1585.0864,-433.5 1733.9136,-433.5 1733.9136,-415.5 1585.0864,-415.5"/>
<text text-anchor="middle" x="1659.5" y="-421.5" font-family="Helvetica,sans-Serif" font-size="10.00" fill="#000000">src/algorithm/cherrypicker.cpp</text>
</g>
<!-- Node1 -->
<g id="node2" class="node">
<title>Node1</title>
<g id="a_node2"><a xlink:href="cherrypicker_8hpp.html" target="_top" xlink:title="indigox/algorithm/cherrypicker.hpp">
<polygon fill="#ffffff" stroke="#000000" points="91.626,-305.5 91.626,-323.5 259.374,-323.5 259.374,-305.5 91.626,-305.5"/>
<text text-anchor="middle" x="175.5" y="-311.5" font-family="Helvetica,sans-Serif" font-size="10.00" fill="#000000">indigox/algorithm/cherrypicker.hpp</text>
</a>
</g>
</g>
<!-- Node0&#45;&gt;Node1 -->
<g id="edge1" class="edge">
<title>Node0&#45;&gt;Node1</title>
<path fill="none" stroke="#191970" d="M1584.948,-423.1733C1305.9697,-418.0636 336.316,-398.9455 273.5,-379 242.0189,-369.004 211.0976,-345.7905 192.6591,-330.1159"/>
<polygon fill="#191970" stroke="#191970" points="194.9421,-327.4629 185.1086,-323.5191 190.3365,-332.7343 194.9421,-327.4629"/>
</g>
<!-- Node2 -->
<g id="node3" class="node">
<title>Node2</title>
<g id="a_node3"><a xlink:href="athenaeum_8hpp.html" target="_top" xlink:title="../classes/athenaeum.hpp">
<polygon fill="#ffffff" stroke="#000000" points="655.52,-245.5 655.52,-263.5 785.48,-263.5 785.48,-245.5 655.52,-245.5"/>
<text text-anchor="middle" x="720.5" y="-251.5" font-family="Helvetica,sans-Serif" font-size="10.00" fill="#000000">../classes/athenaeum.hpp</text>
</a>
</g>
</g>
<!-- Node0&#45;&gt;Node2 -->
<g id="edge50" class="edge">
<title>Node0&#45;&gt;Node2</title>
<path fill="none" stroke="#191970" d="M1596.8768,-415.4898C1537.2815,-406.7541 1445.1394,-392.8288 1365.5,-379 1145.3946,-340.7803 884.4847,-288.1563 774.0856,-265.5489"/>
<polygon fill="#191970" stroke="#191970" points="774.6911,-262.1004 764.192,-263.5208 773.2853,-268.9578 774.6911,-262.1004"/>
</g>
<!-- Node25 -->
<g id="node13" class="node">
<title>Node25</title>
<polygon fill="#ffffff" stroke="#bfbfbf" points="613.936,-55.5 613.936,-73.5 671.064,-73.5 671.064,-55.5 613.936,-55.5"/>
<text text-anchor="middle" x="642.5" y="-61.5" font-family="Helvetica,sans-Serif" font-size="10.00" fill="#000000">algorithm</text>
</g>
<!-- Node0&#45;&gt;Node25 -->
<g id="edge130" class="edge">
<title>Node0&#45;&gt;Node25</title>
<path fill="none" stroke="#191970" d="M1584.761,-422.4562C1298.4553,-414.1424 287.5,-380.139 287.5,-314.5 287.5,-314.5 287.5,-314.5 287.5,-254.5 287.5,-112.3077 511.6278,-76.1239 603.7117,-67.2582"/>
<polygon fill="#191970" stroke="#191970" points="604.1055,-70.737 613.7496,-66.3504 603.4749,-63.7655 604.1055,-70.737"/>
</g>
<!-- Node26 -->
<g id="node14" class="node">
<title>Node26</title>
<polygon fill="#ffffff" stroke="#bfbfbf" points="1965.7734,-180.5 1965.7734,-198.5 2001.2266,-198.5 2001.2266,-180.5 1965.7734,-180.5"/>
<text text-anchor="middle" x="1983.5" y="-186.5" font-family="Helvetica,sans-Serif" font-size="10.00" fill="#000000">map</text>
</g>
<!-- Node0&#45;&gt;Node26 -->
<g id="edge131" class="edge">
<title>Node0&#45;&gt;Node26</title>
<path fill="none" stroke="#191970" d="M1672.2012,-415.2877C1721.6017,-379.4571 1901.235,-249.1675 1962.7043,-204.5833"/>
<polygon fill="#191970" stroke="#191970" points="1964.8467,-207.3532 1970.8866,-198.6486 1960.7367,-201.6867 1964.8467,-207.3532"/>
</g>
<!-- Node27 -->
<g id="node15" class="node">
<title>Node27</title>
<polygon fill="#ffffff" stroke="#bfbfbf" points="2637.8843,-55.5 2637.8843,-73.5 2681.1157,-73.5 2681.1157,-55.5 2637.8843,-55.5"/>
<text text-anchor="middle" x="2659.5" y="-61.5" font-family="Helvetica,sans-Serif" font-size="10.00" fill="#000000">vector</text>
</g>
<!-- Node0&#45;&gt;Node27 -->
<g id="edge132" class="edge">
<title>Node0&#45;&gt;Node27</title>
<path fill="none" stroke="#191970" d="M1734.1827,-423.6373C1972.9345,-420.6022 2715.9395,-408.9366 2954.5,-379 3088.0949,-362.2354 3250.5,-449.1426 3250.5,-314.5 3250.5,-314.5 3250.5,-314.5 3250.5,-254.5 3250.5,-120.2945 3090.3856,-201.2682 2971.5,-139 2950.4227,-127.9604 2948.6778,-118.6179 2926.5,-110 2845.6848,-78.5966 2742.7743,-68.8262 2691.5209,-65.8173"/>
<polygon fill="#191970" stroke="#191970" points="2691.5683,-62.3149 2681.3947,-65.2725 2691.1922,-69.3048 2691.5683,-62.3149"/>
</g>
<!-- Node39 -->
<g id="node26" class="node">
<title>Node39</title>
<g id="a_node26"><a xlink:href="isomorphism_8hpp.html" target="_top" xlink:title="indigox/algorithm/graph\l/isomorphism.hpp">
<polygon fill="#ffffff" stroke="#000000" points="2547.5249,-175.5 2547.5249,-203.5 2667.4751,-203.5 2667.4751,-175.5 2547.5249,-175.5"/>
<text text-anchor="start" x="2555.5249" y="-191.5" font-family="Helvetica,sans-Serif" font-size="10.00" fill="#000000">indigox/algorithm/graph</text>
<text text-anchor="middle" x="2607.5" y="-181.5" font-family="Helvetica,sans-Serif" font-size="10.00" fill="#000000">/isomorphism.hpp</text>
</a>
</g>
</g>
<!-- Node0&#45;&gt;Node39 -->
<g id="edge43" class="edge">
<title>Node0&#45;&gt;Node39</title>
<path fill="none" stroke="#191970" d="M1691.5401,-415.4154C1723.1266,-406.3981 1772.7373,-392.0709 1815.5,-379 1892.2522,-355.5398 1911.4159,-349.5439 1987.5,-324 2011.6192,-315.9024 2016.6371,-310.3987 2041.5,-305 2216.7967,-266.9364 2278.64,-339.7033 2443.5,-269 2461.4446,-261.3041 2459.7979,-250.1131 2476.5,-240 2499.1317,-226.2964 2526.1227,-215.1347 2549.7074,-206.823"/>
<polygon fill="#191970" stroke="#191970" points="2550.9194,-210.1075 2559.2415,-203.5506 2548.6469,-203.4866 2550.9194,-210.1075"/>
</g>
<!-- Node40 -->
<g id="node27" class="node">
<title>Node40</title>
<g id="a_node27"><a xlink:href="angle_8hpp.html" target="_top" xlink:title="indigox/classes/angle.hpp">
<polygon fill="#ffffff" stroke="#000000" points="1627.2393,-180.5 1627.2393,-198.5 1757.7607,-198.5 1757.7607,-180.5 1627.2393,-180.5"/>
<text text-anchor="middle" x="1692.5" y="-186.5" font-family="Helvetica,sans-Serif" font-size="10.00" fill="#000000">indigox/classes/angle.hpp</text>
</a>
</g>
</g>
<!-- Node0&#45;&gt;Node40 -->
<g id="edge46" class="edge">
<title>Node0&#45;&gt;Node40</title>
<path fill="none" stroke="#191970" d="M1660.7936,-415.2877C1665.6808,-380.485 1683.0823,-256.5654 1689.814,-208.6278"/>
<polygon fill="#191970" stroke="#191970" points="1693.2906,-209.0382 1691.2153,-198.6486 1686.3586,-208.0647 1693.2906,-209.0382"/>
</g>
<!-- Node41 -->
<g id="node28" class="node">
<title>Node41</title>
<g id="a_node28"><a xlink:href="atom_8hpp.html" target="_top" xlink:title="indigox/classes/atom.hpp">
<polygon fill="#ffffff" stroke="#000000" points="2980.3574,-115.5 2980.3574,-133.5 3108.6426,-133.5 3108.6426,-115.5 2980.3574,-115.5"/>
<text text-anchor="middle" x="3044.5" y="-121.5" font-family="Helvetica,sans-Serif" font-size="10.00" fill="#000000">indigox/classes/atom.hpp</text>
</a>
</g>
</g>
<!-- Node0&#45;&gt;Node41 -->
<g id="edge51" class="edge">
<title>Node0&#45;&gt;Node41</title>
<path fill="none" stroke="#191970" d="M1733.928,-423.5152C2045.8291,-419.248 3233.0097,-401.5507 3264.5,-379 3289.368,-361.1917 3288.5,-345.0869 3288.5,-314.5 3288.5,-314.5 3288.5,-314.5 3288.5,-254.5 3288.5,-217.5917 3291.4645,-200.2019 3264.5,-175 3243.4772,-155.3514 3174.1734,-141.627 3118.9018,-133.4961"/>
<polygon fill="#191970" stroke="#191970" points="3119.1549,-129.9966 3108.7595,-132.0428 3118.1619,-136.9259 3119.1549,-129.9966"/>
</g>
<!-- Node43 -->
<g id="node30" class="node">
<title>Node43</title>
<g id="a_node30"><a xlink:href="bond_8hpp.html" target="_top" xlink:title="indigox/classes/bond.hpp">
<polygon fill="#ffffff" stroke="#000000" points="1481.3501,-180.5 1481.3501,-198.5 1609.6499,-198.5 1609.6499,-180.5 1481.3501,-180.5"/>
<text text-anchor="middle" x="1545.5" y="-186.5" font-family="Helvetica,sans-Serif" font-size="10.00" fill="#000000">indigox/classes/bond.hpp</text>
</a>
</g>
</g>
<!-- Node0&#45;&gt;Node43 -->
<g id="edge56" class="edge">
<title>Node0&#45;&gt;Node43</title>
<path fill="none" stroke="#191970" d="M1655.0311,-415.2877C1638.0412,-380.2647 1577.2712,-254.9933 1554.3419,-207.7268"/>
<polygon fill="#191970" stroke="#191970" points="1557.4517,-206.1182 1549.938,-198.6486 1551.1537,-209.1735 1557.4517,-206.1182"/>
</g>
<!-- Node44 -->
<g id="node31" class="node">
<title>Node44</title>
<g id="a_node31"><a xlink:href="dihedral_8hpp.html" target="_top" xlink:title="indigox/classes/dihedral.hpp">
<polygon fill="#ffffff" stroke="#000000" points="472.6826,-245.5 472.6826,-263.5 614.3174,-263.5 614.3174,-245.5 472.6826,-245.5"/>
<text text-anchor="middle" x="543.5" y="-251.5" font-family="Helvetica,sans-Serif" font-size="10.00" fill="#000000">indigox/classes/dihedral.hpp</text>
</a>
</g>
</g>
<!-- Node0&#45;&gt;Node44 -->
<g id="edge60" class="edge">
<title>Node0&#45;&gt;Node44</title>
<path fill="none" stroke="#191970" d="M1585.0607,-417.3229C1504.792,-409.2777 1373.3326,-395.2155 1260.5,-379 1013.5201,-343.5059 720.8872,-288.68 600.0306,-265.4742"/>
<polygon fill="#191970" stroke="#191970" points="600.3875,-261.9787 589.9064,-263.527 599.0654,-268.8528 600.3875,-261.9787"/>
</g>
<!-- Node45 -->
<g id="node32" class="node">
<title>Node45</title>
<g id="a_node32"><a xlink:href="molecule_8hpp.html" target="_top" xlink:title="indigox/classes/molecule.hpp">
<polygon fill="#ffffff" stroke="#000000" points="2288.4634,-245.5 2288.4634,-263.5 2434.5366,-263.5 2434.5366,-245.5 2288.4634,-245.5"/>
<text text-anchor="middle" x="2361.5" y="-251.5" font-family="Helvetica,sans-Serif" font-size="10.00" fill="#000000">indigox/classes/molecule.hpp</text>
</a>
</g>
</g>
<!-- Node0&#45;&gt;Node45 -->
<g id="edge67" class="edge">
<title>Node0&#45;&gt;Node45</title>
<path fill="none" stroke="#191970" d="M1681.1257,-415.4925C1735.2765,-393.2934 1881.4721,-335.5471 2008.5,-305 2099.4333,-283.1327 2205.9724,-269.4879 2278.0322,-261.9762"/>
<polygon fill="#191970" stroke="#191970" points="2278.8171,-265.4141 2288.4078,-260.9121 2278.1029,-258.4506 2278.8171,-265.4141"/>
</g>
<!-- Node48 -->
<g id="node35" class="node">
<title>Node48</title>
<g id="a_node35"><a xlink:href="parameterised_8hpp.html" target="_top" xlink:title="indigox/classes/parameterised.hpp">
<polygon fill="#ffffff" stroke="#000000" points="1228.5127,-245.5 1228.5127,-263.5 1398.4873,-263.5 1398.4873,-245.5 1228.5127,-245.5"/>
<text text-anchor="middle" x="1313.5" y="-251.5" font-family="Helvetica,sans-Serif" font-size="10.00" fill="#000000">indigox/classes/parameterised.hpp</text>
</a>
</g>
</g>
<!-- Node0&#45;&gt;Node48 -->
<g id="edge74" class="edge">
<title>Node0&#45;&gt;Node48</title>
<path fill="none" stroke="#191970" d="M1629.4208,-415.4761C1603.0976,-407.1884 1564.0817,-393.9513 1531.5,-379 1457.0543,-344.8379 1374.4263,-293.7374 1335.7502,-268.9788"/>
<polygon fill="#191970" stroke="#191970" points="1337.6257,-266.0237 1327.3227,-263.5544 1333.8371,-271.9099 1337.6257,-266.0237"/>
</g>
<!-- Node52 -->
<g id="node39" class="node">
<title>Node52</title>
<g id="a_node39"><a xlink:href="condensed_8hpp.html" target="_top" xlink:title="indigox/graph/condensed.hpp">
<polygon fill="#ffffff" stroke="#000000" points="2797.8921,-360.5 2797.8921,-378.5 2945.1079,-378.5 2945.1079,-360.5 2797.8921,-360.5"/>
<text text-anchor="middle" x="2871.5" y="-366.5" font-family="Helvetica,sans-Serif" font-size="10.00" fill="#000000">indigox/graph/condensed.hpp</text>
</a>
</g>
</g>
<!-- Node0&#45;&gt;Node52 -->
<g id="edge89" class="edge">
<title>Node0&#45;&gt;Node52</title>
<path fill="none" stroke="#191970" d="M1733.9459,-421.1217C1947.744,-411.4196 2562.6444,-383.5157 2787.6913,-373.3032"/>
<polygon fill="#191970" stroke="#191970" points="2787.9576,-376.7948 2797.7887,-372.845 2787.6402,-369.802 2787.9576,-376.7948"/>
</g>
<!-- Node61 -->
<g id="node46" class="node">
<title>Node61</title>
<g id="a_node46"><a xlink:href="molecular_8hpp.html" target="_top" xlink:title="indigox/graph/molecular.hpp">
<polygon fill="#ffffff" stroke="#000000" points="2050.9561,-360.5 2050.9561,-378.5 2192.0439,-378.5 2192.0439,-360.5 2050.9561,-360.5"/>
<text text-anchor="middle" x="2121.5" y="-366.5" font-family="Helvetica,sans-Serif" font-size="10.00" fill="#000000">indigox/graph/molecular.hpp</text>
</a>
</g>
</g>
<!-- Node0&#45;&gt;Node61 -->
<g id="edge113" class="edge">
<title>Node0&#45;&gt;Node61</title>
<path fill="none" stroke="#191970" d="M1733.9849,-415.6328C1818.0711,-405.6225 1954.3947,-389.3935 2040.9136,-379.0936"/>
<polygon fill="#191970" stroke="#191970" points="2041.4338,-382.5565 2050.9499,-377.8988 2040.6063,-375.6056 2041.4338,-382.5565"/>
</g>
<!-- Node64 -->
<g id="node49" class="node">
<title>Node64</title>
<g id="a_node49"><a xlink:href="combinatronics_8hpp.html" target="_top" xlink:title="indigox/utils/combinatronics.hpp">
<polygon fill="#ffffff" stroke="#000000" points="803.6284,-245.5 803.6284,-263.5 961.3716,-263.5 961.3716,-245.5 803.6284,-245.5"/>
<text text-anchor="middle" x="882.5" y="-251.5" font-family="Helvetica,sans-Serif" font-size="10.00" fill="#000000">indigox/utils/combinatronics.hpp</text>
</a>
</g>
</g>
<!-- Node0&#45;&gt;Node64 -->
<g id="edge124" class="edge">
<title>Node0&#45;&gt;Node64</title>
<path fill="none" stroke="#191970" d="M1618.2737,-415.4801C1486.9873,-386.7559 1078.8211,-297.4531 934.0586,-265.7805"/>
<polygon fill="#191970" stroke="#191970" points="934.6153,-262.3196 924.0983,-263.6013 933.1191,-269.1578 934.6153,-262.3196"/>
</g>
<!-- Node65 -->
<g id="node50" class="node">
<title>Node65</title>
<polygon fill="#ffffff" stroke="#bfbfbf" points="3316.7983,-360.5 3316.7983,-378.5 3446.2017,-378.5 3446.2017,-360.5 3316.7983,-360.5"/>
<text text-anchor="middle" x="3381.5" y="-366.5" font-family="Helvetica,sans-Serif" font-size="10.00" fill="#000000">boost/dynamic_bitset.hpp</text>
</g>
<!-- Node0&#45;&gt;Node65 -->
<g id="edge129" class="edge">
<title>Node0&#45;&gt;Node65</title>
<path fill="none" stroke="#191970" d="M1733.9657,-423.3497C2012.2715,-418.9084 2991.2426,-401.9758 3302.5,-379 3303.7786,-378.9056 3305.0684,-378.8056 3306.3668,-378.7005"/>
<polygon fill="#191970" stroke="#191970" points="3306.7986,-382.1759 3316.449,-377.8032 3306.178,-375.2035 3306.7986,-382.1759"/>
</g>
<!-- Node1&#45;&gt;Node2 -->
<g id="edge2" class="edge">
<title>Node1&#45;&gt;Node2</title>
<path fill="none" stroke="#191970" d="M259.4407,-307.1661C349.5591,-299.0143 496.8672,-284.8864 623.5,-269 633.0298,-267.8045 643.0693,-266.4318 652.9311,-265.0181"/>
<polygon fill="#191970" stroke="#191970" points="653.7236,-268.4398 663.1152,-263.5358 652.7153,-261.5128 653.7236,-268.4398"/>
</g>
<!-- Node3 -->
<g id="node4" class="node">
<title>Node3</title>
<g id="a_node4"><a xlink:href="fwd__declares_8hpp.html" target="_top" xlink:title="../utils/fwd_declares.hpp">
<polygon fill="#ffffff" stroke="#000000" points="1490.8599,-55.5 1490.8599,-73.5 1614.1401,-73.5 1614.1401,-55.5 1490.8599,-55.5"/>
<text text-anchor="middle" x="1552.5" y="-61.5" font-family="Helvetica,sans-Serif" font-size="10.00" fill="#000000">../utils/fwd_declares.hpp</text>
</a>
</g>
</g>
<!-- Node1&#45;&gt;Node3 -->
<g id="edge39" class="edge">
<title>Node1&#45;&gt;Node3</title>
<path fill="none" stroke="#191970" d="M259.5684,-312.0019C450.2232,-306.0047 904.0631,-289.7389 970.5,-269 1076.3674,-235.9524 1091.9609,-201.6151 1183.5,-139 1201.0353,-127.0054 1201.8845,-118.1604 1221.5,-110 1266.9351,-91.0982 1397.546,-77.2646 1480.4671,-70.0843"/>
<polygon fill="#191970" stroke="#191970" points="1480.9182,-73.5586 1490.5843,-69.2206 1480.3228,-66.5839 1480.9182,-73.5586"/>
</g>
<!-- Node4 -->
<g id="node5" class="node">
<title>Node4</title>
<polygon fill="#ffffff" stroke="#bfbfbf" points="677.0493,-.5 677.0493,-18.5 721.9507,-18.5 721.9507,-.5 677.0493,-.5"/>
<text text-anchor="middle" x="699.5" y="-6.5" font-family="Helvetica,sans-Serif" font-size="10.00" fill="#000000">cstdint</text>
</g>
<!-- Node1&#45;&gt;Node4 -->
<g id="edge40" class="edge">
<title>Node1&#45;&gt;Node4</title>
<path fill="none" stroke="#191970" d="M156.5413,-305.4409C123.1854,-288.0278 57.5,-246.501 57.5,-189.5 57.5,-189.5 57.5,-189.5 57.5,-124.5 57.5,-91.8212 55.602,-74.9297 81.5,-55 128.105,-19.1354 545.927,-11.343 666.8513,-9.8327"/>
<polygon fill="#191970" stroke="#191970" points="667.0128,-13.3311 676.9705,-9.7125 666.9296,-6.3316 667.0128,-13.3311"/>
</g>
<!-- Node7 -->
<g id="node8" class="node">
<title>Node7</title>
<polygon fill="#ffffff" stroke="#bfbfbf" points="455.4336,-55.5 455.4336,-73.5 517.5664,-73.5 517.5664,-55.5 455.4336,-55.5"/>
<text text-anchor="middle" x="486.5" y="-61.5" font-family="Helvetica,sans-Serif" font-size="10.00" fill="#000000">type_traits</text>
</g>
<!-- Node1&#45;&gt;Node7 -->
<g id="edge42" class="edge">
<title>Node1&#45;&gt;Node7</title>
<path fill="none" stroke="#191970" d="M180.546,-305.12C200.3181,-268.6837 273.3046,-137.2188 311.5,-110 332.7864,-94.8309 400.4307,-80.1434 445.1138,-71.7298"/>
<polygon fill="#191970" stroke="#191970" points="445.9088,-75.1422 455.1048,-69.8806 444.6348,-68.2591 445.9088,-75.1422"/>
</g>
<!-- Node28 -->
<g id="node16" class="node">
<title>Node28</title>
<g id="a_node16"><a xlink:href="forcefield_8hpp.html" target="_top" xlink:title="../classes/forcefield.hpp">
<polygon fill="#ffffff" stroke="#000000" points="2007.2515,-245.5 2007.2515,-263.5 2127.7485,-263.5 2127.7485,-245.5 2007.2515,-245.5"/>
<text text-anchor="middle" x="2067.5" y="-251.5" font-family="Helvetica,sans-Serif" font-size="10.00" fill="#000000">../classes/forcefield.hpp</text>
</a>
</g>
</g>
<!-- Node1&#45;&gt;Node28 -->
<g id="edge20" class="edge">
<title>Node1&#45;&gt;Node28</title>
<path fill="none" stroke="#191970" d="M259.5456,-311.8347C577.4963,-301.7517 1703.537,-266.0422 1997.0953,-256.7327"/>
<polygon fill="#191970" stroke="#191970" points="1997.3001,-260.2281 2007.1841,-256.4128 1997.0782,-253.2316 1997.3001,-260.2281"/>
</g>
<!-- Node37 -->
<g id="node24" class="node">
<title>Node37</title>
<g id="a_node24"><a xlink:href="enum__class__bitwise_8hpp.html" target="_top" xlink:title="../utils/enum_class\l_bitwise.hpp">
<polygon fill="#ffffff" stroke="#000000" points="161.3721,-110.5 161.3721,-138.5 259.6279,-138.5 259.6279,-110.5 161.3721,-110.5"/>
<text text-anchor="start" x="169.3721" y="-126.5" font-family="Helvetica,sans-Serif" font-size="10.00" fill="#000000">../utils/enum_class</text>
<text text-anchor="middle" x="210.5" y="-116.5" font-family="Helvetica,sans-Serif" font-size="10.00" fill="#000000">_bitwise.hpp</text>
</a>
</g>
</g>
<!-- Node1&#45;&gt;Node37 -->
<g id="edge37" class="edge">
<title>Node1&#45;&gt;Node37</title>
<path fill="none" stroke="#191970" d="M177.1881,-305.3359C182.3761,-277.1729 198.2072,-191.2322 206.0294,-148.7688"/>
<polygon fill="#191970" stroke="#191970" points="209.5082,-149.2034 207.8778,-138.7347 202.624,-147.9352 209.5082,-149.2034"/>
</g>
<!-- Node38 -->
<g id="node25" class="node">
<title>Node38</title>
<polygon fill="#ffffff" stroke="#bfbfbf" points="0,-245.5 0,-263.5 29,-263.5 29,-245.5 0,-245.5"/>
<text text-anchor="middle" x="14.1108" y="-251.5" font-family="Helvetica,sans-Serif" font-size="10.00" fill="#000000">list</text>
</g>
<!-- Node1&#45;&gt;Node38 -->
<g id="edge41" class="edge">
<title>Node1&#45;&gt;Node38</title>
<path fill="none" stroke="#191970" d="M145.723,-305.4734C118.692,-296.989 77.9147,-283.4609 43.5,-269 41.8588,-268.3104 40.1806,-267.5699 38.4995,-266.8016"/>
<polygon fill="#191970" stroke="#191970" points="39.6054,-263.4492 29.0778,-262.258 36.5648,-269.7543 39.6054,-263.4492"/>
</g>
<!-- Node2&#45;&gt;Node3 -->
<g id="edge3" class="edge">
<title>Node2&#45;&gt;Node3</title>
<path fill="none" stroke="#191970" d="M765.2189,-245.4313C810.0559,-236.0695 880.9425,-220.5353 941.5,-204 1033.2973,-178.9346 1058.8455,-178.3194 1145.5,-139 1168.1973,-128.7011 1169.9591,-118.1891 1193.5,-110 1244.9932,-92.0872 1391.6777,-77.5493 1480.8106,-70.0436"/>
<polygon fill="#191970" stroke="#191970" points="1481.1759,-73.5254 1490.8509,-69.2073 1480.5948,-66.5495 1481.1759,-73.5254"/>
</g>
<!-- Node6 -->
<g id="node7" class="node">
<title>Node6</title>
<g id="a_node7"><a xlink:href="quad_8hpp.html" target="_top" xlink:title="../utils/quad.hpp">
<polygon fill="#ffffff" stroke="#000000" points="429.1973,-180.5 429.1973,-198.5 515.8027,-198.5 515.8027,-180.5 429.1973,-180.5"/>
<text text-anchor="middle" x="472.5" y="-186.5" font-family="Helvetica,sans-Serif" font-size="10.00" fill="#000000">../utils/quad.hpp</text>
</a>
</g>
</g>
<!-- Node2&#45;&gt;Node6 -->
<g id="edge6" class="edge">
<title>Node2&#45;&gt;Node6</title>
<path fill="none" stroke="#191970" d="M686.0167,-245.462C641.9062,-233.9008 565.4352,-213.858 516.9818,-201.1585"/>
<polygon fill="#191970" stroke="#191970" points="517.65,-197.7155 507.0893,-198.5658 515.8752,-204.4868 517.65,-197.7155"/>
</g>
<!-- Node23 -->
<g id="node11" class="node">
<title>Node23</title>
<g id="a_node11"><a xlink:href="triple_8hpp.html" target="_top" xlink:title="../utils/triple.hpp">
<polygon fill="#ffffff" stroke="#000000" points="699.4829,-180.5 699.4829,-198.5 785.5171,-198.5 785.5171,-180.5 699.4829,-180.5"/>
<text text-anchor="middle" x="742.5" y="-186.5" font-family="Helvetica,sans-Serif" font-size="10.00" fill="#000000">../utils/triple.hpp</text>
</a>
</g>
</g>
<!-- Node2&#45;&gt;Node23 -->
<g id="edge12" class="edge">
<title>Node2&#45;&gt;Node23</title>
<path fill="none" stroke="#191970" d="M723.559,-245.462C726.7734,-235.9651 731.9248,-220.7449 736.0445,-208.5732"/>
<polygon fill="#191970" stroke="#191970" points="739.4337,-209.4764 739.3245,-198.8821 732.8032,-207.2322 739.4337,-209.4764"/>
</g>
<!-- Node24 -->
<g id="node12" class="node">
<title>Node24</title>
<polygon fill="#ffffff" stroke="#bfbfbf" points="571.5298,-175.5 571.5298,-203.5 681.4702,-203.5 681.4702,-175.5 571.5298,-175.5"/>
<text text-anchor="start" x="579.5298" y="-191.5" font-family="Helvetica,sans-Serif" font-size="10.00" fill="#000000">boost/dynamic_bitset</text>
<text text-anchor="middle" x="626.5" y="-181.5" font-family="Helvetica,sans-Serif" font-size="10.00" fill="#000000">_fwd.hpp</text>
</g>
<!-- Node2&#45;&gt;Node24 -->
<g id="edge16" class="edge">
<title>Node2&#45;&gt;Node24</title>
<path fill="none" stroke="#191970" d="M707.4297,-245.462C694.1126,-236.2534 673.0138,-221.6638 655.6979,-209.69"/>
<polygon fill="#191970" stroke="#191970" points="657.2646,-206.5181 647.0488,-203.7093 653.2832,-212.2757 657.2646,-206.5181"/>
</g>
<!-- Node2&#45;&gt;Node25 -->
<g id="edge17" class="edge">
<title>Node2&#45;&gt;Node25</title>
<path fill="none" stroke="#191970" d="M661.1187,-245.485C574.7849,-232.2412 424.3849,-208.5935 420.5,-204 394.1139,-172.801 447.1654,-118.476 458.5,-110 481.2239,-93.007 556.834,-78.2603 603.7631,-70.4451"/>
<polygon fill="#191970" stroke="#191970" points="604.578,-73.8585 613.8834,-68.7929 603.4501,-66.95 604.578,-73.8585"/>
</g>
<!-- Node2&#45;&gt;Node26 -->
<g id="edge18" class="edge">
<title>Node2&#45;&gt;Node26</title>
<path fill="none" stroke="#191970" d="M760.6459,-245.4381C771.5734,-243.2992 783.4453,-241.273 794.5,-240 1238.5188,-188.869 1353.2784,-229.5624 1799.5,-204 1854.8745,-200.8278 1919.4866,-195.3163 1955.5285,-192.0792"/>
<polygon fill="#191970" stroke="#191970" points="1956.1115,-195.5408 1965.7548,-191.1527 1955.4798,-188.5694 1956.1115,-195.5408"/>
</g>
<!-- Node2&#45;&gt;Node27 -->
<g id="edge19" class="edge">
<title>Node2&#45;&gt;Node27</title>
<path fill="none" stroke="#191970" d="M760.6469,-245.4471C771.5745,-243.3082 783.446,-241.2797 794.5,-240 901.857,-227.5712 1666.0952,-243.9861 1766.5,-204 1784.6397,-196.7759 1783.5829,-186.3084 1799.5,-175 1847.3611,-140.9966 1858.203,-126.6603 1914.5,-110 1983.5332,-89.5706 2494.1326,-70.3223 2627.6351,-65.5998"/>
<polygon fill="#191970" stroke="#191970" points="2627.7646,-69.0975 2637.6354,-65.2483 2627.5187,-62.1018 2627.7646,-69.0975"/>
</g>
<!-- Node3&#45;&gt;Node4 -->
<g id="edge4" class="edge">
<title>Node3&#45;&gt;Node4</title>
<path fill="none" stroke="#191970" d="M1490.8112,-60.5224C1322.5473,-49.673 859.7129,-19.8303 732.3279,-11.6167"/>
<polygon fill="#191970" stroke="#191970" points="732.2647,-8.1054 722.0602,-10.9546 731.8143,-15.0909 732.2647,-8.1054"/>
</g>
<!-- Node5 -->
<g id="node6" class="node">
<title>Node5</title>
<polygon fill="#ffffff" stroke="#bfbfbf" points="1882.4434,-.5 1882.4434,-18.5 1934.5566,-18.5 1934.5566,-.5 1882.4434,-.5"/>
<text text-anchor="middle" x="1908.5" y="-6.5" font-family="Helvetica,sans-Serif" font-size="10.00" fill="#000000">memory</text>
</g>
<!-- Node3&#45;&gt;Node5 -->
<g id="edge5" class="edge">
<title>Node3&#45;&gt;Node5</title>
<path fill="none" stroke="#191970" d="M1610.8875,-55.4795C1684.9164,-44.0424 1810.3189,-24.6684 1872.0093,-15.1376"/>
<polygon fill="#191970" stroke="#191970" points="1872.7056,-18.5716 1882.0539,-13.5858 1871.6368,-11.6537 1872.7056,-18.5716"/>
</g>
<!-- Node6&#45;&gt;Node7 -->
<g id="edge7" class="edge">
<title>Node6&#45;&gt;Node7</title>
<path fill="none" stroke="#191970" d="M468.1341,-180.0596C461.7821,-165.0265 451.4772,-134.8119 458.5,-110 461.3631,-99.8845 467.1797,-89.8071 472.7732,-81.7169"/>
<polygon fill="#191970" stroke="#191970" points="475.6944,-83.653 478.8244,-73.5311 470.0654,-79.4919 475.6944,-83.653"/>
</g>
<!-- Node8 -->
<g id="node9" class="node">
<title>Node8</title>
<polygon fill="#ffffff" stroke="#bfbfbf" points="467.1084,-115.5 467.1084,-133.5 505.8916,-133.5 505.8916,-115.5 467.1084,-115.5"/>
<text text-anchor="middle" x="486.5" y="-121.5" font-family="Helvetica,sans-Serif" font-size="10.00" fill="#000000">utility</text>
</g>
<!-- Node6&#45;&gt;Node8 -->
<g id="edge8" class="edge">
<title>Node6&#45;&gt;Node8</title>
<path fill="none" stroke="#191970" d="M474.4466,-180.462C476.4715,-171.061 479.7042,-156.0518 482.3123,-143.943"/>
<polygon fill="#191970" stroke="#191970" points="485.7951,-144.3949 484.4792,-133.8821 478.9521,-142.921 485.7951,-144.3949"/>
</g>
<!-- Node9 -->
<g id="node10" class="node">
<title>Node9</title>
<g id="a_node10"><a xlink:href="serialise_8hpp.html" target="_top" xlink:title="serialise.hpp">
<polygon fill="#ffffff" stroke="#ff0000" points="561.4287,-115.5 561.4287,-133.5 633.5713,-133.5 633.5713,-115.5 561.4287,-115.5"/>
<text text-anchor="middle" x="597.5" y="-121.5" font-family="Helvetica,sans-Serif" font-size="10.00" fill="#000000">serialise.hpp</text>
</a>
</g>
</g>
<!-- Node6&#45;&gt;Node9 -->
<g id="edge9" class="edge">
<title>Node6&#45;&gt;Node9</title>
<path fill="none" stroke="#191970" d="M489.8807,-180.462C510.8453,-169.5605 546.3124,-151.1176 570.7671,-138.4011"/>
<polygon fill="#191970" stroke="#191970" points="572.6065,-141.3896 579.8639,-133.6708 569.377,-135.1791 572.6065,-141.3896"/>
</g>
<!-- Node9&#45;&gt;Node3 -->
<g id="edge10" class="edge">
<title>Node9&#45;&gt;Node3</title>
<path fill="none" stroke="#191970" d="M633.7819,-120.8391C665.9904,-117.6732 714.3447,-113.1261 756.5,-110 1023.3166,-90.2138 1341.0008,-74.3677 1480.6347,-67.7915"/>
<polygon fill="#191970" stroke="#191970" points="1480.9548,-71.2804 1490.7797,-67.3153 1480.6265,-64.2881 1480.9548,-71.2804"/>
</g>
<!-- Node9&#45;&gt;Node7 -->
<g id="edge11" class="edge">
<title>Node9&#45;&gt;Node7</title>
<path fill="none" stroke="#191970" d="M580.6415,-115.3873C562.4442,-105.5509 533.2442,-89.7671 512.1867,-78.3847"/>
<polygon fill="#191970" stroke="#191970" points="513.6149,-75.1781 503.1535,-73.5019 510.2862,-81.3361 513.6149,-75.1781"/>
</g>
<!-- Node23&#45;&gt;Node7 -->
<g id="edge13" class="edge">
<title>Node23&#45;&gt;Node7</title>
<path fill="none" stroke="#191970" d="M710.346,-180.4433C703.7852,-178.6209 696.9245,-176.7336 690.5,-175 629.3029,-158.4867 606.5214,-172.1582 552.5,-139 529.0155,-124.5853 509.1788,-99.2205 497.5582,-82.1412"/>
<polygon fill="#191970" stroke="#191970" points="500.3863,-80.0714 491.9765,-73.6273 494.5322,-83.9093 500.3863,-80.0714"/>
</g>
<!-- Node23&#45;&gt;Node8 -->
<g id="edge14" class="edge">
<title>Node23&#45;&gt;Node8</title>
<path fill="none" stroke="#191970" d="M711.2384,-180.4311C704.4243,-178.5529 697.2371,-176.6467 690.5,-175 615.0549,-156.5599 593.4462,-162.748 519.5,-139 518.0477,-138.5336 516.5728,-138.0246 515.0928,-137.4852"/>
<polygon fill="#191970" stroke="#191970" points="516.0203,-134.0865 505.4358,-133.6173 513.4175,-140.5846 516.0203,-134.0865"/>
</g>
<!-- Node23&#45;&gt;Node9 -->
<g id="edge15" class="edge">
<title>Node23&#45;&gt;Node9</title>
<path fill="none" stroke="#191970" d="M722.3384,-180.462C697.6967,-169.4158 655.7824,-150.6266 627.3873,-137.8977"/>
<polygon fill="#191970" stroke="#191970" points="628.5147,-134.5676 617.9578,-133.6708 625.6512,-140.9552 628.5147,-134.5676"/>
</g>
<!-- Node28&#45;&gt;Node3 -->
<g id="edge21" class="edge">
<title>Node28&#45;&gt;Node3</title>
<path fill="none" stroke="#191970" d="M2063.1146,-245.3883C2054.8971,-229.1771 2035.7103,-195.1409 2010.5,-175 1952.4575,-128.629 1928.0204,-130.1007 1856.5,-110 1778.7561,-88.1502 1686.7005,-76.2334 1624.418,-70.1412"/>
<polygon fill="#191970" stroke="#191970" points="1624.5875,-66.6416 1614.3006,-69.1772 1623.9235,-73.6101 1624.5875,-66.6416"/>
</g>
<!-- Node28&#45;&gt;Node5 -->
<g id="edge35" class="edge">
<title>Node28&#45;&gt;Node5</title>
<path fill="none" stroke="#191970" d="M2065.01,-245.2855C2060.6814,-230.0529 2050.93,-198.9275 2037.5,-175 2004.2311,-115.7267 1950.9323,-54.9405 1924.4731,-26.3328"/>
<polygon fill="#191970" stroke="#191970" points="1926.8516,-23.7518 1917.4672,-18.8341 1921.7366,-28.5306 1926.8516,-23.7518"/>
</g>
<!-- Node28&#45;&gt;Node26 -->
<g id="edge34" class="edge">
<title>Node28&#45;&gt;Node26</title>
<path fill="none" stroke="#191970" d="M2055.8202,-245.462C2042.3554,-235.0428 2019.9882,-217.7349 2003.6879,-205.1216"/>
<polygon fill="#191970" stroke="#191970" points="2005.4021,-202.0226 1995.3514,-198.6708 2001.1182,-207.5587 2005.4021,-202.0226"/>
</g>
<!-- Node28&#45;&gt;Node27 -->
<g id="edge36" class="edge">
<title>Node28&#45;&gt;Node27</title>
<path fill="none" stroke="#191970" d="M2071.2796,-245.4093C2078.7664,-228.602 2097.1577,-192.7665 2124.5,-175 2209.5668,-119.7252 2526.0657,-79.667 2627.7946,-67.9936"/>
<polygon fill="#191970" stroke="#191970" points="2628.2268,-71.4671 2637.7682,-66.8615 2627.4372,-64.5118 2628.2268,-71.4671"/>
</g>
<!-- Node29 -->
<g id="node17" class="node">
<title>Node29</title>
<g id="a_node17"><a xlink:href="periodictable_8hpp.html" target="_top" xlink:title="periodictable.hpp">
<polygon fill="#ffffff" stroke="#ff0000" points="1183.4165,-180.5 1183.4165,-198.5 1275.5835,-198.5 1275.5835,-180.5 1183.4165,-180.5"/>
<text text-anchor="middle" x="1229.5" y="-186.5" font-family="Helvetica,sans-Serif" font-size="10.00" fill="#000000">periodictable.hpp</text>
</a>
</g>
</g>
<!-- Node28&#45;&gt;Node29 -->
<g id="edge22" class="edge">
<title>Node28&#45;&gt;Node29</title>
<path fill="none" stroke="#191970" d="M2006.909,-250.9697C1884.5969,-243.667 1599.4708,-225.7518 1360.5,-204 1335.9849,-201.7686 1308.9398,-198.8519 1285.8203,-196.22"/>
<polygon fill="#191970" stroke="#191970" points="1286.1694,-192.7372 1275.8353,-195.0735 1285.3708,-199.6915 1286.1694,-192.7372"/>
</g>
<!-- Node36 -->
<g id="node23" class="node">
<title>Node36</title>
<polygon fill="#ffffff" stroke="#bfbfbf" points="2133.1504,-180.5 2133.1504,-198.5 2215.8496,-198.5 2215.8496,-180.5 2133.1504,-180.5"/>
<text text-anchor="middle" x="2174.5" y="-186.5" font-family="Helvetica,sans-Serif" font-size="10.00" fill="#000000">EASTL/bitset.h</text>
</g>
<!-- Node28&#45;&gt;Node36 -->
<g id="edge33" class="edge">
<title>Node28&#45;&gt;Node36</title>
<path fill="none" stroke="#191970" d="M2082.3779,-245.462C2100.0853,-234.7052 2129.8795,-216.6059 2150.7781,-203.9105"/>
<polygon fill="#191970" stroke="#191970" points="2152.6741,-206.854 2159.4035,-198.6708 2149.0397,-200.8714 2152.6741,-206.854"/>
</g>
<!-- Node29&#45;&gt;Node3 -->
<g id="edge29" class="edge">
<title>Node29&#45;&gt;Node3</title>
<path fill="none" stroke="#191970" d="M1236.1902,-180.3711C1249.0905,-163.5001 1279.1809,-127.5628 1313.5,-110 1342.1132,-95.3572 1421.1781,-82.0433 1480.5931,-73.6536"/>
<polygon fill="#191970" stroke="#191970" points="1481.2719,-77.0929 1490.6939,-72.2477 1480.3069,-70.1598 1481.2719,-77.0929"/>
</g>
<!-- Node29&#45;&gt;Node4 -->
<g id="edge32" class="edge">
<title>Node29&#45;&gt;Node4</title>
<path fill="none" stroke="#191970" d="M1183.1202,-185.8072C1067.3336,-176.42 773.6049,-151.5045 756.5,-139 737.7039,-125.2591 715.489,-60.8569 705.2255,-28.3586"/>
<polygon fill="#191970" stroke="#191970" points="708.5292,-27.1951 702.2252,-18.6798 701.8431,-29.2677 708.5292,-27.1951"/>
</g>
<!-- Node30 -->
<g id="node18" class="node">
<title>Node30</title>
<g id="a_node18"><a xlink:href="common_8hpp.html" target="_top" xlink:title="../utils/common.hpp">
<polygon fill="#ffffff" stroke="#000000" points="765.1479,-115.5 765.1479,-133.5 867.8521,-133.5 867.8521,-115.5 765.1479,-115.5"/>
<text text-anchor="middle" x="816.5" y="-121.5" font-family="Helvetica,sans-Serif" font-size="10.00" fill="#000000">../utils/common.hpp</text>
</a>
</g>
</g>
<!-- Node29&#45;&gt;Node30 -->
<g id="edge23" class="edge">
<title>Node29&#45;&gt;Node30</title>
<path fill="none" stroke="#191970" d="M1183.3258,-182.2329C1108.6638,-170.4822 961.3931,-147.304 877.952,-134.1716"/>
<polygon fill="#191970" stroke="#191970" points="878.2769,-130.6797 867.8543,-132.5824 877.1885,-137.5946 878.2769,-130.6797"/>
</g>
<!-- Node33 -->
<g id="node21" class="node">
<title>Node33</title>
<polygon fill="#ffffff" stroke="#bfbfbf" points="2639.978,-115.5 2639.978,-133.5 2751.022,-133.5 2751.022,-115.5 2639.978,-115.5"/>
<text text-anchor="middle" x="2695.5" y="-121.5" font-family="Helvetica,sans-Serif" font-size="10.00" fill="#000000">EASTL/vector_map.h</text>
</g>
<!-- Node29&#45;&gt;Node33 -->
<g id="edge30" class="edge">
<title>Node29&#45;&gt;Node33</title>
<path fill="none" stroke="#191970" d="M1275.804,-183.5474C1300.8397,-180.538 1332.3182,-177.0899 1360.5,-175 1847.0682,-138.9164 2435.4181,-128.0352 2629.7322,-125.3023"/>
<polygon fill="#191970" stroke="#191970" points="2629.8307,-128.8014 2639.7813,-125.1633 2629.7338,-121.802 2629.8307,-128.8014"/>
</g>
<!-- Node34 -->
<g id="node22" class="node">
<title>Node34</title>
<polygon fill="#ffffff" stroke="#bfbfbf" points="1322.1084,-115.5 1322.1084,-133.5 1360.8916,-133.5 1360.8916,-115.5 1322.1084,-115.5"/>
<text text-anchor="middle" x="1341.5" y="-121.5" font-family="Helvetica,sans-Serif" font-size="10.00" fill="#000000">array</text>
</g>
<!-- Node29&#45;&gt;Node34 -->
<g id="edge31" class="edge">
<title>Node29&#45;&gt;Node34</title>
<path fill="none" stroke="#191970" d="M1245.0731,-180.462C1263.6911,-169.6569 1295.0744,-151.4434 1316.9633,-138.74"/>
<polygon fill="#191970" stroke="#191970" points="1318.8059,-141.7174 1325.6981,-133.6708 1315.2923,-135.6632 1318.8059,-141.7174"/>
</g>
<!-- Node30&#45;&gt;Node5 -->
<g id="edge26" class="edge">
<title>Node30&#45;&gt;Node5</title>
<path fill="none" stroke="#191970" d="M809.7933,-115.4915C799.7248,-100.8043 783.5011,-71.6687 799.5,-55 837.4797,-15.4301 1685.2912,-10.255 1872.2423,-9.5945"/>
<polygon fill="#191970" stroke="#191970" points="1872.3837,-13.0941 1882.372,-9.5609 1872.3604,-6.0941 1872.3837,-13.0941"/>
</g>
<!-- Node30&#45;&gt;Node7 -->
<g id="edge28" class="edge">
<title>Node30&#45;&gt;Node7</title>
<path fill="none" stroke="#191970" d="M766.7384,-115.4524C701.5484,-103.5997 588.4234,-83.0315 527.7547,-72.0009"/>
<polygon fill="#191970" stroke="#191970" points="528.2364,-68.5311 517.7715,-70.1857 526.9841,-75.4182 528.2364,-68.5311"/>
</g>
<!-- Node30&#45;&gt;Node25 -->
<g id="edge24" class="edge">
<title>Node30&#45;&gt;Node25</title>
<path fill="none" stroke="#191970" d="M790.0731,-115.3873C760.2627,-105.1078 711.6159,-88.3331 678.3855,-76.8743"/>
<polygon fill="#191970" stroke="#191970" points="679.2002,-73.453 668.6054,-73.5019 676.9182,-80.0707 679.2002,-73.453"/>
</g>
<!-- Node31 -->
<g id="node19" class="node">
<title>Node31</title>
<polygon fill="#ffffff" stroke="#bfbfbf" points="866.9385,-55.5 866.9385,-73.5 914.0615,-73.5 914.0615,-55.5 866.9385,-55.5"/>
<text text-anchor="middle" x="890.5" y="-61.5" font-family="Helvetica,sans-Serif" font-size="10.00" fill="#000000">iterator</text>
</g>
<!-- Node30&#45;&gt;Node31 -->
<g id="edge25" class="edge">
<title>Node30&#45;&gt;Node31</title>
<path fill="none" stroke="#191970" d="M827.739,-115.3873C839.2571,-106.0483 857.3873,-91.3481 871.206,-80.1438"/>
<polygon fill="#191970" stroke="#191970" points="873.592,-82.7152 879.1552,-73.6985 869.1833,-77.2779 873.592,-82.7152"/>
</g>
<!-- Node32 -->
<g id="node20" class="node">
<title>Node32</title>
<polygon fill="#ffffff" stroke="#bfbfbf" points="808.2734,-55.5 808.2734,-73.5 848.7266,-73.5 848.7266,-55.5 808.2734,-55.5"/>
<text text-anchor="middle" x="828.5" y="-61.5" font-family="Helvetica,sans-Serif" font-size="10.00" fill="#000000">string</text>
</g>
<!-- Node30&#45;&gt;Node32 -->
<g id="edge27" class="edge">
<title>Node30&#45;&gt;Node32</title>
<path fill="none" stroke="#191970" d="M818.3225,-115.3873C819.9965,-107.0174 822.5317,-94.3414 824.653,-83.735"/>
<polygon fill="#191970" stroke="#191970" points="828.1311,-84.1907 826.6603,-73.6985 821.267,-82.8178 828.1311,-84.1907"/>
</g>
<!-- Node37&#45;&gt;Node7 -->
<g id="edge38" class="edge">
<title>Node37&#45;&gt;Node7</title>
<path fill="none" stroke="#191970" d="M259.6638,-113.1057C264.3383,-112.0461 269.0076,-110.9967 273.5,-110 333.3078,-96.7303 402.7244,-82.0331 445.6342,-73.0298"/>
<polygon fill="#191970" stroke="#191970" points="446.3552,-76.4549 455.4246,-70.978 444.9193,-69.6037 446.3552,-76.4549"/>
</g>
<!-- Node39&#45;&gt;Node3 -->
<g id="edge44" class="edge">
<title>Node39&#45;&gt;Node3</title>
<path fill="none" stroke="#191970" d="M2569.1203,-175.3895C2516.7041,-156.8097 2419.4141,-124.7736 2333.5,-110 2198.3742,-86.7641 1790.6118,-71.8782 1624.2967,-66.6242"/>
<polygon fill="#191970" stroke="#191970" points="1624.2772,-63.122 1614.1724,-66.3069 1624.0578,-70.1185 1624.2772,-63.122"/>
</g>
<!-- Node39&#45;&gt;Node33 -->
<g id="edge45" class="edge">
<title>Node39&#45;&gt;Node33</title>
<path fill="none" stroke="#191970" d="M2626.5947,-175.396C2640.8276,-164.883 2660.2447,-150.5408 2674.8398,-139.7603"/>
<polygon fill="#191970" stroke="#191970" points="2677.2506,-142.331 2683.2148,-133.5743 2673.0916,-136.7004 2677.2506,-142.331"/>
</g>
<!-- Node40&#45;&gt;Node3 -->
<g id="edge47" class="edge">
<title>Node40&#45;&gt;Node3</title>
<path fill="none" stroke="#191970" d="M1681.9772,-180.1047C1658.1455,-158.8264 1599.8315,-106.7603 1570.2832,-80.3778"/>
<polygon fill="#191970" stroke="#191970" points="1572.5549,-77.714 1562.7644,-73.6646 1567.8927,-82.9356 1572.5549,-77.714"/>
</g>
<!-- Node40&#45;&gt;Node5 -->
<g id="edge49" class="edge">
<title>Node40&#45;&gt;Node5</title>
<path fill="none" stroke="#191970" d="M1700.8374,-180.2145C1714.7962,-164.8797 1744.071,-133.6109 1771.5,-110 1809.8637,-76.9766 1858.3534,-43.0682 1886.156,-24.2996"/>
<polygon fill="#191970" stroke="#191970" points="1888.3912,-27.0148 1894.7471,-18.5382 1884.4923,-21.2011 1888.3912,-27.0148"/>
</g>
<!-- Node40&#45;&gt;Node34 -->
<g id="edge48" class="edge">
<title>Node40&#45;&gt;Node34</title>
<path fill="none" stroke="#191970" d="M1646.7276,-180.4334C1637.3922,-178.6117 1627.6331,-176.7272 1618.5,-175 1528.3677,-157.9542 1421.5365,-138.7638 1370.9168,-129.7318"/>
<polygon fill="#191970" stroke="#191970" points="1371.4537,-126.2724 1360.9946,-127.963 1370.2252,-133.1637 1371.4537,-126.2724"/>
</g>
<!-- Node41&#45;&gt;Node3 -->
<g id="edge52" class="edge">
<title>Node41&#45;&gt;Node3</title>
<path fill="none" stroke="#191970" d="M2980.2198,-120.9726C2922.6658,-117.8729 2835.9616,-113.3474 2760.5,-110 2329.4453,-90.8789 1811.6327,-73.1241 1624.4256,-66.8735"/>
<polygon fill="#191970" stroke="#191970" points="1624.5419,-63.3756 1614.4308,-66.5403 1624.3086,-70.3717 1624.5419,-63.3756"/>
</g>
<!-- Node41&#45;&gt;Node5 -->
<g id="edge54" class="edge">
<title>Node41&#45;&gt;Node5</title>
<path fill="none" stroke="#191970" d="M3045.0849,-115.4942C3045.5211,-100.2626 3043.8987,-69.6462 3025.5,-55 2982.2796,-20.5947 2132.221,-11.3967 1944.8373,-9.7837"/>
<polygon fill="#191970" stroke="#191970" points="1944.7135,-6.2827 1934.6844,-9.6983 1944.6545,-13.2824 1944.7135,-6.2827"/>
</g>
<!-- Node41&#45;&gt;Node27 -->
<g id="edge55" class="edge">
<title>Node41&#45;&gt;Node27</title>
<path fill="none" stroke="#191970" d="M2997.5282,-115.4799C2987.312,-113.5987 2976.5533,-111.6789 2966.5,-110 2866.1465,-93.2414 2746.8056,-76.4501 2691.0884,-68.7923"/>
<polygon fill="#191970" stroke="#191970" points="2691.5132,-65.3179 2681.1306,-67.4279 2690.5629,-72.2531 2691.5132,-65.3179"/>
</g>
<!-- Node42 -->
<g id="node29" class="node">
<title>Node42</title>
<polygon fill="#ffffff" stroke="#bfbfbf" points="2942.8696,-55.5 2942.8696,-73.5 3016.1304,-73.5 3016.1304,-55.5 2942.8696,-55.5"/>
<text text-anchor="middle" x="2979.5" y="-61.5" font-family="Helvetica,sans-Serif" font-size="10.00" fill="#000000">Eigen/Dense</text>
</g>
<!-- Node41&#45;&gt;Node42 -->
<g id="edge53" class="edge">
<title>Node41&#45;&gt;Node42</title>
<path fill="none" stroke="#191970" d="M3034.6279,-115.3873C3024.7015,-106.2245 3009.1843,-91.9009 2997.1385,-80.7817"/>
<polygon fill="#191970" stroke="#191970" points="2999.1871,-77.9095 2989.465,-73.6985 2994.4391,-83.0531 2999.1871,-77.9095"/>
</g>
<!-- Node43&#45;&gt;Node3 -->
<g id="edge57" class="edge">
<title>Node43&#45;&gt;Node3</title>
<path fill="none" stroke="#191970" d="M1546.0261,-180.1047C1547.1668,-159.7357 1549.8874,-111.1541 1551.4138,-83.8965"/>
<polygon fill="#191970" stroke="#191970" points="1554.9221,-83.8447 1551.9868,-73.6646 1547.933,-83.4533 1554.9221,-83.8447"/>
</g>
<!-- Node43&#45;&gt;Node5 -->
<g id="edge59" class="edge">
<title>Node43&#45;&gt;Node5</title>
<path fill="none" stroke="#191970" d="M1563.3205,-180.4138C1606.2495,-158.5565 1718.8485,-101.4128 1813.5,-55 1835.7316,-44.0986 1861.0215,-32.0008 1879.9156,-23.0216"/>
<polygon fill="#191970" stroke="#191970" points="1881.6292,-26.0826 1889.1629,-18.6332 1878.628,-19.7585 1881.6292,-26.0826"/>
</g>
<!-- Node43&#45;&gt;Node34 -->
<g id="edge58" class="edge">
<title>Node43&#45;&gt;Node34</title>
<path fill="none" stroke="#191970" d="M1517.1347,-180.462C1478.5431,-168.1657 1409.8395,-146.2748 1370.7791,-133.8291"/>
<polygon fill="#191970" stroke="#191970" points="1371.651,-130.4336 1361.0604,-130.7325 1369.5258,-137.1032 1371.651,-130.4336"/>
</g>
<!-- Node44&#45;&gt;Node3 -->
<g id="edge61" class="edge">
<title>Node44&#45;&gt;Node3</title>
<path fill="none" stroke="#191970" d="M542.572,-245.3817C541.4211,-228.5283 541.7172,-192.6191 562.5,-175 606.0007,-138.1213 1018.9593,-151.945 1074.5,-139 1107.6966,-131.2628 1112.4696,-118.4183 1145.5,-110 1260.2994,-80.7418 1398.0789,-70.2949 1480.2911,-66.5666"/>
<polygon fill="#191970" stroke="#191970" points="1480.6891,-70.0528 1490.5286,-66.1242 1480.3868,-63.0593 1480.6891,-70.0528"/>
</g>
<!-- Node44&#45;&gt;Node4 -->
<g id="edge64" class="edge">
<title>Node44&#45;&gt;Node4</title>
<path fill="none" stroke="#191970" d="M503.2801,-245.4787C407.8393,-223.6781 174.0301,-167.8098 152.5,-139 144.7844,-128.6756 144.2667,-119.9164 152.5,-110 218.6901,-30.2792 558.3823,-13.5914 666.4462,-10.2797"/>
<polygon fill="#191970" stroke="#191970" points="666.8447,-13.7698 676.74,-9.9838 666.6435,-6.7727 666.8447,-13.7698"/>
</g>
<!-- Node44&#45;&gt;Node5 -->
<g id="edge65" class="edge">
<title>Node44&#45;&gt;Node5</title>
<path fill="none" stroke="#191970" d="M590.773,-245.4213C641.2936,-235.6179 723.6894,-219.3389 794.5,-204 856.9289,-190.4767 1013.8317,-158.9901 1074.5,-139 1105.3177,-128.8456 1110.3562,-119.1052 1141.5,-110 1288.4251,-67.0451 1329.7818,-75.3394 1481.5,-55 1625.5231,-35.6922 1797.7664,-19.4091 1871.7663,-12.7376"/>
<polygon fill="#191970" stroke="#191970" points="1872.309,-16.2031 1881.9564,-11.8238 1871.6838,-9.2311 1872.309,-16.2031"/>
</g>
<!-- Node44&#45;&gt;Node6 -->
<g id="edge62" class="edge">
<title>Node44&#45;&gt;Node6</title>
<path fill="none" stroke="#191970" d="M533.6278,-245.462C522.4159,-235.1976 503.9013,-218.2477 490.181,-205.6869"/>
<polygon fill="#191970" stroke="#191970" points="492.4875,-203.0532 482.7482,-198.8821 487.7607,-208.2163 492.4875,-203.0532"/>
</g>
<!-- Node44&#45;&gt;Node32 -->
<g id="edge66" class="edge">
<title>Node44&#45;&gt;Node32</title>
<path fill="none" stroke="#191970" d="M486.1166,-245.4835C461.6053,-238.4798 435.2828,-226.0496 420.5,-204 397.7266,-170.0319 456.5451,-111.2865 458.5,-110 486.6945,-91.4447 714.623,-72.9172 798.0504,-66.6931"/>
<polygon fill="#191970" stroke="#191970" points="798.4441,-70.1736 808.1591,-65.9466 797.9285,-63.1926 798.4441,-70.1736"/>
</g>
<!-- Node44&#45;&gt;Node34 -->
<g id="edge63" class="edge">
<title>Node44&#45;&gt;Node34</title>
<path fill="none" stroke="#191970" d="M601.4129,-245.4826C616.0931,-243.435 631.8533,-241.4416 646.5,-240 717.1602,-233.045 1222.2777,-238.1997 1284.5,-204 1308.7362,-190.6788 1325.2029,-162.1367 1333.9777,-143.1281"/>
<polygon fill="#191970" stroke="#191970" points="1337.2961,-144.273 1338.0618,-133.7059 1330.8734,-141.4891 1337.2961,-144.273"/>
</g>
<!-- Node45&#45;&gt;Node3 -->
<g id="edge68" class="edge">
<title>Node45&#45;&gt;Node3</title>
<path fill="none" stroke="#191970" d="M2357.3848,-245.4701C2342.9811,-213.8666 2295.6927,-110.1323 2295.5,-110 2268.1327,-91.2065 1805.8799,-73.2645 1624.6091,-66.9183"/>
<polygon fill="#191970" stroke="#191970" points="1624.491,-63.4122 1614.3752,-66.5619 1624.2473,-70.408 1624.491,-63.4122"/>
</g>
<!-- Node45&#45;&gt;Node4 -->
<g id="edge70" class="edge">
<title>Node45&#45;&gt;Node4</title>
<path fill="none" stroke="#191970" d="M2288.3161,-249.2833C2244.3281,-246.2725 2187.223,-242.583 2136.5,-240 1709.1989,-218.2401 1600.5505,-243.2524 1174.5,-204 1125.1795,-199.4561 771.0832,-171.2593 733.5,-139 701.4234,-111.4672 697.7623,-57.7 698.3322,-28.8661"/>
<polygon fill="#191970" stroke="#191970" points="701.8314,-28.9508 698.7262,-18.8213 694.8368,-28.6764 701.8314,-28.9508"/>
</g>
<!-- Node45&#45;&gt;Node26 -->
<g id="edge71" class="edge">
<title>Node45&#45;&gt;Node26</title>
<path fill="none" stroke="#191970" d="M2308.9407,-245.462C2227.6321,-231.4804 2074.1852,-205.094 2011.3738,-194.2931"/>
<polygon fill="#191970" stroke="#191970" points="2011.8626,-190.8259 2001.4141,-192.5805 2010.6763,-197.7246 2011.8626,-190.8259"/>
</g>
<!-- Node45&#45;&gt;Node27 -->
<g id="edge73" class="edge">
<title>Node45&#45;&gt;Node27</title>
<path fill="none" stroke="#191970" d="M2397.3823,-245.4523C2426.4493,-237.2064 2467.7973,-223.3515 2500.5,-204 2516.2192,-194.6983 2603.5383,-115.5994 2641.674,-80.8086"/>
<polygon fill="#191970" stroke="#191970" points="2644.4069,-83.0528 2649.4304,-73.7246 2639.6862,-77.884 2644.4069,-83.0528"/>
</g>
<!-- Node46 -->
<g id="node33" class="node">
<title>Node46</title>
<polygon fill="#ffffff" stroke="#bfbfbf" points="2347.5493,-180.5 2347.5493,-198.5 2387.4507,-198.5 2387.4507,-180.5 2347.5493,-180.5"/>
<text text-anchor="middle" x="2367.5" y="-186.5" font-family="Helvetica,sans-Serif" font-size="10.00" fill="#000000">bitset</text>
</g>
<!-- Node45&#45;&gt;Node46 -->
<g id="edge69" class="edge">
<title>Node45&#45;&gt;Node46</title>
<path fill="none" stroke="#191970" d="M2362.3343,-245.462C2363.2021,-236.061 2364.5875,-221.0518 2365.7053,-208.943"/>
<polygon fill="#191970" stroke="#191970" points="2369.1999,-209.1615 2366.634,-198.8821 2362.2295,-208.5181 2369.1999,-209.1615"/>
</g>
<!-- Node47 -->
<g id="node34" class="node">
<title>Node47</title>
<polygon fill="#ffffff" stroke="#bfbfbf" points="2405.1973,-180.5 2405.1973,-198.5 2491.8027,-198.5 2491.8027,-180.5 2405.1973,-180.5"/>
<text text-anchor="middle" x="2448.5" y="-186.5" font-family="Helvetica,sans-Serif" font-size="10.00" fill="#000000">unordered_map</text>
</g>
<!-- Node45&#45;&gt;Node47 -->
<g id="edge72" class="edge">
<title>Node45&#45;&gt;Node47</title>
<path fill="none" stroke="#191970" d="M2373.597,-245.462C2387.6718,-234.9464 2411.1384,-217.4138 2428.0584,-204.7725"/>
<polygon fill="#191970" stroke="#191970" points="2430.3091,-207.4599 2436.2253,-198.6708 2426.1194,-201.8522 2430.3091,-207.4599"/>
</g>
<!-- Node48&#45;&gt;Node3 -->
<g id="edge75" class="edge">
<title>Node48&#45;&gt;Node3</title>
<path fill="none" stroke="#191970" d="M1258.4866,-245.4267C1211.3212,-234.8559 1153.9783,-213.6782 1174.5,-175 1180.5375,-163.6208 1258.5257,-114.7491 1270.5,-110 1307.6821,-95.2535 1409.9805,-81.0247 1480.5659,-72.5166"/>
<polygon fill="#191970" stroke="#191970" points="1481.2234,-75.9631 1490.7385,-71.3035 1480.3944,-69.0124 1481.2234,-75.9631"/>
</g>
<!-- Node48&#45;&gt;Node6 -->
<g id="edge84" class="edge">
<title>Node48&#45;&gt;Node6</title>
<path fill="none" stroke="#191970" d="M1228.236,-251.3395C1088.7018,-245.5904 803.0221,-231.4026 562.5,-204 550.5836,-202.6424 537.8356,-200.8179 525.7927,-198.922"/>
<polygon fill="#191970" stroke="#191970" points="526.3061,-195.4596 515.8761,-197.3212 525.1906,-202.3702 526.3061,-195.4596"/>
</g>
<!-- Node48&#45;&gt;Node23 -->
<g id="edge85" class="edge">
<title>Node48&#45;&gt;Node23</title>
<path fill="none" stroke="#191970" d="M1234.4049,-245.4962C1116.1444,-232.0339 896.38,-207.017 795.5521,-195.5392"/>
<polygon fill="#191970" stroke="#191970" points="795.9253,-192.0592 785.5935,-194.4056 795.1335,-199.0142 795.9253,-192.0592"/>
</g>
<!-- Node48&#45;&gt;Node27 -->
<g id="edge88" class="edge">
<title>Node48&#45;&gt;Node27</title>
<path fill="none" stroke="#191970" d="M1398.7206,-249.0747C1525.2073,-240.5481 1756.4163,-223.011 1837.5,-204 1872.6988,-195.7472 1878.8419,-185.2897 1913.5,-175 2044.7012,-136.0473 2079.328,-131.4379 2214.5,-110 2368.0722,-85.6439 2553.6308,-71.5538 2627.2006,-66.57"/>
<polygon fill="#191970" stroke="#191970" points="2627.8811,-70.0325 2637.6259,-65.8744 2627.415,-63.048 2627.8811,-70.0325"/>
</g>
<!-- Node48&#45;&gt;Node33 -->
<g id="edge86" class="edge">
<title>Node48&#45;&gt;Node33</title>
<path fill="none" stroke="#191970" d="M1398.6781,-252.6055C1541.0513,-248.5619 1820.88,-236.6235 1913.5,-204 1935.2419,-196.3419 1934.6985,-182.4868 1956.5,-175 2019.2243,-153.46 2460.7094,-133.8434 2629.813,-127.0367"/>
<polygon fill="#191970" stroke="#191970" points="2629.9781,-130.533 2639.8301,-126.6357 2629.698,-123.5386 2629.9781,-130.533"/>
</g>
<!-- Node48&#45;&gt;Node34 -->
<g id="edge87" class="edge">
<title>Node48&#45;&gt;Node34</title>
<path fill="none" stroke="#191970" d="M1315.5137,-245.1507C1320.0745,-223.9756 1331.2694,-171.999 1337.3713,-143.669"/>
<polygon fill="#191970" stroke="#191970" points="1340.8205,-144.2774 1339.5046,-133.7646 1333.9774,-142.8034 1340.8205,-144.2774"/>
</g>
<!-- Node49 -->
<g id="node36" class="node">
<title>Node49</title>
<g id="a_node36"><a xlink:href="numerics_8hpp.html" target="_top" xlink:title="../utils/numerics.hpp">
<polygon fill="#ffffff" stroke="#000000" points="961.0371,-115.5 961.0371,-133.5 1065.9629,-133.5 1065.9629,-115.5 961.0371,-115.5"/>
<text text-anchor="middle" x="1013.5" y="-121.5" font-family="Helvetica,sans-Serif" font-size="10.00" fill="#000000">../utils/numerics.hpp</text>
</a>
</g>
</g>
<!-- Node48&#45;&gt;Node49 -->
<g id="edge76" class="edge">
<title>Node48&#45;&gt;Node49</title>
<path fill="none" stroke="#191970" d="M1271.015,-245.4173C1235.495,-237.0316 1183.9701,-223.0008 1141.5,-204 1101.0927,-185.9221 1058.177,-157.0072 1033.7244,-139.481"/>
<polygon fill="#191970" stroke="#191970" points="1035.7396,-136.6189 1025.5898,-133.5804 1031.6294,-142.2852 1035.7396,-136.6189"/>
</g>
<!-- Node49&#45;&gt;Node4 -->
<g id="edge79" class="edge">
<title>Node49&#45;&gt;Node4</title>
<path fill="none" stroke="#191970" d="M1004.4826,-115.1785C989.2717,-100.0412 956.8921,-70.2733 923.5,-55 859.6889,-25.8132 777.16,-15.2384 732.2147,-11.4891"/>
<polygon fill="#191970" stroke="#191970" points="732.3984,-7.993 722.1587,-10.7129 731.8596,-14.9722 732.3984,-7.993"/>
</g>
<!-- Node49&#45;&gt;Node25 -->
<g id="edge77" class="edge">
<title>Node49&#45;&gt;Node25</title>
<path fill="none" stroke="#191970" d="M960.7387,-115.9672C885.3513,-103.7751 748.5406,-81.6494 681.5624,-70.8174"/>
<polygon fill="#191970" stroke="#191970" points="681.863,-67.3206 671.4325,-69.1791 680.7454,-74.2308 681.863,-67.3206"/>
</g>
<!-- Node49&#45;&gt;Node27 -->
<g id="edge83" class="edge">
<title>Node49&#45;&gt;Node27</title>
<path fill="none" stroke="#191970" d="M1066.0567,-121.7286C1125.9426,-118.6245 1226.7531,-113.5624 1313.5,-110 1838.271,-88.4495 2478.4392,-69.6865 2627.4565,-65.4115"/>
<polygon fill="#191970" stroke="#191970" points="2627.816,-68.9027 2637.7118,-65.118 2627.6157,-61.9056 2627.816,-68.9027"/>
</g>
<!-- Node49&#45;&gt;Node31 -->
<g id="edge80" class="edge">
<title>Node49&#45;&gt;Node31</title>
<path fill="none" stroke="#191970" d="M994.8189,-115.3873C974.3819,-105.418 941.4208,-89.3394 918.0227,-77.9257"/>
<polygon fill="#191970" stroke="#191970" points="919.476,-74.7405 908.9538,-73.5019 916.407,-81.0319 919.476,-74.7405"/>
</g>
<!-- Node49&#45;&gt;Node32 -->
<g id="edge82" class="edge">
<title>Node49&#45;&gt;Node32</title>
<path fill="none" stroke="#191970" d="M985.5921,-115.4982C956.2624,-106.0307 908.5269,-90.6018 858.4795,-74.3119"/>
<polygon fill="#191970" stroke="#191970" points="859.3708,-70.9213 848.7785,-71.153 857.2034,-77.5773 859.3708,-70.9213"/>
</g>
<!-- Node50 -->
<g id="node37" class="node">
<title>Node50</title>
<polygon fill="#ffffff" stroke="#bfbfbf" points="970.8843,-55.5 970.8843,-73.5 1014.1157,-73.5 1014.1157,-55.5 970.8843,-55.5"/>
<text text-anchor="middle" x="992.5" y="-61.5" font-family="Helvetica,sans-Serif" font-size="10.00" fill="#000000">cmath</text>
</g>
<!-- Node49&#45;&gt;Node50 -->
<g id="edge78" class="edge">
<title>Node49&#45;&gt;Node50</title>
<path fill="none" stroke="#191970" d="M1010.3106,-115.3873C1007.3503,-106.9293 1002.8509,-94.074 999.1153,-83.4007"/>
<polygon fill="#191970" stroke="#191970" points="1002.3265,-81.9808 995.7195,-73.6985 995.7195,-84.2933 1002.3265,-81.9808"/>
</g>
<!-- Node51 -->
<g id="node38" class="node">
<title>Node51</title>
<polygon fill="#ffffff" stroke="#bfbfbf" points="1031.7168,-55.5 1031.7168,-73.5 1083.2832,-73.5 1083.2832,-55.5 1031.7168,-55.5"/>
<text text-anchor="middle" x="1057.5" y="-61.5" font-family="Helvetica,sans-Serif" font-size="10.00" fill="#000000">numeric</text>
</g>
<!-- Node49&#45;&gt;Node51 -->
<g id="edge81" class="edge">
<title>Node49&#45;&gt;Node51</title>
<path fill="none" stroke="#191970" d="M1020.1827,-115.3873C1026.6436,-106.5769 1036.6036,-92.9951 1044.6092,-82.0784"/>
<polygon fill="#191970" stroke="#191970" points="1047.6632,-83.8323 1050.7545,-73.6985 1042.0184,-79.6927 1047.6632,-83.8323"/>
</g>
<!-- Node52&#45;&gt;Node3 -->
<g id="edge90" class="edge">
<title>Node52&#45;&gt;Node3</title>
<path fill="none" stroke="#191970" d="M2797.6905,-366.288C2653.8249,-358.6219 2342.8485,-334.7223 2261.5,-269 2226.576,-240.7845 2258.9531,-203.7887 2224.5,-175 2161.5603,-122.4082 2123.6813,-156.2703 2043.5,-139 1987.7475,-126.9914 1974.6518,-119.9759 1918.5,-110 1817.0435,-91.9753 1698.5085,-78.6317 1624.4612,-71.2069"/>
<polygon fill="#191970" stroke="#191970" points="1624.6115,-67.7047 1614.3144,-70.1986 1623.9193,-74.6704 1624.6115,-67.7047"/>
</g>
<!-- Node52&#45;&gt;Node5 -->
<g id="edge111" class="edge">
<title>Node52&#45;&gt;Node5</title>
<path fill="none" stroke="#191970" d="M2940.5064,-360.4798C3040.1476,-345.4936 3212.5,-311.3544 3212.5,-254.5 3212.5,-254.5 3212.5,-254.5 3212.5,-124.5 3212.5,-75.3567 3172.5188,-72.2434 3126.5,-55 3069.8309,-33.7658 2141.6091,-14.1443 1944.9335,-10.2131"/>
<polygon fill="#191970" stroke="#191970" points="1944.8982,-6.7118 1934.8306,-10.0122 1944.759,-13.7104 1944.8982,-6.7118"/>
</g>
<!-- Node52&#45;&gt;Node27 -->
<g id="edge112" class="edge">
<title>Node52&#45;&gt;Node27</title>
<path fill="none" stroke="#191970" d="M2889.9992,-360.3404C2905.0827,-352.2408 2926.3026,-339.3447 2941.5,-324 2989.0977,-275.941 3003.7947,-234.9654 2972.5,-175 2961.7418,-154.3856 2911.6129,-119.7435 2890.5,-110 2824.0159,-79.3179 2737.4651,-69.2963 2691.4864,-66.0443"/>
<polygon fill="#191970" stroke="#191970" points="2691.4457,-62.5346 2681.2417,-65.3856 2690.9964,-69.5202 2691.4457,-62.5346"/>
</g>
<!-- Node52&#45;&gt;Node33 -->
<g id="edge109" class="edge">
<title>Node52&#45;&gt;Node33</title>
<path fill="none" stroke="#191970" d="M2884.5739,-360.3704C2895.7053,-352.015 2911.4474,-338.7379 2921.5,-324 2959.516,-268.2659 2993.3211,-227.1331 2950.5,-175 2926.9999,-146.3895 2828.8729,-133.7087 2761.4332,-128.2909"/>
<polygon fill="#191970" stroke="#191970" points="2761.5428,-124.7891 2751.304,-127.5128 2761.0066,-131.7686 2761.5428,-124.7891"/>
</g>
<!-- Node52&#45;&gt;Node36 -->
<g id="edge108" class="edge">
<title>Node52&#45;&gt;Node36</title>
<path fill="none" stroke="#191970" d="M2797.8063,-366.749C2629.7403,-360.1643 2230.8314,-342.6519 2208.5,-324 2174.556,-295.6489 2171.8141,-238.7695 2172.9768,-208.8742"/>
<polygon fill="#191970" stroke="#191970" points="2176.4922,-208.7127 2173.5824,-198.5253 2169.5041,-208.3037 2176.4922,-208.7127"/>
</g>
<!-- Node53 -->
<g id="node40" class="node">
<title>Node53</title>
<g id="a_node40"><a xlink:href="base__graph_8hpp.html" target="_top" xlink:title="base_graph.hpp">
<polygon fill="#ffffff" stroke="#000000" points="2677.3574,-305.5 2677.3574,-323.5 2765.6426,-323.5 2765.6426,-305.5 2677.3574,-305.5"/>
<text text-anchor="middle" x="2721.5" y="-311.5" font-family="Helvetica,sans-Serif" font-size="10.00" fill="#000000">base_graph.hpp</text>
</a>
</g>
</g>
<!-- Node52&#45;&gt;Node53 -->
<g id="edge91" class="edge">
<title>Node52&#45;&gt;Node53</title>
<path fill="none" stroke="#191970" d="M2846.7306,-360.4179C2821.9037,-351.3147 2783.4861,-337.2283 2755.7481,-327.0576"/>
<polygon fill="#191970" stroke="#191970" points="2756.6506,-323.6608 2746.0569,-323.5042 2754.2408,-330.2329 2756.6506,-323.6608"/>
</g>
<!-- Node60 -->
<g id="node45" class="node">
<title>Node60</title>
<polygon fill="#ffffff" stroke="#bfbfbf" points="2837.0347,-180.5 2837.0347,-198.5 2941.9653,-198.5 2941.9653,-180.5 2837.0347,-180.5"/>
<text text-anchor="middle" x="2889.5" y="-186.5" font-family="Helvetica,sans-Serif" font-size="10.00" fill="#000000">EASTL/vector_set.h</text>
</g>
<!-- Node52&#45;&gt;Node60 -->
<g id="edge110" class="edge">
<title>Node52&#45;&gt;Node60</title>
<path fill="none" stroke="#191970" d="M2878.642,-360.4942C2891.4558,-343.6944 2917.907,-305.9241 2927.5,-269 2930.741,-256.5252 2931.5855,-252.2242 2927.5,-240 2923.2928,-227.4115 2914.5767,-215.4439 2906.5524,-206.3213"/>
<polygon fill="#191970" stroke="#191970" points="2908.913,-203.7213 2899.5267,-198.807 2903.7997,-208.502 2908.913,-203.7213"/>
</g>
<!-- Node53&#45;&gt;Node3 -->
<g id="edge92" class="edge">
<title>Node53&#45;&gt;Node3</title>
<path fill="none" stroke="#191970" d="M2677.0739,-312.8156C2570.8835,-308.3865 2308.9603,-294.9293 2279.5,-269 2247.2916,-240.652 2286.8381,-206.3092 2257.5,-175 2189.5327,-102.4663 2141.0438,-129.1284 2043.5,-110 1896.3855,-81.1507 1720.784,-70.4795 1624.5094,-66.6163"/>
<polygon fill="#191970" stroke="#191970" points="1624.4348,-63.1109 1614.3066,-66.2206 1624.1635,-70.1056 1624.4348,-63.1109"/>
</g>
<!-- Node53&#45;&gt;Node4 -->
<g id="edge96" class="edge">
<title>Node53&#45;&gt;Node4</title>
<path fill="none" stroke="#191970" d="M2676.9969,-313.681C2362.9263,-307.8917 491.9175,-273.2472 463.5,-269 311.6759,-246.3089 213.7435,-275.4964 143.5,-139 121.6484,-96.5382 166.3326,-73.1586 210.5,-55 293.5502,-20.8554 570.9747,-12.0958 666.6954,-10.0634"/>
<polygon fill="#191970" stroke="#191970" points="667.0039,-13.558 676.9313,-9.8573 666.8629,-6.5594 667.0039,-13.558"/>
</g>
<!-- Node53&#45;&gt;Node5 -->
<g id="edge97" class="edge">
<title>Node53&#45;&gt;Node5</title>
<path fill="none" stroke="#191970" d="M2765.9123,-310.623C2872.9709,-300.0563 3136.5,-266.2509 3136.5,-189.5 3136.5,-189.5 3136.5,-189.5 3136.5,-124.5 3136.5,-73.6092 3093.3729,-72.2645 3045.5,-55 2940.0467,-16.9701 2127.7706,-10.6089 1944.9582,-9.6554"/>
<polygon fill="#191970" stroke="#191970" points="1944.8105,-6.1547 1934.7931,-9.6047 1944.7754,-13.1547 1944.8105,-6.1547"/>
</g>
<!-- Node53&#45;&gt;Node27 -->
<g id="edge98" class="edge">
<title>Node53&#45;&gt;Node27</title>
<path fill="none" stroke="#191970" d="M2765.8609,-309.7578C2819.0231,-303.2321 2903.9036,-289.865 2927.5,-269 2959.7204,-240.5093 2974.9252,-210.4018 2950.5,-175 2946.6072,-169.3578 2765.9888,-103.2108 2691.3039,-76.0404"/>
<polygon fill="#191970" stroke="#191970" points="2692.0921,-72.6029 2681.498,-72.4756 2689.7004,-79.1816 2692.0921,-72.6029"/>
</g>
<!-- Node54 -->
<g id="node41" class="node">
<title>Node54</title>
<g id="a_node41"><a xlink:href="simple__bimap_8hpp.html" target="_top" xlink:title="../utils/simple_bimap.hpp">
<polygon fill="#ffffff" stroke="#000000" points="2658.4731,-245.5 2658.4731,-263.5 2784.5269,-263.5 2784.5269,-245.5 2658.4731,-245.5"/>
<text text-anchor="middle" x="2721.5" y="-251.5" font-family="Helvetica,sans-Serif" font-size="10.00" fill="#000000">../utils/simple_bimap.hpp</text>
</a>
</g>
</g>
<!-- Node53&#45;&gt;Node54 -->
<g id="edge93" class="edge">
<title>Node53&#45;&gt;Node54</title>
<path fill="none" stroke="#191970" d="M2721.5,-305.3873C2721.5,-297.0174 2721.5,-284.3414 2721.5,-273.735"/>
<polygon fill="#191970" stroke="#191970" points="2725.0001,-273.6984 2721.5,-263.6985 2718.0001,-273.6985 2725.0001,-273.6984"/>
</g>
<!-- Node55 -->
<g id="node42" class="node">
<title>Node55</title>
<polygon fill="#ffffff" stroke="#bfbfbf" points="2802.1875,-240.5 2802.1875,-268.5 2918.8125,-268.5 2918.8125,-240.5 2802.1875,-240.5"/>
<text text-anchor="start" x="2810.1875" y="-256.5" font-family="Helvetica,sans-Serif" font-size="10.00" fill="#000000">boost/graph/adjacency</text>
<text text-anchor="middle" x="2860.5" y="-246.5" font-family="Helvetica,sans-Serif" font-size="10.00" fill="#000000">_list.hpp</text>
</g>
<!-- Node53&#45;&gt;Node55 -->
<g id="edge95" class="edge">
<title>Node53&#45;&gt;Node55</title>
<path fill="none" stroke="#191970" d="M2742.6111,-305.3873C2762.7468,-296.6956 2793.6404,-283.3602 2818.7511,-272.5211"/>
<polygon fill="#191970" stroke="#191970" points="2820.2633,-275.6806 2828.0573,-268.504 2817.4891,-269.2538 2820.2633,-275.6806"/>
</g>
<!-- Node56 -->
<g id="node43" class="node">
<title>Node56</title>
<g id="a_node43"><a xlink:href="base__graph__impl_8hpp.html" target="_top" xlink:title="base_graph_impl.hpp">
<polygon fill="#ffffff" stroke="#ff0000" points="2528.4092,-245.5 2528.4092,-263.5 2640.5908,-263.5 2640.5908,-245.5 2528.4092,-245.5"/>
<text text-anchor="middle" x="2584.5" y="-251.5" font-family="Helvetica,sans-Serif" font-size="10.00" fill="#000000">base_graph_impl.hpp</text>
</a>
</g>
</g>
<!-- Node53&#45;&gt;Node56 -->
<g id="edge99" class="edge">
<title>Node53&#45;&gt;Node56</title>
<path fill="none" stroke="#191970" d="M2700.6926,-305.3873C2677.727,-295.3294 2640.5629,-279.0531 2614.463,-267.6225"/>
<polygon fill="#191970" stroke="#191970" points="2615.6184,-264.3076 2605.0543,-263.5019 2612.8102,-270.7196 2615.6184,-264.3076"/>
</g>
<!-- Node54&#45;&gt;Node33 -->
<g id="edge94" class="edge">
<title>Node54&#45;&gt;Node33</title>
<path fill="none" stroke="#191970" d="M2728.6282,-245.4986C2739.5271,-230.5724 2758.0185,-199.8776 2747.5,-175 2741.4858,-160.7758 2729.2883,-148.5842 2718.2177,-139.7451"/>
<polygon fill="#191970" stroke="#191970" points="2720.1952,-136.8534 2710.0927,-133.6612 2715.9995,-142.4567 2720.1952,-136.8534"/>
</g>
<!-- Node56&#45;&gt;Node9 -->
<g id="edge103" class="edge">
<title>Node56&#45;&gt;Node9</title>
<path fill="none" stroke="#191970" d="M2528.3186,-247.7581C2502.5159,-244.9099 2471.4934,-241.8339 2443.5,-240 1880.48,-203.1152 1736.8013,-250.5749 1174.5,-204 976.1467,-187.5706 741.7142,-149.4089 643.9379,-132.6453"/>
<polygon fill="#191970" stroke="#191970" points="644.2514,-129.1479 633.8025,-130.9002 643.0635,-136.0464 644.2514,-129.1479"/>
</g>
<!-- Node56&#45;&gt;Node23 -->
<g id="edge104" class="edge">
<title>Node56&#45;&gt;Node23</title>
<path fill="none" stroke="#191970" d="M2528.3221,-247.7033C2502.5202,-244.8441 2471.4972,-241.7746 2443.5,-240 1781.5244,-198.0407 1614.0811,-234.9621 951.5,-204 898.4676,-201.5218 837.9649,-197.1557 795.7514,-193.8602"/>
<polygon fill="#191970" stroke="#191970" points="795.941,-190.3644 785.6971,-193.0685 795.3915,-197.3428 795.941,-190.3644"/>
</g>
<!-- Node56&#45;&gt;Node27 -->
<g id="edge107" class="edge">
<title>Node56&#45;&gt;Node27</title>
<path fill="none" stroke="#191970" d="M2618.7327,-245.4448C2655.2656,-235.2482 2710.1053,-218.2427 2726.5,-204 2751.112,-182.6186 2752.7196,-170.6604 2760.5,-139 2763.5759,-126.4835 2767.4961,-120.8249 2760.5,-110 2745.3141,-86.503 2714.773,-75.018 2691.2317,-69.4808"/>
<polygon fill="#191970" stroke="#191970" points="2691.8194,-66.0279 2681.313,-67.3936 2690.3779,-72.8779 2691.8194,-66.0279"/>
</g>
<!-- Node56&#45;&gt;Node33 -->
<g id="edge105" class="edge">
<title>Node56&#45;&gt;Node33</title>
<path fill="none" stroke="#191970" d="M2618.3952,-245.4312C2651.658,-235.7651 2698.8984,-219.7171 2709.5,-204 2721.8162,-185.7409 2713.7347,-159.9394 2705.6579,-142.7371"/>
<polygon fill="#191970" stroke="#191970" points="2708.7212,-141.0398 2701.0572,-133.7244 2702.4865,-144.2224 2708.7212,-141.0398"/>
</g>
<!-- Node59 -->
<g id="node44" class="node">
<title>Node59</title>
<g id="a_node44"><a xlink:href="cycles_8hpp.html" target="_top" xlink:title="../algorithm/graph\l/cycles.hpp">
<polygon fill="#ffffff" stroke="#000000" points="1369.5913,-175.5 1369.5913,-203.5 1463.4087,-203.5 1463.4087,-175.5 1369.5913,-175.5"/>
<text text-anchor="start" x="1377.5913" y="-191.5" font-family="Helvetica,sans-Serif" font-size="10.00" fill="#000000">../algorithm/graph</text>
<text text-anchor="middle" x="1416.5" y="-181.5" font-family="Helvetica,sans-Serif" font-size="10.00" fill="#000000">/cycles.hpp</text>
</a>
</g>
</g>
<!-- Node56&#45;&gt;Node59 -->
<g id="edge100" class="edge">
<title>Node56&#45;&gt;Node59</title>
<path fill="none" stroke="#191970" d="M2528.311,-247.8704C2502.5068,-245.0449 2471.4852,-241.9556 2443.5,-240 2016.0642,-210.1304 1901.5903,-265.6106 1473.8715,-203.9679"/>
<polygon fill="#191970" stroke="#191970" points="1474.109,-200.4657 1463.7094,-202.4899 1473.1015,-207.3928 1474.109,-200.4657"/>
</g>
<!-- Node56&#45;&gt;Node60 -->
<g id="edge106" class="edge">
<title>Node56&#45;&gt;Node60</title>
<path fill="none" stroke="#191970" d="M2624.7001,-245.4304C2632.9005,-243.609 2641.4743,-241.7253 2649.5,-240 2726.7073,-223.4025 2746.2661,-220.4731 2823.5,-204 2828.4641,-202.9412 2833.6354,-201.8261 2838.8022,-200.7041"/>
<polygon fill="#191970" stroke="#191970" points="2839.6522,-204.101 2848.6767,-198.5505 2838.1606,-197.2618 2839.6522,-204.101"/>
</g>
<!-- Node59&#45;&gt;Node3 -->
<g id="edge101" class="edge">
<title>Node59&#45;&gt;Node3</title>
<path fill="none" stroke="#191970" d="M1431.8366,-175.4039C1457.2704,-152.0272 1508.0307,-105.3725 1534.8906,-80.6851"/>
<polygon fill="#191970" stroke="#191970" points="1537.4105,-83.1228 1542.4046,-73.7789 1532.6735,-77.969 1537.4105,-83.1228"/>
</g>
<!-- Node59&#45;&gt;Node49 -->
<g id="edge102" class="edge">
<title>Node59&#45;&gt;Node49</title>
<path fill="none" stroke="#191970" d="M1369.4821,-181.9165C1296.9048,-170.2104 1157.5037,-147.7264 1076.3502,-134.6371"/>
<polygon fill="#191970" stroke="#191970" points="1076.6966,-131.1478 1066.2669,-133.0108 1075.5819,-138.0585 1076.6966,-131.1478"/>
</g>
<!-- Node61&#45;&gt;Node3 -->
<g id="edge115" class="edge">
<title>Node61&#45;&gt;Node3</title>
<path fill="none" stroke="#191970" d="M2098.1646,-360.3947C2076.6207,-351.7534 2043.9103,-338.0337 2016.5,-324 1901.3644,-265.0522 1879.5735,-237.8128 1766.5,-175 1700.5132,-138.344 1621.1731,-98.4365 1580.127,-78.0917"/>
<polygon fill="#191970" stroke="#191970" points="1581.5354,-74.8837 1571.0201,-73.5877 1578.4321,-81.1582 1581.5354,-74.8837"/>
</g>
<!-- Node61&#45;&gt;Node5 -->
<g id="edge120" class="edge">
<title>Node61&#45;&gt;Node5</title>
<path fill="none" stroke="#191970" d="M2192.2142,-366.7879C2349.9669,-360.4628 2726.6482,-343.7611 2852.5,-324 2950.3642,-308.6335 2979.1449,-311.7691 3068.5,-269 3121.6178,-243.5756 3174.5,-248.3889 3174.5,-189.5 3174.5,-189.5 3174.5,-189.5 3174.5,-124.5 3174.5,-74.6622 3133.2555,-72.2549 3086.5,-55 2977.2558,-14.684 2131.2641,-10.0902 1944.7871,-9.5672"/>
<polygon fill="#191970" stroke="#191970" points="1944.6919,-6.067 1934.6829,-9.5411 1944.6738,-13.067 1944.6919,-6.067"/>
</g>
<!-- Node61&#45;&gt;Node26 -->
<g id="edge119" class="edge">
<title>Node61&#45;&gt;Node26</title>
<path fill="none" stroke="#191970" d="M2100.7,-360.4522C2083.665,-352.419 2059.5207,-339.5578 2041.5,-324 2018.0134,-303.7233 2011.2943,-297.2679 1998.5,-269 1989.7475,-249.6621 1986.1014,-225.4506 1984.5829,-208.8588"/>
<polygon fill="#191970" stroke="#191970" points="1988.0629,-208.4576 1983.835,-198.743 1981.0819,-208.9739 1988.0629,-208.4576"/>
</g>
<!-- Node61&#45;&gt;Node27 -->
<g id="edge123" class="edge">
<title>Node61&#45;&gt;Node27</title>
<path fill="none" stroke="#191970" d="M2192.3063,-366.6124C2337.4958,-360.3559 2664.5177,-344.4496 2774.5,-324 2856.3239,-308.786 2896.3435,-329.4959 2953.5,-269 2982.604,-238.1956 2992.4262,-210.6418 2969.5,-175 2948.6262,-142.5489 2925.0031,-156.2721 2890.5,-139 2866.4893,-126.9803 2862.4807,-119.8464 2837.5,-110 2787.9396,-90.4652 2727.2846,-77.0535 2691.1052,-70.0899"/>
<polygon fill="#191970" stroke="#191970" points="2691.6153,-66.6246 2681.1408,-68.2166 2690.3219,-73.5041 2691.6153,-66.6246"/>
</g>
<!-- Node61&#45;&gt;Node31 -->
<g id="edge118" class="edge">
<title>Node61&#45;&gt;Node31</title>
<path fill="none" stroke="#191970" d="M2050.9005,-364.7462C1866.8449,-351.8574 1375.7928,-314.1625 1219.5,-269 1092.7025,-232.3605 1056.3082,-220.5102 952.5,-139 931.922,-122.8422 913.4696,-98.8295 902.1517,-82.4639"/>
<polygon fill="#191970" stroke="#191970" points="904.8322,-80.1775 896.3501,-73.8289 899.0218,-84.0813 904.8322,-80.1775"/>
</g>
<!-- Node61&#45;&gt;Node33 -->
<g id="edge117" class="edge">
<title>Node61&#45;&gt;Node33</title>
<path fill="none" stroke="#191970" d="M2172.0786,-360.4501C2242.5895,-346.6747 2373.3741,-316.873 2476.5,-269 2497.4082,-259.294 2498.3535,-249.1752 2519.5,-240 2585.1732,-211.505 2625.6471,-254.3877 2676.5,-204 2692.3692,-188.276 2695.906,-161.8273 2696.2769,-143.7903"/>
<polygon fill="#191970" stroke="#191970" points="2699.7746,-143.5465 2696.1711,-133.5834 2692.775,-143.6192 2699.7746,-143.5465"/>
</g>
<!-- Node61&#45;&gt;Node53 -->
<g id="edge116" class="edge">
<title>Node61&#45;&gt;Node53</title>
<path fill="none" stroke="#191970" d="M2192.092,-363.0291C2313.1804,-351.9293 2557.9522,-329.4919 2666.9745,-319.4982"/>
<polygon fill="#191970" stroke="#191970" points="2667.4539,-322.969 2677.0926,-318.5707 2666.8148,-315.9982 2667.4539,-322.969"/>
</g>
<!-- Node61&#45;&gt;Node59 -->
<g id="edge114" class="edge">
<title>Node61&#45;&gt;Node59</title>
<path fill="none" stroke="#191970" d="M2050.8588,-360.5012C1995.208,-352.7569 1915.8743,-340.2637 1847.5,-324 1706.3593,-290.428 1544.0172,-235.096 1464.9054,-207.0167"/>
<polygon fill="#191970" stroke="#191970" points="1465.8142,-203.625 1455.2195,-203.5672 1463.4657,-210.2193 1465.8142,-203.625"/>
</g>
<!-- Node62 -->
<g id="node47" class="node">
<title>Node62</title>
<polygon fill="#ffffff" stroke="#bfbfbf" points="2050.8301,-305.5 2050.8301,-323.5 2080.1699,-323.5 2080.1699,-305.5 2050.8301,-305.5"/>
<text text-anchor="middle" x="2065.5" y="-311.5" font-family="Helvetica,sans-Serif" font-size="10.00" fill="#000000">set</text>
</g>
<!-- Node61&#45;&gt;Node62 -->
<g id="edge121" class="edge">
<title>Node61&#45;&gt;Node62</title>
<path fill="none" stroke="#191970" d="M2112.2527,-360.4179C2104.1145,-352.425 2092.0647,-340.5903 2082.2366,-330.9377"/>
<polygon fill="#191970" stroke="#191970" points="2084.5352,-328.2895 2074.9482,-323.7795 2079.6302,-333.2836 2084.5352,-328.2895"/>
</g>
<!-- Node63 -->
<g id="node48" class="node">
<title>Node63</title>
<polygon fill="#ffffff" stroke="#bfbfbf" points="2098.0986,-305.5 2098.0986,-323.5 2156.9014,-323.5 2156.9014,-305.5 2098.0986,-305.5"/>
<text text-anchor="middle" x="2127.5" y="-311.5" font-family="Helvetica,sans-Serif" font-size="10.00" fill="#000000">stdexcept</text>
</g>
<!-- Node61&#45;&gt;Node63 -->
<g id="edge122" class="edge">
<title>Node61&#45;&gt;Node63</title>
<path fill="none" stroke="#191970" d="M2122.4908,-360.4179C2123.2764,-353.2164 2124.4022,-342.8962 2125.3877,-333.8632"/>
<polygon fill="#191970" stroke="#191970" points="2128.8825,-334.1001 2126.4877,-323.7795 2121.9238,-333.3409 2128.8825,-334.1001"/>
</g>
<!-- Node64&#45;&gt;Node23 -->
<g id="edge125" class="edge">
<title>Node64&#45;&gt;Node23</title>
<path fill="none" stroke="#191970" d="M863.0336,-245.462C839.2416,-234.4158 798.7727,-215.6266 771.3567,-202.8977"/>
<polygon fill="#191970" stroke="#191970" points="772.7964,-199.7074 762.2524,-198.6708 769.8486,-206.0565 772.7964,-199.7074"/>
</g>
<!-- Node64&#45;&gt;Node25 -->
<g id="edge126" class="edge">
<title>Node64&#45;&gt;Node25</title>
<path fill="none" stroke="#191970" d="M874.7113,-245.2943C860.4097,-228.934 828.3145,-194.6695 794.5,-175 750.3999,-149.3475 725.0688,-171.2051 685.5,-139 667.6377,-124.4619 655.6916,-100.4033 649.0159,-83.5708"/>
<polygon fill="#191970" stroke="#191970" points="652.128,-81.8943 645.3809,-73.7256 645.5612,-84.3189 652.128,-81.8943"/>
</g>
<!-- Node64&#45;&gt;Node27 -->
<g id="edge128" class="edge">
<title>Node64&#45;&gt;Node27</title>
<path fill="none" stroke="#191970" d="M961.5088,-250.7661C1180.4106,-240.341 1779.9485,-211.2132 1799.5,-204 1819.432,-196.6464 1818.6167,-184.7355 1837.5,-175 1924.34,-130.2285 1951.5048,-128.1823 2047.5,-110 2160.5856,-88.5807 2518.7053,-70.907 2627.7094,-65.9131"/>
<polygon fill="#191970" stroke="#191970" points="2627.9211,-69.4072 2637.7519,-65.4568 2627.6033,-62.4144 2627.9211,-69.4072"/>
</g>
<!-- Node64&#45;&gt;Node31 -->
<g id="edge127" class="edge">
<title>Node64&#45;&gt;Node31</title>
<path fill="none" stroke="#191970" d="M880.8247,-245.2324C879.0908,-235.1338 876.4989,-218.4815 875.5,-204 872.5227,-160.836 880.8983,-110.4118 886.3059,-83.5825"/>
<polygon fill="#191970" stroke="#191970" points="889.7683,-84.1249 888.3999,-73.6188 882.9179,-82.6851 889.7683,-84.1249"/>
</g>
</g>
</svg>
        <g id="navigator" transform="translate(0 0)" fill="#404254">
                <rect fill="#f2f5e9" fill-opacity="0.5" stroke="#606060" stroke-width=".5" x="0" y="0" width="60" height="60"/>
                <use id="zoomplus" xlink:href="#zoomPlus" x="17" y="9" onmousedown="handleZoom(evt,'in')"/>
                <use id="zoomminus" xlink:href="#zoomMin" x="42" y="9" onmousedown="handleZoom(evt,'out')"/>
                <use id="reset" xlink:href="#resetDef" x="30" y="36" onmousedown="handleReset()"/>
                <g id="arrowUp" xlink:href="#dirArrow" transform="translate(30 24)" onmousedown="handlePan(0,-1)">
                  <use xlink:href="#rim" fill="#404040">
                        <set attributeName="fill" to="#808080" begin="arrowUp.mouseover" end="arrowUp.mouseout"/>
                  </use>
                  <path fill="none" stroke="white" stroke-width="1.5" d="M0,-3.0v7 M-2.5,-0.5L0,-3.0L2.5,-0.5"/>
                </g>
                <g id="arrowRight" xlink:href="#dirArrow" transform="rotate(90) translate(36 -43)" onmousedown="handlePan(1,0)">
                  <use xlink:href="#rim" fill="#404040">
                        <set attributeName="fill" to="#808080" begin="arrowRight.mouseover" end="arrowRight.mouseout"/>
                  </use>
                  <path fill="none" stroke="white" stroke-width="1.5" d="M0,-3.0v7 M-2.5,-0.5L0,-3.0L2.5,-0.5"/>
                </g>
                <g id="arrowDown" xlink:href="#dirArrow" transform="rotate(180) translate(-30 -48)" onmousedown="handlePan(0,1)">
                  <use xlink:href="#rim" fill="#404040">
                        <set attributeName="fill" to="#808080" begin="arrowDown.mouseover" end="arrowDown.mouseout"/>
                  </use>
                  <path fill="none" stroke="white" stroke-width="1.5" d="M0,-3.0v7 M-2.5,-0.5L0,-3.0L2.5,-0.5"/>
                </g>
                <g id="arrowLeft" xlink:href="#dirArrow" transform="rotate(270) translate(-36 17)" onmousedown="handlePan(-1,0)">
                  <use xlink:href="#rim" fill="#404040">
                        <set attributeName="fill" to="#808080" begin="arrowLeft.mouseover" end="arrowLeft.mouseout"/>
                  </use>
                  <path fill="none" stroke="white" stroke-width="1.5" d="M0,-3.0v7 M-2.5,-0.5L0,-3.0L2.5,-0.5"/>
                </g>
        </g>
        <svg viewBox="0 0 15 15" width="100%" height="30px" preserveAspectRatio="xMaxYMin meet">
         <g id="arrow_out" transform="scale(0.3 0.3)">
          <a xlink:href="cherrypicker_8cpp__incl_org.svg" target="_base">
           <rect id="button" ry="5" rx="5" y="6" x="6" height="38" width="38"
                fill="#f2f5e9" fill-opacity="0.5" stroke="#606060" stroke-width="1.0"/>
           <path id="arrow"
             d="M 11.500037,31.436501 C 11.940474,20.09759 22.043105,11.32322 32.158766,21.979434 L 37.068811,17.246167 C 37.068811,17.246167 37.088388,32 37.088388,32 L 22.160133,31.978069 C 22.160133,31.978069 26.997745,27.140456 26.997745,27.140456 C 18.528582,18.264221 13.291696,25.230495 11.500037,31.436501 z"
             style="fill:#404040;"/>
          </a>
         </g>
        </svg>
</svg>
