<?xml version="1.0" encoding="UTF-8" standalone="no"?>
<!DOCTYPE svg PUBLIC "-//W3C//DTD SVG 1.1//EN"
 "http://www.w3.org/Graphics/SVG/1.1/DTD/svg11.dtd">
<!-- Generated by graphviz version 2.40.1 (20161225.0304)
 -->
<!-- Title: include/indigox/algorithm/cherrypicker.hpp Pages: 1 -->
<svg width="248pt" height="92pt"
 viewBox="0.00 0.00 247.76 92.00" xmlns="http://www.w3.org/2000/svg" xmlns:xlink="http://www.w3.org/1999/xlink">
<g id="graph0" class="graph" transform="scale(1 1) rotate(0) translate(4 88)">
<title>include/indigox/algorithm/cherrypicker.hpp</title>
<polygon fill="#ffffff" stroke="transparent" points="-4,4 -4,-88 243.7559,-88 243.7559,4 -4,4"/>
<!-- Node38 -->
<g id="node1" class="node">
<title>Node38</title>
<polygon fill="#bfbfbf" stroke="#000000" points="75.3818,-55.5 75.3818,-83.5 201.4453,-83.5 201.4453,-55.5 75.3818,-55.5"/>
<text text-anchor="start" x="83.3818" y="-71.5" font-family="Helvetica,sans-Serif" font-size="10.00" fill="#000000">include/indigox/algorithm</text>
<text text-anchor="middle" x="138.4136" y="-61.5" font-family="Helvetica,sans-Serif" font-size="10.00" fill="#000000">/cherrypicker.hpp</text>
</g>
<!-- Node39 -->
<g id="node2" class="node">
<title>Node39</title>
<g id="a_node2"><a xlink:href="cherrypicker_8cpp.html" target="_top" xlink:title="src/algorithm/cherrypicker.cpp">
<polygon fill="#ffffff" stroke="#000000" points="0,-.5 0,-18.5 148.8271,-18.5 148.8271,-.5 0,-.5"/>
<text text-anchor="middle" x="74.4136" y="-6.5" font-family="Helvetica,sans-Serif" font-size="10.00" fill="#000000">src/algorithm/cherrypicker.cpp</text>
</a>
</g>
</g>
<!-- Node38&#45;&gt;Node39 -->
<g id="edge1" class="edge">
<title>Node38&#45;&gt;Node39</title>
<path fill="none" stroke="#191970" d="M115.7067,-48.2123C104.8639,-38.0471 92.4623,-26.4206 84.1034,-18.5842"/>
<polygon fill="#191970" stroke="#191970" points="113.5573,-50.9948 123.2465,-55.2808 118.3449,-45.888 113.5573,-50.9948"/>
</g>
<!-- Node40 -->
<g id="node3" class="node">
<title>Node40</title>
<g id="a_node3"><a xlink:href="main_8cpp.html" target="_top" xlink:title="src/main.cpp">
<polygon fill="#ffffff" stroke="#000000" points="167.0713,-.5 167.0713,-18.5 239.7559,-18.5 239.7559,-.5 167.0713,-.5"/>
<text text-anchor="middle" x="203.4136" y="-6.5" font-family="Helvetica,sans-Serif" font-size="10.00" fill="#000000">src/main.cpp</text>
</a>
</g>
</g>
<!-- Node38&#45;&gt;Node40 -->
<g id="edge2" class="edge">
<title>Node38&#45;&gt;Node40</title>
<path fill="none" stroke="#191970" d="M161.4752,-48.2123C172.4875,-38.0471 185.0829,-26.4206 193.5724,-18.5842"/>
<polygon fill="#191970" stroke="#191970" points="158.7917,-45.9262 153.8177,-55.2808 163.5397,-51.0698 158.7917,-45.9262"/>
</g>
</g>
</svg>
