<?xml version="1.0" encoding="UTF-8" standalone="no"?>
<!DOCTYPE svg PUBLIC "-//W3C//DTD SVG 1.1//EN"
 "http://www.w3.org/Graphics/SVG/1.1/DTD/svg11.dtd">
<!-- Generated by graphviz version 2.40.1 (20161225.0304)
 -->
<!-- Title: MolecularGraph Pages: 1 -->
<svg width="183pt" height="178pt"
 viewBox="0.00 0.00 183.44 178.00" xmlns="http://www.w3.org/2000/svg" xmlns:xlink="http://www.w3.org/1999/xlink">
<g id="graph0" class="graph" transform="scale(1 1) rotate(0) translate(4 174)">
<title>MolecularGraph</title>
<polygon fill="#ffffff" stroke="transparent" points="-4,4 -4,-174 179.4365,-174 179.4365,4 -4,4"/>
<!-- Node3 -->
<g id="node1" class="node">
<title>Node3</title>
<polygon fill="#bfbfbf" stroke="#000000" points="28.208,-.5 28.208,-18.5 115.3506,-18.5 115.3506,-.5 28.208,-.5"/>
<text text-anchor="middle" x="71.7793" y="-6.5" font-family="Helvetica,sans-Serif" font-size="10.00" fill="#000000">MolecularGraph</text>
</g>
<!-- Node4 -->
<g id="node2" class="node">
<title>Node4</title>
<g id="a_node2"><a xlink:href="classindigox_1_1graph_1_1_base_graph.html" target="_top" xlink:title="BaseGraph\&lt; MGVertex,\l MGEdge, MolecularGraph \&gt;">
<polygon fill="#ffffff" stroke="#000000" points="0,-56.5 0,-84.5 143.5586,-84.5 143.5586,-56.5 0,-56.5"/>
<text text-anchor="start" x="8" y="-72.5" font-family="Helvetica,sans-Serif" font-size="10.00" fill="#000000">BaseGraph&lt; MGVertex,</text>
<text text-anchor="middle" x="71.7793" y="-62.5" font-family="Helvetica,sans-Serif" font-size="10.00" fill="#000000"> MGEdge, MolecularGraph &gt;</text>
</a>
</g>
</g>
<!-- Node4&#45;&gt;Node3 -->
<g id="edge1" class="edge">
<title>Node4&#45;&gt;Node3</title>
<path fill="none" stroke="#191970" d="M71.7793,-46.1001C71.7793,-36.5157 71.7793,-26.0935 71.7793,-18.831"/>
<polygon fill="#191970" stroke="#191970" points="68.2794,-46.352 71.7793,-56.3521 75.2794,-46.3521 68.2794,-46.352"/>
</g>
<!-- Node5 -->
<g id="node3" class="node">
<title>Node5</title>
<g id="a_node3"><a xlink:href="classindigox_1_1graph_1_1_base_graph.html" target="_top" xlink:title="Template base class for all graphs used in the indigoX library. ">
<polygon fill="#ffffff" stroke="#000000" points="17.6855,-141.5 17.6855,-169.5 125.873,-169.5 125.873,-141.5 17.6855,-141.5"/>
<text text-anchor="start" x="25.6855" y="-157.5" font-family="Helvetica,sans-Serif" font-size="10.00" fill="#000000">BaseGraph&lt; V, E, S,</text>
<text text-anchor="middle" x="71.7793" y="-147.5" font-family="Helvetica,sans-Serif" font-size="10.00" fill="#000000"> D, VP, EP &gt;</text>
</a>
</g>
</g>
<!-- Node5&#45;&gt;Node4 -->
<g id="edge2" class="edge">
<title>Node5&#45;&gt;Node4</title>
<path fill="none" stroke="#ffa500" stroke-dasharray="5,2" d="M71.7793,-131.2752C71.7793,-116.1607 71.7793,-97.2369 71.7793,-84.5569"/>
<polygon fill="#ffa500" stroke="#ffa500" points="68.2794,-131.4639 71.7793,-141.464 75.2794,-131.464 68.2794,-131.4639"/>
<text text-anchor="start" x="71.7793" y="-115" font-family="Helvetica,sans-Serif" font-size="10.00" fill="#000000"> &lt; MGVertex, MGEdge,</text>
<text text-anchor="middle" x="123.6079" y="-105" font-family="Helvetica,sans-Serif" font-size="10.00" fill="#000000"> MolecularGraph &gt;</text>
</g>
</g>
</svg>
