<?xml version="1.0" encoding="UTF-8" standalone="no"?>
<!DOCTYPE svg PUBLIC "-//W3C//DTD SVG 1.1//EN"
 "http://www.w3.org/Graphics/SVG/1.1/DTD/svg11.dtd">
<!-- Generated by graphviz version 2.40.1 (20161225.0304)
 -->
<!-- Title: src/classes/molecule.cpp Pages: 1 -->
<!--zoomable 397 -->
<svg id="main" version="1.1" xmlns="http://www.w3.org/2000/svg" xmlns:xlink="http://www.w3.org/1999/xlink" xml:space="preserve" onload="init(evt)">
<style type="text/css"><![CDATA[
.edge:hover path { stroke: red; }
.edge:hover polygon { stroke: red; fill: red; }
]]></style>
<script type="text/javascript"><![CDATA[
var edges = document.getElementsByTagName('g');
if (edges && edges.length) {
  for (var i=0;i<edges.length;i++) {
    if (edges[i].id.substr(0,4)=='edge') {
      edges[i].setAttribute('class','edge');
    }
  }
}
]]></script>
        <defs>
                <circle id="rim" cx="0" cy="0" r="7"/>
                <circle id="rim2" cx="0" cy="0" r="3.5"/>
                <g id="zoomPlus">
                        <use xlink:href="#rim" fill="#404040">
                                <set attributeName="fill" to="#808080" begin="zoomplus.mouseover" end="zoomplus.mouseout"/>
                        </use>
                        <path d="M-4,0h8M0,-4v8" fill="none" stroke="white" stroke-width="1.5" pointer-events="none"/>
                </g>
                <g id="zoomMin">
                        <use xlink:href="#rim" fill="#404040">
                                <set attributeName="fill" to="#808080" begin="zoomminus.mouseover" end="zoomminus.mouseout"/>
                        </use>
                        <path d="M-4,0h8" fill="none" stroke="white" stroke-width="1.5" pointer-events="none"/>
                </g>
                <g id="dirArrow">
                        <path fill="none" stroke="white" stroke-width="1.5" d="M0,-3.0v7 M-2.5,-0.5L0,-3.0L2.5,-0.5"/>
                </g>
               <g id="resetDef">
                       <use xlink:href="#rim2" fill="#404040">
                               <set attributeName="fill" to="#808080" begin="reset.mouseover" end="reset.mouseout"/>
                       </use>
               </g>
        </defs>

<script type="text/javascript">
var viewWidth = 3813;
var viewHeight = 397;
var sectionId = 'dynsection-0';
</script>
<script xlink:href="svgpan.js"/>
<svg id="graph" class="graph">
<g id="viewport">
<title>src/classes/molecule.cpp</title>
<polygon fill="#ffffff" stroke="transparent" points="-4,4 -4,-393 3808.6992,-393 3808.6992,4 -4,4"/>
<!-- Node0 -->
<g id="node1" class="node">
<title>Node0</title>
<polygon fill="#bfbfbf" stroke="#000000" points="2076.3423,-370.5 2076.3423,-388.5 2203.4946,-388.5 2203.4946,-370.5 2076.3423,-370.5"/>
<text text-anchor="middle" x="2139.9185" y="-376.5" font-family="Helvetica,sans-Serif" font-size="10.00" fill="#000000">src/classes/molecule.cpp</text>
</g>
<!-- Node1 -->
<g id="node2" class="node">
<title>Node1</title>
<g id="a_node2"><a xlink:href="connectivity_8hpp.html" target="_top" xlink:title="indigox/algorithm/graph\l/connectivity.hpp">
<polygon fill="#ffffff" stroke="#000000" points="1177.9434,-120.5 1177.9434,-148.5 1297.8936,-148.5 1297.8936,-120.5 1177.9434,-120.5"/>
<text text-anchor="start" x="1185.9434" y="-136.5" font-family="Helvetica,sans-Serif" font-size="10.00" fill="#000000">indigox/algorithm/graph</text>
<text text-anchor="middle" x="1237.9185" y="-126.5" font-family="Helvetica,sans-Serif" font-size="10.00" fill="#000000">/connectivity.hpp</text>
</a>
</g>
</g>
<!-- Node0&#45;&gt;Node1 -->
<g id="edge1" class="edge">
<title>Node0&#45;&gt;Node1</title>
<path fill="none" stroke="#191970" d="M2076.1333,-378.2234C1932.1308,-374.8444 1585.6232,-363.7909 1472.9185,-334 1408.5371,-316.9823 1389.2736,-311.3936 1337.9185,-269 1299.2103,-237.0464 1267.263,-187.0863 1250.5405,-157.8946"/>
<polygon fill="#191970" stroke="#191970" points="1253.4102,-155.8563 1245.4652,-148.8471 1247.3051,-159.2809 1253.4102,-155.8563"/>
</g>
<!-- Node7 -->
<g id="node8" class="node">
<title>Node7</title>
<g id="a_node8"><a xlink:href="paths_8hpp.html" target="_top" xlink:title="indigox/algorithm/graph\l/paths.hpp">
<polygon fill="#ffffff" stroke="#000000" points="3325.9434,-185.5 3325.9434,-213.5 3445.8936,-213.5 3445.8936,-185.5 3325.9434,-185.5"/>
<text text-anchor="start" x="3333.9434" y="-201.5" font-family="Helvetica,sans-Serif" font-size="10.00" fill="#000000">indigox/algorithm/graph</text>
<text text-anchor="middle" x="3385.9185" y="-191.5" font-family="Helvetica,sans-Serif" font-size="10.00" fill="#000000">/paths.hpp</text>
</a>
</g>
</g>
<!-- Node0&#45;&gt;Node7 -->
<g id="edge8" class="edge">
<title>Node0&#45;&gt;Node7</title>
<path fill="none" stroke="#191970" d="M2203.723,-378.7539C2441.449,-375.7513 3264.5203,-363.2761 3311.9185,-334 3351.8476,-309.3372 3371.8588,-254.9638 3380.4609,-223.4231"/>
<polygon fill="#191970" stroke="#191970" points="3383.8663,-224.2333 3382.953,-213.6779 3377.0845,-222.4989 3383.8663,-224.2333"/>
</g>
<!-- Node8 -->
<g id="node9" class="node">
<title>Node8</title>
<polygon fill="#ffffff" stroke="#bfbfbf" points="3334.1919,-125.5 3334.1919,-143.5 3369.645,-143.5 3369.645,-125.5 3334.1919,-125.5"/>
<text text-anchor="middle" x="3351.9185" y="-131.5" font-family="Helvetica,sans-Serif" font-size="10.00" fill="#000000">map</text>
</g>
<!-- Node0&#45;&gt;Node8 -->
<g id="edge113" class="edge">
<title>Node0&#45;&gt;Node8</title>
<path fill="none" stroke="#191970" d="M2203.7664,-377.7117C2399.3203,-372.0461 2981.8047,-353.7008 3064.9185,-334 3168.7668,-309.3843 3195.6433,-287.6136 3272.9185,-214 3295.1959,-192.7782 3320.0932,-167.4417 3335.8746,-151.1702"/>
<polygon fill="#191970" stroke="#191970" points="3338.4031,-153.5902 3342.8381,-143.9683 3333.3708,-148.7245 3338.4031,-153.5902"/>
</g>
<!-- Node9 -->
<g id="node10" class="node">
<title>Node9</title>
<g id="a_node10"><a xlink:href="angle_8hpp.html" target="_top" xlink:title="indigox/classes/angle.hpp">
<polygon fill="#ffffff" stroke="#000000" points="1640.6577,-190.5 1640.6577,-208.5 1771.1792,-208.5 1771.1792,-190.5 1640.6577,-190.5"/>
<text text-anchor="middle" x="1705.9185" y="-196.5" font-family="Helvetica,sans-Serif" font-size="10.00" fill="#000000">indigox/classes/angle.hpp</text>
</a>
</g>
</g>
<!-- Node0&#45;&gt;Node9 -->
<g id="edge12" class="edge">
<title>Node0&#45;&gt;Node9</title>
<path fill="none" stroke="#191970" d="M2113.4033,-370.3803C2087.9775,-361.5103 2048.5926,-347.4427 2014.9185,-334 1910.8201,-292.4439 1789.4786,-237.7617 1734.9987,-212.8714"/>
<polygon fill="#191970" stroke="#191970" points="1736.1729,-209.5597 1725.6234,-208.5804 1733.2596,-215.9247 1736.1729,-209.5597"/>
</g>
<!-- Node10 -->
<g id="node11" class="node">
<title>Node10</title>
<polygon fill="#ffffff" stroke="#bfbfbf" points="1578.5269,-125.5 1578.5269,-143.5 1617.3101,-143.5 1617.3101,-125.5 1578.5269,-125.5"/>
<text text-anchor="middle" x="1597.9185" y="-131.5" font-family="Helvetica,sans-Serif" font-size="10.00" fill="#000000">array</text>
</g>
<!-- Node0&#45;&gt;Node10 -->
<g id="edge110" class="edge">
<title>Node0&#45;&gt;Node10</title>
<path fill="none" stroke="#191970" d="M2076.3043,-376.1589C1970.2717,-367.2282 1756.7504,-334.4313 1631.9185,-214 1614.9201,-197.6009 1605.973,-171.3282 1601.6015,-153.514"/>
<polygon fill="#191970" stroke="#191970" points="1605.005,-152.6946 1599.4399,-143.6791 1598.1682,-154.1973 1605.005,-152.6946"/>
</g>
<!-- Node11 -->
<g id="node12" class="node">
<title>Node11</title>
<g id="a_node12"><a xlink:href="atom_8hpp.html" target="_top" xlink:title="indigox/classes/atom.hpp">
<polygon fill="#ffffff" stroke="#000000" points="3501.7759,-125.5 3501.7759,-143.5 3630.061,-143.5 3630.061,-125.5 3501.7759,-125.5"/>
<text text-anchor="middle" x="3565.9185" y="-131.5" font-family="Helvetica,sans-Serif" font-size="10.00" fill="#000000">indigox/classes/atom.hpp</text>
</a>
</g>
</g>
<!-- Node0&#45;&gt;Node11 -->
<g id="edge16" class="edge">
<title>Node0&#45;&gt;Node11</title>
<path fill="none" stroke="#191970" d="M2203.8884,-379.2395C2436.9256,-377.9943 3232.435,-371.0455 3339.9185,-334 3425.9861,-304.3357 3440.8868,-277.7063 3505.9185,-214 3525.3309,-194.9832 3543.5209,-169.3543 3554.6734,-152.3982"/>
<polygon fill="#191970" stroke="#191970" points="3557.9111,-153.8351 3560.3827,-143.5325 3552.0258,-150.0451 3557.9111,-153.8351"/>
</g>
<!-- Node13 -->
<g id="node14" class="node">
<title>Node13</title>
<g id="a_node14"><a xlink:href="bond_8hpp.html" target="_top" xlink:title="indigox/classes/bond.hpp">
<polygon fill="#ffffff" stroke="#000000" points="1898.7686,-190.5 1898.7686,-208.5 2027.0684,-208.5 2027.0684,-190.5 1898.7686,-190.5"/>
<text text-anchor="middle" x="1962.9185" y="-196.5" font-family="Helvetica,sans-Serif" font-size="10.00" fill="#000000">indigox/classes/bond.hpp</text>
</a>
</g>
</g>
<!-- Node0&#45;&gt;Node13 -->
<g id="edge21" class="edge">
<title>Node0&#45;&gt;Node13</title>
<path fill="none" stroke="#191970" d="M2130.8977,-370.3263C2102.7351,-341.6865 2016.1445,-253.6282 1979.5351,-216.3983"/>
<polygon fill="#191970" stroke="#191970" points="1981.6404,-213.5473 1972.1333,-208.8711 1976.6492,-218.4553 1981.6404,-213.5473"/>
</g>
<!-- Node14 -->
<g id="node15" class="node">
<title>Node14</title>
<g id="a_node15"><a xlink:href="dihedral_8hpp.html" target="_top" xlink:title="indigox/classes/dihedral.hpp">
<polygon fill="#ffffff" stroke="#000000" points="1347.1011,-250.5 1347.1011,-268.5 1488.7358,-268.5 1488.7358,-250.5 1347.1011,-250.5"/>
<text text-anchor="middle" x="1417.9185" y="-256.5" font-family="Helvetica,sans-Serif" font-size="10.00" fill="#000000">indigox/classes/dihedral.hpp</text>
</a>
</g>
</g>
<!-- Node0&#45;&gt;Node14 -->
<g id="edge25" class="edge">
<title>Node0&#45;&gt;Node14</title>
<path fill="none" stroke="#191970" d="M2076.2023,-378.6604C1941.7028,-376.249 1633.0317,-367.1668 1533.9185,-334 1495.6467,-321.1929 1457.4664,-292.9362 1435.8607,-275.1382"/>
<polygon fill="#191970" stroke="#191970" points="1438.0752,-272.4274 1428.1713,-268.664 1433.5667,-277.7821 1438.0752,-272.4274"/>
</g>
<!-- Node18 -->
<g id="node17" class="node">
<title>Node18</title>
<g id="a_node17"><a xlink:href="serialise_8hpp.html" target="_top" xlink:title="serialise.hpp">
<polygon fill="#ffffff" stroke="#ff0000" points="735.8472,-125.5 735.8472,-143.5 807.9897,-143.5 807.9897,-125.5 735.8472,-125.5"/>
<text text-anchor="middle" x="771.9185" y="-131.5" font-family="Helvetica,sans-Serif" font-size="10.00" fill="#000000">serialise.hpp</text>
</a>
</g>
</g>
<!-- Node0&#45;&gt;Node18 -->
<g id="edge108" class="edge">
<title>Node0&#45;&gt;Node18</title>
<path fill="none" stroke="#191970" d="M2076.0607,-378.2845C1869.2472,-374.1153 1225.9599,-359.2425 1135.9185,-334 992.9242,-293.9126 844.2718,-189.0867 791.7329,-149.7275"/>
<polygon fill="#191970" stroke="#191970" points="793.6872,-146.8173 783.5993,-143.5791 789.466,-152.4014 793.6872,-146.8173"/>
</g>
<!-- Node33 -->
<g id="node28" class="node">
<title>Node33</title>
<g id="a_node28"><a xlink:href="forcefield_8hpp.html" target="_top" xlink:title="indigox/classes/forcefield.hpp">
<polygon fill="#ffffff" stroke="#000000" points="3056.6035,-250.5 3056.6035,-268.5 3203.2334,-268.5 3203.2334,-250.5 3056.6035,-250.5"/>
<text text-anchor="middle" x="3129.9185" y="-256.5" font-family="Helvetica,sans-Serif" font-size="10.00" fill="#000000">indigox/classes/forcefield.hpp</text>
</a>
</g>
</g>
<!-- Node0&#45;&gt;Node33 -->
<g id="edge43" class="edge">
<title>Node0&#45;&gt;Node33</title>
<path fill="none" stroke="#191970" d="M2203.5428,-378.2794C2393.4819,-374.3499 2948.027,-360.701 3024.9185,-334 3060.3911,-321.6819 3094.5257,-293.4468 3113.8015,-275.4908"/>
<polygon fill="#191970" stroke="#191970" points="3116.3034,-277.9411 3121.1135,-268.501 3111.4664,-272.8811 3116.3034,-277.9411"/>
</g>
<!-- Node34 -->
<g id="node29" class="node">
<title>Node34</title>
<g id="a_node29"><a xlink:href="periodictable_8hpp.html" target="_top" xlink:title="periodictable.hpp">
<polygon fill="#ffffff" stroke="#000000" points="1788.835,-190.5 1788.835,-208.5 1881.002,-208.5 1881.002,-190.5 1788.835,-190.5"/>
<text text-anchor="middle" x="1834.9185" y="-196.5" font-family="Helvetica,sans-Serif" font-size="10.00" fill="#000000">periodictable.hpp</text>
</a>
</g>
</g>
<!-- Node0&#45;&gt;Node34 -->
<g id="edge105" class="edge">
<title>Node0&#45;&gt;Node34</title>
<path fill="none" stroke="#191970" d="M2124.3741,-370.3263C2074.7108,-341.0168 1919.6027,-249.4776 1859.2701,-213.8715"/>
<polygon fill="#191970" stroke="#191970" points="1860.8225,-210.7236 1850.4315,-208.6552 1857.2647,-216.752 1860.8225,-210.7236"/>
</g>
<!-- Node36 -->
<g id="node31" class="node">
<title>Node36</title>
<polygon fill="#ffffff" stroke="#bfbfbf" points="1202.3545,-60.5 1202.3545,-78.5 1259.4824,-78.5 1259.4824,-60.5 1202.3545,-60.5"/>
<text text-anchor="middle" x="1230.9185" y="-66.5" font-family="Helvetica,sans-Serif" font-size="10.00" fill="#000000">algorithm</text>
</g>
<!-- Node0&#45;&gt;Node36 -->
<g id="edge109" class="edge">
<title>Node0&#45;&gt;Node36</title>
<path fill="none" stroke="#191970" d="M2076.1045,-378.4964C1857.1627,-374.2191 1149.9185,-353.1541 1149.9185,-259.5 1149.9185,-259.5 1149.9185,-259.5 1149.9185,-199.5 1149.9185,-163.1716 1149.5927,-150.7615 1168.9185,-120 1178.1592,-105.2912 1193.1783,-92.8966 1206.1196,-84.0678"/>
<polygon fill="#191970" stroke="#191970" points="1208.1611,-86.9156 1214.6504,-78.5407 1204.3548,-81.0409 1208.1611,-86.9156"/>
</g>
<!-- Node39 -->
<g id="node34" class="node">
<title>Node39</title>
<polygon fill="#ffffff" stroke="#bfbfbf" points="1505.7461,-125.5 1505.7461,-143.5 1560.0908,-143.5 1560.0908,-125.5 1505.7461,-125.5"/>
<text text-anchor="middle" x="1532.9185" y="-131.5" font-family="Helvetica,sans-Serif" font-size="10.00" fill="#000000">iostream</text>
</g>
<!-- Node0&#45;&gt;Node39 -->
<g id="edge112" class="edge">
<title>Node0&#45;&gt;Node39</title>
<path fill="none" stroke="#191970" d="M2076.0142,-375.0735C1986.4875,-368.2705 1828.6612,-353.9124 1774.9185,-334 1671.2212,-295.5788 1579.7445,-192.5543 1546.3655,-151.6151"/>
<polygon fill="#191970" stroke="#191970" points="1548.9648,-149.262 1539.9745,-143.6562 1543.5067,-153.6449 1548.9648,-149.262"/>
</g>
<!-- Node41 -->
<g id="node36" class="node">
<title>Node41</title>
<g id="a_node36"><a xlink:href="molecule_8hpp.html" target="_top" xlink:title="indigox/classes/molecule.hpp">
<polygon fill="#ffffff" stroke="#000000" points="3030.8818,-190.5 3030.8818,-208.5 3176.9551,-208.5 3176.9551,-190.5 3030.8818,-190.5"/>
<text text-anchor="middle" x="3103.9185" y="-196.5" font-family="Helvetica,sans-Serif" font-size="10.00" fill="#000000">indigox/classes/molecule.hpp</text>
</a>
</g>
</g>
<!-- Node0&#45;&gt;Node41 -->
<g id="edge60" class="edge">
<title>Node0&#45;&gt;Node41</title>
<path fill="none" stroke="#191970" d="M2203.7538,-373.4675C2333.2187,-360.4784 2635.4787,-326.3105 2883.9185,-269 2950.9456,-253.5381 3027.0479,-227.5449 3069.8865,-212.1079"/>
<polygon fill="#191970" stroke="#191970" points="3071.3202,-215.3111 3079.5263,-208.6096 3068.9322,-208.731 3071.3202,-215.3111"/>
</g>
<!-- Node44 -->
<g id="node39" class="node">
<title>Node44</title>
<g id="a_node39"><a xlink:href="molecule__impl_8hpp.html" target="_top" xlink:title="indigox/classes/molecule\l_impl.hpp">
<polygon fill="#ffffff" stroke="#000000" points="2125.6133,-305.5 2125.6133,-333.5 2252.2236,-333.5 2252.2236,-305.5 2125.6133,-305.5"/>
<text text-anchor="start" x="2133.6133" y="-321.5" font-family="Helvetica,sans-Serif" font-size="10.00" fill="#000000">indigox/classes/molecule</text>
<text text-anchor="middle" x="2188.9185" y="-311.5" font-family="Helvetica,sans-Serif" font-size="10.00" fill="#000000">_impl.hpp</text>
</a>
</g>
</g>
<!-- Node0&#45;&gt;Node44 -->
<g id="edge67" class="edge">
<title>Node0&#45;&gt;Node44</title>
<path fill="none" stroke="#191970" d="M2147.3605,-370.3873C2153.5517,-362.8063 2162.6279,-351.6925 2170.7201,-341.7837"/>
<polygon fill="#191970" stroke="#191970" points="2173.5867,-343.8069 2177.2012,-333.8477 2168.1649,-339.3791 2173.5867,-343.8069"/>
</g>
<!-- Node45 -->
<g id="node40" class="node">
<title>Node45</title>
<g id="a_node40"><a xlink:href="condensed_8hpp.html" target="_top" xlink:title="../graph/condensed.hpp">
<polygon fill="#ffffff" stroke="#000000" points="2128.377,-190.5 2128.377,-208.5 2249.46,-208.5 2249.46,-190.5 2128.377,-190.5"/>
<text text-anchor="middle" x="2188.9185" y="-196.5" font-family="Helvetica,sans-Serif" font-size="10.00" fill="#000000">../graph/condensed.hpp</text>
</a>
</g>
</g>
<!-- Node0&#45;&gt;Node45 -->
<g id="edge106" class="edge">
<title>Node0&#45;&gt;Node45</title>
<path fill="none" stroke="#191970" d="M2133.5974,-370.2442C2127.9607,-361.3892 2120.1203,-347.4315 2116.9185,-334 2113.9297,-321.4624 2113.1165,-317.3154 2116.9185,-305 2127.8502,-269.5892 2155.1944,-235.45 2172.8629,-216.0138"/>
<polygon fill="#191970" stroke="#191970" points="2175.498,-218.3202 2179.7667,-208.6234 2170.3826,-213.5418 2175.498,-218.3202"/>
</g>
<!-- Node56 -->
<g id="node43" class="node">
<title>Node56</title>
<g id="a_node43"><a xlink:href="molecular_8hpp.html" target="_top" xlink:title="../graph/molecular.hpp">
<polygon fill="#ffffff" stroke="#000000" points="2620.4409,-190.5 2620.4409,-208.5 2735.396,-208.5 2735.396,-190.5 2620.4409,-190.5"/>
<text text-anchor="middle" x="2677.9185" y="-196.5" font-family="Helvetica,sans-Serif" font-size="10.00" fill="#000000">../graph/molecular.hpp</text>
</a>
</g>
</g>
<!-- Node0&#45;&gt;Node56 -->
<g id="edge107" class="edge">
<title>Node0&#45;&gt;Node56</title>
<path fill="none" stroke="#191970" d="M2166.9667,-370.4504C2255.9479,-340.6798 2539.6788,-245.7512 2641.2857,-211.7563"/>
<polygon fill="#191970" stroke="#191970" points="2642.4436,-215.0597 2650.8164,-208.5676 2640.2226,-208.4214 2642.4436,-215.0597"/>
</g>
<!-- Node60 -->
<g id="node48" class="node">
<title>Node60</title>
<polygon fill="#ffffff" stroke="#bfbfbf" points="3616.2485,-310.5 3616.2485,-328.5 3665.5884,-328.5 3665.5884,-310.5 3616.2485,-310.5"/>
<text text-anchor="middle" x="3640.9185" y="-316.5" font-family="Helvetica,sans-Serif" font-size="10.00" fill="#000000">fstream</text>
</g>
<!-- Node0&#45;&gt;Node60 -->
<g id="edge111" class="edge">
<title>Node0&#45;&gt;Node60</title>
<path fill="none" stroke="#191970" d="M2203.5592,-378.7342C2466.8595,-375.4007 3463.6896,-361.0912 3601.9185,-334 3604.7761,-333.4399 3607.7009,-332.6967 3610.6007,-331.8419"/>
<polygon fill="#191970" stroke="#191970" points="3611.8639,-335.1099 3620.2304,-328.6096 3609.6364,-328.4737 3611.8639,-335.1099"/>
</g>
<!-- Node53 -->
<g id="node49" class="node">
<title>Node53</title>
<polygon fill="#ffffff" stroke="#bfbfbf" points="3683.1353,-310.5 3683.1353,-328.5 3734.7017,-328.5 3734.7017,-310.5 3683.1353,-310.5"/>
<text text-anchor="middle" x="3708.9185" y="-316.5" font-family="Helvetica,sans-Serif" font-size="10.00" fill="#000000">numeric</text>
</g>
<!-- Node0&#45;&gt;Node53 -->
<g id="edge114" class="edge">
<title>Node0&#45;&gt;Node53</title>
<path fill="none" stroke="#191970" d="M2203.5376,-379.0098C2475.0962,-376.7282 3529.9119,-365.8747 3674.9185,-334 3677.1082,-333.5187 3679.3335,-332.8986 3681.5438,-332.1868"/>
<polygon fill="#191970" stroke="#191970" points="3682.8634,-335.4298 3690.9823,-328.6229 3680.3906,-328.8811 3682.8634,-335.4298"/>
</g>
<!-- Node61 -->
<g id="node50" class="node">
<title>Node61</title>
<polygon fill="#ffffff" stroke="#bfbfbf" points="3753.1377,-310.5 3753.1377,-328.5 3804.6992,-328.5 3804.6992,-310.5 3753.1377,-310.5"/>
<text text-anchor="middle" x="3778.9185" y="-316.5" font-family="Helvetica,sans-Serif" font-size="10.00" fill="#000000">sstream</text>
</g>
<!-- Node0&#45;&gt;Node61 -->
<g id="edge115" class="edge">
<title>Node0&#45;&gt;Node61</title>
<path fill="none" stroke="#191970" d="M2203.5499,-379.0593C2482.6824,-376.9411 3591.6974,-366.5339 3743.9185,-334 3746.252,-333.5012 3748.6272,-332.8526 3750.9852,-332.1066"/>
<polygon fill="#191970" stroke="#191970" points="3752.2586,-335.3675 3760.4321,-328.6263 3749.8386,-328.7991 3752.2586,-335.3675"/>
</g>
<!-- Node2 -->
<g id="node3" class="node">
<title>Node2</title>
<g id="a_node3"><a xlink:href="fwd__declares_8hpp.html" target="_top" xlink:title="../../utils/fwd_declares.hpp">
<polygon fill="#ffffff" stroke="#000000" points="2217.1108,-60.5 2217.1108,-78.5 2348.7261,-78.5 2348.7261,-60.5 2217.1108,-60.5"/>
<text text-anchor="middle" x="2282.9185" y="-66.5" font-family="Helvetica,sans-Serif" font-size="10.00" fill="#000000">../../utils/fwd_declares.hpp</text>
</a>
</g>
</g>
<!-- Node1&#45;&gt;Node2 -->
<g id="edge2" class="edge">
<title>Node1&#45;&gt;Node2</title>
<path fill="none" stroke="#191970" d="M1297.9993,-129.3888C1334.8897,-126.3692 1383.1155,-122.634 1425.9185,-120 1773.6283,-98.6028 1863.0444,-125.6069 2208.9185,-84 2216.5953,-83.0765 2224.6688,-81.8073 2232.5472,-80.4011"/>
<polygon fill="#191970" stroke="#191970" points="2233.1917,-83.8414 2242.3777,-78.5624 2231.9046,-76.9607 2233.1917,-83.8414"/>
</g>
<!-- Node3 -->
<g id="node4" class="node">
<title>Node3</title>
<polygon fill="#ffffff" stroke="#bfbfbf" points="1987.4678,-.5 1987.4678,-18.5 2032.3691,-18.5 2032.3691,-.5 1987.4678,-.5"/>
<text text-anchor="middle" x="2009.9185" y="-6.5" font-family="Helvetica,sans-Serif" font-size="10.00" fill="#000000">cstdint</text>
</g>
<!-- Node1&#45;&gt;Node3 -->
<g id="edge5" class="edge">
<title>Node1&#45;&gt;Node3</title>
<path fill="none" stroke="#191970" d="M1246.2981,-120.2303C1258.2039,-101.47 1281.9376,-69.2301 1311.9185,-55 1372.4083,-26.2892 1846.7419,-13.2773 1976.9508,-10.2242"/>
<polygon fill="#191970" stroke="#191970" points="1977.1829,-13.7199 1987.0996,-9.9902 1977.0215,-6.7217 1977.1829,-13.7199"/>
</g>
<!-- Node5 -->
<g id="node6" class="node">
<title>Node5</title>
<polygon fill="#ffffff" stroke="#bfbfbf" points="1145.5317,-60.5 1145.5317,-78.5 1184.3052,-78.5 1184.3052,-60.5 1145.5317,-60.5"/>
<text text-anchor="middle" x="1164.9185" y="-66.5" font-family="Helvetica,sans-Serif" font-size="10.00" fill="#000000">limits</text>
</g>
<!-- Node1&#45;&gt;Node5 -->
<g id="edge6" class="edge">
<title>Node1&#45;&gt;Node5</title>
<path fill="none" stroke="#191970" d="M1222.0785,-120.396C1210.4945,-110.0814 1194.7706,-96.0807 1182.7465,-85.3743"/>
<polygon fill="#191970" stroke="#191970" points="1184.9056,-82.6104 1175.1096,-78.5743 1180.2506,-87.8383 1184.9056,-82.6104"/>
</g>
<!-- Node6 -->
<g id="node7" class="node">
<title>Node6</title>
<polygon fill="#ffffff" stroke="#bfbfbf" points="2832.3027,-60.5 2832.3027,-78.5 2875.5342,-78.5 2875.5342,-60.5 2832.3027,-60.5"/>
<text text-anchor="middle" x="2853.9185" y="-66.5" font-family="Helvetica,sans-Serif" font-size="10.00" fill="#000000">vector</text>
</g>
<!-- Node1&#45;&gt;Node6 -->
<g id="edge7" class="edge">
<title>Node1&#45;&gt;Node6</title>
<path fill="none" stroke="#191970" d="M1298.086,-130.8117C1350.5683,-127.6709 1428.7633,-123.1757 1496.9185,-120 2025.9141,-95.3512 2671.3623,-75.0775 2821.6102,-70.4788"/>
<polygon fill="#191970" stroke="#191970" points="2822.0617,-73.9667 2831.9502,-70.1631 2821.848,-66.97 2822.0617,-73.9667"/>
</g>
<!-- Node2&#45;&gt;Node3 -->
<g id="edge3" class="edge">
<title>Node2&#45;&gt;Node3</title>
<path fill="none" stroke="#191970" d="M2241.752,-60.4524C2187.2391,-48.4716 2092.2089,-27.5858 2042.4349,-16.6465"/>
<polygon fill="#191970" stroke="#191970" points="2043.0497,-13.1981 2032.5315,-14.4699 2041.547,-20.035 2043.0497,-13.1981"/>
</g>
<!-- Node4 -->
<g id="node5" class="node">
<title>Node4</title>
<polygon fill="#ffffff" stroke="#bfbfbf" points="2176.8618,-.5 2176.8618,-18.5 2228.9751,-18.5 2228.9751,-.5 2176.8618,-.5"/>
<text text-anchor="middle" x="2202.9185" y="-6.5" font-family="Helvetica,sans-Serif" font-size="10.00" fill="#000000">memory</text>
</g>
<!-- Node2&#45;&gt;Node4 -->
<g id="edge4" class="edge">
<title>Node2&#45;&gt;Node4</title>
<path fill="none" stroke="#191970" d="M2270.7682,-60.3873C2258.1256,-50.9054 2238.1144,-35.897 2223.0943,-24.6319"/>
<polygon fill="#191970" stroke="#191970" points="2225.021,-21.7019 2214.921,-18.5019 2220.821,-27.3019 2225.021,-21.7019"/>
</g>
<!-- Node7&#45;&gt;Node2 -->
<g id="edge9" class="edge">
<title>Node7&#45;&gt;Node2</title>
<path fill="none" stroke="#191970" d="M3389.5796,-185.3917C3393.299,-167.4175 3396.3181,-136.6875 3378.9185,-120 3360.5059,-102.341 2604.9172,-78.8597 2359.2311,-71.6779"/>
<polygon fill="#191970" stroke="#191970" points="2359.0614,-68.1716 2348.9636,-71.3786 2358.8574,-75.1686 2359.0614,-68.1716"/>
</g>
<!-- Node7&#45;&gt;Node6 -->
<g id="edge11" class="edge">
<title>Node7&#45;&gt;Node6</title>
<path fill="none" stroke="#191970" d="M3397.9208,-185.3949C3411.2372,-167.9889 3428.7651,-138.4401 3411.9185,-120 3376.2864,-80.9975 2999.299,-71.8239 2885.9657,-69.9401"/>
<polygon fill="#191970" stroke="#191970" points="2885.8955,-66.4387 2875.8413,-69.7798 2885.7846,-73.4378 2885.8955,-66.4387"/>
</g>
<!-- Node7&#45;&gt;Node8 -->
<g id="edge10" class="edge">
<title>Node7&#45;&gt;Node8</title>
<path fill="none" stroke="#191970" d="M3378.541,-185.396C3373.5088,-175.7756 3366.7993,-162.9487 3361.3751,-152.5788"/>
<polygon fill="#191970" stroke="#191970" points="3364.4014,-150.813 3356.665,-143.5743 3358.1987,-154.0576 3364.4014,-150.813"/>
</g>
<!-- Node9&#45;&gt;Node2 -->
<g id="edge13" class="edge">
<title>Node9&#45;&gt;Node2</title>
<path fill="none" stroke="#191970" d="M1721.8743,-190.2668C1752.1549,-173.2219 1820.5163,-137.0063 1882.9185,-120 2023.5589,-81.6716 2064.8237,-106.0342 2208.9185,-84 2215.7004,-82.9629 2222.8068,-81.7428 2229.8205,-80.4581"/>
<polygon fill="#191970" stroke="#191970" points="2230.8028,-83.8347 2239.9817,-78.5433 2229.5065,-76.9557 2230.8028,-83.8347"/>
</g>
<!-- Node9&#45;&gt;Node4 -->
<g id="edge15" class="edge">
<title>Node9&#45;&gt;Node4</title>
<path fill="none" stroke="#191970" d="M1640.4889,-192.4867C1586.0177,-185.1392 1514.6101,-171.4756 1496.9185,-149 1488.9464,-138.8723 1491.3792,-131.6379 1496.9185,-120 1516.6073,-78.6344 1534.3308,-71.8836 1576.9185,-55 1590.7123,-49.5315 2034.4559,-20.4143 2166.3197,-11.863"/>
<polygon fill="#191970" stroke="#191970" points="2166.932,-15.3308 2176.6848,-11.1915 2166.4794,-8.3454 2166.932,-15.3308"/>
</g>
<!-- Node9&#45;&gt;Node10 -->
<g id="edge14" class="edge">
<title>Node9&#45;&gt;Node10</title>
<path fill="none" stroke="#191970" d="M1690.9015,-190.462C1673.0286,-179.7052 1642.9559,-161.6059 1621.8621,-148.9105"/>
<polygon fill="#191970" stroke="#191970" points="1623.5288,-145.8286 1613.156,-143.6708 1619.9191,-151.8262 1623.5288,-145.8286"/>
</g>
<!-- Node11&#45;&gt;Node2 -->
<g id="edge17" class="edge">
<title>Node11&#45;&gt;Node2</title>
<path fill="none" stroke="#191970" d="M3501.5382,-127.7264C3473.9647,-125.0099 3441.3874,-122.0452 3411.9185,-120 3015.9516,-92.5196 2540.7693,-76.9353 2358.84,-71.6064"/>
<polygon fill="#191970" stroke="#191970" points="2358.9362,-68.1079 2348.8385,-71.3152 2358.7324,-75.1049 2358.9362,-68.1079"/>
</g>
<!-- Node11&#45;&gt;Node4 -->
<g id="edge19" class="edge">
<title>Node11&#45;&gt;Node4</title>
<path fill="none" stroke="#191970" d="M3531.1771,-125.483C3463.6586,-108.3836 3309.772,-71.4832 3177.9185,-55 2991.1349,-31.6499 2394.2254,-14.5598 2239.7169,-10.4505"/>
<polygon fill="#191970" stroke="#191970" points="2239.4575,-6.9425 2229.3685,-10.1772 2239.2726,-13.9401 2239.4575,-6.9425"/>
</g>
<!-- Node11&#45;&gt;Node6 -->
<g id="edge20" class="edge">
<title>Node11&#45;&gt;Node6</title>
<path fill="none" stroke="#191970" d="M3521.9086,-125.4893C3510.8485,-123.4538 3498.9786,-121.4645 3487.9185,-120 3258.115,-89.5722 2978.8474,-75.0883 2885.7897,-70.8612"/>
<polygon fill="#191970" stroke="#191970" points="2885.7728,-67.357 2875.6265,-70.4069 2885.4602,-74.35 2885.7728,-67.357"/>
</g>
<!-- Node12 -->
<g id="node13" class="node">
<title>Node12</title>
<polygon fill="#ffffff" stroke="#bfbfbf" points="3529.2881,-60.5 3529.2881,-78.5 3602.5488,-78.5 3602.5488,-60.5 3529.2881,-60.5"/>
<text text-anchor="middle" x="3565.9185" y="-66.5" font-family="Helvetica,sans-Serif" font-size="10.00" fill="#000000">Eigen/Dense</text>
</g>
<!-- Node11&#45;&gt;Node12 -->
<g id="edge18" class="edge">
<title>Node11&#45;&gt;Node12</title>
<path fill="none" stroke="#191970" d="M3565.9185,-125.462C3565.9185,-116.061 3565.9185,-101.0518 3565.9185,-88.943"/>
<polygon fill="#191970" stroke="#191970" points="3569.4186,-88.8821 3565.9185,-78.8821 3562.4186,-88.8822 3569.4186,-88.8821"/>
</g>
<!-- Node13&#45;&gt;Node2 -->
<g id="edge22" class="edge">
<title>Node13&#45;&gt;Node2</title>
<path fill="none" stroke="#191970" d="M1955.891,-190.4441C1944.2813,-174.3212 1924.0666,-140.4204 1941.9185,-120 1981.3233,-74.9256 2149.8492,-93.7605 2208.9185,-84 2215.5139,-82.9102 2222.4224,-81.6782 2229.2566,-80.4042"/>
<polygon fill="#191970" stroke="#191970" points="2230.001,-83.8255 2239.1713,-78.5192 2228.6935,-76.9486 2230.001,-83.8255"/>
</g>
<!-- Node13&#45;&gt;Node4 -->
<g id="edge24" class="edge">
<title>Node13&#45;&gt;Node4</title>
<path fill="none" stroke="#191970" d="M1953.381,-190.0884C1938.8427,-174.5722 1914.3826,-143.0486 1929.9185,-120 1983.5689,-40.4056 2105.3399,-18.1253 2166.4733,-11.9024"/>
<polygon fill="#191970" stroke="#191970" points="2167.1665,-15.3533 2176.8012,-10.9463 2166.5211,-8.3831 2167.1665,-15.3533"/>
</g>
<!-- Node13&#45;&gt;Node10 -->
<g id="edge23" class="edge">
<title>Node13&#45;&gt;Node10</title>
<path fill="none" stroke="#191970" d="M1919.7643,-190.4826C1909.9719,-188.5606 1899.6035,-186.6232 1889.9185,-185 1773.5625,-165.4987 1739.6335,-183.8473 1626.9185,-149 1625.6782,-148.6166 1624.426,-148.1845 1623.1742,-147.7158"/>
<polygon fill="#191970" stroke="#191970" points="1624.3505,-144.4099 1613.7867,-143.6004 1621.54,-150.821 1624.3505,-144.4099"/>
</g>
<!-- Node14&#45;&gt;Node2 -->
<g id="edge26" class="edge">
<title>Node14&#45;&gt;Node2</title>
<path fill="none" stroke="#191970" d="M1419.9238,-250.21C1426.0878,-224.1986 1447.4189,-150.5544 1496.9185,-120 1564.3235,-78.3931 2130.2951,-93.6404 2208.9185,-84 2216.5932,-83.059 2224.6655,-81.7803 2232.5434,-80.37"/>
<polygon fill="#191970" stroke="#191970" points="2233.189,-83.81 2242.3736,-78.5286 2231.9001,-76.9297 2233.189,-83.81"/>
</g>
<!-- Node14&#45;&gt;Node3 -->
<g id="edge40" class="edge">
<title>Node14&#45;&gt;Node3</title>
<path fill="none" stroke="#191970" d="M1393.7809,-250.4315C1378.1919,-243.1616 1359.1533,-231.2907 1349.9185,-214 1316.6266,-151.6668 1301.6985,-106.6586 1349.9185,-55 1371.5485,-31.8274 1846.8148,-14.7807 1977.13,-10.5302"/>
<polygon fill="#191970" stroke="#191970" points="1977.4031,-14.0233 1987.2848,-10.2022 1977.177,-7.0269 1977.4031,-14.0233"/>
</g>
<!-- Node14&#45;&gt;Node4 -->
<g id="edge41" class="edge">
<title>Node14&#45;&gt;Node4</title>
<path fill="none" stroke="#191970" d="M1413.7866,-250.47C1403.6751,-226.9037 1380.3813,-162.4303 1406.9185,-120 1437.2331,-71.5297 1463.2694,-71.7876 1517.9185,-55 1533.5679,-50.1926 2027.2004,-20.1054 2166.5911,-11.6866"/>
<polygon fill="#191970" stroke="#191970" points="2166.9784,-15.1697 2176.7494,-11.0736 2166.5567,-8.1824 2166.9784,-15.1697"/>
</g>
<!-- Node14&#45;&gt;Node10 -->
<g id="edge39" class="edge">
<title>Node14&#45;&gt;Node10</title>
<path fill="none" stroke="#191970" d="M1431.1543,-250.3085C1461.9712,-228.9078 1538.7491,-175.5898 1576.4049,-149.44"/>
<polygon fill="#191970" stroke="#191970" points="1578.4459,-152.2838 1584.6632,-143.705 1574.4531,-146.5342 1578.4459,-152.2838"/>
</g>
<!-- Node15 -->
<g id="node16" class="node">
<title>Node15</title>
<g id="a_node16"><a xlink:href="quad_8hpp.html" target="_top" xlink:title="../utils/quad.hpp">
<polygon fill="#ffffff" stroke="#ff0000" points="976.6157,-190.5 976.6157,-208.5 1063.2212,-208.5 1063.2212,-190.5 976.6157,-190.5"/>
<text text-anchor="middle" x="1019.9185" y="-196.5" font-family="Helvetica,sans-Serif" font-size="10.00" fill="#000000">../utils/quad.hpp</text>
</a>
</g>
</g>
<!-- Node14&#45;&gt;Node15 -->
<g id="edge27" class="edge">
<title>Node14&#45;&gt;Node15</title>
<path fill="none" stroke="#191970" d="M1357.9029,-250.4524C1280.6453,-238.8056 1147.566,-218.7434 1073.5432,-207.5841"/>
<polygon fill="#191970" stroke="#191970" points="1073.9121,-204.1003 1063.5021,-206.0704 1072.8686,-211.0221 1073.9121,-204.1003"/>
</g>
<!-- Node32 -->
<g id="node27" class="node">
<title>Node32</title>
<polygon fill="#ffffff" stroke="#bfbfbf" points="1585.6919,-60.5 1585.6919,-78.5 1626.145,-78.5 1626.145,-60.5 1585.6919,-60.5"/>
<text text-anchor="middle" x="1605.9185" y="-66.5" font-family="Helvetica,sans-Serif" font-size="10.00" fill="#000000">string</text>
</g>
<!-- Node14&#45;&gt;Node32 -->
<g id="edge42" class="edge">
<title>Node14&#45;&gt;Node32</title>
<path fill="none" stroke="#191970" d="M1415.2268,-250.4251C1408.6413,-226.1885 1394.4499,-159.1317 1425.9185,-120 1444.5996,-96.7697 1529.1483,-80.876 1575.4203,-73.7508"/>
<polygon fill="#191970" stroke="#191970" points="1576.1147,-77.186 1585.4874,-72.2461 1575.0799,-70.2629 1576.1147,-77.186"/>
</g>
<!-- Node15&#45;&gt;Node18 -->
<g id="edge28" class="edge">
<title>Node15&#45;&gt;Node18</title>
<path fill="none" stroke="#191970" d="M985.4351,-190.462C941.3247,-178.9008 864.8537,-158.858 816.4002,-146.1585"/>
<polygon fill="#191970" stroke="#191970" points="817.0684,-142.7155 806.5078,-143.5658 815.2937,-149.4868 817.0684,-142.7155"/>
</g>
<!-- Node18&#45;&gt;Node2 -->
<g id="edge29" class="edge">
<title>Node18&#45;&gt;Node2</title>
<path fill="none" stroke="#191970" d="M808.045,-133.1575C877.7994,-130.5703 1035.8913,-124.7317 1168.9185,-120 1631.1252,-103.5595 1749.424,-136.6328 2208.9185,-84 2216.6919,-83.1096 2224.869,-81.8446 2232.8376,-80.4285"/>
<polygon fill="#191970" stroke="#191970" points="2233.5872,-83.8491 2242.7736,-78.5708 2232.3007,-76.9684 2233.5872,-83.8491"/>
</g>
<!-- Node19 -->
<g id="node18" class="node">
<title>Node19</title>
<polygon fill="#ffffff" stroke="#bfbfbf" points="1030.6182,-60.5 1030.6182,-78.5 1127.2188,-78.5 1127.2188,-60.5 1030.6182,-60.5"/>
<text text-anchor="middle" x="1078.9185" y="-66.5" font-family="Helvetica,sans-Serif" font-size="10.00" fill="#000000">cereal/access.hpp</text>
</g>
<!-- Node18&#45;&gt;Node19 -->
<g id="edge30" class="edge">
<title>Node18&#45;&gt;Node19</title>
<path fill="none" stroke="#191970" d="M808.3162,-127.6489C856.9176,-118.3796 945.6307,-101.0365 1020.9185,-84 1025.0754,-83.0593 1029.391,-82.0474 1033.7074,-81.0112"/>
<polygon fill="#191970" stroke="#191970" points="1034.821,-84.3423 1043.7064,-78.5717 1033.1618,-77.5418 1034.821,-84.3423"/>
</g>
<!-- Node20 -->
<g id="node19" class="node">
<title>Node20</title>
<polygon fill="#ffffff" stroke="#bfbfbf" points="0,-60.5 0,-78.5 123.8369,-78.5 123.8369,-60.5 0,-60.5"/>
<text text-anchor="middle" x="61.9185" y="-66.5" font-family="Helvetica,sans-Serif" font-size="10.00" fill="#000000">cereal/archives/json.hpp</text>
</g>
<!-- Node18&#45;&gt;Node20 -->
<g id="edge31" class="edge">
<title>Node18&#45;&gt;Node20</title>
<path fill="none" stroke="#191970" d="M735.7185,-133.1949C638.0305,-129.3375 361.0161,-116.1813 132.9185,-84 126.1389,-83.0435 119.0331,-81.8384 112.0462,-80.5336"/>
<polygon fill="#191970" stroke="#191970" points="112.431,-77.0429 101.9465,-78.5679 111.0937,-83.9139 112.431,-77.0429"/>
</g>
<!-- Node21 -->
<g id="node20" class="node">
<title>Node21</title>
<polygon fill="#ffffff" stroke="#bfbfbf" points="141.835,-55.5 141.835,-83.5 264.002,-83.5 264.002,-55.5 141.835,-55.5"/>
<text text-anchor="start" x="149.835" y="-71.5" font-family="Helvetica,sans-Serif" font-size="10.00" fill="#000000">cereal/archives/portable</text>
<text text-anchor="middle" x="202.9185" y="-61.5" font-family="Helvetica,sans-Serif" font-size="10.00" fill="#000000">_binary.hpp</text>
</g>
<!-- Node18&#45;&gt;Node21 -->
<g id="edge32" class="edge">
<title>Node18&#45;&gt;Node21</title>
<path fill="none" stroke="#191970" d="M735.7502,-132.1282C654.8382,-126.5464 452.9372,-111.0858 274.4127,-84.1329"/>
<polygon fill="#191970" stroke="#191970" points="274.727,-80.6404 264.3135,-82.5919 273.6711,-87.5603 274.727,-80.6404"/>
</g>
<!-- Node22 -->
<g id="node21" class="node">
<title>Node22</title>
<polygon fill="#ffffff" stroke="#bfbfbf" points="281.5615,-60.5 281.5615,-78.5 374.2754,-78.5 374.2754,-60.5 281.5615,-60.5"/>
<text text-anchor="middle" x="327.9185" y="-66.5" font-family="Helvetica,sans-Serif" font-size="10.00" fill="#000000">cereal/cereal.hpp</text>
</g>
<!-- Node18&#45;&gt;Node22 -->
<g id="edge33" class="edge">
<title>Node18&#45;&gt;Node22</title>
<path fill="none" stroke="#191970" d="M735.7362,-131.3716C666.6947,-125.0562 511.5688,-109.2005 382.9185,-84 378.4925,-83.133 373.8953,-82.1139 369.3286,-81.0245"/>
<polygon fill="#191970" stroke="#191970" points="370.0091,-77.587 359.4589,-78.5591 368.3126,-84.3783 370.0091,-77.587"/>
</g>
<!-- Node23 -->
<g id="node22" class="node">
<title>Node23</title>
<polygon fill="#ffffff" stroke="#bfbfbf" points="391.8169,-60.5 391.8169,-78.5 506.02,-78.5 506.02,-60.5 391.8169,-60.5"/>
<text text-anchor="middle" x="448.9185" y="-66.5" font-family="Helvetica,sans-Serif" font-size="10.00" fill="#000000">cereal/types/array.hpp</text>
</g>
<!-- Node18&#45;&gt;Node23 -->
<g id="edge34" class="edge">
<title>Node18&#45;&gt;Node23</title>
<path fill="none" stroke="#191970" d="M735.6903,-127.6443C685.8841,-118.1592 593.4924,-100.3489 514.9185,-84 509.8791,-82.9515 504.6285,-81.8364 499.3871,-80.7085"/>
<polygon fill="#191970" stroke="#191970" points="499.8913,-77.2365 489.3767,-78.5376 498.4077,-84.0775 499.8913,-77.2365"/>
</g>
<!-- Node24 -->
<g id="node23" class="node">
<title>Node24</title>
<polygon fill="#ffffff" stroke="#bfbfbf" points="523.8892,-60.5 523.8892,-78.5 639.9478,-78.5 639.9478,-60.5 523.8892,-60.5"/>
<text text-anchor="middle" x="581.9185" y="-66.5" font-family="Helvetica,sans-Serif" font-size="10.00" fill="#000000">cereal/types/bitset.hpp</text>
</g>
<!-- Node18&#45;&gt;Node24 -->
<g id="edge35" class="edge">
<title>Node18&#45;&gt;Node24</title>
<path fill="none" stroke="#191970" d="M745.4998,-125.462C712.4125,-114.1427 655.5593,-94.6929 618.3548,-81.9651"/>
<polygon fill="#191970" stroke="#191970" points="619.0129,-78.4911 608.4183,-78.5658 616.7471,-85.1143 619.0129,-78.4911"/>
</g>
<!-- Node25 -->
<g id="node24" class="node">
<title>Node25</title>
<polygon fill="#ffffff" stroke="#bfbfbf" points="658.0566,-55.5 658.0566,-83.5 765.7803,-83.5 765.7803,-55.5 658.0566,-55.5"/>
<text text-anchor="start" x="666.0566" y="-71.5" font-family="Helvetica,sans-Serif" font-size="10.00" fill="#000000">cereal/types/boost</text>
<text text-anchor="middle" x="711.9185" y="-61.5" font-family="Helvetica,sans-Serif" font-size="10.00" fill="#000000">_dynamic_bitset.hpp</text>
</g>
<!-- Node18&#45;&gt;Node25 -->
<g id="edge36" class="edge">
<title>Node18&#45;&gt;Node25</title>
<path fill="none" stroke="#191970" d="M763.5757,-125.462C755.5177,-116.7325 742.996,-103.1673 732.2991,-91.579"/>
<polygon fill="#191970" stroke="#191970" points="734.617,-88.9299 725.2623,-83.9559 729.4734,-93.6779 734.617,-88.9299"/>
</g>
<!-- Node26 -->
<g id="node25" class="node">
<title>Node26</title>
<polygon fill="#ffffff" stroke="#bfbfbf" points="784.0098,-55.5 784.0098,-83.5 877.8271,-83.5 877.8271,-55.5 784.0098,-55.5"/>
<text text-anchor="start" x="792.0098" y="-71.5" font-family="Helvetica,sans-Serif" font-size="10.00" fill="#000000">cereal/types/eastl</text>
<text text-anchor="middle" x="830.9185" y="-61.5" font-family="Helvetica,sans-Serif" font-size="10.00" fill="#000000">_bitset.hpp</text>
</g>
<!-- Node18&#45;&gt;Node26 -->
<g id="edge37" class="edge">
<title>Node18&#45;&gt;Node26</title>
<path fill="none" stroke="#191970" d="M780.1222,-125.462C788.0459,-116.7325 800.3589,-103.1673 810.8775,-91.579"/>
<polygon fill="#191970" stroke="#191970" points="813.6675,-93.7128 817.797,-83.9559 808.4843,-89.0081 813.6675,-93.7128"/>
</g>
<!-- Node27 -->
<g id="node26" class="node">
<title>Node27</title>
<polygon fill="#ffffff" stroke="#bfbfbf" points="895.606,-60.5 895.606,-78.5 1012.231,-78.5 1012.231,-60.5 895.606,-60.5"/>
<text text-anchor="middle" x="953.9185" y="-66.5" font-family="Helvetica,sans-Serif" font-size="10.00" fill="#000000">cereal/types/eigen.hpp</text>
</g>
<!-- Node18&#45;&gt;Node27 -->
<g id="edge38" class="edge">
<title>Node18&#45;&gt;Node27</title>
<path fill="none" stroke="#191970" d="M797.2248,-125.462C828.9189,-114.1427 883.3783,-94.6929 919.0163,-81.9651"/>
<polygon fill="#191970" stroke="#191970" points="920.2941,-85.2253 928.5344,-78.5658 917.9397,-78.6331 920.2941,-85.2253"/>
</g>
<!-- Node33&#45;&gt;Node2 -->
<g id="edge44" class="edge">
<title>Node33&#45;&gt;Node2</title>
<path fill="none" stroke="#191970" d="M3142.7547,-250.4799C3180.2181,-224.1524 3286.7919,-149.2438 3286.9185,-149 3292.856,-137.5602 3295.8004,-129.3399 3286.9185,-120 3270.9478,-103.2058 2589.9195,-79.5032 2358.7595,-71.9274"/>
<polygon fill="#191970" stroke="#191970" points="2358.861,-68.429 2348.752,-71.6003 2358.6323,-75.4253 2358.861,-68.429"/>
</g>
<!-- Node33&#45;&gt;Node4 -->
<g id="edge58" class="edge">
<title>Node33&#45;&gt;Node4</title>
<path fill="none" stroke="#191970" d="M3203.2824,-255.4631C3332.1825,-246.5702 3590.2988,-220.0965 3638.9185,-149 3657.9558,-121.1618 3617.1788,-58.6351 3611.9185,-55 3553.8166,-14.8491 2454.7235,-10.1118 2239.3534,-9.5686"/>
<polygon fill="#191970" stroke="#191970" points="2239.219,-6.0684 2229.2107,-9.5445 2239.2023,-13.0683 2239.219,-6.0684"/>
</g>
<!-- Node33&#45;&gt;Node6 -->
<g id="edge59" class="edge">
<title>Node33&#45;&gt;Node6</title>
<path fill="none" stroke="#191970" d="M3203.5857,-254.2416C3294.3571,-246.9996 3438.654,-232.7001 3454.9185,-214 3476.615,-189.0543 3441.8413,-129.6005 3428.9185,-120 3406.9548,-103.6831 3003.8557,-78.4454 2886.0157,-71.3894"/>
<polygon fill="#191970" stroke="#191970" points="2886.0242,-67.8837 2875.8336,-70.7825 2885.6076,-74.8713 2886.0242,-67.8837"/>
</g>
<!-- Node33&#45;&gt;Node8 -->
<g id="edge57" class="edge">
<title>Node33&#45;&gt;Node8</title>
<path fill="none" stroke="#191970" d="M3154.9832,-250.3406C3176.8817,-241.9662 3209.2506,-228.6777 3235.9185,-214 3271.4174,-194.4618 3309.6436,-166.8425 3332.1402,-149.8325"/>
<polygon fill="#191970" stroke="#191970" points="3334.3981,-152.5123 3340.2243,-143.6632 3330.1514,-146.9475 3334.3981,-152.5123"/>
</g>
<!-- Node33&#45;&gt;Node34 -->
<g id="edge45" class="edge">
<title>Node33&#45;&gt;Node34</title>
<path fill="none" stroke="#191970" d="M3056.3323,-258.9324C2825.4103,-256.8153 2116.9949,-247.6748 1889.9185,-214 1884.7994,-213.2409 1879.4713,-212.1849 1874.2343,-210.9854"/>
<polygon fill="#191970" stroke="#191970" points="1874.9023,-207.5452 1864.3545,-208.5422 1873.2218,-214.3405 1874.9023,-207.5452"/>
</g>
<!-- Node40 -->
<g id="node35" class="node">
<title>Node40</title>
<polygon fill="#ffffff" stroke="#bfbfbf" points="2881.5688,-125.5 2881.5688,-143.5 2964.2681,-143.5 2964.2681,-125.5 2881.5688,-125.5"/>
<text text-anchor="middle" x="2922.9185" y="-131.5" font-family="Helvetica,sans-Serif" font-size="10.00" fill="#000000">EASTL/bitset.h</text>
</g>
<!-- Node33&#45;&gt;Node40 -->
<g id="edge56" class="edge">
<title>Node33&#45;&gt;Node40</title>
<path fill="none" stroke="#191970" d="M3102.7348,-250.4352C3080.271,-242.3919 3047.9569,-229.5254 3021.9185,-214 2990.7474,-195.4143 2958.7236,-167.8533 2939.836,-150.5482"/>
<polygon fill="#191970" stroke="#191970" points="2942.0676,-147.8441 2932.3592,-143.6017 2937.3031,-152.9724 2942.0676,-147.8441"/>
</g>
<!-- Node34&#45;&gt;Node2 -->
<g id="edge51" class="edge">
<title>Node34&#45;&gt;Node2</title>
<path fill="none" stroke="#191970" d="M1842.4384,-190.4494C1857.2077,-173.3771 1891.894,-136.6427 1929.9185,-120 2044.4561,-69.8688 2085.5056,-104.0314 2208.9185,-84 2215.517,-82.929 2222.4273,-81.7083 2229.2625,-80.4404"/>
<polygon fill="#191970" stroke="#191970" points="2230.005,-83.862 2239.1781,-78.5607 2228.7011,-76.9845 2230.005,-83.862"/>
</g>
<!-- Node34&#45;&gt;Node3 -->
<g id="edge54" class="edge">
<title>Node34&#45;&gt;Node3</title>
<path fill="none" stroke="#191970" d="M1830.7307,-190.1487C1820.2469,-165.1649 1795.9228,-95.9793 1827.9185,-55 1846.087,-31.7301 1929.7945,-18.6 1977.1053,-12.9181"/>
<polygon fill="#191970" stroke="#191970" points="1977.6387,-16.3799 1987.1711,-11.7556 1976.8355,-9.4261 1977.6387,-16.3799"/>
</g>
<!-- Node34&#45;&gt;Node10 -->
<g id="edge53" class="edge">
<title>Node34&#45;&gt;Node10</title>
<path fill="none" stroke="#191970" d="M1801.2144,-190.4624C1794.1857,-188.6204 1786.817,-186.7206 1779.9185,-185 1712.1379,-168.0943 1692.603,-172.7811 1626.9185,-149 1625.8864,-148.6263 1624.8432,-148.2255 1623.7968,-147.8037"/>
<polygon fill="#191970" stroke="#191970" points="1625.0499,-144.5295 1614.4947,-143.6141 1622.1753,-150.9121 1625.0499,-144.5295"/>
</g>
<!-- Node35 -->
<g id="node30" class="node">
<title>Node35</title>
<g id="a_node30"><a xlink:href="common_8hpp.html" target="_top" xlink:title="../utils/common.hpp">
<polygon fill="#ffffff" stroke="#ff0000" points="1635.5664,-125.5 1635.5664,-143.5 1738.2705,-143.5 1738.2705,-125.5 1635.5664,-125.5"/>
<text text-anchor="middle" x="1686.9185" y="-131.5" font-family="Helvetica,sans-Serif" font-size="10.00" fill="#000000">../utils/common.hpp</text>
</a>
</g>
</g>
<!-- Node34&#45;&gt;Node35 -->
<g id="edge46" class="edge">
<title>Node34&#45;&gt;Node35</title>
<path fill="none" stroke="#191970" d="M1814.3397,-190.462C1789.0784,-179.3675 1746.0328,-160.4624 1717.0452,-147.7313"/>
<polygon fill="#191970" stroke="#191970" points="1718.3629,-144.4874 1707.7996,-143.6708 1715.548,-150.8965 1718.3629,-144.4874"/>
</g>
<!-- Node38 -->
<g id="node33" class="node">
<title>Node38</title>
<polygon fill="#ffffff" stroke="#bfbfbf" points="1984.3965,-125.5 1984.3965,-143.5 2095.4404,-143.5 2095.4404,-125.5 1984.3965,-125.5"/>
<text text-anchor="middle" x="2039.9185" y="-131.5" font-family="Helvetica,sans-Serif" font-size="10.00" fill="#000000">EASTL/vector_map.h</text>
</g>
<!-- Node34&#45;&gt;Node38 -->
<g id="edge52" class="edge">
<title>Node34&#45;&gt;Node38</title>
<path fill="none" stroke="#191970" d="M1863.4228,-190.462C1899.4274,-179.0459 1961.5143,-159.3599 2001.6301,-146.6402"/>
<polygon fill="#191970" stroke="#191970" points="2002.852,-149.9246 2011.3265,-143.5658 2000.7363,-143.252 2002.852,-149.9246"/>
</g>
<!-- Node34&#45;&gt;Node39 -->
<g id="edge55" class="edge">
<title>Node34&#45;&gt;Node39</title>
<path fill="none" stroke="#191970" d="M1802.4601,-190.4365C1795.0794,-188.5169 1787.2525,-186.5922 1779.9185,-185 1687.3792,-164.9105 1661.1411,-174.4075 1569.9185,-149 1567.7584,-148.3984 1565.5505,-147.7158 1563.3416,-146.9826"/>
<polygon fill="#191970" stroke="#191970" points="1564.3919,-143.6407 1553.7975,-143.5371 1562.0149,-150.2248 1564.3919,-143.6407"/>
</g>
<!-- Node35&#45;&gt;Node4 -->
<g id="edge49" class="edge">
<title>Node35&#45;&gt;Node4</title>
<path fill="none" stroke="#191970" d="M1698.9704,-125.498C1722.4135,-108.5088 1776.385,-71.9103 1827.9185,-55 1890.3862,-34.5017 2085.0282,-18.2023 2166.4905,-12.0982"/>
<polygon fill="#191970" stroke="#191970" points="2167.0421,-15.567 2176.7563,-11.3382 2166.5252,-8.5861 2167.0421,-15.567"/>
</g>
<!-- Node35&#45;&gt;Node32 -->
<g id="edge50" class="edge">
<title>Node35&#45;&gt;Node32</title>
<path fill="none" stroke="#191970" d="M1675.6558,-125.462C1662.6718,-115.0428 1641.1035,-97.7349 1625.3854,-85.1216"/>
<polygon fill="#191970" stroke="#191970" points="1627.3365,-82.1997 1617.3466,-78.6708 1622.9554,-87.6592 1627.3365,-82.1997"/>
</g>
<!-- Node35&#45;&gt;Node36 -->
<g id="edge47" class="edge">
<title>Node35&#45;&gt;Node36</title>
<path fill="none" stroke="#191970" d="M1651.5713,-125.4259C1643.1973,-123.463 1634.2715,-121.5223 1625.9185,-120 1496.5319,-96.42 1341.3206,-79.9985 1270.113,-73.1175"/>
<polygon fill="#191970" stroke="#191970" points="1270.1135,-69.6016 1259.8257,-72.1335 1269.447,-76.5698 1270.1135,-69.6016"/>
</g>
<!-- Node37 -->
<g id="node32" class="node">
<title>Node37</title>
<polygon fill="#ffffff" stroke="#bfbfbf" points="2152.3569,-60.5 2152.3569,-78.5 2199.48,-78.5 2199.48,-60.5 2152.3569,-60.5"/>
<text text-anchor="middle" x="2175.9185" y="-66.5" font-family="Helvetica,sans-Serif" font-size="10.00" fill="#000000">iterator</text>
</g>
<!-- Node35&#45;&gt;Node37 -->
<g id="edge48" class="edge">
<title>Node35&#45;&gt;Node37</title>
<path fill="none" stroke="#191970" d="M1724.2562,-125.4937C1733.2778,-123.5055 1742.9146,-121.5364 1751.9185,-120 1896.1454,-95.3888 2070.0062,-78.7097 2142.0797,-72.3606"/>
<polygon fill="#191970" stroke="#191970" points="2142.6985,-75.82 2152.3568,-71.4648 2142.0906,-68.8465 2142.6985,-75.82"/>
</g>
<!-- Node41&#45;&gt;Node2 -->
<g id="edge61" class="edge">
<title>Node41&#45;&gt;Node2</title>
<path fill="none" stroke="#191970" d="M3102.9367,-190.4555C3100.5522,-173.3937 3092.7725,-136.6763 3068.9185,-120 3040.1207,-99.8675 2550.7345,-79.5044 2359.0482,-72.2631"/>
<polygon fill="#191970" stroke="#191970" points="2359.1736,-68.7654 2349.0492,-71.887 2358.9105,-75.7605 2359.1736,-68.7654"/>
</g>
<!-- Node41&#45;&gt;Node3 -->
<g id="edge63" class="edge">
<title>Node41&#45;&gt;Node3</title>
<path fill="none" stroke="#191970" d="M3110.1241,-190.3743C3120.114,-174.4394 3137.0838,-141.2196 3120.9185,-120 3054.9894,-33.4575 2992.3327,-72.2753 2884.9185,-55 2569.8985,-4.3356 2486.5021,-36.5752 2167.9185,-19 2124.5315,-16.6065 2074.462,-13.5453 2042.5184,-11.5545"/>
<polygon fill="#191970" stroke="#191970" points="2042.615,-8.0538 2032.4161,-10.9229 2042.1781,-15.0401 2042.615,-8.0538"/>
</g>
<!-- Node41&#45;&gt;Node6 -->
<g id="edge66" class="edge">
<title>Node41&#45;&gt;Node6</title>
<path fill="none" stroke="#191970" d="M3106.9481,-190.3812C3111.7083,-174.1587 3118.7682,-140.1052 3101.9185,-120 3074.5615,-87.3576 2946.4212,-75.1938 2885.8252,-71.212"/>
<polygon fill="#191970" stroke="#191970" points="2885.8754,-67.7084 2875.6774,-70.5806 2885.4407,-74.6949 2885.8754,-67.7084"/>
</g>
<!-- Node41&#45;&gt;Node8 -->
<g id="edge64" class="edge">
<title>Node41&#45;&gt;Node8</title>
<path fill="none" stroke="#191970" d="M3138.4018,-190.462C3188.0387,-177.4523 3278.6529,-153.7027 3324.2104,-141.7622"/>
<polygon fill="#191970" stroke="#191970" points="3325.2097,-145.1186 3333.9956,-139.1975 3323.435,-138.3473 3325.2097,-145.1186"/>
</g>
<!-- Node42 -->
<g id="node37" class="node">
<title>Node42</title>
<polygon fill="#ffffff" stroke="#bfbfbf" points="3019.9678,-125.5 3019.9678,-143.5 3059.8691,-143.5 3059.8691,-125.5 3019.9678,-125.5"/>
<text text-anchor="middle" x="3039.9185" y="-131.5" font-family="Helvetica,sans-Serif" font-size="10.00" fill="#000000">bitset</text>
</g>
<!-- Node41&#45;&gt;Node42 -->
<g id="edge62" class="edge">
<title>Node41&#45;&gt;Node42</title>
<path fill="none" stroke="#191970" d="M3095.0195,-190.462C3085.0075,-180.2936 3068.5352,-163.5639 3056.2042,-151.0402"/>
<polygon fill="#191970" stroke="#191970" points="3058.6663,-148.5522 3049.1563,-143.8821 3053.6783,-153.4635 3058.6663,-148.5522"/>
</g>
<!-- Node43 -->
<g id="node38" class="node">
<title>Node43</title>
<polygon fill="#ffffff" stroke="#bfbfbf" points="3191.6157,-125.5 3191.6157,-143.5 3278.2212,-143.5 3278.2212,-125.5 3191.6157,-125.5"/>
<text text-anchor="middle" x="3234.9185" y="-131.5" font-family="Helvetica,sans-Serif" font-size="10.00" fill="#000000">unordered_map</text>
</g>
<!-- Node41&#45;&gt;Node43 -->
<g id="edge65" class="edge">
<title>Node41&#45;&gt;Node43</title>
<path fill="none" stroke="#191970" d="M3122.1334,-190.462C3144.2015,-179.5122 3181.603,-160.9542 3207.2419,-148.2326"/>
<polygon fill="#191970" stroke="#191970" points="3209.0336,-151.2508 3216.4359,-143.6708 3205.9223,-144.9803 3209.0336,-151.2508"/>
</g>
<!-- Node44&#45;&gt;Node2 -->
<g id="edge92" class="edge">
<title>Node44&#45;&gt;Node2</title>
<path fill="none" stroke="#191970" d="M2174.5031,-305.1532C2148.2524,-279.4214 2090.3284,-224.4338 2035.9185,-185 2010.4287,-166.5262 1990.5282,-176.3377 1974.9185,-149 1968.5274,-137.8072 1966.5261,-129.7822 1974.9185,-120 2009.1756,-80.0695 2157.0927,-93.0602 2208.9185,-84 2215.1811,-82.9052 2221.7305,-81.7039 2228.2327,-80.476"/>
<polygon fill="#191970" stroke="#191970" points="2229.2002,-83.8544 2238.3635,-78.536 2227.8836,-76.9794 2229.2002,-83.8544"/>
</g>
<!-- Node44&#45;&gt;Node9 -->
<g id="edge93" class="edge">
<title>Node44&#45;&gt;Node9</title>
<path fill="none" stroke="#191970" d="M2132.5669,-305.4996C2036.1226,-281.5383 1841.2227,-233.116 1752.1825,-210.9942"/>
<polygon fill="#191970" stroke="#191970" points="1752.9201,-207.5711 1742.3712,-208.5566 1751.2322,-214.3646 1752.9201,-207.5711"/>
</g>
<!-- Node44&#45;&gt;Node11 -->
<g id="edge94" class="edge">
<title>Node44&#45;&gt;Node11</title>
<path fill="none" stroke="#191970" d="M2252.2838,-317.6946C2445.4156,-311.983 3024.8822,-293.2424 3211.9185,-269 3329.0514,-253.818 3365.8349,-265.9317 3471.9185,-214 3503.8808,-198.3533 3534.0299,-169.4304 3551.204,-151.1194"/>
<polygon fill="#191970" stroke="#191970" points="3553.9723,-153.2788 3558.1417,-143.5388 3548.8084,-148.5528 3553.9723,-153.2788"/>
</g>
<!-- Node44&#45;&gt;Node13 -->
<g id="edge95" class="edge">
<title>Node44&#45;&gt;Node13</title>
<path fill="none" stroke="#191970" d="M2162.5511,-305.4996C2119.0342,-282.3933 2032.6779,-236.5404 1989.2105,-213.4604"/>
<polygon fill="#191970" stroke="#191970" points="1990.5948,-210.2326 1980.1212,-208.6342 1987.312,-216.4152 1990.5948,-210.2326"/>
</g>
<!-- Node44&#45;&gt;Node14 -->
<g id="edge96" class="edge">
<title>Node44&#45;&gt;Node14</title>
<path fill="none" stroke="#191970" d="M2125.4967,-314.5645C1986.1435,-303.7198 1653.4117,-277.8263 1499.089,-265.8168"/>
<polygon fill="#191970" stroke="#191970" points="1498.9799,-262.2978 1488.7385,-265.0113 1498.4367,-269.2767 1498.9799,-262.2978"/>
</g>
<!-- Node44&#45;&gt;Node33 -->
<g id="edge97" class="edge">
<title>Node44&#45;&gt;Node33</title>
<path fill="none" stroke="#191970" d="M2252.4889,-315.4466C2417.7131,-304.9116 2860.6897,-276.6666 3046.2928,-264.8321"/>
<polygon fill="#191970" stroke="#191970" points="3046.783,-268.3081 3056.5399,-264.1788 3046.3375,-261.3223 3046.783,-268.3081"/>
</g>
<!-- Node44&#45;&gt;Node34 -->
<g id="edge99" class="edge">
<title>Node44&#45;&gt;Node34</title>
<path fill="none" stroke="#191970" d="M2147.6173,-305.4996C2077.8784,-281.8593 1937.9001,-234.409 1871.4906,-211.8973"/>
<polygon fill="#191970" stroke="#191970" points="1872.4587,-208.5299 1861.8643,-208.6342 1870.2113,-215.1594 1872.4587,-208.5299"/>
</g>
<!-- Node44&#45;&gt;Node41 -->
<g id="edge98" class="edge">
<title>Node44&#45;&gt;Node41</title>
<path fill="none" stroke="#191970" d="M2252.4209,-317.8912C2367.1957,-314.221 2616.5238,-302.7521 2823.9185,-269 2910.9984,-254.8283 3010.8087,-227.2544 3064.6026,-211.4312"/>
<polygon fill="#191970" stroke="#191970" points="3065.8201,-214.721 3074.4143,-208.525 3063.8321,-208.0092 3065.8201,-214.721"/>
</g>
<!-- Node44&#45;&gt;Node42 -->
<g id="edge104" class="edge">
<title>Node44&#45;&gt;Node42</title>
<path fill="none" stroke="#191970" d="M2252.4815,-308.9403C2355.9385,-291.412 2566.9879,-254.2326 2743.9185,-214 2842.1768,-191.6568 2957.0411,-158.8659 3010.1736,-143.3113"/>
<polygon fill="#191970" stroke="#191970" points="3011.3456,-146.6149 3019.9538,-140.4384 3009.3727,-139.8987 3011.3456,-146.6149"/>
</g>
<!-- Node44&#45;&gt;Node45 -->
<g id="edge68" class="edge">
<title>Node44&#45;&gt;Node45</title>
<path fill="none" stroke="#191970" d="M2188.9185,-305.2632C2188.9185,-283.7178 2188.9185,-242.7893 2188.9185,-218.6524"/>
<polygon fill="#191970" stroke="#191970" points="2192.4186,-218.5918 2188.9185,-208.5918 2185.4186,-218.5918 2192.4186,-218.5918"/>
</g>
<!-- Node44&#45;&gt;Node56 -->
<g id="edge80" class="edge">
<title>Node44&#45;&gt;Node56</title>
<path fill="none" stroke="#191970" d="M2245.97,-305.4996C2343.6124,-281.5383 2540.9335,-233.116 2631.0797,-210.9942"/>
<polygon fill="#191970" stroke="#191970" points="2632.1352,-214.3391 2641.0129,-208.5566 2630.4669,-207.5408 2632.1352,-214.3391"/>
</g>
<!-- Node59 -->
<g id="node47" class="node">
<title>Node59</title>
<g id="a_node47"><a xlink:href="residue_8hpp.html" target="_top" xlink:title="residue.hpp">
<polygon fill="#ffffff" stroke="#000000" points="2302.7881,-190.5 2302.7881,-208.5 2371.0488,-208.5 2371.0488,-190.5 2302.7881,-190.5"/>
<text text-anchor="middle" x="2336.9185" y="-196.5" font-family="Helvetica,sans-Serif" font-size="10.00" fill="#000000">residue.hpp</text>
</a>
</g>
</g>
<!-- Node44&#45;&gt;Node59 -->
<g id="edge100" class="edge">
<title>Node44&#45;&gt;Node59</title>
<path fill="none" stroke="#191970" d="M2206.1856,-305.4996C2234.0847,-282.8787 2288.8715,-238.457 2317.8699,-214.9447"/>
<polygon fill="#191970" stroke="#191970" points="2320.0897,-217.6509 2325.6529,-208.6342 2315.681,-212.2136 2320.0897,-217.6509"/>
</g>
<!-- Node45&#45;&gt;Node2 -->
<g id="edge69" class="edge">
<title>Node45&#45;&gt;Node2</title>
<path fill="none" stroke="#191970" d="M2185.5447,-190.3511C2180.3803,-174.6682 2172.4482,-142.1992 2185.9185,-120 2196.9559,-101.81 2216.9183,-89.8683 2235.8765,-82.19"/>
<polygon fill="#191970" stroke="#191970" points="2237.2066,-85.4295 2245.3516,-78.6539 2234.759,-78.8714 2237.2066,-85.4295"/>
</g>
<!-- Node45&#45;&gt;Node4 -->
<g id="edge78" class="edge">
<title>Node45&#45;&gt;Node4</title>
<path fill="none" stroke="#191970" d="M2181.3104,-190.3354C2162.8502,-166.92 2118.9102,-103.337 2142.9185,-55 2149.4989,-41.7512 2161.9848,-31.325 2173.8698,-23.8148"/>
<polygon fill="#191970" stroke="#191970" points="2175.861,-26.7051 2182.7334,-18.6415 2172.3325,-20.6595 2175.861,-26.7051"/>
</g>
<!-- Node45&#45;&gt;Node6 -->
<g id="edge79" class="edge">
<title>Node45&#45;&gt;Node6</title>
<path fill="none" stroke="#191970" d="M2189.3611,-190.2695C2190.7237,-173.2291 2196.279,-137.0207 2218.9185,-120 2267.4526,-83.5114 2700.0639,-72.4624 2822.0347,-70.059"/>
<polygon fill="#191970" stroke="#191970" points="2822.2791,-73.5551 2832.2103,-69.8645 2822.1453,-66.5563 2822.2791,-73.5551"/>
</g>
<!-- Node45&#45;&gt;Node38 -->
<g id="edge76" class="edge">
<title>Node45&#45;&gt;Node38</title>
<path fill="none" stroke="#191970" d="M2168.2006,-190.462C2142.7686,-179.3675 2099.4322,-160.4624 2070.2488,-147.7313"/>
<polygon fill="#191970" stroke="#191970" points="2071.506,-144.4613 2060.9407,-143.6708 2068.707,-150.8774 2071.506,-144.4613"/>
</g>
<!-- Node45&#45;&gt;Node40 -->
<g id="edge75" class="edge">
<title>Node45&#45;&gt;Node40</title>
<path fill="none" stroke="#191970" d="M2248.7986,-190.4852C2263.527,-188.4739 2279.273,-186.4966 2293.9185,-185 2533.6462,-160.5022 2595.5305,-176.6214 2834.9185,-149 2846.6963,-147.641 2859.3013,-145.7978 2871.1849,-143.8816"/>
<polygon fill="#191970" stroke="#191970" points="2872.1098,-147.2762 2881.4035,-142.1892 2870.966,-140.3702 2872.1098,-147.2762"/>
</g>
<!-- Node46 -->
<g id="node41" class="node">
<title>Node46</title>
<g id="a_node41"><a xlink:href="base__graph_8hpp.html" target="_top" xlink:title="base_graph.hpp">
<polygon fill="#ffffff" stroke="#ff0000" points="2575.7759,-125.5 2575.7759,-143.5 2664.061,-143.5 2664.061,-125.5 2575.7759,-125.5"/>
<text text-anchor="middle" x="2619.9185" y="-131.5" font-family="Helvetica,sans-Serif" font-size="10.00" fill="#000000">base_graph.hpp</text>
</a>
</g>
</g>
<!-- Node45&#45;&gt;Node46 -->
<g id="edge70" class="edge">
<title>Node45&#45;&gt;Node46</title>
<path fill="none" stroke="#191970" d="M2249.7075,-191.041C2264.1934,-189.0431 2279.6026,-186.9324 2293.9185,-185 2415.2023,-168.6291 2446.952,-173.2036 2566.9185,-149 2571.0739,-148.1616 2575.3836,-147.1774 2579.6689,-146.1232"/>
<polygon fill="#191970" stroke="#191970" points="2580.7333,-149.4632 2589.5394,-143.5723 2578.9817,-142.6859 2580.7333,-149.4632"/>
</g>
<!-- Node55 -->
<g id="node42" class="node">
<title>Node55</title>
<polygon fill="#ffffff" stroke="#bfbfbf" points="2227.4531,-125.5 2227.4531,-143.5 2332.3838,-143.5 2332.3838,-125.5 2227.4531,-125.5"/>
<text text-anchor="middle" x="2279.9185" y="-131.5" font-family="Helvetica,sans-Serif" font-size="10.00" fill="#000000">EASTL/vector_set.h</text>
</g>
<!-- Node45&#45;&gt;Node55 -->
<g id="edge77" class="edge">
<title>Node45&#45;&gt;Node55</title>
<path fill="none" stroke="#191970" d="M2201.5716,-190.462C2216.2935,-179.9464 2240.8391,-162.4138 2258.537,-149.7725"/>
<polygon fill="#191970" stroke="#191970" points="2260.9764,-152.3313 2267.0794,-143.6708 2256.9077,-146.6351 2260.9764,-152.3313"/>
</g>
<!-- Node46&#45;&gt;Node2 -->
<g id="edge71" class="edge">
<title>Node46&#45;&gt;Node2</title>
<path fill="none" stroke="#191970" d="M2588.6486,-125.4376C2581.5359,-123.5179 2573.9914,-121.5929 2566.9185,-120 2494.4448,-103.6783 2410.6015,-89.3154 2352.9004,-80.1217"/>
<polygon fill="#191970" stroke="#191970" points="2353.2222,-76.6291 2342.7979,-78.5223 2352.1275,-83.543 2353.2222,-76.6291"/>
</g>
<!-- Node46&#45;&gt;Node3 -->
<g id="edge72" class="edge">
<title>Node46&#45;&gt;Node3</title>
<path fill="none" stroke="#191970" d="M2587.465,-125.4543C2544.1894,-113.3553 2469.9077,-92.4482 2442.9185,-84 2404.8251,-72.076 2396.7887,-64.0767 2357.9185,-55 2243.7757,-28.3463 2104.6706,-16.0577 2042.5727,-11.5955"/>
<polygon fill="#191970" stroke="#191970" points="2042.8079,-8.1035 2032.5884,-10.8984 2042.3203,-15.0865 2042.8079,-8.1035"/>
</g>
<!-- Node46&#45;&gt;Node4 -->
<g id="edge73" class="edge">
<title>Node46&#45;&gt;Node4</title>
<path fill="none" stroke="#191970" d="M2603.3509,-125.4609C2572.6142,-109.058 2504.2948,-74.3061 2442.9185,-55 2372.3993,-32.818 2286.6388,-19.7481 2239.0901,-13.6659"/>
<polygon fill="#191970" stroke="#191970" points="2239.3369,-10.1696 2228.9805,-12.4048 2238.4704,-17.1158 2239.3369,-10.1696"/>
</g>
<!-- Node46&#45;&gt;Node6 -->
<g id="edge74" class="edge">
<title>Node46&#45;&gt;Node6</title>
<path fill="none" stroke="#191970" d="M2652.4552,-125.462C2697.4259,-112.9701 2778.0442,-90.5762 2822.445,-78.2426"/>
<polygon fill="#191970" stroke="#191970" points="2823.4291,-81.6019 2832.1275,-75.553 2821.5556,-74.8572 2823.4291,-81.6019"/>
</g>
<!-- Node56&#45;&gt;Node2 -->
<g id="edge83" class="edge">
<title>Node56&#45;&gt;Node2</title>
<path fill="none" stroke="#191970" d="M2620.1931,-192.4236C2574.0591,-185.3684 2508.4806,-172.1541 2454.9185,-149 2433.7596,-139.8533 2432.3301,-130.7108 2411.9185,-120 2382.3646,-104.4919 2346.9454,-90.9577 2320.7041,-81.8144"/>
<polygon fill="#191970" stroke="#191970" points="2321.7222,-78.4635 2311.1276,-78.5302 2319.4514,-85.085 2321.7222,-78.4635"/>
</g>
<!-- Node56&#45;&gt;Node4 -->
<g id="edge88" class="edge">
<title>Node56&#45;&gt;Node4</title>
<path fill="none" stroke="#191970" d="M2735.7058,-191.5457C2819.4101,-179.7485 2965.2975,-158.0364 2972.9185,-149 2981.2279,-139.1472 2978.7247,-131.507 2972.9185,-120 2951.0145,-76.5896 2930.5706,-71.737 2884.9185,-55 2824.1715,-32.729 2371.945,-15.3815 2239.3534,-10.7325"/>
<polygon fill="#191970" stroke="#191970" points="2239.4141,-7.2326 2229.2985,-10.3829 2239.1708,-14.2283 2239.4141,-7.2326"/>
</g>
<!-- Node56&#45;&gt;Node6 -->
<g id="edge91" class="edge">
<title>Node56&#45;&gt;Node6</title>
<path fill="none" stroke="#191970" d="M2721.7965,-190.4365C2762.6331,-181.1364 2819.451,-165.7002 2834.9185,-149 2850.0192,-132.6957 2853.7549,-106.5894 2854.3793,-88.7746"/>
<polygon fill="#191970" stroke="#191970" points="2857.8796,-88.7023 2854.4343,-78.6833 2850.8797,-88.6641 2857.8796,-88.7023"/>
</g>
<!-- Node56&#45;&gt;Node8 -->
<g id="edge87" class="edge">
<title>Node56&#45;&gt;Node8</title>
<path fill="none" stroke="#191970" d="M2735.7407,-197.3406C2844.298,-192.7038 3085.8051,-179.6234 3286.9185,-149 3299.2579,-147.1211 3312.749,-144.2484 3324.2262,-141.5541"/>
<polygon fill="#191970" stroke="#191970" points="3325.2127,-144.9165 3334.1096,-139.1636 3323.567,-138.1127 3325.2127,-144.9165"/>
</g>
<!-- Node56&#45;&gt;Node37 -->
<g id="edge86" class="edge">
<title>Node56&#45;&gt;Node37</title>
<path fill="none" stroke="#191970" d="M2620.3119,-191.9654C2565.895,-184.053 2482.3459,-169.8397 2411.9185,-149 2379.2331,-139.3283 2373.2089,-130.9182 2340.9185,-120 2282.9067,-100.3848 2265.5504,-104.7046 2207.9185,-84 2206.6915,-83.5592 2205.4464,-83.0909 2204.1946,-82.6029"/>
<polygon fill="#191970" stroke="#191970" points="2205.2371,-79.2446 2194.6619,-78.6005 2202.5272,-85.6988 2205.2371,-79.2446"/>
</g>
<!-- Node56&#45;&gt;Node38 -->
<g id="edge85" class="edge">
<title>Node56&#45;&gt;Node38</title>
<path fill="none" stroke="#191970" d="M2620.175,-193.617C2501.5809,-181.5346 2231.2147,-153.9894 2105.9207,-141.2244"/>
<polygon fill="#191970" stroke="#191970" points="2106.0075,-137.7152 2095.7043,-140.1835 2105.298,-144.6791 2106.0075,-137.7152"/>
</g>
<!-- Node56&#45;&gt;Node46 -->
<g id="edge84" class="edge">
<title>Node56&#45;&gt;Node46</title>
<path fill="none" stroke="#191970" d="M2669.8538,-190.462C2660.866,-180.3895 2646.1336,-163.879 2634.9946,-151.3957"/>
<polygon fill="#191970" stroke="#191970" points="2637.5596,-149.0133 2628.2902,-143.8821 2632.3366,-153.6738 2637.5596,-149.0133"/>
</g>
<!-- Node50 -->
<g id="node44" class="node">
<title>Node50</title>
<g id="a_node44"><a xlink:href="cycles_8hpp.html" target="_top" xlink:title="../algorithm/graph\l/cycles.hpp">
<polygon fill="#ffffff" stroke="#ff0000" points="2464.0098,-120.5 2464.0098,-148.5 2557.8271,-148.5 2557.8271,-120.5 2464.0098,-120.5"/>
<text text-anchor="start" x="2472.0098" y="-136.5" font-family="Helvetica,sans-Serif" font-size="10.00" fill="#000000">../algorithm/graph</text>
<text text-anchor="middle" x="2510.9185" y="-126.5" font-family="Helvetica,sans-Serif" font-size="10.00" fill="#000000">/cycles.hpp</text>
</a>
</g>
</g>
<!-- Node56&#45;&gt;Node50 -->
<g id="edge81" class="edge">
<title>Node56&#45;&gt;Node50</title>
<path fill="none" stroke="#191970" d="M2654.6978,-190.462C2629.4381,-180.6304 2588.4195,-164.6651 2556.6462,-152.2982"/>
<polygon fill="#191970" stroke="#191970" points="2557.6985,-148.9521 2547.11,-148.5865 2555.1594,-155.4754 2557.6985,-148.9521"/>
</g>
<!-- Node57 -->
<g id="node45" class="node">
<title>Node57</title>
<polygon fill="#ffffff" stroke="#bfbfbf" points="2720.2485,-125.5 2720.2485,-143.5 2749.5884,-143.5 2749.5884,-125.5 2720.2485,-125.5"/>
<text text-anchor="middle" x="2734.9185" y="-131.5" font-family="Helvetica,sans-Serif" font-size="10.00" fill="#000000">set</text>
</g>
<!-- Node56&#45;&gt;Node57 -->
<g id="edge89" class="edge">
<title>Node56&#45;&gt;Node57</title>
<path fill="none" stroke="#191970" d="M2685.8441,-190.462C2694.5928,-180.4854 2708.8801,-164.1929 2719.7885,-151.7535"/>
<polygon fill="#191970" stroke="#191970" points="2722.7293,-153.7084 2726.691,-143.8821 2717.4663,-149.0931 2722.7293,-153.7084"/>
</g>
<!-- Node58 -->
<g id="node46" class="node">
<title>Node58</title>
<polygon fill="#ffffff" stroke="#bfbfbf" points="2767.5171,-125.5 2767.5171,-143.5 2826.3198,-143.5 2826.3198,-125.5 2767.5171,-125.5"/>
<text text-anchor="middle" x="2796.9185" y="-131.5" font-family="Helvetica,sans-Serif" font-size="10.00" fill="#000000">stdexcept</text>
</g>
<!-- Node56&#45;&gt;Node58 -->
<g id="edge90" class="edge">
<title>Node56&#45;&gt;Node58</title>
<path fill="none" stroke="#191970" d="M2694.4649,-190.462C2714.3348,-179.6087 2747.8893,-161.2806 2771.1591,-148.5702"/>
<polygon fill="#191970" stroke="#191970" points="2773.0306,-151.5361 2780.1289,-143.6708 2769.675,-145.3928 2773.0306,-151.5361"/>
</g>
<!-- Node50&#45;&gt;Node2 -->
<g id="edge82" class="edge">
<title>Node50&#45;&gt;Node2</title>
<path fill="none" stroke="#191970" d="M2463.9532,-121.1108C2422.9404,-109.4185 2363.9747,-92.6081 2324.6053,-81.3844"/>
<polygon fill="#191970" stroke="#191970" points="2325.3707,-77.9632 2314.7943,-78.5874 2323.4515,-84.695 2325.3707,-77.9632"/>
</g>
<!-- Node59&#45;&gt;Node2 -->
<g id="edge101" class="edge">
<title>Node59&#45;&gt;Node2</title>
<path fill="none" stroke="#191970" d="M2340.041,-190.1659C2344.6311,-174.7612 2351.5685,-143.3942 2340.9185,-120 2334.1523,-105.1372 2320.6116,-92.9488 2308.3144,-84.2721"/>
<polygon fill="#191970" stroke="#191970" points="2309.9694,-81.171 2299.6946,-78.5867 2306.1153,-87.0144 2309.9694,-81.171"/>
</g>
<!-- Node59&#45;&gt;Node6 -->
<g id="edge103" class="edge">
<title>Node59&#45;&gt;Node6</title>
<path fill="none" stroke="#191970" d="M2371.1547,-196.5333C2445.3826,-189.7509 2618.8022,-171.9135 2672.9185,-149 2692.4822,-140.7165 2692.2301,-130.1047 2710.9185,-120 2747.1742,-100.3966 2792.5611,-85.8847 2822.3548,-77.5676"/>
<polygon fill="#191970" stroke="#191970" points="2823.4733,-80.8906 2832.2023,-74.886 2821.634,-74.1365 2823.4733,-80.8906"/>
</g>
<!-- Node59&#45;&gt;Node55 -->
<g id="edge102" class="edge">
<title>Node59&#45;&gt;Node55</title>
<path fill="none" stroke="#191970" d="M2328.9929,-190.462C2320.2441,-180.4854 2305.9568,-164.1929 2295.0484,-151.7535"/>
<polygon fill="#191970" stroke="#191970" points="2297.3707,-149.0931 2288.1459,-143.8821 2292.1076,-153.7084 2297.3707,-149.0931"/>
</g>
</g>
</svg>
        <g id="navigator" transform="translate(0 0)" fill="#404254">
                <rect fill="#f2f5e9" fill-opacity="0.5" stroke="#606060" stroke-width=".5" x="0" y="0" width="60" height="60"/>
                <use id="zoomplus" xlink:href="#zoomPlus" x="17" y="9" onmousedown="handleZoom(evt,'in')"/>
                <use id="zoomminus" xlink:href="#zoomMin" x="42" y="9" onmousedown="handleZoom(evt,'out')"/>
                <use id="reset" xlink:href="#resetDef" x="30" y="36" onmousedown="handleReset()"/>
                <g id="arrowUp" xlink:href="#dirArrow" transform="translate(30 24)" onmousedown="handlePan(0,-1)">
                  <use xlink:href="#rim" fill="#404040">
                        <set attributeName="fill" to="#808080" begin="arrowUp.mouseover" end="arrowUp.mouseout"/>
                  </use>
                  <path fill="none" stroke="white" stroke-width="1.5" d="M0,-3.0v7 M-2.5,-0.5L0,-3.0L2.5,-0.5"/>
                </g>
                <g id="arrowRight" xlink:href="#dirArrow" transform="rotate(90) translate(36 -43)" onmousedown="handlePan(1,0)">
                  <use xlink:href="#rim" fill="#404040">
                        <set attributeName="fill" to="#808080" begin="arrowRight.mouseover" end="arrowRight.mouseout"/>
                  </use>
                  <path fill="none" stroke="white" stroke-width="1.5" d="M0,-3.0v7 M-2.5,-0.5L0,-3.0L2.5,-0.5"/>
                </g>
                <g id="arrowDown" xlink:href="#dirArrow" transform="rotate(180) translate(-30 -48)" onmousedown="handlePan(0,1)">
                  <use xlink:href="#rim" fill="#404040">
                        <set attributeName="fill" to="#808080" begin="arrowDown.mouseover" end="arrowDown.mouseout"/>
                  </use>
                  <path fill="none" stroke="white" stroke-width="1.5" d="M0,-3.0v7 M-2.5,-0.5L0,-3.0L2.5,-0.5"/>
                </g>
                <g id="arrowLeft" xlink:href="#dirArrow" transform="rotate(270) translate(-36 17)" onmousedown="handlePan(-1,0)">
                  <use xlink:href="#rim" fill="#404040">
                        <set attributeName="fill" to="#808080" begin="arrowLeft.mouseover" end="arrowLeft.mouseout"/>
                  </use>
                  <path fill="none" stroke="white" stroke-width="1.5" d="M0,-3.0v7 M-2.5,-0.5L0,-3.0L2.5,-0.5"/>
                </g>
        </g>
        <svg viewBox="0 0 15 15" width="100%" height="30px" preserveAspectRatio="xMaxYMin meet">
         <g id="arrow_out" transform="scale(0.3 0.3)">
          <a xlink:href="classes_2molecule_8cpp__incl_org.svg" target="_base">
           <rect id="button" ry="5" rx="5" y="6" x="6" height="38" width="38"
                fill="#f2f5e9" fill-opacity="0.5" stroke="#606060" stroke-width="1.0"/>
           <path id="arrow"
             d="M 11.500037,31.436501 C 11.940474,20.09759 22.043105,11.32322 32.158766,21.979434 L 37.068811,17.246167 C 37.068811,17.246167 37.088388,32 37.088388,32 L 22.160133,31.978069 C 22.160133,31.978069 26.997745,27.140456 26.997745,27.140456 C 18.528582,18.264221 13.291696,25.230495 11.500037,31.436501 z"
             style="fill:#404040;"/>
          </a>
         </g>
        </svg>
</svg>
