<?xml version="1.0" encoding="UTF-8" standalone="no"?>
<!DOCTYPE svg PUBLIC "-//W3C//DTD SVG 1.1//EN"
 "http://www.w3.org/Graphics/SVG/1.1/DTD/svg11.dtd">
<!-- Generated by graphviz version 2.40.1 (20161225.0304)
 -->
<!-- Title: IXElectronAssigner::AssignAlgorithm Pages: 1 -->
<!--zoomable 195 -->
<svg id="main" version="1.1" xmlns="http://www.w3.org/2000/svg" xmlns:xlink="http://www.w3.org/1999/xlink" xml:space="preserve" onload="init(evt)">
<style type="text/css"><![CDATA[
.edge:hover path { stroke: red; }
.edge:hover polygon { stroke: red; fill: red; }
]]></style>
<script type="text/javascript"><![CDATA[
var edges = document.getElementsByTagName('g');
if (edges && edges.length) {
  for (var i=0;i<edges.length;i++) {
    if (edges[i].id.substr(0,4)=='edge') {
      edges[i].setAttribute('class','edge');
    }
  }
}
]]></script>
        <defs>
                <circle id="rim" cx="0" cy="0" r="7"/>
                <circle id="rim2" cx="0" cy="0" r="3.5"/>
                <g id="zoomPlus">
                        <use xlink:href="#rim" fill="#404040">
                                <set attributeName="fill" to="#808080" begin="zoomplus.mouseover" end="zoomplus.mouseout"/>
                        </use>
                        <path d="M-4,0h8M0,-4v8" fill="none" stroke="white" stroke-width="1.5" pointer-events="none"/>
                </g>
                <g id="zoomMin">
                        <use xlink:href="#rim" fill="#404040">
                                <set attributeName="fill" to="#808080" begin="zoomminus.mouseover" end="zoomminus.mouseout"/>
                        </use>
                        <path d="M-4,0h8" fill="none" stroke="white" stroke-width="1.5" pointer-events="none"/>
                </g>
                <g id="dirArrow">
                        <path fill="none" stroke="white" stroke-width="1.5" d="M0,-3.0v7 M-2.5,-0.5L0,-3.0L2.5,-0.5"/>
                </g>
               <g id="resetDef">
                       <use xlink:href="#rim2" fill="#404040">
                               <set attributeName="fill" to="#808080" begin="reset.mouseover" end="reset.mouseout"/>
                       </use>
               </g>
        </defs>

<script type="text/javascript">
var viewWidth = 658;
var viewHeight = 195;
var sectionId = 'dynsection-1';
</script>
<script xlink:href="svgpan.js"/>
<svg id="graph" class="graph">
<g id="viewport">
<title>IXElectronAssigner::AssignAlgorithm</title>
<polygon fill="#ffffff" stroke="transparent" points="-4,4 -4,-190.5 653.8926,-190.5 653.8926,4 -4,4"/>
<!-- Node3 -->
<g id="node1" class="node">
<title>Node3</title>
<g id="a_node1"><a xlink:title="Base class for an electron assignment algorithm.">
<polygon fill="#bfbfbf" stroke="#000000" points="548.8535,-69.5 548.8535,-97.5 649.8926,-97.5 649.8926,-69.5 548.8535,-69.5"/>
<text text-anchor="start" x="556.8535" y="-85.5" font-family="Helvetica,sans-Serif" font-size="10.00" fill="#000000">IXElectronAssigner</text>
<text text-anchor="middle" x="599.373" y="-75.5" font-family="Helvetica,sans-Serif" font-size="10.00" fill="#000000">::AssignAlgorithm</text>
</a>
</g>
</g>
<!-- Node4 -->
<g id="node2" class="node">
<title>Node4</title>
<g id="a_node2"><a xlink:title="STL class.">
<polygon fill="#ffffff" stroke="#bfbfbf" points="116.4185,-167.5 116.4185,-185.5 187.0913,-185.5 187.0913,-167.5 116.4185,-167.5"/>
<text text-anchor="middle" x="151.7549" y="-173.5" font-family="Helvetica,sans-Serif" font-size="10.00" fill="#000000">map&lt; K, T &gt;</text>
</a>
</g>
</g>
<!-- Node4&#45;&gt;Node3 -->
<g id="edge1" class="edge">
<title>Node4&#45;&gt;Node3</title>
<path fill="none" stroke="#9a32cd" stroke-dasharray="5,2" d="M197.641,-178.3971C261.2855,-179.7515 379.3317,-177.6188 475.0605,-149.5 514.2132,-137.9996 555.1853,-113.4171 578.9416,-97.7147"/>
<polygon fill="#9a32cd" stroke="#9a32cd" points="197.6158,-174.8954 187.5307,-178.1423 197.4394,-181.8932 197.6158,-174.8954"/>
<text text-anchor="middle" x="407.8589" y="-174.5" font-family="Helvetica,sans-Serif" font-size="10.00" fill="#000000"> _table</text>
</g>
<!-- Node5 -->
<g id="node3" class="node">
<title>Node5</title>
<g id="a_node3"><a xlink:title=" ">
<polygon fill="#ffffff" stroke="#bfbfbf" points="0,-167.5 0,-185.5 29,-185.5 29,-167.5 0,-167.5"/>
<text text-anchor="middle" x="14.5" y="-173.5" font-family="Helvetica,sans-Serif" font-size="10.00" fill="#000000">K</text>
</a>
</g>
</g>
<!-- Node5&#45;&gt;Node4 -->
<g id="edge2" class="edge">
<title>Node5&#45;&gt;Node4</title>
<path fill="none" stroke="#9a32cd" stroke-dasharray="5,2" d="M39.4352,-176.5C60.9027,-176.5 92.1348,-176.5 116.2187,-176.5"/>
<polygon fill="#9a32cd" stroke="#9a32cd" points="39.1887,-173.0001 29.1887,-176.5 39.1886,-180.0001 39.1887,-173.0001"/>
<text text-anchor="middle" x="68.6772" y="-178.5" font-family="Helvetica,sans-Serif" font-size="10.00" fill="#000000"> keys</text>
</g>
<!-- Node6 -->
<g id="node4" class="node">
<title>Node6</title>
<g id="a_node4"><a xlink:title=" ">
<polygon fill="#ffffff" stroke="#bfbfbf" points="0,-101.5 0,-119.5 29,-119.5 29,-101.5 0,-101.5"/>
<text text-anchor="middle" x="14.5" y="-107.5" font-family="Helvetica,sans-Serif" font-size="10.00" fill="#000000">T</text>
</a>
</g>
</g>
<!-- Node6&#45;&gt;Node4 -->
<g id="edge3" class="edge">
<title>Node6&#45;&gt;Node4</title>
<path fill="none" stroke="#9a32cd" stroke-dasharray="5,2" d="M38.2673,-121.9287C65.0807,-134.8221 108.1547,-155.5345 132.8053,-167.388"/>
<polygon fill="#9a32cd" stroke="#9a32cd" points="39.7177,-118.7425 29.1887,-117.5632 36.6841,-125.0511 39.7177,-118.7425"/>
<text text-anchor="middle" x="68.6772" y="-146.5" font-family="Helvetica,sans-Serif" font-size="10.00" fill="#000000"> elements</text>
</g>
<!-- Node8 -->
<g id="node6" class="node">
<title>Node8</title>
<g id="a_node6"><a xlink:title="STL class.">
<polygon fill="#ffffff" stroke="#bfbfbf" points="108.3545,-103.5 108.3545,-121.5 195.1553,-121.5 195.1553,-103.5 108.3545,-103.5"/>
<text text-anchor="middle" x="151.7549" y="-109.5" font-family="Helvetica,sans-Serif" font-size="10.00" fill="#000000">shared_ptr&lt; T &gt;</text>
</a>
</g>
</g>
<!-- Node6&#45;&gt;Node8 -->
<g id="edge6" class="edge">
<title>Node6&#45;&gt;Node8</title>
<path fill="none" stroke="#9a32cd" stroke-dasharray="5,2" d="M39.4079,-110.8089C54.2104,-110.9974 73.3543,-111.2495 90.3545,-111.5 96.1109,-111.5848 102.1708,-111.6784 108.1501,-111.7731"/>
<polygon fill="#9a32cd" stroke="#9a32cd" points="39.0853,-107.3047 29.042,-110.6783 38.9971,-114.3041 39.0853,-107.3047"/>
<text text-anchor="middle" x="68.6772" y="-113.5" font-family="Helvetica,sans-Serif" font-size="10.00" fill="#000000"> ptr</text>
</g>
<!-- Node12 -->
<g id="node10" class="node">
<title>Node12</title>
<g id="a_node10"><a xlink:title="STL class.">
<polygon fill="#ffffff" stroke="#bfbfbf" points="118.6426,-66.5 118.6426,-84.5 184.8672,-84.5 184.8672,-66.5 118.6426,-66.5"/>
<text text-anchor="middle" x="151.7549" y="-72.5" font-family="Helvetica,sans-Serif" font-size="10.00" fill="#000000">vector&lt; T &gt;</text>
</a>
</g>
</g>
<!-- Node6&#45;&gt;Node12 -->
<g id="edge11" class="edge">
<title>Node6&#45;&gt;Node12</title>
<path fill="none" stroke="#9a32cd" stroke-dasharray="5,2" d="M38.4588,-99.5177C41.3054,-98.4107 44.1958,-97.3745 47,-96.5 70.3737,-89.2108 97.4944,-83.8553 118.2836,-80.3774"/>
<polygon fill="#9a32cd" stroke="#9a32cd" points="37.0097,-96.33 29.1385,-103.4219 39.7142,-102.7864 37.0097,-96.33"/>
<text text-anchor="middle" x="68.6772" y="-98.5" font-family="Helvetica,sans-Serif" font-size="10.00" fill="#000000"> elements</text>
</g>
<!-- Node7 -->
<g id="node5" class="node">
<title>Node7</title>
<g id="a_node5"><a xlink:title=" ">
<polygon fill="#ffffff" stroke="#bfbfbf" points="340.7988,-111.5 340.7988,-139.5 474.9189,-139.5 474.9189,-111.5 340.7988,-111.5"/>
<text text-anchor="start" x="348.7988" y="-127.5" font-family="Helvetica,sans-Serif" font-size="10.00" fill="#000000">shared_ptr&lt; IXAssignment</text>
<text text-anchor="middle" x="407.8589" y="-117.5" font-family="Helvetica,sans-Serif" font-size="10.00" fill="#000000">Graph &gt;</text>
</a>
</g>
</g>
<!-- Node7&#45;&gt;Node3 -->
<g id="edge4" class="edge">
<title>Node7&#45;&gt;Node3</title>
<path fill="none" stroke="#9a32cd" stroke-dasharray="5,2" d="M481.7136,-109.3033C504.1152,-104.3905 528.2066,-99.1071 548.7192,-94.6086"/>
<polygon fill="#9a32cd" stroke="#9a32cd" points="480.9147,-105.8952 471.8966,-111.4562 482.4142,-112.7328 480.9147,-105.8952"/>
<text text-anchor="middle" x="511.957" y="-107.5" font-family="Helvetica,sans-Serif" font-size="10.00" fill="#000000"> _g</text>
</g>
<!-- Node8&#45;&gt;Node7 -->
<g id="edge5" class="edge">
<title>Node8&#45;&gt;Node7</title>
<path fill="none" stroke="#ffa500" stroke-dasharray="5,2" d="M205.4006,-121.7032C208.0183,-122.0058 210.6137,-122.2747 213.1553,-122.5 255.4169,-126.2469 303.0354,-127.041 340.6018,-126.877"/>
<polygon fill="#ffa500" stroke="#ffa500" points="205.6274,-118.2035 195.2608,-120.3908 204.7288,-125.1456 205.6274,-118.2035"/>
<text text-anchor="middle" x="267.9063" y="-128.5" font-family="Helvetica,sans-Serif" font-size="10.00" fill="#000000"> &lt; IXAssignmentGraph &gt;</text>
</g>
<!-- Node13 -->
<g id="node11" class="node">
<title>Node13</title>
<g id="a_node11"><a xlink:title=" ">
<polygon fill="#ffffff" stroke="#bfbfbf" points="340.6572,-74.5 340.6572,-92.5 475.0605,-92.5 475.0605,-74.5 340.6572,-74.5"/>
<text text-anchor="middle" x="407.8589" y="-80.5" font-family="Helvetica,sans-Serif" font-size="10.00" fill="#000000">vector&lt; graph::AGVertex &gt;</text>
</a>
</g>
</g>
<!-- Node8&#45;&gt;Node13 -->
<g id="edge13" class="edge">
<title>Node8&#45;&gt;Node13</title>
<path fill="none" stroke="#9a32cd" stroke-dasharray="5,2" d="M205.3783,-106.4279C244.6972,-101.9756 298.3566,-95.8995 340.5575,-91.1209"/>
<polygon fill="#9a32cd" stroke="#9a32cd" points="204.7421,-102.9775 195.1994,-107.5805 205.5298,-109.9331 204.7421,-102.9775"/>
<text text-anchor="middle" x="267.9063" y="-106.5" font-family="Helvetica,sans-Serif" font-size="10.00" fill="#000000"> elements</text>
</g>
<!-- Node9 -->
<g id="node7" class="node">
<title>Node9</title>
<g id="a_node7"><a xlink:title=" ">
<polygon fill="#ffffff" stroke="#bfbfbf" points="351.7705,-.5 351.7705,-18.5 463.9473,-18.5 463.9473,-.5 351.7705,-.5"/>
<text text-anchor="middle" x="407.8589" y="-6.5" font-family="Helvetica,sans-Serif" font-size="10.00" fill="#000000">bitset&lt; __num_opts &gt;</text>
</a>
</g>
</g>
<!-- Node9&#45;&gt;Node3 -->
<g id="edge7" class="edge">
<title>Node9&#45;&gt;Node3</title>
<path fill="none" stroke="#9a32cd" stroke-dasharray="5,2" d="M450.7847,-21.272C458.8718,-23.5929 467.2422,-26.0654 475.0605,-28.5 500.0712,-36.2884 506.7876,-37.1547 530.8535,-47.5 545.7914,-53.9214 561.9158,-62.3151 574.768,-69.3821"/>
<polygon fill="#9a32cd" stroke="#9a32cd" points="451.6926,-17.8915 441.1169,-18.529 449.7818,-24.6257 451.6926,-17.8915"/>
<text text-anchor="middle" x="511.957" y="-49.5" font-family="Helvetica,sans-Serif" font-size="10.00" fill="#000000"> _opts</text>
</g>
<!-- Node10 -->
<g id="node8" class="node">
<title>Node10</title>
<g id="a_node8"><a xlink:title="STL class.">
<polygon fill="#ffffff" stroke="#bfbfbf" points="114.8511,-.5 114.8511,-18.5 188.6587,-18.5 188.6587,-.5 114.8511,-.5"/>
<text text-anchor="middle" x="151.7549" y="-6.5" font-family="Helvetica,sans-Serif" font-size="10.00" fill="#000000">bitset&lt; Bits &gt;</text>
</a>
</g>
</g>
<!-- Node10&#45;&gt;Node9 -->
<g id="edge8" class="edge">
<title>Node10&#45;&gt;Node9</title>
<path fill="none" stroke="#ffa500" stroke-dasharray="5,2" d="M198.9358,-9.5C242.024,-9.5 305.7921,-9.5 351.5345,-9.5"/>
<polygon fill="#ffa500" stroke="#ffa500" points="198.7211,-6.0001 188.7211,-9.5 198.7211,-13.0001 198.7211,-6.0001"/>
<text text-anchor="middle" x="267.9063" y="-11.5" font-family="Helvetica,sans-Serif" font-size="10.00" fill="#000000"> &lt; __num_opts &gt;</text>
</g>
<!-- Node11 -->
<g id="node9" class="node">
<title>Node11</title>
<g id="a_node9"><a xlink:title=" ">
<polygon fill="#ffffff" stroke="#bfbfbf" points="350.9453,-37.5 350.9453,-55.5 464.7725,-55.5 464.7725,-37.5 350.9453,-37.5"/>
<text text-anchor="middle" x="407.8589" y="-43.5" font-family="Helvetica,sans-Serif" font-size="10.00" fill="#000000">vector&lt; AssignMask &gt;</text>
</a>
</g>
</g>
<!-- Node11&#45;&gt;Node3 -->
<g id="edge9" class="edge">
<title>Node11&#45;&gt;Node3</title>
<path fill="none" stroke="#9a32cd" stroke-dasharray="5,2" d="M467.2686,-57.4027C487.4625,-61.1637 510.1535,-65.4501 530.8535,-69.5 536.573,-70.619 542.5566,-71.8106 548.5041,-73.0081"/>
<polygon fill="#9a32cd" stroke="#9a32cd" points="467.7398,-53.9305 457.2688,-55.5452 466.4613,-60.8127 467.7398,-53.9305"/>
<text text-anchor="middle" x="511.957" y="-71.5" font-family="Helvetica,sans-Serif" font-size="10.00" fill="#000000"> _results</text>
</g>
<!-- Node12&#45;&gt;Node11 -->
<g id="edge10" class="edge">
<title>Node12&#45;&gt;Node11</title>
<path fill="none" stroke="#ffa500" stroke-dasharray="5,2" d="M195.0865,-65.6119C201.1333,-64.441 207.2845,-63.3592 213.1553,-62.5 259.1313,-55.7714 311.6602,-51.6623 350.5612,-49.2959"/>
<polygon fill="#ffa500" stroke="#ffa500" points="194.1809,-62.2243 185.0766,-67.643 195.5729,-69.0845 194.1809,-62.2243"/>
<text text-anchor="middle" x="267.9063" y="-64.5" font-family="Helvetica,sans-Serif" font-size="10.00" fill="#000000"> &lt; AssignMask &gt;</text>
</g>
<!-- Node12&#45;&gt;Node13 -->
<g id="edge14" class="edge">
<title>Node12&#45;&gt;Node13</title>
<path fill="none" stroke="#ffa500" stroke-dasharray="5,2" d="M195.3807,-76.2385C229.9193,-76.8915 279.3809,-77.9779 322.6572,-79.5 328.4289,-79.703 334.4194,-79.937 340.4281,-80.1878"/>
<polygon fill="#ffa500" stroke="#ffa500" points="195.2273,-72.7352 185.1643,-76.0498 195.0979,-79.734 195.2273,-72.7352"/>
<text text-anchor="middle" x="267.9063" y="-81.5" font-family="Helvetica,sans-Serif" font-size="10.00" fill="#000000"> &lt; graph::AGVertex &gt;</text>
</g>
<!-- Node13&#45;&gt;Node3 -->
<g id="edge12" class="edge">
<title>Node13&#45;&gt;Node3</title>
<path fill="none" stroke="#9a32cd" stroke-dasharray="5,2" d="M485.1439,-83.5C506.5015,-83.5 529.1334,-83.5 548.5693,-83.5"/>
<polygon fill="#9a32cd" stroke="#9a32cd" points="485.1104,-80.0001 475.1103,-83.5 485.1103,-87.0001 485.1104,-80.0001"/>
<text text-anchor="middle" x="511.957" y="-85.5" font-family="Helvetica,sans-Serif" font-size="10.00" fill="#000000"> _locs</text>
</g>
</g>
</svg>
        <g id="navigator" transform="translate(0 0)" fill="#404254">
                <rect fill="#f2f5e9" fill-opacity="0.5" stroke="#606060" stroke-width=".5" x="0" y="0" width="60" height="60"/>
                <use id="zoomplus" xlink:href="#zoomPlus" x="17" y="9" onmousedown="handleZoom(evt,'in')"/>
                <use id="zoomminus" xlink:href="#zoomMin" x="42" y="9" onmousedown="handleZoom(evt,'out')"/>
                <use id="reset" xlink:href="#resetDef" x="30" y="36" onmousedown="handleReset()"/>
                <g id="arrowUp" xlink:href="#dirArrow" transform="translate(30 24)" onmousedown="handlePan(0,-1)">
                  <use xlink:href="#rim" fill="#404040">
                        <set attributeName="fill" to="#808080" begin="arrowUp.mouseover" end="arrowUp.mouseout"/>
                  </use>
                  <path fill="none" stroke="white" stroke-width="1.5" d="M0,-3.0v7 M-2.5,-0.5L0,-3.0L2.5,-0.5"/>
                </g>
                <g id="arrowRight" xlink:href="#dirArrow" transform="rotate(90) translate(36 -43)" onmousedown="handlePan(1,0)">
                  <use xlink:href="#rim" fill="#404040">
                        <set attributeName="fill" to="#808080" begin="arrowRight.mouseover" end="arrowRight.mouseout"/>
                  </use>
                  <path fill="none" stroke="white" stroke-width="1.5" d="M0,-3.0v7 M-2.5,-0.5L0,-3.0L2.5,-0.5"/>
                </g>
                <g id="arrowDown" xlink:href="#dirArrow" transform="rotate(180) translate(-30 -48)" onmousedown="handlePan(0,1)">
                  <use xlink:href="#rim" fill="#404040">
                        <set attributeName="fill" to="#808080" begin="arrowDown.mouseover" end="arrowDown.mouseout"/>
                  </use>
                  <path fill="none" stroke="white" stroke-width="1.5" d="M0,-3.0v7 M-2.5,-0.5L0,-3.0L2.5,-0.5"/>
                </g>
                <g id="arrowLeft" xlink:href="#dirArrow" transform="rotate(270) translate(-36 17)" onmousedown="handlePan(-1,0)">
                  <use xlink:href="#rim" fill="#404040">
                        <set attributeName="fill" to="#808080" begin="arrowLeft.mouseover" end="arrowLeft.mouseout"/>
                  </use>
                  <path fill="none" stroke="white" stroke-width="1.5" d="M0,-3.0v7 M-2.5,-0.5L0,-3.0L2.5,-0.5"/>
                </g>
        </g>
        <svg viewBox="0 0 15 15" width="100%" height="30px" preserveAspectRatio="xMaxYMin meet">
         <g id="arrow_out" transform="scale(0.3 0.3)">
          <a xlink:href="classindigox_1_1algorithm_1_1_i_x_electron_assigner_1_1_assign_algorithm__coll__graph_org.svg" target="_base">
           <rect id="button" ry="5" rx="5" y="6" x="6" height="38" width="38"
                fill="#f2f5e9" fill-opacity="0.5" stroke="#606060" stroke-width="1.0"/>
           <path id="arrow"
             d="M 11.500037,31.436501 C 11.940474,20.09759 22.043105,11.32322 32.158766,21.979434 L 37.068811,17.246167 C 37.068811,17.246167 37.088388,32 37.088388,32 L 22.160133,31.978069 C 22.160133,31.978069 26.997745,27.140456 26.997745,27.140456 C 18.528582,18.264221 13.291696,25.230495 11.500037,31.436501 z"
             style="fill:#404040;"/>
          </a>
         </g>
        </svg>
</svg>
