<?xml version="1.0" encoding="UTF-8" standalone="no"?>
<!DOCTYPE svg PUBLIC "-//W3C//DTD SVG 1.1//EN"
 "http://www.w3.org/Graphics/SVG/1.1/DTD/svg11.dtd">
<!-- Generated by graphviz version 2.40.1 (20161225.0304)
 -->
<!-- Title: FileReader Pages: 1 -->
<svg width="114pt" height="148pt"
 viewBox="0.00 0.00 114.05 148.00" xmlns="http://www.w3.org/2000/svg" xmlns:xlink="http://www.w3.org/1999/xlink">
<g id="graph0" class="graph" transform="scale(1 1) rotate(0) translate(4 144)">
<title>FileReader</title>
<polygon fill="#ffffff" stroke="transparent" points="-4,4 -4,-144 110.0488,-144 110.0488,4 -4,4"/>
<!-- Node1 -->
<g id="node1" class="node">
<title>Node1</title>
<polygon fill="#bfbfbf" stroke="#000000" points="20.5688,-.5 20.5688,-18.5 85.48,-18.5 85.48,-.5 20.5688,-.5"/>
<text text-anchor="middle" x="53.0244" y="-6.5" font-family="Helvetica,sans-Serif" font-size="10.00" fill="#000000">FileReader</text>
</g>
<!-- Node2 -->
<g id="node2" class="node">
<title>Node2</title>
<g id="a_node2"><a xlink:title="STL class. ">
<polygon fill="#ffffff" stroke="#bfbfbf" points="32.7979,-65.5 32.7979,-83.5 73.251,-83.5 73.251,-65.5 32.7979,-65.5"/>
<text text-anchor="middle" x="53.0244" y="-71.5" font-family="Helvetica,sans-Serif" font-size="10.00" fill="#000000">string</text>
</a>
</g>
</g>
<!-- Node2&#45;&gt;Node1 -->
<g id="edge1" class="edge">
<title>Node2&#45;&gt;Node1</title>
<path fill="none" stroke="#9a32cd" stroke-dasharray="5,2" d="M53.0244,-55.1265C53.0244,-43.1522 53.0244,-28.3205 53.0244,-18.8821"/>
<polygon fill="#9a32cd" stroke="#9a32cd" points="49.5245,-55.462 53.0244,-65.462 56.5245,-55.4621 49.5245,-55.462"/>
<text text-anchor="middle" x="66.9258" y="-39" font-family="Helvetica,sans-Serif" font-size="10.00" fill="#000000"> path_</text>
</g>
<!-- Node3 -->
<g id="node3" class="node">
<title>Node3</title>
<g id="a_node3"><a xlink:title="STL class. ">
<polygon fill="#ffffff" stroke="#bfbfbf" points="0,-121.5 0,-139.5 106.0488,-139.5 106.0488,-121.5 0,-121.5"/>
<text text-anchor="middle" x="53.0244" y="-127.5" font-family="Helvetica,sans-Serif" font-size="10.00" fill="#000000">basic_string&lt; char &gt;</text>
</a>
</g>
</g>
<!-- Node3&#45;&gt;Node2 -->
<g id="edge2" class="edge">
<title>Node3&#45;&gt;Node2</title>
<path fill="none" stroke="#191970" d="M53.0244,-111.2065C53.0244,-101.8384 53.0244,-91.0262 53.0244,-83.5752"/>
<polygon fill="#191970" stroke="#191970" points="49.5245,-111.2527 53.0244,-121.2527 56.5245,-111.2528 49.5245,-111.2527"/>
</g>
</g>
</svg>
