<?xml version="1.0" encoding="UTF-8" standalone="no"?>
<!DOCTYPE svg PUBLIC "-//W3C//DTD SVG 1.1//EN"
 "http://www.w3.org/Graphics/SVG/1.1/DTD/svg11.dtd">
<!-- Generated by graphviz version 2.40.1 (20161225.0304)
 -->
<!-- Title: IXAStarOptimisation Pages: 1 -->
<!--zoomable 293 -->
<svg id="main" version="1.1" xmlns="http://www.w3.org/2000/svg" xmlns:xlink="http://www.w3.org/1999/xlink" xml:space="preserve" onload="init(evt)">
<style type="text/css"><![CDATA[
.edge:hover path { stroke: red; }
.edge:hover polygon { stroke: red; fill: red; }
]]></style>
<script type="text/javascript"><![CDATA[
var edges = document.getElementsByTagName('g');
if (edges && edges.length) {
  for (var i=0;i<edges.length;i++) {
    if (edges[i].id.substr(0,4)=='edge') {
      edges[i].setAttribute('class','edge');
    }
  }
}
]]></script>
        <defs>
                <circle id="rim" cx="0" cy="0" r="7"/>
                <circle id="rim2" cx="0" cy="0" r="3.5"/>
                <g id="zoomPlus">
                        <use xlink:href="#rim" fill="#404040">
                                <set attributeName="fill" to="#808080" begin="zoomplus.mouseover" end="zoomplus.mouseout"/>
                        </use>
                        <path d="M-4,0h8M0,-4v8" fill="none" stroke="white" stroke-width="1.5" pointer-events="none"/>
                </g>
                <g id="zoomMin">
                        <use xlink:href="#rim" fill="#404040">
                                <set attributeName="fill" to="#808080" begin="zoomminus.mouseover" end="zoomminus.mouseout"/>
                        </use>
                        <path d="M-4,0h8" fill="none" stroke="white" stroke-width="1.5" pointer-events="none"/>
                </g>
                <g id="dirArrow">
                        <path fill="none" stroke="white" stroke-width="1.5" d="M0,-3.0v7 M-2.5,-0.5L0,-3.0L2.5,-0.5"/>
                </g>
               <g id="resetDef">
                       <use xlink:href="#rim2" fill="#404040">
                               <set attributeName="fill" to="#808080" begin="reset.mouseover" end="reset.mouseout"/>
                       </use>
               </g>
        </defs>

<script type="text/javascript">
var viewWidth = 835;
var viewHeight = 293;
var sectionId = 'dynsection-1';
</script>
<script xlink:href="svgpan.js"/>
<svg id="graph" class="graph">
<g id="viewport">
<title>IXAStarOptimisation</title>
<polygon fill="#ffffff" stroke="transparent" points="-4,4 -4,-289 831.1846,-289 831.1846,4 -4,4"/>
<!-- Node2 -->
<g id="node1" class="node">
<title>Node2</title>
<polygon fill="#bfbfbf" stroke="#000000" points="721.1504,-182.5 721.1504,-200.5 827.1846,-200.5 827.1846,-182.5 721.1504,-182.5"/>
<text text-anchor="middle" x="774.1675" y="-188.5" font-family="Helvetica,sans-Serif" font-size="10.00" fill="#000000">IXAStarOptimisation</text>
</g>
<!-- Node3 -->
<g id="node2" class="node">
<title>Node3</title>
<g id="a_node2"><a xlink:href="classindigox_1_1algorithm_1_1_i_x_electron_assigner_1_1_assign_algorithm.html" target="_top" xlink:title="Base class for an electron assignment algorithm. ">
<polygon fill="#ffffff" stroke="#000000" points="582.998,-79.5 582.998,-97.5 671.249,-97.5 671.249,-79.5 582.998,-79.5"/>
<text text-anchor="middle" x="627.1235" y="-85.5" font-family="Helvetica,sans-Serif" font-size="10.00" fill="#000000">AssignAlgorithm</text>
</a>
</g>
</g>
<!-- Node3&#45;&gt;Node2 -->
<g id="edge1" class="edge">
<title>Node3&#45;&gt;Node2</title>
<path fill="none" stroke="#191970" d="M654.3636,-102.3079C669.1952,-110.2172 687.6325,-120.6976 703.1504,-131.5 726.4651,-147.7299 751.2888,-170.0031 764.5267,-182.3388"/>
<polygon fill="#191970" stroke="#191970" points="655.6863,-99.0494 645.2048,-97.504 652.4348,-105.2485 655.6863,-99.0494"/>
</g>
<!-- Node4 -->
<g id="node3" class="node">
<title>Node4</title>
<g id="a_node3"><a xlink:title="STL class. ">
<polygon fill="#ffffff" stroke="#bfbfbf" points="109.9219,-78.5 109.9219,-96.5 180.5947,-96.5 180.5947,-78.5 109.9219,-78.5"/>
<text text-anchor="middle" x="145.2583" y="-84.5" font-family="Helvetica,sans-Serif" font-size="10.00" fill="#000000">map&lt; K, T &gt;</text>
</a>
</g>
</g>
<!-- Node4&#45;&gt;Node3 -->
<g id="edge2" class="edge">
<title>Node4&#45;&gt;Node3</title>
<path fill="none" stroke="#9a32cd" stroke-dasharray="5,2" d="M190.6293,-82.3137C224.1424,-78.7529 270.9037,-74.3486 312.1123,-72.5 371.7871,-69.823 386.8391,-69.8618 446.5156,-72.5 493.0581,-74.5576 546.1502,-79.5837 582.663,-83.4583"/>
<polygon fill="#9a32cd" stroke="#9a32cd" points="190.2416,-78.8351 180.6748,-83.3879 190.9927,-85.7947 190.2416,-78.8351"/>
<text text-anchor="middle" x="379.314" y="-74.5" font-family="Helvetica,sans-Serif" font-size="10.00" fill="#000000"> _table</text>
</g>
<!-- Node5 -->
<g id="node4" class="node">
<title>Node5</title>
<polygon fill="#ffffff" stroke="#bfbfbf" points="0,-78.5 0,-96.5 29,-96.5 29,-78.5 0,-78.5"/>
<text text-anchor="middle" x="14.5" y="-84.5" font-family="Helvetica,sans-Serif" font-size="10.00" fill="#000000">K</text>
</g>
<!-- Node5&#45;&gt;Node4 -->
<g id="edge3" class="edge">
<title>Node5&#45;&gt;Node4</title>
<path fill="none" stroke="#9a32cd" stroke-dasharray="5,2" d="M39.354,-87.5C59.2404,-87.5 87.3865,-87.5 109.6643,-87.5"/>
<polygon fill="#9a32cd" stroke="#9a32cd" points="39.2455,-84.0001 29.2455,-87.5 39.2454,-91.0001 39.2455,-84.0001"/>
<text text-anchor="middle" x="68.6772" y="-89.5" font-family="Helvetica,sans-Serif" font-size="10.00" fill="#000000"> keys</text>
</g>
<!-- Node6 -->
<g id="node5" class="node">
<title>Node6</title>
<polygon fill="#ffffff" stroke="#bfbfbf" points="0,-162.5 0,-180.5 29,-180.5 29,-162.5 0,-162.5"/>
<text text-anchor="middle" x="14.5" y="-168.5" font-family="Helvetica,sans-Serif" font-size="10.00" fill="#000000">T</text>
</g>
<!-- Node6&#45;&gt;Node4 -->
<g id="edge4" class="edge">
<title>Node6&#45;&gt;Node4</title>
<path fill="none" stroke="#9a32cd" stroke-dasharray="5,2" d="M37.1805,-156.9299C64.18,-139.5852 108.4468,-111.148 131.0335,-96.6381"/>
<polygon fill="#9a32cd" stroke="#9a32cd" points="35.2641,-154.0009 28.7423,-162.3506 39.0476,-159.8904 35.2641,-154.0009"/>
<text text-anchor="middle" x="68.6772" y="-150.5" font-family="Helvetica,sans-Serif" font-size="10.00" fill="#000000"> elements</text>
</g>
<!-- Node10 -->
<g id="node9" class="node">
<title>Node10</title>
<g id="a_node9"><a xlink:title="STL class. ">
<polygon fill="#ffffff" stroke="#bfbfbf" points="112.146,-162.5 112.146,-180.5 178.3706,-180.5 178.3706,-162.5 112.146,-162.5"/>
<text text-anchor="middle" x="145.2583" y="-168.5" font-family="Helvetica,sans-Serif" font-size="10.00" fill="#000000">vector&lt; T &gt;</text>
</a>
</g>
</g>
<!-- Node6&#45;&gt;Node10 -->
<g id="edge9" class="edge">
<title>Node6&#45;&gt;Node10</title>
<path fill="none" stroke="#9a32cd" stroke-dasharray="5,2" d="M39.4121,-171.5C60.0272,-171.5 89.4894,-171.5 112.0981,-171.5"/>
<polygon fill="#9a32cd" stroke="#9a32cd" points="39.2455,-168.0001 29.2455,-171.5 39.2454,-175.0001 39.2455,-168.0001"/>
<text text-anchor="middle" x="68.6772" y="-173.5" font-family="Helvetica,sans-Serif" font-size="10.00" fill="#000000"> elements</text>
</g>
<!-- Node15 -->
<g id="node14" class="node">
<title>Node15</title>
<g id="a_node14"><a xlink:title="STL class. ">
<polygon fill="#ffffff" stroke="#bfbfbf" points="119.1846,-241.5 119.1846,-259.5 171.332,-259.5 171.332,-241.5 119.1846,-241.5"/>
<text text-anchor="middle" x="145.2583" y="-247.5" font-family="Helvetica,sans-Serif" font-size="10.00" fill="#000000">queue_t</text>
</a>
</g>
</g>
<!-- Node6&#45;&gt;Node15 -->
<g id="edge18" class="edge">
<title>Node6&#45;&gt;Node15</title>
<path fill="none" stroke="#9a32cd" stroke-dasharray="5,2" d="M37.9379,-185.6604C64.5753,-201.7539 107.2871,-227.559 129.9616,-241.2582"/>
<polygon fill="#9a32cd" stroke="#9a32cd" points="39.6146,-182.5842 29.2455,-180.4087 35.9947,-188.5757 39.6146,-182.5842"/>
<text text-anchor="middle" x="68.6772" y="-217.5" font-family="Helvetica,sans-Serif" font-size="10.00" fill="#000000"> elements</text>
</g>
<!-- Node7 -->
<g id="node6" class="node">
<title>Node7</title>
<polygon fill="#ffffff" stroke="#bfbfbf" points="323.2256,-.5 323.2256,-18.5 435.4023,-18.5 435.4023,-.5 323.2256,-.5"/>
<text text-anchor="middle" x="379.314" y="-6.5" font-family="Helvetica,sans-Serif" font-size="10.00" fill="#000000">bitset&lt; __num_opts &gt;</text>
</g>
<!-- Node7&#45;&gt;Node3 -->
<g id="edge5" class="edge">
<title>Node7&#45;&gt;Node3</title>
<path fill="none" stroke="#9a32cd" stroke-dasharray="5,2" d="M445.8481,-7.5718C482.4881,-8.875 527.9152,-14.4856 564.998,-31.5 588.9453,-42.4875 609.9306,-66.2038 620.2801,-79.3169"/>
<polygon fill="#9a32cd" stroke="#9a32cd" points="445.8477,-4.0707 435.761,-7.3125 445.6678,-11.0684 445.8477,-4.0707"/>
<text text-anchor="middle" x="514.7568" y="-33.5" font-family="Helvetica,sans-Serif" font-size="10.00" fill="#000000"> _opts</text>
</g>
<!-- Node8 -->
<g id="node7" class="node">
<title>Node8</title>
<g id="a_node7"><a xlink:title="STL class. ">
<polygon fill="#ffffff" stroke="#bfbfbf" points="108.3545,-.5 108.3545,-18.5 182.1621,-18.5 182.1621,-.5 108.3545,-.5"/>
<text text-anchor="middle" x="145.2583" y="-6.5" font-family="Helvetica,sans-Serif" font-size="10.00" fill="#000000">bitset&lt; Bits &gt;</text>
</a>
</g>
</g>
<!-- Node8&#45;&gt;Node7 -->
<g id="edge6" class="edge">
<title>Node8&#45;&gt;Node7</title>
<path fill="none" stroke="#ffa500" stroke-dasharray="5,2" d="M192.5665,-9.5C230.322,-9.5 283.3134,-9.5 323.2076,-9.5"/>
<polygon fill="#ffa500" stroke="#ffa500" points="192.3452,-6.0001 182.3451,-9.5 192.3451,-13.0001 192.3452,-6.0001"/>
<text text-anchor="middle" x="247.1372" y="-11.5" font-family="Helvetica,sans-Serif" font-size="10.00" fill="#000000"> &lt; __num_opts &gt;</text>
</g>
<!-- Node9 -->
<g id="node8" class="node">
<title>Node9</title>
<polygon fill="#ffffff" stroke="#bfbfbf" points="322.4004,-92.5 322.4004,-110.5 436.2275,-110.5 436.2275,-92.5 322.4004,-92.5"/>
<text text-anchor="middle" x="379.314" y="-98.5" font-family="Helvetica,sans-Serif" font-size="10.00" fill="#000000">vector&lt; AssignMask &gt;</text>
</g>
<!-- Node9&#45;&gt;Node3 -->
<g id="edge7" class="edge">
<title>Node9&#45;&gt;Node3</title>
<path fill="none" stroke="#9a32cd" stroke-dasharray="5,2" d="M445.5749,-91.2884C451.964,-90.5687 458.3562,-89.9507 464.5156,-89.5 504.4969,-86.5747 550.1548,-86.587 582.8906,-87.178"/>
<polygon fill="#9a32cd" stroke="#9a32cd" points="445.0809,-87.8225 435.5713,-92.4935 445.9182,-94.7723 445.0809,-87.8225"/>
<text text-anchor="middle" x="514.7568" y="-91.5" font-family="Helvetica,sans-Serif" font-size="10.00" fill="#000000"> _results</text>
</g>
<!-- Node10&#45;&gt;Node9 -->
<g id="edge8" class="edge">
<title>Node10&#45;&gt;Node9</title>
<path fill="none" stroke="#ffa500" stroke-dasharray="5,2" d="M163.4587,-155.9322C173.6299,-148.0296 186.8998,-138.9684 200.1621,-133.5 239.1567,-117.4215 286.2008,-109.4101 322.2946,-105.4246"/>
<polygon fill="#ffa500" stroke="#ffa500" points="160.9663,-153.4468 155.3962,-162.4593 165.3708,-158.8874 160.9663,-153.4468"/>
<text text-anchor="middle" x="247.1372" y="-135.5" font-family="Helvetica,sans-Serif" font-size="10.00" fill="#000000"> &lt; AssignMask &gt;</text>
</g>
<!-- Node11 -->
<g id="node10" class="node">
<title>Node11</title>
<polygon fill="#ffffff" stroke="#bfbfbf" points="312.1123,-137.5 312.1123,-155.5 446.5156,-155.5 446.5156,-137.5 312.1123,-137.5"/>
<text text-anchor="middle" x="379.314" y="-143.5" font-family="Helvetica,sans-Serif" font-size="10.00" fill="#000000">vector&lt; graph::AGVertex &gt;</text>
</g>
<!-- Node10&#45;&gt;Node11 -->
<g id="edge11" class="edge">
<title>Node10&#45;&gt;Node11</title>
<path fill="none" stroke="#ffa500" stroke-dasharray="5,2" d="M183.541,-159.9385C189.0772,-158.5894 194.737,-157.3824 200.1621,-156.5 236.7512,-150.5491 278.035,-147.9699 311.7427,-146.9136"/>
<polygon fill="#ffa500" stroke="#ffa500" points="182.5807,-156.5718 173.7866,-162.4807 184.3461,-163.3455 182.5807,-156.5718"/>
<text text-anchor="middle" x="247.1372" y="-158.5" font-family="Helvetica,sans-Serif" font-size="10.00" fill="#000000"> &lt; graph::AGVertex &gt;</text>
</g>
<!-- Node12 -->
<g id="node11" class="node">
<title>Node12</title>
<polygon fill="#ffffff" stroke="#bfbfbf" points="466.73,-226.5 466.73,-244.5 562.7837,-244.5 562.7837,-226.5 466.73,-226.5"/>
<text text-anchor="middle" x="514.7568" y="-232.5" font-family="Helvetica,sans-Serif" font-size="10.00" fill="#000000">vector&lt; uint32_t &gt;</text>
</g>
<!-- Node10&#45;&gt;Node12 -->
<g id="edge13" class="edge">
<title>Node10&#45;&gt;Node12</title>
<path fill="none" stroke="#ffa500" stroke-dasharray="5,2" d="M174.8884,-184.2563C182.9657,-187.3397 191.7979,-190.3591 200.1621,-192.5 292.8169,-216.2159 404.3819,-227.5366 466.6663,-232.3701"/>
<polygon fill="#ffa500" stroke="#ffa500" points="176.078,-180.9628 165.4925,-180.5183 173.4903,-187.467 176.078,-180.9628"/>
<text text-anchor="middle" x="247.1372" y="-212.5" font-family="Helvetica,sans-Serif" font-size="10.00" fill="#000000"> &lt; uint32_t &gt;</text>
</g>
<!-- Node13 -->
<g id="node12" class="node">
<title>Node13</title>
<polygon fill="#ffffff" stroke="#bfbfbf" points="464.5156,-181.5 464.5156,-199.5 564.998,-199.5 564.998,-181.5 464.5156,-181.5"/>
<text text-anchor="middle" x="514.7568" y="-187.5" font-family="Helvetica,sans-Serif" font-size="10.00" fill="#000000">vector&lt; LocMask &gt;</text>
</g>
<!-- Node10&#45;&gt;Node13 -->
<g id="edge15" class="edge">
<title>Node10&#45;&gt;Node13</title>
<path fill="none" stroke="#ffa500" stroke-dasharray="5,2" d="M188.4348,-173.7202C257.2291,-177.2577 391.384,-184.156 464.4283,-187.9121"/>
<polygon fill="#ffa500" stroke="#ffa500" points="188.5406,-170.2211 178.374,-173.2028 188.181,-177.2119 188.5406,-170.2211"/>
<text text-anchor="middle" x="247.1372" y="-180.5" font-family="Helvetica,sans-Serif" font-size="10.00" fill="#000000"> &lt; LocMask &gt;</text>
</g>
<!-- Node11&#45;&gt;Node2 -->
<g id="edge19" class="edge">
<title>Node11&#45;&gt;Node2</title>
<path fill="none" stroke="#9a32cd" stroke-dasharray="5,2" d="M456.631,-153.5461C515.5327,-159.1317 598.5983,-167.4769 671.249,-176.5 687.4656,-178.5141 705.0786,-180.9787 721.0741,-183.3237"/>
<polygon fill="#9a32cd" stroke="#9a32cd" points="456.9423,-150.06 446.6577,-152.6048 456.2845,-157.029 456.9423,-150.06"/>
<text text-anchor="middle" x="627.1235" y="-178.5" font-family="Helvetica,sans-Serif" font-size="10.00" fill="#000000"> _unique_locs</text>
</g>
<!-- Node11&#45;&gt;Node3 -->
<g id="edge10" class="edge">
<title>Node11&#45;&gt;Node3</title>
<path fill="none" stroke="#9a32cd" stroke-dasharray="5,2" d="M419.4817,-134.5751C433.6568,-130.5291 449.7425,-126.1206 464.5156,-122.5 504.2927,-112.7513 549.973,-103.3565 582.7691,-96.9225"/>
<polygon fill="#9a32cd" stroke="#9a32cd" points="418.1827,-131.307 409.5438,-137.4406 420.1221,-138.033 418.1827,-131.307"/>
<text text-anchor="middle" x="514.7568" y="-124.5" font-family="Helvetica,sans-Serif" font-size="10.00" fill="#000000"> _locs</text>
</g>
<!-- Node12&#45;&gt;Node2 -->
<g id="edge12" class="edge">
<title>Node12&#45;&gt;Node2</title>
<path fill="none" stroke="#9a32cd" stroke-dasharray="5,2" d="M572.9766,-226.1968C610.2277,-220.1758 659.5679,-212.0741 703.1504,-204.5 710.3129,-203.2552 717.8752,-201.9072 725.2886,-200.5666"/>
<polygon fill="#9a32cd" stroke="#9a32cd" points="572.1202,-222.7896 562.8053,-227.8377 573.2351,-229.7003 572.1202,-222.7896"/>
<text text-anchor="middle" x="627.1235" y="-225.5" font-family="Helvetica,sans-Serif" font-size="10.00" fill="#000000"> _loc_counts</text>
</g>
<!-- Node13&#45;&gt;Node2 -->
<g id="edge14" class="edge">
<title>Node13&#45;&gt;Node2</title>
<path fill="none" stroke="#9a32cd" stroke-dasharray="5,2" d="M575.0984,-190.7326C619.2099,-190.9027 678.4861,-191.1312 720.8596,-191.2945"/>
<polygon fill="#9a32cd" stroke="#9a32cd" points="575.0949,-187.2327 565.0814,-190.694 575.0678,-194.2326 575.0949,-187.2327"/>
<text text-anchor="middle" x="627.1235" y="-192.5" font-family="Helvetica,sans-Serif" font-size="10.00" fill="#000000"> _req_unchange</text>
</g>
<!-- Node14 -->
<g id="node13" class="node">
<title>Node14</title>
<g id="a_node13"><a xlink:href="classindigox_1_1algorithm_1_1_priority_queue.html" target="_top" xlink:title="PriorityQueue">
<polygon fill="#ffffff" stroke="#000000" points="588.5547,-266.5 588.5547,-284.5 665.6924,-284.5 665.6924,-266.5 588.5547,-266.5"/>
<text text-anchor="middle" x="627.1235" y="-272.5" font-family="Helvetica,sans-Serif" font-size="10.00" fill="#000000">PriorityQueue</text>
</a>
</g>
</g>
<!-- Node14&#45;&gt;Node2 -->
<g id="edge16" class="edge">
<title>Node14&#45;&gt;Node2</title>
<path fill="none" stroke="#9a32cd" stroke-dasharray="5,2" d="M673.4113,-263.3553C683.5173,-259.8691 693.9377,-255.5984 703.1504,-250.5 728.1144,-236.6845 752.6967,-213.5571 765.359,-200.7464"/>
<polygon fill="#9a32cd" stroke="#9a32cd" points="672.2955,-260.0377 663.8682,-266.4588 674.4604,-266.6945 672.2955,-260.0377"/>
<text text-anchor="middle" x="696.1997" y="-258.5" font-family="Helvetica,sans-Serif" font-size="10.00" fill="#000000"> _q</text>
</g>
<!-- Node15&#45;&gt;Node14 -->
<g id="edge17" class="edge">
<title>Node15&#45;&gt;Node14</title>
<path fill="none" stroke="#191970" d="M181.6193,-252.3865C270.2992,-256.9873 497.0879,-268.7535 588.283,-273.4849"/>
<polygon fill="#191970" stroke="#191970" points="181.6756,-248.8848 171.5077,-251.8619 181.3129,-255.8754 181.6756,-248.8848"/>
</g>
</g>
</svg>
        <g id="navigator" transform="translate(0 0)" fill="#404254">
                <rect fill="#f2f5e9" fill-opacity="0.5" stroke="#606060" stroke-width=".5" x="0" y="0" width="60" height="60"/>
                <use id="zoomplus" xlink:href="#zoomPlus" x="17" y="9" onmousedown="handleZoom(evt,'in')"/>
                <use id="zoomminus" xlink:href="#zoomMin" x="42" y="9" onmousedown="handleZoom(evt,'out')"/>
                <use id="reset" xlink:href="#resetDef" x="30" y="36" onmousedown="handleReset()"/>
                <g id="arrowUp" xlink:href="#dirArrow" transform="translate(30 24)" onmousedown="handlePan(0,-1)">
                  <use xlink:href="#rim" fill="#404040">
                        <set attributeName="fill" to="#808080" begin="arrowUp.mouseover" end="arrowUp.mouseout"/>
                  </use>
                  <path fill="none" stroke="white" stroke-width="1.5" d="M0,-3.0v7 M-2.5,-0.5L0,-3.0L2.5,-0.5"/>
                </g>
                <g id="arrowRight" xlink:href="#dirArrow" transform="rotate(90) translate(36 -43)" onmousedown="handlePan(1,0)">
                  <use xlink:href="#rim" fill="#404040">
                        <set attributeName="fill" to="#808080" begin="arrowRight.mouseover" end="arrowRight.mouseout"/>
                  </use>
                  <path fill="none" stroke="white" stroke-width="1.5" d="M0,-3.0v7 M-2.5,-0.5L0,-3.0L2.5,-0.5"/>
                </g>
                <g id="arrowDown" xlink:href="#dirArrow" transform="rotate(180) translate(-30 -48)" onmousedown="handlePan(0,1)">
                  <use xlink:href="#rim" fill="#404040">
                        <set attributeName="fill" to="#808080" begin="arrowDown.mouseover" end="arrowDown.mouseout"/>
                  </use>
                  <path fill="none" stroke="white" stroke-width="1.5" d="M0,-3.0v7 M-2.5,-0.5L0,-3.0L2.5,-0.5"/>
                </g>
                <g id="arrowLeft" xlink:href="#dirArrow" transform="rotate(270) translate(-36 17)" onmousedown="handlePan(-1,0)">
                  <use xlink:href="#rim" fill="#404040">
                        <set attributeName="fill" to="#808080" begin="arrowLeft.mouseover" end="arrowLeft.mouseout"/>
                  </use>
                  <path fill="none" stroke="white" stroke-width="1.5" d="M0,-3.0v7 M-2.5,-0.5L0,-3.0L2.5,-0.5"/>
                </g>
        </g>
        <svg viewBox="0 0 15 15" width="100%" height="30px" preserveAspectRatio="xMaxYMin meet">
         <g id="arrow_out" transform="scale(0.3 0.3)">
          <a xlink:href="classindigox_1_1algorithm_1_1_i_x_a_star_optimisation__coll__graph_org.svg" target="_base">
           <rect id="button" ry="5" rx="5" y="6" x="6" height="38" width="38"
                fill="#f2f5e9" fill-opacity="0.5" stroke="#606060" stroke-width="1.0"/>
           <path id="arrow"
             d="M 11.500037,31.436501 C 11.940474,20.09759 22.043105,11.32322 32.158766,21.979434 L 37.068811,17.246167 C 37.068811,17.246167 37.088388,32 37.088388,32 L 22.160133,31.978069 C 22.160133,31.978069 26.997745,27.140456 26.997745,27.140456 C 18.528582,18.264221 13.291696,25.230495 11.500037,31.436501 z"
             style="fill:#404040;"/>
          </a>
         </g>
        </svg>
</svg>
