<?xml version="1.0" encoding="UTF-8" standalone="no"?>
<!DOCTYPE svg PUBLIC "-//W3C//DTD SVG 1.1//EN"
 "http://www.w3.org/Graphics/SVG/1.1/DTD/svg11.dtd">
<!-- Generated by graphviz version 2.40.1 (20161225.0304)
 -->
<!-- Title: ElectronOpt Pages: 1 -->
<svg width="817pt" height="195pt"
 viewBox="0.00 0.00 816.64 195.00" xmlns="http://www.w3.org/2000/svg" xmlns:xlink="http://www.w3.org/1999/xlink">
<g id="graph0" class="graph" transform="scale(1 1) rotate(0) translate(4 191)">
<title>ElectronOpt</title>
<polygon fill="#ffffff" stroke="transparent" points="-4,4 -4,-191 812.6406,-191 812.6406,4 -4,4"/>
<!-- Node1 -->
<g id="node1" class="node">
<title>Node1</title>
<g id="a_node1"><a xlink:title=" ">
<polygon fill="#bfbfbf" stroke="#000000" points="739.8379,-84.5 739.8379,-102.5 808.6406,-102.5 808.6406,-84.5 739.8379,-84.5"/>
<text text-anchor="middle" x="774.2393" y="-90.5" font-family="Helvetica,sans-Serif" font-size="10.00" fill="#000000">ElectronOpt</text>
</a>
</g>
</g>
<!-- Node2 -->
<g id="node2" class="node">
<title>Node2</title>
<g id="a_node2"><a xlink:title=" ">
<polygon fill="#ffffff" stroke="#bfbfbf" points="472.4302,-148.5 472.4302,-176.5 594.8999,-176.5 594.8999,-148.5 472.4302,-148.5"/>
<text text-anchor="start" x="480.4302" y="-164.5" font-family="Helvetica,sans-Serif" font-size="10.00" fill="#000000">unordered_map&lt; uint32</text>
<text text-anchor="middle" x="533.665" y="-154.5" font-family="Helvetica,sans-Serif" font-size="10.00" fill="#000000">_t, FCSCORE &gt;</text>
</a>
</g>
</g>
<!-- Node2&#45;&gt;Node1 -->
<g id="edge1" class="edge">
<title>Node2&#45;&gt;Node1</title>
<path fill="none" stroke="#9a32cd" stroke-dasharray="5,2" d="M605.1316,-150.2978C640.7687,-143.1796 684.1876,-132.9293 721.8379,-119.5 734.4643,-114.9963 748.0016,-108.2245 758.1535,-102.7209"/>
<polygon fill="#9a32cd" stroke="#9a32cd" points="604.4393,-146.8668 595.2978,-152.2225 605.7839,-153.7365 604.4393,-146.8668"/>
<text text-anchor="middle" x="677.9194" y="-145.5" font-family="Helvetica,sans-Serif" font-size="10.00" fill="#000000"> scores_</text>
</g>
<!-- Node3 -->
<g id="node3" class="node">
<title>Node3</title>
<g id="a_node3"><a xlink:title="STL class.">
<polygon fill="#ffffff" stroke="#bfbfbf" points="143.1621,-153.5 143.1621,-171.5 264.9873,-171.5 264.9873,-153.5 143.1621,-153.5"/>
<text text-anchor="middle" x="204.0747" y="-159.5" font-family="Helvetica,sans-Serif" font-size="10.00" fill="#000000">unordered_map&lt; K, T &gt;</text>
</a>
</g>
</g>
<!-- Node3&#45;&gt;Node2 -->
<g id="edge2" class="edge">
<title>Node3&#45;&gt;Node2</title>
<path fill="none" stroke="#ffa500" stroke-dasharray="5,2" d="M275.5994,-162.5C334.2747,-162.5 416.4697,-162.5 472.2136,-162.5"/>
<polygon fill="#ffa500" stroke="#ffa500" points="275.2957,-159.0001 265.2957,-162.5 275.2957,-166.0001 275.2957,-159.0001"/>
<text text-anchor="middle" x="358.1582" y="-164.5" font-family="Helvetica,sans-Serif" font-size="10.00" fill="#000000"> &lt; uint32_t, FCSCORE &gt;</text>
</g>
<!-- Node4 -->
<g id="node4" class="node">
<title>Node4</title>
<g id="a_node4"><a xlink:title=" ">
<polygon fill="#ffffff" stroke="#bfbfbf" points="17.4038,-168.5 17.4038,-186.5 46.4038,-186.5 46.4038,-168.5 17.4038,-168.5"/>
<text text-anchor="middle" x="31.9038" y="-174.5" font-family="Helvetica,sans-Serif" font-size="10.00" fill="#000000">K</text>
</a>
</g>
</g>
<!-- Node4&#45;&gt;Node3 -->
<g id="edge3" class="edge">
<title>Node4&#45;&gt;Node3</title>
<path fill="none" stroke="#9a32cd" stroke-dasharray="5,2" d="M56.6113,-175.3474C79.0848,-173.3895 113.1872,-170.4184 142.9382,-167.8264"/>
<polygon fill="#9a32cd" stroke="#9a32cd" points="56.2415,-171.8663 46.583,-176.2211 56.8491,-178.8399 56.2415,-171.8663"/>
<text text-anchor="middle" x="103.4849" y="-174.5" font-family="Helvetica,sans-Serif" font-size="10.00" fill="#000000"> keys</text>
</g>
<!-- Node5 -->
<g id="node5" class="node">
<title>Node5</title>
<g id="a_node5"><a xlink:title=" ">
<polygon fill="#ffffff" stroke="#bfbfbf" points="17.4038,-102.5 17.4038,-120.5 46.4038,-120.5 46.4038,-102.5 17.4038,-102.5"/>
<text text-anchor="middle" x="31.9038" y="-108.5" font-family="Helvetica,sans-Serif" font-size="10.00" fill="#000000">T</text>
</a>
</g>
</g>
<!-- Node5&#45;&gt;Node3 -->
<g id="edge4" class="edge">
<title>Node5&#45;&gt;Node3</title>
<path fill="none" stroke="#9a32cd" stroke-dasharray="5,2" d="M56.4846,-118.7813C87.2565,-127.8964 139.9727,-143.5119 173.3685,-153.4043"/>
<polygon fill="#9a32cd" stroke="#9a32cd" points="57.1653,-115.3326 46.583,-115.8482 55.1771,-122.0444 57.1653,-115.3326"/>
<text text-anchor="middle" x="103.4849" y="-140.5" font-family="Helvetica,sans-Serif" font-size="10.00" fill="#000000"> elements</text>
</g>
<!-- Node7 -->
<g id="node7" class="node">
<title>Node7</title>
<g id="a_node7"><a xlink:title="STL class.">
<polygon fill="#ffffff" stroke="#bfbfbf" points="160.6743,-103.5 160.6743,-121.5 247.4751,-121.5 247.4751,-103.5 160.6743,-103.5"/>
<text text-anchor="middle" x="204.0747" y="-109.5" font-family="Helvetica,sans-Serif" font-size="10.00" fill="#000000">shared_ptr&lt; T &gt;</text>
</a>
</g>
</g>
<!-- Node5&#45;&gt;Node7 -->
<g id="edge7" class="edge">
<title>Node5&#45;&gt;Node7</title>
<path fill="none" stroke="#9a32cd" stroke-dasharray="5,2" d="M56.7535,-111.6443C83.8475,-111.8017 127.7217,-112.0565 160.5557,-112.2472"/>
<polygon fill="#9a32cd" stroke="#9a32cd" points="56.6032,-108.1435 46.583,-111.5853 56.5625,-115.1434 56.6032,-108.1435"/>
<text text-anchor="middle" x="103.4849" y="-113.5" font-family="Helvetica,sans-Serif" font-size="10.00" fill="#000000"> ptr</text>
</g>
<!-- Node9 -->
<g id="node9" class="node">
<title>Node9</title>
<g id="a_node9"><a xlink:title="STL class.">
<polygon fill="#ffffff" stroke="#bfbfbf" points="170.9624,-66.5 170.9624,-84.5 237.187,-84.5 237.187,-66.5 170.9624,-66.5"/>
<text text-anchor="middle" x="204.0747" y="-72.5" font-family="Helvetica,sans-Serif" font-size="10.00" fill="#000000">vector&lt; T &gt;</text>
</a>
</g>
</g>
<!-- Node5&#45;&gt;Node9 -->
<g id="edge10" class="edge">
<title>Node5&#45;&gt;Node9</title>
<path fill="none" stroke="#9a32cd" stroke-dasharray="5,2" d="M56.5167,-104.092C64.539,-101.8126 73.5145,-99.4048 81.8076,-97.5 111.7618,-90.62 146.2528,-84.5827 170.9487,-80.5817"/>
<polygon fill="#9a32cd" stroke="#9a32cd" points="55.281,-100.8063 46.6574,-106.9612 57.2371,-107.5275 55.281,-100.8063"/>
<text text-anchor="middle" x="103.4849" y="-99.5" font-family="Helvetica,sans-Serif" font-size="10.00" fill="#000000"> elements</text>
</g>
<!-- Node6 -->
<g id="node6" class="node">
<title>Node6</title>
<g id="a_node6"><a xlink:title=" ">
<polygon fill="#ffffff" stroke="#bfbfbf" points="451.3291,-101.5 451.3291,-129.5 616.001,-129.5 616.001,-101.5 451.3291,-101.5"/>
<text text-anchor="start" x="459.3291" y="-117.5" font-family="Helvetica,sans-Serif" font-size="10.00" fill="#000000">shared_ptr&lt; algorithm</text>
<text text-anchor="middle" x="533.665" y="-107.5" font-family="Helvetica,sans-Serif" font-size="10.00" fill="#000000">::ElectronOptimisationAlgorithm &gt;</text>
</a>
</g>
</g>
<!-- Node6&#45;&gt;Node1 -->
<g id="edge5" class="edge">
<title>Node6&#45;&gt;Node1</title>
<path fill="none" stroke="#9a32cd" stroke-dasharray="5,2" d="M626.1507,-107.0424C666.0133,-103.397 710.1854,-99.3576 739.8243,-96.6472"/>
<polygon fill="#9a32cd" stroke="#9a32cd" points="625.7601,-103.5634 616.1205,-107.9596 626.3977,-110.5343 625.7601,-103.5634"/>
<text text-anchor="middle" x="677.9194" y="-107.5" font-family="Helvetica,sans-Serif" font-size="10.00" fill="#000000"> algo_</text>
</g>
<!-- Node7&#45;&gt;Node6 -->
<g id="edge6" class="edge">
<title>Node7&#45;&gt;Node6</title>
<path fill="none" stroke="#ffa500" stroke-dasharray="5,2" d="M257.5909,-112.9871C309.9856,-113.464 390.5464,-114.1973 451.1437,-114.7489"/>
<polygon fill="#ffa500" stroke="#ffa500" points="257.5333,-109.4865 247.5018,-112.8953 257.4695,-116.4863 257.5333,-109.4865"/>
<text text-anchor="start" x="282.9873" y="-126.5" font-family="Helvetica,sans-Serif" font-size="10.00" fill="#000000"> &lt; algorithm::ElectronOptimisation</text>
<text text-anchor="middle" x="358.1582" y="-116.5" font-family="Helvetica,sans-Serif" font-size="10.00" fill="#000000">Algorithm &gt;</text>
</g>
<!-- Node10 -->
<g id="node10" class="node">
<title>Node10</title>
<g id="a_node10"><a xlink:title=" ">
<polygon fill="#ffffff" stroke="#bfbfbf" points="458.1235,-27.5 458.1235,-45.5 609.2065,-45.5 609.2065,-27.5 458.1235,-27.5"/>
<text text-anchor="middle" x="533.665" y="-33.5" font-family="Helvetica,sans-Serif" font-size="10.00" fill="#000000">shared_ptr&lt; _ElectronGraph &gt;</text>
</a>
</g>
</g>
<!-- Node7&#45;&gt;Node10 -->
<g id="edge14" class="edge">
<title>Node7&#45;&gt;Node10</title>
<path fill="none" stroke="#ffa500" stroke-dasharray="5,2" d="M256.6869,-100.0808C259.6297,-98.4454 262.4267,-96.5945 264.9873,-94.5 278.2218,-83.6744 268.7767,-70.0081 282.9873,-60.5 340.4894,-22.0264 422.6907,-21.9477 477.0818,-27.4971"/>
<polygon fill="#ffa500" stroke="#ffa500" points="255.0889,-96.9643 247.5118,-104.3695 258.0531,-103.3057 255.0889,-96.9643"/>
<text text-anchor="middle" x="358.1582" y="-62.5" font-family="Helvetica,sans-Serif" font-size="10.00" fill="#000000"> &lt; _ElectronGraph &gt;</text>
</g>
<!-- Node8 -->
<g id="node8" class="node">
<title>Node8</title>
<g id="a_node8"><a xlink:title=" ">
<polygon fill="#ffffff" stroke="#bfbfbf" points="477.5864,-64.5 477.5864,-82.5 589.7437,-82.5 589.7437,-64.5 477.5864,-64.5"/>
<text text-anchor="middle" x="533.665" y="-70.5" font-family="Helvetica,sans-Serif" font-size="10.00" fill="#000000">vector&lt; MolVertPair &gt;</text>
</a>
</g>
</g>
<!-- Node8&#45;&gt;Node1 -->
<g id="edge8" class="edge">
<title>Node8&#45;&gt;Node1</title>
<path fill="none" stroke="#9a32cd" stroke-dasharray="5,2" d="M600.3359,-72.6484C636.4549,-73.0232 681.7689,-74.8461 721.8379,-80.5 728.5204,-81.4429 735.5891,-82.8838 742.298,-84.4679"/>
<polygon fill="#9a32cd" stroke="#9a32cd" points="599.9461,-69.1458 589.9224,-72.5775 599.8983,-76.1456 599.9461,-69.1458"/>
<text text-anchor="middle" x="677.9194" y="-82.5" font-family="Helvetica,sans-Serif" font-size="10.00" fill="#000000"> possibleLocations_</text>
</g>
<!-- Node9&#45;&gt;Node8 -->
<g id="edge9" class="edge">
<title>Node9&#45;&gt;Node8</title>
<path fill="none" stroke="#ffa500" stroke-dasharray="5,2" d="M247.6129,-75.2358C306.7057,-74.8772 412.3717,-74.236 477.4123,-73.8413"/>
<polygon fill="#ffa500" stroke="#ffa500" points="247.4699,-71.7365 237.4914,-75.2972 247.5125,-78.7364 247.4699,-71.7365"/>
<text text-anchor="middle" x="358.1582" y="-77.5" font-family="Helvetica,sans-Serif" font-size="10.00" fill="#000000"> &lt; MolVertPair &gt;</text>
</g>
<!-- Node10&#45;&gt;Node1 -->
<g id="edge11" class="edge">
<title>Node10&#45;&gt;Node1</title>
<path fill="none" stroke="#9a32cd" stroke-dasharray="5,2" d="M619.6735,-38.8124C652.4243,-41.7952 689.6004,-47.7838 721.8379,-59.5 737.5342,-65.2046 753.3088,-76.3496 763.3873,-84.3253"/>
<polygon fill="#9a32cd" stroke="#9a32cd" points="619.9175,-35.3207 609.6619,-37.9802 619.3376,-42.2967 619.9175,-35.3207"/>
<text text-anchor="middle" x="677.9194" y="-61.5" font-family="Helvetica,sans-Serif" font-size="10.00" fill="#000000"> elnGraph_</text>
</g>
<!-- Node11 -->
<g id="node11" class="node">
<title>Node11</title>
<g id="a_node11"><a xlink:href="classindigox_1_1___electron_graph.html" target="_top" xlink:title=" ">
<polygon fill="#ffffff" stroke="#000000" points="161.0552,-.5 161.0552,-18.5 247.0942,-18.5 247.0942,-.5 161.0552,-.5"/>
<text text-anchor="middle" x="204.0747" y="-6.5" font-family="Helvetica,sans-Serif" font-size="10.00" fill="#000000">_ElectronGraph</text>
</a>
</g>
</g>
<!-- Node11&#45;&gt;Node10 -->
<g id="edge12" class="edge">
<title>Node11&#45;&gt;Node10</title>
<path fill="none" stroke="#9a32cd" stroke-dasharray="5,2" d="M257.5606,-5.9891C304.1832,-3.8195 373.5151,-2.7435 433.3291,-10.5 458.4911,-13.7629 486.3734,-21.3189 506.3464,-27.449"/>
<polygon fill="#9a32cd" stroke="#9a32cd" points="257.1991,-2.5027 247.386,-6.4968 257.548,-9.494 257.1991,-2.5027"/>
<text text-anchor="middle" x="358.1582" y="-12.5" font-family="Helvetica,sans-Serif" font-size="10.00" fill="#000000"> ptr</text>
</g>
<!-- Node12 -->
<g id="node12" class="node">
<title>Node12</title>
<g id="a_node12"><a xlink:title=" ">
<polygon fill="#ffffff" stroke="#bfbfbf" points="0,-.5 0,-18.5 63.8076,-18.5 63.8076,-.5 0,-.5"/>
<text text-anchor="middle" x="31.9038" y="-6.5" font-family="Helvetica,sans-Serif" font-size="10.00" fill="#000000">_ElnGraph</text>
</a>
</g>
</g>
<!-- Node12&#45;&gt;Node11 -->
<g id="edge13" class="edge">
<title>Node12&#45;&gt;Node11</title>
<path fill="none" stroke="#191970" d="M73.9604,-9.5C100.3529,-9.5 134.3004,-9.5 160.9021,-9.5"/>
<polygon fill="#191970" stroke="#191970" points="73.8844,-6.0001 63.8843,-9.5 73.8843,-13.0001 73.8844,-6.0001"/>
</g>
</g>
</svg>
