<?xml version="1.0" encoding="UTF-8" standalone="no"?>
<!DOCTYPE svg PUBLIC "-//W3C//DTD SVG 1.1//EN"
 "http://www.w3.org/Graphics/SVG/1.1/DTD/svg11.dtd">
<!-- Generated by graphviz version 2.40.1 (20161225.0304)
 -->
<!-- Title: MolecularGraph Pages: 1 -->
<svg width="250pt" height="373pt"
 viewBox="0.00 0.00 250.44 373.00" xmlns="http://www.w3.org/2000/svg" xmlns:xlink="http://www.w3.org/1999/xlink">
<g id="graph0" class="graph" transform="scale(1 1) rotate(0) translate(4 369)">
<title>MolecularGraph</title>
<polygon fill="#ffffff" stroke="transparent" points="-4,4 -4,-369 246.4365,-369 246.4365,4 -4,4"/>
<!-- Node3 -->
<g id="node1" class="node">
<title>Node3</title>
<g id="a_node1"><a xlink:title="Class containing a graph representation of a molecule.">
<polygon fill="#bfbfbf" stroke="#000000" points="28.208,-.5 28.208,-18.5 115.3506,-18.5 115.3506,-.5 28.208,-.5"/>
<text text-anchor="middle" x="71.7793" y="-6.5" font-family="Helvetica,sans-Serif" font-size="10.00" fill="#000000">MolecularGraph</text>
</a>
</g>
</g>
<!-- Node4 -->
<g id="node2" class="node">
<title>Node4</title>
<g id="a_node2"><a xlink:href="classindigox_1_1graph_1_1_base_graph.html" target="_top" xlink:title=" ">
<polygon fill="#ffffff" stroke="#000000" points="0,-56.5 0,-84.5 143.5586,-84.5 143.5586,-56.5 0,-56.5"/>
<text text-anchor="start" x="8" y="-72.5" font-family="Helvetica,sans-Serif" font-size="10.00" fill="#000000">BaseGraph&lt; MGVertex,</text>
<text text-anchor="middle" x="71.7793" y="-62.5" font-family="Helvetica,sans-Serif" font-size="10.00" fill="#000000"> MGEdge, MolecularGraph &gt;</text>
</a>
</g>
</g>
<!-- Node4&#45;&gt;Node3 -->
<g id="edge1" class="edge">
<title>Node4&#45;&gt;Node3</title>
<path fill="none" stroke="#191970" d="M71.7793,-46.1001C71.7793,-36.5157 71.7793,-26.0935 71.7793,-18.831"/>
<polygon fill="#191970" stroke="#191970" points="68.2794,-46.352 71.7793,-56.3521 75.2794,-46.3521 68.2794,-46.352"/>
</g>
<!-- Node5 -->
<g id="node3" class="node">
<title>Node5</title>
<g id="a_node3"><a xlink:title=" ">
<polygon fill="#ffffff" stroke="#bfbfbf" points="10.415,-216.5 10.415,-234.5 133.1436,-234.5 133.1436,-216.5 10.415,-216.5"/>
<text text-anchor="middle" x="71.7793" y="-222.5" font-family="Helvetica,sans-Serif" font-size="10.00" fill="#000000">shared_ptr&lt; BaseImpl &gt;</text>
</a>
</g>
</g>
<!-- Node5&#45;&gt;Node4 -->
<g id="edge2" class="edge">
<title>Node5&#45;&gt;Node4</title>
<path fill="none" stroke="#9a32cd" stroke-dasharray="5,2" d="M68.8748,-206.5886C67.3767,-195.8818 65.71,-182.2257 64.9619,-170 63.1008,-139.5828 67.021,-103.96 69.6529,-84.6661"/>
<polygon fill="#9a32cd" stroke="#9a32cd" points="65.4137,-207.1096 70.3294,-216.495 72.3394,-206.0926 65.4137,-207.1096"/>
<text text-anchor="middle" x="94.688" y="-152.5" font-family="Helvetica,sans-Serif" font-size="10.00" fill="#000000"> m_basedata</text>
</g>
<!-- Node8 -->
<g id="node6" class="node">
<title>Node8</title>
<g id="a_node6"><a xlink:href="classindigox_1_1graph_1_1_base_graph.html" target="_top" xlink:title="Template base class for all graphs used in the indigoX library.">
<polygon fill="#ffffff" stroke="#000000" points="131.6855,-141.5 131.6855,-169.5 239.873,-169.5 239.873,-141.5 131.6855,-141.5"/>
<text text-anchor="start" x="139.6855" y="-157.5" font-family="Helvetica,sans-Serif" font-size="10.00" fill="#000000">BaseGraph&lt; V, E, S,</text>
<text text-anchor="middle" x="185.7793" y="-147.5" font-family="Helvetica,sans-Serif" font-size="10.00" fill="#000000"> D, VP, EP &gt;</text>
</a>
</g>
</g>
<!-- Node5&#45;&gt;Node8 -->
<g id="edge6" class="edge">
<title>Node5&#45;&gt;Node8</title>
<path fill="none" stroke="#9a32cd" stroke-dasharray="5,2" d="M95.3553,-211.0235C115.0513,-198.9295 142.9801,-181.7802 162.5723,-169.7499"/>
<polygon fill="#9a32cd" stroke="#9a32cd" points="93.3731,-208.1334 86.6828,-216.3487 97.036,-214.0986 93.3731,-208.1334"/>
<text text-anchor="middle" x="160.688" y="-190" font-family="Helvetica,sans-Serif" font-size="10.00" fill="#000000"> m_basedata</text>
</g>
<!-- Node6 -->
<g id="node4" class="node">
<title>Node6</title>
<g id="a_node4"><a xlink:title="STL class.">
<polygon fill="#ffffff" stroke="#bfbfbf" points="28.3789,-281.5 28.3789,-299.5 115.1797,-299.5 115.1797,-281.5 28.3789,-281.5"/>
<text text-anchor="middle" x="71.7793" y="-287.5" font-family="Helvetica,sans-Serif" font-size="10.00" fill="#000000">shared_ptr&lt; T &gt;</text>
</a>
</g>
</g>
<!-- Node6&#45;&gt;Node5 -->
<g id="edge3" class="edge">
<title>Node6&#45;&gt;Node5</title>
<path fill="none" stroke="#ffa500" stroke-dasharray="5,2" d="M71.7793,-271.1265C71.7793,-259.1522 71.7793,-244.3205 71.7793,-234.8821"/>
<polygon fill="#ffa500" stroke="#ffa500" points="68.2794,-271.462 71.7793,-281.462 75.2794,-271.4621 68.2794,-271.462"/>
<text text-anchor="middle" x="102.6289" y="-255" font-family="Helvetica,sans-Serif" font-size="10.00" fill="#000000"> &lt; BaseImpl &gt;</text>
</g>
<!-- Node7 -->
<g id="node5" class="node">
<title>Node7</title>
<g id="a_node5"><a xlink:title=" ">
<polygon fill="#ffffff" stroke="#bfbfbf" points="57.2793,-346.5 57.2793,-364.5 86.2793,-364.5 86.2793,-346.5 57.2793,-346.5"/>
<text text-anchor="middle" x="71.3335" y="-352.5" font-family="Helvetica,sans-Serif" font-size="10.00" fill="#000000">T</text>
</a>
</g>
</g>
<!-- Node7&#45;&gt;Node6 -->
<g id="edge4" class="edge">
<title>Node7&#45;&gt;Node6</title>
<path fill="none" stroke="#9a32cd" stroke-dasharray="5,2" d="M71.7793,-336.1265C71.7793,-324.1522 71.7793,-309.3205 71.7793,-299.8821"/>
<polygon fill="#9a32cd" stroke="#9a32cd" points="68.2794,-336.462 71.7793,-346.462 75.2794,-336.4621 68.2794,-336.462"/>
<text text-anchor="middle" x="79.0034" y="-320" font-family="Helvetica,sans-Serif" font-size="10.00" fill="#000000"> ptr</text>
</g>
<!-- Node8&#45;&gt;Node4 -->
<g id="edge5" class="edge">
<title>Node8&#45;&gt;Node4</title>
<path fill="none" stroke="#ffa500" stroke-dasharray="5,2" d="M158.7577,-135.3523C137.7714,-119.7046 109.2067,-98.4064 90.632,-84.5569"/>
<polygon fill="#ffa500" stroke="#ffa500" points="156.8455,-138.2924 166.9545,-141.464 161.0298,-132.6806 156.8455,-138.2924"/>
<text text-anchor="start" x="138.7793" y="-115" font-family="Helvetica,sans-Serif" font-size="10.00" fill="#000000"> &lt; MGVertex, MGEdge,</text>
<text text-anchor="middle" x="190.6079" y="-105" font-family="Helvetica,sans-Serif" font-size="10.00" fill="#000000"> MolecularGraph &gt;</text>
</g>
</g>
</svg>
