<?xml version="1.0" encoding="UTF-8" standalone="no"?>
<!DOCTYPE svg PUBLIC "-//W3C//DTD SVG 1.1//EN"
 "http://www.w3.org/Graphics/SVG/1.1/DTD/svg11.dtd">
<!-- Generated by graphviz version 2.40.1 (20161225.0304)
 -->
<!-- Title: IXElectronAssigner::AssignAlgorithm Pages: 1 -->
<svg width="506pt" height="232pt"
 viewBox="0.00 0.00 506.39 232.00" xmlns="http://www.w3.org/2000/svg" xmlns:xlink="http://www.w3.org/1999/xlink">
<g id="graph0" class="graph" transform="scale(1 1) rotate(0) translate(4 228)">
<title>IXElectronAssigner::AssignAlgorithm</title>
<polygon fill="#ffffff" stroke="transparent" points="-4,4 -4,-228 502.3901,-228 502.3901,4 -4,4"/>
<!-- Node3 -->
<g id="node1" class="node">
<title>Node3</title>
<polygon fill="#bfbfbf" stroke="#000000" points="159.8169,-.5 159.8169,-28.5 260.856,-28.5 260.856,-.5 159.8169,-.5"/>
<text text-anchor="start" x="167.8169" y="-16.5" font-family="Helvetica,sans-Serif" font-size="10.00" fill="#000000">IXElectronAssigner</text>
<text text-anchor="middle" x="210.3364" y="-6.5" font-family="Helvetica,sans-Serif" font-size="10.00" fill="#000000">::AssignAlgorithm</text>
</g>
<!-- Node4 -->
<g id="node2" class="node">
<title>Node4</title>
<g id="a_node2"><a xlink:title="STL class. ">
<polygon fill="#ffffff" stroke="#bfbfbf" points="0,-140.5 0,-158.5 70.6729,-158.5 70.6729,-140.5 0,-140.5"/>
<text text-anchor="middle" x="35.3364" y="-146.5" font-family="Helvetica,sans-Serif" font-size="10.00" fill="#000000">map&lt; K, T &gt;</text>
</a>
</g>
</g>
<!-- Node4&#45;&gt;Node3 -->
<g id="edge1" class="edge">
<title>Node4&#45;&gt;Node3</title>
<path fill="none" stroke="#9a32cd" stroke-dasharray="5,2" d="M32.4609,-130.0006C31.1591,-113.6002 32.0765,-90.4242 44.312,-75 59.0401,-56.4337 116.4622,-38.2415 159.6808,-26.7343"/>
<polygon fill="#9a32cd" stroke="#9a32cd" points="29.0008,-130.5515 33.6049,-140.0937 35.9563,-129.7631 29.0008,-130.5515"/>
<text text-anchor="middle" x="59.3486" y="-81.5" font-family="Helvetica,sans-Serif" font-size="10.00" fill="#000000"> _table</text>
</g>
<!-- Node5 -->
<g id="node3" class="node">
<title>Node5</title>
<polygon fill="#ffffff" stroke="#bfbfbf" points="17.8364,-205.5 17.8364,-223.5 46.8364,-223.5 46.8364,-205.5 17.8364,-205.5"/>
<text text-anchor="middle" x="32.1714" y="-211.5" font-family="Helvetica,sans-Serif" font-size="10.00" fill="#000000">K</text>
</g>
<!-- Node5&#45;&gt;Node4 -->
<g id="edge2" class="edge">
<title>Node5&#45;&gt;Node4</title>
<path fill="none" stroke="#9a32cd" stroke-dasharray="5,2" d="M32.43,-195.0645C32.525,-189.2515 32.6958,-182.8648 32.9966,-177 33.3107,-170.8749 33.8957,-163.9999 34.4021,-158.6561"/>
<polygon fill="#9a32cd" stroke="#9a32cd" points="28.9284,-195.2123 32.3262,-205.2475 35.928,-195.2837 28.9284,-195.2123"/>
<text text-anchor="middle" x="45.0063" y="-179" font-family="Helvetica,sans-Serif" font-size="10.00" fill="#000000"> keys</text>
</g>
<!-- Node6 -->
<g id="node4" class="node">
<title>Node6</title>
<polygon fill="#ffffff" stroke="#bfbfbf" points="96.8364,-205.5 96.8364,-223.5 125.8364,-223.5 125.8364,-205.5 96.8364,-205.5"/>
<text text-anchor="middle" x="110.8906" y="-211.5" font-family="Helvetica,sans-Serif" font-size="10.00" fill="#000000">T</text>
</g>
<!-- Node6&#45;&gt;Node4 -->
<g id="edge3" class="edge">
<title>Node6&#45;&gt;Node4</title>
<path fill="none" stroke="#9a32cd" stroke-dasharray="5,2" d="M92.8434,-198.811C88.3063,-194.9538 83.4654,-190.8314 78.9819,-187 67.7418,-177.3945 54.9105,-166.3618 46.0846,-158.7625"/>
<polygon fill="#9a32cd" stroke="#9a32cd" points="90.6518,-201.5416 100.5393,-205.3477 95.1834,-196.2063 90.6518,-201.5416"/>
<text text-anchor="middle" x="101.0137" y="-179" font-family="Helvetica,sans-Serif" font-size="10.00" fill="#000000"> elements</text>
</g>
<!-- Node10 -->
<g id="node8" class="node">
<title>Node10</title>
<g id="a_node8"><a xlink:title="STL class. ">
<polygon fill="#ffffff" stroke="#bfbfbf" points="111.2241,-140.5 111.2241,-158.5 177.4487,-158.5 177.4487,-140.5 111.2241,-140.5"/>
<text text-anchor="middle" x="144.3364" y="-146.5" font-family="Helvetica,sans-Serif" font-size="10.00" fill="#000000">vector&lt; T &gt;</text>
</a>
</g>
</g>
<!-- Node6&#45;&gt;Node10 -->
<g id="edge8" class="edge">
<title>Node6&#45;&gt;Node10</title>
<path fill="none" stroke="#9a32cd" stroke-dasharray="5,2" d="M120.6125,-196.229C126.7831,-184.0748 134.6332,-168.6124 139.5732,-158.8821"/>
<polygon fill="#9a32cd" stroke="#9a32cd" points="117.3311,-194.9609 115.9249,-205.462 123.5727,-198.1298 117.3311,-194.9609"/>
<text text-anchor="middle" x="152.0137" y="-179" font-family="Helvetica,sans-Serif" font-size="10.00" fill="#000000"> elements</text>
</g>
<!-- Node7 -->
<g id="node5" class="node">
<title>Node7</title>
<polygon fill="#ffffff" stroke="#bfbfbf" points="367.248,-75.5 367.248,-93.5 479.4248,-93.5 479.4248,-75.5 367.248,-75.5"/>
<text text-anchor="middle" x="423.3364" y="-81.5" font-family="Helvetica,sans-Serif" font-size="10.00" fill="#000000">bitset&lt; __num_opts &gt;</text>
</g>
<!-- Node7&#45;&gt;Node3 -->
<g id="edge4" class="edge">
<title>Node7&#45;&gt;Node3</title>
<path fill="none" stroke="#9a32cd" stroke-dasharray="5,2" d="M386.0121,-72.2338C348.8923,-60.0348 292.0104,-41.3412 253.094,-28.5518"/>
<polygon fill="#9a32cd" stroke="#9a32cd" points="385.3336,-75.6949 395.9265,-75.492 387.5191,-69.0448 385.3336,-75.6949"/>
<text text-anchor="middle" x="349.957" y="-49" font-family="Helvetica,sans-Serif" font-size="10.00" fill="#000000"> _opts</text>
</g>
<!-- Node8 -->
<g id="node6" class="node">
<title>Node8</title>
<g id="a_node6"><a xlink:title="STL class. ">
<polygon fill="#ffffff" stroke="#bfbfbf" points="386.4326,-140.5 386.4326,-158.5 460.2402,-158.5 460.2402,-140.5 386.4326,-140.5"/>
<text text-anchor="middle" x="423.3364" y="-146.5" font-family="Helvetica,sans-Serif" font-size="10.00" fill="#000000">bitset&lt; Bits &gt;</text>
</a>
</g>
</g>
<!-- Node8&#45;&gt;Node7 -->
<g id="edge5" class="edge">
<title>Node8&#45;&gt;Node7</title>
<path fill="none" stroke="#ffa500" stroke-dasharray="5,2" d="M423.3364,-130.1265C423.3364,-118.1522 423.3364,-103.3205 423.3364,-93.8821"/>
<polygon fill="#ffa500" stroke="#ffa500" points="419.8365,-130.462 423.3364,-140.462 426.8365,-130.4621 419.8365,-130.462"/>
<text text-anchor="middle" x="460.8633" y="-114" font-family="Helvetica,sans-Serif" font-size="10.00" fill="#000000"> &lt; __num_opts &gt;</text>
</g>
<!-- Node9 -->
<g id="node7" class="node">
<title>Node9</title>
<polygon fill="#ffffff" stroke="#bfbfbf" points="83.4229,-75.5 83.4229,-93.5 197.25,-93.5 197.25,-75.5 83.4229,-75.5"/>
<text text-anchor="middle" x="140.3364" y="-81.5" font-family="Helvetica,sans-Serif" font-size="10.00" fill="#000000">vector&lt; AssignMask &gt;</text>
</g>
<!-- Node9&#45;&gt;Node3 -->
<g id="edge6" class="edge">
<title>Node9&#45;&gt;Node3</title>
<path fill="none" stroke="#9a32cd" stroke-dasharray="5,2" d="M156.6551,-68.1813C168.6014,-56.235 184.655,-40.1814 196.0865,-28.7499"/>
<polygon fill="#9a32cd" stroke="#9a32cd" points="154.0839,-65.8027 149.4877,-75.3487 159.0337,-70.7525 154.0839,-65.8027"/>
<text text-anchor="middle" x="197.2329" y="-49" font-family="Helvetica,sans-Serif" font-size="10.00" fill="#000000"> _results</text>
</g>
<!-- Node10&#45;&gt;Node9 -->
<g id="edge7" class="edge">
<title>Node10&#45;&gt;Node9</title>
<path fill="none" stroke="#ffa500" stroke-dasharray="5,2" d="M143.1442,-130.1265C142.4073,-118.1522 141.4946,-103.3205 140.9138,-93.8821"/>
<polygon fill="#ffa500" stroke="#ffa500" points="139.6725,-130.6959 143.7802,-140.462 146.6593,-130.2659 139.6725,-130.6959"/>
<text text-anchor="middle" x="180.0234" y="-114" font-family="Helvetica,sans-Serif" font-size="10.00" fill="#000000"> &lt; AssignMask &gt;</text>
</g>
<!-- Node11 -->
<g id="node9" class="node">
<title>Node11</title>
<polygon fill="#ffffff" stroke="#bfbfbf" points="215.1348,-75.5 215.1348,-93.5 349.5381,-93.5 349.5381,-75.5 215.1348,-75.5"/>
<text text-anchor="middle" x="282.3364" y="-81.5" font-family="Helvetica,sans-Serif" font-size="10.00" fill="#000000">vector&lt; graph::AGVertex &gt;</text>
</g>
<!-- Node10&#45;&gt;Node11 -->
<g id="edge10" class="edge">
<title>Node10&#45;&gt;Node11</title>
<path fill="none" stroke="#ffa500" stroke-dasharray="5,2" d="M182.8621,-137.2154C195.0552,-132.8909 208.4474,-127.6784 220.3364,-122 237.8175,-113.6508 256.7031,-101.7763 268.9773,-93.6393"/>
<polygon fill="#ffa500" stroke="#ffa500" points="181.7023,-133.913 173.3921,-140.4851 183.9869,-140.5298 181.7023,-133.913"/>
<text text-anchor="middle" x="285.3115" y="-114" font-family="Helvetica,sans-Serif" font-size="10.00" fill="#000000"> &lt; graph::AGVertex &gt;</text>
</g>
<!-- Node11&#45;&gt;Node3 -->
<g id="edge9" class="edge">
<title>Node11&#45;&gt;Node3</title>
<path fill="none" stroke="#9a32cd" stroke-dasharray="5,2" d="M265.5515,-68.1813C253.2639,-56.235 236.7516,-40.1814 224.9935,-28.7499"/>
<polygon fill="#9a32cd" stroke="#9a32cd" points="263.3139,-70.8874 272.9237,-75.3487 268.1935,-65.8684 263.3139,-70.8874"/>
<text text-anchor="middle" x="266.3979" y="-49" font-family="Helvetica,sans-Serif" font-size="10.00" fill="#000000"> _locs</text>
</g>
</g>
</svg>
