<?xml version="1.0" encoding="UTF-8" standalone="no"?>
<!DOCTYPE svg PUBLIC "-//W3C//DTD SVG 1.1//EN"
 "http://www.w3.org/Graphics/SVG/1.1/DTD/svg11.dtd">
<!-- Generated by graphviz version 2.40.1 (20161225.0304)
 -->
<!-- Title: PriorityQueue Pages: 1 -->
<svg width="90pt" height="148pt"
 viewBox="0.00 0.00 89.92 148.00" xmlns="http://www.w3.org/2000/svg" xmlns:xlink="http://www.w3.org/1999/xlink">
<g id="graph0" class="graph" transform="scale(1 1) rotate(0) translate(4 144)">
<title>PriorityQueue</title>
<polygon fill="#ffffff" stroke="transparent" points="-4,4 -4,-144 85.9233,-144 85.9233,4 -4,4"/>
<!-- Node2 -->
<g id="node1" class="node">
<title>Node2</title>
<polygon fill="#bfbfbf" stroke="#000000" points="0,-.5 0,-18.5 77.1377,-18.5 77.1377,-.5 0,-.5"/>
<text text-anchor="middle" x="38.5688" y="-6.5" font-family="Helvetica,sans-Serif" font-size="10.00" fill="#000000">PriorityQueue</text>
</g>
<!-- Node3 -->
<g id="node2" class="node">
<title>Node3</title>
<g id="a_node2"><a xlink:title="STL class. ">
<polygon fill="#ffffff" stroke="#bfbfbf" points="12.4951,-56.5 12.4951,-74.5 64.6426,-74.5 64.6426,-56.5 12.4951,-56.5"/>
<text text-anchor="middle" x="38.5688" y="-62.5" font-family="Helvetica,sans-Serif" font-size="10.00" fill="#000000">queue_t</text>
</a>
</g>
</g>
<!-- Node3&#45;&gt;Node2 -->
<g id="edge1" class="edge">
<title>Node3&#45;&gt;Node2</title>
<path fill="none" stroke="#191970" d="M38.5688,-46.2065C38.5688,-36.8384 38.5688,-26.0262 38.5688,-18.5752"/>
<polygon fill="#191970" stroke="#191970" points="35.0689,-46.2527 38.5688,-56.2527 42.0689,-46.2528 35.0689,-46.2527"/>
</g>
<!-- Node4 -->
<g id="node3" class="node">
<title>Node4</title>
<polygon fill="#ffffff" stroke="#bfbfbf" points="24.0688,-121.5 24.0688,-139.5 53.0688,-139.5 53.0688,-121.5 24.0688,-121.5"/>
<text text-anchor="middle" x="38.123" y="-127.5" font-family="Helvetica,sans-Serif" font-size="10.00" fill="#000000">T</text>
</g>
<!-- Node4&#45;&gt;Node3 -->
<g id="edge2" class="edge">
<title>Node4&#45;&gt;Node3</title>
<path fill="none" stroke="#9a32cd" stroke-dasharray="5,2" d="M38.5688,-111.1265C38.5688,-99.1522 38.5688,-84.3205 38.5688,-74.8821"/>
<polygon fill="#9a32cd" stroke="#9a32cd" points="35.0689,-111.462 38.5688,-121.462 42.0689,-111.4621 35.0689,-111.462"/>
<text text-anchor="middle" x="60.2461" y="-95" font-family="Helvetica,sans-Serif" font-size="10.00" fill="#000000"> elements</text>
</g>
</g>
</svg>
