<?xml version="1.0" encoding="UTF-8" standalone="no"?>
<!DOCTYPE svg PUBLIC "-//W3C//DTD SVG 1.1//EN"
 "http://www.w3.org/Graphics/SVG/1.1/DTD/svg11.dtd">
<!-- Generated by graphviz version 2.40.1 (20161225.0304)
 -->
<!-- Title: ElectronOpt Pages: 1 -->
<svg width="272pt" height="232pt"
 viewBox="0.00 0.00 271.94 232.00" xmlns="http://www.w3.org/2000/svg" xmlns:xlink="http://www.w3.org/1999/xlink">
<g id="graph0" class="graph" transform="scale(1 1) rotate(0) translate(4 228)">
<title>ElectronOpt</title>
<polygon fill="#ffffff" stroke="transparent" points="-4,4 -4,-228 267.939,-228 267.939,4 -4,4"/>
<!-- Node1 -->
<g id="node1" class="node">
<title>Node1</title>
<polygon fill="#bfbfbf" stroke="#000000" points="93.8335,-.5 93.8335,-18.5 162.6362,-18.5 162.6362,-.5 93.8335,-.5"/>
<text text-anchor="middle" x="128.2349" y="-6.5" font-family="Helvetica,sans-Serif" font-size="10.00" fill="#000000">ElectronOpt</text>
</g>
<!-- Node2 -->
<g id="node2" class="node">
<title>Node2</title>
<polygon fill="#ffffff" stroke="#bfbfbf" points="0,-65.5 0,-93.5 122.4697,-93.5 122.4697,-65.5 0,-65.5"/>
<text text-anchor="start" x="8" y="-81.5" font-family="Helvetica,sans-Serif" font-size="10.00" fill="#000000">unordered_map&lt; uint32</text>
<text text-anchor="middle" x="61.2349" y="-71.5" font-family="Helvetica,sans-Serif" font-size="10.00" fill="#000000">_t, FCSCORE &gt;</text>
</g>
<!-- Node2&#45;&gt;Node1 -->
<g id="edge1" class="edge">
<title>Node2&#45;&gt;Node1</title>
<path fill="none" stroke="#9a32cd" stroke-dasharray="5,2" d="M81.8089,-58.0048C94.4025,-44.8472 109.8748,-28.6822 119.3939,-18.7368"/>
<polygon fill="#9a32cd" stroke="#9a32cd" points="79.1794,-55.6901 74.7933,-65.3345 84.2364,-60.5304 79.1794,-55.6901"/>
<text text-anchor="middle" x="120.1313" y="-39" font-family="Helvetica,sans-Serif" font-size="10.00" fill="#000000"> scores_</text>
</g>
<!-- Node3 -->
<g id="node3" class="node">
<title>Node3</title>
<g id="a_node3"><a xlink:title="STL class. ">
<polygon fill="#ffffff" stroke="#bfbfbf" points="11.3223,-140.5 11.3223,-158.5 133.1475,-158.5 133.1475,-140.5 11.3223,-140.5"/>
<text text-anchor="middle" x="72.2349" y="-146.5" font-family="Helvetica,sans-Serif" font-size="10.00" fill="#000000">unordered_map&lt; K, T &gt;</text>
</a>
</g>
</g>
<!-- Node3&#45;&gt;Node2 -->
<g id="edge2" class="edge">
<title>Node3&#45;&gt;Node2</title>
<path fill="none" stroke="#ffa500" stroke-dasharray="5,2" d="M69.2308,-130.383C67.413,-118.8156 65.1336,-104.3105 63.4741,-93.7499"/>
<polygon fill="#ffa500" stroke="#ffa500" points="65.7868,-131.0133 70.7968,-140.3487 72.7019,-129.9266 65.7868,-131.0133"/>
<text text-anchor="middle" x="123.2593" y="-114" font-family="Helvetica,sans-Serif" font-size="10.00" fill="#000000"> &lt; uint32_t, FCSCORE &gt;</text>
</g>
<!-- Node4 -->
<g id="node4" class="node">
<title>Node4</title>
<polygon fill="#ffffff" stroke="#bfbfbf" points="57.7349,-205.5 57.7349,-223.5 86.7349,-223.5 86.7349,-205.5 57.7349,-205.5"/>
<text text-anchor="middle" x="72.0698" y="-211.5" font-family="Helvetica,sans-Serif" font-size="10.00" fill="#000000">K</text>
</g>
<!-- Node4&#45;&gt;Node3 -->
<g id="edge3" class="edge">
<title>Node4&#45;&gt;Node3</title>
<path fill="none" stroke="#9a32cd" stroke-dasharray="5,2" d="M72.2349,-195.1265C72.2349,-183.1522 72.2349,-168.3205 72.2349,-158.8821"/>
<polygon fill="#9a32cd" stroke="#9a32cd" points="68.735,-195.462 72.2349,-205.462 75.735,-195.4621 68.735,-195.462"/>
<text text-anchor="middle" x="83.9048" y="-179" font-family="Helvetica,sans-Serif" font-size="10.00" fill="#000000"> keys</text>
</g>
<!-- Node5 -->
<g id="node5" class="node">
<title>Node5</title>
<polygon fill="#ffffff" stroke="#bfbfbf" points="136.7349,-205.5 136.7349,-223.5 165.7349,-223.5 165.7349,-205.5 136.7349,-205.5"/>
<text text-anchor="middle" x="150.7891" y="-211.5" font-family="Helvetica,sans-Serif" font-size="10.00" fill="#000000">T</text>
</g>
<!-- Node5&#45;&gt;Node3 -->
<g id="edge4" class="edge">
<title>Node5&#45;&gt;Node3</title>
<path fill="none" stroke="#9a32cd" stroke-dasharray="5,2" d="M132.4431,-199.0384C117.1617,-186.4651 96.1149,-169.1481 83.3809,-158.6708"/>
<polygon fill="#9a32cd" stroke="#9a32cd" points="130.3043,-201.8111 140.2503,-205.462 134.7519,-196.4056 130.3043,-201.8111"/>
<text text-anchor="middle" x="138.9121" y="-179" font-family="Helvetica,sans-Serif" font-size="10.00" fill="#000000"> elements</text>
</g>
<!-- Node7 -->
<g id="node7" class="node">
<title>Node7</title>
<g id="a_node7"><a xlink:title="STL class. ">
<polygon fill="#ffffff" stroke="#bfbfbf" points="156.1226,-140.5 156.1226,-158.5 222.3472,-158.5 222.3472,-140.5 156.1226,-140.5"/>
<text text-anchor="middle" x="189.2349" y="-146.5" font-family="Helvetica,sans-Serif" font-size="10.00" fill="#000000">vector&lt; T &gt;</text>
</a>
</g>
</g>
<!-- Node5&#45;&gt;Node7 -->
<g id="edge7" class="edge">
<title>Node5&#45;&gt;Node7</title>
<path fill="none" stroke="#9a32cd" stroke-dasharray="5,2" d="M161.7038,-196.5926C168.8408,-184.3846 178.0046,-168.7097 183.7499,-158.8821"/>
<polygon fill="#9a32cd" stroke="#9a32cd" points="158.5441,-195.0626 156.5186,-205.462 164.5872,-198.5955 158.5441,-195.0626"/>
<text text-anchor="middle" x="194.9121" y="-179" font-family="Helvetica,sans-Serif" font-size="10.00" fill="#000000"> elements</text>
</g>
<!-- Node6 -->
<g id="node6" class="node">
<title>Node6</title>
<polygon fill="#ffffff" stroke="#bfbfbf" points="140.1563,-70.5 140.1563,-88.5 252.3135,-88.5 252.3135,-70.5 140.1563,-70.5"/>
<text text-anchor="middle" x="196.2349" y="-76.5" font-family="Helvetica,sans-Serif" font-size="10.00" fill="#000000">vector&lt; MolVertPair &gt;</text>
</g>
<!-- Node6&#45;&gt;Node1 -->
<g id="edge5" class="edge">
<title>Node6&#45;&gt;Node1</title>
<path fill="none" stroke="#9a32cd" stroke-dasharray="5,2" d="M180.1747,-62.9675C166.8164,-49.2163 148.2804,-30.1351 137.3439,-18.8769"/>
<polygon fill="#9a32cd" stroke="#9a32cd" points="177.8667,-65.6147 187.3451,-70.3487 182.8877,-60.7371 177.8667,-65.6147"/>
<text text-anchor="middle" x="209.1533" y="-39" font-family="Helvetica,sans-Serif" font-size="10.00" fill="#000000"> possibleLocations_</text>
</g>
<!-- Node7&#45;&gt;Node6 -->
<g id="edge6" class="edge">
<title>Node7&#45;&gt;Node6</title>
<path fill="none" stroke="#ffa500" stroke-dasharray="5,2" d="M191.1645,-130.2039C192.5095,-116.7531 194.245,-99.3986 195.2972,-88.8769"/>
<polygon fill="#ffa500" stroke="#ffa500" points="187.6625,-130.0501 190.15,-140.3487 194.6277,-130.7466 187.6625,-130.0501"/>
<text text-anchor="middle" x="228.0869" y="-114" font-family="Helvetica,sans-Serif" font-size="10.00" fill="#000000"> &lt; MolVertPair &gt;</text>
</g>
</g>
</svg>
