<?xml version="1.0" encoding="UTF-8" standalone="no"?>
<!DOCTYPE svg PUBLIC "-//W3C//DTD SVG 1.1//EN"
 "http://www.w3.org/Graphics/SVG/1.1/DTD/svg11.dtd">
<!-- Generated by graphviz version 2.40.1 (20161225.0304)
 -->
<!-- Title: IXElectronAssigner::AssignAlgorithm Pages: 1 -->
<svg width="236pt" height="92pt"
 viewBox="0.00 0.00 236.48 92.00" xmlns="http://www.w3.org/2000/svg" xmlns:xlink="http://www.w3.org/1999/xlink">
<g id="graph0" class="graph" transform="scale(1 1) rotate(0) translate(4 88)">
<title>IXElectronAssigner::AssignAlgorithm</title>
<polygon fill="#ffffff" stroke="transparent" points="-4,4 -4,-88 232.4824,-88 232.4824,4 -4,4"/>
<!-- Node0 -->
<g id="node1" class="node">
<title>Node0</title>
<g id="a_node1"><a xlink:title="Base class for an electron assignment algorithm.">
<polygon fill="#bfbfbf" stroke="#000000" points="63.4976,-55.5 63.4976,-83.5 164.5366,-83.5 164.5366,-55.5 63.4976,-55.5"/>
<text text-anchor="start" x="71.4976" y="-71.5" font-family="Helvetica,sans-Serif" font-size="10.00" fill="#000000">IXElectronAssigner</text>
<text text-anchor="middle" x="114.0171" y="-61.5" font-family="Helvetica,sans-Serif" font-size="10.00" fill="#000000">::AssignAlgorithm</text>
</a>
</g>
</g>
<!-- Node1 -->
<g id="node2" class="node">
<title>Node1</title>
<g id="a_node2"><a xlink:href="classindigox_1_1algorithm_1_1_i_x_a_star_optimisation.html" target="_top" xlink:title=" ">
<polygon fill="#ffffff" stroke="#000000" points="0,-.5 0,-18.5 106.0342,-18.5 106.0342,-.5 0,-.5"/>
<text text-anchor="middle" x="53.0171" y="-6.5" font-family="Helvetica,sans-Serif" font-size="10.00" fill="#000000">IXAStarOptimisation</text>
</a>
</g>
</g>
<!-- Node0&#45;&gt;Node1 -->
<g id="edge1" class="edge">
<title>Node0&#45;&gt;Node1</title>
<path fill="none" stroke="#191970" d="M92.3746,-48.2123C82.04,-38.0471 70.2197,-26.4206 62.2527,-18.5842"/>
<polygon fill="#191970" stroke="#191970" points="89.9773,-50.7637 99.5609,-55.2808 94.886,-45.7732 89.9773,-50.7637"/>
</g>
<!-- Node2 -->
<g id="node3" class="node">
<title>Node2</title>
<g id="a_node3"><a xlink:href="classindigox_1_1algorithm_1_1_i_x_local_optimisation.html" target="_top" xlink:title="Local optimisation electron assignment algorithm.">
<polygon fill="#ffffff" stroke="#000000" points="123.5518,-.5 123.5518,-18.5 228.4824,-18.5 228.4824,-.5 123.5518,-.5"/>
<text text-anchor="middle" x="176.0171" y="-6.5" font-family="Helvetica,sans-Serif" font-size="10.00" fill="#000000">IXLocalOptimisation</text>
</a>
</g>
</g>
<!-- Node0&#45;&gt;Node2 -->
<g id="edge2" class="edge">
<title>Node0&#45;&gt;Node2</title>
<path fill="none" stroke="#191970" d="M136.0143,-48.2123C146.5184,-38.0471 158.5324,-26.4206 166.6301,-18.5842"/>
<polygon fill="#191970" stroke="#191970" points="133.4623,-45.8115 128.7102,-55.2808 138.3303,-50.8417 133.4623,-45.8115"/>
</g>
</g>
</svg>
