<?xml version="1.0" encoding="UTF-8" standalone="no"?>
<!DOCTYPE svg PUBLIC "-//W3C//DTD SVG 1.1//EN"
 "http://www.w3.org/Graphics/SVG/1.1/DTD/svg11.dtd">
<!-- Generated by graphviz version 2.40.1 (20161225.0304)
 -->
<!-- Title: AtomIterator Pages: 1 -->
<svg width="234pt" height="102pt"
 viewBox="0.00 0.00 233.93 102.00" xmlns="http://www.w3.org/2000/svg" xmlns:xlink="http://www.w3.org/1999/xlink">
<g id="graph0" class="graph" transform="scale(1 1) rotate(0) translate(4 98)">
<title>AtomIterator</title>
<polygon fill="#ffffff" stroke="transparent" points="-4,4 -4,-98 229.9331,-98 229.9331,4 -4,4"/>
<!-- Node1 -->
<g id="node1" class="node">
<title>Node1</title>
<polygon fill="#bfbfbf" stroke="#000000" points="67.1675,-.5 67.1675,-18.5 138.187,-18.5 138.187,-.5 67.1675,-.5"/>
<text text-anchor="middle" x="102.6772" y="-6.5" font-family="Helvetica,sans-Serif" font-size="10.00" fill="#000000">AtomIterator</text>
</g>
<!-- Node2 -->
<g id="node2" class="node">
<title>Node2</title>
<g id="a_node2"><a xlink:href="classindigox_1_1_bond.html" target="_top" xlink:title="Bond">
<polygon fill="#ffffff" stroke="#000000" points="0,-75.5 0,-93.5 39.3545,-93.5 39.3545,-75.5 0,-75.5"/>
<text text-anchor="middle" x="19.6772" y="-81.5" font-family="Helvetica,sans-Serif" font-size="10.00" fill="#000000">Bond</text>
</a>
</g>
</g>
<!-- Node2&#45;&gt;Node1 -->
<g id="edge1" class="edge">
<title>Node2&#45;&gt;Node1</title>
<path fill="none" stroke="#9a32cd" stroke-dasharray="5,2" d="M23.6008,-65.4728C26.4059,-55.9209 31.0652,-44.762 38.6284,-37 46.7358,-28.6796 57.7695,-22.7323 68.3947,-18.5483"/>
<polygon fill="#9a32cd" stroke="#9a32cd" points="20.1718,-64.7594 21.1656,-75.3075 26.9666,-66.4419 20.1718,-64.7594"/>
<text text-anchor="middle" x="68.7017" y="-44" font-family="Helvetica,sans-Serif" font-size="10.00" fill="#000000"> parentBond_</text>
</g>
<!-- Node3 -->
<g id="node3" class="node">
<title>Node3</title>
<g id="a_node3"><a xlink:href="classindigox_1_1_molecule.html" target="_top" xlink:title="Molecule">
<polygon fill="#ffffff" stroke="#000000" points="74.6675,-75.5 74.6675,-93.5 130.687,-93.5 130.687,-75.5 74.6675,-75.5"/>
<text text-anchor="middle" x="102.6772" y="-81.5" font-family="Helvetica,sans-Serif" font-size="10.00" fill="#000000">Molecule</text>
</a>
</g>
</g>
<!-- Node3&#45;&gt;Node1 -->
<g id="edge2" class="edge">
<title>Node3&#45;&gt;Node1</title>
<path fill="none" stroke="#9a32cd" stroke-dasharray="5,2" d="M102.6772,-65.1079C102.6772,-50.2042 102.6772,-30.2791 102.6772,-18.7717"/>
<polygon fill="#9a32cd" stroke="#9a32cd" points="99.1773,-65.3035 102.6772,-75.3035 106.1773,-65.3036 99.1773,-65.3035"/>
<text text-anchor="middle" x="129.0811" y="-44" font-family="Helvetica,sans-Serif" font-size="10.00" fill="#000000"> parentMol_</text>
</g>
<!-- Node4 -->
<g id="node4" class="node">
<title>Node4</title>
<g id="a_node4"><a xlink:href="classindigox_1_1_atom.html" target="_top" xlink:title="Atom">
<polygon fill="#ffffff" stroke="#000000" points="159.0073,-75.5 159.0073,-93.5 198.3472,-93.5 198.3472,-75.5 159.0073,-75.5"/>
<text text-anchor="middle" x="178.6772" y="-81.5" font-family="Helvetica,sans-Serif" font-size="10.00" fill="#000000">Atom</text>
</a>
</g>
</g>
<!-- Node4&#45;&gt;Node1 -->
<g id="edge3" class="edge">
<title>Node4&#45;&gt;Node1</title>
<path fill="none" stroke="#9a32cd" stroke-dasharray="5,2" d="M173.2327,-65.6591C169.7323,-56.1584 164.3737,-44.9889 156.6772,-37 149.013,-29.0445 138.5515,-22.9888 128.8767,-18.6127"/>
<polygon fill="#9a32cd" stroke="#9a32cd" points="169.9885,-66.9994 176.4208,-75.4182 176.6424,-64.8257 169.9885,-66.9994"/>
<text text-anchor="middle" x="197.3052" y="-49" font-family="Helvetica,sans-Serif" font-size="10.00" fill="#000000"> ptr_</text>
<text text-anchor="middle" x="197.3052" y="-39" font-family="Helvetica,sans-Serif" font-size="10.00" fill="#000000">parentAtom_</text>
</g>
</g>
</svg>
