<?xml version="1.0" encoding="UTF-8" standalone="no"?>
<!DOCTYPE svg PUBLIC "-//W3C//DTD SVG 1.1//EN"
 "http://www.w3.org/Graphics/SVG/1.1/DTD/svg11.dtd">
<!-- Generated by graphviz version 2.40.1 (20161225.0304)
 -->
<!-- Title: CherryPicker Pages: 1 -->
<svg width="220pt" height="222pt"
 viewBox="0.00 0.00 219.88 222.00" xmlns="http://www.w3.org/2000/svg" xmlns:xlink="http://www.w3.org/1999/xlink">
<g id="graph0" class="graph" transform="scale(1 1) rotate(0) translate(4 218)">
<title>CherryPicker</title>
<polygon fill="#ffffff" stroke="transparent" points="-4,4 -4,-218 215.8789,-218 215.8789,4 -4,4"/>
<!-- Node1 -->
<g id="node1" class="node">
<title>Node1</title>
<polygon fill="#bfbfbf" stroke="#000000" points="88.0317,-.5 88.0317,-18.5 161.8198,-18.5 161.8198,-.5 88.0317,-.5"/>
<text text-anchor="middle" x="124.9258" y="-6.5" font-family="Helvetica,sans-Serif" font-size="10.00" fill="#000000">CherryPicker</text>
</g>
<!-- Node2 -->
<g id="node2" class="node">
<title>Node2</title>
<polygon fill="#ffffff" stroke="#bfbfbf" points="0,-65.5 0,-83.5 133.8516,-83.5 133.8516,-65.5 0,-65.5"/>
<text text-anchor="middle" x="66.9258" y="-71.5" font-family="Helvetica,sans-Serif" font-size="10.00" fill="#000000">list&lt; indigox::Athenaeum &gt;</text>
</g>
<!-- Node2&#45;&gt;Node1 -->
<g id="edge1" class="edge">
<title>Node2&#45;&gt;Node1</title>
<path fill="none" stroke="#9a32cd" stroke-dasharray="5,2" d="M81.9424,-57.6711C92.9625,-45.321 107.5243,-29.0016 116.554,-18.8821"/>
<polygon fill="#9a32cd" stroke="#9a32cd" points="79.0368,-55.6703 74.9904,-65.462 84.2598,-60.3309 79.0368,-55.6703"/>
<text text-anchor="middle" x="111.5981" y="-39" font-family="Helvetica,sans-Serif" font-size="10.00" fill="#000000"> _libs</text>
</g>
<!-- Node3 -->
<g id="node3" class="node">
<title>Node3</title>
<g id="a_node3"><a xlink:href="classindigox_1_1_athenaeum.html" target="_top" xlink:title="Athenaeum class for fragment storage in CherryPicker algorithm. ">
<polygon fill="#ffffff" stroke="#000000" points=".3521,-130.5 .3521,-148.5 67.4995,-148.5 67.4995,-130.5 .3521,-130.5"/>
<text text-anchor="middle" x="33.9258" y="-136.5" font-family="Helvetica,sans-Serif" font-size="10.00" fill="#000000">Athenaeum</text>
</a>
</g>
</g>
<!-- Node3&#45;&gt;Node2 -->
<g id="edge2" class="edge">
<title>Node3&#45;&gt;Node2</title>
<path fill="none" stroke="#9a32cd" stroke-dasharray="5,2" d="M34.4808,-120.2896C35.2584,-114.1921 36.7605,-107.5874 39.5713,-102 43.1422,-94.9014 49.233,-88.5041 54.762,-83.6697"/>
<polygon fill="#9a32cd" stroke="#9a32cd" points="30.9811,-120.1579 33.7373,-130.3879 37.9622,-120.672 30.9811,-120.1579"/>
<text text-anchor="middle" x="61.603" y="-104" font-family="Helvetica,sans-Serif" font-size="10.00" fill="#000000"> elements</text>
</g>
<!-- Node4 -->
<g id="node4" class="node">
<title>Node4</title>
<g id="a_node4"><a xlink:title="STL class. ">
<polygon fill="#ffffff" stroke="#bfbfbf" points="85.3184,-130.5 85.3184,-148.5 136.5332,-148.5 136.5332,-130.5 85.3184,-130.5"/>
<text text-anchor="middle" x="110.9258" y="-136.5" font-family="Helvetica,sans-Serif" font-size="10.00" fill="#000000">list&lt; T &gt;</text>
</a>
</g>
</g>
<!-- Node4&#45;&gt;Node2 -->
<g id="edge3" class="edge">
<title>Node4&#45;&gt;Node2</title>
<path fill="none" stroke="#ffa500" stroke-dasharray="5,2" d="M99.0486,-121.9542C90.7505,-109.6956 79.9952,-93.807 73.2768,-83.8821"/>
<polygon fill="#ffa500" stroke="#ffa500" points="96.3037,-124.1429 104.8078,-130.462 102.1005,-120.2189 96.3037,-124.1429"/>
<text text-anchor="middle" x="146.1299" y="-104" font-family="Helvetica,sans-Serif" font-size="10.00" fill="#000000"> &lt; indigox::Athenaeum &gt;</text>
</g>
<!-- Node5 -->
<g id="node5" class="node">
<title>Node5</title>
<polygon fill="#ffffff" stroke="#bfbfbf" points="96.4258,-195.5 96.4258,-213.5 125.4258,-213.5 125.4258,-195.5 96.4258,-195.5"/>
<text text-anchor="middle" x="110.48" y="-201.5" font-family="Helvetica,sans-Serif" font-size="10.00" fill="#000000">T</text>
</g>
<!-- Node5&#45;&gt;Node4 -->
<g id="edge4" class="edge">
<title>Node5&#45;&gt;Node4</title>
<path fill="none" stroke="#9a32cd" stroke-dasharray="5,2" d="M110.9258,-185.1265C110.9258,-173.1522 110.9258,-158.3205 110.9258,-148.8821"/>
<polygon fill="#9a32cd" stroke="#9a32cd" points="107.4259,-185.462 110.9258,-195.462 114.4259,-185.4621 107.4259,-185.462"/>
<text text-anchor="middle" x="132.603" y="-169" font-family="Helvetica,sans-Serif" font-size="10.00" fill="#000000"> elements</text>
</g>
<!-- Node6 -->
<g id="node6" class="node">
<title>Node6</title>
<g id="a_node6"><a xlink:href="classindigox_1_1_forcefield.html" target="_top" xlink:title="Forcefield">
<polygon fill="#ffffff" stroke="#000000" points="151.9727,-65.5 151.9727,-83.5 211.8789,-83.5 211.8789,-65.5 151.9727,-65.5"/>
<text text-anchor="middle" x="181.9258" y="-71.5" font-family="Helvetica,sans-Serif" font-size="10.00" fill="#000000">Forcefield</text>
</a>
</g>
</g>
<!-- Node6&#45;&gt;Node1 -->
<g id="edge5" class="edge">
<title>Node6&#45;&gt;Node1</title>
<path fill="none" stroke="#9a32cd" stroke-dasharray="5,2" d="M167.1681,-57.6711C156.338,-45.321 142.0272,-29.0016 133.1532,-18.8821"/>
<polygon fill="#9a32cd" stroke="#9a32cd" points="164.7754,-60.251 174.0002,-65.462 170.0384,-55.6358 164.7754,-60.251"/>
<text text-anchor="middle" x="162.7861" y="-39" font-family="Helvetica,sans-Serif" font-size="10.00" fill="#000000"> _ff</text>
</g>
</g>
</svg>
