<?xml version="1.0" encoding="UTF-8" standalone="no"?>
<!DOCTYPE svg PUBLIC "-//W3C//DTD SVG 1.1//EN"
 "http://www.w3.org/Graphics/SVG/1.1/DTD/svg11.dtd">
<!-- Generated by graphviz version 2.40.1 (20161225.0304)
 -->
<!-- Title: ElectronOptimisationAlgorithm Pages: 1 -->
<svg width="506pt" height="326pt"
 viewBox="0.00 0.00 506.14 326.00" xmlns="http://www.w3.org/2000/svg" xmlns:xlink="http://www.w3.org/1999/xlink">
<g id="graph0" class="graph" transform="scale(1 1) rotate(0) translate(4 322)">
<title>ElectronOptimisationAlgorithm</title>
<polygon fill="#ffffff" stroke="transparent" points="-4,4 -4,-322 502.1372,-322 502.1372,4 -4,4"/>
<!-- Node4 -->
<g id="node1" class="node">
<title>Node4</title>
<polygon fill="#bfbfbf" stroke="#000000" points="158.8496,-.5 158.8496,-18.5 309.3467,-18.5 309.3467,-.5 158.8496,-.5"/>
<text text-anchor="middle" x="234.0981" y="-6.5" font-family="Helvetica,sans-Serif" font-size="10.00" fill="#000000">ElectronOptimisationAlgorithm</text>
</g>
<!-- Node5 -->
<g id="node2" class="node">
<title>Node5</title>
<g id="a_node2"><a xlink:href="classindigox_1_1_electron_opt.html" target="_top" xlink:title="ElectronOpt">
<polygon fill="#ffffff" stroke="#000000" points="199.6968,-65.5 199.6968,-83.5 268.4995,-83.5 268.4995,-65.5 199.6968,-65.5"/>
<text text-anchor="middle" x="234.0981" y="-71.5" font-family="Helvetica,sans-Serif" font-size="10.00" fill="#000000">ElectronOpt</text>
</a>
</g>
</g>
<!-- Node5&#45;&gt;Node4 -->
<g id="edge1" class="edge">
<title>Node5&#45;&gt;Node4</title>
<path fill="none" stroke="#9a32cd" stroke-dasharray="5,2" d="M234.0981,-55.1265C234.0981,-43.1522 234.0981,-28.3205 234.0981,-18.8821"/>
<polygon fill="#9a32cd" stroke="#9a32cd" points="230.5982,-55.462 234.0981,-65.462 237.5982,-55.4621 230.5982,-55.462"/>
<text text-anchor="middle" x="252.4453" y="-39" font-family="Helvetica,sans-Serif" font-size="10.00" fill="#000000"> parent_</text>
</g>
<!-- Node6 -->
<g id="node3" class="node">
<title>Node6</title>
<polygon fill="#ffffff" stroke="#bfbfbf" points="128.8633,-149.5 128.8633,-177.5 251.333,-177.5 251.333,-149.5 128.8633,-149.5"/>
<text text-anchor="start" x="136.8633" y="-165.5" font-family="Helvetica,sans-Serif" font-size="10.00" fill="#000000">unordered_map&lt; uint32</text>
<text text-anchor="middle" x="190.0981" y="-155.5" font-family="Helvetica,sans-Serif" font-size="10.00" fill="#000000">_t, FCSCORE &gt;</text>
</g>
<!-- Node6&#45;&gt;Node5 -->
<g id="edge2" class="edge">
<title>Node6&#45;&gt;Node5</title>
<path fill="none" stroke="#9a32cd" stroke-dasharray="5,2" d="M193.971,-139.2371C196.5618,-127.4477 200.738,-113.4012 207.3052,-102 211.2976,-95.0688 217.4343,-88.5932 222.8277,-83.6689"/>
<polygon fill="#9a32cd" stroke="#9a32cd" points="190.4897,-138.8044 192.0144,-149.2889 197.3607,-140.1419 190.4897,-138.8044"/>
<text text-anchor="middle" x="226.9946" y="-113.5" font-family="Helvetica,sans-Serif" font-size="10.00" fill="#000000"> scores_</text>
</g>
<!-- Node7 -->
<g id="node4" class="node">
<title>Node7</title>
<g id="a_node4"><a xlink:title="STL class. ">
<polygon fill="#ffffff" stroke="#bfbfbf" points="130.1855,-234.5 130.1855,-252.5 252.0107,-252.5 252.0107,-234.5 130.1855,-234.5"/>
<text text-anchor="middle" x="191.0981" y="-240.5" font-family="Helvetica,sans-Serif" font-size="10.00" fill="#000000">unordered_map&lt; K, T &gt;</text>
</a>
</g>
</g>
<!-- Node7&#45;&gt;Node6 -->
<g id="edge3" class="edge">
<title>Node7&#45;&gt;Node6</title>
<path fill="none" stroke="#ffa500" stroke-dasharray="5,2" d="M190.8554,-224.0816C190.6763,-209.7521 190.4366,-190.579 190.2753,-177.6728"/>
<polygon fill="#ffa500" stroke="#ffa500" points="187.3586,-224.3675 190.9834,-234.323 194.3581,-224.28 187.3586,-224.3675"/>
<text text-anchor="middle" x="246.1226" y="-203" font-family="Helvetica,sans-Serif" font-size="10.00" fill="#000000"> &lt; uint32_t, FCSCORE &gt;</text>
</g>
<!-- Node8 -->
<g id="node5" class="node">
<title>Node8</title>
<polygon fill="#ffffff" stroke="#bfbfbf" points="71.5981,-299.5 71.5981,-317.5 100.5981,-317.5 100.5981,-299.5 71.5981,-299.5"/>
<text text-anchor="middle" x="85.9331" y="-305.5" font-family="Helvetica,sans-Serif" font-size="10.00" fill="#000000">K</text>
</g>
<!-- Node8&#45;&gt;Node7 -->
<g id="edge4" class="edge">
<title>Node8&#45;&gt;Node7</title>
<path fill="none" stroke="#9a32cd" stroke-dasharray="5,2" d="M94.4746,-289.9334C98.3045,-283.1815 103.419,-275.9913 109.7583,-271 120.4163,-262.6084 133.7751,-256.7078 146.5678,-252.5877"/>
<polygon fill="#9a32cd" stroke="#9a32cd" points="91.1758,-288.7011 89.7893,-299.2049 97.4234,-291.8583 91.1758,-288.7011"/>
<text text-anchor="middle" x="121.7681" y="-273" font-family="Helvetica,sans-Serif" font-size="10.00" fill="#000000"> keys</text>
</g>
<!-- Node13 -->
<g id="node10" class="node">
<title>Node13</title>
<g id="a_node10"><a xlink:title="STL class. ">
<polygon fill="#ffffff" stroke="#bfbfbf" points="27.7617,-234.5 27.7617,-252.5 98.4346,-252.5 98.4346,-234.5 27.7617,-234.5"/>
<text text-anchor="middle" x="63.0981" y="-240.5" font-family="Helvetica,sans-Serif" font-size="10.00" fill="#000000">map&lt; K, T &gt;</text>
</a>
</g>
</g>
<!-- Node8&#45;&gt;Node13 -->
<g id="edge11" class="edge">
<title>Node8&#45;&gt;Node13</title>
<path fill="none" stroke="#9a32cd" stroke-dasharray="5,2" d="M69.4988,-291.4992C67.1627,-288.2381 65.1026,-284.6837 63.7583,-281 60.4099,-271.8247 60.7588,-260.5271 61.6218,-252.7444"/>
<polygon fill="#9a32cd" stroke="#9a32cd" points="66.9353,-293.8902 76.0249,-299.3335 72.3137,-289.4099 66.9353,-293.8902"/>
<text text-anchor="middle" x="75.7681" y="-273" font-family="Helvetica,sans-Serif" font-size="10.00" fill="#000000"> keys</text>
</g>
<!-- Node9 -->
<g id="node6" class="node">
<title>Node9</title>
<polygon fill="#ffffff" stroke="#bfbfbf" points="206.5981,-299.5 206.5981,-317.5 235.5981,-317.5 235.5981,-299.5 206.5981,-299.5"/>
<text text-anchor="middle" x="220.6523" y="-305.5" font-family="Helvetica,sans-Serif" font-size="10.00" fill="#000000">T</text>
</g>
<!-- Node9&#45;&gt;Node7 -->
<g id="edge5" class="edge">
<title>Node9&#45;&gt;Node7</title>
<path fill="none" stroke="#9a32cd" stroke-dasharray="5,2" d="M212.6654,-290.229C207.0557,-278.0748 199.9193,-262.6124 195.4284,-252.8821"/>
<polygon fill="#9a32cd" stroke="#9a32cd" points="209.5583,-291.8491 216.9268,-299.462 215.914,-288.9157 209.5583,-291.8491"/>
<text text-anchor="middle" x="229.7754" y="-273" font-family="Helvetica,sans-Serif" font-size="10.00" fill="#000000"> elements</text>
</g>
<!-- Node11 -->
<g id="node8" class="node">
<title>Node11</title>
<g id="a_node8"><a xlink:title="STL class. ">
<polygon fill="#ffffff" stroke="#bfbfbf" points="290.9858,-234.5 290.9858,-252.5 357.2104,-252.5 357.2104,-234.5 290.9858,-234.5"/>
<text text-anchor="middle" x="324.0981" y="-240.5" font-family="Helvetica,sans-Serif" font-size="10.00" fill="#000000">vector&lt; T &gt;</text>
</a>
</g>
</g>
<!-- Node9&#45;&gt;Node11 -->
<g id="edge8" class="edge">
<title>Node9&#45;&gt;Node11</title>
<path fill="none" stroke="#9a32cd" stroke-dasharray="5,2" d="M243.9562,-294.075C263.9898,-281.4324 292.5023,-263.4391 309.566,-252.6708"/>
<polygon fill="#9a32cd" stroke="#9a32cd" points="242.0088,-291.1652 235.4199,-299.462 245.7446,-297.085 242.0088,-291.1652"/>
<text text-anchor="middle" x="300.7754" y="-273" font-family="Helvetica,sans-Serif" font-size="10.00" fill="#000000"> elements</text>
</g>
<!-- Node9&#45;&gt;Node13 -->
<g id="edge12" class="edge">
<title>Node9&#45;&gt;Node13</title>
<path fill="none" stroke="#9a32cd" stroke-dasharray="5,2" d="M196.9998,-298.0119C179.3582,-290.3874 154.8105,-279.889 133.0981,-271 117.6312,-264.6679 100.1312,-257.7929 86.498,-252.5009"/>
<polygon fill="#9a32cd" stroke="#9a32cd" points="195.9479,-301.3705 206.5151,-302.135 198.7311,-294.9476 195.9479,-301.3705"/>
<text text-anchor="middle" x="176.7754" y="-273" font-family="Helvetica,sans-Serif" font-size="10.00" fill="#000000"> elements</text>
</g>
<!-- Node10 -->
<g id="node7" class="node">
<title>Node10</title>
<polygon fill="#ffffff" stroke="#bfbfbf" points="269.0195,-154.5 269.0195,-172.5 381.1768,-172.5 381.1768,-154.5 269.0195,-154.5"/>
<text text-anchor="middle" x="325.0981" y="-160.5" font-family="Helvetica,sans-Serif" font-size="10.00" fill="#000000">vector&lt; MolVertPair &gt;</text>
</g>
<!-- Node10&#45;&gt;Node5 -->
<g id="edge6" class="edge">
<title>Node10&#45;&gt;Node5</title>
<path fill="none" stroke="#9a32cd" stroke-dasharray="5,2" d="M293.0787,-149.9024C283.7018,-144.8956 273.922,-138.563 266.2612,-131 252.1245,-117.0437 242.2237,-95.5722 237.4162,-83.5155"/>
<polygon fill="#9a32cd" stroke="#9a32cd" points="291.7167,-153.1342 302.2278,-154.4638 294.84,-146.8696 291.7167,-153.1342"/>
<text text-anchor="middle" x="311.0166" y="-113.5" font-family="Helvetica,sans-Serif" font-size="10.00" fill="#000000"> possibleLocations_</text>
</g>
<!-- Node11&#45;&gt;Node10 -->
<g id="edge7" class="edge">
<title>Node11&#45;&gt;Node10</title>
<path fill="none" stroke="#ffa500" stroke-dasharray="5,2" d="M324.3393,-224.2099C324.544,-207.8291 324.8288,-185.0497 324.9848,-172.57"/>
<polygon fill="#ffa500" stroke="#ffa500" points="320.8382,-224.28 324.2129,-234.323 327.8377,-224.3675 320.8382,-224.28"/>
<text text-anchor="middle" x="359.9502" y="-203" font-family="Helvetica,sans-Serif" font-size="10.00" fill="#000000"> &lt; MolVertPair &gt;</text>
</g>
<!-- Node14 -->
<g id="node11" class="node">
<title>Node14</title>
<polygon fill="#ffffff" stroke="#bfbfbf" points="362.6821,-102.5 362.6821,-130.5 471.5142,-130.5 471.5142,-102.5 362.6821,-102.5"/>
<text text-anchor="start" x="370.6821" y="-118.5" font-family="Helvetica,sans-Serif" font-size="10.00" fill="#000000">vector&lt; std::pair&lt;</text>
<text text-anchor="middle" x="417.0981" y="-108.5" font-family="Helvetica,sans-Serif" font-size="10.00" fill="#000000"> ElnDist, uint32_t &gt; &gt;</text>
</g>
<!-- Node11&#45;&gt;Node14 -->
<g id="edge14" class="edge">
<title>Node11&#45;&gt;Node14</title>
<path fill="none" stroke="#ffa500" stroke-dasharray="5,2" d="M367.1134,-235.2711C378.299,-231.1922 389.3649,-225.0988 397.0981,-216 417.8657,-191.565 419.2131,-151.583 418.2567,-130.5102"/>
<polygon fill="#ffa500" stroke="#ffa500" points="365.814,-232.011 357.3336,-238.3619 367.9235,-238.6856 365.814,-232.011"/>
<text text-anchor="start" x="408.0981" y="-208" font-family="Helvetica,sans-Serif" font-size="10.00" fill="#000000"> &lt; std::pair&lt; ElnDist,</text>
<text text-anchor="middle" x="453.1177" y="-198" font-family="Helvetica,sans-Serif" font-size="10.00" fill="#000000"> uint32_t &gt; &gt;</text>
</g>
<!-- Node12 -->
<g id="node9" class="node">
<title>Node12</title>
<polygon fill="#ffffff" stroke="#bfbfbf" points="0,-107.5 0,-125.5 152.1963,-125.5 152.1963,-107.5 0,-107.5"/>
<text text-anchor="middle" x="76.0981" y="-113.5" font-family="Helvetica,sans-Serif" font-size="10.00" fill="#000000">map&lt; MolVertPair, ElnVertex &gt;</text>
</g>
<!-- Node12&#45;&gt;Node4 -->
<g id="edge9" class="edge">
<title>Node12&#45;&gt;Node4</title>
<path fill="none" stroke="#9a32cd" stroke-dasharray="5,2" d="M96.4981,-101.4059C110.7261,-90.9849 130.2259,-76.9136 147.7437,-65 172.6483,-48.0628 202.3048,-29.3007 219.5857,-18.5045"/>
<polygon fill="#9a32cd" stroke="#9a32cd" points="94.3687,-98.6272 88.3853,-107.3707 98.5153,-104.2669 94.3687,-98.6272"/>
<text text-anchor="middle" x="169.7754" y="-71.5" font-family="Helvetica,sans-Serif" font-size="10.00" fill="#000000"> mvp2ev_</text>
</g>
<!-- Node13&#45;&gt;Node12 -->
<g id="edge10" class="edge">
<title>Node13&#45;&gt;Node12</title>
<path fill="none" stroke="#ffa500" stroke-dasharray="5,2" d="M64.8588,-224.2292C65.6623,-215.5932 66.6415,-205.2832 67.5767,-196 70.1365,-170.5873 73.4188,-140.6355 75.0626,-125.7978"/>
<polygon fill="#ffa500" stroke="#ffa500" points="61.3549,-224.1115 63.9222,-234.3906 68.3253,-224.754 61.3549,-224.1115"/>
<text text-anchor="middle" x="127.8589" y="-203" font-family="Helvetica,sans-Serif" font-size="10.00" fill="#000000"> &lt; MolVertPair, ElnVertex &gt;</text>
</g>
<!-- Node14&#45;&gt;Node4 -->
<g id="edge13" class="edge">
<title>Node14&#45;&gt;Node4</title>
<path fill="none" stroke="#9a32cd" stroke-dasharray="5,2" d="M384.0198,-97.1591C344.3786,-73.9809 279.5914,-36.0999 249.8838,-18.7299"/>
<polygon fill="#9a32cd" stroke="#9a32cd" points="382.3978,-100.2651 392.7972,-102.2912 385.9311,-94.2222 382.3978,-100.2651"/>
<text text-anchor="middle" x="399.8345" y="-71.5" font-family="Helvetica,sans-Serif" font-size="10.00" fill="#000000"> minDistributions_</text>
</g>
</g>
</svg>
