<?xml version="1.0" encoding="UTF-8" standalone="no"?>
<!DOCTYPE svg PUBLIC "-//W3C//DTD SVG 1.1//EN"
 "http://www.w3.org/Graphics/SVG/1.1/DTD/svg11.dtd">
<!-- Generated by graphviz version 2.40.1 (20161225.0304)
 -->
<!-- Title: ElectronOptimisationAlgorithm Pages: 1 -->
<svg width="326pt" height="82pt"
 viewBox="0.00 0.00 326.03 82.00" xmlns="http://www.w3.org/2000/svg" xmlns:xlink="http://www.w3.org/1999/xlink">
<g id="graph0" class="graph" transform="scale(1 1) rotate(0) translate(4 78)">
<title>ElectronOptimisationAlgorithm</title>
<polygon fill="#ffffff" stroke="transparent" points="-4,4 -4,-78 322.0342,-78 322.0342,4 -4,4"/>
<!-- Node0 -->
<g id="node1" class="node">
<title>Node0</title>
<polygon fill="#bfbfbf" stroke="#000000" points="84.0444,-55.5 84.0444,-73.5 234.5415,-73.5 234.5415,-55.5 84.0444,-55.5"/>
<text text-anchor="middle" x="159.293" y="-61.5" font-family="Helvetica,sans-Serif" font-size="10.00" fill="#000000">ElectronOptimisationAlgorithm</text>
</g>
<!-- Node1 -->
<g id="node2" class="node">
<title>Node1</title>
<g id="a_node2"><a xlink:href="classindigox_1_1algorithm_1_1_a_star_optimisation.html" target="_top" xlink:title="AStarOptimisation">
<polygon fill="#ffffff" stroke="#000000" points="0,-.5 0,-18.5 96.5859,-18.5 96.5859,-.5 0,-.5"/>
<text text-anchor="middle" x="48.293" y="-6.5" font-family="Helvetica,sans-Serif" font-size="10.00" fill="#000000">AStarOptimisation</text>
</a>
</g>
</g>
<!-- Node0&#45;&gt;Node1 -->
<g id="edge1" class="edge">
<title>Node0&#45;&gt;Node1</title>
<path fill="none" stroke="#191970" d="M131.8857,-50.9198C111.5626,-40.8498 84.4139,-27.3977 66.6496,-18.5956"/>
<polygon fill="#191970" stroke="#191970" points="130.4493,-54.1141 140.9636,-55.4179 133.5572,-47.8419 130.4493,-54.1141"/>
</g>
<!-- Node2 -->
<g id="node3" class="node">
<title>Node2</title>
<g id="a_node3"><a xlink:href="classindigox_1_1algorithm_1_1_f_p_t_optimisation.html" target="_top" xlink:title="FPTOptimisation">
<polygon fill="#ffffff" stroke="#000000" points="114.1494,-.5 114.1494,-18.5 204.4365,-18.5 204.4365,-.5 114.1494,-.5"/>
<text text-anchor="middle" x="159.293" y="-6.5" font-family="Helvetica,sans-Serif" font-size="10.00" fill="#000000">FPTOptimisation</text>
</a>
</g>
</g>
<!-- Node0&#45;&gt;Node2 -->
<g id="edge2" class="edge">
<title>Node0&#45;&gt;Node2</title>
<path fill="none" stroke="#191970" d="M159.293,-45.383C159.293,-36.3738 159.293,-26.0373 159.293,-18.7795"/>
<polygon fill="#191970" stroke="#191970" points="155.7931,-45.4178 159.293,-55.4179 162.7931,-45.4179 155.7931,-45.4178"/>
</g>
<!-- Node3 -->
<g id="node4" class="node">
<title>Node3</title>
<g id="a_node4"><a xlink:href="classindigox_1_1algorithm_1_1_local_optimisation.html" target="_top" xlink:title="LocalOptimisation">
<polygon fill="#ffffff" stroke="#000000" points="222.5518,-.5 222.5518,-18.5 318.0342,-18.5 318.0342,-.5 222.5518,-.5"/>
<text text-anchor="middle" x="270.293" y="-6.5" font-family="Helvetica,sans-Serif" font-size="10.00" fill="#000000">LocalOptimisation</text>
</a>
</g>
</g>
<!-- Node0&#45;&gt;Node3 -->
<g id="edge3" class="edge">
<title>Node0&#45;&gt;Node3</title>
<path fill="none" stroke="#191970" d="M186.7002,-50.9198C207.0234,-40.8498 234.1721,-27.3977 251.9363,-18.5956"/>
<polygon fill="#191970" stroke="#191970" points="185.0288,-47.8419 177.6224,-55.4179 188.1367,-54.1141 185.0288,-47.8419"/>
</g>
</g>
</svg>
