<?xml version="1.0" encoding="UTF-8" standalone="no"?>
<!DOCTYPE svg PUBLIC "-//W3C//DTD SVG 1.1//EN"
 "http://www.w3.org/Graphics/SVG/1.1/DTD/svg11.dtd">
<!-- Generated by graphviz version 2.40.1 (20161225.0304)
 -->
<!-- Title: IXAssignmentGraph Pages: 1 -->
<svg width="276pt" height="287pt"
 viewBox="0.00 0.00 276.45 287.00" xmlns="http://www.w3.org/2000/svg" xmlns:xlink="http://www.w3.org/1999/xlink">
<g id="graph0" class="graph" transform="scale(1 1) rotate(0) translate(4 283)">
<title>IXAssignmentGraph</title>
<polygon fill="#ffffff" stroke="transparent" points="-4,4 -4,-283 272.4497,-283 272.4497,4 -4,4"/>
<!-- Node1 -->
<g id="node1" class="node">
<title>Node1</title>
<polygon fill="#bfbfbf" stroke="#000000" points="3.6182,-.5 3.6182,-18.5 109.1055,-18.5 109.1055,-.5 3.6182,-.5"/>
<text text-anchor="middle" x="56.3618" y="-6.5" font-family="Helvetica,sans-Serif" font-size="10.00" fill="#000000">IXAssignmentGraph</text>
</g>
<!-- Node2 -->
<g id="node2" class="node">
<title>Node2</title>
<polygon fill="#ffffff" stroke="#bfbfbf" points="71.9805,-65.5 71.9805,-83.5 224.7432,-83.5 224.7432,-65.5 71.9805,-65.5"/>
<text text-anchor="middle" x="148.3618" y="-71.5" font-family="Helvetica,sans-Serif" font-size="10.00" fill="#000000">map&lt; AGVertex, VertContain &gt;</text>
</g>
<!-- Node2&#45;&gt;Node1 -->
<g id="edge1" class="edge">
<title>Node2&#45;&gt;Node1</title>
<path fill="none" stroke="#9a32cd" stroke-dasharray="5,2" d="M126.9704,-59.3865C109.1364,-46.7864 84.3087,-29.2451 69.342,-18.6708"/>
<polygon fill="#9a32cd" stroke="#9a32cd" points="125.3828,-62.5502 135.5696,-65.462 129.422,-56.8331 125.3828,-62.5502"/>
<text text-anchor="middle" x="115.3125" y="-39" font-family="Helvetica,sans-Serif" font-size="10.00" fill="#000000"> _n</text>
</g>
<!-- Node3 -->
<g id="node3" class="node">
<title>Node3</title>
<polygon fill="#ffffff" stroke="#bfbfbf" points="0,-130.5 0,-148.5 102.7236,-148.5 102.7236,-130.5 0,-130.5"/>
<text text-anchor="middle" x="51.3618" y="-136.5" font-family="Helvetica,sans-Serif" font-size="10.00" fill="#000000">vector&lt; AGVertex &gt;</text>
</g>
<!-- Node3&#45;&gt;Node1 -->
<g id="edge8" class="edge">
<title>Node3&#45;&gt;Node1</title>
<path fill="none" stroke="#9a32cd" stroke-dasharray="5,2" d="M50.2237,-120.1992C49.5275,-105.1499 48.9556,-83.7311 50.022,-65 50.9591,-48.5399 53.4473,-29.4665 55.0134,-18.5092"/>
<polygon fill="#9a32cd" stroke="#9a32cd" points="46.7353,-120.5135 50.7552,-130.316 53.7256,-120.1461 46.7353,-120.5135"/>
<text text-anchor="middle" x="57.0317" y="-71.5" font-family="Helvetica,sans-Serif" font-size="10.00" fill="#000000"> _v</text>
</g>
<!-- Node3&#45;&gt;Node2 -->
<g id="edge2" class="edge">
<title>Node3&#45;&gt;Node2</title>
<path fill="none" stroke="#9a32cd" stroke-dasharray="5,2" d="M66.8291,-122.7123C73.7858,-115.7556 82.3662,-107.9415 91.0073,-102 101.6536,-94.6798 114.5486,-88.3066 125.413,-83.5438"/>
<polygon fill="#9a32cd" stroke="#9a32cd" points="63.9173,-120.6902 59.5021,-130.3213 68.9596,-125.5457 63.9173,-120.6902"/>
<text text-anchor="middle" x="113.0391" y="-104" font-family="Helvetica,sans-Serif" font-size="10.00" fill="#000000"> elements</text>
</g>
<!-- Node4 -->
<g id="node4" class="node">
<title>Node4</title>
<g id="a_node4"><a xlink:title="STL class. ">
<polygon fill="#ffffff" stroke="#bfbfbf" points="18.2495,-195.5 18.2495,-213.5 84.4741,-213.5 84.4741,-195.5 18.2495,-195.5"/>
<text text-anchor="middle" x="51.3618" y="-201.5" font-family="Helvetica,sans-Serif" font-size="10.00" fill="#000000">vector&lt; T &gt;</text>
</a>
</g>
</g>
<!-- Node4&#45;&gt;Node3 -->
<g id="edge3" class="edge">
<title>Node4&#45;&gt;Node3</title>
<path fill="none" stroke="#ffa500" stroke-dasharray="5,2" d="M51.3618,-185.1265C51.3618,-173.1522 51.3618,-158.3205 51.3618,-148.8821"/>
<polygon fill="#ffa500" stroke="#ffa500" points="47.8619,-185.462 51.3618,-195.462 54.8619,-185.4621 47.8619,-185.462"/>
<text text-anchor="middle" x="82.4971" y="-169" font-family="Helvetica,sans-Serif" font-size="10.00" fill="#000000"> &lt; AGVertex &gt;</text>
</g>
<!-- Node5 -->
<g id="node5" class="node">
<title>Node5</title>
<polygon fill="#ffffff" stroke="#bfbfbf" points="69.8618,-260.5 69.8618,-278.5 98.8618,-278.5 98.8618,-260.5 69.8618,-260.5"/>
<text text-anchor="middle" x="83.916" y="-266.5" font-family="Helvetica,sans-Serif" font-size="10.00" fill="#000000">T</text>
</g>
<!-- Node5&#45;&gt;Node4 -->
<g id="edge4" class="edge">
<title>Node5&#45;&gt;Node4</title>
<path fill="none" stroke="#9a32cd" stroke-dasharray="5,2" d="M61.4458,-254.4414C57.6385,-250.8423 54.2156,-246.6691 52.0073,-242 47.7758,-233.0529 48.3417,-221.5102 49.4998,-213.6085"/>
<polygon fill="#9a32cd" stroke="#9a32cd" points="59.5622,-257.4199 69.5349,-260.9973 63.9698,-251.9817 59.5622,-257.4199"/>
<text text-anchor="middle" x="74.0391" y="-234" font-family="Helvetica,sans-Serif" font-size="10.00" fill="#000000"> elements</text>
</g>
<!-- Node6 -->
<g id="node6" class="node">
<title>Node6</title>
<g id="a_node6"><a xlink:title="STL class. ">
<polygon fill="#ffffff" stroke="#bfbfbf" points="113.0254,-195.5 113.0254,-213.5 183.6982,-213.5 183.6982,-195.5 113.0254,-195.5"/>
<text text-anchor="middle" x="148.3618" y="-201.5" font-family="Helvetica,sans-Serif" font-size="10.00" fill="#000000">map&lt; K, T &gt;</text>
</a>
</g>
</g>
<!-- Node5&#45;&gt;Node6 -->
<g id="edge7" class="edge">
<title>Node5&#45;&gt;Node6</title>
<path fill="none" stroke="#9a32cd" stroke-dasharray="5,2" d="M98.2849,-252.5401C103.9098,-245.9495 110.5819,-238.4493 117.0073,-232 123.4464,-225.5371 131.1426,-218.7743 137.2986,-213.5724"/>
<polygon fill="#9a32cd" stroke="#9a32cd" points="95.5602,-250.3423 91.8175,-260.2541 100.9244,-254.8396 95.5602,-250.3423"/>
<text text-anchor="middle" x="139.0391" y="-234" font-family="Helvetica,sans-Serif" font-size="10.00" fill="#000000"> elements</text>
</g>
<!-- Node6&#45;&gt;Node2 -->
<g id="edge5" class="edge">
<title>Node6&#45;&gt;Node2</title>
<path fill="none" stroke="#ffa500" stroke-dasharray="5,2" d="M148.3618,-184.839C148.3618,-156.3649 148.3618,-104.764 148.3618,-83.7646"/>
<polygon fill="#ffa500" stroke="#ffa500" points="144.8619,-185.1507 148.3618,-195.1507 151.8619,-185.1508 144.8619,-185.1507"/>
<text text-anchor="middle" x="208.4058" y="-136.5" font-family="Helvetica,sans-Serif" font-size="10.00" fill="#000000"> &lt; AGVertex, VertContain &gt;</text>
</g>
<!-- Node7 -->
<g id="node7" class="node">
<title>Node7</title>
<polygon fill="#ffffff" stroke="#bfbfbf" points="168.8618,-260.5 168.8618,-278.5 197.8618,-278.5 197.8618,-260.5 168.8618,-260.5"/>
<text text-anchor="middle" x="183.1968" y="-266.5" font-family="Helvetica,sans-Serif" font-size="10.00" fill="#000000">K</text>
</g>
<!-- Node7&#45;&gt;Node6 -->
<g id="edge6" class="edge">
<title>Node7&#45;&gt;Node6</title>
<path fill="none" stroke="#9a32cd" stroke-dasharray="5,2" d="M173.7194,-251.5926C167.1458,-239.3846 158.7055,-223.7097 153.4137,-213.8821"/>
<polygon fill="#9a32cd" stroke="#9a32cd" points="170.6725,-253.3167 178.4952,-260.462 176.8358,-249.9979 170.6725,-253.3167"/>
<text text-anchor="middle" x="180.0317" y="-234" font-family="Helvetica,sans-Serif" font-size="10.00" fill="#000000"> keys</text>
</g>
</g>
</svg>
