<?xml version="1.0" encoding="UTF-8" standalone="no"?>
<!DOCTYPE svg PUBLIC "-//W3C//DTD SVG 1.1//EN"
 "http://www.w3.org/Graphics/SVG/1.1/DTD/svg11.dtd">
<!-- Generated by graphviz version 2.40.1 (20161225.0304)
 -->
<!-- Title: ConnectedSubgraphs&lt; GraphType &gt; Pages: 1 -->
<svg width="342pt" height="421pt"
 viewBox="0.00 0.00 341.91 421.00" xmlns="http://www.w3.org/2000/svg" xmlns:xlink="http://www.w3.org/1999/xlink">
<g id="graph0" class="graph" transform="scale(1 1) rotate(0) translate(4 417)">
<title>ConnectedSubgraphs&lt; GraphType &gt;</title>
<polygon fill="#ffffff" stroke="transparent" points="-4,4 -4,-417 337.9106,-417 337.9106,4 -4,4"/>
<!-- Node1 -->
<g id="node1" class="node">
<title>Node1</title>
<polygon fill="#bfbfbf" stroke="#000000" points="144.2466,-.5 144.2466,-28.5 256.9849,-28.5 256.9849,-.5 144.2466,-.5"/>
<text text-anchor="start" x="152.2466" y="-16.5" font-family="Helvetica,sans-Serif" font-size="10.00" fill="#000000">ConnectedSubgraphs</text>
<text text-anchor="middle" x="200.6157" y="-6.5" font-family="Helvetica,sans-Serif" font-size="10.00" fill="#000000">&lt; GraphType &gt;</text>
</g>
<!-- Node2 -->
<g id="node2" class="node">
<title>Node2</title>
<polygon fill="#ffffff" stroke="#bfbfbf" points="118.126,-75.5 118.126,-113.5 283.1055,-113.5 283.1055,-75.5 118.126,-75.5"/>
<text text-anchor="start" x="126.126" y="-101.5" font-family="Helvetica,sans-Serif" font-size="10.00" fill="#000000">unique_ptr&lt; indigox</text>
<text text-anchor="start" x="126.126" y="-91.5" font-family="Helvetica,sans-Serif" font-size="10.00" fill="#000000">::algorithm::ConnectedSubgraphs</text>
<text text-anchor="middle" x="200.6157" y="-81.5" font-family="Helvetica,sans-Serif" font-size="10.00" fill="#000000">::Impl &gt;</text>
</g>
<!-- Node2&#45;&gt;Node1 -->
<g id="edge1" class="edge">
<title>Node2&#45;&gt;Node1</title>
<path fill="none" stroke="#9a32cd" stroke-dasharray="5,2" d="M200.6157,-64.7707C200.6157,-52.4196 200.6157,-38.6672 200.6157,-28.6728"/>
<polygon fill="#9a32cd" stroke="#9a32cd" points="197.1158,-65.1342 200.6157,-75.1342 204.1158,-65.1343 197.1158,-65.1342"/>
<text text-anchor="middle" x="235.9111" y="-49" font-family="Helvetica,sans-Serif" font-size="10.00" fill="#000000"> implementation</text>
</g>
<!-- Node3 -->
<g id="node3" class="node">
<title>Node3</title>
<g id="a_node3"><a xlink:href="structindigox_1_1algorithm_1_1_connected_subgraphs_1_1_impl.html" target="_top" xlink:title="Impl">
<polygon fill="#ffffff" stroke="#000000" points="154.1699,-160.5 154.1699,-178.5 189.0615,-178.5 189.0615,-160.5 154.1699,-160.5"/>
<text text-anchor="middle" x="171.6157" y="-166.5" font-family="Helvetica,sans-Serif" font-size="10.00" fill="#000000">Impl</text>
</a>
</g>
</g>
<!-- Node3&#45;&gt;Node2 -->
<g id="edge2" class="edge">
<title>Node3&#45;&gt;Node2</title>
<path fill="none" stroke="#9a32cd" stroke-dasharray="5,2" d="M178.7991,-150.9223C183.1962,-139.5504 188.8098,-125.0324 193.2415,-113.5712"/>
<polygon fill="#9a32cd" stroke="#9a32cd" points="175.5137,-149.7142 175.1717,-160.3035 182.0427,-152.2388 175.5137,-149.7142"/>
<text text-anchor="middle" x="193.8398" y="-134" font-family="Helvetica,sans-Serif" font-size="10.00" fill="#000000"> ptr</text>
</g>
<!-- Node4 -->
<g id="node4" class="node">
<title>Node4</title>
<polygon fill="#ffffff" stroke="#bfbfbf" points="80.5962,-245.5 80.5962,-263.5 186.6353,-263.5 186.6353,-245.5 80.5962,-245.5"/>
<text text-anchor="middle" x="133.6157" y="-251.5" font-family="Helvetica,sans-Serif" font-size="10.00" fill="#000000">vector&lt; stdx::triple &gt;</text>
</g>
<!-- Node4&#45;&gt;Node3 -->
<g id="edge3" class="edge">
<title>Node4&#45;&gt;Node3</title>
<path fill="none" stroke="#9a32cd" stroke-dasharray="5,2" d="M141.8557,-236.0685C149.7979,-218.303 161.4821,-192.1673 167.5783,-178.5311"/>
<polygon fill="#9a32cd" stroke="#9a32cd" points="138.5685,-234.8458 137.6824,-245.4035 144.959,-237.7027 138.5685,-234.8458"/>
<text text-anchor="middle" x="171.6748" y="-209" font-family="Helvetica,sans-Serif" font-size="10.00" fill="#000000"> stack</text>
</g>
<!-- Node5 -->
<g id="node5" class="node">
<title>Node5</title>
<g id="a_node5"><a xlink:href="structstdx_1_1triple.html" target="_top" xlink:title="triple\&lt; _T1, _T2, _T3 \&gt;">
<polygon fill="#ffffff" stroke="#000000" points="8.7563,-319.5 8.7563,-337.5 126.4751,-337.5 126.4751,-319.5 8.7563,-319.5"/>
<text text-anchor="middle" x="67.6157" y="-325.5" font-family="Helvetica,sans-Serif" font-size="10.00" fill="#000000">triple&lt; _T1, _T2, _T3 &gt;</text>
</a>
</g>
</g>
<!-- Node5&#45;&gt;Node4 -->
<g id="edge4" class="edge">
<title>Node5&#45;&gt;Node4</title>
<path fill="none" stroke="#9a32cd" stroke-dasharray="5,2" d="M68.7765,-309.224C70.1792,-300.1553 73.1322,-289.6745 79.2612,-282 85.7948,-273.819 95.4038,-267.8528 104.7326,-263.6119"/>
<polygon fill="#9a32cd" stroke="#9a32cd" points="65.2817,-308.9927 67.7251,-319.302 72.2439,-309.7191 65.2817,-308.9927"/>
<text text-anchor="middle" x="101.293" y="-288.5" font-family="Helvetica,sans-Serif" font-size="10.00" fill="#000000"> elements</text>
</g>
<!-- Node6 -->
<g id="node6" class="node">
<title>Node6</title>
<polygon fill="#ffffff" stroke="#bfbfbf" points="0,-394.5 0,-412.5 33.2314,-412.5 33.2314,-394.5 0,-394.5"/>
<text text-anchor="middle" x="16.6157" y="-400.5" font-family="Helvetica,sans-Serif" font-size="10.00" fill="#000000">_T1</text>
</g>
<!-- Node6&#45;&gt;Node5 -->
<g id="edge5" class="edge">
<title>Node6&#45;&gt;Node5</title>
<path fill="none" stroke="#9a32cd" stroke-dasharray="5,2" d="M26.321,-385.5818C31.4619,-376.5019 38.0773,-365.4314 44.729,-356 49.2397,-349.6042 54.8545,-342.8425 59.3938,-337.6243"/>
<polygon fill="#9a32cd" stroke="#9a32cd" points="23.175,-384.038 21.3892,-394.4813 29.2977,-387.4311 23.175,-384.038"/>
<text text-anchor="middle" x="55.0591" y="-368" font-family="Helvetica,sans-Serif" font-size="10.00" fill="#000000"> first</text>
<text text-anchor="middle" x="55.0591" y="-358" font-family="Helvetica,sans-Serif" font-size="10.00" fill="#000000">A</text>
</g>
<!-- Node7 -->
<g id="node7" class="node">
<title>Node7</title>
<polygon fill="#ffffff" stroke="#bfbfbf" points="51,-394.5 51,-412.5 84.2314,-412.5 84.2314,-394.5 51,-394.5"/>
<text text-anchor="middle" x="67.6157" y="-400.5" font-family="Helvetica,sans-Serif" font-size="10.00" fill="#000000">_T2</text>
</g>
<!-- Node7&#45;&gt;Node5 -->
<g id="edge6" class="edge">
<title>Node7&#45;&gt;Node5</title>
<path fill="none" stroke="#9a32cd" stroke-dasharray="5,2" d="M67.6157,-384.1079C67.6157,-369.2042 67.6157,-349.2791 67.6157,-337.7717"/>
<polygon fill="#9a32cd" stroke="#9a32cd" points="64.1158,-384.3035 67.6157,-394.3035 71.1158,-384.3036 64.1158,-384.3035"/>
<text text-anchor="middle" x="85.1279" y="-368" font-family="Helvetica,sans-Serif" font-size="10.00" fill="#000000"> second</text>
<text text-anchor="middle" x="85.1279" y="-358" font-family="Helvetica,sans-Serif" font-size="10.00" fill="#000000">B</text>
</g>
<!-- Node8 -->
<g id="node8" class="node">
<title>Node8</title>
<polygon fill="#ffffff" stroke="#bfbfbf" points="109,-394.5 109,-412.5 142.2314,-412.5 142.2314,-394.5 109,-394.5"/>
<text text-anchor="middle" x="125.6157" y="-400.5" font-family="Helvetica,sans-Serif" font-size="10.00" fill="#000000">_T3</text>
</g>
<!-- Node8&#45;&gt;Node5 -->
<g id="edge7" class="edge">
<title>Node8&#45;&gt;Node5</title>
<path fill="none" stroke="#9a32cd" stroke-dasharray="5,2" d="M119.4195,-384.8696C115.754,-375.5868 110.4747,-364.5498 103.6157,-356 97.8083,-348.761 89.7059,-342.3527 82.6581,-337.5473"/>
<polygon fill="#9a32cd" stroke="#9a32cd" points="116.169,-386.1727 122.8706,-394.3787 122.7491,-383.7846 116.169,-386.1727"/>
<text text-anchor="middle" x="126.7314" y="-368" font-family="Helvetica,sans-Serif" font-size="10.00" fill="#000000"> third</text>
<text text-anchor="middle" x="126.7314" y="-358" font-family="Helvetica,sans-Serif" font-size="10.00" fill="#000000">C</text>
</g>
<!-- Node9 -->
<g id="node9" class="node">
<title>Node9</title>
<g id="a_node9"><a xlink:title="STL class. ">
<polygon fill="#ffffff" stroke="#bfbfbf" points="144.5034,-319.5 144.5034,-337.5 210.728,-337.5 210.728,-319.5 144.5034,-319.5"/>
<text text-anchor="middle" x="177.6157" y="-325.5" font-family="Helvetica,sans-Serif" font-size="10.00" fill="#000000">vector&lt; T &gt;</text>
</a>
</g>
</g>
<!-- Node9&#45;&gt;Node4 -->
<g id="edge8" class="edge">
<title>Node9&#45;&gt;Node4</title>
<path fill="none" stroke="#ffa500" stroke-dasharray="5,2" d="M142.4795,-314.1255C137.5011,-310.5737 133.0545,-306.2414 130.0298,-301 123.3927,-289.4988 126.7311,-273.6499 129.9877,-263.7439"/>
<polygon fill="#ffa500" stroke="#ffa500" points="140.8323,-317.2194 151.2027,-319.3889 144.4488,-311.2259 140.8323,-317.2194"/>
<text text-anchor="middle" x="163.4087" y="-288.5" font-family="Helvetica,sans-Serif" font-size="10.00" fill="#000000"> &lt; stdx::triple &gt;</text>
</g>
<!-- Node10 -->
<g id="node10" class="node">
<title>Node10</title>
<polygon fill="#ffffff" stroke="#bfbfbf" points="198.1157,-394.5 198.1157,-412.5 227.1157,-412.5 227.1157,-394.5 198.1157,-394.5"/>
<text text-anchor="middle" x="212.1699" y="-400.5" font-family="Helvetica,sans-Serif" font-size="10.00" fill="#000000">T</text>
</g>
<!-- Node10&#45;&gt;Node9 -->
<g id="edge9" class="edge">
<title>Node10&#45;&gt;Node9</title>
<path fill="none" stroke="#9a32cd" stroke-dasharray="5,2" d="M190.4239,-388.05C186.7915,-384.5112 183.4917,-380.4603 181.2612,-376 175.1946,-363.8682 175.4047,-347.7863 176.3393,-337.7942"/>
<polygon fill="#9a32cd" stroke="#9a32cd" points="188.2183,-390.7687 198.1107,-394.5621 192.7431,-385.4276 188.2183,-390.7687"/>
<text text-anchor="middle" x="203.293" y="-363" font-family="Helvetica,sans-Serif" font-size="10.00" fill="#000000"> elements</text>
</g>
<!-- Node11 -->
<g id="node11" class="node">
<title>Node11</title>
<g id="a_node11"><a xlink:title="STL class. ">
<polygon fill="#ffffff" stroke="#bfbfbf" points="204.4888,-282.5 204.4888,-300.5 290.7427,-300.5 290.7427,-282.5 204.4888,-282.5"/>
<text text-anchor="middle" x="247.6157" y="-288.5" font-family="Helvetica,sans-Serif" font-size="10.00" fill="#000000">unique_ptr&lt; T &gt;</text>
</a>
</g>
</g>
<!-- Node10&#45;&gt;Node11 -->
<g id="edge11" class="edge">
<title>Node10&#45;&gt;Node11</title>
<path fill="none" stroke="#9a32cd" stroke-dasharray="5,2" d="M220.9968,-385.3059C222.2859,-382.23 223.5429,-379.0462 224.6157,-376 234.1102,-349.0397 242.0637,-316.1059 245.6191,-300.5121"/>
<polygon fill="#9a32cd" stroke="#9a32cd" points="217.7895,-383.9049 216.9546,-394.4668 224.1938,-386.7308 217.7895,-383.9049"/>
<text text-anchor="middle" x="237.8398" y="-363" font-family="Helvetica,sans-Serif" font-size="10.00" fill="#000000"> ptr</text>
</g>
<!-- Node11&#45;&gt;Node2 -->
<g id="edge10" class="edge">
<title>Node11&#45;&gt;Node2</title>
<path fill="none" stroke="#ffa500" stroke-dasharray="5,2" d="M242.9866,-272.0971C233.9802,-234.3467 214.1974,-151.4275 205.2149,-113.7774"/>
<polygon fill="#ffa500" stroke="#ffa500" points="239.6867,-273.3478 245.4119,-282.2625 246.4956,-271.7233 239.6867,-273.3478"/>
<text text-anchor="start" x="231.6157" y="-219" font-family="Helvetica,sans-Serif" font-size="10.00" fill="#000000"> &lt; indigox::algorithm</text>
<text text-anchor="start" x="231.6157" y="-209" font-family="Helvetica,sans-Serif" font-size="10.00" fill="#000000">::ConnectedSubgraphs</text>
<text text-anchor="middle" x="282.7632" y="-199" font-family="Helvetica,sans-Serif" font-size="10.00" fill="#000000">::Impl &gt;</text>
</g>
</g>
</svg>
