<?xml version="1.0" encoding="UTF-8" standalone="no"?>
<!DOCTYPE svg PUBLIC "-//W3C//DTD SVG 1.1//EN"
 "http://www.w3.org/Graphics/SVG/1.1/DTD/svg11.dtd">
<!-- Generated by graphviz version 2.40.1 (20161225.0304)
 -->
<!-- Title: LocalOptimisation Pages: 1 -->
<!--zoomable 192 -->
<svg id="main" version="1.1" xmlns="http://www.w3.org/2000/svg" xmlns:xlink="http://www.w3.org/1999/xlink" xml:space="preserve" onload="init(evt)">
<style type="text/css"><![CDATA[
.edge:hover path { stroke: red; }
.edge:hover polygon { stroke: red; fill: red; }
]]></style>
<script type="text/javascript"><![CDATA[
var edges = document.getElementsByTagName('g');
if (edges && edges.length) {
  for (var i=0;i<edges.length;i++) {
    if (edges[i].id.substr(0,4)=='edge') {
      edges[i].setAttribute('class','edge');
    }
  }
}
]]></script>
        <defs>
                <circle id="rim" cx="0" cy="0" r="7"/>
                <circle id="rim2" cx="0" cy="0" r="3.5"/>
                <g id="zoomPlus">
                        <use xlink:href="#rim" fill="#404040">
                                <set attributeName="fill" to="#808080" begin="zoomplus.mouseover" end="zoomplus.mouseout"/>
                        </use>
                        <path d="M-4,0h8M0,-4v8" fill="none" stroke="white" stroke-width="1.5" pointer-events="none"/>
                </g>
                <g id="zoomMin">
                        <use xlink:href="#rim" fill="#404040">
                                <set attributeName="fill" to="#808080" begin="zoomminus.mouseover" end="zoomminus.mouseout"/>
                        </use>
                        <path d="M-4,0h8" fill="none" stroke="white" stroke-width="1.5" pointer-events="none"/>
                </g>
                <g id="dirArrow">
                        <path fill="none" stroke="white" stroke-width="1.5" d="M0,-3.0v7 M-2.5,-0.5L0,-3.0L2.5,-0.5"/>
                </g>
               <g id="resetDef">
                       <use xlink:href="#rim2" fill="#404040">
                               <set attributeName="fill" to="#808080" begin="reset.mouseover" end="reset.mouseout"/>
                       </use>
               </g>
        </defs>

<script type="text/javascript">
var viewWidth = 1244;
var viewHeight = 192;
var sectionId = 'dynsection-1';
</script>
<script xlink:href="svgpan.js"/>
<svg id="graph" class="graph">
<g id="viewport">
<title>LocalOptimisation</title>
<polygon fill="#ffffff" stroke="transparent" points="-4,4 -4,-188 1239.8828,-188 1239.8828,4 -4,4"/>
<!-- Node2 -->
<g id="node1" class="node">
<title>Node2</title>
<polygon fill="#bfbfbf" stroke="#000000" points="1140.4004,-131.5 1140.4004,-149.5 1235.8828,-149.5 1235.8828,-131.5 1140.4004,-131.5"/>
<text text-anchor="middle" x="1188.1416" y="-137.5" font-family="Helvetica,sans-Serif" font-size="10.00" fill="#000000">LocalOptimisation</text>
</g>
<!-- Node3 -->
<g id="node2" class="node">
<title>Node3</title>
<g id="a_node2"><a xlink:href="classindigox_1_1algorithm_1_1_electron_optimisation_algorithm.html" target="_top" xlink:title="ElectronOptimisationAlgorithm">
<polygon fill="#ffffff" stroke="#000000" points="952.9033,-97.5 952.9033,-115.5 1103.4004,-115.5 1103.4004,-97.5 952.9033,-97.5"/>
<text text-anchor="middle" x="1028.1519" y="-103.5" font-family="Helvetica,sans-Serif" font-size="10.00" fill="#000000">ElectronOptimisationAlgorithm</text>
</a>
</g>
</g>
<!-- Node3&#45;&gt;Node2 -->
<g id="edge1" class="edge">
<title>Node3&#45;&gt;Node2</title>
<path fill="none" stroke="#191970" d="M1080.415,-117.6066C1101.5877,-122.1061 1125.7183,-127.2342 1145.7668,-131.4948"/>
<polygon fill="#191970" stroke="#191970" points="1081.1153,-114.1774 1070.6061,-115.5221 1079.6601,-121.0245 1081.1153,-114.1774"/>
</g>
<!-- Node4 -->
<g id="node3" class="node">
<title>Node4</title>
<g id="a_node3"><a xlink:href="classindigox_1_1_electron_opt.html" target="_top" xlink:title="ElectronOpt">
<polygon fill="#ffffff" stroke="#000000" points="701.7021,-39.5 701.7021,-57.5 770.5049,-57.5 770.5049,-39.5 701.7021,-39.5"/>
<text text-anchor="middle" x="736.1035" y="-45.5" font-family="Helvetica,sans-Serif" font-size="10.00" fill="#000000">ElectronOpt</text>
</a>
</g>
</g>
<!-- Node4&#45;&gt;Node3 -->
<g id="edge2" class="edge">
<title>Node4&#45;&gt;Node3</title>
<path fill="none" stroke="#9a32cd" stroke-dasharray="5,2" d="M780.8228,-50.1535C821.4939,-52.4312 882.9224,-57.8165 934.9033,-70.5 961.3719,-76.9584 990.4471,-89.0353 1008.9767,-97.4101"/>
<polygon fill="#9a32cd" stroke="#9a32cd" points="780.8619,-46.6509 770.6935,-49.6266 780.4982,-53.6414 780.8619,-46.6509"/>
<text text-anchor="middle" x="864.3716" y="-72.5" font-family="Helvetica,sans-Serif" font-size="10.00" fill="#000000"> parent_</text>
</g>
<!-- Node5 -->
<g id="node4" class="node">
<title>Node5</title>
<polygon fill="#ffffff" stroke="#bfbfbf" points="385.7012,-.5 385.7012,-28.5 508.1709,-28.5 508.1709,-.5 385.7012,-.5"/>
<text text-anchor="start" x="393.7012" y="-16.5" font-family="Helvetica,sans-Serif" font-size="10.00" fill="#000000">unordered_map&lt; uint32</text>
<text text-anchor="middle" x="446.936" y="-6.5" font-family="Helvetica,sans-Serif" font-size="10.00" fill="#000000">_t, FCSCORE &gt;</text>
</g>
<!-- Node5&#45;&gt;Node4 -->
<g id="edge3" class="edge">
<title>Node5&#45;&gt;Node4</title>
<path fill="none" stroke="#9a32cd" stroke-dasharray="5,2" d="M518.6929,-19.2731C564.5243,-22.8266 625.1261,-28.4616 678.3672,-36.5 685.8583,-37.631 693.8429,-39.1109 701.4098,-40.6433"/>
<polygon fill="#9a32cd" stroke="#9a32cd" points="518.7938,-15.7707 508.5572,-18.5024 518.263,-22.7506 518.7938,-15.7707"/>
<text text-anchor="middle" x="602.269" y="-38.5" font-family="Helvetica,sans-Serif" font-size="10.00" fill="#000000"> scores_</text>
</g>
<!-- Node6 -->
<g id="node5" class="node">
<title>Node6</title>
<g id="a_node5"><a xlink:title="STL class. ">
<polygon fill="#ffffff" stroke="#bfbfbf" points="108.3545,-9.5 108.3545,-27.5 230.1797,-27.5 230.1797,-9.5 108.3545,-9.5"/>
<text text-anchor="middle" x="169.2671" y="-15.5" font-family="Helvetica,sans-Serif" font-size="10.00" fill="#000000">unordered_map&lt; K, T &gt;</text>
</a>
</g>
</g>
<!-- Node6&#45;&gt;Node5 -->
<g id="edge4" class="edge">
<title>Node6&#45;&gt;Node5</title>
<path fill="none" stroke="#ffa500" stroke-dasharray="5,2" d="M240.458,-17.4744C285.3716,-16.8274 342.7847,-16.0004 385.6634,-15.3827"/>
<polygon fill="#ffa500" stroke="#ffa500" points="240.1512,-13.9784 230.2027,-17.6222 240.2521,-20.9777 240.1512,-13.9784"/>
<text text-anchor="middle" x="307.9404" y="-19.5" font-family="Helvetica,sans-Serif" font-size="10.00" fill="#000000"> &lt; uint32_t, FCSCORE &gt;</text>
</g>
<!-- Node7 -->
<g id="node6" class="node">
<title>Node7</title>
<polygon fill="#ffffff" stroke="#bfbfbf" points="0,-124.5 0,-142.5 29,-142.5 29,-124.5 0,-124.5"/>
<text text-anchor="middle" x="14.5" y="-130.5" font-family="Helvetica,sans-Serif" font-size="10.00" fill="#000000">K</text>
</g>
<!-- Node7&#45;&gt;Node6 -->
<g id="edge5" class="edge">
<title>Node7&#45;&gt;Node6</title>
<path fill="none" stroke="#9a32cd" stroke-dasharray="5,2" d="M38.7888,-123.8009C58.1522,-115.6341 83.1724,-103.9639 90.3545,-95.5 107.8176,-74.9201 89.283,-56.599 108.3545,-37.5 112.503,-33.3455 117.5446,-30.0968 122.9317,-27.557"/>
<polygon fill="#9a32cd" stroke="#9a32cd" points="37.2109,-120.6657 29.3031,-127.7168 39.882,-127.1361 37.2109,-120.6657"/>
<text text-anchor="middle" x="68.6772" y="-121.5" font-family="Helvetica,sans-Serif" font-size="10.00" fill="#000000"> keys</text>
</g>
<!-- Node12 -->
<g id="node11" class="node">
<title>Node12</title>
<g id="a_node11"><a xlink:title="STL class. ">
<polygon fill="#ffffff" stroke="#bfbfbf" points="133.9307,-135.5 133.9307,-153.5 204.6035,-153.5 204.6035,-135.5 133.9307,-135.5"/>
<text text-anchor="middle" x="169.2671" y="-141.5" font-family="Helvetica,sans-Serif" font-size="10.00" fill="#000000">map&lt; K, T &gt;</text>
</a>
</g>
</g>
<!-- Node7&#45;&gt;Node12 -->
<g id="edge12" class="edge">
<title>Node7&#45;&gt;Node12</title>
<path fill="none" stroke="#9a32cd" stroke-dasharray="5,2" d="M39.3719,-135.2678C64.9267,-137.0841 104.945,-139.9283 133.812,-141.98"/>
<polygon fill="#9a32cd" stroke="#9a32cd" points="39.2831,-131.7527 29.0601,-134.5349 38.7868,-138.7351 39.2831,-131.7527"/>
<text text-anchor="middle" x="68.6772" y="-140.5" font-family="Helvetica,sans-Serif" font-size="10.00" fill="#000000"> keys</text>
</g>
<!-- Node8 -->
<g id="node7" class="node">
<title>Node8</title>
<polygon fill="#ffffff" stroke="#bfbfbf" points="0,-42.5 0,-60.5 29,-60.5 29,-42.5 0,-42.5"/>
<text text-anchor="middle" x="14.5" y="-48.5" font-family="Helvetica,sans-Serif" font-size="10.00" fill="#000000">T</text>
</g>
<!-- Node8&#45;&gt;Node6 -->
<g id="edge6" class="edge">
<title>Node8&#45;&gt;Node6</title>
<path fill="none" stroke="#9a32cd" stroke-dasharray="5,2" d="M38.7532,-41.1347C41.5058,-40.1574 44.294,-39.2528 47,-38.5 66.5825,-33.0525 88.3683,-28.9015 108.0623,-25.8321"/>
<polygon fill="#9a32cd" stroke="#9a32cd" points="37.2132,-37.9776 29.1499,-44.8503 39.7392,-44.506 37.2132,-37.9776"/>
<text text-anchor="middle" x="68.6772" y="-40.5" font-family="Helvetica,sans-Serif" font-size="10.00" fill="#000000"> elements</text>
</g>
<!-- Node10 -->
<g id="node9" class="node">
<title>Node10</title>
<g id="a_node9"><a xlink:title="STL class. ">
<polygon fill="#ffffff" stroke="#bfbfbf" points="136.1548,-47.5 136.1548,-65.5 202.3794,-65.5 202.3794,-47.5 136.1548,-47.5"/>
<text text-anchor="middle" x="169.2671" y="-53.5" font-family="Helvetica,sans-Serif" font-size="10.00" fill="#000000">vector&lt; T &gt;</text>
</a>
</g>
</g>
<!-- Node8&#45;&gt;Node10 -->
<g id="edge9" class="edge">
<title>Node8&#45;&gt;Node10</title>
<path fill="none" stroke="#9a32cd" stroke-dasharray="5,2" d="M39.413,-51.5936C54.2172,-51.7078 73.3611,-51.9575 90.3545,-52.5 105.2992,-52.9771 121.8236,-53.7731 135.8731,-54.5299"/>
<polygon fill="#9a32cd" stroke="#9a32cd" points="39.0667,-48.0915 29.0455,-51.5301 39.0238,-55.0914 39.0667,-48.0915"/>
<text text-anchor="middle" x="68.6772" y="-54.5" font-family="Helvetica,sans-Serif" font-size="10.00" fill="#000000"> elements</text>
</g>
<!-- Node8&#45;&gt;Node12 -->
<g id="edge13" class="edge">
<title>Node8&#45;&gt;Node12</title>
<path fill="none" stroke="#9a32cd" stroke-dasharray="5,2" d="M38.9419,-60.844C54.15,-67.0463 73.8802,-75.81 90.3545,-85.5 116.3048,-100.7637 143.872,-122.9265 158.5672,-135.2877"/>
<polygon fill="#9a32cd" stroke="#9a32cd" points="39.8166,-57.4251 29.2312,-56.9793 37.2282,-63.929 39.8166,-57.4251"/>
<text text-anchor="middle" x="68.6772" y="-87.5" font-family="Helvetica,sans-Serif" font-size="10.00" fill="#000000"> elements</text>
</g>
<!-- Node9 -->
<g id="node8" class="node">
<title>Node9</title>
<polygon fill="#ffffff" stroke="#bfbfbf" points="390.8574,-47.5 390.8574,-65.5 503.0146,-65.5 503.0146,-47.5 390.8574,-47.5"/>
<text text-anchor="middle" x="446.936" y="-53.5" font-family="Helvetica,sans-Serif" font-size="10.00" fill="#000000">vector&lt; MolVertPair &gt;</text>
</g>
<!-- Node9&#45;&gt;Node4 -->
<g id="edge7" class="edge">
<title>Node9&#45;&gt;Node4</title>
<path fill="none" stroke="#9a32cd" stroke-dasharray="5,2" d="M513.3165,-54.6635C571.9533,-53.0413 655.1369,-50.74 701.4891,-49.4576"/>
<polygon fill="#9a32cd" stroke="#9a32cd" points="512.9327,-51.1727 503.0333,-54.948 513.1263,-58.1701 512.9327,-51.1727"/>
<text text-anchor="middle" x="602.269" y="-56.5" font-family="Helvetica,sans-Serif" font-size="10.00" fill="#000000"> possibleLocations_</text>
</g>
<!-- Node10&#45;&gt;Node9 -->
<g id="edge8" class="edge">
<title>Node10&#45;&gt;Node9</title>
<path fill="none" stroke="#ffa500" stroke-dasharray="5,2" d="M212.5399,-56.5C260.484,-56.5 337.9619,-56.5 390.6051,-56.5"/>
<polygon fill="#ffa500" stroke="#ffa500" points="212.4847,-53.0001 202.4847,-56.5 212.4846,-60.0001 212.4847,-53.0001"/>
<text text-anchor="middle" x="307.9404" y="-58.5" font-family="Helvetica,sans-Serif" font-size="10.00" fill="#000000"> &lt; MolVertPair &gt;</text>
</g>
<!-- Node13 -->
<g id="node12" class="node">
<title>Node13</title>
<polygon fill="#ffffff" stroke="#bfbfbf" points="547.853,-80.5 547.853,-108.5 656.6851,-108.5 656.6851,-80.5 547.853,-80.5"/>
<text text-anchor="start" x="555.853" y="-96.5" font-family="Helvetica,sans-Serif" font-size="10.00" fill="#000000">vector&lt; std::pair&lt;</text>
<text text-anchor="middle" x="602.269" y="-86.5" font-family="Helvetica,sans-Serif" font-size="10.00" fill="#000000"> ElnDist, uint32_t &gt; &gt;</text>
</g>
<!-- Node10&#45;&gt;Node13 -->
<g id="edge15" class="edge">
<title>Node10&#45;&gt;Node13</title>
<path fill="none" stroke="#ffa500" stroke-dasharray="5,2" d="M212.43,-65.0246C224.0035,-67.0726 236.5362,-69.0768 248.1797,-70.5 353.8331,-83.4144 478.1343,-89.8281 547.8055,-92.6337"/>
<polygon fill="#ffa500" stroke="#ffa500" points="213.0178,-61.5741 202.5527,-63.2269 211.7643,-68.461 213.0178,-61.5741"/>
<text text-anchor="start" x="262.9209" y="-94.5" font-family="Helvetica,sans-Serif" font-size="10.00" fill="#000000"> &lt; std::pair&lt; ElnDist,</text>
<text text-anchor="middle" x="307.9404" y="-84.5" font-family="Helvetica,sans-Serif" font-size="10.00" fill="#000000"> uint32_t &gt; &gt;</text>
</g>
<!-- Node11 -->
<g id="node10" class="node">
<title>Node11</title>
<polygon fill="#ffffff" stroke="#bfbfbf" points="526.1709,-130.5 526.1709,-148.5 678.3672,-148.5 678.3672,-130.5 526.1709,-130.5"/>
<text text-anchor="middle" x="602.269" y="-136.5" font-family="Helvetica,sans-Serif" font-size="10.00" fill="#000000">map&lt; MolVertPair, ElnVertex &gt;</text>
</g>
<!-- Node11&#45;&gt;Node3 -->
<g id="edge10" class="edge">
<title>Node11&#45;&gt;Node3</title>
<path fill="none" stroke="#9a32cd" stroke-dasharray="5,2" d="M688.7457,-134.4192C755.9246,-130.2548 851.3978,-123.8619 934.9033,-116.5 940.7421,-115.9852 946.7828,-115.4175 952.8531,-114.8219"/>
<polygon fill="#9a32cd" stroke="#9a32cd" points="688.3947,-130.9341 678.629,-135.0427 688.8254,-137.9208 688.3947,-130.9341"/>
<text text-anchor="middle" x="736.1035" y="-135.5" font-family="Helvetica,sans-Serif" font-size="10.00" fill="#000000"> mvp2ev_</text>
</g>
<!-- Node12&#45;&gt;Node11 -->
<g id="edge11" class="edge">
<title>Node12&#45;&gt;Node11</title>
<path fill="none" stroke="#ffa500" stroke-dasharray="5,2" d="M215.0878,-143.9709C289.167,-143.1155 436.0063,-141.4199 526.0323,-140.3803"/>
<polygon fill="#ffa500" stroke="#ffa500" points="214.6603,-140.4755 204.7015,-144.0908 214.7412,-147.475 214.6603,-140.4755"/>
<text text-anchor="middle" x="307.9404" y="-145.5" font-family="Helvetica,sans-Serif" font-size="10.00" fill="#000000"> &lt; MolVertPair, ElnVertex &gt;</text>
</g>
<!-- Node14 -->
<g id="node13" class="node">
<title>Node14</title>
<polygon fill="#ffffff" stroke="#bfbfbf" points="793.8398,-165.5 793.8398,-183.5 934.9033,-183.5 934.9033,-165.5 793.8398,-165.5"/>
<text text-anchor="middle" x="864.3716" y="-171.5" font-family="Helvetica,sans-Serif" font-size="10.00" fill="#000000">map&lt; MolVertPair, ElnDist &gt;</text>
</g>
<!-- Node12&#45;&gt;Node14 -->
<g id="edge17" class="edge">
<title>Node12&#45;&gt;Node14</title>
<path fill="none" stroke="#ffa500" stroke-dasharray="5,2" d="M215.0073,-153.1145C225.8456,-154.8559 237.3913,-156.4674 248.1797,-157.5 444.9967,-176.3389 678.6621,-176.8405 793.4838,-175.6604"/>
<polygon fill="#ffa500" stroke="#ffa500" points="215.3212,-149.6185 204.8806,-151.4199 214.1658,-156.5225 215.3212,-149.6185"/>
<text text-anchor="middle" x="446.936" y="-174.5" font-family="Helvetica,sans-Serif" font-size="10.00" fill="#000000"> &lt; MolVertPair, ElnDist &gt;</text>
</g>
<!-- Node13&#45;&gt;Node3 -->
<g id="edge14" class="edge">
<title>Node13&#45;&gt;Node3</title>
<path fill="none" stroke="#9a32cd" stroke-dasharray="5,2" d="M667.101,-96.3268C743.8961,-98.4906 871.6123,-102.0892 952.754,-104.3755"/>
<polygon fill="#9a32cd" stroke="#9a32cd" points="667.1686,-92.8274 657.0739,-96.0442 666.9713,-99.8246 667.1686,-92.8274"/>
<text text-anchor="middle" x="736.1035" y="-101.5" font-family="Helvetica,sans-Serif" font-size="10.00" fill="#000000"> minDistributions_</text>
</g>
<!-- Node14&#45;&gt;Node2 -->
<g id="edge16" class="edge">
<title>Node14&#45;&gt;Node2</title>
<path fill="none" stroke="#9a32cd" stroke-dasharray="5,2" d="M945.0691,-166.0257C1006.4377,-159.5812 1088.809,-150.9312 1140.1681,-145.5378"/>
<polygon fill="#9a32cd" stroke="#9a32cd" points="944.604,-162.5552 935.0242,-167.0806 945.3351,-169.517 944.604,-162.5552"/>
<text text-anchor="middle" x="1028.1519" y="-166.5" font-family="Helvetica,sans-Serif" font-size="10.00" fill="#000000"> locBitmasks_</text>
</g>
</g>
</svg>
        <g id="navigator" transform="translate(0 0)" fill="#404254">
                <rect fill="#f2f5e9" fill-opacity="0.5" stroke="#606060" stroke-width=".5" x="0" y="0" width="60" height="60"/>
                <use id="zoomplus" xlink:href="#zoomPlus" x="17" y="9" onmousedown="handleZoom(evt,'in')"/>
                <use id="zoomminus" xlink:href="#zoomMin" x="42" y="9" onmousedown="handleZoom(evt,'out')"/>
                <use id="reset" xlink:href="#resetDef" x="30" y="36" onmousedown="handleReset()"/>
                <g id="arrowUp" xlink:href="#dirArrow" transform="translate(30 24)" onmousedown="handlePan(0,-1)">
                  <use xlink:href="#rim" fill="#404040">
                        <set attributeName="fill" to="#808080" begin="arrowUp.mouseover" end="arrowUp.mouseout"/>
                  </use>
                  <path fill="none" stroke="white" stroke-width="1.5" d="M0,-3.0v7 M-2.5,-0.5L0,-3.0L2.5,-0.5"/>
                </g>
                <g id="arrowRight" xlink:href="#dirArrow" transform="rotate(90) translate(36 -43)" onmousedown="handlePan(1,0)">
                  <use xlink:href="#rim" fill="#404040">
                        <set attributeName="fill" to="#808080" begin="arrowRight.mouseover" end="arrowRight.mouseout"/>
                  </use>
                  <path fill="none" stroke="white" stroke-width="1.5" d="M0,-3.0v7 M-2.5,-0.5L0,-3.0L2.5,-0.5"/>
                </g>
                <g id="arrowDown" xlink:href="#dirArrow" transform="rotate(180) translate(-30 -48)" onmousedown="handlePan(0,1)">
                  <use xlink:href="#rim" fill="#404040">
                        <set attributeName="fill" to="#808080" begin="arrowDown.mouseover" end="arrowDown.mouseout"/>
                  </use>
                  <path fill="none" stroke="white" stroke-width="1.5" d="M0,-3.0v7 M-2.5,-0.5L0,-3.0L2.5,-0.5"/>
                </g>
                <g id="arrowLeft" xlink:href="#dirArrow" transform="rotate(270) translate(-36 17)" onmousedown="handlePan(-1,0)">
                  <use xlink:href="#rim" fill="#404040">
                        <set attributeName="fill" to="#808080" begin="arrowLeft.mouseover" end="arrowLeft.mouseout"/>
                  </use>
                  <path fill="none" stroke="white" stroke-width="1.5" d="M0,-3.0v7 M-2.5,-0.5L0,-3.0L2.5,-0.5"/>
                </g>
        </g>
        <svg viewBox="0 0 15 15" width="100%" height="30px" preserveAspectRatio="xMaxYMin meet">
         <g id="arrow_out" transform="scale(0.3 0.3)">
          <a xlink:href="classindigox_1_1algorithm_1_1_local_optimisation__coll__graph_org.svg" target="_base">
           <rect id="button" ry="5" rx="5" y="6" x="6" height="38" width="38"
                fill="#f2f5e9" fill-opacity="0.5" stroke="#606060" stroke-width="1.0"/>
           <path id="arrow"
             d="M 11.500037,31.436501 C 11.940474,20.09759 22.043105,11.32322 32.158766,21.979434 L 37.068811,17.246167 C 37.068811,17.246167 37.088388,32 37.088388,32 L 22.160133,31.978069 C 22.160133,31.978069 26.997745,27.140456 26.997745,27.140456 C 18.528582,18.264221 13.291696,25.230495 11.500037,31.436501 z"
             style="fill:#404040;"/>
          </a>
         </g>
        </svg>
</svg>
