<?xml version="1.0" encoding="UTF-8" standalone="no"?>
<!DOCTYPE svg PUBLIC "-//W3C//DTD SVG 1.1//EN"
 "http://www.w3.org/Graphics/SVG/1.1/DTD/svg11.dtd">
<!-- Generated by graphviz version 2.40.1 (20161225.0304)
 -->
<!-- Title: PeriodicTable Pages: 1 -->
<svg width="183pt" height="242pt"
 viewBox="0.00 0.00 183.16 242.00" xmlns="http://www.w3.org/2000/svg" xmlns:xlink="http://www.w3.org/1999/xlink">
<g id="graph0" class="graph" transform="scale(1 1) rotate(0) translate(4 238)">
<title>PeriodicTable</title>
<polygon fill="#ffffff" stroke="transparent" points="-4,4 -4,-238 179.1606,-238 179.1606,4 -4,4"/>
<!-- Node1 -->
<g id="node1" class="node">
<title>Node1</title>
<polygon fill="#bfbfbf" stroke="#000000" points="24.0381,-.5 24.0381,-18.5 100.0723,-18.5 100.0723,-.5 24.0381,-.5"/>
<text text-anchor="middle" x="62.0552" y="-6.5" font-family="Helvetica,sans-Serif" font-size="10.00" fill="#000000">PeriodicTable</text>
</g>
<!-- Node2 -->
<g id="node2" class="node">
<title>Node2</title>
<polygon fill="#ffffff" stroke="#bfbfbf" points="0,-65.5 0,-93.5 124.1104,-93.5 124.1104,-65.5 0,-65.5"/>
<text text-anchor="start" x="8" y="-81.5" font-family="Helvetica,sans-Serif" font-size="10.00" fill="#000000">array&lt; indigox::Element,</text>
<text text-anchor="middle" x="62.0552" y="-71.5" font-family="Helvetica,sans-Serif" font-size="10.00" fill="#000000"> 119 &gt;</text>
</g>
<!-- Node2&#45;&gt;Node1 -->
<g id="edge1" class="edge">
<title>Node2&#45;&gt;Node1</title>
<path fill="none" stroke="#9a32cd" stroke-dasharray="5,2" d="M62.0552,-55.007C62.0552,-42.4648 62.0552,-27.9386 62.0552,-18.7368"/>
<polygon fill="#9a32cd" stroke="#9a32cd" points="58.5553,-55.3344 62.0552,-65.3345 65.5553,-55.3345 58.5553,-55.3344"/>
<text text-anchor="middle" x="79.5625" y="-39" font-family="Helvetica,sans-Serif" font-size="10.00" fill="#000000"> _elems</text>
</g>
<!-- Node3 -->
<g id="node3" class="node">
<title>Node3</title>
<g id="a_node3"><a xlink:href="classindigox_1_1_element.html" target="_top" xlink:title="Read only class for storing elemental information. ">
<polygon fill="#ffffff" stroke="#000000" points=".7129,-150.5 .7129,-168.5 53.3975,-168.5 53.3975,-150.5 .7129,-150.5"/>
<text text-anchor="middle" x="27.0552" y="-156.5" font-family="Helvetica,sans-Serif" font-size="10.00" fill="#000000">Element</text>
</a>
</g>
</g>
<!-- Node3&#45;&gt;Node2 -->
<g id="edge2" class="edge">
<title>Node3&#45;&gt;Node2</title>
<path fill="none" stroke="#9a32cd" stroke-dasharray="5,2" d="M26.1576,-140.1194C26.434,-131.2077 27.7665,-120.7071 31.7007,-112 34.7526,-105.2457 39.7841,-98.9868 44.8814,-93.8016"/>
<polygon fill="#9a32cd" stroke="#9a32cd" points="22.6594,-140.3376 26.2559,-150.3033 29.6591,-140.2699 22.6594,-140.3376"/>
<text text-anchor="middle" x="52.7324" y="-119" font-family="Helvetica,sans-Serif" font-size="10.00" fill="#000000"> elements</text>
</g>
<!-- Node4 -->
<g id="node4" class="node">
<title>Node4</title>
<g id="a_node4"><a xlink:title="STL class. ">
<polygon fill="#ffffff" stroke="#bfbfbf" points="71.167,-150.5 71.167,-168.5 132.9434,-168.5 132.9434,-150.5 71.167,-150.5"/>
<text text-anchor="middle" x="102.0552" y="-156.5" font-family="Helvetica,sans-Serif" font-size="10.00" fill="#000000">array&lt; T &gt;</text>
</a>
</g>
</g>
<!-- Node4&#45;&gt;Node2 -->
<g id="edge3" class="edge">
<title>Node4&#45;&gt;Node2</title>
<path fill="none" stroke="#ffa500" stroke-dasharray="5,2" d="M92.9779,-141.3454C85.7535,-126.8966 75.7864,-106.9624 69.1416,-93.6728"/>
<polygon fill="#ffa500" stroke="#ffa500" points="89.864,-142.944 97.4667,-150.323 96.125,-139.8134 89.864,-142.944"/>
<text text-anchor="start" x="87.0552" y="-124" font-family="Helvetica,sans-Serif" font-size="10.00" fill="#000000"> &lt; indigox::Element,</text>
<text text-anchor="middle" x="131.1079" y="-114" font-family="Helvetica,sans-Serif" font-size="10.00" fill="#000000"> 119 &gt;</text>
</g>
<!-- Node5 -->
<g id="node5" class="node">
<title>Node5</title>
<polygon fill="#ffffff" stroke="#bfbfbf" points="87.5552,-215.5 87.5552,-233.5 116.5552,-233.5 116.5552,-215.5 87.5552,-215.5"/>
<text text-anchor="middle" x="101.6094" y="-221.5" font-family="Helvetica,sans-Serif" font-size="10.00" fill="#000000">T</text>
</g>
<!-- Node5&#45;&gt;Node4 -->
<g id="edge4" class="edge">
<title>Node5&#45;&gt;Node4</title>
<path fill="none" stroke="#9a32cd" stroke-dasharray="5,2" d="M102.0552,-205.1265C102.0552,-193.1522 102.0552,-178.3205 102.0552,-168.8821"/>
<polygon fill="#9a32cd" stroke="#9a32cd" points="98.5553,-205.462 102.0552,-215.462 105.5553,-205.4621 98.5553,-205.462"/>
<text text-anchor="middle" x="123.7324" y="-189" font-family="Helvetica,sans-Serif" font-size="10.00" fill="#000000"> elements</text>
</g>
</g>
</svg>
