<?xml version="1.0" encoding="UTF-8" standalone="no"?>
<!DOCTYPE svg PUBLIC "-//W3C//DTD SVG 1.1//EN"
 "http://www.w3.org/Graphics/SVG/1.1/DTD/svg11.dtd">
<!-- Generated by graphviz version 2.40.1 (20161225.0304)
 -->
<!-- Title: AStarOptimisation Pages: 1 -->
<!--zoomable 471 -->
<svg id="main" version="1.1" xmlns="http://www.w3.org/2000/svg" xmlns:xlink="http://www.w3.org/1999/xlink" xml:space="preserve" onload="init(evt)">
<style type="text/css"><![CDATA[
.edge:hover path { stroke: red; }
.edge:hover polygon { stroke: red; fill: red; }
]]></style>
<script type="text/javascript"><![CDATA[
var edges = document.getElementsByTagName('g');
if (edges && edges.length) {
  for (var i=0;i<edges.length;i++) {
    if (edges[i].id.substr(0,4)=='edge') {
      edges[i].setAttribute('class','edge');
    }
  }
}
]]></script>
        <defs>
                <circle id="rim" cx="0" cy="0" r="7"/>
                <circle id="rim2" cx="0" cy="0" r="3.5"/>
                <g id="zoomPlus">
                        <use xlink:href="#rim" fill="#404040">
                                <set attributeName="fill" to="#808080" begin="zoomplus.mouseover" end="zoomplus.mouseout"/>
                        </use>
                        <path d="M-4,0h8M0,-4v8" fill="none" stroke="white" stroke-width="1.5" pointer-events="none"/>
                </g>
                <g id="zoomMin">
                        <use xlink:href="#rim" fill="#404040">
                                <set attributeName="fill" to="#808080" begin="zoomminus.mouseover" end="zoomminus.mouseout"/>
                        </use>
                        <path d="M-4,0h8" fill="none" stroke="white" stroke-width="1.5" pointer-events="none"/>
                </g>
                <g id="dirArrow">
                        <path fill="none" stroke="white" stroke-width="1.5" d="M0,-3.0v7 M-2.5,-0.5L0,-3.0L2.5,-0.5"/>
                </g>
               <g id="resetDef">
                       <use xlink:href="#rim2" fill="#404040">
                               <set attributeName="fill" to="#808080" begin="reset.mouseover" end="reset.mouseout"/>
                       </use>
               </g>
        </defs>

<script type="text/javascript">
var viewWidth = 1423;
var viewHeight = 471;
var sectionId = 'dynsection-1';
</script>
<script xlink:href="svgpan.js"/>
<svg id="graph" class="graph">
<g id="viewport">
<title>AStarOptimisation</title>
<polygon fill="#ffffff" stroke="transparent" points="-4,4 -4,-467.1157 1419.0635,-467.1157 1419.0635,4 -4,4"/>
<!-- Node2 -->
<g id="node1" class="node">
<title>Node2</title>
<polygon fill="#bfbfbf" stroke="#000000" points="1318.4775,-236.1157 1318.4775,-254.1157 1415.0635,-254.1157 1415.0635,-236.1157 1318.4775,-236.1157"/>
<text text-anchor="middle" x="1366.7705" y="-242.1157" font-family="Helvetica,sans-Serif" font-size="10.00" fill="#000000">AStarOptimisation</text>
</g>
<!-- Node3 -->
<g id="node2" class="node">
<title>Node3</title>
<g id="a_node2"><a xlink:href="classindigox_1_1algorithm_1_1_electron_optimisation_algorithm.html" target="_top" xlink:title="ElectronOptimisationAlgorithm">
<polygon fill="#ffffff" stroke="#000000" points="1017.4541,-266.1157 1017.4541,-284.1157 1167.9512,-284.1157 1167.9512,-266.1157 1017.4541,-266.1157"/>
<text text-anchor="middle" x="1092.7026" y="-272.1157" font-family="Helvetica,sans-Serif" font-size="10.00" fill="#000000">ElectronOptimisationAlgorithm</text>
</a>
</g>
</g>
<!-- Node3&#45;&gt;Node2 -->
<g id="edge1" class="edge">
<title>Node3&#45;&gt;Node2</title>
<path fill="none" stroke="#191970" d="M1177.9715,-265.782C1224.1957,-260.7222 1279.6323,-254.654 1318.4337,-250.4067"/>
<polygon fill="#191970" stroke="#191970" points="1177.5151,-262.3109 1167.9554,-266.8784 1178.2769,-269.2694 1177.5151,-262.3109"/>
</g>
<!-- Node4 -->
<g id="node3" class="node">
<title>Node4</title>
<g id="a_node3"><a xlink:href="classindigox_1_1_electron_opt.html" target="_top" xlink:title="ElectronOpt">
<polygon fill="#ffffff" stroke="#000000" points="743.7778,-318.1157 743.7778,-336.1157 812.5806,-336.1157 812.5806,-318.1157 743.7778,-318.1157"/>
<text text-anchor="middle" x="778.1792" y="-324.1157" font-family="Helvetica,sans-Serif" font-size="10.00" fill="#000000">ElectronOpt</text>
</a>
</g>
</g>
<!-- Node4&#45;&gt;Node3 -->
<g id="edge2" class="edge">
<title>Node4&#45;&gt;Node3</title>
<path fill="none" stroke="#9a32cd" stroke-dasharray="5,2" d="M822.7942,-321.96C867.6066,-316.5246 938.5592,-307.2187 999.4541,-296.1157 1018.0649,-292.7223 1038.592,-288.1868 1055.638,-284.1993"/>
<polygon fill="#9a32cd" stroke="#9a32cd" points="822.3263,-318.4909 812.8152,-323.1587 823.1612,-325.4409 822.3263,-318.4909"/>
<text text-anchor="middle" x="935.8657" y="-317.1157" font-family="Helvetica,sans-Serif" font-size="10.00" fill="#000000"> parent_</text>
</g>
<!-- Node5 -->
<g id="node4" class="node">
<title>Node5</title>
<polygon fill="#ffffff" stroke="#bfbfbf" points="424.0898,-369.1157 424.0898,-397.1157 546.5596,-397.1157 546.5596,-369.1157 424.0898,-369.1157"/>
<text text-anchor="start" x="432.0898" y="-385.1157" font-family="Helvetica,sans-Serif" font-size="10.00" fill="#000000">unordered_map&lt; uint32</text>
<text text-anchor="middle" x="485.3247" y="-375.1157" font-family="Helvetica,sans-Serif" font-size="10.00" fill="#000000">_t, FCSCORE &gt;</text>
</g>
<!-- Node5&#45;&gt;Node4 -->
<g id="edge3" class="edge">
<title>Node5&#45;&gt;Node4</title>
<path fill="none" stroke="#9a32cd" stroke-dasharray="5,2" d="M511.8523,-362.8705C526.5524,-352.8566 545.6414,-341.7353 564.5596,-336.1157 625.5843,-317.9884 700.7169,-320.1097 743.6675,-323.4851"/>
<polygon fill="#9a32cd" stroke="#9a32cd" points="509.4578,-360.2766 503.3073,-368.9034 513.4951,-365.995 509.4578,-360.2766"/>
<text text-anchor="middle" x="624.3203" y="-338.1157" font-family="Helvetica,sans-Serif" font-size="10.00" fill="#000000"> scores_</text>
</g>
<!-- Node6 -->
<g id="node5" class="node">
<title>Node6</title>
<g id="a_node5"><a xlink:title="STL class. ">
<polygon fill="#ffffff" stroke="#bfbfbf" points="132.2852,-292.1157 132.2852,-310.1157 254.1104,-310.1157 254.1104,-292.1157 132.2852,-292.1157"/>
<text text-anchor="middle" x="193.1978" y="-298.1157" font-family="Helvetica,sans-Serif" font-size="10.00" fill="#000000">unordered_map&lt; K, T &gt;</text>
</a>
</g>
</g>
<!-- Node6&#45;&gt;Node5 -->
<g id="edge4" class="edge">
<title>Node6&#45;&gt;Node5</title>
<path fill="none" stroke="#ffa500" stroke-dasharray="5,2" d="M215.9739,-315.5969C236.216,-327.7846 267.0141,-344.6913 296.041,-354.1157 337.6217,-367.6159 386.4289,-374.8987 424.0671,-378.7893"/>
<polygon fill="#ffa500" stroke="#ffa500" points="217.5531,-312.4594 207.1998,-310.2098 213.8905,-318.4248 217.5531,-312.4594"/>
<text text-anchor="middle" x="351.0654" y="-378.1157" font-family="Helvetica,sans-Serif" font-size="10.00" fill="#000000"> &lt; uint32_t, FCSCORE &gt;</text>
</g>
<!-- Node7 -->
<g id="node6" class="node">
<title>Node7</title>
<polygon fill="#ffffff" stroke="#bfbfbf" points="0,-238.1157 0,-256.1157 29,-256.1157 29,-238.1157 0,-238.1157"/>
<text text-anchor="middle" x="14.5" y="-244.1157" font-family="Helvetica,sans-Serif" font-size="10.00" fill="#000000">K</text>
</g>
<!-- Node7&#45;&gt;Node6 -->
<g id="edge5" class="edge">
<title>Node7&#45;&gt;Node6</title>
<path fill="none" stroke="#9a32cd" stroke-dasharray="5,2" d="M28.2989,-263.8638C33.5939,-269.2374 40.0486,-274.681 47,-278.1157 73.1451,-291.0338 104.8446,-297.0182 132.034,-299.6779"/>
<polygon fill="#9a32cd" stroke="#9a32cd" points="30.7497,-261.3555 21.4481,-256.2829 25.5562,-266.0489 30.7497,-261.3555"/>
<text text-anchor="middle" x="68.6772" y="-294.1157" font-family="Helvetica,sans-Serif" font-size="10.00" fill="#000000"> keys</text>
</g>
<!-- Node12 -->
<g id="node11" class="node">
<title>Node12</title>
<g id="a_node11"><a xlink:title="STL class. ">
<polygon fill="#ffffff" stroke="#bfbfbf" points="449.9883,-159.1157 449.9883,-177.1157 520.6611,-177.1157 520.6611,-159.1157 449.9883,-159.1157"/>
<text text-anchor="middle" x="485.3247" y="-165.1157" font-family="Helvetica,sans-Serif" font-size="10.00" fill="#000000">map&lt; K, T &gt;</text>
</a>
</g>
</g>
<!-- Node7&#45;&gt;Node12 -->
<g id="edge12" class="edge">
<title>Node7&#45;&gt;Node12</title>
<path fill="none" stroke="#9a32cd" stroke-dasharray="5,2" d="M24.8402,-229.226C30.3644,-221.3753 37.909,-212.8771 47,-208.1157 117.9691,-170.9454 326.3352,-183.6953 406.0898,-176.1157 420.4044,-174.7553 436.1652,-173.1799 449.8347,-171.7887"/>
<polygon fill="#9a32cd" stroke="#9a32cd" points="21.7447,-227.5703 19.3117,-237.882 27.6442,-231.3382 21.7447,-227.5703"/>
<text text-anchor="middle" x="193.1978" y="-191.1157" font-family="Helvetica,sans-Serif" font-size="10.00" fill="#000000"> keys</text>
</g>
<!-- Node8 -->
<g id="node7" class="node">
<title>Node8</title>
<polygon fill="#ffffff" stroke="#bfbfbf" points="0,-139.1157 0,-157.1157 29,-157.1157 29,-139.1157 0,-139.1157"/>
<text text-anchor="middle" x="14.5" y="-145.1157" font-family="Helvetica,sans-Serif" font-size="10.00" fill="#000000">T</text>
</g>
<!-- Node8&#45;&gt;Node6 -->
<g id="edge6" class="edge">
<title>Node8&#45;&gt;Node6</title>
<path fill="none" stroke="#9a32cd" stroke-dasharray="5,2" d="M23.0357,-166.4188C29.1146,-178.833 37.8082,-195.4138 47,-209.1157 52.9502,-217.9855 99.2145,-277.5895 108.3545,-283.1157 115.5704,-287.4785 123.6892,-290.7939 131.9706,-293.3114"/>
<polygon fill="#9a32cd" stroke="#9a32cd" points="26.0631,-164.6365 18.5909,-157.1254 19.7482,-167.6569 26.0631,-164.6365"/>
<text text-anchor="middle" x="68.6772" y="-264.1157" font-family="Helvetica,sans-Serif" font-size="10.00" fill="#000000"> elements</text>
</g>
<!-- Node10 -->
<g id="node9" class="node">
<title>Node10</title>
<g id="a_node9"><a xlink:title="STL class. ">
<polygon fill="#ffffff" stroke="#bfbfbf" points="160.0854,-255.1157 160.0854,-273.1157 226.3101,-273.1157 226.3101,-255.1157 160.0854,-255.1157"/>
<text text-anchor="middle" x="193.1978" y="-261.1157" font-family="Helvetica,sans-Serif" font-size="10.00" fill="#000000">vector&lt; T &gt;</text>
</a>
</g>
</g>
<!-- Node8&#45;&gt;Node10 -->
<g id="edge9" class="edge">
<title>Node8&#45;&gt;Node10</title>
<path fill="none" stroke="#9a32cd" stroke-dasharray="5,2" d="M37.2291,-162.87C74.739,-187.2192 148.5064,-235.1047 179.2408,-255.0556"/>
<polygon fill="#9a32cd" stroke="#9a32cd" points="38.8156,-159.7271 28.5221,-157.218 35.0042,-165.5986 38.8156,-159.7271"/>
<text text-anchor="middle" x="68.6772" y="-197.1157" font-family="Helvetica,sans-Serif" font-size="10.00" fill="#000000"> elements</text>
</g>
<!-- Node8&#45;&gt;Node12 -->
<g id="edge13" class="edge">
<title>Node8&#45;&gt;Node12</title>
<path fill="none" stroke="#9a32cd" stroke-dasharray="5,2" d="M39.4297,-149.1746C117.638,-152.4968 358.3604,-162.7224 449.6875,-166.6018"/>
<polygon fill="#9a32cd" stroke="#9a32cd" points="39.2467,-145.6638 29.1071,-148.7362 38.9496,-152.6575 39.2467,-145.6638"/>
<text text-anchor="middle" x="193.1978" y="-160.1157" font-family="Helvetica,sans-Serif" font-size="10.00" fill="#000000"> elements</text>
</g>
<!-- Node17 -->
<g id="node16" class="node">
<title>Node17</title>
<g id="a_node16"><a xlink:title="STL class. ">
<polygon fill="#ffffff" stroke="#bfbfbf" points="108.3545,-36.1157 108.3545,-74.1157 278.041,-74.1157 278.041,-36.1157 108.3545,-36.1157"/>
<text text-anchor="start" x="116.3545" y="-62.1157" font-family="Helvetica,sans-Serif" font-size="10.00" fill="#000000">priority_queue&lt; AStarQueue</text>
<text text-anchor="start" x="116.3545" y="-52.1157" font-family="Helvetica,sans-Serif" font-size="10.00" fill="#000000">Item, std::vector&lt; AStarQueueItem</text>
<text text-anchor="middle" x="193.1978" y="-42.1157" font-family="Helvetica,sans-Serif" font-size="10.00" fill="#000000"> &gt;, ItemCompare &gt;</text>
</a>
</g>
</g>
<!-- Node8&#45;&gt;Node17 -->
<g id="edge23" class="edge">
<title>Node8&#45;&gt;Node17</title>
<path fill="none" stroke="#9a32cd" stroke-dasharray="5,2" d="M22.2122,-129.5708C27.6425,-118.647 35.9233,-105.3902 47,-97.1157 64.8775,-83.7608 86.8815,-74.6463 108.3401,-68.4279"/>
<polygon fill="#9a32cd" stroke="#9a32cd" points="18.9967,-128.1865 18.0281,-138.737 25.3647,-131.0933 18.9967,-128.1865"/>
<text text-anchor="middle" x="68.6772" y="-99.1157" font-family="Helvetica,sans-Serif" font-size="10.00" fill="#000000"> elements</text>
</g>
<!-- Node18 -->
<g id="node17" class="node">
<title>Node18</title>
<g id="a_node17"><a xlink:title="STL class. ">
<polygon fill="#ffffff" stroke="#bfbfbf" points="167.124,-93.1157 167.124,-111.1157 219.2715,-111.1157 219.2715,-93.1157 167.124,-93.1157"/>
<text text-anchor="middle" x="193.1978" y="-99.1157" font-family="Helvetica,sans-Serif" font-size="10.00" fill="#000000">queue_t</text>
</a>
</g>
</g>
<!-- Node8&#45;&gt;Node18 -->
<g id="edge25" class="edge">
<title>Node8&#45;&gt;Node18</title>
<path fill="none" stroke="#9a32cd" stroke-dasharray="5,2" d="M32.2458,-132.63C36.798,-129.3507 41.8665,-126.2421 47,-124.1157 86.7198,-107.6623 137.0504,-103.3214 167.1024,-102.2864"/>
<polygon fill="#9a32cd" stroke="#9a32cd" points="29.9353,-129.9946 24.247,-138.9329 34.2677,-135.4928 29.9353,-129.9946"/>
<text text-anchor="middle" x="68.6772" y="-126.1157" font-family="Helvetica,sans-Serif" font-size="10.00" fill="#000000"> elements</text>
</g>
<!-- Node9 -->
<g id="node8" class="node">
<title>Node9</title>
<polygon fill="#ffffff" stroke="#bfbfbf" points="429.2461,-293.1157 429.2461,-311.1157 541.4033,-311.1157 541.4033,-293.1157 429.2461,-293.1157"/>
<text text-anchor="middle" x="485.3247" y="-299.1157" font-family="Helvetica,sans-Serif" font-size="10.00" fill="#000000">vector&lt; MolVertPair &gt;</text>
</g>
<!-- Node9&#45;&gt;Node4 -->
<g id="edge7" class="edge">
<title>Node9&#45;&gt;Node4</title>
<path fill="none" stroke="#9a32cd" stroke-dasharray="5,2" d="M551.5493,-297.2459C590.4112,-295.6791 640.3251,-295.902 684.0811,-303.1157 692.4015,-304.4874 693.9698,-306.8095 702.0811,-309.1157 715.5313,-312.9398 730.4771,-316.6006 743.5377,-319.6104"/>
<polygon fill="#9a32cd" stroke="#9a32cd" points="551.2395,-293.7563 541.4081,-297.7051 551.5562,-300.7491 551.2395,-293.7563"/>
<text text-anchor="middle" x="624.3203" y="-305.1157" font-family="Helvetica,sans-Serif" font-size="10.00" fill="#000000"> possibleLocations_</text>
</g>
<!-- Node10&#45;&gt;Node9 -->
<g id="edge8" class="edge">
<title>Node10&#45;&gt;Node9</title>
<path fill="none" stroke="#ffa500" stroke-dasharray="5,2" d="M236.1984,-274.0136C254.5539,-277.9477 276.2637,-282.2176 296.041,-285.1157 340.602,-291.6454 391.4573,-296.0449 429.2256,-298.7296"/>
<polygon fill="#ffa500" stroke="#ffa500" points="236.8955,-270.5835 226.3795,-271.8734 235.4047,-277.4229 236.8955,-270.5835"/>
<text text-anchor="middle" x="351.0654" y="-298.1157" font-family="Helvetica,sans-Serif" font-size="10.00" fill="#000000"> &lt; MolVertPair &gt;</text>
</g>
<!-- Node13 -->
<g id="node12" class="node">
<title>Node13</title>
<polygon fill="#ffffff" stroke="#bfbfbf" points="569.9043,-250.1157 569.9043,-278.1157 678.7363,-278.1157 678.7363,-250.1157 569.9043,-250.1157"/>
<text text-anchor="start" x="577.9043" y="-266.1157" font-family="Helvetica,sans-Serif" font-size="10.00" fill="#000000">vector&lt; std::pair&lt;</text>
<text text-anchor="middle" x="624.3203" y="-256.1157" font-family="Helvetica,sans-Serif" font-size="10.00" fill="#000000"> ElnDist, uint32_t &gt; &gt;</text>
</g>
<!-- Node10&#45;&gt;Node13 -->
<g id="edge15" class="edge">
<title>Node10&#45;&gt;Node13</title>
<path fill="none" stroke="#ffa500" stroke-dasharray="5,2" d="M236.6369,-262.5678C254.968,-261.9875 276.5411,-261.4 296.041,-261.1157 392.3529,-259.7112 504.5691,-261.4685 569.7177,-262.8251"/>
<polygon fill="#ffa500" stroke="#ffa500" points="236.421,-259.0729 226.5403,-262.8969 236.649,-266.0692 236.421,-259.0729"/>
<text text-anchor="start" x="306.0459" y="-273.1157" font-family="Helvetica,sans-Serif" font-size="10.00" fill="#000000"> &lt; std::pair&lt; ElnDist,</text>
<text text-anchor="middle" x="351.0654" y="-263.1157" font-family="Helvetica,sans-Serif" font-size="10.00" fill="#000000"> uint32_t &gt; &gt;</text>
</g>
<!-- Node14 -->
<g id="node13" class="node">
<title>Node14</title>
<polygon fill="#ffffff" stroke="#bfbfbf" points="579.0742,-192.1157 579.0742,-210.1157 669.5664,-210.1157 669.5664,-192.1157 579.0742,-192.1157"/>
<text text-anchor="middle" x="624.3203" y="-198.1157" font-family="Helvetica,sans-Serif" font-size="10.00" fill="#000000">vector&lt; uint8_t &gt;</text>
</g>
<!-- Node10&#45;&gt;Node14 -->
<g id="edge17" class="edge">
<title>Node10&#45;&gt;Node14</title>
<path fill="none" stroke="#ffa500" stroke-dasharray="5,2" d="M236.5839,-256.1549C254.9065,-252.8884 276.4874,-249.166 296.041,-246.1157 396.7872,-230.3996 515.3987,-214.8739 578.839,-206.8091"/>
<polygon fill="#ffa500" stroke="#ffa500" points="235.7182,-252.7543 226.4939,-257.9661 236.955,-259.6442 235.7182,-252.7543"/>
<text text-anchor="middle" x="351.0654" y="-248.1157" font-family="Helvetica,sans-Serif" font-size="10.00" fill="#000000"> &lt; uint8_t &gt;</text>
</g>
<!-- Node15 -->
<g id="node14" class="node">
<title>Node15</title>
<polygon fill="#ffffff" stroke="#bfbfbf" points="884.228,-423.1157 884.228,-441.1157 987.5034,-441.1157 987.5034,-423.1157 884.228,-423.1157"/>
<text text-anchor="middle" x="935.8657" y="-429.1157" font-family="Helvetica,sans-Serif" font-size="10.00" fill="#000000">vector&lt; ElnVertex &gt;</text>
</g>
<!-- Node10&#45;&gt;Node15 -->
<g id="edge20" class="edge">
<title>Node10&#45;&gt;Node15</title>
<path fill="none" stroke="#ffa500" stroke-dasharray="5,2" d="M236.5754,-264.8483C251.4263,-267.2302 267.0502,-272.4281 278.041,-283.1157 301.3799,-305.8104 274.7393,-329.4988 296.041,-354.1157 336.3444,-400.6916 363.9899,-393.6368 424.0898,-407.1157 588.7924,-444.0541 790.5027,-439.969 883.8731,-435.3809"/>
<polygon fill="#ffa500" stroke="#ffa500" points="236.8344,-261.354 226.484,-263.6163 235.9861,-268.3024 236.8344,-261.354"/>
<text text-anchor="middle" x="485.3247" y="-428.1157" font-family="Helvetica,sans-Serif" font-size="10.00" fill="#000000"> &lt; ElnVertex &gt;</text>
</g>
<!-- Node22 -->
<g id="node21" class="node">
<title>Node22</title>
<polygon fill="#ffffff" stroke="#bfbfbf" points="1041.6265,-372.1157 1041.6265,-390.1157 1143.7788,-390.1157 1143.7788,-372.1157 1041.6265,-372.1157"/>
<text text-anchor="middle" x="1092.7026" y="-378.1157" font-family="Helvetica,sans-Serif" font-size="10.00" fill="#000000">vector&lt; VertMask &gt;</text>
</g>
<!-- Node10&#45;&gt;Node22 -->
<g id="edge32" class="edge">
<title>Node10&#45;&gt;Node22</title>
<path fill="none" stroke="#ffa500" stroke-dasharray="5,2" d="M236.5989,-267.3797C250.7506,-270.0592 265.9238,-274.7982 278.041,-283.1157 289.9315,-291.2775 283.8067,-302.4788 296.041,-310.1157 359.1704,-349.5219 875.2235,-372.7186 1041.3726,-379.2203"/>
<polygon fill="#ffa500" stroke="#ffa500" points="236.9602,-263.8931 226.5331,-265.7709 235.8553,-270.8054 236.9602,-263.8931"/>
<text text-anchor="middle" x="624.3203" y="-362.1157" font-family="Helvetica,sans-Serif" font-size="10.00" fill="#000000"> &lt; VertMask &gt;</text>
</g>
<!-- Node11 -->
<g id="node10" class="node">
<title>Node11</title>
<polygon fill="#ffffff" stroke="#bfbfbf" points="702.0811,-281.1157 702.0811,-299.1157 854.2773,-299.1157 854.2773,-281.1157 702.0811,-281.1157"/>
<text text-anchor="middle" x="778.1792" y="-287.1157" font-family="Helvetica,sans-Serif" font-size="10.00" fill="#000000">map&lt; MolVertPair, ElnVertex &gt;</text>
</g>
<!-- Node11&#45;&gt;Node2 -->
<g id="edge18" class="edge">
<title>Node11&#45;&gt;Node2</title>
<path fill="none" stroke="#9a32cd" stroke-dasharray="5,2" d="M841.2548,-302.6518C845.7948,-304.5166 850.1891,-306.6577 854.2773,-309.1157 864.5263,-315.2777 861.353,-324.2504 872.2773,-329.1157 967.0374,-371.3182 1249.1346,-287.2669 1300.4775,-272.1157 1316.6874,-267.3322 1334.3839,-260.011 1347.4127,-254.1985"/>
<polygon fill="#9a32cd" stroke="#9a32cd" points="842.3762,-299.3354 831.7823,-299.1988 839.9788,-305.912 842.3762,-299.3354"/>
<text text-anchor="middle" x="1092.7026" y="-337.1157" font-family="Helvetica,sans-Serif" font-size="10.00" fill="#000000"> idsToVertex_</text>
</g>
<!-- Node11&#45;&gt;Node3 -->
<g id="edge10" class="edge">
<title>Node11&#45;&gt;Node3</title>
<path fill="none" stroke="#9a32cd" stroke-dasharray="5,2" d="M864.3544,-286.0059C912.2269,-283.7228 971.2302,-280.9088 1017.2664,-278.7133"/>
<polygon fill="#9a32cd" stroke="#9a32cd" points="864.1384,-282.5121 854.3165,-286.4846 864.472,-289.5041 864.1384,-282.5121"/>
<text text-anchor="middle" x="935.8657" y="-287.1157" font-family="Helvetica,sans-Serif" font-size="10.00" fill="#000000"> mvp2ev_</text>
</g>
<!-- Node12&#45;&gt;Node11 -->
<g id="edge11" class="edge">
<title>Node12&#45;&gt;Node11</title>
<path fill="none" stroke="#ffa500" stroke-dasharray="5,2" d="M507.1824,-182.8064C522.6011,-192.5173 544.0773,-204.7671 564.5596,-212.1157 615.3996,-230.3558 640.1279,-202.7226 684.0811,-234.1157 697.3597,-243.5998 689.4129,-255.8303 702.0811,-266.1157 710.2546,-272.7518 720.2819,-277.5629 730.3421,-281.0478"/>
<polygon fill="#ffa500" stroke="#ffa500" points="508.7275,-179.638 498.4279,-177.1546 504.9308,-185.5189 508.7275,-179.638"/>
<text text-anchor="middle" x="624.3203" y="-236.1157" font-family="Helvetica,sans-Serif" font-size="10.00" fill="#000000"> &lt; MolVertPair, ElnVertex &gt;</text>
</g>
<!-- Node19 -->
<g id="node18" class="node">
<title>Node19</title>
<polygon fill="#ffffff" stroke="#bfbfbf" points="872.2773,-159.1157 872.2773,-177.1157 999.4541,-177.1157 999.4541,-159.1157 872.2773,-159.1157"/>
<text text-anchor="middle" x="935.8657" y="-165.1157" font-family="Helvetica,sans-Serif" font-size="10.00" fill="#000000">map&lt; ElnVertex, size_t &gt;</text>
</g>
<!-- Node12&#45;&gt;Node19 -->
<g id="edge27" class="edge">
<title>Node12&#45;&gt;Node19</title>
<path fill="none" stroke="#ffa500" stroke-dasharray="5,2" d="M531.0092,-168.1157C611.7412,-168.1157 779.7882,-168.1157 871.9643,-168.1157"/>
<polygon fill="#ffa500" stroke="#ffa500" points="530.6779,-164.6158 520.6779,-168.1157 530.6779,-171.6158 530.6779,-164.6158"/>
<text text-anchor="middle" x="624.3203" y="-170.1157" font-family="Helvetica,sans-Serif" font-size="10.00" fill="#000000"> &lt; ElnVertex, size_t &gt;</text>
</g>
<!-- Node20 -->
<g id="node19" class="node">
<title>Node20</title>
<polygon fill="#ffffff" stroke="#bfbfbf" points="716.1167,-108.1157 716.1167,-136.1157 840.2417,-136.1157 840.2417,-108.1157 716.1167,-108.1157"/>
<text text-anchor="start" x="724.1167" y="-124.1157" font-family="Helvetica,sans-Serif" font-size="10.00" fill="#000000">map&lt; ElnVertex, indigox</text>
<text text-anchor="middle" x="778.1792" y="-114.1157" font-family="Helvetica,sans-Serif" font-size="10.00" fill="#000000">::ElnVertProp *&gt;</text>
</g>
<!-- Node12&#45;&gt;Node20 -->
<g id="edge30" class="edge">
<title>Node12&#45;&gt;Node20</title>
<path fill="none" stroke="#ffa500" stroke-dasharray="5,2" d="M506.6774,-153.2377C522.0099,-143.4721 543.5889,-131.5389 564.5596,-126.1157 614.2974,-113.2529 672.7433,-113.1372 715.9168,-115.7408"/>
<polygon fill="#ffa500" stroke="#ffa500" points="504.4206,-150.5334 497.9992,-158.9605 508.2742,-156.3771 504.4206,-150.5334"/>
<text text-anchor="start" x="578.5952" y="-138.1157" font-family="Helvetica,sans-Serif" font-size="10.00" fill="#000000"> &lt; ElnVertex, indigox</text>
<text text-anchor="middle" x="624.3203" y="-128.1157" font-family="Helvetica,sans-Serif" font-size="10.00" fill="#000000">::ElnVertProp *&gt;</text>
</g>
<!-- Node13&#45;&gt;Node3 -->
<g id="edge14" class="edge">
<title>Node13&#45;&gt;Node3</title>
<path fill="none" stroke="#9a32cd" stroke-dasharray="5,2" d="M689.2618,-262.3208C693.5998,-262.2393 697.9034,-262.1694 702.0811,-262.1157 769.7183,-261.246 786.6596,-260.2736 854.2773,-262.1157 908.8737,-263.603 970.4243,-267.0026 1017.3105,-269.9523"/>
<polygon fill="#9a32cd" stroke="#9a32cd" points="689.0459,-258.8244 679.1201,-262.5296 689.1901,-265.8229 689.0459,-258.8244"/>
<text text-anchor="middle" x="778.1792" y="-264.1157" font-family="Helvetica,sans-Serif" font-size="10.00" fill="#000000"> minDistributions_</text>
</g>
<!-- Node14&#45;&gt;Node2 -->
<g id="edge16" class="edge">
<title>Node14&#45;&gt;Node2</title>
<path fill="none" stroke="#9a32cd" stroke-dasharray="5,2" d="M679.7245,-204.3991C819.7234,-212.6959 1185.9261,-234.3982 1318.213,-242.238"/>
<polygon fill="#9a32cd" stroke="#9a32cd" points="679.8358,-200.8996 669.6463,-203.8018 679.4217,-207.8874 679.8358,-200.8996"/>
<text text-anchor="middle" x="935.8657" y="-225.1157" font-family="Helvetica,sans-Serif" font-size="10.00" fill="#000000"> uniqueIDs_</text>
</g>
<!-- Node15&#45;&gt;Node2 -->
<g id="edge19" class="edge">
<title>Node15&#45;&gt;Node2</title>
<path fill="none" stroke="#9a32cd" stroke-dasharray="5,2" d="M986.8492,-442.9609C1062.9077,-456.0724 1207.1151,-468.744 1300.4775,-401.1157 1350.7628,-364.6908 1363.1912,-282.3336 1366.0068,-254.5053"/>
<polygon fill="#9a32cd" stroke="#9a32cd" points="987.043,-439.4397 976.5817,-441.1161 985.8051,-446.3294 987.043,-439.4397"/>
<text text-anchor="middle" x="1092.7026" y="-455.1157" font-family="Helvetica,sans-Serif" font-size="10.00" fill="#000000"> pos2vert_</text>
</g>
<!-- Node16 -->
<g id="node15" class="node">
<title>Node16</title>
<g id="a_node15"><a xlink:href="classindigox_1_1algorithm_1_1_priority_queue.html" target="_top" xlink:title="PriorityQueue">
<polygon fill="#ffffff" stroke="#000000" points="446.7559,-46.1157 446.7559,-64.1157 523.8936,-64.1157 523.8936,-46.1157 446.7559,-46.1157"/>
<text text-anchor="middle" x="485.3247" y="-52.1157" font-family="Helvetica,sans-Serif" font-size="10.00" fill="#000000">PriorityQueue</text>
</a>
</g>
</g>
<!-- Node16&#45;&gt;Node2 -->
<g id="edge21" class="edge">
<title>Node16&#45;&gt;Node2</title>
<path fill="none" stroke="#9a32cd" stroke-dasharray="5,2" d="M529.1086,-43.6109C660.7049,-11.8014 1058.4897,63.79 1300.4775,-113.1157 1343.3312,-144.4439 1360.2264,-211.4133 1365.1241,-235.9022"/>
<polygon fill="#9a32cd" stroke="#9a32cd" points="527.8867,-40.307 519.0113,-46.0931 529.5577,-47.1047 527.8867,-40.307"/>
<text text-anchor="middle" x="935.8657" y="-8.1157" font-family="Helvetica,sans-Serif" font-size="10.00" fill="#000000"> queue_</text>
</g>
<!-- Node17&#45;&gt;Node16 -->
<g id="edge22" class="edge">
<title>Node17&#45;&gt;Node16</title>
<path fill="none" stroke="#191970" d="M288.3325,-55.1157C342.0563,-55.1157 406.2878,-55.1157 446.4559,-55.1157"/>
<polygon fill="#191970" stroke="#191970" points="288.0854,-51.6158 278.0854,-55.1157 288.0853,-58.6158 288.0854,-51.6158"/>
</g>
<!-- Node18&#45;&gt;Node16 -->
<g id="edge24" class="edge">
<title>Node18&#45;&gt;Node16</title>
<path fill="none" stroke="#191970" d="M229.5627,-96.7175C271.9761,-90.3661 344.182,-79.3818 406.0898,-69.1157 419.3195,-66.9218 433.7694,-64.4046 446.6638,-62.115"/>
<polygon fill="#191970" stroke="#191970" points="228.8189,-93.2897 219.446,-98.2291 229.8535,-100.2128 228.8189,-93.2897"/>
</g>
<!-- Node19&#45;&gt;Node2 -->
<g id="edge26" class="edge">
<title>Node19&#45;&gt;Node2</title>
<path fill="none" stroke="#9a32cd" stroke-dasharray="5,2" d="M1010.0656,-160.1213C1085.8293,-154.8676 1205.4765,-154.7351 1300.4775,-192.1157 1324.8848,-201.7193 1347.4007,-223.5913 1358.8555,-236.0279"/>
<polygon fill="#9a32cd" stroke="#9a32cd" points="1009.3866,-156.662 999.6734,-160.8932 1009.9052,-163.6428 1009.3866,-156.662"/>
<text text-anchor="middle" x="1092.7026" y="-163.1157" font-family="Helvetica,sans-Serif" font-size="10.00" fill="#000000"> vert2pos_</text>
</g>
<!-- Node20&#45;&gt;Node2 -->
<g id="edge28" class="edge">
<title>Node20&#45;&gt;Node2</title>
<path fill="none" stroke="#9a32cd" stroke-dasharray="5,2" d="M850.5911,-108.861C956.8841,-93.2854 1157.9575,-78.8921 1300.4775,-160.1157 1332.1831,-178.185 1354.0514,-218.0451 1362.6729,-236.0151"/>
<polygon fill="#9a32cd" stroke="#9a32cd" points="849.971,-105.4149 840.6057,-110.3689 851.0162,-112.3364 849.971,-105.4149"/>
<text text-anchor="middle" x="1092.7026" y="-112.1157" font-family="Helvetica,sans-Serif" font-size="10.00" fill="#000000"> vertexProperties_</text>
</g>
<!-- Node21 -->
<g id="node20" class="node">
<title>Node21</title>
<g id="a_node20"><a xlink:href="structindigox_1_1_eln_vert_prop.html" target="_top" xlink:title="ElnVertProp">
<polygon fill="#ffffff" stroke="#000000" points="450.6401,-83.1157 450.6401,-101.1157 520.0093,-101.1157 520.0093,-83.1157 450.6401,-83.1157"/>
<text text-anchor="middle" x="485.3247" y="-89.1157" font-family="Helvetica,sans-Serif" font-size="10.00" fill="#000000">ElnVertProp</text>
</a>
</g>
</g>
<!-- Node21&#45;&gt;Node20 -->
<g id="edge29" class="edge">
<title>Node21&#45;&gt;Node20</title>
<path fill="none" stroke="#9a32cd" stroke-dasharray="5,2" d="M530.1178,-88.6169C570.5943,-86.3361 631.6805,-85.0893 684.0811,-93.1157 703.3444,-96.0663 724.1112,-102.1398 741.2226,-107.9698"/>
<polygon fill="#9a32cd" stroke="#9a32cd" points="529.8042,-85.1294 520.0353,-89.2306 530.2295,-92.1165 529.8042,-85.1294"/>
<text text-anchor="middle" x="624.3203" y="-95.1157" font-family="Helvetica,sans-Serif" font-size="10.00" fill="#000000"> elements</text>
</g>
<!-- Node22&#45;&gt;Node2 -->
<g id="edge31" class="edge">
<title>Node22&#45;&gt;Node2</title>
<path fill="none" stroke="#9a32cd" stroke-dasharray="5,2" d="M1153.9357,-387.7783C1198.0755,-389.4972 1257.2426,-385.1754 1300.4775,-357.1157 1338.9531,-332.1448 1358.0938,-276.3506 1364.3701,-254.3187"/>
<polygon fill="#9a32cd" stroke="#9a32cd" points="1154.072,-384.2808 1143.9091,-387.275 1153.7211,-391.272 1154.072,-384.2808"/>
<text text-anchor="middle" x="1243.2144" y="-389.1157" font-family="Helvetica,sans-Serif" font-size="10.00" fill="#000000"> requiredUnchangeables_</text>
</g>
</g>
</svg>
        <g id="navigator" transform="translate(0 0)" fill="#404254">
                <rect fill="#f2f5e9" fill-opacity="0.5" stroke="#606060" stroke-width=".5" x="0" y="0" width="60" height="60"/>
                <use id="zoomplus" xlink:href="#zoomPlus" x="17" y="9" onmousedown="handleZoom(evt,'in')"/>
                <use id="zoomminus" xlink:href="#zoomMin" x="42" y="9" onmousedown="handleZoom(evt,'out')"/>
                <use id="reset" xlink:href="#resetDef" x="30" y="36" onmousedown="handleReset()"/>
                <g id="arrowUp" xlink:href="#dirArrow" transform="translate(30 24)" onmousedown="handlePan(0,-1)">
                  <use xlink:href="#rim" fill="#404040">
                        <set attributeName="fill" to="#808080" begin="arrowUp.mouseover" end="arrowUp.mouseout"/>
                  </use>
                  <path fill="none" stroke="white" stroke-width="1.5" d="M0,-3.0v7 M-2.5,-0.5L0,-3.0L2.5,-0.5"/>
                </g>
                <g id="arrowRight" xlink:href="#dirArrow" transform="rotate(90) translate(36 -43)" onmousedown="handlePan(1,0)">
                  <use xlink:href="#rim" fill="#404040">
                        <set attributeName="fill" to="#808080" begin="arrowRight.mouseover" end="arrowRight.mouseout"/>
                  </use>
                  <path fill="none" stroke="white" stroke-width="1.5" d="M0,-3.0v7 M-2.5,-0.5L0,-3.0L2.5,-0.5"/>
                </g>
                <g id="arrowDown" xlink:href="#dirArrow" transform="rotate(180) translate(-30 -48)" onmousedown="handlePan(0,1)">
                  <use xlink:href="#rim" fill="#404040">
                        <set attributeName="fill" to="#808080" begin="arrowDown.mouseover" end="arrowDown.mouseout"/>
                  </use>
                  <path fill="none" stroke="white" stroke-width="1.5" d="M0,-3.0v7 M-2.5,-0.5L0,-3.0L2.5,-0.5"/>
                </g>
                <g id="arrowLeft" xlink:href="#dirArrow" transform="rotate(270) translate(-36 17)" onmousedown="handlePan(-1,0)">
                  <use xlink:href="#rim" fill="#404040">
                        <set attributeName="fill" to="#808080" begin="arrowLeft.mouseover" end="arrowLeft.mouseout"/>
                  </use>
                  <path fill="none" stroke="white" stroke-width="1.5" d="M0,-3.0v7 M-2.5,-0.5L0,-3.0L2.5,-0.5"/>
                </g>
        </g>
        <svg viewBox="0 0 15 15" width="100%" height="30px" preserveAspectRatio="xMaxYMin meet">
         <g id="arrow_out" transform="scale(0.3 0.3)">
          <a xlink:href="classindigox_1_1algorithm_1_1_a_star_optimisation__coll__graph_org.svg" target="_base">
           <rect id="button" ry="5" rx="5" y="6" x="6" height="38" width="38"
                fill="#f2f5e9" fill-opacity="0.5" stroke="#606060" stroke-width="1.0"/>
           <path id="arrow"
             d="M 11.500037,31.436501 C 11.940474,20.09759 22.043105,11.32322 32.158766,21.979434 L 37.068811,17.246167 C 37.068811,17.246167 37.088388,32 37.088388,32 L 22.160133,31.978069 C 22.160133,31.978069 26.997745,27.140456 26.997745,27.140456 C 18.528582,18.264221 13.291696,25.230495 11.500037,31.436501 z"
             style="fill:#404040;"/>
          </a>
         </g>
        </svg>
</svg>
