<?xml version="1.0" encoding="UTF-8" standalone="no"?>
<!DOCTYPE svg PUBLIC "-//W3C//DTD SVG 1.1//EN"
 "http://www.w3.org/Graphics/SVG/1.1/DTD/svg11.dtd">
<!-- Generated by graphviz version 2.40.1 (20161225.0304)
 -->
<!-- Title: FPTOptimisation Pages: 1 -->
<svg width="1279pt" height="216pt"
 viewBox="0.00 0.00 1279.27 216.34" xmlns="http://www.w3.org/2000/svg" xmlns:xlink="http://www.w3.org/1999/xlink">
<g id="graph0" class="graph" transform="scale(1 1) rotate(0) translate(4 212.341)">
<title>FPTOptimisation</title>
<polygon fill="#ffffff" stroke="transparent" points="-4,4 -4,-212.341 1275.2734,-212.341 1275.2734,4 -4,4"/>
<!-- Node2 -->
<g id="node1" class="node">
<title>Node2</title>
<polygon fill="#bfbfbf" stroke="#000000" points="1180.9863,-111.341 1180.9863,-129.341 1271.2734,-129.341 1271.2734,-111.341 1180.9863,-111.341"/>
<text text-anchor="middle" x="1226.1299" y="-117.341" font-family="Helvetica,sans-Serif" font-size="10.00" fill="#000000">FPTOptimisation</text>
</g>
<!-- Node3 -->
<g id="node2" class="node">
<title>Node3</title>
<g id="a_node2"><a xlink:href="classindigox_1_1algorithm_1_1_electron_optimisation_algorithm.html" target="_top" xlink:title="ElectronOptimisationAlgorithm">
<polygon fill="#ffffff" stroke="#000000" points="993.4893,-77.341 993.4893,-95.341 1143.9863,-95.341 1143.9863,-77.341 993.4893,-77.341"/>
<text text-anchor="middle" x="1068.7378" y="-83.341" font-family="Helvetica,sans-Serif" font-size="10.00" fill="#000000">ElectronOptimisationAlgorithm</text>
</a>
</g>
</g>
<!-- Node3&#45;&gt;Node2 -->
<g id="edge1" class="edge">
<title>Node3&#45;&gt;Node2</title>
<path fill="none" stroke="#191970" d="M1120.4353,-97.5088C1141.1961,-101.9935 1164.8094,-107.0945 1184.4431,-111.3358"/>
<polygon fill="#191970" stroke="#191970" points="1121.0164,-94.0536 1110.5028,-95.3631 1119.5382,-100.8958 1121.0164,-94.0536"/>
</g>
<!-- Node4 -->
<g id="node3" class="node">
<title>Node4</title>
<g id="a_node3"><a xlink:href="classindigox_1_1_electron_opt.html" target="_top" xlink:title="ElectronOpt">
<polygon fill="#ffffff" stroke="#000000" points="695.9165,-77.341 695.9165,-95.341 764.7192,-95.341 764.7192,-77.341 695.9165,-77.341"/>
<text text-anchor="middle" x="730.3179" y="-83.341" font-family="Helvetica,sans-Serif" font-size="10.00" fill="#000000">ElectronOpt</text>
</a>
</g>
</g>
<!-- Node4&#45;&gt;Node3 -->
<g id="edge2" class="edge">
<title>Node4&#45;&gt;Node3</title>
<path fill="none" stroke="#9a32cd" stroke-dasharray="5,2" d="M775.1794,-86.341C830.7884,-86.341 926.3914,-86.341 993.3433,-86.341"/>
<polygon fill="#9a32cd" stroke="#9a32cd" points="774.9444,-82.8411 764.9443,-86.341 774.9443,-89.8411 774.9444,-82.8411"/>
<text text-anchor="middle" x="899.9526" y="-88.341" font-family="Helvetica,sans-Serif" font-size="10.00" fill="#000000"> parent_</text>
</g>
<!-- Node5 -->
<g id="node4" class="node">
<title>Node5</title>
<polygon fill="#ffffff" stroke="#bfbfbf" points="376.2285,-77.341 376.2285,-105.341 498.6982,-105.341 498.6982,-77.341 376.2285,-77.341"/>
<text text-anchor="start" x="384.2285" y="-93.341" font-family="Helvetica,sans-Serif" font-size="10.00" fill="#000000">unordered_map&lt; uint32</text>
<text text-anchor="middle" x="437.4634" y="-83.341" font-family="Helvetica,sans-Serif" font-size="10.00" fill="#000000">_t, FCSCORE &gt;</text>
</g>
<!-- Node5&#45;&gt;Node4 -->
<g id="edge3" class="edge">
<title>Node5&#45;&gt;Node4</title>
<path fill="none" stroke="#9a32cd" stroke-dasharray="5,2" d="M508.8991,-90.1214C568.133,-89.11 649.7923,-87.7158 695.5781,-86.9341"/>
<polygon fill="#9a32cd" stroke="#9a32cd" points="508.794,-86.6225 498.8553,-90.2928 508.9136,-93.6215 508.794,-86.6225"/>
<text text-anchor="middle" x="576.459" y="-91.341" font-family="Helvetica,sans-Serif" font-size="10.00" fill="#000000"> scores_</text>
</g>
<!-- Node6 -->
<g id="node5" class="node">
<title>Node6</title>
<g id="a_node5"><a xlink:title="STL class. ">
<polygon fill="#ffffff" stroke="#bfbfbf" points="108.3545,-79.341 108.3545,-97.341 230.1797,-97.341 230.1797,-79.341 108.3545,-79.341"/>
<text text-anchor="middle" x="169.2671" y="-85.341" font-family="Helvetica,sans-Serif" font-size="10.00" fill="#000000">unordered_map&lt; K, T &gt;</text>
</a>
</g>
</g>
<!-- Node6&#45;&gt;Node5 -->
<g id="edge4" class="edge">
<title>Node6&#45;&gt;Node5</title>
<path fill="none" stroke="#ffa500" stroke-dasharray="5,2" d="M240.6673,-89.1397C282.8646,-89.6117 335.7508,-90.2033 376.0691,-90.6543"/>
<polygon fill="#ffa500" stroke="#ffa500" points="240.4991,-85.6377 230.4606,-89.0255 240.4208,-92.6372 240.4991,-85.6377"/>
<text text-anchor="middle" x="303.2041" y="-92.341" font-family="Helvetica,sans-Serif" font-size="10.00" fill="#000000"> &lt; uint32_t, FCSCORE &gt;</text>
</g>
<!-- Node7 -->
<g id="node6" class="node">
<title>Node7</title>
<polygon fill="#ffffff" stroke="#bfbfbf" points="0,-170.341 0,-188.341 29,-188.341 29,-170.341 0,-170.341"/>
<text text-anchor="middle" x="14.5" y="-176.341" font-family="Helvetica,sans-Serif" font-size="10.00" fill="#000000">K</text>
</g>
<!-- Node7&#45;&gt;Node6 -->
<g id="edge5" class="edge">
<title>Node7&#45;&gt;Node6</title>
<path fill="none" stroke="#9a32cd" stroke-dasharray="5,2" d="M33.5692,-163.5965C51.9126,-148.9807 80.8399,-127.2885 108.3545,-112.341 119.0413,-106.5353 131.4359,-101.3901 142.2437,-97.3674"/>
<polygon fill="#9a32cd" stroke="#9a32cd" points="31.046,-161.1355 25.4671,-170.1426 35.4452,-166.5805 31.046,-161.1355"/>
<text text-anchor="middle" x="68.6772" y="-153.341" font-family="Helvetica,sans-Serif" font-size="10.00" fill="#000000"> keys</text>
</g>
<!-- Node12 -->
<g id="node11" class="node">
<title>Node12</title>
<g id="a_node11"><a xlink:title="STL class. ">
<polygon fill="#ffffff" stroke="#bfbfbf" points="402.127,-152.341 402.127,-170.341 472.7998,-170.341 472.7998,-152.341 402.127,-152.341"/>
<text text-anchor="middle" x="437.4634" y="-158.341" font-family="Helvetica,sans-Serif" font-size="10.00" fill="#000000">map&lt; K, T &gt;</text>
</a>
</g>
</g>
<!-- Node7&#45;&gt;Node12 -->
<g id="edge12" class="edge">
<title>Node7&#45;&gt;Node12</title>
<path fill="none" stroke="#9a32cd" stroke-dasharray="5,2" d="M39.3667,-178.2828C111.0998,-175.23 318.593,-166.3998 402.0649,-162.8475"/>
<polygon fill="#9a32cd" stroke="#9a32cd" points="38.9015,-174.7993 29.0594,-178.7214 39.1992,-181.793 38.9015,-174.7993"/>
<text text-anchor="middle" x="169.2671" y="-176.341" font-family="Helvetica,sans-Serif" font-size="10.00" fill="#000000"> keys</text>
</g>
<!-- Node8 -->
<g id="node7" class="node">
<title>Node8</title>
<polygon fill="#ffffff" stroke="#bfbfbf" points="0,-79.341 0,-97.341 29,-97.341 29,-79.341 0,-79.341"/>
<text text-anchor="middle" x="14.5" y="-85.341" font-family="Helvetica,sans-Serif" font-size="10.00" fill="#000000">T</text>
</g>
<!-- Node8&#45;&gt;Node6 -->
<g id="edge6" class="edge">
<title>Node8&#45;&gt;Node6</title>
<path fill="none" stroke="#9a32cd" stroke-dasharray="5,2" d="M39.3012,-88.341C57.8974,-88.341 84.1812,-88.341 108.2509,-88.341"/>
<polygon fill="#9a32cd" stroke="#9a32cd" points="39.0601,-84.8411 29.0601,-88.341 39.0601,-91.8411 39.0601,-84.8411"/>
<text text-anchor="middle" x="68.6772" y="-90.341" font-family="Helvetica,sans-Serif" font-size="10.00" fill="#000000"> elements</text>
</g>
<!-- Node10 -->
<g id="node9" class="node">
<title>Node10</title>
<g id="a_node9"><a xlink:title="STL class. ">
<polygon fill="#ffffff" stroke="#bfbfbf" points="136.1548,-39.341 136.1548,-57.341 202.3794,-57.341 202.3794,-39.341 136.1548,-39.341"/>
<text text-anchor="middle" x="169.2671" y="-45.341" font-family="Helvetica,sans-Serif" font-size="10.00" fill="#000000">vector&lt; T &gt;</text>
</a>
</g>
</g>
<!-- Node8&#45;&gt;Node10 -->
<g id="edge9" class="edge">
<title>Node8&#45;&gt;Node10</title>
<path fill="none" stroke="#9a32cd" stroke-dasharray="5,2" d="M38.469,-77.3912C41.3138,-76.2783 44.2009,-75.2319 47,-74.341 76.5716,-64.9291 111.2568,-57.9194 136.1156,-53.5649"/>
<polygon fill="#9a32cd" stroke="#9a32cd" points="37.0176,-74.2045 29.1504,-81.3008 39.7258,-80.6594 37.0176,-74.2045"/>
<text text-anchor="middle" x="68.6772" y="-76.341" font-family="Helvetica,sans-Serif" font-size="10.00" fill="#000000"> elements</text>
</g>
<!-- Node8&#45;&gt;Node12 -->
<g id="edge13" class="edge">
<title>Node8&#45;&gt;Node12</title>
<path fill="none" stroke="#9a32cd" stroke-dasharray="5,2" d="M38.4188,-99.457C41.2726,-100.5399 44.1757,-101.5339 47,-102.341 174.7187,-138.8401 332.7709,-153.8868 402.0842,-159.0463"/>
<polygon fill="#9a32cd" stroke="#9a32cd" points="39.6691,-96.1863 29.0919,-95.5752 36.9793,-102.649 39.6691,-96.1863"/>
<text text-anchor="middle" x="169.2671" y="-141.341" font-family="Helvetica,sans-Serif" font-size="10.00" fill="#000000"> elements</text>
</g>
<!-- Node9 -->
<g id="node8" class="node">
<title>Node9</title>
<polygon fill="#ffffff" stroke="#bfbfbf" points="381.3848,-1.341 381.3848,-19.341 493.542,-19.341 493.542,-1.341 381.3848,-1.341"/>
<text text-anchor="middle" x="437.4634" y="-7.341" font-family="Helvetica,sans-Serif" font-size="10.00" fill="#000000">vector&lt; MolVertPair &gt;</text>
</g>
<!-- Node9&#45;&gt;Node2 -->
<g id="edge20" class="edge">
<title>Node9&#45;&gt;Node2</title>
<path fill="none" stroke="#9a32cd" stroke-dasharray="5,2" d="M503.8423,-3.1443C508.1894,-2.8259 512.5039,-2.5522 516.6982,-2.341 569.7517,.3305 583.2046,1.0053 636.2197,-2.341 863.3402,-16.6766 930.2118,9.6953 1143.9863,-68.341 1171.8911,-78.5274 1200.2525,-99.2856 1215.2533,-111.2647"/>
<polygon fill="#9a32cd" stroke="#9a32cd" points="503.369,.329 493.6811,-3.96 503.9292,-6.6485 503.369,.329"/>
<text text-anchor="middle" x="899.9526" y="-23.341" font-family="Helvetica,sans-Serif" font-size="10.00" fill="#000000"> possibleStates_</text>
</g>
<!-- Node9&#45;&gt;Node4 -->
<g id="edge7" class="edge">
<title>Node9&#45;&gt;Node4</title>
<path fill="none" stroke="#9a32cd" stroke-dasharray="5,2" d="M503.6616,-6.3416C553.0372,-4.6914 615.3945,-5.8451 636.2197,-20.341 652.888,-31.9434 639.1637,-48.7116 654.2197,-62.341 665.6194,-72.6605 681.4401,-78.5432 695.7049,-81.8964"/>
<polygon fill="#9a32cd" stroke="#9a32cd" points="503.5202,-2.8443 493.6594,-6.7191 503.7843,-9.8394 503.5202,-2.8443"/>
<text text-anchor="middle" x="576.459" y="-22.341" font-family="Helvetica,sans-Serif" font-size="10.00" fill="#000000"> possibleLocations_</text>
</g>
<!-- Node10&#45;&gt;Node9 -->
<g id="edge8" class="edge">
<title>Node10&#45;&gt;Node9</title>
<path fill="none" stroke="#ffa500" stroke-dasharray="5,2" d="M195.7255,-34.8671C210.7059,-27.9474 230.0267,-20.1811 248.1797,-16.341 292.2477,-7.0188 343.3585,-5.9559 381.3534,-6.9821"/>
<polygon fill="#ffa500" stroke="#ffa500" points="194.0795,-31.7745 186.564,-39.2423 197.0961,-38.0912 194.0795,-31.7745"/>
<text text-anchor="middle" x="303.2041" y="-18.341" font-family="Helvetica,sans-Serif" font-size="10.00" fill="#000000"> &lt; MolVertPair &gt;</text>
</g>
<!-- Node13 -->
<g id="node12" class="node">
<title>Node13</title>
<polygon fill="#ffffff" stroke="#bfbfbf" points="522.043,-36.341 522.043,-64.341 630.875,-64.341 630.875,-36.341 522.043,-36.341"/>
<text text-anchor="start" x="530.043" y="-52.341" font-family="Helvetica,sans-Serif" font-size="10.00" fill="#000000">vector&lt; std::pair&lt;</text>
<text text-anchor="middle" x="576.459" y="-42.341" font-family="Helvetica,sans-Serif" font-size="10.00" fill="#000000"> ElnDist, uint32_t &gt; &gt;</text>
</g>
<!-- Node10&#45;&gt;Node13 -->
<g id="edge15" class="edge">
<title>Node10&#45;&gt;Node13</title>
<path fill="none" stroke="#ffa500" stroke-dasharray="5,2" d="M212.5976,-48.5538C287.3136,-48.9208 440.2221,-49.6719 522.007,-50.0736"/>
<polygon fill="#ffa500" stroke="#ffa500" points="212.6064,-45.0539 202.5893,-48.5047 212.572,-52.0538 212.6064,-45.0539"/>
<text text-anchor="start" x="258.1846" y="-60.341" font-family="Helvetica,sans-Serif" font-size="10.00" fill="#000000"> &lt; std::pair&lt; ElnDist,</text>
<text text-anchor="middle" x="303.2041" y="-50.341" font-family="Helvetica,sans-Serif" font-size="10.00" fill="#000000"> uint32_t &gt; &gt;</text>
</g>
<!-- Node11 -->
<g id="node10" class="node">
<title>Node11</title>
<polygon fill="#ffffff" stroke="#bfbfbf" points="654.2197,-114.341 654.2197,-132.341 806.416,-132.341 806.416,-114.341 654.2197,-114.341"/>
<text text-anchor="middle" x="730.3179" y="-120.341" font-family="Helvetica,sans-Serif" font-size="10.00" fill="#000000">map&lt; MolVertPair, ElnVertex &gt;</text>
</g>
<!-- Node11&#45;&gt;Node3 -->
<g id="edge10" class="edge">
<title>Node11&#45;&gt;Node3</title>
<path fill="none" stroke="#9a32cd" stroke-dasharray="5,2" d="M816.7804,-116.4086C863.7882,-112.3429 922.9059,-106.7498 975.4893,-100.341 987.3519,-98.8952 1000.0315,-97.1356 1012.0976,-95.3586"/>
<polygon fill="#9a32cd" stroke="#9a32cd" points="816.3001,-112.9368 806.6358,-117.2786 816.8983,-119.9112 816.3001,-112.9368"/>
<text text-anchor="middle" x="899.9526" y="-116.341" font-family="Helvetica,sans-Serif" font-size="10.00" fill="#000000"> mvp2ev_</text>
</g>
<!-- Node12&#45;&gt;Node11 -->
<g id="edge11" class="edge">
<title>Node12&#45;&gt;Node11</title>
<path fill="none" stroke="#ffa500" stroke-dasharray="5,2" d="M464.0305,-147.8419C479.0723,-140.9144 498.472,-133.1488 516.6982,-129.341 561.5501,-119.9706 612.8428,-118.2448 653.9235,-118.9685"/>
<polygon fill="#ffa500" stroke="#ffa500" points="462.3548,-144.7633 454.8314,-152.2232 465.3647,-151.0831 462.3548,-144.7633"/>
<text text-anchor="middle" x="576.459" y="-131.341" font-family="Helvetica,sans-Serif" font-size="10.00" fill="#000000"> &lt; MolVertPair, ElnVertex &gt;</text>
</g>
<!-- Node14 -->
<g id="node13" class="node">
<title>Node14</title>
<polygon fill="#ffffff" stroke="#bfbfbf" points="824.416,-139.341 824.416,-157.341 975.4893,-157.341 975.4893,-139.341 824.416,-139.341"/>
<text text-anchor="middle" x="899.9526" y="-145.341" font-family="Helvetica,sans-Serif" font-size="10.00" fill="#000000">map&lt; MolVertPair, VertMask &gt;</text>
</g>
<!-- Node12&#45;&gt;Node14 -->
<g id="edge17" class="edge">
<title>Node12&#45;&gt;Node14</title>
<path fill="none" stroke="#ffa500" stroke-dasharray="5,2" d="M483.1664,-160.0563C562.6655,-157.8217 727.1617,-153.1979 824.0301,-150.4751"/>
<polygon fill="#ffa500" stroke="#ffa500" points="482.8839,-156.5628 472.9862,-160.3425 483.0806,-163.56 482.8839,-156.5628"/>
<text text-anchor="middle" x="576.459" y="-160.341" font-family="Helvetica,sans-Serif" font-size="10.00" fill="#000000"> &lt; MolVertPair, VertMask &gt;</text>
</g>
<!-- Node15 -->
<g id="node14" class="node">
<title>Node15</title>
<polygon fill="#ffffff" stroke="#bfbfbf" points="828.5908,-163.341 828.5908,-201.341 971.3145,-201.341 971.3145,-163.341 828.5908,-163.341"/>
<text text-anchor="start" x="836.5908" y="-189.341" font-family="Helvetica,sans-Serif" font-size="10.00" fill="#000000">map&lt; NTDVertex, std</text>
<text text-anchor="start" x="836.5908" y="-179.341" font-family="Helvetica,sans-Serif" font-size="10.00" fill="#000000">::shared_ptr&lt; indigox</text>
<text text-anchor="middle" x="899.9526" y="-169.341" font-family="Helvetica,sans-Serif" font-size="10.00" fill="#000000">::algorithm::TDVertScore &gt; &gt;</text>
</g>
<!-- Node12&#45;&gt;Node15 -->
<g id="edge19" class="edge">
<title>Node12&#45;&gt;Node15</title>
<path fill="none" stroke="#ffa500" stroke-dasharray="5,2" d="M482.7762,-168.5204C493.8465,-170.0285 505.6771,-171.4351 516.6982,-172.341 625.1578,-181.2565 751.4074,-182.8628 828.4821,-182.8597"/>
<polygon fill="#ffa500" stroke="#ffa500" points="483.2601,-165.0541 472.8683,-167.1183 482.2792,-171.985 483.2601,-165.0541"/>
<text text-anchor="start" x="518.793" y="-200.341" font-family="Helvetica,sans-Serif" font-size="10.00" fill="#000000"> &lt; NTDVertex, std::shared</text>
<text text-anchor="start" x="518.793" y="-190.341" font-family="Helvetica,sans-Serif" font-size="10.00" fill="#000000">_ptr&lt; indigox::algorithm</text>
<text text-anchor="middle" x="576.459" y="-180.341" font-family="Helvetica,sans-Serif" font-size="10.00" fill="#000000">::TDVertScore &gt; &gt;</text>
</g>
<!-- Node13&#45;&gt;Node3 -->
<g id="edge14" class="edge">
<title>Node13&#45;&gt;Node3</title>
<path fill="none" stroke="#9a32cd" stroke-dasharray="5,2" d="M641.0342,-51.3534C687.1597,-52.3778 750.6617,-54.4007 806.416,-58.341 871.1769,-62.9179 944.647,-71.0109 997.326,-77.323"/>
<polygon fill="#9a32cd" stroke="#9a32cd" points="640.9499,-47.8509 630.8778,-51.1377 640.8012,-54.8494 640.9499,-47.8509"/>
<text text-anchor="middle" x="730.3179" y="-60.341" font-family="Helvetica,sans-Serif" font-size="10.00" fill="#000000"> minDistributions_</text>
</g>
<!-- Node14&#45;&gt;Node2 -->
<g id="edge16" class="edge">
<title>Node14&#45;&gt;Node2</title>
<path fill="none" stroke="#9a32cd" stroke-dasharray="5,2" d="M985.8377,-140.9684C1048.2582,-135.61 1130.293,-128.5679 1180.5618,-124.2527"/>
<polygon fill="#9a32cd" stroke="#9a32cd" points="985.2681,-137.5043 975.6041,-141.8469 985.8668,-144.4787 985.2681,-137.5043"/>
<text text-anchor="middle" x="1068.7378" y="-141.341" font-family="Helvetica,sans-Serif" font-size="10.00" fill="#000000"> pairMasks_</text>
</g>
<!-- Node15&#45;&gt;Node2 -->
<g id="edge18" class="edge">
<title>Node15&#45;&gt;Node2</title>
<path fill="none" stroke="#9a32cd" stroke-dasharray="5,2" d="M981.3513,-178.0553C1029.2691,-174.204 1090.7291,-166.9478 1143.9863,-153.341 1166.6199,-147.5583 1191.3349,-137.0088 1207.6804,-129.3916"/>
<polygon fill="#9a32cd" stroke="#9a32cd" points="981.0412,-174.5687 971.3396,-178.8265 981.5789,-181.5481 981.0412,-174.5687"/>
<text text-anchor="middle" x="1068.7378" y="-178.341" font-family="Helvetica,sans-Serif" font-size="10.00" fill="#000000"> scorematrices_</text>
</g>
</g>
</svg>
