<?xml version="1.0" encoding="UTF-8" standalone="no"?>
<!DOCTYPE svg PUBLIC "-//W3C//DTD SVG 1.1//EN"
 "http://www.w3.org/Graphics/SVG/1.1/DTD/svg11.dtd">
<!-- Generated by graphviz version 2.40.1 (20161225.0304)
 -->
<!-- Title: CondensedMolecularGraph Pages: 1 -->
<svg width="224pt" height="188pt"
 viewBox="0.00 0.00 224.45 188.00" xmlns="http://www.w3.org/2000/svg" xmlns:xlink="http://www.w3.org/1999/xlink">
<g id="graph0" class="graph" transform="scale(1 1) rotate(0) translate(4 184)">
<title>CondensedMolecularGraph</title>
<polygon fill="#ffffff" stroke="transparent" points="-4,4 -4,-184 220.4521,-184 220.4521,4 -4,4"/>
<!-- Node3 -->
<g id="node1" class="node">
<title>Node3</title>
<polygon fill="#bfbfbf" stroke="#000000" points="13.6133,-.5 13.6133,-18.5 151.9082,-18.5 151.9082,-.5 13.6133,-.5"/>
<text text-anchor="middle" x="82.7607" y="-6.5" font-family="Helvetica,sans-Serif" font-size="10.00" fill="#000000">CondensedMolecularGraph</text>
</g>
<!-- Node4 -->
<g id="node2" class="node">
<title>Node4</title>
<g id="a_node2"><a xlink:href="classindigox_1_1graph_1_1_base_graph.html" target="_top" xlink:title="BaseGraph\&lt; CMGVertex,\l CMGEdge, CondensedMolecular\lGraph \&gt;">
<polygon fill="#ffffff" stroke="#000000" points="0,-56.5 0,-94.5 165.5215,-94.5 165.5215,-56.5 0,-56.5"/>
<text text-anchor="start" x="8" y="-82.5" font-family="Helvetica,sans-Serif" font-size="10.00" fill="#000000">BaseGraph&lt; CMGVertex,</text>
<text text-anchor="start" x="8" y="-72.5" font-family="Helvetica,sans-Serif" font-size="10.00" fill="#000000"> CMGEdge, CondensedMolecular</text>
<text text-anchor="middle" x="82.7607" y="-62.5" font-family="Helvetica,sans-Serif" font-size="10.00" fill="#000000">Graph &gt;</text>
</a>
</g>
</g>
<!-- Node4&#45;&gt;Node3 -->
<g id="edge1" class="edge">
<title>Node4&#45;&gt;Node3</title>
<path fill="none" stroke="#191970" d="M82.7607,-46.3904C82.7607,-36.4627 82.7607,-26.0588 82.7607,-18.8402"/>
<polygon fill="#191970" stroke="#191970" points="79.2608,-46.41 82.7607,-56.4101 86.2608,-46.4101 79.2608,-46.41"/>
</g>
<!-- Node5 -->
<g id="node3" class="node">
<title>Node5</title>
<g id="a_node3"><a xlink:href="classindigox_1_1graph_1_1_base_graph.html" target="_top" xlink:title="Template base class for all graphs used in the indigoX library. ">
<polygon fill="#ffffff" stroke="#000000" points="28.667,-151.5 28.667,-179.5 136.8545,-179.5 136.8545,-151.5 28.667,-151.5"/>
<text text-anchor="start" x="36.667" y="-167.5" font-family="Helvetica,sans-Serif" font-size="10.00" fill="#000000">BaseGraph&lt; V, E, S,</text>
<text text-anchor="middle" x="82.7607" y="-157.5" font-family="Helvetica,sans-Serif" font-size="10.00" fill="#000000"> D, VP, EP &gt;</text>
</a>
</g>
</g>
<!-- Node5&#45;&gt;Node4 -->
<g id="edge2" class="edge">
<title>Node5&#45;&gt;Node4</title>
<path fill="none" stroke="#ffa500" stroke-dasharray="5,2" d="M82.7607,-141.1632C82.7607,-126.6073 82.7607,-108.367 82.7607,-94.8073"/>
<polygon fill="#ffa500" stroke="#ffa500" points="79.2608,-141.4375 82.7607,-151.4375 86.2608,-141.4375 79.2608,-141.4375"/>
<text text-anchor="start" x="82.7607" y="-125" font-family="Helvetica,sans-Serif" font-size="10.00" fill="#000000"> &lt; CMGVertex, CMGEdge,</text>
<text text-anchor="middle" x="149.6064" y="-115" font-family="Helvetica,sans-Serif" font-size="10.00" fill="#000000"> CondensedMolecularGraph &gt;</text>
</g>
</g>
</svg>
