<?xml version="1.0" encoding="UTF-8" standalone="no"?>
<!DOCTYPE svg PUBLIC "-//W3C//DTD SVG 1.1//EN"
 "http://www.w3.org/Graphics/SVG/1.1/DTD/svg11.dtd">
<!-- Generated by graphviz version 2.40.1 (20161225.0304)
 -->
<!-- Title: IXElectronAssigner Pages: 1 -->
<!--zoomable 267 -->
<svg id="main" version="1.1" xmlns="http://www.w3.org/2000/svg" xmlns:xlink="http://www.w3.org/1999/xlink" xml:space="preserve" onload="init(evt)">
<style type="text/css"><![CDATA[
.edge:hover path { stroke: red; }
.edge:hover polygon { stroke: red; fill: red; }
]]></style>
<script type="text/javascript"><![CDATA[
var edges = document.getElementsByTagName('g');
if (edges && edges.length) {
  for (var i=0;i<edges.length;i++) {
    if (edges[i].id.substr(0,4)=='edge') {
      edges[i].setAttribute('class','edge');
    }
  }
}
]]></script>
        <defs>
                <circle id="rim" cx="0" cy="0" r="7"/>
                <circle id="rim2" cx="0" cy="0" r="3.5"/>
                <g id="zoomPlus">
                        <use xlink:href="#rim" fill="#404040">
                                <set attributeName="fill" to="#808080" begin="zoomplus.mouseover" end="zoomplus.mouseout"/>
                        </use>
                        <path d="M-4,0h8M0,-4v8" fill="none" stroke="white" stroke-width="1.5" pointer-events="none"/>
                </g>
                <g id="zoomMin">
                        <use xlink:href="#rim" fill="#404040">
                                <set attributeName="fill" to="#808080" begin="zoomminus.mouseover" end="zoomminus.mouseout"/>
                        </use>
                        <path d="M-4,0h8" fill="none" stroke="white" stroke-width="1.5" pointer-events="none"/>
                </g>
                <g id="dirArrow">
                        <path fill="none" stroke="white" stroke-width="1.5" d="M0,-3.0v7 M-2.5,-0.5L0,-3.0L2.5,-0.5"/>
                </g>
               <g id="resetDef">
                       <use xlink:href="#rim2" fill="#404040">
                               <set attributeName="fill" to="#808080" begin="reset.mouseover" end="reset.mouseout"/>
                       </use>
               </g>
        </defs>

<script type="text/javascript">
var viewWidth = 1186;
var viewHeight = 267;
var sectionId = 'dynsection-0';
</script>
<script xlink:href="svgpan.js"/>
<svg id="graph" class="graph">
<g id="viewport">
<title>IXElectronAssigner</title>
<polygon fill="#ffffff" stroke="transparent" points="-4,4 -4,-263 1182.2275,-263 1182.2275,4 -4,4"/>
<!-- Node1 -->
<g id="node1" class="node">
<title>Node1</title>
<polygon fill="#bfbfbf" stroke="#000000" points="1077.1885,-81.5 1077.1885,-99.5 1178.2275,-99.5 1178.2275,-81.5 1077.1885,-81.5"/>
<text text-anchor="middle" x="1127.708" y="-87.5" font-family="Helvetica,sans-Serif" font-size="10.00" fill="#000000">IXElectronAssigner</text>
</g>
<!-- Node2 -->
<g id="node2" class="node">
<title>Node2</title>
<polygon fill="#ffffff" stroke="#bfbfbf" points="697.1602,-155.5 697.1602,-173.5 812.1006,-173.5 812.1006,-155.5 697.1602,-155.5"/>
<text text-anchor="middle" x="754.6304" y="-161.5" font-family="Helvetica,sans-Serif" font-size="10.00" fill="#000000">map&lt; key_t, score_t &gt;</text>
</g>
<!-- Node2&#45;&gt;Node1 -->
<g id="edge1" class="edge">
<title>Node2&#45;&gt;Node1</title>
<path fill="none" stroke="#9a32cd" stroke-dasharray="5,2" d="M810.9241,-153.5327C872.0662,-141.5921 972.5996,-121.875 1059.1885,-104.5 1067.1643,-102.8996 1075.6586,-101.1779 1083.8538,-99.5081"/>
<polygon fill="#9a32cd" stroke="#9a32cd" points="810.2323,-150.1016 801.0882,-155.4528 811.5736,-156.9719 810.2323,-150.1016"/>
<text text-anchor="middle" x="906.7407" y="-151.5" font-family="Helvetica,sans-Serif" font-size="10.00" fill="#000000"> _table</text>
</g>
<!-- Node3 -->
<g id="node3" class="node">
<title>Node3</title>
<g id="a_node3"><a xlink:title="STL class. ">
<polygon fill="#ffffff" stroke="#bfbfbf" points="343.9775,-214.5 343.9775,-232.5 414.6504,-232.5 414.6504,-214.5 343.9775,-214.5"/>
<text text-anchor="middle" x="379.314" y="-220.5" font-family="Helvetica,sans-Serif" font-size="10.00" fill="#000000">map&lt; K, T &gt;</text>
</a>
</g>
</g>
<!-- Node3&#45;&gt;Node2 -->
<g id="edge2" class="edge">
<title>Node3&#45;&gt;Node2</title>
<path fill="none" stroke="#ffa500" stroke-dasharray="5,2" d="M424.933,-222.0382C460.5457,-220.4367 511.1842,-217.1481 555.1113,-210.5 614.8615,-201.4571 683.2397,-184.1393 722.4382,-173.5244"/>
<polygon fill="#ffa500" stroke="#ffa500" points="424.6901,-218.5452 414.847,-222.4647 424.9859,-225.539 424.6901,-218.5452"/>
<text text-anchor="middle" x="509.8135" y="-221.5" font-family="Helvetica,sans-Serif" font-size="10.00" fill="#000000"> &lt; key_t, score_t &gt;</text>
</g>
<!-- Node7 -->
<g id="node7" class="node">
<title>Node7</title>
<g id="a_node7"><a xlink:href="classindigox_1_1algorithm_1_1_i_x_electron_assigner_1_1_assign_algorithm.html" target="_top" xlink:title="Base class for an electron assignment algorithm. ">
<polygon fill="#ffffff" stroke="#000000" points="582.0103,-124.5 582.0103,-142.5 670.2612,-142.5 670.2612,-124.5 582.0103,-124.5"/>
<text text-anchor="middle" x="626.1357" y="-130.5" font-family="Helvetica,sans-Serif" font-size="10.00" fill="#000000">AssignAlgorithm</text>
</a>
</g>
</g>
<!-- Node3&#45;&gt;Node7 -->
<g id="edge7" class="edge">
<title>Node3&#45;&gt;Node7</title>
<path fill="none" stroke="#9a32cd" stroke-dasharray="5,2" d="M422.7054,-211.7569C466.5506,-199.6956 531.141,-181.3373 555.1113,-171.5 575.2937,-163.2172 597.2529,-150.9183 611.3289,-142.5735"/>
<polygon fill="#9a32cd" stroke="#9a32cd" points="421.5852,-208.4348 412.8661,-214.4538 423.4357,-215.1858 421.5852,-208.4348"/>
<text text-anchor="middle" x="509.8135" y="-201.5" font-family="Helvetica,sans-Serif" font-size="10.00" fill="#000000"> _table</text>
</g>
<!-- Node4 -->
<g id="node4" class="node">
<title>Node4</title>
<polygon fill="#ffffff" stroke="#bfbfbf" points="130.7583,-240.5 130.7583,-258.5 159.7583,-258.5 159.7583,-240.5 130.7583,-240.5"/>
<text text-anchor="middle" x="145.2583" y="-246.5" font-family="Helvetica,sans-Serif" font-size="10.00" fill="#000000">K</text>
</g>
<!-- Node4&#45;&gt;Node3 -->
<g id="edge3" class="edge">
<title>Node4&#45;&gt;Node3</title>
<path fill="none" stroke="#9a32cd" stroke-dasharray="5,2" d="M169.9703,-246.7549C211.5434,-242.1367 295.623,-232.7968 343.6128,-227.4659"/>
<polygon fill="#9a32cd" stroke="#9a32cd" points="169.4519,-243.2908 159.8995,-247.8736 170.2248,-250.248 169.4519,-243.2908"/>
<text text-anchor="middle" x="247.1372" y="-244.5" font-family="Helvetica,sans-Serif" font-size="10.00" fill="#000000"> keys</text>
</g>
<!-- Node5 -->
<g id="node5" class="node">
<title>Node5</title>
<polygon fill="#ffffff" stroke="#bfbfbf" points="0,-111.5 0,-129.5 29,-129.5 29,-111.5 0,-111.5"/>
<text text-anchor="middle" x="14.5" y="-117.5" font-family="Helvetica,sans-Serif" font-size="10.00" fill="#000000">T</text>
</g>
<!-- Node5&#45;&gt;Node3 -->
<g id="edge4" class="edge">
<title>Node5&#45;&gt;Node3</title>
<path fill="none" stroke="#9a32cd" stroke-dasharray="5,2" d="M32.474,-136.1785C50.4146,-150.9086 79.4102,-172.3113 108.3545,-183.5 188.6333,-214.5326 290.8436,-221.6789 343.8421,-223.2026"/>
<polygon fill="#9a32cd" stroke="#9a32cd" points="34.509,-133.3167 24.6035,-129.5574 30.0027,-138.6733 34.509,-133.3167"/>
<text text-anchor="middle" x="145.2583" y="-206.5" font-family="Helvetica,sans-Serif" font-size="10.00" fill="#000000"> elements</text>
</g>
<!-- Node11 -->
<g id="node11" class="node">
<title>Node11</title>
<g id="a_node11"><a xlink:title="STL class. ">
<polygon fill="#ffffff" stroke="#bfbfbf" points="112.146,-111.5 112.146,-129.5 178.3706,-129.5 178.3706,-111.5 112.146,-111.5"/>
<text text-anchor="middle" x="145.2583" y="-117.5" font-family="Helvetica,sans-Serif" font-size="10.00" fill="#000000">vector&lt; T &gt;</text>
</a>
</g>
</g>
<!-- Node5&#45;&gt;Node11 -->
<g id="edge12" class="edge">
<title>Node5&#45;&gt;Node11</title>
<path fill="none" stroke="#9a32cd" stroke-dasharray="5,2" d="M39.4121,-120.5C60.0272,-120.5 89.4894,-120.5 112.0981,-120.5"/>
<polygon fill="#9a32cd" stroke="#9a32cd" points="39.2455,-117.0001 29.2455,-120.5 39.2454,-124.0001 39.2455,-117.0001"/>
<text text-anchor="middle" x="68.6772" y="-122.5" font-family="Helvetica,sans-Serif" font-size="10.00" fill="#000000"> elements</text>
</g>
<!-- Node13 -->
<g id="node13" class="node">
<title>Node13</title>
<g id="a_node13"><a xlink:title="STL class. ">
<polygon fill="#ffffff" stroke="#bfbfbf" points="204.0103,-47.5 204.0103,-65.5 290.2642,-65.5 290.2642,-47.5 204.0103,-47.5"/>
<text text-anchor="middle" x="247.1372" y="-53.5" font-family="Helvetica,sans-Serif" font-size="10.00" fill="#000000">unique_ptr&lt; T &gt;</text>
</a>
</g>
</g>
<!-- Node5&#45;&gt;Node13 -->
<g id="edge16" class="edge">
<title>Node5&#45;&gt;Node13</title>
<path fill="none" stroke="#9a32cd" stroke-dasharray="5,2" d="M38.5011,-109.6479C41.34,-108.5174 44.2171,-107.4401 47,-106.5 100.1007,-88.5616 163.0732,-73.8696 204.0028,-65.1587"/>
<polygon fill="#9a32cd" stroke="#9a32cd" points="37.043,-106.4642 29.1878,-113.5738 39.7621,-112.9145 37.043,-106.4642"/>
<text text-anchor="middle" x="68.6772" y="-108.5" font-family="Helvetica,sans-Serif" font-size="10.00" fill="#000000"> ptr</text>
</g>
<!-- Node6 -->
<g id="node6" class="node">
<title>Node6</title>
<polygon fill="#ffffff" stroke="#bfbfbf" points="830.1006,-71.5 830.1006,-109.5 983.3809,-109.5 983.3809,-71.5 830.1006,-71.5"/>
<text text-anchor="start" x="838.1006" y="-97.5" font-family="Helvetica,sans-Serif" font-size="10.00" fill="#000000">unique_ptr&lt; indigox</text>
<text text-anchor="start" x="838.1006" y="-87.5" font-family="Helvetica,sans-Serif" font-size="10.00" fill="#000000">::algorithm::IXElectronAssigner</text>
<text text-anchor="middle" x="906.7407" y="-77.5" font-family="Helvetica,sans-Serif" font-size="10.00" fill="#000000">::AssignAlgorithm &gt;</text>
</g>
<!-- Node6&#45;&gt;Node1 -->
<g id="edge5" class="edge">
<title>Node6&#45;&gt;Node1</title>
<path fill="none" stroke="#9a32cd" stroke-dasharray="5,2" d="M993.7153,-90.5C1022.007,-90.5 1052.4554,-90.5 1077.1663,-90.5"/>
<polygon fill="#9a32cd" stroke="#9a32cd" points="993.4043,-87.0001 983.4042,-90.5 993.4042,-94.0001 993.4043,-87.0001"/>
<text text-anchor="middle" x="1030.2847" y="-92.5" font-family="Helvetica,sans-Serif" font-size="10.00" fill="#000000"> _algo</text>
</g>
<!-- Node7&#45;&gt;Node6 -->
<g id="edge6" class="edge">
<title>Node7&#45;&gt;Node6</title>
<path fill="none" stroke="#9a32cd" stroke-dasharray="5,2" d="M680.4415,-125.1782C722.967,-118.6616 782.6512,-109.5155 830.049,-102.2523"/>
<polygon fill="#9a32cd" stroke="#9a32cd" points="679.6434,-121.7595 670.289,-126.7339 680.7038,-128.6788 679.6434,-121.7595"/>
<text text-anchor="middle" x="754.6304" y="-124.5" font-family="Helvetica,sans-Serif" font-size="10.00" fill="#000000"> ptr</text>
</g>
<!-- Node8 -->
<g id="node8" class="node">
<title>Node8</title>
<polygon fill="#ffffff" stroke="#bfbfbf" points="323.2256,-159.5 323.2256,-177.5 435.4023,-177.5 435.4023,-159.5 323.2256,-159.5"/>
<text text-anchor="middle" x="379.314" y="-165.5" font-family="Helvetica,sans-Serif" font-size="10.00" fill="#000000">bitset&lt; __num_opts &gt;</text>
</g>
<!-- Node8&#45;&gt;Node7 -->
<g id="edge8" class="edge">
<title>Node8&#45;&gt;Node7</title>
<path fill="none" stroke="#9a32cd" stroke-dasharray="5,2" d="M445.5369,-159.7453C478.493,-155.3157 518.9238,-149.772 555.1113,-144.5 563.7544,-143.2408 572.9812,-141.8478 581.8262,-140.4883"/>
<polygon fill="#9a32cd" stroke="#9a32cd" points="445.0083,-156.2848 435.5621,-161.0827 445.9386,-163.2227 445.0083,-156.2848"/>
<text text-anchor="middle" x="509.8135" y="-159.5" font-family="Helvetica,sans-Serif" font-size="10.00" fill="#000000"> _opts</text>
</g>
<!-- Node9 -->
<g id="node9" class="node">
<title>Node9</title>
<g id="a_node9"><a xlink:title="STL class. ">
<polygon fill="#ffffff" stroke="#bfbfbf" points="108.3545,-156.5 108.3545,-174.5 182.1621,-174.5 182.1621,-156.5 108.3545,-156.5"/>
<text text-anchor="middle" x="145.2583" y="-162.5" font-family="Helvetica,sans-Serif" font-size="10.00" fill="#000000">bitset&lt; Bits &gt;</text>
</a>
</g>
</g>
<!-- Node9&#45;&gt;Node8 -->
<g id="edge9" class="edge">
<title>Node9&#45;&gt;Node8</title>
<path fill="none" stroke="#ffa500" stroke-dasharray="5,2" d="M192.5665,-166.1064C230.322,-166.5903 283.3134,-167.2695 323.2076,-167.7809"/>
<polygon fill="#ffa500" stroke="#ffa500" points="192.3892,-162.6039 182.3451,-165.9754 192.2994,-169.6033 192.3892,-162.6039"/>
<text text-anchor="middle" x="247.1372" y="-169.5" font-family="Helvetica,sans-Serif" font-size="10.00" fill="#000000"> &lt; __num_opts &gt;</text>
</g>
<!-- Node10 -->
<g id="node10" class="node">
<title>Node10</title>
<polygon fill="#ffffff" stroke="#bfbfbf" points="322.4004,-122.5 322.4004,-140.5 436.2275,-140.5 436.2275,-122.5 322.4004,-122.5"/>
<text text-anchor="middle" x="379.314" y="-128.5" font-family="Helvetica,sans-Serif" font-size="10.00" fill="#000000">vector&lt; AssignMask &gt;</text>
</g>
<!-- Node10&#45;&gt;Node7 -->
<g id="edge10" class="edge">
<title>Node10&#45;&gt;Node7</title>
<path fill="none" stroke="#9a32cd" stroke-dasharray="5,2" d="M446.3623,-132.0433C489.4046,-132.3921 544.0962,-132.8352 581.7902,-133.1407"/>
<polygon fill="#9a32cd" stroke="#9a32cd" points="446.2778,-128.5426 436.2498,-131.9614 446.2211,-135.5424 446.2778,-128.5426"/>
<text text-anchor="middle" x="509.8135" y="-135.5" font-family="Helvetica,sans-Serif" font-size="10.00" fill="#000000"> _results</text>
</g>
<!-- Node11&#45;&gt;Node10 -->
<g id="edge11" class="edge">
<title>Node11&#45;&gt;Node10</title>
<path fill="none" stroke="#ffa500" stroke-dasharray="5,2" d="M188.9399,-122.5529C226.6026,-124.323 281.2453,-126.891 322.3381,-128.8223"/>
<polygon fill="#ffa500" stroke="#ffa500" points="188.9461,-119.0494 178.7928,-122.076 188.6174,-126.0417 188.9461,-119.0494"/>
<text text-anchor="middle" x="247.1372" y="-129.5" font-family="Helvetica,sans-Serif" font-size="10.00" fill="#000000"> &lt; AssignMask &gt;</text>
</g>
<!-- Node12 -->
<g id="node12" class="node">
<title>Node12</title>
<polygon fill="#ffffff" stroke="#bfbfbf" points="312.1123,-85.5 312.1123,-103.5 446.5156,-103.5 446.5156,-85.5 312.1123,-85.5"/>
<text text-anchor="middle" x="379.314" y="-91.5" font-family="Helvetica,sans-Serif" font-size="10.00" fill="#000000">vector&lt; graph::AGVertex &gt;</text>
</g>
<!-- Node11&#45;&gt;Node12 -->
<g id="edge14" class="edge">
<title>Node11&#45;&gt;Node12</title>
<path fill="none" stroke="#ffa500" stroke-dasharray="5,2" d="M188.7013,-111.3222C192.5674,-110.6492 196.4293,-110.0284 200.1621,-109.5 236.9372,-104.2938 278.234,-100.6866 311.9025,-98.3167"/>
<polygon fill="#ffa500" stroke="#ffa500" points="187.7413,-107.9403 178.5432,-113.1982 189.0126,-114.8239 187.7413,-107.9403"/>
<text text-anchor="middle" x="247.1372" y="-111.5" font-family="Helvetica,sans-Serif" font-size="10.00" fill="#000000"> &lt; graph::AGVertex &gt;</text>
</g>
<!-- Node12&#45;&gt;Node7 -->
<g id="edge13" class="edge">
<title>Node12&#45;&gt;Node7</title>
<path fill="none" stroke="#9a32cd" stroke-dasharray="5,2" d="M456.894,-103.8599C487.5633,-107.8812 523.0725,-112.9373 555.1113,-118.5 565.0448,-120.2247 575.7058,-122.3363 585.6696,-124.4245"/>
<polygon fill="#9a32cd" stroke="#9a32cd" points="457.0578,-100.3519 446.6907,-102.5365 456.1574,-107.2937 457.0578,-100.3519"/>
<text text-anchor="middle" x="509.8135" y="-120.5" font-family="Helvetica,sans-Serif" font-size="10.00" fill="#000000"> _locs</text>
</g>
<!-- Node13&#45;&gt;Node6 -->
<g id="edge15" class="edge">
<title>Node13&#45;&gt;Node6</title>
<path fill="none" stroke="#ffa500" stroke-dasharray="5,2" d="M300.7212,-59.0234C362.1647,-61.937 465.9135,-66.918 555.1113,-71.5 649.7471,-76.3614 758.6895,-82.3012 829.9214,-86.2314"/>
<polygon fill="#ffa500" stroke="#ffa500" points="300.6476,-55.5161 290.4932,-58.5389 300.3164,-62.5082 300.6476,-55.5161"/>
<text text-anchor="start" x="464.5156" y="-93.5" font-family="Helvetica,sans-Serif" font-size="10.00" fill="#000000"> &lt; indigox::algorithm</text>
<text text-anchor="start" x="464.5156" y="-83.5" font-family="Helvetica,sans-Serif" font-size="10.00" fill="#000000">::IXElectronAssigner</text>
<text text-anchor="middle" x="509.8135" y="-73.5" font-family="Helvetica,sans-Serif" font-size="10.00" fill="#000000">::AssignAlgorithm &gt;</text>
</g>
<!-- Node14 -->
<g id="node14" class="node">
<title>Node14</title>
<g id="a_node14"><a xlink:title="STL class. ">
<polygon fill="#ffffff" stroke="#bfbfbf" points="886.5142,-23.5 886.5142,-41.5 926.9673,-41.5 926.9673,-23.5 886.5142,-23.5"/>
<text text-anchor="middle" x="906.7407" y="-29.5" font-family="Helvetica,sans-Serif" font-size="10.00" fill="#000000">string</text>
</a>
</g>
</g>
<!-- Node14&#45;&gt;Node1 -->
<g id="edge17" class="edge">
<title>Node14&#45;&gt;Node1</title>
<path fill="none" stroke="#9a32cd" stroke-dasharray="5,2" d="M937.047,-40.4549C977.9296,-51.1858 1050.5491,-70.2472 1093.394,-81.4932"/>
<polygon fill="#9a32cd" stroke="#9a32cd" points="937.6937,-37.0061 927.1327,-37.8525 935.9165,-43.7768 937.6937,-37.0061"/>
<text text-anchor="middle" x="1030.2847" y="-74.5" font-family="Helvetica,sans-Serif" font-size="10.00" fill="#000000"> _current_file</text>
</g>
<!-- Node15 -->
<g id="node15" class="node">
<title>Node15</title>
<g id="a_node15"><a xlink:title="STL class. ">
<polygon fill="#ffffff" stroke="#bfbfbf" points="573.1113,-.5 573.1113,-18.5 679.1602,-18.5 679.1602,-.5 573.1113,-.5"/>
<text text-anchor="middle" x="626.1357" y="-6.5" font-family="Helvetica,sans-Serif" font-size="10.00" fill="#000000">basic_string&lt; char &gt;</text>
</a>
</g>
</g>
<!-- Node15&#45;&gt;Node14 -->
<g id="edge18" class="edge">
<title>Node15&#45;&gt;Node14</title>
<path fill="none" stroke="#191970" d="M689.4817,-14.6922C752.5304,-19.86 845.6006,-27.4886 886.363,-30.8297"/>
<polygon fill="#191970" stroke="#191970" points="689.4978,-11.1819 679.2453,-13.8532 688.9259,-18.1585 689.4978,-11.1819"/>
</g>
</g>
</svg>
        <g id="navigator" transform="translate(0 0)" fill="#404254">
                <rect fill="#f2f5e9" fill-opacity="0.5" stroke="#606060" stroke-width=".5" x="0" y="0" width="60" height="60"/>
                <use id="zoomplus" xlink:href="#zoomPlus" x="17" y="9" onmousedown="handleZoom(evt,'in')"/>
                <use id="zoomminus" xlink:href="#zoomMin" x="42" y="9" onmousedown="handleZoom(evt,'out')"/>
                <use id="reset" xlink:href="#resetDef" x="30" y="36" onmousedown="handleReset()"/>
                <g id="arrowUp" xlink:href="#dirArrow" transform="translate(30 24)" onmousedown="handlePan(0,-1)">
                  <use xlink:href="#rim" fill="#404040">
                        <set attributeName="fill" to="#808080" begin="arrowUp.mouseover" end="arrowUp.mouseout"/>
                  </use>
                  <path fill="none" stroke="white" stroke-width="1.5" d="M0,-3.0v7 M-2.5,-0.5L0,-3.0L2.5,-0.5"/>
                </g>
                <g id="arrowRight" xlink:href="#dirArrow" transform="rotate(90) translate(36 -43)" onmousedown="handlePan(1,0)">
                  <use xlink:href="#rim" fill="#404040">
                        <set attributeName="fill" to="#808080" begin="arrowRight.mouseover" end="arrowRight.mouseout"/>
                  </use>
                  <path fill="none" stroke="white" stroke-width="1.5" d="M0,-3.0v7 M-2.5,-0.5L0,-3.0L2.5,-0.5"/>
                </g>
                <g id="arrowDown" xlink:href="#dirArrow" transform="rotate(180) translate(-30 -48)" onmousedown="handlePan(0,1)">
                  <use xlink:href="#rim" fill="#404040">
                        <set attributeName="fill" to="#808080" begin="arrowDown.mouseover" end="arrowDown.mouseout"/>
                  </use>
                  <path fill="none" stroke="white" stroke-width="1.5" d="M0,-3.0v7 M-2.5,-0.5L0,-3.0L2.5,-0.5"/>
                </g>
                <g id="arrowLeft" xlink:href="#dirArrow" transform="rotate(270) translate(-36 17)" onmousedown="handlePan(-1,0)">
                  <use xlink:href="#rim" fill="#404040">
                        <set attributeName="fill" to="#808080" begin="arrowLeft.mouseover" end="arrowLeft.mouseout"/>
                  </use>
                  <path fill="none" stroke="white" stroke-width="1.5" d="M0,-3.0v7 M-2.5,-0.5L0,-3.0L2.5,-0.5"/>
                </g>
        </g>
        <svg viewBox="0 0 15 15" width="100%" height="30px" preserveAspectRatio="xMaxYMin meet">
         <g id="arrow_out" transform="scale(0.3 0.3)">
          <a xlink:href="classindigox_1_1algorithm_1_1_i_x_electron_assigner__coll__graph_org.svg" target="_base">
           <rect id="button" ry="5" rx="5" y="6" x="6" height="38" width="38"
                fill="#f2f5e9" fill-opacity="0.5" stroke="#606060" stroke-width="1.0"/>
           <path id="arrow"
             d="M 11.500037,31.436501 C 11.940474,20.09759 22.043105,11.32322 32.158766,21.979434 L 37.068811,17.246167 C 37.068811,17.246167 37.088388,32 37.088388,32 L 22.160133,31.978069 C 22.160133,31.978069 26.997745,27.140456 26.997745,27.140456 C 18.528582,18.264221 13.291696,25.230495 11.500037,31.436501 z"
             style="fill:#404040;"/>
          </a>
         </g>
        </svg>
</svg>
