<?xml version="1.0" encoding="UTF-8" standalone="no"?>
<!DOCTYPE svg PUBLIC "-//W3C//DTD SVG 1.1//EN"
 "http://www.w3.org/Graphics/SVG/1.1/DTD/svg11.dtd">
<!-- Generated by graphviz version 2.40.1 (20161225.0304)
 -->
<!-- Title: IXLocalOptimisation Pages: 1 -->
<svg width="511pt" height="307pt"
 viewBox="0.00 0.00 511.39 307.00" xmlns="http://www.w3.org/2000/svg" xmlns:xlink="http://www.w3.org/1999/xlink">
<g id="graph0" class="graph" transform="scale(1 1) rotate(0) translate(4 303)">
<title>IXLocalOptimisation</title>
<polygon fill="#ffffff" stroke="transparent" points="-4,4 -4,-303 507.3901,-303 507.3901,4 -4,4"/>
<!-- Node2 -->
<g id="node1" class="node">
<title>Node2</title>
<polygon fill="#bfbfbf" stroke="#000000" points="200.8711,-.5 200.8711,-18.5 305.8018,-18.5 305.8018,-.5 200.8711,-.5"/>
<text text-anchor="middle" x="253.3364" y="-6.5" font-family="Helvetica,sans-Serif" font-size="10.00" fill="#000000">IXLocalOptimisation</text>
</g>
<!-- Node3 -->
<g id="node2" class="node">
<title>Node3</title>
<g id="a_node2"><a xlink:href="classindigox_1_1algorithm_1_1_i_x_electron_assigner_1_1_assign_algorithm.html" target="_top" xlink:title="Base class for an electron assignment algorithm. ">
<polygon fill="#ffffff" stroke="#000000" points="209.2109,-70.5 209.2109,-88.5 297.4619,-88.5 297.4619,-70.5 209.2109,-70.5"/>
<text text-anchor="middle" x="253.3364" y="-76.5" font-family="Helvetica,sans-Serif" font-size="10.00" fill="#000000">AssignAlgorithm</text>
</a>
</g>
</g>
<!-- Node3&#45;&gt;Node2 -->
<g id="edge1" class="edge">
<title>Node3&#45;&gt;Node2</title>
<path fill="none" stroke="#191970" d="M253.3364,-60.2039C253.3364,-46.7531 253.3364,-29.3986 253.3364,-18.8769"/>
<polygon fill="#191970" stroke="#191970" points="249.8365,-60.3487 253.3364,-70.3487 256.8365,-60.3488 249.8365,-60.3487"/>
</g>
<!-- Node4 -->
<g id="node3" class="node">
<title>Node4</title>
<g id="a_node3"><a xlink:title="STL class. ">
<polygon fill="#ffffff" stroke="#bfbfbf" points="0,-150.5 0,-168.5 70.6729,-168.5 70.6729,-150.5 0,-150.5"/>
<text text-anchor="middle" x="35.3364" y="-156.5" font-family="Helvetica,sans-Serif" font-size="10.00" fill="#000000">map&lt; K, T &gt;</text>
</a>
</g>
</g>
<!-- Node4&#45;&gt;Node3 -->
<g id="edge2" class="edge">
<title>Node4&#45;&gt;Node3</title>
<path fill="none" stroke="#9a32cd" stroke-dasharray="5,2" d="M80.7206,-149.1441C107.9741,-142.7336 138.4788,-135.1451 144.3364,-132 155.9716,-125.7528 155.0388,-118.879 166.312,-112 182.97,-101.8351 203.3226,-94.0186 220.1557,-88.6014"/>
<polygon fill="#9a32cd" stroke="#9a32cd" points="79.8208,-145.7599 70.8786,-151.4421 81.4125,-152.5766 79.8208,-145.7599"/>
<text text-anchor="middle" x="181.3486" y="-119" font-family="Helvetica,sans-Serif" font-size="10.00" fill="#000000"> _table</text>
</g>
<!-- Node12 -->
<g id="node11" class="node">
<title>Node12</title>
<polygon fill="#ffffff" stroke="#bfbfbf" points="44.9438,-65.5 44.9438,-93.5 165.729,-93.5 165.729,-65.5 44.9438,-65.5"/>
<text text-anchor="start" x="52.9438" y="-81.5" font-family="Helvetica,sans-Serif" font-size="10.00" fill="#000000">map&lt; graph::AGVertex,</text>
<text text-anchor="middle" x="105.3364" y="-71.5" font-family="Helvetica,sans-Serif" font-size="10.00" fill="#000000"> AssignMask &gt;</text>
</g>
<!-- Node4&#45;&gt;Node12 -->
<g id="edge13" class="edge">
<title>Node4&#45;&gt;Node12</title>
<path fill="none" stroke="#ffa500" stroke-dasharray="5,2" d="M40.8096,-140.6671C44.1832,-131.3316 49.2242,-120.3085 56.2261,-112 62.2875,-104.8074 70.3349,-98.5871 78.158,-93.5691"/>
<polygon fill="#ffa500" stroke="#ffa500" points="37.4556,-139.6634 37.6934,-150.2556 44.1129,-141.827 37.4556,-139.6634"/>
<text text-anchor="start" x="56.3364" y="-124" font-family="Helvetica,sans-Serif" font-size="10.00" fill="#000000"> &lt; graph::AGVertex,</text>
<text text-anchor="middle" x="100.3916" y="-114" font-family="Helvetica,sans-Serif" font-size="10.00" fill="#000000"> AssignMask &gt;</text>
</g>
<!-- Node5 -->
<g id="node4" class="node">
<title>Node5</title>
<polygon fill="#ffffff" stroke="#bfbfbf" points="3.8364,-215.5 3.8364,-233.5 32.8364,-233.5 32.8364,-215.5 3.8364,-215.5"/>
<text text-anchor="middle" x="18.1714" y="-221.5" font-family="Helvetica,sans-Serif" font-size="10.00" fill="#000000">K</text>
</g>
<!-- Node5&#45;&gt;Node4 -->
<g id="edge3" class="edge">
<title>Node5&#45;&gt;Node4</title>
<path fill="none" stroke="#9a32cd" stroke-dasharray="5,2" d="M23.3067,-205.4959C26.4549,-193.4586 30.3887,-178.4178 32.8826,-168.8821"/>
<polygon fill="#9a32cd" stroke="#9a32cd" points="19.8444,-204.9018 20.7002,-215.462 26.6167,-206.6731 19.8444,-204.9018"/>
<text text-anchor="middle" x="40.0063" y="-189" font-family="Helvetica,sans-Serif" font-size="10.00" fill="#000000"> keys</text>
</g>
<!-- Node6 -->
<g id="node5" class="node">
<title>Node6</title>
<polygon fill="#ffffff" stroke="#bfbfbf" points="70.8364,-280.5 70.8364,-298.5 99.8364,-298.5 99.8364,-280.5 70.8364,-280.5"/>
<text text-anchor="middle" x="84.8906" y="-286.5" font-family="Helvetica,sans-Serif" font-size="10.00" fill="#000000">T</text>
</g>
<!-- Node6&#45;&gt;Node4 -->
<g id="edge4" class="edge">
<title>Node6&#45;&gt;Node4</title>
<path fill="none" stroke="#9a32cd" stroke-dasharray="5,2" d="M81.7974,-270.3737C77.4223,-249.2242 68.8536,-214.5062 55.3364,-187 52.1079,-180.4302 47.3146,-173.7729 43.2299,-168.6542"/>
<polygon fill="#9a32cd" stroke="#9a32cd" points="78.3934,-271.2032 83.7544,-280.3415 85.2622,-269.8545 78.3934,-271.2032"/>
<text text-anchor="middle" x="95.0137" y="-221.5" font-family="Helvetica,sans-Serif" font-size="10.00" fill="#000000"> elements</text>
</g>
<!-- Node10 -->
<g id="node9" class="node">
<title>Node10</title>
<g id="a_node9"><a xlink:title="STL class. ">
<polygon fill="#ffffff" stroke="#bfbfbf" points="130.2241,-215.5 130.2241,-233.5 196.4487,-233.5 196.4487,-215.5 130.2241,-215.5"/>
<text text-anchor="middle" x="163.3364" y="-221.5" font-family="Helvetica,sans-Serif" font-size="10.00" fill="#000000">vector&lt; T &gt;</text>
</a>
</g>
</g>
<!-- Node6&#45;&gt;Node10 -->
<g id="edge9" class="edge">
<title>Node6&#45;&gt;Node10</title>
<path fill="none" stroke="#9a32cd" stroke-dasharray="5,2" d="M104.2608,-273.7297C119.2153,-261.2676 139.5842,-244.2936 152.0779,-233.8821"/>
<polygon fill="#9a32cd" stroke="#9a32cd" points="101.6236,-271.3714 96.182,-280.462 106.1049,-276.7489 101.6236,-271.3714"/>
<text text-anchor="middle" x="151.0137" y="-254" font-family="Helvetica,sans-Serif" font-size="10.00" fill="#000000"> elements</text>
</g>
<!-- Node7 -->
<g id="node6" class="node">
<title>Node7</title>
<polygon fill="#ffffff" stroke="#bfbfbf" points="372.248,-150.5 372.248,-168.5 484.4248,-168.5 484.4248,-150.5 372.248,-150.5"/>
<text text-anchor="middle" x="428.3364" y="-156.5" font-family="Helvetica,sans-Serif" font-size="10.00" fill="#000000">bitset&lt; __num_opts &gt;</text>
</g>
<!-- Node7&#45;&gt;Node2 -->
<g id="edge14" class="edge">
<title>Node7&#45;&gt;Node2</title>
<path fill="none" stroke="#9a32cd" stroke-dasharray="5,2" d="M419.1723,-141.4511C413.8681,-132.0434 406.6096,-120.7152 398.3364,-112 358.6466,-70.1898 299.5714,-34.7693 270.6095,-18.7128"/>
<polygon fill="#9a32cd" stroke="#9a32cd" points="416.1437,-143.2095 423.9531,-150.3695 422.3132,-139.9023 416.1437,-143.2095"/>
<text text-anchor="middle" x="399.6294" y="-76.5" font-family="Helvetica,sans-Serif" font-size="10.00" fill="#000000"> _lo_opts</text>
</g>
<!-- Node7&#45;&gt;Node3 -->
<g id="edge5" class="edge">
<title>Node7&#45;&gt;Node3</title>
<path fill="none" stroke="#9a32cd" stroke-dasharray="5,2" d="M399.2188,-146.1891C363.5604,-129.8881 304.111,-102.7112 273.2674,-88.6113"/>
<polygon fill="#9a32cd" stroke="#9a32cd" points="398.0519,-149.504 408.6019,-150.4785 400.9623,-143.1377 398.0519,-149.504"/>
<text text-anchor="middle" x="380.957" y="-119" font-family="Helvetica,sans-Serif" font-size="10.00" fill="#000000"> _opts</text>
</g>
<!-- Node8 -->
<g id="node7" class="node">
<title>Node8</title>
<g id="a_node7"><a xlink:title="STL class. ">
<polygon fill="#ffffff" stroke="#bfbfbf" points="391.4326,-215.5 391.4326,-233.5 465.2402,-233.5 465.2402,-215.5 391.4326,-215.5"/>
<text text-anchor="middle" x="428.3364" y="-221.5" font-family="Helvetica,sans-Serif" font-size="10.00" fill="#000000">bitset&lt; Bits &gt;</text>
</a>
</g>
</g>
<!-- Node8&#45;&gt;Node7 -->
<g id="edge6" class="edge">
<title>Node8&#45;&gt;Node7</title>
<path fill="none" stroke="#ffa500" stroke-dasharray="5,2" d="M428.3364,-205.1265C428.3364,-193.1522 428.3364,-178.3205 428.3364,-168.8821"/>
<polygon fill="#ffa500" stroke="#ffa500" points="424.8365,-205.462 428.3364,-215.462 431.8365,-205.4621 424.8365,-205.462"/>
<text text-anchor="middle" x="465.8633" y="-189" font-family="Helvetica,sans-Serif" font-size="10.00" fill="#000000"> &lt; __num_opts &gt;</text>
</g>
<!-- Node9 -->
<g id="node8" class="node">
<title>Node9</title>
<polygon fill="#ffffff" stroke="#bfbfbf" points="88.4229,-150.5 88.4229,-168.5 202.25,-168.5 202.25,-150.5 88.4229,-150.5"/>
<text text-anchor="middle" x="145.3364" y="-156.5" font-family="Helvetica,sans-Serif" font-size="10.00" fill="#000000">vector&lt; AssignMask &gt;</text>
</g>
<!-- Node9&#45;&gt;Node3 -->
<g id="edge7" class="edge">
<title>Node9&#45;&gt;Node3</title>
<path fill="none" stroke="#9a32cd" stroke-dasharray="5,2" d="M176.5619,-146.0304C184.6037,-141.9941 193.041,-137.232 200.3364,-132 218.4389,-119.0175 236.1412,-99.7809 245.8094,-88.5547"/>
<polygon fill="#9a32cd" stroke="#9a32cd" points="174.9029,-142.9442 167.3954,-150.4201 177.9263,-149.2577 174.9029,-142.9442"/>
<text text-anchor="middle" x="243.2329" y="-119" font-family="Helvetica,sans-Serif" font-size="10.00" fill="#000000"> _results</text>
</g>
<!-- Node10&#45;&gt;Node9 -->
<g id="edge8" class="edge">
<title>Node10&#45;&gt;Node9</title>
<path fill="none" stroke="#ffa500" stroke-dasharray="5,2" d="M158.0737,-205.4959C154.7403,-193.4586 150.5752,-178.4178 147.9346,-168.8821"/>
<polygon fill="#ffa500" stroke="#ffa500" points="154.7917,-206.7588 160.8336,-215.462 161.5378,-204.8906 154.7917,-206.7588"/>
<text text-anchor="middle" x="193.0234" y="-189" font-family="Helvetica,sans-Serif" font-size="10.00" fill="#000000"> &lt; AssignMask &gt;</text>
</g>
<!-- Node11 -->
<g id="node10" class="node">
<title>Node11</title>
<polygon fill="#ffffff" stroke="#bfbfbf" points="220.1348,-150.5 220.1348,-168.5 354.5381,-168.5 354.5381,-150.5 220.1348,-150.5"/>
<text text-anchor="middle" x="287.3364" y="-156.5" font-family="Helvetica,sans-Serif" font-size="10.00" fill="#000000">vector&lt; graph::AGVertex &gt;</text>
</g>
<!-- Node10&#45;&gt;Node11 -->
<g id="edge11" class="edge">
<title>Node10&#45;&gt;Node11</title>
<path fill="none" stroke="#ffa500" stroke-dasharray="5,2" d="M200.2658,-211.8399C211.1531,-207.6186 222.932,-202.5584 233.3364,-197 248.84,-188.7174 265.2322,-176.8294 275.8335,-168.671"/>
<polygon fill="#ffa500" stroke="#ffa500" points="198.7172,-208.6825 190.5828,-215.471 201.1751,-215.2369 198.7172,-208.6825"/>
<text text-anchor="middle" x="296.3115" y="-189" font-family="Helvetica,sans-Serif" font-size="10.00" fill="#000000"> &lt; graph::AGVertex &gt;</text>
</g>
<!-- Node11&#45;&gt;Node3 -->
<g id="edge10" class="edge">
<title>Node11&#45;&gt;Node3</title>
<path fill="none" stroke="#9a32cd" stroke-dasharray="5,2" d="M279.3382,-140.6807C272.3629,-124.2682 262.546,-101.1696 257.1912,-88.57"/>
<polygon fill="#9a32cd" stroke="#9a32cd" points="276.3036,-142.4887 283.4362,-150.323 282.7459,-139.7507 276.3036,-142.4887"/>
<text text-anchor="middle" x="289.3979" y="-119" font-family="Helvetica,sans-Serif" font-size="10.00" fill="#000000"> _locs</text>
</g>
<!-- Node12&#45;&gt;Node2 -->
<g id="edge12" class="edge">
<title>Node12&#45;&gt;Node2</title>
<path fill="none" stroke="#9a32cd" stroke-dasharray="5,2" d="M143.6505,-60.9245C159.1792,-53.4377 177.2998,-44.7542 193.7603,-37 206.9514,-30.7859 221.8454,-23.9109 233.4417,-18.5894"/>
<polygon fill="#9a32cd" stroke="#9a32cd" points="141.8383,-57.9128 134.3546,-65.4124 144.8818,-64.2165 141.8383,-57.9128"/>
<text text-anchor="middle" x="222.1245" y="-39" font-family="Helvetica,sans-Serif" font-size="10.00" fill="#000000"> _loc_masks</text>
</g>
</g>
</svg>
