<?xml version="1.0" encoding="UTF-8" standalone="no"?>
<!DOCTYPE svg PUBLIC "-//W3C//DTD SVG 1.1//EN"
 "http://www.w3.org/Graphics/SVG/1.1/DTD/svg11.dtd">
<!-- Generated by graphviz version 2.40.1 (20161225.0304)
 -->
<!-- Title: BaseGraph&lt; V, E, S, D, VP, EP &gt; Pages: 1 -->
<svg width="131pt" height="232pt"
 viewBox="0.00 0.00 131.06 232.00" xmlns="http://www.w3.org/2000/svg" xmlns:xlink="http://www.w3.org/1999/xlink">
<g id="graph0" class="graph" transform="scale(1 1) rotate(0) translate(4 228)">
<title>BaseGraph&lt; V, E, S, D, VP, EP &gt;</title>
<polygon fill="#ffffff" stroke="transparent" points="-4,4 -4,-228 127.0635,-228 127.0635,4 -4,4"/>
<!-- Node5 -->
<g id="node1" class="node">
<title>Node5</title>
<g id="a_node1"><a xlink:title="Template base class for all graphs used in the indigoX library.">
<polygon fill="#bfbfbf" stroke="#000000" points="7.2705,-.5 7.2705,-28.5 115.458,-28.5 115.458,-.5 7.2705,-.5"/>
<text text-anchor="start" x="15.2705" y="-16.5" font-family="Helvetica,sans-Serif" font-size="10.00" fill="#000000">BaseGraph&lt; V, E, S,</text>
<text text-anchor="middle" x="61.3643" y="-6.5" font-family="Helvetica,sans-Serif" font-size="10.00" fill="#000000"> D, VP, EP &gt;</text>
</a>
</g>
</g>
<!-- Node6 -->
<g id="node2" class="node">
<title>Node6</title>
<g id="a_node2"><a xlink:title=" ">
<polygon fill="#ffffff" stroke="#bfbfbf" points="0,-75.5 0,-93.5 122.7285,-93.5 122.7285,-75.5 0,-75.5"/>
<text text-anchor="middle" x="61.3643" y="-81.5" font-family="Helvetica,sans-Serif" font-size="10.00" fill="#000000">shared_ptr&lt; BaseImpl &gt;</text>
</a>
</g>
</g>
<!-- Node6&#45;&gt;Node5 -->
<g id="edge1" class="edge">
<title>Node6&#45;&gt;Node5</title>
<path fill="none" stroke="#9a32cd" stroke-dasharray="5,2" d="M61.3643,-65.0243C61.3643,-53.5169 61.3643,-39.2016 61.3643,-28.7499"/>
<polygon fill="#9a32cd" stroke="#9a32cd" points="57.8644,-65.3487 61.3643,-75.3487 64.8644,-65.3488 57.8644,-65.3487"/>
<text text-anchor="middle" x="90.2729" y="-49" font-family="Helvetica,sans-Serif" font-size="10.00" fill="#000000"> m_basedata</text>
</g>
<!-- Node7 -->
<g id="node3" class="node">
<title>Node7</title>
<g id="a_node3"><a xlink:title="STL class.">
<polygon fill="#ffffff" stroke="#bfbfbf" points="17.9639,-140.5 17.9639,-158.5 104.7646,-158.5 104.7646,-140.5 17.9639,-140.5"/>
<text text-anchor="middle" x="61.3643" y="-146.5" font-family="Helvetica,sans-Serif" font-size="10.00" fill="#000000">shared_ptr&lt; T &gt;</text>
</a>
</g>
</g>
<!-- Node7&#45;&gt;Node6 -->
<g id="edge2" class="edge">
<title>Node7&#45;&gt;Node6</title>
<path fill="none" stroke="#ffa500" stroke-dasharray="5,2" d="M61.3643,-130.1265C61.3643,-118.1522 61.3643,-103.3205 61.3643,-93.8821"/>
<polygon fill="#ffa500" stroke="#ffa500" points="57.8644,-130.462 61.3643,-140.462 64.8644,-130.4621 57.8644,-130.462"/>
<text text-anchor="middle" x="92.2139" y="-114" font-family="Helvetica,sans-Serif" font-size="10.00" fill="#000000"> &lt; BaseImpl &gt;</text>
</g>
<!-- Node8 -->
<g id="node4" class="node">
<title>Node8</title>
<g id="a_node4"><a xlink:title=" ">
<polygon fill="#ffffff" stroke="#bfbfbf" points="46.8643,-205.5 46.8643,-223.5 75.8643,-223.5 75.8643,-205.5 46.8643,-205.5"/>
<text text-anchor="middle" x="60.9185" y="-211.5" font-family="Helvetica,sans-Serif" font-size="10.00" fill="#000000">T</text>
</a>
</g>
</g>
<!-- Node8&#45;&gt;Node7 -->
<g id="edge3" class="edge">
<title>Node8&#45;&gt;Node7</title>
<path fill="none" stroke="#9a32cd" stroke-dasharray="5,2" d="M61.3643,-195.1265C61.3643,-183.1522 61.3643,-168.3205 61.3643,-158.8821"/>
<polygon fill="#9a32cd" stroke="#9a32cd" points="57.8644,-195.462 61.3643,-205.462 64.8644,-195.4621 57.8644,-195.462"/>
<text text-anchor="middle" x="68.5884" y="-179" font-family="Helvetica,sans-Serif" font-size="10.00" fill="#000000"> ptr</text>
</g>
</g>
</svg>
