<?xml version="1.0" encoding="UTF-8" standalone="no"?>
<!DOCTYPE svg PUBLIC "-//W3C//DTD SVG 1.1//EN"
 "http://www.w3.org/Graphics/SVG/1.1/DTD/svg11.dtd">
<!-- Generated by graphviz version 2.40.1 (20161225.0304)
 -->
<!-- Title: _TDecomp Pages: 1 -->
<svg width="411pt" height="222pt"
 viewBox="0.00 0.00 410.67 222.00" xmlns="http://www.w3.org/2000/svg" xmlns:xlink="http://www.w3.org/1999/xlink">
<g id="graph0" class="graph" transform="scale(1 1) rotate(0) translate(4 218)">
<title>_TDecomp</title>
<polygon fill="#ffffff" stroke="transparent" points="-4,4 -4,-218 406.6685,-218 406.6685,4 -4,4"/>
<!-- Node2 -->
<g id="node1" class="node">
<title>Node2</title>
<polygon fill="#bfbfbf" stroke="#000000" points="113.8892,-.5 113.8892,-18.5 178.7954,-18.5 178.7954,-.5 113.8892,-.5"/>
<text text-anchor="middle" x="146.3423" y="-6.5" font-family="Helvetica,sans-Serif" font-size="10.00" fill="#000000">_TDecomp</text>
</g>
<!-- Node3 -->
<g id="node2" class="node">
<title>Node3</title>
<polygon fill="#ffffff" stroke="#bfbfbf" points="0,-65.5 0,-83.5 62.6846,-83.5 62.6846,-65.5 0,-65.5"/>
<text text-anchor="middle" x="31.3423" y="-71.5" font-family="Helvetica,sans-Serif" font-size="10.00" fill="#000000">_TDGraph</text>
</g>
<!-- Node3&#45;&gt;Node2 -->
<g id="edge1" class="edge">
<title>Node3&#45;&gt;Node2</title>
<path fill="none" stroke="#191970" d="M56.2613,-60.4154C78.6564,-47.7572 110.8937,-29.5362 130.1171,-18.6708"/>
<polygon fill="#191970" stroke="#191970" points="54.316,-57.4944 47.3325,-65.462 57.7604,-63.5884 54.316,-57.4944"/>
</g>
<!-- Node4 -->
<g id="node3" class="node">
<title>Node4</title>
<polygon fill="#ffffff" stroke="#bfbfbf" points="80.2539,-65.5 80.2539,-83.5 212.4307,-83.5 212.4307,-65.5 80.2539,-65.5"/>
<text text-anchor="middle" x="146.3423" y="-71.5" font-family="Helvetica,sans-Serif" font-size="10.00" fill="#000000">map&lt; PermVertex, uid_t &gt;</text>
</g>
<!-- Node4&#45;&gt;Node2 -->
<g id="edge2" class="edge">
<title>Node4&#45;&gt;Node2</title>
<path fill="none" stroke="#9a32cd" stroke-dasharray="5,2" d="M146.3423,-55.1265C146.3423,-43.1522 146.3423,-28.3205 146.3423,-18.8821"/>
<polygon fill="#9a32cd" stroke="#9a32cd" points="142.8424,-55.462 146.3423,-65.462 149.8424,-55.4621 142.8424,-55.462"/>
<text text-anchor="middle" x="173.022" y="-39" font-family="Helvetica,sans-Serif" font-size="10.00" fill="#000000"> elimiIndex_</text>
</g>
<!-- Node5 -->
<g id="node4" class="node">
<title>Node5</title>
<g id="a_node4"><a xlink:title="STL class. ">
<polygon fill="#ffffff" stroke="#bfbfbf" points="190.0059,-130.5 190.0059,-148.5 260.6787,-148.5 260.6787,-130.5 190.0059,-130.5"/>
<text text-anchor="middle" x="225.3423" y="-136.5" font-family="Helvetica,sans-Serif" font-size="10.00" fill="#000000">map&lt; K, T &gt;</text>
</a>
</g>
</g>
<!-- Node5&#45;&gt;Node4 -->
<g id="edge3" class="edge">
<title>Node5&#45;&gt;Node4</title>
<path fill="none" stroke="#ffa500" stroke-dasharray="5,2" d="M194.714,-125.5188C187.8095,-121.6534 180.7751,-117.099 174.8403,-112 165.2889,-103.7936 156.9162,-91.8901 151.7606,-83.7073"/>
<polygon fill="#ffa500" stroke="#ffa500" points="193.4509,-128.8083 203.9331,-130.3491 196.6996,-122.6078 193.4509,-128.8083"/>
<text text-anchor="middle" x="225.0933" y="-104" font-family="Helvetica,sans-Serif" font-size="10.00" fill="#000000"> &lt; PermVertex, uid_t &gt;</text>
</g>
<!-- Node8 -->
<g id="node7" class="node">
<title>Node8</title>
<polygon fill="#ffffff" stroke="#bfbfbf" points="230.3418,-65.5 230.3418,-83.5 382.3428,-83.5 382.3428,-65.5 230.3418,-65.5"/>
<text text-anchor="middle" x="306.3423" y="-71.5" font-family="Helvetica,sans-Serif" font-size="10.00" fill="#000000">map&lt; PermVertex, TDVertex &gt;</text>
</g>
<!-- Node5&#45;&gt;Node8 -->
<g id="edge7" class="edge">
<title>Node5&#45;&gt;Node8</title>
<path fill="none" stroke="#ffa500" stroke-dasharray="5,2" d="M254.4923,-125.3674C261.3109,-121.4701 268.3318,-116.9394 274.3423,-112 284.5251,-103.6317 294.0368,-91.7611 299.9999,-83.6302"/>
<polygon fill="#ffa500" stroke="#ffa500" points="252.5635,-122.4315 245.4336,-130.2682 255.8944,-128.5882 252.5635,-122.4315"/>
<text text-anchor="middle" x="343.0054" y="-104" font-family="Helvetica,sans-Serif" font-size="10.00" fill="#000000"> &lt; PermVertex, TDVertex &gt;</text>
</g>
<!-- Node6 -->
<g id="node5" class="node">
<title>Node6</title>
<polygon fill="#ffffff" stroke="#bfbfbf" points="187.8423,-195.5 187.8423,-213.5 216.8423,-213.5 216.8423,-195.5 187.8423,-195.5"/>
<text text-anchor="middle" x="202.1772" y="-201.5" font-family="Helvetica,sans-Serif" font-size="10.00" fill="#000000">K</text>
</g>
<!-- Node6&#45;&gt;Node5 -->
<g id="edge4" class="edge">
<title>Node6&#45;&gt;Node5</title>
<path fill="none" stroke="#9a32cd" stroke-dasharray="5,2" d="M200.9711,-184.8624C201.1493,-178.9707 201.9482,-172.5913 204.0024,-167 206.5033,-160.1931 211.3485,-153.7252 215.7908,-148.7741"/>
<polygon fill="#9a32cd" stroke="#9a32cd" points="197.4818,-185.3448 201.2266,-195.2558 204.4797,-185.1727 197.4818,-185.3448"/>
<text text-anchor="middle" x="215.0122" y="-169" font-family="Helvetica,sans-Serif" font-size="10.00" fill="#000000"> keys</text>
</g>
<!-- Node7 -->
<g id="node6" class="node">
<title>Node7</title>
<polygon fill="#ffffff" stroke="#bfbfbf" points="234.8423,-195.5 234.8423,-213.5 263.8423,-213.5 263.8423,-195.5 234.8423,-195.5"/>
<text text-anchor="middle" x="248.8965" y="-201.5" font-family="Helvetica,sans-Serif" font-size="10.00" fill="#000000">T</text>
</g>
<!-- Node7&#45;&gt;Node5 -->
<g id="edge5" class="edge">
<title>Node7&#45;&gt;Node5</title>
<path fill="none" stroke="#9a32cd" stroke-dasharray="5,2" d="M242.4611,-185.8634C237.9944,-173.7661 232.3633,-158.5151 228.8065,-148.8821"/>
<polygon fill="#9a32cd" stroke="#9a32cd" points="239.258,-187.2934 246.0052,-195.462 245.8247,-184.8687 239.258,-187.2934"/>
<text text-anchor="middle" x="260.0195" y="-169" font-family="Helvetica,sans-Serif" font-size="10.00" fill="#000000"> elements</text>
</g>
<!-- Node8&#45;&gt;Node2 -->
<g id="edge6" class="edge">
<title>Node8&#45;&gt;Node2</title>
<path fill="none" stroke="#9a32cd" stroke-dasharray="5,2" d="M274.5238,-61.5737C243.2084,-48.8519 196.196,-29.7531 168.658,-18.5658"/>
<polygon fill="#9a32cd" stroke="#9a32cd" points="273.513,-64.9408 284.095,-65.462 276.1476,-58.4556 273.513,-64.9408"/>
<text text-anchor="middle" x="257.5811" y="-39" font-family="Helvetica,sans-Serif" font-size="10.00" fill="#000000"> bagMap_</text>
</g>
</g>
</svg>
