<?xml version="1.0" encoding="UTF-8" standalone="no"?>
<!DOCTYPE svg PUBLIC "-//W3C//DTD SVG 1.1//EN"
 "http://www.w3.org/Graphics/SVG/1.1/DTD/svg11.dtd">
<!-- Generated by graphviz version 2.40.1 (20161225.0304)
 -->
<!-- Title: src/utils/common.cpp Pages: 1 -->
<svg width="348pt" height="137pt"
 viewBox="0.00 0.00 347.52 137.00" xmlns="http://www.w3.org/2000/svg" xmlns:xlink="http://www.w3.org/1999/xlink">
<g id="graph0" class="graph" transform="scale(1 1) rotate(0) translate(4 133)">
<title>src/utils/common.cpp</title>
<polygon fill="#ffffff" stroke="transparent" points="-4,4 -4,-133 343.5171,-133 343.5171,4 -4,4"/>
<!-- Node0 -->
<g id="node1" class="node">
<title>Node0</title>
<polygon fill="#bfbfbf" stroke="#000000" points="149.606,-110.5 149.606,-128.5 259.522,-128.5 259.522,-110.5 149.606,-110.5"/>
<text text-anchor="middle" x="204.564" y="-116.5" font-family="Helvetica,sans-Serif" font-size="10.00" fill="#000000">src/utils/common.cpp</text>
</g>
<!-- Node1 -->
<g id="node2" class="node">
<title>Node1</title>
<g id="a_node2"><a xlink:href="common_8hpp.html" target="_top" xlink:title="indigox/utils/common.hpp">
<polygon fill="#ffffff" stroke="#000000" points="90.1455,-55.5 90.1455,-73.5 218.9824,-73.5 218.9824,-55.5 90.1455,-55.5"/>
<text text-anchor="middle" x="154.564" y="-61.5" font-family="Helvetica,sans-Serif" font-size="10.00" fill="#000000">indigox/utils/common.hpp</text>
</a>
</g>
</g>
<!-- Node0&#45;&gt;Node1 -->
<g id="edge1" class="edge">
<title>Node0&#45;&gt;Node1</title>
<path fill="none" stroke="#191970" d="M196.3075,-110.4179C189.1132,-102.5041 178.4952,-90.8243 169.7686,-81.2251"/>
<polygon fill="#191970" stroke="#191970" points="172.3164,-78.8245 162.9998,-73.7795 167.1368,-83.5332 172.3164,-78.8245"/>
</g>
<!-- Node2 -->
<g id="node3" class="node">
<title>Node2</title>
<polygon fill="#ffffff" stroke="#bfbfbf" points="0,-.5 0,-18.5 57.1279,-18.5 57.1279,-.5 0,-.5"/>
<text text-anchor="middle" x="28.564" y="-6.5" font-family="Helvetica,sans-Serif" font-size="10.00" fill="#000000">algorithm</text>
</g>
<!-- Node0&#45;&gt;Node2 -->
<g id="edge7" class="edge">
<title>Node0&#45;&gt;Node2</title>
<path fill="none" stroke="#191970" d="M164.6035,-110.4825C139.1975,-103.417 106.512,-91.7593 81.564,-74 63.9359,-61.4515 48.843,-41.6021 39.3238,-27.2354"/>
<polygon fill="#191970" stroke="#191970" points="42.2247,-25.2748 33.9025,-18.718 36.3194,-29.0335 42.2247,-25.2748"/>
</g>
<!-- Node7 -->
<g id="node8" class="node">
<title>Node7</title>
<polygon fill="#ffffff" stroke="#bfbfbf" points="237.3916,-55.5 237.3916,-73.5 271.7363,-73.5 271.7363,-55.5 237.3916,-55.5"/>
<text text-anchor="middle" x="254.564" y="-61.5" font-family="Helvetica,sans-Serif" font-size="10.00" fill="#000000">new</text>
</g>
<!-- Node0&#45;&gt;Node7 -->
<g id="edge8" class="edge">
<title>Node0&#45;&gt;Node7</title>
<path fill="none" stroke="#191970" d="M212.8204,-110.4179C220.0148,-102.5041 230.6328,-90.8243 239.3593,-81.2251"/>
<polygon fill="#191970" stroke="#191970" points="241.9911,-83.5332 246.1281,-73.7795 236.8115,-78.8245 241.9911,-83.5332"/>
</g>
<!-- Node8 -->
<g id="node9" class="node">
<title>Node8</title>
<polygon fill="#ffffff" stroke="#bfbfbf" points="289.6108,-55.5 289.6108,-73.5 339.5171,-73.5 339.5171,-55.5 289.6108,-55.5"/>
<text text-anchor="middle" x="314.564" y="-61.5" font-family="Helvetica,sans-Serif" font-size="10.00" fill="#000000">random</text>
</g>
<!-- Node0&#45;&gt;Node8 -->
<g id="edge9" class="edge">
<title>Node0&#45;&gt;Node8</title>
<path fill="none" stroke="#191970" d="M222.7282,-110.4179C240.323,-101.6205 267.2258,-88.1691 287.3728,-78.0956"/>
<polygon fill="#191970" stroke="#191970" points="288.9937,-81.1983 296.3727,-73.5956 285.8632,-74.9373 288.9937,-81.1983"/>
</g>
<!-- Node1&#45;&gt;Node2 -->
<g id="edge2" class="edge">
<title>Node1&#45;&gt;Node2</title>
<path fill="none" stroke="#191970" d="M133.7576,-55.4179C113.3301,-46.5011 81.9491,-32.803 58.7748,-22.6873"/>
<polygon fill="#191970" stroke="#191970" points="59.9663,-19.3885 49.4012,-18.5956 57.1659,-25.804 59.9663,-19.3885"/>
</g>
<!-- Node3 -->
<g id="node4" class="node">
<title>Node3</title>
<polygon fill="#ffffff" stroke="#bfbfbf" points="75.0024,-.5 75.0024,-18.5 122.1255,-18.5 122.1255,-.5 75.0024,-.5"/>
<text text-anchor="middle" x="98.564" y="-6.5" font-family="Helvetica,sans-Serif" font-size="10.00" fill="#000000">iterator</text>
</g>
<!-- Node1&#45;&gt;Node3 -->
<g id="edge3" class="edge">
<title>Node1&#45;&gt;Node3</title>
<path fill="none" stroke="#191970" d="M145.3167,-55.4179C137.1785,-47.425 125.1287,-35.5903 115.3006,-25.9377"/>
<polygon fill="#191970" stroke="#191970" points="117.5991,-23.2895 108.0121,-18.7795 112.6942,-28.2836 117.5991,-23.2895"/>
</g>
<!-- Node4 -->
<g id="node5" class="node">
<title>Node4</title>
<polygon fill="#ffffff" stroke="#bfbfbf" points="140.5073,-.5 140.5073,-18.5 192.6206,-18.5 192.6206,-.5 140.5073,-.5"/>
<text text-anchor="middle" x="166.564" y="-6.5" font-family="Helvetica,sans-Serif" font-size="10.00" fill="#000000">memory</text>
</g>
<!-- Node1&#45;&gt;Node4 -->
<g id="edge4" class="edge">
<title>Node1&#45;&gt;Node4</title>
<path fill="none" stroke="#191970" d="M156.5455,-55.4179C158.134,-48.1372 160.418,-37.669 162.4041,-28.5659"/>
<polygon fill="#191970" stroke="#191970" points="165.8272,-29.2957 164.5394,-18.7795 158.9881,-27.8035 165.8272,-29.2957"/>
</g>
<!-- Node5 -->
<g id="node6" class="node">
<title>Node5</title>
<polygon fill="#ffffff" stroke="#bfbfbf" points="210.3374,-.5 210.3374,-18.5 250.7905,-18.5 250.7905,-.5 210.3374,-.5"/>
<text text-anchor="middle" x="230.564" y="-6.5" font-family="Helvetica,sans-Serif" font-size="10.00" fill="#000000">string</text>
</g>
<!-- Node1&#45;&gt;Node5 -->
<g id="edge5" class="edge">
<title>Node1&#45;&gt;Node5</title>
<path fill="none" stroke="#191970" d="M167.1138,-55.4179C178.6651,-47.0584 196.0232,-34.4966 209.6655,-24.6239"/>
<polygon fill="#191970" stroke="#191970" points="211.9462,-27.2938 217.9955,-18.5956 207.8423,-21.6229 211.9462,-27.2938"/>
</g>
<!-- Node6 -->
<g id="node7" class="node">
<title>Node6</title>
<polygon fill="#ffffff" stroke="#bfbfbf" points="268.4976,-.5 268.4976,-18.5 330.6304,-18.5 330.6304,-.5 268.4976,-.5"/>
<text text-anchor="middle" x="299.564" y="-6.5" font-family="Helvetica,sans-Serif" font-size="10.00" fill="#000000">type_traits</text>
</g>
<!-- Node1&#45;&gt;Node6 -->
<g id="edge6" class="edge">
<title>Node1&#45;&gt;Node6</title>
<path fill="none" stroke="#191970" d="M178.5078,-55.4179C202.4354,-46.3419 239.4224,-32.3123 266.2171,-22.1488"/>
<polygon fill="#191970" stroke="#191970" points="267.4759,-25.4147 275.5846,-18.5956 264.9933,-18.8697 267.4759,-25.4147"/>
</g>
</g>
</svg>
