<?xml version="1.0" encoding="UTF-8" standalone="no"?>
<!DOCTYPE svg PUBLIC "-//W3C//DTD SVG 1.1//EN"
 "http://www.w3.org/Graphics/SVG/1.1/DTD/svg11.dtd">
<!-- Generated by graphviz version 2.40.1 (20161225.0304)
 -->
<!-- Title: include/indigox/utils/common.hpp Pages: 1 -->
<!--zoomable 242 -->
<svg id="main" version="1.1" xmlns="http://www.w3.org/2000/svg" xmlns:xlink="http://www.w3.org/1999/xlink" xml:space="preserve" onload="init(evt)">
<style type="text/css"><![CDATA[
.edge:hover path { stroke: red; }
.edge:hover polygon { stroke: red; fill: red; }
]]></style>
<script type="text/javascript"><![CDATA[
var edges = document.getElementsByTagName('g');
if (edges && edges.length) {
  for (var i=0;i<edges.length;i++) {
    if (edges[i].id.substr(0,4)=='edge') {
      edges[i].setAttribute('class','edge');
    }
  }
}
]]></script>
        <defs>
                <circle id="rim" cx="0" cy="0" r="7"/>
                <circle id="rim2" cx="0" cy="0" r="3.5"/>
                <g id="zoomPlus">
                        <use xlink:href="#rim" fill="#404040">
                                <set attributeName="fill" to="#808080" begin="zoomplus.mouseover" end="zoomplus.mouseout"/>
                        </use>
                        <path d="M-4,0h8M0,-4v8" fill="none" stroke="white" stroke-width="1.5" pointer-events="none"/>
                </g>
                <g id="zoomMin">
                        <use xlink:href="#rim" fill="#404040">
                                <set attributeName="fill" to="#808080" begin="zoomminus.mouseover" end="zoomminus.mouseout"/>
                        </use>
                        <path d="M-4,0h8" fill="none" stroke="white" stroke-width="1.5" pointer-events="none"/>
                </g>
                <g id="dirArrow">
                        <path fill="none" stroke="white" stroke-width="1.5" d="M0,-3.0v7 M-2.5,-0.5L0,-3.0L2.5,-0.5"/>
                </g>
               <g id="resetDef">
                       <use xlink:href="#rim2" fill="#404040">
                               <set attributeName="fill" to="#808080" begin="reset.mouseover" end="reset.mouseout"/>
                       </use>
               </g>
        </defs>

<script type="text/javascript">
var viewWidth = 698;
var viewHeight = 242;
var sectionId = 'dynsection-1';
</script>
<script xlink:href="svgpan.js"/>
<svg id="graph" class="graph">
<g id="viewport">
<title>include/indigox/utils/common.hpp</title>
<polygon fill="#ffffff" stroke="transparent" points="-4,4 -4,-238 694.231,-238 694.231,4 -4,4"/>
<!-- Node6 -->
<g id="node1" class="node">
<title>Node6</title>
<g id="a_node1"><a xlink:title=" ">
<polygon fill="#bfbfbf" stroke="#000000" points="476.6724,-205.5 476.6724,-233.5 579.3911,-233.5 579.3911,-205.5 476.6724,-205.5"/>
<text text-anchor="start" x="484.6724" y="-221.5" font-family="Helvetica,sans-Serif" font-size="10.00" fill="#000000">include/indigox/utils</text>
<text text-anchor="middle" x="528.0317" y="-211.5" font-family="Helvetica,sans-Serif" font-size="10.00" fill="#000000">/common.hpp</text>
</a>
</g>
</g>
<!-- Node7 -->
<g id="node2" class="node">
<title>Node7</title>
<g id="a_node2"><a xlink:href="periodictable_8hpp.html" target="_top" xlink:title=" ">
<polygon fill="#ffffff" stroke="#000000" points="239.8916,-140.5 239.8916,-168.5 358.1719,-168.5 358.1719,-140.5 239.8916,-140.5"/>
<text text-anchor="start" x="247.8916" y="-156.5" font-family="Helvetica,sans-Serif" font-size="10.00" fill="#000000">include/indigox/classes</text>
<text text-anchor="middle" x="299.0317" y="-146.5" font-family="Helvetica,sans-Serif" font-size="10.00" fill="#000000">/periodictable.hpp</text>
</a>
</g>
</g>
<!-- Node6&#45;&gt;Node7 -->
<g id="edge1" class="edge">
<title>Node6&#45;&gt;Node7</title>
<path fill="none" stroke="#191970" d="M468.8967,-202.7149C431.631,-192.1373 384.0605,-178.6348 348.7456,-168.6109"/>
<polygon fill="#191970" stroke="#191970" points="468.0484,-206.1124 478.6241,-205.476 469.9598,-199.3784 468.0484,-206.1124"/>
</g>
<!-- Node11 -->
<g id="node6" class="node">
<title>Node11</title>
<g id="a_node6"><a xlink:href="assigner_8hpp.html" target="_top" xlink:title=" ">
<polygon fill="#ffffff" stroke="#000000" points="384.7588,-75.5 384.7588,-103.5 555.3047,-103.5 555.3047,-75.5 384.7588,-75.5"/>
<text text-anchor="start" x="392.7588" y="-91.5" font-family="Helvetica,sans-Serif" font-size="10.00" fill="#000000">include/indigox/algorithm</text>
<text text-anchor="middle" x="470.0317" y="-81.5" font-family="Helvetica,sans-Serif" font-size="10.00" fill="#000000">/electron_assignment/assigner.hpp</text>
</a>
</g>
</g>
<!-- Node6&#45;&gt;Node11 -->
<g id="edge14" class="edge">
<title>Node6&#45;&gt;Node11</title>
<path fill="none" stroke="#191970" d="M517.4989,-195.892C505.4848,-168.9637 486.2294,-125.8051 476.3414,-103.6423"/>
<polygon fill="#191970" stroke="#191970" points="514.4435,-197.634 521.7143,-205.3402 520.8361,-194.7819 514.4435,-197.634"/>
</g>
<!-- Node13 -->
<g id="node8" class="node">
<title>Node13</title>
<g id="a_node8"><a xlink:href="local__optimisation_8hpp.html" target="_top" xlink:title=" ">
<polygon fill="#ffffff" stroke="#000000" points="555.8325,-.5 555.8325,-38.5 690.231,-38.5 690.231,-.5 555.8325,-.5"/>
<text text-anchor="start" x="563.8325" y="-26.5" font-family="Helvetica,sans-Serif" font-size="10.00" fill="#000000">include/indigox/algorithm</text>
<text text-anchor="start" x="563.8325" y="-16.5" font-family="Helvetica,sans-Serif" font-size="10.00" fill="#000000">/electron_assignment/local</text>
<text text-anchor="middle" x="623.0317" y="-6.5" font-family="Helvetica,sans-Serif" font-size="10.00" fill="#000000">_optimisation.hpp</text>
</a>
</g>
</g>
<!-- Node6&#45;&gt;Node13 -->
<g id="edge15" class="edge">
<title>Node6&#45;&gt;Node13</title>
<path fill="none" stroke="#191970" d="M589.3207,-203.9105C606.7664,-196.3342 623.7947,-185.2165 634.0317,-169 659.5937,-128.5073 642.7277,-68.9909 631.2186,-38.716"/>
<polygon fill="#191970" stroke="#191970" points="587.6255,-200.818 579.6262,-207.7652 590.2118,-207.3227 587.6255,-200.818"/>
</g>
<!-- Node15 -->
<g id="node10" class="node">
<title>Node15</title>
<g id="a_node10"><a xlink:href="assignment_8hpp.html" target="_top" xlink:title=" ">
<polygon fill="#ffffff" stroke="#000000" points="514.7759,-140.5 514.7759,-168.5 625.2876,-168.5 625.2876,-140.5 514.7759,-140.5"/>
<text text-anchor="start" x="522.7759" y="-156.5" font-family="Helvetica,sans-Serif" font-size="10.00" fill="#000000">include/indigox/graph</text>
<text text-anchor="middle" x="570.0317" y="-146.5" font-family="Helvetica,sans-Serif" font-size="10.00" fill="#000000">/assignment.hpp</text>
</a>
</g>
</g>
<!-- Node6&#45;&gt;Node15 -->
<g id="edge10" class="edge">
<title>Node6&#45;&gt;Node15</title>
<path fill="none" stroke="#191970" d="M542.6562,-196.8669C548.7349,-187.4594 555.6009,-176.8334 560.9361,-168.5765"/>
<polygon fill="#191970" stroke="#191970" points="539.6326,-195.0973 537.1451,-205.396 545.512,-198.8963 539.6326,-195.0973"/>
</g>
<!-- Node8 -->
<g id="node3" class="node">
<title>Node8</title>
<g id="a_node3"><a xlink:href="forcefield_8hpp.html" target="_top" xlink:title=" ">
<polygon fill="#ffffff" stroke="#000000" points="56.8916,-75.5 56.8916,-103.5 175.1719,-103.5 175.1719,-75.5 56.8916,-75.5"/>
<text text-anchor="start" x="64.8916" y="-91.5" font-family="Helvetica,sans-Serif" font-size="10.00" fill="#000000">include/indigox/classes</text>
<text text-anchor="middle" x="116.0317" y="-81.5" font-family="Helvetica,sans-Serif" font-size="10.00" fill="#000000">/forcefield.hpp</text>
</a>
</g>
</g>
<!-- Node7&#45;&gt;Node8 -->
<g id="edge2" class="edge">
<title>Node7&#45;&gt;Node8</title>
<path fill="none" stroke="#191970" d="M249.6365,-136.9553C220.1579,-126.4847 183.2227,-113.3656 155.6625,-103.5765"/>
<polygon fill="#191970" stroke="#191970" points="248.7287,-140.347 259.3235,-140.396 251.0717,-133.7507 248.7287,-140.347"/>
</g>
<!-- Node10 -->
<g id="node5" class="node">
<title>Node10</title>
<g id="a_node5"><a xlink:href="molecule__impl_8hpp.html" target="_top" xlink:title=" ">
<polygon fill="#ffffff" stroke="#000000" points="143.8916,-5.5 143.8916,-33.5 262.1719,-33.5 262.1719,-5.5 143.8916,-5.5"/>
<text text-anchor="start" x="151.8916" y="-21.5" font-family="Helvetica,sans-Serif" font-size="10.00" fill="#000000">include/indigox/classes</text>
<text text-anchor="middle" x="203.0317" y="-11.5" font-family="Helvetica,sans-Serif" font-size="10.00" fill="#000000">/molecule_impl.hpp</text>
</a>
</g>
</g>
<!-- Node7&#45;&gt;Node10 -->
<g id="edge8" class="edge">
<title>Node7&#45;&gt;Node10</title>
<path fill="none" stroke="#191970" d="M257.5637,-135.3296C244.4122,-127.3649 230.9806,-116.9204 222.0317,-104 207.2205,-82.6153 203.7507,-51.5439 203.0576,-33.6439"/>
<polygon fill="#191970" stroke="#191970" points="256.1422,-138.5476 266.5653,-140.4475 259.602,-132.4623 256.1422,-138.5476"/>
</g>
<!-- Node7&#45;&gt;Node11 -->
<g id="edge5" class="edge">
<title>Node7&#45;&gt;Node11</title>
<path fill="none" stroke="#191970" d="M345.5476,-136.8185C373.0335,-126.3707 407.3587,-113.3231 432.9997,-103.5765"/>
<polygon fill="#191970" stroke="#191970" points="344.2401,-133.5712 336.1362,-140.396 346.7273,-140.1144 344.2401,-133.5712"/>
</g>
<!-- Node14 -->
<g id="node9" class="node">
<title>Node14</title>
<g id="a_node9"><a xlink:href="indigox_8hpp.html" target="_top" xlink:title=" ">
<polygon fill="#ffffff" stroke="#000000" points="230.9878,-80.5 230.9878,-98.5 367.0757,-98.5 367.0757,-80.5 230.9878,-80.5"/>
<text text-anchor="middle" x="299.0317" y="-86.5" font-family="Helvetica,sans-Serif" font-size="10.00" fill="#000000">include/indigox/indigox.hpp</text>
</a>
</g>
</g>
<!-- Node7&#45;&gt;Node14 -->
<g id="edge9" class="edge">
<title>Node7&#45;&gt;Node14</title>
<path fill="none" stroke="#191970" d="M299.0317,-130.3747C299.0317,-119.2832 299.0317,-106.7952 299.0317,-98.5743"/>
<polygon fill="#191970" stroke="#191970" points="295.5318,-130.3959 299.0317,-140.396 302.5318,-130.396 295.5318,-130.3959"/>
</g>
<!-- Node9 -->
<g id="node4" class="node">
<title>Node9</title>
<g id="a_node4"><a xlink:href="cherrypicker_8hpp.html" target="_top" xlink:title=" ">
<polygon fill="#ffffff" stroke="#000000" points="0,-5.5 0,-33.5 126.0635,-33.5 126.0635,-5.5 0,-5.5"/>
<text text-anchor="start" x="8" y="-21.5" font-family="Helvetica,sans-Serif" font-size="10.00" fill="#000000">include/indigox/algorithm</text>
<text text-anchor="middle" x="63.0317" y="-11.5" font-family="Helvetica,sans-Serif" font-size="10.00" fill="#000000">/cherrypicker.hpp</text>
</a>
</g>
</g>
<!-- Node8&#45;&gt;Node9 -->
<g id="edge3" class="edge">
<title>Node8&#45;&gt;Node9</title>
<path fill="none" stroke="#191970" d="M99.0305,-67.0456C90.7286,-56.0807 80.9931,-43.2226 73.7411,-33.6445"/>
<polygon fill="#191970" stroke="#191970" points="96.4796,-69.4746 105.3064,-75.3345 102.0604,-65.2491 96.4796,-69.4746"/>
</g>
<!-- Node8&#45;&gt;Node10 -->
<g id="edge4" class="edge">
<title>Node8&#45;&gt;Node10</title>
<path fill="none" stroke="#191970" d="M141.5369,-68.9786C155.654,-57.62 172.8408,-43.7916 185.4522,-33.6445"/>
<polygon fill="#191970" stroke="#191970" points="139.2346,-66.3387 133.6375,-75.3345 143.6228,-71.7926 139.2346,-66.3387"/>
</g>
<!-- Node12 -->
<g id="node7" class="node">
<title>Node12</title>
<g id="a_node7"><a xlink:href="astar__optimisation_8hpp.html" target="_top" xlink:title=" ">
<polygon fill="#ffffff" stroke="#000000" points="402,-.5 402,-38.5 538.0635,-38.5 538.0635,-.5 402,-.5"/>
<text text-anchor="start" x="410" y="-26.5" font-family="Helvetica,sans-Serif" font-size="10.00" fill="#000000">include/indigox/algorithm</text>
<text text-anchor="start" x="410" y="-16.5" font-family="Helvetica,sans-Serif" font-size="10.00" fill="#000000">/electron_assignment/astar</text>
<text text-anchor="middle" x="470.0317" y="-6.5" font-family="Helvetica,sans-Serif" font-size="10.00" fill="#000000">_optimisation.hpp</text>
</a>
</g>
</g>
<!-- Node11&#45;&gt;Node12 -->
<g id="edge6" class="edge">
<title>Node11&#45;&gt;Node12</title>
<path fill="none" stroke="#191970" d="M470.0317,-65.0725C470.0317,-56.4275 470.0317,-46.8328 470.0317,-38.6857"/>
<polygon fill="#191970" stroke="#191970" points="466.5318,-65.3344 470.0317,-75.3345 473.5318,-65.3345 466.5318,-65.3344"/>
</g>
<!-- Node11&#45;&gt;Node13 -->
<g id="edge7" class="edge">
<title>Node11&#45;&gt;Node13</title>
<path fill="none" stroke="#191970" d="M510.345,-71.056C532.2436,-61.037 559.2827,-48.6662 581.3849,-38.5541"/>
<polygon fill="#191970" stroke="#191970" points="508.6309,-67.9913 500.9936,-75.3345 511.5432,-74.3567 508.6309,-67.9913"/>
</g>
<!-- Node15&#45;&gt;Node11 -->
<g id="edge11" class="edge">
<title>Node15&#45;&gt;Node11</title>
<path fill="none" stroke="#191970" d="M539.622,-134.7337C524.148,-124.6755 505.7004,-112.6847 491.6879,-103.5765"/>
<polygon fill="#191970" stroke="#191970" points="538.0413,-137.8806 548.3332,-140.396 541.8563,-132.0115 538.0413,-137.8806"/>
</g>
<!-- Node15&#45;&gt;Node12 -->
<g id="edge12" class="edge">
<title>Node15&#45;&gt;Node12</title>
<path fill="none" stroke="#191970" d="M573.7718,-130.2625C575.094,-113.515 574.2256,-91.3908 564.0317,-75 554.123,-59.0678 537.8203,-47.158 521.5507,-38.5423"/>
<polygon fill="#191970" stroke="#191970" points="570.2736,-130.0552 572.6626,-140.3772 577.2319,-130.8183 570.2736,-130.0552"/>
</g>
<!-- Node15&#45;&gt;Node13 -->
<g id="edge13" class="edge">
<title>Node15&#45;&gt;Node13</title>
<path fill="none" stroke="#191970" d="M583.5947,-131.3877C588.2259,-122.942 593.1983,-113.2016 597.0317,-104 606.1219,-82.1805 613.6843,-56.034 618.2675,-38.6623"/>
<polygon fill="#191970" stroke="#191970" points="580.447,-129.8444 578.5899,-140.2752 586.5464,-133.2792 580.447,-129.8444"/>
</g>
</g>
</svg>
        <g id="navigator" transform="translate(0 0)" fill="#404254">
                <rect fill="#f2f5e9" fill-opacity="0.5" stroke="#606060" stroke-width=".5" x="0" y="0" width="60" height="60"/>
                <use id="zoomplus" xlink:href="#zoomPlus" x="17" y="9" onmousedown="handleZoom(evt,'in')"/>
                <use id="zoomminus" xlink:href="#zoomMin" x="42" y="9" onmousedown="handleZoom(evt,'out')"/>
                <use id="reset" xlink:href="#resetDef" x="30" y="36" onmousedown="handleReset()"/>
                <g id="arrowUp" xlink:href="#dirArrow" transform="translate(30 24)" onmousedown="handlePan(0,-1)">
                  <use xlink:href="#rim" fill="#404040">
                        <set attributeName="fill" to="#808080" begin="arrowUp.mouseover" end="arrowUp.mouseout"/>
                  </use>
                  <path fill="none" stroke="white" stroke-width="1.5" d="M0,-3.0v7 M-2.5,-0.5L0,-3.0L2.5,-0.5"/>
                </g>
                <g id="arrowRight" xlink:href="#dirArrow" transform="rotate(90) translate(36 -43)" onmousedown="handlePan(1,0)">
                  <use xlink:href="#rim" fill="#404040">
                        <set attributeName="fill" to="#808080" begin="arrowRight.mouseover" end="arrowRight.mouseout"/>
                  </use>
                  <path fill="none" stroke="white" stroke-width="1.5" d="M0,-3.0v7 M-2.5,-0.5L0,-3.0L2.5,-0.5"/>
                </g>
                <g id="arrowDown" xlink:href="#dirArrow" transform="rotate(180) translate(-30 -48)" onmousedown="handlePan(0,1)">
                  <use xlink:href="#rim" fill="#404040">
                        <set attributeName="fill" to="#808080" begin="arrowDown.mouseover" end="arrowDown.mouseout"/>
                  </use>
                  <path fill="none" stroke="white" stroke-width="1.5" d="M0,-3.0v7 M-2.5,-0.5L0,-3.0L2.5,-0.5"/>
                </g>
                <g id="arrowLeft" xlink:href="#dirArrow" transform="rotate(270) translate(-36 17)" onmousedown="handlePan(-1,0)">
                  <use xlink:href="#rim" fill="#404040">
                        <set attributeName="fill" to="#808080" begin="arrowLeft.mouseover" end="arrowLeft.mouseout"/>
                  </use>
                  <path fill="none" stroke="white" stroke-width="1.5" d="M0,-3.0v7 M-2.5,-0.5L0,-3.0L2.5,-0.5"/>
                </g>
        </g>
        <svg viewBox="0 0 15 15" width="100%" height="30px" preserveAspectRatio="xMaxYMin meet">
         <g id="arrow_out" transform="scale(0.3 0.3)">
          <a xlink:href="common_8hpp__dep__incl_org.svg" target="_base">
           <rect id="button" ry="5" rx="5" y="6" x="6" height="38" width="38"
                fill="#f2f5e9" fill-opacity="0.5" stroke="#606060" stroke-width="1.0"/>
           <path id="arrow"
             d="M 11.500037,31.436501 C 11.940474,20.09759 22.043105,11.32322 32.158766,21.979434 L 37.068811,17.246167 C 37.068811,17.246167 37.088388,32 37.088388,32 L 22.160133,31.978069 C 22.160133,31.978069 26.997745,27.140456 26.997745,27.140456 C 18.528582,18.264221 13.291696,25.230495 11.500037,31.436501 z"
             style="fill:#404040;"/>
          </a>
         </g>
        </svg>
</svg>
