<?xml version="1.0" encoding="UTF-8" standalone="no"?>
<!DOCTYPE svg PUBLIC "-//W3C//DTD SVG 1.1//EN"
 "http://www.w3.org/Graphics/SVG/1.1/DTD/svg11.dtd">
<!-- Generated by graphviz version 2.40.1 (20161225.0304)
 -->
<!-- Title: include/indigox/utils/common.hpp Pages: 1 -->
<svg width="2513pt" height="307pt"
 viewBox="0.00 0.00 2512.76 307.00" xmlns="http://www.w3.org/2000/svg" xmlns:xlink="http://www.w3.org/1999/xlink">
<g id="graph0" class="graph" transform="scale(1 1) rotate(0) translate(4 303)">
<title>include/indigox/utils/common.hpp</title>
<polygon fill="#ffffff" stroke="transparent" points="-4,4 -4,-303 2508.7583,-303 2508.7583,4 -4,4"/>
<!-- Node6 -->
<g id="node1" class="node">
<title>Node6</title>
<polygon fill="#bfbfbf" stroke="#000000" points="1895.4409,-270.5 1895.4409,-298.5 1998.1597,-298.5 1998.1597,-270.5 1895.4409,-270.5"/>
<text text-anchor="start" x="1903.4409" y="-286.5" font-family="Helvetica,sans-Serif" font-size="10.00" fill="#000000">include/indigox/utils</text>
<text text-anchor="middle" x="1946.8003" y="-276.5" font-family="Helvetica,sans-Serif" font-size="10.00" fill="#000000">/common.hpp</text>
</g>
<!-- Node7 -->
<g id="node2" class="node">
<title>Node7</title>
<g id="a_node2"><a xlink:href="periodictable_8hpp.html" target="_top" xlink:title="include/indigox/classes\l/periodictable.hpp">
<polygon fill="#ffffff" stroke="#000000" points="989.6602,-205.5 989.6602,-233.5 1107.9404,-233.5 1107.9404,-205.5 989.6602,-205.5"/>
<text text-anchor="start" x="997.6602" y="-221.5" font-family="Helvetica,sans-Serif" font-size="10.00" fill="#000000">include/indigox/classes</text>
<text text-anchor="middle" x="1048.8003" y="-211.5" font-family="Helvetica,sans-Serif" font-size="10.00" fill="#000000">/periodictable.hpp</text>
</a>
</g>
</g>
<!-- Node6&#45;&gt;Node7 -->
<g id="edge1" class="edge">
<title>Node6&#45;&gt;Node7</title>
<path fill="none" stroke="#191970" d="M1884.831,-280.0145C1719.6445,-268.0578 1270.3286,-235.5349 1108.1684,-223.7972"/>
<polygon fill="#191970" stroke="#191970" points="1885.068,-283.5407 1895.2946,-280.7719 1885.5734,-276.559 1885.068,-283.5407"/>
</g>
<!-- Node23 -->
<g id="node18" class="node">
<title>Node23</title>
<g id="a_node18"><a xlink:href="assigner_8hpp.html" target="_top" xlink:title="include/indigox/algorithm\l/electron_assignment/assigner.hpp">
<polygon fill="#ffffff" stroke="#000000" points="1748.5273,-140.5 1748.5273,-168.5 1919.0732,-168.5 1919.0732,-140.5 1748.5273,-140.5"/>
<text text-anchor="start" x="1756.5273" y="-156.5" font-family="Helvetica,sans-Serif" font-size="10.00" fill="#000000">include/indigox/algorithm</text>
<text text-anchor="middle" x="1833.8003" y="-146.5" font-family="Helvetica,sans-Serif" font-size="10.00" fill="#000000">/electron_assignment/assigner.hpp</text>
</a>
</g>
</g>
<!-- Node6&#45;&gt;Node23 -->
<g id="edge52" class="edge">
<title>Node6&#45;&gt;Node23</title>
<path fill="none" stroke="#191970" d="M1917.2392,-264.5915C1905.7107,-255.9922 1892.8742,-245.3123 1882.8003,-234 1864.5778,-213.5375 1849.0602,-185.4453 1840.6177,-168.7147"/>
<polygon fill="#191970" stroke="#191970" points="1915.1931,-267.4311 1925.3444,-270.4646 1919.3005,-261.7628 1915.1931,-267.4311"/>
</g>
<!-- Node25 -->
<g id="node20" class="node">
<title>Node25</title>
<g id="a_node20"><a xlink:href="assigner_8cpp.html" target="_top" xlink:title="src/algorithm/electron\l_assignment/assigner.cpp">
<polygon fill="#ffffff" stroke="#000000" points="1645.9854,-.5 1645.9854,-28.5 1777.6152,-28.5 1777.6152,-.5 1645.9854,-.5"/>
<text text-anchor="start" x="1653.9854" y="-16.5" font-family="Helvetica,sans-Serif" font-size="10.00" fill="#000000">src/algorithm/electron</text>
<text text-anchor="middle" x="1711.8003" y="-6.5" font-family="Helvetica,sans-Serif" font-size="10.00" fill="#000000">_assignment/assigner.cpp</text>
</a>
</g>
</g>
<!-- Node6&#45;&gt;Node25 -->
<g id="edge54" class="edge">
<title>Node6&#45;&gt;Node25</title>
<path fill="none" stroke="#191970" d="M1885.3983,-272.4611C1829.0223,-258.0038 1747.9057,-227.9293 1704.8003,-169 1673.5714,-126.3072 1694.551,-57.8297 1705.88,-28.5336"/>
<polygon fill="#191970" stroke="#191970" points="1884.7243,-275.8997 1895.2718,-274.8992 1886.4025,-269.1039 1884.7243,-275.8997"/>
</g>
<!-- Node27 -->
<g id="node22" class="node">
<title>Node27</title>
<g id="a_node22"><a xlink:href="local__optimisation_8hpp.html" target="_top" xlink:title="include/indigox/algorithm\l/electron_assignment/local\l_optimisation.hpp">
<polygon fill="#ffffff" stroke="#000000" points="1978.6011,-65.5 1978.6011,-103.5 2112.9995,-103.5 2112.9995,-65.5 1978.6011,-65.5"/>
<text text-anchor="start" x="1986.6011" y="-91.5" font-family="Helvetica,sans-Serif" font-size="10.00" fill="#000000">include/indigox/algorithm</text>
<text text-anchor="start" x="1986.6011" y="-81.5" font-family="Helvetica,sans-Serif" font-size="10.00" fill="#000000">/electron_assignment/local</text>
<text text-anchor="middle" x="2045.8003" y="-71.5" font-family="Helvetica,sans-Serif" font-size="10.00" fill="#000000">_optimisation.hpp</text>
</a>
</g>
</g>
<!-- Node6&#45;&gt;Node27 -->
<g id="edge53" class="edge">
<title>Node6&#45;&gt;Node27</title>
<path fill="none" stroke="#191970" d="M1994.5438,-266.4018C2034.5043,-248.3985 2088.8735,-216.5474 2113.8003,-169 2119.7848,-157.5847 2119.3267,-151.644 2113.8003,-140 2106.6784,-124.9943 2093.2935,-112.7054 2080.2701,-103.54"/>
<polygon fill="#191970" stroke="#191970" points="1992.9983,-263.2574 1985.2335,-270.4656 1995.7986,-269.6729 1992.9983,-263.2574"/>
</g>
<!-- Node28 -->
<g id="node23" class="node">
<title>Node28</title>
<g id="a_node23"><a xlink:href="local__optimisation_8cpp.html" target="_top" xlink:title="src/algorithm/electron\l_assignment/local_optimisation.cpp">
<polygon fill="#ffffff" stroke="#000000" points="2069.8672,-.5 2069.8672,-28.5 2243.7334,-28.5 2243.7334,-.5 2069.8672,-.5"/>
<text text-anchor="start" x="2077.8672" y="-16.5" font-family="Helvetica,sans-Serif" font-size="10.00" fill="#000000">src/algorithm/electron</text>
<text text-anchor="middle" x="2156.8003" y="-6.5" font-family="Helvetica,sans-Serif" font-size="10.00" fill="#000000">_assignment/local_optimisation.cpp</text>
</a>
</g>
</g>
<!-- Node6&#45;&gt;Node28 -->
<g id="edge55" class="edge">
<title>Node6&#45;&gt;Node28</title>
<path fill="none" stroke="#191970" d="M2007.9158,-268.9252C2057.6459,-252.7698 2124.9427,-222.2077 2158.8003,-169 2183.9838,-129.4237 2185.5925,-111.0781 2176.8003,-65 2174.3612,-52.2174 2168.74,-38.5413 2164.0762,-28.6495"/>
<polygon fill="#191970" stroke="#191970" points="2006.7133,-265.6342 1998.2191,-271.9667 2008.8083,-272.3134 2006.7133,-265.6342"/>
</g>
<!-- Node32 -->
<g id="node27" class="node">
<title>Node32</title>
<g id="a_node27"><a xlink:href="periodictable_8cpp.html" target="_top" xlink:title="src/classes/periodictable.cpp">
<polygon fill="#ffffff" stroke="#000000" points="1472.8818,-145.5 1472.8818,-163.5 1616.7188,-163.5 1616.7188,-145.5 1472.8818,-145.5"/>
<text text-anchor="middle" x="1544.8003" y="-151.5" font-family="Helvetica,sans-Serif" font-size="10.00" fill="#000000">src/classes/periodictable.cpp</text>
</a>
</g>
</g>
<!-- Node6&#45;&gt;Node32 -->
<g id="edge57" class="edge">
<title>Node6&#45;&gt;Node32</title>
<path fill="none" stroke="#191970" d="M1884.906,-278.8993C1805.9822,-271.0247 1674.4989,-255.2333 1630.8003,-234 1595.6872,-216.9384 1564.8687,-180.7505 1551.6541,-163.7228"/>
<polygon fill="#191970" stroke="#191970" points="1884.9115,-282.4166 1895.206,-279.9118 1885.5964,-275.4502 1884.9115,-282.4166"/>
</g>
<!-- Node34 -->
<g id="node29" class="node">
<title>Node34</title>
<g id="a_node29"><a xlink:href="assignment_8hpp.html" target="_top" xlink:title="include/indigox/graph\l/assignment.hpp">
<polygon fill="#ffffff" stroke="#000000" points="1891.5444,-205.5 1891.5444,-233.5 2002.0562,-233.5 2002.0562,-205.5 1891.5444,-205.5"/>
<text text-anchor="start" x="1899.5444" y="-221.5" font-family="Helvetica,sans-Serif" font-size="10.00" fill="#000000">include/indigox/graph</text>
<text text-anchor="middle" x="1946.8003" y="-211.5" font-family="Helvetica,sans-Serif" font-size="10.00" fill="#000000">/assignment.hpp</text>
</a>
</g>
</g>
<!-- Node6&#45;&gt;Node34 -->
<g id="edge44" class="edge">
<title>Node6&#45;&gt;Node34</title>
<path fill="none" stroke="#191970" d="M1946.8003,-260.1081C1946.8003,-251.1539 1946.8003,-241.3227 1946.8003,-233.5765"/>
<polygon fill="#191970" stroke="#191970" points="1943.3004,-260.3959 1946.8003,-270.396 1950.3004,-260.396 1943.3004,-260.3959"/>
</g>
<!-- Node36 -->
<g id="node31" class="node">
<title>Node36</title>
<g id="a_node31"><a xlink:href="connectivity_8cpp.html" target="_top" xlink:title="src/algorithm/graph\l/connectivity.cpp">
<polygon fill="#ffffff" stroke="#000000" points="2275.0049,-205.5 2275.0049,-233.5 2376.5957,-233.5 2376.5957,-205.5 2275.0049,-205.5"/>
<text text-anchor="start" x="2283.0049" y="-221.5" font-family="Helvetica,sans-Serif" font-size="10.00" fill="#000000">src/algorithm/graph</text>
<text text-anchor="middle" x="2325.8003" y="-211.5" font-family="Helvetica,sans-Serif" font-size="10.00" fill="#000000">/connectivity.cpp</text>
</a>
</g>
</g>
<!-- Node6&#45;&gt;Node36 -->
<g id="edge56" class="edge">
<title>Node6&#45;&gt;Node36</title>
<path fill="none" stroke="#191970" d="M2008.6011,-275.6802C2072.0646,-266.3609 2173.6054,-250.7217 2260.8003,-234 2265.3424,-233.129 2270.052,-232.1761 2274.7658,-231.1883"/>
<polygon fill="#191970" stroke="#191970" points="2007.7534,-272.2668 1998.3651,-277.1769 2008.7663,-279.1932 2007.7534,-272.2668"/>
</g>
<!-- Node37 -->
<g id="node32" class="node">
<title>Node37</title>
<g id="a_node32"><a xlink:href="common_8cpp.html" target="_top" xlink:title="src/utils/common.cpp">
<polygon fill="#ffffff" stroke="#000000" points="2394.8423,-210.5 2394.8423,-228.5 2504.7583,-228.5 2504.7583,-210.5 2394.8423,-210.5"/>
<text text-anchor="middle" x="2449.8003" y="-216.5" font-family="Helvetica,sans-Serif" font-size="10.00" fill="#000000">src/utils/common.cpp</text>
</a>
</g>
</g>
<!-- Node6&#45;&gt;Node37 -->
<g id="edge58" class="edge">
<title>Node6&#45;&gt;Node37</title>
<path fill="none" stroke="#191970" d="M2008.4435,-279.5297C2093.6566,-272.1772 2252.0784,-256.7707 2385.8003,-234 2394.6728,-232.4892 2404.1641,-230.5299 2413.0472,-228.543"/>
<polygon fill="#191970" stroke="#191970" points="2008.0867,-276.0473 1998.4211,-280.3863 2008.6829,-283.0219 2008.0867,-276.0473"/>
</g>
<!-- Node8 -->
<g id="node3" class="node">
<title>Node8</title>
<g id="a_node3"><a xlink:href="forcefield_8hpp.html" target="_top" xlink:title="include/indigox/classes\l/forcefield.hpp">
<polygon fill="#ffffff" stroke="#000000" points="685.6602,-140.5 685.6602,-168.5 803.9404,-168.5 803.9404,-140.5 685.6602,-140.5"/>
<text text-anchor="start" x="693.6602" y="-156.5" font-family="Helvetica,sans-Serif" font-size="10.00" fill="#000000">include/indigox/classes</text>
<text text-anchor="middle" x="744.8003" y="-146.5" font-family="Helvetica,sans-Serif" font-size="10.00" fill="#000000">/forcefield.hpp</text>
</a>
</g>
</g>
<!-- Node7&#45;&gt;Node8 -->
<g id="edge2" class="edge">
<title>Node7&#45;&gt;Node8</title>
<path fill="none" stroke="#191970" d="M979.4727,-204.6767C926.4971,-193.3496 854.2654,-177.9054 803.9866,-167.155"/>
<polygon fill="#191970" stroke="#191970" points="978.9536,-208.1447 989.4644,-206.813 980.4172,-201.2994 978.9536,-208.1447"/>
</g>
<!-- Node11 -->
<g id="node6" class="node">
<title>Node11</title>
<g id="a_node6"><a xlink:href="main_8cpp.html" target="_top" xlink:title="src/main.cpp">
<polygon fill="#ffffff" stroke="#000000" points="1143.458,-5.5 1143.458,-23.5 1216.1426,-23.5 1216.1426,-5.5 1143.458,-5.5"/>
<text text-anchor="middle" x="1179.8003" y="-11.5" font-family="Helvetica,sans-Serif" font-size="10.00" fill="#000000">src/main.cpp</text>
</a>
</g>
</g>
<!-- Node7&#45;&gt;Node11 -->
<g id="edge43" class="edge">
<title>Node7&#45;&gt;Node11</title>
<path fill="none" stroke="#191970" d="M1029.7764,-197.0544C1017.7869,-180.0586 1006.8121,-156.8421 1019.8003,-140 1058.2461,-90.1465 1112.4046,-148.6372 1156.8003,-104 1178.8613,-81.819 1180.6587,-41.5001 1180.2627,-23.545"/>
<polygon fill="#191970" stroke="#191970" points="1027.1942,-199.4425 1036.0171,-205.3084 1032.7779,-195.2208 1027.1942,-199.4425"/>
</g>
<!-- Node12 -->
<g id="node7" class="node">
<title>Node12</title>
<g id="a_node7"><a xlink:href="molecule__impl_8hpp.html" target="_top" xlink:title="include/indigox/classes\l/molecule_impl.hpp">
<polygon fill="#ffffff" stroke="#000000" points="301.6602,-70.5 301.6602,-98.5 419.9404,-98.5 419.9404,-70.5 301.6602,-70.5"/>
<text text-anchor="start" x="309.6602" y="-86.5" font-family="Helvetica,sans-Serif" font-size="10.00" fill="#000000">include/indigox/classes</text>
<text text-anchor="middle" x="360.8003" y="-76.5" font-family="Helvetica,sans-Serif" font-size="10.00" fill="#000000">/molecule_impl.hpp</text>
</a>
</g>
</g>
<!-- Node7&#45;&gt;Node12 -->
<g id="edge33" class="edge">
<title>Node7&#45;&gt;Node12</title>
<path fill="none" stroke="#191970" d="M979.5828,-213.8917C887.6661,-205.7958 730.659,-189.5275 676.8003,-169 655.2605,-160.7904 655.0591,-148.9119 633.8003,-140 614.3137,-131.831 494.2221,-108.9535 419.955,-95.2545"/>
<polygon fill="#191970" stroke="#191970" points="979.3707,-217.3864 989.6367,-214.7675 979.9782,-210.4128 979.3707,-217.3864"/>
</g>
<!-- Node14 -->
<g id="node9" class="node">
<title>Node14</title>
<g id="a_node9"><a xlink:href="atom_8cpp.html" target="_top" xlink:title="src/classes/atom.cpp">
<polygon fill="#ffffff" stroke="#000000" points="699.1182,-5.5 699.1182,-23.5 808.4824,-23.5 808.4824,-5.5 699.1182,-5.5"/>
<text text-anchor="middle" x="753.8003" y="-11.5" font-family="Helvetica,sans-Serif" font-size="10.00" fill="#000000">src/classes/atom.cpp</text>
</a>
</g>
</g>
<!-- Node7&#45;&gt;Node14 -->
<g id="edge37" class="edge">
<title>Node7&#45;&gt;Node14</title>
<path fill="none" stroke="#191970" d="M1023.4077,-199.1526C977.7147,-162.679 883.1126,-87.842 847.8003,-65 822.757,-48.8006 792.0343,-33.0031 772.681,-23.5092"/>
<polygon fill="#191970" stroke="#191970" points="1021.348,-201.987 1031.3451,-205.4955 1025.7179,-196.5185 1021.348,-201.987"/>
</g>
<!-- Node17 -->
<g id="node12" class="node">
<title>Node17</title>
<g id="a_node12"><a xlink:href="molecule_8cpp.html" target="_top" xlink:title="src/classes/molecule.cpp">
<polygon fill="#ffffff" stroke="#000000" points="826.2241,-5.5 826.2241,-23.5 953.3765,-23.5 953.3765,-5.5 826.2241,-5.5"/>
<text text-anchor="middle" x="889.8003" y="-11.5" font-family="Helvetica,sans-Serif" font-size="10.00" fill="#000000">src/classes/molecule.cpp</text>
</a>
</g>
</g>
<!-- Node7&#45;&gt;Node17 -->
<g id="edge40" class="edge">
<title>Node7&#45;&gt;Node17</title>
<path fill="none" stroke="#191970" d="M1031.7731,-197.2671C1025.1485,-188.5148 1017.544,-178.3409 1010.8003,-169 977.8928,-123.4194 974.4957,-108.4319 938.8003,-65 926.2347,-49.7109 909.9503,-33.5493 899.6856,-23.7419"/>
<polygon fill="#191970" stroke="#191970" points="1029.1647,-199.6193 1038.0029,-205.4619 1034.7373,-195.3829 1029.1647,-199.6193"/>
</g>
<!-- Node21 -->
<g id="node16" class="node">
<title>Node21</title>
<g id="a_node16"><a xlink:href="forcefield_8cpp.html" target="_top" xlink:title="src/classes/forcefield.cpp">
<polygon fill="#ffffff" stroke="#000000" points="117.9458,-75.5 117.9458,-93.5 245.6548,-93.5 245.6548,-75.5 117.9458,-75.5"/>
<text text-anchor="middle" x="181.8003" y="-81.5" font-family="Helvetica,sans-Serif" font-size="10.00" fill="#000000">src/classes/forcefield.cpp</text>
</a>
</g>
</g>
<!-- Node7&#45;&gt;Node21 -->
<g id="edge39" class="edge">
<title>Node7&#45;&gt;Node21</title>
<path fill="none" stroke="#191970" d="M979.1177,-215.9998C877.4246,-210.0549 693.9198,-195.9221 633.8003,-169 615.9802,-161.02 618.6938,-147.814 600.8003,-140 457.4927,-77.4184 404.393,-133.3735 250.8003,-104 237.1063,-101.3811 222.1875,-97.3213 209.7368,-93.5827"/>
<polygon fill="#191970" stroke="#191970" points="979.1134,-219.5052 989.2974,-216.5835 979.5142,-212.5167 979.1134,-219.5052"/>
</g>
<!-- Node7&#45;&gt;Node23 -->
<g id="edge23" class="edge">
<title>Node7&#45;&gt;Node23</title>
<path fill="none" stroke="#191970" d="M1118.1442,-213.7581C1261.8427,-201.8595 1591.7533,-174.5421 1748.3237,-161.5777"/>
<polygon fill="#191970" stroke="#191970" points="1117.8017,-210.2744 1108.1247,-214.5878 1118.3794,-217.2506 1117.8017,-210.2744"/>
</g>
<!-- Node7&#45;&gt;Node25 -->
<g id="edge35" class="edge">
<title>Node7&#45;&gt;Node25</title>
<path fill="none" stroke="#191970" d="M1118.3656,-214.4718C1211.6175,-207.0001 1371.6957,-191.3992 1425.8003,-169 1445.4298,-160.8734 1445.8021,-151.2882 1463.8003,-140 1537.7923,-93.593 1631.1285,-50.0718 1679.4669,-28.5543"/>
<polygon fill="#191970" stroke="#191970" points="1117.8622,-211.0006 1108.1691,-215.2778 1118.4138,-217.9788 1117.8622,-211.0006"/>
</g>
<!-- Node29 -->
<g id="node24" class="node">
<title>Node29</title>
<g id="a_node24"><a xlink:href="indigox_8hpp.html" target="_top" xlink:title="include/indigox/indigox.hpp">
<polygon fill="#ffffff" stroke="#000000" points="1028.7563,-145.5 1028.7563,-163.5 1164.8442,-163.5 1164.8442,-145.5 1028.7563,-145.5"/>
<text text-anchor="middle" x="1096.8003" y="-151.5" font-family="Helvetica,sans-Serif" font-size="10.00" fill="#000000">include/indigox/indigox.hpp</text>
</a>
</g>
</g>
<!-- Node7&#45;&gt;Node29 -->
<g id="edge34" class="edge">
<title>Node7&#45;&gt;Node29</title>
<path fill="none" stroke="#191970" d="M1065.3581,-197.0779C1073.8474,-185.582 1083.7155,-172.219 1090.0993,-163.5743"/>
<polygon fill="#191970" stroke="#191970" points="1062.3405,-195.2725 1059.2156,-205.396 1067.9716,-199.4308 1062.3405,-195.2725"/>
</g>
<!-- Node30 -->
<g id="node25" class="node">
<title>Node30</title>
<g id="a_node25"><a xlink:href="electron__optimisation_8cpp.html" target="_top" xlink:title="src/algorithm/electron\l_optimisation.cpp">
<polygon fill="#ffffff" stroke="#000000" points="1183.0049,-140.5 1183.0049,-168.5 1294.5957,-168.5 1294.5957,-140.5 1183.0049,-140.5"/>
<text text-anchor="start" x="1191.0049" y="-156.5" font-family="Helvetica,sans-Serif" font-size="10.00" fill="#000000">src/algorithm/electron</text>
<text text-anchor="middle" x="1238.8003" y="-146.5" font-family="Helvetica,sans-Serif" font-size="10.00" fill="#000000">_optimisation.cpp</text>
</a>
</g>
</g>
<!-- Node7&#45;&gt;Node30 -->
<g id="edge36" class="edge">
<title>Node7&#45;&gt;Node30</title>
<path fill="none" stroke="#191970" d="M1099.6862,-202.0917C1130.3575,-191.5988 1168.9148,-178.4082 1197.6536,-168.5765"/>
<polygon fill="#191970" stroke="#191970" points="1098.3562,-198.8474 1090.0275,-205.396 1100.622,-205.4706 1098.3562,-198.8474"/>
</g>
<!-- Node31 -->
<g id="node26" class="node">
<title>Node31</title>
<g id="a_node26"><a xlink:href="electron__graph_8cpp.html" target="_top" xlink:title="src/classes/electron\l_graph.cpp">
<polygon fill="#ffffff" stroke="#000000" points="1312.8965,-140.5 1312.8965,-168.5 1416.7041,-168.5 1416.7041,-140.5 1312.8965,-140.5"/>
<text text-anchor="start" x="1320.8965" y="-156.5" font-family="Helvetica,sans-Serif" font-size="10.00" fill="#000000">src/classes/electron</text>
<text text-anchor="middle" x="1364.8003" y="-146.5" font-family="Helvetica,sans-Serif" font-size="10.00" fill="#000000">_graph.cpp</text>
</a>
</g>
</g>
<!-- Node7&#45;&gt;Node31 -->
<g id="edge38" class="edge">
<title>Node7&#45;&gt;Node31</title>
<path fill="none" stroke="#191970" d="M1118.18,-206.4956C1169.542,-196.6898 1241.1689,-182.6405 1303.8003,-169 1306.672,-168.3746 1309.6165,-167.7198 1312.5865,-167.0488"/>
<polygon fill="#191970" stroke="#191970" points="1117.3551,-203.0897 1108.1865,-208.3988 1118.6647,-209.9661 1117.3551,-203.0897"/>
</g>
<!-- Node7&#45;&gt;Node32 -->
<g id="edge41" class="edge">
<title>Node7&#45;&gt;Node32</title>
<path fill="none" stroke="#191970" d="M1118.1302,-211.9128C1199.7595,-202.7592 1339.3599,-186.4161 1458.8003,-169 1470.0374,-167.3615 1482.0717,-165.4385 1493.4716,-163.5383"/>
<polygon fill="#191970" stroke="#191970" points="1117.5299,-208.458 1107.9806,-213.0473 1118.3076,-215.4146 1117.5299,-208.458"/>
</g>
<!-- Node33 -->
<g id="node28" class="node">
<title>Node33</title>
<g id="a_node28"><a xlink:href="condensed_8cpp.html" target="_top" xlink:title="src/graph/condensed.cpp">
<polygon fill="#ffffff" stroke="#000000" points="463.6528,-145.5 463.6528,-163.5 591.9478,-163.5 591.9478,-145.5 463.6528,-145.5"/>
<text text-anchor="middle" x="527.8003" y="-151.5" font-family="Helvetica,sans-Serif" font-size="10.00" fill="#000000">src/graph/condensed.cpp</text>
</a>
</g>
</g>
<!-- Node7&#45;&gt;Node33 -->
<g id="edge42" class="edge">
<title>Node7&#45;&gt;Node33</title>
<path fill="none" stroke="#191970" d="M979.4547,-213.1174C892.084,-204.7263 737.4291,-188.7124 605.8003,-169 595.3115,-167.4292 584.0758,-165.4916 573.4914,-163.5498"/>
<polygon fill="#191970" stroke="#191970" points="979.2231,-216.6112 989.5107,-214.0781 979.8888,-209.6429 979.2231,-216.6112"/>
</g>
<!-- Node9 -->
<g id="node4" class="node">
<title>Node9</title>
<g id="a_node4"><a xlink:href="cherrypicker_8hpp.html" target="_top" xlink:title="include/indigox/algorithm\l/cherrypicker.hpp">
<polygon fill="#ffffff" stroke="#000000" points="990.7686,-70.5 990.7686,-98.5 1116.832,-98.5 1116.832,-70.5 990.7686,-70.5"/>
<text text-anchor="start" x="998.7686" y="-86.5" font-family="Helvetica,sans-Serif" font-size="10.00" fill="#000000">include/indigox/algorithm</text>
<text text-anchor="middle" x="1053.8003" y="-76.5" font-family="Helvetica,sans-Serif" font-size="10.00" fill="#000000">/cherrypicker.hpp</text>
</a>
</g>
</g>
<!-- Node8&#45;&gt;Node9 -->
<g id="edge3" class="edge">
<title>Node8&#45;&gt;Node9</title>
<path fill="none" stroke="#191970" d="M814.0689,-138.8081C867.4073,-126.7249 940.4712,-110.1733 991.8757,-98.5282"/>
<polygon fill="#191970" stroke="#191970" points="812.9926,-135.4631 804.013,-141.0861 814.5392,-142.2902 812.9926,-135.4631"/>
</g>
<!-- Node8&#45;&gt;Node11 -->
<g id="edge22" class="edge">
<title>Node8&#45;&gt;Node11</title>
<path fill="none" stroke="#191970" d="M814.334,-152.4047C909.9625,-148.3383 1075.9165,-136.6714 1125.8003,-104 1155.5552,-84.512 1171.4017,-42.4017 1177.1953,-23.7331"/>
<polygon fill="#191970" stroke="#191970" points="814.0188,-148.9145 804.1698,-152.8196 814.3043,-155.9087 814.0188,-148.9145"/>
</g>
<!-- Node8&#45;&gt;Node12 -->
<g id="edge6" class="edge">
<title>Node8&#45;&gt;Node12</title>
<path fill="none" stroke="#191970" d="M675.5911,-140.6703C674.3177,-140.4427 673.0532,-140.2191 671.8003,-140 566.4181,-121.5739 538.5287,-125.8381 433.8003,-104 426.2237,-102.4201 418.2619,-100.5327 410.495,-98.5634"/>
<polygon fill="#191970" stroke="#191970" points="675.0139,-144.1228 685.4807,-142.4805 676.2743,-137.2371 675.0139,-144.1228"/>
</g>
<!-- Node13 -->
<g id="node8" class="node">
<title>Node13</title>
<g id="a_node8"><a xlink:href="angle_8cpp.html" target="_top" xlink:title="src/classes/angle.cpp">
<polygon fill="#ffffff" stroke="#000000" points="0,-5.5 0,-23.5 111.6006,-23.5 111.6006,-5.5 0,-5.5"/>
<text text-anchor="middle" x="55.8003" y="-11.5" font-family="Helvetica,sans-Serif" font-size="10.00" fill="#000000">src/classes/angle.cpp</text>
</a>
</g>
</g>
<!-- Node8&#45;&gt;Node13 -->
<g id="edge14" class="edge">
<title>Node8&#45;&gt;Node13</title>
<path fill="none" stroke="#191970" d="M675.5601,-145.1866C661.735,-143.4028 647.3121,-141.5955 633.8003,-140 558.1271,-131.0643 361.3542,-137.2662 292.8003,-104 271.0276,-93.4346 275.7606,-77.0974 254.8003,-65 241.1013,-57.0935 150.7303,-35.8734 96.5955,-23.6029"/>
<polygon fill="#191970" stroke="#191970" points="675.132,-148.6603 685.4997,-146.4781 676.034,-141.7187 675.132,-148.6603"/>
</g>
<!-- Node8&#45;&gt;Node14 -->
<g id="edge16" class="edge">
<title>Node8&#45;&gt;Node14</title>
<path fill="none" stroke="#191970" d="M795.1969,-135.7455C808.8513,-128.0791 822.0006,-117.7064 829.8003,-104 838.3731,-88.9351 837.9908,-80.2761 829.8003,-65 819.0958,-45.035 796.6362,-31.6173 778.8942,-23.6619"/>
<polygon fill="#191970" stroke="#191970" points="793.4746,-132.6959 786.2021,-140.4005 796.692,-138.9127 793.4746,-132.6959"/>
</g>
<!-- Node15 -->
<g id="node10" class="node">
<title>Node15</title>
<g id="a_node10"><a xlink:href="bond_8cpp.html" target="_top" xlink:title="src/classes/bond.cpp">
<polygon fill="#ffffff" stroke="#000000" points="408.1108,-5.5 408.1108,-23.5 517.4897,-23.5 517.4897,-5.5 408.1108,-5.5"/>
<text text-anchor="middle" x="462.8003" y="-11.5" font-family="Helvetica,sans-Serif" font-size="10.00" fill="#000000">src/classes/bond.cpp</text>
</a>
</g>
</g>
<!-- Node8&#45;&gt;Node15 -->
<g id="edge17" class="edge">
<title>Node8&#45;&gt;Node15</title>
<path fill="none" stroke="#191970" d="M675.2258,-140.6082C601.0949,-125.7912 494.2374,-104.3818 493.8003,-104 469.65,-82.9059 464.3045,-42.018 463.1282,-23.7301"/>
<polygon fill="#191970" stroke="#191970" points="674.9622,-144.1246 685.4543,-142.6523 676.3341,-137.2604 674.9622,-144.1246"/>
</g>
<!-- Node16 -->
<g id="node11" class="node">
<title>Node16</title>
<g id="a_node11"><a xlink:href="dihedral_8cpp.html" target="_top" xlink:title="src/classes/dihedral.cpp">
<polygon fill="#ffffff" stroke="#000000" points="535.4434,-5.5 535.4434,-23.5 658.1572,-23.5 658.1572,-5.5 535.4434,-5.5"/>
<text text-anchor="middle" x="596.8003" y="-11.5" font-family="Helvetica,sans-Serif" font-size="10.00" fill="#000000">src/classes/dihedral.cpp</text>
</a>
</g>
</g>
<!-- Node8&#45;&gt;Node16 -->
<g id="edge18" class="edge">
<title>Node8&#45;&gt;Node16</title>
<path fill="none" stroke="#191970" d="M675.4612,-140.4488C605.0667,-126.1045 506.1808,-105.7012 504.8003,-104 493.8783,-90.5406 495.9721,-79.9167 504.8003,-65 517.2354,-43.9889 541.8593,-31.1374 562.5048,-23.6603"/>
<polygon fill="#191970" stroke="#191970" points="675.1283,-143.9527 685.6256,-142.5182 676.5249,-137.0934 675.1283,-143.9527"/>
</g>
<!-- Node8&#45;&gt;Node17 -->
<g id="edge20" class="edge">
<title>Node8&#45;&gt;Node17</title>
<path fill="none" stroke="#191970" d="M798.505,-136.4107C815.8636,-128.5536 834.1353,-117.9004 847.8003,-104 871.1437,-80.2543 883.227,-41.1002 887.7107,-23.5276"/>
<polygon fill="#191970" stroke="#191970" points="796.8015,-133.3329 788.9904,-140.4909 799.5604,-139.7663 796.8015,-133.3329"/>
</g>
<!-- Node20 -->
<g id="node15" class="node">
<title>Node20</title>
<g id="a_node15"><a xlink:href="athenaeum_8cpp.html" target="_top" xlink:title="src/classes/athenaeum.cpp">
<polygon fill="#ffffff" stroke="#000000" points="514.2144,-75.5 514.2144,-93.5 651.3862,-93.5 651.3862,-75.5 514.2144,-75.5"/>
<text text-anchor="middle" x="582.8003" y="-81.5" font-family="Helvetica,sans-Serif" font-size="10.00" fill="#000000">src/classes/athenaeum.cpp</text>
</a>
</g>
</g>
<!-- Node8&#45;&gt;Node20 -->
<g id="edge15" class="edge">
<title>Node8&#45;&gt;Node20</title>
<path fill="none" stroke="#191970" d="M702.5212,-136.2312C670.749,-122.5025 628.5831,-104.2827 603.7042,-93.5325"/>
<polygon fill="#191970" stroke="#191970" points="701.4492,-139.5808 712.0172,-140.3345 704.2258,-133.155 701.4492,-139.5808"/>
</g>
<!-- Node8&#45;&gt;Node21 -->
<g id="edge19" class="edge">
<title>Node8&#45;&gt;Node21</title>
<path fill="none" stroke="#191970" d="M675.5715,-145.0879C661.7454,-143.3122 647.3193,-141.5332 633.8003,-140 467.8735,-121.1821 424.3703,-132.3292 259.8003,-104 244.3935,-101.3479 227.5379,-97.2839 213.4502,-93.5511"/>
<polygon fill="#191970" stroke="#191970" points="675.1443,-148.5618 685.5114,-146.3768 676.0445,-141.6199 675.1443,-148.5618"/>
</g>
<!-- Node22 -->
<g id="node17" class="node">
<title>Node22</title>
<g id="a_node17"><a xlink:href="parameterised_8cpp.html" target="_top" xlink:title="src/classes/parameterised.cpp">
<polygon fill="#ffffff" stroke="#000000" points="669.2734,-75.5 669.2734,-93.5 820.3271,-93.5 820.3271,-75.5 669.2734,-75.5"/>
<text text-anchor="middle" x="744.8003" y="-81.5" font-family="Helvetica,sans-Serif" font-size="10.00" fill="#000000">src/classes/parameterised.cpp</text>
</a>
</g>
</g>
<!-- Node8&#45;&gt;Node22 -->
<g id="edge21" class="edge">
<title>Node8&#45;&gt;Node22</title>
<path fill="none" stroke="#191970" d="M744.8003,-130.007C744.8003,-117.4648 744.8003,-102.9386 744.8003,-93.7368"/>
<polygon fill="#191970" stroke="#191970" points="741.3004,-130.3344 744.8003,-140.3345 748.3004,-130.3345 741.3004,-130.3344"/>
</g>
<!-- Node10 -->
<g id="node5" class="node">
<title>Node10</title>
<g id="a_node5"><a xlink:href="cherrypicker_8cpp.html" target="_top" xlink:title="src/algorithm/cherrypicker.cpp">
<polygon fill="#ffffff" stroke="#000000" points="976.3867,-5.5 976.3867,-23.5 1125.2139,-23.5 1125.2139,-5.5 976.3867,-5.5"/>
<text text-anchor="middle" x="1050.8003" y="-11.5" font-family="Helvetica,sans-Serif" font-size="10.00" fill="#000000">src/algorithm/cherrypicker.cpp</text>
</a>
</g>
</g>
<!-- Node9&#45;&gt;Node10 -->
<g id="edge4" class="edge">
<title>Node9&#45;&gt;Node10</title>
<path fill="none" stroke="#191970" d="M1052.7506,-60.007C1052.2131,-47.4648 1051.5905,-32.9386 1051.1962,-23.7368"/>
<polygon fill="#191970" stroke="#191970" points="1049.2681,-60.4935 1053.1932,-70.3345 1056.2617,-60.1937 1049.2681,-60.4935"/>
</g>
<!-- Node9&#45;&gt;Node11 -->
<g id="edge5" class="edge">
<title>Node9&#45;&gt;Node11</title>
<path fill="none" stroke="#191970" d="M1088.2928,-65.3375C1112.8031,-51.7207 1144.6085,-34.051 1163.5417,-23.5325"/>
<polygon fill="#191970" stroke="#191970" points="1086.3401,-62.4184 1079.2983,-70.3345 1089.7396,-68.5375 1086.3401,-62.4184"/>
</g>
<!-- Node12&#45;&gt;Node13 -->
<g id="edge7" class="edge">
<title>Node12&#45;&gt;Node13</title>
<path fill="none" stroke="#191970" d="M299.5485,-67.9059C295.578,-66.9021 291.6359,-65.9251 287.8003,-65 213.9897,-47.1973 194.9647,-45.2657 120.8003,-29 112.7818,-27.2414 104.2113,-25.3429 96.0117,-23.5174"/>
<polygon fill="#191970" stroke="#191970" points="298.8762,-71.3467 309.4323,-70.4421 300.6161,-64.5663 298.8762,-71.3467"/>
</g>
<!-- Node12&#45;&gt;Node14 -->
<g id="edge8" class="edge">
<title>Node12&#45;&gt;Node14</title>
<path fill="none" stroke="#191970" d="M430.3014,-72.1207C508.4988,-58.1924 633.6404,-35.9025 703.131,-23.5251"/>
<polygon fill="#191970" stroke="#191970" points="429.2931,-68.7451 420.0619,-73.9445 430.5207,-75.6366 429.2931,-68.7451"/>
</g>
<!-- Node12&#45;&gt;Node15 -->
<g id="edge9" class="edge">
<title>Node12&#45;&gt;Node15</title>
<path fill="none" stroke="#191970" d="M389.7771,-64.6139C409.4686,-51.1002 434.5818,-33.8657 449.6386,-23.5325"/>
<polygon fill="#191970" stroke="#191970" points="387.7062,-61.7902 381.4415,-70.3345 391.6671,-67.5618 387.7062,-61.7902"/>
</g>
<!-- Node12&#45;&gt;Node16 -->
<g id="edge10" class="edge">
<title>Node12&#45;&gt;Node16</title>
<path fill="none" stroke="#191970" d="M417.9573,-67.5467C464.6526,-53.6963 528.8468,-34.6557 566.2714,-23.5552"/>
<polygon fill="#191970" stroke="#191970" points="416.8664,-64.2194 408.2745,-70.4187 418.857,-70.9304 416.8664,-64.2194"/>
</g>
<!-- Node12&#45;&gt;Node17 -->
<g id="edge11" class="edge">
<title>Node12&#45;&gt;Node17</title>
<path fill="none" stroke="#191970" d="M429.9339,-74.8515C453.6557,-71.6171 480.3777,-68.0578 504.8003,-65 643.7437,-47.6038 679.486,-50.8419 817.8003,-29 827.6243,-27.4486 838.1459,-25.4965 848.028,-23.5319"/>
<polygon fill="#191970" stroke="#191970" points="429.3998,-71.3919 419.9666,-76.2154 430.3488,-78.3273 429.3998,-71.3919"/>
</g>
<!-- Node18 -->
<g id="node13" class="node">
<title>Node18</title>
<g id="a_node13"><a xlink:href="residue_8cpp.html" target="_top" xlink:title="src/classes/residue.cpp">
<polygon fill="#ffffff" stroke="#000000" points="129.835,-5.5 129.835,-23.5 249.7656,-23.5 249.7656,-5.5 129.835,-5.5"/>
<text text-anchor="middle" x="189.8003" y="-11.5" font-family="Helvetica,sans-Serif" font-size="10.00" fill="#000000">src/classes/residue.cpp</text>
</a>
</g>
</g>
<!-- Node12&#45;&gt;Node18 -->
<g id="edge12" class="edge">
<title>Node12&#45;&gt;Node18</title>
<path fill="none" stroke="#191970" d="M316.6054,-66.4085C283.0191,-52.6597 238.2398,-34.329 211.8655,-23.5325"/>
<polygon fill="#191970" stroke="#191970" points="315.6153,-69.7851 326.1959,-70.3345 318.2673,-63.3068 315.6153,-69.7851"/>
</g>
<!-- Node19 -->
<g id="node14" class="node">
<title>Node19</title>
<g id="a_node14"><a xlink:href="molecular_8cpp.html" target="_top" xlink:title="src/graph/molecular.cpp">
<polygon fill="#ffffff" stroke="#000000" points="267.7168,-5.5 267.7168,-23.5 389.8838,-23.5 389.8838,-5.5 267.7168,-5.5"/>
<text text-anchor="middle" x="328.8003" y="-11.5" font-family="Helvetica,sans-Serif" font-size="10.00" fill="#000000">src/graph/molecular.cpp</text>
</a>
</g>
</g>
<!-- Node12&#45;&gt;Node19 -->
<g id="edge13" class="edge">
<title>Node12&#45;&gt;Node19</title>
<path fill="none" stroke="#191970" d="M350.1221,-61.1415C344.2746,-48.3501 337.3568,-33.2174 333.0228,-23.7368"/>
<polygon fill="#191970" stroke="#191970" points="346.9838,-62.6949 354.3246,-70.3345 353.3501,-59.7845 346.9838,-62.6949"/>
</g>
<!-- Node24 -->
<g id="node19" class="node">
<title>Node24</title>
<g id="a_node19"><a xlink:href="astar__optimisation_8hpp.html" target="_top" xlink:title="include/indigox/algorithm\l/electron_assignment/astar\l_optimisation.hpp">
<polygon fill="#ffffff" stroke="#000000" points="1710.7686,-65.5 1710.7686,-103.5 1846.832,-103.5 1846.832,-65.5 1710.7686,-65.5"/>
<text text-anchor="start" x="1718.7686" y="-91.5" font-family="Helvetica,sans-Serif" font-size="10.00" fill="#000000">include/indigox/algorithm</text>
<text text-anchor="start" x="1718.7686" y="-81.5" font-family="Helvetica,sans-Serif" font-size="10.00" fill="#000000">/electron_assignment/astar</text>
<text text-anchor="middle" x="1778.8003" y="-71.5" font-family="Helvetica,sans-Serif" font-size="10.00" fill="#000000">_optimisation.hpp</text>
</a>
</g>
</g>
<!-- Node23&#45;&gt;Node24 -->
<g id="edge24" class="edge">
<title>Node23&#45;&gt;Node24</title>
<path fill="none" stroke="#191970" d="M1816.3996,-132.3536C1809.164,-123.1447 1800.8451,-112.557 1793.8747,-103.6857"/>
<polygon fill="#191970" stroke="#191970" points="1813.7398,-134.6336 1822.6702,-140.3345 1819.2441,-130.3089 1813.7398,-134.6336"/>
</g>
<!-- Node23&#45;&gt;Node25 -->
<g id="edge30" class="edge">
<title>Node23&#45;&gt;Node25</title>
<path fill="none" stroke="#191970" d="M1848.867,-131.7248C1859.5759,-112.398 1869.7979,-84.7423 1855.8003,-65 1845.687,-50.7362 1807.7179,-37.7556 1773.3081,-28.5271"/>
<polygon fill="#191970" stroke="#191970" points="1845.7693,-130.0865 1843.6748,-140.4723 1851.7888,-133.6595 1845.7693,-130.0865"/>
</g>
<!-- Node26 -->
<g id="node21" class="node">
<title>Node26</title>
<g id="a_node21"><a xlink:href="astar__optimisation_8cpp.html" target="_top" xlink:title="src/algorithm/electron\l_assignment/astar_optimisation.cpp">
<polygon fill="#ffffff" stroke="#000000" points="1825.0347,-.5 1825.0347,-28.5 2000.5659,-28.5 2000.5659,-.5 1825.0347,-.5"/>
<text text-anchor="start" x="1833.0347" y="-16.5" font-family="Helvetica,sans-Serif" font-size="10.00" fill="#000000">src/algorithm/electron</text>
<text text-anchor="middle" x="1912.8003" y="-6.5" font-family="Helvetica,sans-Serif" font-size="10.00" fill="#000000">_assignment/astar_optimisation.cpp</text>
</a>
</g>
</g>
<!-- Node23&#45;&gt;Node26 -->
<g id="edge31" class="edge">
<title>Node23&#45;&gt;Node26</title>
<path fill="none" stroke="#191970" d="M1862.247,-133.8303C1871.9085,-125.5319 1881.9749,-115.2583 1888.8003,-104 1903.3119,-80.0637 1909.1842,-47.319 1911.4572,-28.7979"/>
<polygon fill="#191970" stroke="#191970" points="1859.8383,-131.2785 1854.3066,-140.3146 1864.2659,-136.7004 1859.8383,-131.2785"/>
</g>
<!-- Node23&#45;&gt;Node27 -->
<g id="edge27" class="edge">
<title>Node23&#45;&gt;Node27</title>
<path fill="none" stroke="#191970" d="M1886.1632,-137.2104C1917.0435,-127.014 1956.1701,-114.0949 1987.9585,-103.5987"/>
<polygon fill="#191970" stroke="#191970" points="1884.845,-133.9597 1876.4466,-140.4187 1887.0398,-140.6067 1884.845,-133.9597"/>
</g>
<!-- Node23&#45;&gt;Node28 -->
<g id="edge32" class="edge">
<title>Node23&#45;&gt;Node28</title>
<path fill="none" stroke="#191970" d="M1863.4682,-134.8083C1902.6141,-108.8498 1966.9397,-66.2874 1969.8003,-65 2005.9858,-48.7145 2048.5435,-36.7128 2083.9108,-28.5058"/>
<polygon fill="#191970" stroke="#191970" points="1861.4548,-131.9438 1855.056,-140.3881 1865.3241,-137.7773 1861.4548,-131.9438"/>
</g>
<!-- Node24&#45;&gt;Node25 -->
<g id="edge25" class="edge">
<title>Node24&#45;&gt;Node25</title>
<path fill="none" stroke="#191970" d="M1753.4977,-58.0645C1744.0436,-48.187 1733.6614,-37.34 1725.6218,-28.9404"/>
<polygon fill="#191970" stroke="#191970" points="1751.0492,-60.5681 1760.4922,-65.3722 1756.1061,-55.7279 1751.0492,-60.5681"/>
</g>
<!-- Node24&#45;&gt;Node26 -->
<g id="edge26" class="edge">
<title>Node24&#45;&gt;Node26</title>
<path fill="none" stroke="#191970" d="M1824.5135,-60.62C1844.8265,-50.0087 1868.0526,-37.8757 1885.5825,-28.7183"/>
<polygon fill="#191970" stroke="#191970" points="1822.6593,-57.6397 1815.4164,-65.3722 1825.9005,-63.8442 1822.6593,-57.6397"/>
</g>
<!-- Node27&#45;&gt;Node25 -->
<g id="edge28" class="edge">
<title>Node27&#45;&gt;Node25</title>
<path fill="none" stroke="#191970" d="M1968.4046,-68.2794C1910.6824,-56.1819 1832.6699,-39.832 1777.8659,-28.3461"/>
<polygon fill="#191970" stroke="#191970" points="1967.7051,-71.7087 1978.2104,-70.3345 1969.141,-64.8576 1967.7051,-71.7087"/>
</g>
<!-- Node27&#45;&gt;Node28 -->
<g id="edge29" class="edge">
<title>Node27&#45;&gt;Node28</title>
<path fill="none" stroke="#191970" d="M2085.0366,-59.7564C2101.5301,-49.355 2120.1256,-37.6282 2134.2542,-28.7183"/>
<polygon fill="#191970" stroke="#191970" points="2082.7231,-57.0775 2076.1315,-65.3722 2086.457,-62.9984 2082.7231,-57.0775"/>
</g>
<!-- Node34&#45;&gt;Node23 -->
<g id="edge45" class="edge">
<title>Node34&#45;&gt;Node23</title>
<path fill="none" stroke="#191970" d="M1913.4142,-200.2956C1895.7327,-190.1248 1874.4019,-177.8549 1858.2718,-168.5765"/>
<polygon fill="#191970" stroke="#191970" points="1911.8676,-203.4437 1922.281,-205.396 1915.3579,-197.3759 1911.8676,-203.4437"/>
</g>
<!-- Node34&#45;&gt;Node24 -->
<g id="edge46" class="edge">
<title>Node34&#45;&gt;Node24</title>
<path fill="none" stroke="#191970" d="M1881.1181,-212.2779C1827.2759,-204.8441 1757.2134,-191.1719 1739.8003,-169 1724.1324,-149.0502 1742.3506,-121.7884 1758.7844,-103.6867"/>
<polygon fill="#191970" stroke="#191970" points="1880.9325,-215.7841 1891.3077,-213.638 1881.8588,-208.8456 1880.9325,-215.7841"/>
</g>
<!-- Node34&#45;&gt;Node25 -->
<g id="edge48" class="edge">
<title>Node34&#45;&gt;Node25</title>
<path fill="none" stroke="#191970" d="M1881.4469,-210.884C1826.2337,-202.4393 1752.6033,-188.0649 1729.8003,-169 1688.5726,-134.5309 1700.5643,-60.2918 1707.9483,-28.941"/>
<polygon fill="#191970" stroke="#191970" points="1881.1179,-214.3737 1891.5257,-212.3916 1882.1535,-207.4507 1881.1179,-214.3737"/>
</g>
<!-- Node34&#45;&gt;Node26 -->
<g id="edge49" class="edge">
<title>Node34&#45;&gt;Node26</title>
<path fill="none" stroke="#191970" d="M2012.2662,-207.3251C2053.1031,-198.3454 2100.3735,-184.9473 2113.8003,-169 2143.6584,-133.537 2150.4741,-101.4273 2121.8003,-65 2106.4752,-45.5309 2050.844,-32.674 2000.8295,-24.8069"/>
<polygon fill="#191970" stroke="#191970" points="2011.3642,-203.9388 2002.3187,-209.4551 2012.8299,-210.7836 2011.3642,-203.9388"/>
</g>
<!-- Node34&#45;&gt;Node27 -->
<g id="edge47" class="edge">
<title>Node34&#45;&gt;Node27</title>
<path fill="none" stroke="#191970" d="M1948.0865,-195.2304C1949.9965,-178.4681 1954.6355,-156.3393 1965.8003,-140 1976.1,-124.9267 1991.9476,-112.6936 2006.829,-103.5872"/>
<polygon fill="#191970" stroke="#191970" points="1944.5857,-195.0847 1947.1844,-205.3559 1951.5581,-195.706 1944.5857,-195.0847"/>
</g>
<!-- Node34&#45;&gt;Node28 -->
<g id="edge50" class="edge">
<title>Node34&#45;&gt;Node28</title>
<path fill="none" stroke="#191970" d="M2012.2277,-210.0165C2060.4162,-201.6334 2120.3089,-187.8077 2136.8003,-169 2171.9286,-128.9378 2164.8358,-59.0423 2159.7006,-28.9527"/>
<polygon fill="#191970" stroke="#191970" points="2011.4184,-206.6036 2002.1423,-211.7226 2012.5861,-213.5055 2011.4184,-206.6036"/>
</g>
<!-- Node35 -->
<g id="node30" class="node">
<title>Node35</title>
<g id="a_node30"><a xlink:href="assignment_8cpp.html" target="_top" xlink:title="src/graph/assignment.cpp">
<polygon fill="#ffffff" stroke="#000000" points="1974.5493,-145.5 1974.5493,-163.5 2105.0513,-163.5 2105.0513,-145.5 1974.5493,-145.5"/>
<text text-anchor="middle" x="2039.8003" y="-151.5" font-family="Helvetica,sans-Serif" font-size="10.00" fill="#000000">src/graph/assignment.cpp</text>
</a>
</g>
</g>
<!-- Node34&#45;&gt;Node35 -->
<g id="edge51" class="edge">
<title>Node34&#45;&gt;Node35</title>
<path fill="none" stroke="#191970" d="M1975.5355,-199.4163C1992.6731,-187.4383 2013.5997,-172.8122 2026.8171,-163.5743"/>
<polygon fill="#191970" stroke="#191970" points="1973.1713,-196.7985 1966.9799,-205.396 1977.1814,-202.536 1973.1713,-196.7985"/>
</g>
</g>
</svg>
