<?xml version="1.0" encoding="UTF-8" standalone="no"?>
<!DOCTYPE svg PUBLIC "-//W3C//DTD SVG 1.1//EN"
 "http://www.w3.org/Graphics/SVG/1.1/DTD/svg11.dtd">
<!-- Generated by graphviz version 2.40.1 (20161225.0304)
 -->
<!-- Title: include/indigox/utils/common.hpp Pages: 1 -->
<svg width="339pt" height="92pt"
 viewBox="0.00 0.00 338.63 92.00" xmlns="http://www.w3.org/2000/svg" xmlns:xlink="http://www.w3.org/1999/xlink">
<g id="graph0" class="graph" transform="scale(1 1) rotate(0) translate(4 88)">
<title>include/indigox/utils/common.hpp</title>
<polygon fill="#ffffff" stroke="transparent" points="-4,4 -4,-88 334.6304,-88 334.6304,4 -4,4"/>
<!-- Node0 -->
<g id="node1" class="node">
<title>Node0</title>
<g id="a_node1"><a xlink:title=" ">
<polygon fill="#bfbfbf" stroke="#000000" points="115.2046,-55.5 115.2046,-83.5 217.9233,-83.5 217.9233,-55.5 115.2046,-55.5"/>
<text text-anchor="start" x="123.2046" y="-71.5" font-family="Helvetica,sans-Serif" font-size="10.00" fill="#000000">include/indigox/utils</text>
<text text-anchor="middle" x="166.564" y="-61.5" font-family="Helvetica,sans-Serif" font-size="10.00" fill="#000000">/common.hpp</text>
</a>
</g>
</g>
<!-- Node1 -->
<g id="node2" class="node">
<title>Node1</title>
<g id="a_node2"><a xlink:title=" ">
<polygon fill="#ffffff" stroke="#bfbfbf" points="0,-.5 0,-18.5 57.1279,-18.5 57.1279,-.5 0,-.5"/>
<text text-anchor="middle" x="28.564" y="-6.5" font-family="Helvetica,sans-Serif" font-size="10.00" fill="#000000">algorithm</text>
</a>
</g>
</g>
<!-- Node0&#45;&gt;Node1 -->
<g id="edge1" class="edge">
<title>Node0&#45;&gt;Node1</title>
<path fill="none" stroke="#191970" d="M134.2091,-55.4327C111.4472,-45.5362 81.1903,-32.381 58.8918,-22.686"/>
<polygon fill="#191970" stroke="#191970" points="60.1317,-19.4086 49.5654,-18.6311 57.3406,-25.8281 60.1317,-19.4086"/>
</g>
<!-- Node2 -->
<g id="node3" class="node">
<title>Node2</title>
<g id="a_node3"><a xlink:title=" ">
<polygon fill="#ffffff" stroke="#bfbfbf" points="75.0024,-.5 75.0024,-18.5 122.1255,-18.5 122.1255,-.5 75.0024,-.5"/>
<text text-anchor="middle" x="98.564" y="-6.5" font-family="Helvetica,sans-Serif" font-size="10.00" fill="#000000">iterator</text>
</a>
</g>
</g>
<!-- Node0&#45;&gt;Node2 -->
<g id="edge2" class="edge">
<title>Node0&#45;&gt;Node2</title>
<path fill="none" stroke="#191970" d="M150.4489,-55.2808C140.2842,-46.312 127.1381,-34.7124 116.622,-25.4335"/>
<polygon fill="#191970" stroke="#191970" points="118.6735,-22.576 108.8594,-18.5842 114.0421,-27.8249 118.6735,-22.576"/>
</g>
<!-- Node3 -->
<g id="node4" class="node">
<title>Node3</title>
<g id="a_node4"><a xlink:title=" ">
<polygon fill="#ffffff" stroke="#bfbfbf" points="140.5073,-.5 140.5073,-18.5 192.6206,-18.5 192.6206,-.5 140.5073,-.5"/>
<text text-anchor="middle" x="166.564" y="-6.5" font-family="Helvetica,sans-Serif" font-size="10.00" fill="#000000">memory</text>
</a>
</g>
</g>
<!-- Node0&#45;&gt;Node3 -->
<g id="edge3" class="edge">
<title>Node0&#45;&gt;Node3</title>
<path fill="none" stroke="#191970" d="M166.564,-55.2808C166.564,-47.3776 166.564,-37.4316 166.564,-28.8308"/>
<polygon fill="#191970" stroke="#191970" points="170.0641,-28.5842 166.564,-18.5842 163.0641,-28.5842 170.0641,-28.5842"/>
</g>
<!-- Node4 -->
<g id="node5" class="node">
<title>Node4</title>
<g id="a_node5"><a xlink:title=" ">
<polygon fill="#ffffff" stroke="#bfbfbf" points="210.3374,-.5 210.3374,-18.5 250.7905,-18.5 250.7905,-.5 210.3374,-.5"/>
<text text-anchor="middle" x="230.564" y="-6.5" font-family="Helvetica,sans-Serif" font-size="10.00" fill="#000000">string</text>
</a>
</g>
</g>
<!-- Node0&#45;&gt;Node4 -->
<g id="edge4" class="edge">
<title>Node0&#45;&gt;Node4</title>
<path fill="none" stroke="#191970" d="M181.7311,-55.2808C191.2979,-46.312 203.6707,-34.7124 213.5682,-25.4335"/>
<polygon fill="#191970" stroke="#191970" points="215.9726,-27.977 220.8742,-18.5842 211.185,-22.8702 215.9726,-27.977"/>
</g>
<!-- Node5 -->
<g id="node6" class="node">
<title>Node5</title>
<g id="a_node6"><a xlink:title=" ">
<polygon fill="#ffffff" stroke="#bfbfbf" points="268.4976,-.5 268.4976,-18.5 330.6304,-18.5 330.6304,-.5 268.4976,-.5"/>
<text text-anchor="middle" x="299.564" y="-6.5" font-family="Helvetica,sans-Serif" font-size="10.00" fill="#000000">type_traits</text>
</a>
</g>
</g>
<!-- Node0&#45;&gt;Node5 -->
<g id="edge5" class="edge">
<title>Node0&#45;&gt;Node5</title>
<path fill="none" stroke="#191970" d="M197.7466,-55.4327C219.5854,-45.5806 248.583,-32.4989 270.0454,-22.8167"/>
<polygon fill="#191970" stroke="#191970" points="271.6474,-25.9337 279.3234,-18.6311 268.7688,-19.5529 271.6474,-25.9337"/>
</g>
</g>
</svg>
