<?xml version="1.0" encoding="UTF-8" standalone="no"?>
<!DOCTYPE svg PUBLIC "-//W3C//DTD SVG 1.1//EN"
 "http://www.w3.org/Graphics/SVG/1.1/DTD/svg11.dtd">
<!-- Generated by graphviz version 2.40.1 (20161225.0304)
 -->
<!-- Title: include/indigox/graph/condensed.hpp Pages: 1 -->
<svg width="126pt" height="102pt"
 viewBox="0.00 0.00 126.28 102.00" xmlns="http://www.w3.org/2000/svg" xmlns:xlink="http://www.w3.org/1999/xlink">
<g id="graph0" class="graph" transform="scale(1 1) rotate(0) translate(4 98)">
<title>include/indigox/graph/condensed.hpp</title>
<polygon fill="#ffffff" stroke="transparent" points="-4,4 -4,-98 122.2803,-98 122.2803,4 -4,4"/>
<!-- Node38 -->
<g id="node1" class="node">
<title>Node38</title>
<g id="a_node1"><a xlink:title=" ">
<polygon fill="#bfbfbf" stroke="#000000" points="3.8843,-65.5 3.8843,-93.5 114.396,-93.5 114.396,-65.5 3.8843,-65.5"/>
<text text-anchor="start" x="11.8843" y="-81.5" font-family="Helvetica,sans-Serif" font-size="10.00" fill="#000000">include/indigox/graph</text>
<text text-anchor="middle" x="59.1401" y="-71.5" font-family="Helvetica,sans-Serif" font-size="10.00" fill="#000000">/condensed.hpp</text>
</a>
</g>
</g>
<!-- Node39 -->
<g id="node2" class="node">
<title>Node39</title>
<g id="a_node2"><a xlink:href="molecule__impl_8hpp.html" target="_top" xlink:title=" ">
<polygon fill="#ffffff" stroke="#000000" points="0,-.5 0,-28.5 118.2803,-28.5 118.2803,-.5 0,-.5"/>
<text text-anchor="start" x="8" y="-16.5" font-family="Helvetica,sans-Serif" font-size="10.00" fill="#000000">include/indigox/classes</text>
<text text-anchor="middle" x="59.1401" y="-6.5" font-family="Helvetica,sans-Serif" font-size="10.00" fill="#000000">/molecule_impl.hpp</text>
</a>
</g>
</g>
<!-- Node38&#45;&gt;Node39 -->
<g id="edge1" class="edge">
<title>Node38&#45;&gt;Node39</title>
<path fill="none" stroke="#191970" d="M59.1401,-55.1081C59.1401,-46.1539 59.1401,-36.3227 59.1401,-28.5765"/>
<polygon fill="#191970" stroke="#191970" points="55.6402,-55.3959 59.1401,-65.396 62.6402,-55.396 55.6402,-55.3959"/>
</g>
</g>
</svg>
