<?xml version="1.0" encoding="UTF-8" standalone="no"?>
<!DOCTYPE svg PUBLIC "-//W3C//DTD SVG 1.1//EN"
 "http://www.w3.org/Graphics/SVG/1.1/DTD/svg11.dtd">
<!-- Generated by graphviz version 2.40.1 (20161225.0304)
 -->
<!-- Title: include/indigox/graph/condensed.hpp Pages: 1 -->
<svg width="2614pt" height="407pt"
 viewBox="0.00 0.00 2614.41 407.00" xmlns="http://www.w3.org/2000/svg" xmlns:xlink="http://www.w3.org/1999/xlink">
<g id="graph0" class="graph" transform="scale(1 1) rotate(0) translate(4 403)">
<title>include/indigox/graph/condensed.hpp</title>
<polygon fill="#ffffff" stroke="transparent" points="-4,4 -4,-403 2610.4138,-403 2610.4138,4 -4,4"/>
<!-- Node0 -->
<g id="node1" class="node">
<title>Node0</title>
<polygon fill="#bfbfbf" stroke="#000000" points="880.8084,-370.5 880.8084,-398.5 991.3201,-398.5 991.3201,-370.5 880.8084,-370.5"/>
<text text-anchor="start" x="888.8084" y="-386.5" font-family="Helvetica,sans-Serif" font-size="10.00" fill="#000000">include/indigox/graph</text>
<text text-anchor="middle" x="936.0642" y="-376.5" font-family="Helvetica,sans-Serif" font-size="10.00" fill="#000000">/condensed.hpp</text>
</g>
<!-- Node1 -->
<g id="node2" class="node">
<title>Node1</title>
<g id="a_node2"><a xlink:href="fwd__declares_8hpp.html" target="_top" xlink:title="../utils/fwd_declares.hpp">
<polygon fill="#ffffff" stroke="#000000" points="537.4241,-60.5 537.4241,-78.5 660.7044,-78.5 660.7044,-60.5 537.4241,-60.5"/>
<text text-anchor="middle" x="599.0642" y="-66.5" font-family="Helvetica,sans-Serif" font-size="10.00" fill="#000000">../utils/fwd_declares.hpp</text>
</a>
</g>
</g>
<!-- Node0&#45;&gt;Node1 -->
<g id="edge1" class="edge">
<title>Node0&#45;&gt;Node1</title>
<path fill="none" stroke="#191970" d="M880.7021,-379.1064C796.4102,-370.4532 640.0836,-352.5493 587.0642,-334 541.376,-318.0156 517.1445,-320.9888 493.0642,-279 457.2035,-216.4695 478.1604,-174.7365 525.0642,-120 537.9711,-104.9377 556.3832,-92.3499 571.6122,-83.5091"/>
<polygon fill="#191970" stroke="#191970" points="573.5722,-86.4238 580.6054,-78.5001 570.166,-80.3083 573.5722,-86.4238"/>
</g>
<!-- Node3 -->
<g id="node4" class="node">
<title>Node3</title>
<polygon fill="#ffffff" stroke="#bfbfbf" points="2432.0076,-.5 2432.0076,-18.5 2484.1209,-18.5 2484.1209,-.5 2432.0076,-.5"/>
<text text-anchor="middle" x="2458.0642" y="-6.5" font-family="Helvetica,sans-Serif" font-size="10.00" fill="#000000">memory</text>
</g>
<!-- Node0&#45;&gt;Node3 -->
<g id="edge54" class="edge">
<title>Node0&#45;&gt;Node3</title>
<path fill="none" stroke="#191970" d="M991.5855,-383.1964C1269.4828,-376.3149 2496.0642,-341.576 2496.0642,-264.5 2496.0642,-264.5 2496.0642,-264.5 2496.0642,-134.5 2496.0642,-95.1813 2478.6406,-51.7963 2467.3897,-27.8803"/>
<polygon fill="#191970" stroke="#191970" points="2470.4035,-26.0749 2462.877,-18.6182 2464.1107,-29.141 2470.4035,-26.0749"/>
</g>
<!-- Node4 -->
<g id="node5" class="node">
<title>Node4</title>
<g id="a_node5"><a xlink:href="base__graph_8hpp.html" target="_top" xlink:title="base_graph.hpp">
<polygon fill="#ffffff" stroke="#000000" points="595.9217,-315.5 595.9217,-333.5 684.2068,-333.5 684.2068,-315.5 595.9217,-315.5"/>
<text text-anchor="middle" x="640.0642" y="-321.5" font-family="Helvetica,sans-Serif" font-size="10.00" fill="#000000">base_graph.hpp</text>
</a>
</g>
</g>
<!-- Node0&#45;&gt;Node4 -->
<g id="edge4" class="edge">
<title>Node0&#45;&gt;Node4</title>
<path fill="none" stroke="#191970" d="M880.7361,-373.2848C827.4457,-362.4827 747.3324,-346.2436 694.3837,-335.5107"/>
<polygon fill="#191970" stroke="#191970" points="694.9952,-332.0635 684.4991,-333.5071 693.6045,-338.924 694.9952,-332.0635"/>
</g>
<!-- Node6 -->
<g id="node7" class="node">
<title>Node6</title>
<polygon fill="#ffffff" stroke="#bfbfbf" points="790.5423,-190.5 790.5423,-208.5 901.5862,-208.5 901.5862,-190.5 790.5423,-190.5"/>
<text text-anchor="middle" x="846.0642" y="-196.5" font-family="Helvetica,sans-Serif" font-size="10.00" fill="#000000">EASTL/vector_map.h</text>
</g>
<!-- Node0&#45;&gt;Node6 -->
<g id="edge52" class="edge">
<title>Node0&#45;&gt;Node6</title>
<path fill="none" stroke="#191970" d="M937.5385,-370.3332C939.5268,-344.4126 940.4707,-288.4835 917.0642,-250 907.4303,-234.1605 890.7471,-221.9124 875.9726,-213.4476"/>
<polygon fill="#191970" stroke="#191970" points="877.5639,-210.3293 867.1001,-208.6676 874.2438,-216.4919 877.5639,-210.3293"/>
</g>
<!-- Node8 -->
<g id="node9" class="node">
<title>Node8</title>
<polygon fill="#ffffff" stroke="#bfbfbf" points="14.4485,-60.5 14.4485,-78.5 57.68,-78.5 57.68,-60.5 14.4485,-60.5"/>
<text text-anchor="middle" x="36.0642" y="-66.5" font-family="Helvetica,sans-Serif" font-size="10.00" fill="#000000">vector</text>
</g>
<!-- Node0&#45;&gt;Node8 -->
<g id="edge55" class="edge">
<title>Node0&#45;&gt;Node8</title>
<path fill="none" stroke="#191970" d="M880.7537,-383.028C684.0477,-377.07 30.0642,-350.7743 30.0642,-264.5 30.0642,-264.5 30.0642,-264.5 30.0642,-199.5 30.0642,-160.1185 32.8458,-114.0977 34.6211,-88.7357"/>
<polygon fill="#191970" stroke="#191970" points="38.1211,-88.8614 35.3524,-78.6347 31.1394,-88.3559 38.1211,-88.8614"/>
</g>
<!-- Node36 -->
<g id="node37" class="node">
<title>Node36</title>
<polygon fill="#ffffff" stroke="#bfbfbf" points="920.5989,-190.5 920.5989,-208.5 1025.5296,-208.5 1025.5296,-190.5 920.5989,-190.5"/>
<text text-anchor="middle" x="973.0642" y="-196.5" font-family="Helvetica,sans-Serif" font-size="10.00" fill="#000000">EASTL/vector_set.h</text>
</g>
<!-- Node0&#45;&gt;Node36 -->
<g id="edge53" class="edge">
<title>Node0&#45;&gt;Node36</title>
<path fill="none" stroke="#191970" d="M940.3713,-370.4472C943.3593,-360.3683 947.2858,-346.4305 950.0642,-334 959.157,-293.3193 966.6163,-245.0181 970.3917,-218.7917"/>
<polygon fill="#191970" stroke="#191970" points="973.8848,-219.0866 971.8192,-208.6951 966.9537,-218.1066 973.8848,-219.0866"/>
</g>
<!-- Node37 -->
<g id="node38" class="node">
<title>Node37</title>
<polygon fill="#ffffff" stroke="#bfbfbf" points="2523.7146,-315.5 2523.7146,-333.5 2606.4138,-333.5 2606.4138,-315.5 2523.7146,-315.5"/>
<text text-anchor="middle" x="2565.0642" y="-321.5" font-family="Helvetica,sans-Serif" font-size="10.00" fill="#000000">EASTL/bitset.h</text>
</g>
<!-- Node0&#45;&gt;Node37 -->
<g id="edge51" class="edge">
<title>Node0&#45;&gt;Node37</title>
<path fill="none" stroke="#191970" d="M991.4383,-383.7569C1234.2563,-380.3392 2206.2789,-364.9578 2510.0642,-334 2511.1728,-333.887 2512.2928,-333.765 2513.421,-333.6351"/>
<polygon fill="#191970" stroke="#191970" points="2514.2494,-337.0562 2523.7055,-332.2778 2513.3335,-330.1163 2514.2494,-337.0562"/>
</g>
<!-- Node2 -->
<g id="node3" class="node">
<title>Node2</title>
<polygon fill="#ffffff" stroke="#bfbfbf" points="110.6136,-.5 110.6136,-18.5 155.5149,-18.5 155.5149,-.5 110.6136,-.5"/>
<text text-anchor="middle" x="133.0642" y="-6.5" font-family="Helvetica,sans-Serif" font-size="10.00" fill="#000000">cstdint</text>
</g>
<!-- Node1&#45;&gt;Node2 -->
<g id="edge2" class="edge">
<title>Node1&#45;&gt;Node2</title>
<path fill="none" stroke="#191970" d="M558.4619,-60.4455C548.854,-58.4818 538.622,-56.5358 529.0642,-55 395.1363,-33.4794 234.1395,-18.2395 166.043,-12.2791"/>
<polygon fill="#191970" stroke="#191970" points="166.1948,-8.7792 155.9299,-11.4026 165.5903,-15.7531 166.1948,-8.7792"/>
</g>
<!-- Node1&#45;&gt;Node3 -->
<g id="edge3" class="edge">
<title>Node1&#45;&gt;Node3</title>
<path fill="none" stroke="#191970" d="M637.1883,-60.4301C647.7743,-58.2631 659.3143,-56.2248 670.0642,-55 1027.1146,-14.3185 2200.1479,-10.0057 2421.7653,-9.5527"/>
<polygon fill="#191970" stroke="#191970" points="2421.8871,-13.0525 2431.8803,-9.5334 2421.8737,-6.0526 2421.8871,-13.0525"/>
</g>
<!-- Node4&#45;&gt;Node1 -->
<g id="edge5" class="edge">
<title>Node4&#45;&gt;Node1</title>
<path fill="none" stroke="#191970" d="M598.0212,-315.456C563.8638,-307.1554 519.6698,-293.9106 509.0642,-279 463.0098,-214.2506 544.5047,-122.2433 581.846,-85.5285"/>
<polygon fill="#191970" stroke="#191970" points="584.3049,-88.0196 589.0822,-78.5629 579.4504,-82.9764 584.3049,-88.0196"/>
</g>
<!-- Node4&#45;&gt;Node2 -->
<g id="edge9" class="edge">
<title>Node4&#45;&gt;Node2</title>
<path fill="none" stroke="#191970" d="M595.6813,-321.9809C533.9418,-317.6055 419.1234,-306.2953 325.0642,-279 165.1149,-232.5838 74.7395,-235.2733 5.0642,-84 -.3278,-72.2932 -2.3682,-65.5301 5.0642,-55 16.3109,-39.0661 66.4515,-24.7294 100.5364,-16.5768"/>
<polygon fill="#191970" stroke="#191970" points="101.5911,-19.9249 110.5381,-14.2502 100.0052,-13.1069 101.5911,-19.9249"/>
</g>
<!-- Node4&#45;&gt;Node3 -->
<g id="edge10" class="edge">
<title>Node4&#45;&gt;Node3</title>
<path fill="none" stroke="#191970" d="M684.5524,-323.8364C963.3513,-319.394 2458.0642,-291.2968 2458.0642,-199.5 2458.0642,-199.5 2458.0642,-199.5 2458.0642,-134.5 2458.0642,-97.0312 2458.0642,-53.2448 2458.0642,-28.7058"/>
<polygon fill="#191970" stroke="#191970" points="2461.5643,-28.5967 2458.0642,-18.5968 2454.5643,-28.5968 2461.5643,-28.5967"/>
</g>
<!-- Node5 -->
<g id="node6" class="node">
<title>Node5</title>
<g id="a_node6"><a xlink:href="simple__bimap_8hpp.html" target="_top" xlink:title="../utils/simple_bimap.hpp">
<polygon fill="#ffffff" stroke="#000000" points="782.0374,-255.5 782.0374,-273.5 908.0911,-273.5 908.0911,-255.5 782.0374,-255.5"/>
<text text-anchor="middle" x="845.0642" y="-261.5" font-family="Helvetica,sans-Serif" font-size="10.00" fill="#000000">../utils/simple_bimap.hpp</text>
</a>
</g>
</g>
<!-- Node4&#45;&gt;Node5 -->
<g id="edge6" class="edge">
<title>Node4&#45;&gt;Node5</title>
<path fill="none" stroke="#191970" d="M671.1993,-315.3873C706.8507,-304.9527 765.3689,-287.8255 804.5447,-276.3594"/>
<polygon fill="#191970" stroke="#191970" points="805.6936,-279.67 814.3078,-273.5019 803.7273,-272.9518 805.6936,-279.67"/>
</g>
<!-- Node7 -->
<g id="node8" class="node">
<title>Node7</title>
<polygon fill="#ffffff" stroke="#bfbfbf" points="647.7517,-250.5 647.7517,-278.5 764.3767,-278.5 764.3767,-250.5 647.7517,-250.5"/>
<text text-anchor="start" x="655.7517" y="-266.5" font-family="Helvetica,sans-Serif" font-size="10.00" fill="#000000">boost/graph/adjacency</text>
<text text-anchor="middle" x="706.0642" y="-256.5" font-family="Helvetica,sans-Serif" font-size="10.00" fill="#000000">_list.hpp</text>
</g>
<!-- Node4&#45;&gt;Node7 -->
<g id="edge8" class="edge">
<title>Node4&#45;&gt;Node7</title>
<path fill="none" stroke="#191970" d="M650.0882,-315.3873C658.8195,-307.4497 671.8109,-295.6394 683.0806,-285.3942"/>
<polygon fill="#191970" stroke="#191970" points="685.4891,-287.9348 690.5341,-278.6183 680.7803,-282.7552 685.4891,-287.9348"/>
</g>
<!-- Node4&#45;&gt;Node8 -->
<g id="edge11" class="edge">
<title>Node4&#45;&gt;Node8</title>
<path fill="none" stroke="#191970" d="M595.574,-318.0866C500.7382,-302.6805 274.7455,-256.5868 120.0642,-149 93.2907,-130.378 66.6773,-103.3839 50.7983,-86.1373"/>
<polygon fill="#191970" stroke="#191970" points="53.2187,-83.596 43.9117,-78.5333 48.0302,-88.2949 53.2187,-83.596"/>
</g>
<!-- Node9 -->
<g id="node10" class="node">
<title>Node9</title>
<g id="a_node10"><a xlink:href="base__graph__impl_8hpp.html" target="_top" xlink:title="base_graph_impl.hpp">
<polygon fill="#ffffff" stroke="#000000" points="517.9734,-255.5 517.9734,-273.5 630.1551,-273.5 630.1551,-255.5 517.9734,-255.5"/>
<text text-anchor="middle" x="574.0642" y="-261.5" font-family="Helvetica,sans-Serif" font-size="10.00" fill="#000000">base_graph_impl.hpp</text>
</a>
</g>
</g>
<!-- Node4&#45;&gt;Node9 -->
<g id="edge12" class="edge">
<title>Node4&#45;&gt;Node9</title>
<path fill="none" stroke="#191970" d="M630.0403,-315.3873C619.8643,-306.1364 603.9017,-291.625 591.6222,-280.4618"/>
<polygon fill="#191970" stroke="#191970" points="593.9363,-277.8354 584.1826,-273.6985 589.2276,-283.015 593.9363,-277.8354"/>
</g>
<!-- Node5&#45;&gt;Node6 -->
<g id="edge7" class="edge">
<title>Node5&#45;&gt;Node6</title>
<path fill="none" stroke="#191970" d="M845.2033,-255.462C845.3479,-246.061 845.5788,-231.0518 845.7651,-218.943"/>
<polygon fill="#191970" stroke="#191970" points="849.2656,-218.9348 845.9199,-208.8821 842.2664,-218.8271 849.2656,-218.9348"/>
</g>
<!-- Node9&#45;&gt;Node6 -->
<g id="edge48" class="edge">
<title>Node9&#45;&gt;Node6</title>
<path fill="none" stroke="#191970" d="M611.8847,-255.462C660.5675,-243.8283 745.1894,-223.6061 798.2747,-210.9203"/>
<polygon fill="#191970" stroke="#191970" points="799.2149,-214.2942 808.1276,-208.5658 797.5879,-207.4859 799.2149,-214.2942"/>
</g>
<!-- Node9&#45;&gt;Node8 -->
<g id="edge50" class="edge">
<title>Node9&#45;&gt;Node8</title>
<path fill="none" stroke="#191970" d="M518.2448,-255.4552C436.9724,-240.84 282.7212,-207.5812 163.0642,-149 142.361,-138.8642 139.5043,-132.3872 120.0642,-120 100.2071,-107.3471 77.2744,-93.6181 60.3926,-83.6731"/>
<polygon fill="#191970" stroke="#191970" points="62.0903,-80.6113 51.6943,-78.5683 58.5472,-86.6484 62.0903,-80.6113"/>
</g>
<!-- Node10 -->
<g id="node11" class="node">
<title>Node10</title>
<g id="a_node11"><a xlink:href="connectivity_8hpp.html" target="_top" xlink:title="../algorithm/graph\l/connectivity.hpp">
<polygon fill="#ffffff" stroke="#000000" points="172.1555,-120.5 172.1555,-148.5 265.9729,-148.5 265.9729,-120.5 172.1555,-120.5"/>
<text text-anchor="start" x="180.1555" y="-136.5" font-family="Helvetica,sans-Serif" font-size="10.00" fill="#000000">../algorithm/graph</text>
<text text-anchor="middle" x="219.0642" y="-126.5" font-family="Helvetica,sans-Serif" font-size="10.00" fill="#000000">/connectivity.hpp</text>
</a>
</g>
</g>
<!-- Node9&#45;&gt;Node10 -->
<g id="edge13" class="edge">
<title>Node9&#45;&gt;Node10</title>
<path fill="none" stroke="#191970" d="M549.3832,-255.4619C490.9524,-234.0647 343.3347,-180.0075 266.7727,-151.9707"/>
<polygon fill="#191970" stroke="#191970" points="267.9453,-148.6729 257.3515,-148.5207 265.5382,-155.246 267.9453,-148.6729"/>
</g>
<!-- Node12 -->
<g id="node13" class="node">
<title>Node12</title>
<g id="a_node13"><a xlink:href="cycles_8hpp.html" target="_top" xlink:title="../algorithm/graph\l/cycles.hpp">
<polygon fill="#ffffff" stroke="#000000" points="536.1555,-185.5 536.1555,-213.5 629.9729,-213.5 629.9729,-185.5 536.1555,-185.5"/>
<text text-anchor="start" x="544.1555" y="-201.5" font-family="Helvetica,sans-Serif" font-size="10.00" fill="#000000">../algorithm/graph</text>
<text text-anchor="middle" x="583.0642" y="-191.5" font-family="Helvetica,sans-Serif" font-size="10.00" fill="#000000">/cycles.hpp</text>
</a>
</g>
</g>
<!-- Node9&#45;&gt;Node12 -->
<g id="edge18" class="edge">
<title>Node9&#45;&gt;Node12</title>
<path fill="none" stroke="#191970" d="M575.3157,-255.462C576.443,-247.3201 578.1528,-234.9715 579.6797,-223.9438"/>
<polygon fill="#191970" stroke="#191970" points="583.158,-224.3414 581.0627,-213.9559 576.2241,-223.3813 583.158,-224.3414"/>
</g>
<!-- Node19 -->
<g id="node20" class="node">
<title>Node19</title>
<g id="a_node20"><a xlink:href="serialise_8hpp.html" target="_top" xlink:title="../utils/serialise.hpp">
<polygon fill="#ffffff" stroke="#000000" points="1271.5447,-125.5 1271.5447,-143.5 1372.5838,-143.5 1372.5838,-125.5 1271.5447,-125.5"/>
<text text-anchor="middle" x="1322.0642" y="-131.5" font-family="Helvetica,sans-Serif" font-size="10.00" fill="#000000">../utils/serialise.hpp</text>
</a>
</g>
</g>
<!-- Node9&#45;&gt;Node19 -->
<g id="edge28" class="edge">
<title>Node9&#45;&gt;Node19</title>
<path fill="none" stroke="#191970" d="M609.87,-255.4253C652.167,-244.4237 719.7345,-225.8836 743.0642,-214 761.995,-204.3571 761.2758,-192.7315 781.0642,-185 867.1866,-151.3511 1138.6516,-139.6235 1261.0986,-135.9756"/>
<polygon fill="#191970" stroke="#191970" points="1261.5225,-139.4649 1271.417,-135.6769 1261.3198,-132.4679 1261.5225,-139.4649"/>
</g>
<!-- Node34 -->
<g id="node35" class="node">
<title>Node34</title>
<g id="a_node35"><a xlink:href="triple_8hpp.html" target="_top" xlink:title="../utils/triple.hpp">
<polygon fill="#ffffff" stroke="#000000" points="648.0471,-190.5 648.0471,-208.5 734.0813,-208.5 734.0813,-190.5 648.0471,-190.5"/>
<text text-anchor="middle" x="691.0642" y="-196.5" font-family="Helvetica,sans-Serif" font-size="10.00" fill="#000000">../utils/triple.hpp</text>
</a>
</g>
</g>
<!-- Node9&#45;&gt;Node34 -->
<g id="edge44" class="edge">
<title>Node9&#45;&gt;Node34</title>
<path fill="none" stroke="#191970" d="M590.3326,-255.462C609.8686,-244.6087 642.8591,-226.2806 665.7378,-213.5702"/>
<polygon fill="#191970" stroke="#191970" points="667.5151,-216.5868 674.5569,-208.6708 664.1155,-210.4677 667.5151,-216.5868"/>
</g>
<!-- Node9&#45;&gt;Node36 -->
<g id="edge49" class="edge">
<title>Node9&#45;&gt;Node36</title>
<path fill="none" stroke="#191970" d="M612.1029,-255.4267C620.925,-253.486 630.2982,-251.5547 639.0642,-250 759.1335,-228.7044 791.1058,-235.9112 911.0642,-214 916.233,-213.0559 921.6197,-211.9625 926.9653,-210.8078"/>
<polygon fill="#191970" stroke="#191970" points="928.1315,-214.1335 937.1262,-208.5349 926.6033,-207.3024 928.1315,-214.1335"/>
</g>
<!-- Node10&#45;&gt;Node1 -->
<g id="edge14" class="edge">
<title>Node10&#45;&gt;Node1</title>
<path fill="none" stroke="#191970" d="M266.0294,-121.93C269.0786,-121.2407 272.1097,-120.5899 275.0642,-120 386.8743,-97.6748 416.7398,-103.5733 529.0642,-84 535.1622,-82.9374 541.5411,-81.7384 547.8599,-80.4966"/>
<polygon fill="#191970" stroke="#191970" points="548.5755,-83.9229 557.6911,-78.5234 547.1979,-77.0598 548.5755,-83.9229"/>
</g>
<!-- Node10&#45;&gt;Node2 -->
<g id="edge15" class="edge">
<title>Node10&#45;&gt;Node2</title>
<path fill="none" stroke="#191970" d="M174.5357,-120.3985C146.1736,-110.4141 113.2698,-96.6096 105.0642,-84 93.3641,-66.0203 106.1527,-42.4487 118.0308,-26.6801"/>
<polygon fill="#191970" stroke="#191970" points="120.8254,-28.7901 124.3749,-18.8075 115.3749,-24.3979 120.8254,-28.7901"/>
</g>
<!-- Node10&#45;&gt;Node8 -->
<g id="edge17" class="edge">
<title>Node10&#45;&gt;Node8</title>
<path fill="none" stroke="#191970" d="M176.4,-120.4956C146.9471,-110.6686 106.9566,-97.0103 72.0642,-84 70.4583,-83.4012 68.816,-82.7782 67.1606,-82.1418"/>
<polygon fill="#191970" stroke="#191970" points="68.2825,-78.8222 57.6952,-78.4243 65.7236,-85.3377 68.2825,-78.8222"/>
</g>
<!-- Node11 -->
<g id="node12" class="node">
<title>Node11</title>
<polygon fill="#ffffff" stroke="#bfbfbf" points="113.6775,-60.5 113.6775,-78.5 152.451,-78.5 152.451,-60.5 113.6775,-60.5"/>
<text text-anchor="middle" x="133.0642" y="-66.5" font-family="Helvetica,sans-Serif" font-size="10.00" fill="#000000">limits</text>
</g>
<!-- Node10&#45;&gt;Node11 -->
<g id="edge16" class="edge">
<title>Node10&#45;&gt;Node11</title>
<path fill="none" stroke="#191970" d="M200.4035,-120.396C186.4941,-109.883 167.5183,-95.5408 153.2548,-84.7603"/>
<polygon fill="#191970" stroke="#191970" points="155.1583,-81.8118 145.0702,-78.5743 150.9376,-87.3962 155.1583,-81.8118"/>
</g>
<!-- Node12&#45;&gt;Node1 -->
<g id="edge19" class="edge">
<title>Node12&#45;&gt;Node1</title>
<path fill="none" stroke="#191970" d="M584.807,-185.3402C587.6855,-161.9521 593.4376,-115.2164 596.6869,-88.8163"/>
<polygon fill="#191970" stroke="#191970" points="600.1996,-88.9262 597.9475,-78.5736 593.2521,-88.0711 600.1996,-88.9262"/>
</g>
<!-- Node13 -->
<g id="node14" class="node">
<title>Node13</title>
<g id="a_node14"><a xlink:href="numerics_8hpp.html" target="_top" xlink:title="../../utils/numerics.hpp">
<polygon fill="#ffffff" stroke="#000000" points="284.4339,-125.5 284.4339,-143.5 397.6946,-143.5 397.6946,-125.5 284.4339,-125.5"/>
<text text-anchor="middle" x="341.0642" y="-131.5" font-family="Helvetica,sans-Serif" font-size="10.00" fill="#000000">../../utils/numerics.hpp</text>
</a>
</g>
</g>
<!-- Node12&#45;&gt;Node13 -->
<g id="edge20" class="edge">
<title>Node12&#45;&gt;Node13</title>
<path fill="none" stroke="#191970" d="M536.1173,-186.8903C492.2161,-175.0987 427.1831,-157.6311 384.467,-146.1578"/>
<polygon fill="#191970" stroke="#191970" points="385.2119,-142.7338 374.6462,-143.52 383.396,-149.4942 385.2119,-142.7338"/>
</g>
<!-- Node13&#45;&gt;Node2 -->
<g id="edge23" class="edge">
<title>Node13&#45;&gt;Node2</title>
<path fill="none" stroke="#191970" d="M299.0388,-125.497C269.3311,-117.7703 229.5346,-104.5677 199.0642,-84 176.3458,-68.6649 156.4414,-43.7304 144.5861,-26.9804"/>
<polygon fill="#191970" stroke="#191970" points="147.4025,-24.8986 138.8612,-18.6298 141.629,-28.8568 147.4025,-24.8986"/>
</g>
<!-- Node13&#45;&gt;Node8 -->
<g id="edge27" class="edge">
<title>Node13&#45;&gt;Node8</title>
<path fill="none" stroke="#191970" d="M300.2352,-125.4764C291.9094,-123.6514 283.2068,-121.7547 275.0642,-120 235.7274,-111.5232 123.3782,-87.8638 67.8788,-76.1892"/>
<polygon fill="#191970" stroke="#191970" points="68.3976,-72.7218 57.8913,-74.0885 66.9568,-79.5719 68.3976,-72.7218"/>
</g>
<!-- Node14 -->
<g id="node15" class="node">
<title>Node14</title>
<polygon fill="#ffffff" stroke="#bfbfbf" points="462.5003,-60.5 462.5003,-78.5 519.6282,-78.5 519.6282,-60.5 462.5003,-60.5"/>
<text text-anchor="middle" x="491.0642" y="-66.5" font-family="Helvetica,sans-Serif" font-size="10.00" fill="#000000">algorithm</text>
</g>
<!-- Node13&#45;&gt;Node14 -->
<g id="edge21" class="edge">
<title>Node13&#45;&gt;Node14</title>
<path fill="none" stroke="#191970" d="M361.9211,-125.462C387.5238,-114.3675 431.1511,-95.4624 460.5304,-82.7313"/>
<polygon fill="#191970" stroke="#191970" points="462.117,-85.8583 469.901,-78.6708 459.3337,-79.4354 462.117,-85.8583"/>
</g>
<!-- Node15 -->
<g id="node16" class="node">
<title>Node15</title>
<polygon fill="#ffffff" stroke="#bfbfbf" points="208.4485,-60.5 208.4485,-78.5 251.68,-78.5 251.68,-60.5 208.4485,-60.5"/>
<text text-anchor="middle" x="230.0642" y="-66.5" font-family="Helvetica,sans-Serif" font-size="10.00" fill="#000000">cmath</text>
</g>
<!-- Node13&#45;&gt;Node15 -->
<g id="edge22" class="edge">
<title>Node13&#45;&gt;Node15</title>
<path fill="none" stroke="#191970" d="M325.6302,-125.462C307.1784,-114.6569 276.0753,-96.4434 254.3818,-83.74"/>
<polygon fill="#191970" stroke="#191970" points="256.123,-80.7037 245.7251,-78.6708 252.5858,-86.7443 256.123,-80.7037"/>
</g>
<!-- Node16 -->
<g id="node17" class="node">
<title>Node16</title>
<polygon fill="#ffffff" stroke="#bfbfbf" points="269.5027,-60.5 269.5027,-78.5 316.6258,-78.5 316.6258,-60.5 269.5027,-60.5"/>
<text text-anchor="middle" x="293.0642" y="-66.5" font-family="Helvetica,sans-Serif" font-size="10.00" fill="#000000">iterator</text>
</g>
<!-- Node13&#45;&gt;Node16 -->
<g id="edge24" class="edge">
<title>Node13&#45;&gt;Node16</title>
<path fill="none" stroke="#191970" d="M334.39,-125.462C327.0935,-115.5813 315.2222,-99.5056 306.071,-87.1134"/>
<polygon fill="#191970" stroke="#191970" points="308.7486,-84.8473 299.9926,-78.8821 303.1175,-89.0057 308.7486,-84.8473"/>
</g>
<!-- Node17 -->
<g id="node18" class="node">
<title>Node17</title>
<polygon fill="#ffffff" stroke="#bfbfbf" points="334.281,-60.5 334.281,-78.5 385.8474,-78.5 385.8474,-60.5 334.281,-60.5"/>
<text text-anchor="middle" x="360.0642" y="-66.5" font-family="Helvetica,sans-Serif" font-size="10.00" fill="#000000">numeric</text>
</g>
<!-- Node13&#45;&gt;Node17 -->
<g id="edge25" class="edge">
<title>Node13&#45;&gt;Node17</title>
<path fill="none" stroke="#191970" d="M343.7061,-125.462C346.4821,-115.9651 350.9311,-100.7449 354.489,-88.5732"/>
<polygon fill="#191970" stroke="#191970" points="357.8754,-89.4625 357.3218,-78.8821 351.1566,-87.4985 357.8754,-89.4625"/>
</g>
<!-- Node18 -->
<g id="node19" class="node">
<title>Node18</title>
<polygon fill="#ffffff" stroke="#bfbfbf" points="403.8377,-60.5 403.8377,-78.5 444.2908,-78.5 444.2908,-60.5 403.8377,-60.5"/>
<text text-anchor="middle" x="424.0642" y="-66.5" font-family="Helvetica,sans-Serif" font-size="10.00" fill="#000000">string</text>
</g>
<!-- Node13&#45;&gt;Node18 -->
<g id="edge26" class="edge">
<title>Node13&#45;&gt;Node18</title>
<path fill="none" stroke="#191970" d="M352.605,-125.462C365.9095,-115.0428 388.0104,-97.7349 404.1166,-85.1216"/>
<polygon fill="#191970" stroke="#191970" points="406.6388,-87.592 412.3539,-78.6708 402.3228,-82.0809 406.6388,-87.592"/>
</g>
<!-- Node19&#45;&gt;Node1 -->
<g id="edge29" class="edge">
<title>Node19&#45;&gt;Node1</title>
<path fill="none" stroke="#191970" d="M1271.5241,-132.7236C1161.6449,-128.3937 892.9617,-115.2696 670.0642,-84 663.2002,-83.0371 656.0022,-81.817 648.9319,-80.4951"/>
<polygon fill="#191970" stroke="#191970" points="649.2032,-76.9822 638.7182,-78.5036 647.8635,-83.8528 649.2032,-76.9822"/>
</g>
<!-- Node20 -->
<g id="node21" class="node">
<title>Node20</title>
<polygon fill="#ffffff" stroke="#bfbfbf" points="758.7639,-60.5 758.7639,-78.5 855.3645,-78.5 855.3645,-60.5 758.7639,-60.5"/>
<text text-anchor="middle" x="807.0642" y="-66.5" font-family="Helvetica,sans-Serif" font-size="10.00" fill="#000000">cereal/access.hpp</text>
</g>
<!-- Node19&#45;&gt;Node20 -->
<g id="edge30" class="edge">
<title>Node19&#45;&gt;Node20</title>
<path fill="none" stroke="#191970" d="M1271.2409,-131.2191C1186.3748,-125.2225 1010.6636,-110.5949 864.0642,-84 859.2919,-83.1342 854.3282,-82.0906 849.4084,-80.9648"/>
<polygon fill="#191970" stroke="#191970" points="849.9881,-77.5045 839.4469,-78.5694 848.3515,-84.3105 849.9881,-77.5045"/>
</g>
<!-- Node21 -->
<g id="node22" class="node">
<title>Node21</title>
<polygon fill="#ffffff" stroke="#bfbfbf" points="873.1458,-60.5 873.1458,-78.5 996.9827,-78.5 996.9827,-60.5 873.1458,-60.5"/>
<text text-anchor="middle" x="935.0642" y="-66.5" font-family="Helvetica,sans-Serif" font-size="10.00" fill="#000000">cereal/archives/json.hpp</text>
</g>
<!-- Node19&#45;&gt;Node21 -->
<g id="edge31" class="edge">
<title>Node19&#45;&gt;Node21</title>
<path fill="none" stroke="#191970" d="M1271.3254,-127.0783C1208.8064,-117.7753 1099.3962,-100.98 1006.0642,-84 1000.1965,-82.9325 994.0672,-81.7631 987.9744,-80.5662"/>
<polygon fill="#191970" stroke="#191970" points="988.2993,-77.0621 977.8079,-78.539 986.9304,-83.927 988.2993,-77.0621"/>
</g>
<!-- Node22 -->
<g id="node23" class="node">
<title>Node22</title>
<polygon fill="#ffffff" stroke="#bfbfbf" points="1014.9807,-55.5 1014.9807,-83.5 1137.1477,-83.5 1137.1477,-55.5 1014.9807,-55.5"/>
<text text-anchor="start" x="1022.9807" y="-71.5" font-family="Helvetica,sans-Serif" font-size="10.00" fill="#000000">cereal/archives/portable</text>
<text text-anchor="middle" x="1076.0642" y="-61.5" font-family="Helvetica,sans-Serif" font-size="10.00" fill="#000000">_binary.hpp</text>
</g>
<!-- Node19&#45;&gt;Node22 -->
<g id="edge32" class="edge">
<title>Node19&#45;&gt;Node22</title>
<path fill="none" stroke="#191970" d="M1287.859,-125.462C1249.5274,-115.3338 1186.5602,-98.6961 1139.2253,-86.1889"/>
<polygon fill="#191970" stroke="#191970" points="1139.9386,-82.7573 1129.3763,-83.5865 1138.1503,-89.5251 1139.9386,-82.7573"/>
</g>
<!-- Node23 -->
<g id="node24" class="node">
<title>Node23</title>
<polygon fill="#ffffff" stroke="#bfbfbf" points="1154.7073,-60.5 1154.7073,-78.5 1247.4212,-78.5 1247.4212,-60.5 1154.7073,-60.5"/>
<text text-anchor="middle" x="1201.0642" y="-66.5" font-family="Helvetica,sans-Serif" font-size="10.00" fill="#000000">cereal/cereal.hpp</text>
</g>
<!-- Node19&#45;&gt;Node23 -->
<g id="edge33" class="edge">
<title>Node19&#45;&gt;Node23</title>
<path fill="none" stroke="#191970" d="M1305.2397,-125.462C1285.0358,-114.6087 1250.9174,-96.2806 1227.2565,-83.5702"/>
<polygon fill="#191970" stroke="#191970" points="1228.6017,-80.3198 1218.136,-78.6708 1225.289,-86.4864 1228.6017,-80.3198"/>
</g>
<!-- Node24 -->
<g id="node25" class="node">
<title>Node24</title>
<polygon fill="#ffffff" stroke="#bfbfbf" points="1264.9627,-60.5 1264.9627,-78.5 1379.1658,-78.5 1379.1658,-60.5 1264.9627,-60.5"/>
<text text-anchor="middle" x="1322.0642" y="-66.5" font-family="Helvetica,sans-Serif" font-size="10.00" fill="#000000">cereal/types/array.hpp</text>
</g>
<!-- Node19&#45;&gt;Node24 -->
<g id="edge34" class="edge">
<title>Node19&#45;&gt;Node24</title>
<path fill="none" stroke="#191970" d="M1322.0642,-125.462C1322.0642,-116.061 1322.0642,-101.0518 1322.0642,-88.943"/>
<polygon fill="#191970" stroke="#191970" points="1325.5643,-88.8821 1322.0642,-78.8821 1318.5643,-88.8822 1325.5643,-88.8821"/>
</g>
<!-- Node25 -->
<g id="node26" class="node">
<title>Node25</title>
<polygon fill="#ffffff" stroke="#bfbfbf" points="1397.0349,-60.5 1397.0349,-78.5 1513.0935,-78.5 1513.0935,-60.5 1397.0349,-60.5"/>
<text text-anchor="middle" x="1455.0642" y="-66.5" font-family="Helvetica,sans-Serif" font-size="10.00" fill="#000000">cereal/types/bitset.hpp</text>
</g>
<!-- Node19&#45;&gt;Node25 -->
<g id="edge35" class="edge">
<title>Node19&#45;&gt;Node25</title>
<path fill="none" stroke="#191970" d="M1340.5573,-125.462C1363.061,-114.464 1401.2697,-95.7906 1427.3085,-83.0648"/>
<polygon fill="#191970" stroke="#191970" points="1428.8518,-86.2063 1436.2995,-78.6708 1425.7782,-79.9171 1428.8518,-86.2063"/>
</g>
<!-- Node26 -->
<g id="node27" class="node">
<title>Node26</title>
<polygon fill="#ffffff" stroke="#bfbfbf" points="1531.2024,-55.5 1531.2024,-83.5 1638.9261,-83.5 1638.9261,-55.5 1531.2024,-55.5"/>
<text text-anchor="start" x="1539.2024" y="-71.5" font-family="Helvetica,sans-Serif" font-size="10.00" fill="#000000">cereal/types/boost</text>
<text text-anchor="middle" x="1585.0642" y="-61.5" font-family="Helvetica,sans-Serif" font-size="10.00" fill="#000000">_dynamic_bitset.hpp</text>
</g>
<!-- Node19&#45;&gt;Node26 -->
<g id="edge36" class="edge">
<title>Node19&#45;&gt;Node26</title>
<path fill="none" stroke="#191970" d="M1358.6333,-125.462C1400.5792,-115.0952 1470.1187,-97.9086 1521.0865,-85.312"/>
<polygon fill="#191970" stroke="#191970" points="1522.1506,-88.6544 1531.0187,-82.8573 1520.471,-81.8589 1522.1506,-88.6544"/>
</g>
<!-- Node27 -->
<g id="node28" class="node">
<title>Node27</title>
<polygon fill="#ffffff" stroke="#bfbfbf" points="1657.1555,-55.5 1657.1555,-83.5 1750.9729,-83.5 1750.9729,-55.5 1657.1555,-55.5"/>
<text text-anchor="start" x="1665.1555" y="-71.5" font-family="Helvetica,sans-Serif" font-size="10.00" fill="#000000">cereal/types/eastl</text>
<text text-anchor="middle" x="1704.0642" y="-61.5" font-family="Helvetica,sans-Serif" font-size="10.00" fill="#000000">_bitset.hpp</text>
</g>
<!-- Node19&#45;&gt;Node27 -->
<g id="edge37" class="edge">
<title>Node19&#45;&gt;Node27</title>
<path fill="none" stroke="#191970" d="M1372.606,-128.2603C1434.9178,-120.2152 1544.2088,-104.9604 1647.1496,-84.0652"/>
<polygon fill="#191970" stroke="#191970" points="1647.9976,-87.4641 1657.09,-82.0255 1646.5906,-80.607 1647.9976,-87.4641"/>
</g>
<!-- Node28 -->
<g id="node29" class="node">
<title>Node28</title>
<polygon fill="#ffffff" stroke="#bfbfbf" points="1768.7517,-60.5 1768.7517,-78.5 1885.3767,-78.5 1885.3767,-60.5 1768.7517,-60.5"/>
<text text-anchor="middle" x="1827.0642" y="-66.5" font-family="Helvetica,sans-Serif" font-size="10.00" fill="#000000">cereal/types/eigen.hpp</text>
</g>
<!-- Node19&#45;&gt;Node28 -->
<g id="edge38" class="edge">
<title>Node19&#45;&gt;Node28</title>
<path fill="none" stroke="#191970" d="M1372.8731,-130.2771C1454.7312,-123.107 1620.732,-107.0519 1760.0642,-84 1766.0066,-83.0169 1772.218,-81.8557 1778.3597,-80.6254"/>
<polygon fill="#191970" stroke="#191970" points="1779.489,-83.9658 1788.5704,-78.5088 1778.0681,-77.1116 1779.489,-83.9658"/>
</g>
<!-- Node29 -->
<g id="node30" class="node">
<title>Node29</title>
<polygon fill="#ffffff" stroke="#bfbfbf" points="1903.2591,-60.5 1903.2591,-78.5 2014.8694,-78.5 2014.8694,-60.5 1903.2591,-60.5"/>
<text text-anchor="middle" x="1959.0642" y="-66.5" font-family="Helvetica,sans-Serif" font-size="10.00" fill="#000000">cereal/types/map.hpp</text>
</g>
<!-- Node19&#45;&gt;Node29 -->
<g id="edge39" class="edge">
<title>Node19&#45;&gt;Node29</title>
<path fill="none" stroke="#191970" d="M1372.8345,-132.2611C1473.0024,-127.3496 1702.9441,-113.6225 1894.0642,-84 1899.9931,-83.0811 1906.189,-81.9389 1912.3002,-80.7018"/>
<polygon fill="#191970" stroke="#191970" points="1913.3853,-84.0496 1922.4426,-78.5528 1911.9343,-77.2017 1913.3853,-84.0496"/>
</g>
<!-- Node30 -->
<g id="node31" class="node">
<title>Node30</title>
<polygon fill="#ffffff" stroke="#bfbfbf" points="2033.2976,-60.5 2033.2976,-78.5 2160.8308,-78.5 2160.8308,-60.5 2033.2976,-60.5"/>
<text text-anchor="middle" x="2097.0642" y="-66.5" font-family="Helvetica,sans-Serif" font-size="10.00" fill="#000000">cereal/types/memory.hpp</text>
</g>
<!-- Node19&#45;&gt;Node30 -->
<g id="edge40" class="edge">
<title>Node19&#45;&gt;Node30</title>
<path fill="none" stroke="#191970" d="M1372.9404,-133.0073C1488.9083,-129.1321 1781.5706,-116.6767 2024.0642,-84 2031.2833,-83.0272 2038.863,-81.7797 2046.2944,-80.4256"/>
<polygon fill="#191970" stroke="#191970" points="2047.1164,-83.8322 2056.2884,-78.5289 2045.8111,-76.9549 2047.1164,-83.8322"/>
</g>
<!-- Node31 -->
<g id="node32" class="node">
<title>Node31</title>
<polygon fill="#ffffff" stroke="#bfbfbf" points="2178.9627,-60.5 2178.9627,-78.5 2293.1658,-78.5 2293.1658,-60.5 2178.9627,-60.5"/>
<text text-anchor="middle" x="2236.0642" y="-66.5" font-family="Helvetica,sans-Serif" font-size="10.00" fill="#000000">cereal/types/utility.hpp</text>
</g>
<!-- Node19&#45;&gt;Node31 -->
<g id="edge41" class="edge">
<title>Node19&#45;&gt;Node31</title>
<path fill="none" stroke="#191970" d="M1372.6338,-132.5314C1530.7494,-126.2118 2014.4853,-105.5868 2170.0642,-84 2176.4699,-83.1112 2183.1772,-81.9328 2189.7591,-80.6308"/>
<polygon fill="#191970" stroke="#191970" points="2190.8635,-83.9759 2199.9377,-78.5069 2189.4336,-77.1235 2190.8635,-83.9759"/>
</g>
<!-- Node32 -->
<g id="node33" class="node">
<title>Node32</title>
<polygon fill="#ffffff" stroke="#bfbfbf" points="2311.6433,-60.5 2311.6433,-78.5 2430.4851,-78.5 2430.4851,-60.5 2311.6433,-60.5"/>
<text text-anchor="middle" x="2371.0642" y="-66.5" font-family="Helvetica,sans-Serif" font-size="10.00" fill="#000000">cereal/types/vector.hpp</text>
</g>
<!-- Node19&#45;&gt;Node32 -->
<g id="edge42" class="edge">
<title>Node19&#45;&gt;Node32</title>
<path fill="none" stroke="#191970" d="M1372.6988,-132.9339C1546.708,-127.3887 2119.5009,-107.7394 2302.0642,-84 2308.915,-83.1092 2316.0986,-81.9064 2323.1355,-80.5725"/>
<polygon fill="#191970" stroke="#191970" points="2324.1636,-83.9364 2333.2844,-78.5455 2322.7925,-77.072 2324.1636,-83.9364"/>
</g>
<!-- Node33 -->
<g id="node34" class="node">
<title>Node33</title>
<polygon fill="#ffffff" stroke="#bfbfbf" points="678.9978,-60.5 678.9978,-78.5 741.1306,-78.5 741.1306,-60.5 678.9978,-60.5"/>
<text text-anchor="middle" x="710.0642" y="-66.5" font-family="Helvetica,sans-Serif" font-size="10.00" fill="#000000">type_traits</text>
</g>
<!-- Node19&#45;&gt;Node33 -->
<g id="edge43" class="edge">
<title>Node19&#45;&gt;Node33</title>
<path fill="none" stroke="#191970" d="M1271.3683,-131.7156C1150.6445,-124.8124 848.8584,-105.8759 750.0642,-84 747.2245,-83.3712 744.3121,-82.5928 741.4165,-81.7257"/>
<polygon fill="#191970" stroke="#191970" points="742.3599,-78.3512 731.7665,-78.5244 740.1558,-84.9951 742.3599,-78.3512"/>
</g>
<!-- Node34&#45;&gt;Node19 -->
<g id="edge47" class="edge">
<title>Node34&#45;&gt;Node19</title>
<path fill="none" stroke="#191970" d="M722.826,-190.4553C730.995,-188.3957 739.8097,-186.4036 748.0642,-185 933.464,-153.4749 1156.1014,-141.0177 1261.3099,-136.6239"/>
<polygon fill="#191970" stroke="#191970" points="1261.5748,-140.1161 1271.4238,-136.2113 1261.2894,-133.1219 1261.5748,-140.1161"/>
</g>
<!-- Node34&#45;&gt;Node33 -->
<g id="edge45" class="edge">
<title>Node34&#45;&gt;Node33</title>
<path fill="none" stroke="#191970" d="M692.4307,-190.1507C695.5255,-168.9756 703.1221,-116.999 707.2626,-88.669"/>
<polygon fill="#191970" stroke="#191970" points="710.7271,-89.1656 708.7102,-78.7646 703.8007,-88.1533 710.7271,-89.1656"/>
</g>
<!-- Node35 -->
<g id="node36" class="node">
<title>Node35</title>
<polygon fill="#ffffff" stroke="#bfbfbf" points="643.6726,-125.5 643.6726,-143.5 682.4558,-143.5 682.4558,-125.5 643.6726,-125.5"/>
<text text-anchor="middle" x="663.0642" y="-131.5" font-family="Helvetica,sans-Serif" font-size="10.00" fill="#000000">utility</text>
</g>
<!-- Node34&#45;&gt;Node35 -->
<g id="edge46" class="edge">
<title>Node34&#45;&gt;Node35</title>
<path fill="none" stroke="#191970" d="M687.171,-190.462C683.0386,-180.8691 676.3909,-165.4368 671.1219,-153.2053"/>
<polygon fill="#191970" stroke="#191970" points="674.2765,-151.6816 667.1058,-143.8821 667.8476,-154.451 674.2765,-151.6816"/>
</g>
</g>
</svg>
