<?xml version="1.0" encoding="UTF-8" standalone="no"?>
<!DOCTYPE svg PUBLIC "-//W3C//DTD SVG 1.1//EN"
 "http://www.w3.org/Graphics/SVG/1.1/DTD/svg11.dtd">
<!-- Generated by graphviz version 2.40.1 (20161225.0304)
 -->
<!-- Title: include/indigox/graph/condensed.hpp Pages: 1 -->
<!--zoomable 157 -->
<svg id="main" version="1.1" xmlns="http://www.w3.org/2000/svg" xmlns:xlink="http://www.w3.org/1999/xlink" xml:space="preserve" onload="init(evt)">
<style type="text/css"><![CDATA[
.edge:hover path { stroke: red; }
.edge:hover polygon { stroke: red; fill: red; }
]]></style>
<script type="text/javascript"><![CDATA[
var edges = document.getElementsByTagName('g');
if (edges && edges.length) {
  for (var i=0;i<edges.length;i++) {
    if (edges[i].id.substr(0,4)=='edge') {
      edges[i].setAttribute('class','edge');
    }
  }
}
]]></script>
        <defs>
                <circle id="rim" cx="0" cy="0" r="7"/>
                <circle id="rim2" cx="0" cy="0" r="3.5"/>
                <g id="zoomPlus">
                        <use xlink:href="#rim" fill="#404040">
                                <set attributeName="fill" to="#808080" begin="zoomplus.mouseover" end="zoomplus.mouseout"/>
                        </use>
                        <path d="M-4,0h8M0,-4v8" fill="none" stroke="white" stroke-width="1.5" pointer-events="none"/>
                </g>
                <g id="zoomMin">
                        <use xlink:href="#rim" fill="#404040">
                                <set attributeName="fill" to="#808080" begin="zoomminus.mouseover" end="zoomminus.mouseout"/>
                        </use>
                        <path d="M-4,0h8" fill="none" stroke="white" stroke-width="1.5" pointer-events="none"/>
                </g>
                <g id="dirArrow">
                        <path fill="none" stroke="white" stroke-width="1.5" d="M0,-3.0v7 M-2.5,-0.5L0,-3.0L2.5,-0.5"/>
                </g>
               <g id="resetDef">
                       <use xlink:href="#rim2" fill="#404040">
                               <set attributeName="fill" to="#808080" begin="reset.mouseover" end="reset.mouseout"/>
                       </use>
               </g>
        </defs>

<script type="text/javascript">
var viewWidth = 1729;
var viewHeight = 157;
var sectionId = 'dynsection-1';
</script>
<script xlink:href="svgpan.js"/>
<svg id="graph" class="graph">
<g id="viewport">
<title>include/indigox/graph/condensed.hpp</title>
<polygon fill="#ffffff" stroke="transparent" points="-4,4 -4,-153 1724.8296,-153 1724.8296,4 -4,4"/>
<!-- Node38 -->
<g id="node1" class="node">
<title>Node38</title>
<polygon fill="#bfbfbf" stroke="#000000" points="1013.4263,-120.5 1013.4263,-148.5 1123.938,-148.5 1123.938,-120.5 1013.4263,-120.5"/>
<text text-anchor="start" x="1021.4263" y="-136.5" font-family="Helvetica,sans-Serif" font-size="10.00" fill="#000000">include/indigox/graph</text>
<text text-anchor="middle" x="1068.6821" y="-126.5" font-family="Helvetica,sans-Serif" font-size="10.00" fill="#000000">/condensed.hpp</text>
</g>
<!-- Node39 -->
<g id="node2" class="node">
<title>Node39</title>
<g id="a_node2"><a xlink:href="molecule__impl_8hpp.html" target="_top" xlink:title="include/indigox/classes\l/molecule_impl.hpp">
<polygon fill="#ffffff" stroke="#000000" points="462.542,-55.5 462.542,-83.5 580.8223,-83.5 580.8223,-55.5 462.542,-55.5"/>
<text text-anchor="start" x="470.542" y="-71.5" font-family="Helvetica,sans-Serif" font-size="10.00" fill="#000000">include/indigox/classes</text>
<text text-anchor="middle" x="521.6821" y="-61.5" font-family="Helvetica,sans-Serif" font-size="10.00" fill="#000000">/molecule_impl.hpp</text>
</a>
</g>
</g>
<!-- Node38&#45;&gt;Node39 -->
<g id="edge1" class="edge">
<title>Node38&#45;&gt;Node39</title>
<path fill="none" stroke="#191970" d="M1003.1684,-126.715C895.8355,-113.9606 684.1706,-88.8085 581.0081,-76.5497"/>
<polygon fill="#191970" stroke="#191970" points="1002.8795,-130.2052 1013.2226,-127.9097 1003.7055,-123.2541 1002.8795,-130.2052"/>
</g>
<!-- Node44 -->
<g id="node7" class="node">
<title>Node44</title>
<g id="a_node7"><a xlink:href="molecule_8cpp.html" target="_top" xlink:title="src/classes/molecule.cpp">
<polygon fill="#ffffff" stroke="#000000" points="662.106,-.5 662.106,-18.5 789.2583,-18.5 789.2583,-.5 662.106,-.5"/>
<text text-anchor="middle" x="725.6821" y="-6.5" font-family="Helvetica,sans-Serif" font-size="10.00" fill="#000000">src/classes/molecule.cpp</text>
</a>
</g>
</g>
<!-- Node38&#45;&gt;Node44 -->
<g id="edge15" class="edge">
<title>Node38&#45;&gt;Node44</title>
<path fill="none" stroke="#191970" d="M1003.0774,-129.5314C927.6486,-122.7566 809.489,-108.5634 772.6821,-84 748.5135,-67.8708 734.3306,-34.6456 728.624,-18.586"/>
<polygon fill="#191970" stroke="#191970" points="1003.1568,-133.0517 1013.4243,-130.4384 1003.7681,-126.0784 1003.1568,-133.0517"/>
</g>
<!-- Node46 -->
<g id="node9" class="node">
<title>Node46</title>
<g id="a_node9"><a xlink:href="molecular_8cpp.html" target="_top" xlink:title="src/graph/molecular.cpp">
<polygon fill="#ffffff" stroke="#000000" points="807.5986,-.5 807.5986,-18.5 929.7656,-18.5 929.7656,-.5 807.5986,-.5"/>
<text text-anchor="middle" x="868.6821" y="-6.5" font-family="Helvetica,sans-Serif" font-size="10.00" fill="#000000">src/graph/molecular.cpp</text>
</a>
</g>
</g>
<!-- Node38&#45;&gt;Node46 -->
<g id="edge17" class="edge">
<title>Node38&#45;&gt;Node46</title>
<path fill="none" stroke="#191970" d="M1002.8697,-132.3484C927.314,-128.3305 810.2273,-116.835 782.6821,-84 774.3985,-74.1255 776.0325,-66.0411 782.6821,-55 793.7497,-36.6233 815.0016,-25.2818 833.6091,-18.5179"/>
<polygon fill="#191970" stroke="#191970" points="1003.0793,-135.8632 1013.2417,-132.8672 1003.4291,-128.8719 1003.0793,-135.8632"/>
</g>
<!-- Node47 -->
<g id="node10" class="node">
<title>Node47</title>
<g id="a_node10"><a xlink:href="cherrypicker_8cpp.html" target="_top" xlink:title="src/algorithm/cherrypicker.cpp">
<polygon fill="#ffffff" stroke="#000000" points="791.2686,-60.5 791.2686,-78.5 940.0957,-78.5 940.0957,-60.5 791.2686,-60.5"/>
<text text-anchor="middle" x="865.6821" y="-66.5" font-family="Helvetica,sans-Serif" font-size="10.00" fill="#000000">src/algorithm/cherrypicker.cpp</text>
</a>
</g>
</g>
<!-- Node38&#45;&gt;Node47 -->
<g id="edge9" class="edge">
<title>Node38&#45;&gt;Node47</title>
<path fill="none" stroke="#191970" d="M1015.0419,-117.3246C976.2091,-104.8904 925.2549,-88.575 894.0219,-78.5743"/>
<polygon fill="#191970" stroke="#191970" points="1014.0431,-120.6797 1024.6342,-120.396 1016.1778,-114.0131 1014.0431,-120.6797"/>
</g>
<!-- Node48 -->
<g id="node11" class="node">
<title>Node48</title>
<g id="a_node11"><a xlink:href="connectivity_8cpp.html" target="_top" xlink:title="src/algorithm/graph\l/connectivity.cpp">
<polygon fill="#ffffff" stroke="#000000" points="957.8867,-55.5 957.8867,-83.5 1059.4775,-83.5 1059.4775,-55.5 957.8867,-55.5"/>
<text text-anchor="start" x="965.8867" y="-71.5" font-family="Helvetica,sans-Serif" font-size="10.00" fill="#000000">src/algorithm/graph</text>
<text text-anchor="middle" x="1008.6821" y="-61.5" font-family="Helvetica,sans-Serif" font-size="10.00" fill="#000000">/connectivity.cpp</text>
</a>
</g>
</g>
<!-- Node38&#45;&gt;Node48 -->
<g id="edge10" class="edge">
<title>Node38&#45;&gt;Node48</title>
<path fill="none" stroke="#191970" d="M1048.8584,-113.0243C1039.9189,-103.3398 1029.6119,-92.1739 1021.6758,-83.5765"/>
<polygon fill="#191970" stroke="#191970" points="1046.3084,-115.4219 1055.663,-120.396 1051.452,-110.6739 1046.3084,-115.4219"/>
</g>
<!-- Node49 -->
<g id="node12" class="node">
<title>Node49</title>
<g id="a_node12"><a xlink:href="cycles_8cpp.html" target="_top" xlink:title="src/algorithm/graph\l/cycles.cpp">
<polygon fill="#ffffff" stroke="#000000" points="1077.8867,-55.5 1077.8867,-83.5 1179.4775,-83.5 1179.4775,-55.5 1077.8867,-55.5"/>
<text text-anchor="start" x="1085.8867" y="-71.5" font-family="Helvetica,sans-Serif" font-size="10.00" fill="#000000">src/algorithm/graph</text>
<text text-anchor="middle" x="1128.6821" y="-61.5" font-family="Helvetica,sans-Serif" font-size="10.00" fill="#000000">/cycles.cpp</text>
</a>
</g>
</g>
<!-- Node38&#45;&gt;Node49 -->
<g id="edge11" class="edge">
<title>Node38&#45;&gt;Node49</title>
<path fill="none" stroke="#191970" d="M1088.5059,-113.0243C1097.4454,-103.3398 1107.7524,-92.1739 1115.6884,-83.5765"/>
<polygon fill="#191970" stroke="#191970" points="1085.9122,-110.6739 1081.7012,-120.396 1091.0559,-115.4219 1085.9122,-110.6739"/>
</g>
<!-- Node50 -->
<g id="node13" class="node">
<title>Node50</title>
<g id="a_node13"><a xlink:href="isomorphism_8cpp.html" target="_top" xlink:title="src/algorithm/graph\l/isomorphism.cpp">
<polygon fill="#ffffff" stroke="#000000" points="1197.8867,-55.5 1197.8867,-83.5 1299.4775,-83.5 1299.4775,-55.5 1197.8867,-55.5"/>
<text text-anchor="start" x="1205.8867" y="-71.5" font-family="Helvetica,sans-Serif" font-size="10.00" fill="#000000">src/algorithm/graph</text>
<text text-anchor="middle" x="1248.6821" y="-61.5" font-family="Helvetica,sans-Serif" font-size="10.00" fill="#000000">/isomorphism.cpp</text>
</a>
</g>
</g>
<!-- Node38&#45;&gt;Node50 -->
<g id="edge12" class="edge">
<title>Node38&#45;&gt;Node50</title>
<path fill="none" stroke="#191970" d="M1117.2676,-116.9553C1146.263,-106.4847 1182.5926,-93.3656 1209.701,-83.5765"/>
<polygon fill="#191970" stroke="#191970" points="1115.9562,-113.7075 1107.7394,-120.396 1118.3338,-120.2914 1115.9562,-113.7075"/>
</g>
<!-- Node51 -->
<g id="node14" class="node">
<title>Node51</title>
<g id="a_node14"><a xlink:href="paths_8cpp.html" target="_top" xlink:title="src/algorithm/graph\l/paths.cpp">
<polygon fill="#ffffff" stroke="#000000" points="1317.8867,-55.5 1317.8867,-83.5 1419.4775,-83.5 1419.4775,-55.5 1317.8867,-55.5"/>
<text text-anchor="start" x="1325.8867" y="-71.5" font-family="Helvetica,sans-Serif" font-size="10.00" fill="#000000">src/algorithm/graph</text>
<text text-anchor="middle" x="1368.6821" y="-61.5" font-family="Helvetica,sans-Serif" font-size="10.00" fill="#000000">/paths.cpp</text>
</a>
</g>
</g>
<!-- Node38&#45;&gt;Node51 -->
<g id="edge13" class="edge">
<title>Node38&#45;&gt;Node51</title>
<path fill="none" stroke="#191970" d="M1134.084,-121.2852C1182.4037,-111.3892 1249.746,-97.3189 1308.6821,-84 1311.609,-83.3386 1314.6133,-82.6484 1317.6432,-81.9436"/>
<polygon fill="#191970" stroke="#191970" points="1133.1682,-117.9 1124.0718,-123.3318 1134.5701,-124.7582 1133.1682,-117.9"/>
</g>
<!-- Node52 -->
<g id="node15" class="node">
<title>Node52</title>
<g id="a_node15"><a xlink:href="athenaeum_8cpp.html" target="_top" xlink:title="src/classes/athenaeum.cpp">
<polygon fill="#ffffff" stroke="#000000" points="1437.0962,-60.5 1437.0962,-78.5 1574.2681,-78.5 1574.2681,-60.5 1437.0962,-60.5"/>
<text text-anchor="middle" x="1505.6821" y="-66.5" font-family="Helvetica,sans-Serif" font-size="10.00" fill="#000000">src/classes/athenaeum.cpp</text>
</a>
</g>
</g>
<!-- Node38&#45;&gt;Node52 -->
<g id="edge14" class="edge">
<title>Node38&#45;&gt;Node52</title>
<path fill="none" stroke="#191970" d="M1134.3131,-126.2305C1206.5808,-116.9067 1326.14,-100.8377 1428.6821,-84 1438.7496,-82.3469 1449.5271,-80.4179 1459.7345,-78.5165"/>
<polygon fill="#191970" stroke="#191970" points="1133.4733,-122.8096 1124.0014,-127.5565 1134.3662,-129.7524 1133.4733,-122.8096"/>
</g>
<!-- Node53 -->
<g id="node16" class="node">
<title>Node53</title>
<g id="a_node16"><a xlink:href="condensed_8cpp.html" target="_top" xlink:title="src/graph/condensed.cpp">
<polygon fill="#ffffff" stroke="#000000" points="1592.5347,-60.5 1592.5347,-78.5 1720.8296,-78.5 1720.8296,-60.5 1592.5347,-60.5"/>
<text text-anchor="middle" x="1656.6821" y="-66.5" font-family="Helvetica,sans-Serif" font-size="10.00" fill="#000000">src/graph/condensed.cpp</text>
</a>
</g>
</g>
<!-- Node38&#45;&gt;Node53 -->
<g id="edge16" class="edge">
<title>Node38&#45;&gt;Node53</title>
<path fill="none" stroke="#191970" d="M1134.2154,-130.1481C1232.3021,-123.1662 1422.9594,-107.7834 1583.6821,-84 1593.7799,-82.5057 1604.5973,-80.5529 1614.7285,-78.5668"/>
<polygon fill="#191970" stroke="#191970" points="1133.8839,-126.6627 1124.155,-130.8578 1134.3765,-133.6454 1133.8839,-126.6627"/>
</g>
<!-- Node40 -->
<g id="node3" class="node">
<title>Node40</title>
<g id="a_node3"><a xlink:href="angle_8cpp.html" target="_top" xlink:title="src/classes/angle.cpp">
<polygon fill="#ffffff" stroke="#000000" points="532.8818,-.5 532.8818,-18.5 644.4824,-18.5 644.4824,-.5 532.8818,-.5"/>
<text text-anchor="middle" x="588.6821" y="-6.5" font-family="Helvetica,sans-Serif" font-size="10.00" fill="#000000">src/classes/angle.cpp</text>
</a>
</g>
</g>
<!-- Node39&#45;&gt;Node40 -->
<g id="edge2" class="edge">
<title>Node39&#45;&gt;Node40</title>
<path fill="none" stroke="#191970" d="M545.1232,-48.508C556.552,-38.2733 569.7024,-26.4967 578.5381,-18.5842"/>
<polygon fill="#191970" stroke="#191970" points="542.6748,-46.0023 537.5602,-55.2808 547.3447,-51.2169 542.6748,-46.0023"/>
</g>
<!-- Node41 -->
<g id="node4" class="node">
<title>Node41</title>
<g id="a_node4"><a xlink:href="atom_8cpp.html" target="_top" xlink:title="src/classes/atom.cpp">
<polygon fill="#ffffff" stroke="#000000" points="0,-.5 0,-18.5 109.3643,-18.5 109.3643,-.5 0,-.5"/>
<text text-anchor="middle" x="54.6821" y="-6.5" font-family="Helvetica,sans-Serif" font-size="10.00" fill="#000000">src/classes/atom.cpp</text>
</a>
</g>
</g>
<!-- Node39&#45;&gt;Node41 -->
<g id="edge3" class="edge">
<title>Node39&#45;&gt;Node41</title>
<path fill="none" stroke="#191970" d="M452.3882,-61.3789C371.8643,-51.8163 235.0273,-35.1789 117.6821,-19 115.0523,-18.6374 112.3619,-18.2593 109.6453,-17.8718"/>
<polygon fill="#191970" stroke="#191970" points="452.0627,-64.8647 462.4052,-62.5664 452.8868,-57.9134 452.0627,-64.8647"/>
</g>
<!-- Node42 -->
<g id="node5" class="node">
<title>Node42</title>
<g id="a_node5"><a xlink:href="bond_8cpp.html" target="_top" xlink:title="src/classes/bond.cpp">
<polygon fill="#ffffff" stroke="#000000" points="126.9927,-.5 126.9927,-18.5 236.3716,-18.5 236.3716,-.5 126.9927,-.5"/>
<text text-anchor="middle" x="181.6821" y="-6.5" font-family="Helvetica,sans-Serif" font-size="10.00" fill="#000000">src/classes/bond.cpp</text>
</a>
</g>
</g>
<!-- Node39&#45;&gt;Node42 -->
<g id="edge4" class="edge">
<title>Node39&#45;&gt;Node42</title>
<path fill="none" stroke="#191970" d="M452.275,-57.2517C387.1105,-45.7521 291.1492,-28.8177 232.7387,-18.51"/>
<polygon fill="#191970" stroke="#191970" points="452.0025,-60.7576 462.4586,-59.0488 453.2191,-53.8641 452.0025,-60.7576"/>
</g>
<!-- Node43 -->
<g id="node6" class="node">
<title>Node43</title>
<g id="a_node6"><a xlink:href="dihedral_8cpp.html" target="_top" xlink:title="src/classes/dihedral.cpp">
<polygon fill="#ffffff" stroke="#000000" points="254.3252,-.5 254.3252,-18.5 377.0391,-18.5 377.0391,-.5 254.3252,-.5"/>
<text text-anchor="middle" x="315.6821" y="-6.5" font-family="Helvetica,sans-Serif" font-size="10.00" fill="#000000">src/classes/dihedral.cpp</text>
</a>
</g>
</g>
<!-- Node39&#45;&gt;Node43 -->
<g id="edge5" class="edge">
<title>Node39&#45;&gt;Node43</title>
<path fill="none" stroke="#191970" d="M463.4759,-52.5467C425.5438,-41.4985 377.5457,-27.5185 346.7254,-18.5417"/>
<polygon fill="#191970" stroke="#191970" points="462.8045,-55.9965 473.3843,-55.4327 464.762,-49.2758 462.8045,-55.9965"/>
</g>
<!-- Node39&#45;&gt;Node44 -->
<g id="edge6" class="edge">
<title>Node39&#45;&gt;Node44</title>
<path fill="none" stroke="#191970" d="M579.3233,-52.5467C616.8871,-41.4985 664.4192,-27.5185 694.9403,-18.5417"/>
<polygon fill="#191970" stroke="#191970" points="578.1171,-49.2532 569.5111,-55.4327 580.0923,-55.9687 578.1171,-49.2532"/>
</g>
<!-- Node45 -->
<g id="node8" class="node">
<title>Node45</title>
<g id="a_node8"><a xlink:href="residue_8cpp.html" target="_top" xlink:title="src/classes/residue.cpp">
<polygon fill="#ffffff" stroke="#000000" points="394.7168,-.5 394.7168,-18.5 514.6475,-18.5 514.6475,-.5 394.7168,-.5"/>
<text text-anchor="middle" x="454.6821" y="-6.5" font-family="Helvetica,sans-Serif" font-size="10.00" fill="#000000">src/classes/residue.cpp</text>
</a>
</g>
</g>
<!-- Node39&#45;&gt;Node45 -->
<g id="edge7" class="edge">
<title>Node39&#45;&gt;Node45</title>
<path fill="none" stroke="#191970" d="M498.2411,-48.508C486.8123,-38.2733 473.6618,-26.4967 464.8261,-18.5842"/>
<polygon fill="#191970" stroke="#191970" points="496.0196,-51.2169 505.8041,-55.2808 500.6895,-46.0023 496.0196,-51.2169"/>
</g>
<!-- Node39&#45;&gt;Node46 -->
<g id="edge8" class="edge">
<title>Node39&#45;&gt;Node46</title>
<path fill="none" stroke="#191970" d="M590.9127,-57.5293C657.4033,-46.0324 756.3718,-28.9197 816.476,-18.527"/>
<polygon fill="#191970" stroke="#191970" points="590.1967,-54.1011 580.9393,-59.2538 591.3894,-60.9987 590.1967,-54.1011"/>
</g>
</g>
</svg>
        <g id="navigator" transform="translate(0 0)" fill="#404254">
                <rect fill="#f2f5e9" fill-opacity="0.5" stroke="#606060" stroke-width=".5" x="0" y="0" width="60" height="60"/>
                <use id="zoomplus" xlink:href="#zoomPlus" x="17" y="9" onmousedown="handleZoom(evt,'in')"/>
                <use id="zoomminus" xlink:href="#zoomMin" x="42" y="9" onmousedown="handleZoom(evt,'out')"/>
                <use id="reset" xlink:href="#resetDef" x="30" y="36" onmousedown="handleReset()"/>
                <g id="arrowUp" xlink:href="#dirArrow" transform="translate(30 24)" onmousedown="handlePan(0,-1)">
                  <use xlink:href="#rim" fill="#404040">
                        <set attributeName="fill" to="#808080" begin="arrowUp.mouseover" end="arrowUp.mouseout"/>
                  </use>
                  <path fill="none" stroke="white" stroke-width="1.5" d="M0,-3.0v7 M-2.5,-0.5L0,-3.0L2.5,-0.5"/>
                </g>
                <g id="arrowRight" xlink:href="#dirArrow" transform="rotate(90) translate(36 -43)" onmousedown="handlePan(1,0)">
                  <use xlink:href="#rim" fill="#404040">
                        <set attributeName="fill" to="#808080" begin="arrowRight.mouseover" end="arrowRight.mouseout"/>
                  </use>
                  <path fill="none" stroke="white" stroke-width="1.5" d="M0,-3.0v7 M-2.5,-0.5L0,-3.0L2.5,-0.5"/>
                </g>
                <g id="arrowDown" xlink:href="#dirArrow" transform="rotate(180) translate(-30 -48)" onmousedown="handlePan(0,1)">
                  <use xlink:href="#rim" fill="#404040">
                        <set attributeName="fill" to="#808080" begin="arrowDown.mouseover" end="arrowDown.mouseout"/>
                  </use>
                  <path fill="none" stroke="white" stroke-width="1.5" d="M0,-3.0v7 M-2.5,-0.5L0,-3.0L2.5,-0.5"/>
                </g>
                <g id="arrowLeft" xlink:href="#dirArrow" transform="rotate(270) translate(-36 17)" onmousedown="handlePan(-1,0)">
                  <use xlink:href="#rim" fill="#404040">
                        <set attributeName="fill" to="#808080" begin="arrowLeft.mouseover" end="arrowLeft.mouseout"/>
                  </use>
                  <path fill="none" stroke="white" stroke-width="1.5" d="M0,-3.0v7 M-2.5,-0.5L0,-3.0L2.5,-0.5"/>
                </g>
        </g>
        <svg viewBox="0 0 15 15" width="100%" height="30px" preserveAspectRatio="xMaxYMin meet">
         <g id="arrow_out" transform="scale(0.3 0.3)">
          <a xlink:href="condensed_8hpp__dep__incl_org.svg" target="_base">
           <rect id="button" ry="5" rx="5" y="6" x="6" height="38" width="38"
                fill="#f2f5e9" fill-opacity="0.5" stroke="#606060" stroke-width="1.0"/>
           <path id="arrow"
             d="M 11.500037,31.436501 C 11.940474,20.09759 22.043105,11.32322 32.158766,21.979434 L 37.068811,17.246167 C 37.068811,17.246167 37.088388,32 37.088388,32 L 22.160133,31.978069 C 22.160133,31.978069 26.997745,27.140456 26.997745,27.140456 C 18.528582,18.264221 13.291696,25.230495 11.500037,31.436501 z"
             style="fill:#404040;"/>
          </a>
         </g>
        </svg>
</svg>
