<?xml version="1.0" encoding="UTF-8" standalone="no"?>
<!DOCTYPE svg PUBLIC "-//W3C//DTD SVG 1.1//EN"
 "http://www.w3.org/Graphics/SVG/1.1/DTD/svg11.dtd">
<!-- Generated by graphviz version 2.40.1 (20161225.0304)
 -->
<!-- Title: include/indigox/algorithm/graph/connectivity.hpp Pages: 1 -->
<svg width="294pt" height="147pt"
 viewBox="0.00 0.00 294.07 147.00" xmlns="http://www.w3.org/2000/svg" xmlns:xlink="http://www.w3.org/1999/xlink">
<g id="graph0" class="graph" transform="scale(1 1) rotate(0) translate(4 143)">
<title>include/indigox/algorithm/graph/connectivity.hpp</title>
<polygon fill="#ffffff" stroke="transparent" points="-4,4 -4,-143 290.0664,-143 290.0664,4 -4,4"/>
<!-- Node0 -->
<g id="node1" class="node">
<title>Node0</title>
<polygon fill="#bfbfbf" stroke="#000000" points="90.4189,-110.5 90.4189,-138.5 216.4824,-138.5 216.4824,-110.5 90.4189,-110.5"/>
<text text-anchor="start" x="98.4189" y="-126.5" font-family="Helvetica,sans-Serif" font-size="10.00" fill="#000000">include/indigox/algorithm</text>
<text text-anchor="middle" x="153.4507" y="-116.5" font-family="Helvetica,sans-Serif" font-size="10.00" fill="#000000">/graph/connectivity.hpp</text>
</g>
<!-- Node1 -->
<g id="node2" class="node">
<title>Node1</title>
<g id="a_node2"><a xlink:href="fwd__declares_8hpp.html" target="_top" xlink:title="../../utils/fwd_declares.hpp">
<polygon fill="#ffffff" stroke="#000000" points="36.6431,-55.5 36.6431,-73.5 168.2583,-73.5 168.2583,-55.5 36.6431,-55.5"/>
<text text-anchor="middle" x="102.4507" y="-61.5" font-family="Helvetica,sans-Serif" font-size="10.00" fill="#000000">../../utils/fwd_declares.hpp</text>
</a>
</g>
</g>
<!-- Node0&#45;&gt;Node1 -->
<g id="edge1" class="edge">
<title>Node0&#45;&gt;Node1</title>
<path fill="none" stroke="#191970" d="M141.3644,-110.2808C133.9673,-101.5784 124.465,-90.3992 116.7021,-81.2664"/>
<polygon fill="#191970" stroke="#191970" points="119.3156,-78.9368 110.1722,-73.5842 113.982,-83.4704 119.3156,-78.9368"/>
</g>
<!-- Node2 -->
<g id="node3" class="node">
<title>Node2</title>
<polygon fill="#ffffff" stroke="#bfbfbf" points="0,-.5 0,-18.5 44.9014,-18.5 44.9014,-.5 0,-.5"/>
<text text-anchor="middle" x="22.4507" y="-6.5" font-family="Helvetica,sans-Serif" font-size="10.00" fill="#000000">cstdint</text>
</g>
<!-- Node0&#45;&gt;Node2 -->
<g id="edge4" class="edge">
<title>Node0&#45;&gt;Node2</title>
<path fill="none" stroke="#191970" d="M90.2558,-113.7463C66.8385,-106.4801 42.3776,-94.3235 27.4507,-74 18.0076,-61.143 17.5037,-42.6984 18.9266,-28.8238"/>
<polygon fill="#191970" stroke="#191970" points="22.399,-29.2647 20.3468,-18.8706 15.4692,-28.2759 22.399,-29.2647"/>
</g>
<!-- Node4 -->
<g id="node5" class="node">
<title>Node4</title>
<polygon fill="#ffffff" stroke="#bfbfbf" points="186.064,-55.5 186.064,-73.5 224.8374,-73.5 224.8374,-55.5 186.064,-55.5"/>
<text text-anchor="middle" x="205.4507" y="-61.5" font-family="Helvetica,sans-Serif" font-size="10.00" fill="#000000">limits</text>
</g>
<!-- Node0&#45;&gt;Node4 -->
<g id="edge5" class="edge">
<title>Node0&#45;&gt;Node4</title>
<path fill="none" stroke="#191970" d="M165.774,-110.2808C173.3161,-101.5784 183.0047,-90.3992 190.9198,-81.2664"/>
<polygon fill="#191970" stroke="#191970" points="193.6733,-83.4334 197.5777,-73.5842 188.3835,-78.8488 193.6733,-83.4334"/>
</g>
<!-- Node5 -->
<g id="node6" class="node">
<title>Node5</title>
<polygon fill="#ffffff" stroke="#bfbfbf" points="242.835,-55.5 242.835,-73.5 286.0664,-73.5 286.0664,-55.5 242.835,-55.5"/>
<text text-anchor="middle" x="264.4507" y="-61.5" font-family="Helvetica,sans-Serif" font-size="10.00" fill="#000000">vector</text>
</g>
<!-- Node0&#45;&gt;Node5 -->
<g id="edge6" class="edge">
<title>Node0&#45;&gt;Node5</title>
<path fill="none" stroke="#191970" d="M179.4753,-110.4327C197.209,-100.8468 220.5989,-88.2037 238.349,-78.609"/>
<polygon fill="#191970" stroke="#191970" points="240.4255,-81.4653 247.5582,-73.6311 237.0968,-75.3073 240.4255,-81.4653"/>
</g>
<!-- Node1&#45;&gt;Node2 -->
<g id="edge2" class="edge">
<title>Node1&#45;&gt;Node2</title>
<path fill="none" stroke="#191970" d="M89.2403,-55.4179C76.9653,-46.9788 58.4608,-34.257 44.0399,-24.3426"/>
<polygon fill="#191970" stroke="#191970" points="45.904,-21.3768 35.6807,-18.5956 41.9383,-27.1451 45.904,-21.3768"/>
</g>
<!-- Node3 -->
<g id="node4" class="node">
<title>Node3</title>
<polygon fill="#ffffff" stroke="#bfbfbf" points="76.394,-.5 76.394,-18.5 128.5073,-18.5 128.5073,-.5 76.394,-.5"/>
<text text-anchor="middle" x="102.4507" y="-6.5" font-family="Helvetica,sans-Serif" font-size="10.00" fill="#000000">memory</text>
</g>
<!-- Node1&#45;&gt;Node3 -->
<g id="edge3" class="edge">
<title>Node1&#45;&gt;Node3</title>
<path fill="none" stroke="#191970" d="M102.4507,-55.4179C102.4507,-48.2164 102.4507,-37.8962 102.4507,-28.8632"/>
<polygon fill="#191970" stroke="#191970" points="105.9508,-28.7794 102.4507,-18.7795 98.9508,-28.7795 105.9508,-28.7794"/>
</g>
</g>
</svg>
