<?xml version="1.0" encoding="UTF-8" standalone="no"?>
<!DOCTYPE svg PUBLIC "-//W3C//DTD SVG 1.1//EN"
 "http://www.w3.org/Graphics/SVG/1.1/DTD/svg11.dtd">
<!-- Generated by graphviz version 2.40.1 (20161225.0304)
 -->
<!-- Title: include/indigox/algorithm/graph/connectivity.hpp Pages: 1 -->
<!--zoomable 372 -->
<svg id="main" version="1.1" xmlns="http://www.w3.org/2000/svg" xmlns:xlink="http://www.w3.org/1999/xlink" xml:space="preserve" onload="init(evt)">
<style type="text/css"><![CDATA[
.edge:hover path { stroke: red; }
.edge:hover polygon { stroke: red; fill: red; }
]]></style>
<script type="text/javascript"><![CDATA[
var edges = document.getElementsByTagName('g');
if (edges && edges.length) {
  for (var i=0;i<edges.length;i++) {
    if (edges[i].id.substr(0,4)=='edge') {
      edges[i].setAttribute('class','edge');
    }
  }
}
]]></script>
        <defs>
                <circle id="rim" cx="0" cy="0" r="7"/>
                <circle id="rim2" cx="0" cy="0" r="3.5"/>
                <g id="zoomPlus">
                        <use xlink:href="#rim" fill="#404040">
                                <set attributeName="fill" to="#808080" begin="zoomplus.mouseover" end="zoomplus.mouseout"/>
                        </use>
                        <path d="M-4,0h8M0,-4v8" fill="none" stroke="white" stroke-width="1.5" pointer-events="none"/>
                </g>
                <g id="zoomMin">
                        <use xlink:href="#rim" fill="#404040">
                                <set attributeName="fill" to="#808080" begin="zoomminus.mouseover" end="zoomminus.mouseout"/>
                        </use>
                        <path d="M-4,0h8" fill="none" stroke="white" stroke-width="1.5" pointer-events="none"/>
                </g>
                <g id="dirArrow">
                        <path fill="none" stroke="white" stroke-width="1.5" d="M0,-3.0v7 M-2.5,-0.5L0,-3.0L2.5,-0.5"/>
                </g>
               <g id="resetDef">
                       <use xlink:href="#rim2" fill="#404040">
                               <set attributeName="fill" to="#808080" begin="reset.mouseover" end="reset.mouseout"/>
                       </use>
               </g>
        </defs>

<script type="text/javascript">
var viewWidth = 520;
var viewHeight = 372;
var sectionId = 'dynsection-1';
</script>
<script xlink:href="svgpan.js"/>
<svg id="graph" class="graph">
<g id="viewport">
<title>include/indigox/algorithm/graph/connectivity.hpp</title>
<polygon fill="#ffffff" stroke="transparent" points="-4,4 -4,-368 516.2876,-368 516.2876,4 -4,4"/>
<!-- Node6 -->
<g id="node1" class="node">
<title>Node6</title>
<g id="a_node1"><a xlink:title=" ">
<polygon fill="#bfbfbf" stroke="#000000" points="200,-335.5 200,-363.5 326.0635,-363.5 326.0635,-335.5 200,-335.5"/>
<text text-anchor="start" x="208" y="-351.5" font-family="Helvetica,sans-Serif" font-size="10.00" fill="#000000">include/indigox/algorithm</text>
<text text-anchor="middle" x="263.0317" y="-341.5" font-family="Helvetica,sans-Serif" font-size="10.00" fill="#000000">/graph/connectivity.hpp</text>
</a>
</g>
</g>
<!-- Node7 -->
<g id="node2" class="node">
<title>Node7</title>
<g id="a_node2"><a xlink:href="base__graph__impl_8hpp.html" target="_top" xlink:title=" ">
<polygon fill="#ffffff" stroke="#000000" points="205.5518,-270.5 205.5518,-298.5 320.5117,-298.5 320.5117,-270.5 205.5518,-270.5"/>
<text text-anchor="start" x="213.5518" y="-286.5" font-family="Helvetica,sans-Serif" font-size="10.00" fill="#000000">include/indigox/graph</text>
<text text-anchor="middle" x="263.0317" y="-276.5" font-family="Helvetica,sans-Serif" font-size="10.00" fill="#000000">/base_graph_impl.hpp</text>
</a>
</g>
</g>
<!-- Node6&#45;&gt;Node7 -->
<g id="edge1" class="edge">
<title>Node6&#45;&gt;Node7</title>
<path fill="none" stroke="#191970" d="M263.0317,-325.1081C263.0317,-316.1539 263.0317,-306.3227 263.0317,-298.5765"/>
<polygon fill="#191970" stroke="#191970" points="259.5318,-325.3959 263.0317,-335.396 266.5318,-325.396 259.5318,-325.3959"/>
</g>
<!-- Node8 -->
<g id="node3" class="node">
<title>Node8</title>
<g id="a_node3"><a xlink:href="base__graph_8hpp.html" target="_top" xlink:title=" ">
<polygon fill="#ffffff" stroke="#000000" points="207.7759,-205.5 207.7759,-233.5 318.2876,-233.5 318.2876,-205.5 207.7759,-205.5"/>
<text text-anchor="start" x="215.7759" y="-221.5" font-family="Helvetica,sans-Serif" font-size="10.00" fill="#000000">include/indigox/graph</text>
<text text-anchor="middle" x="263.0317" y="-211.5" font-family="Helvetica,sans-Serif" font-size="10.00" fill="#000000">/base_graph.hpp</text>
</a>
</g>
</g>
<!-- Node7&#45;&gt;Node8 -->
<g id="edge2" class="edge">
<title>Node7&#45;&gt;Node8</title>
<path fill="none" stroke="#191970" d="M263.0317,-260.1081C263.0317,-251.1539 263.0317,-241.3227 263.0317,-233.5765"/>
<polygon fill="#191970" stroke="#191970" points="259.5318,-260.3959 263.0317,-270.396 266.5318,-260.396 259.5318,-260.3959"/>
</g>
<!-- Node9 -->
<g id="node4" class="node">
<title>Node9</title>
<g id="a_node4"><a xlink:href="access_8hpp.html" target="_top" xlink:title=" ">
<polygon fill="#ffffff" stroke="#000000" points="0,-140.5 0,-168.5 126.0635,-168.5 126.0635,-140.5 0,-140.5"/>
<text text-anchor="start" x="8" y="-156.5" font-family="Helvetica,sans-Serif" font-size="10.00" fill="#000000">include/indigox/algorithm</text>
<text text-anchor="middle" x="63.0317" y="-146.5" font-family="Helvetica,sans-Serif" font-size="10.00" fill="#000000">/access.hpp</text>
</a>
</g>
</g>
<!-- Node8&#45;&gt;Node9 -->
<g id="edge3" class="edge">
<title>Node8&#45;&gt;Node9</title>
<path fill="none" stroke="#191970" d="M209.8865,-202.2278C177.5336,-191.7131 136.7264,-178.4508 106.3441,-168.5765"/>
<polygon fill="#191970" stroke="#191970" points="209.0425,-205.6337 219.6347,-205.396 211.2062,-198.9764 209.0425,-205.6337"/>
</g>
<!-- Node10 -->
<g id="node5" class="node">
<title>Node10</title>
<g id="a_node5"><a xlink:href="assignment_8hpp.html" target="_top" xlink:title=" ">
<polygon fill="#ffffff" stroke="#000000" points="143.7759,-140.5 143.7759,-168.5 254.2876,-168.5 254.2876,-140.5 143.7759,-140.5"/>
<text text-anchor="start" x="151.7759" y="-156.5" font-family="Helvetica,sans-Serif" font-size="10.00" fill="#000000">include/indigox/graph</text>
<text text-anchor="middle" x="199.0317" y="-146.5" font-family="Helvetica,sans-Serif" font-size="10.00" fill="#000000">/assignment.hpp</text>
</a>
</g>
</g>
<!-- Node8&#45;&gt;Node10 -->
<g id="edge4" class="edge">
<title>Node8&#45;&gt;Node10</title>
<path fill="none" stroke="#191970" d="M241.8864,-198.0243C232.351,-188.3398 221.3568,-177.1739 212.8917,-168.5765"/>
<polygon fill="#191970" stroke="#191970" points="239.6346,-200.7259 249.1447,-205.396 244.6226,-195.8146 239.6346,-200.7259"/>
</g>
<!-- Node14 -->
<g id="node9" class="node">
<title>Node14</title>
<g id="a_node9"><a xlink:href="condensed_8hpp.html" target="_top" xlink:title=" ">
<polygon fill="#ffffff" stroke="#000000" points="272.7759,-140.5 272.7759,-168.5 383.2876,-168.5 383.2876,-140.5 272.7759,-140.5"/>
<text text-anchor="start" x="280.7759" y="-156.5" font-family="Helvetica,sans-Serif" font-size="10.00" fill="#000000">include/indigox/graph</text>
<text text-anchor="middle" x="328.0317" y="-146.5" font-family="Helvetica,sans-Serif" font-size="10.00" fill="#000000">/condensed.hpp</text>
</a>
</g>
</g>
<!-- Node8&#45;&gt;Node14 -->
<g id="edge10" class="edge">
<title>Node8&#45;&gt;Node14</title>
<path fill="none" stroke="#191970" d="M284.2203,-198.3115C293.9705,-188.5612 305.2727,-177.259 313.9552,-168.5765"/>
<polygon fill="#191970" stroke="#191970" points="281.732,-195.85 277.1358,-205.396 286.6818,-200.7998 281.732,-195.85"/>
</g>
<!-- Node16 -->
<g id="node11" class="node">
<title>Node16</title>
<g id="a_node11"><a xlink:href="molecular_8hpp.html" target="_top" xlink:title=" ">
<polygon fill="#ffffff" stroke="#000000" points="401.7759,-140.5 401.7759,-168.5 512.2876,-168.5 512.2876,-140.5 401.7759,-140.5"/>
<text text-anchor="start" x="409.7759" y="-156.5" font-family="Helvetica,sans-Serif" font-size="10.00" fill="#000000">include/indigox/graph</text>
<text text-anchor="middle" x="457.0317" y="-146.5" font-family="Helvetica,sans-Serif" font-size="10.00" fill="#000000">/molecular.hpp</text>
</a>
</g>
</g>
<!-- Node8&#45;&gt;Node16 -->
<g id="edge12" class="edge">
<title>Node8&#45;&gt;Node16</title>
<path fill="none" stroke="#191970" d="M314.9889,-202.0917C346.306,-191.5988 385.6749,-178.4082 415.0188,-168.5765"/>
<polygon fill="#191970" stroke="#191970" points="313.4968,-198.9003 305.1268,-205.396 315.7207,-205.5376 313.4968,-198.9003"/>
</g>
<!-- Node11 -->
<g id="node6" class="node">
<title>Node11</title>
<g id="a_node6"><a xlink:href="assigner_8hpp.html" target="_top" xlink:title=" ">
<polygon fill="#ffffff" stroke="#000000" points="113.7588,-75.5 113.7588,-103.5 284.3047,-103.5 284.3047,-75.5 113.7588,-75.5"/>
<text text-anchor="start" x="121.7588" y="-91.5" font-family="Helvetica,sans-Serif" font-size="10.00" fill="#000000">include/indigox/algorithm</text>
<text text-anchor="middle" x="199.0317" y="-81.5" font-family="Helvetica,sans-Serif" font-size="10.00" fill="#000000">/electron_assignment/assigner.hpp</text>
</a>
</g>
</g>
<!-- Node10&#45;&gt;Node11 -->
<g id="edge5" class="edge">
<title>Node10&#45;&gt;Node11</title>
<path fill="none" stroke="#191970" d="M199.0317,-130.1081C199.0317,-121.1539 199.0317,-111.3227 199.0317,-103.5765"/>
<polygon fill="#191970" stroke="#191970" points="195.5318,-130.3959 199.0317,-140.396 202.5318,-130.396 195.5318,-130.3959"/>
</g>
<!-- Node12 -->
<g id="node7" class="node">
<title>Node12</title>
<g id="a_node7"><a xlink:href="astar__optimisation_8hpp.html" target="_top" xlink:title=" ">
<polygon fill="#ffffff" stroke="#000000" points="54,-.5 54,-38.5 190.0635,-38.5 190.0635,-.5 54,-.5"/>
<text text-anchor="start" x="62" y="-26.5" font-family="Helvetica,sans-Serif" font-size="10.00" fill="#000000">include/indigox/algorithm</text>
<text text-anchor="start" x="62" y="-16.5" font-family="Helvetica,sans-Serif" font-size="10.00" fill="#000000">/electron_assignment/astar</text>
<text text-anchor="middle" x="122.0317" y="-6.5" font-family="Helvetica,sans-Serif" font-size="10.00" fill="#000000">_optimisation.hpp</text>
</a>
</g>
</g>
<!-- Node10&#45;&gt;Node12 -->
<g id="edge8" class="edge">
<title>Node10&#45;&gt;Node12</title>
<path fill="none" stroke="#191970" d="M141.8262,-136.0331C127.3102,-128.4746 113.456,-118.0887 105.0317,-104 92.9749,-83.8361 102.1005,-56.6229 110.9616,-38.5907"/>
<polygon fill="#191970" stroke="#191970" points="140.3765,-139.2194 150.9074,-140.3817 143.3998,-132.9059 140.3765,-139.2194"/>
</g>
<!-- Node13 -->
<g id="node8" class="node">
<title>Node13</title>
<g id="a_node8"><a xlink:href="local__optimisation_8hpp.html" target="_top" xlink:title=" ">
<polygon fill="#ffffff" stroke="#000000" points="225.8325,-.5 225.8325,-38.5 360.231,-38.5 360.231,-.5 225.8325,-.5"/>
<text text-anchor="start" x="233.8325" y="-26.5" font-family="Helvetica,sans-Serif" font-size="10.00" fill="#000000">include/indigox/algorithm</text>
<text text-anchor="start" x="233.8325" y="-16.5" font-family="Helvetica,sans-Serif" font-size="10.00" fill="#000000">/electron_assignment/local</text>
<text text-anchor="middle" x="293.0317" y="-6.5" font-family="Helvetica,sans-Serif" font-size="10.00" fill="#000000">_optimisation.hpp</text>
</a>
</g>
</g>
<!-- Node10&#45;&gt;Node13 -->
<g id="edge9" class="edge">
<title>Node10&#45;&gt;Node13</title>
<path fill="none" stroke="#191970" d="M256.2372,-136.0331C270.7533,-128.4746 284.6075,-118.0887 293.0317,-104 304.8517,-84.2322 302.1737,-56.9292 298.3348,-38.7684"/>
<polygon fill="#191970" stroke="#191970" points="254.6637,-132.9059 247.1561,-140.3817 257.687,-139.2194 254.6637,-132.9059"/>
</g>
<!-- Node11&#45;&gt;Node12 -->
<g id="edge6" class="edge">
<title>Node11&#45;&gt;Node12</title>
<path fill="none" stroke="#191970" d="M175.9033,-68.4742C165.4947,-59.0118 153.2927,-47.9191 143.136,-38.6857"/>
<polygon fill="#191970" stroke="#191970" points="173.6958,-71.1975 183.4496,-75.3345 178.4046,-66.0179 173.6958,-71.1975"/>
</g>
<!-- Node11&#45;&gt;Node13 -->
<g id="edge7" class="edge">
<title>Node11&#45;&gt;Node13</title>
<path fill="none" stroke="#191970" d="M226.1511,-69.3047C239.0946,-59.6659 254.5043,-48.1906 267.2681,-38.6857"/>
<polygon fill="#191970" stroke="#191970" points="223.984,-66.5546 218.054,-75.3345 228.1649,-72.1689 223.984,-66.5546"/>
</g>
<!-- Node15 -->
<g id="node10" class="node">
<title>Node15</title>
<g id="a_node10"><a xlink:href="molecule__impl_8hpp.html" target="_top" xlink:title=" ">
<polygon fill="#ffffff" stroke="#000000" points="368.8916,-75.5 368.8916,-103.5 487.1719,-103.5 487.1719,-75.5 368.8916,-75.5"/>
<text text-anchor="start" x="376.8916" y="-91.5" font-family="Helvetica,sans-Serif" font-size="10.00" fill="#000000">include/indigox/classes</text>
<text text-anchor="middle" x="428.0317" y="-81.5" font-family="Helvetica,sans-Serif" font-size="10.00" fill="#000000">/molecule_impl.hpp</text>
</a>
</g>
</g>
<!-- Node14&#45;&gt;Node15 -->
<g id="edge11" class="edge">
<title>Node14&#45;&gt;Node15</title>
<path fill="none" stroke="#191970" d="M358.4415,-134.7337C373.9155,-124.6755 392.363,-112.6847 406.3756,-103.5765"/>
<polygon fill="#191970" stroke="#191970" points="356.2072,-132.0115 349.7302,-140.396 360.0222,-137.8806 356.2072,-132.0115"/>
</g>
<!-- Node16&#45;&gt;Node15 -->
<g id="edge13" class="edge">
<title>Node16&#45;&gt;Node15</title>
<path fill="none" stroke="#191970" d="M446.543,-130.9907C442.4445,-121.8044 437.882,-111.5781 434.312,-103.5765"/>
<polygon fill="#191970" stroke="#191970" points="443.4684,-132.6897 450.7392,-140.396 449.861,-129.8376 443.4684,-132.6897"/>
</g>
</g>
</svg>
        <g id="navigator" transform="translate(0 0)" fill="#404254">
                <rect fill="#f2f5e9" fill-opacity="0.5" stroke="#606060" stroke-width=".5" x="0" y="0" width="60" height="60"/>
                <use id="zoomplus" xlink:href="#zoomPlus" x="17" y="9" onmousedown="handleZoom(evt,'in')"/>
                <use id="zoomminus" xlink:href="#zoomMin" x="42" y="9" onmousedown="handleZoom(evt,'out')"/>
                <use id="reset" xlink:href="#resetDef" x="30" y="36" onmousedown="handleReset()"/>
                <g id="arrowUp" xlink:href="#dirArrow" transform="translate(30 24)" onmousedown="handlePan(0,-1)">
                  <use xlink:href="#rim" fill="#404040">
                        <set attributeName="fill" to="#808080" begin="arrowUp.mouseover" end="arrowUp.mouseout"/>
                  </use>
                  <path fill="none" stroke="white" stroke-width="1.5" d="M0,-3.0v7 M-2.5,-0.5L0,-3.0L2.5,-0.5"/>
                </g>
                <g id="arrowRight" xlink:href="#dirArrow" transform="rotate(90) translate(36 -43)" onmousedown="handlePan(1,0)">
                  <use xlink:href="#rim" fill="#404040">
                        <set attributeName="fill" to="#808080" begin="arrowRight.mouseover" end="arrowRight.mouseout"/>
                  </use>
                  <path fill="none" stroke="white" stroke-width="1.5" d="M0,-3.0v7 M-2.5,-0.5L0,-3.0L2.5,-0.5"/>
                </g>
                <g id="arrowDown" xlink:href="#dirArrow" transform="rotate(180) translate(-30 -48)" onmousedown="handlePan(0,1)">
                  <use xlink:href="#rim" fill="#404040">
                        <set attributeName="fill" to="#808080" begin="arrowDown.mouseover" end="arrowDown.mouseout"/>
                  </use>
                  <path fill="none" stroke="white" stroke-width="1.5" d="M0,-3.0v7 M-2.5,-0.5L0,-3.0L2.5,-0.5"/>
                </g>
                <g id="arrowLeft" xlink:href="#dirArrow" transform="rotate(270) translate(-36 17)" onmousedown="handlePan(-1,0)">
                  <use xlink:href="#rim" fill="#404040">
                        <set attributeName="fill" to="#808080" begin="arrowLeft.mouseover" end="arrowLeft.mouseout"/>
                  </use>
                  <path fill="none" stroke="white" stroke-width="1.5" d="M0,-3.0v7 M-2.5,-0.5L0,-3.0L2.5,-0.5"/>
                </g>
        </g>
        <svg viewBox="0 0 15 15" width="100%" height="30px" preserveAspectRatio="xMaxYMin meet">
         <g id="arrow_out" transform="scale(0.3 0.3)">
          <a xlink:href="connectivity_8hpp__dep__incl_org.svg" target="_base">
           <rect id="button" ry="5" rx="5" y="6" x="6" height="38" width="38"
                fill="#f2f5e9" fill-opacity="0.5" stroke="#606060" stroke-width="1.0"/>
           <path id="arrow"
             d="M 11.500037,31.436501 C 11.940474,20.09759 22.043105,11.32322 32.158766,21.979434 L 37.068811,17.246167 C 37.068811,17.246167 37.088388,32 37.088388,32 L 22.160133,31.978069 C 22.160133,31.978069 26.997745,27.140456 26.997745,27.140456 C 18.528582,18.264221 13.291696,25.230495 11.500037,31.436501 z"
             style="fill:#404040;"/>
          </a>
         </g>
        </svg>
</svg>
