<?xml version="1.0" encoding="UTF-8" standalone="no"?>
<!DOCTYPE svg PUBLIC "-//W3C//DTD SVG 1.1//EN"
 "http://www.w3.org/Graphics/SVG/1.1/DTD/svg11.dtd">
<!-- Generated by graphviz version 2.40.1 (20161225.0304)
 -->
<!-- Title: include/indigox/algorithm/graph/connectivity.hpp Pages: 1 -->
<!--zoomable 437 -->
<svg id="main" version="1.1" xmlns="http://www.w3.org/2000/svg" xmlns:xlink="http://www.w3.org/1999/xlink" xml:space="preserve" onload="init(evt)">
<style type="text/css"><![CDATA[
.edge:hover path { stroke: red; }
.edge:hover polygon { stroke: red; fill: red; }
]]></style>
<script type="text/javascript"><![CDATA[
var edges = document.getElementsByTagName('g');
if (edges && edges.length) {
  for (var i=0;i<edges.length;i++) {
    if (edges[i].id.substr(0,4)=='edge') {
      edges[i].setAttribute('class','edge');
    }
  }
}
]]></script>
        <defs>
                <circle id="rim" cx="0" cy="0" r="7"/>
                <circle id="rim2" cx="0" cy="0" r="3.5"/>
                <g id="zoomPlus">
                        <use xlink:href="#rim" fill="#404040">
                                <set attributeName="fill" to="#808080" begin="zoomplus.mouseover" end="zoomplus.mouseout"/>
                        </use>
                        <path d="M-4,0h8M0,-4v8" fill="none" stroke="white" stroke-width="1.5" pointer-events="none"/>
                </g>
                <g id="zoomMin">
                        <use xlink:href="#rim" fill="#404040">
                                <set attributeName="fill" to="#808080" begin="zoomminus.mouseover" end="zoomminus.mouseout"/>
                        </use>
                        <path d="M-4,0h8" fill="none" stroke="white" stroke-width="1.5" pointer-events="none"/>
                </g>
                <g id="dirArrow">
                        <path fill="none" stroke="white" stroke-width="1.5" d="M0,-3.0v7 M-2.5,-0.5L0,-3.0L2.5,-0.5"/>
                </g>
               <g id="resetDef">
                       <use xlink:href="#rim2" fill="#404040">
                               <set attributeName="fill" to="#808080" begin="reset.mouseover" end="reset.mouseout"/>
                       </use>
               </g>
        </defs>

<script type="text/javascript">
var viewWidth = 2129;
var viewHeight = 437;
var sectionId = 'dynsection-1';
</script>
<script xlink:href="svgpan.js"/>
<svg id="graph" class="graph">
<g id="viewport">
<title>include/indigox/algorithm/graph/connectivity.hpp</title>
<polygon fill="#ffffff" stroke="transparent" points="-4,4 -4,-433 2124.7285,-433 2124.7285,4 -4,4"/>
<!-- Node6 -->
<g id="node1" class="node">
<title>Node6</title>
<polygon fill="#bfbfbf" stroke="#000000" points="1086.7637,-400.5 1086.7637,-428.5 1212.8271,-428.5 1212.8271,-400.5 1086.7637,-400.5"/>
<text text-anchor="start" x="1094.7637" y="-416.5" font-family="Helvetica,sans-Serif" font-size="10.00" fill="#000000">include/indigox/algorithm</text>
<text text-anchor="middle" x="1149.7954" y="-406.5" font-family="Helvetica,sans-Serif" font-size="10.00" fill="#000000">/graph/connectivity.hpp</text>
</g>
<!-- Node7 -->
<g id="node2" class="node">
<title>Node7</title>
<g id="a_node2"><a xlink:href="base__graph__impl_8hpp.html" target="_top" xlink:title="include/indigox/graph\l/base_graph_impl.hpp">
<polygon fill="#ffffff" stroke="#000000" points="938.3154,-335.5 938.3154,-363.5 1053.2754,-363.5 1053.2754,-335.5 938.3154,-335.5"/>
<text text-anchor="start" x="946.3154" y="-351.5" font-family="Helvetica,sans-Serif" font-size="10.00" fill="#000000">include/indigox/graph</text>
<text text-anchor="middle" x="995.7954" y="-341.5" font-family="Helvetica,sans-Serif" font-size="10.00" fill="#000000">/base_graph_impl.hpp</text>
</a>
</g>
</g>
<!-- Node6&#45;&gt;Node7 -->
<g id="edge1" class="edge">
<title>Node6&#45;&gt;Node7</title>
<path fill="none" stroke="#191970" d="M1106.9279,-396.4066C1082.342,-386.0294 1051.9353,-373.1954 1029.1459,-363.5765"/>
<polygon fill="#191970" stroke="#191970" points="1105.8057,-399.7319 1116.3797,-400.396 1108.5278,-393.2828 1105.8057,-399.7319"/>
</g>
<!-- Node10 -->
<g id="node5" class="node">
<title>Node10</title>
<g id="a_node5"><a xlink:href="connectivity_8cpp.html" target="_top" xlink:title="src/algorithm/graph\l/connectivity.cpp">
<polygon fill="#ffffff" stroke="#000000" points="0,-140.5 0,-168.5 101.5908,-168.5 101.5908,-140.5 0,-140.5"/>
<text text-anchor="start" x="8" y="-156.5" font-family="Helvetica,sans-Serif" font-size="10.00" fill="#000000">src/algorithm/graph</text>
<text text-anchor="middle" x="50.7954" y="-146.5" font-family="Helvetica,sans-Serif" font-size="10.00" fill="#000000">/connectivity.cpp</text>
</a>
</g>
</g>
<!-- Node6&#45;&gt;Node10 -->
<g id="edge57" class="edge">
<title>Node6&#45;&gt;Node10</title>
<path fill="none" stroke="#191970" d="M1076.7213,-406.8742C873.2102,-384.7953 303.9426,-317.0708 136.7954,-234 104.9314,-218.1639 76.4437,-186.8283 61.6062,-168.5842"/>
<polygon fill="#191970" stroke="#191970" points="1076.3938,-410.3591 1086.7118,-407.9533 1077.1455,-403.3996 1076.3938,-410.3591"/>
</g>
<!-- Node26 -->
<g id="node21" class="node">
<title>Node26</title>
<g id="a_node21"><a xlink:href="molecule_8cpp.html" target="_top" xlink:title="src/classes/molecule.cpp">
<polygon fill="#ffffff" stroke="#000000" points="1137.2192,-75.5 1137.2192,-93.5 1264.3716,-93.5 1264.3716,-75.5 1137.2192,-75.5"/>
<text text-anchor="middle" x="1200.7954" y="-81.5" font-family="Helvetica,sans-Serif" font-size="10.00" fill="#000000">src/classes/molecule.cpp</text>
</a>
</g>
</g>
<!-- Node6&#45;&gt;Node26 -->
<g id="edge59" class="edge">
<title>Node6&#45;&gt;Node26</title>
<path fill="none" stroke="#191970" d="M1222.6929,-398.2654C1311.776,-376.2715 1450.7954,-334.0163 1450.7954,-284.5 1450.7954,-284.5 1450.7954,-284.5 1450.7954,-219.5 1450.7954,-183.1716 1457.4681,-165.7034 1431.7954,-140 1408.5503,-116.7271 1324.5995,-100.91 1264.6114,-92.2923"/>
<polygon fill="#191970" stroke="#191970" points="1221.782,-394.8848 1212.8949,-400.6527 1223.4392,-401.6858 1221.782,-394.8848"/>
</g>
<!-- Node32 -->
<g id="node27" class="node">
<title>Node32</title>
<g id="a_node27"><a xlink:href="athenaeum_8cpp.html" target="_top" xlink:title="src/classes/athenaeum.cpp">
<polygon fill="#ffffff" stroke="#000000" points="1081.2095,-145.5 1081.2095,-163.5 1218.3813,-163.5 1218.3813,-145.5 1081.2095,-145.5"/>
<text text-anchor="middle" x="1149.7954" y="-151.5" font-family="Helvetica,sans-Serif" font-size="10.00" fill="#000000">src/classes/athenaeum.cpp</text>
</a>
</g>
</g>
<!-- Node6&#45;&gt;Node32 -->
<g id="edge58" class="edge">
<title>Node6&#45;&gt;Node32</title>
<path fill="none" stroke="#191970" d="M1149.7954,-390.1114C1149.7954,-334.391 1149.7954,-199.7738 1149.7954,-163.5851"/>
<polygon fill="#191970" stroke="#191970" points="1146.2955,-390.1509 1149.7954,-400.1509 1153.2955,-390.151 1146.2955,-390.1509"/>
</g>
<!-- Node35 -->
<g id="node30" class="node">
<title>Node35</title>
<g id="a_node30"><a xlink:href="main_8cpp.html" target="_top" xlink:title="src/main.cpp">
<polygon fill="#ffffff" stroke="#000000" points="1350.4531,-145.5 1350.4531,-163.5 1423.1377,-163.5 1423.1377,-145.5 1350.4531,-145.5"/>
<text text-anchor="middle" x="1386.7954" y="-151.5" font-family="Helvetica,sans-Serif" font-size="10.00" fill="#000000">src/main.cpp</text>
</a>
</g>
</g>
<!-- Node6&#45;&gt;Node35 -->
<g id="edge60" class="edge">
<title>Node6&#45;&gt;Node35</title>
<path fill="none" stroke="#191970" d="M1169.8509,-392.4982C1219.2198,-338.3383 1345.0456,-200.3015 1378.514,-163.5851"/>
<polygon fill="#191970" stroke="#191970" points="1167.0252,-390.4027 1162.8751,-400.1509 1172.1984,-395.1183 1167.0252,-390.4027"/>
</g>
<!-- Node8 -->
<g id="node3" class="node">
<title>Node8</title>
<g id="a_node3"><a xlink:href="base__graph_8hpp.html" target="_top" xlink:title="include/indigox/graph\l/base_graph.hpp">
<polygon fill="#ffffff" stroke="#000000" points="872.5396,-270.5 872.5396,-298.5 983.0513,-298.5 983.0513,-270.5 872.5396,-270.5"/>
<text text-anchor="start" x="880.5396" y="-286.5" font-family="Helvetica,sans-Serif" font-size="10.00" fill="#000000">include/indigox/graph</text>
<text text-anchor="middle" x="927.7954" y="-276.5" font-family="Helvetica,sans-Serif" font-size="10.00" fill="#000000">/base_graph.hpp</text>
</a>
</g>
</g>
<!-- Node7&#45;&gt;Node8 -->
<g id="edge2" class="edge">
<title>Node7&#45;&gt;Node8</title>
<path fill="none" stroke="#191970" d="M973.6289,-328.3115C963.4287,-318.5612 951.6049,-307.259 942.5216,-298.5765"/>
<polygon fill="#191970" stroke="#191970" points="971.3932,-331.0162 981.0404,-335.396 976.2301,-325.9561 971.3932,-331.0162"/>
</g>
<!-- Node9 -->
<g id="node4" class="node">
<title>Node9</title>
<g id="a_node4"><a xlink:href="access_8hpp.html" target="_top" xlink:title="include/indigox/algorithm\l/access.hpp">
<polygon fill="#ffffff" stroke="#000000" points="145.7637,-205.5 145.7637,-233.5 271.8271,-233.5 271.8271,-205.5 145.7637,-205.5"/>
<text text-anchor="start" x="153.7637" y="-221.5" font-family="Helvetica,sans-Serif" font-size="10.00" fill="#000000">include/indigox/algorithm</text>
<text text-anchor="middle" x="208.7954" y="-211.5" font-family="Helvetica,sans-Serif" font-size="10.00" fill="#000000">/access.hpp</text>
</a>
</g>
</g>
<!-- Node8&#45;&gt;Node9 -->
<g id="edge3" class="edge">
<title>Node8&#45;&gt;Node9</title>
<path fill="none" stroke="#191970" d="M862.2921,-278.5783C724.7718,-266.146 407.524,-237.4657 272.0173,-225.2155"/>
<polygon fill="#191970" stroke="#191970" points="861.9986,-282.0659 872.2731,-279.4806 862.6289,-275.0944 861.9986,-282.0659"/>
</g>
<!-- Node12 -->
<g id="node7" class="node">
<title>Node12</title>
<g id="a_node7"><a xlink:href="assignment_8hpp.html" target="_top" xlink:title="include/indigox/graph\l/assignment.hpp">
<polygon fill="#ffffff" stroke="#000000" points="1675.5396,-205.5 1675.5396,-233.5 1786.0513,-233.5 1786.0513,-205.5 1675.5396,-205.5"/>
<text text-anchor="start" x="1683.5396" y="-221.5" font-family="Helvetica,sans-Serif" font-size="10.00" fill="#000000">include/indigox/graph</text>
<text text-anchor="middle" x="1730.7954" y="-211.5" font-family="Helvetica,sans-Serif" font-size="10.00" fill="#000000">/assignment.hpp</text>
</a>
</g>
</g>
<!-- Node8&#45;&gt;Node12 -->
<g id="edge6" class="edge">
<title>Node8&#45;&gt;Node12</title>
<path fill="none" stroke="#191970" d="M993.5833,-279.1747C1148.0304,-266.6728 1531.5962,-235.6245 1675.2765,-223.9941"/>
<polygon fill="#191970" stroke="#191970" points="992.9907,-275.7111 983.3057,-280.0066 993.5555,-282.6883 992.9907,-275.7111"/>
</g>
<!-- Node20 -->
<g id="node15" class="node">
<title>Node20</title>
<g id="a_node15"><a xlink:href="condensed_8hpp.html" target="_top" xlink:title="include/indigox/graph\l/condensed.hpp">
<polygon fill="#ffffff" stroke="#000000" points="526.5396,-205.5 526.5396,-233.5 637.0513,-233.5 637.0513,-205.5 526.5396,-205.5"/>
<text text-anchor="start" x="534.5396" y="-221.5" font-family="Helvetica,sans-Serif" font-size="10.00" fill="#000000">include/indigox/graph</text>
<text text-anchor="middle" x="581.7954" y="-211.5" font-family="Helvetica,sans-Serif" font-size="10.00" fill="#000000">/condensed.hpp</text>
</a>
</g>
</g>
<!-- Node8&#45;&gt;Node20 -->
<g id="edge23" class="edge">
<title>Node8&#45;&gt;Node20</title>
<path fill="none" stroke="#191970" d="M862.0593,-272.1507C796.9904,-259.9268 698.481,-241.4207 637.2483,-229.9175"/>
<polygon fill="#191970" stroke="#191970" points="861.7302,-275.6501 872.2045,-274.0566 863.0227,-268.7704 861.7302,-275.6501"/>
</g>
<!-- Node34 -->
<g id="node29" class="node">
<title>Node34</title>
<g id="a_node29"><a xlink:href="molecular_8hpp.html" target="_top" xlink:title="include/indigox/graph\l/molecular.hpp">
<polygon fill="#ffffff" stroke="#000000" points="872.5396,-205.5 872.5396,-233.5 983.0513,-233.5 983.0513,-205.5 872.5396,-205.5"/>
<text text-anchor="start" x="880.5396" y="-221.5" font-family="Helvetica,sans-Serif" font-size="10.00" fill="#000000">include/indigox/graph</text>
<text text-anchor="middle" x="927.7954" y="-211.5" font-family="Helvetica,sans-Serif" font-size="10.00" fill="#000000">/molecular.hpp</text>
</a>
</g>
</g>
<!-- Node8&#45;&gt;Node34 -->
<g id="edge41" class="edge">
<title>Node8&#45;&gt;Node34</title>
<path fill="none" stroke="#191970" d="M927.7954,-260.1081C927.7954,-251.1539 927.7954,-241.3227 927.7954,-233.5765"/>
<polygon fill="#191970" stroke="#191970" points="924.2955,-260.3959 927.7954,-270.396 931.2955,-260.396 924.2955,-260.3959"/>
</g>
<!-- Node9&#45;&gt;Node10 -->
<g id="edge4" class="edge">
<title>Node9&#45;&gt;Node10</title>
<path fill="none" stroke="#191970" d="M165.149,-201.5442C139.8661,-191.143 108.4969,-178.238 85.0121,-168.5765"/>
<polygon fill="#191970" stroke="#191970" points="163.9321,-204.8282 174.5118,-205.396 166.5954,-198.3546 163.9321,-204.8282"/>
</g>
<!-- Node11 -->
<g id="node6" class="node">
<title>Node11</title>
<g id="a_node6"><a xlink:href="isomorphism_8cpp.html" target="_top" xlink:title="src/algorithm/graph\l/isomorphism.cpp">
<polygon fill="#ffffff" stroke="#000000" points="158,-140.5 158,-168.5 259.5908,-168.5 259.5908,-140.5 158,-140.5"/>
<text text-anchor="start" x="166" y="-156.5" font-family="Helvetica,sans-Serif" font-size="10.00" fill="#000000">src/algorithm/graph</text>
<text text-anchor="middle" x="208.7954" y="-146.5" font-family="Helvetica,sans-Serif" font-size="10.00" fill="#000000">/isomorphism.cpp</text>
</a>
</g>
</g>
<!-- Node9&#45;&gt;Node11 -->
<g id="edge5" class="edge">
<title>Node9&#45;&gt;Node11</title>
<path fill="none" stroke="#191970" d="M208.7954,-195.1081C208.7954,-186.1539 208.7954,-176.3227 208.7954,-168.5765"/>
<polygon fill="#191970" stroke="#191970" points="205.2955,-195.3959 208.7954,-205.396 212.2955,-195.396 205.2955,-195.3959"/>
</g>
<!-- Node13 -->
<g id="node8" class="node">
<title>Node13</title>
<g id="a_node8"><a xlink:href="assigner_8hpp.html" target="_top" xlink:title="include/indigox/algorithm\l/electron_assignment/assigner.hpp">
<polygon fill="#ffffff" stroke="#000000" points="1702.5225,-140.5 1702.5225,-168.5 1873.0684,-168.5 1873.0684,-140.5 1702.5225,-140.5"/>
<text text-anchor="start" x="1710.5225" y="-156.5" font-family="Helvetica,sans-Serif" font-size="10.00" fill="#000000">include/indigox/algorithm</text>
<text text-anchor="middle" x="1787.7954" y="-146.5" font-family="Helvetica,sans-Serif" font-size="10.00" fill="#000000">/electron_assignment/assigner.hpp</text>
</a>
</g>
</g>
<!-- Node12&#45;&gt;Node13 -->
<g id="edge7" class="edge">
<title>Node12&#45;&gt;Node13</title>
<path fill="none" stroke="#191970" d="M1749.8806,-197.7362C1758.3141,-188.119 1767.9868,-177.0888 1775.4514,-168.5765"/>
<polygon fill="#191970" stroke="#191970" points="1747.1253,-195.5697 1743.1636,-205.396 1752.3883,-200.185 1747.1253,-195.5697"/>
</g>
<!-- Node14 -->
<g id="node9" class="node">
<title>Node14</title>
<g id="a_node9"><a xlink:href="astar__optimisation_8hpp.html" target="_top" xlink:title="include/indigox/algorithm\l/electron_assignment/astar\l_optimisation.hpp">
<polygon fill="#ffffff" stroke="#000000" points="1641.7637,-65.5 1641.7637,-103.5 1777.8271,-103.5 1777.8271,-65.5 1641.7637,-65.5"/>
<text text-anchor="start" x="1649.7637" y="-91.5" font-family="Helvetica,sans-Serif" font-size="10.00" fill="#000000">include/indigox/algorithm</text>
<text text-anchor="start" x="1649.7637" y="-81.5" font-family="Helvetica,sans-Serif" font-size="10.00" fill="#000000">/electron_assignment/astar</text>
<text text-anchor="middle" x="1709.7954" y="-71.5" font-family="Helvetica,sans-Serif" font-size="10.00" fill="#000000">_optimisation.hpp</text>
</a>
</g>
</g>
<!-- Node12&#45;&gt;Node14 -->
<g id="edge17" class="edge">
<title>Node12&#45;&gt;Node14</title>
<path fill="none" stroke="#191970" d="M1710.1844,-197.7293C1703.6236,-189.3951 1697.1916,-179.3817 1693.7954,-169 1686.6463,-147.1462 1693.8885,-121.0066 1700.7946,-103.646"/>
<polygon fill="#191970" stroke="#191970" points="1707.566,-200.0537 1716.6805,-205.4553 1712.9238,-195.5488 1707.566,-200.0537"/>
</g>
<!-- Node15 -->
<g id="node10" class="node">
<title>Node15</title>
<g id="a_node10"><a xlink:href="assigner_8cpp.html" target="_top" xlink:title="src/algorithm/electron\l_assignment/assigner.cpp">
<polygon fill="#ffffff" stroke="#000000" points="1739.9805,-.5 1739.9805,-28.5 1871.6104,-28.5 1871.6104,-.5 1739.9805,-.5"/>
<text text-anchor="start" x="1747.9805" y="-16.5" font-family="Helvetica,sans-Serif" font-size="10.00" fill="#000000">src/algorithm/electron</text>
<text text-anchor="middle" x="1805.7954" y="-6.5" font-family="Helvetica,sans-Serif" font-size="10.00" fill="#000000">_assignment/assigner.cpp</text>
</a>
</g>
</g>
<!-- Node12&#45;&gt;Node15 -->
<g id="edge19" class="edge">
<title>Node12&#45;&gt;Node15</title>
<path fill="none" stroke="#191970" d="M1796.312,-205.587C1832.097,-196.516 1871.2394,-183.661 1881.7954,-169 1889.3265,-158.5402 1885.2613,-152.4142 1881.7954,-140 1878.3878,-127.7945 1834.3539,-58.7297 1814.9141,-28.5794"/>
<polygon fill="#191970" stroke="#191970" points="1795.2077,-202.2543 1786.3344,-208.0435 1796.8812,-209.0513 1795.2077,-202.2543"/>
</g>
<!-- Node16 -->
<g id="node11" class="node">
<title>Node16</title>
<g id="a_node11"><a xlink:href="astar__optimisation_8cpp.html" target="_top" xlink:title="src/algorithm/electron\l_assignment/astar_optimisation.cpp">
<polygon fill="#ffffff" stroke="#000000" points="1488.0298,-.5 1488.0298,-28.5 1663.561,-28.5 1663.561,-.5 1488.0298,-.5"/>
<text text-anchor="start" x="1496.0298" y="-16.5" font-family="Helvetica,sans-Serif" font-size="10.00" fill="#000000">src/algorithm/electron</text>
<text text-anchor="middle" x="1575.7954" y="-6.5" font-family="Helvetica,sans-Serif" font-size="10.00" fill="#000000">_assignment/astar_optimisation.cpp</text>
</a>
</g>
</g>
<!-- Node12&#45;&gt;Node16 -->
<g id="edge20" class="edge">
<title>Node12&#45;&gt;Node16</title>
<path fill="none" stroke="#191970" d="M1697.9261,-199.8914C1667.0475,-179.7301 1621.936,-145.4749 1596.7954,-104 1582.3173,-80.1151 1577.8202,-47.062 1576.4238,-28.5367"/>
<polygon fill="#191970" stroke="#191970" points="1696.3094,-203.0117 1706.6215,-205.4433 1700.0765,-197.1117 1696.3094,-203.0117"/>
</g>
<!-- Node17 -->
<g id="node12" class="node">
<title>Node17</title>
<g id="a_node12"><a xlink:href="local__optimisation_8hpp.html" target="_top" xlink:title="include/indigox/algorithm\l/electron_assignment/local\l_optimisation.hpp">
<polygon fill="#ffffff" stroke="#000000" points="1871.5962,-65.5 1871.5962,-103.5 2005.9946,-103.5 2005.9946,-65.5 1871.5962,-65.5"/>
<text text-anchor="start" x="1879.5962" y="-91.5" font-family="Helvetica,sans-Serif" font-size="10.00" fill="#000000">include/indigox/algorithm</text>
<text text-anchor="start" x="1879.5962" y="-81.5" font-family="Helvetica,sans-Serif" font-size="10.00" fill="#000000">/electron_assignment/local</text>
<text text-anchor="middle" x="1938.7954" y="-71.5" font-family="Helvetica,sans-Serif" font-size="10.00" fill="#000000">_optimisation.hpp</text>
</a>
</g>
</g>
<!-- Node12&#45;&gt;Node17 -->
<g id="edge18" class="edge">
<title>Node12&#45;&gt;Node17</title>
<path fill="none" stroke="#191970" d="M1795.967,-208.5893C1841.8025,-199.6578 1897.8631,-185.7827 1914.7954,-169 1932.234,-151.7155 1937.2306,-122.75 1938.5376,-103.6324"/>
<polygon fill="#191970" stroke="#191970" points="1795.2312,-205.1665 1786.0621,-210.4747 1796.5402,-212.043 1795.2312,-205.1665"/>
</g>
<!-- Node18 -->
<g id="node13" class="node">
<title>Node18</title>
<g id="a_node13"><a xlink:href="local__optimisation_8cpp.html" target="_top" xlink:title="src/algorithm/electron\l_assignment/local_optimisation.cpp">
<polygon fill="#ffffff" stroke="#000000" points="1946.8623,-.5 1946.8623,-28.5 2120.7285,-28.5 2120.7285,-.5 1946.8623,-.5"/>
<text text-anchor="start" x="1954.8623" y="-16.5" font-family="Helvetica,sans-Serif" font-size="10.00" fill="#000000">src/algorithm/electron</text>
<text text-anchor="middle" x="2033.7954" y="-6.5" font-family="Helvetica,sans-Serif" font-size="10.00" fill="#000000">_assignment/local_optimisation.cpp</text>
</a>
</g>
</g>
<!-- Node12&#45;&gt;Node18 -->
<g id="edge21" class="edge">
<title>Node12&#45;&gt;Node18</title>
<path fill="none" stroke="#191970" d="M1796.1757,-209.2858C1837.6029,-201.4155 1891.6819,-188.5214 1936.7954,-169 1985.4444,-147.9487 2011.5118,-150.5898 2036.7954,-104 2049.7725,-80.0872 2043.6056,-47.0443 2038.4039,-28.5283"/>
<polygon fill="#191970" stroke="#191970" points="1795.3953,-205.8707 1786.1986,-211.131 1796.6684,-212.754 1795.3953,-205.8707"/>
</g>
<!-- Node19 -->
<g id="node14" class="node">
<title>Node19</title>
<g id="a_node14"><a xlink:href="assignment_8cpp.html" target="_top" xlink:title="src/graph/assignment.cpp">
<polygon fill="#ffffff" stroke="#000000" points="1478.5444,-145.5 1478.5444,-163.5 1609.0464,-163.5 1609.0464,-145.5 1478.5444,-145.5"/>
<text text-anchor="middle" x="1543.7954" y="-151.5" font-family="Helvetica,sans-Serif" font-size="10.00" fill="#000000">src/graph/assignment.cpp</text>
</a>
</g>
</g>
<!-- Node12&#45;&gt;Node19 -->
<g id="edge22" class="edge">
<title>Node12&#45;&gt;Node19</title>
<path fill="none" stroke="#191970" d="M1680.4712,-202.0076C1644.8166,-189.6143 1598.4289,-173.4903 1569.9015,-163.5743"/>
<polygon fill="#191970" stroke="#191970" points="1679.6244,-205.4186 1690.2192,-205.396 1681.9227,-198.8067 1679.6244,-205.4186"/>
</g>
<!-- Node13&#45;&gt;Node14 -->
<g id="edge8" class="edge">
<title>Node13&#45;&gt;Node14</title>
<path fill="none" stroke="#191970" d="M1764.3666,-133.4742C1753.8229,-124.0118 1741.4624,-112.9191 1731.1737,-103.6857"/>
<polygon fill="#191970" stroke="#191970" points="1762.2308,-136.2602 1772.0109,-140.3345 1766.9062,-131.0505 1762.2308,-136.2602"/>
</g>
<!-- Node13&#45;&gt;Node15 -->
<g id="edge14" class="edge">
<title>Node13&#45;&gt;Node15</title>
<path fill="none" stroke="#191970" d="M1790.9349,-130.0816C1794.7052,-100.7574 1800.9031,-52.551 1803.9656,-28.732"/>
<polygon fill="#191970" stroke="#191970" points="1787.4243,-129.9409 1789.6204,-140.3056 1794.3671,-130.8336 1787.4243,-129.9409"/>
</g>
<!-- Node13&#45;&gt;Node16 -->
<g id="edge15" class="edge">
<title>Node13&#45;&gt;Node16</title>
<path fill="none" stroke="#191970" d="M1700.4952,-137.4832C1676.8872,-129.9654 1652.4564,-119.238 1632.7954,-104 1606.8775,-83.9127 1589.4445,-48.4897 1581.2273,-28.7686"/>
<polygon fill="#191970" stroke="#191970" points="1699.6068,-140.871 1710.1917,-140.4112 1701.6304,-134.1698 1699.6068,-140.871"/>
</g>
<!-- Node13&#45;&gt;Node17 -->
<g id="edge11" class="edge">
<title>Node13&#45;&gt;Node17</title>
<path fill="none" stroke="#191970" d="M1827.5817,-136.056C1849.1941,-126.037 1875.8796,-113.6662 1897.693,-103.5541"/>
<polygon fill="#191970" stroke="#191970" points="1825.953,-132.9532 1818.3525,-140.3345 1828.8971,-139.304 1825.953,-132.9532"/>
</g>
<!-- Node13&#45;&gt;Node18 -->
<g id="edge16" class="edge">
<title>Node13&#45;&gt;Node18</title>
<path fill="none" stroke="#191970" d="M1883.3592,-143.6727C1936.7101,-135.6751 1996.1131,-122.8647 2014.7954,-104 2034.691,-83.9101 2036.105,-48.4881 2035.1197,-28.7678"/>
<polygon fill="#191970" stroke="#191970" points="1882.5244,-140.2571 1873.1319,-145.1593 1883.5314,-147.1843 1882.5244,-140.2571"/>
</g>
<!-- Node14&#45;&gt;Node15 -->
<g id="edge9" class="edge">
<title>Node14&#45;&gt;Node15</title>
<path fill="none" stroke="#191970" d="M1744.1262,-59.4671C1758.2917,-49.1381 1774.1899,-37.5457 1786.2961,-28.7183"/>
<polygon fill="#191970" stroke="#191970" points="1742.0458,-56.6524 1736.0278,-65.3722 1746.17,-62.3085 1742.0458,-56.6524"/>
</g>
<!-- Node14&#45;&gt;Node16 -->
<g id="edge10" class="edge">
<title>Node14&#45;&gt;Node16</title>
<path fill="none" stroke="#191970" d="M1664.0822,-60.62C1643.7692,-50.0087 1620.5431,-37.8757 1603.0132,-28.7183"/>
<polygon fill="#191970" stroke="#191970" points="1662.6952,-63.8442 1673.1793,-65.3722 1665.9364,-57.6397 1662.6952,-63.8442"/>
</g>
<!-- Node17&#45;&gt;Node15 -->
<g id="edge12" class="edge">
<title>Node17&#45;&gt;Node15</title>
<path fill="none" stroke="#191970" d="M1893.4234,-60.62C1873.262,-50.0087 1850.2092,-37.8757 1832.8101,-28.7183"/>
<polygon fill="#191970" stroke="#191970" points="1891.9733,-63.8119 1902.4526,-65.3722 1895.2335,-57.6175 1891.9733,-63.8119"/>
</g>
<!-- Node17&#45;&gt;Node18 -->
<g id="edge13" class="edge">
<title>Node17&#45;&gt;Node18</title>
<path fill="none" stroke="#191970" d="M1973.1621,-59.1772C1987.0803,-48.9217 2002.6311,-37.4632 2014.4992,-28.7183"/>
<polygon fill="#191970" stroke="#191970" points="1970.7289,-56.6225 1964.7546,-65.3722 1974.8814,-62.2579 1970.7289,-56.6225"/>
</g>
<!-- Node20&#45;&gt;Node10 -->
<g id="edge33" class="edge">
<title>Node20&#45;&gt;Node10</title>
<path fill="none" stroke="#191970" d="M516.1774,-214.7102C425.6831,-207.5771 257.6572,-192.4347 115.7954,-169 111.2324,-168.2462 106.5084,-167.374 101.7852,-166.4387"/>
<polygon fill="#191970" stroke="#191970" points="516.0468,-218.2105 526.2888,-215.4992 516.5915,-211.2317 516.0468,-218.2105"/>
</g>
<!-- Node20&#45;&gt;Node11 -->
<g id="edge35" class="edge">
<title>Node20&#45;&gt;Node11</title>
<path fill="none" stroke="#191970" d="M516.1662,-210.4158C452.6508,-201.2701 353.7759,-186.0974 268.7954,-169 265.8537,-168.4082 262.8378,-167.7723 259.799,-167.1092"/>
<polygon fill="#191970" stroke="#191970" points="516.0414,-213.9336 526.4366,-211.8865 517.0337,-207.0043 516.0414,-213.9336"/>
</g>
<!-- Node21 -->
<g id="node16" class="node">
<title>Node21</title>
<g id="a_node16"><a xlink:href="molecule__impl_8hpp.html" target="_top" xlink:title="include/indigox/classes\l/molecule_impl.hpp">
<polygon fill="#ffffff" stroke="#000000" points="868.6553,-140.5 868.6553,-168.5 986.9355,-168.5 986.9355,-140.5 868.6553,-140.5"/>
<text text-anchor="start" x="876.6553" y="-156.5" font-family="Helvetica,sans-Serif" font-size="10.00" fill="#000000">include/indigox/classes</text>
<text text-anchor="middle" x="927.7954" y="-146.5" font-family="Helvetica,sans-Serif" font-size="10.00" fill="#000000">/molecule_impl.hpp</text>
</a>
</g>
</g>
<!-- Node20&#45;&gt;Node21 -->
<g id="edge24" class="edge">
<title>Node20&#45;&gt;Node21</title>
<path fill="none" stroke="#191970" d="M647.3308,-207.1884C711.0808,-195.2123 807.0675,-177.1801 868.5755,-165.6251"/>
<polygon fill="#191970" stroke="#191970" points="646.5681,-203.7704 637.3863,-209.0566 647.8606,-210.6501 646.5681,-203.7704"/>
</g>
<!-- Node20&#45;&gt;Node26 -->
<g id="edge38" class="edge">
<title>Node20&#45;&gt;Node26</title>
<path fill="none" stroke="#191970" d="M647.4982,-216.9416C730.0188,-212.4916 875.3899,-200.5382 995.7954,-169 1014.6011,-164.0742 1131.3661,-114.3106 1179.7896,-93.5357"/>
<polygon fill="#191970" stroke="#191970" points="647.0671,-213.4592 637.2618,-217.4724 647.4296,-220.4498 647.0671,-213.4592"/>
</g>
<!-- Node28 -->
<g id="node23" class="node">
<title>Node28</title>
<g id="a_node23"><a xlink:href="molecular_8cpp.html" target="_top" xlink:title="src/graph/molecular.cpp">
<polygon fill="#ffffff" stroke="#000000" points="334.7119,-75.5 334.7119,-93.5 456.8789,-93.5 456.8789,-75.5 334.7119,-75.5"/>
<text text-anchor="middle" x="395.7954" y="-81.5" font-family="Helvetica,sans-Serif" font-size="10.00" fill="#000000">src/graph/molecular.cpp</text>
</a>
</g>
</g>
<!-- Node20&#45;&gt;Node28 -->
<g id="edge40" class="edge">
<title>Node20&#45;&gt;Node28</title>
<path fill="none" stroke="#191970" d="M516.4097,-216.5836C401.4132,-210.7789 172.7914,-195.9572 148.7954,-169 140.2257,-159.3728 140.7423,-150.0634 148.7954,-140 171.6224,-111.4747 268.9705,-96.5924 334.4226,-89.6634"/>
<polygon fill="#191970" stroke="#191970" points="516.3414,-220.0844 526.5027,-217.0846 516.6885,-213.093 516.3414,-220.0844"/>
</g>
<!-- Node29 -->
<g id="node24" class="node">
<title>Node29</title>
<g id="a_node24"><a xlink:href="cherrypicker_8cpp.html" target="_top" xlink:title="src/algorithm/cherrypicker.cpp">
<polygon fill="#ffffff" stroke="#000000" points="664.3818,-145.5 664.3818,-163.5 813.209,-163.5 813.209,-145.5 664.3818,-145.5"/>
<text text-anchor="middle" x="738.7954" y="-151.5" font-family="Helvetica,sans-Serif" font-size="10.00" fill="#000000">src/algorithm/cherrypicker.cpp</text>
</a>
</g>
</g>
<!-- Node20&#45;&gt;Node29 -->
<g id="edge32" class="edge">
<title>Node20&#45;&gt;Node29</title>
<path fill="none" stroke="#191970" d="M625.202,-201.5291C654.977,-189.2019 693.2337,-173.3631 716.8775,-163.5743"/>
<polygon fill="#191970" stroke="#191970" points="623.7627,-198.3368 615.8621,-205.396 626.4404,-204.8045 623.7627,-198.3368"/>
</g>
<!-- Node30 -->
<g id="node25" class="node">
<title>Node30</title>
<g id="a_node25"><a xlink:href="cycles_8cpp.html" target="_top" xlink:title="src/algorithm/graph\l/cycles.cpp">
<polygon fill="#ffffff" stroke="#000000" points="278,-140.5 278,-168.5 379.5908,-168.5 379.5908,-140.5 278,-140.5"/>
<text text-anchor="start" x="286" y="-156.5" font-family="Helvetica,sans-Serif" font-size="10.00" fill="#000000">src/algorithm/graph</text>
<text text-anchor="middle" x="328.7954" y="-146.5" font-family="Helvetica,sans-Serif" font-size="10.00" fill="#000000">/cycles.cpp</text>
</a>
</g>
</g>
<!-- Node20&#45;&gt;Node30 -->
<g id="edge34" class="edge">
<title>Node20&#45;&gt;Node30</title>
<path fill="none" stroke="#191970" d="M517.4747,-202.9749C474.7796,-192.0058 419.5061,-177.8051 379.8361,-167.6132"/>
<polygon fill="#191970" stroke="#191970" points="516.6532,-206.3775 527.2097,-205.476 518.3952,-199.5976 516.6532,-206.3775"/>
</g>
<!-- Node31 -->
<g id="node26" class="node">
<title>Node31</title>
<g id="a_node26"><a xlink:href="paths_8cpp.html" target="_top" xlink:title="src/algorithm/graph\l/paths.cpp">
<polygon fill="#ffffff" stroke="#000000" points="398,-140.5 398,-168.5 499.5908,-168.5 499.5908,-140.5 398,-140.5"/>
<text text-anchor="start" x="406" y="-156.5" font-family="Helvetica,sans-Serif" font-size="10.00" fill="#000000">src/algorithm/graph</text>
<text text-anchor="middle" x="448.7954" y="-146.5" font-family="Helvetica,sans-Serif" font-size="10.00" fill="#000000">/paths.cpp</text>
</a>
</g>
</g>
<!-- Node20&#45;&gt;Node31 -->
<g id="edge36" class="edge">
<title>Node20&#45;&gt;Node31</title>
<path fill="none" stroke="#191970" d="M543.9253,-200.9921C522.8441,-190.6892 497.0186,-178.0677 477.5981,-168.5765"/>
<polygon fill="#191970" stroke="#191970" points="542.4151,-204.1496 552.9364,-205.396 545.4888,-197.8605 542.4151,-204.1496"/>
</g>
<!-- Node20&#45;&gt;Node32 -->
<g id="edge37" class="edge">
<title>Node20&#45;&gt;Node32</title>
<path fill="none" stroke="#191970" d="M647.37,-214.1226C740.7445,-206.1362 917.2821,-189.8184 1066.7954,-169 1077.9513,-167.4466 1089.9052,-165.5159 1101.1678,-163.5754"/>
<polygon fill="#191970" stroke="#191970" points="646.8927,-210.6505 637.2253,-214.9855 647.486,-217.6253 646.8927,-210.6505"/>
</g>
<!-- Node33 -->
<g id="node28" class="node">
<title>Node33</title>
<g id="a_node28"><a xlink:href="condensed_8cpp.html" target="_top" xlink:title="src/graph/condensed.cpp">
<polygon fill="#ffffff" stroke="#000000" points="517.6479,-145.5 517.6479,-163.5 645.9429,-163.5 645.9429,-145.5 517.6479,-145.5"/>
<text text-anchor="middle" x="581.7954" y="-151.5" font-family="Helvetica,sans-Serif" font-size="10.00" fill="#000000">src/graph/condensed.cpp</text>
</a>
</g>
</g>
<!-- Node20&#45;&gt;Node33 -->
<g id="edge39" class="edge">
<title>Node20&#45;&gt;Node33</title>
<path fill="none" stroke="#191970" d="M581.7954,-195.3747C581.7954,-184.2832 581.7954,-171.7952 581.7954,-163.5743"/>
<polygon fill="#191970" stroke="#191970" points="578.2955,-195.3959 581.7954,-205.396 585.2955,-195.396 578.2955,-195.3959"/>
</g>
<!-- Node22 -->
<g id="node17" class="node">
<title>Node22</title>
<g id="a_node17"><a xlink:href="angle_8cpp.html" target="_top" xlink:title="src/classes/angle.cpp">
<polygon fill="#ffffff" stroke="#000000" points="474.9951,-75.5 474.9951,-93.5 586.5957,-93.5 586.5957,-75.5 474.9951,-75.5"/>
<text text-anchor="middle" x="530.7954" y="-81.5" font-family="Helvetica,sans-Serif" font-size="10.00" fill="#000000">src/classes/angle.cpp</text>
</a>
</g>
</g>
<!-- Node21&#45;&gt;Node22 -->
<g id="edge25" class="edge">
<title>Node21&#45;&gt;Node22</title>
<path fill="none" stroke="#191970" d="M858.5899,-140.6485C857.3154,-140.4276 856.0497,-140.2112 854.7954,-140 739.7571,-120.6278 708.7258,-129.0789 594.7954,-104 582.2038,-101.2283 568.4992,-97.1941 557.0141,-93.5133"/>
<polygon fill="#191970" stroke="#191970" points="858.0266,-144.1032 868.4865,-142.418 859.2587,-137.2125 858.0266,-144.1032"/>
</g>
<!-- Node23 -->
<g id="node18" class="node">
<title>Node23</title>
<g id="a_node18"><a xlink:href="atom_8cpp.html" target="_top" xlink:title="src/classes/atom.cpp">
<polygon fill="#ffffff" stroke="#000000" points="604.1133,-75.5 604.1133,-93.5 713.4775,-93.5 713.4775,-75.5 604.1133,-75.5"/>
<text text-anchor="middle" x="658.7954" y="-81.5" font-family="Helvetica,sans-Serif" font-size="10.00" fill="#000000">src/classes/atom.cpp</text>
</a>
</g>
</g>
<!-- Node21&#45;&gt;Node23 -->
<g id="edge26" class="edge">
<title>Node21&#45;&gt;Node23</title>
<path fill="none" stroke="#191970" d="M858.5603,-138.6175C818.4597,-129.1468 767.1038,-116.5535 721.7954,-104 710.3203,-100.8206 697.7712,-97.0062 686.9147,-93.5975"/>
<polygon fill="#191970" stroke="#191970" points="857.9666,-142.0733 868.5024,-140.9561 859.5695,-135.2593 857.9666,-142.0733"/>
</g>
<!-- Node24 -->
<g id="node19" class="node">
<title>Node24</title>
<g id="a_node19"><a xlink:href="bond_8cpp.html" target="_top" xlink:title="src/classes/bond.cpp">
<polygon fill="#ffffff" stroke="#000000" points="731.106,-75.5 731.106,-93.5 840.4849,-93.5 840.4849,-75.5 731.106,-75.5"/>
<text text-anchor="middle" x="785.7954" y="-81.5" font-family="Helvetica,sans-Serif" font-size="10.00" fill="#000000">src/classes/bond.cpp</text>
</a>
</g>
</g>
<!-- Node21&#45;&gt;Node24 -->
<g id="edge27" class="edge">
<title>Node21&#45;&gt;Node24</title>
<path fill="none" stroke="#191970" d="M890.0137,-135.8752C862.2501,-122.1889 825.738,-104.19 804.1186,-93.5325"/>
<polygon fill="#191970" stroke="#191970" points="888.5426,-139.0522 899.0596,-140.3345 891.6377,-132.7736 888.5426,-139.0522"/>
</g>
<!-- Node25 -->
<g id="node20" class="node">
<title>Node25</title>
<g id="a_node20"><a xlink:href="dihedral_8cpp.html" target="_top" xlink:title="src/classes/dihedral.cpp">
<polygon fill="#ffffff" stroke="#000000" points="858.4385,-75.5 858.4385,-93.5 981.1523,-93.5 981.1523,-75.5 858.4385,-75.5"/>
<text text-anchor="middle" x="919.7954" y="-81.5" font-family="Helvetica,sans-Serif" font-size="10.00" fill="#000000">src/classes/dihedral.cpp</text>
</a>
</g>
</g>
<!-- Node21&#45;&gt;Node25 -->
<g id="edge28" class="edge">
<title>Node21&#45;&gt;Node25</title>
<path fill="none" stroke="#191970" d="M925.0396,-130.3864C923.5964,-117.7588 921.9133,-103.0315 920.851,-93.7368"/>
<polygon fill="#191970" stroke="#191970" points="921.5636,-130.7966 926.1765,-140.3345 928.5183,-130.0017 921.5636,-130.7966"/>
</g>
<!-- Node21&#45;&gt;Node26 -->
<g id="edge29" class="edge">
<title>Node21&#45;&gt;Node26</title>
<path fill="none" stroke="#191970" d="M994.4689,-137.9077C1033.3846,-128.1625 1083.4092,-115.5315 1127.7954,-104 1140.7458,-100.6355 1154.9653,-96.8564 1167.3867,-93.5272"/>
<polygon fill="#191970" stroke="#191970" points="993.1657,-134.6258 984.3142,-140.4483 994.8647,-141.4165 993.1657,-134.6258"/>
</g>
<!-- Node27 -->
<g id="node22" class="node">
<title>Node27</title>
<g id="a_node22"><a xlink:href="residue_8cpp.html" target="_top" xlink:title="src/classes/residue.cpp">
<polygon fill="#ffffff" stroke="#000000" points="998.8301,-75.5 998.8301,-93.5 1118.7607,-93.5 1118.7607,-75.5 998.8301,-75.5"/>
<text text-anchor="middle" x="1058.7954" y="-81.5" font-family="Helvetica,sans-Serif" font-size="10.00" fill="#000000">src/classes/residue.cpp</text>
</a>
</g>
</g>
<!-- Node21&#45;&gt;Node27 -->
<g id="edge30" class="edge">
<title>Node21&#45;&gt;Node27</title>
<path fill="none" stroke="#191970" d="M963.3204,-135.5172C988.848,-121.8765 1022.1204,-104.0973 1041.8917,-93.5325"/>
<polygon fill="#191970" stroke="#191970" points="961.4755,-132.5346 954.3052,-140.3345 964.7745,-138.7085 961.4755,-132.5346"/>
</g>
<!-- Node21&#45;&gt;Node28 -->
<g id="edge31" class="edge">
<title>Node21&#45;&gt;Node28</title>
<path fill="none" stroke="#191970" d="M858.6023,-140.5696C857.324,-140.3729 856.0541,-140.1828 854.7954,-140 682.9693,-115.053 636.5559,-135.4231 465.7954,-104 451.7753,-101.42 436.4935,-97.3183 423.7956,-93.541"/>
<polygon fill="#191970" stroke="#191970" points="858.0882,-144.0319 868.522,-142.1918 859.218,-137.1237 858.0882,-144.0319"/>
</g>
<!-- Node34&#45;&gt;Node10 -->
<g id="edge46" class="edge">
<title>Node34&#45;&gt;Node10</title>
<path fill="none" stroke="#191970" d="M862.0749,-215.9375C700.387,-207.0602 286.4384,-183.6193 148.7954,-169 133.4883,-167.3742 116.906,-165.1129 101.8111,-162.8592"/>
<polygon fill="#191970" stroke="#191970" points="862.178,-219.4483 872.3546,-216.5009 862.5611,-212.4588 862.178,-219.4483"/>
</g>
<!-- Node34&#45;&gt;Node11 -->
<g id="edge48" class="edge">
<title>Node34&#45;&gt;Node11</title>
<path fill="none" stroke="#191970" d="M861.9385,-215.8039C718.524,-207.5346 381.7846,-186.8635 268.7954,-169 265.8316,-168.5314 262.7983,-167.9919 259.7463,-167.4025"/>
<polygon fill="#191970" stroke="#191970" points="862.1513,-219.3218 872.3356,-216.4012 862.5528,-212.3333 862.1513,-219.3218"/>
</g>
<!-- Node34&#45;&gt;Node15 -->
<g id="edge44" class="edge">
<title>Node34&#45;&gt;Node15</title>
<path fill="none" stroke="#191970" d="M993.222,-213.3877C1082.393,-204.5457 1237.1384,-187.237 1290.7954,-169 1315.4833,-160.6091 1317.6844,-149.9277 1341.7954,-140 1415.6809,-109.5778 1638.6691,-54.4435 1746.3441,-28.5922"/>
<polygon fill="#191970" stroke="#191970" points="992.8234,-209.9099 983.2139,-214.3719 993.5085,-216.8763 992.8234,-209.9099"/>
</g>
<!-- Node34&#45;&gt;Node16 -->
<g id="edge45" class="edge">
<title>Node34&#45;&gt;Node16</title>
<path fill="none" stroke="#191970" d="M993.2803,-214.4989C1058.4343,-208.2746 1160.6995,-195.1071 1245.7954,-169 1249.7265,-167.794 1465.1211,-66.5536 1545.7559,-28.6309"/>
<polygon fill="#191970" stroke="#191970" points="992.7841,-211.0299 983.1505,-215.4392 993.4312,-217.9999 992.7841,-211.0299"/>
</g>
<!-- Node34&#45;&gt;Node19 -->
<g id="edge53" class="edge">
<title>Node34&#45;&gt;Node19</title>
<path fill="none" stroke="#191970" d="M993.5798,-213.5197C1089.868,-204.6277 1274.7999,-187.0242 1431.7954,-169 1446.8915,-167.2669 1463.1119,-165.2542 1478.3924,-163.2901"/>
<polygon fill="#191970" stroke="#191970" points="993.0497,-210.0536 983.4131,-214.4566 993.6921,-217.0241 993.0497,-210.0536"/>
</g>
<!-- Node34&#45;&gt;Node21 -->
<g id="edge42" class="edge">
<title>Node34&#45;&gt;Node21</title>
<path fill="none" stroke="#191970" d="M927.7954,-195.1081C927.7954,-186.1539 927.7954,-176.3227 927.7954,-168.5765"/>
<polygon fill="#191970" stroke="#191970" points="924.2955,-195.3959 927.7954,-205.396 931.2955,-195.396 924.2955,-195.3959"/>
</g>
<!-- Node34&#45;&gt;Node26 -->
<g id="edge51" class="edge">
<title>Node34&#45;&gt;Node26</title>
<path fill="none" stroke="#191970" d="M993.4459,-212.9354C1077.1251,-203.8952 1212.8165,-186.7111 1227.7954,-169 1246.7907,-146.5399 1222.4118,-110.5571 1208.8072,-93.7325"/>
<polygon fill="#191970" stroke="#191970" points="992.831,-209.4811 983.2594,-214.0235 993.5746,-216.4415 992.831,-209.4811"/>
</g>
<!-- Node34&#45;&gt;Node27 -->
<g id="edge52" class="edge">
<title>Node34&#45;&gt;Node27</title>
<path fill="none" stroke="#191970" d="M958.7619,-199.394C970.9466,-190.766 984.6567,-180.1179 995.7954,-169 1020.4028,-144.4387 1043.1867,-109.7894 1053.299,-93.5559"/>
<polygon fill="#191970" stroke="#191970" points="956.4555,-196.7333 950.2177,-205.2973 960.4345,-202.4924 956.4555,-196.7333"/>
</g>
<!-- Node34&#45;&gt;Node28 -->
<g id="edge55" class="edge">
<title>Node34&#45;&gt;Node28</title>
<path fill="none" stroke="#191970" d="M900.5194,-199.3698C888.0719,-190.151 873.1587,-179.0606 859.7954,-169 842.8225,-156.2219 841.5539,-147.8077 821.7954,-140 673.8949,-81.556 622.0748,-133.4455 465.7954,-104 451.9104,-101.3838 436.7763,-97.3244 424.1438,-93.5853"/>
<polygon fill="#191970" stroke="#191970" points="898.5728,-202.2834 908.6935,-205.4174 902.7361,-196.6561 898.5728,-202.2834"/>
</g>
<!-- Node34&#45;&gt;Node29 -->
<g id="edge43" class="edge">
<title>Node34&#45;&gt;Node29</title>
<path fill="none" stroke="#191970" d="M876.9329,-202.0076C840.8971,-189.6143 794.0132,-173.4903 765.1807,-163.5743"/>
<polygon fill="#191970" stroke="#191970" points="876.1905,-205.4534 886.7852,-205.396 878.4671,-198.834 876.1905,-205.4534"/>
</g>
<!-- Node34&#45;&gt;Node30 -->
<g id="edge47" class="edge">
<title>Node34&#45;&gt;Node30</title>
<path fill="none" stroke="#191970" d="M862.2316,-216.4007C760.3699,-210.9022 558.1913,-197.2537 388.7954,-169 385.8357,-168.5063 382.8056,-167.9472 379.756,-167.3428"/>
<polygon fill="#191970" stroke="#191970" points="862.1946,-219.9036 872.366,-216.9386 862.5657,-212.9134 862.1946,-219.9036"/>
</g>
<!-- Node34&#45;&gt;Node31 -->
<g id="edge49" class="edge">
<title>Node34&#45;&gt;Node31</title>
<path fill="none" stroke="#191970" d="M862.2278,-213.995C779.4515,-206.4963 632.8685,-191.3896 508.7954,-169 505.8425,-168.4671 502.8177,-167.8774 499.7722,-167.2495"/>
<polygon fill="#191970" stroke="#191970" points="861.9733,-217.4861 872.246,-214.8936 862.5987,-210.5141 861.9733,-217.4861"/>
</g>
<!-- Node34&#45;&gt;Node32 -->
<g id="edge50" class="edge">
<title>Node34&#45;&gt;Node32</title>
<path fill="none" stroke="#191970" d="M985.4018,-202.6333C1028.1,-190.1315 1084.6351,-173.5785 1119.0516,-163.5016"/>
<polygon fill="#191970" stroke="#191970" points="984.3064,-199.307 975.6928,-205.476 986.2734,-206.0249 984.3064,-199.307"/>
</g>
<!-- Node34&#45;&gt;Node33 -->
<g id="edge54" class="edge">
<title>Node34&#45;&gt;Node33</title>
<path fill="none" stroke="#191970" d="M862.3019,-207.5286C807.1859,-197.4089 726.3023,-182.4526 655.7954,-169 646.6651,-167.258 636.9073,-165.3669 627.5722,-163.5434"/>
<polygon fill="#191970" stroke="#191970" points="861.8176,-210.9981 872.2851,-209.3604 863.081,-204.113 861.8176,-210.9981"/>
</g>
<!-- Node34&#45;&gt;Node35 -->
<g id="edge56" class="edge">
<title>Node34&#45;&gt;Node35</title>
<path fill="none" stroke="#191970" d="M993.2325,-214.6562C1074.4265,-207.906 1216.8274,-193.6378 1336.7954,-169 1343.8782,-167.5454 1351.417,-165.5839 1358.4352,-163.5744"/>
<polygon fill="#191970" stroke="#191970" points="992.8379,-211.1767 983.1569,-215.4813 993.4093,-218.1534 992.8379,-211.1767"/>
</g>
</g>
</svg>
        <g id="navigator" transform="translate(0 0)" fill="#404254">
                <rect fill="#f2f5e9" fill-opacity="0.5" stroke="#606060" stroke-width=".5" x="0" y="0" width="60" height="60"/>
                <use id="zoomplus" xlink:href="#zoomPlus" x="17" y="9" onmousedown="handleZoom(evt,'in')"/>
                <use id="zoomminus" xlink:href="#zoomMin" x="42" y="9" onmousedown="handleZoom(evt,'out')"/>
                <use id="reset" xlink:href="#resetDef" x="30" y="36" onmousedown="handleReset()"/>
                <g id="arrowUp" xlink:href="#dirArrow" transform="translate(30 24)" onmousedown="handlePan(0,-1)">
                  <use xlink:href="#rim" fill="#404040">
                        <set attributeName="fill" to="#808080" begin="arrowUp.mouseover" end="arrowUp.mouseout"/>
                  </use>
                  <path fill="none" stroke="white" stroke-width="1.5" d="M0,-3.0v7 M-2.5,-0.5L0,-3.0L2.5,-0.5"/>
                </g>
                <g id="arrowRight" xlink:href="#dirArrow" transform="rotate(90) translate(36 -43)" onmousedown="handlePan(1,0)">
                  <use xlink:href="#rim" fill="#404040">
                        <set attributeName="fill" to="#808080" begin="arrowRight.mouseover" end="arrowRight.mouseout"/>
                  </use>
                  <path fill="none" stroke="white" stroke-width="1.5" d="M0,-3.0v7 M-2.5,-0.5L0,-3.0L2.5,-0.5"/>
                </g>
                <g id="arrowDown" xlink:href="#dirArrow" transform="rotate(180) translate(-30 -48)" onmousedown="handlePan(0,1)">
                  <use xlink:href="#rim" fill="#404040">
                        <set attributeName="fill" to="#808080" begin="arrowDown.mouseover" end="arrowDown.mouseout"/>
                  </use>
                  <path fill="none" stroke="white" stroke-width="1.5" d="M0,-3.0v7 M-2.5,-0.5L0,-3.0L2.5,-0.5"/>
                </g>
                <g id="arrowLeft" xlink:href="#dirArrow" transform="rotate(270) translate(-36 17)" onmousedown="handlePan(-1,0)">
                  <use xlink:href="#rim" fill="#404040">
                        <set attributeName="fill" to="#808080" begin="arrowLeft.mouseover" end="arrowLeft.mouseout"/>
                  </use>
                  <path fill="none" stroke="white" stroke-width="1.5" d="M0,-3.0v7 M-2.5,-0.5L0,-3.0L2.5,-0.5"/>
                </g>
        </g>
        <svg viewBox="0 0 15 15" width="100%" height="30px" preserveAspectRatio="xMaxYMin meet">
         <g id="arrow_out" transform="scale(0.3 0.3)">
          <a xlink:href="connectivity_8hpp__dep__incl_org.svg" target="_base">
           <rect id="button" ry="5" rx="5" y="6" x="6" height="38" width="38"
                fill="#f2f5e9" fill-opacity="0.5" stroke="#606060" stroke-width="1.0"/>
           <path id="arrow"
             d="M 11.500037,31.436501 C 11.940474,20.09759 22.043105,11.32322 32.158766,21.979434 L 37.068811,17.246167 C 37.068811,17.246167 37.088388,32 37.088388,32 L 22.160133,31.978069 C 22.160133,31.978069 26.997745,27.140456 26.997745,27.140456 C 18.528582,18.264221 13.291696,25.230495 11.500037,31.436501 z"
             style="fill:#404040;"/>
          </a>
         </g>
        </svg>
</svg>
