<?xml version="1.0" encoding="UTF-8" standalone="no"?>
<!DOCTYPE svg PUBLIC "-//W3C//DTD SVG 1.1//EN"
 "http://www.w3.org/Graphics/SVG/1.1/DTD/svg11.dtd">
<!-- Generated by graphviz version 2.40.1 (20161225.0304)
 -->
<!-- Title: src/algorithm/graph/connectivity.cpp Pages: 1 -->
<svg width="3027pt" height="472pt"
 viewBox="0.00 0.00 3026.56 472.00" xmlns="http://www.w3.org/2000/svg" xmlns:xlink="http://www.w3.org/1999/xlink">
<g id="graph0" class="graph" transform="scale(1 1) rotate(0) translate(4 468)">
<title>src/algorithm/graph/connectivity.cpp</title>
<polygon fill="#ffffff" stroke="transparent" points="-4,4 -4,-468 3022.5615,-468 3022.5615,4 -4,4"/>
<!-- Node0 -->
<g id="node1" class="node">
<title>Node0</title>
<polygon fill="#bfbfbf" stroke="#000000" points="628.2046,-435.5 628.2046,-463.5 729.7954,-463.5 729.7954,-435.5 628.2046,-435.5"/>
<text text-anchor="start" x="636.2046" y="-451.5" font-family="Helvetica,sans-Serif" font-size="10.00" fill="#000000">src/algorithm/graph</text>
<text text-anchor="middle" x="679" y="-441.5" font-family="Helvetica,sans-Serif" font-size="10.00" fill="#000000">/connectivity.cpp</text>
</g>
<!-- Node1 -->
<g id="node2" class="node">
<title>Node1</title>
<g id="a_node2"><a xlink:href="access_8hpp.html" target="_top" xlink:title="indigox/algorithm/access.hpp">
<polygon fill="#ffffff" stroke="#000000" points="759.52,-375.5 759.52,-393.5 904.48,-393.5 904.48,-375.5 759.52,-375.5"/>
<text text-anchor="middle" x="832" y="-381.5" font-family="Helvetica,sans-Serif" font-size="10.00" fill="#000000">indigox/algorithm/access.hpp</text>
</a>
</g>
</g>
<!-- Node0&#45;&gt;Node1 -->
<g id="edge1" class="edge">
<title>Node0&#45;&gt;Node1</title>
<path fill="none" stroke="#191970" d="M712.1987,-435.396C738.6955,-424.1392 775.5263,-408.4921 801.3338,-397.5281"/>
<polygon fill="#191970" stroke="#191970" points="802.8052,-400.7058 810.6405,-393.5743 800.0681,-394.2631 802.8052,-400.7058"/>
</g>
<!-- Node5 -->
<g id="node6" class="node">
<title>Node5</title>
<polygon fill="#ffffff" stroke="#bfbfbf" points="309.9434,-.5 309.9434,-18.5 362.0566,-18.5 362.0566,-.5 309.9434,-.5"/>
<text text-anchor="middle" x="336" y="-6.5" font-family="Helvetica,sans-Serif" font-size="10.00" fill="#000000">memory</text>
</g>
<!-- Node0&#45;&gt;Node5 -->
<g id="edge93" class="edge">
<title>Node0&#45;&gt;Node5</title>
<path fill="none" stroke="#191970" d="M627.9545,-448.0926C486.0634,-443.8116 94.11,-429.3434 45,-399 12.0921,-378.6673 0,-363.1826 0,-324.5 0,-324.5 0,-324.5 0,-134.5 0,-89.692 23.4875,-77.9028 62,-55 101.5547,-31.4774 234.4479,-17.7373 299.5036,-12.2688"/>
<polygon fill="#191970" stroke="#191970" points="300.0294,-15.7375 309.71,-11.4321 299.4575,-8.7609 300.0294,-15.7375"/>
</g>
<!-- Node7 -->
<g id="node8" class="node">
<title>Node7</title>
<polygon fill="#ffffff" stroke="#bfbfbf" points="600.478,-190.5 600.478,-208.5 711.522,-208.5 711.522,-190.5 600.478,-190.5"/>
<text text-anchor="middle" x="656" y="-196.5" font-family="Helvetica,sans-Serif" font-size="10.00" fill="#000000">EASTL/vector_map.h</text>
</g>
<!-- Node0&#45;&gt;Node7 -->
<g id="edge92" class="edge">
<title>Node0&#45;&gt;Node7</title>
<path fill="none" stroke="#191970" d="M666.3745,-435.3334C642.678,-407.6808 592.2831,-343.5545 574,-279 570.4878,-266.5989 567.7147,-261.2525 574,-250 583.5418,-232.9175 601.4966,-220.8997 618.1782,-212.886"/>
<polygon fill="#191970" stroke="#191970" points="620.0608,-215.8796 627.7797,-208.6223 617.2198,-209.482 620.0608,-215.8796"/>
</g>
<!-- Node9 -->
<g id="node10" class="node">
<title>Node9</title>
<polygon fill="#ffffff" stroke="#bfbfbf" points="364.3843,-60.5 364.3843,-78.5 407.6157,-78.5 407.6157,-60.5 364.3843,-60.5"/>
<text text-anchor="middle" x="386" y="-66.5" font-family="Helvetica,sans-Serif" font-size="10.00" fill="#000000">vector</text>
</g>
<!-- Node0&#45;&gt;Node9 -->
<g id="edge94" class="edge">
<title>Node0&#45;&gt;Node9</title>
<path fill="none" stroke="#191970" d="M627.9064,-448.3991C516.4808,-445.3547 255.1978,-434.5361 175,-399 135.585,-381.535 120.5091,-373.3954 103,-334 46.0461,-205.8537 269.6409,-110.9779 354.5334,-80.1949"/>
<polygon fill="#191970" stroke="#191970" points="355.9256,-83.4145 364.1704,-76.7607 353.5758,-76.8206 355.9256,-83.4145"/>
</g>
<!-- Node11 -->
<g id="node12" class="node">
<title>Node11</title>
<g id="a_node12"><a xlink:href="connectivity_8hpp.html" target="_top" xlink:title="../algorithm/graph\l/connectivity.hpp">
<polygon fill="#ffffff" stroke="#000000" points="1228.0913,-120.5 1228.0913,-148.5 1321.9087,-148.5 1321.9087,-120.5 1228.0913,-120.5"/>
<text text-anchor="start" x="1236.0913" y="-136.5" font-family="Helvetica,sans-Serif" font-size="10.00" fill="#000000">../algorithm/graph</text>
<text text-anchor="middle" x="1275" y="-126.5" font-family="Helvetica,sans-Serif" font-size="10.00" fill="#000000">/connectivity.hpp</text>
</a>
</g>
</g>
<!-- Node0&#45;&gt;Node11 -->
<g id="edge50" class="edge">
<title>Node0&#45;&gt;Node11</title>
<path fill="none" stroke="#191970" d="M729.9848,-445.3988C886.5726,-432.1273 1350,-387.5257 1350,-324.5 1350,-324.5 1350,-324.5 1350,-264.5 1350,-228.1716 1349.5465,-216.2375 1331,-185 1324.212,-173.5672 1313.996,-163.2574 1304.1403,-154.9791"/>
<polygon fill="#191970" stroke="#191970" points="1306.0332,-152.0124 1296.0294,-148.5231 1301.6737,-157.4892 1306.0332,-152.0124"/>
</g>
<!-- Node35 -->
<g id="node34" class="node">
<title>Node35</title>
<g id="a_node34"><a xlink:href="triple_8hpp.html" target="_top" xlink:title="../utils/triple.hpp">
<polygon fill="#ffffff" stroke="#000000" points="1748.9829,-190.5 1748.9829,-208.5 1835.0171,-208.5 1835.0171,-190.5 1748.9829,-190.5"/>
<text text-anchor="middle" x="1792" y="-196.5" font-family="Helvetica,sans-Serif" font-size="10.00" fill="#000000">../utils/triple.hpp</text>
</a>
</g>
</g>
<!-- Node0&#45;&gt;Node35 -->
<g id="edge88" class="edge">
<title>Node0&#45;&gt;Node35</title>
<path fill="none" stroke="#191970" d="M730.0539,-448.1227C867.6958,-444.0304 1244.1347,-430.2311 1364,-399 1528.1233,-356.2375 1706.4944,-252.3033 1768.9021,-213.9928"/>
<polygon fill="#191970" stroke="#191970" points="1770.9133,-216.8643 1777.5787,-208.6288 1767.2324,-210.9102 1770.9133,-216.8643"/>
</g>
<!-- Node38 -->
<g id="node37" class="node">
<title>Node38</title>
<g id="a_node37"><a xlink:href="atom_8hpp.html" target="_top" xlink:title="indigox/classes/atom.hpp">
<polygon fill="#ffffff" stroke="#000000" points="27.8574,-125.5 27.8574,-143.5 156.1426,-143.5 156.1426,-125.5 27.8574,-125.5"/>
<text text-anchor="middle" x="92" y="-131.5" font-family="Helvetica,sans-Serif" font-size="10.00" fill="#000000">indigox/classes/atom.hpp</text>
</a>
</g>
</g>
<!-- Node0&#45;&gt;Node38 -->
<g id="edge51" class="edge">
<title>Node0&#45;&gt;Node38</title>
<path fill="none" stroke="#191970" d="M627.8562,-448.4688C489.1407,-445.2286 113.2615,-433.3403 70,-399 42.7536,-377.3722 46,-359.2868 46,-324.5 46,-324.5 46,-324.5 46,-264.5 46,-222.4167 67.6882,-176.8334 81.2803,-152.3981"/>
<polygon fill="#191970" stroke="#191970" points="84.4078,-153.9805 86.3595,-143.5669 78.3398,-150.4905 84.4078,-153.9805"/>
</g>
<!-- Node40 -->
<g id="node39" class="node">
<title>Node40</title>
<g id="a_node39"><a xlink:href="molecule_8hpp.html" target="_top" xlink:title="indigox/classes/molecule.hpp">
<polygon fill="#ffffff" stroke="#000000" points="583.9634,-125.5 583.9634,-143.5 730.0366,-143.5 730.0366,-125.5 583.9634,-125.5"/>
<text text-anchor="middle" x="657" y="-131.5" font-family="Helvetica,sans-Serif" font-size="10.00" fill="#000000">indigox/classes/molecule.hpp</text>
</a>
</g>
</g>
<!-- Node0&#45;&gt;Node40 -->
<g id="edge56" class="edge">
<title>Node0&#45;&gt;Node40</title>
<path fill="none" stroke="#191970" d="M628.1806,-446.2067C531.8955,-439.4471 330.6167,-422.6304 310,-399 237.4386,-315.8317 337.4008,-234.6017 436,-185 478.8024,-163.4677 530.8738,-150.9943 573.719,-143.8334"/>
<polygon fill="#191970" stroke="#191970" points="574.5161,-147.2504 583.8361,-142.2116 573.4081,-140.3386 574.5161,-147.2504"/>
</g>
<!-- Node44 -->
<g id="node43" class="node">
<title>Node44</title>
<g id="a_node43"><a xlink:href="condensed_8hpp.html" target="_top" xlink:title="indigox/graph/condensed.hpp">
<polygon fill="#ffffff" stroke="#000000" points="319.3921,-375.5 319.3921,-393.5 466.6079,-393.5 466.6079,-375.5 319.3921,-375.5"/>
<text text-anchor="middle" x="393" y="-381.5" font-family="Helvetica,sans-Serif" font-size="10.00" fill="#000000">indigox/graph/condensed.hpp</text>
</a>
</g>
</g>
<!-- Node0&#45;&gt;Node44 -->
<g id="edge63" class="edge">
<title>Node0&#45;&gt;Node44</title>
<path fill="none" stroke="#191970" d="M628.1985,-437.9542C575.8296,-426.0522 494.7021,-407.6141 442.7298,-395.8022"/>
<polygon fill="#191970" stroke="#191970" points="443.2683,-392.3354 432.7412,-393.5321 441.7169,-399.1614 443.2683,-392.3354"/>
</g>
<!-- Node45 -->
<g id="node44" class="node">
<title>Node45</title>
<polygon fill="#ffffff" stroke="#bfbfbf" points="111.6504,-315.5 111.6504,-333.5 194.3496,-333.5 194.3496,-315.5 111.6504,-315.5"/>
<text text-anchor="middle" x="153" y="-321.5" font-family="Helvetica,sans-Serif" font-size="10.00" fill="#000000">EASTL/bitset.h</text>
</g>
<!-- Node0&#45;&gt;Node45 -->
<g id="edge91" class="edge">
<title>Node0&#45;&gt;Node45</title>
<path fill="none" stroke="#191970" d="M628.0842,-446.3562C513.76,-438.9677 243.8458,-419.5636 208,-399 185.7346,-386.2271 169.8483,-360.4073 161.0448,-342.7835"/>
<polygon fill="#191970" stroke="#191970" points="164.1087,-341.0739 156.6853,-333.5145 157.7743,-344.0533 164.1087,-341.0739"/>
</g>
<!-- Node46 -->
<g id="node45" class="node">
<title>Node46</title>
<g id="a_node45"><a xlink:href="molecular_8hpp.html" target="_top" xlink:title="indigox/graph/molecular.hpp">
<polygon fill="#ffffff" stroke="#000000" points="972.4561,-375.5 972.4561,-393.5 1113.5439,-393.5 1113.5439,-375.5 972.4561,-375.5"/>
<text text-anchor="middle" x="1043" y="-381.5" font-family="Helvetica,sans-Serif" font-size="10.00" fill="#000000">indigox/graph/molecular.hpp</text>
</a>
</g>
</g>
<!-- Node0&#45;&gt;Node46 -->
<g id="edge71" class="edge">
<title>Node0&#45;&gt;Node46</title>
<path fill="none" stroke="#191970" d="M729.9959,-440.3936C796.1993,-428.5716 911.6,-407.9643 982.2598,-395.3465"/>
<polygon fill="#191970" stroke="#191970" points="983.1202,-398.7483 992.3492,-393.5448 981.8897,-391.8573 983.1202,-398.7483"/>
</g>
<!-- Node49 -->
<g id="node48" class="node">
<title>Node49</title>
<g id="a_node48"><a xlink:href="common_8hpp.html" target="_top" xlink:title="indigox/utils/common.hpp">
<polygon fill="#ffffff" stroke="#000000" points="2671.5815,-125.5 2671.5815,-143.5 2800.4185,-143.5 2800.4185,-125.5 2671.5815,-125.5"/>
<text text-anchor="middle" x="2736" y="-131.5" font-family="Helvetica,sans-Serif" font-size="10.00" fill="#000000">indigox/utils/common.hpp</text>
</a>
</g>
</g>
<!-- Node0&#45;&gt;Node49 -->
<g id="edge82" class="edge">
<title>Node0&#45;&gt;Node49</title>
<path fill="none" stroke="#191970" d="M729.952,-447.0064C961.2248,-435.3586 1901,-384.346 1901,-324.5 1901,-324.5 1901,-324.5 1901,-264.5 1901,-187.8985 2456.7409,-149.7601 2661.4566,-138.3098"/>
<polygon fill="#191970" stroke="#191970" points="2661.7288,-141.8002 2671.52,-137.7527 2661.3418,-134.8109 2661.7288,-141.8002"/>
</g>
<!-- Node50 -->
<g id="node49" class="node">
<title>Node50</title>
<polygon fill="#ffffff" stroke="#bfbfbf" points="1929.2983,-375.5 1929.2983,-393.5 2058.7017,-393.5 2058.7017,-375.5 1929.2983,-375.5"/>
<text text-anchor="middle" x="1994" y="-381.5" font-family="Helvetica,sans-Serif" font-size="10.00" fill="#000000">boost/dynamic_bitset.hpp</text>
</g>
<!-- Node0&#45;&gt;Node50 -->
<g id="edge89" class="edge">
<title>Node0&#45;&gt;Node50</title>
<path fill="none" stroke="#191970" d="M730.1373,-448.3715C932.766,-443.7512 1679.6864,-425.2704 1915,-399 1923.4666,-398.0548 1932.3913,-396.7349 1941.0734,-395.273"/>
<polygon fill="#191970" stroke="#191970" points="1941.8703,-398.6866 1951.1119,-393.5056 1940.6565,-391.7927 1941.8703,-398.6866"/>
</g>
<!-- Node51 -->
<g id="node50" class="node">
<title>Node51</title>
<polygon fill="#ffffff" stroke="#bfbfbf" points="2077.1284,-370.5 2077.1284,-398.5 2194.8716,-398.5 2194.8716,-370.5 2077.1284,-370.5"/>
<text text-anchor="start" x="2085.1284" y="-386.5" font-family="Helvetica,sans-Serif" font-size="10.00" fill="#000000">boost/graph/connected</text>
<text text-anchor="middle" x="2136" y="-376.5" font-family="Helvetica,sans-Serif" font-size="10.00" fill="#000000">_components.hpp</text>
</g>
<!-- Node0&#45;&gt;Node51 -->
<g id="edge90" class="edge">
<title>Node0&#45;&gt;Node51</title>
<path fill="none" stroke="#191970" d="M730.0771,-448.8321C945.3966,-445.8356 1780.6939,-432.3472 2066.4256,-399.0094"/>
<polygon fill="#191970" stroke="#191970" points="2067.2549,-402.4349 2076.7647,-397.7643 2066.4179,-395.4851 2067.2549,-402.4349"/>
</g>
<!-- Node2 -->
<g id="node3" class="node">
<title>Node2</title>
<g id="a_node3"><a xlink:href="base__graph_8hpp.html" target="_top" xlink:title="../graph/base_graph.hpp">
<polygon fill="#ffffff" stroke="#000000" points="769.5127,-315.5 769.5127,-333.5 894.4873,-333.5 894.4873,-315.5 769.5127,-315.5"/>
<text text-anchor="middle" x="832" y="-321.5" font-family="Helvetica,sans-Serif" font-size="10.00" fill="#000000">../graph/base_graph.hpp</text>
</a>
</g>
</g>
<!-- Node1&#45;&gt;Node2 -->
<g id="edge2" class="edge">
<title>Node1&#45;&gt;Node2</title>
<path fill="none" stroke="#191970" d="M832,-375.3873C832,-367.0174 832,-354.3414 832,-343.735"/>
<polygon fill="#191970" stroke="#191970" points="835.5001,-343.6984 832,-333.6985 828.5001,-343.6985 835.5001,-343.6984"/>
</g>
<!-- Node3 -->
<g id="node4" class="node">
<title>Node3</title>
<g id="a_node4"><a xlink:href="fwd__declares_8hpp.html" target="_top" xlink:title="../utils/fwd_declares.hpp">
<polygon fill="#ffffff" stroke="#000000" points="717.3599,-60.5 717.3599,-78.5 840.6401,-78.5 840.6401,-60.5 717.3599,-60.5"/>
<text text-anchor="middle" x="779" y="-66.5" font-family="Helvetica,sans-Serif" font-size="10.00" fill="#000000">../utils/fwd_declares.hpp</text>
</a>
</g>
</g>
<!-- Node1&#45;&gt;Node3 -->
<g id="edge49" class="edge">
<title>Node1&#45;&gt;Node3</title>
<path fill="none" stroke="#191970" d="M856.7999,-375.3385C923.3766,-350.6895 1101.2647,-284.448 1105,-279 1112.2884,-268.3697 1111.5443,-261.1039 1105,-250 1045.6639,-149.3225 907.7488,-100.8541 831.6928,-81.0426"/>
<polygon fill="#191970" stroke="#191970" points="832.3886,-77.6084 821.8353,-78.5453 830.6695,-84.394 832.3886,-77.6084"/>
</g>
<!-- Node2&#45;&gt;Node3 -->
<g id="edge3" class="edge">
<title>Node2&#45;&gt;Node3</title>
<path fill="none" stroke="#191970" d="M855.4597,-315.498C870.8853,-308.2009 889.8517,-296.271 899,-279 905.033,-267.6103 902.7271,-262.3382 899,-250 878.4109,-181.8416 822.7036,-115.8328 795.0376,-86.0293"/>
<polygon fill="#191970" stroke="#191970" points="797.4418,-83.4775 788.0304,-78.6116 792.3532,-88.2845 797.4418,-83.4775"/>
</g>
<!-- Node4 -->
<g id="node5" class="node">
<title>Node4</title>
<polygon fill="#ffffff" stroke="#bfbfbf" points="902.5493,-.5 902.5493,-18.5 947.4507,-18.5 947.4507,-.5 902.5493,-.5"/>
<text text-anchor="middle" x="925" y="-6.5" font-family="Helvetica,sans-Serif" font-size="10.00" fill="#000000">cstdint</text>
</g>
<!-- Node2&#45;&gt;Node4 -->
<g id="edge9" class="edge">
<title>Node2&#45;&gt;Node4</title>
<path fill="none" stroke="#191970" d="M894.7954,-321.5896C1087.4599,-312.0444 1667.7718,-278.539 1844,-214 1865.6453,-206.073 1865.2847,-192.7333 1887,-185 2053.0668,-125.8598 2106.987,-170.1234 2282,-149 2379.5385,-137.2275 2782.5818,-125.3483 2714,-55 2682.1105,-22.2891 1197.9745,-11.2737 957.6984,-9.7035"/>
<polygon fill="#191970" stroke="#191970" points="957.5333,-6.2024 947.5109,-9.6377 957.4881,-13.2023 957.5333,-6.2024"/>
</g>
<!-- Node2&#45;&gt;Node5 -->
<g id="edge10" class="edge">
<title>Node2&#45;&gt;Node5</title>
<path fill="none" stroke="#191970" d="M769.3293,-318.9589C718.0311,-313.0366 644.2105,-301.3067 583,-279 528.2015,-259.03 514.1841,-250.8792 469,-214 409.4662,-165.4087 390.8139,-151.9908 355,-84 345.7894,-66.5141 340.8773,-44.3337 338.3726,-28.7384"/>
<polygon fill="#191970" stroke="#191970" points="341.8194,-28.1158 336.9472,-18.7077 334.889,-29.1007 341.8194,-28.1158"/>
</g>
<!-- Node6 -->
<g id="node7" class="node">
<title>Node6</title>
<g id="a_node7"><a xlink:href="simple__bimap_8hpp.html" target="_top" xlink:title="../utils/simple_bimap.hpp">
<polygon fill="#ffffff" stroke="#000000" points="591.9731,-255.5 591.9731,-273.5 718.0269,-273.5 718.0269,-255.5 591.9731,-255.5"/>
<text text-anchor="middle" x="655" y="-261.5" font-family="Helvetica,sans-Serif" font-size="10.00" fill="#000000">../utils/simple_bimap.hpp</text>
</a>
</g>
</g>
<!-- Node2&#45;&gt;Node6 -->
<g id="edge6" class="edge">
<title>Node2&#45;&gt;Node6</title>
<path fill="none" stroke="#191970" d="M805.1175,-315.3873C774.6624,-305.0635 724.8806,-288.1883 691.068,-276.7264"/>
<polygon fill="#191970" stroke="#191970" points="692.1499,-273.3976 681.5555,-273.5019 689.9025,-280.0271 692.1499,-273.3976"/>
</g>
<!-- Node8 -->
<g id="node9" class="node">
<title>Node8</title>
<polygon fill="#ffffff" stroke="#bfbfbf" points="773.6875,-250.5 773.6875,-278.5 890.3125,-278.5 890.3125,-250.5 773.6875,-250.5"/>
<text text-anchor="start" x="781.6875" y="-266.5" font-family="Helvetica,sans-Serif" font-size="10.00" fill="#000000">boost/graph/adjacency</text>
<text text-anchor="middle" x="832" y="-256.5" font-family="Helvetica,sans-Serif" font-size="10.00" fill="#000000">_list.hpp</text>
</g>
<!-- Node2&#45;&gt;Node8 -->
<g id="edge8" class="edge">
<title>Node2&#45;&gt;Node8</title>
<path fill="none" stroke="#191970" d="M832,-315.3873C832,-308.3369 832,-298.2311 832,-288.8806"/>
<polygon fill="#191970" stroke="#191970" points="835.5001,-288.8476 832,-278.8477 828.5001,-288.8477 835.5001,-288.8476"/>
</g>
<!-- Node2&#45;&gt;Node9 -->
<g id="edge11" class="edge">
<title>Node2&#45;&gt;Node9</title>
<path fill="none" stroke="#191970" d="M813.4966,-315.4937C798.7851,-307.5684 778.5014,-294.8353 765,-279 735.0719,-243.8986 757.758,-212.8685 721,-185 643.0961,-125.9364 594.838,-185.1385 504,-149 465.0961,-133.5227 425.9796,-103.6888 403.9871,-85.2947"/>
<polygon fill="#191970" stroke="#191970" points="406.0554,-82.4587 396.1747,-78.6347 401.5141,-87.7857 406.0554,-82.4587"/>
</g>
<!-- Node10 -->
<g id="node11" class="node">
<title>Node10</title>
<g id="a_node11"><a xlink:href="base__graph__impl_8hpp.html" target="_top" xlink:title="base_graph_impl.hpp">
<polygon fill="#ffffff" stroke="#000000" points="983.9092,-255.5 983.9092,-273.5 1096.0908,-273.5 1096.0908,-255.5 983.9092,-255.5"/>
<text text-anchor="middle" x="1040" y="-261.5" font-family="Helvetica,sans-Serif" font-size="10.00" fill="#000000">base_graph_impl.hpp</text>
</a>
</g>
</g>
<!-- Node2&#45;&gt;Node10 -->
<g id="edge12" class="edge">
<title>Node2&#45;&gt;Node10</title>
<path fill="none" stroke="#191970" d="M863.5907,-315.3873C899.8406,-304.9306 959.3906,-287.7527 999.1405,-276.2864"/>
<polygon fill="#191970" stroke="#191970" points="1000.1554,-279.6364 1008.7935,-273.5019 998.2152,-272.9107 1000.1554,-279.6364"/>
</g>
<!-- Node3&#45;&gt;Node4 -->
<g id="edge4" class="edge">
<title>Node3&#45;&gt;Node4</title>
<path fill="none" stroke="#191970" d="M801.1743,-60.3873C825.8642,-50.2407 865.9532,-33.7658 893.8011,-22.3215"/>
<polygon fill="#191970" stroke="#191970" points="895.1764,-25.5404 903.0954,-18.5019 892.5156,-19.0658 895.1764,-25.5404"/>
</g>
<!-- Node3&#45;&gt;Node5 -->
<g id="edge5" class="edge">
<title>Node3&#45;&gt;Node5</title>
<path fill="none" stroke="#191970" d="M738.3898,-60.494C728.7822,-58.5283 718.5524,-56.5692 709,-55 586.1786,-34.8237 439.2484,-19.4486 372.3663,-12.9251"/>
<polygon fill="#191970" stroke="#191970" points="372.6259,-9.434 362.3354,-11.9548 371.9519,-16.4015 372.6259,-9.434"/>
</g>
<!-- Node6&#45;&gt;Node7 -->
<g id="edge7" class="edge">
<title>Node6&#45;&gt;Node7</title>
<path fill="none" stroke="#191970" d="M655.139,-255.462C655.2837,-246.061 655.5146,-231.0518 655.7009,-218.943"/>
<polygon fill="#191970" stroke="#191970" points="659.2013,-218.9348 655.8557,-208.8821 652.2021,-218.8271 659.2013,-218.9348"/>
</g>
<!-- Node10&#45;&gt;Node7 -->
<g id="edge46" class="edge">
<title>Node10&#45;&gt;Node7</title>
<path fill="none" stroke="#191970" d="M986.6064,-255.462C916.6362,-243.6181 794.0789,-222.8727 719.4504,-210.2403"/>
<polygon fill="#191970" stroke="#191970" points="719.6924,-206.7316 709.2485,-208.5134 718.5241,-213.6334 719.6924,-206.7316"/>
</g>
<!-- Node10&#45;&gt;Node9 -->
<g id="edge48" class="edge">
<title>Node10&#45;&gt;Node9</title>
<path fill="none" stroke="#191970" d="M1010.8651,-255.4969C959.7772,-239.8941 850.5642,-207.359 757,-185 676.802,-165.8351 653.8527,-173.1093 575,-149 515.7238,-130.8763 449.6432,-100.6263 413.4395,-83.1315"/>
<polygon fill="#191970" stroke="#191970" points="414.5736,-79.7907 404.0509,-78.556 411.5069,-86.0832 414.5736,-79.7907"/>
</g>
<!-- Node10&#45;&gt;Node11 -->
<g id="edge13" class="edge">
<title>Node10&#45;&gt;Node11</title>
<path fill="none" stroke="#191970" d="M1045.5382,-255.4096C1056.0456,-238.9234 1080.4842,-204.041 1110,-185 1142.6236,-163.9541 1184.501,-151.2748 1217.9029,-143.8846"/>
<polygon fill="#191970" stroke="#191970" points="1218.9161,-147.2479 1227.9773,-141.7575 1217.4699,-140.3989 1218.9161,-147.2479"/>
</g>
<!-- Node13 -->
<g id="node14" class="node">
<title>Node13</title>
<g id="a_node14"><a xlink:href="cycles_8hpp.html" target="_top" xlink:title="../algorithm/graph\l/cycles.hpp">
<polygon fill="#ffffff" stroke="#000000" points="1228.0913,-185.5 1228.0913,-213.5 1321.9087,-213.5 1321.9087,-185.5 1228.0913,-185.5"/>
<text text-anchor="start" x="1236.0913" y="-201.5" font-family="Helvetica,sans-Serif" font-size="10.00" fill="#000000">../algorithm/graph</text>
<text text-anchor="middle" x="1275" y="-191.5" font-family="Helvetica,sans-Serif" font-size="10.00" fill="#000000">/cycles.hpp</text>
</a>
</g>
</g>
<!-- Node10&#45;&gt;Node13 -->
<g id="edge18" class="edge">
<title>Node10&#45;&gt;Node13</title>
<path fill="none" stroke="#191970" d="M1072.6757,-255.462C1110.2742,-245.0625 1172.6843,-227.8001 1218.2641,-215.1929"/>
<polygon fill="#191970" stroke="#191970" points="1219.304,-218.5368 1228.009,-212.4975 1217.4379,-211.7901 1219.304,-218.5368"/>
</g>
<!-- Node20 -->
<g id="node19" class="node">
<title>Node20</title>
<g id="a_node19"><a xlink:href="serialise_8hpp.html" target="_top" xlink:title="../utils/serialise.hpp">
<polygon fill="#ffffff" stroke="#000000" points="1697.4805,-125.5 1697.4805,-143.5 1798.5195,-143.5 1798.5195,-125.5 1697.4805,-125.5"/>
<text text-anchor="middle" x="1748" y="-131.5" font-family="Helvetica,sans-Serif" font-size="10.00" fill="#000000">../utils/serialise.hpp</text>
</a>
</g>
</g>
<!-- Node10&#45;&gt;Node20 -->
<g id="edge26" class="edge">
<title>Node10&#45;&gt;Node20</title>
<path fill="none" stroke="#191970" d="M1055.6531,-255.4514C1086.0176,-238.3825 1155.5214,-201.6537 1219,-185 1306.0358,-162.166 1567.5717,-144.8094 1687.1464,-137.8404"/>
<polygon fill="#191970" stroke="#191970" points="1687.4507,-141.3287 1697.2321,-137.2576 1687.0468,-134.3404 1687.4507,-141.3287"/>
</g>
<!-- Node10&#45;&gt;Node35 -->
<g id="edge42" class="edge">
<title>Node10&#45;&gt;Node35</title>
<path fill="none" stroke="#191970" d="M1096.2147,-259.641C1236.6215,-247.5048 1601.2247,-215.9899 1738.5914,-204.1164"/>
<polygon fill="#191970" stroke="#191970" points="1739.1953,-207.5774 1748.8568,-203.2291 1738.5925,-200.6034 1739.1953,-207.5774"/>
</g>
<!-- Node37 -->
<g id="node36" class="node">
<title>Node37</title>
<polygon fill="#ffffff" stroke="#bfbfbf" points="477.5347,-190.5 477.5347,-208.5 582.4653,-208.5 582.4653,-190.5 477.5347,-190.5"/>
<text text-anchor="middle" x="530" y="-196.5" font-family="Helvetica,sans-Serif" font-size="10.00" fill="#000000">EASTL/vector_set.h</text>
</g>
<!-- Node10&#45;&gt;Node37 -->
<g id="edge47" class="edge">
<title>Node10&#45;&gt;Node37</title>
<path fill="none" stroke="#191970" d="M983.8085,-258.5666C871.9449,-246.6981 628.8653,-220.6047 591,-214 585.6383,-213.0648 580.044,-211.9418 574.5126,-210.7399"/>
<polygon fill="#191970" stroke="#191970" points="575.2137,-207.3102 564.6876,-208.5152 573.6677,-214.1373 575.2137,-207.3102"/>
</g>
<!-- Node11&#45;&gt;Node3 -->
<g id="edge14" class="edge">
<title>Node11&#45;&gt;Node3</title>
<path fill="none" stroke="#191970" d="M1227.8396,-122.6263C1223.1804,-121.6531 1218.509,-120.7553 1214,-120 1053.667,-93.1413 1010.7412,-108.2966 850,-84 843.3138,-82.9894 836.3053,-81.7639 829.4046,-80.4584"/>
<polygon fill="#191970" stroke="#191970" points="829.9078,-76.9905 819.4216,-78.504 828.5629,-83.8601 829.9078,-76.9905"/>
</g>
<!-- Node11&#45;&gt;Node4 -->
<g id="edge15" class="edge">
<title>Node11&#45;&gt;Node4</title>
<path fill="none" stroke="#191970" d="M1227.8113,-122.7866C1223.1579,-121.781 1218.4955,-120.8318 1214,-120 1154.4793,-108.9868 989.2343,-124.2226 944,-84 928.535,-70.2485 924.8331,-45.8285 924.3186,-28.7059"/>
<polygon fill="#191970" stroke="#191970" points="927.8185,-28.7038 924.3491,-18.6931 920.8185,-28.6824 927.8185,-28.7038"/>
</g>
<!-- Node11&#45;&gt;Node9 -->
<g id="edge17" class="edge">
<title>Node11&#45;&gt;Node9</title>
<path fill="none" stroke="#191970" d="M1228.0775,-133.9967C1102.2826,-132.1329 747.2331,-123.4903 455,-84 442.8334,-82.3559 429.609,-79.7744 418.0232,-77.2423"/>
<polygon fill="#191970" stroke="#191970" points="418.4468,-73.7499 407.9212,-74.9592 416.9036,-80.5777 418.4468,-73.7499"/>
</g>
<!-- Node12 -->
<g id="node13" class="node">
<title>Node12</title>
<polygon fill="#ffffff" stroke="#bfbfbf" points="858.6133,-60.5 858.6133,-78.5 897.3867,-78.5 897.3867,-60.5 858.6133,-60.5"/>
<text text-anchor="middle" x="878" y="-66.5" font-family="Helvetica,sans-Serif" font-size="10.00" fill="#000000">limits</text>
</g>
<!-- Node11&#45;&gt;Node12 -->
<g id="edge16" class="edge">
<title>Node11&#45;&gt;Node12</title>
<path fill="none" stroke="#191970" d="M1227.8235,-122.7192C1223.1676,-121.7272 1218.5014,-120.7997 1214,-120 1080.4768,-96.2796 1041.8397,-119.6662 911,-84 909.2982,-83.5361 907.571,-82.9985 905.8448,-82.4092"/>
<polygon fill="#191970" stroke="#191970" points="906.7382,-79.0006 896.1502,-78.6196 904.1896,-85.5202 906.7382,-79.0006"/>
</g>
<!-- Node13&#45;&gt;Node3 -->
<g id="edge19" class="edge">
<title>Node13&#45;&gt;Node3</title>
<path fill="none" stroke="#191970" d="M1259.6103,-185.339C1236.7493,-164.6261 1194.528,-127.6873 1176,-120 1041.3591,-64.1375 994.0059,-106.6075 850,-84 843.6381,-83.0012 836.9817,-81.8222 830.403,-80.5748"/>
<polygon fill="#191970" stroke="#191970" points="830.6685,-77.0605 820.1824,-78.5746 829.324,-83.9301 830.6685,-77.0605"/>
</g>
<!-- Node14 -->
<g id="node15" class="node">
<title>Node14</title>
<g id="a_node15"><a xlink:href="numerics_8hpp.html" target="_top" xlink:title="../../utils/numerics.hpp">
<polygon fill="#ffffff" stroke="#ff0000" points="2825.3696,-125.5 2825.3696,-143.5 2938.6304,-143.5 2938.6304,-125.5 2825.3696,-125.5"/>
<text text-anchor="middle" x="2882" y="-131.5" font-family="Helvetica,sans-Serif" font-size="10.00" fill="#000000">../../utils/numerics.hpp</text>
</a>
</g>
</g>
<!-- Node13&#45;&gt;Node14 -->
<g id="edge20" class="edge">
<title>Node13&#45;&gt;Node14</title>
<path fill="none" stroke="#191970" d="M1321.9595,-198.006C1577.5184,-189.8689 2790.056,-151.1785 2809,-149 2816.7621,-148.1074 2824.9303,-146.8274 2832.8795,-145.393"/>
<polygon fill="#191970" stroke="#191970" points="2833.6136,-148.8162 2842.7844,-143.5108 2832.3068,-141.9392 2833.6136,-148.8162"/>
</g>
<!-- Node14&#45;&gt;Node4 -->
<g id="edge22" class="edge">
<title>Node14&#45;&gt;Node4</title>
<path fill="none" stroke="#191970" d="M2893.3625,-125.3492C2911.9022,-109.3754 2944.6227,-76.0975 2924,-55 2888.1545,-18.3293 1214.5251,-10.5872 957.8747,-9.6149"/>
<polygon fill="#191970" stroke="#191970" points="957.7145,-6.1143 947.7015,-9.5771 957.6884,-13.1143 957.7145,-6.1143"/>
</g>
<!-- Node14&#45;&gt;Node9 -->
<g id="edge25" class="edge">
<title>Node14&#45;&gt;Node9</title>
<path fill="none" stroke="#191970" d="M2843.1779,-125.4361C2832.1905,-123.2403 2820.1787,-121.1858 2809,-120 2288.7467,-64.8114 974.9403,-142.0629 455,-84 442.7987,-82.6375 429.5668,-80.1169 417.9847,-77.5548"/>
<polygon fill="#191970" stroke="#191970" points="418.42,-74.0632 407.8887,-75.2223 416.8442,-80.8836 418.42,-74.0632"/>
</g>
<!-- Node15 -->
<g id="node16" class="node">
<title>Node15</title>
<polygon fill="#ffffff" stroke="#bfbfbf" points="2857.436,-60.5 2857.436,-78.5 2914.564,-78.5 2914.564,-60.5 2857.436,-60.5"/>
<text text-anchor="middle" x="2886" y="-66.5" font-family="Helvetica,sans-Serif" font-size="10.00" fill="#000000">algorithm</text>
</g>
<!-- Node14&#45;&gt;Node15 -->
<g id="edge21" class="edge">
<title>Node14&#45;&gt;Node15</title>
<path fill="none" stroke="#191970" d="M2882.5562,-125.462C2883.1347,-116.061 2884.0584,-101.0518 2884.8035,-88.943"/>
<polygon fill="#191970" stroke="#191970" points="2888.3017,-89.0783 2885.4226,-78.8821 2881.3149,-88.6482 2888.3017,-89.0783"/>
</g>
<!-- Node17 -->
<g id="node17" class="node">
<title>Node17</title>
<polygon fill="#ffffff" stroke="#bfbfbf" points="2971.4385,-60.5 2971.4385,-78.5 3018.5615,-78.5 3018.5615,-60.5 2971.4385,-60.5"/>
<text text-anchor="middle" x="2995" y="-66.5" font-family="Helvetica,sans-Serif" font-size="10.00" fill="#000000">iterator</text>
</g>
<!-- Node14&#45;&gt;Node17 -->
<g id="edge23" class="edge">
<title>Node14&#45;&gt;Node17</title>
<path fill="none" stroke="#191970" d="M2897.7122,-125.462C2916.4964,-114.6569 2948.1599,-96.4434 2970.2442,-83.74"/>
<polygon fill="#191970" stroke="#191970" points="2972.1339,-86.6908 2979.057,-78.6708 2968.6436,-80.6231 2972.1339,-86.6908"/>
</g>
<!-- Node19 -->
<g id="node18" class="node">
<title>Node19</title>
<polygon fill="#ffffff" stroke="#bfbfbf" points="2798.7734,-60.5 2798.7734,-78.5 2839.2266,-78.5 2839.2266,-60.5 2798.7734,-60.5"/>
<text text-anchor="middle" x="2819" y="-66.5" font-family="Helvetica,sans-Serif" font-size="10.00" fill="#000000">string</text>
</g>
<!-- Node14&#45;&gt;Node19 -->
<g id="edge24" class="edge">
<title>Node14&#45;&gt;Node19</title>
<path fill="none" stroke="#191970" d="M2873.2401,-125.462C2863.4775,-115.3895 2847.475,-98.879 2835.3759,-86.3957"/>
<polygon fill="#191970" stroke="#191970" points="2837.5665,-83.6269 2828.0935,-78.8821 2832.54,-88.4988 2837.5665,-83.6269"/>
</g>
<!-- Node20&#45;&gt;Node3 -->
<g id="edge27" class="edge">
<title>Node20&#45;&gt;Node3</title>
<path fill="none" stroke="#191970" d="M1697.3744,-132.6232C1533.09,-126.3803 1015.8888,-105.4881 850,-84 842.7948,-83.0667 835.2272,-81.8166 827.8275,-80.4401"/>
<polygon fill="#191970" stroke="#191970" points="828.3758,-76.9811 817.8907,-78.5026 827.0361,-83.8517 828.3758,-76.9811"/>
</g>
<!-- Node21 -->
<g id="node20" class="node">
<title>Node21</title>
<polygon fill="#ffffff" stroke="#bfbfbf" points="1368.6997,-60.5 1368.6997,-78.5 1465.3003,-78.5 1465.3003,-60.5 1368.6997,-60.5"/>
<text text-anchor="middle" x="1417" y="-66.5" font-family="Helvetica,sans-Serif" font-size="10.00" fill="#000000">cereal/access.hpp</text>
</g>
<!-- Node20&#45;&gt;Node21 -->
<g id="edge28" class="edge">
<title>Node20&#45;&gt;Node21</title>
<path fill="none" stroke="#191970" d="M1697.2965,-126.1993C1642.1456,-116.9276 1551.4899,-100.9772 1474,-84 1469.6752,-83.0525 1465.1802,-82.01 1460.6967,-80.9318"/>
<polygon fill="#191970" stroke="#191970" points="1461.5175,-77.5294 1450.9707,-78.5377 1459.8443,-84.3265 1461.5175,-77.5294"/>
</g>
<!-- Node22 -->
<g id="node21" class="node">
<title>Node22</title>
<polygon fill="#ffffff" stroke="#bfbfbf" points="1483.0815,-60.5 1483.0815,-78.5 1606.9185,-78.5 1606.9185,-60.5 1483.0815,-60.5"/>
<text text-anchor="middle" x="1545" y="-66.5" font-family="Helvetica,sans-Serif" font-size="10.00" fill="#000000">cereal/archives/json.hpp</text>
</g>
<!-- Node20&#45;&gt;Node22 -->
<g id="edge29" class="edge">
<title>Node20&#45;&gt;Node22</title>
<path fill="none" stroke="#191970" d="M1719.7737,-125.462C1684.1204,-114.0459 1622.6392,-94.3599 1582.9148,-81.6402"/>
<polygon fill="#191970" stroke="#191970" points="1583.9041,-78.282 1573.313,-78.5658 1581.7694,-84.9486 1583.9041,-78.282"/>
</g>
<!-- Node23 -->
<g id="node22" class="node">
<title>Node23</title>
<polygon fill="#ffffff" stroke="#bfbfbf" points="1624.9165,-55.5 1624.9165,-83.5 1747.0835,-83.5 1747.0835,-55.5 1624.9165,-55.5"/>
<text text-anchor="start" x="1632.9165" y="-71.5" font-family="Helvetica,sans-Serif" font-size="10.00" fill="#000000">cereal/archives/portable</text>
<text text-anchor="middle" x="1686" y="-61.5" font-family="Helvetica,sans-Serif" font-size="10.00" fill="#000000">_binary.hpp</text>
</g>
<!-- Node20&#45;&gt;Node23 -->
<g id="edge30" class="edge">
<title>Node20&#45;&gt;Node23</title>
<path fill="none" stroke="#191970" d="M1739.3792,-125.462C1730.9725,-116.6486 1717.8642,-102.906 1706.7417,-91.2453"/>
<polygon fill="#191970" stroke="#191970" points="1709.2235,-88.7762 1699.7887,-83.9559 1704.1582,-93.6077 1709.2235,-88.7762"/>
</g>
<!-- Node24 -->
<g id="node23" class="node">
<title>Node24</title>
<polygon fill="#ffffff" stroke="#bfbfbf" points="1764.6431,-60.5 1764.6431,-78.5 1857.3569,-78.5 1857.3569,-60.5 1764.6431,-60.5"/>
<text text-anchor="middle" x="1811" y="-66.5" font-family="Helvetica,sans-Serif" font-size="10.00" fill="#000000">cereal/cereal.hpp</text>
</g>
<!-- Node20&#45;&gt;Node24 -->
<g id="edge31" class="edge">
<title>Node20&#45;&gt;Node24</title>
<path fill="none" stroke="#191970" d="M1756.7599,-125.462C1766.5225,-115.3895 1782.525,-98.879 1794.6241,-86.3957"/>
<polygon fill="#191970" stroke="#191970" points="1797.46,-88.4988 1801.9065,-78.8821 1792.4335,-83.6269 1797.46,-88.4988"/>
</g>
<!-- Node25 -->
<g id="node24" class="node">
<title>Node25</title>
<polygon fill="#ffffff" stroke="#bfbfbf" points="1874.8984,-60.5 1874.8984,-78.5 1989.1016,-78.5 1989.1016,-60.5 1874.8984,-60.5"/>
<text text-anchor="middle" x="1932" y="-66.5" font-family="Helvetica,sans-Serif" font-size="10.00" fill="#000000">cereal/types/array.hpp</text>
</g>
<!-- Node20&#45;&gt;Node25 -->
<g id="edge32" class="edge">
<title>Node20&#45;&gt;Node25</title>
<path fill="none" stroke="#191970" d="M1773.5844,-125.462C1805.6269,-114.1427 1860.6846,-94.6929 1896.7143,-81.9651"/>
<polygon fill="#191970" stroke="#191970" points="1898.0738,-85.1968 1906.3369,-78.5658 1895.7422,-78.5966 1898.0738,-85.1968"/>
</g>
<!-- Node26 -->
<g id="node25" class="node">
<title>Node26</title>
<polygon fill="#ffffff" stroke="#bfbfbf" points="2006.9707,-60.5 2006.9707,-78.5 2123.0293,-78.5 2123.0293,-60.5 2006.9707,-60.5"/>
<text text-anchor="middle" x="2065" y="-66.5" font-family="Helvetica,sans-Serif" font-size="10.00" fill="#000000">cereal/types/bitset.hpp</text>
</g>
<!-- Node20&#45;&gt;Node26 -->
<g id="edge33" class="edge">
<title>Node20&#45;&gt;Node26</title>
<path fill="none" stroke="#191970" d="M1784.1032,-125.4667C1791.9637,-123.5862 1800.2476,-121.6701 1808,-120 1892.0193,-101.8997 1913.7696,-101.0912 1998,-84 2003.1174,-82.9616 2008.4487,-81.8533 2013.7702,-80.7294"/>
<polygon fill="#191970" stroke="#191970" points="2014.8824,-84.0711 2023.9331,-78.5634 2013.4232,-77.2248 2014.8824,-84.0711"/>
</g>
<!-- Node27 -->
<g id="node26" class="node">
<title>Node27</title>
<polygon fill="#ffffff" stroke="#bfbfbf" points="2141.1382,-55.5 2141.1382,-83.5 2248.8618,-83.5 2248.8618,-55.5 2141.1382,-55.5"/>
<text text-anchor="start" x="2149.1382" y="-71.5" font-family="Helvetica,sans-Serif" font-size="10.00" fill="#000000">cereal/types/boost</text>
<text text-anchor="middle" x="2195" y="-61.5" font-family="Helvetica,sans-Serif" font-size="10.00" fill="#000000">_dynamic_bitset.hpp</text>
</g>
<!-- Node20&#45;&gt;Node27 -->
<g id="edge34" class="edge">
<title>Node20&#45;&gt;Node27</title>
<path fill="none" stroke="#191970" d="M1782.1107,-125.4663C1790.5302,-123.4555 1799.5561,-121.4833 1808,-120 1947.496,-95.4957 1987.3839,-107.7085 2131.0558,-84.0212"/>
<polygon fill="#191970" stroke="#191970" points="2131.8436,-87.438 2141.1261,-82.3306 2130.6846,-80.5346 2131.8436,-87.438"/>
</g>
<!-- Node28 -->
<g id="node27" class="node">
<title>Node28</title>
<polygon fill="#ffffff" stroke="#bfbfbf" points="2267.0913,-55.5 2267.0913,-83.5 2360.9087,-83.5 2360.9087,-55.5 2267.0913,-55.5"/>
<text text-anchor="start" x="2275.0913" y="-71.5" font-family="Helvetica,sans-Serif" font-size="10.00" fill="#000000">cereal/types/eastl</text>
<text text-anchor="middle" x="2314" y="-61.5" font-family="Helvetica,sans-Serif" font-size="10.00" fill="#000000">_bitset.hpp</text>
</g>
<!-- Node20&#45;&gt;Node28 -->
<g id="edge35" class="edge">
<title>Node20&#45;&gt;Node28</title>
<path fill="none" stroke="#191970" d="M1781.4494,-125.432C1790.0481,-123.3729 1799.3226,-121.3868 1808,-120 2002.9323,-88.8468 2058.3608,-116.3547 2257.1883,-83.9233"/>
<polygon fill="#191970" stroke="#191970" points="2257.7824,-87.3727 2267.0736,-82.2812 2256.6352,-80.4673 2257.7824,-87.3727"/>
</g>
<!-- Node29 -->
<g id="node28" class="node">
<title>Node29</title>
<polygon fill="#ffffff" stroke="#bfbfbf" points="2378.6875,-60.5 2378.6875,-78.5 2495.3125,-78.5 2495.3125,-60.5 2378.6875,-60.5"/>
<text text-anchor="middle" x="2437" y="-66.5" font-family="Helvetica,sans-Serif" font-size="10.00" fill="#000000">cereal/types/eigen.hpp</text>
</g>
<!-- Node20&#45;&gt;Node29 -->
<g id="edge36" class="edge">
<title>Node20&#45;&gt;Node29</title>
<path fill="none" stroke="#191970" d="M1780.8066,-125.4873C1789.5806,-123.3753 1799.0999,-121.3501 1808,-120 2055.4588,-82.4623 2122.1088,-118.5669 2370,-84 2376.4203,-83.1047 2383.1417,-81.934 2389.7453,-80.6456"/>
<polygon fill="#191970" stroke="#191970" points="2390.874,-83.9869 2399.9654,-78.5467 2389.4657,-77.13 2390.874,-83.9869"/>
</g>
<!-- Node30 -->
<g id="node29" class="node">
<title>Node30</title>
<polygon fill="#ffffff" stroke="#bfbfbf" points="2513.1948,-60.5 2513.1948,-78.5 2624.8052,-78.5 2624.8052,-60.5 2513.1948,-60.5"/>
<text text-anchor="middle" x="2569" y="-66.5" font-family="Helvetica,sans-Serif" font-size="10.00" fill="#000000">cereal/types/map.hpp</text>
</g>
<!-- Node20&#45;&gt;Node30 -->
<g id="edge37" class="edge">
<title>Node20&#45;&gt;Node30</title>
<path fill="none" stroke="#191970" d="M1780.4825,-125.4886C1789.3428,-123.3497 1798.9858,-121.3108 1808,-120 2114.5232,-75.4281 2197.0957,-125.8671 2504,-84 2510.3151,-83.1385 2516.9244,-81.9757 2523.4085,-80.6813"/>
<polygon fill="#191970" stroke="#191970" points="2524.3736,-84.0547 2533.4342,-78.5632 2522.9267,-77.2059 2524.3736,-84.0547"/>
</g>
<!-- Node31 -->
<g id="node30" class="node">
<title>Node31</title>
<polygon fill="#ffffff" stroke="#bfbfbf" points="953.2334,-60.5 953.2334,-78.5 1080.7666,-78.5 1080.7666,-60.5 953.2334,-60.5"/>
<text text-anchor="middle" x="1017" y="-66.5" font-family="Helvetica,sans-Serif" font-size="10.00" fill="#000000">cereal/types/memory.hpp</text>
</g>
<!-- Node20&#45;&gt;Node31 -->
<g id="edge38" class="edge">
<title>Node20&#45;&gt;Node31</title>
<path fill="none" stroke="#191970" d="M1697.4261,-132.6797C1586.8255,-128.2478 1315.3151,-114.9107 1090,-84 1082.8713,-83.022 1075.3897,-81.7834 1068.0461,-80.4438"/>
<polygon fill="#191970" stroke="#191970" points="1068.6407,-76.9943 1058.1636,-78.5695 1067.3363,-83.8717 1068.6407,-76.9943"/>
</g>
<!-- Node32 -->
<g id="node31" class="node">
<title>Node32</title>
<polygon fill="#ffffff" stroke="#bfbfbf" points="1098.8984,-60.5 1098.8984,-78.5 1213.1016,-78.5 1213.1016,-60.5 1098.8984,-60.5"/>
<text text-anchor="middle" x="1156" y="-66.5" font-family="Helvetica,sans-Serif" font-size="10.00" fill="#000000">cereal/types/utility.hpp</text>
</g>
<!-- Node20&#45;&gt;Node32 -->
<g id="edge39" class="edge">
<title>Node20&#45;&gt;Node32</title>
<path fill="none" stroke="#191970" d="M1697.4405,-131.6147C1603.5411,-125.8182 1396.0347,-110.951 1223,-84 1216.8263,-83.0384 1210.3669,-81.8614 1203.9988,-80.5978"/>
<polygon fill="#191970" stroke="#191970" points="1204.6219,-77.1527 1194.1208,-78.5593 1203.207,-84.0082 1204.6219,-77.1527"/>
</g>
<!-- Node33 -->
<g id="node32" class="node">
<title>Node33</title>
<polygon fill="#ffffff" stroke="#bfbfbf" points="1231.5791,-60.5 1231.5791,-78.5 1350.4209,-78.5 1350.4209,-60.5 1231.5791,-60.5"/>
<text text-anchor="middle" x="1291" y="-66.5" font-family="Helvetica,sans-Serif" font-size="10.00" fill="#000000">cereal/types/vector.hpp</text>
</g>
<!-- Node20&#45;&gt;Node33 -->
<g id="edge40" class="edge">
<title>Node20&#45;&gt;Node33</title>
<path fill="none" stroke="#191970" d="M1697.2784,-129.1713C1622.9984,-121.0796 1480.3781,-104.4505 1360,-84 1353.9019,-82.964 1347.5229,-81.7721 1341.2113,-80.5261"/>
<polygon fill="#191970" stroke="#191970" points="1341.8947,-77.0935 1331.3988,-78.5383 1340.5048,-83.9542 1341.8947,-77.0935"/>
</g>
<!-- Node34 -->
<g id="node33" class="node">
<title>Node34</title>
<polygon fill="#ffffff" stroke="#bfbfbf" points="2642.9336,-60.5 2642.9336,-78.5 2705.0664,-78.5 2705.0664,-60.5 2642.9336,-60.5"/>
<text text-anchor="middle" x="2674" y="-66.5" font-family="Helvetica,sans-Serif" font-size="10.00" fill="#000000">type_traits</text>
</g>
<!-- Node20&#45;&gt;Node34 -->
<g id="edge41" class="edge">
<title>Node20&#45;&gt;Node34</title>
<path fill="none" stroke="#191970" d="M1780.4755,-125.4396C1789.3358,-123.3007 1798.9805,-121.2742 1808,-120 2171.847,-68.6005 2273.5518,-155.4398 2634,-84 2637.0183,-83.4018 2640.1134,-82.6143 2643.1804,-81.715"/>
<polygon fill="#191970" stroke="#191970" points="2644.3535,-85.0137 2652.7531,-78.5564 2642.16,-78.3662 2644.3535,-85.0137"/>
</g>
<!-- Node35&#45;&gt;Node20 -->
<g id="edge45" class="edge">
<title>Node35&#45;&gt;Node20</title>
<path fill="none" stroke="#191970" d="M1785.882,-190.462C1779.2585,-180.6773 1768.5224,-164.8172 1760.1679,-152.4753"/>
<polygon fill="#191970" stroke="#191970" points="1762.8551,-150.2013 1754.351,-143.8821 1757.0583,-154.1252 1762.8551,-150.2013"/>
</g>
<!-- Node35&#45;&gt;Node34 -->
<g id="edge43" class="edge">
<title>Node35&#45;&gt;Node34</title>
<path fill="none" stroke="#191970" d="M1824.7021,-190.4584C1832.6148,-188.4714 1841.0762,-186.5118 1849,-185 2021.7659,-152.0368 2463.0698,-125.4426 2634,-84 2636.6673,-83.3533 2639.403,-82.5889 2642.131,-81.7545"/>
<polygon fill="#191970" stroke="#191970" points="2643.4646,-84.9992 2651.8411,-78.512 2641.2474,-78.3596 2643.4646,-84.9992"/>
</g>
<!-- Node36 -->
<g id="node35" class="node">
<title>Node36</title>
<polygon fill="#ffffff" stroke="#bfbfbf" points="1816.6084,-125.5 1816.6084,-143.5 1855.3916,-143.5 1855.3916,-125.5 1816.6084,-125.5"/>
<text text-anchor="middle" x="1836" y="-131.5" font-family="Helvetica,sans-Serif" font-size="10.00" fill="#000000">utility</text>
</g>
<!-- Node35&#45;&gt;Node36 -->
<g id="edge44" class="edge">
<title>Node35&#45;&gt;Node36</title>
<path fill="none" stroke="#191970" d="M1798.118,-190.462C1804.7415,-180.6773 1815.4776,-164.8172 1823.8321,-152.4753"/>
<polygon fill="#191970" stroke="#191970" points="1826.9417,-154.1252 1829.649,-143.8821 1821.1449,-150.2013 1826.9417,-154.1252"/>
</g>
<!-- Node38&#45;&gt;Node3 -->
<g id="edge52" class="edge">
<title>Node38&#45;&gt;Node3</title>
<path fill="none" stroke="#191970" d="M156.2427,-131.8389C268.7294,-126.6013 508.474,-112.8641 709,-84 715.6853,-83.0377 722.6916,-81.8293 729.5805,-80.5228"/>
<polygon fill="#191970" stroke="#191970" points="730.406,-83.9275 739.5382,-78.5558 729.0495,-77.0601 730.406,-83.9275"/>
</g>
<!-- Node38&#45;&gt;Node5 -->
<g id="edge54" class="edge">
<title>Node38&#45;&gt;Node5</title>
<path fill="none" stroke="#191970" d="M85.4,-125.4852C74.5125,-109.4275 55.6356,-75.6265 73,-55 101.5516,-21.0847 234.3553,-12.4494 299.6129,-10.2508"/>
<polygon fill="#191970" stroke="#191970" points="299.9646,-13.7419 309.8539,-9.9403 299.7524,-6.7451 299.9646,-13.7419"/>
</g>
<!-- Node38&#45;&gt;Node9 -->
<g id="edge55" class="edge">
<title>Node38&#45;&gt;Node9</title>
<path fill="none" stroke="#191970" d="M132.8794,-125.462C192.0468,-112.3808 300.3277,-88.4412 354.0386,-76.5663"/>
<polygon fill="#191970" stroke="#191970" points="355.0138,-79.9353 364.0225,-74.359 353.5026,-73.1003 355.0138,-79.9353"/>
</g>
<!-- Node39 -->
<g id="node38" class="node">
<title>Node39</title>
<polygon fill="#ffffff" stroke="#bfbfbf" points="82.3696,-60.5 82.3696,-78.5 155.6304,-78.5 155.6304,-60.5 82.3696,-60.5"/>
<text text-anchor="middle" x="119" y="-66.5" font-family="Helvetica,sans-Serif" font-size="10.00" fill="#000000">Eigen/Dense</text>
</g>
<!-- Node38&#45;&gt;Node39 -->
<g id="edge53" class="edge">
<title>Node38&#45;&gt;Node39</title>
<path fill="none" stroke="#191970" d="M95.7542,-125.462C99.739,-115.8691 106.1493,-100.4368 111.2301,-88.2053"/>
<polygon fill="#191970" stroke="#191970" points="114.4989,-89.4598 115.1028,-78.8821 108.0344,-86.7745 114.4989,-89.4598"/>
</g>
<!-- Node40&#45;&gt;Node3 -->
<g id="edge57" class="edge">
<title>Node40&#45;&gt;Node3</title>
<path fill="none" stroke="#191970" d="M673.9636,-125.462C694.425,-114.5605 729.0409,-96.1176 752.9087,-83.4011"/>
<polygon fill="#191970" stroke="#191970" points="754.6074,-86.4619 761.7872,-78.6708 751.3159,-80.284 754.6074,-86.4619"/>
</g>
<!-- Node40&#45;&gt;Node4 -->
<g id="edge59" class="edge">
<title>Node40&#45;&gt;Node4</title>
<path fill="none" stroke="#191970" d="M653.2923,-125.3664C647.3681,-109.1204 638.0622,-75.031 655,-55 670.1865,-37.0402 823.2639,-19.6554 891.9504,-12.6907"/>
<polygon fill="#191970" stroke="#191970" points="892.6136,-16.1419 902.2155,-11.6639 891.9168,-9.1767 892.6136,-16.1419"/>
</g>
<!-- Node40&#45;&gt;Node9 -->
<g id="edge62" class="edge">
<title>Node40&#45;&gt;Node9</title>
<path fill="none" stroke="#191970" d="M619.3186,-125.462C565.5504,-112.5656 467.7807,-89.1153 417.5888,-77.0767"/>
<polygon fill="#191970" stroke="#191970" points="418.1741,-73.6178 407.6335,-74.6889 416.5414,-80.4248 418.1741,-73.6178"/>
</g>
<!-- Node41 -->
<g id="node40" class="node">
<title>Node41</title>
<polygon fill="#ffffff" stroke="#bfbfbf" points="568.0493,-60.5 568.0493,-78.5 607.9507,-78.5 607.9507,-60.5 568.0493,-60.5"/>
<text text-anchor="middle" x="588" y="-66.5" font-family="Helvetica,sans-Serif" font-size="10.00" fill="#000000">bitset</text>
</g>
<!-- Node40&#45;&gt;Node41 -->
<g id="edge58" class="edge">
<title>Node40&#45;&gt;Node41</title>
<path fill="none" stroke="#191970" d="M647.4058,-125.462C636.6116,-115.2936 618.8525,-98.5639 605.558,-86.0402"/>
<polygon fill="#191970" stroke="#191970" points="607.6384,-83.1915 597.9595,-78.8821 602.8385,-88.2867 607.6384,-83.1915"/>
</g>
<!-- Node42 -->
<g id="node41" class="node">
<title>Node42</title>
<polygon fill="#ffffff" stroke="#bfbfbf" points="664.2734,-60.5 664.2734,-78.5 699.7266,-78.5 699.7266,-60.5 664.2734,-60.5"/>
<text text-anchor="middle" x="682" y="-66.5" font-family="Helvetica,sans-Serif" font-size="10.00" fill="#000000">map</text>
</g>
<!-- Node40&#45;&gt;Node42 -->
<g id="edge60" class="edge">
<title>Node40&#45;&gt;Node42</title>
<path fill="none" stroke="#191970" d="M660.4761,-125.462C664.1288,-115.9651 669.9827,-100.7449 674.6641,-88.5732"/>
<polygon fill="#191970" stroke="#191970" points="678.0683,-89.4721 678.3915,-78.8821 671.5349,-86.9592 678.0683,-89.4721"/>
</g>
<!-- Node43 -->
<g id="node42" class="node">
<title>Node43</title>
<polygon fill="#ffffff" stroke="#bfbfbf" points="463.6973,-60.5 463.6973,-78.5 550.3027,-78.5 550.3027,-60.5 463.6973,-60.5"/>
<text text-anchor="middle" x="507" y="-66.5" font-family="Helvetica,sans-Serif" font-size="10.00" fill="#000000">unordered_map</text>
</g>
<!-- Node40&#45;&gt;Node43 -->
<g id="edge61" class="edge">
<title>Node40&#45;&gt;Node43</title>
<path fill="none" stroke="#191970" d="M636.1431,-125.462C610.5404,-114.3675 566.9132,-95.4624 537.5339,-82.7313"/>
<polygon fill="#191970" stroke="#191970" points="538.7305,-79.4354 528.1633,-78.6708 535.9472,-85.8583 538.7305,-79.4354"/>
</g>
<!-- Node44&#45;&gt;Node2 -->
<g id="edge65" class="edge">
<title>Node44&#45;&gt;Node2</title>
<path fill="none" stroke="#191970" d="M459.1981,-375.4524C539.8733,-364.4262 675.7336,-345.8576 759.2628,-334.4413"/>
<polygon fill="#191970" stroke="#191970" points="759.7488,-337.9075 769.1827,-333.0855 758.8008,-330.972 759.7488,-337.9075"/>
</g>
<!-- Node44&#45;&gt;Node3 -->
<g id="edge64" class="edge">
<title>Node44&#45;&gt;Node3</title>
<path fill="none" stroke="#191970" d="M392.6991,-375.4318C392.4125,-362.0946 392.4559,-336.4481 396,-315 406.8031,-249.6226 411.0095,-217.0626 469,-185 574.9467,-126.4227 640.3715,-219.2026 739,-149 759.203,-134.6197 769.7962,-107.0219 774.8881,-88.4325"/>
<polygon fill="#191970" stroke="#191970" points="778.293,-89.2428 777.2815,-78.6964 771.4954,-87.5717 778.293,-89.2428"/>
</g>
<!-- Node44&#45;&gt;Node5 -->
<g id="edge69" class="edge">
<title>Node44&#45;&gt;Node5</title>
<path fill="none" stroke="#191970" d="M366.53,-375.4115C310.291,-354.2306 184,-295.9309 184,-199.5 184,-199.5 184,-199.5 184,-134.5 184,-74.4994 255.5292,-37.9955 300.4505,-20.9866"/>
<polygon fill="#191970" stroke="#191970" points="301.6719,-24.2667 309.8703,-17.5558 299.2763,-17.6894 301.6719,-24.2667"/>
</g>
<!-- Node44&#45;&gt;Node7 -->
<g id="edge67" class="edge">
<title>Node44&#45;&gt;Node7</title>
<path fill="none" stroke="#191970" d="M398.7453,-375.2127C414.1239,-351.0892 458.6984,-285.8337 512,-250 539.4359,-231.5553 574.34,-219.0932 602.9126,-211.1638"/>
<polygon fill="#191970" stroke="#191970" points="603.9716,-214.5038 612.7324,-208.5458 602.1682,-207.7401 603.9716,-214.5038"/>
</g>
<!-- Node44&#45;&gt;Node9 -->
<g id="edge70" class="edge">
<title>Node44&#45;&gt;Node9</title>
<path fill="none" stroke="#191970" d="M370.5471,-375.4122C353.7945,-367.2921 332.1251,-353.6267 322,-334 291.639,-275.1477 305.4241,-249.1141 322,-185 331.7908,-147.1299 356.961,-108.4327 372.6603,-86.8338"/>
<polygon fill="#191970" stroke="#191970" points="375.5698,-88.7868 378.7363,-78.6763 369.9559,-84.6054 375.5698,-88.7868"/>
</g>
<!-- Node44&#45;&gt;Node37 -->
<g id="edge68" class="edge">
<title>Node44&#45;&gt;Node37</title>
<path fill="none" stroke="#191970" d="M393.6143,-375.2138C395.6245,-351.6452 403.8702,-288.6435 436,-250 450.3874,-232.6958 472.2863,-220.443 491.3286,-212.3439"/>
<polygon fill="#191970" stroke="#191970" points="492.7076,-215.5619 500.6855,-208.5903 490.1013,-209.0652 492.7076,-215.5619"/>
</g>
<!-- Node44&#45;&gt;Node45 -->
<g id="edge66" class="edge">
<title>Node44&#45;&gt;Node45</title>
<path fill="none" stroke="#191970" d="M356.8097,-375.4524C314.5984,-364.8996 244.7527,-347.4382 198.8007,-335.9502"/>
<polygon fill="#191970" stroke="#191970" points="199.6421,-332.5529 189.0917,-333.5229 197.9443,-339.3439 199.6421,-332.5529"/>
</g>
<!-- Node46&#45;&gt;Node2 -->
<g id="edge74" class="edge">
<title>Node46&#45;&gt;Node2</title>
<path fill="none" stroke="#191970" d="M1010.9536,-375.3873C974.1809,-364.9306 913.772,-347.7527 873.4489,-336.2864"/>
<polygon fill="#191970" stroke="#191970" points="874.2326,-332.8706 863.6566,-333.5019 872.3179,-339.6036 874.2326,-332.8706"/>
</g>
<!-- Node46&#45;&gt;Node3 -->
<g id="edge73" class="edge">
<title>Node46&#45;&gt;Node3</title>
<path fill="none" stroke="#191970" d="M1076.3289,-375.4513C1098.2867,-367.8361 1126.0189,-354.7853 1143,-334 1163.2599,-309.2014 1162,-296.5224 1162,-264.5 1162,-264.5 1162,-264.5 1162,-199.5 1162,-113.6678 1067.1513,-147.9577 986,-120 957.5562,-110.2007 881.691,-92.4669 830.148,-80.8374"/>
<polygon fill="#191970" stroke="#191970" points="830.7092,-77.3763 820.185,-78.597 829.1735,-84.2057 830.7092,-77.3763"/>
</g>
<!-- Node46&#45;&gt;Node5 -->
<g id="edge78" class="edge">
<title>Node46&#45;&gt;Node5</title>
<path fill="none" stroke="#191970" d="M1035.132,-375.1643C1014.7656,-351.4795 957.7933,-288.2275 899,-250 837.0597,-209.7264 816.4808,-207.1591 746,-185 671.9096,-161.706 647.905,-175.7744 575,-149 518.0633,-128.09 505.9292,-116.9427 455,-84 437.1613,-72.4614 434.7494,-66.6755 417,-55 399.4274,-43.4408 378.7392,-31.8514 362.6695,-23.2621"/>
<polygon fill="#191970" stroke="#191970" points="364.2767,-20.1527 353.8001,-18.5744 361.0057,-26.3415 364.2767,-20.1527"/>
</g>
<!-- Node46&#45;&gt;Node7 -->
<g id="edge75" class="edge">
<title>Node46&#45;&gt;Node7</title>
<path fill="none" stroke="#191970" d="M984.7794,-375.4464C866.4435,-356.4431 606.9544,-311.4735 583,-279 564.8114,-254.3429 599.6407,-228.75 627.1798,-213.4764"/>
<polygon fill="#191970" stroke="#191970" points="628.9642,-216.4917 636.1526,-208.7085 625.6795,-210.3102 628.9642,-216.4917"/>
</g>
<!-- Node46&#45;&gt;Node9 -->
<g id="edge81" class="edge">
<title>Node46&#45;&gt;Node9</title>
<path fill="none" stroke="#191970" d="M972.0839,-375.9495C873.4192,-363.8684 703.6708,-342.3452 676,-334 558.3848,-298.5285 506.0552,-308.031 427,-214 396.198,-177.363 388.4884,-118.9783 386.5917,-88.8662"/>
<polygon fill="#191970" stroke="#191970" points="390.0848,-88.6364 386.1133,-78.8141 383.0927,-88.9692 390.0848,-88.6364"/>
</g>
<!-- Node46&#45;&gt;Node13 -->
<g id="edge72" class="edge">
<title>Node46&#45;&gt;Node13</title>
<path fill="none" stroke="#191970" d="M1084.1195,-375.4264C1112.0649,-367.7746 1148.7591,-354.6906 1176,-334 1216.0363,-303.5907 1247.2563,-252.6694 1263.235,-222.9745"/>
<polygon fill="#191970" stroke="#191970" points="1266.5134,-224.2594 1268.0604,-213.7781 1260.3148,-221.007 1266.5134,-224.2594"/>
</g>
<!-- Node46&#45;&gt;Node17 -->
<g id="edge76" class="edge">
<title>Node46&#45;&gt;Node17</title>
<path fill="none" stroke="#191970" d="M1113.7315,-383.8966C1462.4552,-380.4675 2982,-360.044 2982,-264.5 2982,-264.5 2982,-264.5 2982,-199.5 2982,-159.9642 2988.0267,-113.9992 2991.8733,-88.6886"/>
<polygon fill="#191970" stroke="#191970" points="2995.3621,-89.0323 2993.4577,-78.6101 2988.4471,-87.9452 2995.3621,-89.0323"/>
</g>
<!-- Node46&#45;&gt;Node42 -->
<g id="edge77" class="edge">
<title>Node46&#45;&gt;Node42</title>
<path fill="none" stroke="#191970" d="M1097.7756,-375.4874C1122.0471,-368.4714 1148.3697,-356.0299 1163,-334 1184.0151,-302.3559 1146.0136,-270.63 1121,-250 968.3824,-124.1284 886.5229,-169.2373 708,-84 707.4607,-83.7425 706.9171,-83.4787 706.3707,-83.2097"/>
<polygon fill="#191970" stroke="#191970" points="707.9877,-80.1056 697.5052,-78.567 704.7403,-86.3068 707.9877,-80.1056"/>
</g>
<!-- Node47 -->
<g id="node46" class="node">
<title>Node47</title>
<polygon fill="#ffffff" stroke="#bfbfbf" points="1028.3301,-315.5 1028.3301,-333.5 1057.6699,-333.5 1057.6699,-315.5 1028.3301,-315.5"/>
<text text-anchor="middle" x="1043" y="-321.5" font-family="Helvetica,sans-Serif" font-size="10.00" fill="#000000">set</text>
</g>
<!-- Node46&#45;&gt;Node47 -->
<g id="edge79" class="edge">
<title>Node46&#45;&gt;Node47</title>
<path fill="none" stroke="#191970" d="M1043,-375.3873C1043,-367.0174 1043,-354.3414 1043,-343.735"/>
<polygon fill="#191970" stroke="#191970" points="1046.5001,-343.6984 1043,-333.6985 1039.5001,-343.6985 1046.5001,-343.6984"/>
</g>
<!-- Node48 -->
<g id="node47" class="node">
<title>Node48</title>
<polygon fill="#ffffff" stroke="#bfbfbf" points="1075.5986,-315.5 1075.5986,-333.5 1134.4014,-333.5 1134.4014,-315.5 1075.5986,-315.5"/>
<text text-anchor="middle" x="1105" y="-321.5" font-family="Helvetica,sans-Serif" font-size="10.00" fill="#000000">stdexcept</text>
</g>
<!-- Node46&#45;&gt;Node48 -->
<g id="edge80" class="edge">
<title>Node46&#45;&gt;Node48</title>
<path fill="none" stroke="#191970" d="M1052.4165,-375.3873C1061.8847,-366.2245 1076.6857,-351.9009 1088.1756,-340.7817"/>
<polygon fill="#191970" stroke="#191970" points="1090.7429,-343.1678 1095.4949,-333.6985 1085.8749,-338.1376 1090.7429,-343.1678"/>
</g>
<!-- Node49&#45;&gt;Node5 -->
<g id="edge85" class="edge">
<title>Node49&#45;&gt;Node5</title>
<path fill="none" stroke="#191970" d="M2736.6354,-125.239C2737.236,-108.1476 2735.722,-71.8577 2714,-55 2707.955,-50.3087 671.6628,-15.2502 372.5162,-10.1246"/>
<polygon fill="#191970" stroke="#191970" points="372.2872,-6.6203 362.2287,-9.9484 372.1673,-13.6192 372.2872,-6.6203"/>
</g>
<!-- Node49&#45;&gt;Node15 -->
<g id="edge83" class="edge">
<title>Node49&#45;&gt;Node15</title>
<path fill="none" stroke="#191970" d="M2756.8569,-125.462C2782.4596,-114.3675 2826.0868,-95.4624 2855.4661,-82.7313"/>
<polygon fill="#191970" stroke="#191970" points="2857.0528,-85.8583 2864.8367,-78.6708 2854.2695,-79.4354 2857.0528,-85.8583"/>
</g>
<!-- Node49&#45;&gt;Node17 -->
<g id="edge84" class="edge">
<title>Node49&#45;&gt;Node17</title>
<path fill="none" stroke="#191970" d="M2772.0128,-125.462C2822.2323,-112.8587 2912.615,-90.1758 2961.4699,-77.9149"/>
<polygon fill="#191970" stroke="#191970" points="2962.388,-81.2931 2971.2353,-75.4641 2960.684,-74.5036 2962.388,-81.2931"/>
</g>
<!-- Node49&#45;&gt;Node19 -->
<g id="edge86" class="edge">
<title>Node49&#45;&gt;Node19</title>
<path fill="none" stroke="#191970" d="M2747.5408,-125.462C2760.8453,-115.0428 2782.9462,-97.7349 2799.0524,-85.1216"/>
<polygon fill="#191970" stroke="#191970" points="2801.5746,-87.592 2807.2897,-78.6708 2797.2586,-82.0809 2801.5746,-87.592"/>
</g>
<!-- Node49&#45;&gt;Node34 -->
<g id="edge87" class="edge">
<title>Node49&#45;&gt;Node34</title>
<path fill="none" stroke="#191970" d="M2727.3792,-125.462C2717.7715,-115.3895 2702.023,-98.879 2690.1159,-86.3957"/>
<polygon fill="#191970" stroke="#191970" points="2692.3839,-83.7025 2682.9491,-78.8821 2687.3186,-88.534 2692.3839,-83.7025"/>
</g>
</g>
</svg>
