<?xml version="1.0" encoding="UTF-8" standalone="no"?>
<!DOCTYPE svg PUBLIC "-//W3C//DTD SVG 1.1//EN"
 "http://www.w3.org/Graphics/SVG/1.1/DTD/svg11.dtd">
<!-- Generated by graphviz version 2.40.1 (20161225.0304)
 -->
<!-- Title: include/indigox/algorithm/graph/cycles.hpp Pages: 1 -->
<svg width="514pt" height="147pt"
 viewBox="0.00 0.00 513.67 147.00" xmlns="http://www.w3.org/2000/svg" xmlns:xlink="http://www.w3.org/1999/xlink">
<g id="graph0" class="graph" transform="scale(1 1) rotate(0) translate(4 143)">
<title>include/indigox/algorithm/graph/cycles.hpp</title>
<polygon fill="#ffffff" stroke="transparent" points="-4,4 -4,-143 509.6724,-143 509.6724,4 -4,4"/>
<!-- Node0 -->
<g id="node1" class="node">
<title>Node0</title>
<g id="a_node1"><a xlink:title=" ">
<polygon fill="#bfbfbf" stroke="#000000" points="100.0249,-110.5 100.0249,-138.5 226.0884,-138.5 226.0884,-110.5 100.0249,-110.5"/>
<text text-anchor="start" x="108.0249" y="-126.5" font-family="Helvetica,sans-Serif" font-size="10.00" fill="#000000">include/indigox/algorithm</text>
<text text-anchor="middle" x="163.0566" y="-116.5" font-family="Helvetica,sans-Serif" font-size="10.00" fill="#000000">/graph/cycles.hpp</text>
</a>
</g>
</g>
<!-- Node1 -->
<g id="node2" class="node">
<title>Node1</title>
<g id="a_node2"><a xlink:href="fwd__declares_8hpp.html" target="_top" xlink:title=" ">
<polygon fill="#ffffff" stroke="#000000" points="27.249,-55.5 27.249,-73.5 158.8643,-73.5 158.8643,-55.5 27.249,-55.5"/>
<text text-anchor="middle" x="93.0566" y="-61.5" font-family="Helvetica,sans-Serif" font-size="10.00" fill="#000000">../../utils/fwd_declares.hpp</text>
</a>
</g>
</g>
<!-- Node0&#45;&gt;Node1 -->
<g id="edge1" class="edge">
<title>Node0&#45;&gt;Node1</title>
<path fill="none" stroke="#191970" d="M146.4676,-110.2808C135.9003,-101.2232 122.2029,-89.4825 111.325,-80.1586"/>
<polygon fill="#191970" stroke="#191970" points="113.5252,-77.4347 103.6549,-73.5842 108.9697,-82.7495 113.5252,-77.4347"/>
</g>
<!-- Node4 -->
<g id="node5" class="node">
<title>Node4</title>
<g id="a_node5"><a xlink:href="numerics_8hpp.html" target="_top" xlink:title=" ">
<polygon fill="#ffffff" stroke="#000000" points="206.4263,-55.5 206.4263,-73.5 319.687,-73.5 319.687,-55.5 206.4263,-55.5"/>
<text text-anchor="middle" x="263.0566" y="-61.5" font-family="Helvetica,sans-Serif" font-size="10.00" fill="#000000">../../utils/numerics.hpp</text>
</a>
</g>
</g>
<!-- Node0&#45;&gt;Node4 -->
<g id="edge4" class="edge">
<title>Node0&#45;&gt;Node4</title>
<path fill="none" stroke="#191970" d="M186.5022,-110.4327C202.3306,-100.9356 223.1607,-88.4376 239.0961,-78.8763"/>
<polygon fill="#191970" stroke="#191970" points="241.064,-81.7773 247.8382,-73.6311 237.4625,-75.7748 241.064,-81.7773"/>
</g>
<!-- Node2 -->
<g id="node3" class="node">
<title>Node2</title>
<g id="a_node3"><a xlink:title=" ">
<polygon fill="#ffffff" stroke="#bfbfbf" points="70.606,-.5 70.606,-18.5 115.5073,-18.5 115.5073,-.5 70.606,-.5"/>
<text text-anchor="middle" x="93.0566" y="-6.5" font-family="Helvetica,sans-Serif" font-size="10.00" fill="#000000">cstdint</text>
</a>
</g>
</g>
<!-- Node1&#45;&gt;Node2 -->
<g id="edge2" class="edge">
<title>Node1&#45;&gt;Node2</title>
<path fill="none" stroke="#191970" d="M93.0566,-55.4179C93.0566,-48.2164 93.0566,-37.8962 93.0566,-28.8632"/>
<polygon fill="#191970" stroke="#191970" points="96.5567,-28.7794 93.0566,-18.7795 89.5567,-28.7795 96.5567,-28.7794"/>
</g>
<!-- Node3 -->
<g id="node4" class="node">
<title>Node3</title>
<g id="a_node4"><a xlink:title=" ">
<polygon fill="#ffffff" stroke="#bfbfbf" points="0,-.5 0,-18.5 52.1133,-18.5 52.1133,-.5 0,-.5"/>
<text text-anchor="middle" x="26.0566" y="-6.5" font-family="Helvetica,sans-Serif" font-size="10.00" fill="#000000">memory</text>
</a>
</g>
</g>
<!-- Node1&#45;&gt;Node3 -->
<g id="edge3" class="edge">
<title>Node1&#45;&gt;Node3</title>
<path fill="none" stroke="#191970" d="M81.993,-55.4179C72.0634,-47.2667 57.2666,-35.1201 45.3855,-25.3669"/>
<polygon fill="#191970" stroke="#191970" points="47.3107,-22.4192 37.3607,-18.7795 42.8693,-27.8297 47.3107,-22.4192"/>
</g>
<!-- Node4&#45;&gt;Node2 -->
<g id="edge7" class="edge">
<title>Node4&#45;&gt;Node2</title>
<path fill="none" stroke="#191970" d="M234.9846,-55.4179C204.8604,-45.6718 157.0812,-30.2138 125.4017,-19.9646"/>
<polygon fill="#191970" stroke="#191970" points="126.3165,-16.582 115.7247,-16.8338 124.1617,-23.2421 126.3165,-16.582"/>
</g>
<!-- Node5 -->
<g id="node6" class="node">
<title>Node5</title>
<g id="a_node6"><a xlink:title=" ">
<polygon fill="#ffffff" stroke="#bfbfbf" points="133.4927,-.5 133.4927,-18.5 190.6206,-18.5 190.6206,-.5 133.4927,-.5"/>
<text text-anchor="middle" x="162.0566" y="-6.5" font-family="Helvetica,sans-Serif" font-size="10.00" fill="#000000">algorithm</text>
</a>
</g>
</g>
<!-- Node4&#45;&gt;Node5 -->
<g id="edge5" class="edge">
<title>Node4&#45;&gt;Node5</title>
<path fill="none" stroke="#191970" d="M246.3785,-55.4179C230.4427,-46.7399 206.1908,-33.5334 187.7798,-23.5077"/>
<polygon fill="#191970" stroke="#191970" points="189.2157,-20.3043 178.7595,-18.5956 185.8679,-26.4519 189.2157,-20.3043"/>
</g>
<!-- Node6 -->
<g id="node7" class="node">
<title>Node6</title>
<g id="a_node7"><a xlink:title=" ">
<polygon fill="#ffffff" stroke="#bfbfbf" points="208.4409,-.5 208.4409,-18.5 251.6724,-18.5 251.6724,-.5 208.4409,-.5"/>
<text text-anchor="middle" x="230.0566" y="-6.5" font-family="Helvetica,sans-Serif" font-size="10.00" fill="#000000">cmath</text>
</a>
</g>
</g>
<!-- Node4&#45;&gt;Node6 -->
<g id="edge6" class="edge">
<title>Node4&#45;&gt;Node6</title>
<path fill="none" stroke="#191970" d="M257.6074,-55.4179C253.049,-47.8207 246.4082,-36.7527 240.7886,-27.3866"/>
<polygon fill="#191970" stroke="#191970" points="243.7706,-25.5536 235.6243,-18.7795 237.7681,-29.1552 243.7706,-25.5536"/>
</g>
<!-- Node7 -->
<g id="node8" class="node">
<title>Node7</title>
<g id="a_node8"><a xlink:title=" ">
<polygon fill="#ffffff" stroke="#bfbfbf" points="269.4951,-.5 269.4951,-18.5 316.6182,-18.5 316.6182,-.5 269.4951,-.5"/>
<text text-anchor="middle" x="293.0566" y="-6.5" font-family="Helvetica,sans-Serif" font-size="10.00" fill="#000000">iterator</text>
</a>
</g>
</g>
<!-- Node4&#45;&gt;Node7 -->
<g id="edge8" class="edge">
<title>Node4&#45;&gt;Node7</title>
<path fill="none" stroke="#191970" d="M268.0105,-55.4179C272.1113,-47.8998 278.066,-36.9829 283.1404,-27.6799"/>
<polygon fill="#191970" stroke="#191970" points="286.2792,-29.2344 287.9951,-18.7795 280.1339,-25.8824 286.2792,-29.2344"/>
</g>
<!-- Node8 -->
<g id="node9" class="node">
<title>Node8</title>
<g id="a_node9"><a xlink:title=" ">
<polygon fill="#ffffff" stroke="#bfbfbf" points="334.2734,-.5 334.2734,-18.5 385.8398,-18.5 385.8398,-.5 334.2734,-.5"/>
<text text-anchor="middle" x="360.0566" y="-6.5" font-family="Helvetica,sans-Serif" font-size="10.00" fill="#000000">numeric</text>
</a>
</g>
</g>
<!-- Node4&#45;&gt;Node8 -->
<g id="edge9" class="edge">
<title>Node4&#45;&gt;Node8</title>
<path fill="none" stroke="#191970" d="M279.0742,-55.4179C294.2385,-46.8195 317.2437,-33.7754 334.8641,-23.7844"/>
<polygon fill="#191970" stroke="#191970" points="337.0427,-26.5727 344.0153,-18.5956 333.59,-20.4834 337.0427,-26.5727"/>
</g>
<!-- Node9 -->
<g id="node10" class="node">
<title>Node9</title>
<g id="a_node10"><a xlink:title=" ">
<polygon fill="#ffffff" stroke="#bfbfbf" points="403.8301,-.5 403.8301,-18.5 444.2832,-18.5 444.2832,-.5 403.8301,-.5"/>
<text text-anchor="middle" x="424.0566" y="-6.5" font-family="Helvetica,sans-Serif" font-size="10.00" fill="#000000">string</text>
</a>
</g>
</g>
<!-- Node4&#45;&gt;Node9 -->
<g id="edge10" class="edge">
<title>Node4&#45;&gt;Node9</title>
<path fill="none" stroke="#191970" d="M289.6425,-55.4179C318.3694,-45.6043 364.0488,-29.9996 394.0447,-19.7525"/>
<polygon fill="#191970" stroke="#191970" points="395.2373,-23.0438 403.5688,-16.4989 392.9743,-16.4197 395.2373,-23.0438"/>
</g>
<!-- Node10 -->
<g id="node11" class="node">
<title>Node10</title>
<g id="a_node11"><a xlink:title=" ">
<polygon fill="#ffffff" stroke="#bfbfbf" points="462.4409,-.5 462.4409,-18.5 505.6724,-18.5 505.6724,-.5 462.4409,-.5"/>
<text text-anchor="middle" x="484.0566" y="-6.5" font-family="Helvetica,sans-Serif" font-size="10.00" fill="#000000">vector</text>
</a>
</g>
</g>
<!-- Node4&#45;&gt;Node10 -->
<g id="edge11" class="edge">
<title>Node4&#45;&gt;Node10</title>
<path fill="none" stroke="#191970" d="M304.0134,-55.4679C340.5088,-47.2465 395.5739,-34.4196 452.5264,-19.0156"/>
<polygon fill="#191970" stroke="#191970" points="453.6991,-22.3237 462.4265,-16.3167 451.858,-15.5701 453.6991,-22.3237"/>
</g>
</g>
</svg>
