<?xml version="1.0" encoding="UTF-8" standalone="no"?>
<!DOCTYPE svg PUBLIC "-//W3C//DTD SVG 1.1//EN"
 "http://www.w3.org/Graphics/SVG/1.1/DTD/svg11.dtd">
<!-- Generated by graphviz version 2.40.1 (20161225.0304)
 -->
<!-- Title: include/indigox/algorithm/graph/cycles.hpp Pages: 1 -->
<!--zoomable 437 -->
<svg id="main" version="1.1" xmlns="http://www.w3.org/2000/svg" xmlns:xlink="http://www.w3.org/1999/xlink" xml:space="preserve" onload="init(evt)">
<style type="text/css"><![CDATA[
.edge:hover path { stroke: red; }
.edge:hover polygon { stroke: red; fill: red; }
]]></style>
<script type="text/javascript"><![CDATA[
var edges = document.getElementsByTagName('g');
if (edges && edges.length) {
  for (var i=0;i<edges.length;i++) {
    if (edges[i].id.substr(0,4)=='edge') {
      edges[i].setAttribute('class','edge');
    }
  }
}
]]></script>
        <defs>
                <circle id="rim" cx="0" cy="0" r="7"/>
                <circle id="rim2" cx="0" cy="0" r="3.5"/>
                <g id="zoomPlus">
                        <use xlink:href="#rim" fill="#404040">
                                <set attributeName="fill" to="#808080" begin="zoomplus.mouseover" end="zoomplus.mouseout"/>
                        </use>
                        <path d="M-4,0h8M0,-4v8" fill="none" stroke="white" stroke-width="1.5" pointer-events="none"/>
                </g>
                <g id="zoomMin">
                        <use xlink:href="#rim" fill="#404040">
                                <set attributeName="fill" to="#808080" begin="zoomminus.mouseover" end="zoomminus.mouseout"/>
                        </use>
                        <path d="M-4,0h8" fill="none" stroke="white" stroke-width="1.5" pointer-events="none"/>
                </g>
                <g id="dirArrow">
                        <path fill="none" stroke="white" stroke-width="1.5" d="M0,-3.0v7 M-2.5,-0.5L0,-3.0L2.5,-0.5"/>
                </g>
               <g id="resetDef">
                       <use xlink:href="#rim2" fill="#404040">
                               <set attributeName="fill" to="#808080" begin="reset.mouseover" end="reset.mouseout"/>
                       </use>
               </g>
        </defs>

<script type="text/javascript">
var viewWidth = 2096;
var viewHeight = 437;
var sectionId = 'dynsection-1';
</script>
<script xlink:href="svgpan.js"/>
<svg id="graph" class="graph">
<g id="viewport">
<title>include/indigox/algorithm/graph/cycles.hpp</title>
<polygon fill="#ffffff" stroke="transparent" points="-4,4 -4,-433 2092.427,-433 2092.427,4 -4,4"/>
<!-- Node11 -->
<g id="node1" class="node">
<title>Node11</title>
<polygon fill="#bfbfbf" stroke="#000000" points="1468.9014,-400.5 1468.9014,-428.5 1594.9648,-428.5 1594.9648,-400.5 1468.9014,-400.5"/>
<text text-anchor="start" x="1476.9014" y="-416.5" font-family="Helvetica,sans-Serif" font-size="10.00" fill="#000000">include/indigox/algorithm</text>
<text text-anchor="middle" x="1531.9331" y="-406.5" font-family="Helvetica,sans-Serif" font-size="10.00" fill="#000000">/graph/cycles.hpp</text>
</g>
<!-- Node12 -->
<g id="node2" class="node">
<title>Node12</title>
<g id="a_node2"><a xlink:href="base__graph__impl_8hpp.html" target="_top" xlink:title="include/indigox/graph\l/base_graph_impl.hpp">
<polygon fill="#ffffff" stroke="#000000" points="1474.4531,-335.5 1474.4531,-363.5 1589.4131,-363.5 1589.4131,-335.5 1474.4531,-335.5"/>
<text text-anchor="start" x="1482.4531" y="-351.5" font-family="Helvetica,sans-Serif" font-size="10.00" fill="#000000">include/indigox/graph</text>
<text text-anchor="middle" x="1531.9331" y="-341.5" font-family="Helvetica,sans-Serif" font-size="10.00" fill="#000000">/base_graph_impl.hpp</text>
</a>
</g>
</g>
<!-- Node11&#45;&gt;Node12 -->
<g id="edge1" class="edge">
<title>Node11&#45;&gt;Node12</title>
<path fill="none" stroke="#191970" d="M1531.9331,-390.1081C1531.9331,-381.1539 1531.9331,-371.3227 1531.9331,-363.5765"/>
<polygon fill="#191970" stroke="#191970" points="1528.4332,-390.3959 1531.9331,-400.396 1535.4332,-390.396 1528.4332,-390.3959"/>
</g>
<!-- Node35 -->
<g id="node25" class="node">
<title>Node35</title>
<g id="a_node25"><a xlink:href="cycles_8cpp.html" target="_top" xlink:title="src/algorithm/graph\l/cycles.cpp">
<polygon fill="#ffffff" stroke="#000000" points="1971.1377,-140.5 1971.1377,-168.5 2072.7285,-168.5 2072.7285,-140.5 1971.1377,-140.5"/>
<text text-anchor="start" x="1979.1377" y="-156.5" font-family="Helvetica,sans-Serif" font-size="10.00" fill="#000000">src/algorithm/graph</text>
<text text-anchor="middle" x="2021.9331" y="-146.5" font-family="Helvetica,sans-Serif" font-size="10.00" fill="#000000">/cycles.cpp</text>
</a>
</g>
</g>
<!-- Node11&#45;&gt;Node35 -->
<g id="edge58" class="edge">
<title>Node11&#45;&gt;Node35</title>
<path fill="none" stroke="#191970" d="M1567.7247,-395.5085C1661.5878,-345.7036 1913.253,-212.167 1995.5153,-168.5176"/>
<polygon fill="#191970" stroke="#191970" points="1565.8186,-392.5577 1558.6256,-400.3366 1569.0996,-398.7411 1565.8186,-392.5577"/>
</g>
<!-- Node39 -->
<g id="node29" class="node">
<title>Node39</title>
<g id="a_node29"><a xlink:href="molecular_8hpp.html" target="_top" xlink:title="include/indigox/graph\l/molecular.hpp">
<polygon fill="#ffffff" stroke="#000000" points="1117.6772,-205.5 1117.6772,-233.5 1228.189,-233.5 1228.189,-205.5 1117.6772,-205.5"/>
<text text-anchor="start" x="1125.6772" y="-221.5" font-family="Helvetica,sans-Serif" font-size="10.00" fill="#000000">include/indigox/graph</text>
<text text-anchor="middle" x="1172.9331" y="-211.5" font-family="Helvetica,sans-Serif" font-size="10.00" fill="#000000">/molecular.hpp</text>
</a>
</g>
</g>
<!-- Node11&#45;&gt;Node39 -->
<g id="edge57" class="edge">
<title>Node11&#45;&gt;Node39</title>
<path fill="none" stroke="#191970" d="M1497.0125,-395.532C1425.225,-356.5388 1262.4978,-268.1493 1198.9999,-233.6589"/>
<polygon fill="#191970" stroke="#191970" points="1495.6567,-398.7785 1506.1147,-400.4761 1498.9979,-392.6274 1495.6567,-398.7785"/>
</g>
<!-- Node13 -->
<g id="node3" class="node">
<title>Node13</title>
<g id="a_node3"><a xlink:href="base__graph_8hpp.html" target="_top" xlink:title="include/indigox/graph\l/base_graph.hpp">
<polygon fill="#ffffff" stroke="#000000" points="1476.6772,-270.5 1476.6772,-298.5 1587.189,-298.5 1587.189,-270.5 1476.6772,-270.5"/>
<text text-anchor="start" x="1484.6772" y="-286.5" font-family="Helvetica,sans-Serif" font-size="10.00" fill="#000000">include/indigox/graph</text>
<text text-anchor="middle" x="1531.9331" y="-276.5" font-family="Helvetica,sans-Serif" font-size="10.00" fill="#000000">/base_graph.hpp</text>
</a>
</g>
</g>
<!-- Node12&#45;&gt;Node13 -->
<g id="edge2" class="edge">
<title>Node12&#45;&gt;Node13</title>
<path fill="none" stroke="#191970" d="M1531.9331,-325.1081C1531.9331,-316.1539 1531.9331,-306.3227 1531.9331,-298.5765"/>
<polygon fill="#191970" stroke="#191970" points="1528.4332,-325.3959 1531.9331,-335.396 1535.4332,-325.396 1528.4332,-325.3959"/>
</g>
<!-- Node14 -->
<g id="node4" class="node">
<title>Node14</title>
<g id="a_node4"><a xlink:href="access_8hpp.html" target="_top" xlink:title="include/indigox/algorithm\l/access.hpp">
<polygon fill="#ffffff" stroke="#000000" points="1718.9014,-205.5 1718.9014,-233.5 1844.9648,-233.5 1844.9648,-205.5 1718.9014,-205.5"/>
<text text-anchor="start" x="1726.9014" y="-221.5" font-family="Helvetica,sans-Serif" font-size="10.00" fill="#000000">include/indigox/algorithm</text>
<text text-anchor="middle" x="1781.9331" y="-211.5" font-family="Helvetica,sans-Serif" font-size="10.00" fill="#000000">/access.hpp</text>
</a>
</g>
</g>
<!-- Node13&#45;&gt;Node14 -->
<g id="edge3" class="edge">
<title>Node13&#45;&gt;Node14</title>
<path fill="none" stroke="#191970" d="M1595.7134,-267.9171C1636.5106,-257.3099 1688.8609,-243.6988 1727.6604,-233.6109"/>
<polygon fill="#191970" stroke="#191970" points="1594.6691,-264.5722 1585.8716,-270.476 1596.4306,-271.347 1594.6691,-264.5722"/>
</g>
<!-- Node17 -->
<g id="node7" class="node">
<title>Node17</title>
<g id="a_node7"><a xlink:href="assignment_8hpp.html" target="_top" xlink:title="include/indigox/graph\l/assignment.hpp">
<polygon fill="#ffffff" stroke="#000000" points="329.6772,-205.5 329.6772,-233.5 440.189,-233.5 440.189,-205.5 329.6772,-205.5"/>
<text text-anchor="start" x="337.6772" y="-221.5" font-family="Helvetica,sans-Serif" font-size="10.00" fill="#000000">include/indigox/graph</text>
<text text-anchor="middle" x="384.9331" y="-211.5" font-family="Helvetica,sans-Serif" font-size="10.00" fill="#000000">/assignment.hpp</text>
</a>
</g>
</g>
<!-- Node13&#45;&gt;Node17 -->
<g id="edge6" class="edge">
<title>Node13&#45;&gt;Node17</title>
<path fill="none" stroke="#191970" d="M1466.578,-280.7964C1261.2284,-269.1593 631.3152,-233.4624 440.3703,-222.6416"/>
<polygon fill="#191970" stroke="#191970" points="1466.4289,-284.2934 1476.6109,-281.3649 1466.825,-277.3046 1466.4289,-284.2934"/>
</g>
<!-- Node25 -->
<g id="node15" class="node">
<title>Node25</title>
<g id="a_node15"><a xlink:href="condensed_8hpp.html" target="_top" xlink:title="include/indigox/graph\l/condensed.hpp">
<polygon fill="#ffffff" stroke="#000000" points="1568.6772,-205.5 1568.6772,-233.5 1679.189,-233.5 1679.189,-205.5 1568.6772,-205.5"/>
<text text-anchor="start" x="1576.6772" y="-221.5" font-family="Helvetica,sans-Serif" font-size="10.00" fill="#000000">include/indigox/graph</text>
<text text-anchor="middle" x="1623.9331" y="-211.5" font-family="Helvetica,sans-Serif" font-size="10.00" fill="#000000">/condensed.hpp</text>
</a>
</g>
</g>
<!-- Node13&#45;&gt;Node25 -->
<g id="edge23" class="edge">
<title>Node13&#45;&gt;Node25</title>
<path fill="none" stroke="#191970" d="M1560.3099,-264.4511C1574.463,-254.4517 1591.2384,-242.5995 1604.0094,-233.5765"/>
<polygon fill="#191970" stroke="#191970" points="1558.0433,-261.7671 1551.8957,-270.396 1562.0826,-267.4841 1558.0433,-261.7671"/>
</g>
<!-- Node13&#45;&gt;Node39 -->
<g id="edge41" class="edge">
<title>Node13&#45;&gt;Node39</title>
<path fill="none" stroke="#191970" d="M1466.4262,-272.6394C1398.2016,-260.2868 1292.4987,-241.1484 1228.3029,-229.5252"/>
<polygon fill="#191970" stroke="#191970" points="1466.1625,-276.1485 1476.6261,-274.4862 1467.4097,-269.2605 1466.1625,-276.1485"/>
</g>
<!-- Node15 -->
<g id="node5" class="node">
<title>Node15</title>
<g id="a_node5"><a xlink:href="connectivity_8cpp.html" target="_top" xlink:title="src/algorithm/graph\l/connectivity.cpp">
<polygon fill="#ffffff" stroke="#000000" points="1851.1377,-140.5 1851.1377,-168.5 1952.7285,-168.5 1952.7285,-140.5 1851.1377,-140.5"/>
<text text-anchor="start" x="1859.1377" y="-156.5" font-family="Helvetica,sans-Serif" font-size="10.00" fill="#000000">src/algorithm/graph</text>
<text text-anchor="middle" x="1901.9331" y="-146.5" font-family="Helvetica,sans-Serif" font-size="10.00" fill="#000000">/connectivity.cpp</text>
</a>
</g>
</g>
<!-- Node14&#45;&gt;Node15 -->
<g id="edge4" class="edge">
<title>Node14&#45;&gt;Node15</title>
<path fill="none" stroke="#191970" d="M1816.8716,-200.575C1835.7481,-190.3502 1858.6592,-177.94 1875.9457,-168.5765"/>
<polygon fill="#191970" stroke="#191970" points="1815.0972,-197.5556 1807.9713,-205.396 1818.4313,-203.7106 1815.0972,-197.5556"/>
</g>
<!-- Node16 -->
<g id="node6" class="node">
<title>Node16</title>
<g id="a_node6"><a xlink:href="isomorphism_8cpp.html" target="_top" xlink:title="src/algorithm/graph\l/isomorphism.cpp">
<polygon fill="#ffffff" stroke="#000000" points="1731.1377,-140.5 1731.1377,-168.5 1832.7285,-168.5 1832.7285,-140.5 1731.1377,-140.5"/>
<text text-anchor="start" x="1739.1377" y="-156.5" font-family="Helvetica,sans-Serif" font-size="10.00" fill="#000000">src/algorithm/graph</text>
<text text-anchor="middle" x="1781.9331" y="-146.5" font-family="Helvetica,sans-Serif" font-size="10.00" fill="#000000">/isomorphism.cpp</text>
</a>
</g>
</g>
<!-- Node14&#45;&gt;Node16 -->
<g id="edge5" class="edge">
<title>Node14&#45;&gt;Node16</title>
<path fill="none" stroke="#191970" d="M1781.9331,-195.1081C1781.9331,-186.1539 1781.9331,-176.3227 1781.9331,-168.5765"/>
<polygon fill="#191970" stroke="#191970" points="1778.4332,-195.3959 1781.9331,-205.396 1785.4332,-195.396 1778.4332,-195.3959"/>
</g>
<!-- Node18 -->
<g id="node8" class="node">
<title>Node18</title>
<g id="a_node8"><a xlink:href="assigner_8hpp.html" target="_top" xlink:title="include/indigox/algorithm\l/electron_assignment/assigner.hpp">
<polygon fill="#ffffff" stroke="#000000" points="242.6602,-140.5 242.6602,-168.5 413.2061,-168.5 413.2061,-140.5 242.6602,-140.5"/>
<text text-anchor="start" x="250.6602" y="-156.5" font-family="Helvetica,sans-Serif" font-size="10.00" fill="#000000">include/indigox/algorithm</text>
<text text-anchor="middle" x="327.9331" y="-146.5" font-family="Helvetica,sans-Serif" font-size="10.00" fill="#000000">/electron_assignment/assigner.hpp</text>
</a>
</g>
</g>
<!-- Node17&#45;&gt;Node18 -->
<g id="edge7" class="edge">
<title>Node17&#45;&gt;Node18</title>
<path fill="none" stroke="#191970" d="M365.8479,-197.7362C357.4144,-188.119 347.7417,-177.0888 340.2771,-168.5765"/>
<polygon fill="#191970" stroke="#191970" points="363.3402,-200.185 372.565,-205.396 368.6032,-195.5697 363.3402,-200.185"/>
</g>
<!-- Node19 -->
<g id="node9" class="node">
<title>Node19</title>
<g id="a_node9"><a xlink:href="astar__optimisation_8hpp.html" target="_top" xlink:title="include/indigox/algorithm\l/electron_assignment/astar\l_optimisation.hpp">
<polygon fill="#ffffff" stroke="#000000" points="351.9014,-65.5 351.9014,-103.5 487.9648,-103.5 487.9648,-65.5 351.9014,-65.5"/>
<text text-anchor="start" x="359.9014" y="-91.5" font-family="Helvetica,sans-Serif" font-size="10.00" fill="#000000">include/indigox/algorithm</text>
<text text-anchor="start" x="359.9014" y="-81.5" font-family="Helvetica,sans-Serif" font-size="10.00" fill="#000000">/electron_assignment/astar</text>
<text text-anchor="middle" x="419.9331" y="-71.5" font-family="Helvetica,sans-Serif" font-size="10.00" fill="#000000">_optimisation.hpp</text>
</a>
</g>
</g>
<!-- Node17&#45;&gt;Node19 -->
<g id="edge17" class="edge">
<title>Node17&#45;&gt;Node19</title>
<path fill="none" stroke="#191970" d="M405.5441,-197.7293C412.1049,-189.3951 418.5369,-179.3817 421.9331,-169 428.9594,-147.5217 426.8084,-121.3058 423.9789,-103.8248"/>
<polygon fill="#191970" stroke="#191970" points="402.8047,-195.5488 399.048,-205.4553 408.1625,-200.0537 402.8047,-195.5488"/>
</g>
<!-- Node20 -->
<g id="node10" class="node">
<title>Node20</title>
<g id="a_node10"><a xlink:href="assigner_8cpp.html" target="_top" xlink:title="src/algorithm/electron\l_assignment/assigner.cpp">
<polygon fill="#ffffff" stroke="#000000" points="258.1182,-.5 258.1182,-28.5 389.748,-28.5 389.748,-.5 258.1182,-.5"/>
<text text-anchor="start" x="266.1182" y="-16.5" font-family="Helvetica,sans-Serif" font-size="10.00" fill="#000000">src/algorithm/electron</text>
<text text-anchor="middle" x="323.9331" y="-6.5" font-family="Helvetica,sans-Serif" font-size="10.00" fill="#000000">_assignment/assigner.cpp</text>
</a>
</g>
</g>
<!-- Node17&#45;&gt;Node20 -->
<g id="edge19" class="edge">
<title>Node17&#45;&gt;Node20</title>
<path fill="none" stroke="#191970" d="M319.4165,-205.587C283.6315,-196.516 244.4891,-183.661 233.9331,-169 226.402,-158.5402 229.9882,-152.2703 233.9331,-140 235.9949,-133.5869 290.3014,-59.8773 313.541,-28.5013"/>
<polygon fill="#191970" stroke="#191970" points="318.8473,-209.0513 329.3941,-208.0435 320.5208,-202.2543 318.8473,-209.0513"/>
</g>
<!-- Node21 -->
<g id="node11" class="node">
<title>Node21</title>
<g id="a_node11"><a xlink:href="astar__optimisation_8cpp.html" target="_top" xlink:title="src/algorithm/electron\l_assignment/astar_optimisation.cpp">
<polygon fill="#ffffff" stroke="#000000" points="554.1675,-.5 554.1675,-28.5 729.6987,-28.5 729.6987,-.5 554.1675,-.5"/>
<text text-anchor="start" x="562.1675" y="-16.5" font-family="Helvetica,sans-Serif" font-size="10.00" fill="#000000">src/algorithm/electron</text>
<text text-anchor="middle" x="641.9331" y="-6.5" font-family="Helvetica,sans-Serif" font-size="10.00" fill="#000000">_assignment/astar_optimisation.cpp</text>
</a>
</g>
</g>
<!-- Node17&#45;&gt;Node21 -->
<g id="edge20" class="edge">
<title>Node17&#45;&gt;Node21</title>
<path fill="none" stroke="#191970" d="M450.7158,-216.4407C584.0268,-209.8292 881.7977,-192.8559 980.9331,-169 1014.0734,-161.0251 1019.1241,-149.2437 1051.9331,-140 1099.8269,-126.5063 1240.7009,-141.9076 1272.9331,-104 1284.1612,-90.7949 1284.6906,-77.736 1272.9331,-65 1254.7858,-45.3423 899.0715,-26.3677 729.8955,-18.4133"/>
<polygon fill="#191970" stroke="#191970" points="450.454,-212.9493 440.638,-216.9363 450.7979,-219.9408 450.454,-212.9493"/>
</g>
<!-- Node22 -->
<g id="node12" class="node">
<title>Node22</title>
<g id="a_node12"><a xlink:href="local__optimisation_8hpp.html" target="_top" xlink:title="include/indigox/algorithm\l/electron_assignment/local\l_optimisation.hpp">
<polygon fill="#ffffff" stroke="#000000" points="114.7339,-65.5 114.7339,-103.5 249.1323,-103.5 249.1323,-65.5 114.7339,-65.5"/>
<text text-anchor="start" x="122.7339" y="-91.5" font-family="Helvetica,sans-Serif" font-size="10.00" fill="#000000">include/indigox/algorithm</text>
<text text-anchor="start" x="122.7339" y="-81.5" font-family="Helvetica,sans-Serif" font-size="10.00" fill="#000000">/electron_assignment/local</text>
<text text-anchor="middle" x="181.9331" y="-71.5" font-family="Helvetica,sans-Serif" font-size="10.00" fill="#000000">_optimisation.hpp</text>
</a>
</g>
</g>
<!-- Node17&#45;&gt;Node22 -->
<g id="edge18" class="edge">
<title>Node17&#45;&gt;Node22</title>
<path fill="none" stroke="#191970" d="M319.4898,-208.856C273.5122,-200.0639 217.3927,-186.2466 200.9331,-169 184.2192,-151.487 181.0133,-122.5804 180.9356,-103.538"/>
<polygon fill="#191970" stroke="#191970" points="318.9549,-212.3165 329.4271,-210.7095 320.2385,-205.4352 318.9549,-212.3165"/>
</g>
<!-- Node23 -->
<g id="node13" class="node">
<title>Node23</title>
<g id="a_node13"><a xlink:href="local__optimisation_8cpp.html" target="_top" xlink:title="src/algorithm/electron\l_assignment/local_optimisation.cpp">
<polygon fill="#ffffff" stroke="#000000" points="0,-.5 0,-28.5 173.8662,-28.5 173.8662,-.5 0,-.5"/>
<text text-anchor="start" x="8" y="-16.5" font-family="Helvetica,sans-Serif" font-size="10.00" fill="#000000">src/algorithm/electron</text>
<text text-anchor="middle" x="86.9331" y="-6.5" font-family="Helvetica,sans-Serif" font-size="10.00" fill="#000000">_assignment/local_optimisation.cpp</text>
</a>
</g>
</g>
<!-- Node17&#45;&gt;Node23 -->
<g id="edge21" class="edge">
<title>Node17&#45;&gt;Node23</title>
<path fill="none" stroke="#191970" d="M319.3057,-209.154C278.5942,-201.296 225.8579,-188.463 181.9331,-169 134.4868,-147.9767 109.366,-149.7839 84.9331,-104 72.1277,-80.0044 77.7643,-46.9919 82.6132,-28.5035"/>
<polygon fill="#191970" stroke="#191970" points="318.9102,-212.6408 329.3843,-211.0456 320.2016,-205.7609 318.9102,-212.6408"/>
</g>
<!-- Node24 -->
<g id="node14" class="node">
<title>Node24</title>
<g id="a_node14"><a xlink:href="assignment_8cpp.html" target="_top" xlink:title="src/graph/assignment.cpp">
<polygon fill="#ffffff" stroke="#000000" points="468.6821,-145.5 468.6821,-163.5 599.1841,-163.5 599.1841,-145.5 468.6821,-145.5"/>
<text text-anchor="middle" x="533.9331" y="-151.5" font-family="Helvetica,sans-Serif" font-size="10.00" fill="#000000">src/graph/assignment.cpp</text>
</a>
</g>
</g>
<!-- Node17&#45;&gt;Node24 -->
<g id="edge22" class="edge">
<title>Node17&#45;&gt;Node24</title>
<path fill="none" stroke="#191970" d="M426.4953,-201.3688C454.6998,-189.0649 490.7901,-173.3208 513.132,-163.5743"/>
<polygon fill="#191970" stroke="#191970" points="425.0302,-198.1894 417.2639,-205.396 427.8292,-204.6054 425.0302,-198.1894"/>
</g>
<!-- Node18&#45;&gt;Node19 -->
<g id="edge8" class="edge">
<title>Node18&#45;&gt;Node19</title>
<path fill="none" stroke="#191970" d="M354.838,-134.0289C367.4306,-124.4475 382.3444,-113.1001 394.7177,-103.6857"/>
<polygon fill="#191970" stroke="#191970" points="352.3896,-131.4938 346.5507,-140.3345 356.6283,-137.0646 352.3896,-131.4938"/>
</g>
<!-- Node18&#45;&gt;Node20 -->
<g id="edge14" class="edge">
<title>Node18&#45;&gt;Node20</title>
<path fill="none" stroke="#191970" d="M327.2354,-130.0816C326.3976,-100.7574 325.0203,-52.551 324.3397,-28.732"/>
<polygon fill="#191970" stroke="#191970" points="323.7433,-130.4097 327.5276,-140.3056 330.7404,-130.2097 323.7433,-130.4097"/>
</g>
<!-- Node18&#45;&gt;Node21 -->
<g id="edge15" class="edge">
<title>Node18&#45;&gt;Node21</title>
<path fill="none" stroke="#191970" d="M398.5815,-137.8405C429.4522,-129.4361 465.6712,-118.024 496.9331,-104 544.7079,-82.5684 595.7353,-47.9879 622.6792,-28.6861"/>
<polygon fill="#191970" stroke="#191970" points="397.5181,-134.5017 388.7595,-140.463 399.3239,-141.2648 397.5181,-134.5017"/>
</g>
<!-- Node18&#45;&gt;Node22 -->
<g id="edge11" class="edge">
<title>Node18&#45;&gt;Node22</title>
<path fill="none" stroke="#191970" d="M289.1828,-135.9211C268.3362,-125.9261 242.671,-113.6209 221.6745,-103.5541"/>
<polygon fill="#191970" stroke="#191970" points="287.8575,-139.1671 298.3878,-140.3345 290.8838,-132.8551 287.8575,-139.1671"/>
</g>
<!-- Node18&#45;&gt;Node23 -->
<g id="edge16" class="edge">
<title>Node18&#45;&gt;Node23</title>
<path fill="none" stroke="#191970" d="M232.4974,-143.1173C180.8286,-135.0112 123.9514,-122.2812 105.9331,-104 86.0855,-83.8627 84.6527,-48.4592 85.6222,-28.7547"/>
<polygon fill="#191970" stroke="#191970" points="231.9977,-146.5815 242.4107,-144.6272 233.0518,-139.6613 231.9977,-146.5815"/>
</g>
<!-- Node19&#45;&gt;Node20 -->
<g id="edge9" class="edge">
<title>Node19&#45;&gt;Node20</title>
<path fill="none" stroke="#191970" d="M385.6023,-59.4671C371.4368,-49.1381 355.5386,-37.5457 343.4324,-28.7183"/>
<polygon fill="#191970" stroke="#191970" points="383.5585,-62.3085 393.7007,-65.3722 387.6827,-56.6524 383.5585,-62.3085"/>
</g>
<!-- Node19&#45;&gt;Node21 -->
<g id="edge10" class="edge">
<title>Node19&#45;&gt;Node21</title>
<path fill="none" stroke="#191970" d="M490.0329,-62.3965C525.1805,-51.3139 566.6888,-38.2257 597.4251,-28.534"/>
<polygon fill="#191970" stroke="#191970" points="488.7869,-59.1194 480.3023,-65.4647 490.892,-65.7954 488.7869,-59.1194"/>
</g>
<!-- Node22&#45;&gt;Node20 -->
<g id="edge12" class="edge">
<title>Node22&#45;&gt;Node20</title>
<path fill="none" stroke="#191970" d="M229.7944,-60.9064C251.4572,-50.2276 276.3465,-37.9582 295.0904,-28.7183"/>
<polygon fill="#191970" stroke="#191970" points="228.1571,-57.8113 220.7352,-65.3722 231.2522,-64.0899 228.1571,-57.8113"/>
</g>
<!-- Node22&#45;&gt;Node23 -->
<g id="edge13" class="edge">
<title>Node22&#45;&gt;Node23</title>
<path fill="none" stroke="#191970" d="M147.5664,-59.1772C133.6483,-48.9217 118.0974,-37.4632 106.2293,-28.7183"/>
<polygon fill="#191970" stroke="#191970" points="145.8472,-62.2579 155.9739,-65.3722 149.9996,-56.6225 145.8472,-62.2579"/>
</g>
<!-- Node25&#45;&gt;Node15 -->
<g id="edge33" class="edge">
<title>Node25&#45;&gt;Node15</title>
<path fill="none" stroke="#191970" d="M1689.3635,-204.5133C1732.6783,-194.5503 1790.7262,-181.1183 1841.9331,-169 1844.8531,-168.309 1847.8521,-167.5957 1850.8779,-166.8732"/>
<polygon fill="#191970" stroke="#191970" points="1688.4816,-201.1247 1679.52,-206.7762 1690.0499,-207.9468 1688.4816,-201.1247"/>
</g>
<!-- Node25&#45;&gt;Node16 -->
<g id="edge35" class="edge">
<title>Node25&#45;&gt;Node16</title>
<path fill="none" stroke="#191970" d="M1667.5795,-201.5442C1692.8624,-191.143 1724.2316,-178.238 1747.7164,-168.5765"/>
<polygon fill="#191970" stroke="#191970" points="1666.1331,-198.3546 1658.2168,-205.396 1668.7964,-204.8282 1666.1331,-198.3546"/>
</g>
<!-- Node26 -->
<g id="node16" class="node">
<title>Node26</title>
<g id="a_node16"><a xlink:href="molecule__impl_8hpp.html" target="_top" xlink:title="include/indigox/classes\l/molecule_impl.hpp">
<polygon fill="#ffffff" stroke="#000000" points="853.793,-140.5 853.793,-168.5 972.0732,-168.5 972.0732,-140.5 853.793,-140.5"/>
<text text-anchor="start" x="861.793" y="-156.5" font-family="Helvetica,sans-Serif" font-size="10.00" fill="#000000">include/indigox/classes</text>
<text text-anchor="middle" x="912.9331" y="-146.5" font-family="Helvetica,sans-Serif" font-size="10.00" fill="#000000">/molecule_impl.hpp</text>
</a>
</g>
</g>
<!-- Node25&#45;&gt;Node26 -->
<g id="edge24" class="edge">
<title>Node25&#45;&gt;Node26</title>
<path fill="none" stroke="#191970" d="M1558.4612,-213.5145C1421.0014,-200.9479 1104.1747,-171.9834 972.257,-159.9234"/>
<polygon fill="#191970" stroke="#191970" points="1558.1611,-217.0016 1568.4383,-214.4266 1558.7985,-210.0307 1558.1611,-217.0016"/>
</g>
<!-- Node31 -->
<g id="node21" class="node">
<title>Node31</title>
<g id="a_node21"><a xlink:href="molecule_8cpp.html" target="_top" xlink:title="src/classes/molecule.cpp">
<polygon fill="#ffffff" stroke="#000000" points="1460.3569,-75.5 1460.3569,-93.5 1587.5093,-93.5 1587.5093,-75.5 1460.3569,-75.5"/>
<text text-anchor="middle" x="1523.9331" y="-81.5" font-family="Helvetica,sans-Serif" font-size="10.00" fill="#000000">src/classes/molecule.cpp</text>
</a>
</g>
</g>
<!-- Node25&#45;&gt;Node31 -->
<g id="edge38" class="edge">
<title>Node25&#45;&gt;Node31</title>
<path fill="none" stroke="#191970" d="M1689.4364,-207.9633C1696.3466,-206.8936 1703.2771,-205.8821 1709.9331,-205 1751.0996,-199.5446 2054.0195,-199.7453 2081.9331,-169 2090.5969,-159.4573 2090.5842,-149.5542 2081.9331,-140 2049.2613,-103.9174 1727.063,-90.3393 1587.6647,-86.1256"/>
<polygon fill="#191970" stroke="#191970" points="1688.688,-204.5382 1679.361,-209.5639 1689.7863,-211.4516 1688.688,-204.5382"/>
</g>
<!-- Node33 -->
<g id="node23" class="node">
<title>Node33</title>
<g id="a_node23"><a xlink:href="molecular_8cpp.html" target="_top" xlink:title="src/graph/molecular.cpp">
<polygon fill="#ffffff" stroke="#000000" points="1319.8496,-75.5 1319.8496,-93.5 1442.0166,-93.5 1442.0166,-75.5 1319.8496,-75.5"/>
<text text-anchor="middle" x="1380.9331" y="-81.5" font-family="Helvetica,sans-Serif" font-size="10.00" fill="#000000">src/graph/molecular.cpp</text>
</a>
</g>
</g>
<!-- Node25&#45;&gt;Node33 -->
<g id="edge40" class="edge">
<title>Node25&#45;&gt;Node33</title>
<path fill="none" stroke="#191970" d="M1655.8163,-199.3915C1677.9089,-182.9902 1700.5997,-159.4394 1683.9331,-140 1649.8318,-100.2252 1502.1469,-115.0492 1450.9331,-104 1437.4915,-101.1 1422.806,-97.1344 1410.3726,-93.5364"/>
<polygon fill="#191970" stroke="#191970" points="1653.6026,-196.6703 1647.4617,-205.3039 1657.6463,-202.3842 1653.6026,-196.6703"/>
</g>
<!-- Node34 -->
<g id="node24" class="node">
<title>Node34</title>
<g id="a_node24"><a xlink:href="cherrypicker_8cpp.html" target="_top" xlink:title="src/algorithm/cherrypicker.cpp">
<polygon fill="#ffffff" stroke="#000000" points="1406.5195,-145.5 1406.5195,-163.5 1555.3467,-163.5 1555.3467,-145.5 1406.5195,-145.5"/>
<text text-anchor="middle" x="1480.9331" y="-151.5" font-family="Helvetica,sans-Serif" font-size="10.00" fill="#000000">src/algorithm/cherrypicker.cpp</text>
</a>
</g>
</g>
<!-- Node25&#45;&gt;Node34 -->
<g id="edge32" class="edge">
<title>Node25&#45;&gt;Node34</title>
<path fill="none" stroke="#191970" d="M1583.6911,-201.2082C1556.6749,-188.9281 1522.2455,-173.2784 1500.8966,-163.5743"/>
<polygon fill="#191970" stroke="#191970" points="1582.3522,-204.4442 1592.9042,-205.396 1585.2489,-198.0716 1582.3522,-204.4442"/>
</g>
<!-- Node25&#45;&gt;Node35 -->
<g id="edge34" class="edge">
<title>Node25&#45;&gt;Node35</title>
<path fill="none" stroke="#191970" d="M1689.481,-208.2728C1696.3825,-207.1432 1703.2988,-206.033 1709.9331,-205 1821.7232,-187.5936 1850.8215,-190.3124 1961.9331,-169 1964.88,-168.4348 1967.9001,-167.8197 1970.942,-167.1725"/>
<polygon fill="#191970" stroke="#191970" points="1688.7106,-204.8526 1679.4145,-209.9351 1689.8511,-211.759 1688.7106,-204.8526"/>
</g>
<!-- Node36 -->
<g id="node26" class="node">
<title>Node36</title>
<g id="a_node26"><a xlink:href="paths_8cpp.html" target="_top" xlink:title="src/algorithm/graph\l/paths.cpp">
<polygon fill="#ffffff" stroke="#000000" points="1573.1377,-140.5 1573.1377,-168.5 1674.7285,-168.5 1674.7285,-140.5 1573.1377,-140.5"/>
<text text-anchor="start" x="1581.1377" y="-156.5" font-family="Helvetica,sans-Serif" font-size="10.00" fill="#000000">src/algorithm/graph</text>
<text text-anchor="middle" x="1623.9331" y="-146.5" font-family="Helvetica,sans-Serif" font-size="10.00" fill="#000000">/paths.cpp</text>
</a>
</g>
</g>
<!-- Node25&#45;&gt;Node36 -->
<g id="edge36" class="edge">
<title>Node25&#45;&gt;Node36</title>
<path fill="none" stroke="#191970" d="M1623.9331,-195.1081C1623.9331,-186.1539 1623.9331,-176.3227 1623.9331,-168.5765"/>
<polygon fill="#191970" stroke="#191970" points="1620.4332,-195.3959 1623.9331,-205.396 1627.4332,-195.396 1620.4332,-195.3959"/>
</g>
<!-- Node37 -->
<g id="node27" class="node">
<title>Node37</title>
<g id="a_node27"><a xlink:href="athenaeum_8cpp.html" target="_top" xlink:title="src/classes/athenaeum.cpp">
<polygon fill="#ffffff" stroke="#000000" points="1104.3472,-145.5 1104.3472,-163.5 1241.519,-163.5 1241.519,-145.5 1104.3472,-145.5"/>
<text text-anchor="middle" x="1172.9331" y="-151.5" font-family="Helvetica,sans-Serif" font-size="10.00" fill="#000000">src/classes/athenaeum.cpp</text>
</a>
</g>
</g>
<!-- Node25&#45;&gt;Node37 -->
<g id="edge37" class="edge">
<title>Node25&#45;&gt;Node37</title>
<path fill="none" stroke="#191970" d="M1558.3267,-211.6098C1483.714,-202.4062 1358.3114,-186.2389 1250.9331,-169 1240.7335,-167.3625 1229.8154,-165.44 1219.4753,-163.5399"/>
<polygon fill="#191970" stroke="#191970" points="1558.1582,-215.1153 1568.5106,-212.8616 1559.0123,-208.1676 1558.1582,-215.1153"/>
</g>
<!-- Node38 -->
<g id="node28" class="node">
<title>Node38</title>
<g id="a_node28"><a xlink:href="condensed_8cpp.html" target="_top" xlink:title="src/graph/condensed.cpp">
<polygon fill="#ffffff" stroke="#000000" points="1259.7856,-145.5 1259.7856,-163.5 1388.0806,-163.5 1388.0806,-145.5 1259.7856,-145.5"/>
<text text-anchor="middle" x="1323.9331" y="-151.5" font-family="Helvetica,sans-Serif" font-size="10.00" fill="#000000">src/graph/condensed.cpp</text>
</a>
</g>
</g>
<!-- Node25&#45;&gt;Node38 -->
<g id="edge39" class="edge">
<title>Node25&#45;&gt;Node38</title>
<path fill="none" stroke="#191970" d="M1558.6679,-205.3592C1500.1277,-192.6755 1415.9638,-174.44 1365.9293,-163.5992"/>
<polygon fill="#191970" stroke="#191970" points="1558.0445,-208.8053 1568.5589,-207.5022 1559.5268,-201.964 1558.0445,-208.8053"/>
</g>
<!-- Node27 -->
<g id="node17" class="node">
<title>Node27</title>
<g id="a_node17"><a xlink:href="angle_8cpp.html" target="_top" xlink:title="src/classes/angle.cpp">
<polygon fill="#ffffff" stroke="#000000" points="758.1328,-75.5 758.1328,-93.5 869.7334,-93.5 869.7334,-75.5 758.1328,-75.5"/>
<text text-anchor="middle" x="813.9331" y="-81.5" font-family="Helvetica,sans-Serif" font-size="10.00" fill="#000000">src/classes/angle.cpp</text>
</a>
</g>
</g>
<!-- Node26&#45;&gt;Node27 -->
<g id="edge25" class="edge">
<title>Node26&#45;&gt;Node27</title>
<path fill="none" stroke="#191970" d="M884.5511,-134.4319C865.4778,-120.9457 841.2561,-103.8193 826.7077,-93.5325"/>
<polygon fill="#191970" stroke="#191970" points="882.7132,-137.4189 892.899,-140.3345 886.7545,-131.7033 882.7132,-137.4189"/>
</g>
<!-- Node28 -->
<g id="node18" class="node">
<title>Node28</title>
<g id="a_node18"><a xlink:href="atom_8cpp.html" target="_top" xlink:title="src/classes/atom.cpp">
<polygon fill="#ffffff" stroke="#000000" points="887.251,-75.5 887.251,-93.5 996.6152,-93.5 996.6152,-75.5 887.251,-75.5"/>
<text text-anchor="middle" x="941.9331" y="-81.5" font-family="Helvetica,sans-Serif" font-size="10.00" fill="#000000">src/classes/atom.cpp</text>
</a>
</g>
</g>
<!-- Node26&#45;&gt;Node28 -->
<g id="edge26" class="edge">
<title>Node26&#45;&gt;Node28</title>
<path fill="none" stroke="#191970" d="M922.7663,-130.7646C928.0322,-118.0539 934.2173,-103.1245 938.1064,-93.7368"/>
<polygon fill="#191970" stroke="#191970" points="919.3957,-129.7563 918.8017,-140.3345 925.8626,-132.4355 919.3957,-129.7563"/>
</g>
<!-- Node29 -->
<g id="node19" class="node">
<title>Node29</title>
<g id="a_node19"><a xlink:href="bond_8cpp.html" target="_top" xlink:title="src/classes/bond.cpp">
<polygon fill="#ffffff" stroke="#000000" points="1014.2437,-75.5 1014.2437,-93.5 1123.6226,-93.5 1123.6226,-75.5 1014.2437,-75.5"/>
<text text-anchor="middle" x="1068.9331" y="-81.5" font-family="Helvetica,sans-Serif" font-size="10.00" fill="#000000">src/classes/bond.cpp</text>
</a>
</g>
</g>
<!-- Node26&#45;&gt;Node29 -->
<g id="edge27" class="edge">
<title>Node26&#45;&gt;Node29</title>
<path fill="none" stroke="#191970" d="M953.6463,-136.2312C984.2418,-122.5025 1024.846,-104.2827 1048.8034,-93.5325"/>
<polygon fill="#191970" stroke="#191970" points="952.1927,-133.0472 944.502,-140.3345 955.0585,-139.4337 952.1927,-133.0472"/>
</g>
<!-- Node30 -->
<g id="node20" class="node">
<title>Node30</title>
<g id="a_node20"><a xlink:href="dihedral_8cpp.html" target="_top" xlink:title="src/classes/dihedral.cpp">
<polygon fill="#ffffff" stroke="#000000" points="1141.5762,-75.5 1141.5762,-93.5 1264.29,-93.5 1264.29,-75.5 1141.5762,-75.5"/>
<text text-anchor="middle" x="1202.9331" y="-81.5" font-family="Helvetica,sans-Serif" font-size="10.00" fill="#000000">src/classes/dihedral.cpp</text>
</a>
</g>
</g>
<!-- Node26&#45;&gt;Node30 -->
<g id="edge28" class="edge">
<title>Node26&#45;&gt;Node30</title>
<path fill="none" stroke="#191970" d="M982.2901,-139.4379C1025.6974,-129.799 1082.7194,-116.75 1132.9331,-104 1145.6497,-100.7711 1159.5868,-96.9474 1171.654,-93.5451"/>
<polygon fill="#191970" stroke="#191970" points="981.411,-136.0477 972.404,-141.6266 982.9241,-142.8822 981.411,-136.0477"/>
</g>
<!-- Node26&#45;&gt;Node31 -->
<g id="edge29" class="edge">
<title>Node26&#45;&gt;Node31</title>
<path fill="none" stroke="#191970" d="M982.5181,-147.6596C1007.5527,-145.2168 1036.0086,-142.461 1061.9331,-140 1234.7837,-123.5914 1280.0076,-134.513 1450.9331,-104 1465.5257,-101.395 1481.4591,-97.2903 1494.7063,-93.5175"/>
<polygon fill="#191970" stroke="#191970" points="981.9932,-144.1941 972.3809,-148.6499 982.6739,-151.1609 981.9932,-144.1941"/>
</g>
<!-- Node32 -->
<g id="node22" class="node">
<title>Node32</title>
<g id="a_node22"><a xlink:href="residue_8cpp.html" target="_top" xlink:title="src/classes/residue.cpp">
<polygon fill="#ffffff" stroke="#000000" points="581.9678,-75.5 581.9678,-93.5 701.8984,-93.5 701.8984,-75.5 581.9678,-75.5"/>
<text text-anchor="middle" x="641.9331" y="-81.5" font-family="Helvetica,sans-Serif" font-size="10.00" fill="#000000">src/classes/residue.cpp</text>
</a>
</g>
</g>
<!-- Node26&#45;&gt;Node32 -->
<g id="edge30" class="edge">
<title>Node26&#45;&gt;Node32</title>
<path fill="none" stroke="#191970" d="M848.6413,-137.8933C794.9148,-124.0156 720.3241,-104.7486 676.9896,-93.5552"/>
<polygon fill="#191970" stroke="#191970" points="847.8606,-141.3064 858.4182,-140.4187 849.6113,-134.5289 847.8606,-141.3064"/>
</g>
<!-- Node26&#45;&gt;Node33 -->
<g id="edge31" class="edge">
<title>Node26&#45;&gt;Node33</title>
<path fill="none" stroke="#191970" d="M982.2284,-145.1096C1070.5985,-133.0768 1218.4801,-112.7317 1272.9331,-104 1292.6866,-100.8325 1314.4047,-96.9828 1333.1527,-93.5435"/>
<polygon fill="#191970" stroke="#191970" points="981.7218,-141.6462 972.2851,-146.4627 982.6657,-148.5823 981.7218,-141.6462"/>
</g>
<!-- Node39&#45;&gt;Node15 -->
<g id="edge46" class="edge">
<title>Node39&#45;&gt;Node15</title>
<path fill="none" stroke="#191970" d="M1238.4983,-218.0647C1358.7851,-214.6536 1622.5272,-203.5598 1841.9331,-169 1844.8972,-168.5331 1847.9307,-167.9949 1850.9829,-167.4065"/>
<polygon fill="#191970" stroke="#191970" points="1238.2509,-214.5701 1228.3509,-218.3437 1238.4434,-221.5674 1238.2509,-214.5701"/>
</g>
<!-- Node39&#45;&gt;Node16 -->
<g id="edge48" class="edge">
<title>Node39&#45;&gt;Node16</title>
<path fill="none" stroke="#191970" d="M1238.2083,-214.0675C1335.4717,-205.7423 1524.1358,-188.7061 1683.9331,-169 1699.2959,-167.1055 1715.9692,-164.7509 1731.1327,-162.4939"/>
<polygon fill="#191970" stroke="#191970" points="1237.8972,-210.5812 1228.2308,-214.9184 1238.492,-217.5559 1237.8972,-210.5812"/>
</g>
<!-- Node39&#45;&gt;Node20 -->
<g id="edge44" class="edge">
<title>Node39&#45;&gt;Node20</title>
<path fill="none" stroke="#191970" d="M1107.2901,-216.9894C987.3375,-211.7596 737.5628,-197.72 655.9331,-169 636.0194,-161.9937 516.1072,-73.8315 496.9331,-65 462.4045,-49.0963 421.6821,-36.9134 388.423,-28.5017"/>
<polygon fill="#191970" stroke="#191970" points="1107.2995,-220.4929 1117.4402,-217.4244 1107.5992,-213.4993 1107.2995,-220.4929"/>
</g>
<!-- Node39&#45;&gt;Node21 -->
<g id="edge45" class="edge">
<title>Node39&#45;&gt;Node21</title>
<path fill="none" stroke="#191970" d="M1107.2989,-212.8469C1025.6971,-203.979 891.4804,-187.267 844.9331,-169 796.9676,-150.1765 788.4496,-137.0675 748.9331,-104 730.3732,-88.4691 729.2055,-80.8682 710.9331,-65 695.6899,-51.7624 677.1689,-38.3373 663.1549,-28.6599"/>
<polygon fill="#191970" stroke="#191970" points="1107.1524,-216.3512 1117.4695,-213.9411 1107.9013,-209.3914 1107.1524,-216.3512"/>
</g>
<!-- Node39&#45;&gt;Node24 -->
<g id="edge53" class="edge">
<title>Node39&#45;&gt;Node24</title>
<path fill="none" stroke="#191970" d="M1107.394,-215.5437C1002.6074,-208.7795 791.011,-193.32 612.9331,-169 602.0184,-167.5094 590.3169,-165.5579 579.3536,-163.572"/>
<polygon fill="#191970" stroke="#191970" points="1107.2985,-219.0447 1117.5016,-216.1905 1107.7456,-212.059 1107.2985,-219.0447"/>
</g>
<!-- Node39&#45;&gt;Node26 -->
<g id="edge42" class="edge">
<title>Node39&#45;&gt;Node26</title>
<path fill="none" stroke="#191970" d="M1107.7488,-203.2039C1065.0967,-192.5409 1009.9354,-178.7506 969.2022,-168.5673"/>
<polygon fill="#191970" stroke="#191970" points="1106.9252,-206.6057 1117.4755,-205.6356 1108.623,-199.8147 1106.9252,-206.6057"/>
</g>
<!-- Node39&#45;&gt;Node31 -->
<g id="edge51" class="edge">
<title>Node39&#45;&gt;Node31</title>
<path fill="none" stroke="#191970" d="M1133.255,-200.6094C1105.1611,-184.7617 1075.6278,-161.356 1094.9331,-140 1148.255,-81.0141 1372.7161,-118.3062 1450.9331,-104 1465.3855,-101.3566 1481.1647,-97.2937 1494.3435,-93.5594"/>
<polygon fill="#191970" stroke="#191970" points="1131.8005,-203.8017 1142.2621,-205.477 1135.1286,-197.6434 1131.8005,-203.8017"/>
</g>
<!-- Node39&#45;&gt;Node32 -->
<g id="edge52" class="edge">
<title>Node39&#45;&gt;Node32</title>
<path fill="none" stroke="#191970" d="M1107.3237,-216.2287C982.0157,-209.4748 718.0013,-192.6193 683.9331,-169 657.6799,-150.7987 647.0527,-111.2977 643.4789,-93.5065"/>
<polygon fill="#191970" stroke="#191970" points="1107.3826,-219.7367 1117.5548,-216.7742 1107.7554,-212.7466 1107.3826,-219.7367"/>
</g>
<!-- Node39&#45;&gt;Node33 -->
<g id="edge55" class="edge">
<title>Node39&#45;&gt;Node33</title>
<path fill="none" stroke="#191970" d="M1114.831,-201.9449C1077.4387,-187.7048 1039.6572,-165.8037 1061.9331,-140 1097.7491,-98.5119 1252.2211,-114.9118 1305.9331,-104 1320.3041,-101.0805 1336.034,-97.112 1349.3604,-93.517"/>
<polygon fill="#191970" stroke="#191970" points="1113.6984,-205.2573 1124.2923,-205.3979 1116.0983,-198.6816 1113.6984,-205.2573"/>
</g>
<!-- Node39&#45;&gt;Node34 -->
<g id="edge43" class="edge">
<title>Node39&#45;&gt;Node34</title>
<path fill="none" stroke="#191970" d="M1238.1381,-205.7392C1298.3232,-193.0378 1385.9923,-174.5362 1437.8696,-163.5881"/>
<polygon fill="#191970" stroke="#191970" points="1237.4148,-202.3147 1228.3531,-207.8042 1238.8603,-209.1638 1237.4148,-202.3147"/>
</g>
<!-- Node39&#45;&gt;Node35 -->
<g id="edge47" class="edge">
<title>Node39&#45;&gt;Node35</title>
<path fill="none" stroke="#191970" d="M1238.715,-216.7598C1402.0784,-209.7182 1823.0825,-190.0589 1961.9331,-169 1964.8998,-168.5501 1967.9353,-168.0251 1970.9891,-167.4468"/>
<polygon fill="#191970" stroke="#191970" points="1238.1736,-213.2798 1228.3329,-217.2053 1238.4737,-220.2733 1238.1736,-213.2798"/>
</g>
<!-- Node39&#45;&gt;Node36 -->
<g id="edge49" class="edge">
<title>Node39&#45;&gt;Node36</title>
<path fill="none" stroke="#191970" d="M1238.4191,-213.24C1316.354,-205.2838 1450.2432,-190.0151 1563.9331,-169 1566.8837,-168.4546 1569.9067,-167.855 1572.9509,-167.2197"/>
<polygon fill="#191970" stroke="#191970" points="1237.8638,-209.7782 1228.267,-214.2673 1238.5686,-216.7427 1237.8638,-209.7782"/>
</g>
<!-- Node39&#45;&gt;Node37 -->
<g id="edge50" class="edge">
<title>Node39&#45;&gt;Node37</title>
<path fill="none" stroke="#191970" d="M1172.9331,-195.3747C1172.9331,-184.2832 1172.9331,-171.7952 1172.9331,-163.5743"/>
<polygon fill="#191970" stroke="#191970" points="1169.4332,-195.3959 1172.9331,-205.396 1176.4332,-195.396 1169.4332,-195.3959"/>
</g>
<!-- Node39&#45;&gt;Node38 -->
<g id="edge54" class="edge">
<title>Node39&#45;&gt;Node38</title>
<path fill="none" stroke="#191970" d="M1215.0532,-201.3688C1243.6362,-189.0649 1280.211,-173.3208 1302.8528,-163.5743"/>
<polygon fill="#191970" stroke="#191970" points="1213.4991,-198.2272 1205.6979,-205.396 1216.2669,-204.6568 1213.4991,-198.2272"/>
</g>
<!-- Node40 -->
<g id="node30" class="node">
<title>Node40</title>
<g id="a_node30"><a xlink:href="main_8cpp.html" target="_top" xlink:title="src/main.cpp">
<polygon fill="#ffffff" stroke="#000000" points="692.5908,-145.5 692.5908,-163.5 765.2754,-163.5 765.2754,-145.5 692.5908,-145.5"/>
<text text-anchor="middle" x="728.9331" y="-151.5" font-family="Helvetica,sans-Serif" font-size="10.00" fill="#000000">src/main.cpp</text>
</a>
</g>
</g>
<!-- Node39&#45;&gt;Node40 -->
<g id="edge56" class="edge">
<title>Node39&#45;&gt;Node40</title>
<path fill="none" stroke="#191970" d="M1107.4352,-214.2313C1028.8305,-207.1908 893.3087,-192.7652 778.9331,-169 771.8537,-167.529 764.3162,-165.5614 757.2981,-163.5512"/>
<polygon fill="#191970" stroke="#191970" points="1107.4024,-217.7419 1117.6715,-215.1351 1108.0181,-210.769 1107.4024,-217.7419"/>
</g>
</g>
</svg>
        <g id="navigator" transform="translate(0 0)" fill="#404254">
                <rect fill="#f2f5e9" fill-opacity="0.5" stroke="#606060" stroke-width=".5" x="0" y="0" width="60" height="60"/>
                <use id="zoomplus" xlink:href="#zoomPlus" x="17" y="9" onmousedown="handleZoom(evt,'in')"/>
                <use id="zoomminus" xlink:href="#zoomMin" x="42" y="9" onmousedown="handleZoom(evt,'out')"/>
                <use id="reset" xlink:href="#resetDef" x="30" y="36" onmousedown="handleReset()"/>
                <g id="arrowUp" xlink:href="#dirArrow" transform="translate(30 24)" onmousedown="handlePan(0,-1)">
                  <use xlink:href="#rim" fill="#404040">
                        <set attributeName="fill" to="#808080" begin="arrowUp.mouseover" end="arrowUp.mouseout"/>
                  </use>
                  <path fill="none" stroke="white" stroke-width="1.5" d="M0,-3.0v7 M-2.5,-0.5L0,-3.0L2.5,-0.5"/>
                </g>
                <g id="arrowRight" xlink:href="#dirArrow" transform="rotate(90) translate(36 -43)" onmousedown="handlePan(1,0)">
                  <use xlink:href="#rim" fill="#404040">
                        <set attributeName="fill" to="#808080" begin="arrowRight.mouseover" end="arrowRight.mouseout"/>
                  </use>
                  <path fill="none" stroke="white" stroke-width="1.5" d="M0,-3.0v7 M-2.5,-0.5L0,-3.0L2.5,-0.5"/>
                </g>
                <g id="arrowDown" xlink:href="#dirArrow" transform="rotate(180) translate(-30 -48)" onmousedown="handlePan(0,1)">
                  <use xlink:href="#rim" fill="#404040">
                        <set attributeName="fill" to="#808080" begin="arrowDown.mouseover" end="arrowDown.mouseout"/>
                  </use>
                  <path fill="none" stroke="white" stroke-width="1.5" d="M0,-3.0v7 M-2.5,-0.5L0,-3.0L2.5,-0.5"/>
                </g>
                <g id="arrowLeft" xlink:href="#dirArrow" transform="rotate(270) translate(-36 17)" onmousedown="handlePan(-1,0)">
                  <use xlink:href="#rim" fill="#404040">
                        <set attributeName="fill" to="#808080" begin="arrowLeft.mouseover" end="arrowLeft.mouseout"/>
                  </use>
                  <path fill="none" stroke="white" stroke-width="1.5" d="M0,-3.0v7 M-2.5,-0.5L0,-3.0L2.5,-0.5"/>
                </g>
        </g>
        <svg viewBox="0 0 15 15" width="100%" height="30px" preserveAspectRatio="xMaxYMin meet">
         <g id="arrow_out" transform="scale(0.3 0.3)">
          <a xlink:href="cycles_8hpp__dep__incl_org.svg" target="_base">
           <rect id="button" ry="5" rx="5" y="6" x="6" height="38" width="38"
                fill="#f2f5e9" fill-opacity="0.5" stroke="#606060" stroke-width="1.0"/>
           <path id="arrow"
             d="M 11.500037,31.436501 C 11.940474,20.09759 22.043105,11.32322 32.158766,21.979434 L 37.068811,17.246167 C 37.068811,17.246167 37.088388,32 37.088388,32 L 22.160133,31.978069 C 22.160133,31.978069 26.997745,27.140456 26.997745,27.140456 C 18.528582,18.264221 13.291696,25.230495 11.500037,31.436501 z"
             style="fill:#404040;"/>
          </a>
         </g>
        </svg>
</svg>
