<?xml version="1.0" encoding="UTF-8" standalone="no"?>
<!DOCTYPE svg PUBLIC "-//W3C//DTD SVG 1.1//EN"
 "http://www.w3.org/Graphics/SVG/1.1/DTD/svg11.dtd">
<!-- Generated by graphviz version 2.40.1 (20161225.0304)
 -->
<!-- Title: src/algorithm/graph/cycles.cpp Pages: 1 -->
<svg width="2696pt" height="462pt"
 viewBox="0.00 0.00 2695.90 462.00" xmlns="http://www.w3.org/2000/svg" xmlns:xlink="http://www.w3.org/1999/xlink">
<g id="graph0" class="graph" transform="scale(1 1) rotate(0) translate(4 458)">
<title>src/algorithm/graph/cycles.cpp</title>
<polygon fill="#ffffff" stroke="transparent" points="-4,4 -4,-458 2691.9038,-458 2691.9038,4 -4,4"/>
<!-- Node0 -->
<g id="node1" class="node">
<title>Node0</title>
<polygon fill="#bfbfbf" stroke="#000000" points="2413.2046,-425.5 2413.2046,-453.5 2514.7954,-453.5 2514.7954,-425.5 2413.2046,-425.5"/>
<text text-anchor="start" x="2421.2046" y="-441.5" font-family="Helvetica,sans-Serif" font-size="10.00" fill="#000000">src/algorithm/graph</text>
<text text-anchor="middle" x="2464" y="-431.5" font-family="Helvetica,sans-Serif" font-size="10.00" fill="#000000">/cycles.cpp</text>
</g>
<!-- Node1 -->
<g id="node2" class="node">
<title>Node1</title>
<g id="a_node2"><a xlink:href="cycles_8hpp.html" target="_top" xlink:title="indigox/algorithm/graph\l/cycles.hpp">
<polygon fill="#ffffff" stroke="#000000" points="2163.0249,-185.5 2163.0249,-213.5 2282.9751,-213.5 2282.9751,-185.5 2163.0249,-185.5"/>
<text text-anchor="start" x="2171.0249" y="-201.5" font-family="Helvetica,sans-Serif" font-size="10.00" fill="#000000">indigox/algorithm/graph</text>
<text text-anchor="middle" x="2223" y="-191.5" font-family="Helvetica,sans-Serif" font-size="10.00" fill="#000000">/cycles.hpp</text>
</a>
</g>
</g>
<!-- Node0&#45;&gt;Node1 -->
<g id="edge1" class="edge">
<title>Node0&#45;&gt;Node1</title>
<path fill="none" stroke="#191970" d="M2465.7196,-425.2854C2467.9464,-400.449 2469.0531,-348.603 2445,-315 2408.0582,-263.3911 2340.9867,-233.072 2290.2017,-216.5506"/>
<polygon fill="#191970" stroke="#191970" points="2291.1875,-213.1916 2280.598,-213.5261 2289.0848,-219.8684 2291.1875,-213.1916"/>
</g>
<!-- Node6 -->
<g id="node7" class="node">
<title>Node6</title>
<polygon fill="#ffffff" stroke="#bfbfbf" points="2450.436,-60.5 2450.436,-78.5 2507.564,-78.5 2507.564,-60.5 2450.436,-60.5"/>
<text text-anchor="middle" x="2479" y="-66.5" font-family="Helvetica,sans-Serif" font-size="10.00" fill="#000000">algorithm</text>
</g>
<!-- Node0&#45;&gt;Node6 -->
<g id="edge69" class="edge">
<title>Node0&#45;&gt;Node6</title>
<path fill="none" stroke="#191970" d="M2482.3925,-425.2252C2493.3811,-415.9035 2506.9226,-402.9119 2516,-389 2532.7143,-363.3839 2540,-355.0869 2540,-324.5 2540,-324.5 2540,-324.5 2540,-199.5 2540,-155.5082 2511.018,-110.3974 2493.0078,-86.6113"/>
<polygon fill="#191970" stroke="#191970" points="2495.6457,-84.303 2486.7257,-78.5859 2490.1336,-88.6177 2495.6457,-84.303"/>
</g>
<!-- Node8 -->
<g id="node9" class="node">
<title>Node8</title>
<polygon fill="#ffffff" stroke="#bfbfbf" points="2525.4385,-60.5 2525.4385,-78.5 2572.5615,-78.5 2572.5615,-60.5 2525.4385,-60.5"/>
<text text-anchor="middle" x="2549" y="-66.5" font-family="Helvetica,sans-Serif" font-size="10.00" fill="#000000">iterator</text>
</g>
<!-- Node0&#45;&gt;Node8 -->
<g id="edge70" class="edge">
<title>Node0&#45;&gt;Node8</title>
<path fill="none" stroke="#191970" d="M2493.9522,-425.4655C2527.7284,-407.3225 2578,-372.2915 2578,-324.5 2578,-324.5 2578,-324.5 2578,-199.5 2578,-159.2133 2564.569,-113.5523 2555.9877,-88.4902"/>
<polygon fill="#191970" stroke="#191970" points="2559.1939,-87.059 2552.556,-78.8014 2552.5956,-89.3961 2559.1939,-87.059"/>
</g>
<!-- Node9 -->
<g id="node10" class="node">
<title>Node9</title>
<polygon fill="#ffffff" stroke="#bfbfbf" points="2590.2168,-60.5 2590.2168,-78.5 2641.7832,-78.5 2641.7832,-60.5 2590.2168,-60.5"/>
<text text-anchor="middle" x="2616" y="-66.5" font-family="Helvetica,sans-Serif" font-size="10.00" fill="#000000">numeric</text>
</g>
<!-- Node0&#45;&gt;Node9 -->
<g id="edge72" class="edge">
<title>Node0&#45;&gt;Node9</title>
<path fill="none" stroke="#191970" d="M2512.0938,-425.4494C2556.625,-409.1306 2616,-377.4449 2616,-324.5 2616,-324.5 2616,-324.5 2616,-199.5 2616,-160.1604 2616,-114.1244 2616,-88.7485"/>
<polygon fill="#191970" stroke="#191970" points="2619.5001,-88.6414 2616,-78.6414 2612.5001,-88.6414 2619.5001,-88.6414"/>
</g>
<!-- Node11 -->
<g id="node12" class="node">
<title>Node11</title>
<polygon fill="#ffffff" stroke="#bfbfbf" points="2182.3843,-60.5 2182.3843,-78.5 2225.6157,-78.5 2225.6157,-60.5 2182.3843,-60.5"/>
<text text-anchor="middle" x="2204" y="-66.5" font-family="Helvetica,sans-Serif" font-size="10.00" fill="#000000">vector</text>
</g>
<!-- Node0&#45;&gt;Node11 -->
<g id="edge76" class="edge">
<title>Node0&#45;&gt;Node11</title>
<path fill="none" stroke="#191970" d="M2469.8282,-425.1975C2473.5627,-415.2375 2478.0606,-401.5426 2480,-389 2485.142,-355.7463 2480.7513,-344.1829 2464,-315 2404.5276,-211.3919 2370.2048,-197.1575 2279,-120 2263.1209,-106.5666 2243.5876,-93.5106 2228.4366,-84.0399"/>
<polygon fill="#191970" stroke="#191970" points="2229.9935,-80.8886 2219.6411,-78.6351 2226.3286,-86.8526 2229.9935,-80.8886"/>
</g>
<!-- Node12 -->
<g id="node13" class="node">
<title>Node12</title>
<g id="a_node13"><a xlink:href="condensed_8hpp.html" target="_top" xlink:title="indigox/graph/condensed.hpp">
<polygon fill="#ffffff" stroke="#000000" points="1554.3921,-370.5 1554.3921,-388.5 1701.6079,-388.5 1701.6079,-370.5 1554.3921,-370.5"/>
<text text-anchor="middle" x="1628" y="-376.5" font-family="Helvetica,sans-Serif" font-size="10.00" fill="#000000">indigox/graph/condensed.hpp</text>
</a>
</g>
</g>
<!-- Node0&#45;&gt;Node12 -->
<g id="edge13" class="edge">
<title>Node0&#45;&gt;Node12</title>
<path fill="none" stroke="#191970" d="M2412.9629,-435.8371C2273.3212,-425.8149 1883.9341,-397.8685 1711.7333,-385.5096"/>
<polygon fill="#191970" stroke="#191970" points="1711.9296,-382.0147 1701.7047,-384.7898 1711.4284,-388.9968 1711.9296,-382.0147"/>
</g>
<!-- Node34 -->
<g id="node35" class="node">
<title>Node34</title>
<polygon fill="#ffffff" stroke="#bfbfbf" points="65.9336,-60.5 65.9336,-78.5 128.0664,-78.5 128.0664,-60.5 65.9336,-60.5"/>
<text text-anchor="middle" x="97" y="-66.5" font-family="Helvetica,sans-Serif" font-size="10.00" fill="#000000">type_traits</text>
</g>
<!-- Node0&#45;&gt;Node34 -->
<g id="edge75" class="edge">
<title>Node0&#45;&gt;Node34</title>
<path fill="none" stroke="#191970" d="M2412.9803,-439.1948C2107.8935,-437.044 538,-421.2751 538,-324.5 538,-324.5 538,-324.5 538,-199.5 538,-14.0323 313.3935,-141.3028 137,-84 134.888,-83.3139 132.7205,-82.589 130.5395,-81.8439"/>
<polygon fill="#191970" stroke="#191970" points="131.6175,-78.5129 121.0227,-78.5049 129.3001,-85.1182 131.6175,-78.5129"/>
</g>
<!-- Node39 -->
<g id="node40" class="node">
<title>Node39</title>
<g id="a_node40"><a xlink:href="molecular_8hpp.html" target="_top" xlink:title="indigox/graph/molecular.hpp">
<polygon fill="#ffffff" stroke="#000000" points="2159.4561,-370.5 2159.4561,-388.5 2300.5439,-388.5 2300.5439,-370.5 2159.4561,-370.5"/>
<text text-anchor="middle" x="2230" y="-376.5" font-family="Helvetica,sans-Serif" font-size="10.00" fill="#000000">indigox/graph/molecular.hpp</text>
</a>
</g>
</g>
<!-- Node0&#45;&gt;Node39 -->
<g id="edge58" class="edge">
<title>Node0&#45;&gt;Node39</title>
<path fill="none" stroke="#191970" d="M2412.9369,-426.4069C2371.8658,-415.8759 2314.6998,-401.2179 2275.2546,-391.1037"/>
<polygon fill="#191970" stroke="#191970" points="2275.9347,-387.665 2265.3787,-388.5715 2274.196,-394.4456 2275.9347,-387.665"/>
</g>
<!-- Node40 -->
<g id="node41" class="node">
<title>Node40</title>
<polygon fill="#ffffff" stroke="#bfbfbf" points="2353.2734,-315.5 2353.2734,-333.5 2388.7266,-333.5 2388.7266,-315.5 2353.2734,-315.5"/>
<text text-anchor="middle" x="2371" y="-321.5" font-family="Helvetica,sans-Serif" font-size="10.00" fill="#000000">map</text>
</g>
<!-- Node0&#45;&gt;Node40 -->
<g id="edge71" class="edge">
<title>Node0&#45;&gt;Node40</title>
<path fill="none" stroke="#191970" d="M2452.5964,-425.3987C2435.4789,-404.232 2403.1915,-364.3067 2384.7797,-341.5394"/>
<polygon fill="#191970" stroke="#191970" points="2387.4728,-339.3034 2378.4632,-333.7286 2382.0298,-343.7051 2387.4728,-339.3034"/>
</g>
<!-- Node41 -->
<g id="node42" class="node">
<title>Node41</title>
<polygon fill="#ffffff" stroke="#bfbfbf" points="2406.3301,-315.5 2406.3301,-333.5 2435.6699,-333.5 2435.6699,-315.5 2406.3301,-315.5"/>
<text text-anchor="middle" x="2421" y="-321.5" font-family="Helvetica,sans-Serif" font-size="10.00" fill="#000000">set</text>
</g>
<!-- Node0&#45;&gt;Node41 -->
<g id="edge74" class="edge">
<title>Node0&#45;&gt;Node41</title>
<path fill="none" stroke="#191970" d="M2458.7274,-425.3987C2451.022,-404.7914 2436.6685,-366.4041 2428.0595,-343.38"/>
<polygon fill="#191970" stroke="#191970" points="2431.2314,-341.8694 2424.4507,-333.7286 2424.6748,-344.3211 2431.2314,-341.8694"/>
</g>
<!-- Node43 -->
<g id="node44" class="node">
<title>Node43</title>
<polygon fill="#ffffff" stroke="#bfbfbf" points="2644.0962,-370.5 2644.0962,-388.5 2687.9038,-388.5 2687.9038,-370.5 2644.0962,-370.5"/>
<text text-anchor="middle" x="2666" y="-376.5" font-family="Helvetica,sans-Serif" font-size="10.00" fill="#000000">queue</text>
</g>
<!-- Node0&#45;&gt;Node43 -->
<g id="edge73" class="edge">
<title>Node0&#45;&gt;Node43</title>
<path fill="none" stroke="#191970" d="M2511.36,-425.4327C2549.2989,-414.1637 2601.4628,-398.6695 2634.4545,-388.8699"/>
<polygon fill="#191970" stroke="#191970" points="2635.4514,-392.2251 2644.0409,-386.0225 2633.4582,-385.5148 2635.4514,-392.2251"/>
</g>
<!-- Node2 -->
<g id="node3" class="node">
<title>Node2</title>
<g id="a_node3"><a xlink:href="fwd__declares_8hpp.html" target="_top" xlink:title="../../utils/fwd_declares.hpp">
<polygon fill="#ffffff" stroke="#000000" points="1874.1924,-60.5 1874.1924,-78.5 2005.8076,-78.5 2005.8076,-60.5 1874.1924,-60.5"/>
<text text-anchor="middle" x="1940" y="-66.5" font-family="Helvetica,sans-Serif" font-size="10.00" fill="#000000">../../utils/fwd_declares.hpp</text>
</a>
</g>
</g>
<!-- Node1&#45;&gt;Node2 -->
<g id="edge2" class="edge">
<title>Node1&#45;&gt;Node2</title>
<path fill="none" stroke="#191970" d="M2162.8307,-187.6775C2158.1515,-186.768 2153.4993,-185.867 2149,-185 2064.6059,-168.7366 2021.1949,-208.3182 1959,-149 1942.7572,-133.5085 1939.3327,-106.811 1939.0873,-88.6689"/>
<polygon fill="#191970" stroke="#191970" points="1942.587,-88.7137 1939.2592,-78.6551 1935.588,-88.5935 1942.587,-88.7137"/>
</g>
<!-- Node5 -->
<g id="node6" class="node">
<title>Node5</title>
<g id="a_node6"><a xlink:href="numerics_8hpp.html" target="_top" xlink:title="../../utils/numerics.hpp">
<polygon fill="#ffffff" stroke="#000000" points="2360.3696,-125.5 2360.3696,-143.5 2473.6304,-143.5 2473.6304,-125.5 2360.3696,-125.5"/>
<text text-anchor="middle" x="2417" y="-131.5" font-family="Helvetica,sans-Serif" font-size="10.00" fill="#000000">../../utils/numerics.hpp</text>
</a>
</g>
</g>
<!-- Node1&#45;&gt;Node5 -->
<g id="edge5" class="edge">
<title>Node1&#45;&gt;Node5</title>
<path fill="none" stroke="#191970" d="M2265.0951,-185.396C2299.4324,-173.8912 2347.4564,-157.8007 2380.2577,-146.8106"/>
<polygon fill="#191970" stroke="#191970" points="2381.5467,-150.07 2389.9167,-143.5743 2379.3228,-143.4326 2381.5467,-150.07"/>
</g>
<!-- Node3 -->
<g id="node4" class="node">
<title>Node3</title>
<polygon fill="#ffffff" stroke="#bfbfbf" points="2086.5493,-.5 2086.5493,-18.5 2131.4507,-18.5 2131.4507,-.5 2086.5493,-.5"/>
<text text-anchor="middle" x="2109" y="-6.5" font-family="Helvetica,sans-Serif" font-size="10.00" fill="#000000">cstdint</text>
</g>
<!-- Node2&#45;&gt;Node3 -->
<g id="edge3" class="edge">
<title>Node2&#45;&gt;Node3</title>
<path fill="none" stroke="#191970" d="M1965.6675,-60.3873C1995.4581,-49.8107 2044.6166,-32.358 2076.9058,-20.8944"/>
<polygon fill="#191970" stroke="#191970" points="2078.0923,-24.1873 2086.345,-17.5432 2075.7502,-17.5907 2078.0923,-24.1873"/>
</g>
<!-- Node4 -->
<g id="node5" class="node">
<title>Node4</title>
<polygon fill="#ffffff" stroke="#bfbfbf" points="915.9434,-.5 915.9434,-18.5 968.0566,-18.5 968.0566,-.5 915.9434,-.5"/>
<text text-anchor="middle" x="942" y="-6.5" font-family="Helvetica,sans-Serif" font-size="10.00" fill="#000000">memory</text>
</g>
<!-- Node2&#45;&gt;Node4 -->
<g id="edge4" class="edge">
<title>Node2&#45;&gt;Node4</title>
<path fill="none" stroke="#191970" d="M1896.1394,-60.4921C1884.4416,-58.3801 1871.7792,-56.3536 1860,-55 1684.6576,-34.8504 1126.8782,-15.5492 978.5309,-10.6759"/>
<polygon fill="#191970" stroke="#191970" points="978.2844,-7.1661 968.1754,-10.3374 978.0556,-14.1623 978.2844,-7.1661"/>
</g>
<!-- Node5&#45;&gt;Node3 -->
<g id="edge8" class="edge">
<title>Node5&#45;&gt;Node3</title>
<path fill="none" stroke="#191970" d="M2397.5163,-125.4887C2364.4011,-110.286 2294.8978,-78.8674 2235,-55 2203.3378,-42.3836 2166.6357,-29.3014 2141.0395,-20.4211"/>
<polygon fill="#191970" stroke="#191970" points="2142.0659,-17.0728 2131.4711,-17.1178 2139.7815,-23.6896 2142.0659,-17.0728"/>
</g>
<!-- Node5&#45;&gt;Node6 -->
<g id="edge6" class="edge">
<title>Node5&#45;&gt;Node6</title>
<path fill="none" stroke="#191970" d="M2425.6208,-125.462C2435.2285,-115.3895 2450.977,-98.879 2462.8841,-86.3957"/>
<polygon fill="#191970" stroke="#191970" points="2465.6814,-88.534 2470.0509,-78.8821 2460.6161,-83.7025 2465.6814,-88.534"/>
</g>
<!-- Node7 -->
<g id="node8" class="node">
<title>Node7</title>
<polygon fill="#ffffff" stroke="#bfbfbf" points="2330.3843,-60.5 2330.3843,-78.5 2373.6157,-78.5 2373.6157,-60.5 2330.3843,-60.5"/>
<text text-anchor="middle" x="2352" y="-66.5" font-family="Helvetica,sans-Serif" font-size="10.00" fill="#000000">cmath</text>
</g>
<!-- Node5&#45;&gt;Node7 -->
<g id="edge7" class="edge">
<title>Node5&#45;&gt;Node7</title>
<path fill="none" stroke="#191970" d="M2407.962,-125.462C2397.7936,-115.2936 2381.0639,-98.5639 2368.5402,-86.0402"/>
<polygon fill="#191970" stroke="#191970" points="2370.9281,-83.4784 2361.3821,-78.8821 2365.9784,-88.4281 2370.9281,-83.4784"/>
</g>
<!-- Node5&#45;&gt;Node8 -->
<g id="edge9" class="edge">
<title>Node5&#45;&gt;Node8</title>
<path fill="none" stroke="#191970" d="M2435.354,-125.462C2457.5905,-114.5122 2495.2776,-95.9542 2521.1122,-83.2326"/>
<polygon fill="#191970" stroke="#191970" points="2522.9512,-86.2284 2530.3763,-78.6708 2519.8588,-79.9485 2522.9512,-86.2284"/>
</g>
<!-- Node5&#45;&gt;Node9 -->
<g id="edge10" class="edge">
<title>Node5&#45;&gt;Node9</title>
<path fill="none" stroke="#191970" d="M2450.2121,-125.4565C2483.7782,-116.0555 2536.975,-100.4385 2582,-84 2583.394,-83.4911 2584.8135,-82.9558 2586.2427,-82.403"/>
<polygon fill="#191970" stroke="#191970" points="2587.6887,-85.5936 2595.6441,-78.5963 2585.0615,-79.1053 2587.6887,-85.5936"/>
</g>
<!-- Node10 -->
<g id="node11" class="node">
<title>Node10</title>
<polygon fill="#ffffff" stroke="#bfbfbf" points="2391.7734,-60.5 2391.7734,-78.5 2432.2266,-78.5 2432.2266,-60.5 2391.7734,-60.5"/>
<text text-anchor="middle" x="2412" y="-66.5" font-family="Helvetica,sans-Serif" font-size="10.00" fill="#000000">string</text>
</g>
<!-- Node5&#45;&gt;Node10 -->
<g id="edge11" class="edge">
<title>Node5&#45;&gt;Node10</title>
<path fill="none" stroke="#191970" d="M2416.3048,-125.462C2415.5816,-116.061 2414.4271,-101.0518 2413.4956,-88.943"/>
<polygon fill="#191970" stroke="#191970" points="2416.9785,-88.5842 2412.7217,-78.8821 2409.9991,-89.1212 2416.9785,-88.5842"/>
</g>
<!-- Node5&#45;&gt;Node11 -->
<g id="edge12" class="edge">
<title>Node5&#45;&gt;Node11</title>
<path fill="none" stroke="#191970" d="M2387.3833,-125.462C2347.3391,-113.242 2276.2436,-91.5462 2235.3336,-79.0619"/>
<polygon fill="#191970" stroke="#191970" points="2236.2066,-75.669 2225.6205,-76.0978 2234.1634,-82.3642 2236.2066,-75.669"/>
</g>
<!-- Node12&#45;&gt;Node2 -->
<g id="edge14" class="edge">
<title>Node12&#45;&gt;Node2</title>
<path fill="none" stroke="#191970" d="M1641.3367,-370.4269C1665.2785,-353.8115 1716.5398,-316.7249 1754,-279 1817.3376,-215.2149 1816.246,-184.3594 1879,-120 1891.3575,-107.3263 1906.7144,-94.6272 1918.9279,-85.1339"/>
<polygon fill="#191970" stroke="#191970" points="1921.3543,-87.6848 1927.1779,-78.8341 1917.106,-82.1214 1921.3543,-87.6848"/>
</g>
<!-- Node12&#45;&gt;Node4 -->
<g id="edge56" class="edge">
<title>Node12&#45;&gt;Node4</title>
<path fill="none" stroke="#191970" d="M1554.3525,-378.2073C1236.7187,-372.1571 0,-343.5262 0,-264.5 0,-264.5 0,-264.5 0,-134.5 0,-93.4538 11.8755,-76.2382 47,-55 84.2916,-32.4514 742.024,-14.5161 905.4658,-10.3941"/>
<polygon fill="#191970" stroke="#191970" points="905.5956,-13.892 915.5048,-10.1426 905.4203,-6.8942 905.5956,-13.892"/>
</g>
<!-- Node12&#45;&gt;Node11 -->
<g id="edge57" class="edge">
<title>Node12&#45;&gt;Node11</title>
<path fill="none" stroke="#191970" d="M1701.7562,-371.9413C1772.9828,-363.8812 1875.2951,-350.0791 1912,-334 2033.7552,-280.6633 2055.1401,-245.0776 2147,-149 2165.2483,-129.9139 2182.3565,-104.6856 2192.978,-87.8167"/>
<polygon fill="#191970" stroke="#191970" points="2196.1701,-89.3086 2198.4418,-78.9602 2190.2125,-85.6333 2196.1701,-89.3086"/>
</g>
<!-- Node13 -->
<g id="node14" class="node">
<title>Node13</title>
<g id="a_node14"><a xlink:href="base__graph_8hpp.html" target="_top" xlink:title="base_graph.hpp">
<polygon fill="#ffffff" stroke="#000000" points="1814.8574,-315.5 1814.8574,-333.5 1903.1426,-333.5 1903.1426,-315.5 1814.8574,-315.5"/>
<text text-anchor="middle" x="1859" y="-321.5" font-family="Helvetica,sans-Serif" font-size="10.00" fill="#000000">base_graph.hpp</text>
</a>
</g>
</g>
<!-- Node12&#45;&gt;Node13 -->
<g id="edge15" class="edge">
<title>Node12&#45;&gt;Node13</title>
<path fill="none" stroke="#191970" d="M1665.8863,-370.4795C1705.5826,-361.0279 1768.0445,-346.1561 1811.1268,-335.8984"/>
<polygon fill="#191970" stroke="#191970" points="1812.1757,-339.2466 1821.093,-333.5255 1810.5543,-332.4369 1812.1757,-339.2466"/>
</g>
<!-- Node15 -->
<g id="node16" class="node">
<title>Node15</title>
<polygon fill="#ffffff" stroke="#bfbfbf" points="1489.478,-190.5 1489.478,-208.5 1600.522,-208.5 1600.522,-190.5 1489.478,-190.5"/>
<text text-anchor="middle" x="1545" y="-196.5" font-family="Helvetica,sans-Serif" font-size="10.00" fill="#000000">EASTL/vector_map.h</text>
</g>
<!-- Node12&#45;&gt;Node15 -->
<g id="edge54" class="edge">
<title>Node12&#45;&gt;Node15</title>
<path fill="none" stroke="#191970" d="M1601.4698,-370.4584C1566.2885,-356.8591 1505.6602,-327.4418 1480,-279 1473.9668,-267.6104 1474.3342,-261.5768 1480,-250 1487.6781,-234.3116 1502.8416,-222.0922 1516.5924,-213.6055"/>
<polygon fill="#191970" stroke="#191970" points="1518.4155,-216.5946 1525.3318,-208.5687 1514.92,-210.5297 1518.4155,-216.5946"/>
</g>
<!-- Node37 -->
<g id="node38" class="node">
<title>Node37</title>
<polygon fill="#ffffff" stroke="#bfbfbf" points="1328.5347,-190.5 1328.5347,-208.5 1433.4653,-208.5 1433.4653,-190.5 1328.5347,-190.5"/>
<text text-anchor="middle" x="1381" y="-196.5" font-family="Helvetica,sans-Serif" font-size="10.00" fill="#000000">EASTL/vector_set.h</text>
</g>
<!-- Node12&#45;&gt;Node37 -->
<g id="edge55" class="edge">
<title>Node12&#45;&gt;Node37</title>
<path fill="none" stroke="#191970" d="M1554.3328,-375.195C1492.3319,-369.8949 1410.4361,-358.3894 1389,-334 1360.9162,-302.047 1368.696,-247.6165 1375.5578,-218.7691"/>
<polygon fill="#191970" stroke="#191970" points="1379.0346,-219.3043 1378.1558,-208.746 1372.2586,-217.5479 1379.0346,-219.3043"/>
</g>
<!-- Node38 -->
<g id="node39" class="node">
<title>Node38</title>
<polygon fill="#ffffff" stroke="#bfbfbf" points="1397.6504,-315.5 1397.6504,-333.5 1480.3496,-333.5 1480.3496,-315.5 1397.6504,-315.5"/>
<text text-anchor="middle" x="1439" y="-321.5" font-family="Helvetica,sans-Serif" font-size="10.00" fill="#000000">EASTL/bitset.h</text>
</g>
<!-- Node12&#45;&gt;Node38 -->
<g id="edge53" class="edge">
<title>Node12&#45;&gt;Node38</title>
<path fill="none" stroke="#191970" d="M1596.7905,-370.4179C1564.8226,-361.115 1514.9712,-346.608 1479.873,-336.3943"/>
<polygon fill="#191970" stroke="#191970" points="1480.5214,-332.9378 1469.9417,-333.5042 1478.5655,-339.659 1480.5214,-332.9378"/>
</g>
<!-- Node13&#45;&gt;Node2 -->
<g id="edge16" class="edge">
<title>Node13&#45;&gt;Node2</title>
<path fill="none" stroke="#191970" d="M1882.4597,-315.498C1897.8853,-308.2009 1916.8517,-296.271 1926,-279 1960.0092,-214.7942 1859.7051,-186.9209 1888,-120 1894.0142,-105.7758 1906.2117,-93.5842 1917.2823,-84.7451"/>
<polygon fill="#191970" stroke="#191970" points="1919.5005,-87.4567 1925.4073,-78.6612 1915.3048,-81.8534 1919.5005,-87.4567"/>
</g>
<!-- Node13&#45;&gt;Node3 -->
<g id="edge20" class="edge">
<title>Node13&#45;&gt;Node3</title>
<path fill="none" stroke="#191970" d="M1879.9696,-315.4772C1897.8503,-307.2829 1923.7921,-294.1805 1944,-279 2008.5806,-230.4862 2028.3062,-217.5674 2071,-149 2094.9051,-110.6078 2103.9842,-57.1559 2107.2652,-28.8603"/>
<polygon fill="#191970" stroke="#191970" points="2110.7684,-29.0094 2108.3149,-18.7026 2103.8055,-28.2898 2110.7684,-29.0094"/>
</g>
<!-- Node13&#45;&gt;Node4 -->
<g id="edge21" class="edge">
<title>Node13&#45;&gt;Node4</title>
<path fill="none" stroke="#191970" d="M1814.7806,-320.4004C1717.6403,-311.2305 1493.1751,-289.0794 1480,-279 1444.21,-251.6194 1478.6291,-211.2475 1442,-185 1384.8272,-144.0314 880.1563,-154.025 810,-149 642.4736,-137.0007 170.5409,-207.7641 57,-84 48.2869,-74.5024 48.1232,-64.3449 57,-55 86.6788,-23.7561 742.4638,-12.3477 905.5384,-9.9885"/>
<polygon fill="#191970" stroke="#191970" points="905.6062,-13.488 915.5554,-9.8461 905.5066,-6.4887 905.6062,-13.488"/>
</g>
<!-- Node13&#45;&gt;Node11 -->
<g id="edge22" class="edge">
<title>Node13&#45;&gt;Node11</title>
<path fill="none" stroke="#191970" d="M1878.0855,-315.4303C1895.6603,-306.8135 1922.2282,-293.1099 1944,-279 2041.8486,-215.5863 2146.4451,-122.4887 2186.7793,-85.5015"/>
<polygon fill="#191970" stroke="#191970" points="2189.1955,-88.0344 2194.1773,-78.6839 2184.4518,-82.8868 2189.1955,-88.0344"/>
</g>
<!-- Node14 -->
<g id="node15" class="node">
<title>Node14</title>
<g id="a_node15"><a xlink:href="simple__bimap_8hpp.html" target="_top" xlink:title="../utils/simple_bimap.hpp">
<polygon fill="#ffffff" stroke="#000000" points="1488.9731,-255.5 1488.9731,-273.5 1615.0269,-273.5 1615.0269,-255.5 1488.9731,-255.5"/>
<text text-anchor="middle" x="1552" y="-261.5" font-family="Helvetica,sans-Serif" font-size="10.00" fill="#000000">../utils/simple_bimap.hpp</text>
</a>
</g>
</g>
<!-- Node13&#45;&gt;Node14 -->
<g id="edge17" class="edge">
<title>Node13&#45;&gt;Node14</title>
<path fill="none" stroke="#191970" d="M1814.8024,-316.0447C1767.5539,-306.982 1690.4531,-292.1245 1624,-279 1618.3102,-277.8763 1612.3694,-276.6941 1606.4463,-275.5098"/>
<polygon fill="#191970" stroke="#191970" points="1607.0354,-272.0583 1596.5425,-273.5245 1605.6595,-278.9218 1607.0354,-272.0583"/>
</g>
<!-- Node16 -->
<g id="node17" class="node">
<title>Node16</title>
<polygon fill="#ffffff" stroke="#bfbfbf" points="1800.6875,-250.5 1800.6875,-278.5 1917.3125,-278.5 1917.3125,-250.5 1800.6875,-250.5"/>
<text text-anchor="start" x="1808.6875" y="-266.5" font-family="Helvetica,sans-Serif" font-size="10.00" fill="#000000">boost/graph/adjacency</text>
<text text-anchor="middle" x="1859" y="-256.5" font-family="Helvetica,sans-Serif" font-size="10.00" fill="#000000">_list.hpp</text>
</g>
<!-- Node13&#45;&gt;Node16 -->
<g id="edge19" class="edge">
<title>Node13&#45;&gt;Node16</title>
<path fill="none" stroke="#191970" d="M1859,-315.3873C1859,-308.3369 1859,-298.2311 1859,-288.8806"/>
<polygon fill="#191970" stroke="#191970" points="1862.5001,-288.8476 1859,-278.8477 1855.5001,-288.8477 1862.5001,-288.8476"/>
</g>
<!-- Node17 -->
<g id="node18" class="node">
<title>Node17</title>
<g id="a_node18"><a xlink:href="base__graph__impl_8hpp.html" target="_top" xlink:title="base_graph_impl.hpp">
<polygon fill="#ffffff" stroke="#000000" points="1632.9092,-255.5 1632.9092,-273.5 1745.0908,-273.5 1745.0908,-255.5 1632.9092,-255.5"/>
<text text-anchor="middle" x="1689" y="-261.5" font-family="Helvetica,sans-Serif" font-size="10.00" fill="#000000">base_graph_impl.hpp</text>
</a>
</g>
</g>
<!-- Node13&#45;&gt;Node17 -->
<g id="edge23" class="edge">
<title>Node13&#45;&gt;Node17</title>
<path fill="none" stroke="#191970" d="M1833.1807,-315.3873C1804.0555,-305.1078 1756.5271,-288.3331 1724.0605,-276.8743"/>
<polygon fill="#191970" stroke="#191970" points="1725.1001,-273.5297 1714.5053,-273.5019 1722.7703,-280.1306 1725.1001,-273.5297"/>
</g>
<!-- Node14&#45;&gt;Node15 -->
<g id="edge18" class="edge">
<title>Node14&#45;&gt;Node15</title>
<path fill="none" stroke="#191970" d="M1551.0267,-255.462C1550.0143,-246.061 1548.3979,-231.0518 1547.0939,-218.943"/>
<polygon fill="#191970" stroke="#191970" points="1550.5611,-218.4499 1546.0104,-208.8821 1543.6013,-219.1994 1550.5611,-218.4499"/>
</g>
<!-- Node17&#45;&gt;Node1 -->
<g id="edge29" class="edge">
<title>Node17&#45;&gt;Node1</title>
<path fill="none" stroke="#191970" d="M1745.0976,-256.3619C1760.3072,-254.2212 1776.7765,-251.9631 1792,-250 1919.0875,-233.6114 2067.5557,-216.7079 2152.8945,-207.2081"/>
<polygon fill="#191970" stroke="#191970" points="2153.4309,-210.6701 2162.983,-206.0868 2152.6575,-203.713 2153.4309,-210.6701"/>
</g>
<!-- Node17&#45;&gt;Node11 -->
<g id="edge52" class="edge">
<title>Node17&#45;&gt;Node11</title>
<path fill="none" stroke="#191970" d="M1731.5446,-255.4396C1803.4815,-239.2929 1952.852,-202.1735 2071,-149 2112.2925,-130.416 2156.785,-101.8994 2182.4166,-84.5471"/>
<polygon fill="#191970" stroke="#191970" points="2184.6886,-87.2335 2190.9656,-78.6983 2180.736,-81.4561 2184.6886,-87.2335"/>
</g>
<!-- Node17&#45;&gt;Node15 -->
<g id="edge50" class="edge">
<title>Node17&#45;&gt;Node15</title>
<path fill="none" stroke="#191970" d="M1668.9774,-255.462C1644.5057,-244.4158 1602.8805,-225.6266 1574.6812,-212.8977"/>
<polygon fill="#191970" stroke="#191970" points="1575.8712,-209.5949 1565.3168,-208.6708 1572.9913,-215.9751 1575.8712,-209.5949"/>
</g>
<!-- Node18 -->
<g id="node19" class="node">
<title>Node18</title>
<g id="a_node19"><a xlink:href="connectivity_8hpp.html" target="_top" xlink:title="../algorithm/graph\l/connectivity.hpp">
<polygon fill="#ffffff" stroke="#000000" points="1968.0913,-120.5 1968.0913,-148.5 2061.9087,-148.5 2061.9087,-120.5 1968.0913,-120.5"/>
<text text-anchor="start" x="1976.0913" y="-136.5" font-family="Helvetica,sans-Serif" font-size="10.00" fill="#000000">../algorithm/graph</text>
<text text-anchor="middle" x="2015" y="-126.5" font-family="Helvetica,sans-Serif" font-size="10.00" fill="#000000">/connectivity.hpp</text>
</a>
</g>
</g>
<!-- Node17&#45;&gt;Node18 -->
<g id="edge24" class="edge">
<title>Node17&#45;&gt;Node18</title>
<path fill="none" stroke="#191970" d="M1711.6649,-255.4619C1765.1039,-234.1518 1899.7782,-180.4473 1970.3265,-152.3146"/>
<polygon fill="#191970" stroke="#191970" points="1971.8482,-155.4759 1979.8404,-148.5207 1969.2553,-148.9738 1971.8482,-155.4759"/>
</g>
<!-- Node20 -->
<g id="node21" class="node">
<title>Node20</title>
<g id="a_node21"><a xlink:href="serialise_8hpp.html" target="_top" xlink:title="../utils/serialise.hpp">
<polygon fill="#ffffff" stroke="#000000" points="1083.4805,-125.5 1083.4805,-143.5 1184.5195,-143.5 1184.5195,-125.5 1083.4805,-125.5"/>
<text text-anchor="middle" x="1134" y="-131.5" font-family="Helvetica,sans-Serif" font-size="10.00" fill="#000000">../utils/serialise.hpp</text>
</a>
</g>
</g>
<!-- Node17&#45;&gt;Node20 -->
<g id="edge30" class="edge">
<title>Node17&#45;&gt;Node20</title>
<path fill="none" stroke="#191970" d="M1681.3469,-255.3894C1665.1288,-236.3314 1627.3695,-193.3289 1610,-185 1538.062,-150.5047 1306.2679,-139.3459 1194.8768,-135.9226"/>
<polygon fill="#191970" stroke="#191970" points="1194.9043,-132.422 1184.805,-135.6242 1194.6969,-139.4189 1194.9043,-132.422"/>
</g>
<!-- Node35 -->
<g id="node36" class="node">
<title>Node35</title>
<g id="a_node36"><a xlink:href="triple_8hpp.html" target="_top" xlink:title="../utils/triple.hpp">
<polygon fill="#ffffff" stroke="#000000" points="1656.9829,-190.5 1656.9829,-208.5 1743.0171,-208.5 1743.0171,-190.5 1656.9829,-190.5"/>
<text text-anchor="middle" x="1700" y="-196.5" font-family="Helvetica,sans-Serif" font-size="10.00" fill="#000000">../utils/triple.hpp</text>
</a>
</g>
</g>
<!-- Node17&#45;&gt;Node35 -->
<g id="edge46" class="edge">
<title>Node17&#45;&gt;Node35</title>
<path fill="none" stroke="#191970" d="M1690.5295,-255.462C1692.1204,-246.061 1694.6605,-231.0518 1696.7097,-218.943"/>
<polygon fill="#191970" stroke="#191970" points="1700.1945,-219.326 1698.4123,-208.8821 1693.2927,-218.1579 1700.1945,-219.326"/>
</g>
<!-- Node17&#45;&gt;Node37 -->
<g id="edge51" class="edge">
<title>Node17&#45;&gt;Node37</title>
<path fill="none" stroke="#191970" d="M1648.7987,-255.4359C1640.5984,-253.6141 1632.025,-251.7289 1624,-250 1559.1746,-236.0343 1484.4712,-220.6094 1435.1939,-210.5269"/>
<polygon fill="#191970" stroke="#191970" points="1435.8813,-207.0951 1425.3829,-208.5213 1434.4793,-213.9533 1435.8813,-207.0951"/>
</g>
<!-- Node18&#45;&gt;Node2 -->
<g id="edge25" class="edge">
<title>Node18&#45;&gt;Node2</title>
<path fill="none" stroke="#191970" d="M1998.7261,-120.396C1986.8247,-110.0814 1970.67,-96.0807 1958.3165,-85.3743"/>
<polygon fill="#191970" stroke="#191970" points="1960.3195,-82.4787 1950.4704,-78.5743 1955.735,-87.7686 1960.3195,-82.4787"/>
</g>
<!-- Node18&#45;&gt;Node3 -->
<g id="edge26" class="edge">
<title>Node18&#45;&gt;Node3</title>
<path fill="none" stroke="#191970" d="M2034.021,-120.2966C2045.7015,-110.9064 2060.4027,-97.8154 2071,-84 2084.2112,-66.7769 2094.9516,-44.2625 2101.6014,-28.5107"/>
<polygon fill="#191970" stroke="#191970" points="2105.0113,-29.4161 2105.5318,-18.834 2098.5259,-26.7819 2105.0113,-29.4161"/>
</g>
<!-- Node18&#45;&gt;Node11 -->
<g id="edge28" class="edge">
<title>Node18&#45;&gt;Node11</title>
<path fill="none" stroke="#191970" d="M2056.0102,-120.396C2090.9837,-108.368 2140.5315,-91.3278 2172.4695,-80.3438"/>
<polygon fill="#191970" stroke="#191970" points="2173.8613,-83.5664 2182.1794,-77.0044 2171.5848,-76.947 2173.8613,-83.5664"/>
</g>
<!-- Node19 -->
<g id="node20" class="node">
<title>Node19</title>
<polygon fill="#ffffff" stroke="#bfbfbf" points="2023.6133,-60.5 2023.6133,-78.5 2062.3867,-78.5 2062.3867,-60.5 2023.6133,-60.5"/>
<text text-anchor="middle" x="2043" y="-66.5" font-family="Helvetica,sans-Serif" font-size="10.00" fill="#000000">limits</text>
</g>
<!-- Node18&#45;&gt;Node19 -->
<g id="edge27" class="edge">
<title>Node18&#45;&gt;Node19</title>
<path fill="none" stroke="#191970" d="M2021.0756,-120.396C2025.177,-110.8748 2030.6314,-98.2128 2035.0737,-87.9003"/>
<polygon fill="#191970" stroke="#191970" points="2038.3492,-89.1431 2039.0911,-78.5743 2031.9203,-86.3737 2038.3492,-89.1431"/>
</g>
<!-- Node20&#45;&gt;Node2 -->
<g id="edge31" class="edge">
<title>Node20&#45;&gt;Node2</title>
<path fill="none" stroke="#191970" d="M1184.9448,-131.7476C1299.7228,-125.3364 1587.2467,-108.0997 1827,-84 1839.1899,-82.7747 1852.0964,-81.2934 1864.659,-79.7518"/>
<polygon fill="#191970" stroke="#191970" points="1865.1504,-83.2178 1874.64,-78.5063 1864.2835,-76.2716 1865.1504,-83.2178"/>
</g>
<!-- Node21 -->
<g id="node22" class="node">
<title>Node21</title>
<polygon fill="#ffffff" stroke="#bfbfbf" points="691.6997,-60.5 691.6997,-78.5 788.3003,-78.5 788.3003,-60.5 691.6997,-60.5"/>
<text text-anchor="middle" x="740" y="-66.5" font-family="Helvetica,sans-Serif" font-size="10.00" fill="#000000">cereal/access.hpp</text>
</g>
<!-- Node20&#45;&gt;Node21 -->
<g id="edge32" class="edge">
<title>Node20&#45;&gt;Node21</title>
<path fill="none" stroke="#191970" d="M1083.196,-128.5014C1016.9872,-120.3154 897.7638,-104.3129 797,-84 792.5441,-83.1017 787.9144,-82.0774 783.306,-80.9981"/>
<polygon fill="#191970" stroke="#191970" points="783.8708,-77.5336 773.3272,-78.5748 782.2188,-84.3359 783.8708,-77.5336"/>
</g>
<!-- Node22 -->
<g id="node23" class="node">
<title>Node22</title>
<polygon fill="#ffffff" stroke="#bfbfbf" points="806.0815,-60.5 806.0815,-78.5 929.9185,-78.5 929.9185,-60.5 806.0815,-60.5"/>
<text text-anchor="middle" x="868" y="-66.5" font-family="Helvetica,sans-Serif" font-size="10.00" fill="#000000">cereal/archives/json.hpp</text>
</g>
<!-- Node20&#45;&gt;Node22 -->
<g id="edge33" class="edge">
<title>Node20&#45;&gt;Node22</title>
<path fill="none" stroke="#191970" d="M1097.0138,-125.462C1049.5039,-113.8524 966.9936,-93.6902 915.0595,-80.9995"/>
<polygon fill="#191970" stroke="#191970" points="915.6449,-77.5396 905.0998,-78.5658 913.9832,-84.3396 915.6449,-77.5396"/>
</g>
<!-- Node23 -->
<g id="node24" class="node">
<title>Node23</title>
<polygon fill="#ffffff" stroke="#bfbfbf" points="947.9165,-55.5 947.9165,-83.5 1070.0835,-83.5 1070.0835,-55.5 947.9165,-55.5"/>
<text text-anchor="start" x="955.9165" y="-71.5" font-family="Helvetica,sans-Serif" font-size="10.00" fill="#000000">cereal/archives/portable</text>
<text text-anchor="middle" x="1009" y="-61.5" font-family="Helvetica,sans-Serif" font-size="10.00" fill="#000000">_binary.hpp</text>
</g>
<!-- Node20&#45;&gt;Node23 -->
<g id="edge34" class="edge">
<title>Node20&#45;&gt;Node23</title>
<path fill="none" stroke="#191970" d="M1116.6193,-125.462C1098.2605,-115.9155 1068.7803,-100.5857 1045.313,-88.3828"/>
<polygon fill="#191970" stroke="#191970" points="1046.8125,-85.2176 1036.3256,-83.7093 1043.583,-91.4281 1046.8125,-85.2176"/>
</g>
<!-- Node24 -->
<g id="node25" class="node">
<title>Node24</title>
<polygon fill="#ffffff" stroke="#bfbfbf" points="1087.6431,-60.5 1087.6431,-78.5 1180.3569,-78.5 1180.3569,-60.5 1087.6431,-60.5"/>
<text text-anchor="middle" x="1134" y="-66.5" font-family="Helvetica,sans-Serif" font-size="10.00" fill="#000000">cereal/cereal.hpp</text>
</g>
<!-- Node20&#45;&gt;Node24 -->
<g id="edge35" class="edge">
<title>Node20&#45;&gt;Node24</title>
<path fill="none" stroke="#191970" d="M1134,-125.462C1134,-116.061 1134,-101.0518 1134,-88.943"/>
<polygon fill="#191970" stroke="#191970" points="1137.5001,-88.8821 1134,-78.8821 1130.5001,-88.8822 1137.5001,-88.8821"/>
</g>
<!-- Node25 -->
<g id="node26" class="node">
<title>Node25</title>
<polygon fill="#ffffff" stroke="#bfbfbf" points="1197.8984,-60.5 1197.8984,-78.5 1312.1016,-78.5 1312.1016,-60.5 1197.8984,-60.5"/>
<text text-anchor="middle" x="1255" y="-66.5" font-family="Helvetica,sans-Serif" font-size="10.00" fill="#000000">cereal/types/array.hpp</text>
</g>
<!-- Node20&#45;&gt;Node25 -->
<g id="edge36" class="edge">
<title>Node20&#45;&gt;Node25</title>
<path fill="none" stroke="#191970" d="M1150.8245,-125.462C1171.0284,-114.6087 1205.1468,-96.2806 1228.8077,-83.5702"/>
<polygon fill="#191970" stroke="#191970" points="1230.7752,-86.4864 1237.9283,-78.6708 1227.4626,-80.3198 1230.7752,-86.4864"/>
</g>
<!-- Node26 -->
<g id="node27" class="node">
<title>Node26</title>
<polygon fill="#ffffff" stroke="#bfbfbf" points="1329.9707,-60.5 1329.9707,-78.5 1446.0293,-78.5 1446.0293,-60.5 1329.9707,-60.5"/>
<text text-anchor="middle" x="1388" y="-66.5" font-family="Helvetica,sans-Serif" font-size="10.00" fill="#000000">cereal/types/bitset.hpp</text>
</g>
<!-- Node20&#45;&gt;Node26 -->
<g id="edge37" class="edge">
<title>Node20&#45;&gt;Node26</title>
<path fill="none" stroke="#191970" d="M1169.3176,-125.462C1214.5898,-113.8766 1293.1442,-93.7741 1342.7531,-81.0789"/>
<polygon fill="#191970" stroke="#191970" points="1343.7537,-84.4357 1352.5738,-78.5658 1342.0183,-77.6543 1343.7537,-84.4357"/>
</g>
<!-- Node27 -->
<g id="node28" class="node">
<title>Node27</title>
<polygon fill="#ffffff" stroke="#bfbfbf" points="1464.1382,-55.5 1464.1382,-83.5 1571.8618,-83.5 1571.8618,-55.5 1464.1382,-55.5"/>
<text text-anchor="start" x="1472.1382" y="-71.5" font-family="Helvetica,sans-Serif" font-size="10.00" fill="#000000">cereal/types/boost</text>
<text text-anchor="middle" x="1518" y="-61.5" font-family="Helvetica,sans-Serif" font-size="10.00" fill="#000000">_dynamic_bitset.hpp</text>
</g>
<!-- Node20&#45;&gt;Node27 -->
<g id="edge38" class="edge">
<title>Node20&#45;&gt;Node27</title>
<path fill="none" stroke="#191970" d="M1184.7847,-127.6335C1246.1844,-119.0824 1352.8563,-103.43 1454.0115,-84.1103"/>
<polygon fill="#191970" stroke="#191970" points="1454.9389,-87.4961 1464.0966,-82.1682 1453.6151,-80.6224 1454.9389,-87.4961"/>
</g>
<!-- Node28 -->
<g id="node29" class="node">
<title>Node28</title>
<polygon fill="#ffffff" stroke="#bfbfbf" points="1590.0913,-55.5 1590.0913,-83.5 1683.9087,-83.5 1683.9087,-55.5 1590.0913,-55.5"/>
<text text-anchor="start" x="1598.0913" y="-71.5" font-family="Helvetica,sans-Serif" font-size="10.00" fill="#000000">cereal/types/eastl</text>
<text text-anchor="middle" x="1637" y="-61.5" font-family="Helvetica,sans-Serif" font-size="10.00" fill="#000000">_bitset.hpp</text>
</g>
<!-- Node20&#45;&gt;Node28 -->
<g id="edge39" class="edge">
<title>Node20&#45;&gt;Node28</title>
<path fill="none" stroke="#191970" d="M1184.6185,-131.1157C1265.9684,-125.1674 1430.9213,-111.0089 1579.8167,-84.0467"/>
<polygon fill="#191970" stroke="#191970" points="1580.8498,-87.4157 1590.0536,-82.1678 1579.5861,-80.5307 1580.8498,-87.4157"/>
</g>
<!-- Node29 -->
<g id="node30" class="node">
<title>Node29</title>
<polygon fill="#ffffff" stroke="#bfbfbf" points="1701.6875,-60.5 1701.6875,-78.5 1818.3125,-78.5 1818.3125,-60.5 1701.6875,-60.5"/>
<text text-anchor="middle" x="1760" y="-66.5" font-family="Helvetica,sans-Serif" font-size="10.00" fill="#000000">cereal/types/eigen.hpp</text>
</g>
<!-- Node20&#45;&gt;Node29 -->
<g id="edge40" class="edge">
<title>Node20&#45;&gt;Node29</title>
<path fill="none" stroke="#191970" d="M1184.7401,-132.0114C1283.1978,-126.7201 1506.85,-112.4411 1693,-84 1699.2537,-83.0445 1705.799,-81.8607 1712.2453,-80.5845"/>
<polygon fill="#191970" stroke="#191970" points="1713.1511,-83.9714 1722.2374,-78.5226 1711.7363,-77.1158 1713.1511,-83.9714"/>
</g>
<!-- Node30 -->
<g id="node31" class="node">
<title>Node30</title>
<polygon fill="#ffffff" stroke="#bfbfbf" points="146.1948,-60.5 146.1948,-78.5 257.8052,-78.5 257.8052,-60.5 146.1948,-60.5"/>
<text text-anchor="middle" x="202" y="-66.5" font-family="Helvetica,sans-Serif" font-size="10.00" fill="#000000">cereal/types/map.hpp</text>
</g>
<!-- Node20&#45;&gt;Node30 -->
<g id="edge41" class="edge">
<title>Node20&#45;&gt;Node30</title>
<path fill="none" stroke="#191970" d="M1083.1985,-129.9068C1048.0598,-126.8298 1000.2142,-122.8379 958,-120 651.165,-99.3724 571.6977,-125.624 267,-84 260.685,-83.1373 254.0758,-81.9738 247.5918,-80.6791"/>
<polygon fill="#191970" stroke="#191970" points="248.0737,-77.2037 237.5661,-78.5608 246.6266,-84.0525 248.0737,-77.2037"/>
</g>
<!-- Node31 -->
<g id="node32" class="node">
<title>Node31</title>
<polygon fill="#ffffff" stroke="#bfbfbf" points="276.2334,-60.5 276.2334,-78.5 403.7666,-78.5 403.7666,-60.5 276.2334,-60.5"/>
<text text-anchor="middle" x="340" y="-66.5" font-family="Helvetica,sans-Serif" font-size="10.00" fill="#000000">cereal/types/memory.hpp</text>
</g>
<!-- Node20&#45;&gt;Node31 -->
<g id="edge42" class="edge">
<title>Node20&#45;&gt;Node31</title>
<path fill="none" stroke="#191970" d="M1083.1852,-130.0938C1048.0407,-127.1003 1000.1935,-123.1314 958,-120 715.9157,-102.0335 653.6696,-115.7139 413,-84 405.7781,-83.0483 398.1968,-81.8127 390.7647,-80.4642"/>
<polygon fill="#191970" stroke="#191970" points="391.2468,-76.9933 380.7702,-78.5715 389.9443,-83.8711 391.2468,-76.9933"/>
</g>
<!-- Node32 -->
<g id="node33" class="node">
<title>Node32</title>
<polygon fill="#ffffff" stroke="#bfbfbf" points="421.8984,-60.5 421.8984,-78.5 536.1016,-78.5 536.1016,-60.5 421.8984,-60.5"/>
<text text-anchor="middle" x="479" y="-66.5" font-family="Helvetica,sans-Serif" font-size="10.00" fill="#000000">cereal/types/utility.hpp</text>
</g>
<!-- Node20&#45;&gt;Node32 -->
<g id="edge43" class="edge">
<title>Node20&#45;&gt;Node32</title>
<path fill="none" stroke="#191970" d="M1083.0129,-130.2989C944.9444,-118.8991 572.3743,-87.97 546,-84 539.7442,-83.0584 533.1977,-81.8826 526.7508,-80.6105"/>
<polygon fill="#191970" stroke="#191970" points="527.2587,-77.1417 516.7582,-78.5521 525.8463,-83.9978 527.2587,-77.1417"/>
</g>
<!-- Node33 -->
<g id="node34" class="node">
<title>Node33</title>
<polygon fill="#ffffff" stroke="#bfbfbf" points="554.5791,-60.5 554.5791,-78.5 673.4209,-78.5 673.4209,-60.5 554.5791,-60.5"/>
<text text-anchor="middle" x="614" y="-66.5" font-family="Helvetica,sans-Serif" font-size="10.00" fill="#000000">cereal/types/vector.hpp</text>
</g>
<!-- Node20&#45;&gt;Node33 -->
<g id="edge44" class="edge">
<title>Node20&#45;&gt;Node33</title>
<path fill="none" stroke="#191970" d="M1083.3969,-130.4238C999.7432,-123.3295 827.4951,-107.2177 683,-84 676.7343,-82.9932 670.1765,-81.7995 663.702,-80.5359"/>
<polygon fill="#191970" stroke="#191970" points="664.1446,-77.0548 653.6501,-78.5096 662.7612,-83.9168 664.1446,-77.0548"/>
</g>
<!-- Node20&#45;&gt;Node34 -->
<g id="edge45" class="edge">
<title>Node20&#45;&gt;Node34</title>
<path fill="none" stroke="#191970" d="M1083.2057,-129.796C1048.0702,-126.6696 1000.2256,-122.6642 958,-120 775.7427,-108.5006 316.1305,-119.5278 137,-84 133.9818,-83.4014 130.8867,-82.6137 127.8197,-81.7142"/>
<polygon fill="#191970" stroke="#191970" points="128.8402,-78.3654 118.2471,-78.5553 126.6466,-85.0128 128.8402,-78.3654"/>
</g>
<!-- Node35&#45;&gt;Node20 -->
<g id="edge49" class="edge">
<title>Node35&#45;&gt;Node20</title>
<path fill="none" stroke="#191970" d="M1667.9281,-190.4436C1659.8436,-188.4093 1651.146,-186.4319 1643,-185 1482.4551,-156.7804 1290.4451,-143.0656 1194.6362,-137.5636"/>
<polygon fill="#191970" stroke="#191970" points="1194.7338,-134.0636 1184.5525,-136.9945 1194.3394,-141.0525 1194.7338,-134.0636"/>
</g>
<!-- Node35&#45;&gt;Node34 -->
<g id="edge47" class="edge">
<title>Node35&#45;&gt;Node34</title>
<path fill="none" stroke="#191970" d="M1656.6239,-191.6781C1641.8685,-189.2397 1625.2531,-186.7372 1610,-185 1372.7746,-157.9825 1311.8301,-170.04 1074,-149 956.4201,-138.5981 927.648,-129.6008 810,-120 511.4537,-95.6369 430.5319,-143.6864 137,-84 133.9847,-83.3869 130.8916,-82.5894 127.8258,-81.6837"/>
<polygon fill="#191970" stroke="#191970" points="128.8483,-78.3354 118.255,-78.5157 126.6486,-84.9809 128.8483,-78.3354"/>
</g>
<!-- Node36 -->
<g id="node37" class="node">
<title>Node36</title>
<polygon fill="#ffffff" stroke="#bfbfbf" points="1680.6084,-125.5 1680.6084,-143.5 1719.3916,-143.5 1719.3916,-125.5 1680.6084,-125.5"/>
<text text-anchor="middle" x="1700" y="-131.5" font-family="Helvetica,sans-Serif" font-size="10.00" fill="#000000">utility</text>
</g>
<!-- Node35&#45;&gt;Node36 -->
<g id="edge48" class="edge">
<title>Node35&#45;&gt;Node36</title>
<path fill="none" stroke="#191970" d="M1700,-190.462C1700,-181.061 1700,-166.0518 1700,-153.943"/>
<polygon fill="#191970" stroke="#191970" points="1703.5001,-153.8821 1700,-143.8821 1696.5001,-153.8822 1703.5001,-153.8821"/>
</g>
<!-- Node39&#45;&gt;Node1 -->
<g id="edge59" class="edge">
<title>Node39&#45;&gt;Node1</title>
<path fill="none" stroke="#191970" d="M2218.9218,-370.3548C2209.7299,-361.9895 2197.3334,-348.7064 2192,-334 2178.248,-296.0804 2195.9836,-249.8766 2209.7442,-222.6774"/>
<polygon fill="#191970" stroke="#191970" points="2212.9817,-224.0424 2214.5683,-213.5671 2206.7955,-220.7666 2212.9817,-224.0424"/>
</g>
<!-- Node39&#45;&gt;Node2 -->
<g id="edge60" class="edge">
<title>Node39&#45;&gt;Node2</title>
<path fill="none" stroke="#191970" d="M2215.4955,-370.4216C2161.0771,-336.0197 1970.6069,-212.4245 1940,-149 1930.9347,-130.2146 1932.5724,-105.9033 1935.4358,-89.1369"/>
<polygon fill="#191970" stroke="#191970" points="1938.955,-89.3896 1937.4974,-78.8955 1932.0927,-88.0081 1938.955,-89.3896"/>
</g>
<!-- Node39&#45;&gt;Node4 -->
<g id="edge65" class="edge">
<title>Node39&#45;&gt;Node4</title>
<path fill="none" stroke="#191970" d="M2159.3621,-376.7605C2024.7673,-370.0761 1723.285,-348.0394 1480,-279 1406.1604,-258.0458 1362.8602,-277.6739 1320,-214 1312.8028,-203.3077 1311.8248,-194.9644 1320,-185 1338.2167,-162.7964 1808.7833,-106.2036 1827,-84 1835.1752,-74.0356 1835.8768,-64.3449 1827,-55 1797.3212,-23.7561 1141.5362,-12.3477 978.4616,-9.9885"/>
<polygon fill="#191970" stroke="#191970" points="978.4934,-6.4887 968.4446,-9.8461 978.3938,-13.488 978.4934,-6.4887"/>
</g>
<!-- Node39&#45;&gt;Node8 -->
<g id="edge63" class="edge">
<title>Node39&#45;&gt;Node8</title>
<path fill="none" stroke="#191970" d="M2242.0232,-370.3687C2253.7227,-361.3752 2271.895,-347.1178 2287,-334 2377.442,-255.4565 2401.0364,-236.3545 2483,-149 2502.2631,-128.4699 2522.712,-103.234 2535.6534,-86.7774"/>
<polygon fill="#191970" stroke="#191970" points="2538.6232,-88.6609 2542.0155,-78.6238 2533.1044,-84.3547 2538.6232,-88.6609"/>
</g>
<!-- Node39&#45;&gt;Node11 -->
<g id="edge68" class="edge">
<title>Node39&#45;&gt;Node11</title>
<path fill="none" stroke="#191970" d="M2240.0303,-370.3944C2248.7936,-361.8567 2261.1545,-348.2949 2268,-334 2296.9705,-273.5032 2313.4521,-248.5529 2292,-185 2278.2024,-144.1239 2243.5254,-106.2829 2222.051,-85.6864"/>
<polygon fill="#191970" stroke="#191970" points="2224.2345,-82.9365 2214.5382,-78.6666 2219.4554,-88.0512 2224.2345,-82.9365"/>
</g>
<!-- Node39&#45;&gt;Node13 -->
<g id="edge61" class="edge">
<title>Node39&#45;&gt;Node13</title>
<path fill="none" stroke="#191970" d="M2169.1523,-370.4795C2098.0764,-359.9426 1981.5582,-342.669 1913.3839,-332.5623"/>
<polygon fill="#191970" stroke="#191970" points="1913.6849,-329.0687 1903.2797,-331.0644 1912.6583,-335.9931 1913.6849,-329.0687"/>
</g>
<!-- Node39&#45;&gt;Node15 -->
<g id="edge62" class="edge">
<title>Node39&#45;&gt;Node15</title>
<path fill="none" stroke="#191970" d="M2207.8404,-370.3359C2185.7949,-361.1987 2151.0171,-346.7298 2121,-334 2034.1237,-297.1571 2017.003,-274.9668 1926,-250 1805.8524,-217.0373 1771.465,-230.6841 1648,-214 1635.9764,-212.3752 1623.1693,-210.6045 1610.8182,-208.8764"/>
<polygon fill="#191970" stroke="#191970" points="1610.9671,-205.3631 1600.5777,-207.439 1609.994,-212.2951 1610.9671,-205.3631"/>
</g>
<!-- Node39&#45;&gt;Node40 -->
<g id="edge64" class="edge">
<title>Node39&#45;&gt;Node40</title>
<path fill="none" stroke="#191970" d="M2253.2833,-370.4179C2278.1134,-360.7323 2317.4055,-345.4057 2343.6814,-335.1562"/>
<polygon fill="#191970" stroke="#191970" points="2345.0129,-338.3937 2353.0573,-331.4989 2342.469,-331.8723 2345.0129,-338.3937"/>
</g>
<!-- Node39&#45;&gt;Node41 -->
<g id="edge66" class="edge">
<title>Node39&#45;&gt;Node41</title>
<path fill="none" stroke="#191970" d="M2268.7858,-370.4836C2300.9642,-362.6739 2348.0343,-350.4929 2396.3377,-334.3033"/>
<polygon fill="#191970" stroke="#191970" points="2397.6712,-337.5467 2406.0108,-331.0121 2395.4163,-330.9198 2397.6712,-337.5467"/>
</g>
<!-- Node42 -->
<g id="node43" class="node">
<title>Node42</title>
<polygon fill="#ffffff" stroke="#bfbfbf" points="2200.5986,-315.5 2200.5986,-333.5 2259.4014,-333.5 2259.4014,-315.5 2200.5986,-315.5"/>
<text text-anchor="middle" x="2230" y="-321.5" font-family="Helvetica,sans-Serif" font-size="10.00" fill="#000000">stdexcept</text>
</g>
<!-- Node39&#45;&gt;Node42 -->
<g id="edge67" class="edge">
<title>Node39&#45;&gt;Node42</title>
<path fill="none" stroke="#191970" d="M2230,-370.4179C2230,-363.2164 2230,-352.8962 2230,-343.8632"/>
<polygon fill="#191970" stroke="#191970" points="2233.5001,-343.7794 2230,-333.7795 2226.5001,-343.7795 2233.5001,-343.7794"/>
</g>
</g>
</svg>
