<?xml version="1.0" encoding="UTF-8" standalone="no"?>
<!DOCTYPE svg PUBLIC "-//W3C//DTD SVG 1.1//EN"
 "http://www.w3.org/Graphics/SVG/1.1/DTD/svg11.dtd">
<!-- Generated by graphviz version 2.40.1 (20161225.0304)
 -->
<!-- Title: include/indigox/classes/dihedral.hpp Pages: 1 -->
<!--zoomable 157 -->
<svg id="main" version="1.1" xmlns="http://www.w3.org/2000/svg" xmlns:xlink="http://www.w3.org/1999/xlink" xml:space="preserve" onload="init(evt)">
<style type="text/css"><![CDATA[
.edge:hover path { stroke: red; }
.edge:hover polygon { stroke: red; fill: red; }
]]></style>
<script type="text/javascript"><![CDATA[
var edges = document.getElementsByTagName('g');
if (edges && edges.length) {
  for (var i=0;i<edges.length;i++) {
    if (edges[i].id.substr(0,4)=='edge') {
      edges[i].setAttribute('class','edge');
    }
  }
}
]]></script>
        <defs>
                <circle id="rim" cx="0" cy="0" r="7"/>
                <circle id="rim2" cx="0" cy="0" r="3.5"/>
                <g id="zoomPlus">
                        <use xlink:href="#rim" fill="#404040">
                                <set attributeName="fill" to="#808080" begin="zoomplus.mouseover" end="zoomplus.mouseout"/>
                        </use>
                        <path d="M-4,0h8M0,-4v8" fill="none" stroke="white" stroke-width="1.5" pointer-events="none"/>
                </g>
                <g id="zoomMin">
                        <use xlink:href="#rim" fill="#404040">
                                <set attributeName="fill" to="#808080" begin="zoomminus.mouseover" end="zoomminus.mouseout"/>
                        </use>
                        <path d="M-4,0h8" fill="none" stroke="white" stroke-width="1.5" pointer-events="none"/>
                </g>
                <g id="dirArrow">
                        <path fill="none" stroke="white" stroke-width="1.5" d="M0,-3.0v7 M-2.5,-0.5L0,-3.0L2.5,-0.5"/>
                </g>
               <g id="resetDef">
                       <use xlink:href="#rim2" fill="#404040">
                               <set attributeName="fill" to="#808080" begin="reset.mouseover" end="reset.mouseout"/>
                       </use>
               </g>
        </defs>

<script type="text/javascript">
var viewWidth = 1224;
var viewHeight = 157;
var sectionId = 'dynsection-1';
</script>
<script xlink:href="svgpan.js"/>
<svg id="graph" class="graph">
<g id="viewport">
<title>include/indigox/classes/dihedral.hpp</title>
<polygon fill="#ffffff" stroke="transparent" points="-4,4 -4,-153 1220.209,-153 1220.209,4 -4,4"/>
<!-- Node23 -->
<g id="node1" class="node">
<title>Node23</title>
<polygon fill="#bfbfbf" stroke="#000000" points="656.542,-120.5 656.542,-148.5 774.8223,-148.5 774.8223,-120.5 656.542,-120.5"/>
<text text-anchor="start" x="664.542" y="-136.5" font-family="Helvetica,sans-Serif" font-size="10.00" fill="#000000">include/indigox/classes</text>
<text text-anchor="middle" x="715.6821" y="-126.5" font-family="Helvetica,sans-Serif" font-size="10.00" fill="#000000">/dihedral.hpp</text>
</g>
<!-- Node24 -->
<g id="node2" class="node">
<title>Node24</title>
<g id="a_node2"><a xlink:href="molecule__impl_8hpp.html" target="_top" xlink:title="include/indigox/classes\l/molecule_impl.hpp">
<polygon fill="#ffffff" stroke="#000000" points="440.542,-55.5 440.542,-83.5 558.8223,-83.5 558.8223,-55.5 440.542,-55.5"/>
<text text-anchor="start" x="448.542" y="-71.5" font-family="Helvetica,sans-Serif" font-size="10.00" fill="#000000">include/indigox/classes</text>
<text text-anchor="middle" x="499.6821" y="-61.5" font-family="Helvetica,sans-Serif" font-size="10.00" fill="#000000">/molecule_impl.hpp</text>
</a>
</g>
</g>
<!-- Node23&#45;&gt;Node24 -->
<g id="edge1" class="edge">
<title>Node23&#45;&gt;Node24</title>
<path fill="none" stroke="#191970" d="M659.4548,-117.5797C624.3722,-107.0225 579.7422,-93.5921 546.5738,-83.6109"/>
<polygon fill="#191970" stroke="#191970" points="658.4949,-120.9458 669.0793,-120.476 660.512,-114.2428 658.4949,-120.9458"/>
</g>
<!-- Node26 -->
<g id="node4" class="node">
<title>Node26</title>
<g id="a_node4"><a xlink:href="atom_8cpp.html" target="_top" xlink:title="src/classes/atom.cpp">
<polygon fill="#ffffff" stroke="#000000" points="0,-.5 0,-18.5 109.3643,-18.5 109.3643,-.5 0,-.5"/>
<text text-anchor="middle" x="54.6821" y="-6.5" font-family="Helvetica,sans-Serif" font-size="10.00" fill="#000000">src/classes/atom.cpp</text>
</a>
</g>
</g>
<!-- Node23&#45;&gt;Node26 -->
<g id="edge11" class="edge">
<title>Node23&#45;&gt;Node26</title>
<path fill="none" stroke="#191970" d="M646.261,-122.5374C588.7198,-112.5303 504.812,-97.7263 431.6821,-84 311.1935,-61.3846 169.442,-32.8524 99.0271,-18.5486"/>
<polygon fill="#191970" stroke="#191970" points="645.8809,-126.0237 656.3324,-124.2868 647.0789,-119.127 645.8809,-126.0237"/>
</g>
<!-- Node28 -->
<g id="node6" class="node">
<title>Node28</title>
<g id="a_node6"><a xlink:href="dihedral_8cpp.html" target="_top" xlink:title="src/classes/dihedral.cpp">
<polygon fill="#ffffff" stroke="#000000" points="662.3252,-.5 662.3252,-18.5 785.0391,-18.5 785.0391,-.5 662.3252,-.5"/>
<text text-anchor="middle" x="723.6821" y="-6.5" font-family="Helvetica,sans-Serif" font-size="10.00" fill="#000000">src/classes/dihedral.cpp</text>
</a>
</g>
</g>
<!-- Node23&#45;&gt;Node28 -->
<g id="edge12" class="edge">
<title>Node23&#45;&gt;Node28</title>
<path fill="none" stroke="#191970" d="M706.5507,-110.7784C701.6542,-94.9081 697.4209,-73.6019 701.6821,-55 704.7385,-41.6578 712.2393,-27.6805 717.633,-18.7966"/>
<polygon fill="#191970" stroke="#191970" points="703.2644,-111.9862 709.7816,-120.3394 709.896,-109.7452 703.2644,-111.9862"/>
</g>
<!-- Node29 -->
<g id="node7" class="node">
<title>Node29</title>
<g id="a_node7"><a xlink:href="molecule_8cpp.html" target="_top" xlink:title="src/classes/molecule.cpp">
<polygon fill="#ffffff" stroke="#000000" points="803.106,-.5 803.106,-18.5 930.2583,-18.5 930.2583,-.5 803.106,-.5"/>
<text text-anchor="middle" x="866.6821" y="-6.5" font-family="Helvetica,sans-Serif" font-size="10.00" fill="#000000">src/classes/molecule.cpp</text>
</a>
</g>
</g>
<!-- Node23&#45;&gt;Node29 -->
<g id="edge13" class="edge">
<title>Node23&#45;&gt;Node29</title>
<path fill="none" stroke="#191970" d="M715.5644,-110.2851C716.7515,-92.894 721.1017,-69.9712 734.6821,-55 747.3444,-41.0409 793.3269,-27.2522 827.4789,-18.5772"/>
<polygon fill="#191970" stroke="#191970" points="712.0671,-110.1509 715.1798,-120.2781 719.0619,-110.4202 712.0671,-110.1509"/>
</g>
<!-- Node32 -->
<g id="node10" class="node">
<title>Node32</title>
<g id="a_node10"><a xlink:href="cherrypicker_8cpp.html" target="_top" xlink:title="src/algorithm/cherrypicker.cpp">
<polygon fill="#ffffff" stroke="#000000" points="743.2686,-60.5 743.2686,-78.5 892.0957,-78.5 892.0957,-60.5 743.2686,-60.5"/>
<text text-anchor="middle" x="817.6821" y="-66.5" font-family="Helvetica,sans-Serif" font-size="10.00" fill="#000000">src/algorithm/cherrypicker.cpp</text>
</a>
</g>
</g>
<!-- Node23&#45;&gt;Node32 -->
<g id="edge9" class="edge">
<title>Node23&#45;&gt;Node32</title>
<path fill="none" stroke="#191970" d="M746.4246,-114.9092C765.361,-102.8419 788.7465,-87.9394 803.4424,-78.5743"/>
<polygon fill="#191970" stroke="#191970" points="744.3669,-112.0702 737.8146,-120.396 748.1288,-117.9734 744.3669,-112.0702"/>
</g>
<!-- Node33 -->
<g id="node11" class="node">
<title>Node33</title>
<g id="a_node11"><a xlink:href="athenaeum_8cpp.html" target="_top" xlink:title="src/classes/athenaeum.cpp">
<polygon fill="#ffffff" stroke="#000000" points="910.0962,-60.5 910.0962,-78.5 1047.2681,-78.5 1047.2681,-60.5 910.0962,-60.5"/>
<text text-anchor="middle" x="978.6821" y="-66.5" font-family="Helvetica,sans-Serif" font-size="10.00" fill="#000000">src/classes/athenaeum.cpp</text>
</a>
</g>
</g>
<!-- Node23&#45;&gt;Node33 -->
<g id="edge10" class="edge">
<title>Node23&#45;&gt;Node33</title>
<path fill="none" stroke="#191970" d="M782.3357,-118.0267C833.0985,-105.4807 901.0585,-88.6845 942.2604,-78.5016"/>
<polygon fill="#191970" stroke="#191970" points="781.2935,-114.6789 772.4254,-120.476 782.9731,-121.4744 781.2935,-114.6789"/>
</g>
<!-- Node34 -->
<g id="node12" class="node">
<title>Node34</title>
<g id="a_node12"><a xlink:href="parameterised_8cpp.html" target="_top" xlink:title="src/classes/parameterised.cpp">
<polygon fill="#ffffff" stroke="#000000" points="1065.1553,-60.5 1065.1553,-78.5 1216.209,-78.5 1216.209,-60.5 1065.1553,-60.5"/>
<text text-anchor="middle" x="1140.6821" y="-66.5" font-family="Helvetica,sans-Serif" font-size="10.00" fill="#000000">src/classes/parameterised.cpp</text>
</a>
</g>
</g>
<!-- Node23&#45;&gt;Node34 -->
<g id="edge14" class="edge">
<title>Node23&#45;&gt;Node34</title>
<path fill="none" stroke="#191970" d="M785.1864,-124.7032C854.1483,-114.866 962.8165,-99.0498 1056.6821,-84 1067.3492,-82.2897 1078.763,-80.3758 1089.6305,-78.5134"/>
<polygon fill="#191970" stroke="#191970" points="784.2939,-121.2949 774.8873,-126.17 785.2809,-128.225 784.2939,-121.2949"/>
</g>
<!-- Node25 -->
<g id="node3" class="node">
<title>Node25</title>
<g id="a_node3"><a xlink:href="angle_8cpp.html" target="_top" xlink:title="src/classes/angle.cpp">
<polygon fill="#ffffff" stroke="#000000" points="532.8818,-.5 532.8818,-18.5 644.4824,-18.5 644.4824,-.5 532.8818,-.5"/>
<text text-anchor="middle" x="588.6821" y="-6.5" font-family="Helvetica,sans-Serif" font-size="10.00" fill="#000000">src/classes/angle.cpp</text>
</a>
</g>
</g>
<!-- Node24&#45;&gt;Node25 -->
<g id="edge2" class="edge">
<title>Node24&#45;&gt;Node25</title>
<path fill="none" stroke="#191970" d="M529.0792,-49.6818C544.6496,-39.1849 563.0189,-26.8011 575.2072,-18.5842"/>
<polygon fill="#191970" stroke="#191970" points="527.1091,-46.7888 520.7739,-55.2808 531.0221,-52.593 527.1091,-46.7888"/>
</g>
<!-- Node24&#45;&gt;Node26 -->
<g id="edge3" class="edge">
<title>Node24&#45;&gt;Node26</title>
<path fill="none" stroke="#191970" d="M430.4104,-60.728C353.8384,-50.9416 226.8726,-34.4487 117.6821,-19 115.0536,-18.6281 112.3643,-18.2425 109.6485,-17.8489"/>
<polygon fill="#191970" stroke="#191970" points="430.0505,-64.2103 440.4132,-62.0049 430.9369,-57.2667 430.0505,-64.2103"/>
</g>
<!-- Node27 -->
<g id="node5" class="node">
<title>Node27</title>
<g id="a_node5"><a xlink:href="bond_8cpp.html" target="_top" xlink:title="src/classes/bond.cpp">
<polygon fill="#ffffff" stroke="#000000" points="126.9927,-.5 126.9927,-18.5 236.3716,-18.5 236.3716,-.5 126.9927,-.5"/>
<text text-anchor="middle" x="181.6821" y="-6.5" font-family="Helvetica,sans-Serif" font-size="10.00" fill="#000000">src/classes/bond.cpp</text>
</a>
</g>
</g>
<!-- Node24&#45;&gt;Node27 -->
<g id="edge4" class="edge">
<title>Node24&#45;&gt;Node27</title>
<path fill="none" stroke="#191970" d="M430.3386,-56.4163C369.5335,-44.9437 282.7409,-28.5677 229.4196,-18.5071"/>
<polygon fill="#191970" stroke="#191970" points="429.7662,-59.87 440.2418,-58.2848 431.0641,-52.9914 429.7662,-59.87"/>
</g>
<!-- Node24&#45;&gt;Node28 -->
<g id="edge5" class="edge">
<title>Node24&#45;&gt;Node28</title>
<path fill="none" stroke="#191970" d="M561.9237,-52.8282C603.3312,-41.7369 656.1278,-27.5949 689.9264,-18.5417"/>
<polygon fill="#191970" stroke="#191970" points="560.9541,-49.4644 552.2002,-55.4327 562.7653,-56.2261 560.9541,-49.4644"/>
</g>
<!-- Node24&#45;&gt;Node29 -->
<g id="edge6" class="edge">
<title>Node24&#45;&gt;Node29</title>
<path fill="none" stroke="#191970" d="M569.1564,-58.1418C639.5085,-46.6401 746.9021,-29.0826 811.5958,-18.5059"/>
<polygon fill="#191970" stroke="#191970" points="568.3592,-54.7256 559.0549,-59.7933 569.4886,-61.6339 568.3592,-54.7256"/>
</g>
<!-- Node30 -->
<g id="node8" class="node">
<title>Node30</title>
<g id="a_node8"><a xlink:href="residue_8cpp.html" target="_top" xlink:title="src/classes/residue.cpp">
<polygon fill="#ffffff" stroke="#000000" points="254.7168,-.5 254.7168,-18.5 374.6475,-18.5 374.6475,-.5 254.7168,-.5"/>
<text text-anchor="middle" x="314.6821" y="-6.5" font-family="Helvetica,sans-Serif" font-size="10.00" fill="#000000">src/classes/residue.cpp</text>
</a>
</g>
</g>
<!-- Node24&#45;&gt;Node30 -->
<g id="edge7" class="edge">
<title>Node24&#45;&gt;Node30</title>
<path fill="none" stroke="#191970" d="M446.5378,-52.264C412.6117,-41.261 370.0036,-27.4421 342.5608,-18.5417"/>
<polygon fill="#191970" stroke="#191970" points="445.7158,-55.6768 456.3078,-55.4327 447.8754,-49.0183 445.7158,-55.6768"/>
</g>
<!-- Node31 -->
<g id="node9" class="node">
<title>Node31</title>
<g id="a_node9"><a xlink:href="molecular_8cpp.html" target="_top" xlink:title="src/graph/molecular.cpp">
<polygon fill="#ffffff" stroke="#000000" points="392.5986,-.5 392.5986,-18.5 514.7656,-18.5 514.7656,-.5 392.5986,-.5"/>
<text text-anchor="middle" x="453.6821" y="-6.5" font-family="Helvetica,sans-Serif" font-size="10.00" fill="#000000">src/graph/molecular.cpp</text>
</a>
</g>
</g>
<!-- Node24&#45;&gt;Node31 -->
<g id="edge8" class="edge">
<title>Node24&#45;&gt;Node31</title>
<path fill="none" stroke="#191970" d="M482.6779,-47.3205C475.0515,-37.3731 466.4796,-26.1924 460.6467,-18.5842"/>
<polygon fill="#191970" stroke="#191970" points="479.9188,-49.4743 488.7808,-55.2808 485.474,-45.2152 479.9188,-49.4743"/>
</g>
</g>
</svg>
        <g id="navigator" transform="translate(0 0)" fill="#404254">
                <rect fill="#f2f5e9" fill-opacity="0.5" stroke="#606060" stroke-width=".5" x="0" y="0" width="60" height="60"/>
                <use id="zoomplus" xlink:href="#zoomPlus" x="17" y="9" onmousedown="handleZoom(evt,'in')"/>
                <use id="zoomminus" xlink:href="#zoomMin" x="42" y="9" onmousedown="handleZoom(evt,'out')"/>
                <use id="reset" xlink:href="#resetDef" x="30" y="36" onmousedown="handleReset()"/>
                <g id="arrowUp" xlink:href="#dirArrow" transform="translate(30 24)" onmousedown="handlePan(0,-1)">
                  <use xlink:href="#rim" fill="#404040">
                        <set attributeName="fill" to="#808080" begin="arrowUp.mouseover" end="arrowUp.mouseout"/>
                  </use>
                  <path fill="none" stroke="white" stroke-width="1.5" d="M0,-3.0v7 M-2.5,-0.5L0,-3.0L2.5,-0.5"/>
                </g>
                <g id="arrowRight" xlink:href="#dirArrow" transform="rotate(90) translate(36 -43)" onmousedown="handlePan(1,0)">
                  <use xlink:href="#rim" fill="#404040">
                        <set attributeName="fill" to="#808080" begin="arrowRight.mouseover" end="arrowRight.mouseout"/>
                  </use>
                  <path fill="none" stroke="white" stroke-width="1.5" d="M0,-3.0v7 M-2.5,-0.5L0,-3.0L2.5,-0.5"/>
                </g>
                <g id="arrowDown" xlink:href="#dirArrow" transform="rotate(180) translate(-30 -48)" onmousedown="handlePan(0,1)">
                  <use xlink:href="#rim" fill="#404040">
                        <set attributeName="fill" to="#808080" begin="arrowDown.mouseover" end="arrowDown.mouseout"/>
                  </use>
                  <path fill="none" stroke="white" stroke-width="1.5" d="M0,-3.0v7 M-2.5,-0.5L0,-3.0L2.5,-0.5"/>
                </g>
                <g id="arrowLeft" xlink:href="#dirArrow" transform="rotate(270) translate(-36 17)" onmousedown="handlePan(-1,0)">
                  <use xlink:href="#rim" fill="#404040">
                        <set attributeName="fill" to="#808080" begin="arrowLeft.mouseover" end="arrowLeft.mouseout"/>
                  </use>
                  <path fill="none" stroke="white" stroke-width="1.5" d="M0,-3.0v7 M-2.5,-0.5L0,-3.0L2.5,-0.5"/>
                </g>
        </g>
        <svg viewBox="0 0 15 15" width="100%" height="30px" preserveAspectRatio="xMaxYMin meet">
         <g id="arrow_out" transform="scale(0.3 0.3)">
          <a xlink:href="dihedral_8hpp__dep__incl_org.svg" target="_base">
           <rect id="button" ry="5" rx="5" y="6" x="6" height="38" width="38"
                fill="#f2f5e9" fill-opacity="0.5" stroke="#606060" stroke-width="1.0"/>
           <path id="arrow"
             d="M 11.500037,31.436501 C 11.940474,20.09759 22.043105,11.32322 32.158766,21.979434 L 37.068811,17.246167 C 37.068811,17.246167 37.088388,32 37.088388,32 L 22.160133,31.978069 C 22.160133,31.978069 26.997745,27.140456 26.997745,27.140456 C 18.528582,18.264221 13.291696,25.230495 11.500037,31.436501 z"
             style="fill:#404040;"/>
          </a>
         </g>
        </svg>
</svg>
