<?xml version="1.0" encoding="UTF-8" standalone="no"?>
<!DOCTYPE svg PUBLIC "-//W3C//DTD SVG 1.1//EN"
 "http://www.w3.org/Graphics/SVG/1.1/DTD/svg11.dtd">
<!-- Generated by graphviz version 2.40.1 (20161225.0304)
 -->
<!-- Title: src/classes/dihedral.cpp Pages: 1 -->
<svg width="3999pt" height="387pt"
 viewBox="0.00 0.00 3999.13 387.00" xmlns="http://www.w3.org/2000/svg" xmlns:xlink="http://www.w3.org/1999/xlink">
<g id="graph0" class="graph" transform="scale(1 1) rotate(0) translate(4 383)">
<title>src/classes/dihedral.cpp</title>
<polygon fill="#ffffff" stroke="transparent" points="-4,4 -4,-383 3995.1327,-383 3995.1327,4 -4,4"/>
<!-- Node0 -->
<g id="node1" class="node">
<title>Node0</title>
<polygon fill="#bfbfbf" stroke="#000000" points="1505.4513,-360.5 1505.4513,-378.5 1628.1652,-378.5 1628.1652,-360.5 1505.4513,-360.5"/>
<text text-anchor="middle" x="1566.8082" y="-366.5" font-family="Helvetica,sans-Serif" font-size="10.00" fill="#000000">src/classes/dihedral.cpp</text>
</g>
<!-- Node1 -->
<g id="node2" class="node">
<title>Node1</title>
<g id="a_node2"><a xlink:href="atom_8hpp.html" target="_top" xlink:title="indigox/classes/atom.hpp">
<polygon fill="#ffffff" stroke="#000000" points="29.6657,-125.5 29.6657,-143.5 157.9508,-143.5 157.9508,-125.5 29.6657,-125.5"/>
<text text-anchor="middle" x="93.8082" y="-131.5" font-family="Helvetica,sans-Serif" font-size="10.00" fill="#000000">indigox/classes/atom.hpp</text>
</a>
</g>
</g>
<!-- Node0&#45;&gt;Node1 -->
<g id="edge1" class="edge">
<title>Node0&#45;&gt;Node1</title>
<path fill="none" stroke="#191970" d="M1505.302,-368.5308C1323.1598,-365.348 788.569,-353.669 616.8082,-324 435.5886,-292.6972 390.3744,-275.1882 220.8082,-204 182.9972,-188.126 141.7964,-164.2558 116.885,-149.0297"/>
<polygon fill="#191970" stroke="#191970" points="118.5236,-145.928 108.1761,-143.6521 114.8458,-151.8841 118.5236,-145.928"/>
</g>
<!-- Node4 -->
<g id="node5" class="node">
<title>Node4</title>
<polygon fill="#ffffff" stroke="#bfbfbf" points="1601.7516,-.5 1601.7516,-18.5 1653.8649,-18.5 1653.8649,-.5 1601.7516,-.5"/>
<text text-anchor="middle" x="1627.8082" y="-6.5" font-family="Helvetica,sans-Serif" font-size="10.00" fill="#000000">memory</text>
</g>
<!-- Node0&#45;&gt;Node4 -->
<g id="edge103" class="edge">
<title>Node0&#45;&gt;Node4</title>
<path fill="none" stroke="#191970" d="M1628.1942,-368.1081C2005.0013,-359.3688 3988.8082,-310.463 3988.8082,-249.5 3988.8082,-249.5 3988.8082,-249.5 3988.8082,-134.5 3988.8082,-98.1716 3998.1061,-77.7812 3969.8082,-55 3922.8962,-17.2333 1956.4656,-10.3991 1664.0167,-9.591"/>
<polygon fill="#191970" stroke="#191970" points="1663.9577,-6.0909 1653.9482,-9.5638 1663.9387,-13.0909 1663.9577,-6.0909"/>
</g>
<!-- Node6 -->
<g id="node7" class="node">
<title>Node6</title>
<polygon fill="#ffffff" stroke="#bfbfbf" points="719.1925,-60.5 719.1925,-78.5 762.424,-78.5 762.424,-60.5 719.1925,-60.5"/>
<text text-anchor="middle" x="740.8082" y="-66.5" font-family="Helvetica,sans-Serif" font-size="10.00" fill="#000000">vector</text>
</g>
<!-- Node0&#45;&gt;Node6 -->
<g id="edge104" class="edge">
<title>Node0&#45;&gt;Node6</title>
<path fill="none" stroke="#191970" d="M1504.9764,-368.0548C1214.7666,-360.8737 1.8082,-326.2681 1.8082,-249.5 1.8082,-249.5 1.8082,-249.5 1.8082,-194.5 1.8082,-160.329 -5.4247,-141.8971 20.8082,-120 47.5896,-97.6451 572.7324,-75.9645 708.823,-70.7052"/>
<polygon fill="#191970" stroke="#191970" points="709.1475,-74.1954 719.0059,-70.3143 708.879,-67.2005 709.1475,-74.1954"/>
</g>
<!-- Node7 -->
<g id="node8" class="node">
<title>Node7</title>
<g id="a_node8"><a xlink:href="dihedral_8hpp.html" target="_top" xlink:title="indigox/classes/dihedral.hpp">
<polygon fill="#ffffff" stroke="#000000" points="2128.9909,-240.5 2128.9909,-258.5 2270.6256,-258.5 2270.6256,-240.5 2128.9909,-240.5"/>
<text text-anchor="middle" x="2199.8082" y="-246.5" font-family="Helvetica,sans-Serif" font-size="10.00" fill="#000000">indigox/classes/dihedral.hpp</text>
</a>
</g>
</g>
<!-- Node0&#45;&gt;Node7 -->
<g id="edge8" class="edge">
<title>Node0&#45;&gt;Node7</title>
<path fill="none" stroke="#191970" d="M1614.3861,-360.4805C1728.6274,-338.8234 2018.1174,-283.9438 2142.0581,-260.4479"/>
<polygon fill="#191970" stroke="#191970" points="2142.9377,-263.8436 2152.1108,-258.5422 2141.6339,-256.966 2142.9377,-263.8436"/>
</g>
<!-- Node11 -->
<g id="node12" class="node">
<title>Node11</title>
<g id="a_node12"><a xlink:href="serialise_8hpp.html" target="_top" xlink:title="serialise.hpp">
<polygon fill="#ffffff" stroke="#000000" points="2844.737,-125.5 2844.737,-143.5 2916.8795,-143.5 2916.8795,-125.5 2844.737,-125.5"/>
<text text-anchor="middle" x="2880.8082" y="-131.5" font-family="Helvetica,sans-Serif" font-size="10.00" fill="#000000">serialise.hpp</text>
</a>
</g>
</g>
<!-- Node0&#45;&gt;Node11 -->
<g id="edge102" class="edge">
<title>Node0&#45;&gt;Node11</title>
<path fill="none" stroke="#191970" d="M1628.3199,-361.6001C1694.6614,-352.9442 1803.3485,-338.3702 1896.8082,-324 2067.459,-297.7611 2110.136,-290.9612 2279.8082,-259 2487.5974,-219.8588 2734.3597,-166.5929 2834.8286,-144.617"/>
<polygon fill="#191970" stroke="#191970" points="2835.6349,-148.0234 2844.6548,-142.4654 2834.1375,-141.1855 2835.6349,-148.0234"/>
</g>
<!-- Node27 -->
<g id="node28" class="node">
<title>Node27</title>
<g id="a_node28"><a xlink:href="forcefield_8hpp.html" target="_top" xlink:title="indigox/classes/forcefield.hpp">
<polygon fill="#ffffff" stroke="#000000" points="1603.4933,-240.5 1603.4933,-258.5 1750.1232,-258.5 1750.1232,-240.5 1603.4933,-240.5"/>
<text text-anchor="middle" x="1676.8082" y="-246.5" font-family="Helvetica,sans-Serif" font-size="10.00" fill="#000000">indigox/classes/forcefield.hpp</text>
</a>
</g>
</g>
<!-- Node0&#45;&gt;Node27 -->
<g id="edge33" class="edge">
<title>Node0&#45;&gt;Node27</title>
<path fill="none" stroke="#191970" d="M1575.0761,-360.4805C1593.4708,-340.4136 1638.0115,-291.8237 1661.5866,-266.1054"/>
<polygon fill="#191970" stroke="#191970" points="1664.2672,-268.3608 1668.4444,-258.6242 1659.1071,-263.6307 1664.2672,-268.3608"/>
</g>
<!-- Node36 -->
<g id="node37" class="node">
<title>Node36</title>
<g id="a_node37"><a xlink:href="molecule_8hpp.html" target="_top" xlink:title="indigox/classes/molecule.hpp">
<polygon fill="#ffffff" stroke="#000000" points="316.7716,-185.5 316.7716,-203.5 462.8449,-203.5 462.8449,-185.5 316.7716,-185.5"/>
<text text-anchor="middle" x="389.8082" y="-191.5" font-family="Helvetica,sans-Serif" font-size="10.00" fill="#000000">indigox/classes/molecule.hpp</text>
</a>
</g>
</g>
<!-- Node0&#45;&gt;Node36 -->
<g id="edge51" class="edge">
<title>Node0&#45;&gt;Node36</title>
<path fill="none" stroke="#191970" d="M1505.1457,-367.7865C1302.9237,-361.4698 661.9527,-335.7278 471.8082,-259 445.2042,-248.2646 420.1306,-226.1225 404.8778,-210.7982"/>
<polygon fill="#191970" stroke="#191970" points="407.3023,-208.2702 397.8407,-203.5026 402.264,-213.1299 407.3023,-208.2702"/>
</g>
<!-- Node39 -->
<g id="node40" class="node">
<title>Node39</title>
<g id="a_node40"><a xlink:href="molecule__impl_8hpp.html" target="_top" xlink:title="indigox/classes/molecule\l_impl.hpp">
<polygon fill="#ffffff" stroke="#000000" points="1350.5031,-295.5 1350.5031,-323.5 1477.1134,-323.5 1477.1134,-295.5 1350.5031,-295.5"/>
<text text-anchor="start" x="1358.5031" y="-311.5" font-family="Helvetica,sans-Serif" font-size="10.00" fill="#000000">indigox/classes/molecule</text>
<text text-anchor="middle" x="1413.8082" y="-301.5" font-family="Helvetica,sans-Serif" font-size="10.00" fill="#000000">_impl.hpp</text>
</a>
</g>
</g>
<!-- Node0&#45;&gt;Node39 -->
<g id="edge58" class="edge">
<title>Node0&#45;&gt;Node39</title>
<path fill="none" stroke="#191970" d="M1543.5708,-360.3873C1521.2118,-351.619 1486.8017,-338.1249 1459.033,-327.2352"/>
<polygon fill="#191970" stroke="#191970" points="1460.1061,-323.8966 1449.5185,-323.504 1457.5504,-330.4134 1460.1061,-323.8966"/>
</g>
<!-- Node2 -->
<g id="node3" class="node">
<title>Node2</title>
<g id="a_node3"><a xlink:href="fwd__declares_8hpp.html" target="_top" xlink:title="../utils/fwd_declares.hpp">
<polygon fill="#ffffff" stroke="#000000" points="1307.1681,-60.5 1307.1681,-78.5 1430.4484,-78.5 1430.4484,-60.5 1307.1681,-60.5"/>
<text text-anchor="middle" x="1368.8082" y="-66.5" font-family="Helvetica,sans-Serif" font-size="10.00" fill="#000000">../utils/fwd_declares.hpp</text>
</a>
</g>
</g>
<!-- Node1&#45;&gt;Node2 -->
<g id="edge2" class="edge">
<title>Node1&#45;&gt;Node2</title>
<path fill="none" stroke="#191970" d="M154.7646,-125.472C170.9944,-123.3601 188.5382,-121.3388 204.8082,-120 669.7336,-81.7436 788.7985,-121.2172 1253.8082,-84 1267.7706,-82.8825 1282.6419,-81.3008 1296.8958,-79.5898"/>
<polygon fill="#191970" stroke="#191970" points="1297.6476,-83.0237 1307.144,-78.326 1296.7907,-76.0764 1297.6476,-83.0237"/>
</g>
<!-- Node1&#45;&gt;Node4 -->
<g id="edge6" class="edge">
<title>Node1&#45;&gt;Node4</title>
<path fill="none" stroke="#191970" d="M146.6621,-125.4641C247.0869,-108.6663 472.5395,-72.7314 663.8082,-55 757.3696,-46.3265 1427.1651,-17.9166 1591.4824,-11.019"/>
<polygon fill="#191970" stroke="#191970" points="1591.7187,-14.5123 1601.5633,-10.5962 1591.4253,-7.5184 1591.7187,-14.5123"/>
</g>
<!-- Node5 -->
<g id="node6" class="node">
<title>Node5</title>
<polygon fill="#ffffff" stroke="#bfbfbf" points="57.1779,-60.5 57.1779,-78.5 130.4386,-78.5 130.4386,-60.5 57.1779,-60.5"/>
<text text-anchor="middle" x="93.8082" y="-66.5" font-family="Helvetica,sans-Serif" font-size="10.00" fill="#000000">Eigen/Dense</text>
</g>
<!-- Node1&#45;&gt;Node5 -->
<g id="edge5" class="edge">
<title>Node1&#45;&gt;Node5</title>
<path fill="none" stroke="#191970" d="M93.8082,-125.462C93.8082,-116.061 93.8082,-101.0518 93.8082,-88.943"/>
<polygon fill="#191970" stroke="#191970" points="97.3083,-88.8821 93.8082,-78.8821 90.3083,-88.8822 97.3083,-88.8821"/>
</g>
<!-- Node1&#45;&gt;Node6 -->
<g id="edge7" class="edge">
<title>Node1&#45;&gt;Node6</title>
<path fill="none" stroke="#191970" d="M138.2375,-125.4839C149.1803,-123.4726 160.8913,-121.4957 171.8082,-120 375.3345,-92.1154 622.0285,-76.2931 708.7812,-71.2692"/>
<polygon fill="#191970" stroke="#191970" points="709.235,-74.7491 719.0188,-70.6838 708.8353,-67.7605 709.235,-74.7491"/>
</g>
<!-- Node3 -->
<g id="node4" class="node">
<title>Node3</title>
<polygon fill="#ffffff" stroke="#bfbfbf" points="1346.3576,-.5 1346.3576,-18.5 1391.2589,-18.5 1391.2589,-.5 1346.3576,-.5"/>
<text text-anchor="middle" x="1368.8082" y="-6.5" font-family="Helvetica,sans-Serif" font-size="10.00" fill="#000000">cstdint</text>
</g>
<!-- Node2&#45;&gt;Node3 -->
<g id="edge3" class="edge">
<title>Node2&#45;&gt;Node3</title>
<path fill="none" stroke="#191970" d="M1368.8082,-60.3873C1368.8082,-52.0174 1368.8082,-39.3414 1368.8082,-28.735"/>
<polygon fill="#191970" stroke="#191970" points="1372.3083,-28.6984 1368.8082,-18.6985 1365.3083,-28.6985 1372.3083,-28.6984"/>
</g>
<!-- Node2&#45;&gt;Node4 -->
<g id="edge4" class="edge">
<title>Node2&#45;&gt;Node4</title>
<path fill="none" stroke="#191970" d="M1407.8636,-60.4524C1457.6296,-48.9236 1542.9891,-29.1492 1591.4351,-17.9262"/>
<polygon fill="#191970" stroke="#191970" points="1592.5223,-21.2671 1601.4744,-15.6005 1590.9425,-14.4477 1592.5223,-21.2671"/>
</g>
<!-- Node7&#45;&gt;Node2 -->
<g id="edge9" class="edge">
<title>Node7&#45;&gt;Node2</title>
<path fill="none" stroke="#191970" d="M2194.1702,-240.4477C2178.2386,-215.7966 2130.1016,-147.4837 2069.8082,-120 2013.6325,-94.3933 1608.1464,-77.7116 1440.7735,-71.8476"/>
<polygon fill="#191970" stroke="#191970" points="1440.6946,-68.3429 1430.5791,-71.4936 1440.4515,-75.3387 1440.6946,-68.3429"/>
</g>
<!-- Node7&#45;&gt;Node3 -->
<g id="edge30" class="edge">
<title>Node7&#45;&gt;Node3</title>
<path fill="none" stroke="#191970" d="M2206.4009,-240.2865C2212.2804,-231.4614 2220.4601,-217.5238 2223.8082,-204 2229.7501,-179.9993 2222.1715,-130.2962 2214.8082,-120 2196.1355,-93.8897 2116.7874,-63.4091 2085.8082,-55 2019.2909,-36.9442 1533.1165,-16.1478 1401.5562,-10.8039"/>
<polygon fill="#191970" stroke="#191970" points="1401.4519,-7.297 1391.3187,-10.3903 1401.1692,-14.2913 1401.4519,-7.297"/>
</g>
<!-- Node7&#45;&gt;Node4 -->
<g id="edge31" class="edge">
<title>Node7&#45;&gt;Node4</title>
<path fill="none" stroke="#191970" d="M2271.0555,-240.5172C2315.2764,-233.313 2366.1935,-221.4845 2379.8082,-204 2399.0952,-179.2311 2376.9412,-149.1607 2348.8082,-120 2324.7923,-95.1067 2308.9967,-102.5601 2279.8082,-84 2261.8805,-72.6003 2261.6696,-62.5421 2241.8082,-55 2187.8586,-34.5132 1787.994,-16.212 1664.2182,-10.9878"/>
<polygon fill="#191970" stroke="#191970" points="1664.2524,-7.4862 1654.1146,-10.5646 1663.9594,-14.4801 1664.2524,-7.4862"/>
</g>
<!-- Node8 -->
<g id="node9" class="node">
<title>Node8</title>
<g id="a_node9"><a xlink:href="quad_8hpp.html" target="_top" xlink:title="../utils/quad.hpp">
<polygon fill="#ffffff" stroke="#000000" points="2284.5055,-185.5 2284.5055,-203.5 2371.111,-203.5 2371.111,-185.5 2284.5055,-185.5"/>
<text text-anchor="middle" x="2327.8082" y="-191.5" font-family="Helvetica,sans-Serif" font-size="10.00" fill="#000000">../utils/quad.hpp</text>
</a>
</g>
</g>
<!-- Node7&#45;&gt;Node8 -->
<g id="edge10" class="edge">
<title>Node7&#45;&gt;Node8</title>
<path fill="none" stroke="#191970" d="M2220.9448,-240.4179C2241.7893,-231.4613 2273.8606,-217.6806 2297.4327,-207.552"/>
<polygon fill="#191970" stroke="#191970" points="2298.8343,-210.7592 2306.6402,-203.5956 2296.0707,-204.3278 2298.8343,-210.7592"/>
</g>
<!-- Node25 -->
<g id="node26" class="node">
<title>Node25</title>
<polygon fill="#ffffff" stroke="#bfbfbf" points="2000.4166,-125.5 2000.4166,-143.5 2039.1998,-143.5 2039.1998,-125.5 2000.4166,-125.5"/>
<text text-anchor="middle" x="2019.8082" y="-131.5" font-family="Helvetica,sans-Serif" font-size="10.00" fill="#000000">array</text>
</g>
<!-- Node7&#45;&gt;Node25 -->
<g id="edge29" class="edge">
<title>Node7&#45;&gt;Node25</title>
<path fill="none" stroke="#191970" d="M2142.8754,-240.43C2100.9491,-232.5887 2048.745,-220.0006 2033.8082,-204 2021.3724,-190.6784 2018.6384,-169.5179 2018.5437,-154.0423"/>
<polygon fill="#191970" stroke="#191970" points="2022.0443,-154.0704 2018.8402,-143.9717 2015.0473,-153.8644 2022.0443,-154.0704"/>
</g>
<!-- Node26 -->
<g id="node27" class="node">
<title>Node26</title>
<polygon fill="#ffffff" stroke="#bfbfbf" points="2036.5817,-60.5 2036.5817,-78.5 2077.0348,-78.5 2077.0348,-60.5 2036.5817,-60.5"/>
<text text-anchor="middle" x="2056.8082" y="-66.5" font-family="Helvetica,sans-Serif" font-size="10.00" fill="#000000">string</text>
</g>
<!-- Node7&#45;&gt;Node26 -->
<g id="edge32" class="edge">
<title>Node7&#45;&gt;Node26</title>
<path fill="none" stroke="#191970" d="M2202.6572,-240.2047C2209.09,-217.2114 2222.1477,-156.868 2194.8082,-120 2165.6733,-80.7107 2136.4434,-101.6047 2090.8082,-84 2089.4237,-83.4659 2088.0119,-82.91 2086.589,-82.3405"/>
<polygon fill="#191970" stroke="#191970" points="2087.7892,-79.0496 2077.21,-78.4741 2085.1213,-85.5213 2087.7892,-79.0496"/>
</g>
<!-- Node9 -->
<g id="node10" class="node">
<title>Node9</title>
<polygon fill="#ffffff" stroke="#bfbfbf" points="2170.7418,-60.5 2170.7418,-78.5 2232.8747,-78.5 2232.8747,-60.5 2170.7418,-60.5"/>
<text text-anchor="middle" x="2201.8082" y="-66.5" font-family="Helvetica,sans-Serif" font-size="10.00" fill="#000000">type_traits</text>
</g>
<!-- Node8&#45;&gt;Node9 -->
<g id="edge11" class="edge">
<title>Node8&#45;&gt;Node9</title>
<path fill="none" stroke="#191970" d="M2331.5938,-185.2952C2337.1375,-170.201 2345.4143,-139.8821 2331.8082,-120 2326.293,-111.9408 2276.0989,-93.9831 2239.7299,-81.8038"/>
<polygon fill="#191970" stroke="#191970" points="2240.4807,-78.3652 2229.8872,-78.5348 2238.2743,-85.0084 2240.4807,-78.3652"/>
</g>
<!-- Node10 -->
<g id="node11" class="node">
<title>Node10</title>
<polygon fill="#ffffff" stroke="#bfbfbf" points="2284.4166,-125.5 2284.4166,-143.5 2323.1998,-143.5 2323.1998,-125.5 2284.4166,-125.5"/>
<text text-anchor="middle" x="2303.8082" y="-131.5" font-family="Helvetica,sans-Serif" font-size="10.00" fill="#000000">utility</text>
</g>
<!-- Node8&#45;&gt;Node10 -->
<g id="edge12" class="edge">
<title>Node8&#45;&gt;Node10</title>
<path fill="none" stroke="#191970" d="M2324.1632,-185.3873C2320.7447,-176.8412 2315.5305,-163.8057 2311.2354,-153.0679"/>
<polygon fill="#191970" stroke="#191970" points="2314.4513,-151.6834 2307.4876,-143.6985 2307.9519,-154.2831 2314.4513,-151.6834"/>
</g>
<!-- Node8&#45;&gt;Node11 -->
<g id="edge13" class="edge">
<title>Node8&#45;&gt;Node11</title>
<path fill="none" stroke="#191970" d="M2371.2012,-189.7919C2473.5858,-178.6833 2729.48,-150.919 2834.6083,-139.5127"/>
<polygon fill="#191970" stroke="#191970" points="2835.0337,-142.9871 2844.5978,-138.4288 2834.2785,-136.028 2835.0337,-142.9871"/>
</g>
<!-- Node11&#45;&gt;Node2 -->
<g id="edge14" class="edge">
<title>Node11&#45;&gt;Node2</title>
<path fill="none" stroke="#191970" d="M2844.5539,-132.9414C2648.0177,-124.4925 1709.3222,-84.1385 1440.7449,-72.5925"/>
<polygon fill="#191970" stroke="#191970" points="1440.8609,-69.0944 1430.7198,-72.1615 1440.5602,-76.0879 1440.8609,-69.0944"/>
</g>
<!-- Node11&#45;&gt;Node9 -->
<g id="edge28" class="edge">
<title>Node11&#45;&gt;Node9</title>
<path fill="none" stroke="#191970" d="M2844.4268,-132.7135C2750.5884,-127.8305 2492.8001,-112.6727 2279.8082,-84 2267.8779,-82.3939 2255.0024,-80.1945 2243.2176,-77.994"/>
<polygon fill="#191970" stroke="#191970" points="2243.673,-74.5177 2233.1932,-76.0748 2242.3567,-81.3928 2243.673,-74.5177"/>
</g>
<!-- Node12 -->
<g id="node13" class="node">
<title>Node12</title>
<polygon fill="#ffffff" stroke="#bfbfbf" points="2704.508,-60.5 2704.508,-78.5 2801.1085,-78.5 2801.1085,-60.5 2704.508,-60.5"/>
<text text-anchor="middle" x="2752.8082" y="-66.5" font-family="Helvetica,sans-Serif" font-size="10.00" fill="#000000">cereal/access.hpp</text>
</g>
<!-- Node11&#45;&gt;Node12 -->
<g id="edge15" class="edge">
<title>Node11&#45;&gt;Node12</title>
<path fill="none" stroke="#191970" d="M2863.0104,-125.462C2841.4477,-114.5122 2804.9027,-95.9542 2779.851,-83.2326"/>
<polygon fill="#191970" stroke="#191970" points="2781.3686,-80.0779 2770.8676,-78.6708 2778.1991,-86.3193 2781.3686,-80.0779"/>
</g>
<!-- Node13 -->
<g id="node14" class="node">
<title>Node13</title>
<polygon fill="#ffffff" stroke="#bfbfbf" points="2818.8898,-60.5 2818.8898,-78.5 2942.7267,-78.5 2942.7267,-60.5 2818.8898,-60.5"/>
<text text-anchor="middle" x="2880.8082" y="-66.5" font-family="Helvetica,sans-Serif" font-size="10.00" fill="#000000">cereal/archives/json.hpp</text>
</g>
<!-- Node11&#45;&gt;Node13 -->
<g id="edge16" class="edge">
<title>Node11&#45;&gt;Node13</title>
<path fill="none" stroke="#191970" d="M2880.8082,-125.462C2880.8082,-116.061 2880.8082,-101.0518 2880.8082,-88.943"/>
<polygon fill="#191970" stroke="#191970" points="2884.3083,-88.8821 2880.8082,-78.8821 2877.3083,-88.8822 2884.3083,-88.8821"/>
</g>
<!-- Node14 -->
<g id="node15" class="node">
<title>Node14</title>
<polygon fill="#ffffff" stroke="#bfbfbf" points="2960.7247,-55.5 2960.7247,-83.5 3082.8917,-83.5 3082.8917,-55.5 2960.7247,-55.5"/>
<text text-anchor="start" x="2968.7247" y="-71.5" font-family="Helvetica,sans-Serif" font-size="10.00" fill="#000000">cereal/archives/portable</text>
<text text-anchor="middle" x="3021.8082" y="-61.5" font-family="Helvetica,sans-Serif" font-size="10.00" fill="#000000">_binary.hpp</text>
</g>
<!-- Node11&#45;&gt;Node14 -->
<g id="edge17" class="edge">
<title>Node11&#45;&gt;Node14</title>
<path fill="none" stroke="#191970" d="M2900.4137,-125.462C2921.465,-115.7575 2955.4798,-100.077 2982.1553,-87.7797"/>
<polygon fill="#191970" stroke="#191970" points="2983.6352,-90.9516 2991.2513,-83.5865 2980.7046,-84.5945 2983.6352,-90.9516"/>
</g>
<!-- Node15 -->
<g id="node16" class="node">
<title>Node15</title>
<polygon fill="#ffffff" stroke="#bfbfbf" points="3100.4513,-60.5 3100.4513,-78.5 3193.1652,-78.5 3193.1652,-60.5 3100.4513,-60.5"/>
<text text-anchor="middle" x="3146.8082" y="-66.5" font-family="Helvetica,sans-Serif" font-size="10.00" fill="#000000">cereal/cereal.hpp</text>
</g>
<!-- Node11&#45;&gt;Node15 -->
<g id="edge18" class="edge">
<title>Node11&#45;&gt;Node15</title>
<path fill="none" stroke="#191970" d="M2917.0861,-126.0832C2959.1734,-116.2569 3030.6215,-99.3855 3091.8082,-84 3095.5791,-83.0518 3099.4911,-82.0523 3103.4116,-81.0396"/>
<polygon fill="#191970" stroke="#191970" points="3104.3037,-84.4241 3113.0991,-78.5172 3102.5398,-77.65 3104.3037,-84.4241"/>
</g>
<!-- Node16 -->
<g id="node17" class="node">
<title>Node16</title>
<polygon fill="#ffffff" stroke="#bfbfbf" points="3210.7067,-60.5 3210.7067,-78.5 3324.9098,-78.5 3324.9098,-60.5 3210.7067,-60.5"/>
<text text-anchor="middle" x="3267.8082" y="-66.5" font-family="Helvetica,sans-Serif" font-size="10.00" fill="#000000">cereal/types/array.hpp</text>
</g>
<!-- Node11&#45;&gt;Node16 -->
<g id="edge19" class="edge">
<title>Node11&#45;&gt;Node16</title>
<path fill="none" stroke="#191970" d="M2917.0352,-129.5264C2976.6214,-121.1832 3098.9671,-103.3683 3201.8082,-84 3207.2124,-82.9822 3212.8504,-81.851 3218.4553,-80.682"/>
<polygon fill="#191970" stroke="#191970" points="3219.3991,-84.0596 3228.4508,-78.5534 3217.941,-77.2131 3219.3991,-84.0596"/>
</g>
<!-- Node17 -->
<g id="node18" class="node">
<title>Node17</title>
<polygon fill="#ffffff" stroke="#bfbfbf" points="3342.7789,-60.5 3342.7789,-78.5 3458.8375,-78.5 3458.8375,-60.5 3342.7789,-60.5"/>
<text text-anchor="middle" x="3400.8082" y="-66.5" font-family="Helvetica,sans-Serif" font-size="10.00" fill="#000000">cereal/types/bitset.hpp</text>
</g>
<!-- Node11&#45;&gt;Node17 -->
<g id="edge20" class="edge">
<title>Node11&#45;&gt;Node17</title>
<path fill="none" stroke="#191970" d="M2917.0928,-131.7214C2994.1663,-125.5418 3179.764,-109.1878 3333.8082,-84 3339.7524,-83.0281 3345.9649,-81.8737 3352.1073,-80.6471"/>
<polygon fill="#191970" stroke="#191970" points="3353.2353,-83.9879 3362.3185,-78.5339 3351.8167,-77.1331 3353.2353,-83.9879"/>
</g>
<!-- Node18 -->
<g id="node19" class="node">
<title>Node18</title>
<polygon fill="#ffffff" stroke="#bfbfbf" points="3476.9464,-55.5 3476.9464,-83.5 3584.6701,-83.5 3584.6701,-55.5 3476.9464,-55.5"/>
<text text-anchor="start" x="3484.9464" y="-71.5" font-family="Helvetica,sans-Serif" font-size="10.00" fill="#000000">cereal/types/boost</text>
<text text-anchor="middle" x="3530.8082" y="-61.5" font-family="Helvetica,sans-Serif" font-size="10.00" fill="#000000">_dynamic_bitset.hpp</text>
</g>
<!-- Node11&#45;&gt;Node18 -->
<g id="edge21" class="edge">
<title>Node11&#45;&gt;Node18</title>
<path fill="none" stroke="#191970" d="M2917.0914,-133.1513C3008.0325,-129.3937 3253.1023,-116.9404 3466.4706,-84.0647"/>
<polygon fill="#191970" stroke="#191970" points="3467.2652,-87.4831 3476.6063,-82.4837 3466.1864,-80.5667 3467.2652,-87.4831"/>
</g>
<!-- Node19 -->
<g id="node20" class="node">
<title>Node19</title>
<polygon fill="#ffffff" stroke="#bfbfbf" points="3602.8996,-55.5 3602.8996,-83.5 3696.7169,-83.5 3696.7169,-55.5 3602.8996,-55.5"/>
<text text-anchor="start" x="3610.8996" y="-71.5" font-family="Helvetica,sans-Serif" font-size="10.00" fill="#000000">cereal/types/eastl</text>
<text text-anchor="middle" x="3649.8082" y="-61.5" font-family="Helvetica,sans-Serif" font-size="10.00" fill="#000000">_bitset.hpp</text>
</g>
<!-- Node11&#45;&gt;Node19 -->
<g id="edge22" class="edge">
<title>Node11&#45;&gt;Node19</title>
<path fill="none" stroke="#191970" d="M2917.0255,-132.812C3040.1213,-126.9409 3442.5926,-106.6135 3592.93,-83.8833"/>
<polygon fill="#191970" stroke="#191970" points="3593.5546,-87.3282 3602.8871,-82.3128 3592.4639,-80.4136 3593.5546,-87.3282"/>
</g>
<!-- Node20 -->
<g id="node21" class="node">
<title>Node20</title>
<polygon fill="#ffffff" stroke="#bfbfbf" points="3714.4957,-60.5 3714.4957,-78.5 3831.1207,-78.5 3831.1207,-60.5 3714.4957,-60.5"/>
<text text-anchor="middle" x="3772.8082" y="-66.5" font-family="Helvetica,sans-Serif" font-size="10.00" fill="#000000">cereal/types/eigen.hpp</text>
</g>
<!-- Node11&#45;&gt;Node20 -->
<g id="edge23" class="edge">
<title>Node11&#45;&gt;Node20</title>
<path fill="none" stroke="#191970" d="M2917.1899,-134.2409C3032.9655,-132.9966 3403.0286,-125.7835 3705.8082,-84 3712.2298,-83.1138 3718.9519,-81.9483 3725.5559,-80.6625"/>
<polygon fill="#191970" stroke="#191970" points="3726.6838,-84.0041 3735.7763,-78.5657 3725.2769,-77.1469 3726.6838,-84.0041"/>
</g>
<!-- Node21 -->
<g id="node22" class="node">
<title>Node21</title>
<polygon fill="#ffffff" stroke="#bfbfbf" points="3849.0031,-60.5 3849.0031,-78.5 3960.6134,-78.5 3960.6134,-60.5 3849.0031,-60.5"/>
<text text-anchor="middle" x="3904.8082" y="-66.5" font-family="Helvetica,sans-Serif" font-size="10.00" fill="#000000">cereal/types/map.hpp</text>
</g>
<!-- Node11&#45;&gt;Node21 -->
<g id="edge24" class="edge">
<title>Node11&#45;&gt;Node21</title>
<path fill="none" stroke="#191970" d="M2917.1029,-133.4005C3069.2628,-128.6658 3656.3517,-109.1138 3839.8082,-84 3846.123,-83.1356 3852.7321,-81.9711 3859.216,-80.6758"/>
<polygon fill="#191970" stroke="#191970" points="3860.1814,-84.0492 3869.2416,-78.5572 3858.734,-77.2005 3860.1814,-84.0492"/>
</g>
<!-- Node22 -->
<g id="node23" class="node">
<title>Node22</title>
<polygon fill="#ffffff" stroke="#bfbfbf" points="2289.0416,-60.5 2289.0416,-78.5 2416.5748,-78.5 2416.5748,-60.5 2289.0416,-60.5"/>
<text text-anchor="middle" x="2352.8082" y="-66.5" font-family="Helvetica,sans-Serif" font-size="10.00" fill="#000000">cereal/types/memory.hpp</text>
</g>
<!-- Node11&#45;&gt;Node22 -->
<g id="edge25" class="edge">
<title>Node11&#45;&gt;Node22</title>
<path fill="none" stroke="#191970" d="M2844.6899,-131.5491C2767.5173,-125.0122 2580.9365,-107.9704 2425.8082,-84 2419.1161,-82.9659 2412.1047,-81.7476 2405.1852,-80.4638"/>
<polygon fill="#191970" stroke="#191970" points="2405.6399,-76.9874 2395.1609,-78.5497 2404.327,-83.8632 2405.6399,-76.9874"/>
</g>
<!-- Node23 -->
<g id="node24" class="node">
<title>Node23</title>
<polygon fill="#ffffff" stroke="#bfbfbf" points="2434.7067,-60.5 2434.7067,-78.5 2548.9098,-78.5 2548.9098,-60.5 2434.7067,-60.5"/>
<text text-anchor="middle" x="2491.8082" y="-66.5" font-family="Helvetica,sans-Serif" font-size="10.00" fill="#000000">cereal/types/utility.hpp</text>
</g>
<!-- Node11&#45;&gt;Node23 -->
<g id="edge26" class="edge">
<title>Node11&#45;&gt;Node23</title>
<path fill="none" stroke="#191970" d="M2844.4746,-129.4974C2784.7115,-121.1131 2661.9969,-103.2411 2558.8082,-84 2553.3241,-82.9774 2547.6019,-81.8431 2541.9128,-80.6724"/>
<polygon fill="#191970" stroke="#191970" points="2542.2724,-77.1716 2531.7666,-78.5419 2540.8339,-84.0222 2542.2724,-77.1716"/>
</g>
<!-- Node24 -->
<g id="node25" class="node">
<title>Node24</title>
<polygon fill="#ffffff" stroke="#bfbfbf" points="2567.3873,-60.5 2567.3873,-78.5 2686.2291,-78.5 2686.2291,-60.5 2567.3873,-60.5"/>
<text text-anchor="middle" x="2626.8082" y="-66.5" font-family="Helvetica,sans-Serif" font-size="10.00" fill="#000000">cereal/types/vector.hpp</text>
</g>
<!-- Node11&#45;&gt;Node24 -->
<g id="edge27" class="edge">
<title>Node11&#45;&gt;Node24</title>
<path fill="none" stroke="#191970" d="M2845.4906,-125.462C2800.2185,-113.8766 2721.6641,-93.7741 2672.0551,-81.0789"/>
<polygon fill="#191970" stroke="#191970" points="2672.79,-77.6543 2662.2344,-78.5658 2671.0545,-84.4357 2672.79,-77.6543"/>
</g>
<!-- Node27&#45;&gt;Node2 -->
<g id="edge34" class="edge">
<title>Node27&#45;&gt;Node2</title>
<path fill="none" stroke="#191970" d="M1729.4885,-240.4833C1768.1245,-232.6718 1815.8463,-220.0977 1827.8082,-204 1850.0755,-174.0342 1852.7216,-147.8047 1827.8082,-120 1802.4736,-91.7251 1563.3231,-77.6443 1440.6499,-72.2329"/>
<polygon fill="#191970" stroke="#191970" points="1440.7296,-68.7332 1430.5875,-71.797 1440.4266,-75.7266 1440.7296,-68.7332"/>
</g>
<!-- Node27&#45;&gt;Node4 -->
<g id="edge49" class="edge">
<title>Node27&#45;&gt;Node4</title>
<path fill="none" stroke="#191970" d="M1750.4788,-247.0324C1867.7824,-242.3362 2086.2576,-230.155 2109.8082,-204 2115.4588,-197.7246 2110.578,-193.4093 2109.8082,-185 2104.4526,-126.4905 2129.0523,-94.7744 2085.8082,-55 2054.9579,-26.625 1767.0002,-14.1974 1664.1241,-10.6374"/>
<polygon fill="#191970" stroke="#191970" points="1664.0295,-7.1323 1653.917,-10.2925 1663.793,-14.1283 1664.0295,-7.1323"/>
</g>
<!-- Node27&#45;&gt;Node6 -->
<g id="edge50" class="edge">
<title>Node27&#45;&gt;Node6</title>
<path fill="none" stroke="#191970" d="M1717.033,-240.4433C1736.5334,-233.8096 1758.199,-222.604 1769.8082,-204 1782.902,-183.017 1783.5005,-143.014 1756.8082,-120 1737.6982,-103.5234 942.584,-76.2052 772.5827,-70.5456"/>
<polygon fill="#191970" stroke="#191970" points="772.632,-67.0454 762.5214,-70.2117 772.3997,-74.0416 772.632,-67.0454"/>
</g>
<!-- Node28 -->
<g id="node29" class="node">
<title>Node28</title>
<g id="a_node29"><a xlink:href="periodictable_8hpp.html" target="_top" xlink:title="periodictable.hpp">
<polygon fill="#ffffff" stroke="#000000" points="1668.7247,-185.5 1668.7247,-203.5 1760.8917,-203.5 1760.8917,-185.5 1668.7247,-185.5"/>
<text text-anchor="middle" x="1714.8082" y="-191.5" font-family="Helvetica,sans-Serif" font-size="10.00" fill="#000000">periodictable.hpp</text>
</a>
</g>
</g>
<!-- Node27&#45;&gt;Node28 -->
<g id="edge35" class="edge">
<title>Node27&#45;&gt;Node28</title>
<path fill="none" stroke="#191970" d="M1683.0832,-240.4179C1688.3868,-232.7415 1696.1387,-221.5217 1702.6521,-212.0945"/>
<polygon fill="#191970" stroke="#191970" points="1705.5922,-213.9963 1708.397,-203.7795 1699.8331,-210.0173 1705.5922,-213.9963"/>
</g>
<!-- Node34 -->
<g id="node35" class="node">
<title>Node34</title>
<polygon fill="#ffffff" stroke="#bfbfbf" points="1479.4586,-125.5 1479.4586,-143.5 1562.1579,-143.5 1562.1579,-125.5 1479.4586,-125.5"/>
<text text-anchor="middle" x="1520.8082" y="-131.5" font-family="Helvetica,sans-Serif" font-size="10.00" fill="#000000">EASTL/bitset.h</text>
</g>
<!-- Node27&#45;&gt;Node34 -->
<g id="edge47" class="edge">
<title>Node27&#45;&gt;Node34</title>
<path fill="none" stroke="#191970" d="M1642.8881,-240.4093C1620.454,-233.1851 1591.3228,-221.376 1569.8082,-204 1552.4727,-189.999 1538.5454,-168.3479 1530.0337,-152.9347"/>
<polygon fill="#191970" stroke="#191970" points="1533.0028,-151.0615 1525.241,-143.85 1526.8115,-154.3278 1533.0028,-151.0615"/>
</g>
<!-- Node35 -->
<g id="node36" class="node">
<title>Node35</title>
<polygon fill="#ffffff" stroke="#bfbfbf" points="452.0817,-125.5 452.0817,-143.5 487.5348,-143.5 487.5348,-125.5 452.0817,-125.5"/>
<text text-anchor="middle" x="469.8082" y="-131.5" font-family="Helvetica,sans-Serif" font-size="10.00" fill="#000000">map</text>
</g>
<!-- Node27&#45;&gt;Node35 -->
<g id="edge48" class="edge">
<title>Node27&#45;&gt;Node35</title>
<path fill="none" stroke="#191970" d="M1603.2629,-247.6167C1383.6663,-241.801 742.2282,-223.3487 649.8082,-204 593.407,-192.1921 531.5302,-164.8723 497.0027,-148.2186"/>
<polygon fill="#191970" stroke="#191970" points="498.1297,-144.8736 487.6088,-143.6238 495.054,-151.1617 498.1297,-144.8736"/>
</g>
<!-- Node28&#45;&gt;Node2 -->
<g id="edge42" class="edge">
<title>Node28&#45;&gt;Node2</title>
<path fill="none" stroke="#191970" d="M1726.5995,-185.4899C1744.6032,-170.6757 1775.0326,-140.7501 1756.8082,-120 1736.3168,-96.6686 1547.1508,-80.903 1440.7208,-73.7983"/>
<polygon fill="#191970" stroke="#191970" points="1440.8962,-70.3024 1430.6878,-73.1379 1440.4363,-77.2873 1440.8962,-70.3024"/>
</g>
<!-- Node28&#45;&gt;Node3 -->
<g id="edge45" class="edge">
<title>Node28&#45;&gt;Node3</title>
<path fill="none" stroke="#191970" d="M1701.3035,-185.2743C1679.6856,-170.6673 1635.7742,-141.6541 1596.8082,-120 1527.4619,-81.4628 1442.6583,-42.3789 1398.5984,-22.6469"/>
<polygon fill="#191970" stroke="#191970" points="1399.8835,-19.3878 1389.3251,-18.5106 1397.032,-25.7807 1399.8835,-19.3878"/>
</g>
<!-- Node28&#45;&gt;Node25 -->
<g id="edge44" class="edge">
<title>Node28&#45;&gt;Node25</title>
<path fill="none" stroke="#191970" d="M1761.2271,-191.1214C1816.8975,-186.1024 1912.5057,-174.3864 1990.8082,-149 1992.0432,-148.5996 1993.2909,-148.1537 1994.5392,-147.6737"/>
<polygon fill="#191970" stroke="#191970" points="1996.1907,-150.7701 2003.9136,-143.517 1993.3533,-144.371 1996.1907,-150.7701"/>
</g>
<!-- Node29 -->
<g id="node30" class="node">
<title>Node29</title>
<g id="a_node30"><a xlink:href="common_8hpp.html" target="_top" xlink:title="../utils/common.hpp">
<polygon fill="#ffffff" stroke="#000000" points="1879.4562,-125.5 1879.4562,-143.5 1982.1603,-143.5 1982.1603,-125.5 1879.4562,-125.5"/>
<text text-anchor="middle" x="1930.8082" y="-131.5" font-family="Helvetica,sans-Serif" font-size="10.00" fill="#000000">../utils/common.hpp</text>
</a>
</g>
</g>
<!-- Node28&#45;&gt;Node29 -->
<g id="edge36" class="edge">
<title>Node28&#45;&gt;Node29</title>
<path fill="none" stroke="#191970" d="M1747.614,-185.3873C1785.3379,-174.9084 1847.3606,-157.6799 1888.6393,-146.2136"/>
<polygon fill="#191970" stroke="#191970" points="1889.7031,-149.5507 1898.4015,-143.5019 1887.8295,-142.8061 1889.7031,-149.5507"/>
</g>
<!-- Node32 -->
<g id="node33" class="node">
<title>Node32</title>
<polygon fill="#ffffff" stroke="#bfbfbf" points="1236.2863,-125.5 1236.2863,-143.5 1347.3302,-143.5 1347.3302,-125.5 1236.2863,-125.5"/>
<text text-anchor="middle" x="1291.8082" y="-131.5" font-family="Helvetica,sans-Serif" font-size="10.00" fill="#000000">EASTL/vector_map.h</text>
</g>
<!-- Node28&#45;&gt;Node32 -->
<g id="edge43" class="edge">
<title>Node28&#45;&gt;Node32</title>
<path fill="none" stroke="#191970" d="M1668.3298,-187.9073C1592.8749,-177.2045 1443.5061,-156.0174 1357.3128,-143.7914"/>
<polygon fill="#191970" stroke="#191970" points="1357.7727,-140.3217 1347.3802,-142.3826 1356.7896,-147.2523 1357.7727,-140.3217"/>
</g>
<!-- Node33 -->
<g id="node34" class="node">
<title>Node33</title>
<polygon fill="#ffffff" stroke="#bfbfbf" points="1693.6359,-125.5 1693.6359,-143.5 1747.9806,-143.5 1747.9806,-125.5 1693.6359,-125.5"/>
<text text-anchor="middle" x="1720.8082" y="-131.5" font-family="Helvetica,sans-Serif" font-size="10.00" fill="#000000">iostream</text>
</g>
<!-- Node28&#45;&gt;Node33 -->
<g id="edge46" class="edge">
<title>Node28&#45;&gt;Node33</title>
<path fill="none" stroke="#191970" d="M1715.7195,-185.3873C1716.5565,-177.0174 1717.8241,-164.3414 1718.8847,-153.735"/>
<polygon fill="#191970" stroke="#191970" points="1722.3759,-153.9971 1719.8884,-143.6985 1715.4106,-153.3005 1722.3759,-153.9971"/>
</g>
<!-- Node29&#45;&gt;Node4 -->
<g id="edge39" class="edge">
<title>Node29&#45;&gt;Node4</title>
<path fill="none" stroke="#191970" d="M1908.5279,-125.3085C1855.3194,-103.3577 1720.7151,-47.8279 1659.268,-22.4785"/>
<polygon fill="#191970" stroke="#191970" points="1660.2916,-19.1146 1649.7126,-18.5364 1657.622,-25.5856 1660.2916,-19.1146"/>
</g>
<!-- Node29&#45;&gt;Node9 -->
<g id="edge41" class="edge">
<title>Node29&#45;&gt;Node9</title>
<path fill="none" stroke="#191970" d="M1968.4896,-125.462C2018.9379,-113.3619 2108.1213,-91.971 2160.3992,-79.4321"/>
<polygon fill="#191970" stroke="#191970" points="2161.4324,-82.7836 2170.3403,-77.0477 2159.7997,-75.9767 2161.4324,-82.7836"/>
</g>
<!-- Node29&#45;&gt;Node26 -->
<g id="edge40" class="edge">
<title>Node29&#45;&gt;Node26</title>
<path fill="none" stroke="#191970" d="M1948.328,-125.462C1969.4603,-114.5605 2005.2111,-96.1176 2029.8615,-83.4011"/>
<polygon fill="#191970" stroke="#191970" points="2031.7486,-86.3659 2039.0311,-78.6708 2028.5393,-80.1449 2031.7486,-86.3659"/>
</g>
<!-- Node30 -->
<g id="node31" class="node">
<title>Node30</title>
<polygon fill="#ffffff" stroke="#bfbfbf" points="1902.2443,-60.5 1902.2443,-78.5 1959.3722,-78.5 1959.3722,-60.5 1902.2443,-60.5"/>
<text text-anchor="middle" x="1930.8082" y="-66.5" font-family="Helvetica,sans-Serif" font-size="10.00" fill="#000000">algorithm</text>
</g>
<!-- Node29&#45;&gt;Node30 -->
<g id="edge37" class="edge">
<title>Node29&#45;&gt;Node30</title>
<path fill="none" stroke="#191970" d="M1930.8082,-125.462C1930.8082,-116.061 1930.8082,-101.0518 1930.8082,-88.943"/>
<polygon fill="#191970" stroke="#191970" points="1934.3083,-88.8821 1930.8082,-78.8821 1927.3083,-88.8822 1934.3083,-88.8821"/>
</g>
<!-- Node31 -->
<g id="node32" class="node">
<title>Node31</title>
<polygon fill="#ffffff" stroke="#bfbfbf" points="1197.2467,-60.5 1197.2467,-78.5 1244.3698,-78.5 1244.3698,-60.5 1197.2467,-60.5"/>
<text text-anchor="middle" x="1220.8082" y="-66.5" font-family="Helvetica,sans-Serif" font-size="10.00" fill="#000000">iterator</text>
</g>
<!-- Node29&#45;&gt;Node31 -->
<g id="edge38" class="edge">
<title>Node29&#45;&gt;Node31</title>
<path fill="none" stroke="#191970" d="M1879.2909,-126.5053C1862.868,-124.1561 1844.6018,-121.7501 1827.8082,-120 1592.9816,-95.5278 1532.0058,-113.8984 1297.8082,-84 1283.6474,-82.1922 1268.1568,-79.4298 1254.8064,-76.7993"/>
<polygon fill="#191970" stroke="#191970" points="1255.1204,-73.292 1244.6248,-74.7387 1253.7318,-80.1529 1255.1204,-73.292"/>
</g>
<!-- Node36&#45;&gt;Node2 -->
<g id="edge52" class="edge">
<title>Node36&#45;&gt;Node2</title>
<path fill="none" stroke="#191970" d="M385.366,-185.2455C378.5414,-169.5207 367.936,-137.5857 384.8082,-120 418.2605,-85.1332 1205.6571,-88.0258 1253.8082,-84 1267.7665,-82.833 1282.636,-81.2286 1296.8894,-79.511"/>
<polygon fill="#191970" stroke="#191970" points="1297.6419,-82.9448 1307.1373,-78.245 1296.7836,-75.9976 1297.6419,-82.9448"/>
</g>
<!-- Node36&#45;&gt;Node3 -->
<g id="edge54" class="edge">
<title>Node36&#45;&gt;Node3</title>
<path fill="none" stroke="#191970" d="M382.9937,-185.134C372.7451,-169.808 356.1461,-139.1634 371.8082,-120 463.6483,-7.6295 547.9779,-74.3533 691.8082,-55 937.9661,-21.8779 1237.8839,-12.451 1336.0265,-10.1559"/>
<polygon fill="#191970" stroke="#191970" points="1336.281,-13.6512 1346.1997,-9.927 1336.1234,-6.6529 1336.281,-13.6512"/>
</g>
<!-- Node36&#45;&gt;Node6 -->
<g id="edge57" class="edge">
<title>Node36&#45;&gt;Node6</title>
<path fill="none" stroke="#191970" d="M316.6045,-185.7819C271.1653,-178.6943 218.8364,-166.8964 204.8082,-149 196.8569,-138.8561 196.1324,-129.5317 204.8082,-120 238.8675,-82.581 598.802,-72.3328 708.9558,-70.0625"/>
<polygon fill="#191970" stroke="#191970" points="709.1792,-73.5589 719.1079,-69.8615 709.0406,-66.5602 709.1792,-73.5589"/>
</g>
<!-- Node36&#45;&gt;Node35 -->
<g id="edge55" class="edge">
<title>Node36&#45;&gt;Node35</title>
<path fill="none" stroke="#191970" d="M401.9585,-185.3873C414.6011,-175.9054 434.6123,-160.897 449.6324,-149.6319"/>
<polygon fill="#191970" stroke="#191970" points="451.9057,-152.3019 457.8057,-143.5019 447.7057,-146.7019 451.9057,-152.3019"/>
</g>
<!-- Node37 -->
<g id="node38" class="node">
<title>Node37</title>
<polygon fill="#ffffff" stroke="#bfbfbf" points="393.8576,-125.5 393.8576,-143.5 433.7589,-143.5 433.7589,-125.5 393.8576,-125.5"/>
<text text-anchor="middle" x="413.8082" y="-131.5" font-family="Helvetica,sans-Serif" font-size="10.00" fill="#000000">bitset</text>
</g>
<!-- Node36&#45;&gt;Node37 -->
<g id="edge53" class="edge">
<title>Node36&#45;&gt;Node37</title>
<path fill="none" stroke="#191970" d="M393.4533,-185.3873C396.8718,-176.8412 402.086,-163.8057 406.3811,-153.0679"/>
<polygon fill="#191970" stroke="#191970" points="409.6646,-154.2831 410.1289,-143.6985 403.1652,-151.6834 409.6646,-154.2831"/>
</g>
<!-- Node38 -->
<g id="node39" class="node">
<title>Node38</title>
<polygon fill="#ffffff" stroke="#bfbfbf" points="213.5055,-125.5 213.5055,-143.5 300.111,-143.5 300.111,-125.5 213.5055,-125.5"/>
<text text-anchor="middle" x="256.8082" y="-131.5" font-family="Helvetica,sans-Serif" font-size="10.00" fill="#000000">unordered_map</text>
</g>
<!-- Node36&#45;&gt;Node38 -->
<g id="edge56" class="edge">
<title>Node36&#45;&gt;Node38</title>
<path fill="none" stroke="#191970" d="M369.6084,-185.3873C347.3133,-175.3294 311.2343,-159.0531 285.8964,-147.6225"/>
<polygon fill="#191970" stroke="#191970" points="287.3171,-144.4237 276.7624,-143.5019 284.4385,-150.8045 287.3171,-144.4237"/>
</g>
<!-- Node39&#45;&gt;Node1 -->
<g id="edge88" class="edge">
<title>Node39&#45;&gt;Node1</title>
<path fill="none" stroke="#191970" d="M1350.1912,-308.2795C1167.0534,-304.4188 640.9123,-290.7978 471.8082,-259 338.387,-233.9119 187.094,-173.992 123.9627,-147.4889"/>
<polygon fill="#191970" stroke="#191970" points="125.1774,-144.2025 114.6038,-143.5327 122.4519,-150.6501 125.1774,-144.2025"/>
</g>
<!-- Node39&#45;&gt;Node2 -->
<g id="edge83" class="edge">
<title>Node39&#45;&gt;Node2</title>
<path fill="none" stroke="#191970" d="M1411.1281,-295.2056C1403.4019,-253.9996 1381.0821,-134.9605 1372.3603,-88.4445"/>
<polygon fill="#191970" stroke="#191970" points="1375.7791,-87.6856 1370.4961,-78.5019 1368.899,-88.9756 1375.7791,-87.6856"/>
</g>
<!-- Node39&#45;&gt;Node7 -->
<g id="edge93" class="edge">
<title>Node39&#45;&gt;Node7</title>
<path fill="none" stroke="#191970" d="M1477.1323,-304.6661C1618.8769,-293.8459 1961.555,-267.6873 2118.6586,-255.6946"/>
<polygon fill="#191970" stroke="#191970" points="2119.0297,-259.1766 2128.7343,-254.9255 2118.4968,-252.1969 2119.0297,-259.1766"/>
</g>
<!-- Node39&#45;&gt;Node27 -->
<g id="edge94" class="edge">
<title>Node39&#45;&gt;Node27</title>
<path fill="none" stroke="#191970" d="M1475.4701,-295.4327C1521.7135,-284.8828 1584.1894,-270.6298 1627.2196,-260.813"/>
<polygon fill="#191970" stroke="#191970" points="1628.2043,-264.1784 1637.1753,-258.5417 1626.6473,-257.3537 1628.2043,-264.1784"/>
</g>
<!-- Node39&#45;&gt;Node28 -->
<g id="edge96" class="edge">
<title>Node39&#45;&gt;Node28</title>
<path fill="none" stroke="#191970" d="M1450.1928,-295.4777C1486.7297,-281.4087 1544.6473,-259.1399 1594.8082,-240 1624.0817,-228.8301 1657.4042,-216.2023 1681.4941,-207.0887"/>
<polygon fill="#191970" stroke="#191970" points="1682.7755,-210.3461 1690.8908,-203.5349 1680.2992,-203.7987 1682.7755,-210.3461"/>
</g>
<!-- Node39&#45;&gt;Node36 -->
<g id="edge95" class="edge">
<title>Node39&#45;&gt;Node36</title>
<path fill="none" stroke="#191970" d="M1350.4991,-309.0495C1174.4993,-307.2982 682.0696,-298.8715 525.8082,-259 483.863,-248.2973 439.2553,-224.4377 412.9947,-208.9303"/>
<polygon fill="#191970" stroke="#191970" points="414.5624,-205.7889 404.1888,-203.6348 410.9549,-211.7878 414.5624,-205.7889"/>
</g>
<!-- Node39&#45;&gt;Node37 -->
<g id="edge101" class="edge">
<title>Node39&#45;&gt;Node37</title>
<path fill="none" stroke="#191970" d="M1350.4116,-306.7954C1210.2897,-299.6586 864.4931,-275.6549 584.8082,-204 531.9729,-190.4637 473.8075,-164.2064 440.7532,-148.1263"/>
<polygon fill="#191970" stroke="#191970" points="442.2457,-144.9599 431.7279,-143.6839 439.1543,-151.2403 442.2457,-144.9599"/>
</g>
<!-- Node40 -->
<g id="node41" class="node">
<title>Node40</title>
<g id="a_node41"><a xlink:href="condensed_8hpp.html" target="_top" xlink:title="../graph/condensed.hpp">
<polygon fill="#ffffff" stroke="#000000" points="1248.2667,-185.5 1248.2667,-203.5 1369.3497,-203.5 1369.3497,-185.5 1248.2667,-185.5"/>
<text text-anchor="middle" x="1308.8082" y="-191.5" font-family="Helvetica,sans-Serif" font-size="10.00" fill="#000000">../graph/condensed.hpp</text>
</a>
</g>
</g>
<!-- Node39&#45;&gt;Node40 -->
<g id="edge59" class="edge">
<title>Node39&#45;&gt;Node40</title>
<path fill="none" stroke="#191970" d="M1400.9332,-295.3987C1381.5218,-274.1387 1344.8319,-233.9545 1324.0922,-211.2395"/>
<polygon fill="#191970" stroke="#191970" points="1326.5618,-208.7536 1317.2344,-203.7286 1321.3924,-213.4735 1326.5618,-208.7536"/>
</g>
<!-- Node53 -->
<g id="node44" class="node">
<title>Node53</title>
<g id="a_node44"><a xlink:href="molecular_8hpp.html" target="_top" xlink:title="../graph/molecular.hpp">
<polygon fill="#ffffff" stroke="#000000" points="658.3307,-185.5 658.3307,-203.5 773.2858,-203.5 773.2858,-185.5 658.3307,-185.5"/>
<text text-anchor="middle" x="715.8082" y="-191.5" font-family="Helvetica,sans-Serif" font-size="10.00" fill="#000000">../graph/molecular.hpp</text>
</a>
</g>
</g>
<!-- Node39&#45;&gt;Node53 -->
<g id="edge71" class="edge">
<title>Node39&#45;&gt;Node53</title>
<path fill="none" stroke="#191970" d="M1350.325,-299.0407C1218.0025,-277.2397 913.9438,-227.1441 780.5447,-205.1658"/>
<polygon fill="#191970" stroke="#191970" points="780.9083,-201.6785 770.4723,-203.5063 779.7703,-208.5854 780.9083,-201.6785"/>
</g>
<!-- Node56 -->
<g id="node48" class="node">
<title>Node56</title>
<g id="a_node48"><a xlink:href="angle_8hpp.html" target="_top" xlink:title="angle.hpp">
<polygon fill="#ffffff" stroke="#000000" points="1578.8429,-185.5 1578.8429,-203.5 1638.7736,-203.5 1638.7736,-185.5 1578.8429,-185.5"/>
<text text-anchor="middle" x="1608.8082" y="-191.5" font-family="Helvetica,sans-Serif" font-size="10.00" fill="#000000">angle.hpp</text>
</a>
</g>
</g>
<!-- Node39&#45;&gt;Node56 -->
<g id="edge84" class="edge">
<title>Node39&#45;&gt;Node56</title>
<path fill="none" stroke="#191970" d="M1432.8268,-295.3266C1452.9225,-280.6432 1485.7967,-257.4459 1515.8082,-240 1536.3195,-228.0766 1560.4027,-216.3529 1578.9218,-207.7926"/>
<polygon fill="#191970" stroke="#191970" points="1580.4105,-210.9605 1588.0505,-203.6202 1577.5005,-204.594 1580.4105,-210.9605"/>
</g>
<!-- Node57 -->
<g id="node49" class="node">
<title>Node57</title>
<g id="a_node49"><a xlink:href="bond_8hpp.html" target="_top" xlink:title="bond.hpp">
<polygon fill="#ffffff" stroke="#000000" points="2042.9538,-185.5 2042.9538,-203.5 2100.6627,-203.5 2100.6627,-185.5 2042.9538,-185.5"/>
<text text-anchor="middle" x="2071.8082" y="-191.5" font-family="Helvetica,sans-Serif" font-size="10.00" fill="#000000">bond.hpp</text>
</a>
</g>
</g>
<!-- Node39&#45;&gt;Node57 -->
<g id="edge89" class="edge">
<title>Node39&#45;&gt;Node57</title>
<path fill="none" stroke="#191970" d="M1477.2548,-301.3334C1546.5986,-292.1468 1660.8872,-276.2411 1758.8082,-259 1857.7778,-241.5743 1973.3843,-216.519 2032.5433,-203.3533"/>
<polygon fill="#191970" stroke="#191970" points="2033.5756,-206.7091 2042.573,-201.1146 2032.0506,-199.8772 2033.5756,-206.7091"/>
</g>
<!-- Node58 -->
<g id="node50" class="node">
<title>Node58</title>
<g id="a_node50"><a xlink:href="residue_8hpp.html" target="_top" xlink:title="residue.hpp">
<polygon fill="#ffffff" stroke="#000000" points="1053.6779,-185.5 1053.6779,-203.5 1121.9386,-203.5 1121.9386,-185.5 1053.6779,-185.5"/>
<text text-anchor="middle" x="1087.8082" y="-191.5" font-family="Helvetica,sans-Serif" font-size="10.00" fill="#000000">residue.hpp</text>
</a>
</g>
</g>
<!-- Node39&#45;&gt;Node58 -->
<g id="edge97" class="edge">
<title>Node39&#45;&gt;Node58</title>
<path fill="none" stroke="#191970" d="M1373.8342,-295.3987C1309.5728,-272.7298 1184.3198,-228.5455 1123.142,-206.9644"/>
<polygon fill="#191970" stroke="#191970" points="1124.1369,-203.604 1113.542,-203.5779 1121.8081,-210.2053 1124.1369,-203.604"/>
</g>
<!-- Node40&#45;&gt;Node2 -->
<g id="edge60" class="edge">
<title>Node40&#45;&gt;Node2</title>
<path fill="none" stroke="#191970" d="M1322.5832,-185.4112C1333.73,-177.2662 1348.84,-164.2694 1356.8082,-149 1366.5675,-130.2986 1368.9863,-105.9722 1369.3302,-89.1793"/>
<polygon fill="#191970" stroke="#191970" points="1372.8295,-88.9088 1369.3015,-78.9187 1365.8295,-88.9285 1372.8295,-88.9088"/>
</g>
<!-- Node40&#45;&gt;Node4 -->
<g id="edge69" class="edge">
<title>Node40&#45;&gt;Node4</title>
<path fill="none" stroke="#191970" d="M1324.6275,-185.3258C1376.4054,-155.2979 1541.0624,-59.8071 1603.4925,-23.6016"/>
<polygon fill="#191970" stroke="#191970" points="1605.375,-26.5559 1612.2697,-18.5114 1601.8632,-20.5005 1605.375,-26.5559"/>
</g>
<!-- Node40&#45;&gt;Node6 -->
<g id="edge70" class="edge">
<title>Node40&#45;&gt;Node6</title>
<path fill="none" stroke="#191970" d="M1290.7767,-185.4597C1273.8637,-176.757 1248.0636,-162.9023 1226.8082,-149 1209.0284,-137.3709 1208.5216,-127.9209 1188.8082,-120 1112.8244,-89.4695 861.7542,-75.1099 772.5779,-70.8831"/>
<polygon fill="#191970" stroke="#191970" points="772.6793,-67.3841 762.528,-70.4174 772.3552,-74.3766 772.6793,-67.3841"/>
</g>
<!-- Node40&#45;&gt;Node32 -->
<g id="edge67" class="edge">
<title>Node40&#45;&gt;Node32</title>
<path fill="none" stroke="#191970" d="M1306.2263,-185.3873C1303.8299,-176.9293 1300.1876,-164.074 1297.1635,-153.4007"/>
<polygon fill="#191970" stroke="#191970" points="1300.508,-152.3656 1294.4145,-143.6985 1293.7731,-154.2739 1300.508,-152.3656"/>
</g>
<!-- Node40&#45;&gt;Node34 -->
<g id="edge66" class="edge">
<title>Node40&#45;&gt;Node34</title>
<path fill="none" stroke="#191970" d="M1341.0065,-185.3873C1377.9535,-174.9306 1438.6487,-157.7527 1479.1629,-146.2864"/>
<polygon fill="#191970" stroke="#191970" points="1480.3327,-149.5929 1489.0016,-143.5019 1478.4264,-142.8574 1480.3327,-149.5929"/>
</g>
<!-- Node41 -->
<g id="node42" class="node">
<title>Node41</title>
<g id="a_node42"><a xlink:href="base__graph_8hpp.html" target="_top" xlink:title="base_graph.hpp">
<polygon fill="#ffffff" stroke="#ff0000" points="781.6657,-125.5 781.6657,-143.5 869.9508,-143.5 869.9508,-125.5 781.6657,-125.5"/>
<text text-anchor="middle" x="825.8082" y="-131.5" font-family="Helvetica,sans-Serif" font-size="10.00" fill="#000000">base_graph.hpp</text>
</a>
</g>
</g>
<!-- Node40&#45;&gt;Node41 -->
<g id="edge61" class="edge">
<title>Node40&#45;&gt;Node41</title>
<path fill="none" stroke="#191970" d="M1248.1841,-191.1818C1164.5167,-185.9007 1009.1993,-173.5682 878.8082,-149 874.4183,-148.1729 869.861,-147.1631 865.3444,-146.0653"/>
<polygon fill="#191970" stroke="#191970" points="866.1596,-142.6611 855.6028,-143.5579 864.4147,-149.4402 866.1596,-142.6611"/>
</g>
<!-- Node52 -->
<g id="node43" class="node">
<title>Node52</title>
<polygon fill="#ffffff" stroke="#bfbfbf" points="1075.3429,-125.5 1075.3429,-143.5 1180.2736,-143.5 1180.2736,-125.5 1075.3429,-125.5"/>
<text text-anchor="middle" x="1127.8082" y="-131.5" font-family="Helvetica,sans-Serif" font-size="10.00" fill="#000000">EASTL/vector_set.h</text>
</g>
<!-- Node40&#45;&gt;Node52 -->
<g id="edge68" class="edge">
<title>Node40&#45;&gt;Node52</title>
<path fill="none" stroke="#191970" d="M1281.3182,-185.3873C1250.1748,-175.0635 1199.2681,-158.1883 1164.6913,-146.7264"/>
<polygon fill="#191970" stroke="#191970" points="1165.5573,-143.3263 1154.9639,-143.5019 1163.3547,-149.9707 1165.5573,-143.3263"/>
</g>
<!-- Node41&#45;&gt;Node2 -->
<g id="edge62" class="edge">
<title>Node41&#45;&gt;Node2</title>
<path fill="none" stroke="#191970" d="M855.315,-125.4657C862.9113,-123.4058 871.1141,-121.4111 878.8082,-120 1043.4946,-89.7975 1087.3977,-102.4747 1253.8082,-84 1267.7297,-82.4545 1282.5824,-80.6774 1296.8308,-78.909"/>
<polygon fill="#191970" stroke="#191970" points="1297.5894,-82.3415 1307.0771,-77.6263 1296.7198,-75.3957 1297.5894,-82.3415"/>
</g>
<!-- Node41&#45;&gt;Node3 -->
<g id="edge63" class="edge">
<title>Node41&#45;&gt;Node3</title>
<path fill="none" stroke="#191970" d="M838.8174,-125.4966C864.0983,-108.5049 922.1841,-71.9023 976.8082,-55 1043.8313,-34.2611 1254.5065,-17.5839 1336.0884,-11.743"/>
<polygon fill="#191970" stroke="#191970" points="1336.5437,-15.2196 1346.2716,-11.0224 1336.0495,-8.2371 1336.5437,-15.2196"/>
</g>
<!-- Node41&#45;&gt;Node4 -->
<g id="edge64" class="edge">
<title>Node41&#45;&gt;Node4</title>
<path fill="none" stroke="#191970" d="M857.6787,-125.4494C864.6234,-123.5701 871.9466,-121.6587 878.8082,-120 1015.2179,-87.024 1049.1558,-76.6916 1187.8082,-55 1336.6,-31.7221 1515.6294,-17.4077 1591.2572,-11.9838"/>
<polygon fill="#191970" stroke="#191970" points="1591.9214,-15.4456 1601.6492,-11.2481 1591.427,-8.4631 1591.9214,-15.4456"/>
</g>
<!-- Node41&#45;&gt;Node6 -->
<g id="edge65" class="edge">
<title>Node41&#45;&gt;Node6</title>
<path fill="none" stroke="#191970" d="M813.9894,-125.462C800.2381,-114.9464 777.3109,-97.4138 760.7799,-84.7725"/>
<polygon fill="#191970" stroke="#191970" points="762.8705,-81.965 752.8008,-78.6708 758.6183,-87.5256 762.8705,-81.965"/>
</g>
<!-- Node53&#45;&gt;Node2 -->
<g id="edge74" class="edge">
<title>Node53&#45;&gt;Node2</title>
<path fill="none" stroke="#191970" d="M773.3659,-189.2102C829.666,-183.053 917.4032,-170.8238 990.8082,-149 1021.5198,-139.8693 1026.0808,-129.077 1056.8082,-120 1100.5606,-107.0755 1219.1111,-89.6346 1296.8301,-78.9975"/>
<polygon fill="#191970" stroke="#191970" points="1297.6048,-82.4244 1307.041,-77.6069 1296.6601,-75.4884 1297.6048,-82.4244"/>
</g>
<!-- Node53&#45;&gt;Node4 -->
<g id="edge79" class="edge">
<title>Node53&#45;&gt;Node4</title>
<path fill="none" stroke="#191970" d="M711.5885,-185.4785C700.7343,-160.7888 675.0485,-91.5253 709.8082,-55 713.6786,-50.9331 1420.9512,-18.8194 1591.2434,-11.1437"/>
<polygon fill="#191970" stroke="#191970" points="1591.6143,-14.6307 1601.4466,-10.6841 1591.2992,-7.6377 1591.6143,-14.6307"/>
</g>
<!-- Node53&#45;&gt;Node6 -->
<g id="edge82" class="edge">
<title>Node53&#45;&gt;Node6</title>
<path fill="none" stroke="#191970" d="M717.6873,-185.1047C721.7793,-164.6447 731.5643,-115.7198 737.0017,-88.5327"/>
<polygon fill="#191970" stroke="#191970" points="740.4461,-89.1569 738.9753,-78.6646 733.582,-87.784 740.4461,-89.1569"/>
</g>
<!-- Node53&#45;&gt;Node31 -->
<g id="edge77" class="edge">
<title>Node53&#45;&gt;Node31</title>
<path fill="none" stroke="#191970" d="M658.1577,-189.6324C591.2414,-181.895 494.8519,-163.0059 534.8082,-120 557.2396,-95.8567 1051.1687,-75.7977 1186.6853,-70.7342"/>
<polygon fill="#191970" stroke="#191970" points="1187.0267,-74.224 1196.8902,-70.356 1186.7674,-67.2288 1187.0267,-74.224"/>
</g>
<!-- Node53&#45;&gt;Node32 -->
<g id="edge76" class="edge">
<title>Node53&#45;&gt;Node32</title>
<path fill="none" stroke="#191970" d="M773.4163,-189.7805C862.5706,-182.291 1039.2958,-166.7064 1188.8082,-149 1200.8569,-147.5731 1213.676,-145.8964 1226.031,-144.1993"/>
<polygon fill="#191970" stroke="#191970" points="1226.851,-147.6191 1236.2731,-142.774 1225.8861,-140.6859 1226.851,-147.6191"/>
</g>
<!-- Node53&#45;&gt;Node35 -->
<g id="edge78" class="edge">
<title>Node53&#45;&gt;Node35</title>
<path fill="none" stroke="#191970" d="M667.1227,-185.4157C613.827,-175.2467 531.9393,-158.9007 501.8082,-149 500.3596,-148.524 498.8888,-148.0027 497.4138,-147.4494"/>
<polygon fill="#191970" stroke="#191970" points="498.3917,-144.0663 487.8132,-143.4771 495.7154,-150.5345 498.3917,-144.0663"/>
</g>
<!-- Node53&#45;&gt;Node41 -->
<g id="edge75" class="edge">
<title>Node53&#45;&gt;Node41</title>
<path fill="none" stroke="#191970" d="M732.5149,-185.3873C750.5483,-175.5509 779.4852,-159.7671 800.3529,-148.3847"/>
<polygon fill="#191970" stroke="#191970" points="802.2018,-151.3631 809.3048,-143.5019 798.8498,-145.2178 802.2018,-151.3631"/>
</g>
<!-- Node47 -->
<g id="node45" class="node">
<title>Node47</title>
<g id="a_node45"><a xlink:href="cycles_8hpp.html" target="_top" xlink:title="../algorithm/graph\l/cycles.hpp">
<polygon fill="#ffffff" stroke="#ff0000" points="887.8996,-120.5 887.8996,-148.5 981.7169,-148.5 981.7169,-120.5 887.8996,-120.5"/>
<text text-anchor="start" x="895.8996" y="-136.5" font-family="Helvetica,sans-Serif" font-size="10.00" fill="#000000">../algorithm/graph</text>
<text text-anchor="middle" x="934.8082" y="-126.5" font-family="Helvetica,sans-Serif" font-size="10.00" fill="#000000">/cycles.hpp</text>
</a>
</g>
</g>
<!-- Node53&#45;&gt;Node47 -->
<g id="edge72" class="edge">
<title>Node53&#45;&gt;Node47</title>
<path fill="none" stroke="#191970" d="M749.0696,-185.3873C783.2274,-176.029 837.0342,-161.2874 877.9614,-150.0745"/>
<polygon fill="#191970" stroke="#191970" points="879.0844,-153.3959 887.8041,-147.3778 877.2347,-146.6447 879.0844,-153.3959"/>
</g>
<!-- Node54 -->
<g id="node46" class="node">
<title>Node54</title>
<polygon fill="#ffffff" stroke="#bfbfbf" points="544.1383,-125.5 544.1383,-143.5 573.4782,-143.5 573.4782,-125.5 544.1383,-125.5"/>
<text text-anchor="middle" x="558.8082" y="-131.5" font-family="Helvetica,sans-Serif" font-size="10.00" fill="#000000">set</text>
</g>
<!-- Node53&#45;&gt;Node54 -->
<g id="edge80" class="edge">
<title>Node53&#45;&gt;Node54</title>
<path fill="none" stroke="#191970" d="M683.0718,-185.4374C655.6753,-177.3522 615.8707,-164.4261 582.8082,-149 582.3891,-148.8045 581.9681,-148.6035 581.5458,-148.3977"/>
<polygon fill="#191970" stroke="#191970" points="583.2018,-145.3142 572.7458,-143.6048 579.8537,-151.4616 583.2018,-145.3142"/>
</g>
<!-- Node55 -->
<g id="node47" class="node">
<title>Node55</title>
<polygon fill="#ffffff" stroke="#bfbfbf" points="591.4069,-125.5 591.4069,-143.5 650.2096,-143.5 650.2096,-125.5 591.4069,-125.5"/>
<text text-anchor="middle" x="620.8082" y="-131.5" font-family="Helvetica,sans-Serif" font-size="10.00" fill="#000000">stdexcept</text>
</g>
<!-- Node53&#45;&gt;Node55 -->
<g id="edge81" class="edge">
<title>Node53&#45;&gt;Node55</title>
<path fill="none" stroke="#191970" d="M701.3798,-185.3873C686.0861,-175.7281 661.712,-160.334 643.7733,-149.0042"/>
<polygon fill="#191970" stroke="#191970" points="645.3851,-145.8826 635.0612,-143.5019 641.6471,-151.8011 645.3851,-145.8826"/>
</g>
<!-- Node47&#45;&gt;Node2 -->
<g id="edge73" class="edge">
<title>Node47&#45;&gt;Node2</title>
<path fill="none" stroke="#191970" d="M981.9987,-122.7961C986.6518,-121.7886 991.3135,-120.8364 995.8082,-120 1024.6903,-114.6257 1197.0421,-91.884 1297.0554,-78.8257"/>
<polygon fill="#191970" stroke="#191970" points="1297.6321,-82.2802 1307.0951,-77.5156 1296.7263,-75.339 1297.6321,-82.2802"/>
</g>
<!-- Node56&#45;&gt;Node2 -->
<g id="edge85" class="edge">
<title>Node56&#45;&gt;Node2</title>
<path fill="none" stroke="#191970" d="M1606.7748,-185.3729C1602.761,-169.5498 1592.2826,-137.085 1570.8082,-120 1550.1226,-103.5425 1487.145,-89.4072 1436.9484,-80.3121"/>
<polygon fill="#191970" stroke="#191970" points="1437.554,-76.865 1427.0958,-78.5611 1436.3291,-83.757 1437.554,-76.865"/>
</g>
<!-- Node56&#45;&gt;Node4 -->
<g id="edge87" class="edge">
<title>Node56&#45;&gt;Node4</title>
<path fill="none" stroke="#191970" d="M1609.7505,-185.3258C1612.6946,-156.6591 1621.7662,-68.33 1625.818,-28.8792"/>
<polygon fill="#191970" stroke="#191970" points="1629.3203,-29.0348 1626.8603,-18.7296 1622.3569,-28.3196 1629.3203,-29.0348"/>
</g>
<!-- Node56&#45;&gt;Node25 -->
<g id="edge86" class="edge">
<title>Node56&#45;&gt;Node25</title>
<path fill="none" stroke="#191970" d="M1638.9488,-188.4942C1645.7905,-187.24 1653.0364,-185.9975 1659.8082,-185 1806.2072,-163.4352 1848.8401,-190.7461 1990.8082,-149 1992.2258,-148.5832 1993.6576,-148.0993 1995.0858,-147.5667"/>
<polygon fill="#191970" stroke="#191970" points="1996.5201,-150.7595 2004.2694,-143.5346 1993.706,-144.35 1996.5201,-150.7595"/>
</g>
<!-- Node57&#45;&gt;Node2 -->
<g id="edge90" class="edge">
<title>Node57&#45;&gt;Node2</title>
<path fill="none" stroke="#191970" d="M2071.891,-185.3815C2071.4904,-169.2701 2068.0982,-135.9658 2047.8082,-120 2000.9195,-83.104 1605.6585,-72.9946 1440.6864,-70.3695"/>
<polygon fill="#191970" stroke="#191970" points="1440.6853,-66.8691 1430.6324,-70.2142 1440.5772,-73.8683 1440.6853,-66.8691"/>
</g>
<!-- Node57&#45;&gt;Node4 -->
<g id="edge92" class="edge">
<title>Node57&#45;&gt;Node4</title>
<path fill="none" stroke="#191970" d="M2074.1949,-185.0583C2077.4127,-170.1552 2081.4906,-140.7438 2069.8082,-120 2056.711,-96.7437 1993.8602,-64.2084 1968.8082,-55 1913.3267,-34.6065 1739.7778,-18.5478 1663.9108,-12.3126"/>
<polygon fill="#191970" stroke="#191970" points="1664.1267,-8.8187 1653.8764,-11.4986 1663.5606,-15.7958 1664.1267,-8.8187"/>
</g>
<!-- Node57&#45;&gt;Node25 -->
<g id="edge91" class="edge">
<title>Node57&#45;&gt;Node25</title>
<path fill="none" stroke="#191970" d="M2063.9106,-185.3873C2056.1222,-176.4007 2044.0315,-162.4499 2034.478,-151.4267"/>
<polygon fill="#191970" stroke="#191970" points="2036.9745,-148.9631 2027.7803,-143.6985 2031.6847,-153.5477 2036.9745,-148.9631"/>
</g>
<!-- Node58&#45;&gt;Node2 -->
<g id="edge98" class="edge">
<title>Node58&#45;&gt;Node2</title>
<path fill="none" stroke="#191970" d="M1080.3338,-185.1143C1069.0615,-169.7601 1050.6574,-139.0758 1066.8082,-120 1074.2528,-111.2072 1210.1452,-91.1597 1297.0789,-79.1362"/>
<polygon fill="#191970" stroke="#191970" points="1297.7349,-82.579 1307.1637,-77.747 1296.7796,-75.6445 1297.7349,-82.579"/>
</g>
<!-- Node58&#45;&gt;Node6 -->
<g id="edge100" class="edge">
<title>Node58&#45;&gt;Node6</title>
<path fill="none" stroke="#191970" d="M1053.5264,-193.7632C981.1529,-191.5508 815.8823,-182.8312 772.8082,-149 754.1164,-134.319 746.2919,-107.0029 743.0505,-88.5377"/>
<polygon fill="#191970" stroke="#191970" points="746.5092,-88.0002 741.596,-78.6135 739.5832,-89.0154 746.5092,-88.0002"/>
</g>
<!-- Node58&#45;&gt;Node52 -->
<g id="edge99" class="edge">
<title>Node58&#45;&gt;Node52</title>
<path fill="none" stroke="#191970" d="M1093.8834,-185.3873C1099.757,-176.5769 1108.8115,-162.9951 1116.0893,-152.0784"/>
<polygon fill="#191970" stroke="#191970" points="1119.0411,-153.9605 1121.6759,-143.6985 1113.2167,-150.0775 1119.0411,-153.9605"/>
</g>
</g>
</svg>
