<?xml version="1.0" encoding="UTF-8" standalone="no"?>
<!DOCTYPE svg PUBLIC "-//W3C//DTD SVG 1.1//EN"
 "http://www.w3.org/Graphics/SVG/1.1/DTD/svg11.dtd">
<!-- Generated by graphviz version 2.40.1 (20161225.0304)
 -->
<!-- Title: include/indigox/classes/dihedral.hpp Pages: 1 -->
<svg width="1951pt" height="267pt"
 viewBox="0.00 0.00 1951.23 267.00" xmlns="http://www.w3.org/2000/svg" xmlns:xlink="http://www.w3.org/1999/xlink">
<g id="graph0" class="graph" transform="scale(1 1) rotate(0) translate(4 263)">
<title>include/indigox/classes/dihedral.hpp</title>
<polygon fill="#ffffff" stroke="transparent" points="-4,4 -4,-263 1947.2312,-263 1947.2312,4 -4,4"/>
<!-- Node0 -->
<g id="node1" class="node">
<title>Node0</title>
<polygon fill="#bfbfbf" stroke="#000000" points="139.9895,-230.5 139.9895,-258.5 258.2698,-258.5 258.2698,-230.5 139.9895,-230.5"/>
<text text-anchor="start" x="147.9895" y="-246.5" font-family="Helvetica,sans-Serif" font-size="10.00" fill="#000000">include/indigox/classes</text>
<text text-anchor="middle" x="199.1297" y="-236.5" font-family="Helvetica,sans-Serif" font-size="10.00" fill="#000000">/dihedral.hpp</text>
</g>
<!-- Node1 -->
<g id="node2" class="node">
<title>Node1</title>
<g id="a_node2"><a xlink:href="fwd__declares_8hpp.html" target="_top" xlink:title="../utils/fwd_declares.hpp">
<polygon fill="#ffffff" stroke="#000000" points="12.4895,-60.5 12.4895,-78.5 135.7698,-78.5 135.7698,-60.5 12.4895,-60.5"/>
<text text-anchor="middle" x="74.1297" y="-66.5" font-family="Helvetica,sans-Serif" font-size="10.00" fill="#000000">../utils/fwd_declares.hpp</text>
</a>
</g>
</g>
<!-- Node0&#45;&gt;Node1 -->
<g id="edge1" class="edge">
<title>Node0&#45;&gt;Node1</title>
<path fill="none" stroke="#191970" d="M183.6312,-230.2712C173.4985,-220.5648 160.3054,-207.1331 150.1297,-194 122.7294,-158.6363 96.954,-112.7921 83.6091,-87.7726"/>
<polygon fill="#191970" stroke="#191970" points="86.5867,-85.9153 78.8293,-78.6991 80.3934,-89.1778 86.5867,-85.9153"/>
</g>
<!-- Node2 -->
<g id="node3" class="node">
<title>Node2</title>
<polygon fill="#ffffff" stroke="#bfbfbf" points="12.679,-.5 12.679,-18.5 57.5804,-18.5 57.5804,-.5 12.679,-.5"/>
<text text-anchor="middle" x="35.1297" y="-6.5" font-family="Helvetica,sans-Serif" font-size="10.00" fill="#000000">cstdint</text>
</g>
<!-- Node0&#45;&gt;Node2 -->
<g id="edge24" class="edge">
<title>Node0&#45;&gt;Node2</title>
<path fill="none" stroke="#191970" d="M168.2887,-230.413C122.1316,-207.3798 36.9011,-156.8148 3.1297,-84 -5.8812,-64.5716 7.1203,-41.923 19.153,-26.7436"/>
<polygon fill="#191970" stroke="#191970" points="22.1389,-28.6352 25.9519,-18.7502 16.8068,-24.0998 22.1389,-28.6352"/>
</g>
<!-- Node3 -->
<g id="node4" class="node">
<title>Node3</title>
<polygon fill="#ffffff" stroke="#bfbfbf" points="87.073,-.5 87.073,-18.5 139.1863,-18.5 139.1863,-.5 87.073,-.5"/>
<text text-anchor="middle" x="113.1297" y="-6.5" font-family="Helvetica,sans-Serif" font-size="10.00" fill="#000000">memory</text>
</g>
<!-- Node0&#45;&gt;Node3 -->
<g id="edge25" class="edge">
<title>Node0&#45;&gt;Node3</title>
<path fill="none" stroke="#191970" d="M194.4952,-230.3973C191.2162,-220.2949 186.7725,-206.3496 183.1297,-194 165.0097,-132.572 172.4029,-112.9474 145.1297,-55 140.4183,-44.9897 133.5152,-34.8267 127.3255,-26.6525"/>
<polygon fill="#191970" stroke="#191970" points="129.9669,-24.3496 121.0266,-18.6644 124.4702,-28.684 129.9669,-24.3496"/>
</g>
<!-- Node4 -->
<g id="node5" class="node">
<title>Node4</title>
<g id="a_node5"><a xlink:href="quad_8hpp.html" target="_top" xlink:title="../utils/quad.hpp">
<polygon fill="#ffffff" stroke="#000000" points="191.8269,-175.5 191.8269,-193.5 278.4324,-193.5 278.4324,-175.5 191.8269,-175.5"/>
<text text-anchor="middle" x="235.1297" y="-181.5" font-family="Helvetica,sans-Serif" font-size="10.00" fill="#000000">../utils/quad.hpp</text>
</a>
</g>
</g>
<!-- Node0&#45;&gt;Node4 -->
<g id="edge4" class="edge">
<title>Node0&#45;&gt;Node4</title>
<path fill="none" stroke="#191970" d="M207.6612,-230.2808C212.6695,-221.9336 219.0451,-211.3076 224.3929,-202.3946"/>
<polygon fill="#191970" stroke="#191970" points="227.5354,-203.9599 229.6792,-193.5842 221.5329,-200.3584 227.5354,-203.9599"/>
</g>
<!-- Node21 -->
<g id="node22" class="node">
<title>Node21</title>
<polygon fill="#ffffff" stroke="#bfbfbf" points="296.7381,-175.5 296.7381,-193.5 335.5213,-193.5 335.5213,-175.5 296.7381,-175.5"/>
<text text-anchor="middle" x="316.1297" y="-181.5" font-family="Helvetica,sans-Serif" font-size="10.00" fill="#000000">array</text>
</g>
<!-- Node0&#45;&gt;Node21 -->
<g id="edge23" class="edge">
<title>Node0&#45;&gt;Node21</title>
<path fill="none" stroke="#191970" d="M226.561,-230.4327C245.5129,-220.7137 270.5935,-207.8519 289.3932,-198.211"/>
<polygon fill="#191970" stroke="#191970" points="291.023,-201.3086 298.3241,-193.6311 287.8288,-195.0799 291.023,-201.3086"/>
</g>
<!-- Node22 -->
<g id="node23" class="node">
<title>Node22</title>
<polygon fill="#ffffff" stroke="#bfbfbf" points="353.9031,-175.5 353.9031,-193.5 394.3562,-193.5 394.3562,-175.5 353.9031,-175.5"/>
<text text-anchor="middle" x="374.1297" y="-181.5" font-family="Helvetica,sans-Serif" font-size="10.00" fill="#000000">string</text>
</g>
<!-- Node0&#45;&gt;Node22 -->
<g id="edge26" class="edge">
<title>Node0&#45;&gt;Node22</title>
<path fill="none" stroke="#191970" d="M240.1594,-230.4327C271.9696,-219.5263 315.3232,-204.6622 343.991,-194.8333"/>
<polygon fill="#191970" stroke="#191970" points="345.1513,-198.1355 353.4757,-191.5814 342.881,-191.5139 345.1513,-198.1355"/>
</g>
<!-- Node1&#45;&gt;Node2 -->
<g id="edge2" class="edge">
<title>Node1&#45;&gt;Node2</title>
<path fill="none" stroke="#191970" d="M68.2064,-60.3873C62.5369,-51.665 53.8277,-38.2663 46.769,-27.4067"/>
<polygon fill="#191970" stroke="#191970" points="49.4932,-25.1754 41.1087,-18.6985 43.624,-28.9904 49.4932,-25.1754"/>
</g>
<!-- Node1&#45;&gt;Node3 -->
<g id="edge3" class="edge">
<title>Node1&#45;&gt;Node3</title>
<path fill="none" stroke="#191970" d="M80.0529,-60.3873C85.7224,-51.665 94.4316,-38.2663 101.4903,-27.4067"/>
<polygon fill="#191970" stroke="#191970" points="104.6353,-28.9904 107.1507,-18.6985 98.7662,-25.1754 104.6353,-28.9904"/>
</g>
<!-- Node5 -->
<g id="node6" class="node">
<title>Node5</title>
<polygon fill="#ffffff" stroke="#bfbfbf" points="192.0633,-60.5 192.0633,-78.5 254.1961,-78.5 254.1961,-60.5 192.0633,-60.5"/>
<text text-anchor="middle" x="223.1297" y="-66.5" font-family="Helvetica,sans-Serif" font-size="10.00" fill="#000000">type_traits</text>
</g>
<!-- Node4&#45;&gt;Node5 -->
<g id="edge5" class="edge">
<title>Node4&#45;&gt;Node5</title>
<path fill="none" stroke="#191970" d="M234.188,-175.4761C232.2523,-156.9256 227.788,-114.142 225.1618,-88.9748"/>
<polygon fill="#191970" stroke="#191970" points="228.6193,-88.3841 224.1002,-78.8014 221.6571,-89.1106 228.6193,-88.3841"/>
</g>
<!-- Node6 -->
<g id="node7" class="node">
<title>Node6</title>
<polygon fill="#ffffff" stroke="#bfbfbf" points="904.7381,-120.5 904.7381,-138.5 943.5213,-138.5 943.5213,-120.5 904.7381,-120.5"/>
<text text-anchor="middle" x="924.1297" y="-126.5" font-family="Helvetica,sans-Serif" font-size="10.00" fill="#000000">utility</text>
</g>
<!-- Node4&#45;&gt;Node6 -->
<g id="edge6" class="edge">
<title>Node4&#45;&gt;Node6</title>
<path fill="none" stroke="#191970" d="M278.453,-176.3041C281.7209,-175.8179 284.9735,-175.375 288.1297,-175 553.6534,-143.4542 628.642,-189.7951 894.774,-138.7618"/>
<polygon fill="#191970" stroke="#191970" points="895.5814,-142.1705 904.7288,-136.8249 894.2444,-135.2993 895.5814,-142.1705"/>
</g>
<!-- Node7 -->
<g id="node8" class="node">
<title>Node7</title>
<g id="a_node8"><a xlink:href="serialise_8hpp.html" target="_top" xlink:title="serialise.hpp">
<polygon fill="#ffffff" stroke="#000000" points="815.0584,-120.5 815.0584,-138.5 887.201,-138.5 887.201,-120.5 815.0584,-120.5"/>
<text text-anchor="middle" x="851.1297" y="-126.5" font-family="Helvetica,sans-Serif" font-size="10.00" fill="#000000">serialise.hpp</text>
</a>
</g>
</g>
<!-- Node4&#45;&gt;Node7 -->
<g id="edge7" class="edge">
<title>Node4&#45;&gt;Node7</title>
<path fill="none" stroke="#191970" d="M278.4625,-176.3806C281.7282,-175.8767 284.9777,-175.4089 288.1297,-175 479.0698,-150.2308 708.3026,-136.6909 804.7683,-131.7256"/>
<polygon fill="#191970" stroke="#191970" points="804.9666,-135.2202 814.776,-131.2169 804.6112,-128.2292 804.9666,-135.2202"/>
</g>
<!-- Node7&#45;&gt;Node1 -->
<g id="edge8" class="edge">
<title>Node7&#45;&gt;Node1</title>
<path fill="none" stroke="#191970" d="M814.8558,-127.8501C714.3278,-123.1005 423.6998,-108.1691 183.1297,-84 171.1838,-82.7998 158.5289,-81.3143 146.2344,-79.7559"/>
<polygon fill="#191970" stroke="#191970" points="146.3816,-76.2459 136.0152,-78.4345 145.4838,-83.1881 146.3816,-76.2459"/>
</g>
<!-- Node7&#45;&gt;Node5 -->
<g id="edge22" class="edge">
<title>Node7&#45;&gt;Node5</title>
<path fill="none" stroke="#191970" d="M814.7861,-127.9755C703.6306,-123.1099 369.3454,-106.9165 263.1297,-84 260.2866,-83.3866 257.3718,-82.6189 254.4747,-81.7588"/>
<polygon fill="#191970" stroke="#191970" points="255.4154,-78.3835 244.8222,-78.5689 253.2189,-85.03 255.4154,-78.3835"/>
</g>
<!-- Node8 -->
<g id="node9" class="node">
<title>Node8</title>
<polygon fill="#ffffff" stroke="#bfbfbf" points="408.8294,-60.5 408.8294,-78.5 505.43,-78.5 505.43,-60.5 408.8294,-60.5"/>
<text text-anchor="middle" x="457.1297" y="-66.5" font-family="Helvetica,sans-Serif" font-size="10.00" fill="#000000">cereal/access.hpp</text>
</g>
<!-- Node7&#45;&gt;Node8 -->
<g id="edge9" class="edge">
<title>Node7&#45;&gt;Node8</title>
<path fill="none" stroke="#191970" d="M814.9981,-125.9993C753.0655,-119.6922 622.7988,-105.0855 514.1297,-84 509.4278,-83.0877 504.5353,-82.0229 499.6799,-80.8921"/>
<polygon fill="#191970" stroke="#191970" points="500.3818,-77.4609 489.8386,-78.5061 498.7324,-84.2639 500.3818,-77.4609"/>
</g>
<!-- Node9 -->
<g id="node10" class="node">
<title>Node9</title>
<polygon fill="#ffffff" stroke="#bfbfbf" points="523.2112,-60.5 523.2112,-78.5 647.0481,-78.5 647.0481,-60.5 523.2112,-60.5"/>
<text text-anchor="middle" x="585.1297" y="-66.5" font-family="Helvetica,sans-Serif" font-size="10.00" fill="#000000">cereal/archives/json.hpp</text>
</g>
<!-- Node7&#45;&gt;Node9 -->
<g id="edge10" class="edge">
<title>Node7&#45;&gt;Node9</title>
<path fill="none" stroke="#191970" d="M814.9789,-121.3457C768.5021,-110.8622 687.5627,-92.6052 635.1863,-80.791"/>
<polygon fill="#191970" stroke="#191970" points="635.6356,-77.3044 625.1105,-78.5182 634.0953,-84.1329 635.6356,-77.3044"/>
</g>
<!-- Node10 -->
<g id="node11" class="node">
<title>Node10</title>
<polygon fill="#ffffff" stroke="#bfbfbf" points="665.0462,-55.5 665.0462,-83.5 787.2132,-83.5 787.2132,-55.5 665.0462,-55.5"/>
<text text-anchor="start" x="673.0462" y="-71.5" font-family="Helvetica,sans-Serif" font-size="10.00" fill="#000000">cereal/archives/portable</text>
<text text-anchor="middle" x="726.1297" y="-61.5" font-family="Helvetica,sans-Serif" font-size="10.00" fill="#000000">_binary.hpp</text>
</g>
<!-- Node7&#45;&gt;Node10 -->
<g id="edge11" class="edge">
<title>Node7&#45;&gt;Node10</title>
<path fill="none" stroke="#191970" d="M832.1449,-120.3873C814.3363,-111.8392 787.1702,-98.7995 764.7967,-88.0602"/>
<polygon fill="#191970" stroke="#191970" points="766.0726,-84.7903 755.5428,-83.6183 763.0434,-91.101 766.0726,-84.7903"/>
</g>
<!-- Node11 -->
<g id="node12" class="node">
<title>Node11</title>
<polygon fill="#ffffff" stroke="#bfbfbf" points="804.7727,-60.5 804.7727,-78.5 897.4866,-78.5 897.4866,-60.5 804.7727,-60.5"/>
<text text-anchor="middle" x="851.1297" y="-66.5" font-family="Helvetica,sans-Serif" font-size="10.00" fill="#000000">cereal/cereal.hpp</text>
</g>
<!-- Node7&#45;&gt;Node11 -->
<g id="edge12" class="edge">
<title>Node7&#45;&gt;Node11</title>
<path fill="none" stroke="#191970" d="M851.1297,-120.3873C851.1297,-112.0174 851.1297,-99.3414 851.1297,-88.735"/>
<polygon fill="#191970" stroke="#191970" points="854.6298,-88.6984 851.1297,-78.6985 847.6298,-88.6985 854.6298,-88.6984"/>
</g>
<!-- Node12 -->
<g id="node13" class="node">
<title>Node12</title>
<polygon fill="#ffffff" stroke="#bfbfbf" points="915.0281,-60.5 915.0281,-78.5 1029.2312,-78.5 1029.2312,-60.5 915.0281,-60.5"/>
<text text-anchor="middle" x="972.1297" y="-66.5" font-family="Helvetica,sans-Serif" font-size="10.00" fill="#000000">cereal/types/array.hpp</text>
</g>
<!-- Node7&#45;&gt;Node12 -->
<g id="edge13" class="edge">
<title>Node7&#45;&gt;Node12</title>
<path fill="none" stroke="#191970" d="M869.507,-120.3873C889.5224,-110.4623 921.7488,-94.4822 944.747,-83.0782"/>
<polygon fill="#191970" stroke="#191970" points="946.5717,-86.0801 953.9759,-78.5019 943.462,-79.8088 946.5717,-86.0801"/>
</g>
<!-- Node13 -->
<g id="node14" class="node">
<title>Node13</title>
<polygon fill="#ffffff" stroke="#bfbfbf" points="1047.1004,-60.5 1047.1004,-78.5 1163.159,-78.5 1163.159,-60.5 1047.1004,-60.5"/>
<text text-anchor="middle" x="1105.1297" y="-66.5" font-family="Helvetica,sans-Serif" font-size="10.00" fill="#000000">cereal/types/bitset.hpp</text>
</g>
<!-- Node7&#45;&gt;Node13 -->
<g id="edge14" class="edge">
<title>Node7&#45;&gt;Node13</title>
<path fill="none" stroke="#191970" d="M887.2519,-120.9672C931.7148,-110.4641 1007.3858,-92.5891 1056.8147,-80.913"/>
<polygon fill="#191970" stroke="#191970" points="1057.7107,-84.2977 1066.6382,-78.5925 1056.1014,-77.4852 1057.7107,-84.2977"/>
</g>
<!-- Node14 -->
<g id="node15" class="node">
<title>Node14</title>
<polygon fill="#ffffff" stroke="#bfbfbf" points="1181.2679,-55.5 1181.2679,-83.5 1288.9915,-83.5 1288.9915,-55.5 1181.2679,-55.5"/>
<text text-anchor="start" x="1189.2679" y="-71.5" font-family="Helvetica,sans-Serif" font-size="10.00" fill="#000000">cereal/types/boost</text>
<text text-anchor="middle" x="1235.1297" y="-61.5" font-family="Helvetica,sans-Serif" font-size="10.00" fill="#000000">_dynamic_bitset.hpp</text>
</g>
<!-- Node7&#45;&gt;Node14 -->
<g id="edge15" class="edge">
<title>Node7&#45;&gt;Node14</title>
<path fill="none" stroke="#191970" d="M887.4322,-121.5812C890.3695,-121.0183 893.2961,-120.4831 896.1297,-120 1014.8602,-99.7561 1048.6119,-105.565 1171.0942,-84.0699"/>
<polygon fill="#191970" stroke="#191970" points="1172.0124,-87.4615 1181.2438,-82.2624 1170.785,-80.5699 1172.0124,-87.4615"/>
</g>
<!-- Node15 -->
<g id="node16" class="node">
<title>Node15</title>
<polygon fill="#ffffff" stroke="#bfbfbf" points="1307.221,-55.5 1307.221,-83.5 1401.0384,-83.5 1401.0384,-55.5 1307.221,-55.5"/>
<text text-anchor="start" x="1315.221" y="-71.5" font-family="Helvetica,sans-Serif" font-size="10.00" fill="#000000">cereal/types/eastl</text>
<text text-anchor="middle" x="1354.1297" y="-61.5" font-family="Helvetica,sans-Serif" font-size="10.00" fill="#000000">_bitset.hpp</text>
</g>
<!-- Node7&#45;&gt;Node15 -->
<g id="edge16" class="edge">
<title>Node7&#45;&gt;Node15</title>
<path fill="none" stroke="#191970" d="M887.4119,-121.4542C890.3538,-120.9197 893.2869,-120.4258 896.1297,-120 1070.3271,-93.9069 1119.6037,-113.836 1297.2597,-83.9491"/>
<polygon fill="#191970" stroke="#191970" points="1297.9314,-87.3851 1307.1977,-82.2482 1296.7505,-80.4854 1297.9314,-87.3851"/>
</g>
<!-- Node16 -->
<g id="node17" class="node">
<title>Node16</title>
<polygon fill="#ffffff" stroke="#bfbfbf" points="1418.8172,-60.5 1418.8172,-78.5 1535.4422,-78.5 1535.4422,-60.5 1418.8172,-60.5"/>
<text text-anchor="middle" x="1477.1297" y="-66.5" font-family="Helvetica,sans-Serif" font-size="10.00" fill="#000000">cereal/types/eigen.hpp</text>
</g>
<!-- Node7&#45;&gt;Node16 -->
<g id="edge17" class="edge">
<title>Node7&#45;&gt;Node16</title>
<path fill="none" stroke="#191970" d="M887.403,-121.3931C890.3469,-120.8723 893.2829,-120.3982 896.1297,-120 1122.9253,-88.273 1183.4153,-116.3024 1410.1297,-84 1416.5473,-83.0856 1423.2671,-81.9039 1429.87,-80.61"/>
<polygon fill="#191970" stroke="#191970" points="1431.0003,-83.9508 1440.0894,-78.5068 1429.5892,-77.0945 1431.0003,-83.9508"/>
</g>
<!-- Node17 -->
<g id="node18" class="node">
<title>Node17</title>
<polygon fill="#ffffff" stroke="#bfbfbf" points="1553.3245,-60.5 1553.3245,-78.5 1664.9348,-78.5 1664.9348,-60.5 1553.3245,-60.5"/>
<text text-anchor="middle" x="1609.1297" y="-66.5" font-family="Helvetica,sans-Serif" font-size="10.00" fill="#000000">cereal/types/map.hpp</text>
</g>
<!-- Node7&#45;&gt;Node17 -->
<g id="edge18" class="edge">
<title>Node7&#45;&gt;Node17</title>
<path fill="none" stroke="#191970" d="M887.3968,-121.3476C890.3421,-120.837 893.2801,-120.3777 896.1297,-120 1182.0729,-82.0995 1258.4076,-123.5336 1544.1297,-84 1550.4431,-83.1264 1557.0515,-81.9568 1563.5351,-80.659"/>
<polygon fill="#191970" stroke="#191970" points="1564.5013,-84.0321 1573.5605,-78.5384 1563.0526,-77.1837 1564.5013,-84.0321"/>
</g>
<!-- Node18 -->
<g id="node19" class="node">
<title>Node18</title>
<polygon fill="#ffffff" stroke="#bfbfbf" points="1683.3631,-60.5 1683.3631,-78.5 1810.8963,-78.5 1810.8963,-60.5 1683.3631,-60.5"/>
<text text-anchor="middle" x="1747.1297" y="-66.5" font-family="Helvetica,sans-Serif" font-size="10.00" fill="#000000">cereal/types/memory.hpp</text>
</g>
<!-- Node7&#45;&gt;Node18 -->
<g id="edge19" class="edge">
<title>Node7&#45;&gt;Node18</title>
<path fill="none" stroke="#191970" d="M887.393,-121.3183C890.3391,-120.8144 893.2784,-120.3645 896.1297,-120 1239.4832,-76.1066 1330.5194,-125.8363 1674.1297,-84 1681.6211,-83.0879 1689.4941,-81.8372 1697.1844,-80.4499"/>
<polygon fill="#191970" stroke="#191970" points="1697.9674,-83.8639 1707.1417,-78.5645 1696.665,-76.9862 1697.9674,-83.8639"/>
</g>
<!-- Node19 -->
<g id="node20" class="node">
<title>Node19</title>
<polygon fill="#ffffff" stroke="#bfbfbf" points="1829.0281,-60.5 1829.0281,-78.5 1943.2312,-78.5 1943.2312,-60.5 1829.0281,-60.5"/>
<text text-anchor="middle" x="1886.1297" y="-66.5" font-family="Helvetica,sans-Serif" font-size="10.00" fill="#000000">cereal/types/utility.hpp</text>
</g>
<!-- Node7&#45;&gt;Node19 -->
<g id="edge20" class="edge">
<title>Node7&#45;&gt;Node19</title>
<path fill="none" stroke="#191970" d="M887.3901,-121.2953C890.3369,-120.7965 893.2771,-120.3541 896.1297,-120 1303.9778,-69.3736 1412.4927,-136.2992 1820.1297,-84 1826.775,-83.1474 1833.74,-81.9536 1840.5513,-80.6133"/>
<polygon fill="#191970" stroke="#191970" points="1841.2904,-84.0345 1850.3656,-78.5673 1839.8617,-77.1818 1841.2904,-84.0345"/>
</g>
<!-- Node20 -->
<g id="node21" class="node">
<title>Node20</title>
<polygon fill="#ffffff" stroke="#bfbfbf" points="271.7088,-60.5 271.7088,-78.5 390.5506,-78.5 390.5506,-60.5 271.7088,-60.5"/>
<text text-anchor="middle" x="331.1297" y="-66.5" font-family="Helvetica,sans-Serif" font-size="10.00" fill="#000000">cereal/types/vector.hpp</text>
</g>
<!-- Node7&#45;&gt;Node20 -->
<g id="edge21" class="edge">
<title>Node7&#45;&gt;Node20</title>
<path fill="none" stroke="#191970" d="M815.0101,-127.1691C738.2862,-121.93 553.5244,-107.786 400.1297,-84 393.7791,-83.0153 387.1314,-81.8246 380.5754,-80.5539"/>
<polygon fill="#191970" stroke="#191970" points="380.8983,-77.0488 370.4046,-78.5092 379.5186,-83.9115 380.8983,-77.0488"/>
</g>
</g>
</svg>
