<?xml version="1.0" encoding="UTF-8" standalone="no"?>
<!DOCTYPE svg PUBLIC "-//W3C//DTD SVG 1.1//EN"
 "http://www.w3.org/Graphics/SVG/1.1/DTD/svg11.dtd">
<!-- Generated by graphviz version 2.40.1 (20161225.0304)
 -->
<!-- Title: include/indigox/algorithm/electron_assignment Pages: 1 -->
<svg width="160pt" height="294pt"
 viewBox="0.00 0.00 160.00 294.00" xmlns="http://www.w3.org/2000/svg" xmlns:xlink="http://www.w3.org/1999/xlink">
<g id="graph0" class="graph" transform="scale(1 1) rotate(0) translate(4 290)">
<title>include/indigox/algorithm/electron_assignment</title>
<polygon fill="#ffffff" stroke="transparent" points="-4,4 -4,-290 156,-290 156,4 -4,4"/>
<g id="clust1" class="cluster">
<title>clusterdir_0325cb2d958fb3393492bc7fb0060a5d</title>
<g id="a_clust1"><a xlink:href="dir_0325cb2d958fb3393492bc7fb0060a5d.html" target="_top" xlink:title="algorithm">
<polygon fill="#ddddee" stroke="#000000" points="20,-208 20,-278 144,-278 144,-208 20,-208"/>
<text text-anchor="middle" x="82" y="-266" font-family="Helvetica,sans-Serif" font-size="10.00" fill="#000000">algorithm</text>
</a>
</g>
</g>
<!-- dir_84b79573af8018942e0841d43f320fd1 -->
<g id="node1" class="node">
<title>dir_84b79573af8018942e0841d43f320fd1</title>
<g id="a_node1"><a xlink:href="dir_84b79573af8018942e0841d43f320fd1.html" target="_top" xlink:title="electron_assignment">
<polygon fill="#eeeeff" stroke="#000000" points="136.2757,-252 27.7243,-252 27.7243,-216 136.2757,-216 136.2757,-252"/>
<text text-anchor="middle" x="82" y="-231" font-family="Helvetica,sans-Serif" font-size="10.00" fill="#000000">electron_assignment</text>
</a>
</g>
</g>
<!-- dir_6f3ecae776dcd061d0d8923b04cd697c -->
<g id="node2" class="node">
<title>dir_6f3ecae776dcd061d0d8923b04cd697c</title>
<g id="a_node2"><a xlink:href="dir_6f3ecae776dcd061d0d8923b04cd697c.html" target="_top" xlink:title="classes">
<polygon fill="none" stroke="#000000" points="54,-180 0,-180 0,-144 54,-144 54,-180"/>
<text text-anchor="middle" x="27" y="-159" font-family="Helvetica,sans-Serif" font-size="10.00" fill="#000000">classes</text>
</a>
</g>
</g>
<!-- dir_84b79573af8018942e0841d43f320fd1&#45;&gt;dir_6f3ecae776dcd061d0d8923b04cd697c -->
<g id="edge3" class="edge">
<title>dir_84b79573af8018942e0841d43f320fd1&#45;&gt;dir_6f3ecae776dcd061d0d8923b04cd697c</title>
<path fill="none" stroke="#000000" d="M68.1212,-215.8314C61.7864,-207.5386 54.1616,-197.557 47.2074,-188.4533"/>
<polygon fill="#000000" stroke="#000000" points="49.9175,-186.2353 41.0657,-180.4133 44.3548,-190.4847 49.9175,-186.2353"/>
<g id="a_edge3&#45;headlabel"><a xlink:href="dir_000003_000005.html" target="_top" xlink:title="1">
<text text-anchor="middle" x="54.3558" y="-184.3683" font-family="Helvetica,sans-Serif" font-size="10.00" fill="#000000">1</text>
</a>
</g>
</g>
<!-- dir_405b0fa1dc65afab7c0705ad7d15203d -->
<g id="node3" class="node">
<title>dir_405b0fa1dc65afab7c0705ad7d15203d</title>
<g id="a_node3"><a xlink:href="dir_405b0fa1dc65afab7c0705ad7d15203d.html" target="_top" xlink:title="utils">
<polygon fill="none" stroke="#000000" points="100,-36 46,-36 46,0 100,0 100,-36"/>
<text text-anchor="middle" x="73" y="-15" font-family="Helvetica,sans-Serif" font-size="10.00" fill="#000000">utils</text>
</a>
</g>
</g>
<!-- dir_84b79573af8018942e0841d43f320fd1&#45;&gt;dir_405b0fa1dc65afab7c0705ad7d15203d -->
<g id="edge4" class="edge">
<title>dir_84b79573af8018942e0841d43f320fd1&#45;&gt;dir_405b0fa1dc65afab7c0705ad7d15203d</title>
<path fill="none" stroke="#000000" d="M90.3994,-215.672C103.1515,-185.2772 124.3684,-122.7585 109,-72 106.0436,-62.2355 100.6748,-52.6229 94.97,-44.2762"/>
<polygon fill="#000000" stroke="#000000" points="97.7129,-42.0973 88.9905,-36.0831 92.0586,-46.2239 97.7129,-42.0973"/>
<g id="a_edge4&#45;headlabel"><a xlink:href="dir_000003_000007.html" target="_top" xlink:title="3">
<text text-anchor="middle" x="102.1253" y="-40.327" font-family="Helvetica,sans-Serif" font-size="10.00" fill="#000000">3</text>
</a>
</g>
</g>
<!-- dir_0667fc7398e5f1d2b1088456d5d260a0 -->
<g id="node4" class="node">
<title>dir_0667fc7398e5f1d2b1088456d5d260a0</title>
<g id="a_node4"><a xlink:href="dir_0667fc7398e5f1d2b1088456d5d260a0.html" target="_top" xlink:title="graph">
<polygon fill="none" stroke="#000000" points="100,-108 46,-108 46,-72 100,-72 100,-108"/>
<text text-anchor="middle" x="73" y="-87" font-family="Helvetica,sans-Serif" font-size="10.00" fill="#000000">graph</text>
</a>
</g>
</g>
<!-- dir_84b79573af8018942e0841d43f320fd1&#45;&gt;dir_0667fc7398e5f1d2b1088456d5d260a0 -->
<g id="edge5" class="edge">
<title>dir_84b79573af8018942e0841d43f320fd1&#45;&gt;dir_0667fc7398e5f1d2b1088456d5d260a0</title>
<path fill="none" stroke="#000000" d="M80.8601,-215.7623C79.3251,-191.201 76.578,-147.2474 74.7721,-118.3541"/>
<polygon fill="#000000" stroke="#000000" points="78.2477,-117.8518 74.1306,-108.0896 71.2613,-118.2885 78.2477,-117.8518"/>
<g id="a_edge5&#45;headlabel"><a xlink:href="dir_000003_000006.html" target="_top" xlink:title="3">
<text text-anchor="middle" x="81.3055" y="-118.2623" font-family="Helvetica,sans-Serif" font-size="10.00" fill="#000000">3</text>
</a>
</g>
</g>
<!-- dir_6f3ecae776dcd061d0d8923b04cd697c&#45;&gt;dir_405b0fa1dc65afab7c0705ad7d15203d -->
<g id="edge1" class="edge">
<title>dir_6f3ecae776dcd061d0d8923b04cd697c&#45;&gt;dir_405b0fa1dc65afab7c0705ad7d15203d</title>
<path fill="none" stroke="#000000" d="M26.5302,-143.842C26.6151,-125.248 28.3368,-95.7823 37,-72 40.4919,-62.414 46.0173,-52.8535 51.701,-44.4998"/>
<polygon fill="#000000" stroke="#000000" points="54.613,-46.445 57.6025,-36.2807 48.927,-42.3622 54.613,-46.445"/>
<g id="a_edge1&#45;headlabel"><a xlink:href="dir_000005_000007.html" target="_top" xlink:title="18">
<text text-anchor="middle" x="54.8228" y="-48.0209" font-family="Helvetica,sans-Serif" font-size="10.00" fill="#000000">18</text>
</a>
</g>
</g>
<!-- dir_6f3ecae776dcd061d0d8923b04cd697c&#45;&gt;dir_0667fc7398e5f1d2b1088456d5d260a0 -->
<g id="edge2" class="edge">
<title>dir_6f3ecae776dcd061d0d8923b04cd697c&#45;&gt;dir_0667fc7398e5f1d2b1088456d5d260a0</title>
<path fill="none" stroke="#000000" d="M38.6077,-143.8314C43.7978,-135.7079 50.0232,-125.9637 55.7425,-117.0118"/>
<polygon fill="#000000" stroke="#000000" points="58.8015,-118.7246 61.236,-108.4133 52.9026,-114.9559 58.8015,-118.7246"/>
<g id="a_edge2&#45;headlabel"><a xlink:href="dir_000005_000006.html" target="_top" xlink:title="2">
<text text-anchor="middle" x="59.2589" y="-120.2824" font-family="Helvetica,sans-Serif" font-size="10.00" fill="#000000">2</text>
</a>
</g>
</g>
<!-- dir_0667fc7398e5f1d2b1088456d5d260a0&#45;&gt;dir_405b0fa1dc65afab7c0705ad7d15203d -->
<g id="edge6" class="edge">
<title>dir_0667fc7398e5f1d2b1088456d5d260a0&#45;&gt;dir_405b0fa1dc65afab7c0705ad7d15203d</title>
<path fill="none" stroke="#000000" d="M73,-71.8314C73,-64.131 73,-54.9743 73,-46.4166"/>
<polygon fill="#000000" stroke="#000000" points="76.5001,-46.4132 73,-36.4133 69.5001,-46.4133 76.5001,-46.4132"/>
<g id="a_edge6&#45;headlabel"><a xlink:href="dir_000006_000007.html" target="_top" xlink:title="8">
<text text-anchor="middle" x="79.3393" y="-47.0079" font-family="Helvetica,sans-Serif" font-size="10.00" fill="#000000">8</text>
</a>
</g>
</g>
</g>
</svg>
