<?xml version="1.0" encoding="UTF-8" standalone="no"?>
<!DOCTYPE svg PUBLIC "-//W3C//DTD SVG 1.1//EN"
 "http://www.w3.org/Graphics/SVG/1.1/DTD/svg11.dtd">
<!-- Generated by graphviz version 2.40.1 (20161225.0304)
 -->
<!-- Title: include/indigox/algorithm Pages: 1 -->
<svg width="366pt" height="250pt"
 viewBox="0.00 0.00 366.00 249.50" xmlns="http://www.w3.org/2000/svg" xmlns:xlink="http://www.w3.org/1999/xlink">
<g id="graph0" class="graph" transform="scale(1 1) rotate(0) translate(4 245.5011)">
<title>include/indigox/algorithm</title>
<polygon fill="#ffffff" stroke="transparent" points="-4,4 -4,-245.5011 362,-245.5011 362,4 -4,4"/>
<g id="clust1" class="cluster">
<title>clusterdir_b188a59e02936c1f7895584f4dae045e</title>
<g id="a_clust1"><a xlink:href="dir_b188a59e02936c1f7895584f4dae045e.html" target="_top" xlink:title="indigox">
<polygon fill="#ddddee" stroke="#000000" points="8,-128 8,-214 296,-214 296,-128 8,-128"/>
<text text-anchor="middle" x="152" y="-202" font-family="Helvetica,sans-Serif" font-size="10.00" fill="#000000">indigox</text>
</a>
</g>
</g>
<g id="clust2" class="cluster">
<title>clusterdir_0325cb2d958fb3393492bc7fb0060a5d</title>
<g id="a_clust2"><a xlink:href="dir_0325cb2d958fb3393492bc7fb0060a5d.html" target="_top">
<polygon fill="#eeeeff" stroke="#000000" points="16,-136 16,-188 288,-188 288,-136 16,-136"/>
</a>
</g>
</g>
<!-- dir_0325cb2d958fb3393492bc7fb0060a5d -->
<g id="node1" class="node">
<title>dir_0325cb2d958fb3393492bc7fb0060a5d</title>
<text text-anchor="middle" x="179" y="-159" font-family="Helvetica,sans-Serif" font-size="10.00" fill="#000000">algorithm</text>
</g>
<!-- dir_6f3ecae776dcd061d0d8923b04cd697c -->
<g id="node4" class="node">
<title>dir_6f3ecae776dcd061d0d8923b04cd697c</title>
<g id="a_node4"><a xlink:href="dir_6f3ecae776dcd061d0d8923b04cd697c.html" target="_top" xlink:title="classes">
<polygon fill="none" stroke="#000000" points="358,-180 304,-180 304,-144 358,-144 358,-180"/>
<text text-anchor="middle" x="331" y="-159" font-family="Helvetica,sans-Serif" font-size="10.00" fill="#000000">classes</text>
</a>
</g>
</g>
<!-- dir_0325cb2d958fb3393492bc7fb0060a5d&#45;&gt;dir_6f3ecae776dcd061d0d8923b04cd697c -->
<g id="edge6" class="edge">
<title>dir_0325cb2d958fb3393492bc7fb0060a5d&#45;&gt;dir_6f3ecae776dcd061d0d8923b04cd697c</title>
<path fill="none" stroke="#000000" d="M185.4169,-180.1376C192.4708,-197.0059 205.5907,-221.1204 226,-232 248.3554,-243.917 260.5866,-243.8075 283,-232 300.0582,-223.0137 312.2183,-204.9271 320.0312,-189.3902"/>
<polygon fill="#000000" stroke="#000000" points="323.2857,-190.6923 324.3389,-180.1499 316.9413,-187.7346 323.2857,-190.6923"/>
<g id="a_edge6&#45;headlabel"><a xlink:href="dir_000002_000005.html" target="_top" xlink:title="4">
<text text-anchor="middle" x="324.3403" y="-192.1499" font-family="Helvetica,sans-Serif" font-size="10.00" fill="#000000">4</text>
</a>
</g>
</g>
<!-- dir_405b0fa1dc65afab7c0705ad7d15203d -->
<g id="node5" class="node">
<title>dir_405b0fa1dc65afab7c0705ad7d15203d</title>
<g id="a_node5"><a xlink:href="dir_405b0fa1dc65afab7c0705ad7d15203d.html" target="_top" xlink:title="utils">
<polygon fill="none" stroke="#000000" points="225,-36 171,-36 171,0 225,0 225,-36"/>
<text text-anchor="middle" x="198" y="-15" font-family="Helvetica,sans-Serif" font-size="10.00" fill="#000000">utils</text>
</a>
</g>
</g>
<!-- dir_0325cb2d958fb3393492bc7fb0060a5d&#45;&gt;dir_405b0fa1dc65afab7c0705ad7d15203d -->
<g id="edge7" class="edge">
<title>dir_0325cb2d958fb3393492bc7fb0060a5d&#45;&gt;dir_405b0fa1dc65afab7c0705ad7d15203d</title>
<path fill="none" stroke="#000000" d="M170.5107,-143.7963C163.1111,-125.4191 154.6273,-96.3504 162,-72 164.9564,-62.2355 170.3252,-52.6229 176.03,-44.2762"/>
<polygon fill="#000000" stroke="#000000" points="178.9414,-46.2239 182.0095,-36.0831 173.2871,-42.0973 178.9414,-46.2239"/>
<g id="a_edge7&#45;headlabel"><a xlink:href="dir_000002_000007.html" target="_top" xlink:title="11">
<text text-anchor="middle" x="179.1158" y="-47.8013" font-family="Helvetica,sans-Serif" font-size="10.00" fill="#000000">11</text>
</a>
</g>
</g>
<!-- dir_0667fc7398e5f1d2b1088456d5d260a0 -->
<g id="node6" class="node">
<title>dir_0667fc7398e5f1d2b1088456d5d260a0</title>
<g id="a_node6"><a xlink:href="dir_0667fc7398e5f1d2b1088456d5d260a0.html" target="_top" xlink:title="graph">
<polygon fill="none" stroke="#000000" points="225,-108 171,-108 171,-72 225,-72 225,-108"/>
<text text-anchor="middle" x="198" y="-87" font-family="Helvetica,sans-Serif" font-size="10.00" fill="#000000">graph</text>
</a>
</g>
</g>
<!-- dir_0325cb2d958fb3393492bc7fb0060a5d&#45;&gt;dir_0667fc7398e5f1d2b1088456d5d260a0 -->
<g id="edge8" class="edge">
<title>dir_0325cb2d958fb3393492bc7fb0060a5d&#45;&gt;dir_0667fc7398e5f1d2b1088456d5d260a0</title>
<path fill="none" stroke="#000000" d="M177.8421,-143.8314C179.1378,-136.0463 181.3675,-126.7729 183.9708,-118.1347"/>
<polygon fill="#000000" stroke="#000000" points="187.3685,-119.0061 187.1649,-108.4133 180.7183,-116.8211 187.3685,-119.0061"/>
<g id="a_edge8&#45;headlabel"><a xlink:href="dir_000002_000006.html" target="_top" xlink:title="4">
<text text-anchor="middle" x="188.944" y="-120.3074" font-family="Helvetica,sans-Serif" font-size="10.00" fill="#000000">4</text>
</a>
</g>
</g>
<!-- dir_84b79573af8018942e0841d43f320fd1 -->
<g id="node2" class="node">
<title>dir_84b79573af8018942e0841d43f320fd1</title>
<g id="a_node2"><a xlink:href="dir_84b79573af8018942e0841d43f320fd1.html" target="_top" xlink:title="electron_assignment">
<polygon fill="#ffffff" stroke="#000000" points="132.2757,-180 23.7243,-180 23.7243,-144 132.2757,-144 132.2757,-180"/>
<text text-anchor="middle" x="78" y="-159" font-family="Helvetica,sans-Serif" font-size="10.00" fill="#000000">electron_assignment</text>
</a>
</g>
</g>
<!-- dir_84b79573af8018942e0841d43f320fd1&#45;&gt;dir_6f3ecae776dcd061d0d8923b04cd697c -->
<g id="edge3" class="edge">
<title>dir_84b79573af8018942e0841d43f320fd1&#45;&gt;dir_6f3ecae776dcd061d0d8923b04cd697c</title>
<path fill="none" stroke="#000000" d="M90.1153,-180.0426C102.7619,-197.095 124.3161,-221.5727 150,-232 177.3847,-243.1179 256.851,-245.7754 283,-232 300.0582,-223.0137 312.2183,-204.9271 320.0312,-189.3902"/>
<polygon fill="#000000" stroke="#000000" points="323.2857,-190.6923 324.3389,-180.1499 316.9413,-187.7346 323.2857,-190.6923"/>
<g id="a_edge3&#45;headlabel"><a xlink:href="dir_000003_000005.html" target="_top" xlink:title="1">
<text text-anchor="middle" x="324.3403" y="-192.1499" font-family="Helvetica,sans-Serif" font-size="10.00" fill="#000000">1</text>
</a>
</g>
</g>
<!-- dir_84b79573af8018942e0841d43f320fd1&#45;&gt;dir_405b0fa1dc65afab7c0705ad7d15203d -->
<g id="edge4" class="edge">
<title>dir_84b79573af8018942e0841d43f320fd1&#45;&gt;dir_405b0fa1dc65afab7c0705ad7d15203d</title>
<path fill="none" stroke="#000000" d="M93.1981,-143.7623C114.2068,-118.5518 152.2414,-72.9103 176.254,-44.0952"/>
<polygon fill="#000000" stroke="#000000" points="179.2122,-46.0125 182.9253,-36.0896 173.8347,-41.5312 179.2122,-46.0125"/>
<g id="a_edge4&#45;headlabel"><a xlink:href="dir_000003_000007.html" target="_top" xlink:title="3">
<text text-anchor="middle" x="179.0922" y="-47.5916" font-family="Helvetica,sans-Serif" font-size="10.00" fill="#000000">3</text>
</a>
</g>
</g>
<!-- dir_84b79573af8018942e0841d43f320fd1&#45;&gt;dir_0667fc7398e5f1d2b1088456d5d260a0 -->
<g id="edge5" class="edge">
<title>dir_84b79573af8018942e0841d43f320fd1&#45;&gt;dir_0667fc7398e5f1d2b1088456d5d260a0</title>
<path fill="none" stroke="#000000" d="M108.2811,-143.8314C124.5997,-134.0402 144.8421,-121.8947 161.9673,-111.6196"/>
<polygon fill="#000000" stroke="#000000" points="163.827,-114.5855 170.6012,-106.4393 160.2255,-108.5831 163.827,-114.5855"/>
<g id="a_edge5&#45;headlabel"><a xlink:href="dir_000003_000006.html" target="_top" xlink:title="3">
<text text-anchor="middle" x="162.2054" y="-115.8695" font-family="Helvetica,sans-Serif" font-size="10.00" fill="#000000">3</text>
</a>
</g>
</g>
<!-- dir_d0f02a5159ba66cef4f18caa5b07f32b -->
<g id="node3" class="node">
<title>dir_d0f02a5159ba66cef4f18caa5b07f32b</title>
<g id="a_node3"><a xlink:href="dir_d0f02a5159ba66cef4f18caa5b07f32b.html" target="_top" xlink:title="graph">
<polygon fill="#ffffff" stroke="#000000" points="280,-180 226,-180 226,-144 280,-144 280,-180"/>
<text text-anchor="middle" x="253" y="-159" font-family="Helvetica,sans-Serif" font-size="10.00" fill="#000000">graph</text>
</a>
</g>
</g>
<!-- dir_d0f02a5159ba66cef4f18caa5b07f32b&#45;&gt;dir_405b0fa1dc65afab7c0705ad7d15203d -->
<g id="edge9" class="edge">
<title>dir_d0f02a5159ba66cef4f18caa5b07f32b&#45;&gt;dir_405b0fa1dc65afab7c0705ad7d15203d</title>
<path fill="none" stroke="#000000" d="M251.2095,-143.8083C248.9112,-125.1875 243.9655,-95.7008 234,-72 230.0456,-62.5953 224.3848,-53.0879 218.7195,-44.727"/>
<polygon fill="#000000" stroke="#000000" points="221.5184,-42.6231 212.8853,-36.4815 215.8041,-46.6664 221.5184,-42.6231"/>
<g id="a_edge9&#45;headlabel"><a xlink:href="dir_000004_000007.html" target="_top" xlink:title="5">
<text text-anchor="middle" x="225.9124" y="-40.9175" font-family="Helvetica,sans-Serif" font-size="10.00" fill="#000000">5</text>
</a>
</g>
</g>
<!-- dir_6f3ecae776dcd061d0d8923b04cd697c&#45;&gt;dir_405b0fa1dc65afab7c0705ad7d15203d -->
<g id="edge1" class="edge">
<title>dir_6f3ecae776dcd061d0d8923b04cd697c&#45;&gt;dir_405b0fa1dc65afab7c0705ad7d15203d</title>
<path fill="none" stroke="#000000" d="M315.8778,-143.694C300.4599,-125.2373 275.6549,-96.1081 253,-72 243.9795,-62.4008 233.764,-52.1996 224.6063,-43.2785"/>
<polygon fill="#000000" stroke="#000000" points="226.8335,-40.5634 217.212,-36.1273 221.9671,-45.5952 226.8335,-40.5634"/>
<g id="a_edge1&#45;headlabel"><a xlink:href="dir_000005_000007.html" target="_top" xlink:title="18">
<text text-anchor="middle" x="231.3912" y="-38.0214" font-family="Helvetica,sans-Serif" font-size="10.00" fill="#000000">18</text>
</a>
</g>
</g>
<!-- dir_6f3ecae776dcd061d0d8923b04cd697c&#45;&gt;dir_0667fc7398e5f1d2b1088456d5d260a0 -->
<g id="edge2" class="edge">
<title>dir_6f3ecae776dcd061d0d8923b04cd697c&#45;&gt;dir_0667fc7398e5f1d2b1088456d5d260a0</title>
<path fill="none" stroke="#000000" d="M312.5579,-143.693C306.3654,-138.1752 299.1958,-132.4176 292,-128 274.1534,-117.0436 252.5933,-108.0639 234.6256,-101.5898"/>
<polygon fill="#000000" stroke="#000000" points="235.6543,-98.2419 225.0595,-98.2542 233.3495,-104.8516 235.6543,-98.2419"/>
<g id="a_edge2&#45;headlabel"><a xlink:href="dir_000005_000006.html" target="_top" xlink:title="2">
<text text-anchor="middle" x="239.9833" y="-93.7443" font-family="Helvetica,sans-Serif" font-size="10.00" fill="#000000">2</text>
</a>
</g>
</g>
<!-- dir_0667fc7398e5f1d2b1088456d5d260a0&#45;&gt;dir_0325cb2d958fb3393492bc7fb0060a5d -->
<g id="edge11" class="edge">
<title>dir_0667fc7398e5f1d2b1088456d5d260a0&#45;&gt;dir_0325cb2d958fb3393492bc7fb0060a5d</title>
<path fill="none" stroke="#000000" d="M199.117,-108.4133C197.8018,-116.2292 195.5585,-125.5113 192.9474,-134.136"/>
<polygon fill="#000000" stroke="#000000" points="189.558,-133.2382 189.7469,-143.8314 196.2052,-135.4325 189.558,-133.2382"/>
<g id="a_edge11&#45;headlabel"><a xlink:href="dir_000006_000002.html" target="_top" xlink:title="3">
<text text-anchor="middle" x="187.9886" y="-125.9348" font-family="Helvetica,sans-Serif" font-size="10.00" fill="#000000">3</text>
</a>
</g>
</g>
<!-- dir_0667fc7398e5f1d2b1088456d5d260a0&#45;&gt;dir_d0f02a5159ba66cef4f18caa5b07f32b -->
<g id="edge12" class="edge">
<title>dir_0667fc7398e5f1d2b1088456d5d260a0&#45;&gt;dir_d0f02a5159ba66cef4f18caa5b07f32b</title>
<path fill="none" stroke="#000000" d="M212.0657,-108.4133C218.4256,-116.7389 226.0563,-126.7282 232.9971,-135.8144"/>
<polygon fill="#000000" stroke="#000000" points="230.2694,-138.0093 239.1212,-143.8314 235.8321,-133.76 230.2694,-138.0093"/>
<g id="a_edge12&#45;headlabel"><a xlink:href="dir_000006_000004.html" target="_top" xlink:title="3">
<text text-anchor="middle" x="225.8311" y="-133.8763" font-family="Helvetica,sans-Serif" font-size="10.00" fill="#000000">3</text>
</a>
</g>
</g>
<!-- dir_0667fc7398e5f1d2b1088456d5d260a0&#45;&gt;dir_405b0fa1dc65afab7c0705ad7d15203d -->
<g id="edge10" class="edge">
<title>dir_0667fc7398e5f1d2b1088456d5d260a0&#45;&gt;dir_405b0fa1dc65afab7c0705ad7d15203d</title>
<path fill="none" stroke="#000000" d="M198,-71.8314C198,-64.131 198,-54.9743 198,-46.4166"/>
<polygon fill="#000000" stroke="#000000" points="201.5001,-46.4132 198,-36.4133 194.5001,-46.4133 201.5001,-46.4132"/>
<g id="a_edge10&#45;headlabel"><a xlink:href="dir_000006_000007.html" target="_top" xlink:title="8">
<text text-anchor="middle" x="204.3393" y="-47.0079" font-family="Helvetica,sans-Serif" font-size="10.00" fill="#000000">8</text>
</a>
</g>
</g>
</g>
</svg>
