<?xml version="1.0" encoding="UTF-8" standalone="no"?>
<!DOCTYPE svg PUBLIC "-//W3C//DTD SVG 1.1//EN"
 "http://www.w3.org/Graphics/SVG/1.1/DTD/svg11.dtd">
<!-- Generated by graphviz version 2.40.1 (20161225.0304)
 -->
<!-- Title: src Pages: 1 -->
<svg width="386pt" height="132pt"
 viewBox="0.00 0.00 386.00 132.00" xmlns="http://www.w3.org/2000/svg" xmlns:xlink="http://www.w3.org/1999/xlink">
<g id="graph0" class="graph" transform="scale(1 1) rotate(0) translate(4 128)">
<title>src</title>
<polygon fill="#ffffff" stroke="transparent" points="-4,4 -4,-128 382,-128 382,4 -4,4"/>
<g id="clust1" class="cluster">
<title>clusterdir_68267d1309a1af8e8297ef4c3efbcdba</title>
<g id="a_clust1"><a xlink:href="dir_68267d1309a1af8e8297ef4c3efbcdba.html" target="_top">
<polygon fill="#eeeeff" stroke="#000000" points="8,-64 8,-116 370,-116 370,-64 8,-64"/>
</a>
</g>
</g>
<!-- dir_68267d1309a1af8e8297ef4c3efbcdba -->
<g id="node1" class="node">
<title>dir_68267d1309a1af8e8297ef4c3efbcdba</title>
<text text-anchor="middle" x="335" y="-87" font-family="Helvetica,sans-Serif" font-size="10.00" fill="#000000">src</text>
</g>
<!-- dir_fbc178c12bd249518b3c0868875b8083 -->
<g id="node2" class="node">
<title>dir_fbc178c12bd249518b3c0868875b8083</title>
<g id="a_node2"><a xlink:href="dir_fbc178c12bd249518b3c0868875b8083.html" target="_top" xlink:title="algorithm">
<polygon fill="#ffffff" stroke="#ff0000" points="289.6281,-108 232.3719,-108 232.3719,-72 289.6281,-72 289.6281,-108"/>
<text text-anchor="middle" x="261" y="-87" font-family="Helvetica,sans-Serif" font-size="10.00" fill="#000000">algorithm</text>
</a>
</g>
</g>
<!-- dir_d44c64559bbebec7f509842c48db8b23 -->
<g id="node6" class="node">
<title>dir_d44c64559bbebec7f509842c48db8b23</title>
<g id="a_node6"><a xlink:href="dir_d44c64559bbebec7f509842c48db8b23.html" target="_top" xlink:title="include">
<polygon fill="#ffffff" stroke="#ff0000" points="178,-36 124,-36 124,0 178,0 178,-36"/>
<text text-anchor="middle" x="151" y="-15" font-family="Helvetica,sans-Serif" font-size="10.00" fill="#000000">include</text>
</a>
</g>
</g>
<!-- dir_fbc178c12bd249518b3c0868875b8083&#45;&gt;dir_d44c64559bbebec7f509842c48db8b23 -->
<g id="edge4" class="edge">
<title>dir_fbc178c12bd249518b3c0868875b8083&#45;&gt;dir_d44c64559bbebec7f509842c48db8b23</title>
<path fill="none" stroke="#000000" d="M234.9079,-71.9886C230.9326,-69.2906 226.8672,-66.5574 223,-64 211.2673,-56.241 198.3474,-47.9185 186.7297,-40.5145"/>
<polygon fill="#000000" stroke="#000000" points="188.4579,-37.4658 178.1407,-35.0562 184.7034,-43.3737 188.4579,-37.4658"/>
<g id="a_edge4&#45;headlabel"><a xlink:href="dir_000009_000000.html" target="_top" xlink:title="56">
<text text-anchor="middle" x="193.0145" y="-33.9974" font-family="Helvetica,sans-Serif" font-size="10.00" fill="#000000">56</text>
</a>
</g>
</g>
<!-- dir_018e9aafb459e6e1a4953404cb0c0b1d -->
<g id="node3" class="node">
<title>dir_018e9aafb459e6e1a4953404cb0c0b1d</title>
<g id="a_node3"><a xlink:href="dir_018e9aafb459e6e1a4953404cb0c0b1d.html" target="_top" xlink:title="classes">
<polygon fill="#ffffff" stroke="#000000" points="214,-108 160,-108 160,-72 214,-72 214,-108"/>
<text text-anchor="middle" x="187" y="-87" font-family="Helvetica,sans-Serif" font-size="10.00" fill="#000000">classes</text>
</a>
</g>
</g>
<!-- dir_018e9aafb459e6e1a4953404cb0c0b1d&#45;&gt;dir_d44c64559bbebec7f509842c48db8b23 -->
<g id="edge2" class="edge">
<title>dir_018e9aafb459e6e1a4953404cb0c0b1d&#45;&gt;dir_d44c64559bbebec7f509842c48db8b23</title>
<path fill="none" stroke="#000000" d="M177.9157,-71.8314C173.9385,-63.8771 169.1845,-54.369 164.7861,-45.5723"/>
<polygon fill="#000000" stroke="#000000" points="167.8093,-43.7923 160.2066,-36.4133 161.5483,-46.9228 167.8093,-43.7923"/>
<g id="a_edge2&#45;headlabel"><a xlink:href="dir_000012_000000.html" target="_top" xlink:title="83">
<text text-anchor="middle" x="171.9563" y="-42.7377" font-family="Helvetica,sans-Serif" font-size="10.00" fill="#000000">83</text>
</a>
</g>
</g>
<!-- dir_d182250f0c231765fc862e69db210731 -->
<g id="node4" class="node">
<title>dir_d182250f0c231765fc862e69db210731</title>
<g id="a_node4"><a xlink:href="dir_d182250f0c231765fc862e69db210731.html" target="_top" xlink:title="graph">
<polygon fill="#ffffff" stroke="#000000" points="142,-108 88,-108 88,-72 142,-72 142,-108"/>
<text text-anchor="middle" x="115" y="-87" font-family="Helvetica,sans-Serif" font-size="10.00" fill="#000000">graph</text>
</a>
</g>
</g>
<!-- dir_d182250f0c231765fc862e69db210731&#45;&gt;dir_d44c64559bbebec7f509842c48db8b23 -->
<g id="edge1" class="edge">
<title>dir_d182250f0c231765fc862e69db210731&#45;&gt;dir_d44c64559bbebec7f509842c48db8b23</title>
<path fill="none" stroke="#000000" d="M124.0843,-71.8314C128.0615,-63.8771 132.8155,-54.369 137.2139,-45.5723"/>
<polygon fill="#000000" stroke="#000000" points="140.4517,-46.9228 141.7934,-36.4133 134.1907,-43.7923 140.4517,-46.9228"/>
<g id="a_edge1&#45;headlabel"><a xlink:href="dir_000013_000000.html" target="_top" xlink:title="16">
<text text-anchor="middle" x="141.3837" y="-48.4077" font-family="Helvetica,sans-Serif" font-size="10.00" fill="#000000">16</text>
</a>
</g>
</g>
<!-- dir_313caf1132e152dd9b58bea13a4052ca -->
<g id="node5" class="node">
<title>dir_313caf1132e152dd9b58bea13a4052ca</title>
<g id="a_node5"><a xlink:href="dir_313caf1132e152dd9b58bea13a4052ca.html" target="_top" xlink:title="utils">
<polygon fill="#ffffff" stroke="#000000" points="70,-108 16,-108 16,-72 70,-72 70,-108"/>
<text text-anchor="middle" x="43" y="-87" font-family="Helvetica,sans-Serif" font-size="10.00" fill="#000000">utils</text>
</a>
</g>
</g>
<!-- dir_313caf1132e152dd9b58bea13a4052ca&#45;&gt;dir_d44c64559bbebec7f509842c48db8b23 -->
<g id="edge3" class="edge">
<title>dir_313caf1132e152dd9b58bea13a4052ca&#45;&gt;dir_d44c64559bbebec7f509842c48db8b23</title>
<path fill="none" stroke="#000000" d="M67.657,-71.9103C71.4316,-69.2231 75.3019,-66.5138 79,-64 90.6331,-56.0924 103.5271,-47.7314 115.1518,-40.3378"/>
<polygon fill="#000000" stroke="#000000" points="117.173,-43.2007 123.7519,-34.896 113.4301,-37.2855 117.173,-43.2007"/>
<g id="a_edge3&#45;headlabel"><a xlink:href="dir_000014_000000.html" target="_top" xlink:title="2">
<text text-anchor="middle" x="115.6536" y="-44.522" font-family="Helvetica,sans-Serif" font-size="10.00" fill="#000000">2</text>
</a>
</g>
</g>
</g>
</svg>
