<?xml version="1.0" encoding="UTF-8" standalone="no"?>
<!DOCTYPE svg PUBLIC "-//W3C//DTD SVG 1.1//EN"
 "http://www.w3.org/Graphics/SVG/1.1/DTD/svg11.dtd">
<!-- Generated by graphviz version 2.40.1 (20161225.0304)
 -->
<!-- Title: src/algorithm Pages: 1 -->
<svg width="312pt" height="158pt"
 viewBox="0.00 0.00 312.00 158.00" xmlns="http://www.w3.org/2000/svg" xmlns:xlink="http://www.w3.org/1999/xlink">
<g id="graph0" class="graph" transform="scale(1 1) rotate(0) translate(4 154)">
<title>src/algorithm</title>
<polygon fill="#ffffff" stroke="transparent" points="-4,4 -4,-154 308,-154 308,4 -4,4"/>
<g id="clust1" class="cluster">
<title>clusterdir_68267d1309a1af8e8297ef4c3efbcdba</title>
<g id="a_clust1"><a xlink:href="dir_68267d1309a1af8e8297ef4c3efbcdba.html" target="_top" xlink:title="src">
<polygon fill="#ddddee" stroke="#000000" points="8,-56 8,-142 296,-142 296,-56 8,-56"/>
<text text-anchor="middle" x="152" y="-130" font-family="Helvetica,sans-Serif" font-size="10.00" fill="#000000">src</text>
</a>
</g>
</g>
<g id="clust2" class="cluster">
<title>clusterdir_fbc178c12bd249518b3c0868875b8083</title>
<g id="a_clust2"><a xlink:href="dir_fbc178c12bd249518b3c0868875b8083.html" target="_top">
<polygon fill="#eeeeff" stroke="#000000" points="16,-64 16,-116 288,-116 288,-64 16,-64"/>
</a>
</g>
</g>
<!-- dir_fbc178c12bd249518b3c0868875b8083 -->
<g id="node1" class="node">
<title>dir_fbc178c12bd249518b3c0868875b8083</title>
<text text-anchor="middle" x="251" y="-87" font-family="Helvetica,sans-Serif" font-size="10.00" fill="#000000">algorithm</text>
</g>
<!-- dir_d44c64559bbebec7f509842c48db8b23 -->
<g id="node4" class="node">
<title>dir_d44c64559bbebec7f509842c48db8b23</title>
<g id="a_node4"><a xlink:href="dir_d44c64559bbebec7f509842c48db8b23.html" target="_top" xlink:title="include">
<polygon fill="#ffffff" stroke="#ff0000" points="177,-36 123,-36 123,0 177,0 177,-36"/>
<text text-anchor="middle" x="150" y="-15" font-family="Helvetica,sans-Serif" font-size="10.00" fill="#000000">include</text>
</a>
</g>
</g>
<!-- dir_fbc178c12bd249518b3c0868875b8083&#45;&gt;dir_d44c64559bbebec7f509842c48db8b23 -->
<g id="edge3" class="edge">
<title>dir_fbc178c12bd249518b3c0868875b8083&#45;&gt;dir_d44c64559bbebec7f509842c48db8b23</title>
<path fill="none" stroke="#000000" d="M232.2605,-71.9758C226.3003,-66.592 219.5503,-60.8397 213,-56 204.5246,-49.738 194.969,-43.5655 185.9096,-38.0753"/>
<polygon fill="#000000" stroke="#000000" points="187.4604,-34.9257 177.074,-32.8343 183.8892,-40.9463 187.4604,-34.9257"/>
<g id="a_edge3&#45;headlabel"><a xlink:href="dir_000009_000000.html" target="_top" xlink:title="56">
<text text-anchor="middle" x="192.0005" y="-31.3176" font-family="Helvetica,sans-Serif" font-size="10.00" fill="#000000">56</text>
</a>
</g>
</g>
<!-- dir_a10433bd98e29bd099a9c9a172de9f7c -->
<g id="node2" class="node">
<title>dir_a10433bd98e29bd099a9c9a172de9f7c</title>
<g id="a_node2"><a xlink:href="dir_a10433bd98e29bd099a9c9a172de9f7c.html" target="_top" xlink:title="electron_assignment">
<polygon fill="#ffffff" stroke="#000000" points="204.2757,-108 95.7243,-108 95.7243,-72 204.2757,-72 204.2757,-108"/>
<text text-anchor="middle" x="150" y="-87" font-family="Helvetica,sans-Serif" font-size="10.00" fill="#000000">electron_assignment</text>
</a>
</g>
</g>
<!-- dir_a10433bd98e29bd099a9c9a172de9f7c&#45;&gt;dir_d44c64559bbebec7f509842c48db8b23 -->
<g id="edge2" class="edge">
<title>dir_a10433bd98e29bd099a9c9a172de9f7c&#45;&gt;dir_d44c64559bbebec7f509842c48db8b23</title>
<path fill="none" stroke="#000000" d="M150,-71.8314C150,-64.131 150,-54.9743 150,-46.4166"/>
<polygon fill="#000000" stroke="#000000" points="153.5001,-46.4132 150,-36.4133 146.5001,-46.4133 153.5001,-46.4132"/>
<g id="a_edge2&#45;headlabel"><a xlink:href="dir_000010_000000.html" target="_top" xlink:title="19">
<text text-anchor="middle" x="156.3393" y="-47.0079" font-family="Helvetica,sans-Serif" font-size="10.00" fill="#000000">19</text>
</a>
</g>
</g>
<!-- dir_e8c02cc83c063baebe8d0fd90cfe17dd -->
<g id="node3" class="node">
<title>dir_e8c02cc83c063baebe8d0fd90cfe17dd</title>
<g id="a_node3"><a xlink:href="dir_e8c02cc83c063baebe8d0fd90cfe17dd.html" target="_top" xlink:title="graph">
<polygon fill="#ffffff" stroke="#000000" points="78,-108 24,-108 24,-72 78,-72 78,-108"/>
<text text-anchor="middle" x="51" y="-87" font-family="Helvetica,sans-Serif" font-size="10.00" fill="#000000">graph</text>
</a>
</g>
</g>
<!-- dir_e8c02cc83c063baebe8d0fd90cfe17dd&#45;&gt;dir_d44c64559bbebec7f509842c48db8b23 -->
<g id="edge1" class="edge">
<title>dir_e8c02cc83c063baebe8d0fd90cfe17dd&#45;&gt;dir_d44c64559bbebec7f509842c48db8b23</title>
<path fill="none" stroke="#000000" d="M68.6403,-71.9087C74.2822,-66.5221 80.7027,-60.7852 87,-56 95.3903,-49.6244 104.9157,-43.4116 113.9731,-37.9188"/>
<polygon fill="#000000" stroke="#000000" points="115.9915,-40.7913 122.8153,-32.6866 112.4267,-34.767 115.9915,-40.7913"/>
<g id="a_edge1&#45;headlabel"><a xlink:href="dir_000011_000000.html" target="_top" xlink:title="20">
<text text-anchor="middle" x="114.3438" y="-42.0654" font-family="Helvetica,sans-Serif" font-size="10.00" fill="#000000">20</text>
</a>
</g>
</g>
</g>
</svg>
