<?xml version="1.0" encoding="UTF-8" standalone="no"?>
<!DOCTYPE svg PUBLIC "-//W3C//DTD SVG 1.1//EN"
 "http://www.w3.org/Graphics/SVG/1.1/DTD/svg11.dtd">
<!-- Generated by graphviz version 2.40.1 (20161225.0304)
 -->
<!-- Title: include/indigox/algorithm/formalbonds Pages: 1 -->
<svg width="112pt" height="150pt"
 viewBox="0.00 0.00 112.00 150.00" xmlns="http://www.w3.org/2000/svg" xmlns:xlink="http://www.w3.org/1999/xlink">
<g id="graph0" class="graph" transform="scale(1 1) rotate(0) translate(4 146)">
<title>include/indigox/algorithm/formalbonds</title>
<polygon fill="#ffffff" stroke="transparent" points="-4,4 -4,-146 108,-146 108,4 -4,4"/>
<g id="clust1" class="cluster">
<title>clusterdir_0325cb2d958fb3393492bc7fb0060a5d</title>
<g id="a_clust1"><a xlink:href="dir_0325cb2d958fb3393492bc7fb0060a5d.html" target="_top" xlink:title="algorithm">
<polygon fill="#ddddee" stroke="#000000" points="8,-64 8,-134 96,-134 96,-64 8,-64"/>
<text text-anchor="middle" x="52" y="-122" font-family="Helvetica,sans-Serif" font-size="10.00" fill="#000000">algorithm</text>
</a>
</g>
</g>
<!-- dir_3e0ab44857fa33e33a73ca6ab55f017b -->
<g id="node1" class="node">
<title>dir_3e0ab44857fa33e33a73ca6ab55f017b</title>
<g id="a_node1"><a xlink:href="dir_3e0ab44857fa33e33a73ca6ab55f017b.html" target="_top" xlink:title="formalbonds">
<polygon fill="#eeeeff" stroke="#000000" points="87.5293,-108 16.4707,-108 16.4707,-72 87.5293,-72 87.5293,-108"/>
<text text-anchor="middle" x="52" y="-87" font-family="Helvetica,sans-Serif" font-size="10.00" fill="#000000">formalbonds</text>
</a>
</g>
</g>
<!-- dir_6f3ecae776dcd061d0d8923b04cd697c -->
<g id="node2" class="node">
<title>dir_6f3ecae776dcd061d0d8923b04cd697c</title>
<g id="a_node2"><a xlink:href="dir_6f3ecae776dcd061d0d8923b04cd697c.html" target="_top" xlink:title="classes">
<polygon fill="none" stroke="#000000" points="79,-36 25,-36 25,0 79,0 79,-36"/>
<text text-anchor="middle" x="52" y="-15" font-family="Helvetica,sans-Serif" font-size="10.00" fill="#000000">classes</text>
</a>
</g>
</g>
<!-- dir_3e0ab44857fa33e33a73ca6ab55f017b&#45;&gt;dir_6f3ecae776dcd061d0d8923b04cd697c -->
<g id="edge1" class="edge">
<title>dir_3e0ab44857fa33e33a73ca6ab55f017b&#45;&gt;dir_6f3ecae776dcd061d0d8923b04cd697c</title>
<path fill="none" stroke="#000000" d="M52,-71.8314C52,-64.131 52,-54.9743 52,-46.4166"/>
<polygon fill="#000000" stroke="#000000" points="55.5001,-46.4132 52,-36.4133 48.5001,-46.4133 55.5001,-46.4132"/>
<g id="a_edge1&#45;headlabel"><a xlink:href="dir_000004_000006.html" target="_top" xlink:title="3">
<text text-anchor="middle" x="58.3393" y="-47.0079" font-family="Helvetica,sans-Serif" font-size="10.00" fill="#000000">3</text>
</a>
</g>
</g>
</g>
</svg>
