<?xml version="1.0" encoding="UTF-8" standalone="no"?>
<!DOCTYPE svg PUBLIC "-//W3C//DTD SVG 1.1//EN"
 "http://www.w3.org/Graphics/SVG/1.1/DTD/svg11.dtd">
<!-- Generated by graphviz version 2.40.1 (20161225.0304)
 -->
<!-- Title: include/indigox Pages: 1 -->
<svg width="186pt" height="326pt"
 viewBox="0.00 0.00 186.00 326.00" xmlns="http://www.w3.org/2000/svg" xmlns:xlink="http://www.w3.org/1999/xlink">
<g id="graph0" class="graph" transform="scale(1 1) rotate(0) translate(4 322)">
<title>include/indigox</title>
<polygon fill="#ffffff" stroke="transparent" points="-4,4 -4,-322 182,-322 182,4 -4,4"/>
<g id="clust1" class="cluster">
<title>clusterdir_d44c64559bbebec7f509842c48db8b23</title>
<g id="a_clust1"><a xlink:href="dir_d44c64559bbebec7f509842c48db8b23.html" target="_top" xlink:title="include">
<polygon fill="#ddddee" stroke="#000000" points="8,-8 8,-310 170,-310 170,-8 8,-8"/>
<text text-anchor="middle" x="89" y="-298" font-family="Helvetica,sans-Serif" font-size="10.00" fill="#000000">include</text>
</a>
</g>
</g>
<g id="clust2" class="cluster">
<title>clusterdir_b188a59e02936c1f7895584f4dae045e</title>
<g id="a_clust2"><a xlink:href="dir_b188a59e02936c1f7895584f4dae045e.html" target="_top">
<polygon fill="#eeeeff" stroke="#000000" points="16,-16 16,-284 162,-284 162,-16 16,-16"/>
</a>
</g>
</g>
<!-- dir_b188a59e02936c1f7895584f4dae045e -->
<g id="node1" class="node">
<title>dir_b188a59e02936c1f7895584f4dae045e</title>
<text text-anchor="middle" x="127" y="-255" font-family="Helvetica,sans-Serif" font-size="10.00" fill="#000000">indigox</text>
</g>
<!-- dir_0325cb2d958fb3393492bc7fb0060a5d -->
<g id="node2" class="node">
<title>dir_0325cb2d958fb3393492bc7fb0060a5d</title>
<g id="a_node2"><a xlink:href="dir_0325cb2d958fb3393492bc7fb0060a5d.html" target="_top" xlink:title="algorithm">
<polygon fill="#ffffff" stroke="#ff0000" points="81.6281,-276 24.3719,-276 24.3719,-240 81.6281,-240 81.6281,-276"/>
<text text-anchor="middle" x="53" y="-255" font-family="Helvetica,sans-Serif" font-size="10.00" fill="#000000">algorithm</text>
</a>
</g>
</g>
<!-- dir_6f3ecae776dcd061d0d8923b04cd697c -->
<g id="node3" class="node">
<title>dir_6f3ecae776dcd061d0d8923b04cd697c</title>
<g id="a_node3"><a xlink:href="dir_6f3ecae776dcd061d0d8923b04cd697c.html" target="_top" xlink:title="classes">
<polygon fill="#ffffff" stroke="#000000" points="78,-204 24,-204 24,-168 78,-168 78,-204"/>
<text text-anchor="middle" x="51" y="-183" font-family="Helvetica,sans-Serif" font-size="10.00" fill="#000000">classes</text>
</a>
</g>
</g>
<!-- dir_0325cb2d958fb3393492bc7fb0060a5d&#45;&gt;dir_6f3ecae776dcd061d0d8923b04cd697c -->
<g id="edge3" class="edge">
<title>dir_0325cb2d958fb3393492bc7fb0060a5d&#45;&gt;dir_6f3ecae776dcd061d0d8923b04cd697c</title>
<path fill="none" stroke="#000000" d="M52.4953,-239.8314C52.2814,-232.131 52.0271,-222.9743 51.7894,-214.4166"/>
<polygon fill="#000000" stroke="#000000" points="55.2879,-214.3122 51.5115,-204.4133 48.2906,-214.5066 55.2879,-214.3122"/>
<g id="a_edge3&#45;headlabel"><a xlink:href="dir_000003_000006.html" target="_top" xlink:title="4">
<text text-anchor="middle" x="58.2258" y="-214.8266" font-family="Helvetica,sans-Serif" font-size="10.00" fill="#000000">4</text>
</a>
</g>
</g>
<!-- dir_0667fc7398e5f1d2b1088456d5d260a0 -->
<g id="node4" class="node">
<title>dir_0667fc7398e5f1d2b1088456d5d260a0</title>
<g id="a_node4"><a xlink:href="dir_0667fc7398e5f1d2b1088456d5d260a0.html" target="_top" xlink:title="graph">
<polygon fill="#ffffff" stroke="#000000" points="124,-132 70,-132 70,-96 124,-96 124,-132"/>
<text text-anchor="middle" x="97" y="-111" font-family="Helvetica,sans-Serif" font-size="10.00" fill="#000000">graph</text>
</a>
</g>
</g>
<!-- dir_0325cb2d958fb3393492bc7fb0060a5d&#45;&gt;dir_0667fc7398e5f1d2b1088456d5d260a0 -->
<g id="edge5" class="edge">
<title>dir_0325cb2d958fb3393492bc7fb0060a5d&#45;&gt;dir_0667fc7398e5f1d2b1088456d5d260a0</title>
<path fill="none" stroke="#000000" d="M59.5026,-239.5901C65.6091,-229.6208 73.54,-216.7587 78,-204 84.982,-184.0267 87.3866,-160.1795 89.4048,-142.0519"/>
<polygon fill="#000000" stroke="#000000" points="92.8816,-142.454 90.5801,-132.1121 85.93,-141.632 92.8816,-142.454"/>
<g id="a_edge5&#45;headlabel"><a xlink:href="dir_000003_000007.html" target="_top" xlink:title="4">
<text text-anchor="middle" x="95.2792" y="-143.3571" font-family="Helvetica,sans-Serif" font-size="10.00" fill="#000000">4</text>
</a>
</g>
</g>
<!-- dir_405b0fa1dc65afab7c0705ad7d15203d -->
<g id="node5" class="node">
<title>dir_405b0fa1dc65afab7c0705ad7d15203d</title>
<g id="a_node5"><a xlink:href="dir_405b0fa1dc65afab7c0705ad7d15203d.html" target="_top" xlink:title="utils">
<polygon fill="#ffffff" stroke="#000000" points="124,-60 70,-60 70,-24 124,-24 124,-60"/>
<text text-anchor="middle" x="97" y="-39" font-family="Helvetica,sans-Serif" font-size="10.00" fill="#000000">utils</text>
</a>
</g>
</g>
<!-- dir_0325cb2d958fb3393492bc7fb0060a5d&#45;&gt;dir_405b0fa1dc65afab7c0705ad7d15203d -->
<g id="edge4" class="edge">
<title>dir_0325cb2d958fb3393492bc7fb0060a5d&#45;&gt;dir_405b0fa1dc65afab7c0705ad7d15203d</title>
<path fill="none" stroke="#000000" d="M70.0786,-239.7765C90.231,-216.7798 122.3467,-175.0093 133,-132 136.8469,-116.4693 137.6365,-111.3135 133,-96 130.0436,-86.2355 124.6748,-76.6229 118.97,-68.2762"/>
<polygon fill="#000000" stroke="#000000" points="121.7129,-66.0973 112.9905,-60.0831 116.0586,-70.2239 121.7129,-66.0973"/>
<g id="a_edge4&#45;headlabel"><a xlink:href="dir_000003_000008.html" target="_top" xlink:title="11">
<text text-anchor="middle" x="126.1253" y="-64.327" font-family="Helvetica,sans-Serif" font-size="10.00" fill="#000000">11</text>
</a>
</g>
</g>
<!-- dir_6f3ecae776dcd061d0d8923b04cd697c&#45;&gt;dir_0667fc7398e5f1d2b1088456d5d260a0 -->
<g id="edge2" class="edge">
<title>dir_6f3ecae776dcd061d0d8923b04cd697c&#45;&gt;dir_0667fc7398e5f1d2b1088456d5d260a0</title>
<path fill="none" stroke="#000000" d="M62.6077,-167.8314C67.7978,-159.7079 74.0232,-149.9637 79.7425,-141.0118"/>
<polygon fill="#000000" stroke="#000000" points="82.8015,-142.7246 85.236,-132.4133 76.9026,-138.9559 82.8015,-142.7246"/>
<g id="a_edge2&#45;headlabel"><a xlink:href="dir_000006_000007.html" target="_top" xlink:title="2">
<text text-anchor="middle" x="83.2589" y="-144.2824" font-family="Helvetica,sans-Serif" font-size="10.00" fill="#000000">2</text>
</a>
</g>
</g>
<!-- dir_6f3ecae776dcd061d0d8923b04cd697c&#45;&gt;dir_405b0fa1dc65afab7c0705ad7d15203d -->
<g id="edge1" class="edge">
<title>dir_6f3ecae776dcd061d0d8923b04cd697c&#45;&gt;dir_405b0fa1dc65afab7c0705ad7d15203d</title>
<path fill="none" stroke="#000000" d="M50.5302,-167.842C50.6151,-149.248 52.3368,-119.7823 61,-96 64.4919,-86.414 70.0173,-76.8535 75.701,-68.4998"/>
<polygon fill="#000000" stroke="#000000" points="78.613,-70.445 81.6025,-60.2807 72.927,-66.3622 78.613,-70.445"/>
<g id="a_edge1&#45;headlabel"><a xlink:href="dir_000006_000008.html" target="_top" xlink:title="18">
<text text-anchor="middle" x="78.8228" y="-72.0209" font-family="Helvetica,sans-Serif" font-size="10.00" fill="#000000">18</text>
</a>
</g>
</g>
<!-- dir_0667fc7398e5f1d2b1088456d5d260a0&#45;&gt;dir_0325cb2d958fb3393492bc7fb0060a5d -->
<g id="edge7" class="edge">
<title>dir_0667fc7398e5f1d2b1088456d5d260a0&#45;&gt;dir_0325cb2d958fb3393492bc7fb0060a5d</title>
<path fill="none" stroke="#000000" d="M104.1026,-132.1121C106.1542,-150.6696 104.3523,-180.1067 96,-204 92.6898,-213.4694 87.4678,-222.9957 81.7022,-231.354"/>
<polygon fill="#000000" stroke="#000000" points="78.7314,-229.4828 75.5544,-239.5901 84.3409,-233.67 78.7314,-229.4828"/>
<g id="a_edge7&#45;headlabel"><a xlink:href="dir_000007_000003.html" target="_top" xlink:title="3">
<text text-anchor="middle" x="78.6062" y="-221.9038" font-family="Helvetica,sans-Serif" font-size="10.00" fill="#000000">3</text>
</a>
</g>
</g>
<!-- dir_0667fc7398e5f1d2b1088456d5d260a0&#45;&gt;dir_405b0fa1dc65afab7c0705ad7d15203d -->
<g id="edge6" class="edge">
<title>dir_0667fc7398e5f1d2b1088456d5d260a0&#45;&gt;dir_405b0fa1dc65afab7c0705ad7d15203d</title>
<path fill="none" stroke="#000000" d="M97,-95.8314C97,-88.131 97,-78.9743 97,-70.4166"/>
<polygon fill="#000000" stroke="#000000" points="100.5001,-70.4132 97,-60.4133 93.5001,-70.4133 100.5001,-70.4132"/>
<g id="a_edge6&#45;headlabel"><a xlink:href="dir_000007_000008.html" target="_top" xlink:title="8">
<text text-anchor="middle" x="103.3393" y="-71.0079" font-family="Helvetica,sans-Serif" font-size="10.00" fill="#000000">8</text>
</a>
</g>
</g>
</g>
</svg>
