<?xml version="1.0" encoding="UTF-8" standalone="no"?>
<!DOCTYPE svg PUBLIC "-//W3C//DTD SVG 1.1//EN"
 "http://www.w3.org/Graphics/SVG/1.1/DTD/svg11.dtd">
<!-- Generated by graphviz version 2.40.1 (20161225.0304)
 -->
<!-- Title: include/indigox/graph Pages: 1 -->
<svg width="154pt" height="150pt"
 viewBox="0.00 0.00 153.56 150.00" xmlns="http://www.w3.org/2000/svg" xmlns:xlink="http://www.w3.org/1999/xlink">
<g id="graph0" class="graph" transform="scale(1 1) rotate(0) translate(4 146)">
<title>include/indigox/graph</title>
<polygon fill="#ffffff" stroke="transparent" points="-4,4 -4,-146 149.564,-146 149.564,4 -4,4"/>
<g id="clust1" class="cluster">
<title>clusterdir_b188a59e02936c1f7895584f4dae045e</title>
<g id="a_clust1"><a xlink:href="dir_b188a59e02936c1f7895584f4dae045e.html" target="_top" xlink:title="indigox">
<polygon fill="#ddddee" stroke="#000000" points="8,-64 8,-134 78,-134 78,-64 8,-64"/>
<text text-anchor="middle" x="43" y="-122" font-family="Helvetica,sans-Serif" font-size="10.00" fill="#000000">indigox</text>
</a>
</g>
</g>
<!-- dir_0667fc7398e5f1d2b1088456d5d260a0 -->
<g id="node1" class="node">
<title>dir_0667fc7398e5f1d2b1088456d5d260a0</title>
<g id="a_node1"><a xlink:href="dir_0667fc7398e5f1d2b1088456d5d260a0.html" target="_top" xlink:title="graph">
<polygon fill="#eeeeff" stroke="#000000" points="70,-108 16,-108 16,-72 70,-72 70,-108"/>
<text text-anchor="middle" x="43" y="-87" font-family="Helvetica,sans-Serif" font-size="10.00" fill="#000000">graph</text>
</a>
</g>
</g>
<!-- dir_405b0fa1dc65afab7c0705ad7d15203d -->
<g id="node2" class="node">
<title>dir_405b0fa1dc65afab7c0705ad7d15203d</title>
<g id="a_node2"><a xlink:href="dir_405b0fa1dc65afab7c0705ad7d15203d.html" target="_top" xlink:title="utils">
<polygon fill="none" stroke="#000000" points="107,-36 53,-36 53,0 107,0 107,-36"/>
<text text-anchor="middle" x="80" y="-15" font-family="Helvetica,sans-Serif" font-size="10.00" fill="#000000">utils</text>
</a>
</g>
</g>
<!-- dir_0667fc7398e5f1d2b1088456d5d260a0&#45;&gt;dir_405b0fa1dc65afab7c0705ad7d15203d -->
<g id="edge3" class="edge">
<title>dir_0667fc7398e5f1d2b1088456d5d260a0&#45;&gt;dir_405b0fa1dc65afab7c0705ad7d15203d</title>
<path fill="none" stroke="#000000" d="M52.3367,-71.8314C56.4243,-63.8771 61.3104,-54.369 65.8309,-45.5723"/>
<polygon fill="#000000" stroke="#000000" points="69.0799,-46.9074 70.5376,-36.4133 62.8539,-43.7078 69.0799,-46.9074"/>
<g id="a_edge3&#45;headlabel"><a xlink:href="dir_000007_000008.html" target="_top" xlink:title="8">
<text text-anchor="middle" x="69.9623" y="-48.4022" font-family="Helvetica,sans-Serif" font-size="10.00" fill="#000000">8</text>
</a>
</g>
</g>
<!-- dir_0325cb2d958fb3393492bc7fb0060a5d -->
<g id="node3" class="node">
<title>dir_0325cb2d958fb3393492bc7fb0060a5d</title>
<g id="a_node3"><a xlink:href="dir_0325cb2d958fb3393492bc7fb0060a5d.html" target="_top" xlink:title="algorithm">
<polygon fill="#ffffff" stroke="#ff0000" points="145.6281,-108 88.3719,-108 88.3719,-72 145.6281,-72 145.6281,-108"/>
<text text-anchor="middle" x="117" y="-87" font-family="Helvetica,sans-Serif" font-size="10.00" fill="#000000">algorithm</text>
</a>
</g>
</g>
<!-- dir_0667fc7398e5f1d2b1088456d5d260a0&#45;&gt;dir_0325cb2d958fb3393492bc7fb0060a5d -->
<g id="edge4" class="edge">
<title>dir_0667fc7398e5f1d2b1088456d5d260a0&#45;&gt;dir_0325cb2d958fb3393492bc7fb0060a5d</title>
<path fill="none" stroke="#000000" d="M70.1719,-90C72.7861,-90 75.4004,-90 78.0147,-90"/>
<polygon fill="#000000" stroke="#000000" points="78.0983,-93.5001 88.0983,-90 78.0982,-86.5001 78.0983,-93.5001"/>
<g id="a_edge4&#45;headlabel"><a xlink:href="dir_000007_000003.html" target="_top" xlink:title="3">
<text text-anchor="middle" x="74.5036" y="-93.3393" font-family="Helvetica,sans-Serif" font-size="10.00" fill="#000000">3</text>
</a>
</g>
</g>
<!-- dir_0325cb2d958fb3393492bc7fb0060a5d&#45;&gt;dir_0667fc7398e5f1d2b1088456d5d260a0 -->
<g id="edge2" class="edge">
<title>dir_0325cb2d958fb3393492bc7fb0060a5d&#45;&gt;dir_0667fc7398e5f1d2b1088456d5d260a0</title>
<path fill="none" stroke="#000000" d="M88.0983,-90C85.484,-90 82.8697,-90 80.2555,-90"/>
<polygon fill="#000000" stroke="#000000" points="80.1719,-86.5001 70.1719,-90 80.1718,-93.5001 80.1719,-86.5001"/>
<g id="a_edge2&#45;headlabel"><a xlink:href="dir_000003_000007.html" target="_top" xlink:title="4">
<text text-anchor="middle" x="83.7665" y="-80.6607" font-family="Helvetica,sans-Serif" font-size="10.00" fill="#000000">4</text>
</a>
</g>
</g>
<!-- dir_0325cb2d958fb3393492bc7fb0060a5d&#45;&gt;dir_405b0fa1dc65afab7c0705ad7d15203d -->
<g id="edge1" class="edge">
<title>dir_0325cb2d958fb3393492bc7fb0060a5d&#45;&gt;dir_405b0fa1dc65afab7c0705ad7d15203d</title>
<path fill="none" stroke="#000000" d="M107.6633,-71.8314C103.5757,-63.8771 98.6896,-54.369 94.1691,-45.5723"/>
<polygon fill="#000000" stroke="#000000" points="97.1461,-43.7078 89.4624,-36.4133 90.9201,-46.9074 97.1461,-43.7078"/>
<g id="a_edge1&#45;headlabel"><a xlink:href="dir_000003_000008.html" target="_top" xlink:title="11">
<text text-anchor="middle" x="101.3144" y="-42.6073" font-family="Helvetica,sans-Serif" font-size="10.00" fill="#000000">11</text>
</a>
</g>
</g>
</g>
</svg>
