<?xml version="1.0" encoding="UTF-8" standalone="no"?>
<!DOCTYPE svg PUBLIC "-//W3C//DTD SVG 1.1//EN"
 "http://www.w3.org/Graphics/SVG/1.1/DTD/svg11.dtd">
<!-- Generated by graphviz version 2.40.1 (20161225.0304)
 -->
<!-- Title: include/indigox/classes/electron_graph.hpp Pages: 1 -->
<svg width="361pt" height="92pt"
 viewBox="0.00 0.00 361.14 92.00" xmlns="http://www.w3.org/2000/svg" xmlns:xlink="http://www.w3.org/1999/xlink">
<g id="graph0" class="graph" transform="scale(1 1) rotate(0) translate(4 88)">
<title>include/indigox/classes/electron_graph.hpp</title>
<polygon fill="#ffffff" stroke="transparent" points="-4,4 -4,-88 357.1401,-88 357.1401,4 -4,4"/>
<!-- Node0 -->
<g id="node1" class="node">
<title>Node0</title>
<polygon fill="#bfbfbf" stroke="#000000" points="150.8276,-55.5 150.8276,-83.5 269.1079,-83.5 269.1079,-55.5 150.8276,-55.5"/>
<text text-anchor="start" x="158.8276" y="-71.5" font-family="Helvetica,sans-Serif" font-size="10.00" fill="#000000">include/indigox/classes</text>
<text text-anchor="middle" x="209.9678" y="-61.5" font-family="Helvetica,sans-Serif" font-size="10.00" fill="#000000">/electron_graph.hpp</text>
</g>
<!-- Node1 -->
<g id="node2" class="node">
<title>Node1</title>
<polygon fill="#ffffff" stroke="#bfbfbf" points="0,-.5 0,-18.5 89.9355,-18.5 89.9355,-.5 0,-.5"/>
<text text-anchor="middle" x="44.9678" y="-6.5" font-family="Helvetica,sans-Serif" font-size="10.00" fill="#000000">../utils/graph.hpp</text>
</g>
<!-- Node0&#45;&gt;Node1 -->
<g id="edge1" class="edge">
<title>Node0&#45;&gt;Node1</title>
<path fill="none" stroke="#191970" d="M171.2826,-55.4327C143.5791,-45.3587 106.5898,-31.908 79.8039,-22.1677"/>
<polygon fill="#191970" stroke="#191970" points="80.6723,-18.7593 70.0782,-18.6311 78.28,-25.3378 80.6723,-18.7593"/>
</g>
<!-- Node2 -->
<g id="node3" class="node">
<title>Node2</title>
<polygon fill="#ffffff" stroke="#bfbfbf" points="107.9927,-.5 107.9927,-18.5 217.9429,-18.5 217.9429,-.5 107.9927,-.5"/>
<text text-anchor="middle" x="162.9678" y="-6.5" font-family="Helvetica,sans-Serif" font-size="10.00" fill="#000000">molecular_graph.hpp</text>
</g>
<!-- Node0&#45;&gt;Node2 -->
<g id="edge2" class="edge">
<title>Node0&#45;&gt;Node2</title>
<path fill="none" stroke="#191970" d="M198.8294,-55.2808C192.0821,-46.6672 183.434,-35.6271 176.3209,-26.5466"/>
<polygon fill="#191970" stroke="#191970" points="179.0057,-24.2982 170.0837,-18.5842 173.4951,-28.6148 179.0057,-24.2982"/>
</g>
<!-- Node3 -->
<g id="node4" class="node">
<title>Node3</title>
<polygon fill="#ffffff" stroke="#bfbfbf" points="235.5171,-.5 235.5171,-18.5 280.4185,-18.5 280.4185,-.5 235.5171,-.5"/>
<text text-anchor="middle" x="257.9678" y="-6.5" font-family="Helvetica,sans-Serif" font-size="10.00" fill="#000000">cstdint</text>
</g>
<!-- Node0&#45;&gt;Node3 -->
<g id="edge3" class="edge">
<title>Node0&#45;&gt;Node3</title>
<path fill="none" stroke="#191970" d="M221.3431,-55.2808C228.234,-46.6672 237.0661,-35.6271 244.3305,-26.5466"/>
<polygon fill="#191970" stroke="#191970" points="247.1865,-28.5793 250.7004,-18.5842 241.7204,-24.2065 247.1865,-28.5793"/>
</g>
<!-- Node4 -->
<g id="node5" class="node">
<title>Node4</title>
<polygon fill="#ffffff" stroke="#bfbfbf" points="298.7954,-.5 298.7954,-18.5 353.1401,-18.5 353.1401,-.5 298.7954,-.5"/>
<text text-anchor="middle" x="325.9678" y="-6.5" font-family="Helvetica,sans-Serif" font-size="10.00" fill="#000000">iostream</text>
</g>
<!-- Node0&#45;&gt;Node4 -->
<g id="edge4" class="edge">
<title>Node0&#45;&gt;Node4</title>
<path fill="none" stroke="#191970" d="M237.1646,-55.4327C255.8688,-45.7581 280.5938,-32.9693 299.2041,-23.3433"/>
<polygon fill="#191970" stroke="#191970" points="301.0402,-26.3341 308.3144,-18.6311 297.8242,-20.1166 301.0402,-26.3341"/>
</g>
</g>
</svg>
