<?xml version="1.0" encoding="UTF-8" standalone="no"?>
<!DOCTYPE svg PUBLIC "-//W3C//DTD SVG 1.1//EN"
 "http://www.w3.org/Graphics/SVG/1.1/DTD/svg11.dtd">
<!-- Generated by graphviz version 2.40.1 (20161225.0304)
 -->
<!-- Title: src/algorithm/electron_optimisation.cpp Pages: 1 -->
<!--zoomable 222 -->
<svg id="main" version="1.1" xmlns="http://www.w3.org/2000/svg" xmlns:xlink="http://www.w3.org/1999/xlink" xml:space="preserve" onload="init(evt)">
<style type="text/css"><![CDATA[
.edge:hover path { stroke: red; }
.edge:hover polygon { stroke: red; fill: red; }
]]></style>
<script type="text/javascript"><![CDATA[
var edges = document.getElementsByTagName('g');
if (edges && edges.length) {
  for (var i=0;i<edges.length;i++) {
    if (edges[i].id.substr(0,4)=='edge') {
      edges[i].setAttribute('class','edge');
    }
  }
}
]]></script>
        <defs>
                <circle id="rim" cx="0" cy="0" r="7"/>
                <circle id="rim2" cx="0" cy="0" r="3.5"/>
                <g id="zoomPlus">
                        <use xlink:href="#rim" fill="#404040">
                                <set attributeName="fill" to="#808080" begin="zoomplus.mouseover" end="zoomplus.mouseout"/>
                        </use>
                        <path d="M-4,0h8M0,-4v8" fill="none" stroke="white" stroke-width="1.5" pointer-events="none"/>
                </g>
                <g id="zoomMin">
                        <use xlink:href="#rim" fill="#404040">
                                <set attributeName="fill" to="#808080" begin="zoomminus.mouseover" end="zoomminus.mouseout"/>
                        </use>
                        <path d="M-4,0h8" fill="none" stroke="white" stroke-width="1.5" pointer-events="none"/>
                </g>
                <g id="dirArrow">
                        <path fill="none" stroke="white" stroke-width="1.5" d="M0,-3.0v7 M-2.5,-0.5L0,-3.0L2.5,-0.5"/>
                </g>
               <g id="resetDef">
                       <use xlink:href="#rim2" fill="#404040">
                               <set attributeName="fill" to="#808080" begin="reset.mouseover" end="reset.mouseout"/>
                       </use>
               </g>
        </defs>

<script type="text/javascript">
var viewWidth = 2248;
var viewHeight = 222;
var sectionId = 'dynsection-0';
</script>
<script xlink:href="svgpan.js"/>
<svg id="graph" class="graph">
<g id="viewport">
<title>src/algorithm/electron_optimisation.cpp</title>
<polygon fill="#ffffff" stroke="transparent" points="-4,4 -4,-218 2244.4824,-218 2244.4824,4 -4,4"/>
<!-- Node0 -->
<g id="node1" class="node">
<title>Node0</title>
<polygon fill="#bfbfbf" stroke="#000000" points="1406.9063,-185.5 1406.9063,-213.5 1518.4971,-213.5 1518.4971,-185.5 1406.9063,-185.5"/>
<text text-anchor="start" x="1414.9063" y="-201.5" font-family="Helvetica,sans-Serif" font-size="10.00" fill="#000000">src/algorithm/electron</text>
<text text-anchor="middle" x="1462.7017" y="-191.5" font-family="Helvetica,sans-Serif" font-size="10.00" fill="#000000">_optimisation.cpp</text>
</g>
<!-- Node1 -->
<g id="node2" class="node">
<title>Node1</title>
<polygon fill="#ffffff" stroke="#bfbfbf" points="0,-120.5 0,-148.5 149.4033,-148.5 149.4033,-120.5 0,-120.5"/>
<text text-anchor="start" x="8" y="-136.5" font-family="Helvetica,sans-Serif" font-size="10.00" fill="#000000">indigox/algorithm/formalbonds</text>
<text text-anchor="middle" x="74.7017" y="-126.5" font-family="Helvetica,sans-Serif" font-size="10.00" fill="#000000">/astar.hpp</text>
</g>
<!-- Node0&#45;&gt;Node1 -->
<g id="edge1" class="edge">
<title>Node0&#45;&gt;Node1</title>
<path fill="none" stroke="#191970" d="M1406.8839,-198.3397C1193.0869,-193.7424 425.4052,-175.7907 159.7363,-149.1076"/>
<polygon fill="#191970" stroke="#191970" points="160.0462,-145.621 149.7392,-148.0739 159.3262,-152.5839 160.0462,-145.621"/>
</g>
<!-- Node2 -->
<g id="node3" class="node">
<title>Node2</title>
<polygon fill="#ffffff" stroke="#bfbfbf" points="167,-120.5 167,-148.5 316.4033,-148.5 316.4033,-120.5 167,-120.5"/>
<text text-anchor="start" x="175" y="-136.5" font-family="Helvetica,sans-Serif" font-size="10.00" fill="#000000">indigox/algorithm/formalbonds</text>
<text text-anchor="middle" x="241.7017" y="-126.5" font-family="Helvetica,sans-Serif" font-size="10.00" fill="#000000">/fpt.hpp</text>
</g>
<!-- Node0&#45;&gt;Node2 -->
<g id="edge2" class="edge">
<title>Node0&#45;&gt;Node2</title>
<path fill="none" stroke="#191970" d="M1406.7099,-197.9707C1211.0511,-192.4795 557.6611,-172.8673 326.7563,-149.1166"/>
<polygon fill="#191970" stroke="#191970" points="327.0546,-145.6287 316.7413,-148.0547 326.3164,-152.5897 327.0546,-145.6287"/>
</g>
<!-- Node3 -->
<g id="node4" class="node">
<title>Node3</title>
<polygon fill="#ffffff" stroke="#bfbfbf" points="334,-120.5 334,-148.5 483.4033,-148.5 483.4033,-120.5 334,-120.5"/>
<text text-anchor="start" x="342" y="-136.5" font-family="Helvetica,sans-Serif" font-size="10.00" fill="#000000">indigox/algorithm/formalbonds</text>
<text text-anchor="middle" x="408.7017" y="-126.5" font-family="Helvetica,sans-Serif" font-size="10.00" fill="#000000">/local_optimisation.hpp</text>
</g>
<!-- Node0&#45;&gt;Node3 -->
<g id="edge3" class="edge">
<title>Node0&#45;&gt;Node3</title>
<path fill="none" stroke="#191970" d="M1406.7822,-198.7069C1258.3003,-196.1399 841.9484,-185.9384 497.7017,-149 496.4321,-148.8638 495.1531,-148.7215 493.8665,-148.5737"/>
<polygon fill="#191970" stroke="#191970" points="494.2398,-145.0933 483.8863,-147.3414 493.382,-152.0406 494.2398,-145.0933"/>
</g>
<!-- Node4 -->
<g id="node5" class="node">
<title>Node4</title>
<g id="a_node5"><a xlink:href="electron__graph_8hpp.html" target="_top" xlink:title="indigox/classes/electron\l_graph.hpp">
<polygon fill="#ffffff" stroke="#000000" points="313.6182,-55.5 313.6182,-83.5 435.7852,-83.5 435.7852,-55.5 313.6182,-55.5"/>
<text text-anchor="start" x="321.6182" y="-71.5" font-family="Helvetica,sans-Serif" font-size="10.00" fill="#000000">indigox/classes/electron</text>
<text text-anchor="middle" x="374.7017" y="-61.5" font-family="Helvetica,sans-Serif" font-size="10.00" fill="#000000">_graph.hpp</text>
</a>
</g>
</g>
<!-- Node0&#45;&gt;Node4 -->
<g id="edge4" class="edge">
<title>Node0&#45;&gt;Node4</title>
<path fill="none" stroke="#191970" d="M1406.62,-198.1831C1218.6404,-193.5293 618.0204,-176.6351 535.7017,-149 513.849,-141.6639 512.9435,-131.0284 492.7017,-120 470.1168,-107.6951 443.9108,-96.2204 421.9398,-87.3286"/>
<polygon fill="#191970" stroke="#191970" points="423.0745,-84.013 412.4895,-83.5565 420.4795,-90.5143 423.0745,-84.013"/>
</g>
<!-- Node8 -->
<g id="node9" class="node">
<title>Node8</title>
<polygon fill="#ffffff" stroke="#bfbfbf" points="447.5293,-.5 447.5293,-18.5 501.874,-18.5 501.874,-.5 447.5293,-.5"/>
<text text-anchor="middle" x="474.7017" y="-6.5" font-family="Helvetica,sans-Serif" font-size="10.00" fill="#000000">iostream</text>
</g>
<!-- Node0&#45;&gt;Node8 -->
<g id="edge44" class="edge">
<title>Node0&#45;&gt;Node8</title>
<path fill="none" stroke="#191970" d="M1406.8687,-198.1955C1248.379,-194.1468 797.8719,-180.1504 653.7017,-149 613.9659,-140.4144 507.5384,-116.1835 482.7017,-84 470.691,-68.4366 470.073,-45.2857 471.5823,-28.9293"/>
<polygon fill="#191970" stroke="#191970" points="475.0724,-29.2277 472.8533,-18.8679 468.1275,-28.3504 475.0724,-29.2277"/>
</g>
<!-- Node9 -->
<g id="node10" class="node">
<title>Node9</title>
<polygon fill="#ffffff" stroke="#bfbfbf" points="1622.7314,-120.5 1622.7314,-148.5 1752.6719,-148.5 1752.6719,-120.5 1622.7314,-120.5"/>
<text text-anchor="start" x="1630.7314" y="-136.5" font-family="Helvetica,sans-Serif" font-size="10.00" fill="#000000">indigox/classes/molecular</text>
<text text-anchor="middle" x="1687.7017" y="-126.5" font-family="Helvetica,sans-Serif" font-size="10.00" fill="#000000">_graph.hpp</text>
</g>
<!-- Node0&#45;&gt;Node9 -->
<g id="edge9" class="edge">
<title>Node0&#45;&gt;Node9</title>
<path fill="none" stroke="#191970" d="M1511.2463,-185.476C1545.7272,-175.5149 1592.2108,-162.0862 1628.8128,-151.5123"/>
<polygon fill="#191970" stroke="#191970" points="1630.2204,-154.7489 1638.8562,-148.6109 1628.2776,-148.0239 1630.2204,-154.7489"/>
</g>
<!-- Node10 -->
<g id="node11" class="node">
<title>Node10</title>
<g id="a_node11"><a xlink:href="periodictable_8hpp.html" target="_top" xlink:title="indigox/classes/periodictable.hpp">
<polygon fill="#ffffff" stroke="#000000" points="937.3228,-125.5 937.3228,-143.5 1100.0806,-143.5 1100.0806,-125.5 937.3228,-125.5"/>
<text text-anchor="middle" x="1018.7017" y="-131.5" font-family="Helvetica,sans-Serif" font-size="10.00" fill="#000000">indigox/classes/periodictable.hpp</text>
</a>
</g>
</g>
<!-- Node0&#45;&gt;Node10 -->
<g id="edge10" class="edge">
<title>Node0&#45;&gt;Node10</title>
<path fill="none" stroke="#191970" d="M1406.4688,-191.2677C1326.1426,-179.5082 1178.546,-157.9006 1090.4448,-145.0029"/>
<polygon fill="#191970" stroke="#191970" points="1090.9325,-141.5371 1080.531,-143.5516 1089.9185,-148.4633 1090.9325,-141.5371"/>
</g>
<!-- Node12 -->
<g id="node13" class="node">
<title>Node12</title>
<polygon fill="#ffffff" stroke="#bfbfbf" points="1537.1377,-.5 1537.1377,-18.5 1594.2656,-18.5 1594.2656,-.5 1537.1377,-.5"/>
<text text-anchor="middle" x="1565.7017" y="-6.5" font-family="Helvetica,sans-Serif" font-size="10.00" fill="#000000">algorithm</text>
</g>
<!-- Node0&#45;&gt;Node12 -->
<g id="edge41" class="edge">
<title>Node0&#45;&gt;Node12</title>
<path fill="none" stroke="#191970" d="M1507.7259,-185.3841C1525.3073,-177.5241 1543.8232,-165.8331 1554.7017,-149 1578.6819,-111.8936 1574.1428,-57.1082 1569.5022,-28.4875"/>
<polygon fill="#191970" stroke="#191970" points="1572.9341,-27.796 1567.7153,-18.5756 1566.0451,-29.038 1572.9341,-27.796"/>
</g>
<!-- Node15 -->
<g id="node16" class="node">
<title>Node15</title>
<polygon fill="#ffffff" stroke="#bfbfbf" points="1450.4751,-.5 1450.4751,-18.5 1490.9282,-18.5 1490.9282,-.5 1450.4751,-.5"/>
<text text-anchor="middle" x="1470.7017" y="-6.5" font-family="Helvetica,sans-Serif" font-size="10.00" fill="#000000">string</text>
</g>
<!-- Node0&#45;&gt;Node15 -->
<g id="edge46" class="edge">
<title>Node0&#45;&gt;Node15</title>
<path fill="none" stroke="#191970" d="M1497.392,-185.3424C1512.6654,-177.1543 1529.0728,-165.2127 1537.7017,-149 1561.0241,-105.1795 1515.7823,-51.9479 1488.797,-25.7152"/>
<polygon fill="#191970" stroke="#191970" points="1491.1024,-23.0787 1481.4228,-18.771 1486.3035,-28.1748 1491.1024,-23.0787"/>
</g>
<!-- Node20 -->
<g id="node21" class="node">
<title>Node20</title>
<g id="a_node21"><a xlink:href="filereader_8hpp.html" target="_top" xlink:title="Declaration of the FileReader class. ">
<polygon fill="#ffffff" stroke="#000000" points="1396.8843,-125.5 1396.8843,-143.5 1528.519,-143.5 1528.519,-125.5 1396.8843,-125.5"/>
<text text-anchor="middle" x="1462.7017" y="-131.5" font-family="Helvetica,sans-Serif" font-size="10.00" fill="#000000">indigox/utils/filereader.hpp</text>
</a>
</g>
</g>
<!-- Node0&#45;&gt;Node20 -->
<g id="edge24" class="edge">
<title>Node0&#45;&gt;Node20</title>
<path fill="none" stroke="#191970" d="M1462.7017,-185.396C1462.7017,-176.1723 1462.7017,-164.0011 1462.7017,-153.8738"/>
<polygon fill="#191970" stroke="#191970" points="1466.2018,-153.5743 1462.7017,-143.5743 1459.2018,-153.5743 1466.2018,-153.5743"/>
</g>
<!-- Node22 -->
<g id="node23" class="node">
<title>Node22</title>
<polygon fill="#ffffff" stroke="#bfbfbf" points="1770.3325,-125.5 1770.3325,-143.5 1893.0708,-143.5 1893.0708,-125.5 1770.3325,-125.5"/>
<text text-anchor="middle" x="1831.7017" y="-131.5" font-family="Helvetica,sans-Serif" font-size="10.00" fill="#000000">indigox/utils/options.hpp</text>
</g>
<!-- Node0&#45;&gt;Node22 -->
<g id="edge27" class="edge">
<title>Node0&#45;&gt;Node22</title>
<path fill="none" stroke="#191970" d="M1518.7452,-190.6683C1578.9084,-181.0394 1677.2378,-164.8753 1761.7017,-149 1767.4058,-147.9279 1773.3618,-146.7636 1779.2874,-145.5766"/>
<polygon fill="#191970" stroke="#191970" points="1780.0766,-148.9879 1789.1812,-143.5697 1778.685,-142.1276 1780.0766,-148.9879"/>
</g>
<!-- Node23 -->
<g id="node24" class="node">
<title>Node23</title>
<g id="a_node24"><a xlink:href="electron__optimisation_8hpp.html" target="_top" xlink:title="indigox/algorithm/electron\l_optimisation.hpp">
<polygon fill="#ffffff" stroke="#000000" points="662.7266,-120.5 662.7266,-148.5 792.6768,-148.5 792.6768,-120.5 662.7266,-120.5"/>
<text text-anchor="start" x="670.7266" y="-136.5" font-family="Helvetica,sans-Serif" font-size="10.00" fill="#000000">indigox/algorithm/electron</text>
<text text-anchor="middle" x="727.7017" y="-126.5" font-family="Helvetica,sans-Serif" font-size="10.00" fill="#000000">_optimisation.hpp</text>
</a>
</g>
</g>
<!-- Node0&#45;&gt;Node23 -->
<g id="edge28" class="edge">
<title>Node0&#45;&gt;Node23</title>
<path fill="none" stroke="#191970" d="M1406.8539,-194.5611C1276.3193,-183.0172 951.1222,-154.2583 803.1532,-141.1726"/>
<polygon fill="#191970" stroke="#191970" points="803.0803,-137.6526 792.8108,-140.258 802.4636,-144.6253 803.0803,-137.6526"/>
</g>
<!-- Node26 -->
<g id="node27" class="node">
<title>Node26</title>
<g id="a_node27"><a xlink:href="atom_8hpp.html" target="_top" xlink:title="indigox/classes/atom.hpp">
<polygon fill="#ffffff" stroke="#000000" points="1250.5591,-125.5 1250.5591,-143.5 1378.8442,-143.5 1378.8442,-125.5 1250.5591,-125.5"/>
<text text-anchor="middle" x="1314.7017" y="-131.5" font-family="Helvetica,sans-Serif" font-size="10.00" fill="#000000">indigox/classes/atom.hpp</text>
</a>
</g>
</g>
<!-- Node0&#45;&gt;Node26 -->
<g id="edge35" class="edge">
<title>Node0&#45;&gt;Node26</title>
<path fill="none" stroke="#191970" d="M1430.5879,-185.396C1405.0699,-174.1888 1369.6435,-158.6299 1344.6963,-147.6733"/>
<polygon fill="#191970" stroke="#191970" points="1345.9265,-144.391 1335.3632,-143.5743 1343.1116,-150.8001 1345.9265,-144.391"/>
</g>
<!-- Node28 -->
<g id="node29" class="node">
<title>Node28</title>
<polygon fill="#ffffff" stroke="#bfbfbf" points="1911.1699,-125.5 1911.1699,-143.5 2042.2334,-143.5 2042.2334,-125.5 1911.1699,-125.5"/>
<text text-anchor="middle" x="1976.7017" y="-131.5" font-family="Helvetica,sans-Serif" font-size="10.00" fill="#000000">boost/algorithm/string.hpp</text>
</g>
<!-- Node0&#45;&gt;Node28 -->
<g id="edge40" class="edge">
<title>Node0&#45;&gt;Node28</title>
<path fill="none" stroke="#191970" d="M1518.6704,-194.4443C1602.2822,-186.5793 1764.6487,-170.0997 1901.7017,-149 1908.4828,-147.956 1915.586,-146.7418 1922.6044,-145.4689"/>
<polygon fill="#191970" stroke="#191970" points="1923.5884,-148.8459 1932.7788,-143.5747 1922.3072,-141.9641 1923.5884,-148.8459"/>
</g>
<!-- Node29 -->
<g id="node30" class="node">
<title>Node29</title>
<polygon fill="#ffffff" stroke="#bfbfbf" points="2059.8149,-125.5 2059.8149,-143.5 2103.5884,-143.5 2103.5884,-125.5 2059.8149,-125.5"/>
<text text-anchor="middle" x="2081.7017" y="-131.5" font-family="Helvetica,sans-Serif" font-size="10.00" fill="#000000">climits</text>
</g>
<!-- Node0&#45;&gt;Node29 -->
<g id="edge42" class="edge">
<title>Node0&#45;&gt;Node29</title>
<path fill="none" stroke="#191970" d="M1518.8072,-197.2891C1645.8611,-191.8627 1952.2351,-176.301 2051.7017,-149 2053.166,-148.5981 2054.6455,-148.1261 2056.1216,-147.6027"/>
<polygon fill="#191970" stroke="#191970" points="2057.7629,-150.7092 2065.6178,-143.5993 2055.0435,-144.2589 2057.7629,-150.7092"/>
</g>
<!-- Node30 -->
<g id="node31" class="node">
<title>Node30</title>
<polygon fill="#ffffff" stroke="#bfbfbf" points="2122.0317,-125.5 2122.0317,-143.5 2171.3716,-143.5 2171.3716,-125.5 2122.0317,-125.5"/>
<text text-anchor="middle" x="2146.7017" y="-131.5" font-family="Helvetica,sans-Serif" font-size="10.00" fill="#000000">fstream</text>
</g>
<!-- Node0&#45;&gt;Node30 -->
<g id="edge43" class="edge">
<title>Node0&#45;&gt;Node30</title>
<path fill="none" stroke="#191970" d="M1518.6336,-197.4873C1654.8154,-192.2123 2000.6374,-176.4627 2112.7017,-149 2114.665,-148.5189 2116.6599,-147.9366 2118.6489,-147.2854"/>
<polygon fill="#191970" stroke="#191970" points="2120.2591,-150.4182 2128.3715,-143.6035 2117.78,-143.8719 2120.2591,-150.4182"/>
</g>
<!-- Node31 -->
<g id="node32" class="node">
<title>Node31</title>
<polygon fill="#ffffff" stroke="#bfbfbf" points="2188.9209,-125.5 2188.9209,-143.5 2240.4824,-143.5 2240.4824,-125.5 2188.9209,-125.5"/>
<text text-anchor="middle" x="2214.7017" y="-131.5" font-family="Helvetica,sans-Serif" font-size="10.00" fill="#000000">sstream</text>
</g>
<!-- Node0&#45;&gt;Node31 -->
<g id="edge45" class="edge">
<title>Node0&#45;&gt;Node31</title>
<path fill="none" stroke="#191970" d="M1518.5204,-197.9669C1664.5443,-193.5747 2055.2003,-179.2693 2180.7017,-149 2182.6667,-148.5261 2184.663,-147.9492 2186.653,-147.302"/>
<polygon fill="#191970" stroke="#191970" points="2188.2592,-150.4367 2196.3778,-143.6295 2185.7861,-143.8881 2188.2592,-150.4367"/>
</g>
<!-- Node5 -->
<g id="node6" class="node">
<title>Node5</title>
<polygon fill="#ffffff" stroke="#bfbfbf" points="211.7339,-.5 211.7339,-18.5 301.6694,-18.5 301.6694,-.5 211.7339,-.5"/>
<text text-anchor="middle" x="256.7017" y="-6.5" font-family="Helvetica,sans-Serif" font-size="10.00" fill="#000000">../utils/graph.hpp</text>
</g>
<!-- Node4&#45;&gt;Node5 -->
<g id="edge5" class="edge">
<title>Node4&#45;&gt;Node5</title>
<path fill="none" stroke="#191970" d="M347.0359,-55.4327C327.922,-45.7137 302.6271,-32.8519 283.6667,-23.211"/>
<polygon fill="#191970" stroke="#191970" points="285.1597,-20.0437 274.6594,-18.6311 281.9869,-26.2834 285.1597,-20.0437"/>
</g>
<!-- Node6 -->
<g id="node7" class="node">
<title>Node6</title>
<polygon fill="#ffffff" stroke="#bfbfbf" points="319.7266,-.5 319.7266,-18.5 429.6768,-18.5 429.6768,-.5 319.7266,-.5"/>
<text text-anchor="middle" x="374.7017" y="-6.5" font-family="Helvetica,sans-Serif" font-size="10.00" fill="#000000">molecular_graph.hpp</text>
</g>
<!-- Node4&#45;&gt;Node6 -->
<g id="edge6" class="edge">
<title>Node4&#45;&gt;Node6</title>
<path fill="none" stroke="#191970" d="M374.7017,-55.2808C374.7017,-47.3776 374.7017,-37.4316 374.7017,-28.8308"/>
<polygon fill="#191970" stroke="#191970" points="378.2018,-28.5842 374.7017,-18.5842 371.2018,-28.5842 378.2018,-28.5842"/>
</g>
<!-- Node7 -->
<g id="node8" class="node">
<title>Node7</title>
<polygon fill="#ffffff" stroke="#bfbfbf" points="743.251,-.5 743.251,-18.5 788.1523,-18.5 788.1523,-.5 743.251,-.5"/>
<text text-anchor="middle" x="765.7017" y="-6.5" font-family="Helvetica,sans-Serif" font-size="10.00" fill="#000000">cstdint</text>
</g>
<!-- Node4&#45;&gt;Node7 -->
<g id="edge7" class="edge">
<title>Node4&#45;&gt;Node7</title>
<path fill="none" stroke="#191970" d="M435.7954,-60.125C519.6194,-47.262 667.3385,-24.5941 732.84,-14.5427"/>
<polygon fill="#191970" stroke="#191970" points="733.6364,-17.9616 742.9898,-12.9852 732.5746,-11.0425 733.6364,-17.9616"/>
</g>
<!-- Node4&#45;&gt;Node8 -->
<g id="edge8" class="edge">
<title>Node4&#45;&gt;Node8</title>
<path fill="none" stroke="#191970" d="M398.1472,-55.4327C413.9756,-45.9356 434.8057,-33.4376 450.7411,-23.8763"/>
<polygon fill="#191970" stroke="#191970" points="452.709,-26.7773 459.4832,-18.6311 449.1075,-20.7748 452.709,-26.7773"/>
</g>
<!-- Node10&#45;&gt;Node7 -->
<g id="edge22" class="edge">
<title>Node10&#45;&gt;Node7</title>
<path fill="none" stroke="#191970" d="M976.8344,-125.4435C944.0201,-117.3407 897.8542,-103.6832 860.7017,-84 830.5066,-68.0028 800.2417,-42.1663 782.2419,-25.5105"/>
<polygon fill="#191970" stroke="#191970" points="784.5573,-22.8832 774.8792,-18.5722 779.7565,-27.9776 784.5573,-22.8832"/>
</g>
<!-- Node10&#45;&gt;Node8 -->
<g id="edge23" class="edge">
<title>Node10&#45;&gt;Node8</title>
<path fill="none" stroke="#191970" d="M981.0332,-125.4663C940.0417,-115.5679 872.6054,-99.0854 814.7017,-84 767.4369,-71.6863 756.2629,-66.1135 708.7017,-55 639.763,-38.8913 558.4728,-23.9945 512.1196,-15.8827"/>
<polygon fill="#191970" stroke="#191970" points="512.6744,-12.4267 502.2225,-14.1611 511.4747,-19.3232 512.6744,-12.4267"/>
</g>
<!-- Node11 -->
<g id="node12" class="node">
<title>Node11</title>
<g id="a_node12"><a xlink:href="common_8hpp.html" target="_top" xlink:title="../utils/common.hpp">
<polygon fill="#ffffff" stroke="#000000" points="1235.3496,-60.5 1235.3496,-78.5 1338.0537,-78.5 1338.0537,-60.5 1235.3496,-60.5"/>
<text text-anchor="middle" x="1286.7017" y="-66.5" font-family="Helvetica,sans-Serif" font-size="10.00" fill="#000000">../utils/common.hpp</text>
</a>
</g>
</g>
<!-- Node10&#45;&gt;Node11 -->
<g id="edge11" class="edge">
<title>Node10&#45;&gt;Node11</title>
<path fill="none" stroke="#191970" d="M1055.9659,-125.462C1103.8331,-113.8524 1186.9638,-93.6902 1239.2883,-80.9995"/>
<polygon fill="#191970" stroke="#191970" points="1240.4296,-84.3243 1249.3229,-78.5658 1238.7796,-77.5215 1240.4296,-84.3243"/>
</g>
<!-- Node17 -->
<g id="node18" class="node">
<title>Node17</title>
<g id="a_node18"><a xlink:href="fwd__declares_8hpp.html" target="_top" xlink:title="../utils/fwd_declares.hpp">
<polygon fill="#ffffff" stroke="#000000" points="1056.0615,-60.5 1056.0615,-78.5 1179.3418,-78.5 1179.3418,-60.5 1056.0615,-60.5"/>
<text text-anchor="middle" x="1117.7017" y="-66.5" font-family="Helvetica,sans-Serif" font-size="10.00" fill="#000000">../utils/fwd_declares.hpp</text>
</a>
</g>
</g>
<!-- Node10&#45;&gt;Node17 -->
<g id="edge17" class="edge">
<title>Node10&#45;&gt;Node17</title>
<path fill="none" stroke="#191970" d="M1032.4672,-125.462C1048.7038,-114.8017 1075.9237,-96.9299 1095.2311,-84.2534"/>
<polygon fill="#191970" stroke="#191970" points="1097.2956,-87.085 1103.7339,-78.6708 1093.4537,-81.2335 1097.2956,-87.085"/>
</g>
<!-- Node18 -->
<g id="node19" class="node">
<title>Node18</title>
<polygon fill="#ffffff" stroke="#bfbfbf" points="870.1797,-60.5 870.1797,-78.5 981.2236,-78.5 981.2236,-60.5 870.1797,-60.5"/>
<text text-anchor="middle" x="925.7017" y="-66.5" font-family="Helvetica,sans-Serif" font-size="10.00" fill="#000000">EASTL/vector_map.h</text>
</g>
<!-- Node10&#45;&gt;Node18 -->
<g id="edge20" class="edge">
<title>Node10&#45;&gt;Node18</title>
<path fill="none" stroke="#191970" d="M1005.7704,-125.462C990.5869,-114.8499 965.1788,-97.0915 947.057,-84.4258"/>
<polygon fill="#191970" stroke="#191970" points="949.0244,-81.5307 938.8229,-78.6708 945.0143,-87.2683 949.0244,-81.5307"/>
</g>
<!-- Node19 -->
<g id="node20" class="node">
<title>Node19</title>
<polygon fill="#ffffff" stroke="#bfbfbf" points="999.3101,-60.5 999.3101,-78.5 1038.0933,-78.5 1038.0933,-60.5 999.3101,-60.5"/>
<text text-anchor="middle" x="1018.7017" y="-66.5" font-family="Helvetica,sans-Serif" font-size="10.00" fill="#000000">array</text>
</g>
<!-- Node10&#45;&gt;Node19 -->
<g id="edge21" class="edge">
<title>Node10&#45;&gt;Node19</title>
<path fill="none" stroke="#191970" d="M1018.7017,-125.462C1018.7017,-116.061 1018.7017,-101.0518 1018.7017,-88.943"/>
<polygon fill="#191970" stroke="#191970" points="1022.2018,-88.8821 1018.7017,-78.8821 1015.2018,-88.8822 1022.2018,-88.8821"/>
</g>
<!-- Node11&#45;&gt;Node12 -->
<g id="edge12" class="edge">
<title>Node11&#45;&gt;Node12</title>
<path fill="none" stroke="#191970" d="M1323.1464,-60.4934C1330.9103,-58.6306 1339.0688,-56.7147 1346.7017,-55 1409.6638,-40.8554 1483.165,-25.9018 1526.9922,-17.1496"/>
<polygon fill="#191970" stroke="#191970" points="1527.8167,-20.5542 1536.9401,-15.1678 1526.449,-13.6891 1527.8167,-20.5542"/>
</g>
<!-- Node13 -->
<g id="node14" class="node">
<title>Node13</title>
<polygon fill="#ffffff" stroke="#bfbfbf" points="1257.1401,-.5 1257.1401,-18.5 1304.2632,-18.5 1304.2632,-.5 1257.1401,-.5"/>
<text text-anchor="middle" x="1280.7017" y="-6.5" font-family="Helvetica,sans-Serif" font-size="10.00" fill="#000000">iterator</text>
</g>
<!-- Node11&#45;&gt;Node13 -->
<g id="edge13" class="edge">
<title>Node11&#45;&gt;Node13</title>
<path fill="none" stroke="#191970" d="M1285.7904,-60.3873C1284.9534,-52.0174 1283.6858,-39.3414 1282.6252,-28.735"/>
<polygon fill="#191970" stroke="#191970" points="1286.0993,-28.3005 1281.6215,-18.6985 1279.134,-28.9971 1286.0993,-28.3005"/>
</g>
<!-- Node14 -->
<g id="node15" class="node">
<title>Node14</title>
<polygon fill="#ffffff" stroke="#bfbfbf" points="1181.645,-.5 1181.645,-18.5 1233.7583,-18.5 1233.7583,-.5 1181.645,-.5"/>
<text text-anchor="middle" x="1207.7017" y="-6.5" font-family="Helvetica,sans-Serif" font-size="10.00" fill="#000000">memory</text>
</g>
<!-- Node11&#45;&gt;Node14 -->
<g id="edge14" class="edge">
<title>Node11&#45;&gt;Node14</title>
<path fill="none" stroke="#191970" d="M1274.7033,-60.3873C1262.2187,-50.9054 1242.4577,-35.897 1227.6253,-24.6319"/>
<polygon fill="#191970" stroke="#191970" points="1229.6346,-21.7629 1219.5541,-18.5019 1225.4008,-27.3374 1229.6346,-21.7629"/>
</g>
<!-- Node11&#45;&gt;Node15 -->
<g id="edge15" class="edge">
<title>Node11&#45;&gt;Node15</title>
<path fill="none" stroke="#191970" d="M1314.6473,-60.3873C1348.6859,-49.2877 1405.9484,-30.6152 1440.8345,-19.2393"/>
<polygon fill="#191970" stroke="#191970" points="1442.0454,-22.5259 1450.4676,-16.0981 1439.8752,-15.8708 1442.0454,-22.5259"/>
</g>
<!-- Node16 -->
<g id="node17" class="node">
<title>Node16</title>
<polygon fill="#ffffff" stroke="#bfbfbf" points="1322.6353,-.5 1322.6353,-18.5 1384.7681,-18.5 1384.7681,-.5 1322.6353,-.5"/>
<text text-anchor="middle" x="1353.7017" y="-6.5" font-family="Helvetica,sans-Serif" font-size="10.00" fill="#000000">type_traits</text>
</g>
<!-- Node11&#45;&gt;Node16 -->
<g id="edge16" class="edge">
<title>Node11&#45;&gt;Node16</title>
<path fill="none" stroke="#191970" d="M1296.8775,-60.3873C1307.2077,-51.1364 1323.4121,-36.625 1335.8776,-25.4618"/>
<polygon fill="#191970" stroke="#191970" points="1338.3154,-27.977 1343.43,-18.6985 1333.6456,-22.7624 1338.3154,-27.977"/>
</g>
<!-- Node17&#45;&gt;Node7 -->
<g id="edge18" class="edge">
<title>Node17&#45;&gt;Node7</title>
<path fill="none" stroke="#191970" d="M1074.9554,-60.4753C1065.6554,-58.5944 1055.8594,-56.6758 1046.7017,-55 957.1068,-38.6047 850.8733,-22.2336 798.3959,-14.3496"/>
<polygon fill="#191970" stroke="#191970" points="798.7463,-10.8632 788.3383,-12.8438 797.7098,-17.786 798.7463,-10.8632"/>
</g>
<!-- Node17&#45;&gt;Node14 -->
<g id="edge19" class="edge">
<title>Node17&#45;&gt;Node14</title>
<path fill="none" stroke="#191970" d="M1131.3707,-60.3873C1145.7265,-50.8168 1168.5277,-35.6159 1185.4761,-24.3171"/>
<polygon fill="#191970" stroke="#191970" points="1187.8198,-26.9611 1194.1988,-18.5019 1183.9369,-21.1367 1187.8198,-26.9611"/>
</g>
<!-- Node20&#45;&gt;Node15 -->
<g id="edge25" class="edge">
<title>Node20&#45;&gt;Node15</title>
<path fill="none" stroke="#191970" d="M1472.1277,-125.4943C1481.1934,-116.1226 1494.2948,-100.5281 1499.7017,-84 1503.7091,-71.7499 1503.3096,-67.3736 1499.7017,-55 1496.7677,-44.9378 1490.8585,-34.9795 1485.1353,-26.9564"/>
<polygon fill="#191970" stroke="#191970" points="1487.7718,-24.642 1478.9212,-18.818 1482.2082,-28.8901 1487.7718,-24.642"/>
</g>
<!-- Node21 -->
<g id="node22" class="node">
<title>Node21</title>
<polygon fill="#ffffff" stroke="#bfbfbf" points="1447.0859,-60.5 1447.0859,-78.5 1490.3174,-78.5 1490.3174,-60.5 1447.0859,-60.5"/>
<text text-anchor="middle" x="1468.7017" y="-66.5" font-family="Helvetica,sans-Serif" font-size="10.00" fill="#000000">vector</text>
</g>
<!-- Node20&#45;&gt;Node21 -->
<g id="edge26" class="edge">
<title>Node20&#45;&gt;Node21</title>
<path fill="none" stroke="#191970" d="M1463.5359,-125.462C1464.4037,-116.061 1465.7892,-101.0518 1466.9069,-88.943"/>
<polygon fill="#191970" stroke="#191970" points="1470.4015,-89.1615 1467.8356,-78.8821 1463.4312,-88.5181 1470.4015,-89.1615"/>
</g>
<!-- Node23&#45;&gt;Node4 -->
<g id="edge29" class="edge">
<title>Node23&#45;&gt;Node4</title>
<path fill="none" stroke="#191970" d="M662.5446,-122.5022C601.088,-111.1859 509.1908,-94.2643 445.8473,-82.6005"/>
<polygon fill="#191970" stroke="#191970" points="446.4037,-79.1442 435.9352,-80.7753 445.136,-86.0284 446.4037,-79.1442"/>
</g>
<!-- Node23&#45;&gt;Node7 -->
<g id="edge31" class="edge">
<title>Node23&#45;&gt;Node7</title>
<path fill="none" stroke="#191970" d="M732.0607,-120.1609C738.9214,-97.5929 752.2443,-53.7677 759.9045,-28.5696"/>
<polygon fill="#191970" stroke="#191970" points="763.334,-29.3217 762.8939,-18.736 756.6366,-27.2856 763.334,-29.3217"/>
</g>
<!-- Node23&#45;&gt;Node15 -->
<g id="edge32" class="edge">
<title>Node23&#45;&gt;Node15</title>
<path fill="none" stroke="#191970" d="M745.3103,-120.2014C769.5963,-101.4085 815.5143,-69.1317 860.7017,-55 974.0045,-19.5662 1275.5238,-30.2725 1393.7017,-19 1409.088,-17.5324 1426.1516,-15.4717 1440.2975,-13.6445"/>
<polygon fill="#191970" stroke="#191970" points="1441.0119,-17.0808 1450.47,-12.3065 1440.0989,-10.1406 1441.0119,-17.0808"/>
</g>
<!-- Node23&#45;&gt;Node21 -->
<g id="edge34" class="edge">
<title>Node23&#45;&gt;Node21</title>
<path fill="none" stroke="#191970" d="M792.876,-129.7728C832.2108,-126.9261 883.3346,-123.2376 928.7017,-120 1155.3559,-103.8251 1219.1286,-142.4931 1438.7017,-84 1440.169,-83.6091 1441.6508,-83.1459 1443.1288,-82.6294"/>
<polygon fill="#191970" stroke="#191970" points="1444.7609,-85.7404 1452.6308,-78.6471 1442.0551,-79.2845 1444.7609,-85.7404"/>
</g>
<!-- Node24 -->
<g id="node25" class="node">
<title>Node24</title>
<polygon fill="#ffffff" stroke="#bfbfbf" points="491.7979,-55.5 491.7979,-83.5 595.6055,-83.5 595.6055,-55.5 491.7979,-55.5"/>
<text text-anchor="start" x="499.7979" y="-71.5" font-family="Helvetica,sans-Serif" font-size="10.00" fill="#000000">../classes/molecular</text>
<text text-anchor="middle" x="543.7017" y="-61.5" font-family="Helvetica,sans-Serif" font-size="10.00" fill="#000000">_graph.hpp</text>
</g>
<!-- Node23&#45;&gt;Node24 -->
<g id="edge30" class="edge">
<title>Node23&#45;&gt;Node24</title>
<path fill="none" stroke="#191970" d="M687.7764,-120.396C660.048,-110.6006 622.9092,-97.4809 593.2835,-87.0153"/>
<polygon fill="#191970" stroke="#191970" points="594.1438,-83.6073 583.549,-83.5765 591.8121,-90.2076 594.1438,-83.6073"/>
</g>
<!-- Node25 -->
<g id="node26" class="node">
<title>Node25</title>
<polygon fill="#ffffff" stroke="#bfbfbf" points="613.3989,-60.5 613.3989,-78.5 700.0044,-78.5 700.0044,-60.5 613.3989,-60.5"/>
<text text-anchor="middle" x="656.7017" y="-66.5" font-family="Helvetica,sans-Serif" font-size="10.00" fill="#000000">unordered_map</text>
</g>
<!-- Node23&#45;&gt;Node25 -->
<g id="edge33" class="edge">
<title>Node23&#45;&gt;Node25</title>
<path fill="none" stroke="#191970" d="M712.2957,-120.396C701.029,-110.0814 685.7359,-96.0807 674.0413,-85.3743"/>
<polygon fill="#191970" stroke="#191970" points="676.3529,-82.7453 666.6136,-78.5743 671.6261,-87.9084 676.3529,-82.7453"/>
</g>
<!-- Node26&#45;&gt;Node14 -->
<g id="edge38" class="edge">
<title>Node26&#45;&gt;Node14</title>
<path fill="none" stroke="#191970" d="M1287.3083,-125.3914C1267.6135,-117.4632 1241.941,-104.0562 1226.7017,-84 1214.6149,-68.0928 1210.1667,-45.3203 1208.5567,-29.1476"/>
<polygon fill="#191970" stroke="#191970" points="1212.0166,-28.4575 1207.8174,-18.7304 1205.0342,-28.9531 1212.0166,-28.4575"/>
</g>
<!-- Node26&#45;&gt;Node17 -->
<g id="edge36" class="edge">
<title>Node26&#45;&gt;Node17</title>
<path fill="none" stroke="#191970" d="M1287.3097,-125.462C1252.8567,-114.0943 1193.5513,-94.5265 1154.987,-81.8023"/>
<polygon fill="#191970" stroke="#191970" points="1155.771,-78.3754 1145.1779,-78.5658 1153.5776,-85.0229 1155.771,-78.3754"/>
</g>
<!-- Node26&#45;&gt;Node21 -->
<g id="edge39" class="edge">
<title>Node26&#45;&gt;Node21</title>
<path fill="none" stroke="#191970" d="M1338.1994,-125.4444C1363.2778,-115.6602 1404.0826,-99.3971 1438.7017,-84 1439.5341,-83.6297 1440.3777,-83.2502 1441.2279,-82.8638"/>
<polygon fill="#191970" stroke="#191970" points="1442.8088,-85.9884 1450.3839,-78.5811 1439.8429,-79.6477 1442.8088,-85.9884"/>
</g>
<!-- Node27 -->
<g id="node28" class="node">
<title>Node27</title>
<polygon fill="#ffffff" stroke="#bfbfbf" points="1356.0713,-60.5 1356.0713,-78.5 1429.332,-78.5 1429.332,-60.5 1356.0713,-60.5"/>
<text text-anchor="middle" x="1392.7017" y="-66.5" font-family="Helvetica,sans-Serif" font-size="10.00" fill="#000000">Eigen/Dense</text>
</g>
<!-- Node26&#45;&gt;Node27 -->
<g id="edge37" class="edge">
<title>Node26&#45;&gt;Node27</title>
<path fill="none" stroke="#191970" d="M1325.5472,-125.462C1337.9796,-115.1017 1358.5853,-97.9303 1373.6986,-85.3358"/>
<polygon fill="#191970" stroke="#191970" points="1376.0015,-87.9728 1381.4431,-78.8821 1371.5202,-82.5952 1376.0015,-87.9728"/>
</g>
</g>
</svg>
        <g id="navigator" transform="translate(0 0)" fill="#404254">
                <rect fill="#f2f5e9" fill-opacity="0.5" stroke="#606060" stroke-width=".5" x="0" y="0" width="60" height="60"/>
                <use id="zoomplus" xlink:href="#zoomPlus" x="17" y="9" onmousedown="handleZoom(evt,'in')"/>
                <use id="zoomminus" xlink:href="#zoomMin" x="42" y="9" onmousedown="handleZoom(evt,'out')"/>
                <use id="reset" xlink:href="#resetDef" x="30" y="36" onmousedown="handleReset()"/>
                <g id="arrowUp" xlink:href="#dirArrow" transform="translate(30 24)" onmousedown="handlePan(0,-1)">
                  <use xlink:href="#rim" fill="#404040">
                        <set attributeName="fill" to="#808080" begin="arrowUp.mouseover" end="arrowUp.mouseout"/>
                  </use>
                  <path fill="none" stroke="white" stroke-width="1.5" d="M0,-3.0v7 M-2.5,-0.5L0,-3.0L2.5,-0.5"/>
                </g>
                <g id="arrowRight" xlink:href="#dirArrow" transform="rotate(90) translate(36 -43)" onmousedown="handlePan(1,0)">
                  <use xlink:href="#rim" fill="#404040">
                        <set attributeName="fill" to="#808080" begin="arrowRight.mouseover" end="arrowRight.mouseout"/>
                  </use>
                  <path fill="none" stroke="white" stroke-width="1.5" d="M0,-3.0v7 M-2.5,-0.5L0,-3.0L2.5,-0.5"/>
                </g>
                <g id="arrowDown" xlink:href="#dirArrow" transform="rotate(180) translate(-30 -48)" onmousedown="handlePan(0,1)">
                  <use xlink:href="#rim" fill="#404040">
                        <set attributeName="fill" to="#808080" begin="arrowDown.mouseover" end="arrowDown.mouseout"/>
                  </use>
                  <path fill="none" stroke="white" stroke-width="1.5" d="M0,-3.0v7 M-2.5,-0.5L0,-3.0L2.5,-0.5"/>
                </g>
                <g id="arrowLeft" xlink:href="#dirArrow" transform="rotate(270) translate(-36 17)" onmousedown="handlePan(-1,0)">
                  <use xlink:href="#rim" fill="#404040">
                        <set attributeName="fill" to="#808080" begin="arrowLeft.mouseover" end="arrowLeft.mouseout"/>
                  </use>
                  <path fill="none" stroke="white" stroke-width="1.5" d="M0,-3.0v7 M-2.5,-0.5L0,-3.0L2.5,-0.5"/>
                </g>
        </g>
        <svg viewBox="0 0 15 15" width="100%" height="30px" preserveAspectRatio="xMaxYMin meet">
         <g id="arrow_out" transform="scale(0.3 0.3)">
          <a xlink:href="electron__optimisation_8cpp__incl_org.svg" target="_base">
           <rect id="button" ry="5" rx="5" y="6" x="6" height="38" width="38"
                fill="#f2f5e9" fill-opacity="0.5" stroke="#606060" stroke-width="1.0"/>
           <path id="arrow"
             d="M 11.500037,31.436501 C 11.940474,20.09759 22.043105,11.32322 32.158766,21.979434 L 37.068811,17.246167 C 37.068811,17.246167 37.088388,32 37.088388,32 L 22.160133,31.978069 C 22.160133,31.978069 26.997745,27.140456 26.997745,27.140456 C 18.528582,18.264221 13.291696,25.230495 11.500037,31.436501 z"
             style="fill:#404040;"/>
          </a>
         </g>
        </svg>
</svg>
