<?xml version="1.0" encoding="UTF-8" standalone="no"?>
<!DOCTYPE svg PUBLIC "-//W3C//DTD SVG 1.1//EN"
 "http://www.w3.org/Graphics/SVG/1.1/DTD/svg11.dtd">
<!-- Generated by graphviz version 2.40.1 (20161225.0304)
 -->
<!-- Title: include/indigox/algorithm/formalbonds/electron_optimisation_algorithm.hpp Pages: 1 -->
<!--zoomable 187 -->
<svg id="main" version="1.1" xmlns="http://www.w3.org/2000/svg" xmlns:xlink="http://www.w3.org/1999/xlink" xml:space="preserve" onload="init(evt)">
<style type="text/css"><![CDATA[
.edge:hover path { stroke: red; }
.edge:hover polygon { stroke: red; fill: red; }
]]></style>
<script type="text/javascript"><![CDATA[
var edges = document.getElementsByTagName('g');
if (edges && edges.length) {
  for (var i=0;i<edges.length;i++) {
    if (edges[i].id.substr(0,4)=='edge') {
      edges[i].setAttribute('class','edge');
    }
  }
}
]]></script>
        <defs>
                <circle id="rim" cx="0" cy="0" r="7"/>
                <circle id="rim2" cx="0" cy="0" r="3.5"/>
                <g id="zoomPlus">
                        <use xlink:href="#rim" fill="#404040">
                                <set attributeName="fill" to="#808080" begin="zoomplus.mouseover" end="zoomplus.mouseout"/>
                        </use>
                        <path d="M-4,0h8M0,-4v8" fill="none" stroke="white" stroke-width="1.5" pointer-events="none"/>
                </g>
                <g id="zoomMin">
                        <use xlink:href="#rim" fill="#404040">
                                <set attributeName="fill" to="#808080" begin="zoomminus.mouseover" end="zoomminus.mouseout"/>
                        </use>
                        <path d="M-4,0h8" fill="none" stroke="white" stroke-width="1.5" pointer-events="none"/>
                </g>
                <g id="dirArrow">
                        <path fill="none" stroke="white" stroke-width="1.5" d="M0,-3.0v7 M-2.5,-0.5L0,-3.0L2.5,-0.5"/>
                </g>
               <g id="resetDef">
                       <use xlink:href="#rim2" fill="#404040">
                               <set attributeName="fill" to="#808080" begin="reset.mouseover" end="reset.mouseout"/>
                       </use>
               </g>
        </defs>

<script type="text/javascript">
var viewWidth = 668;
var viewHeight = 187;
var sectionId = 'dynsection-1';
</script>
<script xlink:href="svgpan.js"/>
<svg id="graph" class="graph">
<g id="viewport">
<title>include/indigox/algorithm/formalbonds/electron_optimisation_algorithm.hpp</title>
<polygon fill="#ffffff" stroke="transparent" points="-4,4 -4,-183 664.0439,-183 664.0439,4 -4,4"/>
<!-- Node13 -->
<g id="node1" class="node">
<title>Node13</title>
<polygon fill="#bfbfbf" stroke="#000000" points="276.9805,-140.5 276.9805,-178.5 448.0635,-178.5 448.0635,-140.5 276.9805,-140.5"/>
<text text-anchor="start" x="284.9805" y="-166.5" font-family="Helvetica,sans-Serif" font-size="10.00" fill="#000000">include/indigox/algorithm</text>
<text text-anchor="start" x="284.9805" y="-156.5" font-family="Helvetica,sans-Serif" font-size="10.00" fill="#000000">/formalbonds/electron_optimisation</text>
<text text-anchor="middle" x="362.522" y="-146.5" font-family="Helvetica,sans-Serif" font-size="10.00" fill="#000000">_algorithm.hpp</text>
</g>
<!-- Node14 -->
<g id="node2" class="node">
<title>Node14</title>
<g id="a_node2"><a xlink:href="astar_8hpp.html" target="_top" xlink:title="include/indigox/algorithm\l/formalbonds/astar.hpp">
<polygon fill="#ffffff" stroke="#000000" points="384.4902,-70.5 384.4902,-98.5 510.5537,-98.5 510.5537,-70.5 384.4902,-70.5"/>
<text text-anchor="start" x="392.4902" y="-86.5" font-family="Helvetica,sans-Serif" font-size="10.00" fill="#000000">include/indigox/algorithm</text>
<text text-anchor="middle" x="447.522" y="-76.5" font-family="Helvetica,sans-Serif" font-size="10.00" fill="#000000">/formalbonds/astar.hpp</text>
</a>
</g>
</g>
<!-- Node13&#45;&gt;Node14 -->
<g id="edge1" class="edge">
<title>Node13&#45;&gt;Node14</title>
<path fill="none" stroke="#191970" d="M391.9829,-133.5051C405.2891,-121.7643 420.4834,-108.3576 431.612,-98.5382"/>
<polygon fill="#191970" stroke="#191970" points="389.5943,-130.9449 384.4116,-140.1856 394.2257,-136.1938 389.5943,-130.9449"/>
</g>
<!-- Node17 -->
<g id="node5" class="node">
<title>Node17</title>
<g id="a_node5"><a xlink:href="fpt_8hpp.html" target="_top" xlink:title="include/indigox/algorithm\l/formalbonds/fpt.hpp">
<polygon fill="#ffffff" stroke="#000000" points="46.4902,-70.5 46.4902,-98.5 172.5537,-98.5 172.5537,-70.5 46.4902,-70.5"/>
<text text-anchor="start" x="54.4902" y="-86.5" font-family="Helvetica,sans-Serif" font-size="10.00" fill="#000000">include/indigox/algorithm</text>
<text text-anchor="middle" x="109.522" y="-76.5" font-family="Helvetica,sans-Serif" font-size="10.00" fill="#000000">/formalbonds/fpt.hpp</text>
</a>
</g>
</g>
<!-- Node13&#45;&gt;Node17 -->
<g id="edge4" class="edge">
<title>Node13&#45;&gt;Node17</title>
<path fill="none" stroke="#191970" d="M288.6002,-137.5864C246.0665,-124.9776 193.8857,-109.509 156.8479,-98.5294"/>
<polygon fill="#191970" stroke="#191970" points="287.7699,-140.9908 298.3523,-140.4774 289.7595,-134.2795 287.7699,-140.9908"/>
</g>
<!-- Node19 -->
<g id="node7" class="node">
<title>Node19</title>
<g id="a_node7"><a xlink:href="formalbonds_2local__optimisation_8hpp.html" target="_top" xlink:title="include/indigox/algorithm\l/formalbonds/local_optimisation.hpp">
<polygon fill="#ffffff" stroke="#000000" points="190.7539,-70.5 190.7539,-98.5 366.29,-98.5 366.29,-70.5 190.7539,-70.5"/>
<text text-anchor="start" x="198.7539" y="-86.5" font-family="Helvetica,sans-Serif" font-size="10.00" fill="#000000">include/indigox/algorithm</text>
<text text-anchor="middle" x="278.522" y="-76.5" font-family="Helvetica,sans-Serif" font-size="10.00" fill="#000000">/formalbonds/local_optimisation.hpp</text>
</a>
</g>
</g>
<!-- Node13&#45;&gt;Node19 -->
<g id="edge7" class="edge">
<title>Node13&#45;&gt;Node19</title>
<path fill="none" stroke="#191970" d="M333.4077,-133.5051C320.258,-121.7643 305.2424,-108.3576 294.2447,-98.5382"/>
<polygon fill="#191970" stroke="#191970" points="331.0994,-136.1362 340.8899,-140.1856 335.7616,-130.9147 331.0994,-136.1362"/>
</g>
<!-- Node21 -->
<g id="node9" class="node">
<title>Node21</title>
<g id="a_node9"><a xlink:href="electron__optimisation__algorithm_8cpp.html" target="_top" xlink:title="src/algorithm/formalbonds\l/electron_optimisation\l_algorithm.cpp">
<polygon fill="#ffffff" stroke="#000000" points="529,-65.5 529,-103.5 660.0439,-103.5 660.0439,-65.5 529,-65.5"/>
<text text-anchor="start" x="537" y="-91.5" font-family="Helvetica,sans-Serif" font-size="10.00" fill="#000000">src/algorithm/formalbonds</text>
<text text-anchor="start" x="537" y="-81.5" font-family="Helvetica,sans-Serif" font-size="10.00" fill="#000000">/electron_optimisation</text>
<text text-anchor="middle" x="594.522" y="-71.5" font-family="Helvetica,sans-Serif" font-size="10.00" fill="#000000">_algorithm.cpp</text>
</a>
</g>
</g>
<!-- Node13&#45;&gt;Node21 -->
<g id="edge10" class="edge">
<title>Node13&#45;&gt;Node21</title>
<path fill="none" stroke="#191970" d="M431.0201,-137.3562C464.2901,-126.6008 503.8619,-113.8082 535.7414,-103.5023"/>
<polygon fill="#191970" stroke="#191970" points="429.8038,-134.071 421.3653,-140.4774 431.9571,-140.7316 429.8038,-134.071"/>
</g>
<!-- Node15 -->
<g id="node3" class="node">
<title>Node15</title>
<g id="a_node3"><a xlink:href="electron__optimisation_8cpp.html" target="_top" xlink:title="src/algorithm/electron\l_optimisation.cpp">
<polygon fill="#ffffff" stroke="#000000" points="148.7266,-.5 148.7266,-28.5 260.3174,-28.5 260.3174,-.5 148.7266,-.5"/>
<text text-anchor="start" x="156.7266" y="-16.5" font-family="Helvetica,sans-Serif" font-size="10.00" fill="#000000">src/algorithm/electron</text>
<text text-anchor="middle" x="204.522" y="-6.5" font-family="Helvetica,sans-Serif" font-size="10.00" fill="#000000">_optimisation.cpp</text>
</a>
</g>
</g>
<!-- Node14&#45;&gt;Node15 -->
<g id="edge2" class="edge">
<title>Node14&#45;&gt;Node15</title>
<path fill="none" stroke="#191970" d="M388.9367,-67.6236C347.4466,-55.6717 292.4389,-39.8258 253.3262,-28.5588"/>
<polygon fill="#191970" stroke="#191970" points="388.0615,-71.0137 398.6396,-70.4187 389.9992,-64.2873 388.0615,-71.0137"/>
</g>
<!-- Node16 -->
<g id="node4" class="node">
<title>Node16</title>
<g id="a_node4"><a xlink:href="astar_8cpp.html" target="_top" xlink:title="src/algorithm/formalbonds\l/astar.cpp">
<polygon fill="#ffffff" stroke="#000000" points="427,-.5 427,-28.5 558.0439,-28.5 558.0439,-.5 427,-.5"/>
<text text-anchor="start" x="435" y="-16.5" font-family="Helvetica,sans-Serif" font-size="10.00" fill="#000000">src/algorithm/formalbonds</text>
<text text-anchor="middle" x="492.522" y="-6.5" font-family="Helvetica,sans-Serif" font-size="10.00" fill="#000000">/astar.cpp</text>
</a>
</g>
</g>
<!-- Node14&#45;&gt;Node16 -->
<g id="edge3" class="edge">
<title>Node14&#45;&gt;Node16</title>
<path fill="none" stroke="#191970" d="M462.1667,-61.7193C469.1693,-50.8264 477.3327,-38.1278 483.4291,-28.6445"/>
<polygon fill="#191970" stroke="#191970" points="459.0919,-60.03 456.6284,-70.3345 464.9801,-63.8153 459.0919,-60.03"/>
</g>
<!-- Node17&#45;&gt;Node15 -->
<g id="edge5" class="edge">
<title>Node17&#45;&gt;Node15</title>
<path fill="none" stroke="#191970" d="M136.9411,-64.2964C152.4365,-52.8788 171.4261,-38.8864 185.3259,-28.6445"/>
<polygon fill="#191970" stroke="#191970" points="134.721,-61.5847 128.7466,-70.3345 138.8734,-67.2201 134.721,-61.5847"/>
</g>
<!-- Node18 -->
<g id="node6" class="node">
<title>Node18</title>
<g id="a_node6"><a xlink:href="fpt_8cpp.html" target="_top" xlink:title="src/algorithm/formalbonds\l/fpt.cpp">
<polygon fill="#ffffff" stroke="#000000" points="0,-.5 0,-28.5 131.0439,-28.5 131.0439,-.5 0,-.5"/>
<text text-anchor="start" x="8" y="-16.5" font-family="Helvetica,sans-Serif" font-size="10.00" fill="#000000">src/algorithm/formalbonds</text>
<text text-anchor="middle" x="65.522" y="-6.5" font-family="Helvetica,sans-Serif" font-size="10.00" fill="#000000">/fpt.cpp</text>
</a>
</g>
</g>
<!-- Node17&#45;&gt;Node18 -->
<g id="edge6" class="edge">
<title>Node17&#45;&gt;Node18</title>
<path fill="none" stroke="#191970" d="M95.2027,-61.7193C88.3557,-50.8264 80.3737,-38.1278 74.4128,-28.6445"/>
<polygon fill="#191970" stroke="#191970" points="92.3329,-63.7307 100.6179,-70.3345 98.2594,-60.0055 92.3329,-63.7307"/>
</g>
<!-- Node19&#45;&gt;Node15 -->
<g id="edge8" class="edge">
<title>Node19&#45;&gt;Node15</title>
<path fill="none" stroke="#191970" d="M256.1519,-63.3391C244.2751,-52.1043 230.0011,-38.6019 219.4747,-28.6445"/>
<polygon fill="#191970" stroke="#191970" points="253.877,-66.0051 263.547,-70.3345 258.6875,-60.9198 253.877,-66.0051"/>
</g>
<!-- Node20 -->
<g id="node8" class="node">
<title>Node20</title>
<g id="a_node8"><a xlink:href="formalbonds_2local__optimisation_8cpp.html" target="_top" xlink:title="src/algorithm/formalbonds\l/local_optimisation.cpp">
<polygon fill="#ffffff" stroke="#000000" points="278,-.5 278,-28.5 409.0439,-28.5 409.0439,-.5 278,-.5"/>
<text text-anchor="start" x="286" y="-16.5" font-family="Helvetica,sans-Serif" font-size="10.00" fill="#000000">src/algorithm/formalbonds</text>
<text text-anchor="middle" x="343.522" y="-6.5" font-family="Helvetica,sans-Serif" font-size="10.00" fill="#000000">/local_optimisation.cpp</text>
</a>
</g>
</g>
<!-- Node19&#45;&gt;Node20 -->
<g id="edge9" class="edge">
<title>Node19&#45;&gt;Node20</title>
<path fill="none" stroke="#191970" d="M298.7698,-62.6947C309.0801,-51.5912 321.3177,-38.4123 330.3878,-28.6445"/>
<polygon fill="#191970" stroke="#191970" points="295.9154,-60.6249 291.6757,-70.3345 301.045,-65.3881 295.9154,-60.6249"/>
</g>
</g>
</svg>
        <g id="navigator" transform="translate(0 0)" fill="#404254">
                <rect fill="#f2f5e9" fill-opacity="0.5" stroke="#606060" stroke-width=".5" x="0" y="0" width="60" height="60"/>
                <use id="zoomplus" xlink:href="#zoomPlus" x="17" y="9" onmousedown="handleZoom(evt,'in')"/>
                <use id="zoomminus" xlink:href="#zoomMin" x="42" y="9" onmousedown="handleZoom(evt,'out')"/>
                <use id="reset" xlink:href="#resetDef" x="30" y="36" onmousedown="handleReset()"/>
                <g id="arrowUp" xlink:href="#dirArrow" transform="translate(30 24)" onmousedown="handlePan(0,-1)">
                  <use xlink:href="#rim" fill="#404040">
                        <set attributeName="fill" to="#808080" begin="arrowUp.mouseover" end="arrowUp.mouseout"/>
                  </use>
                  <path fill="none" stroke="white" stroke-width="1.5" d="M0,-3.0v7 M-2.5,-0.5L0,-3.0L2.5,-0.5"/>
                </g>
                <g id="arrowRight" xlink:href="#dirArrow" transform="rotate(90) translate(36 -43)" onmousedown="handlePan(1,0)">
                  <use xlink:href="#rim" fill="#404040">
                        <set attributeName="fill" to="#808080" begin="arrowRight.mouseover" end="arrowRight.mouseout"/>
                  </use>
                  <path fill="none" stroke="white" stroke-width="1.5" d="M0,-3.0v7 M-2.5,-0.5L0,-3.0L2.5,-0.5"/>
                </g>
                <g id="arrowDown" xlink:href="#dirArrow" transform="rotate(180) translate(-30 -48)" onmousedown="handlePan(0,1)">
                  <use xlink:href="#rim" fill="#404040">
                        <set attributeName="fill" to="#808080" begin="arrowDown.mouseover" end="arrowDown.mouseout"/>
                  </use>
                  <path fill="none" stroke="white" stroke-width="1.5" d="M0,-3.0v7 M-2.5,-0.5L0,-3.0L2.5,-0.5"/>
                </g>
                <g id="arrowLeft" xlink:href="#dirArrow" transform="rotate(270) translate(-36 17)" onmousedown="handlePan(-1,0)">
                  <use xlink:href="#rim" fill="#404040">
                        <set attributeName="fill" to="#808080" begin="arrowLeft.mouseover" end="arrowLeft.mouseout"/>
                  </use>
                  <path fill="none" stroke="white" stroke-width="1.5" d="M0,-3.0v7 M-2.5,-0.5L0,-3.0L2.5,-0.5"/>
                </g>
        </g>
        <svg viewBox="0 0 15 15" width="100%" height="30px" preserveAspectRatio="xMaxYMin meet">
         <g id="arrow_out" transform="scale(0.3 0.3)">
          <a xlink:href="electron__optimisation__algorithm_8hpp__dep__incl_org.svg" target="_base">
           <rect id="button" ry="5" rx="5" y="6" x="6" height="38" width="38"
                fill="#f2f5e9" fill-opacity="0.5" stroke="#606060" stroke-width="1.0"/>
           <path id="arrow"
             d="M 11.500037,31.436501 C 11.940474,20.09759 22.043105,11.32322 32.158766,21.979434 L 37.068811,17.246167 C 37.068811,17.246167 37.088388,32 37.088388,32 L 22.160133,31.978069 C 22.160133,31.978069 26.997745,27.140456 26.997745,27.140456 C 18.528582,18.264221 13.291696,25.230495 11.500037,31.436501 z"
             style="fill:#404040;"/>
          </a>
         </g>
        </svg>
</svg>
