<?xml version="1.0" encoding="UTF-8" standalone="no"?>
<!DOCTYPE svg PUBLIC "-//W3C//DTD SVG 1.1//EN"
 "http://www.w3.org/Graphics/SVG/1.1/DTD/svg11.dtd">
<!-- Generated by graphviz version 2.40.1 (20161225.0304)
 -->
<!-- Title: src/algorithm/electron_assignment/local_optimisation.cpp Pages: 1 -->
<svg width="2711pt" height="602pt"
 viewBox="0.00 0.00 2710.61 602.00" xmlns="http://www.w3.org/2000/svg" xmlns:xlink="http://www.w3.org/1999/xlink">
<g id="graph0" class="graph" transform="scale(1 1) rotate(0) translate(4 598)">
<title>src/algorithm/electron_assignment/local_optimisation.cpp</title>
<polygon fill="#ffffff" stroke="transparent" points="-4,4 -4,-598 2706.6057,-598 2706.6057,4 -4,4"/>
<!-- Node0 -->
<g id="node1" class="node">
<title>Node0</title>
<polygon fill="#bfbfbf" stroke="#000000" points="965.0669,-565.5 965.0669,-593.5 1138.9331,-593.5 1138.9331,-565.5 965.0669,-565.5"/>
<text text-anchor="start" x="973.0669" y="-581.5" font-family="Helvetica,sans-Serif" font-size="10.00" fill="#000000">src/algorithm/electron</text>
<text text-anchor="middle" x="1052" y="-571.5" font-family="Helvetica,sans-Serif" font-size="10.00" fill="#000000">_assignment/local_optimisation.cpp</text>
</g>
<!-- Node1 -->
<g id="node2" class="node">
<title>Node1</title>
<g id="a_node2"><a xlink:href="assigner_8hpp.html" target="_top" xlink:title="indigox/algorithm/electron\l_assignment/assigner.hpp">
<polygon fill="#ffffff" stroke="#000000" points="886.9043,-435.5 886.9043,-463.5 1019.0957,-463.5 1019.0957,-435.5 886.9043,-435.5"/>
<text text-anchor="start" x="894.9043" y="-451.5" font-family="Helvetica,sans-Serif" font-size="10.00" fill="#000000">indigox/algorithm/electron</text>
<text text-anchor="middle" x="953" y="-441.5" font-family="Helvetica,sans-Serif" font-size="10.00" fill="#000000">_assignment/assigner.hpp</text>
</a>
</g>
</g>
<!-- Node0&#45;&gt;Node1 -->
<g id="edge1" class="edge">
<title>Node0&#45;&gt;Node1</title>
<path fill="none" stroke="#191970" d="M1041.2168,-565.3402C1024.033,-542.7757 990.2994,-498.4791 969.8902,-471.6791"/>
<polygon fill="#191970" stroke="#191970" points="972.613,-469.4775 963.7699,-463.6423 967.044,-473.7186 972.613,-469.4775"/>
</g>
<!-- Node3 -->
<g id="node4" class="node">
<title>Node3</title>
<g id="a_node4"><a xlink:href="common_8hpp.html" target="_top" xlink:title="../utils/common.hpp">
<polygon fill="#ffffff" stroke="#000000" points="343.6479,-125.5 343.6479,-143.5 446.3521,-143.5 446.3521,-125.5 343.6479,-125.5"/>
<text text-anchor="middle" x="395" y="-131.5" font-family="Helvetica,sans-Serif" font-size="10.00" fill="#000000">../utils/common.hpp</text>
</a>
</g>
</g>
<!-- Node0&#45;&gt;Node3 -->
<g id="edge91" class="edge">
<title>Node0&#45;&gt;Node3</title>
<path fill="none" stroke="#191970" d="M964.9575,-576.9806C725.7448,-568.9074 76,-538.7632 76,-449.5 76,-449.5 76,-449.5 76,-264.5 76,-209.444 121.6492,-209.4061 171,-185 222.4349,-159.5632 286.8447,-146.7657 333.3785,-140.4359"/>
<polygon fill="#191970" stroke="#191970" points="333.855,-143.9035 343.3208,-139.1446 332.9533,-136.9618 333.855,-143.9035"/>
</g>
<!-- Node10 -->
<g id="node11" class="node">
<title>Node10</title>
<polygon fill="#ffffff" stroke="#bfbfbf" points="129.5493,-.5 129.5493,-18.5 174.4507,-18.5 174.4507,-.5 129.5493,-.5"/>
<text text-anchor="middle" x="152" y="-6.5" font-family="Helvetica,sans-Serif" font-size="10.00" fill="#000000">cstdint</text>
</g>
<!-- Node0&#45;&gt;Node10 -->
<g id="edge93" class="edge">
<title>Node0&#45;&gt;Node10</title>
<path fill="none" stroke="#191970" d="M964.8359,-576.6338C754.8501,-569.4369 232.6163,-549.6942 156,-529 80.8747,-508.7086 0,-527.3175 0,-449.5 0,-449.5 0,-449.5 0,-134.5 0,-73.037 75.0584,-36.23 119.6862,-19.7776"/>
<polygon fill="#191970" stroke="#191970" points="120.9865,-23.0302 129.2441,-16.3921 118.6493,-16.4319 120.9865,-23.0302"/>
</g>
<!-- Node14 -->
<g id="node15" class="node">
<title>Node14</title>
<g id="a_node15"><a xlink:href="assignment_8hpp.html" target="_top" xlink:title="../../graph/assignment.hpp">
<polygon fill="#ffffff" stroke="#000000" points="1422.1875,-375.5 1422.1875,-393.5 1553.8125,-393.5 1553.8125,-375.5 1422.1875,-375.5"/>
<text text-anchor="middle" x="1488" y="-381.5" font-family="Helvetica,sans-Serif" font-size="10.00" fill="#000000">../../graph/assignment.hpp</text>
</a>
</g>
</g>
<!-- Node0&#45;&gt;Node14 -->
<g id="edge90" class="edge">
<title>Node0&#45;&gt;Node14</title>
<path fill="none" stroke="#191970" d="M1057.6686,-565.2638C1065.478,-547.4416 1081.215,-517.1729 1104,-500 1195.7945,-430.8149 1328.9195,-402.828 1411.8751,-391.6761"/>
<polygon fill="#191970" stroke="#191970" points="1412.519,-395.1221 1421.9867,-390.3668 1411.62,-388.18 1412.519,-395.1221"/>
</g>
<!-- Node47 -->
<g id="node48" class="node">
<title>Node47</title>
<g id="a_node48"><a xlink:href="electron__assignment_2local__optimisation_8hpp.html" target="_top" xlink:title="indigox/algorithm/electron\l_assignment/local_optimisation.hpp">
<polygon fill="#ffffff" stroke="#000000" points="1112.7861,-500.5 1112.7861,-528.5 1287.2139,-528.5 1287.2139,-500.5 1112.7861,-500.5"/>
<text text-anchor="start" x="1120.7861" y="-516.5" font-family="Helvetica,sans-Serif" font-size="10.00" fill="#000000">indigox/algorithm/electron</text>
<text text-anchor="middle" x="1200" y="-506.5" font-family="Helvetica,sans-Serif" font-size="10.00" fill="#000000">_assignment/local_optimisation.hpp</text>
</a>
</g>
</g>
<!-- Node0&#45;&gt;Node47 -->
<g id="edge82" class="edge">
<title>Node0&#45;&gt;Node47</title>
<path fill="none" stroke="#191970" d="M1084.1138,-565.396C1105.9323,-555.8135 1134.9944,-543.0498 1158.5564,-532.7016"/>
<polygon fill="#191970" stroke="#191970" points="1160.2004,-535.8023 1167.9489,-528.5765 1157.3856,-529.3932 1160.2004,-535.8023"/>
</g>
<!-- Node48 -->
<g id="node49" class="node">
<title>Node48</title>
<polygon fill="#ffffff" stroke="#bfbfbf" points="1305.7119,-505.5 1305.7119,-523.5 1352.2881,-523.5 1352.2881,-505.5 1305.7119,-505.5"/>
<text text-anchor="middle" x="1329" y="-511.5" font-family="Helvetica,sans-Serif" font-size="10.00" fill="#000000">chrono</text>
</g>
<!-- Node0&#45;&gt;Node48 -->
<g id="edge92" class="edge">
<title>Node0&#45;&gt;Node48</title>
<path fill="none" stroke="#191970" d="M1138.9593,-566.0795C1186.0563,-557.6728 1244.9002,-545.3147 1296,-529 1297.4531,-528.5361 1298.9286,-528.029 1300.4092,-527.4913"/>
<polygon fill="#191970" stroke="#191970" points="1302.0824,-530.5918 1310.0678,-523.6288 1299.4831,-524.0922 1302.0824,-530.5918"/>
</g>
<!-- Node2 -->
<g id="node3" class="node">
<title>Node2</title>
<g id="a_node3"><a xlink:href="periodictable_8hpp.html" target="_top" xlink:title="../../classes/periodictable.hpp">
<polygon fill="#ffffff" stroke="#000000" points="173.52,-255.5 173.52,-273.5 318.48,-273.5 318.48,-255.5 173.52,-255.5"/>
<text text-anchor="middle" x="246" y="-261.5" font-family="Helvetica,sans-Serif" font-size="10.00" fill="#000000">../../classes/periodictable.hpp</text>
</a>
</g>
</g>
<!-- Node1&#45;&gt;Node2 -->
<g id="edge2" class="edge">
<title>Node1&#45;&gt;Node2</title>
<path fill="none" stroke="#191970" d="M886.8969,-447.427C736.6164,-442.2455 378.6937,-427.0864 332,-399 288.0022,-372.5352 262.6475,-313.9418 251.9936,-283.5766"/>
<polygon fill="#191970" stroke="#191970" points="255.2099,-282.1577 248.7263,-273.7784 248.5694,-284.372 255.2099,-282.1577"/>
</g>
<!-- Node1&#45;&gt;Node3 -->
<g id="edge72" class="edge">
<title>Node1&#45;&gt;Node3</title>
<path fill="none" stroke="#191970" d="M886.7988,-441.5779C738.9904,-422.9943 395,-374.3862 395,-324.5 395,-324.5 395,-324.5 395,-264.5 395,-225.1604 395,-179.1244 395,-153.7485"/>
<polygon fill="#191970" stroke="#191970" points="398.5001,-153.6414 395,-143.6414 391.5001,-153.6414 398.5001,-153.6414"/>
</g>
<!-- Node7 -->
<g id="node8" class="node">
<title>Node7</title>
<polygon fill="#ffffff" stroke="#bfbfbf" points="179.7734,-60.5 179.7734,-78.5 220.2266,-78.5 220.2266,-60.5 179.7734,-60.5"/>
<text text-anchor="middle" x="200" y="-66.5" font-family="Helvetica,sans-Serif" font-size="10.00" fill="#000000">string</text>
</g>
<!-- Node1&#45;&gt;Node7 -->
<g id="edge80" class="edge">
<title>Node1&#45;&gt;Node7</title>
<path fill="none" stroke="#191970" d="M886.5642,-446.4228C775.2289,-440.5893 556.0829,-426.0198 484,-399 366.5463,-354.9733 373.9938,-286.285 300,-185 272.8073,-147.7779 236.4468,-107.8619 215.8995,-86.0653"/>
<polygon fill="#191970" stroke="#191970" points="218.2747,-83.4838 208.8509,-78.6421 213.1986,-88.3038 218.2747,-83.4838"/>
</g>
<!-- Node9 -->
<g id="node10" class="node">
<title>Node9</title>
<g id="a_node10"><a xlink:href="fwd__declares_8hpp.html" target="_top" xlink:title="../utils/fwd_declares.hpp">
<polygon fill="#ffffff" stroke="#000000" points="2393.3599,-60.5 2393.3599,-78.5 2516.6401,-78.5 2516.6401,-60.5 2393.3599,-60.5"/>
<text text-anchor="middle" x="2455" y="-66.5" font-family="Helvetica,sans-Serif" font-size="10.00" fill="#000000">../utils/fwd_declares.hpp</text>
</a>
</g>
</g>
<!-- Node1&#45;&gt;Node9 -->
<g id="edge73" class="edge">
<title>Node1&#45;&gt;Node9</title>
<path fill="none" stroke="#191970" d="M1019.3304,-438.5002C1131.2782,-418.1639 1362.8264,-368.3917 1540,-279 1558.9677,-269.43 1558.7574,-259.0044 1578,-250 1814.1313,-139.5046 1893.8915,-168.7405 2150,-120 2253.3683,-100.3278 2280.4214,-102.5329 2384,-84 2390.0953,-82.9094 2396.4713,-81.7022 2402.7948,-80.4635"/>
<polygon fill="#191970" stroke="#191970" points="2403.5163,-83.8886 2412.6404,-78.5033 2402.1495,-77.0233 2403.5163,-83.8886"/>
</g>
<!-- Node1&#45;&gt;Node10 -->
<g id="edge77" class="edge">
<title>Node1&#45;&gt;Node10</title>
<path fill="none" stroke="#191970" d="M886.8807,-447.7846C743.0029,-443.5063 405.6431,-430.3664 296,-399 171.6745,-363.4333 38,-393.8129 38,-264.5 38,-264.5 38,-264.5 38,-134.5 38,-83.088 91.2984,-43.5419 125.0084,-23.6714"/>
<polygon fill="#191970" stroke="#191970" points="126.9732,-26.5805 133.9364,-18.5951 123.5133,-20.4953 126.9732,-26.5805"/>
</g>
<!-- Node1&#45;&gt;Node14 -->
<g id="edge16" class="edge">
<title>Node1&#45;&gt;Node14</title>
<path fill="none" stroke="#191970" d="M1019.1514,-441.3505C1036.0551,-439.2738 1054.1996,-437.0495 1071,-435 1190.0012,-420.4828 1328.1253,-403.7856 1411.7396,-393.6947"/>
<polygon fill="#191970" stroke="#191970" points="1412.4035,-397.1401 1421.9122,-392.4672 1411.5649,-390.1905 1412.4035,-397.1401"/>
</g>
<!-- Node18 -->
<g id="node19" class="node">
<title>Node18</title>
<polygon fill="#ffffff" stroke="#bfbfbf" points="2629.3843,-60.5 2629.3843,-78.5 2672.6157,-78.5 2672.6157,-60.5 2629.3843,-60.5"/>
<text text-anchor="middle" x="2651" y="-66.5" font-family="Helvetica,sans-Serif" font-size="10.00" fill="#000000">vector</text>
</g>
<!-- Node1&#45;&gt;Node18 -->
<g id="edge81" class="edge">
<title>Node1&#45;&gt;Node18</title>
<path fill="none" stroke="#191970" d="M1019.1902,-449.0071C1323.2158,-445.8875 2571,-423.4048 2571,-264.5 2571,-264.5 2571,-264.5 2571,-199.5 2571,-152.596 2609.24,-108.4085 2632.8436,-85.6014"/>
<polygon fill="#191970" stroke="#191970" points="2635.2965,-88.0996 2640.2108,-78.7135 2630.5158,-82.9863 2635.2965,-88.0996"/>
</g>
<!-- Node42 -->
<g id="node43" class="node">
<title>Node42</title>
<polygon fill="#ffffff" stroke="#bfbfbf" points="1267.5347,-190.5 1267.5347,-208.5 1372.4653,-208.5 1372.4653,-190.5 1267.5347,-190.5"/>
<text text-anchor="middle" x="1320" y="-196.5" font-family="Helvetica,sans-Serif" font-size="10.00" fill="#000000">EASTL/vector_set.h</text>
</g>
<!-- Node1&#45;&gt;Node42 -->
<g id="edge75" class="edge">
<title>Node1&#45;&gt;Node42</title>
<path fill="none" stroke="#191970" d="M973.783,-435.3426C1037.9393,-391.6395 1232.4875,-259.1134 1298.1135,-214.409"/>
<polygon fill="#191970" stroke="#191970" points="1300.1968,-217.2248 1306.491,-208.7023 1296.2559,-211.4396 1300.1968,-217.2248"/>
</g>
<!-- Node43 -->
<g id="node44" class="node">
<title>Node43</title>
<polygon fill="#ffffff" stroke="#bfbfbf" points="2637.2734,-315.5 2637.2734,-333.5 2672.7266,-333.5 2672.7266,-315.5 2637.2734,-315.5"/>
<text text-anchor="middle" x="2655" y="-321.5" font-family="Helvetica,sans-Serif" font-size="10.00" fill="#000000">map</text>
</g>
<!-- Node1&#45;&gt;Node43 -->
<g id="edge78" class="edge">
<title>Node1&#45;&gt;Node43</title>
<path fill="none" stroke="#191970" d="M1019.4858,-448.4066C1310.6348,-443.4868 2461.951,-422.6116 2535,-399 2556.9339,-391.9103 2558.5131,-382.3133 2578,-370 2595.1753,-359.1473 2614.9086,-347.5024 2630.0983,-338.7101"/>
<polygon fill="#191970" stroke="#191970" points="2631.9872,-341.6612 2638.9054,-333.6369 2628.4932,-335.5956 2631.9872,-341.6612"/>
</g>
<!-- Node44 -->
<g id="node45" class="node">
<title>Node44</title>
<polygon fill="#ffffff" stroke="#bfbfbf" points="823.0298,-370.5 823.0298,-398.5 932.9702,-398.5 932.9702,-370.5 823.0298,-370.5"/>
<text text-anchor="start" x="831.0298" y="-386.5" font-family="Helvetica,sans-Serif" font-size="10.00" fill="#000000">boost/dynamic_bitset</text>
<text text-anchor="middle" x="878" y="-376.5" font-family="Helvetica,sans-Serif" font-size="10.00" fill="#000000">/dynamic_bitset.hpp</text>
</g>
<!-- Node1&#45;&gt;Node44 -->
<g id="edge74" class="edge">
<title>Node1&#45;&gt;Node44</title>
<path fill="none" stroke="#191970" d="M936.7261,-435.396C926.6031,-426.6227 913.4032,-415.1827 902.0824,-405.3714"/>
<polygon fill="#191970" stroke="#191970" points="904.0913,-402.4809 894.2421,-398.5765 899.5068,-407.7708 904.0913,-402.4809"/>
</g>
<!-- Node45 -->
<g id="node46" class="node">
<title>Node45</title>
<polygon fill="#ffffff" stroke="#bfbfbf" points="2587.0493,-375.5 2587.0493,-393.5 2626.9507,-393.5 2626.9507,-375.5 2587.0493,-375.5"/>
<text text-anchor="middle" x="2607" y="-381.5" font-family="Helvetica,sans-Serif" font-size="10.00" fill="#000000">bitset</text>
</g>
<!-- Node1&#45;&gt;Node45 -->
<g id="edge76" class="edge">
<title>Node1&#45;&gt;Node45</title>
<path fill="none" stroke="#191970" d="M1019.1811,-448.8837C1304.2429,-446.0327 2419.8107,-432.7962 2573,-399 2575.1893,-398.517 2577.4144,-397.8958 2579.6246,-397.183"/>
<polygon fill="#191970" stroke="#191970" points="2580.9449,-400.4257 2589.0626,-393.6174 2578.471,-393.8774 2580.9449,-400.4257"/>
</g>
<!-- Node46 -->
<g id="node47" class="node">
<title>Node46</title>
<polygon fill="#ffffff" stroke="#bfbfbf" points="951.3301,-375.5 951.3301,-393.5 980.6699,-393.5 980.6699,-375.5 951.3301,-375.5"/>
<text text-anchor="middle" x="966" y="-381.5" font-family="Helvetica,sans-Serif" font-size="10.00" fill="#000000">set</text>
</g>
<!-- Node1&#45;&gt;Node46 -->
<g id="edge79" class="edge">
<title>Node1&#45;&gt;Node46</title>
<path fill="none" stroke="#191970" d="M955.8208,-435.396C957.6854,-426.0732 960.1522,-413.739 962.1904,-403.5479"/>
<polygon fill="#191970" stroke="#191970" points="965.6559,-404.0665 964.1851,-393.5743 958.7919,-402.6937 965.6559,-404.0665"/>
</g>
<!-- Node2&#45;&gt;Node3 -->
<g id="edge3" class="edge">
<title>Node2&#45;&gt;Node3</title>
<path fill="none" stroke="#191970" d="M256.7157,-255.1507C281.9522,-233.1323 345.3595,-177.8105 376.7757,-150.4004"/>
<polygon fill="#191970" stroke="#191970" points="379.1472,-152.9762 384.3814,-143.7646 374.5452,-147.7016 379.1472,-152.9762"/>
</g>
<!-- Node2&#45;&gt;Node9 -->
<g id="edge9" class="edge">
<title>Node2&#45;&gt;Node9</title>
<path fill="none" stroke="#191970" d="M318.6956,-257.9972C576.4214,-234.8905 1432.5721,-157.6634 1460,-149 1484.8641,-141.1464 1485.9342,-127.184 1511,-120 1697.6502,-66.5051 2191.2626,-107.5011 2384,-84 2391.2979,-83.1101 2398.9636,-81.871 2406.449,-80.4884"/>
<polygon fill="#191970" stroke="#191970" points="2407.346,-83.8795 2416.493,-78.5334 2406.0085,-77.0085 2407.346,-83.8795"/>
</g>
<!-- Node2&#45;&gt;Node10 -->
<g id="edge14" class="edge">
<title>Node2&#45;&gt;Node10</title>
<path fill="none" stroke="#191970" d="M224.702,-255.4316C207.662,-247.0949 184.4639,-233.1253 171,-214 129.4541,-154.9845 127.2682,-126.3703 138,-55 139.3501,-46.0213 142.1197,-36.3695 144.8418,-28.2759"/>
<polygon fill="#191970" stroke="#191970" points="148.1871,-29.3158 148.2695,-18.7213 141.5983,-26.952 148.1871,-29.3158"/>
</g>
<!-- Node11 -->
<g id="node12" class="node">
<title>Node11</title>
<polygon fill="#ffffff" stroke="#bfbfbf" points="1138.478,-190.5 1138.478,-208.5 1249.522,-208.5 1249.522,-190.5 1138.478,-190.5"/>
<text text-anchor="middle" x="1194" y="-196.5" font-family="Helvetica,sans-Serif" font-size="10.00" fill="#000000">EASTL/vector_map.h</text>
</g>
<!-- Node2&#45;&gt;Node11 -->
<g id="edge12" class="edge">
<title>Node2&#45;&gt;Node11</title>
<path fill="none" stroke="#191970" d="M318.7065,-260.0011C454.5474,-251.5275 756.1077,-232.3942 1010,-214 1049.2693,-211.155 1093.2302,-207.7007 1128.3328,-204.8773"/>
<polygon fill="#191970" stroke="#191970" points="1128.7698,-208.3536 1138.4561,-204.0609 1128.207,-201.3762 1128.7698,-208.3536"/>
</g>
<!-- Node12 -->
<g id="node13" class="node">
<title>Node12</title>
<polygon fill="#ffffff" stroke="#bfbfbf" points="179.6084,-190.5 179.6084,-208.5 218.3916,-208.5 218.3916,-190.5 179.6084,-190.5"/>
<text text-anchor="middle" x="199" y="-196.5" font-family="Helvetica,sans-Serif" font-size="10.00" fill="#000000">array</text>
</g>
<!-- Node2&#45;&gt;Node12 -->
<g id="edge13" class="edge">
<title>Node2&#45;&gt;Node12</title>
<path fill="none" stroke="#191970" d="M239.4649,-255.462C232.3204,-245.5813 220.6964,-229.5056 211.7358,-217.1134"/>
<polygon fill="#191970" stroke="#191970" points="214.4797,-214.9348 205.784,-208.8821 208.8073,-219.0365 214.4797,-214.9348"/>
</g>
<!-- Node13 -->
<g id="node14" class="node">
<title>Node13</title>
<polygon fill="#ffffff" stroke="#bfbfbf" points="236.8276,-190.5 236.8276,-208.5 291.1724,-208.5 291.1724,-190.5 236.8276,-190.5"/>
<text text-anchor="middle" x="264" y="-196.5" font-family="Helvetica,sans-Serif" font-size="10.00" fill="#000000">iostream</text>
</g>
<!-- Node2&#45;&gt;Node13 -->
<g id="edge15" class="edge">
<title>Node2&#45;&gt;Node13</title>
<path fill="none" stroke="#191970" d="M248.5028,-255.462C251.1328,-245.9651 255.3476,-230.7449 258.7182,-218.5732"/>
<polygon fill="#191970" stroke="#191970" points="262.1061,-219.4535 261.4019,-208.8821 255.3599,-217.5853 262.1061,-219.4535"/>
</g>
<!-- Node4 -->
<g id="node5" class="node">
<title>Node4</title>
<polygon fill="#ffffff" stroke="#bfbfbf" points="303.436,-60.5 303.436,-78.5 360.564,-78.5 360.564,-60.5 303.436,-60.5"/>
<text text-anchor="middle" x="332" y="-66.5" font-family="Helvetica,sans-Serif" font-size="10.00" fill="#000000">algorithm</text>
</g>
<!-- Node3&#45;&gt;Node4 -->
<g id="edge4" class="edge">
<title>Node3&#45;&gt;Node4</title>
<path fill="none" stroke="#191970" d="M386.2401,-125.462C376.4775,-115.3895 360.475,-98.879 348.3759,-86.3957"/>
<polygon fill="#191970" stroke="#191970" points="350.5665,-83.6269 341.0935,-78.8821 345.54,-88.4988 350.5665,-83.6269"/>
</g>
<!-- Node5 -->
<g id="node6" class="node">
<title>Node5</title>
<polygon fill="#ffffff" stroke="#bfbfbf" points="238.4385,-60.5 238.4385,-78.5 285.5615,-78.5 285.5615,-60.5 238.4385,-60.5"/>
<text text-anchor="middle" x="262" y="-66.5" font-family="Helvetica,sans-Serif" font-size="10.00" fill="#000000">iterator</text>
</g>
<!-- Node3&#45;&gt;Node5 -->
<g id="edge5" class="edge">
<title>Node3&#45;&gt;Node5</title>
<path fill="none" stroke="#191970" d="M376.5069,-125.462C354.0033,-114.464 315.7945,-95.7906 289.7558,-83.0648"/>
<polygon fill="#191970" stroke="#191970" points="291.2861,-79.9171 280.7648,-78.6708 288.2124,-86.2063 291.2861,-79.9171"/>
</g>
<!-- Node6 -->
<g id="node7" class="node">
<title>Node6</title>
<polygon fill="#ffffff" stroke="#bfbfbf" points="2551.9434,-.5 2551.9434,-18.5 2604.0566,-18.5 2604.0566,-.5 2551.9434,-.5"/>
<text text-anchor="middle" x="2578" y="-6.5" font-family="Helvetica,sans-Serif" font-size="10.00" fill="#000000">memory</text>
</g>
<!-- Node3&#45;&gt;Node6 -->
<g id="edge6" class="edge">
<title>Node3&#45;&gt;Node6</title>
<path fill="none" stroke="#191970" d="M397.73,-125.2371C403.425,-107.8019 418.3928,-70.4741 446,-55 493.6049,-28.317 2263.0661,-12.1804 2541.3352,-9.8054"/>
<polygon fill="#191970" stroke="#191970" points="2541.7119,-13.3024 2551.6818,-9.7176 2541.6525,-6.3027 2541.7119,-13.3024"/>
</g>
<!-- Node3&#45;&gt;Node7 -->
<g id="edge7" class="edge">
<title>Node3&#45;&gt;Node7</title>
<path fill="none" stroke="#191970" d="M359.1078,-125.4583C325.0772,-116.4484 272.7893,-101.4638 229,-84 228.1308,-83.6533 227.2521,-83.2905 226.3689,-82.9152"/>
<polygon fill="#191970" stroke="#191970" points="227.5029,-79.5839 216.9563,-78.5745 224.5715,-85.9406 227.5029,-79.5839"/>
</g>
<!-- Node8 -->
<g id="node9" class="node">
<title>Node8</title>
<polygon fill="#ffffff" stroke="#bfbfbf" points="623.9336,-60.5 623.9336,-78.5 686.0664,-78.5 686.0664,-60.5 623.9336,-60.5"/>
<text text-anchor="middle" x="655" y="-66.5" font-family="Helvetica,sans-Serif" font-size="10.00" fill="#000000">type_traits</text>
</g>
<!-- Node3&#45;&gt;Node8 -->
<g id="edge8" class="edge">
<title>Node3&#45;&gt;Node8</title>
<path fill="none" stroke="#191970" d="M431.1519,-125.462C479.0599,-113.485 563.3786,-92.4054 613.7299,-79.8175"/>
<polygon fill="#191970" stroke="#191970" points="614.7773,-83.1635 623.6298,-77.3425 613.0795,-76.3725 614.7773,-83.1635"/>
</g>
<!-- Node9&#45;&gt;Node6 -->
<g id="edge11" class="edge">
<title>Node9&#45;&gt;Node6</title>
<path fill="none" stroke="#191970" d="M2473.6811,-60.3873C2494.1181,-50.418 2527.0792,-34.3394 2550.4773,-22.9257"/>
<polygon fill="#191970" stroke="#191970" points="2552.093,-26.0319 2559.5462,-18.5019 2549.024,-19.7405 2552.093,-26.0319"/>
</g>
<!-- Node9&#45;&gt;Node10 -->
<g id="edge10" class="edge">
<title>Node9&#45;&gt;Node10</title>
<path fill="none" stroke="#191970" d="M2417.2489,-60.4697C2406.5625,-58.2743 2394.8781,-56.2116 2384,-55 2156.2721,-29.6366 444.6984,-12.3065 184.9854,-9.8109"/>
<polygon fill="#191970" stroke="#191970" points="184.7345,-6.3085 174.7015,-9.7126 184.6675,-13.3082 184.7345,-6.3085"/>
</g>
<!-- Node14&#45;&gt;Node3 -->
<g id="edge17" class="edge">
<title>Node14&#45;&gt;Node3</title>
<path fill="none" stroke="#191970" d="M1446.7718,-375.4605C1410.7162,-366.8878 1357.3346,-352.5656 1313,-334 1188.3682,-281.809 1177.6138,-223.1739 1048,-185 794.716,-110.4027 716.12,-188.1646 455,-149 449.4361,-148.1655 443.6308,-147.0634 437.9171,-145.8386"/>
<polygon fill="#191970" stroke="#191970" points="438.3314,-142.3433 427.8035,-143.5328 436.7753,-149.1682 438.3314,-142.3433"/>
</g>
<!-- Node14&#45;&gt;Node6 -->
<g id="edge70" class="edge">
<title>Node14&#45;&gt;Node6</title>
<path fill="none" stroke="#191970" d="M1554.083,-382.8904C1757.9577,-377.6679 2368.5505,-360.0142 2454,-334 2602.53,-288.7816 2652.4831,-232.4388 2698,-84 2701.7786,-71.6774 2705.3221,-65.6071 2698,-55 2688.1205,-40.6881 2645.6689,-26.9119 2614.043,-18.3398"/>
<polygon fill="#191970" stroke="#191970" points="2614.7722,-14.9125 2604.2102,-15.7454 2612.9864,-21.6809 2614.7722,-14.9125"/>
</g>
<!-- Node14&#45;&gt;Node9 -->
<g id="edge18" class="edge">
<title>Node14&#45;&gt;Node9</title>
<path fill="none" stroke="#191970" d="M1519.2608,-375.4102C1620.9042,-345.6439 1950.884,-247.3487 2218,-149 2249.6014,-137.3648 2256.2886,-131.332 2288,-120 2329.4879,-105.1744 2377.7425,-90.8932 2411.6813,-81.324"/>
<polygon fill="#191970" stroke="#191970" points="2413.0451,-84.5768 2421.731,-78.5101 2411.1576,-77.836 2413.0451,-84.5768"/>
</g>
<!-- Node14&#45;&gt;Node10 -->
<g id="edge67" class="edge">
<title>Node14&#45;&gt;Node10</title>
<path fill="none" stroke="#191970" d="M1422.0019,-381.3306C1161.1716,-368.5379 214.0041,-319.4538 165,-279 87.3457,-214.8949 107.8884,-153.0077 131,-55 133.243,-45.4883 137.5607,-35.5636 141.7007,-27.4197"/>
<polygon fill="#191970" stroke="#191970" points="144.8368,-28.9782 146.5109,-18.5164 138.6781,-25.6508 144.8368,-28.9782"/>
</g>
<!-- Node14&#45;&gt;Node11 -->
<g id="edge66" class="edge">
<title>Node14&#45;&gt;Node11</title>
<path fill="none" stroke="#191970" d="M1458.0116,-375.4051C1412.1022,-360.4827 1323.0938,-327.529 1260,-279 1237.3251,-261.5595 1217.2894,-234.9984 1205.4035,-217.4472"/>
<polygon fill="#191970" stroke="#191970" points="1208.0941,-215.1688 1199.6737,-208.7386 1202.2463,-219.0163 1208.0941,-215.1688"/>
</g>
<!-- Node15 -->
<g id="node16" class="node">
<title>Node15</title>
<g id="a_node16"><a xlink:href="base__graph_8hpp.html" target="_top" xlink:title="base_graph.hpp">
<polygon fill="#ffffff" stroke="#000000" points="1548.8574,-315.5 1548.8574,-333.5 1637.1426,-333.5 1637.1426,-315.5 1548.8574,-315.5"/>
<text text-anchor="middle" x="1593" y="-321.5" font-family="Helvetica,sans-Serif" font-size="10.00" fill="#000000">base_graph.hpp</text>
</a>
</g>
</g>
<!-- Node14&#45;&gt;Node15 -->
<g id="edge19" class="edge">
<title>Node14&#45;&gt;Node15</title>
<path fill="none" stroke="#191970" d="M1503.9472,-375.3873C1521.0834,-365.5952 1548.5339,-349.9092 1568.4321,-338.5388"/>
<polygon fill="#191970" stroke="#191970" points="1570.3008,-341.5022 1577.2467,-333.5019 1566.8278,-335.4245 1570.3008,-341.5022"/>
</g>
<!-- Node14&#45;&gt;Node18 -->
<g id="edge71" class="edge">
<title>Node14&#45;&gt;Node18</title>
<path fill="none" stroke="#191970" d="M1553.8482,-383.8138C1732.5919,-381.4683 2223.9638,-371.681 2381,-334 2453.2321,-316.6678 2533,-338.7824 2533,-264.5 2533,-264.5 2533,-264.5 2533,-199.5 2533,-162.5917 2533.6349,-148.5709 2557,-120 2561.7002,-114.2526 2597.376,-95.8998 2623.3891,-82.9829"/>
<polygon fill="#191970" stroke="#191970" points="2625.0437,-86.0694 2632.4604,-78.5035 2621.9443,-79.7929 2625.0437,-86.0694"/>
</g>
<!-- Node21 -->
<g id="node22" class="node">
<title>Node21</title>
<polygon fill="#ffffff" stroke="#bfbfbf" points="2572.6133,-60.5 2572.6133,-78.5 2611.3867,-78.5 2611.3867,-60.5 2572.6133,-60.5"/>
<text text-anchor="middle" x="2592" y="-66.5" font-family="Helvetica,sans-Serif" font-size="10.00" fill="#000000">limits</text>
</g>
<!-- Node14&#45;&gt;Node21 -->
<g id="edge68" class="edge">
<title>Node14&#45;&gt;Node21</title>
<path fill="none" stroke="#191970" d="M1554.0721,-383.5899C1778.1025,-379.6404 2495,-359.5742 2495,-264.5 2495,-264.5 2495,-264.5 2495,-199.5 2495,-162.5917 2497.2736,-149.836 2519,-120 2530.4188,-104.3189 2548.2575,-91.8493 2563.442,-83.2242"/>
<polygon fill="#191970" stroke="#191970" points="2565.3306,-86.1823 2572.4724,-78.3563 2562.0091,-80.0205 2565.3306,-86.1823"/>
</g>
<!-- Node14&#45;&gt;Node43 -->
<g id="edge69" class="edge">
<title>Node14&#45;&gt;Node43</title>
<path fill="none" stroke="#191970" d="M1553.9215,-383.6776C1763.8668,-380.7264 2415.2337,-368.9218 2623,-334 2624.4645,-333.7538 2625.9564,-333.4618 2627.4556,-333.1355"/>
<polygon fill="#191970" stroke="#191970" points="2628.4339,-336.4977 2637.2412,-330.6086 2626.6837,-329.7201 2628.4339,-336.4977"/>
</g>
<!-- Node15&#45;&gt;Node6 -->
<g id="edge25" class="edge">
<title>Node15&#45;&gt;Node6</title>
<path fill="none" stroke="#191970" d="M1637.2888,-321.5391C1715.2412,-315.9393 1881.8841,-302.2297 2021,-279 2323.1119,-228.5531 2504.1894,-333.3991 2682,-84 2689.4823,-73.5053 2689.0547,-65.7868 2682,-55 2667.0594,-32.1557 2637.8432,-20.7118 2614.1717,-15.0193"/>
<polygon fill="#191970" stroke="#191970" points="2614.6038,-11.5322 2604.0914,-12.8516 2613.1321,-18.3758 2614.6038,-11.5322"/>
</g>
<!-- Node15&#45;&gt;Node9 -->
<g id="edge20" class="edge">
<title>Node15&#45;&gt;Node9</title>
<path fill="none" stroke="#191970" d="M1620.5954,-315.4068C1711.0732,-285.715 2007.1467,-189.5227 2255,-120 2306.4955,-105.5555 2365.9738,-90.7777 2406.5957,-80.9713"/>
<polygon fill="#191970" stroke="#191970" points="2407.5968,-84.3304 2416.5007,-78.5884 2405.9595,-77.5245 2407.5968,-84.3304"/>
</g>
<!-- Node15&#45;&gt;Node10 -->
<g id="edge24" class="edge">
<title>Node15&#45;&gt;Node10</title>
<path fill="none" stroke="#191970" d="M1548.8231,-318.5186C1485.0419,-309.8704 1363.4571,-293.3379 1260,-279 848.779,-222.0097 736.3591,-255.1203 335,-149 259.1997,-128.9582 222.7921,-142.8637 171,-84 157.6748,-68.8554 153.4609,-45.6289 152.2445,-29.1402"/>
<polygon fill="#191970" stroke="#191970" points="155.7342,-28.8233 151.8063,-18.9835 148.7407,-29.1252 155.7342,-28.8233"/>
</g>
<!-- Node16 -->
<g id="node17" class="node">
<title>Node16</title>
<g id="a_node17"><a xlink:href="simple__bimap_8hpp.html" target="_top" xlink:title="../utils/simple_bimap.hpp">
<polygon fill="#ffffff" stroke="#000000" points="1268.9731,-255.5 1268.9731,-273.5 1395.0269,-273.5 1395.0269,-255.5 1268.9731,-255.5"/>
<text text-anchor="middle" x="1332" y="-261.5" font-family="Helvetica,sans-Serif" font-size="10.00" fill="#000000">../utils/simple_bimap.hpp</text>
</a>
</g>
</g>
<!-- Node15&#45;&gt;Node16 -->
<g id="edge21" class="edge">
<title>Node15&#45;&gt;Node16</title>
<path fill="none" stroke="#191970" d="M1553.6431,-315.4524C1507.5458,-304.8554 1431.1436,-287.2916 1381.181,-275.806"/>
<polygon fill="#191970" stroke="#191970" points="1381.7797,-272.3524 1371.2498,-273.5229 1380.2114,-279.1745 1381.7797,-272.3524"/>
</g>
<!-- Node17 -->
<g id="node18" class="node">
<title>Node17</title>
<polygon fill="#ffffff" stroke="#bfbfbf" points="1586.6875,-250.5 1586.6875,-278.5 1703.3125,-278.5 1703.3125,-250.5 1586.6875,-250.5"/>
<text text-anchor="start" x="1594.6875" y="-266.5" font-family="Helvetica,sans-Serif" font-size="10.00" fill="#000000">boost/graph/adjacency</text>
<text text-anchor="middle" x="1645" y="-256.5" font-family="Helvetica,sans-Serif" font-size="10.00" fill="#000000">_list.hpp</text>
</g>
<!-- Node15&#45;&gt;Node17 -->
<g id="edge23" class="edge">
<title>Node15&#45;&gt;Node17</title>
<path fill="none" stroke="#191970" d="M1600.8977,-315.3873C1607.5336,-307.7304 1617.2928,-296.4698 1625.9448,-286.4868"/>
<polygon fill="#191970" stroke="#191970" points="1628.6609,-288.6968 1632.5654,-278.8477 1623.3711,-284.1123 1628.6609,-288.6968"/>
</g>
<!-- Node15&#45;&gt;Node18 -->
<g id="edge26" class="edge">
<title>Node15&#45;&gt;Node18</title>
<path fill="none" stroke="#191970" d="M1637.372,-319.6985C1744.1126,-307.5743 2023.1919,-272.4584 2250,-214 2260.5489,-211.2811 2609.9148,-88.1184 2620,-84 2621.0176,-83.5844 2622.05,-83.1532 2623.0898,-82.7108"/>
<polygon fill="#191970" stroke="#191970" points="2624.7336,-85.8102 2632.4453,-78.5453 2621.8863,-79.4154 2624.7336,-85.8102"/>
</g>
<!-- Node19 -->
<g id="node20" class="node">
<title>Node19</title>
<g id="a_node20"><a xlink:href="base__graph__impl_8hpp.html" target="_top" xlink:title="base_graph_impl.hpp">
<polygon fill="#ffffff" stroke="#000000" points="1418.9092,-255.5 1418.9092,-273.5 1531.0908,-273.5 1531.0908,-255.5 1418.9092,-255.5"/>
<text text-anchor="middle" x="1475" y="-261.5" font-family="Helvetica,sans-Serif" font-size="10.00" fill="#000000">base_graph_impl.hpp</text>
</a>
</g>
</g>
<!-- Node15&#45;&gt;Node19 -->
<g id="edge27" class="edge">
<title>Node15&#45;&gt;Node19</title>
<path fill="none" stroke="#191970" d="M1575.0783,-315.3873C1555.5592,-305.4623 1524.1317,-289.4822 1501.7037,-278.0782"/>
<polygon fill="#191970" stroke="#191970" points="1503.2039,-274.9145 1492.7037,-273.5019 1500.0312,-281.1542 1503.2039,-274.9145"/>
</g>
<!-- Node16&#45;&gt;Node11 -->
<g id="edge22" class="edge">
<title>Node16&#45;&gt;Node11</title>
<path fill="none" stroke="#191970" d="M1312.8117,-255.462C1289.462,-244.464 1249.8169,-225.7906 1222.7992,-213.0648"/>
<polygon fill="#191970" stroke="#191970" points="1224.0083,-209.7656 1213.4702,-208.6708 1221.0255,-216.0983 1224.0083,-209.7656"/>
</g>
<!-- Node19&#45;&gt;Node11 -->
<g id="edge63" class="edge">
<title>Node19&#45;&gt;Node11</title>
<path fill="none" stroke="#191970" d="M1435.9282,-255.462C1385.5299,-243.8041 1297.8489,-223.522 1243.0292,-210.8413"/>
<polygon fill="#191970" stroke="#191970" points="1243.7235,-207.4095 1233.1919,-208.5658 1242.1459,-214.2294 1243.7235,-207.4095"/>
</g>
<!-- Node19&#45;&gt;Node18 -->
<g id="edge65" class="edge">
<title>Node19&#45;&gt;Node18</title>
<path fill="none" stroke="#191970" d="M1531.3499,-256.195C1546.4847,-254.0662 1562.854,-251.8557 1578,-250 1943.3487,-205.2367 2056.0872,-280.1772 2400,-149 2421.5377,-140.785 2421.7416,-128.9129 2443,-120 2517.0337,-88.9604 2543.7748,-109.1825 2620,-84 2621.4104,-83.534 2622.841,-83.0208 2624.2744,-82.474"/>
<polygon fill="#191970" stroke="#191970" points="2625.7504,-85.6498 2633.5897,-78.5227 2623.0169,-79.2055 2625.7504,-85.6498"/>
</g>
<!-- Node20 -->
<g id="node21" class="node">
<title>Node20</title>
<g id="a_node21"><a xlink:href="connectivity_8hpp.html" target="_top" xlink:title="../algorithm/graph\l/connectivity.hpp">
<polygon fill="#ffffff" stroke="#000000" points="2297.0913,-120.5 2297.0913,-148.5 2390.9087,-148.5 2390.9087,-120.5 2297.0913,-120.5"/>
<text text-anchor="start" x="2305.0913" y="-136.5" font-family="Helvetica,sans-Serif" font-size="10.00" fill="#000000">../algorithm/graph</text>
<text text-anchor="middle" x="2344" y="-126.5" font-family="Helvetica,sans-Serif" font-size="10.00" fill="#000000">/connectivity.hpp</text>
</a>
</g>
</g>
<!-- Node19&#45;&gt;Node20 -->
<g id="edge28" class="edge">
<title>Node19&#45;&gt;Node20</title>
<path fill="none" stroke="#191970" d="M1531.3479,-256.0705C1688.3105,-232.5893 2129.3203,-166.6155 2287.0302,-143.0225"/>
<polygon fill="#191970" stroke="#191970" points="2287.6305,-146.4718 2297.0026,-141.5307 2286.5948,-139.5488 2287.6305,-146.4718"/>
</g>
<!-- Node22 -->
<g id="node23" class="node">
<title>Node22</title>
<g id="a_node23"><a xlink:href="cycles_8hpp.html" target="_top" xlink:title="../algorithm/graph\l/cycles.hpp">
<polygon fill="#ffffff" stroke="#000000" points="1428.0913,-185.5 1428.0913,-213.5 1521.9087,-213.5 1521.9087,-185.5 1428.0913,-185.5"/>
<text text-anchor="start" x="1436.0913" y="-201.5" font-family="Helvetica,sans-Serif" font-size="10.00" fill="#000000">../algorithm/graph</text>
<text text-anchor="middle" x="1475" y="-191.5" font-family="Helvetica,sans-Serif" font-size="10.00" fill="#000000">/cycles.hpp</text>
</a>
</g>
</g>
<!-- Node19&#45;&gt;Node22 -->
<g id="edge33" class="edge">
<title>Node19&#45;&gt;Node22</title>
<path fill="none" stroke="#191970" d="M1475,-255.462C1475,-247.404 1475,-235.2257 1475,-224.2852"/>
<polygon fill="#191970" stroke="#191970" points="1478.5001,-223.9558 1475,-213.9559 1471.5001,-223.9559 1478.5001,-223.9558"/>
</g>
<!-- Node26 -->
<g id="node27" class="node">
<title>Node26</title>
<g id="a_node27"><a xlink:href="serialise_8hpp.html" target="_top" xlink:title="../utils/serialise.hpp">
<polygon fill="#ffffff" stroke="#000000" points="1349.4805,-125.5 1349.4805,-143.5 1450.5195,-143.5 1450.5195,-125.5 1349.4805,-125.5"/>
<text text-anchor="middle" x="1400" y="-131.5" font-family="Helvetica,sans-Serif" font-size="10.00" fill="#000000">../utils/serialise.hpp</text>
</a>
</g>
</g>
<!-- Node19&#45;&gt;Node26 -->
<g id="edge43" class="edge">
<title>Node19&#45;&gt;Node26</title>
<path fill="none" stroke="#191970" d="M1460.8137,-255.4417C1447.9405,-246.4719 1429.4263,-231.5608 1419,-214 1408.0514,-195.5595 1403.4081,-171.1859 1401.4411,-154.3106"/>
<polygon fill="#191970" stroke="#191970" points="1404.891,-153.6156 1400.4623,-143.9907 1397.9222,-154.2765 1404.891,-153.6156"/>
</g>
<!-- Node40 -->
<g id="node41" class="node">
<title>Node40</title>
<g id="a_node41"><a xlink:href="triple_8hpp.html" target="_top" xlink:title="../utils/triple.hpp">
<polygon fill="#ffffff" stroke="#000000" points="1539.9829,-190.5 1539.9829,-208.5 1626.0171,-208.5 1626.0171,-190.5 1539.9829,-190.5"/>
<text text-anchor="middle" x="1583" y="-196.5" font-family="Helvetica,sans-Serif" font-size="10.00" fill="#000000">../utils/triple.hpp</text>
</a>
</g>
</g>
<!-- Node19&#45;&gt;Node40 -->
<g id="edge59" class="edge">
<title>Node19&#45;&gt;Node40</title>
<path fill="none" stroke="#191970" d="M1490.0169,-255.462C1507.8899,-244.7052 1537.9625,-226.6059 1559.0564,-213.9105"/>
<polygon fill="#191970" stroke="#191970" points="1560.9993,-216.8262 1567.7624,-208.6708 1557.3897,-210.8286 1560.9993,-216.8262"/>
</g>
<!-- Node19&#45;&gt;Node42 -->
<g id="edge64" class="edge">
<title>Node19&#45;&gt;Node42</title>
<path fill="none" stroke="#191970" d="M1453.4479,-255.462C1426.8768,-244.3193 1381.5179,-225.2978 1351.1565,-212.5656"/>
<polygon fill="#191970" stroke="#191970" points="1352.4442,-209.3104 1341.8687,-208.6708 1349.7371,-215.7658 1352.4442,-209.3104"/>
</g>
<!-- Node20&#45;&gt;Node9 -->
<g id="edge29" class="edge">
<title>Node20&#45;&gt;Node9</title>
<path fill="none" stroke="#191970" d="M2368.0853,-120.396C2386.631,-109.5359 2412.1548,-94.5895 2430.7433,-83.7044"/>
<polygon fill="#191970" stroke="#191970" points="2432.6432,-86.6478 2439.5039,-78.5743 2429.1059,-80.6073 2432.6432,-86.6478"/>
</g>
<!-- Node20&#45;&gt;Node10 -->
<g id="edge30" class="edge">
<title>Node20&#45;&gt;Node10</title>
<path fill="none" stroke="#191970" d="M2391.32,-122.8775C2443.8336,-109.7562 2521.8074,-89.5143 2526,-84 2533.8009,-73.7399 2535.0261,-64.2007 2526,-55 2504.5123,-33.0965 467.8867,-12.5635 184.5697,-9.8121"/>
<polygon fill="#191970" stroke="#191970" points="184.5517,-6.3118 174.5183,-9.7148 184.4839,-13.3115 184.5517,-6.3118"/>
</g>
<!-- Node20&#45;&gt;Node18 -->
<g id="edge32" class="edge">
<title>Node20&#45;&gt;Node18</title>
<path fill="none" stroke="#191970" d="M2391.2191,-122.9435C2395.8663,-121.9061 2400.519,-120.9067 2405,-120 2499.9615,-100.7861 2527.4904,-112.7896 2620,-84 2621.4183,-83.5586 2622.8552,-83.0652 2624.2936,-82.534"/>
<polygon fill="#191970" stroke="#191970" points="2625.7483,-85.7195 2633.6255,-78.6342 2623.0492,-79.2608 2625.7483,-85.7195"/>
</g>
<!-- Node20&#45;&gt;Node21 -->
<g id="edge31" class="edge">
<title>Node20&#45;&gt;Node21</title>
<path fill="none" stroke="#191970" d="M2390.9534,-123.3203C2395.6978,-122.1962 2400.4442,-121.074 2405,-120 2473.4145,-103.8723 2492.3189,-106.2322 2559,-84 2560.447,-83.5175 2561.9177,-82.9955 2563.3943,-82.4458"/>
<polygon fill="#191970" stroke="#191970" points="2565.0828,-85.5383 2573.0398,-78.5428 2562.4571,-79.0494 2565.0828,-85.5383"/>
</g>
<!-- Node22&#45;&gt;Node9 -->
<g id="edge34" class="edge">
<title>Node22&#45;&gt;Node9</title>
<path fill="none" stroke="#191970" d="M1484.0837,-185.4327C1497.1634,-166.5862 1523.254,-133.9048 1555,-120 1639.4523,-83.0098 2292.4922,-95.2593 2384,-84 2391.2969,-83.1022 2398.9621,-81.8587 2406.4472,-80.4741"/>
<polygon fill="#191970" stroke="#191970" points="2407.3447,-83.8652 2416.4911,-78.5178 2406.0064,-76.9943 2407.3447,-83.8652"/>
</g>
<!-- Node23 -->
<g id="node24" class="node">
<title>Node23</title>
<g id="a_node24"><a xlink:href="numerics_8hpp.html" target="_top" xlink:title="../../utils/numerics.hpp">
<polygon fill="#ffffff" stroke="#000000" points="464.3696,-125.5 464.3696,-143.5 577.6304,-143.5 577.6304,-125.5 464.3696,-125.5"/>
<text text-anchor="middle" x="521" y="-131.5" font-family="Helvetica,sans-Serif" font-size="10.00" fill="#000000">../../utils/numerics.hpp</text>
</a>
</g>
</g>
<!-- Node22&#45;&gt;Node23 -->
<g id="edge35" class="edge">
<title>Node22&#45;&gt;Node23</title>
<path fill="none" stroke="#191970" d="M1427.7757,-191.3238C1412.8517,-188.9797 1396.2706,-186.6225 1381,-185 1086.3446,-153.6933 732.6796,-140.5975 587.8193,-136.2761"/>
<polygon fill="#191970" stroke="#191970" points="587.8525,-132.7756 577.7539,-135.98 587.6466,-139.7726 587.8525,-132.7756"/>
</g>
<!-- Node23&#45;&gt;Node4 -->
<g id="edge36" class="edge">
<title>Node23&#45;&gt;Node4</title>
<path fill="none" stroke="#191970" d="M494.7204,-125.462C461.8072,-114.1427 405.2533,-94.6929 368.2446,-81.9651"/>
<polygon fill="#191970" stroke="#191970" points="368.9551,-78.5083 358.3604,-78.5658 366.6785,-85.1277 368.9551,-78.5083"/>
</g>
<!-- Node23&#45;&gt;Node5 -->
<g id="edge39" class="edge">
<title>Node23&#45;&gt;Node5</title>
<path fill="none" stroke="#191970" d="M479.8452,-125.4569C415.6338,-111.3318 298.4399,-85.4821 294,-84 292.5898,-83.5293 291.158,-83.0167 289.7216,-82.4746"/>
<polygon fill="#191970" stroke="#191970" points="290.9315,-79.1875 280.3531,-78.5972 288.2545,-85.6554 290.9315,-79.1875"/>
</g>
<!-- Node23&#45;&gt;Node7 -->
<g id="edge41" class="edge">
<title>Node23&#45;&gt;Node7</title>
<path fill="none" stroke="#191970" d="M481.6402,-125.459C472.8896,-123.559 463.6451,-121.6368 455,-120 355.0645,-101.0794 325.8376,-115.1058 229,-84 227.764,-83.603 226.5154,-83.1598 225.2664,-82.682"/>
<polygon fill="#191970" stroke="#191970" points="226.4504,-79.3787 215.8893,-78.5335 223.6183,-85.7802 226.4504,-79.3787"/>
</g>
<!-- Node23&#45;&gt;Node10 -->
<g id="edge38" class="edge">
<title>Node23&#45;&gt;Node10</title>
<path fill="none" stroke="#191970" d="M507.0379,-125.4302C481.0955,-108.9775 423.2489,-74.1475 370,-55 306.3074,-32.0971 227.7794,-19.2404 184.4922,-13.4003"/>
<polygon fill="#191970" stroke="#191970" points="184.9012,-9.924 174.5316,-12.0971 183.993,-16.8649 184.9012,-9.924"/>
</g>
<!-- Node23&#45;&gt;Node18 -->
<g id="edge42" class="edge">
<title>Node23&#45;&gt;Node18</title>
<path fill="none" stroke="#191970" d="M577.8083,-133.4542C908.1496,-127.3335 2568.8793,-96.0118 2620,-84 2621.7099,-83.5982 2623.4383,-83.0959 2625.1581,-82.5216"/>
<polygon fill="#191970" stroke="#191970" points="2626.7724,-85.6439 2634.7256,-78.644 2624.1431,-79.1564 2626.7724,-85.6439"/>
</g>
<!-- Node24 -->
<g id="node25" class="node">
<title>Node24</title>
<polygon fill="#ffffff" stroke="#bfbfbf" points="455.3843,-60.5 455.3843,-78.5 498.6157,-78.5 498.6157,-60.5 455.3843,-60.5"/>
<text text-anchor="middle" x="477" y="-66.5" font-family="Helvetica,sans-Serif" font-size="10.00" fill="#000000">cmath</text>
</g>
<!-- Node23&#45;&gt;Node24 -->
<g id="edge37" class="edge">
<title>Node23&#45;&gt;Node24</title>
<path fill="none" stroke="#191970" d="M514.882,-125.462C508.2585,-115.6773 497.5224,-99.8172 489.1679,-87.4753"/>
<polygon fill="#191970" stroke="#191970" points="491.8551,-85.2013 483.351,-78.8821 486.0583,-89.1252 491.8551,-85.2013"/>
</g>
<!-- Node25 -->
<g id="node26" class="node">
<title>Node25</title>
<polygon fill="#ffffff" stroke="#bfbfbf" points="516.2168,-60.5 516.2168,-78.5 567.7832,-78.5 567.7832,-60.5 516.2168,-60.5"/>
<text text-anchor="middle" x="542" y="-66.5" font-family="Helvetica,sans-Serif" font-size="10.00" fill="#000000">numeric</text>
</g>
<!-- Node23&#45;&gt;Node25 -->
<g id="edge40" class="edge">
<title>Node23&#45;&gt;Node25</title>
<path fill="none" stroke="#191970" d="M523.92,-125.462C526.9882,-115.9651 531.9055,-100.7449 535.8379,-88.5732"/>
<polygon fill="#191970" stroke="#191970" points="539.225,-89.4739 538.9688,-78.8821 532.564,-87.3218 539.225,-89.4739"/>
</g>
<!-- Node26&#45;&gt;Node8 -->
<g id="edge58" class="edge">
<title>Node26&#45;&gt;Node8</title>
<path fill="none" stroke="#191970" d="M1349.3673,-132.6885C1209.5495,-127.3977 820.1989,-110.6378 695,-84 692.1552,-83.3947 689.2392,-82.6326 686.3412,-81.7762"/>
<polygon fill="#191970" stroke="#191970" points="687.2806,-78.4007 676.6875,-78.5924 685.0881,-85.0484 687.2806,-78.4007"/>
</g>
<!-- Node26&#45;&gt;Node9 -->
<g id="edge44" class="edge">
<title>Node26&#45;&gt;Node9</title>
<path fill="none" stroke="#191970" d="M1435.2158,-125.4305C1444.8144,-123.2917 1455.2543,-121.2674 1465,-120 1870.3446,-67.2874 1978.1967,-133.0567 2384,-84 2391.2988,-83.1177 2398.965,-81.8826 2406.4506,-80.5018"/>
<polygon fill="#191970" stroke="#191970" points="2407.3471,-83.8931 2416.4948,-78.548 2406.0105,-77.0219 2407.3471,-83.8931"/>
</g>
<!-- Node27 -->
<g id="node28" class="node">
<title>Node27</title>
<polygon fill="#ffffff" stroke="#bfbfbf" points="703.6997,-60.5 703.6997,-78.5 800.3003,-78.5 800.3003,-60.5 703.6997,-60.5"/>
<text text-anchor="middle" x="752" y="-66.5" font-family="Helvetica,sans-Serif" font-size="10.00" fill="#000000">cereal/access.hpp</text>
</g>
<!-- Node26&#45;&gt;Node27 -->
<g id="edge45" class="edge">
<title>Node26&#45;&gt;Node27</title>
<path fill="none" stroke="#191970" d="M1349.4462,-132.9703C1246.884,-129.2546 1007.2617,-117.456 809,-84 803.9688,-83.151 798.7301,-82.081 793.5564,-80.9086"/>
<polygon fill="#191970" stroke="#191970" points="794.2998,-77.4877 783.7593,-78.5591 792.6673,-84.2947 794.2998,-77.4877"/>
</g>
<!-- Node28 -->
<g id="node29" class="node">
<title>Node28</title>
<polygon fill="#ffffff" stroke="#bfbfbf" points="818.0815,-60.5 818.0815,-78.5 941.9185,-78.5 941.9185,-60.5 818.0815,-60.5"/>
<text text-anchor="middle" x="880" y="-66.5" font-family="Helvetica,sans-Serif" font-size="10.00" fill="#000000">cereal/archives/json.hpp</text>
</g>
<!-- Node26&#45;&gt;Node28 -->
<g id="edge46" class="edge">
<title>Node26&#45;&gt;Node28</title>
<path fill="none" stroke="#191970" d="M1349.2998,-130.2872C1265.9141,-123.0251 1094.728,-106.7125 951,-84 944.6391,-82.9948 937.9834,-81.8119 931.405,-80.5625"/>
<polygon fill="#191970" stroke="#191970" points="931.671,-77.0482 921.1846,-78.5604 930.3253,-83.9176 931.671,-77.0482"/>
</g>
<!-- Node29 -->
<g id="node30" class="node">
<title>Node29</title>
<polygon fill="#ffffff" stroke="#bfbfbf" points="959.9165,-55.5 959.9165,-83.5 1082.0835,-83.5 1082.0835,-55.5 959.9165,-55.5"/>
<text text-anchor="start" x="967.9165" y="-71.5" font-family="Helvetica,sans-Serif" font-size="10.00" fill="#000000">cereal/archives/portable</text>
<text text-anchor="middle" x="1021" y="-61.5" font-family="Helvetica,sans-Serif" font-size="10.00" fill="#000000">_binary.hpp</text>
</g>
<!-- Node26&#45;&gt;Node29 -->
<g id="edge47" class="edge">
<title>Node26&#45;&gt;Node29</title>
<path fill="none" stroke="#191970" d="M1349.306,-126.8877C1290.0335,-117.8372 1188.7364,-101.9055 1092.3434,-84.2076"/>
<polygon fill="#191970" stroke="#191970" points="1092.9004,-80.7513 1082.4312,-82.3781 1091.6299,-87.6351 1092.9004,-80.7513"/>
</g>
<!-- Node30 -->
<g id="node31" class="node">
<title>Node30</title>
<polygon fill="#ffffff" stroke="#bfbfbf" points="1099.6431,-60.5 1099.6431,-78.5 1192.3569,-78.5 1192.3569,-60.5 1099.6431,-60.5"/>
<text text-anchor="middle" x="1146" y="-66.5" font-family="Helvetica,sans-Serif" font-size="10.00" fill="#000000">cereal/cereal.hpp</text>
</g>
<!-- Node26&#45;&gt;Node30 -->
<g id="edge48" class="edge">
<title>Node26&#45;&gt;Node30</title>
<path fill="none" stroke="#191970" d="M1364.0246,-125.4769C1324.1478,-115.4506 1257.9377,-98.7296 1201,-84 1197.394,-83.0671 1193.6567,-82.0944 1189.9049,-81.1138"/>
<polygon fill="#191970" stroke="#191970" points="1190.5814,-77.6729 1180.0206,-78.5216 1188.8057,-84.4439 1190.5814,-77.6729"/>
</g>
<!-- Node31 -->
<g id="node32" class="node">
<title>Node31</title>
<polygon fill="#ffffff" stroke="#bfbfbf" points="1209.8984,-60.5 1209.8984,-78.5 1324.1016,-78.5 1324.1016,-60.5 1209.8984,-60.5"/>
<text text-anchor="middle" x="1267" y="-66.5" font-family="Helvetica,sans-Serif" font-size="10.00" fill="#000000">cereal/types/array.hpp</text>
</g>
<!-- Node26&#45;&gt;Node31 -->
<g id="edge49" class="edge">
<title>Node26&#45;&gt;Node31</title>
<path fill="none" stroke="#191970" d="M1381.5069,-125.462C1359.0033,-114.464 1320.7945,-95.7906 1294.7558,-83.0648"/>
<polygon fill="#191970" stroke="#191970" points="1296.2861,-79.9171 1285.7648,-78.6708 1293.2124,-86.2063 1296.2861,-79.9171"/>
</g>
<!-- Node32 -->
<g id="node33" class="node">
<title>Node32</title>
<polygon fill="#ffffff" stroke="#bfbfbf" points="1341.9707,-60.5 1341.9707,-78.5 1458.0293,-78.5 1458.0293,-60.5 1341.9707,-60.5"/>
<text text-anchor="middle" x="1400" y="-66.5" font-family="Helvetica,sans-Serif" font-size="10.00" fill="#000000">cereal/types/bitset.hpp</text>
</g>
<!-- Node26&#45;&gt;Node32 -->
<g id="edge50" class="edge">
<title>Node26&#45;&gt;Node32</title>
<path fill="none" stroke="#191970" d="M1400,-125.462C1400,-116.061 1400,-101.0518 1400,-88.943"/>
<polygon fill="#191970" stroke="#191970" points="1403.5001,-88.8821 1400,-78.8821 1396.5001,-88.8822 1403.5001,-88.8821"/>
</g>
<!-- Node33 -->
<g id="node34" class="node">
<title>Node33</title>
<polygon fill="#ffffff" stroke="#bfbfbf" points="1476.1382,-55.5 1476.1382,-83.5 1583.8618,-83.5 1583.8618,-55.5 1476.1382,-55.5"/>
<text text-anchor="start" x="1484.1382" y="-71.5" font-family="Helvetica,sans-Serif" font-size="10.00" fill="#000000">cereal/types/boost</text>
<text text-anchor="middle" x="1530" y="-61.5" font-family="Helvetica,sans-Serif" font-size="10.00" fill="#000000">_dynamic_bitset.hpp</text>
</g>
<!-- Node26&#45;&gt;Node33 -->
<g id="edge51" class="edge">
<title>Node26&#45;&gt;Node33</title>
<path fill="none" stroke="#191970" d="M1418.0759,-125.462C1437.2536,-115.8732 1468.1001,-100.45 1492.5581,-88.221"/>
<polygon fill="#191970" stroke="#191970" points="1494.2024,-91.312 1501.5814,-83.7093 1491.0719,-85.051 1494.2024,-91.312"/>
</g>
<!-- Node34 -->
<g id="node35" class="node">
<title>Node34</title>
<polygon fill="#ffffff" stroke="#bfbfbf" points="1602.0913,-55.5 1602.0913,-83.5 1695.9087,-83.5 1695.9087,-55.5 1602.0913,-55.5"/>
<text text-anchor="start" x="1610.0913" y="-71.5" font-family="Helvetica,sans-Serif" font-size="10.00" fill="#000000">cereal/types/eastl</text>
<text text-anchor="middle" x="1649" y="-61.5" font-family="Helvetica,sans-Serif" font-size="10.00" fill="#000000">_bitset.hpp</text>
</g>
<!-- Node26&#45;&gt;Node34 -->
<g id="edge52" class="edge">
<title>Node26&#45;&gt;Node34</title>
<path fill="none" stroke="#191970" d="M1434.6224,-125.462C1475.3779,-114.823 1543.6475,-97.0016 1592.1906,-84.3298"/>
<polygon fill="#191970" stroke="#191970" points="1593.1355,-87.7005 1601.9272,-81.7881 1591.3674,-80.9274 1593.1355,-87.7005"/>
</g>
<!-- Node35 -->
<g id="node36" class="node">
<title>Node35</title>
<polygon fill="#ffffff" stroke="#bfbfbf" points="1713.6875,-60.5 1713.6875,-78.5 1830.3125,-78.5 1830.3125,-60.5 1713.6875,-60.5"/>
<text text-anchor="middle" x="1772" y="-66.5" font-family="Helvetica,sans-Serif" font-size="10.00" fill="#000000">cereal/types/eigen.hpp</text>
</g>
<!-- Node26&#45;&gt;Node35 -->
<g id="edge53" class="edge">
<title>Node26&#45;&gt;Node35</title>
<path fill="none" stroke="#191970" d="M1438.4029,-125.462C1447.1233,-123.5411 1456.3614,-121.6093 1465,-120 1571.0356,-100.2458 1598.9022,-103.4173 1705,-84 1710.6997,-82.9569 1716.6549,-81.786 1722.5621,-80.5738"/>
<polygon fill="#191970" stroke="#191970" points="1723.336,-83.9878 1732.4048,-78.5099 1721.8994,-77.1368 1723.336,-83.9878"/>
</g>
<!-- Node36 -->
<g id="node37" class="node">
<title>Node36</title>
<polygon fill="#ffffff" stroke="#bfbfbf" points="1848.1948,-60.5 1848.1948,-78.5 1959.8052,-78.5 1959.8052,-60.5 1848.1948,-60.5"/>
<text text-anchor="middle" x="1904" y="-66.5" font-family="Helvetica,sans-Serif" font-size="10.00" fill="#000000">cereal/types/map.hpp</text>
</g>
<!-- Node26&#45;&gt;Node36 -->
<g id="edge54" class="edge">
<title>Node26&#45;&gt;Node36</title>
<path fill="none" stroke="#191970" d="M1436.6296,-125.4985C1445.8475,-123.4628 1455.7509,-121.471 1465,-120 1629.9178,-93.771 1674.0822,-110.229 1839,-84 1844.9252,-83.0576 1851.1189,-81.9016 1857.2289,-80.6571"/>
<polygon fill="#191970" stroke="#191970" points="1858.3166,-84.0042 1867.3704,-78.5015 1856.8612,-77.1572 1858.3166,-84.0042"/>
</g>
<!-- Node37 -->
<g id="node38" class="node">
<title>Node37</title>
<polygon fill="#ffffff" stroke="#bfbfbf" points="1978.2334,-60.5 1978.2334,-78.5 2105.7666,-78.5 2105.7666,-60.5 1978.2334,-60.5"/>
<text text-anchor="middle" x="2042" y="-66.5" font-family="Helvetica,sans-Serif" font-size="10.00" fill="#000000">cereal/types/memory.hpp</text>
</g>
<!-- Node26&#45;&gt;Node37 -->
<g id="edge55" class="edge">
<title>Node26&#45;&gt;Node37</title>
<path fill="none" stroke="#191970" d="M1435.9237,-125.4892C1445.3339,-123.4034 1455.5047,-121.3904 1465,-120 1687.2012,-87.4634 1746.4333,-113.9341 1969,-84 1976.2193,-83.029 1983.7992,-81.7825 1991.2306,-80.429"/>
<polygon fill="#191970" stroke="#191970" points="1992.0525,-83.8355 2001.2246,-78.5326 1990.7474,-76.9583 1992.0525,-83.8355"/>
</g>
<!-- Node38 -->
<g id="node39" class="node">
<title>Node38</title>
<polygon fill="#ffffff" stroke="#bfbfbf" points="2123.8984,-60.5 2123.8984,-78.5 2238.1016,-78.5 2238.1016,-60.5 2123.8984,-60.5"/>
<text text-anchor="middle" x="2181" y="-66.5" font-family="Helvetica,sans-Serif" font-size="10.00" fill="#000000">cereal/types/utility.hpp</text>
</g>
<!-- Node26&#45;&gt;Node38 -->
<g id="edge56" class="edge">
<title>Node26&#45;&gt;Node38</title>
<path fill="none" stroke="#191970" d="M1435.569,-125.4605C1445.074,-123.3488 1455.3794,-121.3303 1465,-120 1751.6046,-80.3692 1828.3319,-123.1691 2115,-84 2121.4075,-83.1245 2128.1158,-81.9537 2134.6983,-80.6554"/>
<polygon fill="#191970" stroke="#191970" points="2135.8015,-84.0008 2144.8772,-78.5344 2134.3735,-77.148 2135.8015,-84.0008"/>
</g>
<!-- Node39 -->
<g id="node40" class="node">
<title>Node39</title>
<polygon fill="#ffffff" stroke="#bfbfbf" points="2256.5791,-60.5 2256.5791,-78.5 2375.4209,-78.5 2375.4209,-60.5 2256.5791,-60.5"/>
<text text-anchor="middle" x="2316" y="-66.5" font-family="Helvetica,sans-Serif" font-size="10.00" fill="#000000">cereal/types/vector.hpp</text>
</g>
<!-- Node26&#45;&gt;Node39 -->
<g id="edge57" class="edge">
<title>Node26&#45;&gt;Node39</title>
<path fill="none" stroke="#191970" d="M1435.2217,-125.4752C1444.8203,-123.3363 1455.2587,-121.3007 1465,-120 1809.8628,-73.951 1901.8594,-127.9182 2247,-84 2253.9347,-83.1176 2261.2093,-81.9072 2268.3269,-80.5592"/>
<polygon fill="#191970" stroke="#191970" points="2269.4655,-83.9009 2278.585,-78.5079 2268.0928,-77.0368 2269.4655,-83.9009"/>
</g>
<!-- Node40&#45;&gt;Node8 -->
<g id="edge60" class="edge">
<title>Node40&#45;&gt;Node8</title>
<path fill="none" stroke="#191970" d="M1553.4884,-190.4344C1546.19,-188.4246 1538.3541,-186.4608 1531,-185 1163.9146,-112.0833 1059.0577,-170.7788 695,-84 692.3302,-83.3636 689.5928,-82.6065 686.8635,-81.7771"/>
<polygon fill="#191970" stroke="#191970" points="687.7449,-78.3817 677.1513,-78.5435 685.5336,-85.0233 687.7449,-78.3817"/>
</g>
<!-- Node40&#45;&gt;Node26 -->
<g id="edge62" class="edge">
<title>Node40&#45;&gt;Node26</title>
<path fill="none" stroke="#191970" d="M1557.5546,-190.462C1525.6863,-179.1427 1470.9278,-159.6929 1435.094,-146.9651"/>
<polygon fill="#191970" stroke="#191970" points="1436.1183,-143.6147 1425.5236,-143.5658 1433.7753,-150.211 1436.1183,-143.6147"/>
</g>
<!-- Node41 -->
<g id="node42" class="node">
<title>Node41</title>
<polygon fill="#ffffff" stroke="#bfbfbf" points="1563.6084,-125.5 1563.6084,-143.5 1602.3916,-143.5 1602.3916,-125.5 1563.6084,-125.5"/>
<text text-anchor="middle" x="1583" y="-131.5" font-family="Helvetica,sans-Serif" font-size="10.00" fill="#000000">utility</text>
</g>
<!-- Node40&#45;&gt;Node41 -->
<g id="edge61" class="edge">
<title>Node40&#45;&gt;Node41</title>
<path fill="none" stroke="#191970" d="M1583,-190.462C1583,-181.061 1583,-166.0518 1583,-153.943"/>
<polygon fill="#191970" stroke="#191970" points="1586.5001,-153.8821 1583,-143.8821 1579.5001,-153.8822 1586.5001,-153.8821"/>
</g>
<!-- Node47&#45;&gt;Node1 -->
<g id="edge85" class="edge">
<title>Node47&#45;&gt;Node1</title>
<path fill="none" stroke="#191970" d="M1146.7088,-500.476C1108.452,-490.4084 1056.7359,-476.7989 1016.3628,-466.1744"/>
<polygon fill="#191970" stroke="#191970" points="1017.183,-462.7712 1006.6215,-463.6109 1015.4015,-469.5407 1017.183,-462.7712"/>
</g>
<!-- Node47&#45;&gt;Node3 -->
<g id="edge84" class="edge">
<title>Node47&#45;&gt;Node3</title>
<path fill="none" stroke="#191970" d="M1173.6968,-500.3684C1126.8893,-473.0875 1034,-408.3815 1034,-324.5 1034,-324.5 1034,-324.5 1034,-264.5 1034,-133.2983 583.1245,-177.249 455,-149 450.5834,-148.0262 445.9923,-146.9794 441.4043,-145.9102"/>
<polygon fill="#191970" stroke="#191970" points="441.9714,-142.4478 431.4344,-143.5531 440.3609,-149.26 441.9714,-142.4478"/>
</g>
<!-- Node47&#45;&gt;Node10 -->
<g id="edge87" class="edge">
<title>Node47&#45;&gt;Node10</title>
<path fill="none" stroke="#191970" d="M1195.6644,-500.1589C1178.702,-446.8751 1111.2628,-259.5405 981,-185 907.7688,-143.0948 690.5819,-121.4999 615,-84 595.9685,-74.5575 596.7355,-62.8657 577,-55 505.6157,-26.5494 271.5607,-14.3525 184.7688,-10.7316"/>
<polygon fill="#191970" stroke="#191970" points="184.8337,-7.2314 174.6999,-10.3227 184.5496,-14.2257 184.8337,-7.2314"/>
</g>
<!-- Node47&#45;&gt;Node14 -->
<g id="edge83" class="edge">
<title>Node47&#45;&gt;Node14</title>
<path fill="none" stroke="#191970" d="M1231.0947,-500.4642C1287.0771,-475.1944 1404.0715,-422.3844 1458.7113,-397.7206"/>
<polygon fill="#191970" stroke="#191970" points="1460.1776,-400.8988 1467.8521,-393.5945 1457.2977,-394.5187 1460.1776,-400.8988"/>
</g>
<!-- Node47&#45;&gt;Node18 -->
<g id="edge89" class="edge">
<title>Node47&#45;&gt;Node18</title>
<path fill="none" stroke="#191970" d="M1287.4524,-500.9436C1290.672,-500.5984 1293.8626,-500.2817 1297,-500 1556.5233,-476.6983 2212.6621,-510.7568 2469,-464 2576.2278,-444.4413 2701,-493.497 2701,-384.5 2701,-384.5 2701,-384.5 2701,-199.5 2701,-157.0185 2677.4531,-111.6209 2662.6774,-87.3157"/>
<polygon fill="#191970" stroke="#191970" points="2665.6159,-85.4136 2657.3325,-78.8077 2659.6885,-89.1373 2665.6159,-85.4136"/>
</g>
<!-- Node47&#45;&gt;Node43 -->
<g id="edge88" class="edge">
<title>Node47&#45;&gt;Node43</title>
<path fill="none" stroke="#191970" d="M1287.454,-500.961C1290.6731,-500.6109 1293.8632,-500.2884 1297,-500 1752.2484,-458.1384 1871.1473,-518.9653 2325,-464 2465.1846,-447.0225 2533.9938,-496.6458 2636,-399 2650.7286,-384.901 2654.6452,-361.1032 2655.4086,-344.2003"/>
<polygon fill="#191970" stroke="#191970" points="2658.9129,-343.8433 2655.5275,-333.8039 2651.9133,-343.7632 2658.9129,-343.8433"/>
</g>
<!-- Node47&#45;&gt;Node45 -->
<g id="edge86" class="edge">
<title>Node47&#45;&gt;Node45</title>
<path fill="none" stroke="#191970" d="M1287.4723,-501.1389C1290.6863,-500.7388 1293.8703,-500.3574 1297,-500 1862.2125,-435.4642 2020.5631,-534.8068 2573,-399 2574.963,-398.5174 2576.9576,-397.9341 2578.9465,-397.2821"/>
<polygon fill="#191970" stroke="#191970" points="2580.5574,-400.4146 2588.6685,-393.5984 2578.0771,-393.8687 2580.5574,-400.4146"/>
</g>
</g>
</svg>
