<?xml version="1.0" encoding="UTF-8" standalone="no"?>
<!DOCTYPE svg PUBLIC "-//W3C//DTD SVG 1.1//EN"
 "http://www.w3.org/Graphics/SVG/1.1/DTD/svg11.dtd">
<!-- Generated by graphviz version 2.40.1 (20161225.0304)
 -->
<!-- Title: src/algorithm/formalbonds/electron_optimisation_algorithm.cpp Pages: 1 -->
<svg width="1122pt" height="297pt"
 viewBox="0.00 0.00 1121.54 297.00" xmlns="http://www.w3.org/2000/svg" xmlns:xlink="http://www.w3.org/1999/xlink">
<g id="graph0" class="graph" transform="scale(1 1) rotate(0) translate(4 293)">
<title>src/algorithm/formalbonds/electron_optimisation_algorithm.cpp</title>
<polygon fill="#ffffff" stroke="transparent" points="-4,4 -4,-293 1117.5415,-293 1117.5415,4 -4,4"/>
<!-- Node0 -->
<g id="node1" class="node">
<title>Node0</title>
<polygon fill="#bfbfbf" stroke="#000000" points="432.6504,-250.5 432.6504,-288.5 563.6943,-288.5 563.6943,-250.5 432.6504,-250.5"/>
<text text-anchor="start" x="440.6504" y="-276.5" font-family="Helvetica,sans-Serif" font-size="10.00" fill="#000000">src/algorithm/formalbonds</text>
<text text-anchor="start" x="440.6504" y="-266.5" font-family="Helvetica,sans-Serif" font-size="10.00" fill="#000000">/electron_optimisation</text>
<text text-anchor="middle" x="498.1724" y="-256.5" font-family="Helvetica,sans-Serif" font-size="10.00" fill="#000000">_algorithm.cpp</text>
</g>
<!-- Node1 -->
<g id="node2" class="node">
<title>Node1</title>
<polygon fill="#ffffff" stroke="#bfbfbf" points="0,-.5 0,-18.5 54.3447,-18.5 54.3447,-.5 0,-.5"/>
<text text-anchor="middle" x="27.1724" y="-6.5" font-family="Helvetica,sans-Serif" font-size="10.00" fill="#000000">iostream</text>
</g>
<!-- Node0&#45;&gt;Node1 -->
<g id="edge1" class="edge">
<title>Node0&#45;&gt;Node1</title>
<path fill="none" stroke="#191970" d="M432.5081,-260.1958C383.2599,-251.8278 314.8658,-237.2157 258.1724,-214 155.8894,-172.1156 111.7534,-172.9675 46.1724,-84 34.3182,-67.9186 29.8307,-45.1756 28.1478,-29.0575"/>
<polygon fill="#191970" stroke="#191970" points="31.6067,-28.3852 27.353,-18.6818 24.6271,-28.92 31.6067,-28.3852"/>
</g>
<!-- Node2 -->
<g id="node3" class="node">
<title>Node2</title>
<g id="a_node3"><a xlink:href="electron__graph_8hpp.html" target="_top" xlink:title="indigox/classes/electron\l_graph.hpp">
<polygon fill="#ffffff" stroke="#000000" points="55.0889,-55.5 55.0889,-83.5 177.2559,-83.5 177.2559,-55.5 55.0889,-55.5"/>
<text text-anchor="start" x="63.0889" y="-71.5" font-family="Helvetica,sans-Serif" font-size="10.00" fill="#000000">indigox/classes/electron</text>
<text text-anchor="middle" x="116.1724" y="-61.5" font-family="Helvetica,sans-Serif" font-size="10.00" fill="#000000">_graph.hpp</text>
</a>
</g>
</g>
<!-- Node0&#45;&gt;Node2 -->
<g id="edge2" class="edge">
<title>Node0&#45;&gt;Node2</title>
<path fill="none" stroke="#191970" d="M432.3673,-251.6551C368.6028,-232.4874 270.8486,-198.0277 196.1724,-149 171.9782,-133.1157 149.0525,-109.0704 133.9964,-91.5839"/>
<polygon fill="#191970" stroke="#191970" points="136.3846,-88.9862 127.2663,-83.591 131.0299,-93.4949 136.3846,-88.9862"/>
</g>
<!-- Node6 -->
<g id="node7" class="node">
<title>Node6</title>
<g id="a_node7"><a xlink:href="atom_8hpp.html" target="_top" xlink:title="indigox/classes/atom.hpp">
<polygon fill="#ffffff" stroke="#000000" points="689.0298,-190.5 689.0298,-208.5 817.3149,-208.5 817.3149,-190.5 689.0298,-190.5"/>
<text text-anchor="middle" x="753.1724" y="-196.5" font-family="Helvetica,sans-Serif" font-size="10.00" fill="#000000">indigox/classes/atom.hpp</text>
</a>
</g>
</g>
<!-- Node0&#45;&gt;Node6 -->
<g id="edge7" class="edge">
<title>Node0&#45;&gt;Node6</title>
<path fill="none" stroke="#191970" d="M563.8412,-251.4733C609.9584,-238.8136 670.3158,-222.2449 710.3477,-211.2558"/>
<polygon fill="#191970" stroke="#191970" points="711.3497,-214.6103 720.0664,-208.5879 709.4966,-207.86 711.3497,-214.6103"/>
</g>
<!-- Node11 -->
<g id="node12" class="node">
<title>Node11</title>
<g id="a_node12"><a xlink:href="bond_8hpp.html" target="_top" xlink:title="indigox/classes/bond.hpp">
<polygon fill="#ffffff" stroke="#000000" points="844.0225,-190.5 844.0225,-208.5 972.3223,-208.5 972.3223,-190.5 844.0225,-190.5"/>
<text text-anchor="middle" x="908.1724" y="-196.5" font-family="Helvetica,sans-Serif" font-size="10.00" fill="#000000">indigox/classes/bond.hpp</text>
</a>
</g>
</g>
<!-- Node0&#45;&gt;Node11 -->
<g id="edge14" class="edge">
<title>Node0&#45;&gt;Node11</title>
<path fill="none" stroke="#191970" d="M563.8511,-258.5335C630.0865,-247.4395 735.2612,-229.7291 826.1724,-214 832.9678,-212.8243 840.078,-211.5832 847.1497,-210.3421"/>
<polygon fill="#191970" stroke="#191970" points="848.1997,-213.7112 857.4418,-208.5311 846.9865,-206.8171 848.1997,-213.7112"/>
</g>
<!-- Node13 -->
<g id="node14" class="node">
<title>Node13</title>
<g id="a_node14"><a xlink:href="electron__optimisation_8hpp.html" target="_top" xlink:title="indigox/algorithm/electron\l_optimisation.hpp">
<polygon fill="#ffffff" stroke="#000000" points="272.1973,-120.5 272.1973,-148.5 402.1475,-148.5 402.1475,-120.5 272.1973,-120.5"/>
<text text-anchor="start" x="280.1973" y="-136.5" font-family="Helvetica,sans-Serif" font-size="10.00" fill="#000000">indigox/algorithm/electron</text>
<text text-anchor="middle" x="337.1724" y="-126.5" font-family="Helvetica,sans-Serif" font-size="10.00" fill="#000000">_optimisation.hpp</text>
</a>
</g>
</g>
<!-- Node0&#45;&gt;Node13 -->
<g id="edge18" class="edge">
<title>Node0&#45;&gt;Node13</title>
<path fill="none" stroke="#191970" d="M455.8212,-250.4754C437.3305,-241.0222 416.0621,-228.5084 399.1724,-214 380.016,-197.5446 362.7587,-174.385 351.3448,-157.3051"/>
<polygon fill="#191970" stroke="#191970" points="354.0178,-154.9956 345.63,-148.523 348.1506,-158.8136 354.0178,-154.9956"/>
</g>
<!-- Node17 -->
<g id="node18" class="node">
<title>Node17</title>
<g id="a_node18"><a xlink:href="electron__optimisation__algorithm_8hpp.html" target="_top" xlink:title="indigox/algorithm/formalbonds\l/electron_optimisation_algorithm.hpp">
<polygon fill="#ffffff" stroke="#000000" points="408.4585,-185.5 408.4585,-213.5 587.8862,-213.5 587.8862,-185.5 408.4585,-185.5"/>
<text text-anchor="start" x="416.4585" y="-201.5" font-family="Helvetica,sans-Serif" font-size="10.00" fill="#000000">indigox/algorithm/formalbonds</text>
<text text-anchor="middle" x="498.1724" y="-191.5" font-family="Helvetica,sans-Serif" font-size="10.00" fill="#000000">/electron_optimisation_algorithm.hpp</text>
</a>
</g>
</g>
<!-- Node0&#45;&gt;Node17 -->
<g id="edge25" class="edge">
<title>Node0&#45;&gt;Node17</title>
<path fill="none" stroke="#191970" d="M498.1724,-250.3722C498.1724,-242.2889 498.1724,-232.7725 498.1724,-224.1705"/>
<polygon fill="#191970" stroke="#191970" points="501.6725,-223.9403 498.1724,-213.9404 494.6725,-223.9404 501.6725,-223.9403"/>
</g>
<!-- Node20 -->
<g id="node21" class="node">
<title>Node20</title>
<polygon fill="#ffffff" stroke="#bfbfbf" points="990.8032,-190.5 990.8032,-208.5 1113.5415,-208.5 1113.5415,-190.5 990.8032,-190.5"/>
<text text-anchor="middle" x="1052.1724" y="-196.5" font-family="Helvetica,sans-Serif" font-size="10.00" fill="#000000">indigox/utils/options.hpp</text>
</g>
<!-- Node0&#45;&gt;Node20 -->
<g id="edge32" class="edge">
<title>Node0&#45;&gt;Node20</title>
<path fill="none" stroke="#191970" d="M564.0434,-263.7636C657.2468,-255.2311 832.7996,-237.6293 981.1724,-214 987.532,-212.9872 994.1871,-211.7997 1000.7651,-210.5478"/>
<polygon fill="#191970" stroke="#191970" points="1001.8456,-213.9027 1010.9851,-208.5436 1000.4984,-207.0335 1001.8456,-213.9027"/>
</g>
<!-- Node2&#45;&gt;Node1 -->
<g id="edge6" class="edge">
<title>Node2&#45;&gt;Node1</title>
<path fill="none" stroke="#191970" d="M95.0806,-55.2808C81.2499,-45.9568 63.2018,-33.7895 49.1885,-24.3423"/>
<polygon fill="#191970" stroke="#191970" points="50.8955,-21.272 40.6472,-18.5842 46.9825,-27.0763 50.8955,-21.272"/>
</g>
<!-- Node3 -->
<g id="node4" class="node">
<title>Node3</title>
<polygon fill="#ffffff" stroke="#bfbfbf" points="72.2046,-.5 72.2046,-18.5 162.1401,-18.5 162.1401,-.5 72.2046,-.5"/>
<text text-anchor="middle" x="117.1724" y="-6.5" font-family="Helvetica,sans-Serif" font-size="10.00" fill="#000000">../utils/graph.hpp</text>
</g>
<!-- Node2&#45;&gt;Node3 -->
<g id="edge3" class="edge">
<title>Node2&#45;&gt;Node3</title>
<path fill="none" stroke="#191970" d="M116.4093,-55.2808C116.5411,-47.3776 116.7068,-37.4316 116.8502,-28.8308"/>
<polygon fill="#191970" stroke="#191970" points="120.3537,-28.6412 117.021,-18.5842 113.3547,-28.5244 120.3537,-28.6412"/>
</g>
<!-- Node4 -->
<g id="node5" class="node">
<title>Node4</title>
<polygon fill="#ffffff" stroke="#bfbfbf" points="180.1973,-.5 180.1973,-18.5 290.1475,-18.5 290.1475,-.5 180.1973,-.5"/>
<text text-anchor="middle" x="235.1724" y="-6.5" font-family="Helvetica,sans-Serif" font-size="10.00" fill="#000000">molecular_graph.hpp</text>
</g>
<!-- Node2&#45;&gt;Node4 -->
<g id="edge4" class="edge">
<title>Node2&#45;&gt;Node4</title>
<path fill="none" stroke="#191970" d="M144.0726,-55.4327C163.3485,-45.7137 188.8578,-32.8519 207.9788,-23.211"/>
<polygon fill="#191970" stroke="#191970" points="209.709,-26.2585 217.0624,-18.6311 206.5574,-20.008 209.709,-26.2585"/>
</g>
<!-- Node5 -->
<g id="node6" class="node">
<title>Node5</title>
<polygon fill="#ffffff" stroke="#bfbfbf" points="486.7217,-.5 486.7217,-18.5 531.623,-18.5 531.623,-.5 486.7217,-.5"/>
<text text-anchor="middle" x="509.1724" y="-6.5" font-family="Helvetica,sans-Serif" font-size="10.00" fill="#000000">cstdint</text>
</g>
<!-- Node2&#45;&gt;Node5 -->
<g id="edge5" class="edge">
<title>Node2&#45;&gt;Node5</title>
<path fill="none" stroke="#191970" d="M177.5898,-56.5449C180.4881,-56.0069 183.3601,-55.4888 186.1724,-55 291.7462,-36.6492 417.7192,-20.5678 476.2556,-13.4267"/>
<polygon fill="#191970" stroke="#191970" points="476.8748,-16.8774 486.3807,-12.1989 476.0321,-9.9283 476.8748,-16.8774"/>
</g>
<!-- Node7 -->
<g id="node8" class="node">
<title>Node7</title>
<g id="a_node8"><a xlink:href="fwd__declares_8hpp.html" target="_top" xlink:title="../utils/fwd_declares.hpp">
<polygon fill="#ffffff" stroke="#000000" points="846.5322,-125.5 846.5322,-143.5 969.8125,-143.5 969.8125,-125.5 846.5322,-125.5"/>
<text text-anchor="middle" x="908.1724" y="-131.5" font-family="Helvetica,sans-Serif" font-size="10.00" fill="#000000">../utils/fwd_declares.hpp</text>
</a>
</g>
</g>
<!-- Node6&#45;&gt;Node7 -->
<g id="edge8" class="edge">
<title>Node6&#45;&gt;Node7</title>
<path fill="none" stroke="#191970" d="M774.7244,-190.462C801.2956,-179.3193 846.6545,-160.2978 877.0159,-147.5656"/>
<polygon fill="#191970" stroke="#191970" points="878.4353,-150.7658 886.3036,-143.6708 875.7281,-144.3104 878.4353,-150.7658"/>
</g>
<!-- Node8 -->
<g id="node9" class="node">
<title>Node8</title>
<polygon fill="#ffffff" stroke="#bfbfbf" points="882.1157,-60.5 882.1157,-78.5 934.229,-78.5 934.229,-60.5 882.1157,-60.5"/>
<text text-anchor="middle" x="908.1724" y="-66.5" font-family="Helvetica,sans-Serif" font-size="10.00" fill="#000000">memory</text>
</g>
<!-- Node6&#45;&gt;Node8 -->
<g id="edge12" class="edge">
<title>Node6&#45;&gt;Node8</title>
<path fill="none" stroke="#191970" d="M762.1081,-190.2383C777.0521,-174.9378 808.3226,-143.7171 837.1724,-120 852.7003,-107.2347 871.2393,-94.1142 885.479,-84.4472"/>
<polygon fill="#191970" stroke="#191970" points="887.7894,-87.1117 894.1407,-78.6317 883.8874,-81.3001 887.7894,-87.1117"/>
</g>
<!-- Node9 -->
<g id="node10" class="node">
<title>Node9</title>
<polygon fill="#ffffff" stroke="#bfbfbf" points="716.542,-125.5 716.542,-143.5 789.8027,-143.5 789.8027,-125.5 716.542,-125.5"/>
<text text-anchor="middle" x="753.1724" y="-131.5" font-family="Helvetica,sans-Serif" font-size="10.00" fill="#000000">Eigen/Dense</text>
</g>
<!-- Node6&#45;&gt;Node9 -->
<g id="edge11" class="edge">
<title>Node6&#45;&gt;Node9</title>
<path fill="none" stroke="#191970" d="M753.1724,-190.462C753.1724,-181.061 753.1724,-166.0518 753.1724,-153.943"/>
<polygon fill="#191970" stroke="#191970" points="756.6725,-153.8821 753.1724,-143.8821 749.6725,-153.8822 756.6725,-153.8821"/>
</g>
<!-- Node10 -->
<g id="node11" class="node">
<title>Node10</title>
<polygon fill="#ffffff" stroke="#bfbfbf" points="574.5566,-60.5 574.5566,-78.5 617.7881,-78.5 617.7881,-60.5 574.5566,-60.5"/>
<text text-anchor="middle" x="596.1724" y="-66.5" font-family="Helvetica,sans-Serif" font-size="10.00" fill="#000000">vector</text>
</g>
<!-- Node6&#45;&gt;Node10 -->
<g id="edge13" class="edge">
<title>Node6&#45;&gt;Node10</title>
<path fill="none" stroke="#191970" d="M744.2712,-190.1959C729.377,-174.8345 698.1764,-143.5282 669.1724,-120 653.1166,-106.9755 633.8411,-93.7333 619.1298,-84.0784"/>
<polygon fill="#191970" stroke="#191970" points="620.9236,-81.0702 610.6293,-78.5645 617.1142,-86.9429 620.9236,-81.0702"/>
</g>
<!-- Node7&#45;&gt;Node5 -->
<g id="edge9" class="edge">
<title>Node7&#45;&gt;Node5</title>
<path fill="none" stroke="#191970" d="M879.1559,-125.4096C806.7071,-102.7126 618.2342,-43.6672 541.9445,-19.767"/>
<polygon fill="#191970" stroke="#191970" points="542.537,-16.2849 531.948,-16.6352 540.4443,-22.9648 542.537,-16.2849"/>
</g>
<!-- Node7&#45;&gt;Node8 -->
<g id="edge10" class="edge">
<title>Node7&#45;&gt;Node8</title>
<path fill="none" stroke="#191970" d="M908.1724,-125.462C908.1724,-116.061 908.1724,-101.0518 908.1724,-88.943"/>
<polygon fill="#191970" stroke="#191970" points="911.6725,-88.8821 908.1724,-78.8821 904.6725,-88.8822 911.6725,-88.8821"/>
</g>
<!-- Node11&#45;&gt;Node7 -->
<g id="edge15" class="edge">
<title>Node11&#45;&gt;Node7</title>
<path fill="none" stroke="#191970" d="M908.1724,-190.462C908.1724,-181.061 908.1724,-166.0518 908.1724,-153.943"/>
<polygon fill="#191970" stroke="#191970" points="911.6725,-153.8821 908.1724,-143.8821 904.6725,-153.8822 911.6725,-153.8821"/>
</g>
<!-- Node11&#45;&gt;Node8 -->
<g id="edge17" class="edge">
<title>Node11&#45;&gt;Node8</title>
<path fill="none" stroke="#191970" d="M930.6252,-190.4122C947.3779,-182.2921 969.0473,-168.6267 979.1724,-149 985.0815,-137.5455 985.0815,-131.4545 979.1724,-120 970.7875,-103.7467 954.4857,-91.5815 939.6155,-83.2683"/>
<polygon fill="#191970" stroke="#191970" points="941.1114,-80.1012 930.6252,-78.5878 937.8789,-86.3102 941.1114,-80.1012"/>
</g>
<!-- Node12 -->
<g id="node13" class="node">
<title>Node12</title>
<polygon fill="#ffffff" stroke="#bfbfbf" points="1025.7808,-125.5 1025.7808,-143.5 1064.564,-143.5 1064.564,-125.5 1025.7808,-125.5"/>
<text text-anchor="middle" x="1045.1724" y="-131.5" font-family="Helvetica,sans-Serif" font-size="10.00" fill="#000000">array</text>
</g>
<!-- Node11&#45;&gt;Node12 -->
<g id="edge16" class="edge">
<title>Node11&#45;&gt;Node12</title>
<path fill="none" stroke="#191970" d="M927.2216,-190.462C950.4021,-179.464 989.7599,-160.7906 1016.5818,-148.0648"/>
<polygon fill="#191970" stroke="#191970" points="1018.3088,-151.1195 1025.8432,-143.6708 1015.3082,-144.7952 1018.3088,-151.1195"/>
</g>
<!-- Node13&#45;&gt;Node2 -->
<g id="edge19" class="edge">
<title>Node13&#45;&gt;Node2</title>
<path fill="none" stroke="#191970" d="M289.4907,-120.476C255.6229,-110.5149 209.9656,-97.0862 174.0143,-86.5123"/>
<polygon fill="#191970" stroke="#191970" points="174.7307,-83.0749 164.1495,-83.6109 172.7555,-89.7904 174.7307,-83.0749"/>
</g>
<!-- Node13&#45;&gt;Node5 -->
<g id="edge21" class="edge">
<title>Node13&#45;&gt;Node5</title>
<path fill="none" stroke="#191970" d="M402.414,-120.4626C426.1729,-112.8043 451.9014,-101.2378 471.1724,-84 487.8615,-69.0716 498.2334,-45.0929 503.8428,-28.3857"/>
<polygon fill="#191970" stroke="#191970" points="507.2505,-29.2125 506.8597,-18.6249 500.5627,-27.1453 507.2505,-29.2125"/>
</g>
<!-- Node13&#45;&gt;Node10 -->
<g id="edge24" class="edge">
<title>Node13&#45;&gt;Node10</title>
<path fill="none" stroke="#191970" d="M393.0526,-120.476C445.5323,-107.3054 522.1661,-88.073 564.7248,-77.3922"/>
<polygon fill="#191970" stroke="#191970" points="565.6771,-80.7619 574.5244,-74.9329 563.9732,-73.9724 565.6771,-80.7619"/>
</g>
<!-- Node14 -->
<g id="node15" class="node">
<title>Node14</title>
<polygon fill="#ffffff" stroke="#bfbfbf" points="195.2686,-55.5 195.2686,-83.5 299.0762,-83.5 299.0762,-55.5 195.2686,-55.5"/>
<text text-anchor="start" x="203.2686" y="-71.5" font-family="Helvetica,sans-Serif" font-size="10.00" fill="#000000">../classes/molecular</text>
<text text-anchor="middle" x="247.1724" y="-61.5" font-family="Helvetica,sans-Serif" font-size="10.00" fill="#000000">_graph.hpp</text>
</g>
<!-- Node13&#45;&gt;Node14 -->
<g id="edge20" class="edge">
<title>Node13&#45;&gt;Node14</title>
<path fill="none" stroke="#191970" d="M317.6437,-120.396C305.1423,-111.3672 288.7303,-99.5141 274.8901,-89.5184"/>
<polygon fill="#191970" stroke="#191970" points="276.819,-86.5941 266.6629,-83.5765 272.7205,-92.2688 276.819,-86.5941"/>
</g>
<!-- Node15 -->
<g id="node16" class="node">
<title>Node15</title>
<polygon fill="#ffffff" stroke="#bfbfbf" points="316.9458,-60.5 316.9458,-78.5 357.3989,-78.5 357.3989,-60.5 316.9458,-60.5"/>
<text text-anchor="middle" x="337.1724" y="-66.5" font-family="Helvetica,sans-Serif" font-size="10.00" fill="#000000">string</text>
</g>
<!-- Node13&#45;&gt;Node15 -->
<g id="edge22" class="edge">
<title>Node13&#45;&gt;Node15</title>
<path fill="none" stroke="#191970" d="M337.1724,-120.396C337.1724,-111.1723 337.1724,-99.0011 337.1724,-88.8738"/>
<polygon fill="#191970" stroke="#191970" points="340.6725,-88.5743 337.1724,-78.5743 333.6725,-88.5743 340.6725,-88.5743"/>
</g>
<!-- Node16 -->
<g id="node17" class="node">
<title>Node16</title>
<polygon fill="#ffffff" stroke="#bfbfbf" points="375.8696,-60.5 375.8696,-78.5 462.4751,-78.5 462.4751,-60.5 375.8696,-60.5"/>
<text text-anchor="middle" x="419.1724" y="-66.5" font-family="Helvetica,sans-Serif" font-size="10.00" fill="#000000">unordered_map</text>
</g>
<!-- Node13&#45;&gt;Node16 -->
<g id="edge23" class="edge">
<title>Node13&#45;&gt;Node16</title>
<path fill="none" stroke="#191970" d="M354.9651,-120.396C368.1025,-109.9822 385.9799,-95.8111 399.5348,-85.0664"/>
<polygon fill="#191970" stroke="#191970" points="402.0624,-87.5291 407.7248,-78.5743 397.714,-82.0435 402.0624,-87.5291"/>
</g>
<!-- Node17&#45;&gt;Node2 -->
<g id="edge30" class="edge">
<title>Node17&#45;&gt;Node2</title>
<path fill="none" stroke="#191970" d="M408.3244,-186.3702C363.8109,-178.3228 309.7567,-166.2013 263.1724,-149 220.684,-133.3112 175.3528,-107.1947 146.4447,-89.2017"/>
<polygon fill="#191970" stroke="#191970" points="147.9873,-86.0369 137.6605,-83.6687 144.2565,-91.9599 147.9873,-86.0369"/>
</g>
<!-- Node17&#45;&gt;Node5 -->
<g id="edge26" class="edge">
<title>Node17&#45;&gt;Node5</title>
<path fill="none" stroke="#191970" d="M478.3309,-185.3287C467.489,-176.3133 455.0931,-163.6043 449.1724,-149 444.3299,-137.0554 443.527,-131.5868 449.1724,-120 460.5434,-96.6617 481.6859,-106.1831 495.1724,-84 505.2949,-67.3499 508.3915,-45.0386 509.2032,-29.1842"/>
<polygon fill="#191970" stroke="#191970" points="512.7078,-29.0383 509.4582,-18.9542 505.71,-28.8638 512.7078,-29.0383"/>
</g>
<!-- Node17&#45;&gt;Node10 -->
<g id="edge28" class="edge">
<title>Node17&#45;&gt;Node10</title>
<path fill="none" stroke="#191970" d="M531.7839,-185.3627C547.7835,-177.0082 565.8495,-164.9172 577.1724,-149 589.8581,-131.1669 594.1548,-105.9687 595.5662,-88.7508"/>
<polygon fill="#191970" stroke="#191970" points="599.0616,-88.9292 596.1362,-78.7463 592.073,-88.531 599.0616,-88.9292"/>
</g>
<!-- Node17&#45;&gt;Node13 -->
<g id="edge31" class="edge">
<title>Node17&#45;&gt;Node13</title>
<path fill="none" stroke="#191970" d="M463.2378,-185.396C439.2918,-175.7284 407.3253,-162.8226 381.5741,-152.4262"/>
<polygon fill="#191970" stroke="#191970" points="382.6219,-149.0748 372.0388,-148.5765 380.0013,-155.5657 382.6219,-149.0748"/>
</g>
<!-- Node18 -->
<g id="node19" class="node">
<title>Node18</title>
<polygon fill="#ffffff" stroke="#bfbfbf" points="624.4458,-125.5 624.4458,-143.5 659.8989,-143.5 659.8989,-125.5 624.4458,-125.5"/>
<text text-anchor="middle" x="642.1724" y="-131.5" font-family="Helvetica,sans-Serif" font-size="10.00" fill="#000000">map</text>
</g>
<!-- Node17&#45;&gt;Node18 -->
<g id="edge27" class="edge">
<title>Node17&#45;&gt;Node18</title>
<path fill="none" stroke="#191970" d="M529.5595,-185.3665C552.0164,-175.2496 582.9615,-161.2995 610.1724,-149 611.739,-148.2919 613.3486,-147.5639 614.9727,-146.829"/>
<polygon fill="#191970" stroke="#191970" points="616.5691,-149.9483 624.235,-142.6349 613.6816,-143.5716 616.5691,-149.9483"/>
</g>
<!-- Node19 -->
<g id="node20" class="node">
<title>Node19</title>
<polygon fill="#ffffff" stroke="#bfbfbf" points="458.2021,-120.5 458.2021,-148.5 568.1426,-148.5 568.1426,-120.5 458.2021,-120.5"/>
<text text-anchor="start" x="466.2021" y="-136.5" font-family="Helvetica,sans-Serif" font-size="10.00" fill="#000000">boost/dynamic_bitset</text>
<text text-anchor="middle" x="513.1724" y="-126.5" font-family="Helvetica,sans-Serif" font-size="10.00" fill="#000000">/dynamic_bitset.hpp</text>
</g>
<!-- Node17&#45;&gt;Node19 -->
<g id="edge29" class="edge">
<title>Node17&#45;&gt;Node19</title>
<path fill="none" stroke="#191970" d="M501.4271,-185.396C503.2355,-177.5597 505.5349,-167.5958 507.6188,-158.5653"/>
<polygon fill="#191970" stroke="#191970" points="511.0856,-159.1075 509.9239,-148.5765 504.2649,-157.5334 511.0856,-159.1075"/>
</g>
</g>
</svg>
