<?xml version="1.0" encoding="UTF-8" standalone="no"?>
<!DOCTYPE svg PUBLIC "-//W3C//DTD SVG 1.1//EN"
 "http://www.w3.org/Graphics/SVG/1.1/DTD/svg11.dtd">
<!-- Generated by graphviz version 2.40.1 (20161225.0304)
 -->
<!-- Title: include/indigox/algorithm/electron_assignment/local_optimisation.hpp Pages: 1 -->
<svg width="482pt" height="112pt"
 viewBox="0.00 0.00 481.63 112.00" xmlns="http://www.w3.org/2000/svg" xmlns:xlink="http://www.w3.org/1999/xlink">
<g id="graph0" class="graph" transform="scale(1 1) rotate(0) translate(4 108)">
<title>include/indigox/algorithm/electron_assignment/local_optimisation.hpp</title>
<polygon fill="#ffffff" stroke="transparent" points="-4,4 -4,-108 477.6274,-108 477.6274,4 -4,4"/>
<!-- Node47 -->
<g id="node1" class="node">
<title>Node47</title>
<polygon fill="#bfbfbf" stroke="#000000" points="169.6157,-65.5 169.6157,-103.5 304.0142,-103.5 304.0142,-65.5 169.6157,-65.5"/>
<text text-anchor="start" x="177.6157" y="-91.5" font-family="Helvetica,sans-Serif" font-size="10.00" fill="#000000">include/indigox/algorithm</text>
<text text-anchor="start" x="177.6157" y="-81.5" font-family="Helvetica,sans-Serif" font-size="10.00" fill="#000000">/electron_assignment/local</text>
<text text-anchor="middle" x="236.8149" y="-71.5" font-family="Helvetica,sans-Serif" font-size="10.00" fill="#000000">_optimisation.hpp</text>
</g>
<!-- Node48 -->
<g id="node2" class="node">
<title>Node48</title>
<g id="a_node2"><a xlink:href="assigner_8cpp.html" target="_top" xlink:title="src/algorithm/electron\l_assignment/assigner.cpp">
<polygon fill="#ffffff" stroke="#000000" points="0,-.5 0,-28.5 131.6299,-28.5 131.6299,-.5 0,-.5"/>
<text text-anchor="start" x="8" y="-16.5" font-family="Helvetica,sans-Serif" font-size="10.00" fill="#000000">src/algorithm/electron</text>
<text text-anchor="middle" x="65.8149" y="-6.5" font-family="Helvetica,sans-Serif" font-size="10.00" fill="#000000">_assignment/assigner.cpp</text>
</a>
</g>
</g>
<!-- Node47&#45;&gt;Node48 -->
<g id="edge1" class="edge">
<title>Node47&#45;&gt;Node48</title>
<path fill="none" stroke="#191970" d="M180.5389,-61.463C154.0351,-50.6135 123.2725,-38.0206 100.2779,-28.6076"/>
<polygon fill="#191970" stroke="#191970" points="179.5079,-64.8228 190.0884,-65.3722 182.1598,-58.3446 179.5079,-64.8228"/>
</g>
<!-- Node49 -->
<g id="node3" class="node">
<title>Node49</title>
<g id="a_node3"><a xlink:href="electron__assignment_2local__optimisation_8cpp.html" target="_top" xlink:title="src/algorithm/electron\l_assignment/local_optimisation.cpp">
<polygon fill="#ffffff" stroke="#000000" points="149.8818,-.5 149.8818,-28.5 323.748,-28.5 323.748,-.5 149.8818,-.5"/>
<text text-anchor="start" x="157.8818" y="-16.5" font-family="Helvetica,sans-Serif" font-size="10.00" fill="#000000">src/algorithm/electron</text>
<text text-anchor="middle" x="236.8149" y="-6.5" font-family="Helvetica,sans-Serif" font-size="10.00" fill="#000000">_assignment/local_optimisation.cpp</text>
</a>
</g>
</g>
<!-- Node47&#45;&gt;Node49 -->
<g id="edge2" class="edge">
<title>Node47&#45;&gt;Node49</title>
<path fill="none" stroke="#191970" d="M236.8149,-55.1346C236.8149,-46.0837 236.8149,-36.5165 236.8149,-28.9404"/>
<polygon fill="#191970" stroke="#191970" points="233.315,-55.3722 236.8149,-65.3722 240.315,-55.3722 233.315,-55.3722"/>
</g>
<!-- Node50 -->
<g id="node4" class="node">
<title>Node50</title>
<g id="a_node4"><a xlink:href="pyassigner_8cpp.html" target="_top" xlink:title="src/python/pyassigner.cpp">
<polygon fill="#ffffff" stroke="#000000" points="342.0024,-5.5 342.0024,-23.5 473.6274,-23.5 473.6274,-5.5 342.0024,-5.5"/>
<text text-anchor="middle" x="407.8149" y="-11.5" font-family="Helvetica,sans-Serif" font-size="10.00" fill="#000000">src/python/pyassigner.cpp</text>
</a>
</g>
</g>
<!-- Node47&#45;&gt;Node50 -->
<g id="edge3" class="edge">
<title>Node47&#45;&gt;Node50</title>
<path fill="none" stroke="#191970" d="M293.125,-61.4491C324.7026,-48.5226 362.3166,-33.125 385.635,-23.5795"/>
<polygon fill="#191970" stroke="#191970" points="291.4701,-58.3446 283.5414,-65.3722 294.122,-64.8228 291.4701,-58.3446"/>
</g>
</g>
</svg>
