<?xml version="1.0" encoding="UTF-8" standalone="no"?>
<!DOCTYPE svg PUBLIC "-//W3C//DTD SVG 1.1//EN"
 "http://www.w3.org/Graphics/SVG/1.1/DTD/svg11.dtd">
<!-- Generated by graphviz version 2.40.1 (20161225.0304)
 -->
<!-- Title: include/indigox/classes/electron_graph.hpp Pages: 1 -->
<svg width="857pt" height="317pt"
 viewBox="0.00 0.00 857.43 317.00" xmlns="http://www.w3.org/2000/svg" xmlns:xlink="http://www.w3.org/1999/xlink">
<g id="graph0" class="graph" transform="scale(1 1) rotate(0) translate(4 313)">
<title>include/indigox/classes/electron_graph.hpp</title>
<polygon fill="#ffffff" stroke="transparent" points="-4,4 -4,-313 853.4258,-313 853.4258,4 -4,4"/>
<!-- Node5 -->
<g id="node1" class="node">
<title>Node5</title>
<polygon fill="#bfbfbf" stroke="#000000" points="509.3818,-280.5 509.3818,-308.5 627.6621,-308.5 627.6621,-280.5 509.3818,-280.5"/>
<text text-anchor="start" x="517.3818" y="-296.5" font-family="Helvetica,sans-Serif" font-size="10.00" fill="#000000">include/indigox/classes</text>
<text text-anchor="middle" x="568.522" y="-286.5" font-family="Helvetica,sans-Serif" font-size="10.00" fill="#000000">/electron_graph.hpp</text>
</g>
<!-- Node6 -->
<g id="node2" class="node">
<title>Node6</title>
<g id="a_node2"><a xlink:href="electron__optimisation_8hpp.html" target="_top" xlink:title="include/indigox/algorithm\l/electron_optimisation.hpp">
<polygon fill="#ffffff" stroke="#000000" points="376.1528,-215.5 376.1528,-243.5 508.8911,-243.5 508.8911,-215.5 376.1528,-215.5"/>
<text text-anchor="start" x="384.1528" y="-231.5" font-family="Helvetica,sans-Serif" font-size="10.00" fill="#000000">include/indigox/algorithm</text>
<text text-anchor="middle" x="442.522" y="-221.5" font-family="Helvetica,sans-Serif" font-size="10.00" fill="#000000">/electron_optimisation.hpp</text>
</a>
</g>
</g>
<!-- Node5&#45;&gt;Node6 -->
<g id="edge1" class="edge">
<title>Node5&#45;&gt;Node6</title>
<path fill="none" stroke="#191970" d="M532.1066,-275.7143C512.235,-265.4631 488.0421,-252.9826 469.8087,-243.5765"/>
<polygon fill="#191970" stroke="#191970" points="530.6901,-278.9218 541.1818,-280.396 533.8993,-272.7008 530.6901,-278.9218"/>
</g>
<!-- Node7 -->
<g id="node3" class="node">
<title>Node7</title>
<g id="a_node3"><a xlink:href="electron__optimisation__algorithm_8hpp.html" target="_top" xlink:title="include/indigox/algorithm\l/formalbonds/electron_optimisation\l_algorithm.hpp">
<polygon fill="#ffffff" stroke="#000000" points="247.9805,-140.5 247.9805,-178.5 419.0635,-178.5 419.0635,-140.5 247.9805,-140.5"/>
<text text-anchor="start" x="255.9805" y="-166.5" font-family="Helvetica,sans-Serif" font-size="10.00" fill="#000000">include/indigox/algorithm</text>
<text text-anchor="start" x="255.9805" y="-156.5" font-family="Helvetica,sans-Serif" font-size="10.00" fill="#000000">/formalbonds/electron_optimisation</text>
<text text-anchor="middle" x="333.522" y="-146.5" font-family="Helvetica,sans-Serif" font-size="10.00" fill="#000000">_algorithm.hpp</text>
</a>
</g>
</g>
<!-- Node5&#45;&gt;Node7 -->
<g id="edge15" class="edge">
<title>Node5&#45;&gt;Node7</title>
<path fill="none" stroke="#191970" d="M499.024,-283.9228C449.0628,-275.0715 387.1828,-261.1467 367.522,-244 348.2155,-227.1623 339.7284,-197.7967 336.0988,-178.5014"/>
<polygon fill="#191970" stroke="#191970" points="498.7119,-287.4208 509.1626,-285.6793 499.9069,-280.5235 498.7119,-287.4208"/>
</g>
<!-- Node9 -->
<g id="node5" class="node">
<title>Node9</title>
<g id="a_node5"><a xlink:href="electron__optimisation_8cpp.html" target="_top" xlink:title="src/algorithm/electron\l_optimisation.cpp">
<polygon fill="#ffffff" stroke="#000000" points="439.7266,-.5 439.7266,-28.5 551.3174,-28.5 551.3174,-.5 439.7266,-.5"/>
<text text-anchor="start" x="447.7266" y="-16.5" font-family="Helvetica,sans-Serif" font-size="10.00" fill="#000000">src/algorithm/electron</text>
<text text-anchor="middle" x="495.522" y="-6.5" font-family="Helvetica,sans-Serif" font-size="10.00" fill="#000000">_optimisation.cpp</text>
</a>
</g>
</g>
<!-- Node5&#45;&gt;Node9 -->
<g id="edge16" class="edge">
<title>Node5&#45;&gt;Node9</title>
<path fill="none" stroke="#191970" d="M590.2633,-272.9958C630.9703,-230.1002 710.2689,-132.2503 660.522,-65 647.2938,-47.1175 593.8914,-32.9887 551.3743,-24.276"/>
<polygon fill="#191970" stroke="#191970" points="587.5896,-270.7256 583.1513,-280.346 592.6202,-275.5932 587.5896,-270.7256"/>
</g>
<!-- Node14 -->
<g id="node10" class="node">
<title>Node14</title>
<g id="a_node10"><a xlink:href="formalbonds_2local__optimisation_8cpp.html" target="_top" xlink:title="src/algorithm/formalbonds\l/local_optimisation.cpp">
<polygon fill="#ffffff" stroke="#000000" points="610,-.5 610,-28.5 741.0439,-28.5 741.0439,-.5 610,-.5"/>
<text text-anchor="start" x="618" y="-16.5" font-family="Helvetica,sans-Serif" font-size="10.00" fill="#000000">src/algorithm/formalbonds</text>
<text text-anchor="middle" x="675.522" y="-6.5" font-family="Helvetica,sans-Serif" font-size="10.00" fill="#000000">/local_optimisation.cpp</text>
</a>
</g>
</g>
<!-- Node5&#45;&gt;Node14 -->
<g id="edge18" class="edge">
<title>Node5&#45;&gt;Node14</title>
<path fill="none" stroke="#191970" d="M602.4891,-274.9136C615.3536,-266.4624 629.5318,-255.8024 640.522,-244 663.4809,-219.3444 670.097,-211.3447 679.522,-179 695.1861,-125.2435 684.5198,-57.3747 678.6595,-28.5142"/>
<polygon fill="#191970" stroke="#191970" points="600.4152,-272.0844 593.8481,-280.3984 604.1666,-277.9944 600.4152,-272.0844"/>
</g>
<!-- Node15 -->
<g id="node11" class="node">
<title>Node15</title>
<g id="a_node11"><a xlink:href="electron__optimisation__algorithm_8cpp.html" target="_top" xlink:title="src/algorithm/formalbonds\l/electron_optimisation\l_algorithm.cpp">
<polygon fill="#ffffff" stroke="#000000" points="0,-65.5 0,-103.5 131.0439,-103.5 131.0439,-65.5 0,-65.5"/>
<text text-anchor="start" x="8" y="-91.5" font-family="Helvetica,sans-Serif" font-size="10.00" fill="#000000">src/algorithm/formalbonds</text>
<text text-anchor="start" x="8" y="-81.5" font-family="Helvetica,sans-Serif" font-size="10.00" fill="#000000">/electron_optimisation</text>
<text text-anchor="middle" x="65.522" y="-71.5" font-family="Helvetica,sans-Serif" font-size="10.00" fill="#000000">_algorithm.cpp</text>
</a>
</g>
</g>
<!-- Node5&#45;&gt;Node15 -->
<g id="edge17" class="edge">
<title>Node5&#45;&gt;Node15</title>
<path fill="none" stroke="#191970" d="M499.2284,-287.5926C413.0254,-276.3247 264.0977,-247.8611 156.522,-179 124.6785,-158.6164 95.8691,-124.9333 79.5483,-103.7691"/>
<polygon fill="#191970" stroke="#191970" points="498.8057,-291.0669 509.1663,-288.8516 499.6855,-284.1224 498.8057,-291.0669"/>
</g>
<!-- Node16 -->
<g id="node12" class="node">
<title>Node16</title>
<g id="a_node12"><a xlink:href="electron__graph_8cpp.html" target="_top" xlink:title="src/classes/electron\l_graph.cpp">
<polygon fill="#ffffff" stroke="#000000" points="745.6182,-215.5 745.6182,-243.5 849.4258,-243.5 849.4258,-215.5 745.6182,-215.5"/>
<text text-anchor="start" x="753.6182" y="-231.5" font-family="Helvetica,sans-Serif" font-size="10.00" fill="#000000">src/classes/electron</text>
<text text-anchor="middle" x="797.522" y="-221.5" font-family="Helvetica,sans-Serif" font-size="10.00" fill="#000000">_graph.cpp</text>
</a>
</g>
</g>
<!-- Node5&#45;&gt;Node16 -->
<g id="edge19" class="edge">
<title>Node5&#45;&gt;Node16</title>
<path fill="none" stroke="#191970" d="M627.657,-277.7149C664.9227,-267.1373 712.4932,-253.6348 747.8081,-243.6109"/>
<polygon fill="#191970" stroke="#191970" points="626.5939,-274.3784 617.9296,-280.476 628.5053,-281.1124 626.5939,-274.3784"/>
</g>
<!-- Node6&#45;&gt;Node7 -->
<g id="edge2" class="edge">
<title>Node6&#45;&gt;Node7</title>
<path fill="none" stroke="#191970" d="M411.9296,-209.8535C396.7479,-200.1038 378.4793,-188.3717 363.3968,-178.6857"/>
<polygon fill="#191970" stroke="#191970" points="410.1586,-212.8757 420.4642,-215.3345 413.9412,-206.9857 410.1586,-212.8757"/>
</g>
<!-- Node6&#45;&gt;Node9 -->
<g id="edge13" class="edge">
<title>Node6&#45;&gt;Node9</title>
<path fill="none" stroke="#191970" d="M443.241,-205.0355C444.8376,-172.2986 449.9776,-112.8211 466.522,-65 471.0175,-52.0059 478.9211,-38.5656 485.3429,-28.8204"/>
<polygon fill="#191970" stroke="#191970" points="439.7272,-205.3008 442.8112,-215.4368 446.7212,-205.5899 439.7272,-205.3008"/>
</g>
<!-- Node6&#45;&gt;Node15 -->
<g id="edge14" class="edge">
<title>Node6&#45;&gt;Node15</title>
<path fill="none" stroke="#191970" d="M365.762,-215.3894C326.8958,-207.0263 279.4074,-194.9197 238.522,-179 185.5825,-158.3868 128.5574,-124.7718 95.0047,-103.684"/>
<polygon fill="#191970" stroke="#191970" points="365.4569,-218.902 375.9641,-217.5417 366.902,-212.0527 365.4569,-218.902"/>
</g>
<!-- Node8 -->
<g id="node4" class="node">
<title>Node8</title>
<g id="a_node4"><a xlink:href="astar_8hpp.html" target="_top" xlink:title="include/indigox/algorithm\l/formalbonds/astar.hpp">
<polygon fill="#ffffff" stroke="#000000" points="149.4902,-70.5 149.4902,-98.5 275.5537,-98.5 275.5537,-70.5 149.4902,-70.5"/>
<text text-anchor="start" x="157.4902" y="-86.5" font-family="Helvetica,sans-Serif" font-size="10.00" fill="#000000">include/indigox/algorithm</text>
<text text-anchor="middle" x="212.522" y="-76.5" font-family="Helvetica,sans-Serif" font-size="10.00" fill="#000000">/formalbonds/astar.hpp</text>
</a>
</g>
</g>
<!-- Node7&#45;&gt;Node8 -->
<g id="edge3" class="edge">
<title>Node7&#45;&gt;Node8</title>
<path fill="none" stroke="#191970" d="M294.0051,-135.0061C274.5539,-122.9495 251.7997,-108.8457 235.2878,-98.6111"/>
<polygon fill="#191970" stroke="#191970" points="292.3319,-138.0867 302.6755,-140.3803 296.0198,-132.137 292.3319,-138.0867"/>
</g>
<!-- Node11 -->
<g id="node7" class="node">
<title>Node11</title>
<g id="a_node7"><a xlink:href="fpt_8hpp.html" target="_top" xlink:title="include/indigox/algorithm\l/formalbonds/fpt.hpp">
<polygon fill="#ffffff" stroke="#000000" points="293.4902,-70.5 293.4902,-98.5 419.5537,-98.5 419.5537,-70.5 293.4902,-70.5"/>
<text text-anchor="start" x="301.4902" y="-86.5" font-family="Helvetica,sans-Serif" font-size="10.00" fill="#000000">include/indigox/algorithm</text>
<text text-anchor="middle" x="356.522" y="-76.5" font-family="Helvetica,sans-Serif" font-size="10.00" fill="#000000">/formalbonds/fpt.hpp</text>
</a>
</g>
</g>
<!-- Node7&#45;&gt;Node11 -->
<g id="edge6" class="edge">
<title>Node7&#45;&gt;Node11</title>
<path fill="none" stroke="#191970" d="M342.4122,-130.5102C345.7781,-119.5344 349.4589,-107.5316 352.2169,-98.5382"/>
<polygon fill="#191970" stroke="#191970" points="339.0308,-129.5989 339.445,-140.1856 345.7232,-131.6513 339.0308,-129.5989"/>
</g>
<!-- Node13 -->
<g id="node9" class="node">
<title>Node13</title>
<g id="a_node9"><a xlink:href="formalbonds_2local__optimisation_8hpp.html" target="_top" xlink:title="include/indigox/algorithm\l/formalbonds/local_optimisation.hpp">
<polygon fill="#ffffff" stroke="#000000" points="475.7539,-70.5 475.7539,-98.5 651.29,-98.5 651.29,-70.5 475.7539,-70.5"/>
<text text-anchor="start" x="483.7539" y="-86.5" font-family="Helvetica,sans-Serif" font-size="10.00" fill="#000000">include/indigox/algorithm</text>
<text text-anchor="middle" x="563.522" y="-76.5" font-family="Helvetica,sans-Serif" font-size="10.00" fill="#000000">/formalbonds/local_optimisation.hpp</text>
</a>
</g>
</g>
<!-- Node7&#45;&gt;Node13 -->
<g id="edge9" class="edge">
<title>Node7&#45;&gt;Node13</title>
<path fill="none" stroke="#191970" d="M401.4573,-137.3472C439.9892,-124.7824 487.0404,-109.4397 520.4984,-98.5294"/>
<polygon fill="#191970" stroke="#191970" points="400.2802,-134.0495 391.858,-140.4774 402.4504,-140.7047 400.2802,-134.0495"/>
</g>
<!-- Node7&#45;&gt;Node15 -->
<g id="edge12" class="edge">
<title>Node7&#45;&gt;Node15</title>
<path fill="none" stroke="#191970" d="M255.687,-137.7178C216.1847,-126.6631 168.7317,-113.3833 131.1103,-102.8549"/>
<polygon fill="#191970" stroke="#191970" points="254.9745,-141.1528 265.5478,-140.4774 256.8611,-134.4118 254.9745,-141.1528"/>
</g>
<!-- Node8&#45;&gt;Node9 -->
<g id="edge4" class="edge">
<title>Node8&#45;&gt;Node9</title>
<path fill="none" stroke="#191970" d="M273.4973,-67.8513C277.2248,-66.8752 280.9221,-65.9181 284.522,-65 336.8971,-51.643 396.8537,-37.3927 439.4353,-27.4475"/>
<polygon fill="#191970" stroke="#191970" points="272.3796,-64.5264 263.6055,-70.4648 274.1678,-71.2941 272.3796,-64.5264"/>
</g>
<!-- Node10 -->
<g id="node6" class="node">
<title>Node10</title>
<g id="a_node6"><a xlink:href="astar_8cpp.html" target="_top" xlink:title="src/algorithm/formalbonds\l/astar.cpp">
<polygon fill="#ffffff" stroke="#000000" points="142,-.5 142,-28.5 273.0439,-28.5 273.0439,-.5 142,-.5"/>
<text text-anchor="start" x="150" y="-16.5" font-family="Helvetica,sans-Serif" font-size="10.00" fill="#000000">src/algorithm/formalbonds</text>
<text text-anchor="middle" x="207.522" y="-6.5" font-family="Helvetica,sans-Serif" font-size="10.00" fill="#000000">/astar.cpp</text>
</a>
</g>
</g>
<!-- Node8&#45;&gt;Node10 -->
<g id="edge5" class="edge">
<title>Node8&#45;&gt;Node10</title>
<path fill="none" stroke="#191970" d="M210.7772,-60.0725C210.0266,-49.5646 209.1758,-37.6536 208.5323,-28.6445"/>
<polygon fill="#191970" stroke="#191970" points="207.3065,-60.6093 211.5101,-70.3345 214.2887,-60.1105 207.3065,-60.6093"/>
</g>
<!-- Node11&#45;&gt;Node9 -->
<g id="edge7" class="edge">
<title>Node11&#45;&gt;Node9</title>
<path fill="none" stroke="#191970" d="M393.8341,-65.7097C416.9843,-54.0513 446.2501,-39.3132 467.4351,-28.6445"/>
<polygon fill="#191970" stroke="#191970" points="392.0078,-62.7106 384.6507,-70.3345 395.1563,-68.9626 392.0078,-62.7106"/>
</g>
<!-- Node12 -->
<g id="node8" class="node">
<title>Node12</title>
<g id="a_node8"><a xlink:href="fpt_8cpp.html" target="_top" xlink:title="src/algorithm/formalbonds\l/fpt.cpp">
<polygon fill="#ffffff" stroke="#000000" points="291,-.5 291,-28.5 422.0439,-28.5 422.0439,-.5 291,-.5"/>
<text text-anchor="start" x="299" y="-16.5" font-family="Helvetica,sans-Serif" font-size="10.00" fill="#000000">src/algorithm/formalbonds</text>
<text text-anchor="middle" x="356.522" y="-6.5" font-family="Helvetica,sans-Serif" font-size="10.00" fill="#000000">/fpt.cpp</text>
</a>
</g>
</g>
<!-- Node11&#45;&gt;Node12 -->
<g id="edge8" class="edge">
<title>Node11&#45;&gt;Node12</title>
<path fill="none" stroke="#191970" d="M356.522,-60.0725C356.522,-49.5646 356.522,-37.6536 356.522,-28.6445"/>
<polygon fill="#191970" stroke="#191970" points="353.0221,-60.3344 356.522,-70.3345 360.0221,-60.3345 353.0221,-60.3344"/>
</g>
<!-- Node13&#45;&gt;Node9 -->
<g id="edge10" class="edge">
<title>Node13&#45;&gt;Node9</title>
<path fill="none" stroke="#191970" d="M542.6533,-63.0175C531.8024,-51.8475 518.8431,-38.5071 509.2623,-28.6445"/>
<polygon fill="#191970" stroke="#191970" points="540.2828,-65.6004 549.7612,-70.3345 545.3038,-60.7229 540.2828,-65.6004"/>
</g>
<!-- Node13&#45;&gt;Node14 -->
<g id="edge11" class="edge">
<title>Node13&#45;&gt;Node14</title>
<path fill="none" stroke="#191970" d="M594.8371,-64.928C613.2847,-53.3983 636.2002,-39.0761 652.8908,-28.6445"/>
<polygon fill="#191970" stroke="#191970" points="592.8118,-62.0664 586.1868,-70.3345 596.5219,-68.0024 592.8118,-62.0664"/>
</g>
</g>
</svg>
