<?xml version="1.0" encoding="UTF-8" standalone="no"?>
<!DOCTYPE svg PUBLIC "-//W3C//DTD SVG 1.1//EN"
 "http://www.w3.org/Graphics/SVG/1.1/DTD/svg11.dtd">
<!-- Generated by graphviz version 2.40.1 (20161225.0304)
 -->
<!-- Title: src/classes/electron_graph.cpp Pages: 1 -->
<svg width="1148pt" height="212pt"
 viewBox="0.00 0.00 1148.27 212.00" xmlns="http://www.w3.org/2000/svg" xmlns:xlink="http://www.w3.org/1999/xlink">
<g id="graph0" class="graph" transform="scale(1 1) rotate(0) translate(4 208)">
<title>src/classes/electron_graph.cpp</title>
<polygon fill="#ffffff" stroke="transparent" points="-4,4 -4,-208 1144.2705,-208 1144.2705,4 -4,4"/>
<!-- Node0 -->
<g id="node1" class="node">
<title>Node0</title>
<polygon fill="#bfbfbf" stroke="#000000" points="533.064,-175.5 533.064,-203.5 636.8716,-203.5 636.8716,-175.5 533.064,-175.5"/>
<text text-anchor="start" x="541.064" y="-191.5" font-family="Helvetica,sans-Serif" font-size="10.00" fill="#000000">src/classes/electron</text>
<text text-anchor="middle" x="584.9678" y="-181.5" font-family="Helvetica,sans-Serif" font-size="10.00" fill="#000000">_graph.cpp</text>
</g>
<!-- Node1 -->
<g id="node2" class="node">
<title>Node1</title>
<g id="a_node2"><a xlink:href="electron__graph_8hpp.html" target="_top" xlink:title="indigox/classes/electron\l_graph.hpp">
<polygon fill="#ffffff" stroke="#000000" points="125.8843,-110.5 125.8843,-138.5 248.0513,-138.5 248.0513,-110.5 125.8843,-110.5"/>
<text text-anchor="start" x="133.8843" y="-126.5" font-family="Helvetica,sans-Serif" font-size="10.00" fill="#000000">indigox/classes/electron</text>
<text text-anchor="middle" x="186.9678" y="-116.5" font-family="Helvetica,sans-Serif" font-size="10.00" fill="#000000">_graph.hpp</text>
</a>
</g>
</g>
<!-- Node0&#45;&gt;Node1 -->
<g id="edge1" class="edge">
<title>Node0&#45;&gt;Node1</title>
<path fill="none" stroke="#191970" d="M532.8463,-181.9391C468.9183,-172.5299 357.2944,-155.6614 261.9678,-139 260.7185,-138.7817 259.458,-138.5594 258.1887,-138.3338"/>
<polygon fill="#191970" stroke="#191970" points="258.7932,-134.8864 248.3296,-136.5492 257.5463,-141.7745 258.7932,-134.8864"/>
</g>
<!-- Node5 -->
<g id="node6" class="node">
<title>Node5</title>
<polygon fill="#ffffff" stroke="#bfbfbf" points="273.7954,-55.5 273.7954,-73.5 328.1401,-73.5 328.1401,-55.5 273.7954,-55.5"/>
<text text-anchor="middle" x="300.9678" y="-61.5" font-family="Helvetica,sans-Serif" font-size="10.00" fill="#000000">iostream</text>
</g>
<!-- Node0&#45;&gt;Node5 -->
<g id="edge28" class="edge">
<title>Node0&#45;&gt;Node5</title>
<path fill="none" stroke="#191970" d="M532.8554,-188.1641C457.7447,-185.0148 324.7754,-174.4468 294.9678,-139 282.0885,-123.6841 286.904,-99.7848 292.7691,-83.2019"/>
<polygon fill="#191970" stroke="#191970" points="296.1733,-84.1111 296.5993,-73.5249 289.6646,-81.5349 296.1733,-84.1111"/>
</g>
<!-- Node6 -->
<g id="node7" class="node">
<title>Node6</title>
<g id="a_node7"><a xlink:href="atom_8hpp.html" target="_top" xlink:title="indigox/classes/atom.hpp">
<polygon fill="#ffffff" stroke="#000000" points="303.8252,-115.5 303.8252,-133.5 432.1104,-133.5 432.1104,-115.5 303.8252,-115.5"/>
<text text-anchor="middle" x="367.9678" y="-121.5" font-family="Helvetica,sans-Serif" font-size="10.00" fill="#000000">indigox/classes/atom.hpp</text>
</a>
</g>
</g>
<!-- Node0&#45;&gt;Node6 -->
<g id="edge6" class="edge">
<title>Node0&#45;&gt;Node6</title>
<path fill="none" stroke="#191970" d="M538.1492,-175.476C499.3138,-163.8433 444.6914,-147.4817 407.8965,-136.4602"/>
<polygon fill="#191970" stroke="#191970" points="408.6029,-133.0182 398.0191,-133.5016 406.5943,-139.7239 408.6029,-133.0182"/>
</g>
<!-- Node11 -->
<g id="node12" class="node">
<title>Node11</title>
<polygon fill="#ffffff" stroke="#bfbfbf" points="449.9976,-110.5 449.9976,-138.5 579.938,-138.5 579.938,-110.5 449.9976,-110.5"/>
<text text-anchor="start" x="457.9976" y="-126.5" font-family="Helvetica,sans-Serif" font-size="10.00" fill="#000000">indigox/classes/molecular</text>
<text text-anchor="middle" x="514.9678" y="-116.5" font-family="Helvetica,sans-Serif" font-size="10.00" fill="#000000">_graph.hpp</text>
</g>
<!-- Node0&#45;&gt;Node11 -->
<g id="edge13" class="edge">
<title>Node0&#45;&gt;Node11</title>
<path fill="none" stroke="#191970" d="M569.7788,-175.396C560.4224,-166.7079 548.2497,-155.4046 537.7529,-145.6576"/>
<polygon fill="#191970" stroke="#191970" points="539.8366,-142.8163 530.1271,-138.5765 535.0735,-147.9458 539.8366,-142.8163"/>
</g>
<!-- Node12 -->
<g id="node13" class="node">
<title>Node12</title>
<polygon fill="#ffffff" stroke="#bfbfbf" points="597.9336,-115.5 597.9336,-133.5 714.002,-133.5 714.002,-115.5 597.9336,-115.5"/>
<text text-anchor="middle" x="655.9678" y="-121.5" font-family="Helvetica,sans-Serif" font-size="10.00" fill="#000000">indigox/utils/graph.hpp</text>
</g>
<!-- Node0&#45;&gt;Node12 -->
<g id="edge14" class="edge">
<title>Node0&#45;&gt;Node12</title>
<path fill="none" stroke="#191970" d="M600.3737,-175.396C611.6404,-165.0814 626.9335,-151.0807 638.6281,-140.3743"/>
<polygon fill="#191970" stroke="#191970" points="641.0434,-142.9084 646.0558,-133.5743 636.3166,-137.7453 641.0434,-142.9084"/>
</g>
<!-- Node13 -->
<g id="node14" class="node">
<title>Node13</title>
<polygon fill="#ffffff" stroke="#bfbfbf" points="731.5986,-115.5 731.5986,-133.5 854.3369,-133.5 854.3369,-115.5 731.5986,-115.5"/>
<text text-anchor="middle" x="792.9678" y="-121.5" font-family="Helvetica,sans-Serif" font-size="10.00" fill="#000000">indigox/utils/options.hpp</text>
</g>
<!-- Node0&#45;&gt;Node13 -->
<g id="edge15" class="edge">
<title>Node0&#45;&gt;Node13</title>
<path fill="none" stroke="#191970" d="M629.8446,-175.476C666.9102,-163.893 718.979,-147.6215 754.242,-136.6018"/>
<polygon fill="#191970" stroke="#191970" points="755.662,-139.8251 764.1628,-133.5016 753.574,-133.1437 755.662,-139.8251"/>
</g>
<!-- Node14 -->
<g id="node15" class="node">
<title>Node14</title>
<g id="a_node15"><a xlink:href="periodictable_8hpp.html" target="_top" xlink:title="indigox/classes/periodictable.hpp">
<polygon fill="#ffffff" stroke="#000000" points="872.5889,-115.5 872.5889,-133.5 1035.3467,-133.5 1035.3467,-115.5 872.5889,-115.5"/>
<text text-anchor="middle" x="953.9678" y="-121.5" font-family="Helvetica,sans-Serif" font-size="10.00" fill="#000000">indigox/classes/periodictable.hpp</text>
</a>
</g>
</g>
<!-- Node0&#45;&gt;Node14 -->
<g id="edge16" class="edge">
<title>Node0&#45;&gt;Node14</title>
<path fill="none" stroke="#191970" d="M637.0538,-180.3249C704.2731,-168.4842 821.0545,-147.9129 892.534,-135.3217"/>
<polygon fill="#191970" stroke="#191970" points="893.499,-138.7056 902.7402,-133.5238 892.2846,-131.8118 893.499,-138.7056"/>
</g>
<!-- Node22 -->
<g id="node23" class="node">
<title>Node22</title>
<polygon fill="#ffffff" stroke="#bfbfbf" points="1053.665,-115.5 1053.665,-133.5 1140.2705,-133.5 1140.2705,-115.5 1053.665,-115.5"/>
<text text-anchor="middle" x="1096.9678" y="-121.5" font-family="Helvetica,sans-Serif" font-size="10.00" fill="#000000">unordered_map</text>
</g>
<!-- Node0&#45;&gt;Node22 -->
<g id="edge29" class="edge">
<title>Node0&#45;&gt;Node22</title>
<path fill="none" stroke="#191970" d="M636.9896,-186.4538C722.5059,-180.849 897.8846,-166.8396 1043.9678,-139 1048.356,-138.1637 1052.9122,-137.1482 1057.4281,-136.047"/>
<polygon fill="#191970" stroke="#191970" points="1058.3594,-139.4215 1067.169,-133.5358 1056.6119,-132.6431 1058.3594,-139.4215"/>
</g>
<!-- Node2 -->
<g id="node3" class="node">
<title>Node2</title>
<polygon fill="#ffffff" stroke="#bfbfbf" points="0,-55.5 0,-73.5 89.9355,-73.5 89.9355,-55.5 0,-55.5"/>
<text text-anchor="middle" x="44.9678" y="-61.5" font-family="Helvetica,sans-Serif" font-size="10.00" fill="#000000">../utils/graph.hpp</text>
</g>
<!-- Node1&#45;&gt;Node2 -->
<g id="edge2" class="edge">
<title>Node1&#45;&gt;Node2</title>
<path fill="none" stroke="#191970" d="M153.6751,-110.4327C130.1484,-100.4918 98.8401,-87.263 75.8665,-77.5558"/>
<polygon fill="#191970" stroke="#191970" points="77.1517,-74.2993 66.5779,-73.6311 74.4271,-80.7473 77.1517,-74.2993"/>
</g>
<!-- Node3 -->
<g id="node4" class="node">
<title>Node3</title>
<polygon fill="#ffffff" stroke="#bfbfbf" points="107.9927,-55.5 107.9927,-73.5 217.9429,-73.5 217.9429,-55.5 107.9927,-55.5"/>
<text text-anchor="middle" x="162.9678" y="-61.5" font-family="Helvetica,sans-Serif" font-size="10.00" fill="#000000">molecular_graph.hpp</text>
</g>
<!-- Node1&#45;&gt;Node3 -->
<g id="edge3" class="edge">
<title>Node1&#45;&gt;Node3</title>
<path fill="none" stroke="#191970" d="M181.2801,-110.2808C178.0122,-102.1112 173.8713,-91.7588 170.3541,-82.9658"/>
<polygon fill="#191970" stroke="#191970" points="173.5651,-81.5691 166.6014,-73.5842 167.0657,-84.1689 173.5651,-81.5691"/>
</g>
<!-- Node4 -->
<g id="node5" class="node">
<title>Node4</title>
<polygon fill="#ffffff" stroke="#bfbfbf" points="548.5171,-.5 548.5171,-18.5 593.4185,-18.5 593.4185,-.5 548.5171,-.5"/>
<text text-anchor="middle" x="570.9678" y="-6.5" font-family="Helvetica,sans-Serif" font-size="10.00" fill="#000000">cstdint</text>
</g>
<!-- Node1&#45;&gt;Node4 -->
<g id="edge4" class="edge">
<title>Node1&#45;&gt;Node4</title>
<path fill="none" stroke="#191970" d="M198.2512,-110.377C212.1052,-94.1196 237.2055,-67.9928 264.9678,-55 313.1053,-32.4716 469.7016,-17.5821 538.2884,-11.985"/>
<polygon fill="#191970" stroke="#191970" points="538.8216,-15.4537 548.5104,-11.1668 538.263,-8.476 538.8216,-15.4537"/>
</g>
<!-- Node1&#45;&gt;Node5 -->
<g id="edge5" class="edge">
<title>Node1&#45;&gt;Node5</title>
<path fill="none" stroke="#191970" d="M213.6957,-110.4327C232.0774,-100.7581 256.3761,-87.9693 274.6655,-78.3433"/>
<polygon fill="#191970" stroke="#191970" points="276.3997,-81.3858 283.6188,-73.6311 273.1394,-75.1914 276.3997,-81.3858"/>
</g>
<!-- Node7 -->
<g id="node8" class="node">
<title>Node7</title>
<g id="a_node8"><a xlink:href="fwd__declares_8hpp.html" target="_top" xlink:title="../utils/fwd_declares.hpp">
<polygon fill="#ffffff" stroke="#000000" points="509.3276,-55.5 509.3276,-73.5 632.6079,-73.5 632.6079,-55.5 509.3276,-55.5"/>
<text text-anchor="middle" x="570.9678" y="-61.5" font-family="Helvetica,sans-Serif" font-size="10.00" fill="#000000">../utils/fwd_declares.hpp</text>
</a>
</g>
</g>
<!-- Node6&#45;&gt;Node7 -->
<g id="edge7" class="edge">
<title>Node6&#45;&gt;Node7</title>
<path fill="none" stroke="#191970" d="M398.7991,-115.3873C434.0277,-104.9749 491.804,-87.8982 530.5962,-76.4325"/>
<polygon fill="#191970" stroke="#191970" points="531.9136,-79.6929 540.5114,-73.5019 529.9295,-72.9799 531.9136,-79.6929"/>
</g>
<!-- Node8 -->
<g id="node9" class="node">
<title>Node8</title>
<polygon fill="#ffffff" stroke="#bfbfbf" points="634.9111,-.5 634.9111,-18.5 687.0244,-18.5 687.0244,-.5 634.9111,-.5"/>
<text text-anchor="middle" x="660.9678" y="-6.5" font-family="Helvetica,sans-Serif" font-size="10.00" fill="#000000">memory</text>
</g>
<!-- Node6&#45;&gt;Node8 -->
<g id="edge11" class="edge">
<title>Node6&#45;&gt;Node8</title>
<path fill="none" stroke="#191970" d="M412.7248,-115.4713C422.0522,-113.6287 431.8261,-111.7264 440.9678,-110 530.1463,-93.1586 574.3865,-134.5741 641.9678,-74 654.5887,-62.6876 659.0053,-43.4605 660.4641,-28.9346"/>
<polygon fill="#191970" stroke="#191970" points="663.9831,-28.7292 661.1,-18.5341 656.9961,-28.3018 663.9831,-28.7292"/>
</g>
<!-- Node9 -->
<g id="node10" class="node">
<title>Node9</title>
<polygon fill="#ffffff" stroke="#bfbfbf" points="407.3374,-55.5 407.3374,-73.5 480.5981,-73.5 480.5981,-55.5 407.3374,-55.5"/>
<text text-anchor="middle" x="443.9678" y="-61.5" font-family="Helvetica,sans-Serif" font-size="10.00" fill="#000000">Eigen/Dense</text>
</g>
<!-- Node6&#45;&gt;Node9 -->
<g id="edge10" class="edge">
<title>Node6&#45;&gt;Node9</title>
<path fill="none" stroke="#191970" d="M379.5105,-115.3873C391.34,-106.0483 409.9602,-91.3481 424.1523,-80.1438"/>
<polygon fill="#191970" stroke="#191970" points="426.6363,-82.642 432.3164,-73.6985 422.2988,-77.1479 426.6363,-82.642"/>
</g>
<!-- Node10 -->
<g id="node11" class="node">
<title>Node10</title>
<polygon fill="#ffffff" stroke="#bfbfbf" points="346.3521,-55.5 346.3521,-73.5 389.5835,-73.5 389.5835,-55.5 346.3521,-55.5"/>
<text text-anchor="middle" x="367.9678" y="-61.5" font-family="Helvetica,sans-Serif" font-size="10.00" fill="#000000">vector</text>
</g>
<!-- Node6&#45;&gt;Node10 -->
<g id="edge12" class="edge">
<title>Node6&#45;&gt;Node10</title>
<path fill="none" stroke="#191970" d="M367.9678,-115.3873C367.9678,-107.0174 367.9678,-94.3414 367.9678,-83.735"/>
<polygon fill="#191970" stroke="#191970" points="371.4679,-83.6984 367.9678,-73.6985 364.4679,-83.6985 371.4679,-83.6984"/>
</g>
<!-- Node7&#45;&gt;Node4 -->
<g id="edge8" class="edge">
<title>Node7&#45;&gt;Node4</title>
<path fill="none" stroke="#191970" d="M570.9678,-55.4179C570.9678,-48.2164 570.9678,-37.8962 570.9678,-28.8632"/>
<polygon fill="#191970" stroke="#191970" points="574.4679,-28.7794 570.9678,-18.7795 567.4679,-28.7795 574.4679,-28.7794"/>
</g>
<!-- Node7&#45;&gt;Node8 -->
<g id="edge9" class="edge">
<title>Node7&#45;&gt;Node8</title>
<path fill="none" stroke="#191970" d="M585.8294,-55.4179C599.7692,-46.8992 620.8498,-34.0166 637.1379,-24.0627"/>
<polygon fill="#191970" stroke="#191970" points="639.3763,-26.7967 646.084,-18.5956 635.7261,-20.8237 639.3763,-26.7967"/>
</g>
<!-- Node14&#45;&gt;Node4 -->
<g id="edge26" class="edge">
<title>Node14&#45;&gt;Node4</title>
<path fill="none" stroke="#191970" d="M915.819,-115.457C876.5285,-105.9362 813.6324,-90.1175 759.9678,-74 704.424,-57.3181 640.7732,-34.8984 603.324,-21.3615"/>
<polygon fill="#191970" stroke="#191970" points="604.0789,-17.9122 593.4847,-17.7911 601.6911,-24.4923 604.0789,-17.9122"/>
</g>
<!-- Node14&#45;&gt;Node5 -->
<g id="edge27" class="edge">
<title>Node14&#45;&gt;Node5</title>
<path fill="none" stroke="#191970" d="M902.5836,-115.4879C889.6812,-113.4524 875.8432,-111.4634 862.9678,-110 633.439,-83.912 569.969,-111.2686 338.4505,-73.9524"/>
<polygon fill="#191970" stroke="#191970" points="338.8029,-70.4636 328.3692,-72.304 337.6733,-77.3719 338.8029,-70.4636"/>
</g>
<!-- Node14&#45;&gt;Node7 -->
<g id="edge23" class="edge">
<title>Node14&#45;&gt;Node7</title>
<path fill="none" stroke="#191970" d="M897.6626,-115.4974C886.184,-113.6707 874.1878,-111.7681 862.9678,-110 786.3131,-97.9207 698.3086,-84.2322 639.1235,-75.0524"/>
<polygon fill="#191970" stroke="#191970" points="639.5671,-71.5795 629.1489,-73.5057 638.4944,-78.4968 639.5671,-71.5795"/>
</g>
<!-- Node15 -->
<g id="node16" class="node">
<title>Node15</title>
<g id="a_node16"><a xlink:href="common_8hpp.html" target="_top" xlink:title="../utils/common.hpp">
<polygon fill="#ffffff" stroke="#000000" points="768.6157,-55.5 768.6157,-73.5 871.3198,-73.5 871.3198,-55.5 768.6157,-55.5"/>
<text text-anchor="middle" x="819.9678" y="-61.5" font-family="Helvetica,sans-Serif" font-size="10.00" fill="#000000">../utils/common.hpp</text>
</a>
</g>
</g>
<!-- Node14&#45;&gt;Node15 -->
<g id="edge17" class="edge">
<title>Node14&#45;&gt;Node15</title>
<path fill="none" stroke="#191970" d="M933.6161,-115.3873C911.1534,-105.3294 874.8031,-89.0531 849.2746,-77.6225"/>
<polygon fill="#191970" stroke="#191970" points="850.6292,-74.3942 840.072,-73.5019 847.7685,-80.783 850.6292,-74.3942"/>
</g>
<!-- Node20 -->
<g id="node21" class="node">
<title>Node20</title>
<polygon fill="#ffffff" stroke="#bfbfbf" points="895.4458,-55.5 895.4458,-73.5 1006.4897,-73.5 1006.4897,-55.5 895.4458,-55.5"/>
<text text-anchor="middle" x="950.9678" y="-61.5" font-family="Helvetica,sans-Serif" font-size="10.00" fill="#000000">EASTL/vector_map.h</text>
</g>
<!-- Node14&#45;&gt;Node20 -->
<g id="edge24" class="edge">
<title>Node14&#45;&gt;Node20</title>
<path fill="none" stroke="#191970" d="M953.5121,-115.3873C953.0936,-107.0174 952.4598,-94.3414 951.9295,-83.735"/>
<polygon fill="#191970" stroke="#191970" points="955.4228,-83.5112 951.4277,-73.6985 948.4315,-83.8608 955.4228,-83.5112"/>
</g>
<!-- Node21 -->
<g id="node22" class="node">
<title>Node21</title>
<polygon fill="#ffffff" stroke="#bfbfbf" points="1024.5762,-55.5 1024.5762,-73.5 1063.3594,-73.5 1063.3594,-55.5 1024.5762,-55.5"/>
<text text-anchor="middle" x="1043.9678" y="-61.5" font-family="Helvetica,sans-Serif" font-size="10.00" fill="#000000">array</text>
</g>
<!-- Node14&#45;&gt;Node21 -->
<g id="edge25" class="edge">
<title>Node14&#45;&gt;Node21</title>
<path fill="none" stroke="#191970" d="M967.6368,-115.3873C981.9926,-105.8168 1004.7939,-90.6159 1021.7422,-79.3171"/>
<polygon fill="#191970" stroke="#191970" points="1024.0859,-81.9611 1030.465,-73.5019 1020.203,-76.1367 1024.0859,-81.9611"/>
</g>
<!-- Node15&#45;&gt;Node8 -->
<g id="edge20" class="edge">
<title>Node15&#45;&gt;Node8</title>
<path fill="none" stroke="#191970" d="M793.7122,-55.4179C767.1648,-46.2348 725.9576,-31.9807 696.4996,-21.7909"/>
<polygon fill="#191970" stroke="#191970" points="697.5929,-18.4656 686.9981,-18.5042 695.3045,-25.081 697.5929,-18.4656"/>
</g>
<!-- Node16 -->
<g id="node17" class="node">
<title>Node16</title>
<polygon fill="#ffffff" stroke="#bfbfbf" points="866.4038,-.5 866.4038,-18.5 923.5317,-18.5 923.5317,-.5 866.4038,-.5"/>
<text text-anchor="middle" x="894.9678" y="-6.5" font-family="Helvetica,sans-Serif" font-size="10.00" fill="#000000">algorithm</text>
</g>
<!-- Node15&#45;&gt;Node16 -->
<g id="edge18" class="edge">
<title>Node15&#45;&gt;Node16</title>
<path fill="none" stroke="#191970" d="M832.3525,-55.4179C843.7518,-47.0584 860.8815,-34.4966 874.3443,-24.6239"/>
<polygon fill="#191970" stroke="#191970" points="876.5704,-27.3317 882.5646,-18.5956 872.4308,-21.6869 876.5704,-27.3317"/>
</g>
<!-- Node17 -->
<g id="node18" class="node">
<title>Node17</title>
<polygon fill="#ffffff" stroke="#bfbfbf" points="941.4063,-.5 941.4063,-18.5 988.5293,-18.5 988.5293,-.5 941.4063,-.5"/>
<text text-anchor="middle" x="964.9678" y="-6.5" font-family="Helvetica,sans-Serif" font-size="10.00" fill="#000000">iterator</text>
</g>
<!-- Node15&#45;&gt;Node17 -->
<g id="edge19" class="edge">
<title>Node15&#45;&gt;Node17</title>
<path fill="none" stroke="#191970" d="M843.9116,-55.4179C867.8393,-46.3419 904.8262,-32.3123 931.6209,-22.1488"/>
<polygon fill="#191970" stroke="#191970" points="932.8797,-25.4147 940.9884,-18.5956 930.3971,-18.8697 932.8797,-25.4147"/>
</g>
<!-- Node18 -->
<g id="node19" class="node">
<title>Node18</title>
<polygon fill="#ffffff" stroke="#bfbfbf" points="727.7412,-.5 727.7412,-18.5 768.1943,-18.5 768.1943,-.5 727.7412,-.5"/>
<text text-anchor="middle" x="747.9678" y="-6.5" font-family="Helvetica,sans-Serif" font-size="10.00" fill="#000000">string</text>
</g>
<!-- Node15&#45;&gt;Node18 -->
<g id="edge21" class="edge">
<title>Node15&#45;&gt;Node18</title>
<path fill="none" stroke="#191970" d="M808.0784,-55.4179C797.3042,-47.1876 781.1976,-34.8839 768.3681,-25.0836"/>
<polygon fill="#191970" stroke="#191970" points="770.1868,-22.0685 760.1154,-18.7795 765.9375,-27.6313 770.1868,-22.0685"/>
</g>
<!-- Node19 -->
<g id="node20" class="node">
<title>Node19</title>
<polygon fill="#ffffff" stroke="#bfbfbf" points="785.9014,-.5 785.9014,-18.5 848.0342,-18.5 848.0342,-.5 785.9014,-.5"/>
<text text-anchor="middle" x="816.9678" y="-6.5" font-family="Helvetica,sans-Serif" font-size="10.00" fill="#000000">type_traits</text>
</g>
<!-- Node15&#45;&gt;Node19 -->
<g id="edge22" class="edge">
<title>Node15&#45;&gt;Node19</title>
<path fill="none" stroke="#191970" d="M819.4724,-55.4179C819.0796,-48.2164 818.5167,-37.8962 818.0239,-28.8632"/>
<polygon fill="#191970" stroke="#191970" points="821.5135,-28.574 817.4739,-18.7795 814.5239,-28.9553 821.5135,-28.574"/>
</g>
</g>
</svg>
