<?xml version="1.0" encoding="UTF-8" standalone="no"?>
<!DOCTYPE svg PUBLIC "-//W3C//DTD SVG 1.1//EN"
 "http://www.w3.org/Graphics/SVG/1.1/DTD/svg11.dtd">
<!-- Generated by graphviz version 2.40.1 (20161225.0304)
 -->
<!-- Title: include/indigox/algorithm/electron_optimisation.hpp Pages: 1 -->
<svg width="141pt" height="102pt"
 viewBox="0.00 0.00 140.74 102.00" xmlns="http://www.w3.org/2000/svg" xmlns:xlink="http://www.w3.org/1999/xlink">
<g id="graph0" class="graph" transform="scale(1 1) rotate(0) translate(4 98)">
<title>include/indigox/algorithm/electron_optimisation.hpp</title>
<polygon fill="#ffffff" stroke="transparent" points="-4,4 -4,-98 136.7383,-98 136.7383,4 -4,4"/>
<!-- Node10 -->
<g id="node1" class="node">
<title>Node10</title>
<polygon fill="#bfbfbf" stroke="#000000" points="0,-65.5 0,-93.5 132.7383,-93.5 132.7383,-65.5 0,-65.5"/>
<text text-anchor="start" x="8" y="-81.5" font-family="Helvetica,sans-Serif" font-size="10.00" fill="#000000">include/indigox/algorithm</text>
<text text-anchor="middle" x="66.3691" y="-71.5" font-family="Helvetica,sans-Serif" font-size="10.00" fill="#000000">/electron_optimisation.hpp</text>
</g>
<!-- Node11 -->
<g id="node2" class="node">
<title>Node11</title>
<g id="a_node2"><a xlink:href="electron__optimisation_8cpp.html" target="_top" xlink:title="src/algorithm/electron\l_optimisation.cpp">
<polygon fill="#ffffff" stroke="#000000" points="10.5737,-.5 10.5737,-28.5 122.1646,-28.5 122.1646,-.5 10.5737,-.5"/>
<text text-anchor="start" x="18.5737" y="-16.5" font-family="Helvetica,sans-Serif" font-size="10.00" fill="#000000">src/algorithm/electron</text>
<text text-anchor="middle" x="66.3691" y="-6.5" font-family="Helvetica,sans-Serif" font-size="10.00" fill="#000000">_optimisation.cpp</text>
</a>
</g>
</g>
<!-- Node10&#45;&gt;Node11 -->
<g id="edge1" class="edge">
<title>Node10&#45;&gt;Node11</title>
<path fill="none" stroke="#191970" d="M66.3691,-55.1081C66.3691,-46.1539 66.3691,-36.3227 66.3691,-28.5765"/>
<polygon fill="#191970" stroke="#191970" points="62.8692,-55.3959 66.3691,-65.396 69.8692,-55.396 62.8692,-55.3959"/>
</g>
</g>
</svg>
