<?xml version="1.0" encoding="UTF-8" standalone="no"?>
<!DOCTYPE svg PUBLIC "-//W3C//DTD SVG 1.1//EN"
 "http://www.w3.org/Graphics/SVG/1.1/DTD/svg11.dtd">
<!-- Generated by graphviz version 2.40.1 (20161225.0304)
 -->
<!-- Title: include/indigox/algorithm/electron_optimisation.hpp Pages: 1 -->
<svg width="723pt" height="252pt"
 viewBox="0.00 0.00 723.04 252.00" xmlns="http://www.w3.org/2000/svg" xmlns:xlink="http://www.w3.org/1999/xlink">
<g id="graph0" class="graph" transform="scale(1 1) rotate(0) translate(4 248)">
<title>include/indigox/algorithm/electron_optimisation.hpp</title>
<polygon fill="#ffffff" stroke="transparent" points="-4,4 -4,-248 719.0439,-248 719.0439,4 -4,4"/>
<!-- Node10 -->
<g id="node1" class="node">
<title>Node10</title>
<polygon fill="#bfbfbf" stroke="#000000" points="317.1528,-215.5 317.1528,-243.5 449.8911,-243.5 449.8911,-215.5 317.1528,-215.5"/>
<text text-anchor="start" x="325.1528" y="-231.5" font-family="Helvetica,sans-Serif" font-size="10.00" fill="#000000">include/indigox/algorithm</text>
<text text-anchor="middle" x="383.522" y="-221.5" font-family="Helvetica,sans-Serif" font-size="10.00" fill="#000000">/electron_optimisation.hpp</text>
</g>
<!-- Node11 -->
<g id="node2" class="node">
<title>Node11</title>
<g id="a_node2"><a xlink:href="electron__optimisation__algorithm_8hpp.html" target="_top" xlink:title="include/indigox/algorithm\l/formalbonds/electron_optimisation\l_algorithm.hpp">
<polygon fill="#ffffff" stroke="#000000" points="297.9805,-140.5 297.9805,-178.5 469.0635,-178.5 469.0635,-140.5 297.9805,-140.5"/>
<text text-anchor="start" x="305.9805" y="-166.5" font-family="Helvetica,sans-Serif" font-size="10.00" fill="#000000">include/indigox/algorithm</text>
<text text-anchor="start" x="305.9805" y="-156.5" font-family="Helvetica,sans-Serif" font-size="10.00" fill="#000000">/formalbonds/electron_optimisation</text>
<text text-anchor="middle" x="383.522" y="-146.5" font-family="Helvetica,sans-Serif" font-size="10.00" fill="#000000">_algorithm.hpp</text>
</a>
</g>
</g>
<!-- Node10&#45;&gt;Node11 -->
<g id="edge1" class="edge">
<title>Node10&#45;&gt;Node11</title>
<path fill="none" stroke="#191970" d="M383.522,-205.0725C383.522,-196.4275 383.522,-186.8328 383.522,-178.6857"/>
<polygon fill="#191970" stroke="#191970" points="380.0221,-205.3344 383.522,-215.3345 387.0221,-205.3345 380.0221,-205.3344"/>
</g>
<!-- Node13 -->
<g id="node4" class="node">
<title>Node13</title>
<g id="a_node4"><a xlink:href="electron__optimisation_8cpp.html" target="_top" xlink:title="src/algorithm/electron\l_optimisation.cpp">
<polygon fill="#ffffff" stroke="#000000" points="148.7266,-.5 148.7266,-28.5 260.3174,-28.5 260.3174,-.5 148.7266,-.5"/>
<text text-anchor="start" x="156.7266" y="-16.5" font-family="Helvetica,sans-Serif" font-size="10.00" fill="#000000">src/algorithm/electron</text>
<text text-anchor="middle" x="204.522" y="-6.5" font-family="Helvetica,sans-Serif" font-size="10.00" fill="#000000">_optimisation.cpp</text>
</a>
</g>
</g>
<!-- Node10&#45;&gt;Node13 -->
<g id="edge12" class="edge">
<title>Node10&#45;&gt;Node13</title>
<path fill="none" stroke="#191970" d="M307.0091,-219.9158C237.8221,-206.7483 139.7831,-175.8514 92.522,-104 82.9966,-89.5186 83.1159,-79.5592 92.522,-65 105.1384,-45.4717 127.3156,-33.4178 148.6248,-26.0137"/>
<polygon fill="#191970" stroke="#191970" points="306.5333,-223.3866 316.9983,-221.7327 307.786,-216.4996 306.5333,-223.3866"/>
</g>
<!-- Node19 -->
<g id="node10" class="node">
<title>Node19</title>
<g id="a_node10"><a xlink:href="electron__optimisation__algorithm_8cpp.html" target="_top" xlink:title="src/algorithm/formalbonds\l/electron_optimisation\l_algorithm.cpp">
<polygon fill="#ffffff" stroke="#000000" points="584,-65.5 584,-103.5 715.0439,-103.5 715.0439,-65.5 584,-65.5"/>
<text text-anchor="start" x="592" y="-91.5" font-family="Helvetica,sans-Serif" font-size="10.00" fill="#000000">src/algorithm/formalbonds</text>
<text text-anchor="start" x="592" y="-81.5" font-family="Helvetica,sans-Serif" font-size="10.00" fill="#000000">/electron_optimisation</text>
<text text-anchor="middle" x="649.522" y="-71.5" font-family="Helvetica,sans-Serif" font-size="10.00" fill="#000000">_algorithm.cpp</text>
</a>
</g>
</g>
<!-- Node10&#45;&gt;Node19 -->
<g id="edge13" class="edge">
<title>Node10&#45;&gt;Node19</title>
<path fill="none" stroke="#191970" d="M419.1358,-210.7442C436.9987,-201.2922 458.9448,-189.612 478.522,-179 526.0849,-153.2181 580.76,-122.8792 615.2215,-103.6699"/>
<polygon fill="#191970" stroke="#191970" points="417.4067,-207.6992 410.201,-215.4664 420.6776,-213.888 417.4067,-207.6992"/>
</g>
<!-- Node12 -->
<g id="node3" class="node">
<title>Node12</title>
<g id="a_node3"><a xlink:href="astar_8hpp.html" target="_top" xlink:title="include/indigox/algorithm\l/formalbonds/astar.hpp">
<polygon fill="#ffffff" stroke="#000000" points="439.4902,-70.5 439.4902,-98.5 565.5537,-98.5 565.5537,-70.5 439.4902,-70.5"/>
<text text-anchor="start" x="447.4902" y="-86.5" font-family="Helvetica,sans-Serif" font-size="10.00" fill="#000000">include/indigox/algorithm</text>
<text text-anchor="middle" x="502.522" y="-76.5" font-family="Helvetica,sans-Serif" font-size="10.00" fill="#000000">/formalbonds/astar.hpp</text>
</a>
</g>
</g>
<!-- Node11&#45;&gt;Node12 -->
<g id="edge2" class="edge">
<title>Node11&#45;&gt;Node12</title>
<path fill="none" stroke="#191970" d="M422.3856,-135.0061C441.5154,-122.9495 463.8934,-108.8457 480.1324,-98.6111"/>
<polygon fill="#191970" stroke="#191970" points="420.4524,-132.0873 413.8586,-140.3803 424.1848,-138.0093 420.4524,-132.0873"/>
</g>
<!-- Node15 -->
<g id="node6" class="node">
<title>Node15</title>
<g id="a_node6"><a xlink:href="fpt_8hpp.html" target="_top" xlink:title="include/indigox/algorithm\l/formalbonds/fpt.hpp">
<polygon fill="#ffffff" stroke="#000000" points="101.4902,-70.5 101.4902,-98.5 227.5537,-98.5 227.5537,-70.5 101.4902,-70.5"/>
<text text-anchor="start" x="109.4902" y="-86.5" font-family="Helvetica,sans-Serif" font-size="10.00" fill="#000000">include/indigox/algorithm</text>
<text text-anchor="middle" x="164.522" y="-76.5" font-family="Helvetica,sans-Serif" font-size="10.00" fill="#000000">/formalbonds/fpt.hpp</text>
</a>
</g>
</g>
<!-- Node11&#45;&gt;Node15 -->
<g id="edge5" class="edge">
<title>Node11&#45;&gt;Node15</title>
<path fill="none" stroke="#191970" d="M318.3689,-137.1873C281.7672,-124.6525 237.2108,-109.3934 205.4879,-98.5294"/>
<polygon fill="#191970" stroke="#191970" points="317.3813,-140.5486 327.9759,-140.4774 319.6493,-133.9262 317.3813,-140.5486"/>
</g>
<!-- Node17 -->
<g id="node8" class="node">
<title>Node17</title>
<g id="a_node8"><a xlink:href="formalbonds_2local__optimisation_8hpp.html" target="_top" xlink:title="include/indigox/algorithm\l/formalbonds/local_optimisation.hpp">
<polygon fill="#ffffff" stroke="#000000" points="245.7539,-70.5 245.7539,-98.5 421.29,-98.5 421.29,-70.5 245.7539,-70.5"/>
<text text-anchor="start" x="253.7539" y="-86.5" font-family="Helvetica,sans-Serif" font-size="10.00" fill="#000000">include/indigox/algorithm</text>
<text text-anchor="middle" x="333.522" y="-76.5" font-family="Helvetica,sans-Serif" font-size="10.00" fill="#000000">/formalbonds/local_optimisation.hpp</text>
</a>
</g>
</g>
<!-- Node11&#45;&gt;Node17 -->
<g id="edge8" class="edge">
<title>Node11&#45;&gt;Node17</title>
<path fill="none" stroke="#191970" d="M365.0878,-131.8488C357.5348,-120.5192 349.1211,-107.8987 342.8808,-98.5382"/>
<polygon fill="#191970" stroke="#191970" points="362.1865,-133.8066 370.6457,-140.1856 368.0109,-129.9237 362.1865,-133.8066"/>
</g>
<!-- Node11&#45;&gt;Node19 -->
<g id="edge11" class="edge">
<title>Node11&#45;&gt;Node19</title>
<path fill="none" stroke="#191970" d="M460.7386,-137.7284C499.7937,-126.7166 546.6865,-113.495 583.9658,-102.9839"/>
<polygon fill="#191970" stroke="#191970" points="459.6638,-134.3949 450.9889,-140.4774 461.5634,-141.1322 459.6638,-134.3949"/>
</g>
<!-- Node12&#45;&gt;Node13 -->
<g id="edge3" class="edge">
<title>Node12&#45;&gt;Node13</title>
<path fill="none" stroke="#191970" d="M442.1069,-67.9216C438.1914,-66.914 434.3041,-65.9319 430.522,-65 358.9074,-47.3548 340.4888,-45.1487 268.522,-29 265.8541,-28.4013 263.1239,-27.7875 260.3666,-27.1666"/>
<polygon fill="#191970" stroke="#191970" points="441.2946,-71.3268 451.8543,-70.4649 443.0619,-64.5535 441.2946,-71.3268"/>
</g>
<!-- Node14 -->
<g id="node5" class="node">
<title>Node14</title>
<g id="a_node5"><a xlink:href="astar_8cpp.html" target="_top" xlink:title="src/algorithm/formalbonds\l/astar.cpp">
<polygon fill="#ffffff" stroke="#000000" points="437,-.5 437,-28.5 568.0439,-28.5 568.0439,-.5 437,-.5"/>
<text text-anchor="start" x="445" y="-16.5" font-family="Helvetica,sans-Serif" font-size="10.00" fill="#000000">src/algorithm/formalbonds</text>
<text text-anchor="middle" x="502.522" y="-6.5" font-family="Helvetica,sans-Serif" font-size="10.00" fill="#000000">/astar.cpp</text>
</a>
</g>
</g>
<!-- Node12&#45;&gt;Node14 -->
<g id="edge4" class="edge">
<title>Node12&#45;&gt;Node14</title>
<path fill="none" stroke="#191970" d="M502.522,-60.0725C502.522,-49.5646 502.522,-37.6536 502.522,-28.6445"/>
<polygon fill="#191970" stroke="#191970" points="499.0221,-60.3344 502.522,-70.3345 506.0221,-60.3345 499.0221,-60.3344"/>
</g>
<!-- Node15&#45;&gt;Node13 -->
<g id="edge6" class="edge">
<title>Node15&#45;&gt;Node13</title>
<path fill="none" stroke="#191970" d="M177.7265,-61.392C183.909,-50.5728 191.0746,-38.0329 196.4394,-28.6445"/>
<polygon fill="#191970" stroke="#191970" points="174.5392,-59.9155 172.6166,-70.3345 180.6169,-63.3885 174.5392,-59.9155"/>
</g>
<!-- Node16 -->
<g id="node7" class="node">
<title>Node16</title>
<g id="a_node7"><a xlink:href="fpt_8cpp.html" target="_top" xlink:title="src/algorithm/formalbonds\l/fpt.cpp">
<polygon fill="#ffffff" stroke="#000000" points="0,-.5 0,-28.5 131.0439,-28.5 131.0439,-.5 0,-.5"/>
<text text-anchor="start" x="8" y="-16.5" font-family="Helvetica,sans-Serif" font-size="10.00" fill="#000000">src/algorithm/formalbonds</text>
<text text-anchor="middle" x="65.522" y="-6.5" font-family="Helvetica,sans-Serif" font-size="10.00" fill="#000000">/fpt.cpp</text>
</a>
</g>
</g>
<!-- Node15&#45;&gt;Node16 -->
<g id="edge7" class="edge">
<title>Node15&#45;&gt;Node16</title>
<path fill="none" stroke="#191970" d="M135.9483,-64.2964C119.8006,-52.8788 100.0113,-38.8864 85.5263,-28.6445"/>
<polygon fill="#191970" stroke="#191970" points="134.3021,-67.4189 144.4878,-70.3345 138.3434,-61.7033 134.3021,-67.4189"/>
</g>
<!-- Node17&#45;&gt;Node13 -->
<g id="edge9" class="edge">
<title>Node17&#45;&gt;Node13</title>
<path fill="none" stroke="#191970" d="M298.6074,-65.5541C277.1682,-53.9204 250.1617,-39.2657 230.5882,-28.6445"/>
<polygon fill="#191970" stroke="#191970" points="296.9582,-68.6413 307.4169,-70.3345 300.2968,-62.4887 296.9582,-68.6413"/>
</g>
<!-- Node18 -->
<g id="node9" class="node">
<title>Node18</title>
<g id="a_node9"><a xlink:href="formalbonds_2local__optimisation_8cpp.html" target="_top" xlink:title="src/algorithm/formalbonds\l/local_optimisation.cpp">
<polygon fill="#ffffff" stroke="#000000" points="278,-.5 278,-28.5 409.0439,-28.5 409.0439,-.5 278,-.5"/>
<text text-anchor="start" x="286" y="-16.5" font-family="Helvetica,sans-Serif" font-size="10.00" fill="#000000">src/algorithm/formalbonds</text>
<text text-anchor="middle" x="343.522" y="-6.5" font-family="Helvetica,sans-Serif" font-size="10.00" fill="#000000">/local_optimisation.cpp</text>
</a>
</g>
</g>
<!-- Node17&#45;&gt;Node18 -->
<g id="edge10" class="edge">
<title>Node17&#45;&gt;Node18</title>
<path fill="none" stroke="#191970" d="M336.9643,-60.4038C338.4769,-49.8157 340.2008,-37.7484 341.5013,-28.6445"/>
<polygon fill="#191970" stroke="#191970" points="333.4951,-59.94 335.5456,-70.3345 340.4247,-60.93 333.4951,-59.94"/>
</g>
</g>
</svg>
