<?xml version="1.0" encoding="UTF-8" standalone="no"?>
<!DOCTYPE svg PUBLIC "-//W3C//DTD SVG 1.1//EN"
 "http://www.w3.org/Graphics/SVG/1.1/DTD/svg11.dtd">
<!-- Generated by graphviz version 2.40.1 (20161225.0304)
 -->
<!-- Title: include/indigox/classes/electron_graph.hpp Pages: 1 -->
<svg width="300pt" height="167pt"
 viewBox="0.00 0.00 300.27 167.00" xmlns="http://www.w3.org/2000/svg" xmlns:xlink="http://www.w3.org/1999/xlink">
<g id="graph0" class="graph" transform="scale(1 1) rotate(0) translate(4 163)">
<title>include/indigox/classes/electron_graph.hpp</title>
<polygon fill="#ffffff" stroke="transparent" points="-4,4 -4,-163 296.2729,-163 296.2729,4 -4,4"/>
<!-- Node5 -->
<g id="node1" class="node">
<title>Node5</title>
<polygon fill="#bfbfbf" stroke="#000000" points="101.229,-130.5 101.229,-158.5 219.5093,-158.5 219.5093,-130.5 101.229,-130.5"/>
<text text-anchor="start" x="109.229" y="-146.5" font-family="Helvetica,sans-Serif" font-size="10.00" fill="#000000">include/indigox/classes</text>
<text text-anchor="middle" x="160.3691" y="-136.5" font-family="Helvetica,sans-Serif" font-size="10.00" fill="#000000">/electron_graph.hpp</text>
</g>
<!-- Node6 -->
<g id="node2" class="node">
<title>Node6</title>
<g id="a_node2"><a xlink:href="electron__optimisation_8hpp.html" target="_top" xlink:title="include/indigox/algorithm\l/electron_optimisation.hpp">
<polygon fill="#ffffff" stroke="#000000" points="0,-65.5 0,-93.5 132.7383,-93.5 132.7383,-65.5 0,-65.5"/>
<text text-anchor="start" x="8" y="-81.5" font-family="Helvetica,sans-Serif" font-size="10.00" fill="#000000">include/indigox/algorithm</text>
<text text-anchor="middle" x="66.3691" y="-71.5" font-family="Helvetica,sans-Serif" font-size="10.00" fill="#000000">/electron_optimisation.hpp</text>
</a>
</g>
</g>
<!-- Node5&#45;&gt;Node6 -->
<g id="edge1" class="edge">
<title>Node5&#45;&gt;Node6</title>
<path fill="none" stroke="#191970" d="M131.3754,-124.4511C116.9146,-114.4517 99.7746,-102.5995 86.7259,-93.5765"/>
<polygon fill="#191970" stroke="#191970" points="129.7568,-127.5872 139.9725,-130.396 133.7381,-121.8296 129.7568,-127.5872"/>
</g>
<!-- Node7 -->
<g id="node3" class="node">
<title>Node7</title>
<g id="a_node3"><a xlink:href="electron__optimisation_8cpp.html" target="_top" xlink:title="src/algorithm/electron\l_optimisation.cpp">
<polygon fill="#ffffff" stroke="#000000" points="57.5737,-.5 57.5737,-28.5 169.1646,-28.5 169.1646,-.5 57.5737,-.5"/>
<text text-anchor="start" x="65.5737" y="-16.5" font-family="Helvetica,sans-Serif" font-size="10.00" fill="#000000">src/algorithm/electron</text>
<text text-anchor="middle" x="113.3691" y="-6.5" font-family="Helvetica,sans-Serif" font-size="10.00" fill="#000000">_optimisation.cpp</text>
</a>
</g>
</g>
<!-- Node5&#45;&gt;Node7 -->
<g id="edge3" class="edge">
<title>Node5&#45;&gt;Node7</title>
<path fill="none" stroke="#191970" d="M156.3428,-120.2201C153.2588,-104.2051 148.3397,-82.9491 141.3691,-65 136.361,-52.1041 128.6158,-38.4369 122.5397,-28.5773"/>
<polygon fill="#191970" stroke="#191970" points="152.9548,-121.1524 158.1873,-130.365 159.8419,-119.9001 152.9548,-121.1524"/>
</g>
<!-- Node8 -->
<g id="node4" class="node">
<title>Node8</title>
<g id="a_node4"><a xlink:href="electron__graph_8cpp.html" target="_top" xlink:title="src/classes/electron\l_graph.cpp">
<polygon fill="#ffffff" stroke="#000000" points="188.4653,-65.5 188.4653,-93.5 292.2729,-93.5 292.2729,-65.5 188.4653,-65.5"/>
<text text-anchor="start" x="196.4653" y="-81.5" font-family="Helvetica,sans-Serif" font-size="10.00" fill="#000000">src/classes/electron</text>
<text text-anchor="middle" x="240.3691" y="-71.5" font-family="Helvetica,sans-Serif" font-size="10.00" fill="#000000">_graph.cpp</text>
</a>
</g>
</g>
<!-- Node5&#45;&gt;Node8 -->
<g id="edge4" class="edge">
<title>Node5&#45;&gt;Node8</title>
<path fill="none" stroke="#191970" d="M185.7437,-123.8832C197.9009,-114.0054 212.1485,-102.4293 223.0442,-93.5765"/>
<polygon fill="#191970" stroke="#191970" points="183.282,-121.3736 177.7279,-130.396 187.6962,-126.8064 183.282,-121.3736"/>
</g>
<!-- Node6&#45;&gt;Node7 -->
<g id="edge2" class="edge">
<title>Node6&#45;&gt;Node7</title>
<path fill="none" stroke="#191970" d="M82.5245,-57.1575C89.3783,-47.6788 97.1588,-36.9186 103.1907,-28.5765"/>
<polygon fill="#191970" stroke="#191970" points="79.5907,-55.2416 76.5674,-65.396 85.2632,-59.3433 79.5907,-55.2416"/>
</g>
</g>
</svg>
