<?xml version="1.0" encoding="UTF-8" standalone="no"?>
<!DOCTYPE svg PUBLIC "-//W3C//DTD SVG 1.1//EN"
 "http://www.w3.org/Graphics/SVG/1.1/DTD/svg11.dtd">
<!-- Generated by graphviz version 2.40.1 (20161225.0304)
 -->
<!-- Title: include/indigox/algorithm/electron_optimisation.hpp Pages: 1 -->
<svg width="696pt" height="157pt"
 viewBox="0.00 0.00 695.58 157.00" xmlns="http://www.w3.org/2000/svg" xmlns:xlink="http://www.w3.org/1999/xlink">
<g id="graph0" class="graph" transform="scale(1 1) rotate(0) translate(4 153)">
<title>include/indigox/algorithm/electron_optimisation.hpp</title>
<polygon fill="#ffffff" stroke="transparent" points="-4,4 -4,-153 691.5835,-153 691.5835,4 -4,4"/>
<!-- Node0 -->
<g id="node1" class="node">
<title>Node0</title>
<polygon fill="#bfbfbf" stroke="#000000" points="389.5986,-120.5 389.5986,-148.5 522.3369,-148.5 522.3369,-120.5 389.5986,-120.5"/>
<text text-anchor="start" x="397.5986" y="-136.5" font-family="Helvetica,sans-Serif" font-size="10.00" fill="#000000">include/indigox/algorithm</text>
<text text-anchor="middle" x="455.9678" y="-126.5" font-family="Helvetica,sans-Serif" font-size="10.00" fill="#000000">/electron_optimisation.hpp</text>
</g>
<!-- Node1 -->
<g id="node2" class="node">
<title>Node1</title>
<g id="a_node2"><a xlink:href="electron__graph_8hpp.html" target="_top" xlink:title="../classes/electron\l_graph.hpp">
<polygon fill="#ffffff" stroke="#000000" points="206.9507,-55.5 206.9507,-83.5 302.9849,-83.5 302.9849,-55.5 206.9507,-55.5"/>
<text text-anchor="start" x="214.9507" y="-71.5" font-family="Helvetica,sans-Serif" font-size="10.00" fill="#000000">../classes/electron</text>
<text text-anchor="middle" x="254.9678" y="-61.5" font-family="Helvetica,sans-Serif" font-size="10.00" fill="#000000">_graph.hpp</text>
</a>
</g>
</g>
<!-- Node0&#45;&gt;Node1 -->
<g id="edge1" class="edge">
<title>Node0&#45;&gt;Node1</title>
<path fill="none" stroke="#191970" d="M412.3538,-120.396C381.8001,-110.5154 340.787,-97.2525 308.2882,-86.7429"/>
<polygon fill="#191970" stroke="#191970" points="309.0885,-83.3233 298.4967,-83.5765 306.9346,-89.9837 309.0885,-83.3233"/>
</g>
<!-- Node4 -->
<g id="node5" class="node">
<title>Node4</title>
<polygon fill="#ffffff" stroke="#bfbfbf" points="308.5171,-.5 308.5171,-18.5 353.4185,-18.5 353.4185,-.5 308.5171,-.5"/>
<text text-anchor="middle" x="330.9678" y="-6.5" font-family="Helvetica,sans-Serif" font-size="10.00" fill="#000000">cstdint</text>
</g>
<!-- Node0&#45;&gt;Node4 -->
<g id="edge7" class="edge">
<title>Node0&#45;&gt;Node4</title>
<path fill="none" stroke="#191970" d="M404.6633,-120.4337C384.9964,-112.6533 363.9465,-101.0079 349.9678,-84 337.1593,-68.416 332.852,-45.2688 331.4725,-28.9189"/>
<polygon fill="#191970" stroke="#191970" points="334.9632,-28.6538 330.9167,-18.8622 327.9739,-29.0402 334.9632,-28.6538"/>
</g>
<!-- Node6 -->
<g id="node7" class="node">
<title>Node6</title>
<polygon fill="#ffffff" stroke="#bfbfbf" points="359.064,-55.5 359.064,-83.5 462.8716,-83.5 462.8716,-55.5 359.064,-55.5"/>
<text text-anchor="start" x="367.064" y="-71.5" font-family="Helvetica,sans-Serif" font-size="10.00" fill="#000000">../classes/molecular</text>
<text text-anchor="middle" x="410.9678" y="-61.5" font-family="Helvetica,sans-Serif" font-size="10.00" fill="#000000">_graph.hpp</text>
</g>
<!-- Node0&#45;&gt;Node6 -->
<g id="edge6" class="edge">
<title>Node0&#45;&gt;Node6</title>
<path fill="none" stroke="#191970" d="M446.2034,-120.396C440.4245,-112.0486 432.9742,-101.2871 426.414,-91.8113"/>
<polygon fill="#191970" stroke="#191970" points="429.2829,-89.8062 420.713,-83.5765 423.5275,-93.7907 429.2829,-89.8062"/>
</g>
<!-- Node7 -->
<g id="node8" class="node">
<title>Node7</title>
<polygon fill="#ffffff" stroke="#bfbfbf" points="480.7412,-60.5 480.7412,-78.5 521.1943,-78.5 521.1943,-60.5 480.7412,-60.5"/>
<text text-anchor="middle" x="500.9678" y="-66.5" font-family="Helvetica,sans-Serif" font-size="10.00" fill="#000000">string</text>
</g>
<!-- Node0&#45;&gt;Node7 -->
<g id="edge8" class="edge">
<title>Node0&#45;&gt;Node7</title>
<path fill="none" stroke="#191970" d="M465.7321,-120.396C472.5297,-110.5773 481.6397,-97.4184 488.8935,-86.9406"/>
<polygon fill="#191970" stroke="#191970" points="491.8711,-88.7885 494.6856,-78.5743 486.1157,-84.804 491.8711,-88.7885"/>
</g>
<!-- Node8 -->
<g id="node9" class="node">
<title>Node8</title>
<polygon fill="#ffffff" stroke="#bfbfbf" points="539.665,-60.5 539.665,-78.5 626.2705,-78.5 626.2705,-60.5 539.665,-60.5"/>
<text text-anchor="middle" x="582.9678" y="-66.5" font-family="Helvetica,sans-Serif" font-size="10.00" fill="#000000">unordered_map</text>
</g>
<!-- Node0&#45;&gt;Node8 -->
<g id="edge9" class="edge">
<title>Node0&#45;&gt;Node8</title>
<path fill="none" stroke="#191970" d="M483.5249,-120.396C505.0345,-109.3871 534.7483,-94.1793 556.0841,-83.2594"/>
<polygon fill="#191970" stroke="#191970" points="557.9308,-86.2461 565.238,-78.5743 554.7415,-80.0148 557.9308,-86.2461"/>
</g>
<!-- Node9 -->
<g id="node10" class="node">
<title>Node9</title>
<polygon fill="#ffffff" stroke="#bfbfbf" points="644.3521,-60.5 644.3521,-78.5 687.5835,-78.5 687.5835,-60.5 644.3521,-60.5"/>
<text text-anchor="middle" x="665.9678" y="-66.5" font-family="Helvetica,sans-Serif" font-size="10.00" fill="#000000">vector</text>
</g>
<!-- Node0&#45;&gt;Node9 -->
<g id="edge10" class="edge">
<title>Node0&#45;&gt;Node9</title>
<path fill="none" stroke="#191970" d="M514.7796,-120.4809C550.0824,-111.4333 595.627,-98.6395 634.9678,-84 636.158,-83.5571 637.3657,-83.087 638.5795,-82.5975"/>
<polygon fill="#191970" stroke="#191970" points="640.038,-85.78 647.8189,-78.5892 637.252,-79.3582 640.038,-85.78"/>
</g>
<!-- Node2 -->
<g id="node3" class="node">
<title>Node2</title>
<polygon fill="#ffffff" stroke="#bfbfbf" points="0,-.5 0,-18.5 89.9355,-18.5 89.9355,-.5 0,-.5"/>
<text text-anchor="middle" x="44.9678" y="-6.5" font-family="Helvetica,sans-Serif" font-size="10.00" fill="#000000">../utils/graph.hpp</text>
</g>
<!-- Node1&#45;&gt;Node2 -->
<g id="edge2" class="edge">
<title>Node1&#45;&gt;Node2</title>
<path fill="none" stroke="#191970" d="M206.7895,-55.7348C170.4193,-45.3433 121.033,-31.2329 86.4177,-21.3428"/>
<polygon fill="#191970" stroke="#191970" points="87.2022,-17.927 76.6254,-18.545 85.2791,-24.6576 87.2022,-17.927"/>
</g>
<!-- Node3 -->
<g id="node4" class="node">
<title>Node3</title>
<polygon fill="#ffffff" stroke="#bfbfbf" points="107.9927,-.5 107.9927,-18.5 217.9429,-18.5 217.9429,-.5 107.9927,-.5"/>
<text text-anchor="middle" x="162.9678" y="-6.5" font-family="Helvetica,sans-Serif" font-size="10.00" fill="#000000">molecular_graph.hpp</text>
</g>
<!-- Node1&#45;&gt;Node3 -->
<g id="edge3" class="edge">
<title>Node1&#45;&gt;Node3</title>
<path fill="none" stroke="#191970" d="M233.1651,-55.2808C218.732,-45.868 199.856,-33.5575 185.3133,-24.0732"/>
<polygon fill="#191970" stroke="#191970" points="187.1849,-21.1153 176.8969,-18.5842 183.361,-26.9786 187.1849,-21.1153"/>
</g>
<!-- Node1&#45;&gt;Node4 -->
<g id="edge4" class="edge">
<title>Node1&#45;&gt;Node4</title>
<path fill="none" stroke="#191970" d="M272.9787,-55.2808C284.5642,-46.1344 299.6152,-34.252 311.48,-24.8851"/>
<polygon fill="#191970" stroke="#191970" points="313.7811,-27.5278 319.4611,-18.5842 309.4435,-22.0336 313.7811,-27.5278"/>
</g>
<!-- Node5 -->
<g id="node6" class="node">
<title>Node5</title>
<polygon fill="#ffffff" stroke="#bfbfbf" points="235.7954,-.5 235.7954,-18.5 290.1401,-18.5 290.1401,-.5 235.7954,-.5"/>
<text text-anchor="middle" x="262.9678" y="-6.5" font-family="Helvetica,sans-Serif" font-size="10.00" fill="#000000">iostream</text>
</g>
<!-- Node1&#45;&gt;Node5 -->
<g id="edge5" class="edge">
<title>Node1&#45;&gt;Node5</title>
<path fill="none" stroke="#191970" d="M256.8637,-55.2808C257.9293,-47.2888 259.2734,-37.2079 260.4289,-28.5414"/>
<polygon fill="#191970" stroke="#191970" points="263.9041,-28.9591 261.7565,-18.5842 256.9655,-28.0339 263.9041,-28.9591"/>
</g>
</g>
</svg>
