<?xml version="1.0" encoding="UTF-8" standalone="no"?>
<!DOCTYPE svg PUBLIC "-//W3C//DTD SVG 1.1//EN"
 "http://www.w3.org/Graphics/SVG/1.1/DTD/svg11.dtd">
<!-- Generated by graphviz version 2.40.1 (20161225.0304)
 -->
<!-- Title: include/indigox/algorithm/formalbonds/electron_optimisation_algorithm.hpp Pages: 1 -->
<svg width="618pt" height="232pt"
 viewBox="0.00 0.00 617.96 232.00" xmlns="http://www.w3.org/2000/svg" xmlns:xlink="http://www.w3.org/1999/xlink">
<g id="graph0" class="graph" transform="scale(1 1) rotate(0) translate(4 228)">
<title>include/indigox/algorithm/formalbonds/electron_optimisation_algorithm.hpp</title>
<polygon fill="#ffffff" stroke="transparent" points="-4,4 -4,-228 613.9614,-228 613.9614,4 -4,4"/>
<!-- Node0 -->
<g id="node1" class="node">
<title>Node0</title>
<polygon fill="#bfbfbf" stroke="#000000" points="33.2475,-185.5 33.2475,-223.5 204.3305,-223.5 204.3305,-185.5 33.2475,-185.5"/>
<text text-anchor="start" x="41.2475" y="-211.5" font-family="Helvetica,sans-Serif" font-size="10.00" fill="#000000">include/indigox/algorithm</text>
<text text-anchor="start" x="41.2475" y="-201.5" font-family="Helvetica,sans-Serif" font-size="10.00" fill="#000000">/formalbonds/electron_optimisation</text>
<text text-anchor="middle" x="118.789" y="-191.5" font-family="Helvetica,sans-Serif" font-size="10.00" fill="#000000">_algorithm.hpp</text>
</g>
<!-- Node1 -->
<g id="node2" class="node">
<title>Node1</title>
<polygon fill="#ffffff" stroke="#bfbfbf" points="96.3383,-.5 96.3383,-18.5 141.2397,-18.5 141.2397,-.5 96.3383,-.5"/>
<text text-anchor="middle" x="118.789" y="-6.5" font-family="Helvetica,sans-Serif" font-size="10.00" fill="#000000">cstdint</text>
</g>
<!-- Node0&#45;&gt;Node1 -->
<g id="edge1" class="edge">
<title>Node0&#45;&gt;Node1</title>
<path fill="none" stroke="#191970" d="M49.2101,-185.3851C31.7404,-177.1144 15.06,-165.4239 4.789,-149 -15.1551,-117.1083 37.4903,-55.3115 37.789,-55 51.5064,-40.6937 70.7181,-29.6381 86.9887,-22.0088"/>
<polygon fill="#191970" stroke="#191970" points="88.4593,-25.1853 96.165,-17.914 85.6067,-18.7929 88.4593,-25.1853"/>
</g>
<!-- Node2 -->
<g id="node3" class="node">
<title>Node2</title>
<polygon fill="#ffffff" stroke="#bfbfbf" points="14.0625,-125.5 14.0625,-143.5 49.5156,-143.5 49.5156,-125.5 14.0625,-125.5"/>
<text text-anchor="middle" x="31.789" y="-131.5" font-family="Helvetica,sans-Serif" font-size="10.00" fill="#000000">map</text>
</g>
<!-- Node0&#45;&gt;Node2 -->
<g id="edge2" class="edge">
<title>Node0&#45;&gt;Node2</title>
<path fill="none" stroke="#191970" d="M95.0159,-185.3722C81.149,-174.2149 63.8889,-160.3275 50.9076,-149.8828"/>
<polygon fill="#191970" stroke="#191970" points="53.0589,-147.1214 43.0736,-143.5795 48.6707,-152.5752 53.0589,-147.1214"/>
</g>
<!-- Node3 -->
<g id="node4" class="node">
<title>Node3</title>
<polygon fill="#ffffff" stroke="#bfbfbf" points="47.1733,-60.5 47.1733,-78.5 90.4048,-78.5 90.4048,-60.5 47.1733,-60.5"/>
<text text-anchor="middle" x="68.789" y="-66.5" font-family="Helvetica,sans-Serif" font-size="10.00" fill="#000000">vector</text>
</g>
<!-- Node0&#45;&gt;Node3 -->
<g id="edge3" class="edge">
<title>Node0&#45;&gt;Node3</title>
<path fill="none" stroke="#191970" d="M110.9689,-185.3071C106.6806,-174.6512 101.329,-161.1345 96.789,-149 89.1232,-128.5106 80.8617,-104.8397 75.3147,-88.6908"/>
<polygon fill="#191970" stroke="#191970" points="78.4952,-87.1744 71.9488,-78.8441 71.8715,-89.4387 78.4952,-87.1744"/>
</g>
<!-- Node4 -->
<g id="node5" class="node">
<title>Node4</title>
<polygon fill="#ffffff" stroke="#bfbfbf" points="105.8188,-120.5 105.8188,-148.5 215.7592,-148.5 215.7592,-120.5 105.8188,-120.5"/>
<text text-anchor="start" x="113.8188" y="-136.5" font-family="Helvetica,sans-Serif" font-size="10.00" fill="#000000">boost/dynamic_bitset</text>
<text text-anchor="middle" x="160.789" y="-126.5" font-family="Helvetica,sans-Serif" font-size="10.00" fill="#000000">/dynamic_bitset.hpp</text>
</g>
<!-- Node0&#45;&gt;Node4 -->
<g id="edge4" class="edge">
<title>Node0&#45;&gt;Node4</title>
<path fill="none" stroke="#191970" d="M130.2657,-185.3722C135.3852,-176.8398 141.4626,-166.7107 146.8416,-157.7457"/>
<polygon fill="#191970" stroke="#191970" points="149.981,-159.3161 152.1248,-148.9404 143.9786,-155.7146 149.981,-159.3161"/>
</g>
<!-- Node5 -->
<g id="node6" class="node">
<title>Node5</title>
<g id="a_node6"><a xlink:href="electron__graph_8hpp.html" target="_top" xlink:title="../../classes/electron\l_graph.hpp">
<polygon fill="#ffffff" stroke="#000000" points="430.6045,-55.5 430.6045,-83.5 534.9736,-83.5 534.9736,-55.5 430.6045,-55.5"/>
<text text-anchor="start" x="438.6045" y="-71.5" font-family="Helvetica,sans-Serif" font-size="10.00" fill="#000000">../../classes/electron</text>
<text text-anchor="middle" x="482.789" y="-61.5" font-family="Helvetica,sans-Serif" font-size="10.00" fill="#000000">_graph.hpp</text>
</a>
</g>
</g>
<!-- Node0&#45;&gt;Node5 -->
<g id="edge5" class="edge">
<title>Node0&#45;&gt;Node5</title>
<path fill="none" stroke="#191970" d="M204.4823,-196.2705C257.2225,-188.8329 325.1412,-174.8861 380.789,-149 411.921,-134.5181 442.2578,-108.9679 461.6396,-90.7415"/>
<polygon fill="#191970" stroke="#191970" points="464.2117,-93.124 469.0003,-83.6731 459.3632,-88.075 464.2117,-93.124"/>
</g>
<!-- Node9 -->
<g id="node10" class="node">
<title>Node9</title>
<g id="a_node10"><a xlink:href="electron__optimisation_8hpp.html" target="_top" xlink:title="../electron_optimisation.hpp">
<polygon fill="#ffffff" stroke="#000000" points="233.6416,-125.5 233.6416,-143.5 371.9365,-143.5 371.9365,-125.5 233.6416,-125.5"/>
<text text-anchor="middle" x="302.789" y="-131.5" font-family="Helvetica,sans-Serif" font-size="10.00" fill="#000000">../electron_optimisation.hpp</text>
</a>
</g>
</g>
<!-- Node0&#45;&gt;Node9 -->
<g id="edge10" class="edge">
<title>Node0&#45;&gt;Node9</title>
<path fill="none" stroke="#191970" d="M169.0678,-185.3722C201.049,-173.2055 241.5638,-157.7922 269.5721,-147.1369"/>
<polygon fill="#191970" stroke="#191970" points="270.8209,-150.4066 278.9229,-143.5795 268.3319,-143.864 270.8209,-150.4066"/>
</g>
<!-- Node5&#45;&gt;Node1 -->
<g id="edge8" class="edge">
<title>Node5&#45;&gt;Node1</title>
<path fill="none" stroke="#191970" d="M430.2775,-56.7208C427.4111,-56.1161 424.5676,-55.5379 421.789,-55 323.9095,-36.0527 206.9429,-20.461 151.2995,-13.4671"/>
<polygon fill="#191970" stroke="#191970" points="151.6829,-9.9879 141.3266,-12.2234 150.8166,-16.9341 151.6829,-9.9879"/>
</g>
<!-- Node6 -->
<g id="node7" class="node">
<title>Node6</title>
<polygon fill="#ffffff" stroke="#bfbfbf" points="319.8213,-.5 319.8213,-18.5 409.7568,-18.5 409.7568,-.5 319.8213,-.5"/>
<text text-anchor="middle" x="364.789" y="-6.5" font-family="Helvetica,sans-Serif" font-size="10.00" fill="#000000">../utils/graph.hpp</text>
</g>
<!-- Node5&#45;&gt;Node6 -->
<g id="edge6" class="edge">
<title>Node5&#45;&gt;Node6</title>
<path fill="none" stroke="#191970" d="M455.1233,-55.4327C436.0093,-45.7137 410.7144,-32.8519 391.754,-23.211"/>
<polygon fill="#191970" stroke="#191970" points="393.247,-20.0437 382.7468,-18.6311 390.0743,-26.2834 393.247,-20.0437"/>
</g>
<!-- Node7 -->
<g id="node8" class="node">
<title>Node7</title>
<polygon fill="#ffffff" stroke="#bfbfbf" points="427.8139,-.5 427.8139,-18.5 537.7641,-18.5 537.7641,-.5 427.8139,-.5"/>
<text text-anchor="middle" x="482.789" y="-6.5" font-family="Helvetica,sans-Serif" font-size="10.00" fill="#000000">molecular_graph.hpp</text>
</g>
<!-- Node5&#45;&gt;Node7 -->
<g id="edge7" class="edge">
<title>Node5&#45;&gt;Node7</title>
<path fill="none" stroke="#191970" d="M482.789,-55.2808C482.789,-47.3776 482.789,-37.4316 482.789,-28.8308"/>
<polygon fill="#191970" stroke="#191970" points="486.2891,-28.5842 482.789,-18.5842 479.2891,-28.5842 486.2891,-28.5842"/>
</g>
<!-- Node8 -->
<g id="node9" class="node">
<title>Node8</title>
<polygon fill="#ffffff" stroke="#bfbfbf" points="555.6167,-.5 555.6167,-18.5 609.9614,-18.5 609.9614,-.5 555.6167,-.5"/>
<text text-anchor="middle" x="582.789" y="-6.5" font-family="Helvetica,sans-Serif" font-size="10.00" fill="#000000">iostream</text>
</g>
<!-- Node5&#45;&gt;Node8 -->
<g id="edge9" class="edge">
<title>Node5&#45;&gt;Node8</title>
<path fill="none" stroke="#191970" d="M506.2346,-55.4327C522.063,-45.9356 542.8931,-33.4376 558.8285,-23.8763"/>
<polygon fill="#191970" stroke="#191970" points="560.7964,-26.7773 567.5706,-18.6311 557.1949,-20.7748 560.7964,-26.7773"/>
</g>
<!-- Node9&#45;&gt;Node1 -->
<g id="edge13" class="edge">
<title>Node9&#45;&gt;Node1</title>
<path fill="none" stroke="#191970" d="M255.943,-125.4935C213.1468,-116.3484 154.1233,-101.1257 137.789,-84 123.7167,-69.2458 119.6732,-45.5747 118.7007,-28.8806"/>
<polygon fill="#191970" stroke="#191970" points="122.193,-28.5382 118.4325,-18.6332 115.1954,-28.7214 122.193,-28.5382"/>
</g>
<!-- Node9&#45;&gt;Node3 -->
<g id="edge16" class="edge">
<title>Node9&#45;&gt;Node3</title>
<path fill="none" stroke="#191970" d="M260.6066,-125.4572C220.2002,-116.3937 157.7223,-101.3252 104.789,-84 103.1161,-83.4524 101.4097,-82.8656 99.694,-82.2533"/>
<polygon fill="#191970" stroke="#191970" points="100.5277,-78.8267 89.9362,-78.5624 98.0512,-85.374 100.5277,-78.8267"/>
</g>
<!-- Node9&#45;&gt;Node5 -->
<g id="edge11" class="edge">
<title>Node9&#45;&gt;Node5</title>
<path fill="none" stroke="#191970" d="M327.8173,-125.462C355.1607,-115.588 399.6364,-99.5273 433.944,-87.1385"/>
<polygon fill="#191970" stroke="#191970" points="435.5635,-90.275 443.7802,-83.5865 433.1859,-83.6911 435.5635,-90.275"/>
</g>
<!-- Node10 -->
<g id="node11" class="node">
<title>Node10</title>
<polygon fill="#ffffff" stroke="#bfbfbf" points="250.8852,-55.5 250.8852,-83.5 354.6928,-83.5 354.6928,-55.5 250.8852,-55.5"/>
<text text-anchor="start" x="258.8852" y="-71.5" font-family="Helvetica,sans-Serif" font-size="10.00" fill="#000000">../classes/molecular</text>
<text text-anchor="middle" x="302.789" y="-61.5" font-family="Helvetica,sans-Serif" font-size="10.00" fill="#000000">_graph.hpp</text>
</g>
<!-- Node9&#45;&gt;Node10 -->
<g id="edge12" class="edge">
<title>Node9&#45;&gt;Node10</title>
<path fill="none" stroke="#191970" d="M302.789,-125.462C302.789,-117.404 302.789,-105.2257 302.789,-94.2852"/>
<polygon fill="#191970" stroke="#191970" points="306.2891,-93.9558 302.789,-83.9559 299.2891,-93.9559 306.2891,-93.9558"/>
</g>
<!-- Node11 -->
<g id="node12" class="node">
<title>Node11</title>
<polygon fill="#ffffff" stroke="#bfbfbf" points="372.5625,-60.5 372.5625,-78.5 413.0156,-78.5 413.0156,-60.5 372.5625,-60.5"/>
<text text-anchor="middle" x="392.789" y="-66.5" font-family="Helvetica,sans-Serif" font-size="10.00" fill="#000000">string</text>
</g>
<!-- Node9&#45;&gt;Node11 -->
<g id="edge14" class="edge">
<title>Node9&#45;&gt;Node11</title>
<path fill="none" stroke="#191970" d="M315.3031,-125.462C329.8633,-114.9464 354.1391,-97.4138 371.6426,-84.7725"/>
<polygon fill="#191970" stroke="#191970" points="374.0335,-87.3631 380.0911,-78.6708 369.935,-81.6883 374.0335,-87.3631"/>
</g>
<!-- Node12 -->
<g id="node13" class="node">
<title>Node12</title>
<polygon fill="#ffffff" stroke="#bfbfbf" points="146.4863,-60.5 146.4863,-78.5 233.0918,-78.5 233.0918,-60.5 146.4863,-60.5"/>
<text text-anchor="middle" x="189.789" y="-66.5" font-family="Helvetica,sans-Serif" font-size="10.00" fill="#000000">unordered_map</text>
</g>
<!-- Node9&#45;&gt;Node12 -->
<g id="edge15" class="edge">
<title>Node9&#45;&gt;Node12</title>
<path fill="none" stroke="#191970" d="M287.0769,-125.462C268.2926,-114.6569 236.6291,-96.4434 214.5448,-83.74"/>
<polygon fill="#191970" stroke="#191970" points="216.1455,-80.6231 205.732,-78.6708 212.6551,-86.6908 216.1455,-80.6231"/>
</g>
</g>
</svg>
