<?xml version="1.0" encoding="UTF-8" standalone="no"?>
<!DOCTYPE svg PUBLIC "-//W3C//DTD SVG 1.1//EN"
 "http://www.w3.org/Graphics/SVG/1.1/DTD/svg11.dtd">
<!-- Generated by graphviz version 2.40.1 (20161225.0304)
 -->
<!-- Title: src/algorithm/formalbonds/elimination_ordering.cpp Pages: 1 -->
<svg width="748pt" height="212pt"
 viewBox="0.00 0.00 747.62 212.00" xmlns="http://www.w3.org/2000/svg" xmlns:xlink="http://www.w3.org/1999/xlink">
<g id="graph0" class="graph" transform="scale(1 1) rotate(0) translate(4 208)">
<title>src/algorithm/formalbonds/elimination_ordering.cpp</title>
<polygon fill="#ffffff" stroke="transparent" points="-4,4 -4,-208 743.6206,-208 743.6206,4 -4,4"/>
<!-- Node0 -->
<g id="node1" class="node">
<title>Node0</title>
<polygon fill="#bfbfbf" stroke="#000000" points="176.042,-175.5 176.042,-203.5 307.0859,-203.5 307.0859,-175.5 176.042,-175.5"/>
<text text-anchor="start" x="184.042" y="-191.5" font-family="Helvetica,sans-Serif" font-size="10.00" fill="#000000">src/algorithm/formalbonds</text>
<text text-anchor="middle" x="241.564" y="-181.5" font-family="Helvetica,sans-Serif" font-size="10.00" fill="#000000">/elimination_ordering.cpp</text>
</g>
<!-- Node1 -->
<g id="node2" class="node">
<title>Node1</title>
<polygon fill="#ffffff" stroke="#bfbfbf" points="0,-115.5 0,-133.5 57.1279,-133.5 57.1279,-115.5 0,-115.5"/>
<text text-anchor="middle" x="28.564" y="-121.5" font-family="Helvetica,sans-Serif" font-size="10.00" fill="#000000">algorithm</text>
</g>
<!-- Node0&#45;&gt;Node1 -->
<g id="edge1" class="edge">
<title>Node0&#45;&gt;Node1</title>
<path fill="none" stroke="#191970" d="M188.7552,-175.4994C153.8454,-165.941 107.1992,-152.5894 66.564,-139 64.7056,-138.3785 62.8037,-137.7214 60.8894,-137.0437"/>
<polygon fill="#191970" stroke="#191970" points="61.9538,-133.7062 51.3601,-133.5528 59.5459,-140.2791 61.9538,-133.7062"/>
</g>
<!-- Node2 -->
<g id="node3" class="node">
<title>Node2</title>
<polygon fill="#ffffff" stroke="#bfbfbf" points="75.3916,-115.5 75.3916,-133.5 129.7363,-133.5 129.7363,-115.5 75.3916,-115.5"/>
<text text-anchor="middle" x="102.564" y="-121.5" font-family="Helvetica,sans-Serif" font-size="10.00" fill="#000000">iostream</text>
</g>
<!-- Node0&#45;&gt;Node2 -->
<g id="edge2" class="edge">
<title>Node0&#45;&gt;Node2</title>
<path fill="none" stroke="#191970" d="M211.403,-175.396C187.5429,-164.2383 154.4591,-148.7675 131.0462,-137.819"/>
<polygon fill="#191970" stroke="#191970" points="132.5101,-134.6399 121.969,-133.5743 129.5449,-140.9808 132.5101,-134.6399"/>
</g>
<!-- Node3 -->
<g id="node4" class="node">
<title>Node3</title>
<polygon fill="#ffffff" stroke="#bfbfbf" points="147.6108,-115.5 147.6108,-133.5 197.5171,-133.5 197.5171,-115.5 147.6108,-115.5"/>
<text text-anchor="middle" x="172.564" y="-121.5" font-family="Helvetica,sans-Serif" font-size="10.00" fill="#000000">random</text>
</g>
<!-- Node0&#45;&gt;Node3 -->
<g id="edge3" class="edge">
<title>Node0&#45;&gt;Node3</title>
<path fill="none" stroke="#191970" d="M226.592,-175.396C215.7479,-165.1805 201.0658,-151.3496 189.744,-140.6841"/>
<polygon fill="#191970" stroke="#191970" points="191.8756,-137.8836 182.1967,-133.5743 187.0757,-142.9789 191.8756,-137.8836"/>
</g>
<!-- Node4 -->
<g id="node5" class="node">
<title>Node4</title>
<polygon fill="#ffffff" stroke="#bfbfbf" points="215.7832,-115.5 215.7832,-133.5 267.3447,-133.5 267.3447,-115.5 215.7832,-115.5"/>
<text text-anchor="middle" x="241.564" y="-121.5" font-family="Helvetica,sans-Serif" font-size="10.00" fill="#000000">sstream</text>
</g>
<!-- Node0&#45;&gt;Node4 -->
<g id="edge4" class="edge">
<title>Node0&#45;&gt;Node4</title>
<path fill="none" stroke="#191970" d="M241.564,-175.396C241.564,-166.1723 241.564,-154.0011 241.564,-143.8738"/>
<polygon fill="#191970" stroke="#191970" points="245.0641,-143.5743 241.564,-133.5743 238.0641,-143.5743 245.0641,-143.5743"/>
</g>
<!-- Node5 -->
<g id="node6" class="node">
<title>Node5</title>
<polygon fill="#ffffff" stroke="#bfbfbf" points="285.3374,-115.5 285.3374,-133.5 325.7905,-133.5 325.7905,-115.5 285.3374,-115.5"/>
<text text-anchor="middle" x="305.564" y="-121.5" font-family="Helvetica,sans-Serif" font-size="10.00" fill="#000000">string</text>
</g>
<!-- Node0&#45;&gt;Node5 -->
<g id="edge5" class="edge">
<title>Node0&#45;&gt;Node5</title>
<path fill="none" stroke="#191970" d="M255.451,-175.396C265.4116,-165.2797 278.8634,-151.6178 289.3221,-140.9956"/>
<polygon fill="#191970" stroke="#191970" points="292.1072,-143.1556 296.6293,-133.5743 287.1192,-138.2444 292.1072,-143.1556"/>
</g>
<!-- Node6 -->
<g id="node7" class="node">
<title>Node6</title>
<g id="a_node7"><a xlink:href="elimination__ordering_8hpp.html" target="_top" xlink:title="indigox/algorithm/formalbonds\l/elimination_ordering.hpp">
<polygon fill="#ffffff" stroke="#000000" points="343.8623,-110.5 343.8623,-138.5 493.2656,-138.5 493.2656,-110.5 343.8623,-110.5"/>
<text text-anchor="start" x="351.8623" y="-126.5" font-family="Helvetica,sans-Serif" font-size="10.00" fill="#000000">indigox/algorithm/formalbonds</text>
<text text-anchor="middle" x="418.564" y="-116.5" font-family="Helvetica,sans-Serif" font-size="10.00" fill="#000000">/elimination_ordering.hpp</text>
</a>
</g>
</g>
<!-- Node0&#45;&gt;Node6 -->
<g id="edge6" class="edge">
<title>Node0&#45;&gt;Node6</title>
<path fill="none" stroke="#191970" d="M279.9703,-175.396C306.5279,-165.6432 342.0593,-152.5949 370.4963,-142.152"/>
<polygon fill="#191970" stroke="#191970" points="372.0521,-145.3093 380.2326,-138.5765 369.639,-138.7383 372.0521,-145.3093"/>
</g>
<!-- Node8 -->
<g id="node9" class="node">
<title>Node8</title>
<g id="a_node9"><a xlink:href="permutablegraph_8hpp.html" target="_top" xlink:title="../../classes/permutablegraph.hpp">
<polygon fill="#ffffff" stroke="#000000" points="439.6333,-55.5 439.6333,-73.5 603.4946,-73.5 603.4946,-55.5 439.6333,-55.5"/>
<text text-anchor="middle" x="521.564" y="-61.5" font-family="Helvetica,sans-Serif" font-size="10.00" fill="#000000">../../classes/permutablegraph.hpp</text>
</a>
</g>
</g>
<!-- Node0&#45;&gt;Node8 -->
<g id="edge13" class="edge">
<title>Node0&#45;&gt;Node8</title>
<path fill="none" stroke="#191970" d="M307.1734,-184.7392C375.0535,-178.4696 474.947,-165.0446 502.564,-139 517.4762,-124.9368 521.3348,-100.9384 522.0351,-83.9844"/>
<polygon fill="#191970" stroke="#191970" points="525.5379,-83.6069 522.1123,-73.5812 518.5381,-83.5549 525.5379,-83.6069"/>
</g>
<!-- Node7 -->
<g id="node8" class="node">
<title>Node7</title>
<polygon fill="#ffffff" stroke="#bfbfbf" points="389.9482,-.5 389.9482,-18.5 433.1797,-18.5 433.1797,-.5 389.9482,-.5"/>
<text text-anchor="middle" x="411.564" y="-6.5" font-family="Helvetica,sans-Serif" font-size="10.00" fill="#000000">vector</text>
</g>
<!-- Node6&#45;&gt;Node7 -->
<g id="edge7" class="edge">
<title>Node6&#45;&gt;Node7</title>
<path fill="none" stroke="#191970" d="M417.7056,-110.3987C416.4626,-89.9779 414.1569,-52.0975 412.7515,-29.0089"/>
<polygon fill="#191970" stroke="#191970" points="416.2269,-28.4975 412.1257,-18.7286 409.2398,-28.9228 416.2269,-28.4975"/>
</g>
<!-- Node6&#45;&gt;Node8 -->
<g id="edge8" class="edge">
<title>Node6&#45;&gt;Node8</title>
<path fill="none" stroke="#191970" d="M442.7129,-110.4327C459.0162,-100.9356 480.4712,-88.4376 496.8846,-78.8763"/>
<polygon fill="#191970" stroke="#191970" points="499.0099,-81.6889 505.889,-73.6311 495.4864,-75.6403 499.0099,-81.6889"/>
</g>
<!-- Node8&#45;&gt;Node7 -->
<g id="edge12" class="edge">
<title>Node8&#45;&gt;Node7</title>
<path fill="none" stroke="#191970" d="M503.3997,-55.4179C485.805,-46.6205 458.9022,-33.1691 438.7552,-23.0956"/>
<polygon fill="#191970" stroke="#191970" points="440.2648,-19.9373 429.7552,-18.5956 437.1342,-26.1983 440.2648,-19.9373"/>
</g>
<!-- Node9 -->
<g id="node10" class="node">
<title>Node9</title>
<polygon fill="#ffffff" stroke="#bfbfbf" points="451.5962,-.5 451.5962,-18.5 541.5317,-18.5 541.5317,-.5 451.5962,-.5"/>
<text text-anchor="middle" x="496.564" y="-6.5" font-family="Helvetica,sans-Serif" font-size="10.00" fill="#000000">../utils/graph.hpp</text>
</g>
<!-- Node8&#45;&gt;Node9 -->
<g id="edge9" class="edge">
<title>Node8&#45;&gt;Node9</title>
<path fill="none" stroke="#191970" d="M517.4357,-55.4179C514.0544,-47.9789 509.1605,-37.2123 504.9613,-27.9742"/>
<polygon fill="#191970" stroke="#191970" points="508.1063,-26.4348 500.7819,-18.7795 501.7337,-29.3315 508.1063,-26.4348"/>
</g>
<!-- Node10 -->
<g id="node11" class="node">
<title>Node10</title>
<polygon fill="#ffffff" stroke="#bfbfbf" points="559.5889,-.5 559.5889,-18.5 669.5391,-18.5 669.5391,-.5 559.5889,-.5"/>
<text text-anchor="middle" x="614.564" y="-6.5" font-family="Helvetica,sans-Serif" font-size="10.00" fill="#000000">molecular_graph.hpp</text>
</g>
<!-- Node8&#45;&gt;Node10 -->
<g id="edge10" class="edge">
<title>Node8&#45;&gt;Node10</title>
<path fill="none" stroke="#191970" d="M536.921,-55.4179C551.46,-46.8195 573.5165,-33.7754 590.4103,-23.7844"/>
<polygon fill="#191970" stroke="#191970" points="592.3583,-26.6987 599.1841,-18.5956 588.795,-20.6735 592.3583,-26.6987"/>
</g>
<!-- Node11 -->
<g id="node12" class="node">
<title>Node11</title>
<polygon fill="#ffffff" stroke="#bfbfbf" points="687.5073,-.5 687.5073,-18.5 739.6206,-18.5 739.6206,-.5 687.5073,-.5"/>
<text text-anchor="middle" x="713.564" y="-6.5" font-family="Helvetica,sans-Serif" font-size="10.00" fill="#000000">memory</text>
</g>
<!-- Node8&#45;&gt;Node11 -->
<g id="edge11" class="edge">
<title>Node8&#45;&gt;Node11</title>
<path fill="none" stroke="#191970" d="M553.2689,-55.4179C587.3922,-45.643 641.5735,-30.1223 677.3502,-19.8737"/>
<polygon fill="#191970" stroke="#191970" points="678.7206,-23.122 687.37,-17.0035 676.7928,-16.3927 678.7206,-23.122"/>
</g>
</g>
</svg>
