<?xml version="1.0" encoding="UTF-8" standalone="no"?>
<!DOCTYPE svg PUBLIC "-//W3C//DTD SVG 1.1//EN"
 "http://www.w3.org/Graphics/SVG/1.1/DTD/svg11.dtd">
<!-- Generated by graphviz version 2.40.1 (20161225.0304)
 -->
<!-- Title: include/indigox/algorithm/formalbonds/elimination_ordering.hpp Pages: 1 -->
<svg width="288pt" height="112pt"
 viewBox="0.00 0.00 288.04 112.00" xmlns="http://www.w3.org/2000/svg" xmlns:xlink="http://www.w3.org/1999/xlink">
<g id="graph0" class="graph" transform="scale(1 1) rotate(0) translate(4 108)">
<title>include/indigox/algorithm/formalbonds/elimination_ordering.hpp</title>
<polygon fill="#ffffff" stroke="transparent" points="-4,4 -4,-108 284.0439,-108 284.0439,4 -4,4"/>
<!-- Node6 -->
<g id="node1" class="node">
<title>Node6</title>
<polygon fill="#bfbfbf" stroke="#000000" points="76.4902,-65.5 76.4902,-103.5 202.5537,-103.5 202.5537,-65.5 76.4902,-65.5"/>
<text text-anchor="start" x="84.4902" y="-91.5" font-family="Helvetica,sans-Serif" font-size="10.00" fill="#000000">include/indigox/algorithm</text>
<text text-anchor="start" x="84.4902" y="-81.5" font-family="Helvetica,sans-Serif" font-size="10.00" fill="#000000">/formalbonds/elimination</text>
<text text-anchor="middle" x="139.522" y="-71.5" font-family="Helvetica,sans-Serif" font-size="10.00" fill="#000000">_ordering.hpp</text>
</g>
<!-- Node7 -->
<g id="node2" class="node">
<title>Node7</title>
<g id="a_node2"><a xlink:href="elimination__ordering_8cpp.html" target="_top" xlink:title="src/algorithm/formalbonds\l/elimination_ordering.cpp">
<polygon fill="#ffffff" stroke="#000000" points="0,-.5 0,-28.5 131.0439,-28.5 131.0439,-.5 0,-.5"/>
<text text-anchor="start" x="8" y="-16.5" font-family="Helvetica,sans-Serif" font-size="10.00" fill="#000000">src/algorithm/formalbonds</text>
<text text-anchor="middle" x="65.522" y="-6.5" font-family="Helvetica,sans-Serif" font-size="10.00" fill="#000000">/elimination_ordering.cpp</text>
</a>
</g>
</g>
<!-- Node6&#45;&gt;Node7 -->
<g id="edge1" class="edge">
<title>Node6&#45;&gt;Node7</title>
<path fill="none" stroke="#191970" d="M111.8826,-58.3547C101.359,-48.3999 89.7541,-37.4223 80.7875,-28.9404"/>
<polygon fill="#191970" stroke="#191970" points="109.6312,-61.0428 119.3011,-65.3722 114.4416,-55.9575 109.6312,-61.0428"/>
</g>
<!-- Node8 -->
<g id="node3" class="node">
<title>Node8</title>
<g id="a_node3"><a xlink:href="fpt_8cpp.html" target="_top" xlink:title="src/algorithm/formalbonds\l/fpt.cpp">
<polygon fill="#ffffff" stroke="#000000" points="149,-.5 149,-28.5 280.0439,-28.5 280.0439,-.5 149,-.5"/>
<text text-anchor="start" x="157" y="-16.5" font-family="Helvetica,sans-Serif" font-size="10.00" fill="#000000">src/algorithm/formalbonds</text>
<text text-anchor="middle" x="214.522" y="-6.5" font-family="Helvetica,sans-Serif" font-size="10.00" fill="#000000">/fpt.cpp</text>
</a>
</g>
</g>
<!-- Node6&#45;&gt;Node8 -->
<g id="edge2" class="edge">
<title>Node6&#45;&gt;Node8</title>
<path fill="none" stroke="#191970" d="M167.5348,-58.3547C178.2006,-48.3999 189.9623,-37.4223 199.0501,-28.9404"/>
<polygon fill="#191970" stroke="#191970" points="164.9385,-55.9903 160.0161,-65.3722 169.7148,-61.1077 164.9385,-55.9903"/>
</g>
</g>
</svg>
