<?xml version="1.0" encoding="UTF-8" standalone="no"?>
<!DOCTYPE svg PUBLIC "-//W3C//DTD SVG 1.1//EN"
 "http://www.w3.org/Graphics/SVG/1.1/DTD/svg11.dtd">
<!-- Generated by graphviz version 2.40.1 (20161225.0304)
 -->
<!-- Title: include/indigox/algorithm/formalbonds/elimination_ordering.hpp Pages: 1 -->
<svg width="358pt" height="157pt"
 viewBox="0.00 0.00 357.67 157.00" xmlns="http://www.w3.org/2000/svg" xmlns:xlink="http://www.w3.org/1999/xlink">
<g id="graph0" class="graph" transform="scale(1 1) rotate(0) translate(4 153)">
<title>include/indigox/algorithm/formalbonds/elimination_ordering.hpp</title>
<polygon fill="#ffffff" stroke="transparent" points="-4,4 -4,-153 353.6724,-153 353.6724,4 -4,4"/>
<!-- Node0 -->
<g id="node1" class="node">
<title>Node0</title>
<polygon fill="#bfbfbf" stroke="#000000" points="13.584,-110.5 13.584,-148.5 139.6475,-148.5 139.6475,-110.5 13.584,-110.5"/>
<text text-anchor="start" x="21.584" y="-136.5" font-family="Helvetica,sans-Serif" font-size="10.00" fill="#000000">include/indigox/algorithm</text>
<text text-anchor="start" x="21.584" y="-126.5" font-family="Helvetica,sans-Serif" font-size="10.00" fill="#000000">/formalbonds/elimination</text>
<text text-anchor="middle" x="76.6157" y="-116.5" font-family="Helvetica,sans-Serif" font-size="10.00" fill="#000000">_ordering.hpp</text>
</g>
<!-- Node1 -->
<g id="node2" class="node">
<title>Node1</title>
<polygon fill="#ffffff" stroke="#bfbfbf" points="0,-.5 0,-18.5 43.2314,-18.5 43.2314,-.5 0,-.5"/>
<text text-anchor="middle" x="21.6157" y="-6.5" font-family="Helvetica,sans-Serif" font-size="10.00" fill="#000000">vector</text>
</g>
<!-- Node0&#45;&gt;Node1 -->
<g id="edge1" class="edge">
<title>Node0&#45;&gt;Node1</title>
<path fill="none" stroke="#191970" d="M62.162,-110.2643C54.9192,-99.932 46.4688,-86.7305 40.6157,-74 33.8344,-59.2506 28.814,-41.4926 25.6424,-28.347"/>
<polygon fill="#191970" stroke="#191970" points="29.0463,-27.5311 23.415,-18.5567 22.2207,-29.084 29.0463,-27.5311"/>
</g>
<!-- Node2 -->
<g id="node3" class="node">
<title>Node2</title>
<g id="a_node3"><a xlink:href="permutablegraph_8hpp.html" target="_top" xlink:title="../../classes/permutablegraph.hpp">
<polygon fill="#ffffff" stroke="#000000" points="49.6851,-55.5 49.6851,-73.5 213.5464,-73.5 213.5464,-55.5 49.6851,-55.5"/>
<text text-anchor="middle" x="131.6157" y="-61.5" font-family="Helvetica,sans-Serif" font-size="10.00" fill="#000000">../../classes/permutablegraph.hpp</text>
</a>
</g>
</g>
<!-- Node0&#45;&gt;Node2 -->
<g id="edge2" class="edge">
<title>Node0&#45;&gt;Node2</title>
<path fill="none" stroke="#191970" d="M92.8201,-110.3494C100.6002,-101.1548 109.8402,-90.2347 117.3508,-81.3586"/>
<polygon fill="#191970" stroke="#191970" points="120.1299,-83.4925 123.9175,-73.5978 114.7862,-78.9709 120.1299,-83.4925"/>
</g>
<!-- Node2&#45;&gt;Node1 -->
<g id="edge6" class="edge">
<title>Node2&#45;&gt;Node1</title>
<path fill="none" stroke="#191970" d="M113.4515,-55.4179C95.8567,-46.6205 68.9539,-33.1691 48.8069,-23.0956"/>
<polygon fill="#191970" stroke="#191970" points="50.3165,-19.9373 39.807,-18.5956 47.186,-26.1983 50.3165,-19.9373"/>
</g>
<!-- Node3 -->
<g id="node4" class="node">
<title>Node3</title>
<polygon fill="#ffffff" stroke="#bfbfbf" points="61.6479,-.5 61.6479,-18.5 151.5835,-18.5 151.5835,-.5 61.6479,-.5"/>
<text text-anchor="middle" x="106.6157" y="-6.5" font-family="Helvetica,sans-Serif" font-size="10.00" fill="#000000">../utils/graph.hpp</text>
</g>
<!-- Node2&#45;&gt;Node3 -->
<g id="edge3" class="edge">
<title>Node2&#45;&gt;Node3</title>
<path fill="none" stroke="#191970" d="M127.4875,-55.4179C124.1062,-47.9789 119.2122,-37.2123 115.0131,-27.9742"/>
<polygon fill="#191970" stroke="#191970" points="118.158,-26.4348 110.8337,-18.7795 111.7855,-29.3315 118.158,-26.4348"/>
</g>
<!-- Node4 -->
<g id="node5" class="node">
<title>Node4</title>
<polygon fill="#ffffff" stroke="#bfbfbf" points="169.6406,-.5 169.6406,-18.5 279.5908,-18.5 279.5908,-.5 169.6406,-.5"/>
<text text-anchor="middle" x="224.6157" y="-6.5" font-family="Helvetica,sans-Serif" font-size="10.00" fill="#000000">molecular_graph.hpp</text>
</g>
<!-- Node2&#45;&gt;Node4 -->
<g id="edge4" class="edge">
<title>Node2&#45;&gt;Node4</title>
<path fill="none" stroke="#191970" d="M146.9728,-55.4179C161.5118,-46.8195 183.5683,-33.7754 200.4621,-23.7844"/>
<polygon fill="#191970" stroke="#191970" points="202.4101,-26.6987 209.2358,-18.5956 198.8468,-20.6735 202.4101,-26.6987"/>
</g>
<!-- Node5 -->
<g id="node6" class="node">
<title>Node5</title>
<polygon fill="#ffffff" stroke="#bfbfbf" points="297.5591,-.5 297.5591,-18.5 349.6724,-18.5 349.6724,-.5 297.5591,-.5"/>
<text text-anchor="middle" x="323.6157" y="-6.5" font-family="Helvetica,sans-Serif" font-size="10.00" fill="#000000">memory</text>
</g>
<!-- Node2&#45;&gt;Node5 -->
<g id="edge5" class="edge">
<title>Node2&#45;&gt;Node5</title>
<path fill="none" stroke="#191970" d="M163.3206,-55.4179C197.4439,-45.643 251.6252,-30.1223 287.402,-19.8737"/>
<polygon fill="#191970" stroke="#191970" points="288.7723,-23.122 297.4218,-17.0035 286.8446,-16.3927 288.7723,-23.122"/>
</g>
</g>
</svg>
