<?xml version="1.0" encoding="UTF-8" standalone="no"?>
<!DOCTYPE svg PUBLIC "-//W3C//DTD SVG 1.1//EN"
 "http://www.w3.org/Graphics/SVG/1.1/DTD/svg11.dtd">
<!-- Generated by graphviz version 2.40.1 (20161225.0304)
 -->
<!-- Title: include/indigox/utils/enum_class_bitwise.hpp Pages: 1 -->
<svg width="136pt" height="102pt"
 viewBox="0.00 0.00 135.73 102.00" xmlns="http://www.w3.org/2000/svg" xmlns:xlink="http://www.w3.org/1999/xlink">
<g id="graph0" class="graph" transform="scale(1 1) rotate(0) translate(4 98)">
<title>include/indigox/utils/enum_class_bitwise.hpp</title>
<polygon fill="#ffffff" stroke="transparent" points="-4,4 -4,-98 131.7285,-98 131.7285,4 -4,4"/>
<!-- Node2 -->
<g id="node1" class="node">
<title>Node2</title>
<g id="a_node1"><a xlink:title=" ">
<polygon fill="#bfbfbf" stroke="#000000" points="0,-65.5 0,-93.5 127.7285,-93.5 127.7285,-65.5 0,-65.5"/>
<text text-anchor="start" x="8" y="-81.5" font-family="Helvetica,sans-Serif" font-size="10.00" fill="#000000">include/indigox/utils</text>
<text text-anchor="middle" x="63.8643" y="-71.5" font-family="Helvetica,sans-Serif" font-size="10.00" fill="#000000">/enum_class_bitwise.hpp</text>
</a>
</g>
</g>
<!-- Node3 -->
<g id="node2" class="node">
<title>Node3</title>
<g id="a_node2"><a xlink:href="cherrypicker_8hpp.html" target="_top" xlink:title=" ">
<polygon fill="#ffffff" stroke="#000000" points=".8325,-.5 .8325,-28.5 126.896,-28.5 126.896,-.5 .8325,-.5"/>
<text text-anchor="start" x="8.8325" y="-16.5" font-family="Helvetica,sans-Serif" font-size="10.00" fill="#000000">include/indigox/algorithm</text>
<text text-anchor="middle" x="63.8643" y="-6.5" font-family="Helvetica,sans-Serif" font-size="10.00" fill="#000000">/cherrypicker.hpp</text>
</a>
</g>
</g>
<!-- Node2&#45;&gt;Node3 -->
<g id="edge1" class="edge">
<title>Node2&#45;&gt;Node3</title>
<path fill="none" stroke="#191970" d="M63.8643,-55.1081C63.8643,-46.1539 63.8643,-36.3227 63.8643,-28.5765"/>
<polygon fill="#191970" stroke="#191970" points="60.3644,-55.3959 63.8643,-65.396 67.3644,-55.396 60.3644,-55.3959"/>
</g>
</g>
</svg>
