<?xml version="1.0" encoding="UTF-8" standalone="no"?>
<!DOCTYPE svg PUBLIC "-//W3C//DTD SVG 1.1//EN"
 "http://www.w3.org/Graphics/SVG/1.1/DTD/svg11.dtd">
<!-- Generated by graphviz version 2.40.1 (20161225.0304)
 -->
<!-- Title: include/indigox/utils/filereader.hpp Pages: 1 -->
<svg width="400pt" height="102pt"
 viewBox="0.00 0.00 400.17 102.00" xmlns="http://www.w3.org/2000/svg" xmlns:xlink="http://www.w3.org/1999/xlink">
<g id="graph0" class="graph" transform="scale(1 1) rotate(0) translate(4 98)">
<title>include/indigox/utils/filereader.hpp</title>
<polygon fill="#ffffff" stroke="transparent" points="-4,4 -4,-98 396.1719,-98 396.1719,4 -4,4"/>
<!-- Node3 -->
<g id="node1" class="node">
<title>Node3</title>
<polygon fill="#bfbfbf" stroke="#000000" points="154.4556,-65.5 154.4556,-93.5 257.1743,-93.5 257.1743,-65.5 154.4556,-65.5"/>
<text text-anchor="start" x="162.4556" y="-81.5" font-family="Helvetica,sans-Serif" font-size="10.00" fill="#000000">include/indigox/utils</text>
<text text-anchor="middle" x="205.8149" y="-71.5" font-family="Helvetica,sans-Serif" font-size="10.00" fill="#000000">/filereader.hpp</text>
</g>
<!-- Node4 -->
<g id="node2" class="node">
<title>Node4</title>
<g id="a_node2"><a xlink:href="assigner_8cpp.html" target="_top" xlink:title="src/algorithm/electron\l_assignment/assigner.cpp">
<polygon fill="#ffffff" stroke="#000000" points="0,-.5 0,-28.5 131.6299,-28.5 131.6299,-.5 0,-.5"/>
<text text-anchor="start" x="8" y="-16.5" font-family="Helvetica,sans-Serif" font-size="10.00" fill="#000000">src/algorithm/electron</text>
<text text-anchor="middle" x="65.8149" y="-6.5" font-family="Helvetica,sans-Serif" font-size="10.00" fill="#000000">_assignment/assigner.cpp</text>
</a>
</g>
</g>
<!-- Node3&#45;&gt;Node4 -->
<g id="edge1" class="edge">
<title>Node3&#45;&gt;Node4</title>
<path fill="none" stroke="#191970" d="M166.2499,-61.1305C144.0049,-50.8025 116.6678,-38.1103 96.1336,-28.5765"/>
<polygon fill="#191970" stroke="#191970" points="164.893,-64.3593 175.437,-65.396 167.8408,-58.0103 164.893,-64.3593"/>
</g>
<!-- Node5 -->
<g id="node3" class="node">
<title>Node5</title>
<g id="a_node3"><a xlink:href="electron__optimisation_8cpp.html" target="_top" xlink:title="src/algorithm/electron\l_optimisation.cpp">
<polygon fill="#ffffff" stroke="#000000" points="150.0195,-.5 150.0195,-28.5 261.6104,-28.5 261.6104,-.5 150.0195,-.5"/>
<text text-anchor="start" x="158.0195" y="-16.5" font-family="Helvetica,sans-Serif" font-size="10.00" fill="#000000">src/algorithm/electron</text>
<text text-anchor="middle" x="205.8149" y="-6.5" font-family="Helvetica,sans-Serif" font-size="10.00" fill="#000000">_optimisation.cpp</text>
</a>
</g>
</g>
<!-- Node3&#45;&gt;Node5 -->
<g id="edge2" class="edge">
<title>Node3&#45;&gt;Node5</title>
<path fill="none" stroke="#191970" d="M205.8149,-55.1081C205.8149,-46.1539 205.8149,-36.3227 205.8149,-28.5765"/>
<polygon fill="#191970" stroke="#191970" points="202.315,-55.3959 205.8149,-65.396 209.315,-55.396 202.315,-55.3959"/>
</g>
<!-- Node6 -->
<g id="node4" class="node">
<title>Node6</title>
<g id="a_node4"><a xlink:href="filereader_8cpp.html" target="_top" xlink:title="Implementation of the FileReader class. ">
<polygon fill="#ffffff" stroke="#000000" points="279.458,-5.5 279.458,-23.5 392.1719,-23.5 392.1719,-5.5 279.458,-5.5"/>
<text text-anchor="middle" x="335.8149" y="-11.5" font-family="Helvetica,sans-Serif" font-size="10.00" fill="#000000">src/utils/filereader.cpp</text>
</a>
</g>
</g>
<!-- Node3&#45;&gt;Node6 -->
<g id="edge3" class="edge">
<title>Node3&#45;&gt;Node6</title>
<path fill="none" stroke="#191970" d="M243.0436,-60.8856C267.5046,-48.6552 298.4277,-33.1936 317.6663,-23.5743"/>
<polygon fill="#191970" stroke="#191970" points="241.402,-57.7933 234.023,-65.396 244.5326,-64.0543 241.402,-57.7933"/>
</g>
</g>
</svg>
