<?xml version="1.0" encoding="UTF-8" standalone="no"?>
<!DOCTYPE svg PUBLIC "-//W3C//DTD SVG 1.1//EN"
 "http://www.w3.org/Graphics/SVG/1.1/DTD/svg11.dtd">
<!-- Generated by graphviz version 2.40.1 (20161225.0304)
 -->
<!-- Title: include/indigox/utils/filereader.hpp Pages: 1 -->
<svg width="111pt" height="92pt"
 viewBox="0.00 0.00 110.98 92.00" xmlns="http://www.w3.org/2000/svg" xmlns:xlink="http://www.w3.org/1999/xlink">
<g id="graph0" class="graph" transform="scale(1 1) rotate(0) translate(4 88)">
<title>include/indigox/utils/filereader.hpp</title>
<polygon fill="#ffffff" stroke="transparent" points="-4,4 -4,-88 106.9751,-88 106.9751,4 -4,4"/>
<!-- Node0 -->
<g id="node1" class="node">
<title>Node0</title>
<g id="a_node1"><a xlink:title="Declaration of the FileReader class.">
<polygon fill="#bfbfbf" stroke="#000000" points="0,-55.5 0,-83.5 102.7188,-83.5 102.7188,-55.5 0,-55.5"/>
<text text-anchor="start" x="8" y="-71.5" font-family="Helvetica,sans-Serif" font-size="10.00" fill="#000000">include/indigox/utils</text>
<text text-anchor="middle" x="51.3594" y="-61.5" font-family="Helvetica,sans-Serif" font-size="10.00" fill="#000000">/filereader.hpp</text>
</a>
</g>
</g>
<!-- Node1 -->
<g id="node2" class="node">
<title>Node1</title>
<g id="a_node2"><a xlink:title=" ">
<polygon fill="#ffffff" stroke="#bfbfbf" points="1.1328,-.5 1.1328,-18.5 41.5859,-18.5 41.5859,-.5 1.1328,-.5"/>
<text text-anchor="middle" x="21.3594" y="-6.5" font-family="Helvetica,sans-Serif" font-size="10.00" fill="#000000">string</text>
</a>
</g>
</g>
<!-- Node0&#45;&gt;Node1 -->
<g id="edge1" class="edge">
<title>Node0&#45;&gt;Node1</title>
<path fill="none" stroke="#191970" d="M44.2498,-55.2808C40.1206,-47.0224 34.8761,-36.5335 30.4492,-27.6796"/>
<polygon fill="#191970" stroke="#191970" points="33.5042,-25.9632 25.9015,-18.5842 27.2432,-29.0937 33.5042,-25.9632"/>
</g>
<!-- Node2 -->
<g id="node3" class="node">
<title>Node2</title>
<g id="a_node3"><a xlink:title=" ">
<polygon fill="#ffffff" stroke="#bfbfbf" points="59.7437,-.5 59.7437,-18.5 102.9751,-18.5 102.9751,-.5 59.7437,-.5"/>
<text text-anchor="middle" x="81.3594" y="-6.5" font-family="Helvetica,sans-Serif" font-size="10.00" fill="#000000">vector</text>
</a>
</g>
</g>
<!-- Node0&#45;&gt;Node2 -->
<g id="edge2" class="edge">
<title>Node0&#45;&gt;Node2</title>
<path fill="none" stroke="#191970" d="M58.469,-55.2808C62.5982,-47.0224 67.8426,-36.5335 72.2696,-27.6796"/>
<polygon fill="#191970" stroke="#191970" points="75.4756,-29.0937 76.8173,-18.5842 69.2146,-25.9632 75.4756,-29.0937"/>
</g>
</g>
</svg>
