<?xml version="1.0" encoding="UTF-8" standalone="no"?>
<!DOCTYPE svg PUBLIC "-//W3C//DTD SVG 1.1//EN"
 "http://www.w3.org/Graphics/SVG/1.1/DTD/svg11.dtd">
<!-- Generated by graphviz version 2.40.1 (20161225.0304)
 -->
<!-- Title: src/utils/filereader.cpp Pages: 1 -->
<svg width="613pt" height="137pt"
 viewBox="0.00 0.00 613.22 137.00" xmlns="http://www.w3.org/2000/svg" xmlns:xlink="http://www.w3.org/1999/xlink">
<g id="graph0" class="graph" transform="scale(1 1) rotate(0) translate(4 133)">
<title>src/utils/filereader.cpp</title>
<polygon fill="#ffffff" stroke="transparent" points="-4,4 -4,-133 609.2188,-133 609.2188,4 -4,4"/>
<!-- Node0 -->
<g id="node1" class="node">
<title>Node0</title>
<polygon fill="#bfbfbf" stroke="#000000" points="305.4604,-110.5 305.4604,-128.5 418.1743,-128.5 418.1743,-110.5 305.4604,-110.5"/>
<text text-anchor="middle" x="361.8174" y="-116.5" font-family="Helvetica,sans-Serif" font-size="10.00" fill="#000000">src/utils/filereader.cpp</text>
</g>
<!-- Node1 -->
<g id="node2" class="node">
<title>Node1</title>
<g id="a_node2"><a xlink:href="filereader_8hpp.html" target="_top" xlink:title="Declaration of the FileReader class. ">
<polygon fill="#ffffff" stroke="#000000" points="0,-55.5 0,-73.5 131.6348,-73.5 131.6348,-55.5 0,-55.5"/>
<text text-anchor="middle" x="65.8174" y="-61.5" font-family="Helvetica,sans-Serif" font-size="10.00" fill="#000000">indigox/utils/filereader.hpp</text>
</a>
</g>
</g>
<!-- Node0&#45;&gt;Node1 -->
<g id="edge1" class="edge">
<title>Node0&#45;&gt;Node1</title>
<path fill="none" stroke="#191970" d="M313.2705,-110.4795C261.5457,-100.8684 179.6565,-85.6525 124.3877,-75.383"/>
<polygon fill="#191970" stroke="#191970" points="124.862,-71.9113 114.3908,-73.5255 123.5831,-78.7935 124.862,-71.9113"/>
</g>
<!-- Node3 -->
<g id="node4" class="node">
<title>Node3</title>
<polygon fill="#ffffff" stroke="#bfbfbf" points="121.2017,-.5 121.2017,-18.5 164.4331,-18.5 164.4331,-.5 121.2017,-.5"/>
<text text-anchor="middle" x="142.8174" y="-6.5" font-family="Helvetica,sans-Serif" font-size="10.00" fill="#000000">vector</text>
</g>
<!-- Node0&#45;&gt;Node3 -->
<g id="edge9" class="edge">
<title>Node0&#45;&gt;Node3</title>
<path fill="none" stroke="#191970" d="M305.0811,-110.4738C258.9927,-102.2315 198.5188,-89.0615 178.8174,-74 163.7329,-62.4681 154.0548,-42.6996 148.5753,-28.0797"/>
<polygon fill="#191970" stroke="#191970" points="151.8586,-26.8641 145.3101,-18.5354 145.2355,-29.13 151.8586,-26.8641"/>
</g>
<!-- Node4 -->
<g id="node5" class="node">
<title>Node4</title>
<polygon fill="#ffffff" stroke="#bfbfbf" points="188.2856,-55.5 188.2856,-73.5 319.3491,-73.5 319.3491,-55.5 188.2856,-55.5"/>
<text text-anchor="middle" x="253.8174" y="-61.5" font-family="Helvetica,sans-Serif" font-size="10.00" fill="#000000">boost/algorithm/string.hpp</text>
</g>
<!-- Node0&#45;&gt;Node4 -->
<g id="edge4" class="edge">
<title>Node0&#45;&gt;Node4</title>
<path fill="none" stroke="#191970" d="M343.9834,-110.4179C326.7867,-101.6603 300.5337,-88.2907 280.7831,-78.2326"/>
<polygon fill="#191970" stroke="#191970" points="282.1772,-75.0148 271.6779,-73.5956 279.0006,-81.2526 282.1772,-75.0148"/>
</g>
<!-- Node5 -->
<g id="node6" class="node">
<title>Node5</title>
<polygon fill="#ffffff" stroke="#bfbfbf" points="337.1475,-55.5 337.1475,-73.5 386.4873,-73.5 386.4873,-55.5 337.1475,-55.5"/>
<text text-anchor="middle" x="361.8174" y="-61.5" font-family="Helvetica,sans-Serif" font-size="10.00" fill="#000000">fstream</text>
</g>
<!-- Node0&#45;&gt;Node5 -->
<g id="edge5" class="edge">
<title>Node0&#45;&gt;Node5</title>
<path fill="none" stroke="#191970" d="M361.8174,-110.4179C361.8174,-103.2164 361.8174,-92.8962 361.8174,-83.8632"/>
<polygon fill="#191970" stroke="#191970" points="365.3175,-83.7794 361.8174,-73.7795 358.3175,-83.7795 365.3175,-83.7794"/>
</g>
<!-- Node6 -->
<g id="node7" class="node">
<title>Node6</title>
<polygon fill="#ffffff" stroke="#bfbfbf" points="404.645,-55.5 404.645,-73.5 458.9897,-73.5 458.9897,-55.5 404.645,-55.5"/>
<text text-anchor="middle" x="431.8174" y="-61.5" font-family="Helvetica,sans-Serif" font-size="10.00" fill="#000000">iostream</text>
</g>
<!-- Node0&#45;&gt;Node6 -->
<g id="edge6" class="edge">
<title>Node0&#45;&gt;Node6</title>
<path fill="none" stroke="#191970" d="M373.3765,-110.4179C383.8514,-102.1876 399.5106,-89.8839 411.9838,-80.0836"/>
<polygon fill="#191970" stroke="#191970" points="414.3063,-82.7098 420.0072,-73.7795 409.9816,-77.2056 414.3063,-82.7098"/>
</g>
<!-- Node7 -->
<g id="node8" class="node">
<title>Node7</title>
<polygon fill="#ffffff" stroke="#bfbfbf" points="477.0366,-55.5 477.0366,-73.5 528.5981,-73.5 528.5981,-55.5 477.0366,-55.5"/>
<text text-anchor="middle" x="502.8174" y="-61.5" font-family="Helvetica,sans-Serif" font-size="10.00" fill="#000000">sstream</text>
</g>
<!-- Node0&#45;&gt;Node7 -->
<g id="edge7" class="edge">
<title>Node0&#45;&gt;Node7</title>
<path fill="none" stroke="#191970" d="M385.1007,-110.4179C408.2662,-101.3817 444.0197,-87.4353 470.047,-77.2828"/>
<polygon fill="#191970" stroke="#191970" points="471.4551,-80.4904 479.4995,-73.5956 468.9113,-73.969 471.4551,-80.4904"/>
</g>
<!-- Node8 -->
<g id="node9" class="node">
<title>Node8</title>
<polygon fill="#ffffff" stroke="#bfbfbf" points="546.416,-55.5 546.416,-73.5 605.2188,-73.5 605.2188,-55.5 546.416,-55.5"/>
<text text-anchor="middle" x="575.8174" y="-61.5" font-family="Helvetica,sans-Serif" font-size="10.00" fill="#000000">stdexcept</text>
</g>
<!-- Node0&#45;&gt;Node8 -->
<g id="edge8" class="edge">
<title>Node0&#45;&gt;Node8</title>
<path fill="none" stroke="#191970" d="M397.1551,-110.4179C435.4873,-100.5661 496.5285,-84.878 536.3904,-74.6331"/>
<polygon fill="#191970" stroke="#191970" points="537.4758,-77.968 546.2898,-72.0889 535.7333,-71.1883 537.4758,-77.968"/>
</g>
<!-- Node2 -->
<g id="node3" class="node">
<title>Node2</title>
<polygon fill="#ffffff" stroke="#bfbfbf" points="45.5908,-.5 45.5908,-18.5 86.0439,-18.5 86.0439,-.5 45.5908,-.5"/>
<text text-anchor="middle" x="65.8174" y="-6.5" font-family="Helvetica,sans-Serif" font-size="10.00" fill="#000000">string</text>
</g>
<!-- Node1&#45;&gt;Node2 -->
<g id="edge2" class="edge">
<title>Node1&#45;&gt;Node2</title>
<path fill="none" stroke="#191970" d="M65.8174,-55.4179C65.8174,-48.2164 65.8174,-37.8962 65.8174,-28.8632"/>
<polygon fill="#191970" stroke="#191970" points="69.3175,-28.7794 65.8174,-18.7795 62.3175,-28.7795 69.3175,-28.7794"/>
</g>
<!-- Node1&#45;&gt;Node3 -->
<g id="edge3" class="edge">
<title>Node1&#45;&gt;Node3</title>
<path fill="none" stroke="#191970" d="M78.5324,-55.4179C90.2357,-47.0584 107.8221,-34.4966 121.6439,-24.6239"/>
<polygon fill="#191970" stroke="#191970" points="123.9805,-27.2561 130.0835,-18.5956 119.9118,-21.56 123.9805,-27.2561"/>
</g>
</g>
</svg>
