<?xml version="1.0" encoding="UTF-8" standalone="no"?>
<!DOCTYPE svg PUBLIC "-//W3C//DTD SVG 1.1//EN"
 "http://www.w3.org/Graphics/SVG/1.1/DTD/svg11.dtd">
<!-- Generated by graphviz version 2.40.1 (20161225.0304)
 -->
<!-- Title: include/indigox/classes/forcefield.hpp Pages: 1 -->
<svg width="1224pt" height="157pt"
 viewBox="0.00 0.00 1223.94 157.00" xmlns="http://www.w3.org/2000/svg" xmlns:xlink="http://www.w3.org/1999/xlink">
<g id="graph0" class="graph" transform="scale(1 1) rotate(0) translate(4 153)">
<title>include/indigox/classes/forcefield.hpp</title>
<polygon fill="#ffffff" stroke="transparent" points="-4,4 -4,-153 1219.9404,-153 1219.9404,4 -4,4"/>
<!-- Node16 -->
<g id="node1" class="node">
<title>Node16</title>
<polygon fill="#bfbfbf" stroke="#000000" points="552.2734,-120.5 552.2734,-148.5 670.5537,-148.5 670.5537,-120.5 552.2734,-120.5"/>
<text text-anchor="start" x="560.2734" y="-136.5" font-family="Helvetica,sans-Serif" font-size="10.00" fill="#000000">include/indigox/classes</text>
<text text-anchor="middle" x="611.4136" y="-126.5" font-family="Helvetica,sans-Serif" font-size="10.00" fill="#000000">/forcefield.hpp</text>
</g>
<!-- Node17 -->
<g id="node2" class="node">
<title>Node17</title>
<g id="a_node2"><a xlink:href="cherrypicker_8hpp.html" target="_top" xlink:title="include/indigox/algorithm\l/cherrypicker.hpp">
<polygon fill="#ffffff" stroke="#000000" points="140.3818,-55.5 140.3818,-83.5 266.4453,-83.5 266.4453,-55.5 140.3818,-55.5"/>
<text text-anchor="start" x="148.3818" y="-71.5" font-family="Helvetica,sans-Serif" font-size="10.00" fill="#000000">include/indigox/algorithm</text>
<text text-anchor="middle" x="203.4136" y="-61.5" font-family="Helvetica,sans-Serif" font-size="10.00" fill="#000000">/cherrypicker.hpp</text>
</a>
</g>
</g>
<!-- Node16&#45;&gt;Node17 -->
<g id="edge1" class="edge">
<title>Node16&#45;&gt;Node17</title>
<path fill="none" stroke="#191970" d="M541.974,-123.4373C464.7438,-111.1335 341.0673,-91.4301 266.5021,-79.5509"/>
<polygon fill="#191970" stroke="#191970" points="541.6607,-126.9315 552.0869,-125.0484 542.7621,-120.0187 541.6607,-126.9315"/>
</g>
<!-- Node19 -->
<g id="node4" class="node">
<title>Node19</title>
<g id="a_node4"><a xlink:href="main_8cpp.html" target="_top" xlink:title="src/main.cpp">
<polygon fill="#ffffff" stroke="#000000" points="167.0713,-.5 167.0713,-18.5 239.7559,-18.5 239.7559,-.5 167.0713,-.5"/>
<text text-anchor="middle" x="203.4136" y="-6.5" font-family="Helvetica,sans-Serif" font-size="10.00" fill="#000000">src/main.cpp</text>
</a>
</g>
</g>
<!-- Node16&#45;&gt;Node19 -->
<g id="edge20" class="edge">
<title>Node16&#45;&gt;Node19</title>
<path fill="none" stroke="#191970" d="M545.2682,-117.8387C509.107,-108.4527 463.6177,-96.1934 423.4136,-84 352.0235,-62.3484 268.9233,-33.0838 228.32,-18.5166"/>
<polygon fill="#191970" stroke="#191970" points="544.6503,-121.294 555.208,-120.4074 546.4018,-114.5166 544.6503,-121.294"/>
</g>
<!-- Node20 -->
<g id="node5" class="node">
<title>Node20</title>
<g id="a_node5"><a xlink:href="molecule__impl_8hpp.html" target="_top" xlink:title="include/indigox/classes\l/molecule_impl.hpp">
<polygon fill="#ffffff" stroke="#000000" points="552.2734,-55.5 552.2734,-83.5 670.5537,-83.5 670.5537,-55.5 552.2734,-55.5"/>
<text text-anchor="start" x="560.2734" y="-71.5" font-family="Helvetica,sans-Serif" font-size="10.00" fill="#000000">include/indigox/classes</text>
<text text-anchor="middle" x="611.4136" y="-61.5" font-family="Helvetica,sans-Serif" font-size="10.00" fill="#000000">/molecule_impl.hpp</text>
</a>
</g>
</g>
<!-- Node16&#45;&gt;Node20 -->
<g id="edge4" class="edge">
<title>Node16&#45;&gt;Node20</title>
<path fill="none" stroke="#191970" d="M611.4136,-110.1081C611.4136,-101.1539 611.4136,-91.3227 611.4136,-83.5765"/>
<polygon fill="#191970" stroke="#191970" points="607.9137,-110.3959 611.4136,-120.396 614.9137,-110.396 607.9137,-110.3959"/>
</g>
<!-- Node21 -->
<g id="node6" class="node">
<title>Node21</title>
<g id="a_node6"><a xlink:href="angle_8cpp.html" target="_top" xlink:title="src/classes/angle.cpp">
<polygon fill="#ffffff" stroke="#000000" points="257.6133,-.5 257.6133,-18.5 369.2139,-18.5 369.2139,-.5 257.6133,-.5"/>
<text text-anchor="middle" x="313.4136" y="-6.5" font-family="Helvetica,sans-Serif" font-size="10.00" fill="#000000">src/classes/angle.cpp</text>
</a>
</g>
</g>
<!-- Node16&#45;&gt;Node21 -->
<g id="edge12" class="edge">
<title>Node16&#45;&gt;Node21</title>
<path fill="none" stroke="#191970" d="M568.3094,-116.4194C503.6956,-89.3163 384.0958,-39.1486 335.1518,-18.6184"/>
<polygon fill="#191970" stroke="#191970" points="567.233,-119.7633 577.8085,-120.4039 569.9407,-113.3082 567.233,-119.7633"/>
</g>
<!-- Node22 -->
<g id="node7" class="node">
<title>Node22</title>
<g id="a_node7"><a xlink:href="atom_8cpp.html" target="_top" xlink:title="src/classes/atom.cpp">
<polygon fill="#ffffff" stroke="#000000" points="386.7314,-.5 386.7314,-18.5 496.0957,-18.5 496.0957,-.5 386.7314,-.5"/>
<text text-anchor="middle" x="441.4136" y="-6.5" font-family="Helvetica,sans-Serif" font-size="10.00" fill="#000000">src/classes/atom.cpp</text>
</a>
</g>
</g>
<!-- Node16&#45;&gt;Node22 -->
<g id="edge14" class="edge">
<title>Node16&#45;&gt;Node22</title>
<path fill="none" stroke="#191970" d="M580.8542,-114.6474C567.1114,-105.5352 550.7845,-94.4521 536.4136,-84 505.394,-61.4391 470.1776,-33.0636 452.6155,-18.7153"/>
<polygon fill="#191970" stroke="#191970" points="579.1901,-117.7425 589.4655,-120.3244 583.0429,-111.8982 579.1901,-117.7425"/>
</g>
<!-- Node23 -->
<g id="node8" class="node">
<title>Node23</title>
<g id="a_node8"><a xlink:href="bond_8cpp.html" target="_top" xlink:title="src/classes/bond.cpp">
<polygon fill="#ffffff" stroke="#000000" points="513.7241,-.5 513.7241,-18.5 623.103,-18.5 623.103,-.5 513.7241,-.5"/>
<text text-anchor="middle" x="568.4136" y="-6.5" font-family="Helvetica,sans-Serif" font-size="10.00" fill="#000000">src/classes/bond.cpp</text>
</a>
</g>
</g>
<!-- Node16&#45;&gt;Node23 -->
<g id="edge15" class="edge">
<title>Node16&#45;&gt;Node23</title>
<path fill="none" stroke="#191970" d="M572.5135,-114.8616C561.0029,-106.9561 549.7845,-96.667 543.4136,-84 532.1343,-61.5739 549.984,-32.8985 560.9167,-18.5425"/>
<polygon fill="#191970" stroke="#191970" points="570.9797,-118.0337 581.2972,-120.4422 574.7336,-112.1254 570.9797,-118.0337"/>
</g>
<!-- Node24 -->
<g id="node9" class="node">
<title>Node24</title>
<g id="a_node9"><a xlink:href="dihedral_8cpp.html" target="_top" xlink:title="src/classes/dihedral.cpp">
<polygon fill="#ffffff" stroke="#000000" points="919.0566,-.5 919.0566,-18.5 1041.7705,-18.5 1041.7705,-.5 919.0566,-.5"/>
<text text-anchor="middle" x="980.4136" y="-6.5" font-family="Helvetica,sans-Serif" font-size="10.00" fill="#000000">src/classes/dihedral.cpp</text>
</a>
</g>
</g>
<!-- Node16&#45;&gt;Node24 -->
<g id="edge16" class="edge">
<title>Node16&#45;&gt;Node24</title>
<path fill="none" stroke="#191970" d="M638.7748,-113.9328C668.5844,-91.6822 713.2654,-58.8467 722.4136,-55 740.4422,-47.4191 850.7102,-29.4856 921.1325,-18.533"/>
<polygon fill="#191970" stroke="#191970" points="636.3415,-111.3821 630.4303,-120.1746 640.5344,-116.9874 636.3415,-111.3821"/>
</g>
<!-- Node25 -->
<g id="node10" class="node">
<title>Node25</title>
<g id="a_node10"><a xlink:href="molecule_8cpp.html" target="_top" xlink:title="src/classes/molecule.cpp">
<polygon fill="#ffffff" stroke="#000000" points="1059.8374,-.5 1059.8374,-18.5 1186.9897,-18.5 1186.9897,-.5 1059.8374,-.5"/>
<text text-anchor="middle" x="1123.4136" y="-6.5" font-family="Helvetica,sans-Serif" font-size="10.00" fill="#000000">src/classes/molecule.cpp</text>
</a>
</g>
</g>
<!-- Node16&#45;&gt;Node25 -->
<g id="edge18" class="edge">
<title>Node16&#45;&gt;Node25</title>
<path fill="none" stroke="#191970" d="M652.7312,-116.0932C671.8723,-107.1004 694.6927,-95.7072 714.4136,-84 733.6062,-72.6063 734.5924,-63.0405 755.4136,-55 878.6291,-7.418 919.3673,-35.5228 1050.4136,-19 1053.4568,-18.6163 1056.571,-18.221 1059.7162,-17.8198"/>
<polygon fill="#191970" stroke="#191970" points="651.2554,-112.9195 643.6599,-120.3059 654.2038,-119.2683 651.2554,-112.9195"/>
</g>
<!-- Node28 -->
<g id="node13" class="node">
<title>Node28</title>
<g id="a_node13"><a xlink:href="athenaeum_8cpp.html" target="_top" xlink:title="src/classes/athenaeum.cpp">
<polygon fill="#ffffff" stroke="#000000" points="764.8276,-60.5 764.8276,-78.5 901.9995,-78.5 901.9995,-60.5 764.8276,-60.5"/>
<text text-anchor="middle" x="833.4136" y="-66.5" font-family="Helvetica,sans-Serif" font-size="10.00" fill="#000000">src/classes/athenaeum.cpp</text>
</a>
</g>
</g>
<!-- Node16&#45;&gt;Node28 -->
<g id="edge13" class="edge">
<title>Node16&#45;&gt;Node28</title>
<path fill="none" stroke="#191970" d="M669.02,-117.6333C711.7182,-105.1315 768.2533,-88.5785 802.6698,-78.5016"/>
<polygon fill="#191970" stroke="#191970" points="667.9245,-114.307 659.311,-120.476 669.8916,-121.0249 667.9245,-114.307"/>
</g>
<!-- Node29 -->
<g id="node14" class="node">
<title>Node29</title>
<g id="a_node14"><a xlink:href="forcefield_8cpp.html" target="_top" xlink:title="src/classes/forcefield.cpp">
<polygon fill="#ffffff" stroke="#000000" points="919.5591,-60.5 919.5591,-78.5 1047.2681,-78.5 1047.2681,-60.5 919.5591,-60.5"/>
<text text-anchor="middle" x="983.4136" y="-66.5" font-family="Helvetica,sans-Serif" font-size="10.00" fill="#000000">src/classes/forcefield.cpp</text>
</a>
</g>
</g>
<!-- Node16&#45;&gt;Node29 -->
<g id="edge17" class="edge">
<title>Node16&#45;&gt;Node29</title>
<path fill="none" stroke="#191970" d="M680.5907,-123.499C741.4669,-113.6646 832.4512,-98.5932 911.4136,-84 920.5668,-82.3084 930.3544,-80.4025 939.6704,-78.542"/>
<polygon fill="#191970" stroke="#191970" points="680.0264,-120.0447 670.711,-125.0918 681.1406,-126.9555 680.0264,-120.0447"/>
</g>
<!-- Node30 -->
<g id="node15" class="node">
<title>Node30</title>
<g id="a_node15"><a xlink:href="parameterised_8cpp.html" target="_top" xlink:title="src/classes/parameterised.cpp">
<polygon fill="#ffffff" stroke="#000000" points="1064.8867,-60.5 1064.8867,-78.5 1215.9404,-78.5 1215.9404,-60.5 1064.8867,-60.5"/>
<text text-anchor="middle" x="1140.4136" y="-66.5" font-family="Helvetica,sans-Serif" font-size="10.00" fill="#000000">src/classes/parameterised.cpp</text>
</a>
</g>
</g>
<!-- Node16&#45;&gt;Node30 -->
<g id="edge19" class="edge">
<title>Node16&#45;&gt;Node30</title>
<path fill="none" stroke="#191970" d="M680.6652,-127.8961C768.3229,-119.2488 923.8836,-102.9423 1056.4136,-84 1067.5477,-82.4086 1079.4742,-80.4842 1090.7414,-78.5647"/>
<polygon fill="#191970" stroke="#191970" points="680.188,-124.426 670.5781,-128.8869 680.8723,-131.3925 680.188,-124.426"/>
</g>
<!-- Node18 -->
<g id="node3" class="node">
<title>Node18</title>
<g id="a_node3"><a xlink:href="cherrypicker_8cpp.html" target="_top" xlink:title="src/algorithm/cherrypicker.cpp">
<polygon fill="#ffffff" stroke="#000000" points="0,-.5 0,-18.5 148.8271,-18.5 148.8271,-.5 0,-.5"/>
<text text-anchor="middle" x="74.4136" y="-6.5" font-family="Helvetica,sans-Serif" font-size="10.00" fill="#000000">src/algorithm/cherrypicker.cpp</text>
</a>
</g>
</g>
<!-- Node17&#45;&gt;Node18 -->
<g id="edge2" class="edge">
<title>Node17&#45;&gt;Node18</title>
<path fill="none" stroke="#191970" d="M163.9279,-51.1346C140.7759,-40.3662 112.5358,-27.2313 94.0454,-18.6311"/>
<polygon fill="#191970" stroke="#191970" points="162.6255,-54.3888 173.1688,-55.4327 165.5777,-48.0418 162.6255,-54.3888"/>
</g>
<!-- Node17&#45;&gt;Node19 -->
<g id="edge3" class="edge">
<title>Node17&#45;&gt;Node19</title>
<path fill="none" stroke="#191970" d="M203.4136,-45.2151C203.4136,-35.8253 203.4136,-25.6598 203.4136,-18.5842"/>
<polygon fill="#191970" stroke="#191970" points="199.9137,-45.2808 203.4136,-55.2808 206.9137,-45.2809 199.9137,-45.2808"/>
</g>
<!-- Node20&#45;&gt;Node21 -->
<g id="edge5" class="edge">
<title>Node20&#45;&gt;Node21</title>
<path fill="none" stroke="#191970" d="M542.233,-55.571C485.6273,-44.1739 407.2151,-28.3862 358.4407,-18.5659"/>
<polygon fill="#191970" stroke="#191970" points="541.6879,-59.0314 552.1821,-57.5742 543.0697,-52.1692 541.6879,-59.0314"/>
</g>
<!-- Node20&#45;&gt;Node22 -->
<g id="edge6" class="edge">
<title>Node20&#45;&gt;Node22</title>
<path fill="none" stroke="#191970" d="M561.7737,-51.98C530.7318,-41.0241 492.0331,-27.3657 467.0318,-18.5417"/>
<polygon fill="#191970" stroke="#191970" points="560.9613,-55.4049 571.5561,-55.4327 563.2911,-48.8039 560.9613,-55.4049"/>
</g>
<!-- Node20&#45;&gt;Node23 -->
<g id="edge7" class="edge">
<title>Node20&#45;&gt;Node23</title>
<path fill="none" stroke="#191970" d="M595.3042,-47.0217C588.2293,-37.1498 580.3219,-26.1163 574.9239,-18.5842"/>
<polygon fill="#191970" stroke="#191970" points="592.5531,-49.1915 601.2232,-55.2808 598.2428,-45.1138 592.5531,-49.1915"/>
</g>
<!-- Node20&#45;&gt;Node24 -->
<g id="edge8" class="edge">
<title>Node20&#45;&gt;Node24</title>
<path fill="none" stroke="#191970" d="M680.6235,-55.6745C681.8967,-55.4456 683.1609,-55.2206 684.4136,-55 765.189,-40.7765 858.8109,-26.8053 918.7753,-18.1763"/>
<polygon fill="#191970" stroke="#191970" points="679.9375,-52.2419 670.7353,-57.4924 681.2033,-59.1265 679.9375,-52.2419"/>
</g>
<!-- Node20&#45;&gt;Node25 -->
<g id="edge9" class="edge">
<title>Node20&#45;&gt;Node25</title>
<path fill="none" stroke="#191970" d="M680.6591,-60.2309C694.4837,-58.4434 708.9051,-56.6235 722.4136,-55 868.019,-37.5011 904.8039,-36.4636 1050.4136,-19 1053.4591,-18.6347 1056.5751,-18.2545 1059.7218,-17.8652"/>
<polygon fill="#191970" stroke="#191970" points="680.1847,-56.763 670.7196,-61.5235 681.0875,-63.7045 680.1847,-56.763"/>
</g>
<!-- Node26 -->
<g id="node11" class="node">
<title>Node26</title>
<g id="a_node11"><a xlink:href="residue_8cpp.html" target="_top" xlink:title="src/classes/residue.cpp">
<polygon fill="#ffffff" stroke="#000000" points="781.4482,-.5 781.4482,-18.5 901.3789,-18.5 901.3789,-.5 781.4482,-.5"/>
<text text-anchor="middle" x="841.4136" y="-6.5" font-family="Helvetica,sans-Serif" font-size="10.00" fill="#000000">src/classes/residue.cpp</text>
</a>
</g>
</g>
<!-- Node20&#45;&gt;Node26 -->
<g id="edge10" class="edge">
<title>Node20&#45;&gt;Node26</title>
<path fill="none" stroke="#191970" d="M675.0534,-52.8983C717.6101,-41.7966 771.9766,-27.614 806.7536,-18.5417"/>
<polygon fill="#191970" stroke="#191970" points="674.131,-49.5217 665.3384,-55.4327 675.898,-56.295 674.131,-49.5217"/>
</g>
<!-- Node27 -->
<g id="node12" class="node">
<title>Node27</title>
<g id="a_node12"><a xlink:href="molecular_8cpp.html" target="_top" xlink:title="src/graph/molecular.cpp">
<polygon fill="#ffffff" stroke="#000000" points="641.3301,-.5 641.3301,-18.5 763.4971,-18.5 763.4971,-.5 641.3301,-.5"/>
<text text-anchor="middle" x="702.4136" y="-6.5" font-family="Helvetica,sans-Serif" font-size="10.00" fill="#000000">src/graph/molecular.cpp</text>
</a>
</g>
</g>
<!-- Node20&#45;&gt;Node27 -->
<g id="edge11" class="edge">
<title>Node20&#45;&gt;Node27</title>
<path fill="none" stroke="#191970" d="M641.4712,-49.6818C657.3915,-39.1849 676.1736,-26.8011 688.6359,-18.5842"/>
<polygon fill="#191970" stroke="#191970" points="639.4013,-46.8542 632.9793,-55.2808 643.2546,-52.6982 639.4013,-46.8542"/>
</g>
</g>
</svg>
