<?xml version="1.0" encoding="UTF-8" standalone="no"?>
<!DOCTYPE svg PUBLIC "-//W3C//DTD SVG 1.1//EN"
 "http://www.w3.org/Graphics/SVG/1.1/DTD/svg11.dtd">
<!-- Generated by graphviz version 2.40.1 (20161225.0304)
 -->
<!-- Title: include/indigox/classes/forcefield.hpp Pages: 1 -->
<!--zoomable 202 -->
<svg id="main" version="1.1" xmlns="http://www.w3.org/2000/svg" xmlns:xlink="http://www.w3.org/1999/xlink" xml:space="preserve" onload="init(evt)">
<style type="text/css"><![CDATA[
.edge:hover path { stroke: red; }
.edge:hover polygon { stroke: red; fill: red; }
]]></style>
<script type="text/javascript"><![CDATA[
var edges = document.getElementsByTagName('g');
if (edges && edges.length) {
  for (var i=0;i<edges.length;i++) {
    if (edges[i].id.substr(0,4)=='edge') {
      edges[i].setAttribute('class','edge');
    }
  }
}
]]></script>
        <defs>
                <circle id="rim" cx="0" cy="0" r="7"/>
                <circle id="rim2" cx="0" cy="0" r="3.5"/>
                <g id="zoomPlus">
                        <use xlink:href="#rim" fill="#404040">
                                <set attributeName="fill" to="#808080" begin="zoomplus.mouseover" end="zoomplus.mouseout"/>
                        </use>
                        <path d="M-4,0h8M0,-4v8" fill="none" stroke="white" stroke-width="1.5" pointer-events="none"/>
                </g>
                <g id="zoomMin">
                        <use xlink:href="#rim" fill="#404040">
                                <set attributeName="fill" to="#808080" begin="zoomminus.mouseover" end="zoomminus.mouseout"/>
                        </use>
                        <path d="M-4,0h8" fill="none" stroke="white" stroke-width="1.5" pointer-events="none"/>
                </g>
                <g id="dirArrow">
                        <path fill="none" stroke="white" stroke-width="1.5" d="M0,-3.0v7 M-2.5,-0.5L0,-3.0L2.5,-0.5"/>
                </g>
               <g id="resetDef">
                       <use xlink:href="#rim2" fill="#404040">
                               <set attributeName="fill" to="#808080" begin="reset.mouseover" end="reset.mouseout"/>
                       </use>
               </g>
        </defs>

<script type="text/javascript">
var viewWidth = 711;
var viewHeight = 202;
var sectionId = 'dynsection-0';
</script>
<script xlink:href="svgpan.js"/>
<svg id="graph" class="graph">
<g id="viewport">
<title>include/indigox/classes/forcefield.hpp</title>
<polygon fill="#ffffff" stroke="transparent" points="-4,4 -4,-198 707.1772,-198 707.1772,4 -4,4"/>
<!-- Node0 -->
<g id="node1" class="node">
<title>Node0</title>
<g id="a_node1"><a xlink:title=" ">
<polygon fill="#bfbfbf" stroke="#000000" points="435.4214,-165.5 435.4214,-193.5 553.7017,-193.5 553.7017,-165.5 435.4214,-165.5"/>
<text text-anchor="start" x="443.4214" y="-181.5" font-family="Helvetica,sans-Serif" font-size="10.00" fill="#000000">include/indigox/classes</text>
<text text-anchor="middle" x="494.5615" y="-171.5" font-family="Helvetica,sans-Serif" font-size="10.00" fill="#000000">/forcefield.hpp</text>
</a>
</g>
</g>
<!-- Node1 -->
<g id="node2" class="node">
<title>Node1</title>
<g id="a_node2"><a xlink:href="fwd__declares_8hpp.html" target="_top" xlink:title=" ">
<polygon fill="#ffffff" stroke="#000000" points="261.9214,-55.5 261.9214,-73.5 385.2017,-73.5 385.2017,-55.5 261.9214,-55.5"/>
<text text-anchor="middle" x="323.5615" y="-61.5" font-family="Helvetica,sans-Serif" font-size="10.00" fill="#000000">../utils/fwd_declares.hpp</text>
</a>
</g>
</g>
<!-- Node0&#45;&gt;Node1 -->
<g id="edge1" class="edge">
<title>Node0&#45;&gt;Node1</title>
<path fill="none" stroke="#191970" d="M456.6645,-165.4218C435.3673,-156.6003 408.8672,-144.0542 387.5615,-129 368.3572,-115.4306 349.8184,-95.7951 337.6813,-81.7584"/>
<polygon fill="#191970" stroke="#191970" points="340.1276,-79.2303 331.0027,-73.8463 334.7784,-83.7456 340.1276,-79.2303"/>
</g>
<!-- Node3 -->
<g id="node4" class="node">
<title>Node3</title>
<g id="a_node4"><a xlink:title=" ">
<polygon fill="#ffffff" stroke="#bfbfbf" points="279.5049,-.5 279.5049,-18.5 331.6182,-18.5 331.6182,-.5 279.5049,-.5"/>
<text text-anchor="middle" x="305.5615" y="-6.5" font-family="Helvetica,sans-Serif" font-size="10.00" fill="#000000">memory</text>
</a>
</g>
</g>
<!-- Node0&#45;&gt;Node3 -->
<g id="edge18" class="edge">
<title>Node0&#45;&gt;Node3</title>
<path fill="none" stroke="#191970" d="M435.3448,-172.6298C377.0706,-162.3149 291.3556,-136.7702 252.5615,-74 241.116,-55.4807 261.3494,-36.4876 280.0263,-23.9527"/>
<polygon fill="#191970" stroke="#191970" points="282.0615,-26.8071 288.6508,-18.5107 278.3259,-20.8871 282.0615,-26.8071"/>
</g>
<!-- Node4 -->
<g id="node5" class="node">
<title>Node4</title>
<g id="a_node5"><a xlink:href="periodictable_8hpp.html" target="_top" xlink:title=" ">
<polygon fill="#ffffff" stroke="#000000" points="396.478,-110.5 396.478,-128.5 488.645,-128.5 488.645,-110.5 396.478,-110.5"/>
<text text-anchor="middle" x="442.5615" y="-116.5" font-family="Helvetica,sans-Serif" font-size="10.00" fill="#000000">periodictable.hpp</text>
</a>
</g>
</g>
<!-- Node0&#45;&gt;Node4 -->
<g id="edge4" class="edge">
<title>Node0&#45;&gt;Node4</title>
<path fill="none" stroke="#191970" d="M482.2382,-165.2808C474.6961,-156.5784 465.0075,-145.3992 457.0924,-136.2664"/>
<polygon fill="#191970" stroke="#191970" points="459.6287,-133.8488 450.4345,-128.5842 454.3389,-138.4334 459.6287,-133.8488"/>
</g>
<!-- Node13 -->
<g id="node14" class="node">
<title>Node13</title>
<g id="a_node14"><a xlink:title=" ">
<polygon fill="#ffffff" stroke="#bfbfbf" points="506.2119,-110.5 506.2119,-128.5 588.9111,-128.5 588.9111,-110.5 506.2119,-110.5"/>
<text text-anchor="middle" x="547.5615" y="-116.5" font-family="Helvetica,sans-Serif" font-size="10.00" fill="#000000">EASTL/bitset.h</text>
</a>
</g>
</g>
<!-- Node0&#45;&gt;Node13 -->
<g id="edge16" class="edge">
<title>Node0&#45;&gt;Node13</title>
<path fill="none" stroke="#191970" d="M507.1218,-165.2808C514.809,-156.5784 524.6839,-145.3992 532.7512,-136.2664"/>
<polygon fill="#191970" stroke="#191970" points="535.5399,-138.3961 539.5372,-128.5842 530.2936,-133.7618 535.5399,-138.3961"/>
</g>
<!-- Node14 -->
<g id="node15" class="node">
<title>Node14</title>
<g id="a_node15"><a xlink:title=" ">
<polygon fill="#ffffff" stroke="#bfbfbf" points="606.835,-110.5 606.835,-128.5 642.2881,-128.5 642.2881,-110.5 606.835,-110.5"/>
<text text-anchor="middle" x="624.5615" y="-116.5" font-family="Helvetica,sans-Serif" font-size="10.00" fill="#000000">map</text>
</a>
</g>
</g>
<!-- Node0&#45;&gt;Node14 -->
<g id="edge17" class="edge">
<title>Node0&#45;&gt;Node14</title>
<path fill="none" stroke="#191970" d="M525.0407,-165.4327C546.9387,-155.3259 576.2003,-141.8206 597.3204,-132.0728"/>
<polygon fill="#191970" stroke="#191970" points="599.0677,-135.1212 606.6806,-127.7527 596.1343,-128.7655 599.0677,-135.1212"/>
</g>
<!-- Node15 -->
<g id="node16" class="node">
<title>Node15</title>
<g id="a_node16"><a xlink:title=" ">
<polygon fill="#ffffff" stroke="#bfbfbf" points="659.9458,-110.5 659.9458,-128.5 703.1772,-128.5 703.1772,-110.5 659.9458,-110.5"/>
<text text-anchor="middle" x="681.5615" y="-116.5" font-family="Helvetica,sans-Serif" font-size="10.00" fill="#000000">vector</text>
</a>
</g>
</g>
<!-- Node0&#45;&gt;Node15 -->
<g id="edge19" class="edge">
<title>Node0&#45;&gt;Node15</title>
<path fill="none" stroke="#191970" d="M538.4047,-165.4327C572.5446,-154.4787 619.1274,-139.5323 649.7566,-129.7048"/>
<polygon fill="#191970" stroke="#191970" points="651.0387,-132.9692 659.4912,-126.5814 648.9,-126.3039 651.0387,-132.9692"/>
</g>
<!-- Node2 -->
<g id="node3" class="node">
<title>Node2</title>
<g id="a_node3"><a xlink:title=" ">
<polygon fill="#ffffff" stroke="#bfbfbf" points="499.1108,-.5 499.1108,-18.5 544.0122,-18.5 544.0122,-.5 499.1108,-.5"/>
<text text-anchor="middle" x="521.5615" y="-6.5" font-family="Helvetica,sans-Serif" font-size="10.00" fill="#000000">cstdint</text>
</a>
</g>
</g>
<!-- Node1&#45;&gt;Node2 -->
<g id="edge2" class="edge">
<title>Node1&#45;&gt;Node2</title>
<path fill="none" stroke="#191970" d="M356.2572,-55.4179C393.1039,-45.1827 452.6293,-28.6478 489.2976,-18.4622"/>
<polygon fill="#191970" stroke="#191970" points="490.2977,-21.817 498.9961,-15.7682 488.4241,-15.0724 490.2977,-21.817"/>
</g>
<!-- Node1&#45;&gt;Node3 -->
<g id="edge3" class="edge">
<title>Node1&#45;&gt;Node3</title>
<path fill="none" stroke="#191970" d="M320.5892,-55.4179C318.2064,-48.1372 314.7805,-37.669 311.8013,-28.5659"/>
<polygon fill="#191970" stroke="#191970" points="315.0353,-27.1948 308.5984,-18.7795 308.3825,-29.3721 315.0353,-27.1948"/>
</g>
<!-- Node4&#45;&gt;Node1 -->
<g id="edge11" class="edge">
<title>Node4&#45;&gt;Node1</title>
<path fill="none" stroke="#191970" d="M422.9111,-110.4179C403.7045,-101.5409 374.2453,-87.9253 352.3875,-77.823"/>
<polygon fill="#191970" stroke="#191970" points="353.7869,-74.614 343.2411,-73.5956 350.8501,-80.9682 353.7869,-74.614"/>
</g>
<!-- Node4&#45;&gt;Node2 -->
<g id="edge14" class="edge">
<title>Node4&#45;&gt;Node2</title>
<path fill="none" stroke="#191970" d="M488.7335,-111.0107C548.9746,-99.716 647.38,-80.4244 652.5615,-74 681.7704,-37.7848 601.7662,-20.3449 554.1315,-13.3734"/>
<polygon fill="#191970" stroke="#191970" points="554.6096,-9.9062 544.2246,-12.0045 553.6515,-16.8404 554.6096,-9.9062"/>
</g>
<!-- Node5 -->
<g id="node6" class="node">
<title>Node5</title>
<g id="a_node6"><a xlink:href="common_8hpp.html" target="_top" xlink:title=" ">
<polygon fill="#ffffff" stroke="#000000" points="103.2095,-55.5 103.2095,-73.5 205.9136,-73.5 205.9136,-55.5 103.2095,-55.5"/>
<text text-anchor="middle" x="154.5615" y="-61.5" font-family="Helvetica,sans-Serif" font-size="10.00" fill="#000000">../utils/common.hpp</text>
</a>
</g>
</g>
<!-- Node4&#45;&gt;Node5 -->
<g id="edge5" class="edge">
<title>Node4&#45;&gt;Node5</title>
<path fill="none" stroke="#191970" d="M396.2893,-110.6633C346.2476,-101.1067 266.3925,-85.8566 212.283,-75.5232"/>
<polygon fill="#191970" stroke="#191970" points="212.6358,-72.0274 202.1567,-73.5894 211.3226,-78.9031 212.6358,-72.0274"/>
</g>
<!-- Node10 -->
<g id="node11" class="node">
<title>Node10</title>
<g id="a_node11"><a xlink:title=" ">
<polygon fill="#ffffff" stroke="#bfbfbf" points="403.0396,-55.5 403.0396,-73.5 514.0835,-73.5 514.0835,-55.5 403.0396,-55.5"/>
<text text-anchor="middle" x="458.5615" y="-61.5" font-family="Helvetica,sans-Serif" font-size="10.00" fill="#000000">EASTL/vector_map.h</text>
</a>
</g>
</g>
<!-- Node4&#45;&gt;Node10 -->
<g id="edge12" class="edge">
<title>Node4&#45;&gt;Node10</title>
<path fill="none" stroke="#191970" d="M445.2036,-110.4179C447.3216,-103.1372 450.3669,-92.669 453.0151,-83.5659"/>
<polygon fill="#191970" stroke="#191970" points="456.4294,-84.3591 455.862,-73.7795 449.708,-82.4037 456.4294,-84.3591"/>
</g>
<!-- Node11 -->
<g id="node12" class="node">
<title>Node11</title>
<g id="a_node12"><a xlink:title=" ">
<polygon fill="#ffffff" stroke="#bfbfbf" points="532.1699,-55.5 532.1699,-73.5 570.9531,-73.5 570.9531,-55.5 532.1699,-55.5"/>
<text text-anchor="middle" x="551.5615" y="-61.5" font-family="Helvetica,sans-Serif" font-size="10.00" fill="#000000">array</text>
</a>
</g>
</g>
<!-- Node4&#45;&gt;Node11 -->
<g id="edge13" class="edge">
<title>Node4&#45;&gt;Node11</title>
<path fill="none" stroke="#191970" d="M460.5607,-110.4179C477.9165,-101.6603 504.4126,-88.2907 524.3461,-78.2326"/>
<polygon fill="#191970" stroke="#191970" points="526.1845,-81.2253 533.5357,-73.5956 523.0311,-74.9758 526.1845,-81.2253"/>
</g>
<!-- Node12 -->
<g id="node13" class="node">
<title>Node12</title>
<g id="a_node13"><a xlink:title=" ">
<polygon fill="#ffffff" stroke="#bfbfbf" points="589.3892,-55.5 589.3892,-73.5 643.7339,-73.5 643.7339,-55.5 589.3892,-55.5"/>
<text text-anchor="middle" x="616.5615" y="-61.5" font-family="Helvetica,sans-Serif" font-size="10.00" fill="#000000">iostream</text>
</a>
</g>
</g>
<!-- Node4&#45;&gt;Node12 -->
<g id="edge15" class="edge">
<title>Node4&#45;&gt;Node12</title>
<path fill="none" stroke="#191970" d="M471.2941,-110.4179C500.9484,-101.0444 547.318,-86.3873 579.6665,-76.1622"/>
<polygon fill="#191970" stroke="#191970" points="580.7414,-79.4932 589.2215,-73.142 578.6316,-72.8187 580.7414,-79.4932"/>
</g>
<!-- Node5&#45;&gt;Node3 -->
<g id="edge8" class="edge">
<title>Node5&#45;&gt;Node3</title>
<path fill="none" stroke="#191970" d="M179.4961,-55.4179C204.4885,-46.3147 243.1621,-32.2283 271.0851,-22.0576"/>
<polygon fill="#191970" stroke="#191970" points="272.6426,-25.2153 280.8409,-18.5042 270.2469,-18.6381 272.6426,-25.2153"/>
</g>
<!-- Node6 -->
<g id="node7" class="node">
<title>Node6</title>
<g id="a_node7"><a xlink:title=" ">
<polygon fill="#ffffff" stroke="#bfbfbf" points="203.9976,-.5 203.9976,-18.5 261.1255,-18.5 261.1255,-.5 203.9976,-.5"/>
<text text-anchor="middle" x="232.5615" y="-6.5" font-family="Helvetica,sans-Serif" font-size="10.00" fill="#000000">algorithm</text>
</a>
</g>
</g>
<!-- Node5&#45;&gt;Node6 -->
<g id="edge6" class="edge">
<title>Node5&#45;&gt;Node6</title>
<path fill="none" stroke="#191970" d="M167.4416,-55.4179C179.2969,-47.0584 197.1118,-34.4966 211.1131,-24.6239"/>
<polygon fill="#191970" stroke="#191970" points="213.5066,-27.2188 219.6623,-18.5956 209.4727,-21.498 213.5066,-27.2188"/>
</g>
<!-- Node7 -->
<g id="node8" class="node">
<title>Node7</title>
<g id="a_node8"><a xlink:title=" ">
<polygon fill="#ffffff" stroke="#bfbfbf" points="0,-.5 0,-18.5 47.123,-18.5 47.123,-.5 0,-.5"/>
<text text-anchor="middle" x="23.5615" y="-6.5" font-family="Helvetica,sans-Serif" font-size="10.00" fill="#000000">iterator</text>
</a>
</g>
</g>
<!-- Node5&#45;&gt;Node7 -->
<g id="edge7" class="edge">
<title>Node5&#45;&gt;Node7</title>
<path fill="none" stroke="#191970" d="M132.9295,-55.4179C111.5966,-46.4613 78.7736,-32.6806 54.649,-22.552"/>
<polygon fill="#191970" stroke="#191970" points="55.8009,-19.2397 45.2256,-18.5956 53.0911,-25.6939 55.8009,-19.2397"/>
</g>
<!-- Node8 -->
<g id="node9" class="node">
<title>Node8</title>
<g id="a_node9"><a xlink:title=" ">
<polygon fill="#ffffff" stroke="#bfbfbf" points="65.335,-.5 65.335,-18.5 105.7881,-18.5 105.7881,-.5 65.335,-.5"/>
<text text-anchor="middle" x="85.5615" y="-6.5" font-family="Helvetica,sans-Serif" font-size="10.00" fill="#000000">string</text>
</a>
</g>
</g>
<!-- Node5&#45;&gt;Node8 -->
<g id="edge9" class="edge">
<title>Node5&#45;&gt;Node8</title>
<path fill="none" stroke="#191970" d="M143.1676,-55.4179C132.8423,-47.1876 117.4068,-34.8839 105.1118,-25.0836"/>
<polygon fill="#191970" stroke="#191970" points="107.2044,-22.2757 97.203,-18.7795 102.8412,-27.7495 107.2044,-22.2757"/>
</g>
<!-- Node9 -->
<g id="node10" class="node">
<title>Node9</title>
<g id="a_node10"><a xlink:title=" ">
<polygon fill="#ffffff" stroke="#bfbfbf" points="123.4951,-.5 123.4951,-18.5 185.6279,-18.5 185.6279,-.5 123.4951,-.5"/>
<text text-anchor="middle" x="154.5615" y="-6.5" font-family="Helvetica,sans-Serif" font-size="10.00" fill="#000000">type_traits</text>
</a>
</g>
</g>
<!-- Node5&#45;&gt;Node9 -->
<g id="edge10" class="edge">
<title>Node5&#45;&gt;Node9</title>
<path fill="none" stroke="#191970" d="M154.5615,-55.4179C154.5615,-48.2164 154.5615,-37.8962 154.5615,-28.8632"/>
<polygon fill="#191970" stroke="#191970" points="158.0616,-28.7794 154.5615,-18.7795 151.0616,-28.7795 158.0616,-28.7794"/>
</g>
</g>
</svg>
        <g id="navigator" transform="translate(0 0)" fill="#404254">
                <rect fill="#f2f5e9" fill-opacity="0.5" stroke="#606060" stroke-width=".5" x="0" y="0" width="60" height="60"/>
                <use id="zoomplus" xlink:href="#zoomPlus" x="17" y="9" onmousedown="handleZoom(evt,'in')"/>
                <use id="zoomminus" xlink:href="#zoomMin" x="42" y="9" onmousedown="handleZoom(evt,'out')"/>
                <use id="reset" xlink:href="#resetDef" x="30" y="36" onmousedown="handleReset()"/>
                <g id="arrowUp" xlink:href="#dirArrow" transform="translate(30 24)" onmousedown="handlePan(0,-1)">
                  <use xlink:href="#rim" fill="#404040">
                        <set attributeName="fill" to="#808080" begin="arrowUp.mouseover" end="arrowUp.mouseout"/>
                  </use>
                  <path fill="none" stroke="white" stroke-width="1.5" d="M0,-3.0v7 M-2.5,-0.5L0,-3.0L2.5,-0.5"/>
                </g>
                <g id="arrowRight" xlink:href="#dirArrow" transform="rotate(90) translate(36 -43)" onmousedown="handlePan(1,0)">
                  <use xlink:href="#rim" fill="#404040">
                        <set attributeName="fill" to="#808080" begin="arrowRight.mouseover" end="arrowRight.mouseout"/>
                  </use>
                  <path fill="none" stroke="white" stroke-width="1.5" d="M0,-3.0v7 M-2.5,-0.5L0,-3.0L2.5,-0.5"/>
                </g>
                <g id="arrowDown" xlink:href="#dirArrow" transform="rotate(180) translate(-30 -48)" onmousedown="handlePan(0,1)">
                  <use xlink:href="#rim" fill="#404040">
                        <set attributeName="fill" to="#808080" begin="arrowDown.mouseover" end="arrowDown.mouseout"/>
                  </use>
                  <path fill="none" stroke="white" stroke-width="1.5" d="M0,-3.0v7 M-2.5,-0.5L0,-3.0L2.5,-0.5"/>
                </g>
                <g id="arrowLeft" xlink:href="#dirArrow" transform="rotate(270) translate(-36 17)" onmousedown="handlePan(-1,0)">
                  <use xlink:href="#rim" fill="#404040">
                        <set attributeName="fill" to="#808080" begin="arrowLeft.mouseover" end="arrowLeft.mouseout"/>
                  </use>
                  <path fill="none" stroke="white" stroke-width="1.5" d="M0,-3.0v7 M-2.5,-0.5L0,-3.0L2.5,-0.5"/>
                </g>
        </g>
        <svg viewBox="0 0 15 15" width="100%" height="30px" preserveAspectRatio="xMaxYMin meet">
         <g id="arrow_out" transform="scale(0.3 0.3)">
          <a xlink:href="forcefield_8hpp__incl_org.svg" target="_base">
           <rect id="button" ry="5" rx="5" y="6" x="6" height="38" width="38"
                fill="#f2f5e9" fill-opacity="0.5" stroke="#606060" stroke-width="1.0"/>
           <path id="arrow"
             d="M 11.500037,31.436501 C 11.940474,20.09759 22.043105,11.32322 32.158766,21.979434 L 37.068811,17.246167 C 37.068811,17.246167 37.088388,32 37.088388,32 L 22.160133,31.978069 C 22.160133,31.978069 26.997745,27.140456 26.997745,27.140456 C 18.528582,18.264221 13.291696,25.230495 11.500037,31.436501 z"
             style="fill:#404040;"/>
          </a>
         </g>
        </svg>
</svg>
