<?xml version="1.0" encoding="UTF-8" standalone="no"?>
<!DOCTYPE svg PUBLIC "-//W3C//DTD SVG 1.1//EN"
 "http://www.w3.org/Graphics/SVG/1.1/DTD/svg11.dtd">
<!-- Generated by graphviz version 2.40.1 (20161225.0304)
 -->
<!-- Title: src/classes/forcefield.cpp Pages: 1 -->
<svg width="2372pt" height="257pt"
 viewBox="0.00 0.00 2372.34 257.00" xmlns="http://www.w3.org/2000/svg" xmlns:xlink="http://www.w3.org/1999/xlink">
<g id="graph0" class="graph" transform="scale(1 1) rotate(0) translate(4 253)">
<title>src/classes/forcefield.cpp</title>
<polygon fill="#ffffff" stroke="transparent" points="-4,4 -4,-253 2368.3379,-253 2368.3379,4 -4,4"/>
<!-- Node0 -->
<g id="node1" class="node">
<title>Node0</title>
<polygon fill="#bfbfbf" stroke="#000000" points="1857.0918,-230.5 1857.0918,-248.5 1984.8008,-248.5 1984.8008,-230.5 1857.0918,-230.5"/>
<text text-anchor="middle" x="1920.9463" y="-236.5" font-family="Helvetica,sans-Serif" font-size="10.00" fill="#000000">src/classes/forcefield.cpp</text>
</g>
<!-- Node1 -->
<g id="node2" class="node">
<title>Node1</title>
<g id="a_node2"><a xlink:href="forcefield_8hpp.html" target="_top" xlink:title="indigox/classes/forcefield.hpp">
<polygon fill="#ffffff" stroke="#000000" points="1760.6314,-175.5 1760.6314,-193.5 1907.2613,-193.5 1907.2613,-175.5 1760.6314,-175.5"/>
<text text-anchor="middle" x="1833.9463" y="-181.5" font-family="Helvetica,sans-Serif" font-size="10.00" fill="#000000">indigox/classes/forcefield.hpp</text>
</a>
</g>
</g>
<!-- Node0&#45;&gt;Node1 -->
<g id="edge1" class="edge">
<title>Node0&#45;&gt;Node1</title>
<path fill="none" stroke="#191970" d="M1906.5801,-230.4179C1893.105,-221.8992 1872.7271,-209.0166 1856.9819,-199.0627"/>
<polygon fill="#191970" stroke="#191970" points="1858.6568,-195.9808 1848.334,-193.5956 1854.9163,-201.8977 1858.6568,-195.9808"/>
</g>
<!-- Node5 -->
<g id="node6" class="node">
<title>Node5</title>
<g id="a_node6"><a xlink:href="periodictable_8hpp.html" target="_top" xlink:title="periodictable.hpp">
<polygon fill="#ffffff" stroke="#000000" points="1961.8628,-120.5 1961.8628,-138.5 2054.0298,-138.5 2054.0298,-120.5 1961.8628,-120.5"/>
<text text-anchor="middle" x="2007.9463" y="-126.5" font-family="Helvetica,sans-Serif" font-size="10.00" fill="#000000">periodictable.hpp</text>
</a>
</g>
</g>
<!-- Node0&#45;&gt;Node5 -->
<g id="edge21" class="edge">
<title>Node0&#45;&gt;Node5</title>
<path fill="none" stroke="#191970" d="M1928.0659,-230.4982C1942.5319,-212.2079 1975.5741,-170.4304 1994.3147,-146.7354"/>
<polygon fill="#191970" stroke="#191970" points="1997.2702,-148.6407 2000.7284,-138.6261 1991.7798,-144.2983 1997.2702,-148.6407"/>
</g>
<!-- Node12 -->
<g id="node13" class="node">
<title>Node12</title>
<polygon fill="#ffffff" stroke="#bfbfbf" points="2325.5547,-60.5 2325.5547,-78.5 2364.3379,-78.5 2364.3379,-60.5 2325.5547,-60.5"/>
<text text-anchor="middle" x="2344.9463" y="-66.5" font-family="Helvetica,sans-Serif" font-size="10.00" fill="#000000">array</text>
</g>
<!-- Node0&#45;&gt;Node12 -->
<g id="edge46" class="edge">
<title>Node0&#45;&gt;Node12</title>
<path fill="none" stroke="#191970" d="M1946.8098,-230.3995C2010.5746,-207.7361 2180.0739,-146.1118 2316.9463,-84 2317.638,-83.6861 2318.3369,-83.3637 2319.0403,-83.0345"/>
<polygon fill="#191970" stroke="#191970" points="2320.7767,-86.081 2328.206,-78.5274 2317.6878,-79.7994 2320.7767,-86.081"/>
</g>
<!-- Node17 -->
<g id="node18" class="node">
<title>Node17</title>
<g id="a_node18"><a xlink:href="quad_8hpp.html" target="_top" xlink:title="indigox/utils/quad.hpp">
<polygon fill="#ffffff" stroke="#000000" points="701.5772,-175.5 701.5772,-193.5 814.3155,-193.5 814.3155,-175.5 701.5772,-175.5"/>
<text text-anchor="middle" x="757.9463" y="-181.5" font-family="Helvetica,sans-Serif" font-size="10.00" fill="#000000">indigox/utils/quad.hpp</text>
</a>
</g>
</g>
<!-- Node0&#45;&gt;Node17 -->
<g id="edge22" class="edge">
<title>Node0&#45;&gt;Node17</title>
<path fill="none" stroke="#191970" d="M1856.7618,-236.4646C1654.3451,-226.892 1030.6502,-197.3966 824.7061,-187.6572"/>
<polygon fill="#191970" stroke="#191970" points="824.7914,-184.1574 814.6372,-187.181 824.4606,-191.1496 824.7914,-184.1574"/>
</g>
<!-- Node19 -->
<g id="node20" class="node">
<title>Node19</title>
<g id="a_node20"><a xlink:href="serialise_8hpp.html" target="_top" xlink:title="serialise.hpp">
<polygon fill="#ffffff" stroke="#000000" points="894.875,-120.5 894.875,-138.5 967.0176,-138.5 967.0176,-120.5 894.875,-120.5"/>
<text text-anchor="middle" x="930.9463" y="-126.5" font-family="Helvetica,sans-Serif" font-size="10.00" fill="#000000">serialise.hpp</text>
</a>
</g>
</g>
<!-- Node0&#45;&gt;Node19 -->
<g id="edge41" class="edge">
<title>Node0&#45;&gt;Node19</title>
<path fill="none" stroke="#191970" d="M1856.7525,-232.3673C1671.4357,-211.7766 1138.5729,-152.5696 977.5696,-134.6804"/>
<polygon fill="#191970" stroke="#191970" points="977.8354,-131.1884 967.51,-133.5626 977.0623,-138.1456 977.8354,-131.1884"/>
</g>
<!-- Node33 -->
<g id="node34" class="node">
<title>Node33</title>
<g id="a_node34"><a xlink:href="triple_8hpp.html" target="_top" xlink:title="indigox/utils/triple.hpp">
<polygon fill="#ffffff" stroke="#000000" points="225.8628,-175.5 225.8628,-193.5 338.0298,-193.5 338.0298,-175.5 225.8628,-175.5"/>
<text text-anchor="middle" x="281.9463" y="-181.5" font-family="Helvetica,sans-Serif" font-size="10.00" fill="#000000">indigox/utils/triple.hpp</text>
</a>
</g>
</g>
<!-- Node0&#45;&gt;Node33 -->
<g id="edge42" class="edge">
<title>Node0&#45;&gt;Node33</title>
<path fill="none" stroke="#191970" d="M1856.9473,-237.3524C1595.9769,-228.595 613.5259,-195.6268 348.2871,-186.7262"/>
<polygon fill="#191970" stroke="#191970" points="348.1558,-183.2199 338.044,-186.3825 347.921,-190.216 348.1558,-183.2199"/>
</g>
<!-- Node34 -->
<g id="node35" class="node">
<title>Node34</title>
<polygon fill="#ffffff" stroke="#bfbfbf" points="2109.6041,-175.5 2109.6041,-193.5 2182.2886,-193.5 2182.2886,-175.5 2109.6041,-175.5"/>
<text text-anchor="middle" x="2145.9463" y="-181.5" font-family="Helvetica,sans-Serif" font-size="10.00" fill="#000000">initializer_list</text>
</g>
<!-- Node0&#45;&gt;Node34 -->
<g id="edge47" class="edge">
<title>Node0&#45;&gt;Node34</title>
<path fill="none" stroke="#191970" d="M1957.8486,-230.4795C1996.5474,-221.0197 2057.459,-206.1302 2099.426,-195.8716"/>
<polygon fill="#191970" stroke="#191970" points="2100.5145,-199.2087 2109.3974,-193.4342 2098.8523,-192.4089 2100.5145,-199.2087"/>
</g>
<!-- Node35 -->
<g id="node36" class="node">
<title>Node35</title>
<polygon fill="#ffffff" stroke="#bfbfbf" points="2200.1631,-175.5 2200.1631,-193.5 2251.7295,-193.5 2251.7295,-175.5 2200.1631,-175.5"/>
<text text-anchor="middle" x="2225.9463" y="-181.5" font-family="Helvetica,sans-Serif" font-size="10.00" fill="#000000">numeric</text>
</g>
<!-- Node0&#45;&gt;Node35 -->
<g id="edge48" class="edge">
<title>Node0&#45;&gt;Node35</title>
<path fill="none" stroke="#191970" d="M1984.8402,-230.5394C2037.4051,-222.7559 2114.0226,-210.4706 2189.8203,-194.0739"/>
<polygon fill="#191970" stroke="#191970" points="2191.0024,-197.3981 2200.0226,-191.8405 2189.5054,-190.56 2191.0024,-197.3981"/>
</g>
<!-- Node2 -->
<g id="node3" class="node">
<title>Node2</title>
<g id="a_node3"><a xlink:href="fwd__declares_8hpp.html" target="_top" xlink:title="../utils/fwd_declares.hpp">
<polygon fill="#ffffff" stroke="#000000" points="1824.3062,-60.5 1824.3062,-78.5 1947.5865,-78.5 1947.5865,-60.5 1824.3062,-60.5"/>
<text text-anchor="middle" x="1885.9463" y="-66.5" font-family="Helvetica,sans-Serif" font-size="10.00" fill="#000000">../utils/fwd_declares.hpp</text>
</a>
</g>
</g>
<!-- Node1&#45;&gt;Node2 -->
<g id="edge2" class="edge">
<title>Node1&#45;&gt;Node2</title>
<path fill="none" stroke="#191970" d="M1835.7367,-175.4392C1838.4517,-162.6787 1844.2343,-138.8646 1852.9463,-120 1858.3371,-108.3271 1866.1466,-96.2362 1872.8153,-86.8126"/>
<polygon fill="#191970" stroke="#191970" points="1875.6719,-88.8356 1878.7433,-78.6957 1870.0189,-84.7071 1875.6719,-88.8356"/>
</g>
<!-- Node4 -->
<g id="node5" class="node">
<title>Node4</title>
<polygon fill="#ffffff" stroke="#bfbfbf" points="1859.8897,-.5 1859.8897,-18.5 1912.003,-18.5 1912.003,-.5 1859.8897,-.5"/>
<text text-anchor="middle" x="1885.9463" y="-6.5" font-family="Helvetica,sans-Serif" font-size="10.00" fill="#000000">memory</text>
</g>
<!-- Node1&#45;&gt;Node4 -->
<g id="edge19" class="edge">
<title>Node1&#45;&gt;Node4</title>
<path fill="none" stroke="#191970" d="M1828.9944,-175.3505C1817.7291,-153.1873 1792.8133,-95.4717 1814.9463,-55 1822.7085,-40.8063 1836.998,-30.3885 1850.7338,-23.1314"/>
<polygon fill="#191970" stroke="#191970" points="1852.5972,-26.1176 1860.0676,-18.6046 1849.5426,-19.8192 1852.5972,-26.1176"/>
</g>
<!-- Node1&#45;&gt;Node5 -->
<g id="edge5" class="edge">
<title>Node1&#45;&gt;Node5</title>
<path fill="none" stroke="#191970" d="M1862.6789,-175.4179C1891.9833,-166.155 1937.6109,-151.7325 1969.9005,-141.526"/>
<polygon fill="#191970" stroke="#191970" points="1970.9802,-144.8555 1979.4603,-138.5042 1968.8704,-138.181 1970.9802,-144.8555"/>
</g>
<!-- Node14 -->
<g id="node15" class="node">
<title>Node14</title>
<polygon fill="#ffffff" stroke="#bfbfbf" points="1861.5967,-120.5 1861.5967,-138.5 1944.2959,-138.5 1944.2959,-120.5 1861.5967,-120.5"/>
<text text-anchor="middle" x="1902.9463" y="-126.5" font-family="Helvetica,sans-Serif" font-size="10.00" fill="#000000">EASTL/bitset.h</text>
</g>
<!-- Node1&#45;&gt;Node14 -->
<g id="edge17" class="edge">
<title>Node1&#45;&gt;Node14</title>
<path fill="none" stroke="#191970" d="M1845.3403,-175.4179C1855.6656,-167.1876 1871.1011,-154.8839 1883.3961,-145.0836"/>
<polygon fill="#191970" stroke="#191970" points="1885.6667,-147.7495 1891.3048,-138.7795 1881.3035,-142.2757 1885.6667,-147.7495"/>
</g>
<!-- Node15 -->
<g id="node16" class="node">
<title>Node15</title>
<polygon fill="#ffffff" stroke="#bfbfbf" points="1671.2198,-120.5 1671.2198,-138.5 1706.6729,-138.5 1706.6729,-120.5 1671.2198,-120.5"/>
<text text-anchor="middle" x="1688.9463" y="-126.5" font-family="Helvetica,sans-Serif" font-size="10.00" fill="#000000">map</text>
</g>
<!-- Node1&#45;&gt;Node15 -->
<g id="edge18" class="edge">
<title>Node1&#45;&gt;Node15</title>
<path fill="none" stroke="#191970" d="M1810.0025,-175.4179C1784.3253,-165.6782 1743.6093,-150.2342 1716.5883,-139.9849"/>
<polygon fill="#191970" stroke="#191970" points="1717.554,-136.6079 1706.9627,-136.3338 1715.0714,-143.1529 1717.554,-136.6079"/>
</g>
<!-- Node16 -->
<g id="node17" class="node">
<title>Node16</title>
<polygon fill="#ffffff" stroke="#bfbfbf" points="1724.3306,-120.5 1724.3306,-138.5 1767.5621,-138.5 1767.5621,-120.5 1724.3306,-120.5"/>
<text text-anchor="middle" x="1745.9463" y="-126.5" font-family="Helvetica,sans-Serif" font-size="10.00" fill="#000000">vector</text>
</g>
<!-- Node1&#45;&gt;Node16 -->
<g id="edge20" class="edge">
<title>Node1&#45;&gt;Node16</title>
<path fill="none" stroke="#191970" d="M1819.4149,-175.4179C1805.785,-166.8992 1785.1728,-154.0166 1769.2467,-144.0627"/>
<polygon fill="#191970" stroke="#191970" points="1770.8343,-140.9277 1760.4993,-138.5956 1767.1243,-146.8637 1770.8343,-140.9277"/>
</g>
<!-- Node3 -->
<g id="node4" class="node">
<title>Node3</title>
<polygon fill="#ffffff" stroke="#bfbfbf" points="1954.4957,-.5 1954.4957,-18.5 1999.397,-18.5 1999.397,-.5 1954.4957,-.5"/>
<text text-anchor="middle" x="1976.9463" y="-6.5" font-family="Helvetica,sans-Serif" font-size="10.00" fill="#000000">cstdint</text>
</g>
<!-- Node2&#45;&gt;Node3 -->
<g id="edge3" class="edge">
<title>Node2&#45;&gt;Node3</title>
<path fill="none" stroke="#191970" d="M1899.7673,-60.3873C1914.2826,-50.8168 1937.3372,-35.6159 1954.4738,-24.3171"/>
<polygon fill="#191970" stroke="#191970" points="1956.8715,-26.9285 1963.2935,-18.5019 1953.0182,-21.0845 1956.8715,-26.9285"/>
</g>
<!-- Node2&#45;&gt;Node4 -->
<g id="edge4" class="edge">
<title>Node2&#45;&gt;Node4</title>
<path fill="none" stroke="#191970" d="M1885.9463,-60.3873C1885.9463,-52.0174 1885.9463,-39.3414 1885.9463,-28.735"/>
<polygon fill="#191970" stroke="#191970" points="1889.4464,-28.6984 1885.9463,-18.6985 1882.4464,-28.6985 1889.4464,-28.6984"/>
</g>
<!-- Node5&#45;&gt;Node2 -->
<g id="edge12" class="edge">
<title>Node5&#45;&gt;Node2</title>
<path fill="none" stroke="#191970" d="M1989.4172,-120.3873C1969.1462,-110.418 1936.4532,-94.3394 1913.2453,-82.9257"/>
<polygon fill="#191970" stroke="#191970" points="1914.7683,-79.7744 1904.2501,-78.5019 1911.679,-86.0559 1914.7683,-79.7744"/>
</g>
<!-- Node5&#45;&gt;Node3 -->
<g id="edge15" class="edge">
<title>Node5&#45;&gt;Node3</title>
<path fill="none" stroke="#191970" d="M2014.4199,-120.4789C2023.8449,-106.1522 2039.1635,-77.5163 2028.9463,-55 2023.2924,-42.54 2012.3537,-32.1506 2001.962,-24.4602"/>
<polygon fill="#191970" stroke="#191970" points="2003.7159,-21.4191 1993.4896,-18.6489 1999.7563,-27.1916 2003.7159,-21.4191"/>
</g>
<!-- Node6 -->
<g id="node7" class="node">
<title>Node6</title>
<g id="a_node7"><a xlink:href="common_8hpp.html" target="_top" xlink:title="../utils/common.hpp">
<polygon fill="#ffffff" stroke="#000000" points="2075.5943,-60.5 2075.5943,-78.5 2178.2984,-78.5 2178.2984,-60.5 2075.5943,-60.5"/>
<text text-anchor="middle" x="2126.9463" y="-66.5" font-family="Helvetica,sans-Serif" font-size="10.00" fill="#000000">../utils/common.hpp</text>
</a>
</g>
</g>
<!-- Node5&#45;&gt;Node6 -->
<g id="edge6" class="edge">
<title>Node5&#45;&gt;Node6</title>
<path fill="none" stroke="#191970" d="M2026.0199,-120.3873C2045.7045,-110.4623 2077.3982,-94.4822 2100.0163,-83.0782"/>
<polygon fill="#191970" stroke="#191970" points="2101.7392,-86.1293 2109.0926,-78.5019 2098.5876,-79.8788 2101.7392,-86.1293"/>
</g>
<!-- Node11 -->
<g id="node12" class="node">
<title>Node11</title>
<polygon fill="#ffffff" stroke="#bfbfbf" points="2196.4244,-60.5 2196.4244,-78.5 2307.4683,-78.5 2307.4683,-60.5 2196.4244,-60.5"/>
<text text-anchor="middle" x="2251.9463" y="-66.5" font-family="Helvetica,sans-Serif" font-size="10.00" fill="#000000">EASTL/vector_map.h</text>
</g>
<!-- Node5&#45;&gt;Node11 -->
<g id="edge13" class="edge">
<title>Node5&#45;&gt;Node11</title>
<path fill="none" stroke="#191970" d="M2044.7398,-120.4524C2087.6546,-109.8996 2158.6644,-92.4382 2205.3823,-80.9502"/>
<polygon fill="#191970" stroke="#191970" points="2206.3781,-84.3096 2215.2531,-78.5229 2204.7066,-77.5121 2206.3781,-84.3096"/>
</g>
<!-- Node5&#45;&gt;Node12 -->
<g id="edge14" class="edge">
<title>Node5&#45;&gt;Node12</title>
<path fill="none" stroke="#191970" d="M2054.1244,-122.1244C2058.7921,-121.398 2063.4625,-120.6791 2067.9463,-120 2178.5029,-103.2563 2210.4831,-118.1861 2316.9463,-84 2318.0148,-83.6569 2319.0917,-83.2758 2320.1689,-82.8649"/>
<polygon fill="#191970" stroke="#191970" points="2321.9722,-85.8911 2329.6477,-78.5879 2319.0931,-79.5105 2321.9722,-85.8911"/>
</g>
<!-- Node13 -->
<g id="node14" class="node">
<title>Node13</title>
<polygon fill="#ffffff" stroke="#bfbfbf" points="1965.774,-60.5 1965.774,-78.5 2020.1187,-78.5 2020.1187,-60.5 1965.774,-60.5"/>
<text text-anchor="middle" x="1992.9463" y="-66.5" font-family="Helvetica,sans-Serif" font-size="10.00" fill="#000000">iostream</text>
</g>
<!-- Node5&#45;&gt;Node13 -->
<g id="edge16" class="edge">
<title>Node5&#45;&gt;Node13</title>
<path fill="none" stroke="#191970" d="M2005.6682,-120.3873C2003.5537,-111.9293 2000.3398,-99.074 1997.6715,-88.4007"/>
<polygon fill="#191970" stroke="#191970" points="2001.0669,-87.551 1995.246,-78.6985 1994.2759,-89.2488 2001.0669,-87.551"/>
</g>
<!-- Node6&#45;&gt;Node4 -->
<g id="edge9" class="edge">
<title>Node6&#45;&gt;Node4</title>
<path fill="none" stroke="#191970" d="M2090.6053,-60.4524C2045.0062,-49.1 1967.2929,-29.7523 1921.8841,-18.4472"/>
<polygon fill="#191970" stroke="#191970" points="1922.7129,-15.0467 1912.1635,-16.0271 1921.0217,-21.8394 1922.7129,-15.0467"/>
</g>
<!-- Node7 -->
<g id="node8" class="node">
<title>Node7</title>
<polygon fill="#ffffff" stroke="#bfbfbf" points="2165.3824,-.5 2165.3824,-18.5 2222.5103,-18.5 2222.5103,-.5 2165.3824,-.5"/>
<text text-anchor="middle" x="2193.9463" y="-6.5" font-family="Helvetica,sans-Serif" font-size="10.00" fill="#000000">algorithm</text>
</g>
<!-- Node6&#45;&gt;Node7 -->
<g id="edge7" class="edge">
<title>Node6&#45;&gt;Node7</title>
<path fill="none" stroke="#191970" d="M2137.1222,-60.3873C2147.4524,-51.1364 2163.6568,-36.625 2176.1223,-25.4618"/>
<polygon fill="#191970" stroke="#191970" points="2178.5601,-27.977 2183.6747,-18.6985 2173.8903,-22.7624 2178.5601,-27.977"/>
</g>
<!-- Node8 -->
<g id="node9" class="node">
<title>Node8</title>
<polygon fill="#ffffff" stroke="#bfbfbf" points="2041.3848,-.5 2041.3848,-18.5 2088.5079,-18.5 2088.5079,-.5 2041.3848,-.5"/>
<text text-anchor="middle" x="2064.9463" y="-6.5" font-family="Helvetica,sans-Serif" font-size="10.00" fill="#000000">iterator</text>
</g>
<!-- Node6&#45;&gt;Node8 -->
<g id="edge8" class="edge">
<title>Node6&#45;&gt;Node8</title>
<path fill="none" stroke="#191970" d="M2117.5299,-60.3873C2108.0616,-51.2245 2093.2606,-36.9009 2081.7707,-25.7817"/>
<polygon fill="#191970" stroke="#191970" points="2084.0715,-23.1376 2074.4514,-18.6985 2079.2035,-28.1678 2084.0715,-23.1376"/>
</g>
<!-- Node9 -->
<g id="node10" class="node">
<title>Node9</title>
<polygon fill="#ffffff" stroke="#bfbfbf" points="2106.7198,-.5 2106.7198,-18.5 2147.1729,-18.5 2147.1729,-.5 2106.7198,-.5"/>
<text text-anchor="middle" x="2126.9463" y="-6.5" font-family="Helvetica,sans-Serif" font-size="10.00" fill="#000000">string</text>
</g>
<!-- Node6&#45;&gt;Node9 -->
<g id="edge10" class="edge">
<title>Node6&#45;&gt;Node9</title>
<path fill="none" stroke="#191970" d="M2126.9463,-60.3873C2126.9463,-52.0174 2126.9463,-39.3414 2126.9463,-28.735"/>
<polygon fill="#191970" stroke="#191970" points="2130.4464,-28.6984 2126.9463,-18.6985 2123.4464,-28.6985 2130.4464,-28.6984"/>
</g>
<!-- Node10 -->
<g id="node11" class="node">
<title>Node10</title>
<polygon fill="#ffffff" stroke="#bfbfbf" points="862.8799,-.5 862.8799,-18.5 925.0127,-18.5 925.0127,-.5 862.8799,-.5"/>
<text text-anchor="middle" x="893.9463" y="-6.5" font-family="Helvetica,sans-Serif" font-size="10.00" fill="#000000">type_traits</text>
</g>
<!-- Node6&#45;&gt;Node10 -->
<g id="edge11" class="edge">
<title>Node6&#45;&gt;Node10</title>
<path fill="none" stroke="#191970" d="M2075.4481,-60.8253C2060.4898,-58.5922 2044.1011,-56.4208 2028.9463,-55 1810.3147,-34.5026 1113.1374,-15.2346 935.4646,-10.5688"/>
<polygon fill="#191970" stroke="#191970" points="935.3228,-7.064 925.2347,-10.3013 935.1398,-14.0616 935.3228,-7.064"/>
</g>
<!-- Node17&#45;&gt;Node10 -->
<g id="edge23" class="edge">
<title>Node17&#45;&gt;Node10</title>
<path fill="none" stroke="#191970" d="M701.4555,-183.0929C518.0865,-177.5575 -43.4675,-152.5238 48.9463,-55 76.8494,-25.554 685.7676,-13.047 852.2204,-10.1708"/>
<polygon fill="#191970" stroke="#191970" points="852.5946,-13.6651 862.5336,-9.9953 852.4754,-6.6661 852.5946,-13.6651"/>
</g>
<!-- Node18 -->
<g id="node19" class="node">
<title>Node18</title>
<polygon fill="#ffffff" stroke="#bfbfbf" points="19.5547,-120.5 19.5547,-138.5 58.3379,-138.5 58.3379,-120.5 19.5547,-120.5"/>
<text text-anchor="middle" x="38.9463" y="-126.5" font-family="Helvetica,sans-Serif" font-size="10.00" fill="#000000">utility</text>
</g>
<!-- Node17&#45;&gt;Node18 -->
<g id="edge24" class="edge">
<title>Node17&#45;&gt;Node18</title>
<path fill="none" stroke="#191970" d="M701.4647,-182.3134C559.8604,-176.5807 192.4574,-160.0918 71.9463,-139 70.8599,-138.8099 69.7582,-138.5976 68.649,-138.3674"/>
<polygon fill="#191970" stroke="#191970" points="69.2246,-134.9049 58.6789,-135.9243 67.5585,-141.7038 69.2246,-134.9049"/>
</g>
<!-- Node17&#45;&gt;Node19 -->
<g id="edge25" class="edge">
<title>Node17&#45;&gt;Node19</title>
<path fill="none" stroke="#191970" d="M786.5138,-175.4179C815.5242,-166.1949 860.6244,-151.8567 892.7032,-141.6582"/>
<polygon fill="#191970" stroke="#191970" points="894.1545,-144.8695 902.624,-138.5042 892.0336,-138.1985 894.1545,-144.8695"/>
</g>
<!-- Node19&#45;&gt;Node2 -->
<g id="edge26" class="edge">
<title>Node19&#45;&gt;Node2</title>
<path fill="none" stroke="#191970" d="M967.08,-128.4815C1083.7741,-124.9919 1461.037,-112.1459 1771.9463,-84 1785.617,-82.7624 1800.1736,-81.1428 1814.1525,-79.4357"/>
<polygon fill="#191970" stroke="#191970" points="1814.7184,-82.8924 1824.2083,-78.1815 1813.852,-75.9462 1814.7184,-82.8924"/>
</g>
<!-- Node19&#45;&gt;Node10 -->
<g id="edge40" class="edge">
<title>Node19&#45;&gt;Node10</title>
<path fill="none" stroke="#191970" d="M967.1958,-128.8304C1120.8896,-125.8181 1712.0879,-112.4134 1738.9463,-84 1747.8003,-74.6335 1747.8118,-64.3556 1738.9463,-55 1711.0433,-25.554 1102.125,-13.047 935.6723,-10.1708"/>
<polygon fill="#191970" stroke="#191970" points="935.4173,-6.6661 925.3591,-9.9953 935.298,-13.6651 935.4173,-6.6661"/>
</g>
<!-- Node20 -->
<g id="node21" class="node">
<title>Node20</title>
<polygon fill="#ffffff" stroke="#bfbfbf" points="1351.646,-60.5 1351.646,-78.5 1448.2466,-78.5 1448.2466,-60.5 1351.646,-60.5"/>
<text text-anchor="middle" x="1399.9463" y="-66.5" font-family="Helvetica,sans-Serif" font-size="10.00" fill="#000000">cereal/access.hpp</text>
</g>
<!-- Node19&#45;&gt;Node20 -->
<g id="edge27" class="edge">
<title>Node19&#45;&gt;Node20</title>
<path fill="none" stroke="#191970" d="M967.1912,-127.1359C1039.0922,-122.0836 1204.688,-108.6391 1341.9463,-84 1346.9267,-83.106 1352.1135,-82.0266 1357.2475,-80.865"/>
<polygon fill="#191970" stroke="#191970" points="1358.064,-84.2685 1366.9873,-78.5567 1356.4497,-77.4572 1358.064,-84.2685"/>
</g>
<!-- Node21 -->
<g id="node22" class="node">
<title>Node21</title>
<polygon fill="#ffffff" stroke="#bfbfbf" points="1466.0279,-60.5 1466.0279,-78.5 1589.8648,-78.5 1589.8648,-60.5 1466.0279,-60.5"/>
<text text-anchor="middle" x="1527.9463" y="-66.5" font-family="Helvetica,sans-Serif" font-size="10.00" fill="#000000">cereal/archives/json.hpp</text>
</g>
<!-- Node19&#45;&gt;Node21 -->
<g id="edge28" class="edge">
<title>Node19&#45;&gt;Node21</title>
<path fill="none" stroke="#191970" d="M967.1429,-127.8081C1052.6919,-123.4964 1273.9319,-110.5137 1456.9463,-84 1463.7223,-83.0184 1470.826,-81.7988 1477.8119,-80.4868"/>
<polygon fill="#191970" stroke="#191970" points="1478.7666,-83.8666 1487.9108,-78.5154 1477.4254,-76.9963 1478.7666,-83.8666"/>
</g>
<!-- Node22 -->
<g id="node23" class="node">
<title>Node22</title>
<polygon fill="#ffffff" stroke="#bfbfbf" points="1607.8628,-55.5 1607.8628,-83.5 1730.0298,-83.5 1730.0298,-55.5 1607.8628,-55.5"/>
<text text-anchor="start" x="1615.8628" y="-71.5" font-family="Helvetica,sans-Serif" font-size="10.00" fill="#000000">cereal/archives/portable</text>
<text text-anchor="middle" x="1668.9463" y="-61.5" font-family="Helvetica,sans-Serif" font-size="10.00" fill="#000000">_binary.hpp</text>
</g>
<!-- Node19&#45;&gt;Node22 -->
<g id="edge29" class="edge">
<title>Node19&#45;&gt;Node22</title>
<path fill="none" stroke="#191970" d="M967.3284,-128.7617C1066.7547,-126.3749 1351.4733,-117.0717 1597.3658,-84.0923"/>
<polygon fill="#191970" stroke="#191970" points="1598.1299,-87.5208 1607.5681,-82.7072 1597.1881,-80.5844 1598.1299,-87.5208"/>
</g>
<!-- Node23 -->
<g id="node24" class="node">
<title>Node23</title>
<polygon fill="#ffffff" stroke="#bfbfbf" points="57.5894,-60.5 57.5894,-78.5 150.3033,-78.5 150.3033,-60.5 57.5894,-60.5"/>
<text text-anchor="middle" x="103.9463" y="-66.5" font-family="Helvetica,sans-Serif" font-size="10.00" fill="#000000">cereal/cereal.hpp</text>
</g>
<!-- Node19&#45;&gt;Node23 -->
<g id="edge30" class="edge">
<title>Node19&#45;&gt;Node23</title>
<path fill="none" stroke="#191970" d="M894.5187,-128.3151C761.6713,-123.8444 303.4599,-107.0725 158.9463,-84 154.0828,-83.2235 149.0268,-82.1992 144.0378,-81.0531"/>
<polygon fill="#191970" stroke="#191970" points="144.522,-77.5677 133.9747,-78.57 142.8449,-84.3638 144.522,-77.5677"/>
</g>
<!-- Node24 -->
<g id="node25" class="node">
<title>Node24</title>
<polygon fill="#ffffff" stroke="#bfbfbf" points="167.8448,-60.5 167.8448,-78.5 282.0479,-78.5 282.0479,-60.5 167.8448,-60.5"/>
<text text-anchor="middle" x="224.9463" y="-66.5" font-family="Helvetica,sans-Serif" font-size="10.00" fill="#000000">cereal/types/array.hpp</text>
</g>
<!-- Node19&#45;&gt;Node24 -->
<g id="edge31" class="edge">
<title>Node19&#45;&gt;Node24</title>
<path fill="none" stroke="#191970" d="M894.6624,-128.7645C796.7539,-126.3825 519.153,-117.0017 290.9463,-84 284.6221,-83.0854 278.0012,-81.9036 271.4961,-80.6097"/>
<polygon fill="#191970" stroke="#191970" points="271.9331,-77.1255 261.4287,-78.5064 270.5015,-83.9775 271.9331,-77.1255"/>
</g>
<!-- Node25 -->
<g id="node26" class="node">
<title>Node25</title>
<polygon fill="#ffffff" stroke="#bfbfbf" points="299.917,-60.5 299.917,-78.5 415.9756,-78.5 415.9756,-60.5 299.917,-60.5"/>
<text text-anchor="middle" x="357.9463" y="-66.5" font-family="Helvetica,sans-Serif" font-size="10.00" fill="#000000">cereal/types/bitset.hpp</text>
</g>
<!-- Node19&#45;&gt;Node25 -->
<g id="edge32" class="edge">
<title>Node19&#45;&gt;Node25</title>
<path fill="none" stroke="#191970" d="M894.8727,-127.7886C811.6589,-123.5072 599.9856,-110.7063 424.9463,-84 418.6925,-83.0458 412.147,-81.8627 405.7007,-80.5869"/>
<polygon fill="#191970" stroke="#191970" points="406.2095,-77.1183 395.7086,-78.5254 404.795,-83.9739 406.2095,-77.1183"/>
</g>
<!-- Node26 -->
<g id="node27" class="node">
<title>Node26</title>
<polygon fill="#ffffff" stroke="#bfbfbf" points="434.0845,-55.5 434.0845,-83.5 541.8082,-83.5 541.8082,-55.5 434.0845,-55.5"/>
<text text-anchor="start" x="442.0845" y="-71.5" font-family="Helvetica,sans-Serif" font-size="10.00" fill="#000000">cereal/types/boost</text>
<text text-anchor="middle" x="487.9463" y="-61.5" font-family="Helvetica,sans-Serif" font-size="10.00" fill="#000000">_dynamic_bitset.hpp</text>
</g>
<!-- Node19&#45;&gt;Node26 -->
<g id="edge33" class="edge">
<title>Node19&#45;&gt;Node26</title>
<path fill="none" stroke="#191970" d="M894.8707,-126.4776C828.7939,-120.6619 683.7647,-106.6018 551.7134,-84.0121"/>
<polygon fill="#191970" stroke="#191970" points="552.276,-80.5575 541.8255,-82.3001 551.0818,-87.4549 552.276,-80.5575"/>
</g>
<!-- Node27 -->
<g id="node28" class="node">
<title>Node27</title>
<polygon fill="#ffffff" stroke="#bfbfbf" points="560.0376,-55.5 560.0376,-83.5 653.855,-83.5 653.855,-55.5 560.0376,-55.5"/>
<text text-anchor="start" x="568.0376" y="-71.5" font-family="Helvetica,sans-Serif" font-size="10.00" fill="#000000">cereal/types/eastl</text>
<text text-anchor="middle" x="606.9463" y="-61.5" font-family="Helvetica,sans-Serif" font-size="10.00" fill="#000000">_bitset.hpp</text>
</g>
<!-- Node19&#45;&gt;Node27 -->
<g id="edge34" class="edge">
<title>Node19&#45;&gt;Node27</title>
<path fill="none" stroke="#191970" d="M894.7815,-124.3605C844.9854,-117.0655 752.3297,-102.7103 663.8604,-84.0877"/>
<polygon fill="#191970" stroke="#191970" points="664.4405,-80.6329 653.9311,-81.9755 662.984,-87.4797 664.4405,-80.6329"/>
</g>
<!-- Node28 -->
<g id="node29" class="node">
<title>Node28</title>
<polygon fill="#ffffff" stroke="#bfbfbf" points="671.6338,-60.5 671.6338,-78.5 788.2588,-78.5 788.2588,-60.5 671.6338,-60.5"/>
<text text-anchor="middle" x="729.9463" y="-66.5" font-family="Helvetica,sans-Serif" font-size="10.00" fill="#000000">cereal/types/eigen.hpp</text>
</g>
<!-- Node19&#45;&gt;Node28 -->
<g id="edge35" class="edge">
<title>Node19&#45;&gt;Node28</title>
<path fill="none" stroke="#191970" d="M900.4188,-120.3873C865.5372,-109.9749 808.3302,-92.8982 769.9201,-81.4325"/>
<polygon fill="#191970" stroke="#191970" points="770.686,-78.0085 760.1026,-78.5019 768.6837,-84.7161 770.686,-78.0085"/>
</g>
<!-- Node29 -->
<g id="node30" class="node">
<title>Node29</title>
<polygon fill="#ffffff" stroke="#bfbfbf" points="806.1412,-60.5 806.1412,-78.5 917.7515,-78.5 917.7515,-60.5 806.1412,-60.5"/>
<text text-anchor="middle" x="861.9463" y="-66.5" font-family="Helvetica,sans-Serif" font-size="10.00" fill="#000000">cereal/types/map.hpp</text>
</g>
<!-- Node19&#45;&gt;Node29 -->
<g id="edge36" class="edge">
<title>Node19&#45;&gt;Node29</title>
<path fill="none" stroke="#191970" d="M920.4667,-120.3873C909.8282,-111.1364 893.1401,-96.625 880.3024,-85.4618"/>
<polygon fill="#191970" stroke="#191970" points="882.3673,-82.6192 872.5246,-78.6985 877.774,-87.9014 882.3673,-82.6192"/>
</g>
<!-- Node30 -->
<g id="node31" class="node">
<title>Node30</title>
<polygon fill="#ffffff" stroke="#bfbfbf" points="936.1797,-60.5 936.1797,-78.5 1063.7129,-78.5 1063.7129,-60.5 936.1797,-60.5"/>
<text text-anchor="middle" x="999.9463" y="-66.5" font-family="Helvetica,sans-Serif" font-size="10.00" fill="#000000">cereal/types/memory.hpp</text>
</g>
<!-- Node19&#45;&gt;Node30 -->
<g id="edge37" class="edge">
<title>Node19&#45;&gt;Node30</title>
<path fill="none" stroke="#191970" d="M941.426,-120.3873C952.0645,-111.1364 968.7526,-96.625 981.5902,-85.4618"/>
<polygon fill="#191970" stroke="#191970" points="984.1187,-87.9014 989.3681,-78.6985 979.5254,-82.6192 984.1187,-87.9014"/>
</g>
<!-- Node31 -->
<g id="node32" class="node">
<title>Node31</title>
<polygon fill="#ffffff" stroke="#bfbfbf" points="1081.8448,-60.5 1081.8448,-78.5 1196.0479,-78.5 1196.0479,-60.5 1081.8448,-60.5"/>
<text text-anchor="middle" x="1138.9463" y="-66.5" font-family="Helvetica,sans-Serif" font-size="10.00" fill="#000000">cereal/types/utility.hpp</text>
</g>
<!-- Node19&#45;&gt;Node31 -->
<g id="edge38" class="edge">
<title>Node19&#45;&gt;Node31</title>
<path fill="none" stroke="#191970" d="M962.5371,-120.3873C998.787,-109.9306 1058.337,-92.7527 1098.0868,-81.2864"/>
<polygon fill="#191970" stroke="#191970" points="1099.1017,-84.6364 1107.7398,-78.5019 1097.1615,-77.9107 1099.1017,-84.6364"/>
</g>
<!-- Node32 -->
<g id="node33" class="node">
<title>Node32</title>
<polygon fill="#ffffff" stroke="#bfbfbf" points="1214.5254,-60.5 1214.5254,-78.5 1333.3672,-78.5 1333.3672,-60.5 1214.5254,-60.5"/>
<text text-anchor="middle" x="1273.9463" y="-66.5" font-family="Helvetica,sans-Serif" font-size="10.00" fill="#000000">cereal/types/vector.hpp</text>
</g>
<!-- Node19&#45;&gt;Node32 -->
<g id="edge39" class="edge">
<title>Node19&#45;&gt;Node32</title>
<path fill="none" stroke="#191970" d="M967.377,-123.9559C1019.9559,-115.8396 1120.1173,-99.949 1204.9463,-84 1210.6493,-82.9278 1216.6063,-81.7554 1222.5276,-80.5568"/>
<polygon fill="#191970" stroke="#191970" points="1223.3164,-83.9679 1232.4079,-78.5278 1221.9083,-77.111 1223.3164,-83.9679"/>
</g>
<!-- Node33&#45;&gt;Node10 -->
<g id="edge43" class="edge">
<title>Node33&#45;&gt;Node10</title>
<path fill="none" stroke="#191970" d="M225.6217,-178.9157C150.32,-170.8735 24.659,-155.2069 10.9463,-139 -8.4665,-116.0561 -.9236,-81.4294 34.9463,-55 68.1815,-30.512 685.0078,-14.3783 852.3586,-10.4389"/>
<polygon fill="#191970" stroke="#191970" points="852.8052,-13.9295 862.7208,-10.1971 852.6418,-6.9314 852.8052,-13.9295"/>
</g>
<!-- Node33&#45;&gt;Node18 -->
<g id="edge44" class="edge">
<title>Node33&#45;&gt;Node18</title>
<path fill="none" stroke="#191970" d="M235.8585,-175.4387C193.1728,-166.8277 128.0154,-153.1279 71.9463,-139 70.7106,-138.6886 69.4512,-138.363 68.1806,-138.0277"/>
<polygon fill="#191970" stroke="#191970" points="69.0018,-134.6236 58.4314,-135.3433 67.1434,-141.3725 69.0018,-134.6236"/>
</g>
<!-- Node33&#45;&gt;Node19 -->
<g id="edge45" class="edge">
<title>Node33&#45;&gt;Node19</title>
<path fill="none" stroke="#191970" d="M338.1232,-179.7393C464.4129,-169.0367 768.7561,-143.2449 884.8726,-133.4046"/>
<polygon fill="#191970" stroke="#191970" points="885.193,-136.89 894.8617,-132.558 884.6018,-129.915 885.193,-136.89"/>
</g>
</g>
</svg>
