<?xml version="1.0" encoding="UTF-8" standalone="no"?>
<!DOCTYPE svg PUBLIC "-//W3C//DTD SVG 1.1//EN"
 "http://www.w3.org/Graphics/SVG/1.1/DTD/svg11.dtd">
<!-- Generated by graphviz version 2.40.1 (20161225.0304)
 -->
<!-- Title: include/indigox/classes/forcefield.hpp Pages: 1 -->
<svg width="270pt" height="102pt"
 viewBox="0.00 0.00 270.17 102.00" xmlns="http://www.w3.org/2000/svg" xmlns:xlink="http://www.w3.org/1999/xlink">
<g id="graph0" class="graph" transform="scale(1 1) rotate(0) translate(4 98)">
<title>include/indigox/classes/forcefield.hpp</title>
<polygon fill="#ffffff" stroke="transparent" points="-4,4 -4,-98 266.1719,-98 266.1719,4 -4,4"/>
<!-- Node16 -->
<g id="node1" class="node">
<title>Node16</title>
<g id="a_node1"><a xlink:title=" ">
<polygon fill="#bfbfbf" stroke="#000000" points="73.8916,-65.5 73.8916,-93.5 192.1719,-93.5 192.1719,-65.5 73.8916,-65.5"/>
<text text-anchor="start" x="81.8916" y="-81.5" font-family="Helvetica,sans-Serif" font-size="10.00" fill="#000000">include/indigox/classes</text>
<text text-anchor="middle" x="133.0317" y="-71.5" font-family="Helvetica,sans-Serif" font-size="10.00" fill="#000000">/forcefield.hpp</text>
</a>
</g>
</g>
<!-- Node17 -->
<g id="node2" class="node">
<title>Node17</title>
<g id="a_node2"><a xlink:href="cherrypicker_8hpp.html" target="_top" xlink:title=" ">
<polygon fill="#ffffff" stroke="#000000" points="0,-.5 0,-28.5 126.0635,-28.5 126.0635,-.5 0,-.5"/>
<text text-anchor="start" x="8" y="-16.5" font-family="Helvetica,sans-Serif" font-size="10.00" fill="#000000">include/indigox/algorithm</text>
<text text-anchor="middle" x="63.0317" y="-6.5" font-family="Helvetica,sans-Serif" font-size="10.00" fill="#000000">/cherrypicker.hpp</text>
</a>
</g>
</g>
<!-- Node16&#45;&gt;Node17 -->
<g id="edge1" class="edge">
<title>Node16&#45;&gt;Node17</title>
<path fill="none" stroke="#191970" d="M110.2133,-58.3115C99.713,-48.5612 87.5415,-37.259 78.1911,-28.5765"/>
<polygon fill="#191970" stroke="#191970" points="108.1332,-61.1562 117.8428,-65.396 112.8964,-56.0266 108.1332,-61.1562"/>
</g>
<!-- Node18 -->
<g id="node3" class="node">
<title>Node18</title>
<g id="a_node3"><a xlink:href="molecule__impl_8hpp.html" target="_top" xlink:title=" ">
<polygon fill="#ffffff" stroke="#000000" points="143.8916,-.5 143.8916,-28.5 262.1719,-28.5 262.1719,-.5 143.8916,-.5"/>
<text text-anchor="start" x="151.8916" y="-16.5" font-family="Helvetica,sans-Serif" font-size="10.00" fill="#000000">include/indigox/classes</text>
<text text-anchor="middle" x="203.0317" y="-6.5" font-family="Helvetica,sans-Serif" font-size="10.00" fill="#000000">/molecule_impl.hpp</text>
</a>
</g>
</g>
<!-- Node16&#45;&gt;Node18 -->
<g id="edge2" class="edge">
<title>Node16&#45;&gt;Node18</title>
<path fill="none" stroke="#191970" d="M155.8502,-58.3115C166.3504,-48.5612 178.522,-37.259 187.8724,-28.5765"/>
<polygon fill="#191970" stroke="#191970" points="153.1671,-56.0266 148.2207,-65.396 157.9302,-61.1562 153.1671,-56.0266"/>
</g>
</g>
</svg>
