<?xml version="1.0" encoding="UTF-8" standalone="no"?>
<!DOCTYPE svg PUBLIC "-//W3C//DTD SVG 1.1//EN"
 "http://www.w3.org/Graphics/SVG/1.1/DTD/svg11.dtd">
<!-- Generated by graphviz version 2.40.1 (20161225.0304)
 -->
<!-- Title: src/algorithm/formalbonds/local_optimisation.cpp Pages: 1 -->
<svg width="766pt" height="352pt"
 viewBox="0.00 0.00 766.21 352.00" xmlns="http://www.w3.org/2000/svg" xmlns:xlink="http://www.w3.org/1999/xlink">
<g id="graph0" class="graph" transform="scale(1 1) rotate(0) translate(4 348)">
<title>src/algorithm/formalbonds/local_optimisation.cpp</title>
<polygon fill="#ffffff" stroke="transparent" points="-4,4 -4,-348 762.2114,-348 762.2114,4 -4,4"/>
<!-- Node0 -->
<g id="node1" class="node">
<title>Node0</title>
<polygon fill="#bfbfbf" stroke="#000000" points="303.3203,-315.5 303.3203,-343.5 434.3643,-343.5 434.3643,-315.5 303.3203,-315.5"/>
<text text-anchor="start" x="311.3203" y="-331.5" font-family="Helvetica,sans-Serif" font-size="10.00" fill="#000000">src/algorithm/formalbonds</text>
<text text-anchor="middle" x="368.8423" y="-321.5" font-family="Helvetica,sans-Serif" font-size="10.00" fill="#000000">/local_optimisation.cpp</text>
</g>
<!-- Node1 -->
<g id="node2" class="node">
<title>Node1</title>
<polygon fill="#ffffff" stroke="#bfbfbf" points="0,-255.5 0,-273.5 47.6846,-273.5 47.6846,-255.5 0,-255.5"/>
<text text-anchor="middle" x="23.8423" y="-261.5" font-family="Helvetica,sans-Serif" font-size="10.00" fill="#000000">stdlib.h</text>
</g>
<!-- Node0&#45;&gt;Node1 -->
<g id="edge1" class="edge">
<title>Node0&#45;&gt;Node1</title>
<path fill="none" stroke="#191970" d="M303.0472,-322.5685C240.3221,-315.0506 143.582,-301.0758 61.8423,-279 59.5416,-278.3786 57.187,-277.6691 54.8328,-276.9054"/>
<polygon fill="#191970" stroke="#191970" points="55.8906,-273.5673 45.2958,-273.5485 53.5664,-280.1702 55.8906,-273.5673"/>
</g>
<!-- Node2 -->
<g id="node3" class="node">
<title>Node2</title>
<polygon fill="#ffffff" stroke="#bfbfbf" points="36.6699,-.5 36.6699,-18.5 91.0146,-18.5 91.0146,-.5 36.6699,-.5"/>
<text text-anchor="middle" x="63.8423" y="-6.5" font-family="Helvetica,sans-Serif" font-size="10.00" fill="#000000">iostream</text>
</g>
<!-- Node0&#45;&gt;Node2 -->
<g id="edge2" class="edge">
<title>Node0&#45;&gt;Node2</title>
<path fill="none" stroke="#191970" d="M303.2676,-321.149C262.3113,-314.0268 209.4534,-301.2659 166.8423,-279 119.2441,-254.1281 75.8423,-253.2047 75.8423,-199.5 75.8423,-199.5 75.8423,-199.5 75.8423,-134.5 75.8423,-96.8589 70.3839,-53.1326 66.8298,-28.651"/>
<polygon fill="#191970" stroke="#191970" points="70.2618,-27.9365 65.3137,-18.5681 63.3396,-28.9774 70.2618,-27.9365"/>
</g>
<!-- Node3 -->
<g id="node4" class="node">
<title>Node3</title>
<polygon fill="#ffffff" stroke="#bfbfbf" points="448.5542,-255.5 448.5542,-273.5 495.1304,-273.5 495.1304,-255.5 448.5542,-255.5"/>
<text text-anchor="middle" x="471.8423" y="-261.5" font-family="Helvetica,sans-Serif" font-size="10.00" fill="#000000">chrono</text>
</g>
<!-- Node0&#45;&gt;Node3 -->
<g id="edge3" class="edge">
<title>Node0&#45;&gt;Node3</title>
<path fill="none" stroke="#191970" d="M391.1918,-315.396C408.1651,-304.6846 431.4374,-289.9983 448.6214,-279.154"/>
<polygon fill="#191970" stroke="#191970" points="450.8741,-281.8711 457.463,-273.5743 447.1382,-275.9513 450.8741,-281.8711"/>
</g>
<!-- Node4 -->
<g id="node5" class="node">
<title>Node4</title>
<polygon fill="#ffffff" stroke="#bfbfbf" points="142.1157,-125.5 142.1157,-143.5 177.5688,-143.5 177.5688,-125.5 142.1157,-125.5"/>
<text text-anchor="middle" x="159.8423" y="-131.5" font-family="Helvetica,sans-Serif" font-size="10.00" fill="#000000">map</text>
</g>
<!-- Node0&#45;&gt;Node4 -->
<g id="edge4" class="edge">
<title>Node0&#45;&gt;Node4</title>
<path fill="none" stroke="#191970" d="M310.4814,-315.4597C285.2932,-307.5124 256.4808,-295.7335 233.8423,-279 204.5328,-257.3355 200.4929,-246.4215 183.8423,-214 173.8886,-194.6184 167.323,-170.4148 163.6142,-153.8368"/>
<polygon fill="#191970" stroke="#191970" points="166.9731,-152.8004 161.4964,-143.7309 160.1219,-154.2362 166.9731,-152.8004"/>
</g>
<!-- Node5 -->
<g id="node6" class="node">
<title>Node5</title>
<polygon fill="#ffffff" stroke="#bfbfbf" points="513.1724,-255.5 513.1724,-273.5 542.5122,-273.5 542.5122,-255.5 513.1724,-255.5"/>
<text text-anchor="middle" x="527.8423" y="-261.5" font-family="Helvetica,sans-Serif" font-size="10.00" fill="#000000">set</text>
</g>
<!-- Node0&#45;&gt;Node5 -->
<g id="edge5" class="edge">
<title>Node0&#45;&gt;Node5</title>
<path fill="none" stroke="#191970" d="M412.5578,-315.4562C439.4114,-306.2672 474.2224,-293.3343 503.8423,-279 504.2586,-278.7985 504.677,-278.5921 505.0969,-278.3812"/>
<polygon fill="#191970" stroke="#191970" points="506.8102,-281.4334 513.8714,-273.5346 503.4256,-275.3059 506.8102,-281.4334"/>
</g>
<!-- Node6 -->
<g id="node7" class="node">
<title>Node6</title>
<polygon fill="#ffffff" stroke="#bfbfbf" points="560.2783,-255.5 560.2783,-273.5 617.4063,-273.5 617.4063,-255.5 560.2783,-255.5"/>
<text text-anchor="middle" x="588.8423" y="-261.5" font-family="Helvetica,sans-Serif" font-size="10.00" fill="#000000">algorithm</text>
</g>
<!-- Node0&#45;&gt;Node6 -->
<g id="edge6" class="edge">
<title>Node0&#45;&gt;Node6</title>
<path fill="none" stroke="#191970" d="M425.7713,-315.4236C462.1233,-306.0343 510.0956,-292.8982 551.8423,-279 553.5074,-278.4456 555.207,-277.8583 556.9177,-277.25"/>
<polygon fill="#191970" stroke="#191970" points="558.5226,-280.3873 566.6748,-273.6204 556.082,-273.8266 558.5226,-280.3873"/>
</g>
<!-- Node7 -->
<g id="node8" class="node">
<title>Node7</title>
<polygon fill="#ffffff" stroke="#bfbfbf" points="465.8721,-120.5 465.8721,-148.5 575.8125,-148.5 575.8125,-120.5 465.8721,-120.5"/>
<text text-anchor="start" x="473.8721" y="-136.5" font-family="Helvetica,sans-Serif" font-size="10.00" fill="#000000">boost/dynamic_bitset</text>
<text text-anchor="middle" x="520.8423" y="-126.5" font-family="Helvetica,sans-Serif" font-size="10.00" fill="#000000">/dynamic_bitset.hpp</text>
</g>
<!-- Node0&#45;&gt;Node7 -->
<g id="edge7" class="edge">
<title>Node0&#45;&gt;Node7</title>
<path fill="none" stroke="#191970" d="M378.8675,-315.4546C391.5804,-298.3776 414.8703,-269.435 439.8423,-250 467.1391,-228.7556 488.7484,-242.1546 508.8423,-214 520.2167,-198.0627 522.729,-175.7217 522.6759,-158.7797"/>
<polygon fill="#191970" stroke="#191970" points="526.1662,-158.4266 522.3379,-148.5476 519.1701,-158.6577 526.1662,-158.4266"/>
</g>
<!-- Node8 -->
<g id="node9" class="node">
<title>Node8</title>
<g id="a_node9"><a xlink:href="formalbonds_2local__optimisation_8hpp.html" target="_top" xlink:title="indigox/algorithm/formalbonds\l/local_optimisation.hpp">
<polygon fill="#ffffff" stroke="#000000" points="243.1406,-250.5 243.1406,-278.5 392.5439,-278.5 392.5439,-250.5 243.1406,-250.5"/>
<text text-anchor="start" x="251.1406" y="-266.5" font-family="Helvetica,sans-Serif" font-size="10.00" fill="#000000">indigox/algorithm/formalbonds</text>
<text text-anchor="middle" x="317.8423" y="-256.5" font-family="Helvetica,sans-Serif" font-size="10.00" fill="#000000">/local_optimisation.hpp</text>
</a>
</g>
</g>
<!-- Node0&#45;&gt;Node8 -->
<g id="edge8" class="edge">
<title>Node0&#45;&gt;Node8</title>
<path fill="none" stroke="#191970" d="M357.776,-315.396C351.1597,-306.9634 342.6104,-296.0673 335.1208,-286.5216"/>
<polygon fill="#191970" stroke="#191970" points="337.8134,-284.2834 328.8869,-278.5765 332.3062,-288.6044 337.8134,-284.2834"/>
</g>
<!-- Node13 -->
<g id="node14" class="node">
<title>Node13</title>
<g id="a_node14"><a xlink:href="electron__graph_8hpp.html" target="_top" xlink:title="../../classes/electron\l_graph.hpp">
<polygon fill="#ffffff" stroke="#000000" points="111.6577,-55.5 111.6577,-83.5 216.0269,-83.5 216.0269,-55.5 111.6577,-55.5"/>
<text text-anchor="start" x="119.6577" y="-71.5" font-family="Helvetica,sans-Serif" font-size="10.00" fill="#000000">../../classes/electron</text>
<text text-anchor="middle" x="163.8423" y="-61.5" font-family="Helvetica,sans-Serif" font-size="10.00" fill="#000000">_graph.hpp</text>
</a>
</g>
</g>
<!-- Node0&#45;&gt;Node13 -->
<g id="edge29" class="edge">
<title>Node0&#45;&gt;Node13</title>
<path fill="none" stroke="#191970" d="M303.2775,-322.3273C269.3005,-315.7518 228.9458,-303.1498 199.8423,-279 149.8209,-237.4928 148.1628,-212.1686 132.8423,-149 129.8044,-136.4742 129.3389,-132.4036 132.8423,-120 135.635,-110.1122 140.9671,-100.2532 146.432,-91.9054"/>
<polygon fill="#191970" stroke="#191970" points="149.4396,-93.7119 152.3003,-83.5106 143.7023,-89.7013 149.4396,-93.7119"/>
</g>
<!-- Node20 -->
<g id="node21" class="node">
<title>Node20</title>
<polygon fill="#ffffff" stroke="#bfbfbf" points="635.4731,-255.5 635.4731,-273.5 758.2114,-273.5 758.2114,-255.5 635.4731,-255.5"/>
<text text-anchor="middle" x="696.8423" y="-261.5" font-family="Helvetica,sans-Serif" font-size="10.00" fill="#000000">indigox/utils/options.hpp</text>
</g>
<!-- Node0&#45;&gt;Node20 -->
<g id="edge30" class="edge">
<title>Node0&#45;&gt;Node20</title>
<path fill="none" stroke="#191970" d="M434.6278,-316.8295C486.7877,-306.7336 561.5176,-292.1586 626.8423,-279 632.2411,-277.9125 637.8716,-276.7663 643.4911,-275.6145"/>
<polygon fill="#191970" stroke="#191970" points="644.4526,-278.9901 653.5421,-273.5466 643.0419,-272.1337 644.4526,-278.9901"/>
</g>
<!-- Node8&#45;&gt;Node4 -->
<g id="edge9" class="edge">
<title>Node8&#45;&gt;Node4</title>
<path fill="none" stroke="#191970" d="M276.1949,-250.4727C255.5806,-242.1162 231.2387,-229.9905 212.8423,-214 192.9576,-196.716 177.3458,-170.2773 168.3589,-152.6965"/>
<polygon fill="#191970" stroke="#191970" points="171.3968,-150.942 163.8509,-143.5049 165.112,-154.0245 171.3968,-150.942"/>
</g>
<!-- Node9 -->
<g id="node10" class="node">
<title>Node9</title>
<polygon fill="#ffffff" stroke="#bfbfbf" points="595.2266,-60.5 595.2266,-78.5 638.458,-78.5 638.458,-60.5 595.2266,-60.5"/>
<text text-anchor="middle" x="616.8423" y="-66.5" font-family="Helvetica,sans-Serif" font-size="10.00" fill="#000000">vector</text>
</g>
<!-- Node8&#45;&gt;Node9 -->
<g id="edge10" class="edge">
<title>Node8&#45;&gt;Node9</title>
<path fill="none" stroke="#191970" d="M324.4778,-250.3972C333.859,-232.1325 352.803,-200.7743 378.8423,-185 458.3367,-136.8433 512.6054,-207.4829 584.8423,-149 603.2284,-134.1146 611.1198,-107.0519 614.4602,-88.6806"/>
<polygon fill="#191970" stroke="#191970" points="617.9572,-88.965 616.0052,-78.5516 611.0373,-87.9095 617.9572,-88.965"/>
</g>
<!-- Node10 -->
<g id="node11" class="node">
<title>Node10</title>
<polygon fill="#ffffff" stroke="#bfbfbf" points="387.771,-185.5 387.771,-213.5 499.9136,-213.5 499.9136,-185.5 387.771,-185.5"/>
<text text-anchor="start" x="395.771" y="-201.5" font-family="Helvetica,sans-Serif" font-size="10.00" fill="#000000">../../classes/molecular</text>
<text text-anchor="middle" x="443.8423" y="-191.5" font-family="Helvetica,sans-Serif" font-size="10.00" fill="#000000">_graph.hpp</text>
</g>
<!-- Node8&#45;&gt;Node10 -->
<g id="edge11" class="edge">
<title>Node8&#45;&gt;Node10</title>
<path fill="none" stroke="#191970" d="M345.1824,-250.396C363.4274,-240.9839 387.6219,-228.5026 407.485,-218.2557"/>
<polygon fill="#191970" stroke="#191970" points="409.273,-221.2717 416.5555,-213.5765 406.0637,-215.0507 409.273,-221.2717"/>
</g>
<!-- Node11 -->
<g id="node12" class="node">
<title>Node11</title>
<g id="a_node12"><a xlink:href="electron__optimisation__algorithm_8hpp.html" target="_top" xlink:title="electron_optimisation\l_algorithm.hpp">
<polygon fill="#ffffff" stroke="#000000" points="221.5938,-185.5 221.5938,-213.5 332.0908,-213.5 332.0908,-185.5 221.5938,-185.5"/>
<text text-anchor="start" x="229.5938" y="-201.5" font-family="Helvetica,sans-Serif" font-size="10.00" fill="#000000">electron_optimisation</text>
<text text-anchor="middle" x="276.8423" y="-191.5" font-family="Helvetica,sans-Serif" font-size="10.00" fill="#000000">_algorithm.hpp</text>
</a>
</g>
</g>
<!-- Node8&#45;&gt;Node11 -->
<g id="edge12" class="edge">
<title>Node8&#45;&gt;Node11</title>
<path fill="none" stroke="#191970" d="M308.9459,-250.396C303.7344,-242.1338 297.031,-231.5065 291.0988,-222.1017"/>
<polygon fill="#191970" stroke="#191970" points="294.0167,-220.1672 285.7213,-213.5765 288.0961,-223.9018 294.0167,-220.1672"/>
</g>
<!-- Node11&#45;&gt;Node4 -->
<g id="edge14" class="edge">
<title>Node11&#45;&gt;Node4</title>
<path fill="none" stroke="#191970" d="M251.455,-185.396C231.8176,-174.4863 204.7576,-159.453 185.1422,-148.5555"/>
<polygon fill="#191970" stroke="#191970" points="186.6174,-145.3712 176.176,-143.5743 183.2179,-151.4903 186.6174,-145.3712"/>
</g>
<!-- Node11&#45;&gt;Node7 -->
<g id="edge16" class="edge">
<title>Node11&#45;&gt;Node7</title>
<path fill="none" stroke="#191970" d="M329.4862,-185.476C367.1984,-175.4297 418.1504,-161.8564 457.996,-151.2418"/>
<polygon fill="#191970" stroke="#191970" points="459.11,-154.5672 467.8721,-148.6109 457.3081,-147.8031 459.11,-154.5672"/>
</g>
<!-- Node11&#45;&gt;Node9 -->
<g id="edge15" class="edge">
<title>Node11&#45;&gt;Node9</title>
<path fill="none" stroke="#191970" d="M328.419,-185.4003C356.1118,-176.7946 390.3191,-164.4631 418.8423,-149 437.5194,-138.8747 437.8245,-129.47 456.8423,-120 510.1258,-93.4674 530.0262,-104.6804 585.8423,-84 587.0332,-83.5588 588.2413,-83.0901 589.4555,-82.6017"/>
<polygon fill="#191970" stroke="#191970" points="590.9122,-85.785 598.6967,-78.5981 588.1295,-79.3619 590.9122,-85.785"/>
</g>
<!-- Node12 -->
<g id="node13" class="node">
<title>Node12</title>
<polygon fill="#ffffff" stroke="#bfbfbf" points="344.3916,-.5 344.3916,-18.5 389.293,-18.5 389.293,-.5 344.3916,-.5"/>
<text text-anchor="middle" x="366.8423" y="-6.5" font-family="Helvetica,sans-Serif" font-size="10.00" fill="#000000">cstdint</text>
</g>
<!-- Node11&#45;&gt;Node12 -->
<g id="edge13" class="edge">
<title>Node11&#45;&gt;Node12</title>
<path fill="none" stroke="#191970" d="M270.0671,-185.3793C257.9187,-157.8048 236.079,-95.9215 262.8423,-55 267.1066,-48.4799 305.7814,-32.6551 334.7307,-21.5077"/>
<polygon fill="#191970" stroke="#191970" points="336.0174,-24.763 344.1117,-17.9268 333.521,-18.2232 336.0174,-24.763"/>
</g>
<!-- Node11&#45;&gt;Node13 -->
<g id="edge17" class="edge">
<title>Node11&#45;&gt;Node13</title>
<path fill="none" stroke="#191970" d="M263.0466,-185.1149C253.5607,-175.1179 240.7556,-161.4129 229.8423,-149 213.0989,-129.9559 194.7225,-107.7033 181.6217,-91.5923"/>
<polygon fill="#191970" stroke="#191970" points="184.3034,-89.3424 175.2883,-83.7767 178.8649,-93.7496 184.3034,-89.3424"/>
</g>
<!-- Node16 -->
<g id="node17" class="node">
<title>Node16</title>
<g id="a_node17"><a xlink:href="electron__optimisation_8hpp.html" target="_top" xlink:title="../electron_optimisation.hpp">
<polygon fill="#ffffff" stroke="#000000" points="271.6948,-125.5 271.6948,-143.5 409.9897,-143.5 409.9897,-125.5 271.6948,-125.5"/>
<text text-anchor="middle" x="340.8423" y="-131.5" font-family="Helvetica,sans-Serif" font-size="10.00" fill="#000000">../electron_optimisation.hpp</text>
</a>
</g>
</g>
<!-- Node11&#45;&gt;Node16 -->
<g id="edge22" class="edge">
<title>Node11&#45;&gt;Node16</title>
<path fill="none" stroke="#191970" d="M290.7293,-185.396C300.6899,-175.2797 314.1417,-161.6178 324.6005,-150.9956"/>
<polygon fill="#191970" stroke="#191970" points="327.3855,-153.1556 331.9076,-143.5743 322.3975,-148.2444 327.3855,-153.1556"/>
</g>
<!-- Node13&#45;&gt;Node2 -->
<g id="edge21" class="edge">
<title>Node13&#45;&gt;Node2</title>
<path fill="none" stroke="#191970" d="M140.3967,-55.4327C124.5683,-45.9356 103.7382,-33.4376 87.8028,-23.8763"/>
<polygon fill="#191970" stroke="#191970" points="89.4364,-20.7748 79.0607,-18.6311 85.8349,-26.7773 89.4364,-20.7748"/>
</g>
<!-- Node13&#45;&gt;Node12 -->
<g id="edge20" class="edge">
<title>Node13&#45;&gt;Node12</title>
<path fill="none" stroke="#191970" d="M212.4483,-55.3947C244.6993,-45.9977 288.2102,-33.2483 334.5497,-19.3675"/>
<polygon fill="#191970" stroke="#191970" points="335.5921,-22.709 344.1648,-16.4833 333.5808,-16.0042 335.5921,-22.709"/>
</g>
<!-- Node14 -->
<g id="node15" class="node">
<title>Node14</title>
<polygon fill="#ffffff" stroke="#bfbfbf" points="236.8745,-.5 236.8745,-18.5 326.8101,-18.5 326.8101,-.5 236.8745,-.5"/>
<text text-anchor="middle" x="281.8423" y="-6.5" font-family="Helvetica,sans-Serif" font-size="10.00" fill="#000000">../utils/graph.hpp</text>
</g>
<!-- Node13&#45;&gt;Node14 -->
<g id="edge18" class="edge">
<title>Node13&#45;&gt;Node14</title>
<path fill="none" stroke="#191970" d="M191.508,-55.4327C210.622,-45.7137 235.9169,-32.8519 254.8773,-23.211"/>
<polygon fill="#191970" stroke="#191970" points="256.5571,-26.2834 263.8845,-18.6311 253.3843,-20.0437 256.5571,-26.2834"/>
</g>
<!-- Node15 -->
<g id="node16" class="node">
<title>Node15</title>
<polygon fill="#ffffff" stroke="#bfbfbf" points="108.8672,-.5 108.8672,-18.5 218.8174,-18.5 218.8174,-.5 108.8672,-.5"/>
<text text-anchor="middle" x="163.8423" y="-6.5" font-family="Helvetica,sans-Serif" font-size="10.00" fill="#000000">molecular_graph.hpp</text>
</g>
<!-- Node13&#45;&gt;Node15 -->
<g id="edge19" class="edge">
<title>Node13&#45;&gt;Node15</title>
<path fill="none" stroke="#191970" d="M163.8423,-55.2808C163.8423,-47.3776 163.8423,-37.4316 163.8423,-28.8308"/>
<polygon fill="#191970" stroke="#191970" points="167.3424,-28.5842 163.8423,-18.5842 160.3424,-28.5842 167.3424,-28.5842"/>
</g>
<!-- Node16&#45;&gt;Node9 -->
<g id="edge28" class="edge">
<title>Node16&#45;&gt;Node9</title>
<path fill="none" stroke="#191970" d="M391.7473,-125.4595C452.5541,-114.4068 550.4971,-95.7284 585.8423,-84 587.2521,-83.5322 588.6822,-83.0175 590.1152,-82.4695"/>
<polygon fill="#191970" stroke="#191970" points="591.5928,-85.6446 599.4292,-78.5143 588.8567,-79.2014 591.5928,-85.6446"/>
</g>
<!-- Node16&#45;&gt;Node12 -->
<g id="edge25" class="edge">
<title>Node16&#45;&gt;Node12</title>
<path fill="none" stroke="#191970" d="M370.4827,-125.4912C389.9967,-117.8429 414.0419,-104.7368 425.8423,-84 432.2169,-72.7979 431.5289,-66.5666 425.8423,-55 419.339,-41.7722 406.935,-31.3051 395.1721,-23.7621"/>
<polygon fill="#191970" stroke="#191970" points="396.7969,-20.6565 386.4102,-18.5665 393.2265,-26.6775 396.7969,-20.6565"/>
</g>
<!-- Node16&#45;&gt;Node13 -->
<g id="edge23" class="edge">
<title>Node16&#45;&gt;Node13</title>
<path fill="none" stroke="#191970" d="M316.2312,-125.462C289.3435,-115.588 245.6091,-99.5273 211.8733,-87.1385"/>
<polygon fill="#191970" stroke="#191970" points="212.7945,-83.7483 202.2009,-83.5865 210.3814,-90.3193 212.7945,-83.7483"/>
</g>
<!-- Node17 -->
<g id="node18" class="node">
<title>Node17</title>
<polygon fill="#ffffff" stroke="#bfbfbf" points="472.9385,-55.5 472.9385,-83.5 576.7461,-83.5 576.7461,-55.5 472.9385,-55.5"/>
<text text-anchor="start" x="480.9385" y="-71.5" font-family="Helvetica,sans-Serif" font-size="10.00" fill="#000000">../classes/molecular</text>
<text text-anchor="middle" x="524.8423" y="-61.5" font-family="Helvetica,sans-Serif" font-size="10.00" fill="#000000">_graph.hpp</text>
</g>
<!-- Node16&#45;&gt;Node17 -->
<g id="edge24" class="edge">
<title>Node16&#45;&gt;Node17</title>
<path fill="none" stroke="#191970" d="M366.4267,-125.462C394.4977,-115.5456 440.2324,-99.3894 475.3627,-86.9792"/>
<polygon fill="#191970" stroke="#191970" points="476.7035,-90.2176 484.9666,-83.5865 474.3718,-83.6173 476.7035,-90.2176"/>
</g>
<!-- Node18 -->
<g id="node19" class="node">
<title>Node18</title>
<polygon fill="#ffffff" stroke="#bfbfbf" points="271.6157,-60.5 271.6157,-78.5 312.0688,-78.5 312.0688,-60.5 271.6157,-60.5"/>
<text text-anchor="middle" x="291.8423" y="-66.5" font-family="Helvetica,sans-Serif" font-size="10.00" fill="#000000">string</text>
</g>
<!-- Node16&#45;&gt;Node18 -->
<g id="edge26" class="edge">
<title>Node16&#45;&gt;Node18</title>
<path fill="none" stroke="#191970" d="M334.029,-125.462C326.5805,-115.5813 314.4619,-99.5056 305.1201,-87.1134"/>
<polygon fill="#191970" stroke="#191970" points="307.7295,-84.7605 298.915,-78.8821 302.1398,-88.9743 307.7295,-84.7605"/>
</g>
<!-- Node19 -->
<g id="node20" class="node">
<title>Node19</title>
<polygon fill="#ffffff" stroke="#bfbfbf" points="330.5396,-60.5 330.5396,-78.5 417.145,-78.5 417.145,-60.5 330.5396,-60.5"/>
<text text-anchor="middle" x="373.8423" y="-66.5" font-family="Helvetica,sans-Serif" font-size="10.00" fill="#000000">unordered_map</text>
</g>
<!-- Node16&#45;&gt;Node19 -->
<g id="edge27" class="edge">
<title>Node16&#45;&gt;Node19</title>
<path fill="none" stroke="#191970" d="M345.4308,-125.462C350.3497,-115.7732 358.2929,-100.1276 364.5315,-87.8393"/>
<polygon fill="#191970" stroke="#191970" points="367.6729,-89.3833 369.079,-78.8821 361.4312,-86.2144 367.6729,-89.3833"/>
</g>
</g>
</svg>
