<?xml version="1.0" encoding="UTF-8" standalone="no"?>
<!DOCTYPE svg PUBLIC "-//W3C//DTD SVG 1.1//EN"
 "http://www.w3.org/Graphics/SVG/1.1/DTD/svg11.dtd">
<!-- Generated by graphviz version 2.40.1 (20161225.0304)
 -->
<!-- Title: src/algorithm/formalbonds/fpt.cpp Pages: 1 -->
<svg width="1354pt" height="352pt"
 viewBox="0.00 0.00 1353.93 352.00" xmlns="http://www.w3.org/2000/svg" xmlns:xlink="http://www.w3.org/1999/xlink">
<g id="graph0" class="graph" transform="scale(1 1) rotate(0) translate(4 348)">
<title>src/algorithm/formalbonds/fpt.cpp</title>
<polygon fill="#ffffff" stroke="transparent" points="-4,4 -4,-348 1349.9331,-348 1349.9331,4 -4,4"/>
<!-- Node0 -->
<g id="node1" class="node">
<title>Node0</title>
<polygon fill="#bfbfbf" stroke="#000000" points="367.042,-315.5 367.042,-343.5 498.0859,-343.5 498.0859,-315.5 367.042,-315.5"/>
<text text-anchor="start" x="375.042" y="-331.5" font-family="Helvetica,sans-Serif" font-size="10.00" fill="#000000">src/algorithm/formalbonds</text>
<text text-anchor="middle" x="432.564" y="-321.5" font-family="Helvetica,sans-Serif" font-size="10.00" fill="#000000">/fpt.cpp</text>
</g>
<!-- Node1 -->
<g id="node2" class="node">
<title>Node1</title>
<polygon fill="#ffffff" stroke="#bfbfbf" points="0,-255.5 0,-273.5 57.1279,-273.5 57.1279,-255.5 0,-255.5"/>
<text text-anchor="middle" x="28.564" y="-261.5" font-family="Helvetica,sans-Serif" font-size="10.00" fill="#000000">algorithm</text>
</g>
<!-- Node0&#45;&gt;Node1 -->
<g id="edge1" class="edge">
<title>Node0&#45;&gt;Node1</title>
<path fill="none" stroke="#191970" d="M366.9996,-324.03C294.1404,-317.0977 173.3361,-303.056 71.564,-279 68.593,-278.2977 65.5362,-277.4759 62.4877,-276.5867"/>
<polygon fill="#191970" stroke="#191970" points="63.4826,-273.2307 52.8935,-273.5812 61.39,-279.9106 63.4826,-273.2307"/>
</g>
<!-- Node2 -->
<g id="node3" class="node">
<title>Node2</title>
<polygon fill="#ffffff" stroke="#bfbfbf" points="118.3916,-.5 118.3916,-18.5 172.7363,-18.5 172.7363,-.5 118.3916,-.5"/>
<text text-anchor="middle" x="145.564" y="-6.5" font-family="Helvetica,sans-Serif" font-size="10.00" fill="#000000">iostream</text>
</g>
<!-- Node0&#45;&gt;Node2 -->
<g id="edge2" class="edge">
<title>Node0&#45;&gt;Node2</title>
<path fill="none" stroke="#191970" d="M366.888,-318.7051C266.2891,-300.2861 85.564,-258.9267 85.564,-199.5 85.564,-199.5 85.564,-199.5 85.564,-134.5 85.564,-92.423 113.5369,-49.5294 131.283,-26.5513"/>
<polygon fill="#191970" stroke="#191970" points="134.2079,-28.4977 137.72,-18.502 128.741,-24.1259 134.2079,-28.4977"/>
</g>
<!-- Node3 -->
<g id="node4" class="node">
<title>Node3</title>
<polygon fill="#ffffff" stroke="#bfbfbf" points="1158.2759,-255.5 1158.2759,-273.5 1204.8521,-273.5 1204.8521,-255.5 1158.2759,-255.5"/>
<text text-anchor="middle" x="1181.564" y="-261.5" font-family="Helvetica,sans-Serif" font-size="10.00" fill="#000000">chrono</text>
</g>
<!-- Node0&#45;&gt;Node3 -->
<g id="edge3" class="edge">
<title>Node0&#45;&gt;Node3</title>
<path fill="none" stroke="#191970" d="M498.2251,-327.3782C650.2153,-322.057 1022.5544,-306.5596 1144.564,-279 1147.0371,-278.4414 1149.5627,-277.7443 1152.0747,-276.9601"/>
<polygon fill="#191970" stroke="#191970" points="1153.2923,-280.242 1161.5561,-273.6118 1150.9613,-273.6415 1153.2923,-280.242"/>
</g>
<!-- Node4 -->
<g id="node5" class="node">
<title>Node4</title>
<polygon fill="#ffffff" stroke="#bfbfbf" points="948.9482,-.5 948.9482,-18.5 992.1797,-18.5 992.1797,-.5 948.9482,-.5"/>
<text text-anchor="middle" x="970.564" y="-6.5" font-family="Helvetica,sans-Serif" font-size="10.00" fill="#000000">vector</text>
</g>
<!-- Node0&#45;&gt;Node4 -->
<g id="edge4" class="edge">
<title>Node0&#45;&gt;Node4</title>
<path fill="none" stroke="#191970" d="M498.2301,-324.1552C671.9876,-309.1368 1130.564,-263.4434 1130.564,-199.5 1130.564,-199.5 1130.564,-199.5 1130.564,-134.5 1130.564,-69.9689 1048.7435,-33.8089 1002.1233,-18.4429"/>
<polygon fill="#191970" stroke="#191970" points="1003.0657,-15.0702 992.4758,-15.3934 1000.9559,-21.7447 1003.0657,-15.0702"/>
</g>
<!-- Node5 -->
<g id="node6" class="node">
<title>Node5</title>
<g id="a_node6"><a xlink:href="fpt_8hpp.html" target="_top" xlink:title="indigox/algorithm/formalbonds\l/fpt.hpp">
<polygon fill="#ffffff" stroke="#000000" points="409.8623,-250.5 409.8623,-278.5 559.2656,-278.5 559.2656,-250.5 409.8623,-250.5"/>
<text text-anchor="start" x="417.8623" y="-266.5" font-family="Helvetica,sans-Serif" font-size="10.00" fill="#000000">indigox/algorithm/formalbonds</text>
<text text-anchor="middle" x="484.564" y="-256.5" font-family="Helvetica,sans-Serif" font-size="10.00" fill="#000000">/fpt.hpp</text>
</a>
</g>
</g>
<!-- Node0&#45;&gt;Node5 -->
<g id="edge5" class="edge">
<title>Node0&#45;&gt;Node5</title>
<path fill="none" stroke="#191970" d="M443.8472,-315.396C450.5932,-306.9634 459.3102,-296.0673 466.9467,-286.5216"/>
<polygon fill="#191970" stroke="#191970" points="469.7888,-288.5717 473.3028,-278.5765 464.3227,-284.1988 469.7888,-288.5717"/>
</g>
<!-- Node9 -->
<g id="node10" class="node">
<title>Node9</title>
<g id="a_node10"><a xlink:href="nicetreedecomp_8hpp.html" target="_top" xlink:title="../../classes/nicetreedecomp.hpp">
<polygon fill="#ffffff" stroke="#000000" points="117.8599,-190.5 117.8599,-208.5 277.2681,-208.5 277.2681,-190.5 117.8599,-190.5"/>
<text text-anchor="middle" x="197.564" y="-196.5" font-family="Helvetica,sans-Serif" font-size="10.00" fill="#000000">../../classes/nicetreedecomp.hpp</text>
</a>
</g>
</g>
<!-- Node0&#45;&gt;Node9 -->
<g id="edge45" class="edge">
<title>Node0&#45;&gt;Node9</title>
<path fill="none" stroke="#191970" d="M379.6999,-315.4989C352.3572,-307.0557 319.0462,-294.8439 291.564,-279 261.055,-261.4112 230.8794,-233.5311 213.2462,-215.8929"/>
<polygon fill="#191970" stroke="#191970" points="215.5739,-213.2679 206.0709,-208.5834 210.5785,-218.1716 215.5739,-213.2679"/>
</g>
<!-- Node11 -->
<g id="node12" class="node">
<title>Node11</title>
<g id="a_node12"><a xlink:href="treedecomp_8hpp.html" target="_top" xlink:title="treedecomp.hpp">
<polygon fill="#ffffff" stroke="#000000" points="227.4287,-125.5 227.4287,-143.5 315.6992,-143.5 315.6992,-125.5 227.4287,-125.5"/>
<text text-anchor="middle" x="271.564" y="-131.5" font-family="Helvetica,sans-Serif" font-size="10.00" fill="#000000">treedecomp.hpp</text>
</a>
</g>
</g>
<!-- Node0&#45;&gt;Node11 -->
<g id="edge46" class="edge">
<title>Node0&#45;&gt;Node11</title>
<path fill="none" stroke="#191970" d="M410.9235,-315.3745C397.5354,-306.0145 380.4962,-292.9279 367.564,-279 329.8,-238.3284 296.6611,-181.3381 281.0559,-152.5957"/>
<polygon fill="#191970" stroke="#191970" points="284.0905,-150.8482 276.2885,-143.6802 277.9176,-154.1491 284.0905,-150.8482"/>
</g>
<!-- Node12 -->
<g id="node13" class="node">
<title>Node12</title>
<g id="a_node13"><a xlink:href="permutablegraph_8hpp.html" target="_top" xlink:title="permutablegraph.hpp">
<polygon fill="#ffffff" stroke="#000000" points="472.0298,-60.5 472.0298,-78.5 583.0981,-78.5 583.0981,-60.5 472.0298,-60.5"/>
<text text-anchor="middle" x="527.564" y="-66.5" font-family="Helvetica,sans-Serif" font-size="10.00" fill="#000000">permutablegraph.hpp</text>
</a>
</g>
</g>
<!-- Node0&#45;&gt;Node12 -->
<g id="edge47" class="edge">
<title>Node0&#45;&gt;Node12</title>
<path fill="none" stroke="#191970" d="M420.3288,-315.125C413.0256,-305.5676 404.4397,-292.3574 400.564,-279 388.922,-238.8771 383.6664,-223.208 400.564,-185 421.2107,-138.3146 471.081,-102.3968 501.8273,-83.7369"/>
<polygon fill="#191970" stroke="#191970" points="503.8634,-86.5996 510.7017,-78.5072 500.3094,-80.5689 503.8634,-86.5996"/>
</g>
<!-- Node24 -->
<g id="node25" class="node">
<title>Node24</title>
<g id="a_node25"><a xlink:href="elimination__ordering_8hpp.html" target="_top" xlink:title="indigox/algorithm/formalbonds\l/elimination_ordering.hpp">
<polygon fill="#ffffff" stroke="#000000" points="952.8623,-120.5 952.8623,-148.5 1102.2656,-148.5 1102.2656,-120.5 952.8623,-120.5"/>
<text text-anchor="start" x="960.8623" y="-136.5" font-family="Helvetica,sans-Serif" font-size="10.00" fill="#000000">indigox/algorithm/formalbonds</text>
<text text-anchor="middle" x="1027.564" y="-126.5" font-family="Helvetica,sans-Serif" font-size="10.00" fill="#000000">/elimination_ordering.hpp</text>
</a>
</g>
</g>
<!-- Node0&#45;&gt;Node24 -->
<g id="edge41" class="edge">
<title>Node0&#45;&gt;Node24</title>
<path fill="none" stroke="#191970" d="M498.4359,-324.9913C598.5781,-315.8845 792.8563,-289.2555 938.564,-214 966.3398,-199.6542 992.2922,-174.6005 1008.9211,-156.4456"/>
<polygon fill="#191970" stroke="#191970" points="1011.8293,-158.4435 1015.8783,-148.6528 1006.6076,-153.7815 1011.8293,-158.4435"/>
</g>
<!-- Node25 -->
<g id="node26" class="node">
<title>Node25</title>
<polygon fill="#ffffff" stroke="#bfbfbf" points="1223.1948,-255.5 1223.1948,-273.5 1345.9331,-273.5 1345.9331,-255.5 1223.1948,-255.5"/>
<text text-anchor="middle" x="1284.564" y="-261.5" font-family="Helvetica,sans-Serif" font-size="10.00" fill="#000000">indigox/utils/options.hpp</text>
</g>
<!-- Node0&#45;&gt;Node25 -->
<g id="edge44" class="edge">
<title>Node0&#45;&gt;Node25</title>
<path fill="none" stroke="#191970" d="M498.1745,-328.2865C632.8351,-325.1301 949.9411,-314.2735 1213.564,-279 1220.6795,-278.0479 1228.1505,-276.7999 1235.465,-275.4351"/>
<polygon fill="#191970" stroke="#191970" points="1236.149,-278.8677 1245.2942,-273.5184 1234.8092,-271.9971 1236.149,-278.8677"/>
</g>
<!-- Node5&#45;&gt;Node4 -->
<g id="edge7" class="edge">
<title>Node5&#45;&gt;Node4</title>
<path fill="none" stroke="#191970" d="M559.38,-257.4232C640.349,-248.9478 763.6498,-233.4301 806.564,-214 886.6245,-177.7513 912.3478,-160.5246 955.564,-84 965.17,-66.9903 968.682,-44.7353 969.9359,-28.9924"/>
<polygon fill="#191970" stroke="#191970" points="973.4393,-29.0284 970.5047,-18.8481 966.4503,-28.6365 973.4393,-29.0284"/>
</g>
<!-- Node6 -->
<g id="node7" class="node">
<title>Node6</title>
<polygon fill="#ffffff" stroke="#bfbfbf" points="295.8374,-60.5 295.8374,-78.5 331.2905,-78.5 331.2905,-60.5 295.8374,-60.5"/>
<text text-anchor="middle" x="313.564" y="-66.5" font-family="Helvetica,sans-Serif" font-size="10.00" fill="#000000">map</text>
</g>
<!-- Node5&#45;&gt;Node6 -->
<g id="edge6" class="edge">
<title>Node5&#45;&gt;Node6</title>
<path fill="none" stroke="#191970" d="M453.3119,-250.3828C436.3151,-241.6258 415.7293,-229.1554 400.564,-214 362.378,-175.8388 334.0715,-117.7007 321.219,-88.1497"/>
<polygon fill="#191970" stroke="#191970" points="324.3166,-86.4888 317.1935,-78.6459 317.871,-89.2191 324.3166,-86.4888"/>
</g>
<!-- Node7 -->
<g id="node8" class="node">
<title>Node7</title>
<polygon fill="#ffffff" stroke="#bfbfbf" points="409.8623,-190.5 409.8623,-208.5 539.2656,-208.5 539.2656,-190.5 409.8623,-190.5"/>
<text text-anchor="middle" x="474.564" y="-196.5" font-family="Helvetica,sans-Serif" font-size="10.00" fill="#000000">boost/dynamic_bitset.hpp</text>
</g>
<!-- Node5&#45;&gt;Node7 -->
<g id="edge8" class="edge">
<title>Node5&#45;&gt;Node7</title>
<path fill="none" stroke="#191970" d="M482.3941,-250.396C480.9598,-241.0732 479.0623,-228.739 477.4944,-218.5479"/>
<polygon fill="#191970" stroke="#191970" points="480.94,-217.9258 475.96,-208.5743 474.0214,-218.9903 480.94,-217.9258"/>
</g>
<!-- Node8 -->
<g id="node9" class="node">
<title>Node8</title>
<polygon fill="#ffffff" stroke="#bfbfbf" points="557.4927,-185.5 557.4927,-213.5 669.6353,-213.5 669.6353,-185.5 557.4927,-185.5"/>
<text text-anchor="start" x="565.4927" y="-201.5" font-family="Helvetica,sans-Serif" font-size="10.00" fill="#000000">../../classes/molecular</text>
<text text-anchor="middle" x="613.564" y="-191.5" font-family="Helvetica,sans-Serif" font-size="10.00" fill="#000000">_graph.hpp</text>
</g>
<!-- Node5&#45;&gt;Node8 -->
<g id="edge9" class="edge">
<title>Node5&#45;&gt;Node8</title>
<path fill="none" stroke="#191970" d="M512.555,-250.396C531.3189,-240.9413 556.2293,-228.3896 576.6168,-218.1168"/>
<polygon fill="#191970" stroke="#191970" points="578.2721,-221.202 585.6275,-213.5765 575.1222,-214.9507 578.2721,-221.202"/>
</g>
<!-- Node5&#45;&gt;Node9 -->
<g id="edge10" class="edge">
<title>Node5&#45;&gt;Node9</title>
<path fill="none" stroke="#191970" d="M422.6426,-250.476C370.1822,-238.5947 295.9404,-221.7804 247.2862,-210.7611"/>
<polygon fill="#191970" stroke="#191970" points="247.8354,-207.297 237.3093,-208.5016 246.2892,-214.1241 247.8354,-207.297"/>
</g>
<!-- Node17 -->
<g id="node18" class="node">
<title>Node17</title>
<g id="a_node18"><a xlink:href="electron__optimisation__algorithm_8hpp.html" target="_top" xlink:title="electron_optimisation\l_algorithm.hpp">
<polygon fill="#ffffff" stroke="#000000" points="687.3154,-185.5 687.3154,-213.5 797.8125,-213.5 797.8125,-185.5 687.3154,-185.5"/>
<text text-anchor="start" x="695.3154" y="-201.5" font-family="Helvetica,sans-Serif" font-size="10.00" fill="#000000">electron_optimisation</text>
<text text-anchor="middle" x="742.564" y="-191.5" font-family="Helvetica,sans-Serif" font-size="10.00" fill="#000000">_algorithm.hpp</text>
</a>
</g>
</g>
<!-- Node5&#45;&gt;Node17 -->
<g id="edge24" class="edge">
<title>Node5&#45;&gt;Node17</title>
<path fill="none" stroke="#191970" d="M540.2285,-250.476C580.4106,-240.3526 634.8079,-226.6478 677.0799,-215.9979"/>
<polygon fill="#191970" stroke="#191970" points="678.1573,-219.3359 686.9992,-213.4989 676.4471,-212.548 678.1573,-219.3359"/>
</g>
<!-- Node10 -->
<g id="node11" class="node">
<title>Node10</title>
<polygon fill="#ffffff" stroke="#bfbfbf" points="207.5962,-.5 207.5962,-18.5 297.5317,-18.5 297.5317,-.5 207.5962,-.5"/>
<text text-anchor="middle" x="252.564" y="-6.5" font-family="Helvetica,sans-Serif" font-size="10.00" fill="#000000">../utils/graph.hpp</text>
</g>
<!-- Node9&#45;&gt;Node10 -->
<g id="edge11" class="edge">
<title>Node9&#45;&gt;Node10</title>
<path fill="none" stroke="#191970" d="M188.5723,-190.3773C166.173,-166.5236 111.832,-100.9691 142.564,-55 155.0576,-36.3119 176.7933,-25.2904 197.6616,-18.7944"/>
<polygon fill="#191970" stroke="#191970" points="198.7918,-22.1124 207.471,-16.0361 196.8969,-15.3737 198.7918,-22.1124"/>
</g>
<!-- Node9&#45;&gt;Node11 -->
<g id="edge12" class="edge">
<title>Node9&#45;&gt;Node11</title>
<path fill="none" stroke="#191970" d="M207.8533,-190.462C219.539,-180.1976 238.8358,-163.2477 253.1359,-150.6869"/>
<polygon fill="#191970" stroke="#191970" points="255.6794,-153.1112 260.8828,-143.8821 251.0598,-147.852 255.6794,-153.1112"/>
</g>
<!-- Node15 -->
<g id="node16" class="node">
<title>Node15</title>
<polygon fill="#ffffff" stroke="#bfbfbf" points="151.894,-60.5 151.894,-78.5 181.2339,-78.5 181.2339,-60.5 151.894,-60.5"/>
<text text-anchor="middle" x="166.564" y="-66.5" font-family="Helvetica,sans-Serif" font-size="10.00" fill="#000000">set</text>
</g>
<!-- Node9&#45;&gt;Node15 -->
<g id="edge22" class="edge">
<title>Node9&#45;&gt;Node15</title>
<path fill="none" stroke="#191970" d="M195.3345,-190.1507C190.2851,-168.9756 177.8907,-116.999 171.135,-88.669"/>
<polygon fill="#191970" stroke="#191970" points="174.4974,-87.6799 168.7732,-78.7646 167.6883,-89.3037 174.4974,-87.6799"/>
</g>
<!-- Node16 -->
<g id="node17" class="node">
<title>Node16</title>
<polygon fill="#ffffff" stroke="#bfbfbf" points="237.3374,-60.5 237.3374,-78.5 277.7905,-78.5 277.7905,-60.5 237.3374,-60.5"/>
<text text-anchor="middle" x="257.564" y="-66.5" font-family="Helvetica,sans-Serif" font-size="10.00" fill="#000000">string</text>
</g>
<!-- Node9&#45;&gt;Node16 -->
<g id="edge23" class="edge">
<title>Node9&#45;&gt;Node16</title>
<path fill="none" stroke="#191970" d="M198.7827,-190.2607C201.0587,-174.9923 206.8254,-143.8167 218.564,-120 224.5631,-107.8282 233.751,-95.7418 241.7022,-86.4462"/>
<polygon fill="#191970" stroke="#191970" points="244.498,-88.5693 248.5298,-78.7716 239.268,-83.9166 244.498,-88.5693"/>
</g>
<!-- Node11&#45;&gt;Node6 -->
<g id="edge19" class="edge">
<title>Node11&#45;&gt;Node6</title>
<path fill="none" stroke="#191970" d="M277.4039,-125.462C283.7263,-115.6773 293.9744,-99.8172 301.9491,-87.4753"/>
<polygon fill="#191970" stroke="#191970" points="305.0142,-89.1808 307.5017,-78.8821 299.1347,-85.3818 305.0142,-89.1808"/>
</g>
<!-- Node11&#45;&gt;Node10 -->
<g id="edge13" class="edge">
<title>Node11&#45;&gt;Node10</title>
<path fill="none" stroke="#191970" d="M260.247,-125.4708C249.755,-116.3088 234.8483,-101.074 228.564,-84 221.4897,-64.78 231.0642,-42.3681 240.1358,-27.1848"/>
<polygon fill="#191970" stroke="#191970" points="243.0911,-29.0601 245.5659,-18.7583 237.207,-25.2683 243.0911,-29.0601"/>
</g>
<!-- Node11&#45;&gt;Node12 -->
<g id="edge14" class="edge">
<title>Node11&#45;&gt;Node12</title>
<path fill="none" stroke="#191970" d="M307.1597,-125.462C352.7883,-113.8766 431.9612,-93.7741 481.9608,-81.0789"/>
<polygon fill="#191970" stroke="#191970" points="483.0278,-84.4192 491.8588,-78.5658 481.305,-77.6344 483.0278,-84.4192"/>
</g>
<!-- Node11&#45;&gt;Node15 -->
<g id="edge20" class="edge">
<title>Node11&#45;&gt;Node15</title>
<path fill="none" stroke="#191970" d="M256.9642,-125.462C239.6656,-114.7534 210.6124,-96.7681 190.1189,-84.0816"/>
<polygon fill="#191970" stroke="#191970" points="191.7232,-80.9584 181.3783,-78.6708 188.0387,-86.9103 191.7232,-80.9584"/>
</g>
<!-- Node11&#45;&gt;Node16 -->
<g id="edge21" class="edge">
<title>Node11&#45;&gt;Node16</title>
<path fill="none" stroke="#191970" d="M269.6173,-125.462C267.5925,-116.061 264.3597,-101.0518 261.7517,-88.943"/>
<polygon fill="#191970" stroke="#191970" points="265.1119,-87.921 259.5847,-78.8821 258.2688,-89.3949 265.1119,-87.921"/>
</g>
<!-- Node12&#45;&gt;Node4 -->
<g id="edge18" class="edge">
<title>Node12&#45;&gt;Node4</title>
<path fill="none" stroke="#191970" d="M583.2217,-61.9617C677.1339,-49.2422 864.1112,-23.918 938.732,-13.8113"/>
<polygon fill="#191970" stroke="#191970" points="939.4622,-17.2445 948.902,-12.4339 938.5227,-10.3078 939.4622,-17.2445"/>
</g>
<!-- Node12&#45;&gt;Node10 -->
<g id="edge15" class="edge">
<title>Node12&#45;&gt;Node10</title>
<path fill="none" stroke="#191970" d="M487.3511,-60.4891C479.1516,-58.6632 470.5815,-56.7628 462.564,-55 408.7647,-43.1712 347.161,-29.8502 304.6553,-20.6939"/>
<polygon fill="#191970" stroke="#191970" points="305.3272,-17.2584 294.8145,-18.5749 303.8537,-24.1016 305.3272,-17.2584"/>
</g>
<!-- Node13 -->
<g id="node14" class="node">
<title>Node13</title>
<polygon fill="#ffffff" stroke="#bfbfbf" points="359.5889,-.5 359.5889,-18.5 469.5391,-18.5 469.5391,-.5 359.5889,-.5"/>
<text text-anchor="middle" x="414.564" y="-6.5" font-family="Helvetica,sans-Serif" font-size="10.00" fill="#000000">molecular_graph.hpp</text>
</g>
<!-- Node12&#45;&gt;Node13 -->
<g id="edge16" class="edge">
<title>Node12&#45;&gt;Node13</title>
<path fill="none" stroke="#191970" d="M510.4017,-60.3873C491.7931,-50.5066 461.8823,-34.6248 440.4243,-23.2312"/>
<polygon fill="#191970" stroke="#191970" points="441.9911,-20.1003 431.5175,-18.5019 438.7083,-26.2828 441.9911,-20.1003"/>
</g>
<!-- Node14 -->
<g id="node15" class="node">
<title>Node14</title>
<polygon fill="#ffffff" stroke="#bfbfbf" points="501.5073,-.5 501.5073,-18.5 553.6206,-18.5 553.6206,-.5 501.5073,-.5"/>
<text text-anchor="middle" x="527.564" y="-6.5" font-family="Helvetica,sans-Serif" font-size="10.00" fill="#000000">memory</text>
</g>
<!-- Node12&#45;&gt;Node14 -->
<g id="edge17" class="edge">
<title>Node12&#45;&gt;Node14</title>
<path fill="none" stroke="#191970" d="M527.564,-60.3873C527.564,-52.0174 527.564,-39.3414 527.564,-28.735"/>
<polygon fill="#191970" stroke="#191970" points="531.0641,-28.6984 527.564,-18.6985 524.0641,-28.6985 531.0641,-28.6984"/>
</g>
<!-- Node17&#45;&gt;Node4 -->
<g id="edge27" class="edge">
<title>Node17&#45;&gt;Node4</title>
<path fill="none" stroke="#191970" d="M777.37,-185.4387C818.7838,-167.2505 887.9215,-132.1003 932.564,-84 947.6342,-67.7624 958.2391,-44.416 964.348,-28.2026"/>
<polygon fill="#191970" stroke="#191970" points="967.6656,-29.3192 967.715,-18.7245 961.0694,-26.976 967.6656,-29.3192"/>
</g>
<!-- Node17&#45;&gt;Node6 -->
<g id="edge26" class="edge">
<title>Node17&#45;&gt;Node6</title>
<path fill="none" stroke="#191970" d="M687.114,-186.6692C684.2265,-186.085 681.3634,-185.5246 678.564,-185 571.6851,-164.9722 538.3043,-187.3811 436.564,-149 396.0618,-133.7207 355.0306,-103.6031 332.0872,-85.1409"/>
<polygon fill="#191970" stroke="#191970" points="334.1711,-82.3235 324.2184,-78.691 329.7336,-87.7372 334.1711,-82.3235"/>
</g>
<!-- Node18 -->
<g id="node19" class="node">
<title>Node18</title>
<polygon fill="#ffffff" stroke="#bfbfbf" points="589.1133,-.5 589.1133,-18.5 634.0146,-18.5 634.0146,-.5 589.1133,-.5"/>
<text text-anchor="middle" x="611.564" y="-6.5" font-family="Helvetica,sans-Serif" font-size="10.00" fill="#000000">cstdint</text>
</g>
<!-- Node17&#45;&gt;Node18 -->
<g id="edge25" class="edge">
<title>Node17&#45;&gt;Node18</title>
<path fill="none" stroke="#191970" d="M694.901,-185.439C676.0064,-177.5882 655.6965,-165.8893 642.564,-149 614.8685,-113.382 610.8779,-57.9704 610.8894,-28.8621"/>
<polygon fill="#191970" stroke="#191970" points="614.3904,-28.8261 611.0595,-18.7686 607.3914,-28.7081 614.3904,-28.8261"/>
</g>
<!-- Node19 -->
<g id="node20" class="node">
<title>Node19</title>
<polygon fill="#ffffff" stroke="#bfbfbf" points="485.5938,-120.5 485.5938,-148.5 595.5342,-148.5 595.5342,-120.5 485.5938,-120.5"/>
<text text-anchor="start" x="493.5938" y="-136.5" font-family="Helvetica,sans-Serif" font-size="10.00" fill="#000000">boost/dynamic_bitset</text>
<text text-anchor="middle" x="540.564" y="-126.5" font-family="Helvetica,sans-Serif" font-size="10.00" fill="#000000">/dynamic_bitset.hpp</text>
</g>
<!-- Node17&#45;&gt;Node19 -->
<g id="edge28" class="edge">
<title>Node17&#45;&gt;Node19</title>
<path fill="none" stroke="#191970" d="M698.733,-185.396C668.0273,-175.5154 626.8102,-162.2525 594.1496,-151.7429"/>
<polygon fill="#191970" stroke="#191970" points="594.9008,-148.308 584.3094,-148.5765 592.7566,-154.9715 594.9008,-148.308"/>
</g>
<!-- Node20 -->
<g id="node21" class="node">
<title>Node20</title>
<g id="a_node21"><a xlink:href="electron__graph_8hpp.html" target="_top" xlink:title="../../classes/electron\l_graph.hpp">
<polygon fill="#ffffff" stroke="#000000" points="349.3794,-55.5 349.3794,-83.5 453.7485,-83.5 453.7485,-55.5 349.3794,-55.5"/>
<text text-anchor="start" x="357.3794" y="-71.5" font-family="Helvetica,sans-Serif" font-size="10.00" fill="#000000">../../classes/electron</text>
<text text-anchor="middle" x="401.564" y="-61.5" font-family="Helvetica,sans-Serif" font-size="10.00" fill="#000000">_graph.hpp</text>
</a>
</g>
</g>
<!-- Node17&#45;&gt;Node20 -->
<g id="edge29" class="edge">
<title>Node17&#45;&gt;Node20</title>
<path fill="none" stroke="#191970" d="M687.0949,-186.7672C684.2124,-186.1574 681.3556,-185.5647 678.564,-185 589.1818,-166.9201 556.7913,-192.3547 476.564,-149 451.459,-135.4333 429.967,-110.37 416.5071,-91.9998"/>
<polygon fill="#191970" stroke="#191970" points="419.1968,-89.7414 410.5641,-83.599 413.4822,-93.7841 419.1968,-89.7414"/>
</g>
<!-- Node21 -->
<g id="node22" class="node">
<title>Node21</title>
<g id="a_node22"><a xlink:href="electron__optimisation_8hpp.html" target="_top" xlink:title="../electron_optimisation.hpp">
<polygon fill="#ffffff" stroke="#000000" points="651.4165,-125.5 651.4165,-143.5 789.7114,-143.5 789.7114,-125.5 651.4165,-125.5"/>
<text text-anchor="middle" x="720.564" y="-131.5" font-family="Helvetica,sans-Serif" font-size="10.00" fill="#000000">../electron_optimisation.hpp</text>
</a>
</g>
</g>
<!-- Node17&#45;&gt;Node21 -->
<g id="edge34" class="edge">
<title>Node17&#45;&gt;Node21</title>
<path fill="none" stroke="#191970" d="M737.7903,-185.396C734.6013,-175.974 730.3713,-163.4763 726.9011,-153.2233"/>
<polygon fill="#191970" stroke="#191970" points="730.1566,-151.9244 723.6353,-143.5743 723.526,-154.1686 730.1566,-151.9244"/>
</g>
<!-- Node20&#45;&gt;Node2 -->
<g id="edge33" class="edge">
<title>Node20&#45;&gt;Node2</title>
<path fill="none" stroke="#191970" d="M349.3239,-57.0673C346.3606,-56.3667 343.4247,-55.6738 340.564,-55 285.7396,-42.0879 222.2027,-27.2944 182.9419,-18.1731"/>
<polygon fill="#191970" stroke="#191970" points="183.5544,-14.7222 173.0218,-15.8691 181.9707,-21.5408 183.5544,-14.7222"/>
</g>
<!-- Node20&#45;&gt;Node10 -->
<g id="edge30" class="edge">
<title>Node20&#45;&gt;Node10</title>
<path fill="none" stroke="#191970" d="M366.6301,-55.4327C341.8334,-45.4474 308.7985,-32.1448 284.6636,-22.426"/>
<polygon fill="#191970" stroke="#191970" points="285.823,-19.1198 275.2394,-18.6311 283.2082,-25.6131 285.823,-19.1198"/>
</g>
<!-- Node20&#45;&gt;Node13 -->
<g id="edge31" class="edge">
<title>Node20&#45;&gt;Node13</title>
<path fill="none" stroke="#191970" d="M404.6448,-55.2808C406.3764,-47.2888 408.5606,-37.2079 410.4383,-28.5414"/>
<polygon fill="#191970" stroke="#191970" points="413.8987,-29.0986 412.5957,-18.5842 407.0575,-27.6163 413.8987,-29.0986"/>
</g>
<!-- Node20&#45;&gt;Node18 -->
<g id="edge32" class="edge">
<title>Node20&#45;&gt;Node18</title>
<path fill="none" stroke="#191970" d="M450.7996,-55.4327C490.3509,-44.1323 544.773,-28.5831 579.0553,-18.7882"/>
<polygon fill="#191970" stroke="#191970" points="580.3556,-22.0568 589.0093,-15.9442 578.4325,-15.3261 580.3556,-22.0568"/>
</g>
<!-- Node21&#45;&gt;Node4 -->
<g id="edge40" class="edge">
<title>Node21&#45;&gt;Node4</title>
<path fill="none" stroke="#191970" d="M714.8314,-125.433C705.4301,-109.2925 689.4088,-75.3647 706.564,-55 721.4252,-37.3583 871.7968,-19.7346 938.727,-12.6957"/>
<polygon fill="#191970" stroke="#191970" points="939.1337,-16.1723 948.7189,-11.6585 938.4109,-9.2098 939.1337,-16.1723"/>
</g>
<!-- Node21&#45;&gt;Node16 -->
<g id="edge38" class="edge">
<title>Node21&#45;&gt;Node16</title>
<path fill="none" stroke="#191970" d="M651.2667,-125.7041C635.8937,-123.7901 619.6789,-121.8002 604.564,-120 463.326,-103.1786 422.9343,-124.4256 286.564,-84 285.1473,-83.58 283.7162,-83.0937 282.2886,-82.5591"/>
<polygon fill="#191970" stroke="#191970" points="283.6697,-79.343 273.1067,-78.5211 280.8516,-85.7508 283.6697,-79.343"/>
</g>
<!-- Node21&#45;&gt;Node18 -->
<g id="edge37" class="edge">
<title>Node21&#45;&gt;Node18</title>
<path fill="none" stroke="#191970" d="M711.7451,-125.334C702.1809,-115.3224 686.5423,-98.7438 673.564,-84 656.6486,-64.7835 637.9409,-42.0949 625.5457,-26.8483"/>
<polygon fill="#191970" stroke="#191970" points="628.052,-24.3818 619.0382,-18.8138 622.6123,-28.7876 628.052,-24.3818"/>
</g>
<!-- Node21&#45;&gt;Node20 -->
<g id="edge35" class="edge">
<title>Node21&#45;&gt;Node20</title>
<path fill="none" stroke="#191970" d="M671.4635,-125.4953C621.6009,-116.2151 541.9207,-101.0138 463.79,-84.2196"/>
<polygon fill="#191970" stroke="#191970" points="464.2896,-80.7469 453.7761,-82.0564 462.8115,-87.5891 464.2896,-80.7469"/>
</g>
<!-- Node22 -->
<g id="node23" class="node">
<title>Node22</title>
<polygon fill="#ffffff" stroke="#bfbfbf" points="819.6602,-55.5 819.6602,-83.5 923.4678,-83.5 923.4678,-55.5 819.6602,-55.5"/>
<text text-anchor="start" x="827.6602" y="-71.5" font-family="Helvetica,sans-Serif" font-size="10.00" fill="#000000">../classes/molecular</text>
<text text-anchor="middle" x="871.564" y="-61.5" font-family="Helvetica,sans-Serif" font-size="10.00" fill="#000000">_graph.hpp</text>
</g>
<!-- Node21&#45;&gt;Node22 -->
<g id="edge36" class="edge">
<title>Node21&#45;&gt;Node22</title>
<path fill="none" stroke="#191970" d="M741.5599,-125.462C764.2026,-115.7152 800.8497,-99.9399 829.4725,-87.6188"/>
<polygon fill="#191970" stroke="#191970" points="831.0386,-90.7552 838.8399,-83.5865 828.2709,-84.3256 831.0386,-90.7552"/>
</g>
<!-- Node23 -->
<g id="node24" class="node">
<title>Node23</title>
<polygon fill="#ffffff" stroke="#bfbfbf" points="715.2612,-60.5 715.2612,-78.5 801.8667,-78.5 801.8667,-60.5 715.2612,-60.5"/>
<text text-anchor="middle" x="758.564" y="-66.5" font-family="Helvetica,sans-Serif" font-size="10.00" fill="#000000">unordered_map</text>
</g>
<!-- Node21&#45;&gt;Node23 -->
<g id="edge39" class="edge">
<title>Node21&#45;&gt;Node23</title>
<path fill="none" stroke="#191970" d="M725.8477,-125.462C731.5119,-115.7732 740.6586,-100.1276 747.8425,-87.8393"/>
<polygon fill="#191970" stroke="#191970" points="751.0536,-89.2816 753.079,-78.8821 745.0105,-85.7487 751.0536,-89.2816"/>
</g>
<!-- Node24&#45;&gt;Node4 -->
<g id="edge42" class="edge">
<title>Node24&#45;&gt;Node4</title>
<path fill="none" stroke="#191970" d="M1024.8203,-120.4687C1021.2976,-104.1563 1014.3242,-76.6997 1003.564,-55 998.5976,-44.9845 991.4675,-34.821 985.1048,-26.6477"/>
<polygon fill="#191970" stroke="#191970" points="987.6525,-24.2322 978.6405,-18.6612 982.2114,-28.6361 987.6525,-24.2322"/>
</g>
<!-- Node24&#45;&gt;Node12 -->
<g id="edge43" class="edge">
<title>Node24&#45;&gt;Node12</title>
<path fill="none" stroke="#191970" d="M952.7089,-124.7688C855.1587,-112.0873 686.1103,-90.111 593.2842,-78.0436"/>
<polygon fill="#191970" stroke="#191970" points="593.5417,-74.5477 583.1739,-76.7293 592.6393,-81.4893 593.5417,-74.5477"/>
</g>
</g>
</svg>
