<?xml version="1.0" encoding="UTF-8" standalone="no"?>
<!DOCTYPE svg PUBLIC "-//W3C//DTD SVG 1.1//EN"
 "http://www.w3.org/Graphics/SVG/1.1/DTD/svg11.dtd">
<!-- Generated by graphviz version 2.40.1 (20161225.0304)
 -->
<!-- Title: include/indigox/algorithm/formalbonds/fpt.hpp Pages: 1 -->
<svg width="996pt" height="287pt"
 viewBox="0.00 0.00 996.40 287.00" xmlns="http://www.w3.org/2000/svg" xmlns:xlink="http://www.w3.org/1999/xlink">
<g id="graph0" class="graph" transform="scale(1 1) rotate(0) translate(4 283)">
<title>include/indigox/algorithm/formalbonds/fpt.hpp</title>
<polygon fill="#ffffff" stroke="transparent" points="-4,4 -4,-283 992.3962,-283 992.3962,4 -4,4"/>
<!-- Node0 -->
<g id="node1" class="node">
<title>Node0</title>
<polygon fill="#bfbfbf" stroke="#000000" points="328.3942,-250.5 328.3942,-278.5 454.4577,-278.5 454.4577,-250.5 328.3942,-250.5"/>
<text text-anchor="start" x="336.3942" y="-266.5" font-family="Helvetica,sans-Serif" font-size="10.00" fill="#000000">include/indigox/algorithm</text>
<text text-anchor="middle" x="391.4259" y="-256.5" font-family="Helvetica,sans-Serif" font-size="10.00" fill="#000000">/formalbonds/fpt.hpp</text>
</g>
<!-- Node1 -->
<g id="node2" class="node">
<title>Node1</title>
<polygon fill="#ffffff" stroke="#bfbfbf" points="13.6994,-60.5 13.6994,-78.5 49.1525,-78.5 49.1525,-60.5 13.6994,-60.5"/>
<text text-anchor="middle" x="31.4259" y="-66.5" font-family="Helvetica,sans-Serif" font-size="10.00" fill="#000000">map</text>
</g>
<!-- Node0&#45;&gt;Node1 -->
<g id="edge1" class="edge">
<title>Node0&#45;&gt;Node1</title>
<path fill="none" stroke="#191970" d="M328.3459,-259.4877C278.7524,-253.6118 208.9997,-240.9763 153.4259,-214 112.8301,-194.2942 104.1773,-183.7808 75.4259,-149 59.7781,-130.0706 46.8894,-104.762 39.1912,-87.8343"/>
<polygon fill="#191970" stroke="#191970" points="42.32,-86.2545 35.0905,-78.5095 35.9123,-89.0724 42.32,-86.2545"/>
</g>
<!-- Node2 -->
<g id="node3" class="node">
<title>Node2</title>
<polygon fill="#ffffff" stroke="#bfbfbf" points="352.8102,-.5 352.8102,-18.5 396.0417,-18.5 396.0417,-.5 352.8102,-.5"/>
<text text-anchor="middle" x="374.4259" y="-6.5" font-family="Helvetica,sans-Serif" font-size="10.00" fill="#000000">vector</text>
</g>
<!-- Node0&#45;&gt;Node2 -->
<g id="edge2" class="edge">
<title>Node0&#45;&gt;Node2</title>
<path fill="none" stroke="#191970" d="M383.4283,-250.4379C378.3006,-240.5851 372.118,-226.9197 369.4259,-214 355.5025,-147.1774 365.3042,-65.4226 371.0546,-28.8229"/>
<polygon fill="#191970" stroke="#191970" points="374.5662,-29.0397 372.7441,-18.6027 367.66,-27.898 374.5662,-29.0397"/>
</g>
<!-- Node3 -->
<g id="node4" class="node">
<title>Node3</title>
<polygon fill="#ffffff" stroke="#bfbfbf" points="506.7243,-190.5 506.7243,-208.5 636.1276,-208.5 636.1276,-190.5 506.7243,-190.5"/>
<text text-anchor="middle" x="571.4259" y="-196.5" font-family="Helvetica,sans-Serif" font-size="10.00" fill="#000000">boost/dynamic_bitset.hpp</text>
</g>
<!-- Node0&#45;&gt;Node3 -->
<g id="edge3" class="edge">
<title>Node0&#45;&gt;Node3</title>
<path fill="none" stroke="#191970" d="M430.4833,-250.396C462.0679,-238.9904 506.1337,-223.0778 536.5449,-212.0959"/>
<polygon fill="#191970" stroke="#191970" points="538.0803,-215.2628 546.2971,-208.5743 535.7028,-208.6789 538.0803,-215.2628"/>
</g>
<!-- Node4 -->
<g id="node5" class="node">
<title>Node4</title>
<polygon fill="#ffffff" stroke="#bfbfbf" points="654.3547,-185.5 654.3547,-213.5 766.4972,-213.5 766.4972,-185.5 654.3547,-185.5"/>
<text text-anchor="start" x="662.3547" y="-201.5" font-family="Helvetica,sans-Serif" font-size="10.00" fill="#000000">../../classes/molecular</text>
<text text-anchor="middle" x="710.4259" y="-191.5" font-family="Helvetica,sans-Serif" font-size="10.00" fill="#000000">_graph.hpp</text>
</g>
<!-- Node0&#45;&gt;Node4 -->
<g id="edge4" class="edge">
<title>Node0&#45;&gt;Node4</title>
<path fill="none" stroke="#191970" d="M454.661,-252.3508C503.7903,-242.8145 573.8959,-228.9956 644.1597,-214.2426"/>
<polygon fill="#191970" stroke="#191970" points="645.009,-217.6406 654.0731,-212.155 643.5665,-210.7908 645.009,-217.6406"/>
</g>
<!-- Node5 -->
<g id="node6" class="node">
<title>Node5</title>
<g id="a_node6"><a xlink:href="nicetreedecomp_8hpp.html" target="_top" xlink:title="../../classes/nicetreedecomp.hpp">
<polygon fill="#ffffff" stroke="#000000" points="162.7218,-190.5 162.7218,-208.5 322.13,-208.5 322.13,-190.5 162.7218,-190.5"/>
<text text-anchor="middle" x="242.4259" y="-196.5" font-family="Helvetica,sans-Serif" font-size="10.00" fill="#000000">../../classes/nicetreedecomp.hpp</text>
</a>
</g>
</g>
<!-- Node0&#45;&gt;Node5 -->
<g id="edge5" class="edge">
<title>Node0&#45;&gt;Node5</title>
<path fill="none" stroke="#191970" d="M359.0952,-250.396C333.4048,-239.1888 297.7391,-223.6299 272.6232,-212.6733"/>
<polygon fill="#191970" stroke="#191970" points="273.7924,-209.3648 263.2271,-208.5743 270.9934,-215.7809 273.7924,-209.3648"/>
</g>
<!-- Node13 -->
<g id="node14" class="node">
<title>Node13</title>
<g id="a_node14"><a xlink:href="electron__optimisation__algorithm_8hpp.html" target="_top" xlink:title="electron_optimisation\l_algorithm.hpp">
<polygon fill="#ffffff" stroke="#000000" points="378.1774,-185.5 378.1774,-213.5 488.6745,-213.5 488.6745,-185.5 378.1774,-185.5"/>
<text text-anchor="start" x="386.1774" y="-201.5" font-family="Helvetica,sans-Serif" font-size="10.00" fill="#000000">electron_optimisation</text>
<text text-anchor="middle" x="433.4259" y="-191.5" font-family="Helvetica,sans-Serif" font-size="10.00" fill="#000000">_algorithm.hpp</text>
</a>
</g>
</g>
<!-- Node0&#45;&gt;Node13 -->
<g id="edge19" class="edge">
<title>Node0&#45;&gt;Node13</title>
<path fill="none" stroke="#191970" d="M400.5393,-250.396C405.878,-242.1338 412.7448,-231.5065 418.8217,-222.1017"/>
<polygon fill="#191970" stroke="#191970" points="421.8429,-223.8752 424.3304,-213.5765 415.9634,-220.0762 421.8429,-223.8752"/>
</g>
<!-- Node6 -->
<g id="node7" class="node">
<title>Node6</title>
<polygon fill="#ffffff" stroke="#bfbfbf" points="32.4582,-.5 32.4582,-18.5 122.3937,-18.5 122.3937,-.5 32.4582,-.5"/>
<text text-anchor="middle" x="77.4259" y="-6.5" font-family="Helvetica,sans-Serif" font-size="10.00" fill="#000000">../utils/graph.hpp</text>
</g>
<!-- Node5&#45;&gt;Node6 -->
<g id="edge6" class="edge">
<title>Node5&#45;&gt;Node6</title>
<path fill="none" stroke="#191970" d="M175.3529,-190.4731C115.6229,-178.2101 33.343,-149.6785 4.4259,-84 -.7677,-72.2038 -1.8291,-66.2693 4.4259,-55 12.452,-40.5401 27.1947,-30.076 41.3411,-22.8566"/>
<polygon fill="#191970" stroke="#191970" points="42.9079,-25.9876 50.4745,-18.5716 39.9348,-19.6504 42.9079,-25.9876"/>
</g>
<!-- Node7 -->
<g id="node8" class="node">
<title>Node7</title>
<g id="a_node8"><a xlink:href="treedecomp_8hpp.html" target="_top" xlink:title="treedecomp.hpp">
<polygon fill="#ffffff" stroke="#000000" points="127.2907,-125.5 127.2907,-143.5 215.5612,-143.5 215.5612,-125.5 127.2907,-125.5"/>
<text text-anchor="middle" x="171.4259" y="-131.5" font-family="Helvetica,sans-Serif" font-size="10.00" fill="#000000">treedecomp.hpp</text>
</a>
</g>
</g>
<!-- Node5&#45;&gt;Node7 -->
<g id="edge7" class="edge">
<title>Node5&#45;&gt;Node7</title>
<path fill="none" stroke="#191970" d="M232.5537,-190.462C221.3418,-180.1976 202.8273,-163.2477 189.107,-150.6869"/>
<polygon fill="#191970" stroke="#191970" points="191.4134,-148.0532 181.6741,-143.8821 186.6866,-153.2163 191.4134,-148.0532"/>
</g>
<!-- Node11 -->
<g id="node12" class="node">
<title>Node11</title>
<polygon fill="#ffffff" stroke="#bfbfbf" points="234.756,-60.5 234.756,-78.5 264.0959,-78.5 264.0959,-60.5 234.756,-60.5"/>
<text text-anchor="middle" x="249.4259" y="-66.5" font-family="Helvetica,sans-Serif" font-size="10.00" fill="#000000">set</text>
</g>
<!-- Node5&#45;&gt;Node11 -->
<g id="edge17" class="edge">
<title>Node5&#45;&gt;Node11</title>
<path fill="none" stroke="#191970" d="M242.9294,-190.1507C244.0645,-169.0693 246.8436,-117.4584 248.3734,-89.0465"/>
<polygon fill="#191970" stroke="#191970" points="251.8842,-88.9383 248.9271,-78.7646 244.8944,-88.5619 251.8842,-88.9383"/>
</g>
<!-- Node12 -->
<g id="node13" class="node">
<title>Node12</title>
<polygon fill="#ffffff" stroke="#bfbfbf" points="282.1994,-60.5 282.1994,-78.5 322.6525,-78.5 322.6525,-60.5 282.1994,-60.5"/>
<text text-anchor="middle" x="302.4259" y="-66.5" font-family="Helvetica,sans-Serif" font-size="10.00" fill="#000000">string</text>
</g>
<!-- Node5&#45;&gt;Node12 -->
<g id="edge18" class="edge">
<title>Node5&#45;&gt;Node12</title>
<path fill="none" stroke="#191970" d="M246.741,-190.1507C256.6006,-168.7882 280.929,-116.0767 293.9232,-87.9225"/>
<polygon fill="#191970" stroke="#191970" points="297.1372,-89.3109 298.15,-78.7646 290.7815,-86.3774 297.1372,-89.3109"/>
</g>
<!-- Node7&#45;&gt;Node1 -->
<g id="edge14" class="edge">
<title>Node7&#45;&gt;Node1</title>
<path fill="none" stroke="#191970" d="M151.9595,-125.462C127.7362,-114.2155 86.2255,-94.9426 58.8042,-82.2114"/>
<polygon fill="#191970" stroke="#191970" points="59.9413,-78.8805 49.3973,-77.8438 56.9935,-85.2295 59.9413,-78.8805"/>
</g>
<!-- Node7&#45;&gt;Node6 -->
<g id="edge8" class="edge">
<title>Node7&#45;&gt;Node6</title>
<path fill="none" stroke="#191970" d="M150.1336,-125.4276C133.0968,-117.0887 109.9005,-103.1178 96.4259,-84 84.9164,-67.6702 80.3705,-44.9693 78.5798,-28.9289"/>
<polygon fill="#191970" stroke="#191970" points="82.0373,-28.2801 77.7026,-18.6126 75.0625,-28.8732 82.0373,-28.2801"/>
</g>
<!-- Node8 -->
<g id="node9" class="node">
<title>Node8</title>
<g id="a_node9"><a xlink:href="permutablegraph_8hpp.html" target="_top" xlink:title="permutablegraph.hpp">
<polygon fill="#ffffff" stroke="#000000" points="105.8918,-60.5 105.8918,-78.5 216.9601,-78.5 216.9601,-60.5 105.8918,-60.5"/>
<text text-anchor="middle" x="161.4259" y="-66.5" font-family="Helvetica,sans-Serif" font-size="10.00" fill="#000000">permutablegraph.hpp</text>
</a>
</g>
</g>
<!-- Node7&#45;&gt;Node8 -->
<g id="edge9" class="edge">
<title>Node7&#45;&gt;Node8</title>
<path fill="none" stroke="#191970" d="M170.0355,-125.462C168.5892,-116.061 166.2801,-101.0518 164.4172,-88.943"/>
<polygon fill="#191970" stroke="#191970" points="167.8493,-88.2336 162.8694,-78.8821 160.9307,-89.2981 167.8493,-88.2336"/>
</g>
<!-- Node7&#45;&gt;Node11 -->
<g id="edge15" class="edge">
<title>Node7&#45;&gt;Node11</title>
<path fill="none" stroke="#191970" d="M182.2715,-125.462C194.7039,-115.1017 215.3096,-97.9303 230.4229,-85.3358"/>
<polygon fill="#191970" stroke="#191970" points="232.7258,-87.9728 238.1674,-78.8821 228.2445,-82.5952 232.7258,-87.9728"/>
</g>
<!-- Node7&#45;&gt;Node12 -->
<g id="edge16" class="edge">
<title>Node7&#45;&gt;Node12</title>
<path fill="none" stroke="#191970" d="M189.8633,-125.3988C210.3006,-115.3041 244.2357,-98.5235 273.4259,-84 273.9772,-83.7257 274.5342,-83.4485 275.0956,-83.1689"/>
<polygon fill="#191970" stroke="#191970" points="276.9462,-86.1571 284.3318,-78.5608 273.8211,-79.8934 276.9462,-86.1571"/>
</g>
<!-- Node8&#45;&gt;Node2 -->
<g id="edge13" class="edge">
<title>Node8&#45;&gt;Node2</title>
<path fill="none" stroke="#191970" d="M193.7761,-60.3873C234.1376,-49.0179 302.7064,-29.7027 342.7505,-18.4227"/>
<polygon fill="#191970" stroke="#191970" points="343.8457,-21.7505 352.5221,-15.6701 341.9476,-15.0127 343.8457,-21.7505"/>
</g>
<!-- Node8&#45;&gt;Node6 -->
<g id="edge10" class="edge">
<title>Node8&#45;&gt;Node6</title>
<path fill="none" stroke="#191970" d="M148.6682,-60.3873C135.2694,-50.8168 113.9883,-35.6159 98.1698,-24.3171"/>
<polygon fill="#191970" stroke="#191970" points="100.2003,-21.4662 90.0286,-18.5019 96.1316,-27.1624 100.2003,-21.4662"/>
</g>
<!-- Node9 -->
<g id="node10" class="node">
<title>Node9</title>
<polygon fill="#ffffff" stroke="#bfbfbf" points="217.4509,-.5 217.4509,-18.5 327.401,-18.5 327.401,-.5 217.4509,-.5"/>
<text text-anchor="middle" x="272.4259" y="-6.5" font-family="Helvetica,sans-Serif" font-size="10.00" fill="#000000">molecular_graph.hpp</text>
</g>
<!-- Node8&#45;&gt;Node9 -->
<g id="edge11" class="edge">
<title>Node8&#45;&gt;Node9</title>
<path fill="none" stroke="#191970" d="M178.2845,-60.3873C196.4818,-50.5509 225.6818,-34.7671 246.7392,-23.3847"/>
<polygon fill="#191970" stroke="#191970" points="248.6397,-26.3361 255.7725,-18.5019 245.3111,-20.1781 248.6397,-26.3361"/>
</g>
<!-- Node10 -->
<g id="node11" class="node">
<title>Node10</title>
<polygon fill="#ffffff" stroke="#bfbfbf" points="140.3693,-.5 140.3693,-18.5 192.4826,-18.5 192.4826,-.5 140.3693,-.5"/>
<text text-anchor="middle" x="166.4259" y="-6.5" font-family="Helvetica,sans-Serif" font-size="10.00" fill="#000000">memory</text>
</g>
<!-- Node8&#45;&gt;Node10 -->
<g id="edge12" class="edge">
<title>Node8&#45;&gt;Node10</title>
<path fill="none" stroke="#191970" d="M162.1853,-60.3873C162.8828,-52.0174 163.9392,-39.3414 164.823,-28.735"/>
<polygon fill="#191970" stroke="#191970" points="168.3168,-28.9546 165.6594,-18.6985 161.341,-28.3732 168.3168,-28.9546"/>
</g>
<!-- Node13&#45;&gt;Node1 -->
<g id="edge21" class="edge">
<title>Node13&#45;&gt;Node1</title>
<path fill="none" stroke="#191970" d="M377.8994,-191.4415C290.6218,-178.6548 130.0074,-154.5898 118.4259,-149 87.884,-134.2588 60.4206,-105.2795 44.8526,-86.6788"/>
<polygon fill="#191970" stroke="#191970" points="47.4085,-84.2742 38.3861,-78.7202 41.9757,-88.6884 47.4085,-84.2742"/>
</g>
<!-- Node13&#45;&gt;Node2 -->
<g id="edge22" class="edge">
<title>Node13&#45;&gt;Node2</title>
<path fill="none" stroke="#191970" d="M428.9914,-185.2191C418.5031,-151.4433 392.167,-66.6322 380.3391,-28.5423"/>
<polygon fill="#191970" stroke="#191970" points="383.5979,-27.2345 377.2897,-18.7223 376.9128,-29.3104 383.5979,-27.2345"/>
</g>
<!-- Node14 -->
<g id="node15" class="node">
<title>Node14</title>
<polygon fill="#ffffff" stroke="#bfbfbf" points="789.9753,-.5 789.9753,-18.5 834.8766,-18.5 834.8766,-.5 789.9753,-.5"/>
<text text-anchor="middle" x="812.4259" y="-6.5" font-family="Helvetica,sans-Serif" font-size="10.00" fill="#000000">cstdint</text>
</g>
<!-- Node13&#45;&gt;Node14 -->
<g id="edge20" class="edge">
<title>Node13&#45;&gt;Node14</title>
<path fill="none" stroke="#191970" d="M488.9257,-186.9111C491.8002,-186.2637 494.6469,-185.6236 497.4259,-185 641.7054,-152.6249 732.5448,-207.1267 814.4259,-84 825.2537,-67.718 822.6005,-44.6969 818.6095,-28.5675"/>
<polygon fill="#191970" stroke="#191970" points="821.8942,-27.3235 815.782,-18.6695 815.1635,-29.2463 821.8942,-27.3235"/>
</g>
<!-- Node15 -->
<g id="node16" class="node">
<title>Node15</title>
<polygon fill="#ffffff" stroke="#bfbfbf" points="878.4557,-120.5 878.4557,-148.5 988.3962,-148.5 988.3962,-120.5 878.4557,-120.5"/>
<text text-anchor="start" x="886.4557" y="-136.5" font-family="Helvetica,sans-Serif" font-size="10.00" fill="#000000">boost/dynamic_bitset</text>
<text text-anchor="middle" x="933.4259" y="-126.5" font-family="Helvetica,sans-Serif" font-size="10.00" fill="#000000">/dynamic_bitset.hpp</text>
</g>
<!-- Node13&#45;&gt;Node15 -->
<g id="edge23" class="edge">
<title>Node13&#45;&gt;Node15</title>
<path fill="none" stroke="#191970" d="M488.8461,-186.4982C491.7414,-185.9587 494.6143,-185.4546 497.4259,-185 659.219,-158.8417 702.433,-173.8898 864.4259,-149 865.685,-148.8066 866.9557,-148.6049 868.235,-148.3959"/>
<polygon fill="#191970" stroke="#191970" points="868.9096,-151.8312 878.1616,-146.6688 867.7096,-144.9349 868.9096,-151.8312"/>
</g>
<!-- Node16 -->
<g id="node17" class="node">
<title>Node16</title>
<g id="a_node17"><a xlink:href="electron__graph_8hpp.html" target="_top" xlink:title="../../classes/electron\l_graph.hpp">
<polygon fill="#ffffff" stroke="#000000" points="416.2414,-55.5 416.2414,-83.5 520.6105,-83.5 520.6105,-55.5 416.2414,-55.5"/>
<text text-anchor="start" x="424.2414" y="-71.5" font-family="Helvetica,sans-Serif" font-size="10.00" fill="#000000">../../classes/electron</text>
<text text-anchor="middle" x="468.4259" y="-61.5" font-family="Helvetica,sans-Serif" font-size="10.00" fill="#000000">_graph.hpp</text>
</a>
</g>
</g>
<!-- Node13&#45;&gt;Node16 -->
<g id="edge24" class="edge">
<title>Node13&#45;&gt;Node16</title>
<path fill="none" stroke="#191970" d="M437.2382,-185.3402C443.1818,-163.2641 454.7257,-120.3865 461.9796,-93.4435"/>
<polygon fill="#191970" stroke="#191970" points="465.3983,-94.2084 464.6184,-83.6423 458.6389,-92.3885 465.3983,-94.2084"/>
</g>
<!-- Node18 -->
<g id="node19" class="node">
<title>Node18</title>
<g id="a_node19"><a xlink:href="electron__optimisation_8hpp.html" target="_top" xlink:title="../electron_optimisation.hpp">
<polygon fill="#ffffff" stroke="#000000" points="512.2785,-125.5 512.2785,-143.5 650.5734,-143.5 650.5734,-125.5 512.2785,-125.5"/>
<text text-anchor="middle" x="581.4259" y="-131.5" font-family="Helvetica,sans-Serif" font-size="10.00" fill="#000000">../electron_optimisation.hpp</text>
</a>
</g>
</g>
<!-- Node13&#45;&gt;Node18 -->
<g id="edge29" class="edge">
<title>Node13&#45;&gt;Node18</title>
<path fill="none" stroke="#191970" d="M465.5397,-185.396C491.0577,-174.1888 526.4841,-158.6299 551.4313,-147.6733"/>
<polygon fill="#191970" stroke="#191970" points="553.016,-150.8001 560.7645,-143.5743 550.2011,-144.391 553.016,-150.8001"/>
</g>
<!-- Node16&#45;&gt;Node6 -->
<g id="edge25" class="edge">
<title>Node16&#45;&gt;Node6</title>
<path fill="none" stroke="#191970" d="M416.1151,-62.0813C351.8112,-52.8681 239.0895,-36.4147 132.4597,-19.137"/>
<polygon fill="#191970" stroke="#191970" points="132.9247,-15.6667 122.4927,-17.5166 131.8014,-22.576 132.9247,-15.6667"/>
</g>
<!-- Node16&#45;&gt;Node9 -->
<g id="edge26" class="edge">
<title>Node16&#45;&gt;Node9</title>
<path fill="none" stroke="#191970" d="M422.4727,-55.4327C388.8823,-45.1499 343.7996,-31.3491 311.8447,-21.567"/>
<polygon fill="#191970" stroke="#191970" points="312.5488,-18.1222 301.9623,-18.5417 310.4997,-24.8156 312.5488,-18.1222"/>
</g>
<!-- Node16&#45;&gt;Node14 -->
<g id="edge27" class="edge">
<title>Node16&#45;&gt;Node14</title>
<path fill="none" stroke="#191970" d="M520.6137,-56.8266C523.5903,-56.1873 526.5434,-55.5735 529.4259,-55 619.6056,-37.058 727.0344,-21.313 779.8349,-13.9402"/>
<polygon fill="#191970" stroke="#191970" points="780.5221,-17.3785 789.9464,-12.5377 779.5603,-10.4449 780.5221,-17.3785"/>
</g>
<!-- Node17 -->
<g id="node18" class="node">
<title>Node17</title>
<polygon fill="#ffffff" stroke="#bfbfbf" points="441.2536,-.5 441.2536,-18.5 495.5983,-18.5 495.5983,-.5 441.2536,-.5"/>
<text text-anchor="middle" x="468.4259" y="-6.5" font-family="Helvetica,sans-Serif" font-size="10.00" fill="#000000">iostream</text>
</g>
<!-- Node16&#45;&gt;Node17 -->
<g id="edge28" class="edge">
<title>Node16&#45;&gt;Node17</title>
<path fill="none" stroke="#191970" d="M468.4259,-55.2808C468.4259,-47.3776 468.4259,-37.4316 468.4259,-28.8308"/>
<polygon fill="#191970" stroke="#191970" points="471.926,-28.5842 468.4259,-18.5842 464.926,-28.5842 471.926,-28.5842"/>
</g>
<!-- Node18&#45;&gt;Node2 -->
<g id="edge35" class="edge">
<title>Node18&#45;&gt;Node2</title>
<path fill="none" stroke="#191970" d="M595.0446,-125.4346C616.37,-110.1522 653.2574,-78.6191 633.4259,-55 631.5972,-52.822 475.5834,-26.449 406.6075,-14.8806"/>
<polygon fill="#191970" stroke="#191970" points="406.7625,-11.3579 396.3215,-13.1571 405.6056,-18.2616 406.7625,-11.3579"/>
</g>
<!-- Node18&#45;&gt;Node12 -->
<g id="edge33" class="edge">
<title>Node18&#45;&gt;Node12</title>
<path fill="none" stroke="#191970" d="M542.6322,-125.462C486.4605,-112.3754 383.6427,-88.4215 332.6938,-76.5516"/>
<polygon fill="#191970" stroke="#191970" points="333.4678,-73.1383 322.9344,-74.278 331.8794,-79.9557 333.4678,-73.1383"/>
</g>
<!-- Node18&#45;&gt;Node14 -->
<g id="edge32" class="edge">
<title>Node18&#45;&gt;Node14</title>
<path fill="none" stroke="#191970" d="M650.7751,-125.8118C704.5856,-117.6827 773.3033,-103.806 793.4259,-84 807.9571,-69.6975 811.9119,-45.939 812.7382,-29.101"/>
<polygon fill="#191970" stroke="#191970" points="816.2432,-28.805 812.902,-18.7509 809.2441,-28.6942 816.2432,-28.805"/>
</g>
<!-- Node18&#45;&gt;Node16 -->
<g id="edge30" class="edge">
<title>Node18&#45;&gt;Node16</title>
<path fill="none" stroke="#191970" d="M565.7138,-125.462C549.2643,-115.9999 522.9382,-100.8566 501.8174,-88.7075"/>
<polygon fill="#191970" stroke="#191970" points="503.5417,-85.6616 493.1283,-83.7093 500.0513,-91.7294 503.5417,-85.6616"/>
</g>
<!-- Node19 -->
<g id="node20" class="node">
<title>Node19</title>
<polygon fill="#ffffff" stroke="#bfbfbf" points="680.5221,-55.5 680.5221,-83.5 784.3298,-83.5 784.3298,-55.5 680.5221,-55.5"/>
<text text-anchor="start" x="688.5221" y="-71.5" font-family="Helvetica,sans-Serif" font-size="10.00" fill="#000000">../classes/molecular</text>
<text text-anchor="middle" x="732.4259" y="-61.5" font-family="Helvetica,sans-Serif" font-size="10.00" fill="#000000">_graph.hpp</text>
</g>
<!-- Node18&#45;&gt;Node19 -->
<g id="edge31" class="edge">
<title>Node18&#45;&gt;Node19</title>
<path fill="none" stroke="#191970" d="M602.4219,-125.462C625.0646,-115.7152 661.7117,-99.9399 690.3345,-87.6188"/>
<polygon fill="#191970" stroke="#191970" points="691.9006,-90.7552 699.7019,-83.5865 689.1329,-84.3256 691.9006,-90.7552"/>
</g>
<!-- Node20 -->
<g id="node21" class="node">
<title>Node20</title>
<polygon fill="#ffffff" stroke="#bfbfbf" points="538.1232,-60.5 538.1232,-78.5 624.7287,-78.5 624.7287,-60.5 538.1232,-60.5"/>
<text text-anchor="middle" x="581.4259" y="-66.5" font-family="Helvetica,sans-Serif" font-size="10.00" fill="#000000">unordered_map</text>
</g>
<!-- Node18&#45;&gt;Node20 -->
<g id="edge34" class="edge">
<title>Node18&#45;&gt;Node20</title>
<path fill="none" stroke="#191970" d="M581.4259,-125.462C581.4259,-116.061 581.4259,-101.0518 581.4259,-88.943"/>
<polygon fill="#191970" stroke="#191970" points="584.926,-88.8821 581.4259,-78.8821 577.926,-88.8822 584.926,-88.8821"/>
</g>
</g>
</svg>
