<?xml version="1.0" encoding="UTF-8" standalone="no"?>
<!DOCTYPE svg PUBLIC "-//W3C//DTD SVG 1.1//EN"
 "http://www.w3.org/Graphics/SVG/1.1/DTD/svg11.dtd">
<!-- Generated by graphviz version 2.40.1 (20161225.0304)
 -->
<!-- Title: include/indigox/utils/fwd_declares.hpp Pages: 1 -->
<svg width="1826pt" height="502pt"
 viewBox="0.00 0.00 1825.80 502.00" xmlns="http://www.w3.org/2000/svg" xmlns:xlink="http://www.w3.org/1999/xlink">
<g id="graph0" class="graph" transform="scale(1 1) rotate(0) translate(4 498)">
<title>include/indigox/utils/fwd_declares.hpp</title>
<polygon fill="#ffffff" stroke="transparent" points="-4,4 -4,-498 1821.8006,-498 1821.8006,4 -4,4"/>
<!-- Node3 -->
<g id="node1" class="node">
<title>Node3</title>
<g id="a_node1"><a xlink:title=" ">
<polygon fill="#bfbfbf" stroke="#000000" points="890.3011,-465.5 890.3011,-493.5 993.0199,-493.5 993.0199,-465.5 890.3011,-465.5"/>
<text text-anchor="start" x="898.3011" y="-481.5" font-family="Helvetica,sans-Serif" font-size="10.00" fill="#000000">include/indigox/utils</text>
<text text-anchor="middle" x="941.6605" y="-471.5" font-family="Helvetica,sans-Serif" font-size="10.00" fill="#000000">/fwd_declares.hpp</text>
</a>
</g>
</g>
<!-- Node4 -->
<g id="node2" class="node">
<title>Node4</title>
<g id="a_node2"><a xlink:href="base__graph_8hpp.html" target="_top" xlink:title=" ">
<polygon fill="#ffffff" stroke="#000000" points="153.4046,-205.5 153.4046,-233.5 263.9163,-233.5 263.9163,-205.5 153.4046,-205.5"/>
<text text-anchor="start" x="161.4046" y="-221.5" font-family="Helvetica,sans-Serif" font-size="10.00" fill="#000000">include/indigox/graph</text>
<text text-anchor="middle" x="208.6605" y="-211.5" font-family="Helvetica,sans-Serif" font-size="10.00" fill="#000000">/base_graph.hpp</text>
</a>
</g>
</g>
<!-- Node3&#45;&gt;Node4 -->
<g id="edge1" class="edge">
<title>Node3&#45;&gt;Node4</title>
<path fill="none" stroke="#191970" d="M880.0708,-477.3152C721.8126,-471.3728 309.3518,-453.6918 252.6605,-429 213.7367,-412.0468 199.6307,-402.9163 182.6605,-364 163.0982,-319.1396 187.5044,-260.2885 200.9301,-233.6668"/>
<polygon fill="#191970" stroke="#191970" points="879.9975,-480.8148 890.1209,-477.6896 880.2581,-473.8197 879.9975,-480.8148"/>
</g>
<!-- Node5 -->
<g id="node3" class="node">
<title>Node5</title>
<g id="a_node3"><a xlink:href="access_8hpp.html" target="_top" xlink:title=" ">
<polygon fill="#ffffff" stroke="#000000" points="29.6288,-140.5 29.6288,-168.5 155.6922,-168.5 155.6922,-140.5 29.6288,-140.5"/>
<text text-anchor="start" x="37.6288" y="-156.5" font-family="Helvetica,sans-Serif" font-size="10.00" fill="#000000">include/indigox/algorithm</text>
<text text-anchor="middle" x="92.6605" y="-146.5" font-family="Helvetica,sans-Serif" font-size="10.00" fill="#000000">/access.hpp</text>
</a>
</g>
</g>
<!-- Node3&#45;&gt;Node5 -->
<g id="edge32" class="edge">
<title>Node3&#45;&gt;Node5</title>
<path fill="none" stroke="#191970" d="M879.9486,-478.6443C703.8102,-475.7787 207.2801,-464.5996 143.6605,-429 105.9445,-407.8953 87.6605,-392.7192 87.6605,-349.5 87.6605,-349.5 87.6605,-349.5 87.6605,-284.5 87.6605,-242.2639 90.3284,-192.3661 91.7666,-168.5364"/>
<polygon fill="#191970" stroke="#191970" points="880.0329,-482.146 890.0874,-478.8058 880.1445,-475.1469 880.0329,-482.146"/>
</g>
<!-- Node6 -->
<g id="node4" class="node">
<title>Node6</title>
<g id="a_node4"><a xlink:href="assignment_8hpp.html" target="_top" xlink:title=" ">
<polygon fill="#ffffff" stroke="#000000" points="173.4046,-140.5 173.4046,-168.5 283.9163,-168.5 283.9163,-140.5 173.4046,-140.5"/>
<text text-anchor="start" x="181.4046" y="-156.5" font-family="Helvetica,sans-Serif" font-size="10.00" fill="#000000">include/indigox/graph</text>
<text text-anchor="middle" x="228.6605" y="-146.5" font-family="Helvetica,sans-Serif" font-size="10.00" fill="#000000">/assignment.hpp</text>
</a>
</g>
</g>
<!-- Node3&#45;&gt;Node6 -->
<g id="edge43" class="edge">
<title>Node3&#45;&gt;Node6</title>
<path fill="none" stroke="#191970" d="M880.0136,-477.8697C713.1885,-473.098 261.3298,-457.6569 200.6605,-429 156.7385,-408.2536 125.6605,-398.0753 125.6605,-349.5 125.6605,-349.5 125.6605,-349.5 125.6605,-284.5 125.6605,-248.1716 123.1977,-234.3105 144.6605,-205 156.523,-188.8001 175.2966,-176.8051 192.0899,-168.5804"/>
<polygon fill="#191970" stroke="#191970" points="880.0161,-481.3711 890.1111,-478.1554 880.2141,-474.3739 880.0161,-481.3711"/>
</g>
<!-- Node7 -->
<g id="node5" class="node">
<title>Node7</title>
<g id="a_node5"><a xlink:href="assigner_8hpp.html" target="_top" xlink:title=" ">
<polygon fill="#ffffff" stroke="#000000" points="143.3875,-75.5 143.3875,-103.5 313.9334,-103.5 313.9334,-75.5 143.3875,-75.5"/>
<text text-anchor="start" x="151.3875" y="-91.5" font-family="Helvetica,sans-Serif" font-size="10.00" fill="#000000">include/indigox/algorithm</text>
<text text-anchor="middle" x="228.6605" y="-81.5" font-family="Helvetica,sans-Serif" font-size="10.00" fill="#000000">/electron_assignment/assigner.hpp</text>
</a>
</g>
</g>
<!-- Node3&#45;&gt;Node7 -->
<g id="edge44" class="edge">
<title>Node3&#45;&gt;Node7</title>
<path fill="none" stroke="#191970" d="M879.9013,-477.9527C698.0405,-473.0954 172.6958,-456.7975 100.6605,-429 48.0134,-408.6842 1.6605,-405.9309 1.6605,-349.5 1.6605,-349.5 1.6605,-349.5 1.6605,-219.5 1.6605,-183.1716 -4.9815,-165.7341 20.6605,-140 38.1684,-122.4292 93.9808,-109.4509 143.3862,-101.0536"/>
<polygon fill="#191970" stroke="#191970" points="880.0092,-481.4567 890.0984,-478.2227 880.1945,-474.4592 880.0092,-481.4567"/>
</g>
<!-- Node10 -->
<g id="node8" class="node">
<title>Node10</title>
<g id="a_node8"><a xlink:href="condensed_8hpp.html" target="_top" xlink:title=" ">
<polygon fill="#ffffff" stroke="#000000" points="659.4046,-140.5 659.4046,-168.5 769.9163,-168.5 769.9163,-140.5 659.4046,-140.5"/>
<text text-anchor="start" x="667.4046" y="-156.5" font-family="Helvetica,sans-Serif" font-size="10.00" fill="#000000">include/indigox/graph</text>
<text text-anchor="middle" x="714.6605" y="-146.5" font-family="Helvetica,sans-Serif" font-size="10.00" fill="#000000">/condensed.hpp</text>
</a>
</g>
</g>
<!-- Node3&#45;&gt;Node10 -->
<g id="edge62" class="edge">
<title>Node3&#45;&gt;Node10</title>
<path fill="none" stroke="#191970" d="M952.8146,-456.235C964.0266,-430.6744 979.6605,-388.1105 979.6605,-349.5 979.6605,-349.5 979.6605,-349.5 979.6605,-284.5 979.6605,-248.1716 986.7578,-230.2722 960.6605,-205 933.9991,-179.1816 833.9993,-165.3687 769.9986,-159.0119"/>
<polygon fill="#191970" stroke="#191970" points="949.571,-454.9131 948.6303,-465.4661 955.9466,-457.8031 949.571,-454.9131"/>
</g>
<!-- Node11 -->
<g id="node9" class="node">
<title>Node11</title>
<g id="a_node9"><a xlink:href="molecule__impl_8hpp.html" target="_top" xlink:title=" ">
<polygon fill="#ffffff" stroke="#000000" points="1132.5204,-75.5 1132.5204,-103.5 1250.8006,-103.5 1250.8006,-75.5 1132.5204,-75.5"/>
<text text-anchor="start" x="1140.5204" y="-91.5" font-family="Helvetica,sans-Serif" font-size="10.00" fill="#000000">include/indigox/classes</text>
<text text-anchor="middle" x="1191.6605" y="-81.5" font-family="Helvetica,sans-Serif" font-size="10.00" fill="#000000">/molecule_impl.hpp</text>
</a>
</g>
</g>
<!-- Node3&#45;&gt;Node11 -->
<g id="edge64" class="edge">
<title>Node3&#45;&gt;Node11</title>
<path fill="none" stroke="#191970" d="M978.4813,-460.2C991.3287,-451.9971 1004.9475,-441.4322 1014.6605,-429 1061.1617,-369.4809 1026.2565,-327.9823 1074.6605,-270 1094.5899,-246.1268 1114.5539,-257.7241 1134.6605,-234 1152.1838,-213.3239 1177.3288,-136.0358 1187.3245,-103.7804"/>
<polygon fill="#191970" stroke="#191970" points="976.4956,-457.3111 969.7677,-465.4955 980.131,-463.293 976.4956,-457.3111"/>
</g>
<!-- Node12 -->
<g id="node10" class="node">
<title>Node12</title>
<g id="a_node10"><a xlink:href="molecular_8hpp.html" target="_top" xlink:title=" ">
<polygon fill="#ffffff" stroke="#000000" points="311.4046,-140.5 311.4046,-168.5 421.9163,-168.5 421.9163,-140.5 311.4046,-140.5"/>
<text text-anchor="start" x="319.4046" y="-156.5" font-family="Helvetica,sans-Serif" font-size="10.00" fill="#000000">include/indigox/graph</text>
<text text-anchor="middle" x="366.6605" y="-146.5" font-family="Helvetica,sans-Serif" font-size="10.00" fill="#000000">/molecular.hpp</text>
</a>
</g>
</g>
<!-- Node3&#45;&gt;Node12 -->
<g id="edge63" class="edge">
<title>Node3&#45;&gt;Node12</title>
<path fill="none" stroke="#191970" d="M879.975,-477.9907C774.5486,-474.5033 564.8577,-463.3474 500.6605,-429 433.9257,-393.2948 422.4471,-367.6878 390.6605,-299 370.1544,-254.6883 366.9074,-195.5629 366.5656,-168.7697"/>
<polygon fill="#191970" stroke="#191970" points="880.0448,-481.4946 890.1509,-478.3141 880.2672,-474.4981 880.0448,-481.4946"/>
</g>
<!-- Node13 -->
<g id="node11" class="node">
<title>Node13</title>
<g id="a_node11"><a xlink:href="connectivity_8hpp.html" target="_top" xlink:title=" ">
<polygon fill="#ffffff" stroke="#000000" points="282.6288,-400.5 282.6288,-428.5 408.6922,-428.5 408.6922,-400.5 282.6288,-400.5"/>
<text text-anchor="start" x="290.6288" y="-416.5" font-family="Helvetica,sans-Serif" font-size="10.00" fill="#000000">include/indigox/algorithm</text>
<text text-anchor="middle" x="345.6605" y="-406.5" font-family="Helvetica,sans-Serif" font-size="10.00" fill="#000000">/graph/connectivity.hpp</text>
</a>
</g>
</g>
<!-- Node3&#45;&gt;Node13 -->
<g id="edge13" class="edge">
<title>Node3&#45;&gt;Node13</title>
<path fill="none" stroke="#191970" d="M880.0291,-475.2899C782.6038,-468.2331 587.1758,-452.4464 422.6605,-429 418.2164,-428.3666 413.6386,-427.6556 409.0353,-426.8975"/>
<polygon fill="#191970" stroke="#191970" points="880.0571,-478.8008 890.2822,-476.0265 880.5588,-471.8188 880.0571,-478.8008"/>
</g>
<!-- Node15 -->
<g id="node13" class="node">
<title>Node15</title>
<g id="a_node13"><a xlink:href="cycles_8hpp.html" target="_top" xlink:title=" ">
<polygon fill="#ffffff" stroke="#000000" points="191.6288,-335.5 191.6288,-363.5 317.6922,-363.5 317.6922,-335.5 191.6288,-335.5"/>
<text text-anchor="start" x="199.6288" y="-351.5" font-family="Helvetica,sans-Serif" font-size="10.00" fill="#000000">include/indigox/algorithm</text>
<text text-anchor="middle" x="254.6605" y="-341.5" font-family="Helvetica,sans-Serif" font-size="10.00" fill="#000000">/graph/cycles.hpp</text>
</a>
</g>
</g>
<!-- Node3&#45;&gt;Node15 -->
<g id="edge16" class="edge">
<title>Node3&#45;&gt;Node15</title>
<path fill="none" stroke="#191970" d="M879.8646,-478.9128C723.1163,-476.8566 319.1954,-467.8095 273.6605,-429 254.7601,-412.8911 252.8214,-381.6557 253.4867,-363.5023"/>
<polygon fill="#191970" stroke="#191970" points="880.2273,-482.4175 890.2706,-479.0437 880.3154,-475.4181 880.2273,-482.4175"/>
</g>
<!-- Node16 -->
<g id="node14" class="node">
<title>Node16</title>
<g id="a_node14"><a xlink:href="serialise_8hpp.html" target="_top" xlink:title=" ">
<polygon fill="#ffffff" stroke="#000000" points="509.3011,-400.5 509.3011,-428.5 612.0199,-428.5 612.0199,-400.5 509.3011,-400.5"/>
<text text-anchor="start" x="517.3011" y="-416.5" font-family="Helvetica,sans-Serif" font-size="10.00" fill="#000000">include/indigox/utils</text>
<text text-anchor="middle" x="560.6605" y="-406.5" font-family="Helvetica,sans-Serif" font-size="10.00" fill="#000000">/serialise.hpp</text>
</a>
</g>
</g>
<!-- Node3&#45;&gt;Node16 -->
<g id="edge19" class="edge">
<title>Node3&#45;&gt;Node16</title>
<path fill="none" stroke="#191970" d="M880.1402,-470.8037C816.3173,-461.5162 713.7156,-445.8413 625.6605,-429 621.2315,-428.1529 616.6435,-427.2274 612.0476,-426.267"/>
<polygon fill="#191970" stroke="#191970" points="879.6436,-474.2682 890.0422,-472.2386 880.6476,-467.3405 879.6436,-474.2682"/>
</g>
<!-- Node18 -->
<g id="node16" class="node">
<title>Node18</title>
<g id="a_node16"><a xlink:href="athenaeum_8hpp.html" target="_top" xlink:title=" ">
<polygon fill="#ffffff" stroke="#000000" points="659.5204,-270.5 659.5204,-298.5 777.8006,-298.5 777.8006,-270.5 659.5204,-270.5"/>
<text text-anchor="start" x="667.5204" y="-286.5" font-family="Helvetica,sans-Serif" font-size="10.00" fill="#000000">include/indigox/classes</text>
<text text-anchor="middle" x="718.6605" y="-276.5" font-family="Helvetica,sans-Serif" font-size="10.00" fill="#000000">/athenaeum.hpp</text>
</a>
</g>
</g>
<!-- Node3&#45;&gt;Node18 -->
<g id="edge33" class="edge">
<title>Node3&#45;&gt;Node18</title>
<path fill="none" stroke="#191970" d="M918.2526,-458.4101C886.7423,-430.098 828.8375,-378.3447 778.6605,-335 764.2359,-322.5395 747.6439,-308.6045 735.569,-298.5344"/>
<polygon fill="#191970" stroke="#191970" points="916.2673,-461.3318 926.0434,-465.4158 920.9479,-456.1267 916.2673,-461.3318"/>
</g>
<!-- Node19 -->
<g id="node17" class="node">
<title>Node19</title>
<g id="a_node17"><a xlink:href="cherrypicker_8hpp.html" target="_top" xlink:title=" ">
<polygon fill="#ffffff" stroke="#000000" points="825.6288,-205.5 825.6288,-233.5 951.6922,-233.5 951.6922,-205.5 825.6288,-205.5"/>
<text text-anchor="start" x="833.6288" y="-221.5" font-family="Helvetica,sans-Serif" font-size="10.00" fill="#000000">include/indigox/algorithm</text>
<text text-anchor="middle" x="888.6605" y="-211.5" font-family="Helvetica,sans-Serif" font-size="10.00" fill="#000000">/cherrypicker.hpp</text>
</a>
</g>
</g>
<!-- Node3&#45;&gt;Node19 -->
<g id="edge42" class="edge">
<title>Node3&#45;&gt;Node19</title>
<path fill="none" stroke="#191970" d="M943.2917,-455.1445C945.1328,-415.2063 945.3555,-333.8528 922.6605,-270 917.9173,-256.655 908.8241,-243.4443 901.2344,-233.8835"/>
<polygon fill="#191970" stroke="#191970" points="939.7897,-455.0882 942.7472,-465.2619 946.7796,-455.4644 939.7897,-455.0882"/>
</g>
<!-- Node20 -->
<g id="node18" class="node">
<title>Node20</title>
<g id="a_node18"><a xlink:href="parameterised_8hpp.html" target="_top" xlink:title=" ">
<polygon fill="#ffffff" stroke="#000000" points="523.5204,-270.5 523.5204,-298.5 641.8006,-298.5 641.8006,-270.5 523.5204,-270.5"/>
<text text-anchor="start" x="531.5204" y="-286.5" font-family="Helvetica,sans-Serif" font-size="10.00" fill="#000000">include/indigox/classes</text>
<text text-anchor="middle" x="582.6605" y="-276.5" font-family="Helvetica,sans-Serif" font-size="10.00" fill="#000000">/parameterised.hpp</text>
</a>
</g>
</g>
<!-- Node3&#45;&gt;Node20 -->
<g id="edge67" class="edge">
<title>Node3&#45;&gt;Node20</title>
<path fill="none" stroke="#191970" d="M880.4919,-462.737C820.5738,-444.4971 728.3659,-411.4528 658.6605,-364 631.5121,-345.5184 606.5367,-315.9839 593.0696,-298.5917"/>
<polygon fill="#191970" stroke="#191970" points="879.6052,-466.125 890.1892,-465.6455 881.6163,-459.4201 879.6052,-466.125"/>
</g>
<!-- Node23 -->
<g id="node21" class="node">
<title>Node23</title>
<g id="a_node21"><a xlink:href="dihedral_8hpp.html" target="_top" xlink:title=" ">
<polygon fill="#ffffff" stroke="#000000" points="795.5204,-270.5 795.5204,-298.5 913.8006,-298.5 913.8006,-270.5 795.5204,-270.5"/>
<text text-anchor="start" x="803.5204" y="-286.5" font-family="Helvetica,sans-Serif" font-size="10.00" fill="#000000">include/indigox/classes</text>
<text text-anchor="middle" x="854.6605" y="-276.5" font-family="Helvetica,sans-Serif" font-size="10.00" fill="#000000">/dihedral.hpp</text>
</a>
</g>
</g>
<!-- Node3&#45;&gt;Node23 -->
<g id="edge57" class="edge">
<title>Node3&#45;&gt;Node23</title>
<path fill="none" stroke="#191970" d="M931.3095,-456.2995C913.0935,-415.4705 875.8317,-331.9527 860.9775,-298.6589"/>
<polygon fill="#191970" stroke="#191970" points="928.1329,-457.7698 935.4037,-465.4761 934.5255,-454.9177 928.1329,-457.7698"/>
</g>
<!-- Node24 -->
<g id="node22" class="node">
<title>Node24</title>
<g id="a_node22"><a xlink:href="forcefield_8hpp.html" target="_top" xlink:title=" ">
<polygon fill="#ffffff" stroke="#000000" points="1083.5204,-270.5 1083.5204,-298.5 1201.8006,-298.5 1201.8006,-270.5 1083.5204,-270.5"/>
<text text-anchor="start" x="1091.5204" y="-286.5" font-family="Helvetica,sans-Serif" font-size="10.00" fill="#000000">include/indigox/classes</text>
<text text-anchor="middle" x="1142.6605" y="-276.5" font-family="Helvetica,sans-Serif" font-size="10.00" fill="#000000">/forcefield.hpp</text>
</a>
</g>
</g>
<!-- Node3&#45;&gt;Node24 -->
<g id="edge34" class="edge">
<title>Node3&#45;&gt;Node24</title>
<path fill="none" stroke="#191970" d="M1002.8086,-465.3517C1025.8484,-457.6269 1050.9723,-446.0432 1069.6605,-429 1110.1564,-392.0685 1131.3151,-327.5587 1139.0992,-298.9126"/>
<polygon fill="#191970" stroke="#191970" points="1001.5634,-462.0747 993.0869,-468.4308 1003.677,-468.748 1001.5634,-462.0747"/>
</g>
<!-- Node25 -->
<g id="node23" class="node">
<title>Node25</title>
<g id="a_node23"><a xlink:href="periodictable_8hpp.html" target="_top" xlink:title=" ">
<polygon fill="#ffffff" stroke="#000000" points="1170.5204,-335.5 1170.5204,-363.5 1288.8006,-363.5 1288.8006,-335.5 1170.5204,-335.5"/>
<text text-anchor="start" x="1178.5204" y="-351.5" font-family="Helvetica,sans-Serif" font-size="10.00" fill="#000000">include/indigox/classes</text>
<text text-anchor="middle" x="1229.6605" y="-341.5" font-family="Helvetica,sans-Serif" font-size="10.00" fill="#000000">/periodictable.hpp</text>
</a>
</g>
</g>
<!-- Node3&#45;&gt;Node25 -->
<g id="edge37" class="edge">
<title>Node3&#45;&gt;Node25</title>
<path fill="none" stroke="#191970" d="M1003.3081,-477.2086C1122.3744,-472.1465 1374.604,-458.0805 1400.6605,-429 1409.2615,-419.4008 1408.3765,-410.3241 1400.6605,-400 1393.6649,-390.6398 1335.4284,-374.752 1288.833,-363.2936"/>
<polygon fill="#191970" stroke="#191970" points="1003.0909,-473.7146 993.2455,-477.6285 1003.3827,-480.7085 1003.0909,-473.7146"/>
</g>
<!-- Node27 -->
<g id="node25" class="node">
<title>Node27</title>
<g id="a_node25"><a xlink:href="isomorphism_8hpp.html" target="_top" xlink:title=" ">
<polygon fill="#ffffff" stroke="#000000" points="1121.6288,-400.5 1121.6288,-428.5 1247.6922,-428.5 1247.6922,-400.5 1121.6288,-400.5"/>
<text text-anchor="start" x="1129.6288" y="-416.5" font-family="Helvetica,sans-Serif" font-size="10.00" fill="#000000">include/indigox/algorithm</text>
<text text-anchor="middle" x="1184.6605" y="-406.5" font-family="Helvetica,sans-Serif" font-size="10.00" fill="#000000">/graph/isomorphism.hpp</text>
</a>
</g>
</g>
<!-- Node3&#45;&gt;Node27 -->
<g id="edge45" class="edge">
<title>Node3&#45;&gt;Node27</title>
<path fill="none" stroke="#191970" d="M1003.0393,-463.0818C1042.7943,-452.4477 1094.0304,-438.7426 1131.9425,-428.6015"/>
<polygon fill="#191970" stroke="#191970" points="1001.9505,-459.7499 993.1945,-465.7152 1003.7594,-466.5122 1001.9505,-459.7499"/>
</g>
<!-- Node28 -->
<g id="node26" class="node">
<title>Node28</title>
<g id="a_node26"><a xlink:href="paths_8hpp.html" target="_top" xlink:title=" ">
<polygon fill="#ffffff" stroke="#000000" points="1265.6288,-400.5 1265.6288,-428.5 1391.6922,-428.5 1391.6922,-400.5 1265.6288,-400.5"/>
<text text-anchor="start" x="1273.6288" y="-416.5" font-family="Helvetica,sans-Serif" font-size="10.00" fill="#000000">include/indigox/algorithm</text>
<text text-anchor="middle" x="1328.6605" y="-406.5" font-family="Helvetica,sans-Serif" font-size="10.00" fill="#000000">/graph/paths.hpp</text>
</a>
</g>
</g>
<!-- Node3&#45;&gt;Node28 -->
<g id="edge46" class="edge">
<title>Node3&#45;&gt;Node28</title>
<path fill="none" stroke="#191970" d="M1003.3083,-470.3582C1066.9001,-460.7543 1168.8925,-444.8666 1256.6605,-429 1259.5464,-428.4783 1262.495,-427.9333 1265.4716,-427.3734"/>
<polygon fill="#191970" stroke="#191970" points="1002.4211,-466.9522 993.0539,-471.9026 1003.4637,-473.8742 1002.4211,-466.9522"/>
</g>
<!-- Node29 -->
<g id="node27" class="node">
<title>Node29</title>
<g id="a_node27"><a xlink:href="angle_8hpp.html" target="_top" xlink:title=" ">
<polygon fill="#ffffff" stroke="#000000" points="1699.5204,-205.5 1699.5204,-233.5 1817.8006,-233.5 1817.8006,-205.5 1699.5204,-205.5"/>
<text text-anchor="start" x="1707.5204" y="-221.5" font-family="Helvetica,sans-Serif" font-size="10.00" fill="#000000">include/indigox/classes</text>
<text text-anchor="middle" x="1758.6605" y="-211.5" font-family="Helvetica,sans-Serif" font-size="10.00" fill="#000000">/angle.hpp</text>
</a>
</g>
</g>
<!-- Node3&#45;&gt;Node29 -->
<g id="edge47" class="edge">
<title>Node3&#45;&gt;Node29</title>
<path fill="none" stroke="#191970" d="M1003.1472,-476.0228C1130.8059,-468.4903 1420.76,-449.6703 1517.6605,-429 1604.1239,-410.5561 1642.5653,-425.9282 1705.6605,-364 1743.038,-327.3138 1754.2488,-262.1001 1757.4507,-233.5464"/>
<polygon fill="#191970" stroke="#191970" points="1002.9178,-472.5301 993.1399,-476.6097 1003.3277,-479.5181 1002.9178,-472.5301"/>
</g>
<!-- Node30 -->
<g id="node28" class="node">
<title>Node30</title>
<g id="a_node28"><a xlink:href="atom_8hpp.html" target="_top" xlink:title=" ">
<polygon fill="#ffffff" stroke="#000000" points="1306.5204,-335.5 1306.5204,-363.5 1424.8006,-363.5 1424.8006,-335.5 1306.5204,-335.5"/>
<text text-anchor="start" x="1314.5204" y="-351.5" font-family="Helvetica,sans-Serif" font-size="10.00" fill="#000000">include/indigox/classes</text>
<text text-anchor="middle" x="1365.6605" y="-341.5" font-family="Helvetica,sans-Serif" font-size="10.00" fill="#000000">/atom.hpp</text>
</a>
</g>
</g>
<!-- Node3&#45;&gt;Node30 -->
<g id="edge49" class="edge">
<title>Node3&#45;&gt;Node30</title>
<path fill="none" stroke="#191970" d="M1003.7463,-477.4525C1126.4301,-472.7648 1390.4568,-459.2425 1417.6605,-429 1436.3004,-408.2779 1407.6679,-380.2688 1386.0539,-363.6247"/>
<polygon fill="#191970" stroke="#191970" points="1003.2508,-473.9684 993.3887,-477.84 1003.5126,-480.9636 1003.2508,-473.9684"/>
</g>
<!-- Node32 -->
<g id="node30" class="node">
<title>Node32</title>
<g id="a_node30"><a xlink:href="bond_8hpp.html" target="_top" xlink:title=" ">
<polygon fill="#ffffff" stroke="#000000" points="1442.5204,-335.5 1442.5204,-363.5 1560.8006,-363.5 1560.8006,-335.5 1442.5204,-335.5"/>
<text text-anchor="start" x="1450.5204" y="-351.5" font-family="Helvetica,sans-Serif" font-size="10.00" fill="#000000">include/indigox/classes</text>
<text text-anchor="middle" x="1501.6605" y="-341.5" font-family="Helvetica,sans-Serif" font-size="10.00" fill="#000000">/bond.hpp</text>
</a>
</g>
</g>
<!-- Node3&#45;&gt;Node32 -->
<g id="edge53" class="edge">
<title>Node3&#45;&gt;Node32</title>
<path fill="none" stroke="#191970" d="M1003.4879,-475.7252C1127.1506,-467.8033 1396.3501,-448.5546 1433.6605,-429 1461.9732,-414.1612 1483.4966,-382.1495 1494.1837,-363.5914"/>
<polygon fill="#191970" stroke="#191970" points="1003.1695,-472.2383 993.4119,-476.3662 1003.614,-479.2241 1003.1695,-472.2383"/>
</g>
<!-- Node33 -->
<g id="node31" class="node">
<title>Node33</title>
<g id="a_node31"><a xlink:href="molecule_8hpp.html" target="_top" xlink:title=" ">
<polygon fill="#ffffff" stroke="#000000" points="1578.5204,-335.5 1578.5204,-363.5 1696.8006,-363.5 1696.8006,-335.5 1578.5204,-335.5"/>
<text text-anchor="start" x="1586.5204" y="-351.5" font-family="Helvetica,sans-Serif" font-size="10.00" fill="#000000">include/indigox/classes</text>
<text text-anchor="middle" x="1637.6605" y="-341.5" font-family="Helvetica,sans-Serif" font-size="10.00" fill="#000000">/molecule.hpp</text>
</a>
</g>
</g>
<!-- Node3&#45;&gt;Node33 -->
<g id="edge58" class="edge">
<title>Node3&#45;&gt;Node33</title>
<path fill="none" stroke="#191970" d="M1003.1807,-476.14C1122.0439,-469.224 1379.0826,-452.0874 1464.6605,-429 1520.6683,-413.8901 1581.1897,-382.1343 1613.714,-363.657"/>
<polygon fill="#191970" stroke="#191970" points="1002.9293,-472.6486 993.1474,-476.7186 1003.3323,-479.637 1002.9293,-472.6486"/>
</g>
<!-- Node34 -->
<g id="node32" class="node">
<title>Node34</title>
<g id="a_node32"><a xlink:href="residue_8hpp.html" target="_top" xlink:title=" ">
<polygon fill="#ffffff" stroke="#000000" points="1007.5204,-205.5 1007.5204,-233.5 1125.8006,-233.5 1125.8006,-205.5 1007.5204,-205.5"/>
<text text-anchor="start" x="1015.5204" y="-221.5" font-family="Helvetica,sans-Serif" font-size="10.00" fill="#000000">include/indigox/classes</text>
<text text-anchor="middle" x="1066.6605" y="-211.5" font-family="Helvetica,sans-Serif" font-size="10.00" fill="#000000">/residue.hpp</text>
</a>
</g>
</g>
<!-- Node3&#45;&gt;Node34 -->
<g id="edge65" class="edge">
<title>Node3&#45;&gt;Node34</title>
<path fill="none" stroke="#191970" d="M967.9274,-458.8431C977.1656,-450.4361 986.9148,-440.0867 993.6605,-429 1032.0299,-365.9391 1014.5251,-338.6481 1041.6605,-270 1046.6233,-257.4449 1053.5003,-243.7511 1058.7856,-233.7945"/>
<polygon fill="#191970" stroke="#191970" points="965.6125,-456.2178 960.3647,-465.4217 970.2067,-461.4993 965.6125,-456.2178"/>
</g>
<!-- Node4&#45;&gt;Node5 -->
<g id="edge2" class="edge">
<title>Node4&#45;&gt;Node5</title>
<path fill="none" stroke="#191970" d="M174.388,-200.2956C156.2371,-190.1248 134.34,-177.8549 117.7816,-168.5765"/>
<polygon fill="#191970" stroke="#191970" points="173.0555,-203.5609 183.4902,-205.396 176.4774,-197.4543 173.0555,-203.5609"/>
</g>
<!-- Node4&#45;&gt;Node6 -->
<g id="edge3" class="edge">
<title>Node4&#45;&gt;Node6</title>
<path fill="none" stroke="#191970" d="M215.9844,-195.6971C218.7875,-186.5871 221.8934,-176.4929 224.3293,-168.5765"/>
<polygon fill="#191970" stroke="#191970" points="212.5959,-194.8088 213.0002,-205.396 219.2863,-196.8675 212.5959,-194.8088"/>
</g>
<!-- Node4&#45;&gt;Node10 -->
<g id="edge9" class="edge">
<title>Node4&#45;&gt;Node10</title>
<path fill="none" stroke="#191970" d="M274.2967,-211.0685C374.8844,-198.1471 565.3615,-173.6787 659.3551,-161.6044"/>
<polygon fill="#191970" stroke="#191970" points="273.7313,-207.6123 264.2588,-212.3579 274.6232,-214.5552 273.7313,-207.6123"/>
</g>
<!-- Node4&#45;&gt;Node12 -->
<g id="edge11" class="edge">
<title>Node4&#45;&gt;Node12</title>
<path fill="none" stroke="#191970" d="M252.3069,-201.5442C277.5898,-191.143 308.959,-178.238 332.4437,-168.5765"/>
<polygon fill="#191970" stroke="#191970" points="250.8605,-198.3546 242.9441,-205.396 253.5238,-204.8282 250.8605,-198.3546"/>
</g>
<!-- Node6&#45;&gt;Node7 -->
<g id="edge4" class="edge">
<title>Node6&#45;&gt;Node7</title>
<path fill="none" stroke="#191970" d="M228.6605,-130.1081C228.6605,-121.1539 228.6605,-111.3227 228.6605,-103.5765"/>
<polygon fill="#191970" stroke="#191970" points="225.1606,-130.3959 228.6605,-140.396 232.1606,-130.396 225.1606,-130.3959"/>
</g>
<!-- Node8 -->
<g id="node6" class="node">
<title>Node8</title>
<g id="a_node6"><a xlink:href="astar__optimisation_8hpp.html" target="_top" xlink:title=" ">
<polygon fill="#ffffff" stroke="#000000" points="83.6288,-.5 83.6288,-38.5 219.6922,-38.5 219.6922,-.5 83.6288,-.5"/>
<text text-anchor="start" x="91.6288" y="-26.5" font-family="Helvetica,sans-Serif" font-size="10.00" fill="#000000">include/indigox/algorithm</text>
<text text-anchor="start" x="91.6288" y="-16.5" font-family="Helvetica,sans-Serif" font-size="10.00" fill="#000000">/electron_assignment/astar</text>
<text text-anchor="middle" x="151.6605" y="-6.5" font-family="Helvetica,sans-Serif" font-size="10.00" fill="#000000">_optimisation.hpp</text>
</a>
</g>
</g>
<!-- Node6&#45;&gt;Node8 -->
<g id="edge7" class="edge">
<title>Node6&#45;&gt;Node8</title>
<path fill="none" stroke="#191970" d="M171.455,-136.0331C156.939,-128.4746 143.0847,-118.0887 134.6605,-104 122.6037,-83.8361 131.7292,-56.6229 140.5904,-38.5907"/>
<polygon fill="#191970" stroke="#191970" points="170.0052,-139.2194 180.5361,-140.3817 173.0286,-132.9059 170.0052,-139.2194"/>
</g>
<!-- Node9 -->
<g id="node7" class="node">
<title>Node9</title>
<g id="a_node7"><a xlink:href="local__optimisation_8hpp.html" target="_top" xlink:title=" ">
<polygon fill="#ffffff" stroke="#000000" points="255.4613,-.5 255.4613,-38.5 389.8597,-38.5 389.8597,-.5 255.4613,-.5"/>
<text text-anchor="start" x="263.4613" y="-26.5" font-family="Helvetica,sans-Serif" font-size="10.00" fill="#000000">include/indigox/algorithm</text>
<text text-anchor="start" x="263.4613" y="-16.5" font-family="Helvetica,sans-Serif" font-size="10.00" fill="#000000">/electron_assignment/local</text>
<text text-anchor="middle" x="322.6605" y="-6.5" font-family="Helvetica,sans-Serif" font-size="10.00" fill="#000000">_optimisation.hpp</text>
</a>
</g>
</g>
<!-- Node6&#45;&gt;Node9 -->
<g id="edge8" class="edge">
<title>Node6&#45;&gt;Node9</title>
<path fill="none" stroke="#191970" d="M285.866,-136.0331C300.382,-128.4746 314.2363,-118.0887 322.6605,-104 334.4805,-84.2322 331.8025,-56.9292 327.9636,-38.7684"/>
<polygon fill="#191970" stroke="#191970" points="284.2924,-132.9059 276.7848,-140.3817 287.3157,-139.2194 284.2924,-132.9059"/>
</g>
<!-- Node7&#45;&gt;Node8 -->
<g id="edge5" class="edge">
<title>Node7&#45;&gt;Node8</title>
<path fill="none" stroke="#191970" d="M205.5321,-68.4742C195.1235,-59.0118 182.9215,-47.9191 172.7647,-38.6857"/>
<polygon fill="#191970" stroke="#191970" points="203.3246,-71.1975 213.0784,-75.3345 208.0333,-66.0179 203.3246,-71.1975"/>
</g>
<!-- Node7&#45;&gt;Node9 -->
<g id="edge6" class="edge">
<title>Node7&#45;&gt;Node9</title>
<path fill="none" stroke="#191970" d="M255.7798,-69.3047C268.7234,-59.6659 284.1331,-48.1906 296.8969,-38.6857"/>
<polygon fill="#191970" stroke="#191970" points="253.6128,-66.5546 247.6828,-75.3345 257.7937,-72.1689 253.6128,-66.5546"/>
</g>
<!-- Node10&#45;&gt;Node11 -->
<g id="edge10" class="edge">
<title>Node10&#45;&gt;Node11</title>
<path fill="none" stroke="#191970" d="M779.8585,-140.6481C781.1357,-140.4257 782.404,-140.2094 783.6605,-140 907.0415,-119.4377 1052.7002,-103.3619 1132.3145,-95.2662"/>
<polygon fill="#191970" stroke="#191970" points="779.1547,-137.2186 769.9448,-142.4557 780.4104,-144.1051 779.1547,-137.2186"/>
</g>
<!-- Node12&#45;&gt;Node11 -->
<g id="edge12" class="edge">
<title>Node12&#45;&gt;Node11</title>
<path fill="none" stroke="#191970" d="M432.4942,-149.3131C589.2105,-136.9658 982.4798,-105.9809 1132.3693,-94.1714"/>
<polygon fill="#191970" stroke="#191970" points="431.7663,-145.8595 422.0721,-150.1342 432.3162,-152.8379 431.7663,-145.8595"/>
</g>
<!-- Node14 -->
<g id="node12" class="node">
<title>Node14</title>
<g id="a_node12"><a xlink:href="base__graph__impl_8hpp.html" target="_top" xlink:title=" ">
<polygon fill="#ffffff" stroke="#000000" points="229.1805,-270.5 229.1805,-298.5 344.1405,-298.5 344.1405,-270.5 229.1805,-270.5"/>
<text text-anchor="start" x="237.1805" y="-286.5" font-family="Helvetica,sans-Serif" font-size="10.00" fill="#000000">include/indigox/graph</text>
<text text-anchor="middle" x="286.6605" y="-276.5" font-family="Helvetica,sans-Serif" font-size="10.00" fill="#000000">/base_graph_impl.hpp</text>
</a>
</g>
</g>
<!-- Node13&#45;&gt;Node14 -->
<g id="edge14" class="edge">
<title>Node13&#45;&gt;Node14</title>
<path fill="none" stroke="#191970" d="M342.6387,-390.0931C339.9648,-373.8684 335.1251,-352.4231 326.6605,-335 320.1113,-321.5195 309.4589,-308.3151 300.7931,-298.7912"/>
<polygon fill="#191970" stroke="#191970" points="339.2345,-390.9986 344.1617,-400.3779 346.159,-389.9731 339.2345,-390.9986"/>
</g>
<!-- Node14&#45;&gt;Node4 -->
<g id="edge15" class="edge">
<title>Node14&#45;&gt;Node4</title>
<path fill="none" stroke="#191970" d="M261.9203,-263.8832C250.067,-254.0054 236.1756,-242.4293 225.5523,-233.5765"/>
<polygon fill="#191970" stroke="#191970" points="259.8128,-266.6829 269.7357,-270.396 264.2941,-261.3053 259.8128,-266.6829"/>
</g>
<!-- Node15&#45;&gt;Node12 -->
<g id="edge18" class="edge">
<title>Node15&#45;&gt;Node12</title>
<path fill="none" stroke="#191970" d="M234.6076,-327.5503C222.345,-311.3432 210.7528,-288.9094 220.6605,-270 233.7061,-245.1015 250.3478,-251.0958 272.6605,-234 300.9937,-212.2914 332.3628,-185.0744 350.7497,-168.7738"/>
<polygon fill="#191970" stroke="#191970" points="231.957,-329.8387 240.9709,-335.4064 237.3965,-325.4328 231.957,-329.8387"/>
</g>
<!-- Node15&#45;&gt;Node14 -->
<g id="edge17" class="edge">
<title>Node15&#45;&gt;Node14</title>
<path fill="none" stroke="#191970" d="M266.0902,-326.2835C270.6495,-317.0223 275.7494,-306.6632 279.7305,-298.5765"/>
<polygon fill="#191970" stroke="#191970" points="262.8808,-324.8783 261.604,-335.396 269.161,-327.9702 262.8808,-324.8783"/>
</g>
<!-- Node16&#45;&gt;Node14 -->
<g id="edge20" class="edge">
<title>Node16&#45;&gt;Node14</title>
<path fill="none" stroke="#191970" d="M521.9611,-396.139C466.7218,-369.9305 366.4413,-322.3522 316.5356,-298.6743"/>
<polygon fill="#191970" stroke="#191970" points="520.5423,-399.3398 531.0774,-400.4642 523.543,-393.0155 520.5423,-399.3398"/>
</g>
<!-- Node17 -->
<g id="node15" class="node">
<title>Node17</title>
<g id="a_node15"><a xlink:href="triple_8hpp.html" target="_top" xlink:title=" ">
<polygon fill="#ffffff" stroke="#000000" points="509.3011,-335.5 509.3011,-363.5 612.0199,-363.5 612.0199,-335.5 509.3011,-335.5"/>
<text text-anchor="start" x="517.3011" y="-351.5" font-family="Helvetica,sans-Serif" font-size="10.00" fill="#000000">include/indigox/utils</text>
<text text-anchor="middle" x="560.6605" y="-341.5" font-family="Helvetica,sans-Serif" font-size="10.00" fill="#000000">/triple.hpp</text>
</a>
</g>
</g>
<!-- Node16&#45;&gt;Node17 -->
<g id="edge21" class="edge">
<title>Node16&#45;&gt;Node17</title>
<path fill="none" stroke="#191970" d="M560.6605,-390.1081C560.6605,-381.1539 560.6605,-371.3227 560.6605,-363.5765"/>
<polygon fill="#191970" stroke="#191970" points="557.1606,-390.3959 560.6605,-400.396 564.1606,-390.396 557.1606,-390.3959"/>
</g>
<!-- Node22 -->
<g id="node20" class="node">
<title>Node22</title>
<g id="a_node20"><a xlink:href="quad_8hpp.html" target="_top" xlink:title=" ">
<polygon fill="#ffffff" stroke="#000000" points="667.3011,-335.5 667.3011,-363.5 770.0199,-363.5 770.0199,-335.5 667.3011,-335.5"/>
<text text-anchor="start" x="675.3011" y="-351.5" font-family="Helvetica,sans-Serif" font-size="10.00" fill="#000000">include/indigox/utils</text>
<text text-anchor="middle" x="718.6605" y="-341.5" font-family="Helvetica,sans-Serif" font-size="10.00" fill="#000000">/quad.hpp</text>
</a>
</g>
</g>
<!-- Node16&#45;&gt;Node22 -->
<g id="edge27" class="edge">
<title>Node16&#45;&gt;Node22</title>
<path fill="none" stroke="#191970" d="M604.3069,-396.5442C629.5898,-386.143 660.959,-373.238 684.4437,-363.5765"/>
<polygon fill="#191970" stroke="#191970" points="602.8605,-393.3546 594.9441,-400.396 605.5238,-399.8282 602.8605,-393.3546"/>
</g>
<!-- Node17&#45;&gt;Node14 -->
<g id="edge22" class="edge">
<title>Node17&#45;&gt;Node14</title>
<path fill="none" stroke="#191970" d="M499.2249,-334.9259C452.9697,-323.9529 389.9907,-309.0126 344.6066,-298.2463"/>
<polygon fill="#191970" stroke="#191970" points="498.5853,-338.3712 509.1232,-337.274 500.2011,-331.5602 498.5853,-338.3712"/>
</g>
<!-- Node17&#45;&gt;Node18 -->
<g id="edge23" class="edge">
<title>Node17&#45;&gt;Node18</title>
<path fill="none" stroke="#191970" d="M604.3069,-331.5442C629.5898,-321.143 660.959,-308.238 684.4437,-298.5765"/>
<polygon fill="#191970" stroke="#191970" points="602.8605,-328.3546 594.9441,-335.396 605.5238,-334.8282 602.8605,-328.3546"/>
</g>
<!-- Node17&#45;&gt;Node20 -->
<g id="edge25" class="edge">
<title>Node17&#45;&gt;Node20</title>
<path fill="none" stroke="#191970" d="M568.7168,-325.6971C571.8002,-316.5871 575.2167,-306.4929 577.8961,-298.5765"/>
<polygon fill="#191970" stroke="#191970" points="565.3249,-324.8017 565.4342,-335.396 571.9554,-327.0459 565.3249,-324.8017"/>
</g>
<!-- Node21 -->
<g id="node19" class="node">
<title>Node21</title>
<g id="a_node19"><a xlink:href="combinatronics_8hpp.html" target="_top" xlink:title=" ">
<polygon fill="#ffffff" stroke="#000000" points="399.9144,-270.5 399.9144,-298.5 505.4066,-298.5 505.4066,-270.5 399.9144,-270.5"/>
<text text-anchor="start" x="407.9144" y="-286.5" font-family="Helvetica,sans-Serif" font-size="10.00" fill="#000000">include/indigox/utils</text>
<text text-anchor="middle" x="452.6605" y="-276.5" font-family="Helvetica,sans-Serif" font-size="10.00" fill="#000000">/combinatronics.hpp</text>
</a>
</g>
</g>
<!-- Node17&#45;&gt;Node21 -->
<g id="edge26" class="edge">
<title>Node17&#45;&gt;Node21</title>
<path fill="none" stroke="#191970" d="M528.2857,-330.0151C511.4788,-319.8999 491.3241,-307.7698 476.0491,-298.5765"/>
<polygon fill="#191970" stroke="#191970" points="526.8533,-333.2381 537.2261,-335.396 530.463,-327.2405 526.8533,-333.2381"/>
</g>
<!-- Node18&#45;&gt;Node19 -->
<g id="edge24" class="edge">
<title>Node18&#45;&gt;Node19</title>
<path fill="none" stroke="#191970" d="M764.9043,-266.8185C792.2295,-256.3707 826.354,-243.3231 851.845,-233.5765"/>
<polygon fill="#191970" stroke="#191970" points="763.6385,-263.5553 755.548,-270.396 766.1385,-270.0937 763.6385,-263.5553"/>
</g>
<!-- Node22&#45;&gt;Node18 -->
<g id="edge28" class="edge">
<title>Node22&#45;&gt;Node18</title>
<path fill="none" stroke="#191970" d="M718.6605,-325.1081C718.6605,-316.1539 718.6605,-306.3227 718.6605,-298.5765"/>
<polygon fill="#191970" stroke="#191970" points="715.1606,-325.3959 718.6605,-335.396 722.1606,-325.396 715.1606,-325.3959"/>
</g>
<!-- Node22&#45;&gt;Node20 -->
<g id="edge31" class="edge">
<title>Node22&#45;&gt;Node20</title>
<path fill="none" stroke="#191970" d="M679.9362,-330.9921C658.3795,-320.6892 631.9714,-308.0677 612.1129,-298.5765"/>
<polygon fill="#191970" stroke="#191970" points="678.6187,-334.2416 689.1505,-335.396 681.6373,-327.9258 678.6187,-334.2416"/>
</g>
<!-- Node22&#45;&gt;Node23 -->
<g id="edge29" class="edge">
<title>Node22&#45;&gt;Node23</title>
<path fill="none" stroke="#191970" d="M757.3848,-330.9921C778.9415,-320.6892 805.3496,-308.0677 825.2081,-298.5765"/>
<polygon fill="#191970" stroke="#191970" points="755.6836,-327.9258 748.1705,-335.396 758.7022,-334.2416 755.6836,-327.9258"/>
</g>
<!-- Node23&#45;&gt;Node11 -->
<g id="edge30" class="edge">
<title>Node23&#45;&gt;Node11</title>
<path fill="none" stroke="#191970" d="M832.0628,-262.7679C817.4708,-246.0543 803.4635,-222.8734 816.6605,-205 854.4436,-153.8282 1036.6613,-115.8509 1132.4792,-99.0491"/>
<polygon fill="#191970" stroke="#191970" points="829.7853,-265.4587 839.1564,-270.4016 834.9132,-260.6936 829.7853,-265.4587"/>
</g>
<!-- Node24&#45;&gt;Node11 -->
<g id="edge36" class="edge">
<title>Node24&#45;&gt;Node11</title>
<path fill="none" stroke="#191970" d="M1155.8153,-261.5357C1160.1606,-253.1042 1164.6483,-243.3349 1167.6605,-234 1182.5765,-187.7748 1188.5948,-130.0895 1190.6893,-103.7762"/>
<polygon fill="#191970" stroke="#191970" points="1152.7067,-259.9267 1151.0561,-270.3922 1158.8728,-263.2402 1152.7067,-259.9267"/>
</g>
<!-- Node24&#45;&gt;Node19 -->
<g id="edge35" class="edge">
<title>Node24&#45;&gt;Node19</title>
<path fill="none" stroke="#191970" d="M1078.1225,-267.9844C1036.6347,-257.3674 983.3052,-243.7201 943.8016,-233.6109"/>
<polygon fill="#191970" stroke="#191970" points="1077.3034,-271.3875 1087.859,-270.476 1079.0389,-264.606 1077.3034,-271.3875"/>
</g>
<!-- Node25&#45;&gt;Node7 -->
<g id="edge39" class="edge">
<title>Node25&#45;&gt;Node7</title>
<path fill="none" stroke="#191970" d="M1227.8142,-325.2744C1225.6445,-308.7028 1220.9253,-286.7828 1210.6605,-270 1187.4696,-232.0832 1174.7963,-224.095 1134.6605,-205 990.2219,-136.2819 510.7454,-104.1407 314.0161,-93.6043"/>
<polygon fill="#191970" stroke="#191970" points="1224.3422,-325.722 1228.9045,-335.2841 1231.301,-324.9639 1224.3422,-325.722"/>
</g>
<!-- Node25&#45;&gt;Node11 -->
<g id="edge40" class="edge">
<title>Node25&#45;&gt;Node11</title>
<path fill="none" stroke="#191970" d="M1237.9879,-325.6045C1250.5411,-285.4597 1270.1793,-202.7201 1243.6605,-140 1237.3875,-125.1636 1224.3875,-112.5386 1212.9557,-103.6227"/>
<polygon fill="#191970" stroke="#191970" points="1234.5986,-324.7093 1234.8303,-335.3016 1241.2546,-326.8767 1234.5986,-324.7093"/>
</g>
<!-- Node25&#45;&gt;Node24 -->
<g id="edge38" class="edge">
<title>Node25&#45;&gt;Node24</title>
<path fill="none" stroke="#191970" d="M1202.4464,-329.1677C1189.143,-319.2283 1173.4644,-307.5144 1161.5014,-298.5765"/>
<polygon fill="#191970" stroke="#191970" points="1200.6769,-332.2145 1210.7828,-335.396 1204.8666,-326.6068 1200.6769,-332.2145"/>
</g>
<!-- Node26 -->
<g id="node24" class="node">
<title>Node26</title>
<g id="a_node24"><a xlink:href="indigox_8hpp.html" target="_top" xlink:title=" ">
<polygon fill="#ffffff" stroke="#000000" points="1333.6165,-275.5 1333.6165,-293.5 1469.7044,-293.5 1469.7044,-275.5 1333.6165,-275.5"/>
<text text-anchor="middle" x="1401.6605" y="-281.5" font-family="Helvetica,sans-Serif" font-size="10.00" fill="#000000">include/indigox/indigox.hpp</text>
</a>
</g>
</g>
<!-- Node25&#45;&gt;Node26 -->
<g id="edge41" class="edge">
<title>Node25&#45;&gt;Node26</title>
<path fill="none" stroke="#191970" d="M1276.369,-331.8485C1309.107,-319.4766 1351.5215,-303.4479 1377.6485,-293.5743"/>
<polygon fill="#191970" stroke="#191970" points="1275.099,-328.5868 1266.9819,-335.396 1277.5735,-335.1349 1275.099,-328.5868"/>
</g>
<!-- Node29&#45;&gt;Node11 -->
<g id="edge48" class="edge">
<title>Node29&#45;&gt;Node11</title>
<path fill="none" stroke="#191970" d="M1744.7203,-196.8439C1731.874,-178.1501 1710.9935,-152.7073 1685.6605,-140 1610.8163,-102.4575 1365.1282,-92.8127 1250.9575,-90.3442"/>
<polygon fill="#191970" stroke="#191970" points="1741.9346,-198.977 1750.3656,-205.3933 1747.776,-195.1198 1741.9346,-198.977"/>
</g>
<!-- Node30&#45;&gt;Node11 -->
<g id="edge51" class="edge">
<title>Node30&#45;&gt;Node11</title>
<path fill="none" stroke="#191970" d="M1345.541,-327.7191C1338.331,-319.1863 1330.5403,-309.0445 1324.6605,-299 1286.2605,-233.4011 1308.357,-199.9768 1261.6605,-140 1249.969,-124.9835 1232.65,-112.4377 1218.1645,-103.6068"/>
<polygon fill="#191970" stroke="#191970" points="1342.9849,-330.1133 1352.1944,-335.3513 1348.2614,-325.5135 1342.9849,-330.1133"/>
</g>
<!-- Node30&#45;&gt;Node26 -->
<g id="edge52" class="edge">
<title>Node30&#45;&gt;Node26</title>
<path fill="none" stroke="#191970" d="M1378.4546,-326.3996C1384.7351,-315.0598 1391.9408,-302.0495 1396.6347,-293.5743"/>
<polygon fill="#191970" stroke="#191970" points="1375.2552,-324.9523 1373.472,-335.396 1381.3788,-328.3438 1375.2552,-324.9523"/>
</g>
<!-- Node31 -->
<g id="node29" class="node">
<title>Node31</title>
<g id="a_node29"><a xlink:href="iters_8hpp.html" target="_top" xlink:title=" ">
<polygon fill="#ffffff" stroke="#000000" points="1525.5204,-270.5 1525.5204,-298.5 1643.8006,-298.5 1643.8006,-270.5 1525.5204,-270.5"/>
<text text-anchor="start" x="1533.5204" y="-286.5" font-family="Helvetica,sans-Serif" font-size="10.00" fill="#000000">include/indigox/classes</text>
<text text-anchor="middle" x="1584.6605" y="-276.5" font-family="Helvetica,sans-Serif" font-size="10.00" fill="#000000">/iters.hpp</text>
</a>
</g>
</g>
<!-- Node30&#45;&gt;Node31 -->
<g id="edge50" class="edge">
<title>Node30&#45;&gt;Node31</title>
<path fill="none" stroke="#191970" d="M1422.6687,-332.5797C1458.2386,-322.0225 1503.4885,-308.5921 1537.1176,-298.6109"/>
<polygon fill="#191970" stroke="#191970" points="1421.5014,-329.2752 1412.9106,-335.476 1423.4932,-335.9859 1421.5014,-329.2752"/>
</g>
<!-- Node32&#45;&gt;Node11 -->
<g id="edge55" class="edge">
<title>Node32&#45;&gt;Node11</title>
<path fill="none" stroke="#191970" d="M1499.05,-325.1303C1496.2488,-308.3215 1490.4815,-286.1782 1478.6605,-270 1414.7641,-182.5517 1294.4541,-127.5637 1231.8341,-103.5503"/>
<polygon fill="#191970" stroke="#191970" points="1495.6218,-325.8826 1500.4963,-335.2894 1502.5519,-324.8959 1495.6218,-325.8826"/>
</g>
<!-- Node32&#45;&gt;Node26 -->
<g id="edge56" class="edge">
<title>Node32&#45;&gt;Node26</title>
<path fill="none" stroke="#191970" d="M1471.5208,-329.9092C1452.9557,-317.8419 1430.0288,-302.9394 1415.621,-293.5743"/>
<polygon fill="#191970" stroke="#191970" points="1469.6701,-332.8806 1479.962,-335.396 1473.485,-327.0115 1469.6701,-332.8806"/>
</g>
<!-- Node32&#45;&gt;Node31 -->
<g id="edge54" class="edge">
<title>Node32&#45;&gt;Node31</title>
<path fill="none" stroke="#191970" d="M1527.6233,-329.1677C1540.3151,-319.2283 1555.2728,-307.5144 1566.6859,-298.5765"/>
<polygon fill="#191970" stroke="#191970" points="1525.3853,-326.4747 1519.6703,-335.396 1529.7013,-331.9859 1525.3853,-326.4747"/>
</g>
<!-- Node33&#45;&gt;Node11 -->
<g id="edge60" class="edge">
<title>Node33&#45;&gt;Node11</title>
<path fill="none" stroke="#191970" d="M1650.4418,-326.1953C1657.803,-309.3326 1663.635,-286.6723 1652.6605,-270 1606.6432,-200.0915 1363.8466,-132.0872 1250.2988,-103.5479"/>
<polygon fill="#191970" stroke="#191970" points="1647.2129,-324.8343 1646.0464,-335.3647 1653.5251,-327.8602 1647.2129,-324.8343"/>
</g>
<!-- Node33&#45;&gt;Node26 -->
<g id="edge61" class="edge">
<title>Node33&#45;&gt;Node26</title>
<path fill="none" stroke="#191970" d="M1576.9938,-332.791C1531.5369,-320.271 1471.0841,-303.6209 1434.3431,-293.5016"/>
<polygon fill="#191970" stroke="#191970" points="1576.1721,-336.1949 1586.7426,-335.476 1578.0309,-329.4462 1576.1721,-336.1949"/>
</g>
<!-- Node33&#45;&gt;Node31 -->
<g id="edge59" class="edge">
<title>Node33&#45;&gt;Node31</title>
<path fill="none" stroke="#191970" d="M1619.679,-327.4472C1611.8932,-317.8986 1603.0096,-307.0037 1596.1383,-298.5765"/>
<polygon fill="#191970" stroke="#191970" points="1617.1283,-329.8576 1626.1603,-335.396 1622.5534,-325.434 1617.1283,-329.8576"/>
</g>
<!-- Node34&#45;&gt;Node11 -->
<g id="edge66" class="edge">
<title>Node34&#45;&gt;Node11</title>
<path fill="none" stroke="#191970" d="M1086.0959,-197.6659C1100.6183,-181.5165 1121.083,-159.1044 1139.6605,-140 1151.7676,-127.5495 1165.9323,-113.8475 1176.4181,-103.8612"/>
<polygon fill="#191970" stroke="#191970" points="1083.1521,-195.7064 1079.0848,-205.4894 1088.3652,-200.3781 1083.1521,-195.7064"/>
</g>
</g>
</svg>
