<?xml version="1.0" encoding="UTF-8" standalone="no"?>
<!DOCTYPE svg PUBLIC "-//W3C//DTD SVG 1.1//EN"
 "http://www.w3.org/Graphics/SVG/1.1/DTD/svg11.dtd">
<!-- Generated by graphviz version 2.40.1 (20161225.0304)
 -->
<!-- Title: include/indigox/utils/fwd_declares.hpp Pages: 1 -->
<svg width="124pt" height="92pt"
 viewBox="0.00 0.00 123.51 92.00" xmlns="http://www.w3.org/2000/svg" xmlns:xlink="http://www.w3.org/1999/xlink">
<g id="graph0" class="graph" transform="scale(1 1) rotate(0) translate(4 88)">
<title>include/indigox/utils/fwd_declares.hpp</title>
<polygon fill="#ffffff" stroke="transparent" points="-4,4 -4,-88 119.5073,-88 119.5073,4 -4,4"/>
<!-- Node0 -->
<g id="node1" class="node">
<title>Node0</title>
<polygon fill="#bfbfbf" stroke="#000000" points="4.0913,-55.5 4.0913,-83.5 106.8101,-83.5 106.8101,-55.5 4.0913,-55.5"/>
<text text-anchor="start" x="12.0913" y="-71.5" font-family="Helvetica,sans-Serif" font-size="10.00" fill="#000000">include/indigox/utils</text>
<text text-anchor="middle" x="55.4507" y="-61.5" font-family="Helvetica,sans-Serif" font-size="10.00" fill="#000000">/fwd_declares.hpp</text>
</g>
<!-- Node1 -->
<g id="node2" class="node">
<title>Node1</title>
<polygon fill="#ffffff" stroke="#bfbfbf" points="0,-.5 0,-18.5 44.9014,-18.5 44.9014,-.5 0,-.5"/>
<text text-anchor="middle" x="22.4507" y="-6.5" font-family="Helvetica,sans-Serif" font-size="10.00" fill="#000000">cstdint</text>
</g>
<!-- Node0&#45;&gt;Node1 -->
<g id="edge1" class="edge">
<title>Node0&#45;&gt;Node1</title>
<path fill="none" stroke="#191970" d="M47.6301,-55.2808C43.0391,-46.9336 37.1949,-36.3076 32.2927,-27.3946"/>
<polygon fill="#191970" stroke="#191970" points="35.333,-25.6596 27.447,-18.5842 29.1995,-29.0331 35.333,-25.6596"/>
</g>
<!-- Node2 -->
<g id="node3" class="node">
<title>Node2</title>
<polygon fill="#ffffff" stroke="#bfbfbf" points="63.394,-.5 63.394,-18.5 115.5073,-18.5 115.5073,-.5 63.394,-.5"/>
<text text-anchor="middle" x="89.4507" y="-6.5" font-family="Helvetica,sans-Serif" font-size="10.00" fill="#000000">memory</text>
</g>
<!-- Node0&#45;&gt;Node2 -->
<g id="edge2" class="edge">
<title>Node0&#45;&gt;Node2</title>
<path fill="none" stroke="#191970" d="M63.5082,-55.2808C68.2383,-46.9336 74.2597,-36.3076 79.3104,-27.3946"/>
<polygon fill="#191970" stroke="#191970" points="82.4179,-29.01 84.303,-18.5842 76.3277,-25.5589 82.4179,-29.01"/>
</g>
</g>
</svg>
