<?xml version="1.0" encoding="UTF-8" standalone="no"?>
<!DOCTYPE svg PUBLIC "-//W3C//DTD SVG 1.1//EN"
 "http://www.w3.org/Graphics/SVG/1.1/DTD/svg11.dtd">
<!-- Generated by graphviz version 2.40.1 (20161225.0304)
 -->
<!-- Title: include/indigox/indigox.hpp Pages: 1 -->
<!--zoomable 192 -->
<svg id="main" version="1.1" xmlns="http://www.w3.org/2000/svg" xmlns:xlink="http://www.w3.org/1999/xlink" xml:space="preserve" onload="init(evt)">
<style type="text/css"><![CDATA[
.edge:hover path { stroke: red; }
.edge:hover polygon { stroke: red; fill: red; }
]]></style>
<script type="text/javascript"><![CDATA[
var edges = document.getElementsByTagName('g');
if (edges && edges.length) {
  for (var i=0;i<edges.length;i++) {
    if (edges[i].id.substr(0,4)=='edge') {
      edges[i].setAttribute('class','edge');
    }
  }
}
]]></script>
        <defs>
                <circle id="rim" cx="0" cy="0" r="7"/>
                <circle id="rim2" cx="0" cy="0" r="3.5"/>
                <g id="zoomPlus">
                        <use xlink:href="#rim" fill="#404040">
                                <set attributeName="fill" to="#808080" begin="zoomplus.mouseover" end="zoomplus.mouseout"/>
                        </use>
                        <path d="M-4,0h8M0,-4v8" fill="none" stroke="white" stroke-width="1.5" pointer-events="none"/>
                </g>
                <g id="zoomMin">
                        <use xlink:href="#rim" fill="#404040">
                                <set attributeName="fill" to="#808080" begin="zoomminus.mouseover" end="zoomminus.mouseout"/>
                        </use>
                        <path d="M-4,0h8" fill="none" stroke="white" stroke-width="1.5" pointer-events="none"/>
                </g>
                <g id="dirArrow">
                        <path fill="none" stroke="white" stroke-width="1.5" d="M0,-3.0v7 M-2.5,-0.5L0,-3.0L2.5,-0.5"/>
                </g>
               <g id="resetDef">
                       <use xlink:href="#rim2" fill="#404040">
                               <set attributeName="fill" to="#808080" begin="reset.mouseover" end="reset.mouseout"/>
                       </use>
               </g>
        </defs>

<script type="text/javascript">
var viewWidth = 1039;
var viewHeight = 192;
var sectionId = 'dynsection-0';
</script>
<script xlink:href="svgpan.js"/>
<svg id="graph" class="graph">
<g id="viewport">
<title>include/indigox/indigox.hpp</title>
<polygon fill="#ffffff" stroke="transparent" points="-4,4 -4,-188 1034.8643,-188 1034.8643,4 -4,4"/>
<!-- Node0 -->
<g id="node1" class="node">
<title>Node0</title>
<polygon fill="#bfbfbf" stroke="#000000" points="501.2588,-165.5 501.2588,-183.5 637.3467,-183.5 637.3467,-165.5 501.2588,-165.5"/>
<text text-anchor="middle" x="569.3027" y="-171.5" font-family="Helvetica,sans-Serif" font-size="10.00" fill="#000000">include/indigox/indigox.hpp</text>
</g>
<!-- Node1 -->
<g id="node2" class="node">
<title>Node1</title>
<g id="a_node2"><a xlink:href="atom_8hpp.html" target="_top" xlink:title="classes/atom.hpp">
<polygon fill="#ffffff" stroke="#000000" points="410.394,-110.5 410.394,-128.5 504.2114,-128.5 504.2114,-110.5 410.394,-110.5"/>
<text text-anchor="middle" x="457.3027" y="-116.5" font-family="Helvetica,sans-Serif" font-size="10.00" fill="#000000">classes/atom.hpp</text>
</a>
</g>
</g>
<!-- Node0&#45;&gt;Node1 -->
<g id="edge1" class="edge">
<title>Node0&#45;&gt;Node1</title>
<path fill="none" stroke="#191970" d="M550.8082,-165.4179C532.8936,-156.6205 505.5016,-143.1691 484.9883,-133.0956"/>
<polygon fill="#191970" stroke="#191970" points="486.3436,-129.8619 475.8247,-128.5956 483.2581,-136.1452 486.3436,-129.8619"/>
</g>
<!-- Node7 -->
<g id="node8" class="node">
<title>Node7</title>
<g id="a_node8"><a xlink:href="bond_8hpp.html" target="_top" xlink:title="classes/bond.hpp">
<polygon fill="#ffffff" stroke="#000000" points="522.3867,-110.5 522.3867,-128.5 616.2188,-128.5 616.2188,-110.5 522.3867,-110.5"/>
<text text-anchor="middle" x="569.3027" y="-116.5" font-family="Helvetica,sans-Serif" font-size="10.00" fill="#000000">classes/bond.hpp</text>
</a>
</g>
</g>
<!-- Node0&#45;&gt;Node7 -->
<g id="edge8" class="edge">
<title>Node0&#45;&gt;Node7</title>
<path fill="none" stroke="#191970" d="M569.3027,-165.4179C569.3027,-158.2164 569.3027,-147.8962 569.3027,-138.8632"/>
<polygon fill="#191970" stroke="#191970" points="572.8028,-138.7794 569.3027,-128.7795 565.8028,-138.7795 572.8028,-138.7794"/>
</g>
<!-- Node9 -->
<g id="node10" class="node">
<title>Node9</title>
<g id="a_node10"><a xlink:href="molecule_8hpp.html" target="_top" xlink:title="classes/molecule.hpp">
<polygon fill="#ffffff" stroke="#000000" points="162.5,-110.5 162.5,-128.5 274.1055,-128.5 274.1055,-110.5 162.5,-110.5"/>
<text text-anchor="middle" x="218.3027" y="-116.5" font-family="Helvetica,sans-Serif" font-size="10.00" fill="#000000">classes/molecule.hpp</text>
</a>
</g>
</g>
<!-- Node0&#45;&gt;Node9 -->
<g id="edge12" class="edge">
<title>Node0&#45;&gt;Node9</title>
<path fill="none" stroke="#191970" d="M511.7353,-165.4795C449.3366,-155.7019 349.9183,-140.1235 284.3778,-129.8536"/>
<polygon fill="#191970" stroke="#191970" points="284.582,-126.343 274.1607,-128.2527 283.4983,-133.2586 284.582,-126.343"/>
</g>
<!-- Node13 -->
<g id="node14" class="node">
<title>Node13</title>
<g id="a_node14"><a xlink:href="periodictable_8hpp.html" target="_top" xlink:title="classes/periodictable.hpp">
<polygon fill="#ffffff" stroke="#000000" points="634.1577,-110.5 634.1577,-128.5 762.4478,-128.5 762.4478,-110.5 634.1577,-110.5"/>
<text text-anchor="middle" x="698.3027" y="-116.5" font-family="Helvetica,sans-Serif" font-size="10.00" fill="#000000">classes/periodictable.hpp</text>
</a>
</g>
</g>
<!-- Node0&#45;&gt;Node13 -->
<g id="edge19" class="edge">
<title>Node0&#45;&gt;Node13</title>
<path fill="none" stroke="#191970" d="M590.6045,-165.4179C611.6117,-156.4613 643.9336,-142.6806 667.6899,-132.552"/>
<polygon fill="#191970" stroke="#191970" points="669.1433,-135.7372 676.9694,-128.5956 666.3978,-129.2981 669.1433,-135.7372"/>
</g>
<!-- Node21 -->
<g id="node22" class="node">
<title>Node21</title>
<polygon fill="#ffffff" stroke="#bfbfbf" points="780.1675,-110.5 780.1675,-128.5 868.438,-128.5 868.438,-110.5 780.1675,-110.5"/>
<text text-anchor="middle" x="824.3027" y="-116.5" font-family="Helvetica,sans-Serif" font-size="10.00" fill="#000000">utils/options.hpp</text>
</g>
<!-- Node0&#45;&gt;Node21 -->
<g id="edge31" class="edge">
<title>Node0&#45;&gt;Node21</title>
<path fill="none" stroke="#191970" d="M611.1253,-165.4795C655.3157,-155.9482 725.0628,-140.9047 772.6551,-130.6397"/>
<polygon fill="#191970" stroke="#191970" points="773.4201,-134.0553 782.4574,-128.5255 771.9442,-127.2126 773.4201,-134.0553"/>
</g>
<!-- Node2 -->
<g id="node3" class="node">
<title>Node2</title>
<g id="a_node3"><a xlink:href="fwd__declares_8hpp.html" target="_top" xlink:title="../utils/fwd_declares.hpp">
<polygon fill="#ffffff" stroke="#000000" points="405.6626,-55.5 405.6626,-73.5 528.9429,-73.5 528.9429,-55.5 405.6626,-55.5"/>
<text text-anchor="middle" x="467.3027" y="-61.5" font-family="Helvetica,sans-Serif" font-size="10.00" fill="#000000">../utils/fwd_declares.hpp</text>
</a>
</g>
</g>
<!-- Node1&#45;&gt;Node2 -->
<g id="edge2" class="edge">
<title>Node1&#45;&gt;Node2</title>
<path fill="none" stroke="#191970" d="M458.954,-110.4179C460.2634,-103.2164 462.1398,-92.8962 463.7822,-83.8632"/>
<polygon fill="#191970" stroke="#191970" points="467.2702,-84.2443 465.6156,-73.7795 460.3831,-82.992 467.2702,-84.2443"/>
</g>
<!-- Node4 -->
<g id="node5" class="node">
<title>Node4</title>
<polygon fill="#ffffff" stroke="#bfbfbf" points="550.2461,-.5 550.2461,-18.5 602.3594,-18.5 602.3594,-.5 550.2461,-.5"/>
<text text-anchor="middle" x="576.3027" y="-6.5" font-family="Helvetica,sans-Serif" font-size="10.00" fill="#000000">memory</text>
</g>
<!-- Node1&#45;&gt;Node4 -->
<g id="edge6" class="edge">
<title>Node1&#45;&gt;Node4</title>
<path fill="none" stroke="#191970" d="M480.359,-110.4863C497.8287,-102.7897 521.5959,-90.3662 538.3027,-74 551.6199,-60.9544 561.9434,-42.2787 568.4473,-28.3775"/>
<polygon fill="#191970" stroke="#191970" points="571.8171,-29.4113 572.6626,-18.8502 565.4157,-26.579 571.8171,-29.4113"/>
</g>
<!-- Node5 -->
<g id="node6" class="node">
<title>Node5</title>
<polygon fill="#ffffff" stroke="#bfbfbf" points="314.6724,-55.5 314.6724,-73.5 387.9331,-73.5 387.9331,-55.5 314.6724,-55.5"/>
<text text-anchor="middle" x="351.3027" y="-61.5" font-family="Helvetica,sans-Serif" font-size="10.00" fill="#000000">Eigen/Dense</text>
</g>
<!-- Node1&#45;&gt;Node5 -->
<g id="edge5" class="edge">
<title>Node1&#45;&gt;Node5</title>
<path fill="none" stroke="#191970" d="M439.799,-110.4179C422.9208,-101.6603 397.154,-88.2907 377.7691,-78.2326"/>
<polygon fill="#191970" stroke="#191970" points="379.3208,-75.0946 368.8325,-73.5956 376.0968,-81.308 379.3208,-75.0946"/>
</g>
<!-- Node6 -->
<g id="node7" class="node">
<title>Node6</title>
<polygon fill="#ffffff" stroke="#bfbfbf" points="253.687,-55.5 253.687,-73.5 296.9185,-73.5 296.9185,-55.5 253.687,-55.5"/>
<text text-anchor="middle" x="275.3027" y="-61.5" font-family="Helvetica,sans-Serif" font-size="10.00" fill="#000000">vector</text>
</g>
<!-- Node1&#45;&gt;Node6 -->
<g id="edge7" class="edge">
<title>Node1&#45;&gt;Node6</title>
<path fill="none" stroke="#191970" d="M426.6903,-110.4911C397.9437,-101.9972 353.4915,-88.7761 306.6343,-74.3811"/>
<polygon fill="#191970" stroke="#191970" points="307.5072,-70.9878 296.92,-71.3904 305.4475,-77.6779 307.5072,-70.9878"/>
</g>
<!-- Node3 -->
<g id="node4" class="node">
<title>Node3</title>
<polygon fill="#ffffff" stroke="#bfbfbf" points="444.8521,-.5 444.8521,-18.5 489.7534,-18.5 489.7534,-.5 444.8521,-.5"/>
<text text-anchor="middle" x="467.3027" y="-6.5" font-family="Helvetica,sans-Serif" font-size="10.00" fill="#000000">cstdint</text>
</g>
<!-- Node2&#45;&gt;Node3 -->
<g id="edge3" class="edge">
<title>Node2&#45;&gt;Node3</title>
<path fill="none" stroke="#191970" d="M467.3027,-55.4179C467.3027,-48.2164 467.3027,-37.8962 467.3027,-28.8632"/>
<polygon fill="#191970" stroke="#191970" points="470.8028,-28.7794 467.3027,-18.7795 463.8028,-28.7795 470.8028,-28.7794"/>
</g>
<!-- Node2&#45;&gt;Node4 -->
<g id="edge4" class="edge">
<title>Node2&#45;&gt;Node4</title>
<path fill="none" stroke="#191970" d="M485.3019,-55.4179C502.6578,-46.6603 529.1538,-33.2907 549.0873,-23.2326"/>
<polygon fill="#191970" stroke="#191970" points="550.9257,-26.2253 558.2769,-18.5956 547.7723,-19.9758 550.9257,-26.2253"/>
</g>
<!-- Node7&#45;&gt;Node2 -->
<g id="edge9" class="edge">
<title>Node7&#45;&gt;Node2</title>
<path fill="none" stroke="#191970" d="M552.4595,-110.4179C536.292,-101.7001 511.649,-88.4122 493.0251,-78.3699"/>
<polygon fill="#191970" stroke="#191970" points="494.6341,-75.2611 484.171,-73.5956 491.3118,-81.4225 494.6341,-75.2611"/>
</g>
<!-- Node7&#45;&gt;Node4 -->
<g id="edge11" class="edge">
<title>Node7&#45;&gt;Node4</title>
<path fill="none" stroke="#191970" d="M569.8756,-110.4982C571.0087,-92.6913 573.5586,-52.6225 575.084,-28.6515"/>
<polygon fill="#191970" stroke="#191970" points="578.5797,-28.8283 575.722,-18.6261 571.5939,-28.3836 578.5797,-28.8283"/>
</g>
<!-- Node8 -->
<g id="node9" class="node">
<title>Node8</title>
<polygon fill="#ffffff" stroke="#bfbfbf" points="622.9111,-55.5 622.9111,-73.5 661.6943,-73.5 661.6943,-55.5 622.9111,-55.5"/>
<text text-anchor="middle" x="642.3027" y="-61.5" font-family="Helvetica,sans-Serif" font-size="10.00" fill="#000000">array</text>
</g>
<!-- Node7&#45;&gt;Node8 -->
<g id="edge10" class="edge">
<title>Node7&#45;&gt;Node8</title>
<path fill="none" stroke="#191970" d="M581.3572,-110.4179C592.3861,-102.1084 608.9259,-89.6469 621.9934,-79.8015"/>
<polygon fill="#191970" stroke="#191970" points="624.1056,-82.5924 629.9864,-73.7795 619.8934,-77.0016 624.1056,-82.5924"/>
</g>
<!-- Node9&#45;&gt;Node2 -->
<g id="edge13" class="edge">
<title>Node9&#45;&gt;Node2</title>
<path fill="none" stroke="#191970" d="M259.1412,-110.4795C302.2016,-100.9681 370.113,-85.9676 416.5784,-75.7042"/>
<polygon fill="#191970" stroke="#191970" points="417.4323,-79.1 426.442,-73.5255 415.9224,-72.2648 417.4323,-79.1"/>
</g>
<!-- Node9&#45;&gt;Node3 -->
<g id="edge15" class="edge">
<title>Node9&#45;&gt;Node3</title>
<path fill="none" stroke="#191970" d="M188.6747,-110.4861C156.611,-99.2608 112.6529,-78.6536 133.3027,-55 152.9855,-32.4541 354.4825,-16.887 434.6561,-11.5417"/>
<polygon fill="#191970" stroke="#191970" points="434.9441,-15.0305 444.6938,-10.8839 434.4863,-8.0454 434.9441,-15.0305"/>
</g>
<!-- Node9&#45;&gt;Node6 -->
<g id="edge18" class="edge">
<title>Node9&#45;&gt;Node6</title>
<path fill="none" stroke="#191970" d="M227.7151,-110.4179C235.9987,-102.425 248.2637,-90.5903 258.2672,-80.9377"/>
<polygon fill="#191970" stroke="#191970" points="260.9199,-83.2419 265.6858,-73.7795 256.0593,-78.2045 260.9199,-83.2419"/>
</g>
<!-- Node10 -->
<g id="node11" class="node">
<title>Node10</title>
<polygon fill="#ffffff" stroke="#bfbfbf" points="142.3521,-55.5 142.3521,-73.5 182.2534,-73.5 182.2534,-55.5 142.3521,-55.5"/>
<text text-anchor="middle" x="162.3027" y="-61.5" font-family="Helvetica,sans-Serif" font-size="10.00" fill="#000000">bitset</text>
</g>
<!-- Node9&#45;&gt;Node10 -->
<g id="edge14" class="edge">
<title>Node9&#45;&gt;Node10</title>
<path fill="none" stroke="#191970" d="M209.0555,-110.4179C200.9173,-102.425 188.8674,-90.5903 179.0394,-80.9377"/>
<polygon fill="#191970" stroke="#191970" points="181.3379,-78.2895 171.7509,-73.7795 176.4329,-83.2836 181.3379,-78.2895"/>
</g>
<!-- Node11 -->
<g id="node12" class="node">
<title>Node11</title>
<polygon fill="#ffffff" stroke="#bfbfbf" points="200.5762,-55.5 200.5762,-73.5 236.0293,-73.5 236.0293,-55.5 200.5762,-55.5"/>
<text text-anchor="middle" x="218.3027" y="-61.5" font-family="Helvetica,sans-Serif" font-size="10.00" fill="#000000">map</text>
</g>
<!-- Node9&#45;&gt;Node11 -->
<g id="edge16" class="edge">
<title>Node9&#45;&gt;Node11</title>
<path fill="none" stroke="#191970" d="M218.3027,-110.4179C218.3027,-103.2164 218.3027,-92.8962 218.3027,-83.8632"/>
<polygon fill="#191970" stroke="#191970" points="221.8028,-83.7794 218.3027,-73.7795 214.8028,-83.7795 221.8028,-83.7794"/>
</g>
<!-- Node12 -->
<g id="node13" class="node">
<title>Node12</title>
<polygon fill="#ffffff" stroke="#bfbfbf" points="0,-55.5 0,-73.5 86.6055,-73.5 86.6055,-55.5 0,-55.5"/>
<text text-anchor="middle" x="43.3027" y="-61.5" font-family="Helvetica,sans-Serif" font-size="10.00" fill="#000000">unordered_map</text>
</g>
<!-- Node9&#45;&gt;Node12 -->
<g id="edge17" class="edge">
<title>Node9&#45;&gt;Node12</title>
<path fill="none" stroke="#191970" d="M189.405,-110.4179C159.9322,-101.155 114.0424,-86.7325 81.5673,-76.526"/>
<polygon fill="#191970" stroke="#191970" points="82.5419,-73.1636 71.9525,-73.5042 80.443,-79.8415 82.5419,-73.1636"/>
</g>
<!-- Node13&#45;&gt;Node2 -->
<g id="edge26" class="edge">
<title>Node13&#45;&gt;Node2</title>
<path fill="none" stroke="#191970" d="M660.4165,-110.4795C620.7201,-101.0279 558.2583,-86.1561 515.1759,-75.8984"/>
<polygon fill="#191970" stroke="#191970" points="515.7485,-72.4369 505.2097,-73.5255 514.1271,-79.2466 515.7485,-72.4369"/>
</g>
<!-- Node13&#45;&gt;Node3 -->
<g id="edge29" class="edge">
<title>Node13&#45;&gt;Node3</title>
<path fill="none" stroke="#191970" d="M697.0121,-110.4602C694.5052,-96.3717 687.614,-69.3128 670.3027,-55 657.2222,-44.1851 553.9076,-24.7217 499.9203,-15.1407"/>
<polygon fill="#191970" stroke="#191970" points="500.2775,-11.6498 489.8219,-13.3618 499.0631,-18.5437 500.2775,-11.6498"/>
</g>
<!-- Node13&#45;&gt;Node8 -->
<g id="edge28" class="edge">
<title>Node13&#45;&gt;Node8</title>
<path fill="none" stroke="#191970" d="M689.0555,-110.4179C680.9173,-102.425 668.8674,-90.5903 659.0394,-80.9377"/>
<polygon fill="#191970" stroke="#191970" points="661.3379,-78.2895 651.7509,-73.7795 656.4329,-83.2836 661.3379,-78.2895"/>
</g>
<!-- Node14 -->
<g id="node15" class="node">
<title>Node14</title>
<g id="a_node15"><a xlink:href="common_8hpp.html" target="_top" xlink:title="../utils/common.hpp">
<polygon fill="#ffffff" stroke="#000000" points="846.9507,-55.5 846.9507,-73.5 949.6548,-73.5 949.6548,-55.5 846.9507,-55.5"/>
<text text-anchor="middle" x="898.3027" y="-61.5" font-family="Helvetica,sans-Serif" font-size="10.00" fill="#000000">../utils/common.hpp</text>
</a>
</g>
</g>
<!-- Node13&#45;&gt;Node14 -->
<g id="edge20" class="edge">
<title>Node13&#45;&gt;Node14</title>
<path fill="none" stroke="#191970" d="M731.3287,-110.4179C765.3023,-101.0751 818.3631,-86.4834 855.5282,-76.263"/>
<polygon fill="#191970" stroke="#191970" points="856.8462,-79.5306 865.5602,-73.5042 854.99,-72.7811 856.8462,-79.5306"/>
</g>
<!-- Node19 -->
<g id="node20" class="node">
<title>Node19</title>
<polygon fill="#ffffff" stroke="#bfbfbf" points="717.7808,-55.5 717.7808,-73.5 828.8247,-73.5 828.8247,-55.5 717.7808,-55.5"/>
<text text-anchor="middle" x="773.3027" y="-61.5" font-family="Helvetica,sans-Serif" font-size="10.00" fill="#000000">EASTL/vector_map.h</text>
</g>
<!-- Node13&#45;&gt;Node19 -->
<g id="edge27" class="edge">
<title>Node13&#45;&gt;Node19</title>
<path fill="none" stroke="#191970" d="M710.6875,-110.4179C722.0868,-102.0584 739.2164,-89.4966 752.6792,-79.6239"/>
<polygon fill="#191970" stroke="#191970" points="754.9053,-82.3317 760.8996,-73.5956 750.7658,-76.6869 754.9053,-82.3317"/>
</g>
<!-- Node20 -->
<g id="node21" class="node">
<title>Node20</title>
<polygon fill="#ffffff" stroke="#bfbfbf" points="968.1304,-55.5 968.1304,-73.5 1022.4751,-73.5 1022.4751,-55.5 968.1304,-55.5"/>
<text text-anchor="middle" x="995.3027" y="-61.5" font-family="Helvetica,sans-Serif" font-size="10.00" fill="#000000">iostream</text>
</g>
<!-- Node13&#45;&gt;Node20 -->
<g id="edge30" class="edge">
<title>Node13&#45;&gt;Node20</title>
<path fill="none" stroke="#191970" d="M757.6755,-110.4633C808.2689,-102.4552 883.1075,-89.886 957.8199,-73.9603"/>
<polygon fill="#191970" stroke="#191970" points="958.8406,-77.3208 967.8803,-71.795 957.3677,-70.4775 958.8406,-77.3208"/>
</g>
<!-- Node14&#45;&gt;Node4 -->
<g id="edge23" class="edge">
<title>Node14&#45;&gt;Node4</title>
<path fill="none" stroke="#191970" d="M846.9248,-55.7243C781.4006,-44.5322 669.743,-25.4603 612.4944,-15.6818"/>
<polygon fill="#191970" stroke="#191970" points="612.908,-12.2018 602.4614,-13.9681 611.7294,-19.1019 612.908,-12.2018"/>
</g>
<!-- Node15 -->
<g id="node16" class="node">
<title>Node15</title>
<polygon fill="#ffffff" stroke="#bfbfbf" points="908.7388,-.5 908.7388,-18.5 965.8667,-18.5 965.8667,-.5 908.7388,-.5"/>
<text text-anchor="middle" x="937.3027" y="-6.5" font-family="Helvetica,sans-Serif" font-size="10.00" fill="#000000">algorithm</text>
</g>
<!-- Node14&#45;&gt;Node15 -->
<g id="edge21" class="edge">
<title>Node14&#45;&gt;Node15</title>
<path fill="none" stroke="#191970" d="M904.7428,-55.4179C910.186,-47.7415 918.1419,-36.5217 924.8266,-27.0945"/>
<polygon fill="#191970" stroke="#191970" points="927.7935,-28.9613 930.7228,-18.7795 922.0834,-24.9123 927.7935,-28.9613"/>
</g>
<!-- Node16 -->
<g id="node17" class="node">
<title>Node16</title>
<polygon fill="#ffffff" stroke="#bfbfbf" points="983.7412,-.5 983.7412,-18.5 1030.8643,-18.5 1030.8643,-.5 983.7412,-.5"/>
<text text-anchor="middle" x="1007.3027" y="-6.5" font-family="Helvetica,sans-Serif" font-size="10.00" fill="#000000">iterator</text>
</g>
<!-- Node14&#45;&gt;Node16 -->
<g id="edge22" class="edge">
<title>Node14&#45;&gt;Node16</title>
<path fill="none" stroke="#191970" d="M916.3019,-55.4179C933.6578,-46.6603 960.1538,-33.2907 980.0873,-23.2326"/>
<polygon fill="#191970" stroke="#191970" points="981.9257,-26.2253 989.2769,-18.5956 978.7723,-19.9758 981.9257,-26.2253"/>
</g>
<!-- Node17 -->
<g id="node18" class="node">
<title>Node17</title>
<polygon fill="#ffffff" stroke="#bfbfbf" points="770.0762,-.5 770.0762,-18.5 810.5293,-18.5 810.5293,-.5 770.0762,-.5"/>
<text text-anchor="middle" x="790.3027" y="-6.5" font-family="Helvetica,sans-Serif" font-size="10.00" fill="#000000">string</text>
</g>
<!-- Node14&#45;&gt;Node17 -->
<g id="edge24" class="edge">
<title>Node14&#45;&gt;Node17</title>
<path fill="none" stroke="#191970" d="M880.4687,-55.4179C863.2721,-46.6603 837.0191,-33.2907 817.2685,-23.2326"/>
<polygon fill="#191970" stroke="#191970" points="818.6626,-20.0148 808.1632,-18.5956 815.4859,-26.2526 818.6626,-20.0148"/>
</g>
<!-- Node18 -->
<g id="node19" class="node">
<title>Node18</title>
<polygon fill="#ffffff" stroke="#bfbfbf" points="828.2363,-.5 828.2363,-18.5 890.3691,-18.5 890.3691,-.5 828.2363,-.5"/>
<text text-anchor="middle" x="859.3027" y="-6.5" font-family="Helvetica,sans-Serif" font-size="10.00" fill="#000000">type_traits</text>
</g>
<!-- Node14&#45;&gt;Node18 -->
<g id="edge25" class="edge">
<title>Node14&#45;&gt;Node18</title>
<path fill="none" stroke="#191970" d="M891.8627,-55.4179C886.4195,-47.7415 878.4636,-36.5217 871.7788,-27.0945"/>
<polygon fill="#191970" stroke="#191970" points="874.5221,-24.9123 865.8827,-18.7795 868.812,-28.9613 874.5221,-24.9123"/>
</g>
</g>
</svg>
        <g id="navigator" transform="translate(0 0)" fill="#404254">
                <rect fill="#f2f5e9" fill-opacity="0.5" stroke="#606060" stroke-width=".5" x="0" y="0" width="60" height="60"/>
                <use id="zoomplus" xlink:href="#zoomPlus" x="17" y="9" onmousedown="handleZoom(evt,'in')"/>
                <use id="zoomminus" xlink:href="#zoomMin" x="42" y="9" onmousedown="handleZoom(evt,'out')"/>
                <use id="reset" xlink:href="#resetDef" x="30" y="36" onmousedown="handleReset()"/>
                <g id="arrowUp" xlink:href="#dirArrow" transform="translate(30 24)" onmousedown="handlePan(0,-1)">
                  <use xlink:href="#rim" fill="#404040">
                        <set attributeName="fill" to="#808080" begin="arrowUp.mouseover" end="arrowUp.mouseout"/>
                  </use>
                  <path fill="none" stroke="white" stroke-width="1.5" d="M0,-3.0v7 M-2.5,-0.5L0,-3.0L2.5,-0.5"/>
                </g>
                <g id="arrowRight" xlink:href="#dirArrow" transform="rotate(90) translate(36 -43)" onmousedown="handlePan(1,0)">
                  <use xlink:href="#rim" fill="#404040">
                        <set attributeName="fill" to="#808080" begin="arrowRight.mouseover" end="arrowRight.mouseout"/>
                  </use>
                  <path fill="none" stroke="white" stroke-width="1.5" d="M0,-3.0v7 M-2.5,-0.5L0,-3.0L2.5,-0.5"/>
                </g>
                <g id="arrowDown" xlink:href="#dirArrow" transform="rotate(180) translate(-30 -48)" onmousedown="handlePan(0,1)">
                  <use xlink:href="#rim" fill="#404040">
                        <set attributeName="fill" to="#808080" begin="arrowDown.mouseover" end="arrowDown.mouseout"/>
                  </use>
                  <path fill="none" stroke="white" stroke-width="1.5" d="M0,-3.0v7 M-2.5,-0.5L0,-3.0L2.5,-0.5"/>
                </g>
                <g id="arrowLeft" xlink:href="#dirArrow" transform="rotate(270) translate(-36 17)" onmousedown="handlePan(-1,0)">
                  <use xlink:href="#rim" fill="#404040">
                        <set attributeName="fill" to="#808080" begin="arrowLeft.mouseover" end="arrowLeft.mouseout"/>
                  </use>
                  <path fill="none" stroke="white" stroke-width="1.5" d="M0,-3.0v7 M-2.5,-0.5L0,-3.0L2.5,-0.5"/>
                </g>
        </g>
        <svg viewBox="0 0 15 15" width="100%" height="30px" preserveAspectRatio="xMaxYMin meet">
         <g id="arrow_out" transform="scale(0.3 0.3)">
          <a xlink:href="indigox_8hpp__incl_org.svg" target="_base">
           <rect id="button" ry="5" rx="5" y="6" x="6" height="38" width="38"
                fill="#f2f5e9" fill-opacity="0.5" stroke="#606060" stroke-width="1.0"/>
           <path id="arrow"
             d="M 11.500037,31.436501 C 11.940474,20.09759 22.043105,11.32322 32.158766,21.979434 L 37.068811,17.246167 C 37.068811,17.246167 37.088388,32 37.088388,32 L 22.160133,31.978069 C 22.160133,31.978069 26.997745,27.140456 26.997745,27.140456 C 18.528582,18.264221 13.291696,25.230495 11.500037,31.436501 z"
             style="fill:#404040;"/>
          </a>
         </g>
        </svg>
</svg>
