<?xml version="1.0" encoding="UTF-8" standalone="no"?>
<!DOCTYPE svg PUBLIC "-//W3C//DTD SVG 1.1//EN"
 "http://www.w3.org/Graphics/SVG/1.1/DTD/svg11.dtd">
<!-- Generated by graphviz version 2.40.1 (20161225.0304)
 -->
<!-- Title: Graphical Class Hierarchy Pages: 1 -->
<svg width="403pt" height="67pt"
 viewBox="0.00 0.00 403.12 67.00" xmlns="http://www.w3.org/2000/svg" xmlns:xlink="http://www.w3.org/1999/xlink">
<g id="graph0" class="graph" transform="scale(1 1) rotate(0) translate(4 63)">
<title>Graphical Class Hierarchy</title>
<polygon fill="#ffffff" stroke="transparent" points="-4,4 -4,-63 399.1221,-63 399.1221,4 -4,4"/>
<!-- Node0 -->
<g id="node1" class="node">
<title>Node0</title>
<g id="a_node1"><a xlink:href="structindigox_1_1algorithm_1_1_mapping_callback.html" target="_top" xlink:title=" ">
<polygon fill="#ffffff" stroke="#000000" points="0,-.5 0,-58.5 161.6445,-58.5 161.6445,-.5 0,-.5"/>
<text text-anchor="start" x="8" y="-46.5" font-family="Helvetica,sans-Serif" font-size="10.00" fill="#000000">MappingCallback&lt; graph</text>
<text text-anchor="start" x="8" y="-36.5" font-family="Helvetica,sans-Serif" font-size="10.00" fill="#000000">::MGVertex, graph::MGEdge,</text>
<text text-anchor="start" x="8" y="-26.5" font-family="Helvetica,sans-Serif" font-size="10.00" fill="#000000"> graph::MolecularGraph, graph</text>
<text text-anchor="start" x="8" y="-16.5" font-family="Helvetica,sans-Serif" font-size="10.00" fill="#000000">::Undirected, graph::GraphLabel,</text>
<text text-anchor="middle" x="80.8223" y="-6.5" font-family="Helvetica,sans-Serif" font-size="10.00" fill="#000000"> graph::GraphLabel &gt;</text>
</a>
</g>
</g>
<!-- Node1 -->
<g id="node2" class="node">
<title>Node1</title>
<g id="a_node2"><a xlink:href="structindigox_1_1algorithm_1_1_m_g_callback.html" target="_top" xlink:title=" ">
<polygon fill="#ffffff" stroke="#000000" points="197.6445,-20.5 197.6445,-38.5 268.1025,-38.5 268.1025,-20.5 197.6445,-20.5"/>
<text text-anchor="middle" x="232.8735" y="-26.5" font-family="Helvetica,sans-Serif" font-size="10.00" fill="#000000">MGCallback</text>
</a>
</g>
</g>
<!-- Node0&#45;&gt;Node1 -->
<g id="edge1" class="edge">
<title>Node0&#45;&gt;Node1</title>
<path fill="none" stroke="#191970" d="M171.9171,-29.5C180.8425,-29.5 189.4793,-29.5 197.3083,-29.5"/>
<polygon fill="#191970" stroke="#191970" points="171.745,-26.0001 161.745,-29.5 171.7449,-33.0001 171.745,-26.0001"/>
</g>
<!-- Node2 -->
<g id="node3" class="node">
<title>Node2</title>
<g id="a_node3"><a xlink:href="structindigox_1_1algorithm_1_1_m_g_print_callback.html" target="_top" xlink:title=" ">
<polygon fill="#ffffff" stroke="#000000" points="304.1025,-20.5 304.1025,-38.5 395.1221,-38.5 395.1221,-20.5 304.1025,-20.5"/>
<text text-anchor="middle" x="349.6123" y="-26.5" font-family="Helvetica,sans-Serif" font-size="10.00" fill="#000000">MGPrintCallback</text>
</a>
</g>
</g>
<!-- Node1&#45;&gt;Node2 -->
<g id="edge2" class="edge">
<title>Node1&#45;&gt;Node2</title>
<path fill="none" stroke="#191970" d="M278.2838,-29.5C286.7347,-29.5 295.5673,-29.5 304.0235,-29.5"/>
<polygon fill="#191970" stroke="#191970" points="278.2159,-26.0001 268.2158,-29.5 278.2158,-33.0001 278.2159,-26.0001"/>
</g>
</g>
</svg>
