<?xml version="1.0" encoding="UTF-8" standalone="no"?>
<!DOCTYPE svg PUBLIC "-//W3C//DTD SVG 1.1//EN"
 "http://www.w3.org/Graphics/SVG/1.1/DTD/svg11.dtd">
<!-- Generated by graphviz version 2.40.1 (20161225.0304)
 -->
<!-- Title: Graphical Class Hierarchy Pages: 1 -->
<svg width="446pt" height="67pt"
 viewBox="0.00 0.00 445.92 67.00" xmlns="http://www.w3.org/2000/svg" xmlns:xlink="http://www.w3.org/1999/xlink">
<g id="graph0" class="graph" transform="scale(1 1) rotate(0) translate(4 63)">
<title>Graphical Class Hierarchy</title>
<polygon fill="#ffffff" stroke="transparent" points="-4,4 -4,-63 441.9199,-63 441.9199,4 -4,4"/>
<!-- Node0 -->
<g id="node1" class="node">
<title>Node0</title>
<g id="a_node1"><a xlink:href="structindigox_1_1algorithm_1_1_mapping_callback.html" target="_top" xlink:title=" ">
<polygon fill="#ffffff" stroke="#000000" points="0,-.5 0,-58.5 189.999,-58.5 189.999,-.5 0,-.5"/>
<text text-anchor="start" x="8" y="-46.5" font-family="Helvetica,sans-Serif" font-size="10.00" fill="#000000">MappingCallback&lt; graph</text>
<text text-anchor="start" x="8" y="-36.5" font-family="Helvetica,sans-Serif" font-size="10.00" fill="#000000">::CMGVertex, graph::CMGEdge,</text>
<text text-anchor="start" x="8" y="-26.5" font-family="Helvetica,sans-Serif" font-size="10.00" fill="#000000"> graph::CondensedMolecularGraph,</text>
<text text-anchor="start" x="8" y="-16.5" font-family="Helvetica,sans-Serif" font-size="10.00" fill="#000000"> graph::Undirected, graph::GraphLabel,</text>
<text text-anchor="middle" x="94.9995" y="-6.5" font-family="Helvetica,sans-Serif" font-size="10.00" fill="#000000"> graph::GraphLabel &gt;</text>
</a>
</g>
</g>
<!-- Node1 -->
<g id="node2" class="node">
<title>Node1</title>
<g id="a_node2"><a xlink:href="structindigox_1_1algorithm_1_1_c_m_g_callback.html" target="_top" xlink:title=" ">
<polygon fill="#ffffff" stroke="#000000" points="225.999,-20.5 225.999,-38.5 303.6787,-38.5 303.6787,-20.5 225.999,-20.5"/>
<text text-anchor="middle" x="264.8389" y="-26.5" font-family="Helvetica,sans-Serif" font-size="10.00" fill="#000000">CMGCallback</text>
</a>
</g>
</g>
<!-- Node0&#45;&gt;Node1 -->
<g id="edge1" class="edge">
<title>Node0&#45;&gt;Node1</title>
<path fill="none" stroke="#191970" d="M200.5493,-29.5C209.4857,-29.5 218.0977,-29.5 225.9558,-29.5"/>
<polygon fill="#191970" stroke="#191970" points="200.3449,-26.0001 190.3449,-29.5 200.3448,-33.0001 200.3449,-26.0001"/>
</g>
<!-- Node2 -->
<g id="node3" class="node">
<title>Node2</title>
<g id="a_node3"><a xlink:href="structindigox_1_1algorithm_1_1_c_m_g_print_callback.html" target="_top" xlink:title=" ">
<polygon fill="#ffffff" stroke="#000000" points="339.6787,-20.5 339.6787,-38.5 437.9199,-38.5 437.9199,-20.5 339.6787,-20.5"/>
<text text-anchor="middle" x="388.7993" y="-26.5" font-family="Helvetica,sans-Serif" font-size="10.00" fill="#000000">CMGPrintCallback</text>
</a>
</g>
</g>
<!-- Node1&#45;&gt;Node2 -->
<g id="edge2" class="edge">
<title>Node1&#45;&gt;Node2</title>
<path fill="none" stroke="#191970" d="M313.8301,-29.5C322.2925,-29.5 331.0931,-29.5 339.562,-29.5"/>
<polygon fill="#191970" stroke="#191970" points="313.7207,-26.0001 303.7206,-29.5 313.7206,-33.0001 313.7207,-26.0001"/>
</g>
</g>
</svg>
