<?xml version="1.0" encoding="UTF-8" standalone="no"?>
<!DOCTYPE svg PUBLIC "-//W3C//DTD SVG 1.1//EN"
 "http://www.w3.org/Graphics/SVG/1.1/DTD/svg11.dtd">
<!-- Generated by graphviz version 2.40.1 (20161225.0304)
 -->
<!-- Title: Graphical Class Hierarchy Pages: 1 -->
<svg width="251pt" height="64pt"
 viewBox="0.00 0.00 251.07 64.00" xmlns="http://www.w3.org/2000/svg" xmlns:xlink="http://www.w3.org/1999/xlink">
<g id="graph0" class="graph" transform="scale(1 1) rotate(0) translate(4 60)">
<title>Graphical Class Hierarchy</title>
<polygon fill="#ffffff" stroke="transparent" points="-4,4 -4,-60 247.0732,-60 247.0732,4 -4,4"/>
<!-- Node0 -->
<g id="node1" class="node">
<title>Node0</title>
<g id="a_node1"><a xlink:href="classindigox_1_1algorithm_1_1_i_x_electron_assigner_1_1_assign_algorithm.html" target="_top" xlink:title="Base class for an electron assignment algorithm. ">
<polygon fill="#ffffff" stroke="#000000" points="0,-13.5 0,-41.5 101.0391,-41.5 101.0391,-13.5 0,-13.5"/>
<text text-anchor="start" x="8" y="-29.5" font-family="Helvetica,sans-Serif" font-size="10.00" fill="#000000">IXElectronAssigner</text>
<text text-anchor="middle" x="50.5195" y="-19.5" font-family="Helvetica,sans-Serif" font-size="10.00" fill="#000000">::AssignAlgorithm</text>
</a>
</g>
</g>
<!-- Node1 -->
<g id="node2" class="node">
<title>Node1</title>
<g id="a_node2"><a xlink:href="classindigox_1_1algorithm_1_1_i_x_a_star_optimisation.html" target="_top" xlink:title="IXAStarOptimisation">
<polygon fill="#ffffff" stroke="#000000" points="137.0391,-37.5 137.0391,-55.5 243.0732,-55.5 243.0732,-37.5 137.0391,-37.5"/>
<text text-anchor="middle" x="190.0562" y="-43.5" font-family="Helvetica,sans-Serif" font-size="10.00" fill="#000000">IXAStarOptimisation</text>
</a>
</g>
</g>
<!-- Node0&#45;&gt;Node1 -->
<g id="edge1" class="edge">
<title>Node0&#45;&gt;Node1</title>
<path fill="none" stroke="#191970" d="M111.4454,-35.796C119.8696,-36.943 128.4685,-38.1139 136.7403,-39.2403"/>
<polygon fill="#191970" stroke="#191970" points="111.671,-32.2945 101.2902,-34.4132 110.7265,-39.2305 111.671,-32.2945"/>
</g>
<!-- Node2 -->
<g id="node3" class="node">
<title>Node2</title>
<g id="a_node3"><a xlink:href="classindigox_1_1algorithm_1_1_i_x_local_optimisation.html" target="_top" xlink:title="Local optimisation electron assignment algorithm. ">
<polygon fill="#ffffff" stroke="#000000" points="137.5908,-.5 137.5908,-18.5 242.5215,-18.5 242.5215,-.5 137.5908,-.5"/>
<text text-anchor="middle" x="190.0562" y="-6.5" font-family="Helvetica,sans-Serif" font-size="10.00" fill="#000000">IXLocalOptimisation</text>
</a>
</g>
</g>
<!-- Node0&#45;&gt;Node2 -->
<g id="edge2" class="edge">
<title>Node0&#45;&gt;Node2</title>
<path fill="none" stroke="#191970" d="M111.3028,-19.6591C119.9326,-18.5458 128.7489,-17.4085 137.2116,-16.3169"/>
<polygon fill="#191970" stroke="#191970" points="110.7602,-16.2 101.2902,-20.9507 111.6558,-23.1424 110.7602,-16.2"/>
</g>
</g>
</svg>
