<?xml version="1.0" encoding="UTF-8" standalone="no"?>
<!DOCTYPE svg PUBLIC "-//W3C//DTD SVG 1.1//EN"
 "http://www.w3.org/Graphics/SVG/1.1/DTD/svg11.dtd">
<!-- Generated by graphviz version 2.40.1 (20161225.0304)
 -->
<!-- Title: include/indigox/python/interface.hpp Pages: 1 -->
<!--zoomable 202 -->
<svg id="main" version="1.1" xmlns="http://www.w3.org/2000/svg" xmlns:xlink="http://www.w3.org/1999/xlink" xml:space="preserve" onload="init(evt)">
<style type="text/css"><![CDATA[
.edge:hover path { stroke: red; }
.edge:hover polygon { stroke: red; fill: red; }
]]></style>
<script type="text/javascript"><![CDATA[
var edges = document.getElementsByTagName('g');
if (edges && edges.length) {
  for (var i=0;i<edges.length;i++) {
    if (edges[i].id.substr(0,4)=='edge') {
      edges[i].setAttribute('class','edge');
    }
  }
}
]]></script>
        <defs>
                <circle id="rim" cx="0" cy="0" r="7"/>
                <circle id="rim2" cx="0" cy="0" r="3.5"/>
                <g id="zoomPlus">
                        <use xlink:href="#rim" fill="#404040">
                                <set attributeName="fill" to="#808080" begin="zoomplus.mouseover" end="zoomplus.mouseout"/>
                        </use>
                        <path d="M-4,0h8M0,-4v8" fill="none" stroke="white" stroke-width="1.5" pointer-events="none"/>
                </g>
                <g id="zoomMin">
                        <use xlink:href="#rim" fill="#404040">
                                <set attributeName="fill" to="#808080" begin="zoomminus.mouseover" end="zoomminus.mouseout"/>
                        </use>
                        <path d="M-4,0h8" fill="none" stroke="white" stroke-width="1.5" pointer-events="none"/>
                </g>
                <g id="dirArrow">
                        <path fill="none" stroke="white" stroke-width="1.5" d="M0,-3.0v7 M-2.5,-0.5L0,-3.0L2.5,-0.5"/>
                </g>
               <g id="resetDef">
                       <use xlink:href="#rim2" fill="#404040">
                               <set attributeName="fill" to="#808080" begin="reset.mouseover" end="reset.mouseout"/>
                       </use>
               </g>
        </defs>

<script type="text/javascript">
var viewWidth = 757;
var viewHeight = 202;
var sectionId = 'dynsection-0';
</script>
<script xlink:href="svgpan.js"/>
<svg id="graph" class="graph">
<g id="viewport">
<title>include/indigox/python/interface.hpp</title>
<polygon fill="#ffffff" stroke="transparent" points="-4,4 -4,-198 753.3599,-198 753.3599,4 -4,4"/>
<!-- Node0 -->
<g id="node1" class="node">
<title>Node0</title>
<polygon fill="#bfbfbf" stroke="#000000" points="246.2397,-165.5 246.2397,-193.5 361.1997,-193.5 361.1997,-165.5 246.2397,-165.5"/>
<text text-anchor="start" x="254.2397" y="-181.5" font-family="Helvetica,sans-Serif" font-size="10.00" fill="#000000">include/indigox/python</text>
<text text-anchor="middle" x="303.7197" y="-171.5" font-family="Helvetica,sans-Serif" font-size="10.00" fill="#000000">/interface.hpp</text>
</g>
<!-- Node1 -->
<g id="node2" class="node">
<title>Node1</title>
<polygon fill="#ffffff" stroke="#bfbfbf" points="0,-110.5 0,-128.5 91.4395,-128.5 91.4395,-110.5 0,-110.5"/>
<text text-anchor="middle" x="45.7197" y="-116.5" font-family="Helvetica,sans-Serif" font-size="10.00" fill="#000000">pybind11/eigen.h</text>
</g>
<!-- Node0&#45;&gt;Node1 -->
<g id="edge1" class="edge">
<title>Node0&#45;&gt;Node1</title>
<path fill="none" stroke="#191970" d="M246.1406,-166.1095C200.6314,-155.526 137.805,-140.9152 94.6919,-130.8889"/>
<polygon fill="#191970" stroke="#191970" points="95.255,-127.4265 84.7221,-128.5703 93.6694,-134.2446 95.255,-127.4265"/>
</g>
<!-- Node2 -->
<g id="node3" class="node">
<title>Node2</title>
<polygon fill="#ffffff" stroke="#bfbfbf" points="109.1108,-110.5 109.1108,-128.5 218.3286,-128.5 218.3286,-110.5 109.1108,-110.5"/>
<text text-anchor="middle" x="163.7197" y="-116.5" font-family="Helvetica,sans-Serif" font-size="10.00" fill="#000000">pybind11/operators.h</text>
</g>
<!-- Node0&#45;&gt;Node2 -->
<g id="edge2" class="edge">
<title>Node0&#45;&gt;Node2</title>
<path fill="none" stroke="#191970" d="M270.8959,-165.4327C247.8042,-155.5362 217.1088,-142.381 194.4871,-132.686"/>
<polygon fill="#191970" stroke="#191970" points="195.5957,-129.3533 185.0255,-128.6311 192.8383,-135.7873 195.5957,-129.3533"/>
</g>
<!-- Node3 -->
<g id="node4" class="node">
<title>Node3</title>
<polygon fill="#ffffff" stroke="#bfbfbf" points="58.3071,-55.5 58.3071,-73.5 165.1323,-73.5 165.1323,-55.5 58.3071,-55.5"/>
<text text-anchor="middle" x="111.7197" y="-61.5" font-family="Helvetica,sans-Serif" font-size="10.00" fill="#000000">pybind11/pybind11.h</text>
</g>
<!-- Node0&#45;&gt;Node3 -->
<g id="edge3" class="edge">
<title>Node0&#45;&gt;Node3</title>
<path fill="none" stroke="#191970" d="M291.2285,-165.3123C277.092,-149.9642 252.7575,-125.6026 227.7197,-110 204.6899,-95.6486 176.3783,-84.4372 153.4903,-76.7343"/>
<polygon fill="#191970" stroke="#191970" points="154.3127,-73.3211 143.7202,-73.5463 152.1412,-79.9758 154.3127,-73.3211"/>
</g>
<!-- Node4 -->
<g id="node5" class="node">
<title>Node4</title>
<polygon fill="#ffffff" stroke="#bfbfbf" points="183.2339,-55.5 183.2339,-73.5 260.2056,-73.5 260.2056,-55.5 183.2339,-55.5"/>
<text text-anchor="middle" x="221.7197" y="-61.5" font-family="Helvetica,sans-Serif" font-size="10.00" fill="#000000">pybind11/stl.h</text>
</g>
<!-- Node0&#45;&gt;Node4 -->
<g id="edge4" class="edge">
<title>Node0&#45;&gt;Node4</title>
<path fill="none" stroke="#191970" d="M295.7671,-165.2409C287.5661,-150.8927 274.119,-128.3257 260.7197,-110 253.4429,-100.0478 244.5464,-89.56 237.0889,-81.1648"/>
<polygon fill="#191970" stroke="#191970" points="239.5245,-78.6397 230.2243,-73.5646 234.3297,-83.3317 239.5245,-78.6397"/>
</g>
<!-- Node5 -->
<g id="node6" class="node">
<title>Node5</title>
<polygon fill="#ffffff" stroke="#bfbfbf" points="278,-55.5 278,-73.5 379.4395,-73.5 379.4395,-55.5 278,-55.5"/>
<text text-anchor="middle" x="328.7197" y="-61.5" font-family="Helvetica,sans-Serif" font-size="10.00" fill="#000000">pybind11/stl_bind.h</text>
</g>
<!-- Node0&#45;&gt;Node5 -->
<g id="edge5" class="edge">
<title>Node0&#45;&gt;Node5</title>
<path fill="none" stroke="#191970" d="M306.7852,-165.3987C311.2448,-144.8847 319.5347,-106.7512 324.5472,-83.6935"/>
<polygon fill="#191970" stroke="#191970" points="328.0092,-84.2439 326.7135,-73.7286 321.169,-82.7569 328.0092,-84.2439"/>
</g>
<!-- Node6 -->
<g id="node7" class="node">
<title>Node6</title>
<polygon fill="#ffffff" stroke="#bfbfbf" points="520.939,-110.5 520.939,-128.5 572.5005,-128.5 572.5005,-110.5 520.939,-110.5"/>
<text text-anchor="middle" x="546.7197" y="-116.5" font-family="Helvetica,sans-Serif" font-size="10.00" fill="#000000">sstream</text>
</g>
<!-- Node0&#45;&gt;Node6 -->
<g id="edge6" class="edge">
<title>Node0&#45;&gt;Node6</title>
<path fill="none" stroke="#191970" d="M360.6924,-165.4327C407.2784,-153.93 471.6938,-138.0249 511.2109,-128.2676"/>
<polygon fill="#191970" stroke="#191970" points="512.067,-131.6614 520.9365,-125.8662 510.389,-124.8655 512.067,-131.6614"/>
</g>
<!-- Node7 -->
<g id="node8" class="node">
<title>Node7</title>
<g id="a_node8"><a xlink:href="fwd__declares_8hpp.html" target="_top" xlink:title="../utils/fwd_declares.hpp">
<polygon fill="#ffffff" stroke="#000000" points="626.0796,-55.5 626.0796,-73.5 749.3599,-73.5 749.3599,-55.5 626.0796,-55.5"/>
<text text-anchor="middle" x="687.7197" y="-61.5" font-family="Helvetica,sans-Serif" font-size="10.00" fill="#000000">../utils/fwd_declares.hpp</text>
</a>
</g>
</g>
<!-- Node0&#45;&gt;Node7 -->
<g id="edge7" class="edge">
<title>Node0&#45;&gt;Node7</title>
<path fill="none" stroke="#191970" d="M360.0615,-165.4241C393.5695,-156.3993 436.6368,-143.6483 473.7197,-129 491.2816,-122.0628 494.0366,-116.622 511.7197,-110 550.9942,-95.2925 596.9169,-83.5941 632.0041,-75.7437"/>
<polygon fill="#191970" stroke="#191970" points="633.0462,-79.0983 642.0611,-73.5322 631.5428,-72.2616 633.0462,-79.0983"/>
</g>
<!-- Node10 -->
<g id="node11" class="node">
<title>Node10</title>
<g id="a_node11"><a xlink:href="opaquecontainers_8hpp.html" target="_top" xlink:title="opaquecontainers.hpp">
<polygon fill="#ffffff" stroke="#000000" points="350.2349,-110.5 350.2349,-128.5 465.2046,-128.5 465.2046,-110.5 350.2349,-110.5"/>
<text text-anchor="middle" x="407.7197" y="-116.5" font-family="Helvetica,sans-Serif" font-size="10.00" fill="#000000">opaquecontainers.hpp</text>
</a>
</g>
</g>
<!-- Node0&#45;&gt;Node10 -->
<g id="edge10" class="edge">
<title>Node0&#45;&gt;Node10</title>
<path fill="none" stroke="#191970" d="M328.1031,-165.4327C344.5647,-155.9356 366.228,-143.4376 382.8008,-133.8763"/>
<polygon fill="#191970" stroke="#191970" points="384.9797,-136.66 391.8926,-128.6311 381.4816,-130.5967 384.9797,-136.66"/>
</g>
<!-- Node8 -->
<g id="node9" class="node">
<title>Node8</title>
<polygon fill="#ffffff" stroke="#bfbfbf" points="492.269,-.5 492.269,-18.5 537.1704,-18.5 537.1704,-.5 492.269,-.5"/>
<text text-anchor="middle" x="514.7197" y="-6.5" font-family="Helvetica,sans-Serif" font-size="10.00" fill="#000000">cstdint</text>
</g>
<!-- Node7&#45;&gt;Node8 -->
<g id="edge8" class="edge">
<title>Node7&#45;&gt;Node8</title>
<path fill="none" stroke="#191970" d="M659.1523,-55.4179C628.3233,-45.6167 579.3241,-30.039 547.0908,-19.7914"/>
<polygon fill="#191970" stroke="#191970" points="547.8492,-16.3599 537.2588,-16.6656 545.7283,-23.0309 547.8492,-16.3599"/>
</g>
<!-- Node9 -->
<g id="node10" class="node">
<title>Node9</title>
<polygon fill="#ffffff" stroke="#bfbfbf" points="661.6631,-.5 661.6631,-18.5 713.7764,-18.5 713.7764,-.5 661.6631,-.5"/>
<text text-anchor="middle" x="687.7197" y="-6.5" font-family="Helvetica,sans-Serif" font-size="10.00" fill="#000000">memory</text>
</g>
<!-- Node7&#45;&gt;Node9 -->
<g id="edge9" class="edge">
<title>Node7&#45;&gt;Node9</title>
<path fill="none" stroke="#191970" d="M687.7197,-55.4179C687.7197,-48.2164 687.7197,-37.8962 687.7197,-28.8632"/>
<polygon fill="#191970" stroke="#191970" points="691.2198,-28.7794 687.7197,-18.7795 684.2198,-28.7795 691.2198,-28.7794"/>
</g>
<!-- Node10&#45;&gt;Node3 -->
<g id="edge14" class="edge">
<title>Node10&#45;&gt;Node3</title>
<path fill="none" stroke="#191970" d="M359.1728,-110.4795C307.448,-100.8684 225.5588,-85.6525 170.29,-75.383"/>
<polygon fill="#191970" stroke="#191970" points="170.7643,-71.9113 160.2932,-73.5255 169.4855,-78.7935 170.7643,-71.9113"/>
</g>
<!-- Node10&#45;&gt;Node4 -->
<g id="edge15" class="edge">
<title>Node10&#45;&gt;Node4</title>
<path fill="none" stroke="#191970" d="M377.0056,-110.4179C345.5452,-101.115 296.4851,-86.608 261.9439,-76.3943"/>
<polygon fill="#191970" stroke="#191970" points="262.7524,-72.9836 252.1703,-73.5042 260.7674,-79.6962 262.7524,-72.9836"/>
</g>
<!-- Node10&#45;&gt;Node5 -->
<g id="edge16" class="edge">
<title>Node10&#45;&gt;Node5</title>
<path fill="none" stroke="#191970" d="M394.6745,-110.4179C382.5529,-101.9788 364.2797,-89.257 350.039,-79.3426"/>
<polygon fill="#191970" stroke="#191970" points="351.9911,-76.4369 341.7844,-73.5956 347.9915,-82.1818 351.9911,-76.4369"/>
</g>
<!-- Node10&#45;&gt;Node7 -->
<g id="edge11" class="edge">
<title>Node10&#45;&gt;Node7</title>
<path fill="none" stroke="#191970" d="M453.6425,-110.4795C502.3683,-100.9083 579.3917,-85.7787 631.6633,-75.5111"/>
<polygon fill="#191970" stroke="#191970" points="632.634,-78.8874 641.7719,-73.5255 631.2848,-72.0186 632.634,-78.8874"/>
</g>
<!-- Node10&#45;&gt;Node8 -->
<g id="edge13" class="edge">
<title>Node10&#45;&gt;Node8</title>
<path fill="none" stroke="#191970" d="M408.2125,-110.106C409.3845,-96.5097 413.3438,-71.2054 426.7197,-55 441.0116,-37.6849 463.6096,-26.1976 482.3267,-19.0969"/>
<polygon fill="#191970" stroke="#191970" points="483.7112,-22.3197 491.9715,-15.6852 481.3768,-15.7205 483.7112,-22.3197"/>
</g>
<!-- Node11 -->
<g id="node12" class="node">
<title>Node11</title>
<polygon fill="#ffffff" stroke="#bfbfbf" points="436.1978,-55.5 436.1978,-73.5 547.2417,-73.5 547.2417,-55.5 436.1978,-55.5"/>
<text text-anchor="middle" x="491.7197" y="-61.5" font-family="Helvetica,sans-Serif" font-size="10.00" fill="#000000">EASTL/vector_map.h</text>
</g>
<!-- Node10&#45;&gt;Node11 -->
<g id="edge12" class="edge">
<title>Node10&#45;&gt;Node11</title>
<path fill="none" stroke="#191970" d="M421.5906,-110.4179C434.4794,-101.9788 453.9091,-89.257 469.0511,-79.3426"/>
<polygon fill="#191970" stroke="#191970" points="471.3793,-82.0017 477.8282,-73.5956 467.5448,-76.1454 471.3793,-82.0017"/>
</g>
<!-- Node12 -->
<g id="node13" class="node">
<title>Node12</title>
<polygon fill="#ffffff" stroke="#bfbfbf" points="565.104,-55.5 565.104,-73.5 608.3354,-73.5 608.3354,-55.5 565.104,-55.5"/>
<text text-anchor="middle" x="586.7197" y="-61.5" font-family="Helvetica,sans-Serif" font-size="10.00" fill="#000000">vector</text>
</g>
<!-- Node10&#45;&gt;Node12 -->
<g id="edge17" class="edge">
<title>Node10&#45;&gt;Node12</title>
<path fill="none" stroke="#191970" d="M437.7137,-110.4398C465.8826,-101.9091 509.4496,-88.6597 555.5403,-74.348"/>
<polygon fill="#191970" stroke="#191970" points="556.5882,-77.6875 565.0981,-71.3761 554.5098,-71.0032 556.5882,-77.6875"/>
</g>
</g>
</svg>
        <g id="navigator" transform="translate(0 0)" fill="#404254">
                <rect fill="#f2f5e9" fill-opacity="0.5" stroke="#606060" stroke-width=".5" x="0" y="0" width="60" height="60"/>
                <use id="zoomplus" xlink:href="#zoomPlus" x="17" y="9" onmousedown="handleZoom(evt,'in')"/>
                <use id="zoomminus" xlink:href="#zoomMin" x="42" y="9" onmousedown="handleZoom(evt,'out')"/>
                <use id="reset" xlink:href="#resetDef" x="30" y="36" onmousedown="handleReset()"/>
                <g id="arrowUp" xlink:href="#dirArrow" transform="translate(30 24)" onmousedown="handlePan(0,-1)">
                  <use xlink:href="#rim" fill="#404040">
                        <set attributeName="fill" to="#808080" begin="arrowUp.mouseover" end="arrowUp.mouseout"/>
                  </use>
                  <path fill="none" stroke="white" stroke-width="1.5" d="M0,-3.0v7 M-2.5,-0.5L0,-3.0L2.5,-0.5"/>
                </g>
                <g id="arrowRight" xlink:href="#dirArrow" transform="rotate(90) translate(36 -43)" onmousedown="handlePan(1,0)">
                  <use xlink:href="#rim" fill="#404040">
                        <set attributeName="fill" to="#808080" begin="arrowRight.mouseover" end="arrowRight.mouseout"/>
                  </use>
                  <path fill="none" stroke="white" stroke-width="1.5" d="M0,-3.0v7 M-2.5,-0.5L0,-3.0L2.5,-0.5"/>
                </g>
                <g id="arrowDown" xlink:href="#dirArrow" transform="rotate(180) translate(-30 -48)" onmousedown="handlePan(0,1)">
                  <use xlink:href="#rim" fill="#404040">
                        <set attributeName="fill" to="#808080" begin="arrowDown.mouseover" end="arrowDown.mouseout"/>
                  </use>
                  <path fill="none" stroke="white" stroke-width="1.5" d="M0,-3.0v7 M-2.5,-0.5L0,-3.0L2.5,-0.5"/>
                </g>
                <g id="arrowLeft" xlink:href="#dirArrow" transform="rotate(270) translate(-36 17)" onmousedown="handlePan(-1,0)">
                  <use xlink:href="#rim" fill="#404040">
                        <set attributeName="fill" to="#808080" begin="arrowLeft.mouseover" end="arrowLeft.mouseout"/>
                  </use>
                  <path fill="none" stroke="white" stroke-width="1.5" d="M0,-3.0v7 M-2.5,-0.5L0,-3.0L2.5,-0.5"/>
                </g>
        </g>
        <svg viewBox="0 0 15 15" width="100%" height="30px" preserveAspectRatio="xMaxYMin meet">
         <g id="arrow_out" transform="scale(0.3 0.3)">
          <a xlink:href="interface_8hpp__incl_org.svg" target="_base">
           <rect id="button" ry="5" rx="5" y="6" x="6" height="38" width="38"
                fill="#f2f5e9" fill-opacity="0.5" stroke="#606060" stroke-width="1.0"/>
           <path id="arrow"
             d="M 11.500037,31.436501 C 11.940474,20.09759 22.043105,11.32322 32.158766,21.979434 L 37.068811,17.246167 C 37.068811,17.246167 37.088388,32 37.088388,32 L 22.160133,31.978069 C 22.160133,31.978069 26.997745,27.140456 26.997745,27.140456 C 18.528582,18.264221 13.291696,25.230495 11.500037,31.436501 z"
             style="fill:#404040;"/>
          </a>
         </g>
        </svg>
</svg>
