<?xml version="1.0" encoding="UTF-8" standalone="no"?>
<!DOCTYPE svg PUBLIC "-//W3C//DTD SVG 1.1//EN"
 "http://www.w3.org/Graphics/SVG/1.1/DTD/svg11.dtd">
<!-- Generated by graphviz version 2.40.1 (20161225.0304)
 -->
<!-- Title: include/indigox/python/interface.hpp Pages: 1 -->
<!--zoomable 102 -->
<svg id="main" version="1.1" xmlns="http://www.w3.org/2000/svg" xmlns:xlink="http://www.w3.org/1999/xlink" xml:space="preserve" onload="init(evt)">
<style type="text/css"><![CDATA[
.edge:hover path { stroke: red; }
.edge:hover polygon { stroke: red; fill: red; }
]]></style>
<script type="text/javascript"><![CDATA[
var edges = document.getElementsByTagName('g');
if (edges && edges.length) {
  for (var i=0;i<edges.length;i++) {
    if (edges[i].id.substr(0,4)=='edge') {
      edges[i].setAttribute('class','edge');
    }
  }
}
]]></script>
        <defs>
                <circle id="rim" cx="0" cy="0" r="7"/>
                <circle id="rim2" cx="0" cy="0" r="3.5"/>
                <g id="zoomPlus">
                        <use xlink:href="#rim" fill="#404040">
                                <set attributeName="fill" to="#808080" begin="zoomplus.mouseover" end="zoomplus.mouseout"/>
                        </use>
                        <path d="M-4,0h8M0,-4v8" fill="none" stroke="white" stroke-width="1.5" pointer-events="none"/>
                </g>
                <g id="zoomMin">
                        <use xlink:href="#rim" fill="#404040">
                                <set attributeName="fill" to="#808080" begin="zoomminus.mouseover" end="zoomminus.mouseout"/>
                        </use>
                        <path d="M-4,0h8" fill="none" stroke="white" stroke-width="1.5" pointer-events="none"/>
                </g>
                <g id="dirArrow">
                        <path fill="none" stroke="white" stroke-width="1.5" d="M0,-3.0v7 M-2.5,-0.5L0,-3.0L2.5,-0.5"/>
                </g>
               <g id="resetDef">
                       <use xlink:href="#rim2" fill="#404040">
                               <set attributeName="fill" to="#808080" begin="reset.mouseover" end="reset.mouseout"/>
                       </use>
               </g>
        </defs>

<script type="text/javascript">
var viewWidth = 1349;
var viewHeight = 102;
var sectionId = 'dynsection-1';
</script>
<script xlink:href="svgpan.js"/>
<svg id="graph" class="graph">
<g id="viewport">
<title>include/indigox/python/interface.hpp</title>
<polygon fill="#ffffff" stroke="transparent" points="-4,4 -4,-98 1345.438,-98 1345.438,4 -4,4"/>
<!-- Node13 -->
<g id="node1" class="node">
<title>Node13</title>
<polygon fill="#bfbfbf" stroke="#000000" points="536.6479,-65.5 536.6479,-93.5 651.6079,-93.5 651.6079,-65.5 536.6479,-65.5"/>
<text text-anchor="start" x="544.6479" y="-81.5" font-family="Helvetica,sans-Serif" font-size="10.00" fill="#000000">include/indigox/python</text>
<text text-anchor="middle" x="594.1279" y="-71.5" font-family="Helvetica,sans-Serif" font-size="10.00" fill="#000000">/interface.hpp</text>
</g>
<!-- Node14 -->
<g id="node2" class="node">
<title>Node14</title>
<g id="a_node2"><a xlink:href="python_2classes_2athenaeum_8cpp.html" target="_top" xlink:title="src/python/classes\l/athenaeum.cpp">
<polygon fill="#ffffff" stroke="#000000" points="0,-.5 0,-28.5 98.2559,-28.5 98.2559,-.5 0,-.5"/>
<text text-anchor="start" x="8" y="-16.5" font-family="Helvetica,sans-Serif" font-size="10.00" fill="#000000">src/python/classes</text>
<text text-anchor="middle" x="49.1279" y="-6.5" font-family="Helvetica,sans-Serif" font-size="10.00" fill="#000000">/athenaeum.cpp</text>
</a>
</g>
</g>
<!-- Node13&#45;&gt;Node14 -->
<g id="edge1" class="edge">
<title>Node13&#45;&gt;Node14</title>
<path fill="none" stroke="#191970" d="M526.4172,-75.5193C431.9652,-69.2774 255.5484,-55.1124 107.1279,-29 104.2657,-28.4964 101.3357,-27.9296 98.387,-27.3192"/>
<polygon fill="#191970" stroke="#191970" points="526.2038,-79.0127 536.4102,-76.1703 526.6589,-72.0275 526.2038,-79.0127"/>
</g>
<!-- Node15 -->
<g id="node3" class="node">
<title>Node15</title>
<g id="a_node3"><a xlink:href="python_2classes_2forcefield_8cpp.html" target="_top" xlink:title="src/python/classes\l/forcefield.cpp">
<polygon fill="#ffffff" stroke="#000000" points="116,-.5 116,-28.5 214.2559,-28.5 214.2559,-.5 116,-.5"/>
<text text-anchor="start" x="124" y="-16.5" font-family="Helvetica,sans-Serif" font-size="10.00" fill="#000000">src/python/classes</text>
<text text-anchor="middle" x="165.1279" y="-6.5" font-family="Helvetica,sans-Serif" font-size="10.00" fill="#000000">/forcefield.cpp</text>
</a>
</g>
</g>
<!-- Node13&#45;&gt;Node15 -->
<g id="edge2" class="edge">
<title>Node13&#45;&gt;Node15</title>
<path fill="none" stroke="#191970" d="M526.4065,-72.5401C451.7539,-64.344 328.2922,-49.2397 223.1279,-29 220.2741,-28.4508 217.3507,-27.8482 214.407,-27.2106"/>
<polygon fill="#191970" stroke="#191970" points="526.2893,-76.048 536.6094,-73.6506 527.0468,-69.0891 526.2893,-76.048"/>
</g>
<!-- Node16 -->
<g id="node4" class="node">
<title>Node16</title>
<g id="a_node4"><a xlink:href="python_2classes_2molecule_8cpp.html" target="_top" xlink:title="src/python/classes\l/molecule.cpp">
<polygon fill="#ffffff" stroke="#000000" points="232,-.5 232,-28.5 330.2559,-28.5 330.2559,-.5 232,-.5"/>
<text text-anchor="start" x="240" y="-16.5" font-family="Helvetica,sans-Serif" font-size="10.00" fill="#000000">src/python/classes</text>
<text text-anchor="middle" x="281.1279" y="-6.5" font-family="Helvetica,sans-Serif" font-size="10.00" fill="#000000">/molecule.cpp</text>
</a>
</g>
</g>
<!-- Node13&#45;&gt;Node16 -->
<g id="edge3" class="edge">
<title>Node13&#45;&gt;Node16</title>
<path fill="none" stroke="#191970" d="M526.4731,-67.0459C474.971,-57.3369 402.4017,-43.1655 339.1279,-29 336.2919,-28.3651 333.3824,-27.6956 330.4495,-27.0067"/>
<polygon fill="#191970" stroke="#191970" points="526.0092,-70.5199 536.4836,-68.9269 527.302,-63.6403 526.0092,-70.5199"/>
</g>
<!-- Node17 -->
<g id="node5" class="node">
<title>Node17</title>
<g id="a_node5"><a xlink:href="parammolecule_8cpp.html" target="_top" xlink:title="src/python/classes\l/parammolecule.cpp">
<polygon fill="#ffffff" stroke="#000000" points="348.106,-.5 348.106,-28.5 454.1499,-28.5 454.1499,-.5 348.106,-.5"/>
<text text-anchor="start" x="356.106" y="-16.5" font-family="Helvetica,sans-Serif" font-size="10.00" fill="#000000">src/python/classes</text>
<text text-anchor="middle" x="401.1279" y="-6.5" font-family="Helvetica,sans-Serif" font-size="10.00" fill="#000000">/parammolecule.cpp</text>
</a>
</g>
</g>
<!-- Node13&#45;&gt;Node17 -->
<g id="edge4" class="edge">
<title>Node13&#45;&gt;Node17</title>
<path fill="none" stroke="#191970" d="M542.4386,-62.0917C511.2829,-51.5988 472.1169,-38.4082 442.9243,-28.5765"/>
<polygon fill="#191970" stroke="#191970" points="541.6557,-65.5211 552.2498,-65.396 543.89,-58.8872 541.6557,-65.5211"/>
</g>
<!-- Node18 -->
<g id="node6" class="node">
<title>Node18</title>
<g id="a_node6"><a xlink:href="python_2classes_2periodictable_8cpp.html" target="_top" xlink:title="src/python/classes\l/periodictable.cpp">
<polygon fill="#ffffff" stroke="#000000" points="472,-.5 472,-28.5 570.2559,-28.5 570.2559,-.5 472,-.5"/>
<text text-anchor="start" x="480" y="-16.5" font-family="Helvetica,sans-Serif" font-size="10.00" fill="#000000">src/python/classes</text>
<text text-anchor="middle" x="521.1279" y="-6.5" font-family="Helvetica,sans-Serif" font-size="10.00" fill="#000000">/periodictable.cpp</text>
</a>
</g>
</g>
<!-- Node13&#45;&gt;Node18 -->
<g id="edge5" class="edge">
<title>Node13&#45;&gt;Node18</title>
<path fill="none" stroke="#191970" d="M570.6531,-58.5978C559.6304,-48.7831 546.7837,-37.3442 536.9369,-28.5765"/>
<polygon fill="#191970" stroke="#191970" points="568.492,-61.3599 578.288,-65.396 573.1471,-56.132 568.492,-61.3599"/>
</g>
<!-- Node19 -->
<g id="node7" class="node">
<title>Node19</title>
<g id="a_node7"><a xlink:href="algorithms_8cpp.html" target="_top" xlink:title="src/python/graph/algorithms.cpp">
<polygon fill="#ffffff" stroke="#000000" points="587.9805,-5.5 587.9805,-23.5 746.2754,-23.5 746.2754,-5.5 587.9805,-5.5"/>
<text text-anchor="middle" x="667.1279" y="-11.5" font-family="Helvetica,sans-Serif" font-size="10.00" fill="#000000">src/python/graph/algorithms.cpp</text>
</a>
</g>
</g>
<!-- Node13&#45;&gt;Node19 -->
<g id="edge6" class="edge">
<title>Node13&#45;&gt;Node19</title>
<path fill="none" stroke="#191970" d="M617.8008,-58.4214C631.0352,-46.6373 646.8474,-32.558 656.9368,-23.5743"/>
<polygon fill="#191970" stroke="#191970" points="615.1088,-56.132 609.9678,-65.396 619.7638,-61.3599 615.1088,-56.132"/>
</g>
<!-- Node20 -->
<g id="node8" class="node">
<title>Node20</title>
<g id="a_node8"><a xlink:href="graphs_8cpp.html" target="_top" xlink:title="src/python/graph/graphs.cpp">
<polygon fill="#ffffff" stroke="#000000" points="764.7563,-5.5 764.7563,-23.5 907.4995,-23.5 907.4995,-5.5 764.7563,-5.5"/>
<text text-anchor="middle" x="836.1279" y="-11.5" font-family="Helvetica,sans-Serif" font-size="10.00" fill="#000000">src/python/graph/graphs.cpp</text>
</a>
</g>
</g>
<!-- Node13&#45;&gt;Node20 -->
<g id="edge7" class="edge">
<title>Node13&#45;&gt;Node20</title>
<path fill="none" stroke="#191970" d="M656.044,-62.8696C702.6896,-50.3409 764.8604,-33.6421 802.6144,-23.5016"/>
<polygon fill="#191970" stroke="#191970" points="655.0902,-59.5017 646.3404,-65.476 656.906,-66.2621 655.0902,-59.5017"/>
</g>
<!-- Node21 -->
<g id="node9" class="node">
<title>Node21</title>
<g id="a_node9"><a xlink:href="interface_8cpp.html" target="_top" xlink:title="src/python/interface.cpp">
<polygon fill="#ffffff" stroke="#000000" points="925.0444,-5.5 925.0444,-23.5 1047.2114,-23.5 1047.2114,-5.5 925.0444,-5.5"/>
<text text-anchor="middle" x="986.1279" y="-11.5" font-family="Helvetica,sans-Serif" font-size="10.00" fill="#000000">src/python/interface.cpp</text>
</a>
</g>
</g>
<!-- Node13&#45;&gt;Node21 -->
<g id="edge8" class="edge">
<title>Node13&#45;&gt;Node21</title>
<path fill="none" stroke="#191970" d="M662.0147,-69.834C727.2924,-60.3079 828.6684,-44.9068 916.1279,-29 925.1637,-27.3566 934.8246,-25.4517 943.9943,-23.5738"/>
<polygon fill="#191970" stroke="#191970" points="661.2477,-66.4086 651.8557,-71.3116 662.2553,-73.3357 661.2477,-66.4086"/>
</g>
<!-- Node22 -->
<g id="node10" class="node">
<title>Node22</title>
<g id="a_node10"><a xlink:href="pyassigner_8cpp.html" target="_top" xlink:title="src/python/pyassigner.cpp">
<polygon fill="#ffffff" stroke="#000000" points="1065.3154,-5.5 1065.3154,-23.5 1196.9404,-23.5 1196.9404,-5.5 1065.3154,-5.5"/>
<text text-anchor="middle" x="1131.1279" y="-11.5" font-family="Helvetica,sans-Serif" font-size="10.00" fill="#000000">src/python/pyassigner.cpp</text>
</a>
</g>
</g>
<!-- Node13&#45;&gt;Node22 -->
<g id="edge9" class="edge">
<title>Node13&#45;&gt;Node22</title>
<path fill="none" stroke="#191970" d="M662.0475,-73.8345C752.3267,-65.9023 916.699,-50.0621 1056.1279,-29 1066.3562,-27.4549 1077.3142,-25.5053 1087.6077,-23.541"/>
<polygon fill="#191970" stroke="#191970" points="661.6031,-70.3599 651.9454,-74.7162 662.2119,-77.3334 661.6031,-70.3599"/>
</g>
<!-- Node23 -->
<g id="node11" class="node">
<title>Node23</title>
<g id="a_node11"><a xlink:href="pyoptions_8cpp.html" target="_top" xlink:title="src/python/pyoptions.cpp">
<polygon fill="#ffffff" stroke="#000000" points="1214.8179,-5.5 1214.8179,-23.5 1341.438,-23.5 1341.438,-5.5 1214.8179,-5.5"/>
<text text-anchor="middle" x="1278.1279" y="-11.5" font-family="Helvetica,sans-Serif" font-size="10.00" fill="#000000">src/python/pyoptions.cpp</text>
</a>
</g>
</g>
<!-- Node13&#45;&gt;Node23 -->
<g id="edge10" class="edge">
<title>Node13&#45;&gt;Node23</title>
<path fill="none" stroke="#191970" d="M661.9955,-76.4846C775.2109,-70.8764 1009.5882,-56.803 1206.1279,-29 1216.3544,-27.5533 1227.3176,-25.5705 1237.5274,-23.5356"/>
<polygon fill="#191970" stroke="#191970" points="661.5685,-73.0011 651.7513,-76.9852 661.9102,-79.9928 661.5685,-73.0011"/>
</g>
</g>
</svg>
        <g id="navigator" transform="translate(0 0)" fill="#404254">
                <rect fill="#f2f5e9" fill-opacity="0.5" stroke="#606060" stroke-width=".5" x="0" y="0" width="60" height="60"/>
                <use id="zoomplus" xlink:href="#zoomPlus" x="17" y="9" onmousedown="handleZoom(evt,'in')"/>
                <use id="zoomminus" xlink:href="#zoomMin" x="42" y="9" onmousedown="handleZoom(evt,'out')"/>
                <use id="reset" xlink:href="#resetDef" x="30" y="36" onmousedown="handleReset()"/>
                <g id="arrowUp" xlink:href="#dirArrow" transform="translate(30 24)" onmousedown="handlePan(0,-1)">
                  <use xlink:href="#rim" fill="#404040">
                        <set attributeName="fill" to="#808080" begin="arrowUp.mouseover" end="arrowUp.mouseout"/>
                  </use>
                  <path fill="none" stroke="white" stroke-width="1.5" d="M0,-3.0v7 M-2.5,-0.5L0,-3.0L2.5,-0.5"/>
                </g>
                <g id="arrowRight" xlink:href="#dirArrow" transform="rotate(90) translate(36 -43)" onmousedown="handlePan(1,0)">
                  <use xlink:href="#rim" fill="#404040">
                        <set attributeName="fill" to="#808080" begin="arrowRight.mouseover" end="arrowRight.mouseout"/>
                  </use>
                  <path fill="none" stroke="white" stroke-width="1.5" d="M0,-3.0v7 M-2.5,-0.5L0,-3.0L2.5,-0.5"/>
                </g>
                <g id="arrowDown" xlink:href="#dirArrow" transform="rotate(180) translate(-30 -48)" onmousedown="handlePan(0,1)">
                  <use xlink:href="#rim" fill="#404040">
                        <set attributeName="fill" to="#808080" begin="arrowDown.mouseover" end="arrowDown.mouseout"/>
                  </use>
                  <path fill="none" stroke="white" stroke-width="1.5" d="M0,-3.0v7 M-2.5,-0.5L0,-3.0L2.5,-0.5"/>
                </g>
                <g id="arrowLeft" xlink:href="#dirArrow" transform="rotate(270) translate(-36 17)" onmousedown="handlePan(-1,0)">
                  <use xlink:href="#rim" fill="#404040">
                        <set attributeName="fill" to="#808080" begin="arrowLeft.mouseover" end="arrowLeft.mouseout"/>
                  </use>
                  <path fill="none" stroke="white" stroke-width="1.5" d="M0,-3.0v7 M-2.5,-0.5L0,-3.0L2.5,-0.5"/>
                </g>
        </g>
        <svg viewBox="0 0 15 15" width="100%" height="30px" preserveAspectRatio="xMaxYMin meet">
         <g id="arrow_out" transform="scale(0.3 0.3)">
          <a xlink:href="interface_8hpp__dep__incl_org.svg" target="_base">
           <rect id="button" ry="5" rx="5" y="6" x="6" height="38" width="38"
                fill="#f2f5e9" fill-opacity="0.5" stroke="#606060" stroke-width="1.0"/>
           <path id="arrow"
             d="M 11.500037,31.436501 C 11.940474,20.09759 22.043105,11.32322 32.158766,21.979434 L 37.068811,17.246167 C 37.068811,17.246167 37.088388,32 37.088388,32 L 22.160133,31.978069 C 22.160133,31.978069 26.997745,27.140456 26.997745,27.140456 C 18.528582,18.264221 13.291696,25.230495 11.500037,31.436501 z"
             style="fill:#404040;"/>
          </a>
         </g>
        </svg>
</svg>
