<?xml version="1.0" encoding="UTF-8" standalone="no"?>
<!DOCTYPE svg PUBLIC "-//W3C//DTD SVG 1.1//EN"
 "http://www.w3.org/Graphics/SVG/1.1/DTD/svg11.dtd">
<!-- Generated by graphviz version 2.40.1 (20161225.0304)
 -->
<!-- Title: src/python/interface.cpp Pages: 1 -->
<svg width="757pt" height="247pt"
 viewBox="0.00 0.00 757.36 247.00" xmlns="http://www.w3.org/2000/svg" xmlns:xlink="http://www.w3.org/1999/xlink">
<g id="graph0" class="graph" transform="scale(1 1) rotate(0) translate(4 243)">
<title>src/python/interface.cpp</title>
<polygon fill="#ffffff" stroke="transparent" points="-4,4 -4,-243 753.3599,-243 753.3599,4 -4,4"/>
<!-- Node0 -->
<g id="node1" class="node">
<title>Node0</title>
<polygon fill="#bfbfbf" stroke="#000000" points="242.6362,-220.5 242.6362,-238.5 364.8032,-238.5 364.8032,-220.5 242.6362,-220.5"/>
<text text-anchor="middle" x="303.7197" y="-226.5" font-family="Helvetica,sans-Serif" font-size="10.00" fill="#000000">src/python/interface.cpp</text>
</g>
<!-- Node1 -->
<g id="node2" class="node">
<title>Node1</title>
<g id="a_node2"><a xlink:href="interface_8hpp.html" target="_top" xlink:title="indigox/python/interface.hpp">
<polygon fill="#ffffff" stroke="#000000" points="233.1758,-165.5 233.1758,-183.5 374.2637,-183.5 374.2637,-165.5 233.1758,-165.5"/>
<text text-anchor="middle" x="303.7197" y="-171.5" font-family="Helvetica,sans-Serif" font-size="10.00" fill="#000000">indigox/python/interface.hpp</text>
</a>
</g>
</g>
<!-- Node0&#45;&gt;Node1 -->
<g id="edge1" class="edge">
<title>Node0&#45;&gt;Node1</title>
<path fill="none" stroke="#191970" d="M303.7197,-220.4179C303.7197,-213.2164 303.7197,-202.8962 303.7197,-193.8632"/>
<polygon fill="#191970" stroke="#191970" points="307.2198,-193.7794 303.7197,-183.7795 300.2198,-193.7795 307.2198,-193.7794"/>
</g>
<!-- Node2 -->
<g id="node3" class="node">
<title>Node2</title>
<polygon fill="#ffffff" stroke="#bfbfbf" points="0,-110.5 0,-128.5 91.4395,-128.5 91.4395,-110.5 0,-110.5"/>
<text text-anchor="middle" x="45.7197" y="-116.5" font-family="Helvetica,sans-Serif" font-size="10.00" fill="#000000">pybind11/eigen.h</text>
</g>
<!-- Node1&#45;&gt;Node2 -->
<g id="edge2" class="edge">
<title>Node1&#45;&gt;Node2</title>
<path fill="none" stroke="#191970" d="M261.4052,-165.4795C216.6949,-155.9482 146.1272,-140.9047 97.975,-130.6397"/>
<polygon fill="#191970" stroke="#191970" points="98.5674,-127.1874 88.0574,-128.5255 97.1079,-134.0336 98.5674,-127.1874"/>
</g>
<!-- Node3 -->
<g id="node4" class="node">
<title>Node3</title>
<polygon fill="#ffffff" stroke="#bfbfbf" points="109.1108,-110.5 109.1108,-128.5 218.3286,-128.5 218.3286,-110.5 109.1108,-110.5"/>
<text text-anchor="middle" x="163.7197" y="-116.5" font-family="Helvetica,sans-Serif" font-size="10.00" fill="#000000">pybind11/operators.h</text>
</g>
<!-- Node1&#45;&gt;Node3 -->
<g id="edge3" class="edge">
<title>Node1&#45;&gt;Node3</title>
<path fill="none" stroke="#191970" d="M280.6016,-165.4179C257.6003,-156.3817 222.1004,-142.4353 196.2577,-132.2828"/>
<polygon fill="#191970" stroke="#191970" points="197.4596,-128.9946 186.8722,-128.5956 194.8999,-135.5098 197.4596,-128.9946"/>
</g>
<!-- Node4 -->
<g id="node5" class="node">
<title>Node4</title>
<polygon fill="#ffffff" stroke="#bfbfbf" points="58.3071,-55.5 58.3071,-73.5 165.1323,-73.5 165.1323,-55.5 58.3071,-55.5"/>
<text text-anchor="middle" x="111.7197" y="-61.5" font-family="Helvetica,sans-Serif" font-size="10.00" fill="#000000">pybind11/pybind11.h</text>
</g>
<!-- Node1&#45;&gt;Node4 -->
<g id="edge4" class="edge">
<title>Node1&#45;&gt;Node4</title>
<path fill="none" stroke="#191970" d="M295.1168,-165.4983C281.762,-151.9429 254.7544,-126.16 227.7197,-110 204.1046,-95.884 175.3238,-84.5639 152.3382,-76.7456"/>
<polygon fill="#191970" stroke="#191970" points="153.1434,-73.3254 142.5501,-73.507 150.9445,-79.9711 153.1434,-73.3254"/>
</g>
<!-- Node5 -->
<g id="node6" class="node">
<title>Node5</title>
<polygon fill="#ffffff" stroke="#bfbfbf" points="183.2339,-55.5 183.2339,-73.5 260.2056,-73.5 260.2056,-55.5 183.2339,-55.5"/>
<text text-anchor="middle" x="221.7197" y="-61.5" font-family="Helvetica,sans-Serif" font-size="10.00" fill="#000000">pybind11/stl.h</text>
</g>
<!-- Node1&#45;&gt;Node5 -->
<g id="edge5" class="edge">
<title>Node1&#45;&gt;Node5</title>
<path fill="none" stroke="#191970" d="M297.9369,-165.0717C289.9833,-152.2867 275.0227,-128.8805 260.7197,-110 253.2751,-100.1727 244.3661,-89.6942 236.9436,-81.273"/>
<polygon fill="#191970" stroke="#191970" points="239.3971,-78.7657 230.1259,-73.6378 234.1757,-83.4281 239.3971,-78.7657"/>
</g>
<!-- Node6 -->
<g id="node7" class="node">
<title>Node6</title>
<polygon fill="#ffffff" stroke="#bfbfbf" points="278,-55.5 278,-73.5 379.4395,-73.5 379.4395,-55.5 278,-55.5"/>
<text text-anchor="middle" x="328.7197" y="-61.5" font-family="Helvetica,sans-Serif" font-size="10.00" fill="#000000">pybind11/stl_bind.h</text>
</g>
<!-- Node1&#45;&gt;Node6 -->
<g id="edge6" class="edge">
<title>Node1&#45;&gt;Node6</title>
<path fill="none" stroke="#191970" d="M305.7656,-165.4982C309.8126,-147.6913 318.9192,-107.6225 324.3671,-83.6515"/>
<polygon fill="#191970" stroke="#191970" points="327.8423,-84.1532 326.6456,-73.6261 321.0164,-82.6018 327.8423,-84.1532"/>
</g>
<!-- Node7 -->
<g id="node8" class="node">
<title>Node7</title>
<polygon fill="#ffffff" stroke="#bfbfbf" points="520.939,-110.5 520.939,-128.5 572.5005,-128.5 572.5005,-110.5 520.939,-110.5"/>
<text text-anchor="middle" x="546.7197" y="-116.5" font-family="Helvetica,sans-Serif" font-size="10.00" fill="#000000">sstream</text>
</g>
<!-- Node1&#45;&gt;Node7 -->
<g id="edge7" class="edge">
<title>Node1&#45;&gt;Node7</title>
<path fill="none" stroke="#191970" d="M344.967,-165.4157C386.0071,-156.3392 450.7641,-141.9151 506.7197,-129 508.1541,-128.6689 509.6171,-128.3295 511.0946,-127.9853"/>
<polygon fill="#191970" stroke="#191970" points="511.9751,-131.3738 520.9103,-125.6805 510.3749,-124.5592 511.9751,-131.3738"/>
</g>
<!-- Node8 -->
<g id="node9" class="node">
<title>Node8</title>
<g id="a_node9"><a xlink:href="fwd__declares_8hpp.html" target="_top" xlink:title="../utils/fwd_declares.hpp">
<polygon fill="#ffffff" stroke="#000000" points="626.0796,-55.5 626.0796,-73.5 749.3599,-73.5 749.3599,-55.5 626.0796,-55.5"/>
<text text-anchor="middle" x="687.7197" y="-61.5" font-family="Helvetica,sans-Serif" font-size="10.00" fill="#000000">../utils/fwd_declares.hpp</text>
</a>
</g>
</g>
<!-- Node1&#45;&gt;Node8 -->
<g id="edge8" class="edge">
<title>Node1&#45;&gt;Node8</title>
<path fill="none" stroke="#191970" d="M347.0945,-165.4421C381.9069,-157.568 431.7273,-144.93 473.7197,-129 491.3744,-122.3026 494.0366,-116.622 511.7197,-110 550.9942,-95.2925 596.9169,-83.5941 632.0041,-75.7437"/>
<polygon fill="#191970" stroke="#191970" points="633.0462,-79.0983 642.0611,-73.5322 631.5428,-72.2616 633.0462,-79.0983"/>
</g>
<!-- Node11 -->
<g id="node12" class="node">
<title>Node11</title>
<g id="a_node12"><a xlink:href="opaquecontainers_8hpp.html" target="_top" xlink:title="opaquecontainers.hpp">
<polygon fill="#ffffff" stroke="#000000" points="350.2349,-110.5 350.2349,-128.5 465.2046,-128.5 465.2046,-110.5 350.2349,-110.5"/>
<text text-anchor="middle" x="407.7197" y="-116.5" font-family="Helvetica,sans-Serif" font-size="10.00" fill="#000000">opaquecontainers.hpp</text>
</a>
</g>
</g>
<!-- Node1&#45;&gt;Node11 -->
<g id="edge11" class="edge">
<title>Node1&#45;&gt;Node11</title>
<path fill="none" stroke="#191970" d="M320.8932,-165.4179C337.3777,-156.7001 362.504,-143.4122 381.493,-133.3699"/>
<polygon fill="#191970" stroke="#191970" points="383.317,-136.3646 390.5207,-128.5956 380.0445,-130.1767 383.317,-136.3646"/>
</g>
<!-- Node9 -->
<g id="node10" class="node">
<title>Node9</title>
<polygon fill="#ffffff" stroke="#bfbfbf" points="492.269,-.5 492.269,-18.5 537.1704,-18.5 537.1704,-.5 492.269,-.5"/>
<text text-anchor="middle" x="514.7197" y="-6.5" font-family="Helvetica,sans-Serif" font-size="10.00" fill="#000000">cstdint</text>
</g>
<!-- Node8&#45;&gt;Node9 -->
<g id="edge9" class="edge">
<title>Node8&#45;&gt;Node9</title>
<path fill="none" stroke="#191970" d="M659.1523,-55.4179C628.3233,-45.6167 579.3241,-30.039 547.0908,-19.7914"/>
<polygon fill="#191970" stroke="#191970" points="547.8492,-16.3599 537.2588,-16.6656 545.7283,-23.0309 547.8492,-16.3599"/>
</g>
<!-- Node10 -->
<g id="node11" class="node">
<title>Node10</title>
<polygon fill="#ffffff" stroke="#bfbfbf" points="661.6631,-.5 661.6631,-18.5 713.7764,-18.5 713.7764,-.5 661.6631,-.5"/>
<text text-anchor="middle" x="687.7197" y="-6.5" font-family="Helvetica,sans-Serif" font-size="10.00" fill="#000000">memory</text>
</g>
<!-- Node8&#45;&gt;Node10 -->
<g id="edge10" class="edge">
<title>Node8&#45;&gt;Node10</title>
<path fill="none" stroke="#191970" d="M687.7197,-55.4179C687.7197,-48.2164 687.7197,-37.8962 687.7197,-28.8632"/>
<polygon fill="#191970" stroke="#191970" points="691.2198,-28.7794 687.7197,-18.7795 684.2198,-28.7795 691.2198,-28.7794"/>
</g>
<!-- Node11&#45;&gt;Node4 -->
<g id="edge15" class="edge">
<title>Node11&#45;&gt;Node4</title>
<path fill="none" stroke="#191970" d="M359.1728,-110.4795C307.448,-100.8684 225.5588,-85.6525 170.29,-75.383"/>
<polygon fill="#191970" stroke="#191970" points="170.7643,-71.9113 160.2932,-73.5255 169.4855,-78.7935 170.7643,-71.9113"/>
</g>
<!-- Node11&#45;&gt;Node5 -->
<g id="edge16" class="edge">
<title>Node11&#45;&gt;Node5</title>
<path fill="none" stroke="#191970" d="M377.0056,-110.4179C345.5452,-101.115 296.4851,-86.608 261.9439,-76.3943"/>
<polygon fill="#191970" stroke="#191970" points="262.7524,-72.9836 252.1703,-73.5042 260.7674,-79.6962 262.7524,-72.9836"/>
</g>
<!-- Node11&#45;&gt;Node6 -->
<g id="edge17" class="edge">
<title>Node11&#45;&gt;Node6</title>
<path fill="none" stroke="#191970" d="M394.6745,-110.4179C382.5529,-101.9788 364.2797,-89.257 350.039,-79.3426"/>
<polygon fill="#191970" stroke="#191970" points="351.9911,-76.4369 341.7844,-73.5956 347.9915,-82.1818 351.9911,-76.4369"/>
</g>
<!-- Node11&#45;&gt;Node8 -->
<g id="edge12" class="edge">
<title>Node11&#45;&gt;Node8</title>
<path fill="none" stroke="#191970" d="M453.6425,-110.4795C502.3683,-100.9083 579.3917,-85.7787 631.6633,-75.5111"/>
<polygon fill="#191970" stroke="#191970" points="632.634,-78.8874 641.7719,-73.5255 631.2848,-72.0186 632.634,-78.8874"/>
</g>
<!-- Node11&#45;&gt;Node9 -->
<g id="edge14" class="edge">
<title>Node11&#45;&gt;Node9</title>
<path fill="none" stroke="#191970" d="M408.2125,-110.106C409.3845,-96.5097 413.3438,-71.2054 426.7197,-55 441.0116,-37.6849 463.6096,-26.1976 482.3267,-19.0969"/>
<polygon fill="#191970" stroke="#191970" points="483.7112,-22.3197 491.9715,-15.6852 481.3768,-15.7205 483.7112,-22.3197"/>
</g>
<!-- Node12 -->
<g id="node13" class="node">
<title>Node12</title>
<polygon fill="#ffffff" stroke="#bfbfbf" points="436.1978,-55.5 436.1978,-73.5 547.2417,-73.5 547.2417,-55.5 436.1978,-55.5"/>
<text text-anchor="middle" x="491.7197" y="-61.5" font-family="Helvetica,sans-Serif" font-size="10.00" fill="#000000">EASTL/vector_map.h</text>
</g>
<!-- Node11&#45;&gt;Node12 -->
<g id="edge13" class="edge">
<title>Node11&#45;&gt;Node12</title>
<path fill="none" stroke="#191970" d="M421.5906,-110.4179C434.4794,-101.9788 453.9091,-89.257 469.0511,-79.3426"/>
<polygon fill="#191970" stroke="#191970" points="471.3793,-82.0017 477.8282,-73.5956 467.5448,-76.1454 471.3793,-82.0017"/>
</g>
<!-- Node13 -->
<g id="node14" class="node">
<title>Node13</title>
<polygon fill="#ffffff" stroke="#bfbfbf" points="565.104,-55.5 565.104,-73.5 608.3354,-73.5 608.3354,-55.5 565.104,-55.5"/>
<text text-anchor="middle" x="586.7197" y="-61.5" font-family="Helvetica,sans-Serif" font-size="10.00" fill="#000000">vector</text>
</g>
<!-- Node11&#45;&gt;Node13 -->
<g id="edge18" class="edge">
<title>Node11&#45;&gt;Node13</title>
<path fill="none" stroke="#191970" d="M437.7137,-110.4398C465.8826,-101.9091 509.4496,-88.6597 555.5403,-74.348"/>
<polygon fill="#191970" stroke="#191970" points="556.5882,-77.6875 565.0981,-71.3761 554.5098,-71.0032 556.5882,-77.6875"/>
</g>
</g>
</svg>
