<?xml version="1.0" encoding="UTF-8" standalone="no"?>
<!DOCTYPE svg PUBLIC "-//W3C//DTD SVG 1.1//EN"
 "http://www.w3.org/Graphics/SVG/1.1/DTD/svg11.dtd">
<!-- Generated by graphviz version 2.40.1 (20161225.0304)
 -->
<!-- Title: include/indigox/algorithm/graph/isomorphism.hpp Pages: 1 -->
<svg width="268pt" height="147pt"
 viewBox="0.00 0.00 268.33 147.00" xmlns="http://www.w3.org/2000/svg" xmlns:xlink="http://www.w3.org/1999/xlink">
<g id="graph0" class="graph" transform="scale(1 1) rotate(0) translate(4 143)">
<title>include/indigox/algorithm/graph/isomorphism.hpp</title>
<polygon fill="#ffffff" stroke="transparent" points="-4,4 -4,-143 264.3296,-143 264.3296,4 -4,4"/>
<!-- Node0 -->
<g id="node1" class="node">
<title>Node0</title>
<polygon fill="#bfbfbf" stroke="#000000" points="71.7759,-110.5 71.7759,-138.5 197.8394,-138.5 197.8394,-110.5 71.7759,-110.5"/>
<text text-anchor="start" x="79.7759" y="-126.5" font-family="Helvetica,sans-Serif" font-size="10.00" fill="#000000">include/indigox/algorithm</text>
<text text-anchor="middle" x="134.8076" y="-116.5" font-family="Helvetica,sans-Serif" font-size="10.00" fill="#000000">/graph/isomorphism.hpp</text>
</g>
<!-- Node1 -->
<g id="node2" class="node">
<title>Node1</title>
<g id="a_node2"><a xlink:href="fwd__declares_8hpp.html" target="_top" xlink:title="../../utils/fwd_declares.hpp">
<polygon fill="#ffffff" stroke="#000000" points="0,-55.5 0,-73.5 131.6152,-73.5 131.6152,-55.5 0,-55.5"/>
<text text-anchor="middle" x="65.8076" y="-61.5" font-family="Helvetica,sans-Serif" font-size="10.00" fill="#000000">../../utils/fwd_declares.hpp</text>
</a>
</g>
</g>
<!-- Node0&#45;&gt;Node1 -->
<g id="edge1" class="edge">
<title>Node0&#45;&gt;Node1</title>
<path fill="none" stroke="#191970" d="M118.4556,-110.2808C108.0393,-101.2232 94.5375,-89.4825 83.815,-80.1586"/>
<polygon fill="#191970" stroke="#191970" points="86.0972,-77.5049 76.2544,-73.5842 81.5039,-82.7871 86.0972,-77.5049"/>
</g>
<!-- Node4 -->
<g id="node5" class="node">
<title>Node4</title>
<polygon fill="#ffffff" stroke="#bfbfbf" points="149.2856,-55.5 149.2856,-73.5 260.3296,-73.5 260.3296,-55.5 149.2856,-55.5"/>
<text text-anchor="middle" x="204.8076" y="-61.5" font-family="Helvetica,sans-Serif" font-size="10.00" fill="#000000">EASTL/vector_map.h</text>
</g>
<!-- Node0&#45;&gt;Node4 -->
<g id="edge4" class="edge">
<title>Node0&#45;&gt;Node4</title>
<path fill="none" stroke="#191970" d="M151.3966,-110.2808C161.9639,-101.2232 175.6614,-89.4825 186.5392,-80.1586"/>
<polygon fill="#191970" stroke="#191970" points="188.8946,-82.7495 194.2094,-73.5842 184.339,-77.4347 188.8946,-82.7495"/>
</g>
<!-- Node2 -->
<g id="node3" class="node">
<title>Node2</title>
<polygon fill="#ffffff" stroke="#bfbfbf" points="10.3569,-.5 10.3569,-18.5 55.2583,-18.5 55.2583,-.5 10.3569,-.5"/>
<text text-anchor="middle" x="32.8076" y="-6.5" font-family="Helvetica,sans-Serif" font-size="10.00" fill="#000000">cstdint</text>
</g>
<!-- Node1&#45;&gt;Node2 -->
<g id="edge2" class="edge">
<title>Node1&#45;&gt;Node2</title>
<path fill="none" stroke="#191970" d="M60.3583,-55.4179C55.8,-47.8207 49.1592,-36.7527 43.5396,-27.3866"/>
<polygon fill="#191970" stroke="#191970" points="46.5215,-25.5536 38.3753,-18.7795 40.5191,-29.1552 46.5215,-25.5536"/>
</g>
<!-- Node3 -->
<g id="node4" class="node">
<title>Node3</title>
<polygon fill="#ffffff" stroke="#bfbfbf" points="73.751,-.5 73.751,-18.5 125.8643,-18.5 125.8643,-.5 73.751,-.5"/>
<text text-anchor="middle" x="99.8076" y="-6.5" font-family="Helvetica,sans-Serif" font-size="10.00" fill="#000000">memory</text>
</g>
<!-- Node1&#45;&gt;Node3 -->
<g id="edge3" class="edge">
<title>Node1&#45;&gt;Node3</title>
<path fill="none" stroke="#191970" d="M71.422,-55.4179C76.1185,-47.8207 82.9605,-36.7527 88.7504,-27.3866"/>
<polygon fill="#191970" stroke="#191970" points="91.79,-29.1258 94.0712,-18.7795 85.8359,-25.445 91.79,-29.1258"/>
</g>
</g>
</svg>
