<?xml version="1.0" encoding="UTF-8" standalone="no"?>
<!DOCTYPE svg PUBLIC "-//W3C//DTD SVG 1.1//EN"
 "http://www.w3.org/Graphics/SVG/1.1/DTD/svg11.dtd">
<!-- Generated by graphviz version 2.40.1 (20161225.0304)
 -->
<!-- Title: include/indigox/algorithm/graph/isomorphism.hpp Pages: 1 -->
<svg width="276pt" height="102pt"
 viewBox="0.00 0.00 276.21 102.00" xmlns="http://www.w3.org/2000/svg" xmlns:xlink="http://www.w3.org/1999/xlink">
<g id="graph0" class="graph" transform="scale(1 1) rotate(0) translate(4 98)">
<title>include/indigox/algorithm/graph/isomorphism.hpp</title>
<polygon fill="#ffffff" stroke="transparent" points="-4,4 -4,-98 272.209,-98 272.209,4 -4,4"/>
<!-- Node5 -->
<g id="node1" class="node">
<title>Node5</title>
<polygon fill="#bfbfbf" stroke="#000000" points="82.3818,-65.5 82.3818,-93.5 208.4453,-93.5 208.4453,-65.5 82.3818,-65.5"/>
<text text-anchor="start" x="90.3818" y="-81.5" font-family="Helvetica,sans-Serif" font-size="10.00" fill="#000000">include/indigox/algorithm</text>
<text text-anchor="middle" x="145.4136" y="-71.5" font-family="Helvetica,sans-Serif" font-size="10.00" fill="#000000">/graph/isomorphism.hpp</text>
</g>
<!-- Node6 -->
<g id="node2" class="node">
<title>Node6</title>
<g id="a_node2"><a xlink:href="cherrypicker_8cpp.html" target="_top" xlink:title="src/algorithm/cherrypicker.cpp">
<polygon fill="#ffffff" stroke="#000000" points="0,-5.5 0,-23.5 148.8271,-23.5 148.8271,-5.5 0,-5.5"/>
<text text-anchor="middle" x="74.4136" y="-11.5" font-family="Helvetica,sans-Serif" font-size="10.00" fill="#000000">src/algorithm/cherrypicker.cpp</text>
</a>
</g>
</g>
<!-- Node5&#45;&gt;Node6 -->
<g id="edge1" class="edge">
<title>Node5&#45;&gt;Node6</title>
<path fill="none" stroke="#191970" d="M122.3893,-58.4214C109.5174,-46.6373 94.1385,-32.558 84.3255,-23.5743"/>
<polygon fill="#191970" stroke="#191970" points="120.2684,-61.225 130.0076,-65.396 124.9952,-56.0618 120.2684,-61.225"/>
</g>
<!-- Node7 -->
<g id="node3" class="node">
<title>Node7</title>
<g id="a_node3"><a xlink:href="isomorphism_8cpp.html" target="_top" xlink:title="src/algorithm/graph\l/isomorphism.cpp">
<polygon fill="#ffffff" stroke="#000000" points="166.6182,-.5 166.6182,-28.5 268.209,-28.5 268.209,-.5 166.6182,-.5"/>
<text text-anchor="start" x="174.6182" y="-16.5" font-family="Helvetica,sans-Serif" font-size="10.00" fill="#000000">src/algorithm/graph</text>
<text text-anchor="middle" x="217.4136" y="-6.5" font-family="Helvetica,sans-Serif" font-size="10.00" fill="#000000">/isomorphism.cpp</text>
</a>
</g>
</g>
<!-- Node5&#45;&gt;Node7 -->
<g id="edge2" class="edge">
<title>Node5&#45;&gt;Node7</title>
<path fill="none" stroke="#191970" d="M168.5668,-58.5978C179.4385,-48.7831 192.1093,-37.3442 201.8211,-28.5765"/>
<polygon fill="#191970" stroke="#191970" points="166.1138,-56.097 161.0365,-65.396 170.8046,-61.2929 166.1138,-56.097"/>
</g>
</g>
</svg>
