<?xml version="1.0" encoding="UTF-8" standalone="no"?>
<!DOCTYPE svg PUBLIC "-//W3C//DTD SVG 1.1//EN"
 "http://www.w3.org/Graphics/SVG/1.1/DTD/svg11.dtd">
<!-- Generated by graphviz version 2.40.1 (20161225.0304)
 -->
<!-- Title: include/indigox/classes/iters.hpp Pages: 1 -->
<svg width="683pt" height="202pt"
 viewBox="0.00 0.00 682.84 202.00" xmlns="http://www.w3.org/2000/svg" xmlns:xlink="http://www.w3.org/1999/xlink">
<g id="graph0" class="graph" transform="scale(1 1) rotate(0) translate(4 198)">
<title>include/indigox/classes/iters.hpp</title>
<polygon fill="#ffffff" stroke="transparent" points="-4,4 -4,-198 678.8423,-198 678.8423,4 -4,4"/>
<!-- Node0 -->
<g id="node1" class="node">
<title>Node0</title>
<g id="a_node1"><a xlink:title=" ">
<polygon fill="#bfbfbf" stroke="#000000" points="239.3105,-165.5 239.3105,-193.5 357.5908,-193.5 357.5908,-165.5 239.3105,-165.5"/>
<text text-anchor="start" x="247.3105" y="-181.5" font-family="Helvetica,sans-Serif" font-size="10.00" fill="#000000">include/indigox/classes</text>
<text text-anchor="middle" x="298.4507" y="-171.5" font-family="Helvetica,sans-Serif" font-size="10.00" fill="#000000">/iters.hpp</text>
</a>
</g>
</g>
<!-- Node1 -->
<g id="node2" class="node">
<title>Node1</title>
<g id="a_node2"><a xlink:href="atom_8hpp.html" target="_top" xlink:title=" ">
<polygon fill="#ffffff" stroke="#000000" points="360.6035,-110.5 360.6035,-128.5 418.2979,-128.5 418.2979,-110.5 360.6035,-110.5"/>
<text text-anchor="middle" x="389.4507" y="-116.5" font-family="Helvetica,sans-Serif" font-size="10.00" fill="#000000">atom.hpp</text>
</a>
</g>
</g>
<!-- Node0&#45;&gt;Node1 -->
<g id="edge1" class="edge">
<title>Node0&#45;&gt;Node1</title>
<path fill="none" stroke="#191970" d="M320.0164,-165.2808C334.1579,-155.9568 352.6116,-143.7895 366.9398,-134.3423"/>
<polygon fill="#191970" stroke="#191970" points="369.251,-137.0108 375.673,-128.5842 365.3977,-131.1668 369.251,-137.0108"/>
</g>
<!-- Node3 -->
<g id="node4" class="node">
<title>Node3</title>
<g id="a_node4"><a xlink:title=" ">
<polygon fill="#ffffff" stroke="#bfbfbf" points="0,-.5 0,-18.5 44.9014,-18.5 44.9014,-.5 0,-.5"/>
<text text-anchor="middle" x="22.4507" y="-6.5" font-family="Helvetica,sans-Serif" font-size="10.00" fill="#000000">cstdint</text>
</a>
</g>
</g>
<!-- Node0&#45;&gt;Node3 -->
<g id="edge20" class="edge">
<title>Node0&#45;&gt;Node3</title>
<path fill="none" stroke="#191970" d="M241.5397,-165.4607C169.4626,-146.3986 51.5864,-110.5012 26.4507,-74 17.4129,-60.8757 17.1724,-42.4604 18.7495,-28.6649"/>
<polygon fill="#191970" stroke="#191970" points="22.2087,-29.1971 20.2706,-18.781 15.2901,-28.1323 22.2087,-29.1971"/>
</g>
<!-- Node6 -->
<g id="node7" class="node">
<title>Node6</title>
<g id="a_node7"><a xlink:title=" ">
<polygon fill="#ffffff" stroke="#bfbfbf" points="266.835,-55.5 266.835,-73.5 310.0664,-73.5 310.0664,-55.5 266.835,-55.5"/>
<text text-anchor="middle" x="288.4507" y="-61.5" font-family="Helvetica,sans-Serif" font-size="10.00" fill="#000000">vector</text>
</a>
</g>
</g>
<!-- Node0&#45;&gt;Node6 -->
<g id="edge22" class="edge">
<title>Node0&#45;&gt;Node6</title>
<path fill="none" stroke="#191970" d="M297.2245,-165.3987C295.4407,-144.8847 292.1247,-106.7512 290.1197,-83.6935"/>
<polygon fill="#191970" stroke="#191970" points="293.6064,-83.3878 289.2532,-73.7286 286.6327,-83.9943 293.6064,-83.3878"/>
</g>
<!-- Node7 -->
<g id="node8" class="node">
<title>Node7</title>
<g id="a_node8"><a xlink:href="bond_8hpp.html" target="_top" xlink:title=" ">
<polygon fill="#ffffff" stroke="#000000" points="502.5962,-110.5 502.5962,-128.5 560.3052,-128.5 560.3052,-110.5 502.5962,-110.5"/>
<text text-anchor="middle" x="531.4507" y="-116.5" font-family="Helvetica,sans-Serif" font-size="10.00" fill="#000000">bond.hpp</text>
</a>
</g>
</g>
<!-- Node0&#45;&gt;Node7 -->
<g id="edge8" class="edge">
<title>Node0&#45;&gt;Node7</title>
<path fill="none" stroke="#191970" d="M353.0788,-165.4327C395.9242,-154.3995 454.4981,-139.3161 492.6462,-129.4926"/>
<polygon fill="#191970" stroke="#191970" points="493.5468,-132.8749 502.358,-126.9917 491.8011,-126.0961 493.5468,-132.8749"/>
</g>
<!-- Node8 -->
<g id="node9" class="node">
<title>Node8</title>
<g id="a_node9"><a xlink:title=" ">
<polygon fill="#ffffff" stroke="#bfbfbf" points="636.0591,-55.5 636.0591,-73.5 674.8423,-73.5 674.8423,-55.5 636.0591,-55.5"/>
<text text-anchor="middle" x="655.4507" y="-61.5" font-family="Helvetica,sans-Serif" font-size="10.00" fill="#000000">array</text>
</a>
</g>
</g>
<!-- Node0&#45;&gt;Node8 -->
<g id="edge19" class="edge">
<title>Node0&#45;&gt;Node8</title>
<path fill="none" stroke="#191970" d="M357.825,-176.2412C414.3158,-171.3647 500.6565,-159.2169 569.4507,-129 596.2247,-117.2399 622.4412,-95.7127 638.7527,-80.7801"/>
<polygon fill="#191970" stroke="#191970" points="641.4398,-83.0578 646.3301,-73.6591 636.6461,-77.9568 641.4398,-83.0578"/>
</g>
<!-- Node9 -->
<g id="node10" class="node">
<title>Node9</title>
<g id="a_node10"><a xlink:href="molecule_8hpp.html" target="_top" xlink:title=" ">
<polygon fill="#ffffff" stroke="#000000" points="156.7095,-110.5 156.7095,-128.5 232.1919,-128.5 232.1919,-110.5 156.7095,-110.5"/>
<text text-anchor="middle" x="194.4507" y="-116.5" font-family="Helvetica,sans-Serif" font-size="10.00" fill="#000000">molecule.hpp</text>
</a>
</g>
</g>
<!-- Node0&#45;&gt;Node9 -->
<g id="edge12" class="edge">
<title>Node0&#45;&gt;Node9</title>
<path fill="none" stroke="#191970" d="M274.0673,-165.4327C257.6057,-155.9356 235.9424,-143.4376 219.3696,-133.8763"/>
<polygon fill="#191970" stroke="#191970" points="220.6888,-130.5967 210.2779,-128.6311 217.1907,-136.66 220.6888,-130.5967"/>
</g>
<!-- Node12 -->
<g id="node13" class="node">
<title>Node12</title>
<g id="a_node13"><a xlink:title=" ">
<polygon fill="#ffffff" stroke="#bfbfbf" points="162.1479,-55.5 162.1479,-73.5 248.7534,-73.5 248.7534,-55.5 162.1479,-55.5"/>
<text text-anchor="middle" x="205.4507" y="-61.5" font-family="Helvetica,sans-Serif" font-size="10.00" fill="#000000">unordered_map</text>
</a>
</g>
</g>
<!-- Node0&#45;&gt;Node12 -->
<g id="edge21" class="edge">
<title>Node0&#45;&gt;Node12</title>
<path fill="none" stroke="#191970" d="M287.0471,-165.3987C269.9296,-144.232 237.6422,-104.3067 219.2304,-81.5394"/>
<polygon fill="#191970" stroke="#191970" points="221.9234,-79.3034 212.9138,-73.7286 216.4805,-83.7051 221.9234,-79.3034"/>
</g>
<!-- Node2 -->
<g id="node3" class="node">
<title>Node2</title>
<g id="a_node3"><a xlink:href="fwd__declares_8hpp.html" target="_top" xlink:title=" ">
<polygon fill="#ffffff" stroke="#000000" points="327.8105,-55.5 327.8105,-73.5 451.0908,-73.5 451.0908,-55.5 327.8105,-55.5"/>
<text text-anchor="middle" x="389.4507" y="-61.5" font-family="Helvetica,sans-Serif" font-size="10.00" fill="#000000">../utils/fwd_declares.hpp</text>
</a>
</g>
</g>
<!-- Node1&#45;&gt;Node2 -->
<g id="edge2" class="edge">
<title>Node1&#45;&gt;Node2</title>
<path fill="none" stroke="#191970" d="M389.4507,-110.4179C389.4507,-103.2164 389.4507,-92.8962 389.4507,-83.8632"/>
<polygon fill="#191970" stroke="#191970" points="392.9508,-83.7794 389.4507,-73.7795 385.9508,-83.7795 392.9508,-83.7794"/>
</g>
<!-- Node4 -->
<g id="node5" class="node">
<title>Node4</title>
<g id="a_node5"><a xlink:title=" ">
<polygon fill="#ffffff" stroke="#bfbfbf" points="544.394,-.5 544.394,-18.5 596.5073,-18.5 596.5073,-.5 544.394,-.5"/>
<text text-anchor="middle" x="570.4507" y="-6.5" font-family="Helvetica,sans-Serif" font-size="10.00" fill="#000000">memory</text>
</a>
</g>
</g>
<!-- Node1&#45;&gt;Node4 -->
<g id="edge6" class="edge">
<title>Node1&#45;&gt;Node4</title>
<path fill="none" stroke="#191970" d="M418.5159,-114.7954C459.849,-107.5462 532.6902,-92.5245 551.4507,-74 563.3798,-62.221 567.9042,-43.3598 569.5776,-29.069"/>
<polygon fill="#191970" stroke="#191970" points="573.0896,-29.0571 570.3954,-18.8106 566.1117,-28.5008 573.0896,-29.0571"/>
</g>
<!-- Node5 -->
<g id="node6" class="node">
<title>Node5</title>
<g id="a_node6"><a xlink:title=" ">
<polygon fill="#ffffff" stroke="#bfbfbf" points="468.8203,-55.5 468.8203,-73.5 542.0811,-73.5 542.0811,-55.5 468.8203,-55.5"/>
<text text-anchor="middle" x="505.4507" y="-61.5" font-family="Helvetica,sans-Serif" font-size="10.00" fill="#000000">Eigen/Dense</text>
</a>
</g>
</g>
<!-- Node1&#45;&gt;Node5 -->
<g id="edge5" class="edge">
<title>Node1&#45;&gt;Node5</title>
<path fill="none" stroke="#191970" d="M408.6057,-110.4179C427.2441,-101.5807 455.7873,-88.0473 477.0643,-77.9591"/>
<polygon fill="#191970" stroke="#191970" points="478.7309,-81.0424 486.2672,-73.5956 475.7319,-74.7174 478.7309,-81.0424"/>
</g>
<!-- Node1&#45;&gt;Node6 -->
<g id="edge7" class="edge">
<title>Node1&#45;&gt;Node6</title>
<path fill="none" stroke="#191970" d="M372.7726,-110.4179C356.8367,-101.7399 332.5848,-88.5334 314.1739,-78.5077"/>
<polygon fill="#191970" stroke="#191970" points="315.6097,-75.3043 305.1536,-73.5956 312.262,-81.4519 315.6097,-75.3043"/>
</g>
<!-- Node2&#45;&gt;Node3 -->
<g id="edge3" class="edge">
<title>Node2&#45;&gt;Node3</title>
<path fill="none" stroke="#191970" d="M329.2591,-55.4795C250.8282,-43.7255 116.4608,-23.5887 54.9363,-14.3684"/>
<polygon fill="#191970" stroke="#191970" points="55.4231,-10.9024 45.0148,-12.8815 54.3856,-17.8251 55.4231,-10.9024"/>
</g>
<!-- Node2&#45;&gt;Node4 -->
<g id="edge4" class="edge">
<title>Node2&#45;&gt;Node4</title>
<path fill="none" stroke="#191970" d="M419.3392,-55.4179C450.9144,-45.8232 500.7078,-30.6926 534.4289,-20.4458"/>
<polygon fill="#191970" stroke="#191970" points="535.7897,-23.6904 544.3401,-17.4342 533.7545,-16.9928 535.7897,-23.6904"/>
</g>
<!-- Node7&#45;&gt;Node2 -->
<g id="edge9" class="edge">
<title>Node7&#45;&gt;Node2</title>
<path fill="none" stroke="#191970" d="M508.0023,-110.4179C484.6724,-101.3817 448.6654,-87.4353 422.4535,-77.2828"/>
<polygon fill="#191970" stroke="#191970" points="423.5231,-73.9437 412.9339,-73.5956 420.9948,-80.4712 423.5231,-73.9437"/>
</g>
<!-- Node7&#45;&gt;Node4 -->
<g id="edge11" class="edge">
<title>Node7&#45;&gt;Node4</title>
<path fill="none" stroke="#191970" d="M548.3032,-110.4285C560.8595,-102.6252 577.0586,-90.0885 584.4507,-74 591.2365,-59.2309 586.2046,-41.0267 580.3675,-27.7281"/>
<polygon fill="#191970" stroke="#191970" points="583.4668,-26.0986 575.9294,-18.6529 577.1785,-29.1739 583.4668,-26.0986"/>
</g>
<!-- Node7&#45;&gt;Node8 -->
<g id="edge10" class="edge">
<title>Node7&#45;&gt;Node8</title>
<path fill="none" stroke="#191970" d="M551.9268,-110.4179C572.2708,-101.3943 603.6542,-87.4743 626.5353,-77.3254"/>
<polygon fill="#191970" stroke="#191970" points="628.0419,-80.486 635.764,-73.232 625.2037,-74.0872 628.0419,-80.486"/>
</g>
<!-- Node9&#45;&gt;Node2 -->
<g id="edge13" class="edge">
<title>Node9&#45;&gt;Node2</title>
<path fill="none" stroke="#191970" d="M226.651,-110.4179C259.7753,-101.0751 311.5095,-86.4834 347.7456,-76.263"/>
<polygon fill="#191970" stroke="#191970" points="348.8523,-79.5875 357.5267,-73.5042 346.952,-72.8503 348.8523,-79.5875"/>
</g>
<!-- Node9&#45;&gt;Node3 -->
<g id="edge15" class="edge">
<title>Node9&#45;&gt;Node3</title>
<path fill="none" stroke="#191970" d="M156.6786,-112.5488C116.8457,-104.4959 57.645,-90.2362 41.4507,-74 29.6118,-62.1304 25.0763,-43.2803 23.3759,-29.0166"/>
<polygon fill="#191970" stroke="#191970" points="26.8422,-28.4614 22.5346,-18.7818 19.8657,-29.0349 26.8422,-28.4614"/>
</g>
<!-- Node9&#45;&gt;Node6 -->
<g id="edge18" class="edge">
<title>Node9&#45;&gt;Node6</title>
<path fill="none" stroke="#191970" d="M209.9729,-110.4179C224.6682,-101.8195 246.9619,-88.7754 264.0373,-78.7844"/>
<polygon fill="#191970" stroke="#191970" points="266.0419,-81.6667 272.9054,-73.5956 262.5067,-75.6249 266.0419,-81.6667"/>
</g>
<!-- Node10 -->
<g id="node11" class="node">
<title>Node10</title>
<g id="a_node11"><a xlink:title=" ">
<polygon fill="#ffffff" stroke="#bfbfbf" points="104.5,-55.5 104.5,-73.5 144.4014,-73.5 144.4014,-55.5 104.5,-55.5"/>
<text text-anchor="middle" x="124.4507" y="-61.5" font-family="Helvetica,sans-Serif" font-size="10.00" fill="#000000">bitset</text>
</a>
</g>
</g>
<!-- Node9&#45;&gt;Node10 -->
<g id="edge14" class="edge">
<title>Node9&#45;&gt;Node10</title>
<path fill="none" stroke="#191970" d="M182.8916,-110.4179C172.4167,-102.1876 156.7575,-89.8839 144.2843,-80.0836"/>
<polygon fill="#191970" stroke="#191970" points="146.2865,-77.2056 136.2609,-73.7795 141.9617,-82.7098 146.2865,-77.2056"/>
</g>
<!-- Node11 -->
<g id="node12" class="node">
<title>Node11</title>
<g id="a_node12"><a xlink:title=" ">
<polygon fill="#ffffff" stroke="#bfbfbf" points="50.7241,-55.5 50.7241,-73.5 86.1772,-73.5 86.1772,-55.5 50.7241,-55.5"/>
<text text-anchor="middle" x="68.4507" y="-61.5" font-family="Helvetica,sans-Serif" font-size="10.00" fill="#000000">map</text>
</a>
</g>
</g>
<!-- Node9&#45;&gt;Node11 -->
<g id="edge16" class="edge">
<title>Node9&#45;&gt;Node11</title>
<path fill="none" stroke="#191970" d="M173.6443,-110.4179C152.3605,-101.1273 119.1859,-86.6463 95.792,-76.4347"/>
<polygon fill="#191970" stroke="#191970" points="96.9932,-73.1402 86.4281,-72.3473 94.1928,-79.5556 96.9932,-73.1402"/>
</g>
<!-- Node9&#45;&gt;Node12 -->
<g id="edge17" class="edge">
<title>Node9&#45;&gt;Node12</title>
<path fill="none" stroke="#191970" d="M196.2671,-110.4179C197.7074,-103.2164 199.7714,-92.8962 201.578,-83.8632"/>
<polygon fill="#191970" stroke="#191970" points="205.0656,-84.2717 203.5948,-73.7795 198.2015,-82.8988 205.0656,-84.2717"/>
</g>
</g>
</svg>
