<?xml version="1.0" encoding="UTF-8" standalone="no"?>
<!DOCTYPE svg PUBLIC "-//W3C//DTD SVG 1.1//EN"
 "http://www.w3.org/Graphics/SVG/1.1/DTD/svg11.dtd">
<!-- Generated by graphviz version 2.40.1 (20161225.0304)
 -->
<!-- Title: src/classes/iters.cpp Pages: 1 -->
<svg width="658pt" height="247pt"
 viewBox="0.00 0.00 657.69 247.00" xmlns="http://www.w3.org/2000/svg" xmlns:xlink="http://www.w3.org/1999/xlink">
<g id="graph0" class="graph" transform="scale(1 1) rotate(0) translate(4 243)">
<title>src/classes/iters.cpp</title>
<polygon fill="#ffffff" stroke="transparent" points="-4,4 -4,-243 653.6875,-243 653.6875,4 -4,4"/>
<!-- Node0 -->
<g id="node1" class="node">
<title>Node0</title>
<polygon fill="#bfbfbf" stroke="#000000" points="376.7853,-220.5 376.7853,-238.5 482.8097,-238.5 482.8097,-220.5 376.7853,-220.5"/>
<text text-anchor="middle" x="429.7975" y="-226.5" font-family="Helvetica,sans-Serif" font-size="10.00" fill="#000000">src/classes/iters.cpp</text>
</g>
<!-- Node1 -->
<g id="node2" class="node">
<title>Node1</title>
<g id="a_node2"><a xlink:href="iters_8hpp.html" target="_top" xlink:title="indigox/classes/iters.hpp">
<polygon fill="#ffffff" stroke="#000000" points="277.3249,-165.5 277.3249,-183.5 402.2702,-183.5 402.2702,-165.5 277.3249,-165.5"/>
<text text-anchor="middle" x="339.7975" y="-171.5" font-family="Helvetica,sans-Serif" font-size="10.00" fill="#000000">indigox/classes/iters.hpp</text>
</a>
</g>
</g>
<!-- Node0&#45;&gt;Node1 -->
<g id="edge1" class="edge">
<title>Node0&#45;&gt;Node1</title>
<path fill="none" stroke="#191970" d="M414.9358,-220.4179C400.9961,-211.8992 379.9155,-199.0166 363.6274,-189.0627"/>
<polygon fill="#191970" stroke="#191970" points="365.0392,-185.8237 354.6813,-183.5956 361.389,-191.7967 365.0392,-185.8237"/>
</g>
<!-- Node10 -->
<g id="node11" class="node">
<title>Node10</title>
<g id="a_node11"><a xlink:href="molecule_8hpp.html" target="_top" xlink:title="molecule.hpp">
<polygon fill="#ffffff" stroke="#000000" points="381.0563,-110.5 381.0563,-128.5 456.5387,-128.5 456.5387,-110.5 381.0563,-110.5"/>
<text text-anchor="middle" x="418.7975" y="-116.5" font-family="Helvetica,sans-Serif" font-size="10.00" fill="#000000">molecule.hpp</text>
</a>
</g>
</g>
<!-- Node0&#45;&gt;Node10 -->
<g id="edge24" class="edge">
<title>Node0&#45;&gt;Node10</title>
<path fill="none" stroke="#191970" d="M428.8973,-220.4982C427.1167,-202.6913 423.1098,-162.6225 420.7127,-138.6515"/>
<polygon fill="#191970" stroke="#191970" points="424.1879,-138.2282 419.7101,-128.6261 417.2226,-138.9248 424.1879,-138.2282"/>
</g>
<!-- Node14 -->
<g id="node15" class="node">
<title>Node14</title>
<polygon fill="#ffffff" stroke="#bfbfbf" points="457.6252,-165.5 457.6252,-183.5 511.9699,-183.5 511.9699,-165.5 457.6252,-165.5"/>
<text text-anchor="middle" x="484.7975" y="-171.5" font-family="Helvetica,sans-Serif" font-size="10.00" fill="#000000">iostream</text>
</g>
<!-- Node0&#45;&gt;Node14 -->
<g id="edge25" class="edge">
<title>Node0&#45;&gt;Node14</title>
<path fill="none" stroke="#191970" d="M438.8797,-220.4179C446.8725,-212.425 458.7072,-200.5903 468.3598,-190.9377"/>
<polygon fill="#191970" stroke="#191970" points="470.9218,-193.3254 475.5181,-183.7795 465.9721,-188.3757 470.9218,-193.3254"/>
</g>
<!-- Node2 -->
<g id="node3" class="node">
<title>Node2</title>
<g id="a_node3"><a xlink:href="atom_8hpp.html" target="_top" xlink:title="atom.hpp">
<polygon fill="#ffffff" stroke="#000000" points="255.9504,-110.5 255.9504,-128.5 313.6447,-128.5 313.6447,-110.5 255.9504,-110.5"/>
<text text-anchor="middle" x="284.7975" y="-116.5" font-family="Helvetica,sans-Serif" font-size="10.00" fill="#000000">atom.hpp</text>
</a>
</g>
</g>
<!-- Node1&#45;&gt;Node2 -->
<g id="edge2" class="edge">
<title>Node1&#45;&gt;Node2</title>
<path fill="none" stroke="#191970" d="M330.7154,-165.4179C322.7225,-157.425 310.8879,-145.5903 301.2353,-135.9377"/>
<polygon fill="#191970" stroke="#191970" points="303.623,-133.3757 294.077,-128.7795 298.6732,-138.3254 303.623,-133.3757"/>
</g>
<!-- Node4 -->
<g id="node5" class="node">
<title>Node4</title>
<polygon fill="#ffffff" stroke="#bfbfbf" points="388.3468,-.5 388.3468,-18.5 433.2482,-18.5 433.2482,-.5 388.3468,-.5"/>
<text text-anchor="middle" x="410.7975" y="-6.5" font-family="Helvetica,sans-Serif" font-size="10.00" fill="#000000">cstdint</text>
</g>
<!-- Node1&#45;&gt;Node4 -->
<g id="edge21" class="edge">
<title>Node1&#45;&gt;Node4</title>
<path fill="none" stroke="#191970" d="M390.2314,-165.4664C469.2473,-150.1501 616.2806,-116.559 645.7975,-74 650.61,-67.0611 651.1712,-61.514 645.7975,-55 620.5287,-24.3695 502.0279,-14.1149 443.5731,-10.8842"/>
<polygon fill="#191970" stroke="#191970" points="443.5601,-7.3789 433.3931,-10.3593 443.1996,-14.3697 443.5601,-7.3789"/>
</g>
<!-- Node7 -->
<g id="node8" class="node">
<title>Node7</title>
<polygon fill="#ffffff" stroke="#bfbfbf" points="339.1818,-55.5 339.1818,-73.5 382.4132,-73.5 382.4132,-55.5 339.1818,-55.5"/>
<text text-anchor="middle" x="360.7975" y="-61.5" font-family="Helvetica,sans-Serif" font-size="10.00" fill="#000000">vector</text>
</g>
<!-- Node1&#45;&gt;Node7 -->
<g id="edge23" class="edge">
<title>Node1&#45;&gt;Node7</title>
<path fill="none" stroke="#191970" d="M341.516,-165.4982C344.9155,-147.6913 352.565,-107.6225 357.1413,-83.6515"/>
<polygon fill="#191970" stroke="#191970" points="360.6179,-84.1051 359.0553,-73.6261 353.742,-82.7924 360.6179,-84.1051"/>
</g>
<!-- Node8 -->
<g id="node9" class="node">
<title>Node8</title>
<g id="a_node9"><a xlink:href="bond_8hpp.html" target="_top" xlink:title="bond.hpp">
<polygon fill="#ffffff" stroke="#000000" points="71.943,-110.5 71.943,-128.5 129.652,-128.5 129.652,-110.5 71.943,-110.5"/>
<text text-anchor="middle" x="100.7975" y="-116.5" font-family="Helvetica,sans-Serif" font-size="10.00" fill="#000000">bond.hpp</text>
</a>
</g>
</g>
<!-- Node1&#45;&gt;Node8 -->
<g id="edge9" class="edge">
<title>Node1&#45;&gt;Node8</title>
<path fill="none" stroke="#191970" d="M300.5992,-165.4795C256.1242,-155.2446 184.0294,-138.6538 139.6841,-128.4488"/>
<polygon fill="#191970" stroke="#191970" points="140.3828,-125.0182 129.8526,-126.1863 138.8129,-131.8399 140.3828,-125.0182"/>
</g>
<!-- Node9 -->
<g id="node10" class="node">
<title>Node9</title>
<polygon fill="#ffffff" stroke="#bfbfbf" points="12.4059,-55.5 12.4059,-73.5 51.1891,-73.5 51.1891,-55.5 12.4059,-55.5"/>
<text text-anchor="middle" x="31.7975" y="-61.5" font-family="Helvetica,sans-Serif" font-size="10.00" fill="#000000">array</text>
</g>
<!-- Node1&#45;&gt;Node9 -->
<g id="edge20" class="edge">
<title>Node1&#45;&gt;Node9</title>
<path fill="none" stroke="#191970" d="M314.5926,-165.4982C257.9583,-145.2717 120.8997,-96.3222 60.8271,-74.8677"/>
<polygon fill="#191970" stroke="#191970" points="61.7993,-71.4985 51.2047,-71.4311 59.4449,-78.0907 61.7993,-71.4985"/>
</g>
<!-- Node1&#45;&gt;Node10 -->
<g id="edge13" class="edge">
<title>Node1&#45;&gt;Node10</title>
<path fill="none" stroke="#191970" d="M352.8428,-165.4179C364.9644,-156.9788 383.2375,-144.257 397.4782,-134.3426"/>
<polygon fill="#191970" stroke="#191970" points="399.5257,-137.1818 405.7329,-128.5956 395.5261,-131.4369 399.5257,-137.1818"/>
</g>
<!-- Node13 -->
<g id="node14" class="node">
<title>Node13</title>
<polygon fill="#ffffff" stroke="#bfbfbf" points="550.4948,-55.5 550.4948,-73.5 637.1003,-73.5 637.1003,-55.5 550.4948,-55.5"/>
<text text-anchor="middle" x="593.7975" y="-61.5" font-family="Helvetica,sans-Serif" font-size="10.00" fill="#000000">unordered_map</text>
</g>
<!-- Node1&#45;&gt;Node13 -->
<g id="edge22" class="edge">
<title>Node1&#45;&gt;Node13</title>
<path fill="none" stroke="#191970" d="M367.6986,-165.4999C393.4815,-156.9311 432.6881,-143.2588 465.7975,-129 502.0733,-113.3775 542.5712,-92.3326 568.1108,-78.5947"/>
<polygon fill="#191970" stroke="#191970" points="569.999,-81.5525 577.1268,-73.7138 566.6664,-75.3967 569.999,-81.5525"/>
</g>
<!-- Node3 -->
<g id="node4" class="node">
<title>Node3</title>
<g id="a_node4"><a xlink:href="fwd__declares_8hpp.html" target="_top" xlink:title="../utils/fwd_declares.hpp">
<polygon fill="#ffffff" stroke="#000000" points="107.1574,-55.5 107.1574,-73.5 230.4377,-73.5 230.4377,-55.5 107.1574,-55.5"/>
<text text-anchor="middle" x="168.7975" y="-61.5" font-family="Helvetica,sans-Serif" font-size="10.00" fill="#000000">../utils/fwd_declares.hpp</text>
</a>
</g>
</g>
<!-- Node2&#45;&gt;Node3 -->
<g id="edge3" class="edge">
<title>Node2&#45;&gt;Node3</title>
<path fill="none" stroke="#191970" d="M265.6425,-110.4179C247.0041,-101.5807 218.4609,-88.0473 197.1839,-77.9591"/>
<polygon fill="#191970" stroke="#191970" points="198.5163,-74.7174 187.981,-73.5956 195.5173,-81.0424 198.5163,-74.7174"/>
</g>
<!-- Node5 -->
<g id="node6" class="node">
<title>Node5</title>
<polygon fill="#ffffff" stroke="#bfbfbf" points="52.7409,-.5 52.7409,-18.5 104.8542,-18.5 104.8542,-.5 52.7409,-.5"/>
<text text-anchor="middle" x="78.7975" y="-6.5" font-family="Helvetica,sans-Serif" font-size="10.00" fill="#000000">memory</text>
</g>
<!-- Node2&#45;&gt;Node5 -->
<g id="edge7" class="edge">
<title>Node2&#45;&gt;Node5</title>
<path fill="none" stroke="#191970" d="M255.8694,-113.2542C204.8242,-102.123 103.5714,-79.5044 97.7975,-74 85.6634,-62.4324 81.164,-43.5454 79.552,-29.1912"/>
<polygon fill="#191970" stroke="#191970" points="83.0173,-28.5916 78.7877,-18.8777 76.0364,-29.1091 83.0173,-28.5916"/>
</g>
<!-- Node6 -->
<g id="node7" class="node">
<title>Node6</title>
<polygon fill="#ffffff" stroke="#bfbfbf" points="248.1671,-55.5 248.1671,-73.5 321.4279,-73.5 321.4279,-55.5 248.1671,-55.5"/>
<text text-anchor="middle" x="284.7975" y="-61.5" font-family="Helvetica,sans-Serif" font-size="10.00" fill="#000000">Eigen/Dense</text>
</g>
<!-- Node2&#45;&gt;Node6 -->
<g id="edge6" class="edge">
<title>Node2&#45;&gt;Node6</title>
<path fill="none" stroke="#191970" d="M284.7975,-110.4179C284.7975,-103.2164 284.7975,-92.8962 284.7975,-83.8632"/>
<polygon fill="#191970" stroke="#191970" points="288.2976,-83.7794 284.7975,-73.7795 281.2976,-83.7795 288.2976,-83.7794"/>
</g>
<!-- Node2&#45;&gt;Node7 -->
<g id="edge8" class="edge">
<title>Node2&#45;&gt;Node7</title>
<path fill="none" stroke="#191970" d="M297.3474,-110.4179C308.8987,-102.0584 326.2567,-89.4966 339.899,-79.6239"/>
<polygon fill="#191970" stroke="#191970" points="342.1798,-82.2938 348.229,-73.5956 338.0759,-76.6229 342.1798,-82.2938"/>
</g>
<!-- Node3&#45;&gt;Node4 -->
<g id="edge4" class="edge">
<title>Node3&#45;&gt;Node4</title>
<path fill="none" stroke="#191970" d="M208.4879,-55.4795C255.9091,-44.7019 334.3414,-26.8764 378.3205,-16.8811"/>
<polygon fill="#191970" stroke="#191970" points="379.2241,-20.2651 388.1997,-14.6359 377.6727,-13.4392 379.2241,-20.2651"/>
</g>
<!-- Node3&#45;&gt;Node5 -->
<g id="edge5" class="edge">
<title>Node3&#45;&gt;Node5</title>
<path fill="none" stroke="#191970" d="M153.9358,-55.4179C139.9961,-46.8992 118.9155,-34.0166 102.6274,-24.0627"/>
<polygon fill="#191970" stroke="#191970" points="104.0392,-20.8237 93.6813,-18.5956 100.389,-26.7967 104.0392,-20.8237"/>
</g>
<!-- Node8&#45;&gt;Node3 -->
<g id="edge10" class="edge">
<title>Node8&#45;&gt;Node3</title>
<path fill="none" stroke="#191970" d="M112.0263,-110.4179C122.202,-102.1876 137.4138,-89.8839 149.5306,-80.0836"/>
<polygon fill="#191970" stroke="#191970" points="151.7507,-82.7895 157.3247,-73.7795 147.3485,-77.3469 151.7507,-82.7895"/>
</g>
<!-- Node8&#45;&gt;Node5 -->
<g id="edge12" class="edge">
<title>Node8&#45;&gt;Node5</title>
<path fill="none" stroke="#191970" d="M71.9166,-114.5579C49.0834,-108.9677 18.6625,-97.3918 3.7975,-74 -9.9024,-52.4416 17.6334,-34.1615 43.1139,-22.6276"/>
<polygon fill="#191970" stroke="#191970" points="44.5081,-25.838 52.3283,-18.6899 41.7573,-19.4012 44.5081,-25.838"/>
</g>
<!-- Node8&#45;&gt;Node9 -->
<g id="edge11" class="edge">
<title>Node8&#45;&gt;Node9</title>
<path fill="none" stroke="#191970" d="M89.4036,-110.4179C79.0783,-102.1876 63.6428,-89.8839 51.3478,-80.0836"/>
<polygon fill="#191970" stroke="#191970" points="53.4404,-77.2757 43.439,-73.7795 49.0772,-82.7495 53.4404,-77.2757"/>
</g>
<!-- Node10&#45;&gt;Node3 -->
<g id="edge14" class="edge">
<title>Node10&#45;&gt;Node3</title>
<path fill="none" stroke="#191970" d="M380.8279,-111.1467C337.8522,-101.692 267.6298,-86.2431 219.8743,-75.7369"/>
<polygon fill="#191970" stroke="#191970" points="220.5612,-72.3044 210.0427,-73.5739 219.0571,-79.1409 220.5612,-72.3044"/>
</g>
<!-- Node10&#45;&gt;Node4 -->
<g id="edge16" class="edge">
<title>Node10&#45;&gt;Node4</title>
<path fill="none" stroke="#191970" d="M418.1428,-110.4982C416.8478,-92.6913 413.9337,-52.6225 412.1904,-28.6515"/>
<polygon fill="#191970" stroke="#191970" points="415.6775,-28.3459 411.4612,-18.6261 408.6959,-28.8537 415.6775,-28.3459"/>
</g>
<!-- Node10&#45;&gt;Node7 -->
<g id="edge19" class="edge">
<title>Node10&#45;&gt;Node7</title>
<path fill="none" stroke="#191970" d="M409.22,-110.4179C400.7911,-102.425 388.311,-90.5903 378.1319,-80.9377"/>
<polygon fill="#191970" stroke="#191970" points="380.2477,-78.1207 370.5831,-73.7795 375.4311,-83.2001 380.2477,-78.1207"/>
</g>
<!-- Node11 -->
<g id="node12" class="node">
<title>Node11</title>
<polygon fill="#ffffff" stroke="#bfbfbf" points="492.8468,-55.5 492.8468,-73.5 532.7482,-73.5 532.7482,-55.5 492.8468,-55.5"/>
<text text-anchor="middle" x="512.7975" y="-61.5" font-family="Helvetica,sans-Serif" font-size="10.00" fill="#000000">bitset</text>
</g>
<!-- Node10&#45;&gt;Node11 -->
<g id="edge15" class="edge">
<title>Node10&#45;&gt;Node11</title>
<path fill="none" stroke="#191970" d="M434.3197,-110.4179C449.015,-101.8195 471.3087,-88.7754 488.3841,-78.7844"/>
<polygon fill="#191970" stroke="#191970" points="490.3887,-81.6667 497.2523,-73.5956 486.8536,-75.6249 490.3887,-81.6667"/>
</g>
<!-- Node12 -->
<g id="node13" class="node">
<title>Node12</title>
<polygon fill="#ffffff" stroke="#bfbfbf" points="439.071,-55.5 439.071,-73.5 474.5241,-73.5 474.5241,-55.5 439.071,-55.5"/>
<text text-anchor="middle" x="456.7975" y="-61.5" font-family="Helvetica,sans-Serif" font-size="10.00" fill="#000000">map</text>
</g>
<!-- Node10&#45;&gt;Node12 -->
<g id="edge17" class="edge">
<title>Node10&#45;&gt;Node12</title>
<path fill="none" stroke="#191970" d="M425.0724,-110.4179C430.3761,-102.7415 438.128,-91.5217 444.6413,-82.0945"/>
<polygon fill="#191970" stroke="#191970" points="447.5815,-83.9963 450.3863,-73.7795 441.8223,-80.0173 447.5815,-83.9963"/>
</g>
<!-- Node10&#45;&gt;Node13 -->
<g id="edge18" class="edge">
<title>Node10&#45;&gt;Node13</title>
<path fill="none" stroke="#191970" d="M447.6952,-110.4179C477.1681,-101.155 523.0579,-86.7325 555.533,-76.526"/>
<polygon fill="#191970" stroke="#191970" points="556.6572,-79.8415 565.1478,-73.5042 554.5584,-73.1636 556.6572,-79.8415"/>
</g>
</g>
</svg>
