<?xml version="1.0" encoding="UTF-8" standalone="no"?>
<!DOCTYPE svg PUBLIC "-//W3C//DTD SVG 1.1//EN"
 "http://www.w3.org/Graphics/SVG/1.1/DTD/svg11.dtd">
<!-- Generated by graphviz version 2.40.1 (20161225.0304)
 -->
<!-- Title: include/indigox/algorithm/electron_assignment/local_optimisation.hpp Pages: 1 -->
<svg width="332pt" height="112pt"
 viewBox="0.00 0.00 331.75 112.00" xmlns="http://www.w3.org/2000/svg" xmlns:xlink="http://www.w3.org/1999/xlink">
<g id="graph0" class="graph" transform="scale(1 1) rotate(0) translate(4 108)">
<title>include/indigox/algorithm/electron_assignment/local_optimisation.hpp</title>
<polygon fill="#ffffff" stroke="transparent" points="-4,4 -4,-108 327.748,-108 327.748,4 -4,4"/>
<!-- Node47 -->
<g id="node1" class="node">
<title>Node47</title>
<polygon fill="#bfbfbf" stroke="#000000" points="83.6157,-65.5 83.6157,-103.5 218.0142,-103.5 218.0142,-65.5 83.6157,-65.5"/>
<text text-anchor="start" x="91.6157" y="-91.5" font-family="Helvetica,sans-Serif" font-size="10.00" fill="#000000">include/indigox/algorithm</text>
<text text-anchor="start" x="91.6157" y="-81.5" font-family="Helvetica,sans-Serif" font-size="10.00" fill="#000000">/electron_assignment/local</text>
<text text-anchor="middle" x="150.8149" y="-71.5" font-family="Helvetica,sans-Serif" font-size="10.00" fill="#000000">_optimisation.hpp</text>
</g>
<!-- Node48 -->
<g id="node2" class="node">
<title>Node48</title>
<g id="a_node2"><a xlink:href="assigner_8cpp.html" target="_top" xlink:title="src/algorithm/electron\l_assignment/assigner.cpp">
<polygon fill="#ffffff" stroke="#000000" points="0,-.5 0,-28.5 131.6299,-28.5 131.6299,-.5 0,-.5"/>
<text text-anchor="start" x="8" y="-16.5" font-family="Helvetica,sans-Serif" font-size="10.00" fill="#000000">src/algorithm/electron</text>
<text text-anchor="middle" x="65.8149" y="-6.5" font-family="Helvetica,sans-Serif" font-size="10.00" fill="#000000">_assignment/assigner.cpp</text>
</a>
</g>
</g>
<!-- Node47&#45;&gt;Node48 -->
<g id="edge1" class="edge">
<title>Node47&#45;&gt;Node48</title>
<path fill="none" stroke="#191970" d="M119.713,-58.8866C107.3505,-48.7057 93.5986,-37.3807 83.08,-28.7183"/>
<polygon fill="#191970" stroke="#191970" points="117.644,-61.7168 127.5883,-65.3722 122.094,-56.3133 117.644,-61.7168"/>
</g>
<!-- Node49 -->
<g id="node3" class="node">
<title>Node49</title>
<g id="a_node3"><a xlink:href="local__optimisation_8cpp.html" target="_top" xlink:title="src/algorithm/electron\l_assignment/local_optimisation.cpp">
<polygon fill="#ffffff" stroke="#000000" points="149.8818,-.5 149.8818,-28.5 323.748,-28.5 323.748,-.5 149.8818,-.5"/>
<text text-anchor="start" x="157.8818" y="-16.5" font-family="Helvetica,sans-Serif" font-size="10.00" fill="#000000">src/algorithm/electron</text>
<text text-anchor="middle" x="236.8149" y="-6.5" font-family="Helvetica,sans-Serif" font-size="10.00" fill="#000000">_assignment/local_optimisation.cpp</text>
</a>
</g>
</g>
<!-- Node47&#45;&gt;Node49 -->
<g id="edge2" class="edge">
<title>Node47&#45;&gt;Node49</title>
<path fill="none" stroke="#191970" d="M182.2828,-58.8866C194.7908,-48.7057 208.7044,-37.3807 219.3468,-28.7183"/>
<polygon fill="#191970" stroke="#191970" points="179.861,-56.345 174.3148,-65.3722 184.2799,-61.7739 179.861,-56.345"/>
</g>
</g>
</svg>
