<?xml version="1.0" encoding="UTF-8" standalone="no"?>
<!DOCTYPE svg PUBLIC "-//W3C//DTD SVG 1.1//EN"
 "http://www.w3.org/Graphics/SVG/1.1/DTD/svg11.dtd">
<!-- Generated by graphviz version 2.40.1 (20161225.0304)
 -->
<!-- Title: src/main.cpp Pages: 1 -->
<!--zoomable 442 -->
<svg id="main" version="1.1" xmlns="http://www.w3.org/2000/svg" xmlns:xlink="http://www.w3.org/1999/xlink" xml:space="preserve" onload="init(evt)">
<style type="text/css"><![CDATA[
.edge:hover path { stroke: red; }
.edge:hover polygon { stroke: red; fill: red; }
]]></style>
<script type="text/javascript"><![CDATA[
var edges = document.getElementsByTagName('g');
if (edges && edges.length) {
  for (var i=0;i<edges.length;i++) {
    if (edges[i].id.substr(0,4)=='edge') {
      edges[i].setAttribute('class','edge');
    }
  }
}
]]></script>
        <defs>
                <circle id="rim" cx="0" cy="0" r="7"/>
                <circle id="rim2" cx="0" cy="0" r="3.5"/>
                <g id="zoomPlus">
                        <use xlink:href="#rim" fill="#404040">
                                <set attributeName="fill" to="#808080" begin="zoomplus.mouseover" end="zoomplus.mouseout"/>
                        </use>
                        <path d="M-4,0h8M0,-4v8" fill="none" stroke="white" stroke-width="1.5" pointer-events="none"/>
                </g>
                <g id="zoomMin">
                        <use xlink:href="#rim" fill="#404040">
                                <set attributeName="fill" to="#808080" begin="zoomminus.mouseover" end="zoomminus.mouseout"/>
                        </use>
                        <path d="M-4,0h8" fill="none" stroke="white" stroke-width="1.5" pointer-events="none"/>
                </g>
                <g id="dirArrow">
                        <path fill="none" stroke="white" stroke-width="1.5" d="M0,-3.0v7 M-2.5,-0.5L0,-3.0L2.5,-0.5"/>
                </g>
               <g id="resetDef">
                       <use xlink:href="#rim2" fill="#404040">
                               <set attributeName="fill" to="#808080" begin="reset.mouseover" end="reset.mouseout"/>
                       </use>
               </g>
        </defs>

<script type="text/javascript">
var viewWidth = 2684;
var viewHeight = 442;
var sectionId = 'dynsection-0';
</script>
<script xlink:href="svgpan.js"/>
<svg id="graph" class="graph">
<g id="viewport">
<title>src/main.cpp</title>
<polygon fill="#ffffff" stroke="transparent" points="-4,4 -4,-438 2680.1426,-438 2680.1426,4 -4,4"/>
<!-- Node0 -->
<g id="node1" class="node">
<title>Node0</title>
<polygon fill="#bfbfbf" stroke="#000000" points="1305.8003,-415.5 1305.8003,-433.5 1378.4849,-433.5 1378.4849,-415.5 1305.8003,-415.5"/>
<text text-anchor="middle" x="1342.1426" y="-421.5" font-family="Helvetica,sans-Serif" font-size="10.00" fill="#000000">src/main.cpp</text>
</g>
<!-- Node1 -->
<g id="node2" class="node">
<title>Node1</title>
<g id="a_node2"><a xlink:href="cherrypicker_8hpp.html" target="_top" xlink:title="indigox/algorithm/cherrypicker.hpp">
<polygon fill="#ffffff" stroke="#000000" points="871.2686,-305.5 871.2686,-323.5 1039.0166,-323.5 1039.0166,-305.5 871.2686,-305.5"/>
<text text-anchor="middle" x="955.1426" y="-311.5" font-family="Helvetica,sans-Serif" font-size="10.00" fill="#000000">indigox/algorithm/cherrypicker.hpp</text>
</a>
</g>
</g>
<!-- Node0&#45;&gt;Node1 -->
<g id="edge1" class="edge">
<title>Node0&#45;&gt;Node1</title>
<path fill="none" stroke="#191970" d="M1310.4727,-415.4982C1240.935,-395.733 1074.9015,-348.54 996.931,-326.3779"/>
<polygon fill="#191970" stroke="#191970" points="997.5541,-322.9164 986.9781,-323.5489 995.6402,-329.6497 997.5541,-322.9164"/>
</g>
<!-- Node2 -->
<g id="node3" class="node">
<title>Node2</title>
<g id="a_node3"><a xlink:href="athenaeum_8hpp.html" target="_top" xlink:title="../classes/athenaeum.hpp">
<polygon fill="#ffffff" stroke="#000000" points="757.1626,-245.5 757.1626,-263.5 887.1226,-263.5 887.1226,-245.5 757.1626,-245.5"/>
<text text-anchor="middle" x="822.1426" y="-251.5" font-family="Helvetica,sans-Serif" font-size="10.00" fill="#000000">../classes/athenaeum.hpp</text>
</a>
</g>
</g>
<!-- Node0&#45;&gt;Node2 -->
<g id="edge59" class="edge">
<title>Node0&#45;&gt;Node2</title>
<path fill="none" stroke="#191970" d="M1305.7559,-420.758C1206.5238,-409.9598 933.8334,-376.1504 862.1426,-324 845.1288,-311.6236 834.2629,-289.6394 828.2155,-273.704"/>
<polygon fill="#191970" stroke="#191970" points="831.3725,-272.1264 824.7823,-263.8307 824.7608,-274.4255 831.3725,-272.1264"/>
</g>
<!-- Node27 -->
<g id="node17" class="node">
<title>Node27</title>
<polygon fill="#ffffff" stroke="#bfbfbf" points="1987.5269,-55.5 1987.5269,-73.5 2030.7583,-73.5 2030.7583,-55.5 1987.5269,-55.5"/>
<text text-anchor="middle" x="2009.1426" y="-61.5" font-family="Helvetica,sans-Serif" font-size="10.00" fill="#000000">vector</text>
</g>
<!-- Node0&#45;&gt;Node27 -->
<g id="edge121" class="edge">
<title>Node0&#45;&gt;Node27</title>
<path fill="none" stroke="#191970" d="M1378.5155,-423.6913C1530.3295,-420.173 2113.9626,-405.1887 2296.1426,-379 2416.553,-361.6908 2562.1426,-436.1481 2562.1426,-314.5 2562.1426,-314.5 2562.1426,-314.5 2562.1426,-254.5 2562.1426,-218.1716 2568.0447,-201.4506 2543.1426,-175 2526.1083,-156.9065 2353.4045,-115.3761 2329.1426,-110 2224.9603,-86.9147 2098.9831,-73.0196 2041.0778,-67.3996"/>
<polygon fill="#191970" stroke="#191970" points="2041.3655,-63.9112 2031.0784,-66.4461 2040.701,-70.8796 2041.3655,-63.9112"/>
</g>
<!-- Node28 -->
<g id="node18" class="node">
<title>Node28</title>
<g id="a_node18"><a xlink:href="forcefield_8hpp.html" target="_top" xlink:title="../classes/forcefield.hpp">
<polygon fill="#ffffff" stroke="#000000" points="1215.894,-245.5 1215.894,-263.5 1336.3911,-263.5 1336.3911,-245.5 1215.894,-245.5"/>
<text text-anchor="middle" x="1276.1426" y="-251.5" font-family="Helvetica,sans-Serif" font-size="10.00" fill="#000000">../classes/forcefield.hpp</text>
</a>
</g>
</g>
<!-- Node0&#45;&gt;Node28 -->
<g id="edge69" class="edge">
<title>Node0&#45;&gt;Node28</title>
<path fill="none" stroke="#191970" d="M1338.5941,-415.3601C1328.164,-388.4945 1297.4538,-309.3926 1283.3608,-273.0924"/>
<polygon fill="#191970" stroke="#191970" points="1286.5905,-271.7405 1279.7086,-263.6851 1280.0651,-274.274 1286.5905,-271.7405"/>
</g>
<!-- Node29 -->
<g id="node19" class="node">
<title>Node29</title>
<g id="a_node19"><a xlink:href="periodictable_8hpp.html" target="_top" xlink:title="periodictable.hpp">
<polygon fill="#ffffff" stroke="#000000" points="1506.0591,-180.5 1506.0591,-198.5 1598.2261,-198.5 1598.2261,-180.5 1506.0591,-180.5"/>
<text text-anchor="middle" x="1552.1426" y="-186.5" font-family="Helvetica,sans-Serif" font-size="10.00" fill="#000000">periodictable.hpp</text>
</a>
</g>
</g>
<!-- Node0&#45;&gt;Node29 -->
<g id="edge92" class="edge">
<title>Node0&#45;&gt;Node29</title>
<path fill="none" stroke="#191970" d="M1345.9406,-415.3013C1358.3171,-386.2554 1400.1162,-295.1604 1459.1426,-240 1476.3678,-223.903 1499.6912,-211.255 1518.6714,-202.6428"/>
<polygon fill="#191970" stroke="#191970" points="1520.1057,-205.8357 1527.8693,-198.6262 1517.3043,-199.4207 1520.1057,-205.8357"/>
</g>
<!-- Node35 -->
<g id="node25" class="node">
<title>Node35</title>
<polygon fill="#ffffff" stroke="#bfbfbf" points="2120.9702,-115.5 2120.9702,-133.5 2175.3149,-133.5 2175.3149,-115.5 2120.9702,-115.5"/>
<text text-anchor="middle" x="2148.1426" y="-121.5" font-family="Helvetica,sans-Serif" font-size="10.00" fill="#000000">iostream</text>
</g>
<!-- Node0&#45;&gt;Node35 -->
<g id="edge120" class="edge">
<title>Node0&#45;&gt;Node35</title>
<path fill="none" stroke="#191970" d="M1378.7501,-421.8718C1510.0516,-412.092 1956.5565,-375.6903 2089.1426,-324 2131.4141,-307.52 2153.3548,-308.7965 2175.1426,-269 2197.7266,-227.7492 2173.8081,-171.0136 2158.6322,-142.4593"/>
<polygon fill="#191970" stroke="#191970" points="2161.632,-140.6518 2153.7194,-133.6061 2155.5112,-144.0483 2161.632,-140.6518"/>
</g>
<!-- Node39 -->
<g id="node29" class="node">
<title>Node39</title>
<g id="a_node29"><a xlink:href="connectivity_8hpp.html" target="_top" xlink:title="indigox/algorithm/graph\l/connectivity.hpp">
<polygon fill="#ffffff" stroke="#000000" points="2459.1675,-110.5 2459.1675,-138.5 2579.1177,-138.5 2579.1177,-110.5 2459.1675,-110.5"/>
<text text-anchor="start" x="2467.1675" y="-126.5" font-family="Helvetica,sans-Serif" font-size="10.00" fill="#000000">indigox/algorithm/graph</text>
<text text-anchor="middle" x="2519.1426" y="-116.5" font-family="Helvetica,sans-Serif" font-size="10.00" fill="#000000">/connectivity.hpp</text>
</a>
</g>
</g>
<!-- Node0&#45;&gt;Node39 -->
<g id="edge46" class="edge">
<title>Node0&#45;&gt;Node39</title>
<path fill="none" stroke="#191970" d="M1378.767,-424.2878C1578.2207,-422.9898 2526.4021,-414.9411 2576.1426,-379 2600.9346,-361.086 2600.1426,-345.0869 2600.1426,-314.5 2600.1426,-314.5 2600.1426,-314.5 2600.1426,-254.5 2600.1426,-217.5917 2596.0436,-206.0833 2576.1426,-175 2568.83,-163.5785 2558.2259,-153.202 2548.1422,-144.8668"/>
<polygon fill="#191970" stroke="#191970" points="2550.2602,-142.0797 2540.2396,-138.6388 2545.9273,-147.5776 2550.2602,-142.0797"/>
</g>
<!-- Node41 -->
<g id="node31" class="node">
<title>Node41</title>
<g id="a_node31"><a xlink:href="paths_8hpp.html" target="_top" xlink:title="indigox/algorithm/graph\l/paths.hpp">
<polygon fill="#ffffff" stroke="#000000" points="1468.1675,-240.5 1468.1675,-268.5 1588.1177,-268.5 1588.1177,-240.5 1468.1675,-240.5"/>
<text text-anchor="start" x="1476.1675" y="-256.5" font-family="Helvetica,sans-Serif" font-size="10.00" fill="#000000">indigox/algorithm/graph</text>
<text text-anchor="middle" x="1528.1426" y="-246.5" font-family="Helvetica,sans-Serif" font-size="10.00" fill="#000000">/paths.hpp</text>
</a>
</g>
</g>
<!-- Node0&#45;&gt;Node41 -->
<g id="edge51" class="edge">
<title>Node0&#45;&gt;Node41</title>
<path fill="none" stroke="#191970" d="M1352.1427,-415.3601C1380.8637,-389.1098 1464.1492,-312.9886 1504.999,-275.6528"/>
<polygon fill="#191970" stroke="#191970" points="1507.5542,-278.059 1512.5744,-268.729 1502.8317,-272.892 1507.5542,-278.059"/>
</g>
<!-- Node42 -->
<g id="node32" class="node">
<title>Node42</title>
<g id="a_node32"><a xlink:href="angle_8hpp.html" target="_top" xlink:title="indigox/classes/angle.hpp">
<polygon fill="#ffffff" stroke="#000000" points="617.8818,-180.5 617.8818,-198.5 748.4033,-198.5 748.4033,-180.5 617.8818,-180.5"/>
<text text-anchor="middle" x="683.1426" y="-186.5" font-family="Helvetica,sans-Serif" font-size="10.00" fill="#000000">indigox/classes/angle.hpp</text>
</a>
</g>
</g>
<!-- Node0&#45;&gt;Node42 -->
<g id="edge55" class="edge">
<title>Node0&#45;&gt;Node42</title>
<path fill="none" stroke="#191970" d="M1305.7347,-422.8132C1210.1919,-418.0934 954.091,-403.4726 873.1426,-379 823.4676,-363.9821 808.3411,-359.1284 770.1426,-324 732.9328,-289.7809 704.7009,-236.3432 691.4581,-208.233"/>
<polygon fill="#191970" stroke="#191970" points="694.4788,-206.4235 687.1291,-198.7925 688.1159,-209.3413 694.4788,-206.4235"/>
</g>
<!-- Node43 -->
<g id="node33" class="node">
<title>Node43</title>
<g id="a_node33"><a xlink:href="atom_8hpp.html" target="_top" xlink:title="indigox/classes/atom.hpp">
<polygon fill="#ffffff" stroke="#000000" points="0,-115.5 0,-133.5 128.2852,-133.5 128.2852,-115.5 0,-115.5"/>
<text text-anchor="middle" x="64.1426" y="-121.5" font-family="Helvetica,sans-Serif" font-size="10.00" fill="#000000">indigox/classes/atom.hpp</text>
</a>
</g>
</g>
<!-- Node0&#45;&gt;Node43 -->
<g id="edge60" class="edge">
<title>Node0&#45;&gt;Node43</title>
<path fill="none" stroke="#191970" d="M1305.6137,-423.3192C1096.8529,-416.337 64.1426,-378.5597 64.1426,-314.5 64.1426,-314.5 64.1426,-314.5 64.1426,-254.5 64.1426,-215.1604 64.1426,-169.1244 64.1426,-143.7485"/>
<polygon fill="#191970" stroke="#191970" points="67.6427,-143.6414 64.1426,-133.6414 60.6427,-143.6414 67.6427,-143.6414"/>
</g>
<!-- Node45 -->
<g id="node35" class="node">
<title>Node45</title>
<g id="a_node35"><a xlink:href="bond_8hpp.html" target="_top" xlink:title="indigox/classes/bond.hpp">
<polygon fill="#ffffff" stroke="#000000" points="765.9927,-180.5 765.9927,-198.5 894.2925,-198.5 894.2925,-180.5 765.9927,-180.5"/>
<text text-anchor="middle" x="830.1426" y="-186.5" font-family="Helvetica,sans-Serif" font-size="10.00" fill="#000000">indigox/classes/bond.hpp</text>
</a>
</g>
</g>
<!-- Node0&#45;&gt;Node45 -->
<g id="edge65" class="edge">
<title>Node0&#45;&gt;Node45</title>
<path fill="none" stroke="#191970" d="M1305.6127,-421.9334C1221.3394,-415.7447 1015.4727,-399.0212 949.1426,-379 851.6509,-349.573 798.5981,-357.4579 748.1426,-269 741.7567,-257.8043 741.8573,-251.2525 748.1426,-240 757.6844,-222.9175 775.6392,-210.8997 792.3207,-202.886"/>
<polygon fill="#191970" stroke="#191970" points="794.2033,-205.8796 801.9223,-198.6223 791.3624,-199.482 794.2033,-205.8796"/>
</g>
<!-- Node46 -->
<g id="node36" class="node">
<title>Node46</title>
<g id="a_node36"><a xlink:href="molecule_8hpp.html" target="_top" xlink:title="indigox/classes/molecule.hpp">
<polygon fill="#ffffff" stroke="#000000" points="2318.106,-245.5 2318.106,-263.5 2464.1792,-263.5 2464.1792,-245.5 2318.106,-245.5"/>
<text text-anchor="middle" x="2391.1426" y="-251.5" font-family="Helvetica,sans-Serif" font-size="10.00" fill="#000000">indigox/classes/molecule.hpp</text>
</a>
</g>
</g>
<!-- Node0&#45;&gt;Node46 -->
<g id="edge70" class="edge">
<title>Node0&#45;&gt;Node46</title>
<path fill="none" stroke="#191970" d="M1378.5278,-424.2453C1539.5807,-422.9117 2183.974,-415.33 2266.1426,-379 2318.2404,-355.9655 2360.6131,-300.6926 2379.8956,-272.1786"/>
<polygon fill="#191970" stroke="#191970" points="2382.9549,-273.8967 2385.5304,-263.6197 2377.1081,-270.0475 2382.9549,-273.8967"/>
</g>
<!-- Node49 -->
<g id="node39" class="node">
<title>Node49</title>
<g id="a_node39"><a xlink:href="parameterised_8hpp.html" target="_top" xlink:title="indigox/classes/parameterised.hpp">
<polygon fill="#ffffff" stroke="#000000" points="1028.1553,-245.5 1028.1553,-263.5 1198.1299,-263.5 1198.1299,-245.5 1028.1553,-245.5"/>
<text text-anchor="middle" x="1113.1426" y="-251.5" font-family="Helvetica,sans-Serif" font-size="10.00" fill="#000000">indigox/classes/parameterised.hpp</text>
</a>
</g>
</g>
<!-- Node0&#45;&gt;Node49 -->
<g id="edge77" class="edge">
<title>Node0&#45;&gt;Node49</title>
<path fill="none" stroke="#191970" d="M1329.8305,-415.3601C1292.4761,-387.6297 1180.1535,-304.2461 1133.6491,-269.7232"/>
<polygon fill="#191970" stroke="#191970" points="1135.6311,-266.8355 1125.5155,-263.6851 1131.4586,-272.4561 1135.6311,-266.8355"/>
</g>
<!-- Node53 -->
<g id="node43" class="node">
<title>Node53</title>
<g id="a_node43"><a xlink:href="molecular_8hpp.html" target="_top" xlink:title="indigox/graph/molecular.hpp">
<polygon fill="#ffffff" stroke="#000000" points="1626.5986,-360.5 1626.5986,-378.5 1767.6865,-378.5 1767.6865,-360.5 1626.5986,-360.5"/>
<text text-anchor="middle" x="1697.1426" y="-366.5" font-family="Helvetica,sans-Serif" font-size="10.00" fill="#000000">indigox/graph/molecular.hpp</text>
</a>
</g>
</g>
<!-- Node0&#45;&gt;Node53 -->
<g id="edge93" class="edge">
<title>Node0&#45;&gt;Node53</title>
<path fill="none" stroke="#191970" d="M1378.7967,-418.8212C1437.5917,-409.7121 1553.9286,-391.6881 1628.5023,-380.1344"/>
<polygon fill="#191970" stroke="#191970" points="1629.3913,-383.5385 1638.7375,-378.5487 1628.3195,-376.621 1629.3913,-383.5385"/>
</g>
<!-- Node1&#45;&gt;Node2 -->
<g id="edge2" class="edge">
<title>Node1&#45;&gt;Node2</title>
<path fill="none" stroke="#191970" d="M934.9427,-305.3873C912.6477,-295.3294 876.5686,-279.0531 851.2307,-267.6225"/>
<polygon fill="#191970" stroke="#191970" points="852.6514,-264.4237 842.0967,-263.5019 849.7728,-270.8045 852.6514,-264.4237"/>
</g>
<!-- Node3 -->
<g id="node4" class="node">
<title>Node3</title>
<g id="a_node4"><a xlink:href="fwd__declares_8hpp.html" target="_top" xlink:title="../utils/fwd_declares.hpp">
<polygon fill="#ffffff" stroke="#000000" points="1088.5024,-55.5 1088.5024,-73.5 1211.7827,-73.5 1211.7827,-55.5 1088.5024,-55.5"/>
<text text-anchor="middle" x="1150.1426" y="-61.5" font-family="Helvetica,sans-Serif" font-size="10.00" fill="#000000">../utils/fwd_declares.hpp</text>
</a>
</g>
</g>
<!-- Node1&#45;&gt;Node3 -->
<g id="edge42" class="edge">
<title>Node1&#45;&gt;Node3</title>
<path fill="none" stroke="#191970" d="M962.314,-305.3059C991.1639,-268.3188 1099.0092,-130.0556 1136.8879,-81.4932"/>
<polygon fill="#191970" stroke="#191970" points="1139.721,-83.5517 1143.1116,-73.5141 1134.2015,-79.2465 1139.721,-83.5517"/>
</g>
<!-- Node4 -->
<g id="node5" class="node">
<title>Node4</title>
<polygon fill="#ffffff" stroke="#bfbfbf" points="1826.6919,-.5 1826.6919,-18.5 1871.5933,-18.5 1871.5933,-.5 1826.6919,-.5"/>
<text text-anchor="middle" x="1849.1426" y="-6.5" font-family="Helvetica,sans-Serif" font-size="10.00" fill="#000000">cstdint</text>
</g>
<!-- Node1&#45;&gt;Node4 -->
<g id="edge43" class="edge">
<title>Node1&#45;&gt;Node4</title>
<path fill="none" stroke="#191970" d="M1039.309,-307.9363C1118.6231,-300.9838 1240.5695,-288.3125 1345.1426,-269 1396.5535,-259.5054 1408.409,-252.6229 1459.1426,-240 1524.8355,-223.6551 1544.6425,-230.0088 1607.1426,-204 1701.9473,-164.548 1724.9471,-146.0195 1798.1426,-74 1812.8592,-59.5198 1827.2249,-40.8148 1836.9392,-27.28"/>
<polygon fill="#191970" stroke="#191970" points="1839.9775,-29.044 1842.8685,-18.8512 1834.2522,-25.0165 1839.9775,-29.044"/>
</g>
<!-- Node7 -->
<g id="node8" class="node">
<title>Node7</title>
<polygon fill="#ffffff" stroke="#bfbfbf" points="502.0762,-55.5 502.0762,-73.5 564.209,-73.5 564.209,-55.5 502.0762,-55.5"/>
<text text-anchor="middle" x="533.1426" y="-61.5" font-family="Helvetica,sans-Serif" font-size="10.00" fill="#000000">type_traits</text>
</g>
<!-- Node1&#45;&gt;Node7 -->
<g id="edge45" class="edge">
<title>Node1&#45;&gt;Node7</title>
<path fill="none" stroke="#191970" d="M871.0723,-307.6936C690.0142,-292.1836 276.1948,-251.8333 235.1426,-204 226.7484,-194.2193 226.902,-184.9104 235.1426,-175 291.2102,-107.5709 348.4581,-173.3553 429.1426,-139 463.1155,-124.5344 496.8243,-97.4376 516.2843,-80.2161"/>
<polygon fill="#191970" stroke="#191970" points="518.6377,-82.8068 523.7111,-73.5056 513.9447,-77.6128 518.6377,-82.8068"/>
</g>
<!-- Node1&#45;&gt;Node28 -->
<g id="edge22" class="edge">
<title>Node1&#45;&gt;Node28</title>
<path fill="none" stroke="#191970" d="M1007.8335,-305.4367C1058.8735,-296.551 1138.4206,-282.422 1207.1426,-269 1212.6239,-267.9295 1218.3431,-266.7799 1224.0412,-265.6136"/>
<polygon fill="#191970" stroke="#191970" points="1225.135,-268.9615 1234.2193,-263.5094 1223.7178,-262.1065 1225.135,-268.9615"/>
</g>
<!-- Node37 -->
<g id="node27" class="node">
<title>Node37</title>
<g id="a_node27"><a xlink:href="enum__class__bitwise_8hpp.html" target="_top" xlink:title="../utils/enum_class\l_bitwise.hpp">
<polygon fill="#ffffff" stroke="#000000" points="322.0146,-110.5 322.0146,-138.5 420.2705,-138.5 420.2705,-110.5 322.0146,-110.5"/>
<text text-anchor="start" x="330.0146" y="-126.5" font-family="Helvetica,sans-Serif" font-size="10.00" fill="#000000">../utils/enum_class</text>
<text text-anchor="middle" x="371.1426" y="-116.5" font-family="Helvetica,sans-Serif" font-size="10.00" fill="#000000">_bitwise.hpp</text>
</a>
</g>
</g>
<!-- Node1&#45;&gt;Node37 -->
<g id="edge40" class="edge">
<title>Node1&#45;&gt;Node37</title>
<path fill="none" stroke="#191970" d="M871.0838,-313.5489C693.6227,-310.9119 292.6788,-301.4027 240.1426,-269 201.7885,-245.3444 175.2238,-211.1386 202.1426,-175 215.507,-157.0581 268.6726,-143.1457 311.8506,-134.5081"/>
<polygon fill="#191970" stroke="#191970" points="312.5871,-137.9305 321.7352,-132.5862 311.251,-131.0592 312.5871,-137.9305"/>
</g>
<!-- Node38 -->
<g id="node28" class="node">
<title>Node38</title>
<polygon fill="#ffffff" stroke="#bfbfbf" points="904.6426,-245.5 904.6426,-263.5 933.6426,-263.5 933.6426,-245.5 904.6426,-245.5"/>
<text text-anchor="middle" x="918.7534" y="-251.5" font-family="Helvetica,sans-Serif" font-size="10.00" fill="#000000">list</text>
</g>
<!-- Node1&#45;&gt;Node38 -->
<g id="edge44" class="edge">
<title>Node1&#45;&gt;Node38</title>
<path fill="none" stroke="#191970" d="M949.675,-305.3873C944.4416,-296.665 936.4023,-283.2663 929.8866,-272.4067"/>
<polygon fill="#191970" stroke="#191970" points="932.8079,-270.4727 924.6617,-263.6985 926.8054,-274.0742 932.8079,-270.4727"/>
</g>
<!-- Node2&#45;&gt;Node3 -->
<g id="edge3" class="edge">
<title>Node2&#45;&gt;Node3</title>
<path fill="none" stroke="#191970" d="M838.0039,-245.3214C854.5808,-235.5658 881.1848,-219.4458 903.1426,-204 958.2689,-165.2224 963.1584,-142.6111 1022.1426,-110 1048.3811,-95.4933 1080.1245,-84.1741 1105.4352,-76.454"/>
<polygon fill="#191970" stroke="#191970" points="1106.5564,-79.7722 1115.1467,-73.5708 1104.5641,-73.0617 1106.5564,-79.7722"/>
</g>
<!-- Node6 -->
<g id="node7" class="node">
<title>Node6</title>
<g id="a_node7"><a xlink:href="quad_8hpp.html" target="_top" xlink:title="../utils/quad.hpp">
<polygon fill="#ffffff" stroke="#000000" points="409.8398,-180.5 409.8398,-198.5 496.4453,-198.5 496.4453,-180.5 409.8398,-180.5"/>
<text text-anchor="middle" x="453.1426" y="-186.5" font-family="Helvetica,sans-Serif" font-size="10.00" fill="#000000">../utils/quad.hpp</text>
</a>
</g>
</g>
<!-- Node2&#45;&gt;Node6 -->
<g id="edge6" class="edge">
<title>Node2&#45;&gt;Node6</title>
<path fill="none" stroke="#191970" d="M757.0793,-246.3438C692.7124,-237.7572 591.5758,-222.8711 505.1426,-204 501.2368,-203.1472 497.1888,-202.1761 493.1546,-201.1497"/>
<polygon fill="#191970" stroke="#191970" points="493.8066,-197.7016 483.2434,-198.5203 492.0116,-204.4676 493.8066,-197.7016"/>
</g>
<!-- Node23 -->
<g id="node13" class="node">
<title>Node23</title>
<g id="a_node13"><a xlink:href="triple_8hpp.html" target="_top" xlink:title="../utils/triple.hpp">
<polygon fill="#ffffff" stroke="#000000" points="514.1255,-180.5 514.1255,-198.5 600.1597,-198.5 600.1597,-180.5 514.1255,-180.5"/>
<text text-anchor="middle" x="557.1426" y="-186.5" font-family="Helvetica,sans-Serif" font-size="10.00" fill="#000000">../utils/triple.hpp</text>
</a>
</g>
</g>
<!-- Node2&#45;&gt;Node23 -->
<g id="edge14" class="edge">
<title>Node2&#45;&gt;Node23</title>
<path fill="none" stroke="#191970" d="M781.9847,-245.4723C739.0778,-235.7116 669.1274,-219.4678 609.1426,-204 605.7266,-203.1191 602.1909,-202.1838 598.6447,-201.2291"/>
<polygon fill="#191970" stroke="#191970" points="599.2818,-197.775 588.7129,-198.5164 597.4373,-204.5277 599.2818,-197.775"/>
</g>
<!-- Node24 -->
<g id="node14" class="node">
<title>Node24</title>
<polygon fill="#ffffff" stroke="#bfbfbf" points="244.1724,-175.5 244.1724,-203.5 354.1128,-203.5 354.1128,-175.5 244.1724,-175.5"/>
<text text-anchor="start" x="252.1724" y="-191.5" font-family="Helvetica,sans-Serif" font-size="10.00" fill="#000000">boost/dynamic_bitset</text>
<text text-anchor="middle" x="299.1426" y="-181.5" font-family="Helvetica,sans-Serif" font-size="10.00" fill="#000000">_fwd.hpp</text>
</g>
<!-- Node2&#45;&gt;Node24 -->
<g id="edge18" class="edge">
<title>Node2&#45;&gt;Node24</title>
<path fill="none" stroke="#191970" d="M756.8442,-249.2276C668.4021,-241.6331 505.765,-226.0618 368.1426,-204 366.8848,-203.7984 365.6153,-203.5892 364.3371,-203.3734"/>
<polygon fill="#191970" stroke="#191970" points="364.876,-199.9143 354.4169,-201.6049 363.6475,-206.8057 364.876,-199.9143"/>
</g>
<!-- Node25 -->
<g id="node15" class="node">
<title>Node25</title>
<polygon fill="#ffffff" stroke="#bfbfbf" points="1392.5786,-55.5 1392.5786,-73.5 1449.7065,-73.5 1449.7065,-55.5 1392.5786,-55.5"/>
<text text-anchor="middle" x="1421.1426" y="-61.5" font-family="Helvetica,sans-Serif" font-size="10.00" fill="#000000">algorithm</text>
</g>
<!-- Node2&#45;&gt;Node25 -->
<g id="edge19" class="edge">
<title>Node2&#45;&gt;Node25</title>
<path fill="none" stroke="#191970" d="M850.6306,-245.4637C948.4812,-214.426 1270.9473,-112.1412 1382.6482,-76.7102"/>
<polygon fill="#191970" stroke="#191970" points="1384.0064,-79.9514 1392.4801,-73.5916 1381.8899,-73.279 1384.0064,-79.9514"/>
</g>
<!-- Node26 -->
<g id="node16" class="node">
<title>Node26</title>
<polygon fill="#ffffff" stroke="#bfbfbf" points="1730.416,-180.5 1730.416,-198.5 1765.8691,-198.5 1765.8691,-180.5 1730.416,-180.5"/>
<text text-anchor="middle" x="1748.1426" y="-186.5" font-family="Helvetica,sans-Serif" font-size="10.00" fill="#000000">map</text>
</g>
<!-- Node2&#45;&gt;Node26 -->
<g id="edge20" class="edge">
<title>Node2&#45;&gt;Node26</title>
<path fill="none" stroke="#191970" d="M862.6875,-245.472C873.5081,-243.3601 885.2275,-241.3388 896.1426,-240 1210.194,-201.4811 1291.664,-228.1918 1607.1426,-204 1646.5223,-200.9802 1691.9449,-196.0476 1720.3552,-192.7876"/>
<polygon fill="#191970" stroke="#191970" points="1720.8322,-196.2558 1730.3627,-191.6275 1720.0261,-189.3024 1720.8322,-196.2558"/>
</g>
<!-- Node2&#45;&gt;Node27 -->
<g id="edge21" class="edge">
<title>Node2&#45;&gt;Node27</title>
<path fill="none" stroke="#191970" d="M860.7167,-245.4764C932.8429,-228.9413 1093.2254,-193.7638 1230.1426,-175 1329.0941,-161.4392 1586.1728,-177.9469 1678.1426,-139 1696.1221,-131.3861 1693.446,-118.2501 1711.1426,-110 1757.985,-88.1621 1909.9241,-72.9378 1976.9135,-67.1206"/>
<polygon fill="#191970" stroke="#191970" points="1977.6123,-70.5738 1987.2788,-66.237 1977.0177,-63.5991 1977.6123,-70.5738"/>
</g>
<!-- Node3&#45;&gt;Node4 -->
<g id="edge4" class="edge">
<title>Node3&#45;&gt;Node4</title>
<path fill="none" stroke="#191970" d="M1211.8675,-59.6432C1355.3887,-48.3504 1707.6014,-20.637 1816.5128,-12.0674"/>
<polygon fill="#191970" stroke="#191970" points="1816.8723,-15.5501 1826.5669,-11.2763 1816.3231,-8.5716 1816.8723,-15.5501"/>
</g>
<!-- Node5 -->
<g id="node6" class="node">
<title>Node5</title>
<polygon fill="#ffffff" stroke="#bfbfbf" points="649.0859,-.5 649.0859,-18.5 701.1992,-18.5 701.1992,-.5 649.0859,-.5"/>
<text text-anchor="middle" x="675.1426" y="-6.5" font-family="Helvetica,sans-Serif" font-size="10.00" fill="#000000">memory</text>
</g>
<!-- Node3&#45;&gt;Node5 -->
<g id="edge5" class="edge">
<title>Node3&#45;&gt;Node5</title>
<path fill="none" stroke="#191970" d="M1088.0446,-57.3097C987.5658,-45.6753 792.4507,-23.083 711.5988,-13.7212"/>
<polygon fill="#191970" stroke="#191970" points="711.7546,-10.216 701.4184,-12.5425 710.9494,-17.1695 711.7546,-10.216"/>
</g>
<!-- Node6&#45;&gt;Node7 -->
<g id="edge7" class="edge">
<title>Node6&#45;&gt;Node7</title>
<path fill="none" stroke="#191970" d="M459.1556,-180.1047C472.4827,-159.281 504.681,-108.9713 521.8762,-82.1036"/>
<polygon fill="#191970" stroke="#191970" points="524.8346,-83.9741 527.2772,-73.6646 518.9387,-80.2007 524.8346,-83.9741"/>
</g>
<!-- Node8 -->
<g id="node9" class="node">
<title>Node8</title>
<polygon fill="#ffffff" stroke="#bfbfbf" points="513.751,-115.5 513.751,-133.5 552.5342,-133.5 552.5342,-115.5 513.751,-115.5"/>
<text text-anchor="middle" x="533.1426" y="-121.5" font-family="Helvetica,sans-Serif" font-size="10.00" fill="#000000">utility</text>
</g>
<!-- Node6&#45;&gt;Node8 -->
<g id="edge8" class="edge">
<title>Node6&#45;&gt;Node8</title>
<path fill="none" stroke="#191970" d="M464.2662,-180.462C477.0899,-170.0428 498.3919,-152.7349 513.916,-140.1216"/>
<polygon fill="#191970" stroke="#191970" points="516.3014,-142.6931 521.8555,-133.6708 511.8872,-137.2603 516.3014,-142.6931"/>
</g>
<!-- Node9 -->
<g id="node10" class="node">
<title>Node9</title>
<g id="a_node10"><a xlink:href="serialise_8hpp.html" target="_top" xlink:title="serialise.hpp">
<polygon fill="#ffffff" stroke="#ff0000" points="728.0713,-115.5 728.0713,-133.5 800.2139,-133.5 800.2139,-115.5 728.0713,-115.5"/>
<text text-anchor="middle" x="764.1426" y="-121.5" font-family="Helvetica,sans-Serif" font-size="10.00" fill="#000000">serialise.hpp</text>
</a>
</g>
</g>
<!-- Node6&#45;&gt;Node9 -->
<g id="edge9" class="edge">
<title>Node6&#45;&gt;Node9</title>
<path fill="none" stroke="#191970" d="M484.1097,-180.4307C491.0066,-178.5323 498.3022,-176.6179 505.1426,-175 579.1209,-157.5027 666.0147,-141.4708 717.9983,-132.3562"/>
<polygon fill="#191970" stroke="#191970" points="718.6651,-135.7929 727.9153,-130.6272 717.4628,-128.8969 718.6651,-135.7929"/>
</g>
<!-- Node9&#45;&gt;Node3 -->
<g id="edge10" class="edge">
<title>Node9&#45;&gt;Node3</title>
<path fill="none" stroke="#191970" d="M792.5151,-115.4845C799.5329,-113.4732 807.0685,-111.4962 814.1426,-110 904.2551,-90.9413 1009.7326,-78.1827 1078.1297,-71.1426"/>
<polygon fill="#191970" stroke="#191970" points="1078.7676,-74.5959 1088.3628,-70.1036 1078.0604,-67.6317 1078.7676,-74.5959"/>
</g>
<!-- Node9&#45;&gt;Node7 -->
<g id="edge13" class="edge">
<title>Node9&#45;&gt;Node7</title>
<path fill="none" stroke="#191970" d="M729.3094,-115.4524C687.799,-104.6705 618.5231,-86.6768 574.3782,-75.2105"/>
<polygon fill="#191970" stroke="#191970" points="575.1034,-71.7828 564.5447,-72.6564 573.3436,-78.558 575.1034,-71.7828"/>
</g>
<!-- Node10 -->
<g id="node11" class="node">
<title>Node10</title>
<polygon fill="#ffffff" stroke="#bfbfbf" points="721.8423,-55.5 721.8423,-73.5 818.4429,-73.5 818.4429,-55.5 721.8423,-55.5"/>
<text text-anchor="middle" x="770.1426" y="-61.5" font-family="Helvetica,sans-Serif" font-size="10.00" fill="#000000">cereal/access.hpp</text>
</g>
<!-- Node9&#45;&gt;Node10 -->
<g id="edge11" class="edge">
<title>Node9&#45;&gt;Node10</title>
<path fill="none" stroke="#191970" d="M765.0538,-115.3873C765.8908,-107.0174 767.1584,-94.3414 768.2191,-83.735"/>
<polygon fill="#191970" stroke="#191970" points="771.7102,-83.9971 769.2227,-73.6985 764.745,-83.3005 771.7102,-83.9971"/>
</g>
<!-- Node11 -->
<g id="node12" class="node">
<title>Node11</title>
<polygon fill="#ffffff" stroke="#bfbfbf" points="836.2241,-55.5 836.2241,-73.5 960.061,-73.5 960.061,-55.5 836.2241,-55.5"/>
<text text-anchor="middle" x="898.1426" y="-61.5" font-family="Helvetica,sans-Serif" font-size="10.00" fill="#000000">cereal/archives/json.hpp</text>
</g>
<!-- Node9&#45;&gt;Node11 -->
<g id="edge12" class="edge">
<title>Node9&#45;&gt;Node11</title>
<path fill="none" stroke="#191970" d="M784.4943,-115.3873C806.957,-105.3294 843.3073,-89.0531 868.8357,-77.6225"/>
<polygon fill="#191970" stroke="#191970" points="870.3419,-80.783 878.0384,-73.5019 867.4812,-74.3942 870.3419,-80.783"/>
</g>
<!-- Node23&#45;&gt;Node7 -->
<g id="edge15" class="edge">
<title>Node23&#45;&gt;Node7</title>
<path fill="none" stroke="#191970" d="M559.4465,-180.4661C562.8594,-165.4932 568.143,-134.7327 561.1426,-110 558.2795,-99.8845 552.4629,-89.8071 546.8694,-81.7169"/>
<polygon fill="#191970" stroke="#191970" points="549.5772,-79.4919 540.8182,-73.5311 543.9482,-83.653 549.5772,-79.4919"/>
</g>
<!-- Node23&#45;&gt;Node8 -->
<g id="edge16" class="edge">
<title>Node23&#45;&gt;Node8</title>
<path fill="none" stroke="#191970" d="M553.8055,-180.462C550.2989,-170.9651 544.6791,-155.7449 540.185,-143.5732"/>
<polygon fill="#191970" stroke="#191970" points="543.3539,-142.0508 536.6068,-133.8821 536.7872,-144.4754 543.3539,-142.0508"/>
</g>
<!-- Node23&#45;&gt;Node9 -->
<g id="edge17" class="edge">
<title>Node23&#45;&gt;Node9</title>
<path fill="none" stroke="#191970" d="M585.925,-180.462C622.2809,-169.0459 684.9735,-149.3599 725.4807,-136.6402"/>
<polygon fill="#191970" stroke="#191970" points="726.7795,-139.9009 735.2716,-133.5658 724.6824,-133.2224 726.7795,-139.9009"/>
</g>
<!-- Node28&#45;&gt;Node3 -->
<g id="edge23" class="edge">
<title>Node28&#45;&gt;Node3</title>
<path fill="none" stroke="#191970" d="M1265.6102,-245.394C1245.156,-227.1758 1199.8188,-184.1025 1174.1426,-139 1164.1887,-121.5152 1157.7206,-99.3346 1154.0358,-83.739"/>
<polygon fill="#191970" stroke="#191970" points="1157.3967,-82.7254 1151.8346,-73.708 1150.5594,-84.2258 1157.3967,-82.7254"/>
</g>
<!-- Node28&#45;&gt;Node5 -->
<g id="edge38" class="edge">
<title>Node28&#45;&gt;Node5</title>
<path fill="none" stroke="#191970" d="M1238.7288,-245.4827C1228.5395,-243.3437 1217.4649,-241.3063 1207.1426,-240 1029.2716,-217.49 569.6696,-265.1836 401.1426,-204 381.1727,-196.75 380.2093,-187.6525 363.1426,-175 341.1453,-158.6922 325.6266,-163.3717 313.1426,-139 307.2665,-127.5285 305.4751,-120.3602 313.1426,-110 352.3522,-57.0201 555.2765,-25.054 638.9794,-13.9429"/>
<polygon fill="#191970" stroke="#191970" points="639.579,-17.3944 649.0429,-12.6316 638.6745,-10.4531 639.579,-17.3944"/>
</g>
<!-- Node28&#45;&gt;Node26 -->
<g id="edge37" class="edge">
<title>Node28&#45;&gt;Node26</title>
<path fill="none" stroke="#191970" d="M1336.6325,-248.413C1415.4901,-240.1319 1557.5786,-224.0273 1678.1426,-204 1692.1073,-201.6803 1707.5243,-198.5491 1720.3271,-195.7902"/>
<polygon fill="#191970" stroke="#191970" points="1721.3593,-199.1471 1730.3775,-193.5861 1719.8598,-192.3095 1721.3593,-199.1471"/>
</g>
<!-- Node28&#45;&gt;Node27 -->
<g id="edge39" class="edge">
<title>Node28&#45;&gt;Node27</title>
<path fill="none" stroke="#191970" d="M1336.5883,-248.6315C1403.4475,-241.3668 1514.0389,-227.0513 1607.1426,-204 1681.0682,-185.6969 1896.6779,-106.3877 1977.795,-76.2132"/>
<polygon fill="#191970" stroke="#191970" points="1979.2938,-79.3899 1987.4434,-72.6197 1976.8506,-72.8301 1979.2938,-79.3899"/>
</g>
<!-- Node28&#45;&gt;Node29 -->
<g id="edge24" class="edge">
<title>Node28&#45;&gt;Node29</title>
<path fill="none" stroke="#191970" d="M1314.5192,-245.462C1363.918,-233.8283 1449.7843,-213.6061 1503.6503,-200.9203"/>
<polygon fill="#191970" stroke="#191970" points="1504.7166,-204.265 1513.648,-198.5658 1503.1119,-197.4514 1504.7166,-204.265"/>
</g>
<!-- Node36 -->
<g id="node26" class="node">
<title>Node36</title>
<polygon fill="#ffffff" stroke="#bfbfbf" points="1291.793,-180.5 1291.793,-198.5 1374.4922,-198.5 1374.4922,-180.5 1291.793,-180.5"/>
<text text-anchor="middle" x="1333.1426" y="-186.5" font-family="Helvetica,sans-Serif" font-size="10.00" fill="#000000">EASTL/bitset.h</text>
</g>
<!-- Node28&#45;&gt;Node36 -->
<g id="edge36" class="edge">
<title>Node28&#45;&gt;Node36</title>
<path fill="none" stroke="#191970" d="M1284.0682,-245.462C1292.8169,-235.4854 1307.1042,-219.1929 1318.0126,-206.7535"/>
<polygon fill="#191970" stroke="#191970" points="1320.9534,-208.7084 1324.9152,-198.8821 1315.6904,-204.0931 1320.9534,-208.7084"/>
</g>
<!-- Node29&#45;&gt;Node3 -->
<g id="edge31" class="edge">
<title>Node29&#45;&gt;Node3</title>
<path fill="none" stroke="#191970" d="M1516.3735,-180.4687C1508.4177,-178.5681 1500.0102,-176.6432 1492.1426,-175 1402.0196,-156.1773 1374.3383,-171.3533 1288.1426,-139 1264.8076,-130.2413 1261.9465,-122.0757 1240.1426,-110 1219.7242,-98.6917 1196.1652,-86.8222 1178.2737,-78.0426"/>
<polygon fill="#191970" stroke="#191970" points="1179.4952,-74.7443 1168.9729,-73.5062 1176.4265,-81.0359 1179.4952,-74.7443"/>
</g>
<!-- Node29&#45;&gt;Node4 -->
<g id="edge34" class="edge">
<title>Node29&#45;&gt;Node4</title>
<path fill="none" stroke="#191970" d="M1580.911,-180.4318C1607.1176,-171.6061 1646.4491,-156.9231 1678.1426,-139 1738.5876,-104.8175 1801.7024,-51.7244 1831.5281,-25.4053"/>
<polygon fill="#191970" stroke="#191970" points="1833.8852,-27.9929 1839.0278,-18.7299 1829.2311,-22.7641 1833.8852,-27.9929"/>
</g>
<!-- Node30 -->
<g id="node20" class="node">
<title>Node30</title>
<g id="a_node20"><a xlink:href="common_8hpp.html" target="_top" xlink:title="../utils/common.hpp">
<polygon fill="#ffffff" stroke="#000000" points="1443.7905,-115.5 1443.7905,-133.5 1546.4946,-133.5 1546.4946,-115.5 1443.7905,-115.5"/>
<text text-anchor="middle" x="1495.1426" y="-121.5" font-family="Helvetica,sans-Serif" font-size="10.00" fill="#000000">../utils/common.hpp</text>
</a>
</g>
</g>
<!-- Node29&#45;&gt;Node30 -->
<g id="edge25" class="edge">
<title>Node29&#45;&gt;Node30</title>
<path fill="none" stroke="#191970" d="M1544.217,-180.462C1535.4683,-170.4854 1521.181,-154.1929 1510.2726,-141.7535"/>
<polygon fill="#191970" stroke="#191970" points="1512.5948,-139.0931 1503.37,-133.8821 1507.3317,-143.7084 1512.5948,-139.0931"/>
</g>
<!-- Node33 -->
<g id="node23" class="node">
<title>Node33</title>
<polygon fill="#ffffff" stroke="#bfbfbf" points="1953.6206,-115.5 1953.6206,-133.5 2064.6646,-133.5 2064.6646,-115.5 1953.6206,-115.5"/>
<text text-anchor="middle" x="2009.1426" y="-121.5" font-family="Helvetica,sans-Serif" font-size="10.00" fill="#000000">EASTL/vector_map.h</text>
</g>
<!-- Node29&#45;&gt;Node33 -->
<g id="edge32" class="edge">
<title>Node29&#45;&gt;Node33</title>
<path fill="none" stroke="#191970" d="M1586.5864,-180.4857C1594.9148,-178.4977 1603.8161,-176.5309 1612.1426,-175 1727.8961,-153.7184 1864.2859,-138.4896 1943.3201,-130.6215"/>
<polygon fill="#191970" stroke="#191970" points="1944.0035,-134.0711 1953.6116,-129.6063 1943.3162,-127.1049 1944.0035,-134.0711"/>
</g>
<!-- Node34 -->
<g id="node24" class="node">
<title>Node34</title>
<polygon fill="#ffffff" stroke="#bfbfbf" points="893.751,-115.5 893.751,-133.5 932.5342,-133.5 932.5342,-115.5 893.751,-115.5"/>
<text text-anchor="middle" x="913.1426" y="-121.5" font-family="Helvetica,sans-Serif" font-size="10.00" fill="#000000">array</text>
</g>
<!-- Node29&#45;&gt;Node34 -->
<g id="edge33" class="edge">
<title>Node29&#45;&gt;Node34</title>
<path fill="none" stroke="#191970" d="M1505.8494,-182.128C1489.5333,-179.6683 1471.0473,-177.0381 1454.1426,-175 1259.6465,-151.5508 1024.6819,-132.9131 942.9054,-126.7123"/>
<polygon fill="#191970" stroke="#191970" points="943.0695,-123.2149 932.8346,-125.953 942.5431,-130.195 943.0695,-123.2149"/>
</g>
<!-- Node29&#45;&gt;Node35 -->
<g id="edge35" class="edge">
<title>Node29&#45;&gt;Node35</title>
<path fill="none" stroke="#191970" d="M1598.2417,-185.6193C1708.0456,-176.2822 1982.6981,-152.3502 2074.1426,-139 2086.1657,-137.2447 2099.1976,-134.8563 2110.9264,-132.5245"/>
<polygon fill="#191970" stroke="#191970" points="2111.7387,-135.931 2120.84,-130.5073 2110.3429,-129.0716 2111.7387,-135.931"/>
</g>
<!-- Node30&#45;&gt;Node5 -->
<g id="edge28" class="edge">
<title>Node30&#45;&gt;Node5</title>
<path fill="none" stroke="#191970" d="M1466.2814,-115.4963C1416.6961,-100.4088 1311.8983,-70.1845 1221.1426,-55 1030.9229,-23.1741 799.5141,-13.2197 711.4863,-10.4558"/>
<polygon fill="#191970" stroke="#191970" points="711.5756,-6.957 701.4744,-10.1534 711.3642,-13.9538 711.5756,-6.957"/>
</g>
<!-- Node30&#45;&gt;Node7 -->
<g id="edge30" class="edge">
<title>Node30&#45;&gt;Node7</title>
<path fill="none" stroke="#191970" d="M1443.7614,-121.2954C1273.4385,-110.6723 729.4219,-76.742 574.6067,-67.0861"/>
<polygon fill="#191970" stroke="#191970" points="574.7593,-63.5889 564.5608,-66.4596 574.3235,-70.5754 574.7593,-63.5889"/>
</g>
<!-- Node30&#45;&gt;Node25 -->
<g id="edge26" class="edge">
<title>Node30&#45;&gt;Node25</title>
<path fill="none" stroke="#191970" d="M1483.9036,-115.3873C1472.3855,-106.0483 1454.2553,-91.3481 1440.4366,-80.1438"/>
<polygon fill="#191970" stroke="#191970" points="1442.4593,-77.2779 1432.4874,-73.6985 1438.0506,-82.7152 1442.4593,-77.2779"/>
</g>
<!-- Node31 -->
<g id="node21" class="node">
<title>Node31</title>
<polygon fill="#ffffff" stroke="#bfbfbf" points="1656.5811,-55.5 1656.5811,-73.5 1703.7041,-73.5 1703.7041,-55.5 1656.5811,-55.5"/>
<text text-anchor="middle" x="1680.1426" y="-61.5" font-family="Helvetica,sans-Serif" font-size="10.00" fill="#000000">iterator</text>
</g>
<!-- Node30&#45;&gt;Node31 -->
<g id="edge27" class="edge">
<title>Node30&#45;&gt;Node31</title>
<path fill="none" stroke="#191970" d="M1523.2401,-115.3873C1556.3597,-104.6458 1611.3472,-86.812 1646.6499,-75.3625"/>
<polygon fill="#191970" stroke="#191970" points="1648.0565,-78.5858 1656.489,-72.1714 1645.897,-71.9273 1648.0565,-78.5858"/>
</g>
<!-- Node32 -->
<g id="node22" class="node">
<title>Node32</title>
<polygon fill="#ffffff" stroke="#bfbfbf" points="1467.916,-55.5 1467.916,-73.5 1508.3691,-73.5 1508.3691,-55.5 1467.916,-55.5"/>
<text text-anchor="middle" x="1488.1426" y="-61.5" font-family="Helvetica,sans-Serif" font-size="10.00" fill="#000000">string</text>
</g>
<!-- Node30&#45;&gt;Node32 -->
<g id="edge29" class="edge">
<title>Node30&#45;&gt;Node32</title>
<path fill="none" stroke="#191970" d="M1494.0794,-115.3873C1493.1029,-107.0174 1491.6241,-94.3414 1490.3867,-83.735"/>
<polygon fill="#191970" stroke="#191970" points="1493.851,-83.2255 1489.2157,-73.6985 1486.8982,-84.0367 1493.851,-83.2255"/>
</g>
<!-- Node37&#45;&gt;Node7 -->
<g id="edge41" class="edge">
<title>Node37&#45;&gt;Node7</title>
<path fill="none" stroke="#191970" d="M409.1244,-110.4327C436.3241,-100.3587 472.6409,-86.908 498.9398,-77.1677"/>
<polygon fill="#191970" stroke="#191970" points="500.3268,-80.3864 508.4887,-73.6311 497.8956,-73.8221 500.3268,-80.3864"/>
</g>
<!-- Node39&#45;&gt;Node3 -->
<g id="edge47" class="edge">
<title>Node39&#45;&gt;Node3</title>
<path fill="none" stroke="#191970" d="M2458.9957,-121.8639C2236.8012,-112.1257 1462.7017,-78.1987 1222.079,-67.6528"/>
<polygon fill="#191970" stroke="#191970" points="1222.1875,-64.1543 1212.0438,-67.213 1221.8809,-71.1476 1222.1875,-64.1543"/>
</g>
<!-- Node39&#45;&gt;Node4 -->
<g id="edge48" class="edge">
<title>Node39&#45;&gt;Node4</title>
<path fill="none" stroke="#191970" d="M2458.9923,-112.5758C2454.3088,-111.6895 2449.6504,-110.8216 2445.1426,-110 2230.6226,-70.9033 1971.6598,-29.0586 1881.7535,-14.6881"/>
<polygon fill="#191970" stroke="#191970" points="1882.0685,-11.1942 1871.6417,-13.0738 1880.9649,-18.1066 1882.0685,-11.1942"/>
</g>
<!-- Node39&#45;&gt;Node27 -->
<g id="edge50" class="edge">
<title>Node39&#45;&gt;Node27</title>
<path fill="none" stroke="#191970" d="M2459.0452,-112.2571C2454.3496,-111.4434 2449.674,-110.679 2445.1426,-110 2294.8032,-87.4725 2113.6329,-72.399 2041.2708,-66.8622"/>
<polygon fill="#191970" stroke="#191970" points="2041.2415,-63.3501 2031.0059,-66.0852 2040.7131,-70.3301 2041.2415,-63.3501"/>
</g>
<!-- Node40 -->
<g id="node30" class="node">
<title>Node40</title>
<polygon fill="#ffffff" stroke="#bfbfbf" points="2499.7559,-55.5 2499.7559,-73.5 2538.5293,-73.5 2538.5293,-55.5 2499.7559,-55.5"/>
<text text-anchor="middle" x="2519.1426" y="-61.5" font-family="Helvetica,sans-Serif" font-size="10.00" fill="#000000">limits</text>
</g>
<!-- Node39&#45;&gt;Node40 -->
<g id="edge49" class="edge">
<title>Node39&#45;&gt;Node40</title>
<path fill="none" stroke="#191970" d="M2519.1426,-110.2808C2519.1426,-102.3776 2519.1426,-92.4316 2519.1426,-83.8308"/>
<polygon fill="#191970" stroke="#191970" points="2522.6427,-83.5842 2519.1426,-73.5842 2515.6427,-83.5842 2522.6427,-83.5842"/>
</g>
<!-- Node41&#45;&gt;Node3 -->
<g id="edge52" class="edge">
<title>Node41&#45;&gt;Node3</title>
<path fill="none" stroke="#191970" d="M1512.7452,-240.3402C1492.2656,-222.3104 1454.202,-191.5203 1416.1426,-175 1342.9029,-143.2091 1312.1534,-173.4843 1240.1426,-139 1232.042,-135.1208 1192.0696,-100.948 1168.2049,-80.2566"/>
<polygon fill="#191970" stroke="#191970" points="1170.3576,-77.4904 1160.514,-73.5718 1165.7654,-82.7736 1170.3576,-77.4904"/>
</g>
<!-- Node41&#45;&gt;Node26 -->
<g id="edge53" class="edge">
<title>Node41&#45;&gt;Node26</title>
<path fill="none" stroke="#191970" d="M1588.1772,-241.021C1625.4736,-231.9988 1674.1446,-219.0425 1716.1426,-204 1717.7611,-203.4203 1719.4112,-202.7924 1721.0662,-202.1341"/>
<polygon fill="#191970" stroke="#191970" points="1722.5857,-205.2912 1730.4145,-198.1527 1719.8427,-198.851 1722.5857,-205.2912"/>
</g>
<!-- Node41&#45;&gt;Node27 -->
<g id="edge54" class="edge">
<title>Node41&#45;&gt;Node27</title>
<path fill="none" stroke="#191970" d="M1588.1191,-247.9642C1639.1492,-241.0681 1713.7191,-227.7978 1775.1426,-204 1819.2553,-186.9091 1937.3171,-111.3436 1986.8169,-79.129"/>
<polygon fill="#191970" stroke="#191970" points="1988.765,-82.0371 1995.2284,-73.6421 1984.9406,-76.1741 1988.765,-82.0371"/>
</g>
<!-- Node42&#45;&gt;Node3 -->
<g id="edge56" class="edge">
<title>Node42&#45;&gt;Node3</title>
<path fill="none" stroke="#191970" d="M709.8557,-180.4776C735.8183,-171.3206 776.0608,-156.0895 809.1426,-139 830.2819,-128.0798 831.8954,-118.4372 854.1426,-110 893.9563,-94.9007 1003.9985,-80.4965 1078.102,-72.0793"/>
<polygon fill="#191970" stroke="#191970" points="1078.7624,-75.5272 1088.3088,-70.9319 1077.9803,-68.571 1078.7624,-75.5272"/>
</g>
<!-- Node42&#45;&gt;Node5 -->
<g id="edge58" class="edge">
<title>Node42&#45;&gt;Node5</title>
<path fill="none" stroke="#191970" d="M682.5319,-180.1956C681.8805,-170.0656 680.8476,-153.3866 680.1426,-139 678.2231,-99.8295 676.5995,-53.9642 675.7587,-28.6799"/>
<polygon fill="#191970" stroke="#191970" points="679.2545,-28.4893 675.4293,-18.6091 672.2582,-28.7182 679.2545,-28.4893"/>
</g>
<!-- Node42&#45;&gt;Node34 -->
<g id="edge57" class="edge">
<title>Node42&#45;&gt;Node34</title>
<path fill="none" stroke="#191970" d="M715.1231,-180.462C759.9177,-167.8027 840.6962,-144.974 883.943,-132.7521"/>
<polygon fill="#191970" stroke="#191970" points="884.9113,-136.1156 893.5825,-130.0278 883.0076,-129.3794 884.9113,-136.1156"/>
</g>
<!-- Node43&#45;&gt;Node3 -->
<g id="edge61" class="edge">
<title>Node43&#45;&gt;Node3</title>
<path fill="none" stroke="#191970" d="M128.3685,-120.6917C178.6493,-117.7267 250.3453,-113.5353 313.1426,-110 596.3937,-94.0539 933.6211,-76.0087 1078.3618,-68.3085"/>
<polygon fill="#191970" stroke="#191970" points="1078.6472,-71.7984 1088.4471,-67.7721 1078.2753,-64.8082 1078.6472,-71.7984"/>
</g>
<!-- Node43&#45;&gt;Node5 -->
<g id="edge63" class="edge">
<title>Node43&#45;&gt;Node5</title>
<path fill="none" stroke="#191970" d="M71.0997,-115.2478C83.4381,-99.6443 110.8229,-68.4823 142.1426,-55 187.5416,-35.4569 526.0126,-16.953 638.7397,-11.2742"/>
<polygon fill="#191970" stroke="#191970" points="639.1139,-14.76 648.9267,-10.7651 638.7644,-7.7687 639.1139,-14.76"/>
</g>
<!-- Node43&#45;&gt;Node27 -->
<g id="edge64" class="edge">
<title>Node43&#45;&gt;Node27</title>
<path fill="none" stroke="#191970" d="M128.3437,-120.1873C178.6111,-116.9495 250.3011,-112.637 313.1426,-110 935.0232,-83.9043 1090.9745,-91.9832 1713.1426,-74 1809.2652,-71.2217 1922.929,-67.4322 1977.1965,-65.5921"/>
<polygon fill="#191970" stroke="#191970" points="1977.3599,-69.0886 1987.2352,-65.2509 1977.1221,-62.0927 1977.3599,-69.0886"/>
</g>
<!-- Node44 -->
<g id="node34" class="node">
<title>Node44</title>
<polygon fill="#ffffff" stroke="#bfbfbf" points="16.5122,-55.5 16.5122,-73.5 89.7729,-73.5 89.7729,-55.5 16.5122,-55.5"/>
<text text-anchor="middle" x="53.1426" y="-61.5" font-family="Helvetica,sans-Serif" font-size="10.00" fill="#000000">Eigen/Dense</text>
</g>
<!-- Node43&#45;&gt;Node44 -->
<g id="edge62" class="edge">
<title>Node43&#45;&gt;Node44</title>
<path fill="none" stroke="#191970" d="M62.4719,-115.3873C60.9374,-107.0174 58.6135,-94.3414 56.669,-83.735"/>
<polygon fill="#191970" stroke="#191970" points="60.0749,-82.9034 54.829,-73.6985 53.1897,-84.1657 60.0749,-82.9034"/>
</g>
<!-- Node45&#45;&gt;Node3 -->
<g id="edge66" class="edge">
<title>Node45&#45;&gt;Node3</title>
<path fill="none" stroke="#191970" d="M833.6425,-180.3274C840.6215,-163.3835 857.9755,-127.3294 885.1426,-110 916.3996,-90.0617 1010.8946,-77.3486 1078.1162,-70.5707"/>
<polygon fill="#191970" stroke="#191970" points="1078.6319,-74.0369 1088.2407,-69.5736 1077.9458,-67.0706 1078.6319,-74.0369"/>
</g>
<!-- Node45&#45;&gt;Node5 -->
<g id="edge68" class="edge">
<title>Node45&#45;&gt;Node5</title>
<path fill="none" stroke="#191970" d="M791.7801,-180.4378C767.9218,-172.9788 738.2523,-160.1111 719.1426,-139 690.5591,-107.423 680.4295,-56.518 676.9263,-28.8736"/>
<polygon fill="#191970" stroke="#191970" points="680.3661,-28.1328 675.7962,-18.5742 673.4079,-28.8964 680.3661,-28.1328"/>
</g>
<!-- Node45&#45;&gt;Node34 -->
<g id="edge67" class="edge">
<title>Node45&#45;&gt;Node34</title>
<path fill="none" stroke="#191970" d="M841.6834,-180.462C854.9879,-170.0428 877.0887,-152.7349 893.195,-140.1216"/>
<polygon fill="#191970" stroke="#191970" points="895.7171,-142.592 901.4322,-133.6708 891.4012,-137.0809 895.7171,-142.592"/>
</g>
<!-- Node46&#45;&gt;Node3 -->
<g id="edge71" class="edge">
<title>Node46&#45;&gt;Node3</title>
<path fill="none" stroke="#191970" d="M2351.2599,-245.4936C2275.8721,-228.8266 2107.1016,-193.2158 1963.1426,-175 1729.7918,-145.4731 1662.8785,-197.8286 1435.1426,-139 1405.6885,-131.3914 1402.025,-119.5518 1373.1426,-110 1343.7416,-100.2767 1266.7437,-85.4027 1211.4565,-75.3306"/>
<polygon fill="#191970" stroke="#191970" points="1211.8661,-71.8479 1201.4022,-73.5081 1210.6176,-78.7356 1211.8661,-71.8479"/>
</g>
<!-- Node46&#45;&gt;Node4 -->
<g id="edge73" class="edge">
<title>Node46&#45;&gt;Node4</title>
<path fill="none" stroke="#191970" d="M2445.0563,-245.4263C2476.0631,-238.1636 2514.4349,-225.5086 2543.1426,-204 2571.2621,-182.932 2577.666,-172.5382 2588.1426,-139 2600.5294,-99.3466 2583.6467,-74.8312 2547.1426,-55 2488.2416,-23.0016 2011.7281,-12.3531 1881.7747,-10.0294"/>
<polygon fill="#191970" stroke="#191970" points="1881.713,-6.5279 1871.6535,-9.8529 1881.5909,-13.5268 1881.713,-6.5279"/>
</g>
<!-- Node46&#45;&gt;Node26 -->
<g id="edge74" class="edge">
<title>Node46&#45;&gt;Node26</title>
<path fill="none" stroke="#191970" d="M2318.0981,-248.756C2214.2017,-240.3388 2017.8424,-223.5177 1851.1426,-204 1825.636,-201.0136 1796.6827,-196.8706 1775.9833,-193.7775"/>
<polygon fill="#191970" stroke="#191970" points="1776.3834,-190.2984 1765.9731,-192.2675 1775.3391,-197.22 1776.3834,-190.2984"/>
</g>
<!-- Node46&#45;&gt;Node27 -->
<g id="edge76" class="edge">
<title>Node46&#45;&gt;Node27</title>
<path fill="none" stroke="#191970" d="M2388.4219,-245.4947C2380.069,-219.5338 2352.1533,-144.2203 2300.1426,-110 2278.7093,-95.898 2112.0294,-75.9422 2041.0151,-67.9784"/>
<polygon fill="#191970" stroke="#191970" points="2041.1933,-64.4767 2030.8675,-66.8491 2040.4191,-71.4337 2041.1933,-64.4767"/>
</g>
<!-- Node47 -->
<g id="node37" class="node">
<title>Node47</title>
<polygon fill="#ffffff" stroke="#bfbfbf" points="2494.1919,-180.5 2494.1919,-198.5 2534.0933,-198.5 2534.0933,-180.5 2494.1919,-180.5"/>
<text text-anchor="middle" x="2514.1426" y="-186.5" font-family="Helvetica,sans-Serif" font-size="10.00" fill="#000000">bitset</text>
</g>
<!-- Node46&#45;&gt;Node47 -->
<g id="edge72" class="edge">
<title>Node46&#45;&gt;Node47</title>
<path fill="none" stroke="#191970" d="M2408.2452,-245.462C2428.8743,-234.5605 2463.7739,-216.1176 2487.8374,-203.4011"/>
<polygon fill="#191970" stroke="#191970" points="2489.5826,-206.4376 2496.7887,-198.6708 2486.312,-200.2486 2489.5826,-206.4376"/>
</g>
<!-- Node48 -->
<g id="node38" class="node">
<title>Node48</title>
<polygon fill="#ffffff" stroke="#bfbfbf" points="2389.8398,-180.5 2389.8398,-198.5 2476.4453,-198.5 2476.4453,-180.5 2389.8398,-180.5"/>
<text text-anchor="middle" x="2433.1426" y="-186.5" font-family="Helvetica,sans-Serif" font-size="10.00" fill="#000000">unordered_map</text>
</g>
<!-- Node46&#45;&gt;Node48 -->
<g id="edge75" class="edge">
<title>Node46&#45;&gt;Node48</title>
<path fill="none" stroke="#191970" d="M2396.9825,-245.462C2403.305,-235.6773 2413.553,-219.8172 2421.5277,-207.4753"/>
<polygon fill="#191970" stroke="#191970" points="2424.5928,-209.1808 2427.0803,-198.8821 2418.7134,-205.3818 2424.5928,-209.1808"/>
</g>
<!-- Node49&#45;&gt;Node3 -->
<g id="edge78" class="edge">
<title>Node49&#45;&gt;Node3</title>
<path fill="none" stroke="#191970" d="M1114.1531,-245.2841C1116.7754,-222.2657 1124.4207,-160.4782 1136.1426,-110 1138.1964,-101.1557 1141.0657,-91.523 1143.6723,-83.4073"/>
<polygon fill="#191970" stroke="#191970" points="1147.0306,-84.3997 1146.857,-73.8063 1140.3866,-82.1958 1147.0306,-84.3997"/>
</g>
<!-- Node49&#45;&gt;Node6 -->
<g id="edge87" class="edge">
<title>Node49&#45;&gt;Node6</title>
<path fill="none" stroke="#191970" d="M1027.9708,-247.1836C1000.8578,-244.8684 970.7417,-242.3112 943.1426,-240 748.5008,-223.7002 697.4149,-238.3867 505.1426,-204 500.7156,-203.2083 496.1213,-202.2039 491.5779,-201.0944"/>
<polygon fill="#191970" stroke="#191970" points="492.3576,-197.6807 481.7977,-198.5395 490.5883,-204.4535 492.3576,-197.6807"/>
</g>
<!-- Node49&#45;&gt;Node23 -->
<g id="edge88" class="edge">
<title>Node49&#45;&gt;Node23</title>
<path fill="none" stroke="#191970" d="M1028.1064,-246.7854C895.1824,-234.6048 649.1672,-211.5276 609.1426,-204 604.8941,-203.201 600.4885,-202.2192 596.1203,-201.1464"/>
<polygon fill="#191970" stroke="#191970" points="596.6475,-197.6666 586.0872,-198.5213 594.8756,-204.4386 596.6475,-197.6666"/>
</g>
<!-- Node49&#45;&gt;Node27 -->
<g id="edge91" class="edge">
<title>Node49&#45;&gt;Node27</title>
<path fill="none" stroke="#191970" d="M1137.6933,-245.41C1162.4602,-235.9728 1201.5869,-220.3283 1234.1426,-204 1256.7629,-192.6548 1259.0363,-182.6995 1283.1426,-175 1464.9864,-116.9198 1523.6351,-174.7972 1711.1426,-139 1754.9228,-130.6419 1764.0407,-121.3488 1807.1426,-110 1866.9768,-94.2455 1937.6655,-79.1079 1977.5653,-70.8793"/>
<polygon fill="#191970" stroke="#191970" points="1978.4014,-74.2808 1987.4945,-68.8434 1976.9953,-67.4235 1978.4014,-74.2808"/>
</g>
<!-- Node49&#45;&gt;Node33 -->
<g id="edge89" class="edge">
<title>Node49&#45;&gt;Node33</title>
<path fill="none" stroke="#191970" d="M1167.738,-245.4803C1180.6371,-243.5152 1194.3577,-241.5598 1207.1426,-240 1384.3251,-218.3831 1431.2021,-234.0982 1607.1426,-204 1658.6743,-195.1844 1670.0255,-185.967 1721.1426,-175 1796.8774,-158.7514 1884.6478,-143.9314 1943.1996,-134.6096"/>
<polygon fill="#191970" stroke="#191970" points="1944.0918,-138.012 1953.4213,-132.9909 1942.9969,-131.0982 1944.0918,-138.012"/>
</g>
<!-- Node49&#45;&gt;Node34 -->
<g id="edge90" class="edge">
<title>Node49&#45;&gt;Node34</title>
<path fill="none" stroke="#191970" d="M1099.079,-245.3587C1064.9393,-223.1678 977.436,-166.2907 935.806,-139.2312"/>
<polygon fill="#191970" stroke="#191970" points="937.4826,-136.1466 927.1906,-133.6312 933.6676,-142.0157 937.4826,-136.1466"/>
</g>
<!-- Node50 -->
<g id="node40" class="node">
<title>Node50</title>
<g id="a_node40"><a xlink:href="numerics_8hpp.html" target="_top" xlink:title="../utils/numerics.hpp">
<polygon fill="#ffffff" stroke="#000000" points="1564.6797,-115.5 1564.6797,-133.5 1669.6055,-133.5 1669.6055,-115.5 1564.6797,-115.5"/>
<text text-anchor="middle" x="1617.1426" y="-121.5" font-family="Helvetica,sans-Serif" font-size="10.00" fill="#000000">../utils/numerics.hpp</text>
</a>
</g>
</g>
<!-- Node49&#45;&gt;Node50 -->
<g id="edge79" class="edge">
<title>Node49&#45;&gt;Node50</title>
<path fill="none" stroke="#191970" d="M1124.8017,-245.474C1147.4927,-228.4437 1199.7908,-191.7781 1250.1426,-175 1379.6391,-131.8496 1420.698,-162.579 1555.1426,-139 1560.5186,-138.0571 1566.1272,-136.9386 1571.6787,-135.7472"/>
<polygon fill="#191970" stroke="#191970" points="1572.5489,-139.1392 1581.5472,-133.5462 1571.0251,-132.3071 1572.5489,-139.1392"/>
</g>
<!-- Node50&#45;&gt;Node4 -->
<g id="edge82" class="edge">
<title>Node50&#45;&gt;Node4</title>
<path fill="none" stroke="#191970" d="M1635.1111,-115.4537C1661.5766,-102.1437 1712.6117,-76.5309 1756.1426,-55 1778.0946,-44.1423 1803.0234,-31.9535 1821.542,-22.9262"/>
<polygon fill="#191970" stroke="#191970" points="1823.1349,-26.0435 1830.5921,-18.5174 1820.0693,-19.7505 1823.1349,-26.0435"/>
</g>
<!-- Node50&#45;&gt;Node25 -->
<g id="edge80" class="edge">
<title>Node50&#45;&gt;Node25</title>
<path fill="none" stroke="#191970" d="M1587.3744,-115.3873C1553.164,-104.9147 1496.9309,-87.7005 1459.4743,-76.2342"/>
<polygon fill="#191970" stroke="#191970" points="1460.4982,-72.8874 1449.9117,-73.3069 1458.4492,-79.5808 1460.4982,-72.8874"/>
</g>
<!-- Node50&#45;&gt;Node27 -->
<g id="edge86" class="edge">
<title>Node50&#45;&gt;Node27</title>
<path fill="none" stroke="#191970" d="M1655.7803,-115.4853C1664.7375,-113.5419 1674.2511,-111.5947 1683.1426,-110 1790.3714,-90.768 1918.6771,-74.9478 1977.2077,-68.1228"/>
<polygon fill="#191970" stroke="#191970" points="1977.7726,-71.5809 1987.3039,-66.9543 1976.9677,-64.6273 1977.7726,-71.5809"/>
</g>
<!-- Node50&#45;&gt;Node31 -->
<g id="edge83" class="edge">
<title>Node50&#45;&gt;Node31</title>
<path fill="none" stroke="#191970" d="M1626.7109,-115.3873C1636.3319,-106.2245 1651.3716,-91.9009 1663.0468,-80.7817"/>
<polygon fill="#191970" stroke="#191970" points="1665.6566,-83.1295 1670.4842,-73.6985 1660.829,-78.0606 1665.6566,-83.1295"/>
</g>
<!-- Node50&#45;&gt;Node32 -->
<g id="edge85" class="edge">
<title>Node50&#45;&gt;Node32</title>
<path fill="none" stroke="#191970" d="M1597.5503,-115.3873C1576.021,-105.3737 1541.2398,-89.1964 1516.6813,-77.7738"/>
<polygon fill="#191970" stroke="#191970" points="1518.0399,-74.5457 1507.4966,-73.5019 1515.0877,-80.8928 1518.0399,-74.5457"/>
</g>
<!-- Node51 -->
<g id="node41" class="node">
<title>Node51</title>
<polygon fill="#ffffff" stroke="#bfbfbf" points="1595.5269,-55.5 1595.5269,-73.5 1638.7583,-73.5 1638.7583,-55.5 1595.5269,-55.5"/>
<text text-anchor="middle" x="1617.1426" y="-61.5" font-family="Helvetica,sans-Serif" font-size="10.00" fill="#000000">cmath</text>
</g>
<!-- Node50&#45;&gt;Node51 -->
<g id="edge81" class="edge">
<title>Node50&#45;&gt;Node51</title>
<path fill="none" stroke="#191970" d="M1617.1426,-115.3873C1617.1426,-107.0174 1617.1426,-94.3414 1617.1426,-83.735"/>
<polygon fill="#191970" stroke="#191970" points="1620.6427,-83.6984 1617.1426,-73.6985 1613.6427,-83.6985 1620.6427,-83.6984"/>
</g>
<!-- Node52 -->
<g id="node42" class="node">
<title>Node52</title>
<polygon fill="#ffffff" stroke="#bfbfbf" points="1526.3594,-55.5 1526.3594,-73.5 1577.9258,-73.5 1577.9258,-55.5 1526.3594,-55.5"/>
<text text-anchor="middle" x="1552.1426" y="-61.5" font-family="Helvetica,sans-Serif" font-size="10.00" fill="#000000">numeric</text>
</g>
<!-- Node50&#45;&gt;Node52 -->
<g id="edge84" class="edge">
<title>Node50&#45;&gt;Node52</title>
<path fill="none" stroke="#191970" d="M1607.2705,-115.3873C1597.3441,-106.2245 1581.8269,-91.9009 1569.7811,-80.7817"/>
<polygon fill="#191970" stroke="#191970" points="1571.8296,-77.9095 1562.1076,-73.6985 1567.0817,-83.0531 1571.8296,-77.9095"/>
</g>
<!-- Node53&#45;&gt;Node3 -->
<g id="edge97" class="edge">
<title>Node53&#45;&gt;Node3</title>
<path fill="none" stroke="#191970" d="M1661.6736,-360.4513C1612.57,-346.6773 1522.7505,-316.8772 1459.1426,-269 1416.2185,-236.6914 1429.1225,-202.7879 1383.1426,-175 1312.9459,-132.5768 1270.7998,-183.872 1202.1426,-139 1191.0797,-131.7697 1172.2182,-102.0818 1160.5085,-82.4361"/>
<polygon fill="#191970" stroke="#191970" points="1163.4834,-80.5902 1155.4002,-73.7409 1157.4479,-84.136 1163.4834,-80.5902"/>
</g>
<!-- Node53&#45;&gt;Node5 -->
<g id="edge116" class="edge">
<title>Node53&#45;&gt;Node5</title>
<path fill="none" stroke="#191970" d="M1626.4435,-367.1234C1337.1474,-357.0967 256.2791,-316.5674 202.1426,-269 55.6854,-140.3145 345.3507,-63.0569 366.1426,-55 415.3168,-35.945 568.1588,-19.5783 638.7405,-12.8157"/>
<polygon fill="#191970" stroke="#191970" points="639.3091,-16.2776 648.9349,-11.8511 638.6497,-9.3087 639.3091,-16.2776"/>
</g>
<!-- Node53&#45;&gt;Node26 -->
<g id="edge115" class="edge">
<title>Node53&#45;&gt;Node26</title>
<path fill="none" stroke="#191970" d="M1678.499,-360.4275C1665.0966,-352.7723 1648.0498,-340.4295 1640.1426,-324 1623.9522,-290.36 1620.1,-271.4972 1640.1426,-240 1640.7374,-239.0653 1688.8826,-216.775 1720.6831,-202.1241"/>
<polygon fill="#191970" stroke="#191970" points="1722.3368,-205.2159 1729.9567,-197.8547 1719.4094,-198.8574 1722.3368,-205.2159"/>
</g>
<!-- Node53&#45;&gt;Node27 -->
<g id="edge119" class="edge">
<title>Node53&#45;&gt;Node27</title>
<path fill="none" stroke="#191970" d="M1768.0334,-364.7839C1864.3845,-357.7731 2031.3096,-343.3243 2089.1426,-324 2177.8945,-294.3445 2222.1871,-288.6162 2262.1426,-204 2305.9157,-111.2987 2118.526,-77.7001 2041.1858,-67.9204"/>
<polygon fill="#191970" stroke="#191970" points="2041.3862,-64.4192 2031.0386,-66.6948 2040.5468,-71.3687 2041.3862,-64.4192"/>
</g>
<!-- Node53&#45;&gt;Node31 -->
<g id="edge114" class="edge">
<title>Node53&#45;&gt;Node31</title>
<path fill="none" stroke="#191970" d="M1742.8895,-360.4214C1763.1387,-353.8818 1785.0644,-342.7652 1797.1426,-324 1819.6567,-289.0209 1749.4844,-269.6836 1749.1426,-269 1743.3785,-257.4718 1740.819,-249.8408 1749.1426,-240 1813.3358,-164.1059 2019.2091,-257.0806 1963.1426,-175 1933.8548,-132.1231 1782.2144,-89.8361 1713.7517,-72.5947"/>
<polygon fill="#191970" stroke="#191970" points="1714.4429,-69.16 1703.8936,-70.1407 1712.752,-75.9527 1714.4429,-69.16"/>
</g>
<!-- Node53&#45;&gt;Node33 -->
<g id="edge113" class="edge">
<title>Node53&#45;&gt;Node33</title>
<path fill="none" stroke="#191970" d="M1768.0015,-364.9877C1885.2315,-355.8353 2111.2138,-330.4758 2157.1426,-269 2197.8963,-214.4511 2097.0839,-161.4346 2042.059,-137.6067"/>
<polygon fill="#191970" stroke="#191970" points="2043.2567,-134.313 2032.6834,-133.6364 2040.527,-140.7589 2043.2567,-134.313"/>
</g>
<!-- Node54 -->
<g id="node44" class="node">
<title>Node54</title>
<g id="a_node44"><a xlink:href="cycles_8hpp.html" target="_top" xlink:title="../algorithm/graph\l/cycles.hpp">
<polygon fill="#ffffff" stroke="#000000" points="1860.2339,-175.5 1860.2339,-203.5 1954.0513,-203.5 1954.0513,-175.5 1860.2339,-175.5"/>
<text text-anchor="start" x="1868.2339" y="-191.5" font-family="Helvetica,sans-Serif" font-size="10.00" fill="#000000">../algorithm/graph</text>
<text text-anchor="middle" x="1907.1426" y="-181.5" font-family="Helvetica,sans-Serif" font-size="10.00" fill="#000000">/cycles.hpp</text>
</a>
</g>
</g>
<!-- Node53&#45;&gt;Node54 -->
<g id="edge94" class="edge">
<title>Node53&#45;&gt;Node54</title>
<path fill="none" stroke="#191970" d="M1689.8014,-360.4398C1680.7001,-348.0719 1667.0847,-325.137 1673.1426,-305 1683.1212,-271.8303 1688.0001,-260.1941 1716.1426,-240 1721.7502,-235.9762 1795.8319,-217.0439 1850.0532,-203.544"/>
<polygon fill="#191970" stroke="#191970" points="1851.0643,-206.8993 1859.9254,-201.0914 1849.3765,-200.1058 1851.0643,-206.8993"/>
</g>
<!-- Node55 -->
<g id="node45" class="node">
<title>Node55</title>
<g id="a_node45"><a xlink:href="base__graph_8hpp.html" target="_top" xlink:title="base_graph.hpp">
<polygon fill="#ffffff" stroke="#000000" points="1874,-305.5 1874,-323.5 1962.2852,-323.5 1962.2852,-305.5 1874,-305.5"/>
<text text-anchor="middle" x="1918.1426" y="-311.5" font-family="Helvetica,sans-Serif" font-size="10.00" fill="#000000">base_graph.hpp</text>
</a>
</g>
</g>
<!-- Node53&#45;&gt;Node55 -->
<g id="edge98" class="edge">
<title>Node53&#45;&gt;Node55</title>
<path fill="none" stroke="#191970" d="M1733.6362,-360.4179C1771.5782,-350.9753 1831.0645,-336.171 1872.187,-325.9369"/>
<polygon fill="#191970" stroke="#191970" points="1873.1033,-329.3157 1881.962,-323.5042 1871.4127,-322.5229 1873.1033,-329.3157"/>
</g>
<!-- Node60 -->
<g id="node49" class="node">
<title>Node60</title>
<polygon fill="#ffffff" stroke="#bfbfbf" points="1682.4727,-305.5 1682.4727,-323.5 1711.8125,-323.5 1711.8125,-305.5 1682.4727,-305.5"/>
<text text-anchor="middle" x="1697.1426" y="-311.5" font-family="Helvetica,sans-Serif" font-size="10.00" fill="#000000">set</text>
</g>
<!-- Node53&#45;&gt;Node60 -->
<g id="edge117" class="edge">
<title>Node53&#45;&gt;Node60</title>
<path fill="none" stroke="#191970" d="M1697.1426,-360.4179C1697.1426,-353.2164 1697.1426,-342.8962 1697.1426,-333.8632"/>
<polygon fill="#191970" stroke="#191970" points="1700.6427,-333.7794 1697.1426,-323.7795 1693.6427,-333.7795 1700.6427,-333.7794"/>
</g>
<!-- Node61 -->
<g id="node50" class="node">
<title>Node61</title>
<polygon fill="#ffffff" stroke="#bfbfbf" points="1729.7412,-305.5 1729.7412,-323.5 1788.5439,-323.5 1788.5439,-305.5 1729.7412,-305.5"/>
<text text-anchor="middle" x="1759.1426" y="-311.5" font-family="Helvetica,sans-Serif" font-size="10.00" fill="#000000">stdexcept</text>
</g>
<!-- Node53&#45;&gt;Node61 -->
<g id="edge118" class="edge">
<title>Node53&#45;&gt;Node61</title>
<path fill="none" stroke="#191970" d="M1707.3806,-360.4179C1716.48,-352.3458 1729.9963,-340.3556 1740.9352,-330.6517"/>
<polygon fill="#191970" stroke="#191970" points="1743.524,-333.0339 1748.6821,-323.7795 1738.8787,-327.7974 1743.524,-333.0339"/>
</g>
<!-- Node54&#45;&gt;Node3 -->
<g id="edge95" class="edge">
<title>Node54&#45;&gt;Node3</title>
<path fill="none" stroke="#191970" d="M1860.13,-182.0548C1843.7089,-179.6029 1825.136,-176.9962 1808.1426,-175 1628.2273,-153.8653 1579.4338,-176.2024 1402.1426,-139 1362.6655,-130.7162 1354.7207,-121.7808 1316.1426,-110 1275.4792,-97.5824 1228.739,-84.913 1195.2377,-76.1075"/>
<polygon fill="#191970" stroke="#191970" points="1195.8475,-72.6493 1185.2871,-73.5033 1194.0751,-79.4212 1195.8475,-72.6493"/>
</g>
<!-- Node54&#45;&gt;Node50 -->
<g id="edge96" class="edge">
<title>Node54&#45;&gt;Node50</title>
<path fill="none" stroke="#191970" d="M1860.2268,-178.9844C1807.3664,-167.1364 1721.7663,-147.9501 1667.5236,-135.7923"/>
<polygon fill="#191970" stroke="#191970" points="1667.9672,-132.305 1657.4438,-133.533 1666.4362,-139.1355 1667.9672,-132.305"/>
</g>
<!-- Node55&#45;&gt;Node3 -->
<g id="edge99" class="edge">
<title>Node55&#45;&gt;Node3</title>
<path fill="none" stroke="#191970" d="M1873.8127,-308.6938C1828.9971,-301.8072 1764.2523,-288.7158 1749.1426,-269 1722.7755,-234.5952 1804.5704,-206.8263 1775.1426,-175 1705.6822,-99.8784 1411.7132,-175.5273 1316.1426,-139 1296.2975,-131.4152 1296.8205,-120.124 1278.1426,-110 1251.6009,-95.6136 1219.5986,-84.2381 1194.2329,-76.4594"/>
<polygon fill="#191970" stroke="#191970" points="1195.0941,-73.0639 1184.5106,-73.5532 1193.0893,-79.7707 1195.0941,-73.0639"/>
</g>
<!-- Node55&#45;&gt;Node4 -->
<g id="edge103" class="edge">
<title>Node55&#45;&gt;Node4</title>
<path fill="none" stroke="#191970" d="M1962.6995,-312.5222C2076.6014,-307.1982 2376.2491,-291.4349 2473.1426,-269 2567.5395,-247.1431 2676.1426,-286.3942 2676.1426,-189.5 2676.1426,-189.5 2676.1426,-189.5 2676.1426,-124.5 2676.1426,-69.6435 2626.0321,-72.7964 2574.1426,-55 2508.2215,-32.3913 2015.6497,-14.9041 1882.3308,-10.5492"/>
<polygon fill="#191970" stroke="#191970" points="1882.0643,-7.0388 1871.9562,-10.2132 1881.8377,-14.0351 1882.0643,-7.0388"/>
</g>
<!-- Node55&#45;&gt;Node5 -->
<g id="edge104" class="edge">
<title>Node55&#45;&gt;Node5</title>
<path fill="none" stroke="#191970" d="M1873.9146,-310.685C1851.0133,-308.7964 1822.5897,-306.5873 1797.1426,-305 1753.958,-302.3063 1052.4096,-296.6671 1019.1426,-269 944.0469,-206.5453 1040.781,-121.3919 969.1426,-55 932.2992,-20.8549 781.7094,-12.3297 711.4983,-10.2042"/>
<polygon fill="#191970" stroke="#191970" points="711.4398,-6.7014 701.3473,-9.9249 711.2472,-13.6988 711.4398,-6.7014"/>
</g>
<!-- Node55&#45;&gt;Node27 -->
<g id="edge105" class="edge">
<title>Node55&#45;&gt;Node27</title>
<path fill="none" stroke="#191970" d="M1962.4299,-311.8409C2023.7836,-307.2237 2130.1523,-295.5444 2157.1426,-269 2208.2471,-218.7396 2227.9886,-166.7037 2184.1426,-110 2166.773,-87.5368 2086.56,-74.0998 2040.9972,-68.1496"/>
<polygon fill="#191970" stroke="#191970" points="2041.3855,-64.671 2031.0267,-66.8948 2040.5113,-71.6162 2041.3855,-64.671"/>
</g>
<!-- Node56 -->
<g id="node46" class="node">
<title>Node56</title>
<g id="a_node46"><a xlink:href="simple__bimap_8hpp.html" target="_top" xlink:title="../utils/simple_bimap.hpp">
<polygon fill="#ffffff" stroke="#000000" points="2022.1157,-245.5 2022.1157,-263.5 2148.1694,-263.5 2148.1694,-245.5 2022.1157,-245.5"/>
<text text-anchor="middle" x="2085.1426" y="-251.5" font-family="Helvetica,sans-Serif" font-size="10.00" fill="#000000">../utils/simple_bimap.hpp</text>
</a>
</g>
</g>
<!-- Node55&#45;&gt;Node56 -->
<g id="edge100" class="edge">
<title>Node55&#45;&gt;Node56</title>
<path fill="none" stroke="#191970" d="M1943.5063,-305.3873C1971.9941,-295.1521 2018.405,-278.4776 2050.2875,-267.0228"/>
<polygon fill="#191970" stroke="#191970" points="2051.8598,-270.177 2060.0874,-263.5019 2049.4929,-263.5893 2051.8598,-270.177"/>
</g>
<!-- Node57 -->
<g id="node47" class="node">
<title>Node57</title>
<polygon fill="#ffffff" stroke="#bfbfbf" points="1757.8301,-240.5 1757.8301,-268.5 1874.4551,-268.5 1874.4551,-240.5 1757.8301,-240.5"/>
<text text-anchor="start" x="1765.8301" y="-256.5" font-family="Helvetica,sans-Serif" font-size="10.00" fill="#000000">boost/graph/adjacency</text>
<text text-anchor="middle" x="1816.1426" y="-246.5" font-family="Helvetica,sans-Serif" font-size="10.00" fill="#000000">_list.hpp</text>
</g>
<!-- Node55&#45;&gt;Node57 -->
<g id="edge102" class="edge">
<title>Node55&#45;&gt;Node57</title>
<path fill="none" stroke="#191970" d="M1902.651,-305.3873C1888.5084,-297.0681 1867.1337,-284.4948 1849.1702,-273.928"/>
<polygon fill="#191970" stroke="#191970" points="1850.5376,-270.6718 1840.1437,-268.6183 1846.9884,-276.7053 1850.5376,-270.6718"/>
</g>
<!-- Node58 -->
<g id="node48" class="node">
<title>Node58</title>
<g id="a_node48"><a xlink:href="base__graph__impl_8hpp.html" target="_top" xlink:title="base_graph_impl.hpp">
<polygon fill="#ffffff" stroke="#ff0000" points="1892.0518,-245.5 1892.0518,-263.5 2004.2334,-263.5 2004.2334,-245.5 1892.0518,-245.5"/>
<text text-anchor="middle" x="1948.1426" y="-251.5" font-family="Helvetica,sans-Serif" font-size="10.00" fill="#000000">base_graph_impl.hpp</text>
</a>
</g>
</g>
<!-- Node55&#45;&gt;Node58 -->
<g id="edge106" class="edge">
<title>Node55&#45;&gt;Node58</title>
<path fill="none" stroke="#191970" d="M1922.6989,-305.3873C1927.016,-296.7531 1933.6243,-283.5365 1939.0243,-272.7366"/>
<polygon fill="#191970" stroke="#191970" points="1942.2017,-274.208 1943.5433,-263.6985 1935.9407,-271.0775 1942.2017,-274.208"/>
</g>
<!-- Node56&#45;&gt;Node33 -->
<g id="edge101" class="edge">
<title>Node56&#45;&gt;Node33</title>
<path fill="none" stroke="#191970" d="M2079.6768,-245.1507C2067.1332,-223.6945 2036.1014,-170.6137 2019.6969,-142.5535"/>
<polygon fill="#191970" stroke="#191970" points="2022.6273,-140.6311 2014.5588,-133.7646 2016.5843,-144.164 2022.6273,-140.6311"/>
</g>
<!-- Node58&#45;&gt;Node9 -->
<g id="edge109" class="edge">
<title>Node58&#45;&gt;Node9</title>
<path fill="none" stroke="#191970" d="M1911.516,-245.4793C1902.2981,-243.444 1892.3938,-241.4573 1883.1426,-240 1712.9412,-213.1894 1666.9282,-233.3282 1497.1426,-204 1445.6252,-195.1011 1434.7499,-183.3619 1383.1426,-175 1164.0885,-139.5069 1106.0377,-160.2077 885.1426,-139 860.3958,-136.6241 832.8742,-133.3744 810.3387,-130.5536"/>
<polygon fill="#191970" stroke="#191970" points="810.7234,-127.0745 800.3633,-129.2924 809.8453,-134.0192 810.7234,-127.0745"/>
</g>
<!-- Node58&#45;&gt;Node23 -->
<g id="edge110" class="edge">
<title>Node58&#45;&gt;Node23</title>
<path fill="none" stroke="#191970" d="M1913.2743,-245.4349C1903.583,-243.268 1893.0098,-241.2285 1883.1426,-240 1321.0343,-170.0153 1169.2222,-288.7017 609.1426,-204 604.3557,-203.2761 599.3834,-202.2539 594.4954,-201.0834"/>
<polygon fill="#191970" stroke="#191970" points="595.2266,-197.657 584.667,-198.5202 593.4601,-204.4305 595.2266,-197.657"/>
</g>
<!-- Node58&#45;&gt;Node27 -->
<g id="edge112" class="edge">
<title>Node58&#45;&gt;Node27</title>
<path fill="none" stroke="#191970" d="M1965.79,-245.3795C1995.3976,-228.8929 2053.8276,-190.9586 2074.1426,-139 2078.8359,-126.996 2080.0948,-121.4322 2074.1426,-110 2066.8738,-96.0391 2053.144,-85.4762 2040.1691,-78.0593"/>
<polygon fill="#191970" stroke="#191970" points="2041.4372,-74.7716 2030.9579,-73.2111 2038.1768,-80.966 2041.4372,-74.7716"/>
</g>
<!-- Node58&#45;&gt;Node33 -->
<g id="edge111" class="edge">
<title>Node58&#45;&gt;Node33</title>
<path fill="none" stroke="#191970" d="M1960.1215,-245.4892C1971.3486,-236.3409 1987.64,-221.116 1996.1426,-204 2005.5456,-185.0715 2008.3772,-160.7861 2009.1192,-144.0649"/>
<polygon fill="#191970" stroke="#191970" points="2012.623,-143.9339 2009.354,-133.856 2005.6248,-143.7728 2012.623,-143.9339"/>
</g>
<!-- Node58&#45;&gt;Node39 -->
<g id="edge107" class="edge">
<title>Node58&#45;&gt;Node39</title>
<path fill="none" stroke="#191970" d="M1987.8408,-245.4619C2083.5328,-223.6756 2327.9416,-168.0309 2449.0084,-140.4675"/>
<polygon fill="#191970" stroke="#191970" points="2449.9469,-143.8435 2458.9204,-138.2108 2448.3929,-137.0181 2449.9469,-143.8435"/>
</g>
<!-- Node58&#45;&gt;Node54 -->
<g id="edge108" class="edge">
<title>Node58&#45;&gt;Node54</title>
<path fill="none" stroke="#191970" d="M1942.4417,-245.462C1937.0942,-236.9843 1928.87,-223.9459 1921.7049,-212.5866"/>
<polygon fill="#191970" stroke="#191970" points="1924.5563,-210.5466 1916.2609,-203.9559 1918.6357,-214.2811 1924.5563,-210.5466"/>
</g>
</g>
</svg>
        <g id="navigator" transform="translate(0 0)" fill="#404254">
                <rect fill="#f2f5e9" fill-opacity="0.5" stroke="#606060" stroke-width=".5" x="0" y="0" width="60" height="60"/>
                <use id="zoomplus" xlink:href="#zoomPlus" x="17" y="9" onmousedown="handleZoom(evt,'in')"/>
                <use id="zoomminus" xlink:href="#zoomMin" x="42" y="9" onmousedown="handleZoom(evt,'out')"/>
                <use id="reset" xlink:href="#resetDef" x="30" y="36" onmousedown="handleReset()"/>
                <g id="arrowUp" xlink:href="#dirArrow" transform="translate(30 24)" onmousedown="handlePan(0,-1)">
                  <use xlink:href="#rim" fill="#404040">
                        <set attributeName="fill" to="#808080" begin="arrowUp.mouseover" end="arrowUp.mouseout"/>
                  </use>
                  <path fill="none" stroke="white" stroke-width="1.5" d="M0,-3.0v7 M-2.5,-0.5L0,-3.0L2.5,-0.5"/>
                </g>
                <g id="arrowRight" xlink:href="#dirArrow" transform="rotate(90) translate(36 -43)" onmousedown="handlePan(1,0)">
                  <use xlink:href="#rim" fill="#404040">
                        <set attributeName="fill" to="#808080" begin="arrowRight.mouseover" end="arrowRight.mouseout"/>
                  </use>
                  <path fill="none" stroke="white" stroke-width="1.5" d="M0,-3.0v7 M-2.5,-0.5L0,-3.0L2.5,-0.5"/>
                </g>
                <g id="arrowDown" xlink:href="#dirArrow" transform="rotate(180) translate(-30 -48)" onmousedown="handlePan(0,1)">
                  <use xlink:href="#rim" fill="#404040">
                        <set attributeName="fill" to="#808080" begin="arrowDown.mouseover" end="arrowDown.mouseout"/>
                  </use>
                  <path fill="none" stroke="white" stroke-width="1.5" d="M0,-3.0v7 M-2.5,-0.5L0,-3.0L2.5,-0.5"/>
                </g>
                <g id="arrowLeft" xlink:href="#dirArrow" transform="rotate(270) translate(-36 17)" onmousedown="handlePan(-1,0)">
                  <use xlink:href="#rim" fill="#404040">
                        <set attributeName="fill" to="#808080" begin="arrowLeft.mouseover" end="arrowLeft.mouseout"/>
                  </use>
                  <path fill="none" stroke="white" stroke-width="1.5" d="M0,-3.0v7 M-2.5,-0.5L0,-3.0L2.5,-0.5"/>
                </g>
        </g>
        <svg viewBox="0 0 15 15" width="100%" height="30px" preserveAspectRatio="xMaxYMin meet">
         <g id="arrow_out" transform="scale(0.3 0.3)">
          <a xlink:href="main_8cpp__incl_org.svg" target="_base">
           <rect id="button" ry="5" rx="5" y="6" x="6" height="38" width="38"
                fill="#f2f5e9" fill-opacity="0.5" stroke="#606060" stroke-width="1.0"/>
           <path id="arrow"
             d="M 11.500037,31.436501 C 11.940474,20.09759 22.043105,11.32322 32.158766,21.979434 L 37.068811,17.246167 C 37.068811,17.246167 37.088388,32 37.088388,32 L 22.160133,31.978069 C 22.160133,31.978069 26.997745,27.140456 26.997745,27.140456 C 18.528582,18.264221 13.291696,25.230495 11.500037,31.436501 z"
             style="fill:#404040;"/>
          </a>
         </g>
        </svg>
</svg>
