<?xml version="1.0" encoding="UTF-8" standalone="no"?>
<!DOCTYPE svg PUBLIC "-//W3C//DTD SVG 1.1//EN"
 "http://www.w3.org/Graphics/SVG/1.1/DTD/svg11.dtd">
<!-- Generated by graphviz version 2.40.1 (20161225.0304)
 -->
<!-- Title: include/indigox/classes/molecule.hpp Pages: 1 -->
<svg width="416pt" height="102pt"
 viewBox="0.00 0.00 416.18 102.00" xmlns="http://www.w3.org/2000/svg" xmlns:xlink="http://www.w3.org/1999/xlink">
<g id="graph0" class="graph" transform="scale(1 1) rotate(0) translate(4 98)">
<title>include/indigox/classes/molecule.hpp</title>
<polygon fill="#ffffff" stroke="transparent" points="-4,4 -4,-98 412.1841,-98 412.1841,4 -4,4"/>
<!-- Node8 -->
<g id="node1" class="node">
<title>Node8</title>
<g id="a_node1"><a xlink:title=" ">
<polygon fill="#bfbfbf" stroke="#000000" points="136,-65.5 136,-93.5 254.2803,-93.5 254.2803,-65.5 136,-65.5"/>
<text text-anchor="start" x="144" y="-81.5" font-family="Helvetica,sans-Serif" font-size="10.00" fill="#000000">include/indigox/classes</text>
<text text-anchor="middle" x="195.1401" y="-71.5" font-family="Helvetica,sans-Serif" font-size="10.00" fill="#000000">/molecule.hpp</text>
</a>
</g>
</g>
<!-- Node9 -->
<g id="node2" class="node">
<title>Node9</title>
<g id="a_node2"><a xlink:href="iters_8hpp.html" target="_top" xlink:title=" ">
<polygon fill="#ffffff" stroke="#000000" points="0,-.5 0,-28.5 118.2803,-28.5 118.2803,-.5 0,-.5"/>
<text text-anchor="start" x="8" y="-16.5" font-family="Helvetica,sans-Serif" font-size="10.00" fill="#000000">include/indigox/classes</text>
<text text-anchor="middle" x="59.1401" y="-6.5" font-family="Helvetica,sans-Serif" font-size="10.00" fill="#000000">/iters.hpp</text>
</a>
</g>
</g>
<!-- Node8&#45;&gt;Node9 -->
<g id="edge1" class="edge">
<title>Node8&#45;&gt;Node9</title>
<path fill="none" stroke="#191970" d="M156.4158,-60.9921C134.8591,-50.6892 108.451,-38.0677 88.5925,-28.5765"/>
<polygon fill="#191970" stroke="#191970" points="155.0984,-64.2416 165.6302,-65.396 158.117,-57.9258 155.0984,-64.2416"/>
</g>
<!-- Node10 -->
<g id="node3" class="node">
<title>Node10</title>
<g id="a_node3"><a xlink:href="molecule__impl_8hpp.html" target="_top" xlink:title=" ">
<polygon fill="#ffffff" stroke="#000000" points="136,-.5 136,-28.5 254.2803,-28.5 254.2803,-.5 136,-.5"/>
<text text-anchor="start" x="144" y="-16.5" font-family="Helvetica,sans-Serif" font-size="10.00" fill="#000000">include/indigox/classes</text>
<text text-anchor="middle" x="195.1401" y="-6.5" font-family="Helvetica,sans-Serif" font-size="10.00" fill="#000000">/molecule_impl.hpp</text>
</a>
</g>
</g>
<!-- Node8&#45;&gt;Node10 -->
<g id="edge2" class="edge">
<title>Node8&#45;&gt;Node10</title>
<path fill="none" stroke="#191970" d="M195.1401,-55.1081C195.1401,-46.1539 195.1401,-36.3227 195.1401,-28.5765"/>
<polygon fill="#191970" stroke="#191970" points="191.6402,-55.3959 195.1401,-65.396 198.6402,-55.396 191.6402,-55.3959"/>
</g>
<!-- Node11 -->
<g id="node4" class="node">
<title>Node11</title>
<g id="a_node4"><a xlink:href="indigox_8hpp.html" target="_top" xlink:title=" ">
<polygon fill="#ffffff" stroke="#000000" points="272.0962,-5.5 272.0962,-23.5 408.1841,-23.5 408.1841,-5.5 272.0962,-5.5"/>
<text text-anchor="middle" x="340.1401" y="-11.5" font-family="Helvetica,sans-Serif" font-size="10.00" fill="#000000">include/indigox/indigox.hpp</text>
</a>
</g>
</g>
<!-- Node8&#45;&gt;Node11 -->
<g id="edge3" class="edge">
<title>Node8&#45;&gt;Node11</title>
<path fill="none" stroke="#191970" d="M235.945,-61.2082C263.339,-48.9281 298.2499,-33.2784 319.8975,-23.5743"/>
<polygon fill="#191970" stroke="#191970" points="234.2964,-58.1116 226.603,-65.396 237.1598,-64.4991 234.2964,-58.1116"/>
</g>
</g>
</svg>
