<?xml version="1.0" encoding="UTF-8" standalone="no"?>
<!DOCTYPE svg PUBLIC "-//W3C//DTD SVG 1.1//EN"
 "http://www.w3.org/Graphics/SVG/1.1/DTD/svg11.dtd">
<!-- Generated by graphviz version 2.40.1 (20161225.0304)
 -->
<!-- Title: include/indigox/classes/molecule.hpp Pages: 1 -->
<svg width="1751pt" height="157pt"
 viewBox="0.00 0.00 1751.35 157.00" xmlns="http://www.w3.org/2000/svg" xmlns:xlink="http://www.w3.org/1999/xlink">
<g id="graph0" class="graph" transform="scale(1 1) rotate(0) translate(4 153)">
<title>include/indigox/classes/molecule.hpp</title>
<polygon fill="#ffffff" stroke="transparent" points="-4,4 -4,-153 1747.3545,-153 1747.3545,4 -4,4"/>
<!-- Node8 -->
<g id="node1" class="node">
<title>Node8</title>
<polygon fill="#bfbfbf" stroke="#000000" points="631.8721,-120.5 631.8721,-148.5 750.1523,-148.5 750.1523,-120.5 631.8721,-120.5"/>
<text text-anchor="start" x="639.8721" y="-136.5" font-family="Helvetica,sans-Serif" font-size="10.00" fill="#000000">include/indigox/classes</text>
<text text-anchor="middle" x="691.0122" y="-126.5" font-family="Helvetica,sans-Serif" font-size="10.00" fill="#000000">/molecule.hpp</text>
</g>
<!-- Node9 -->
<g id="node2" class="node">
<title>Node9</title>
<g id="a_node2"><a xlink:href="iters_8hpp.html" target="_top" xlink:title="include/indigox/classes\l/iters.hpp">
<polygon fill="#ffffff" stroke="#000000" points="39.8721,-55.5 39.8721,-83.5 158.1523,-83.5 158.1523,-55.5 39.8721,-55.5"/>
<text text-anchor="start" x="47.8721" y="-71.5" font-family="Helvetica,sans-Serif" font-size="10.00" fill="#000000">include/indigox/classes</text>
<text text-anchor="middle" x="99.0122" y="-61.5" font-family="Helvetica,sans-Serif" font-size="10.00" fill="#000000">/iters.hpp</text>
</a>
</g>
</g>
<!-- Node8&#45;&gt;Node9 -->
<g id="edge1" class="edge">
<title>Node8&#45;&gt;Node9</title>
<path fill="none" stroke="#191970" d="M621.5084,-129.8611C521.8519,-122.7255 332.7569,-107.382 173.0122,-84 168.2194,-83.2985 163.2662,-82.4968 158.2991,-81.6387"/>
<polygon fill="#191970" stroke="#191970" points="621.5246,-133.371 631.7474,-130.5879 622.0203,-126.3886 621.5246,-133.371"/>
</g>
<!-- Node10 -->
<g id="node3" class="node">
<title>Node10</title>
<g id="a_node3"><a xlink:href="iters_8cpp.html" target="_top" xlink:title="src/classes/iters.cpp">
<polygon fill="#ffffff" stroke="#000000" points="0,-.5 0,-18.5 106.0244,-18.5 106.0244,-.5 0,-.5"/>
<text text-anchor="middle" x="53.0122" y="-6.5" font-family="Helvetica,sans-Serif" font-size="10.00" fill="#000000">src/classes/iters.cpp</text>
</a>
</g>
</g>
<!-- Node8&#45;&gt;Node10 -->
<g id="edge20" class="edge">
<title>Node8&#45;&gt;Node10</title>
<path fill="none" stroke="#191970" d="M621.8424,-129.5233C541.593,-122.8858 405.6252,-108.9655 291.0122,-84 211.0567,-66.5837 119.4364,-34.2768 76.9556,-18.559"/>
<polygon fill="#191970" stroke="#191970" points="621.5765,-133.0132 631.8273,-130.3353 622.144,-126.0362 621.5765,-133.0132"/>
</g>
<!-- Node11 -->
<g id="node4" class="node">
<title>Node11</title>
<g id="a_node4"><a xlink:href="molecule__impl_8hpp.html" target="_top" xlink:title="include/indigox/classes\l/molecule_impl.hpp">
<polygon fill="#ffffff" stroke="#000000" points="506.8721,-55.5 506.8721,-83.5 625.1523,-83.5 625.1523,-55.5 506.8721,-55.5"/>
<text text-anchor="start" x="514.8721" y="-71.5" font-family="Helvetica,sans-Serif" font-size="10.00" fill="#000000">include/indigox/classes</text>
<text text-anchor="middle" x="566.0122" y="-61.5" font-family="Helvetica,sans-Serif" font-size="10.00" fill="#000000">/molecule_impl.hpp</text>
</a>
</g>
</g>
<!-- Node8&#45;&gt;Node11 -->
<g id="edge3" class="edge">
<title>Node8&#45;&gt;Node11</title>
<path fill="none" stroke="#191970" d="M654.8858,-115.7143C635.172,-105.4631 611.171,-92.9826 593.0824,-83.5765"/>
<polygon fill="#191970" stroke="#191970" points="653.4021,-118.8877 663.8891,-120.396 656.6316,-112.6771 653.4021,-118.8877"/>
</g>
<!-- Node12 -->
<g id="node5" class="node">
<title>Node12</title>
<g id="a_node5"><a xlink:href="angle_8cpp.html" target="_top" xlink:title="src/classes/angle.cpp">
<polygon fill="#ffffff" stroke="#000000" points="124.2119,-.5 124.2119,-18.5 235.8125,-18.5 235.8125,-.5 124.2119,-.5"/>
<text text-anchor="middle" x="180.0122" y="-6.5" font-family="Helvetica,sans-Serif" font-size="10.00" fill="#000000">src/classes/angle.cpp</text>
</a>
</g>
</g>
<!-- Node8&#45;&gt;Node12 -->
<g id="edge15" class="edge">
<title>Node8&#45;&gt;Node12</title>
<path fill="none" stroke="#191970" d="M621.7645,-126.7048C559.4482,-118.8253 465.7013,-104.8198 386.0122,-84 316.6522,-65.8788 237.7467,-34.0516 200.9586,-18.5275"/>
<polygon fill="#191970" stroke="#191970" points="621.5159,-130.2008 631.8719,-127.9639 622.3813,-123.2545 621.5159,-130.2008"/>
</g>
<!-- Node13 -->
<g id="node6" class="node">
<title>Node13</title>
<g id="a_node6"><a xlink:href="atom_8cpp.html" target="_top" xlink:title="src/classes/atom.cpp">
<polygon fill="#ffffff" stroke="#000000" points="253.3301,-.5 253.3301,-18.5 362.6943,-18.5 362.6943,-.5 253.3301,-.5"/>
<text text-anchor="middle" x="308.0122" y="-6.5" font-family="Helvetica,sans-Serif" font-size="10.00" fill="#000000">src/classes/atom.cpp</text>
</a>
</g>
</g>
<!-- Node8&#45;&gt;Node13 -->
<g id="edge17" class="edge">
<title>Node8&#45;&gt;Node13</title>
<path fill="none" stroke="#191970" d="M621.5818,-124.2254C574.3504,-116.1007 510.8899,-102.9434 457.0122,-84 405.7182,-65.965 349.4056,-34.2406 323.1086,-18.6594"/>
<polygon fill="#191970" stroke="#191970" points="621.2634,-127.7211 631.7063,-125.9329 622.4276,-120.8185 621.2634,-127.7211"/>
</g>
<!-- Node14 -->
<g id="node7" class="node">
<title>Node14</title>
<g id="a_node7"><a xlink:href="bond_8cpp.html" target="_top" xlink:title="src/classes/bond.cpp">
<polygon fill="#ffffff" stroke="#000000" points="380.3228,-.5 380.3228,-18.5 489.7017,-18.5 489.7017,-.5 380.3228,-.5"/>
<text text-anchor="middle" x="435.0122" y="-6.5" font-family="Helvetica,sans-Serif" font-size="10.00" fill="#000000">src/classes/bond.cpp</text>
</a>
</g>
</g>
<!-- Node8&#45;&gt;Node14 -->
<g id="edge18" class="edge">
<title>Node8&#45;&gt;Node14</title>
<path fill="none" stroke="#191970" d="M621.7917,-122.436C572.2568,-112.8365 510.6581,-98.6279 489.0122,-84 463.9971,-67.0952 446.4852,-34.5445 439.0322,-18.6641"/>
<polygon fill="#191970" stroke="#191970" points="621.362,-125.9171 631.8408,-124.3531 622.6738,-119.0411 621.362,-125.9171"/>
</g>
<!-- Node15 -->
<g id="node8" class="node">
<title>Node15</title>
<g id="a_node8"><a xlink:href="dihedral_8cpp.html" target="_top" xlink:title="src/classes/dihedral.cpp">
<polygon fill="#ffffff" stroke="#000000" points="507.6553,-.5 507.6553,-18.5 630.3691,-18.5 630.3691,-.5 507.6553,-.5"/>
<text text-anchor="middle" x="569.0122" y="-6.5" font-family="Helvetica,sans-Serif" font-size="10.00" fill="#000000">src/classes/dihedral.cpp</text>
</a>
</g>
</g>
<!-- Node8&#45;&gt;Node15 -->
<g id="edge19" class="edge">
<title>Node8&#45;&gt;Node15</title>
<path fill="none" stroke="#191970" d="M621.8133,-125.385C572.8586,-117.352 513.3084,-103.8136 498.0122,-84 490.1359,-73.7977 491.8279,-66.3083 498.0122,-55 507.5657,-37.5308 527.0067,-25.7813 543.1335,-18.6046"/>
<polygon fill="#191970" stroke="#191970" points="621.3369,-128.8531 631.7625,-126.9671 622.4363,-121.94 621.3369,-128.8531"/>
</g>
<!-- Node16 -->
<g id="node9" class="node">
<title>Node16</title>
<g id="a_node9"><a xlink:href="molecule_8cpp.html" target="_top" xlink:title="src/classes/molecule.cpp">
<polygon fill="#ffffff" stroke="#000000" points="648.436,-.5 648.436,-18.5 775.5884,-18.5 775.5884,-.5 648.436,-.5"/>
<text text-anchor="middle" x="712.0122" y="-6.5" font-family="Helvetica,sans-Serif" font-size="10.00" fill="#000000">src/classes/molecule.cpp</text>
</a>
</g>
</g>
<!-- Node8&#45;&gt;Node16 -->
<g id="edge21" class="edge">
<title>Node8&#45;&gt;Node16</title>
<path fill="none" stroke="#191970" d="M680.7406,-110.7159C675.2734,-94.6648 670.8301,-73.1761 677.0122,-55 681.8901,-40.6585 693.3143,-27.307 701.7915,-18.8258"/>
<polygon fill="#191970" stroke="#191970" points="677.5827,-112.2619 684.3798,-120.389 684.1344,-109.797 677.5827,-112.2619"/>
</g>
<!-- Node17 -->
<g id="node10" class="node">
<title>Node17</title>
<g id="a_node10"><a xlink:href="residue_8cpp.html" target="_top" xlink:title="src/classes/residue.cpp">
<polygon fill="#ffffff" stroke="#000000" points="794.0469,-.5 794.0469,-18.5 913.9775,-18.5 913.9775,-.5 794.0469,-.5"/>
<text text-anchor="middle" x="854.0122" y="-6.5" font-family="Helvetica,sans-Serif" font-size="10.00" fill="#000000">src/classes/residue.cpp</text>
</a>
</g>
</g>
<!-- Node8&#45;&gt;Node17 -->
<g id="edge23" class="edge">
<title>Node8&#45;&gt;Node17</title>
<path fill="none" stroke="#191970" d="M692.4776,-110.4221C694.7821,-92.9099 700.577,-69.7735 715.0122,-55 728.8095,-40.8794 777.1309,-27.1254 812.9443,-18.5026"/>
<polygon fill="#191970" stroke="#191970" points="688.9853,-110.1694 691.4478,-120.4741 695.9488,-110.8829 688.9853,-110.1694"/>
</g>
<!-- Node18 -->
<g id="node11" class="node">
<title>Node18</title>
<g id="a_node11"><a xlink:href="molecular_8cpp.html" target="_top" xlink:title="src/graph/molecular.cpp">
<polygon fill="#ffffff" stroke="#000000" points="931.9287,-.5 931.9287,-18.5 1054.0957,-18.5 1054.0957,-.5 931.9287,-.5"/>
<text text-anchor="middle" x="993.0122" y="-6.5" font-family="Helvetica,sans-Serif" font-size="10.00" fill="#000000">src/graph/molecular.cpp</text>
</a>
</g>
</g>
<!-- Node8&#45;&gt;Node18 -->
<g id="edge24" class="edge">
<title>Node8&#45;&gt;Node18</title>
<path fill="none" stroke="#191970" d="M701.4953,-111.3152C710.9908,-93.0598 726.7509,-68.5139 748.0122,-55 763.3696,-45.2387 864.3674,-28.6546 931.8017,-18.4323"/>
<polygon fill="#191970" stroke="#191970" points="698.2752,-109.9316 696.9872,-120.4478 704.5521,-113.0301 698.2752,-109.9316"/>
</g>
<!-- Node19 -->
<g id="node12" class="node">
<title>Node19</title>
<g id="a_node12"><a xlink:href="indigox_8hpp.html" target="_top" xlink:title="include/indigox/indigox.hpp">
<polygon fill="#ffffff" stroke="#000000" points="756.9683,-60.5 756.9683,-78.5 893.0562,-78.5 893.0562,-60.5 756.9683,-60.5"/>
<text text-anchor="middle" x="825.0122" y="-66.5" font-family="Helvetica,sans-Serif" font-size="10.00" fill="#000000">include/indigox/indigox.hpp</text>
</a>
</g>
</g>
<!-- Node8&#45;&gt;Node19 -->
<g id="edge11" class="edge">
<title>Node8&#45;&gt;Node19</title>
<path fill="none" stroke="#191970" d="M729.3864,-115.8856C754.6,-103.6552 786.4746,-88.1936 806.3052,-78.5743"/>
<polygon fill="#191970" stroke="#191970" points="727.558,-112.8825 720.0882,-120.396 730.6131,-119.1806 727.558,-112.8825"/>
</g>
<!-- Node20 -->
<g id="node13" class="node">
<title>Node20</title>
<g id="a_node13"><a xlink:href="cherrypicker_8cpp.html" target="_top" xlink:title="src/algorithm/cherrypicker.cpp">
<polygon fill="#ffffff" stroke="#000000" points="910.5986,-60.5 910.5986,-78.5 1059.4258,-78.5 1059.4258,-60.5 910.5986,-60.5"/>
<text text-anchor="middle" x="985.0122" y="-66.5" font-family="Helvetica,sans-Serif" font-size="10.00" fill="#000000">src/algorithm/cherrypicker.cpp</text>
</a>
</g>
</g>
<!-- Node8&#45;&gt;Node20 -->
<g id="edge12" class="edge">
<title>Node8&#45;&gt;Node20</title>
<path fill="none" stroke="#191970" d="M760.188,-119.206C817.2808,-106.5835 896.3813,-89.0953 943.9388,-78.5809"/>
<polygon fill="#191970" stroke="#191970" points="759.1625,-115.8482 750.1538,-121.4245 760.6736,-122.6831 759.1625,-115.8482"/>
</g>
<!-- Node21 -->
<g id="node14" class="node">
<title>Node21</title>
<g id="a_node14"><a xlink:href="assigner_8cpp.html" target="_top" xlink:title="src/algorithm/electron\l_assignment/assigner.cpp">
<polygon fill="#ffffff" stroke="#000000" points="1077.1973,-55.5 1077.1973,-83.5 1208.8271,-83.5 1208.8271,-55.5 1077.1973,-55.5"/>
<text text-anchor="start" x="1085.1973" y="-71.5" font-family="Helvetica,sans-Serif" font-size="10.00" fill="#000000">src/algorithm/electron</text>
<text text-anchor="middle" x="1143.0122" y="-61.5" font-family="Helvetica,sans-Serif" font-size="10.00" fill="#000000">_assignment/assigner.cpp</text>
</a>
</g>
</g>
<!-- Node8&#45;&gt;Node21 -->
<g id="edge13" class="edge">
<title>Node8&#45;&gt;Node21</title>
<path fill="none" stroke="#191970" d="M760.6268,-126.398C836.4187,-117.2921 961.1098,-101.4788 1068.0122,-84 1070.8916,-83.5292 1073.83,-83.0323 1076.796,-82.5171"/>
<polygon fill="#191970" stroke="#191970" points="759.7771,-122.9746 750.2637,-127.6378 760.6087,-129.925 759.7771,-122.9746"/>
</g>
<!-- Node22 -->
<g id="node15" class="node">
<title>Node22</title>
<g id="a_node15"><a xlink:href="connectivity_8cpp.html" target="_top" xlink:title="src/algorithm/graph\l/connectivity.cpp">
<polygon fill="#ffffff" stroke="#000000" points="1227.2168,-55.5 1227.2168,-83.5 1328.8076,-83.5 1328.8076,-55.5 1227.2168,-55.5"/>
<text text-anchor="start" x="1235.2168" y="-71.5" font-family="Helvetica,sans-Serif" font-size="10.00" fill="#000000">src/algorithm/graph</text>
<text text-anchor="middle" x="1278.0122" y="-61.5" font-family="Helvetica,sans-Serif" font-size="10.00" fill="#000000">/connectivity.cpp</text>
</a>
</g>
</g>
<!-- Node8&#45;&gt;Node22 -->
<g id="edge14" class="edge">
<title>Node8&#45;&gt;Node22</title>
<path fill="none" stroke="#191970" d="M760.3395,-130.992C861.4969,-125.1654 1055.2319,-111.3272 1218.0122,-84 1220.9714,-83.5032 1224.0011,-82.9416 1227.0504,-82.3354"/>
<polygon fill="#191970" stroke="#191970" points="760.0355,-127.5035 750.2498,-131.5642 760.4319,-134.4923 760.0355,-127.5035"/>
</g>
<!-- Node23 -->
<g id="node16" class="node">
<title>Node23</title>
<g id="a_node16"><a xlink:href="athenaeum_8cpp.html" target="_top" xlink:title="src/classes/athenaeum.cpp">
<polygon fill="#ffffff" stroke="#000000" points="1346.4263,-60.5 1346.4263,-78.5 1483.5981,-78.5 1483.5981,-60.5 1346.4263,-60.5"/>
<text text-anchor="middle" x="1415.0122" y="-66.5" font-family="Helvetica,sans-Serif" font-size="10.00" fill="#000000">src/classes/athenaeum.cpp</text>
</a>
</g>
</g>
<!-- Node8&#45;&gt;Node23 -->
<g id="edge16" class="edge">
<title>Node8&#45;&gt;Node23</title>
<path fill="none" stroke="#191970" d="M760.6093,-131.542C879.4209,-125.94 1128.8309,-111.7763 1338.0122,-84 1348.9348,-82.5496 1360.6541,-80.5654 1371.5725,-78.5304"/>
<polygon fill="#191970" stroke="#191970" points="760.3841,-128.0486 750.5577,-132.0101 760.7098,-135.041 760.3841,-128.0486"/>
</g>
<!-- Node24 -->
<g id="node17" class="node">
<title>Node24</title>
<g id="a_node17"><a xlink:href="parameterised_8cpp.html" target="_top" xlink:title="src/classes/parameterised.cpp">
<polygon fill="#ffffff" stroke="#000000" points="1501.4854,-60.5 1501.4854,-78.5 1652.5391,-78.5 1652.5391,-60.5 1501.4854,-60.5"/>
<text text-anchor="middle" x="1577.0122" y="-66.5" font-family="Helvetica,sans-Serif" font-size="10.00" fill="#000000">src/classes/parameterised.cpp</text>
</a>
</g>
</g>
<!-- Node8&#45;&gt;Node24 -->
<g id="edge22" class="edge">
<title>Node8&#45;&gt;Node24</title>
<path fill="none" stroke="#191970" d="M760.4293,-132.6534C899.7424,-128.3911 1223.1656,-115.6922 1493.0122,-84 1505.0646,-82.5845 1518.0143,-80.5881 1530.0499,-78.5282"/>
<polygon fill="#191970" stroke="#191970" points="760.2101,-129.1584 750.32,-132.9577 760.4208,-136.1552 760.2101,-129.1584"/>
</g>
<!-- Node25 -->
<g id="node18" class="node">
<title>Node25</title>
<g id="a_node18"><a xlink:href="main_8cpp.html" target="_top" xlink:title="src/main.cpp">
<polygon fill="#ffffff" stroke="#000000" points="1670.6699,-60.5 1670.6699,-78.5 1743.3545,-78.5 1743.3545,-60.5 1670.6699,-60.5"/>
<text text-anchor="middle" x="1707.0122" y="-66.5" font-family="Helvetica,sans-Serif" font-size="10.00" fill="#000000">src/main.cpp</text>
</a>
</g>
</g>
<!-- Node8&#45;&gt;Node25 -->
<g id="edge25" class="edge">
<title>Node8&#45;&gt;Node25</title>
<path fill="none" stroke="#191970" d="M760.5732,-133.2253C952.8609,-129.3288 1488.8017,-115.8483 1662.0122,-84 1668.9548,-82.7235 1676.3112,-80.6682 1683.02,-78.5015"/>
<polygon fill="#191970" stroke="#191970" points="760.241,-129.7311 750.313,-133.4307 760.3811,-136.7297 760.241,-129.7311"/>
</g>
<!-- Node9&#45;&gt;Node10 -->
<g id="edge2" class="edge">
<title>Node9&#45;&gt;Node10</title>
<path fill="none" stroke="#191970" d="M82.0079,-47.3205C74.3816,-37.3731 65.8097,-26.1924 59.9768,-18.5842"/>
<polygon fill="#191970" stroke="#191970" points="79.2489,-49.4743 88.1108,-55.2808 84.8041,-45.2152 79.2489,-49.4743"/>
</g>
<!-- Node11&#45;&gt;Node12 -->
<g id="edge4" class="edge">
<title>Node11&#45;&gt;Node12</title>
<path fill="none" stroke="#191970" d="M496.3144,-58.6661C421.7526,-47.0762 304.9529,-28.9208 236.094,-18.2174"/>
<polygon fill="#191970" stroke="#191970" points="496.1267,-62.1789 506.5456,-60.2565 497.2019,-55.262 496.1267,-62.1789"/>
</g>
<!-- Node11&#45;&gt;Node13 -->
<g id="edge5" class="edge">
<title>Node11&#45;&gt;Node13</title>
<path fill="none" stroke="#191970" d="M496.7992,-53.4039C448.758,-42.2316 386.5121,-27.7558 346.9058,-18.545"/>
<polygon fill="#191970" stroke="#191970" points="496.2889,-56.8786 506.8218,-55.7348 497.8745,-50.0605 496.2889,-56.8786"/>
</g>
<!-- Node11&#45;&gt;Node14 -->
<g id="edge6" class="edge">
<title>Node11&#45;&gt;Node14</title>
<path fill="none" stroke="#191970" d="M525.9143,-51.1346C502.4034,-40.3662 473.7255,-27.2313 454.9484,-18.6311"/>
<polygon fill="#191970" stroke="#191970" points="524.7493,-54.4506 535.2985,-55.4327 527.6643,-48.0863 524.7493,-54.4506"/>
</g>
<!-- Node11&#45;&gt;Node15 -->
<g id="edge7" class="edge">
<title>Node11&#45;&gt;Node15</title>
<path fill="none" stroke="#191970" d="M567.2265,-45.2151C567.6959,-35.8253 568.2042,-25.6598 568.558,-18.5842"/>
<polygon fill="#191970" stroke="#191970" points="563.727,-45.1185 566.7232,-55.2808 570.7183,-45.4681 563.727,-45.1185"/>
</g>
<!-- Node11&#45;&gt;Node16 -->
<g id="edge8" class="edge">
<title>Node11&#45;&gt;Node16</title>
<path fill="none" stroke="#191970" d="M609.6564,-51.564C636.0502,-40.7173 668.5871,-27.3459 689.7933,-18.6311"/>
<polygon fill="#191970" stroke="#191970" points="608.1617,-48.3942 600.2427,-55.4327 610.8225,-54.8688 608.1617,-48.3942"/>
</g>
<!-- Node11&#45;&gt;Node17 -->
<g id="edge9" class="edge">
<title>Node11&#45;&gt;Node17</title>
<path fill="none" stroke="#191970" d="M635.2866,-55.0678C689.8685,-43.6966 764.2636,-28.1976 810.6979,-18.5238"/>
<polygon fill="#191970" stroke="#191970" points="634.4127,-51.6747 625.3368,-57.1407 635.8405,-58.5275 634.4127,-51.6747"/>
</g>
<!-- Node11&#45;&gt;Node18 -->
<g id="edge10" class="edge">
<title>Node11&#45;&gt;Node18</title>
<path fill="none" stroke="#191970" d="M635.3826,-59.7524C717.5785,-48.2026 853.2419,-29.1399 931.7271,-18.1115"/>
<polygon fill="#191970" stroke="#191970" points="634.8004,-56.2997 625.3847,-61.1573 635.7745,-63.2316 634.8004,-56.2997"/>
</g>
</g>
</svg>
