<?xml version="1.0" encoding="UTF-8" standalone="no"?>
<!DOCTYPE svg PUBLIC "-//W3C//DTD SVG 1.1//EN"
 "http://www.w3.org/Graphics/SVG/1.1/DTD/svg11.dtd">
<!-- Generated by graphviz version 2.40.1 (20161225.0304)
 -->
<!-- Title: include/indigox/graph/molecular.hpp Pages: 1 -->
<svg width="2289pt" height="157pt"
 viewBox="0.00 0.00 2289.02 157.00" xmlns="http://www.w3.org/2000/svg" xmlns:xlink="http://www.w3.org/1999/xlink">
<g id="graph0" class="graph" transform="scale(1 1) rotate(0) translate(4 153)">
<title>include/indigox/graph/molecular.hpp</title>
<polygon fill="#ffffff" stroke="transparent" points="-4,4 -4,-153 2285.0244,-153 2285.0244,4 -4,4"/>
<!-- Node40 -->
<g id="node1" class="node">
<title>Node40</title>
<polygon fill="#bfbfbf" stroke="#000000" points="1275.4263,-120.5 1275.4263,-148.5 1385.938,-148.5 1385.938,-120.5 1275.4263,-120.5"/>
<text text-anchor="start" x="1283.4263" y="-136.5" font-family="Helvetica,sans-Serif" font-size="10.00" fill="#000000">include/indigox/graph</text>
<text text-anchor="middle" x="1330.6821" y="-126.5" font-family="Helvetica,sans-Serif" font-size="10.00" fill="#000000">/molecular.hpp</text>
</g>
<!-- Node41 -->
<g id="node2" class="node">
<title>Node41</title>
<g id="a_node2"><a xlink:href="molecule__impl_8hpp.html" target="_top" xlink:title="include/indigox/classes\l/molecule_impl.hpp">
<polygon fill="#ffffff" stroke="#000000" points="442.542,-55.5 442.542,-83.5 560.8223,-83.5 560.8223,-55.5 442.542,-55.5"/>
<text text-anchor="start" x="450.542" y="-71.5" font-family="Helvetica,sans-Serif" font-size="10.00" fill="#000000">include/indigox/classes</text>
<text text-anchor="middle" x="501.6821" y="-61.5" font-family="Helvetica,sans-Serif" font-size="10.00" fill="#000000">/molecule_impl.hpp</text>
</a>
</g>
</g>
<!-- Node40&#45;&gt;Node41 -->
<g id="edge1" class="edge">
<title>Node40&#45;&gt;Node41</title>
<path fill="none" stroke="#191970" d="M1265.0229,-131.6821C1136.8421,-125.801 844.4174,-110.5182 599.6821,-84 587.1143,-82.6382 573.6849,-80.8631 560.9246,-79.0243"/>
<polygon fill="#191970" stroke="#191970" points="1264.9224,-135.1811 1275.0712,-132.1393 1265.2406,-128.1883 1264.9224,-135.1811"/>
</g>
<!-- Node46 -->
<g id="node7" class="node">
<title>Node46</title>
<g id="a_node7"><a xlink:href="molecule_8cpp.html" target="_top" xlink:title="src/classes/molecule.cpp">
<polygon fill="#ffffff" stroke="#000000" points="524.106,-.5 524.106,-18.5 651.2583,-18.5 651.2583,-.5 524.106,-.5"/>
<text text-anchor="middle" x="587.6821" y="-6.5" font-family="Helvetica,sans-Serif" font-size="10.00" fill="#000000">src/classes/molecule.cpp</text>
</a>
</g>
</g>
<!-- Node40&#45;&gt;Node46 -->
<g id="edge17" class="edge">
<title>Node40&#45;&gt;Node46</title>
<path fill="none" stroke="#191970" d="M1265.028,-132.3061C1130.4761,-127.2695 827.761,-113.0156 728.6821,-84 677.9332,-69.138 624.4227,-34.982 600.5211,-18.5953"/>
<polygon fill="#191970" stroke="#191970" points="1265.0728,-135.81 1275.1951,-132.681 1265.3309,-128.8148 1265.0728,-135.81"/>
</g>
<!-- Node47 -->
<g id="node8" class="node">
<title>Node47</title>
<g id="a_node8"><a xlink:href="residue_8cpp.html" target="_top" xlink:title="src/classes/residue.cpp">
<polygon fill="#ffffff" stroke="#000000" points="669.7168,-.5 669.7168,-18.5 789.6475,-18.5 789.6475,-.5 669.7168,-.5"/>
<text text-anchor="middle" x="729.6821" y="-6.5" font-family="Helvetica,sans-Serif" font-size="10.00" fill="#000000">src/classes/residue.cpp</text>
</a>
</g>
</g>
<!-- Node40&#45;&gt;Node47 -->
<g id="edge18" class="edge">
<title>Node40&#45;&gt;Node47</title>
<path fill="none" stroke="#191970" d="M1265.1675,-132.9805C1121.514,-129.0596 788.4936,-116.5324 749.6821,-84 730.1818,-67.6545 728.6104,-34.5341 729.0963,-18.5428"/>
<polygon fill="#191970" stroke="#191970" points="1265.0866,-136.4795 1275.1766,-133.2481 1265.2738,-129.482 1265.0866,-136.4795"/>
</g>
<!-- Node48 -->
<g id="node9" class="node">
<title>Node48</title>
<g id="a_node9"><a xlink:href="molecular_8cpp.html" target="_top" xlink:title="src/graph/molecular.cpp">
<polygon fill="#ffffff" stroke="#000000" points="807.5986,-.5 807.5986,-18.5 929.7656,-18.5 929.7656,-.5 807.5986,-.5"/>
<text text-anchor="middle" x="868.6821" y="-6.5" font-family="Helvetica,sans-Serif" font-size="10.00" fill="#000000">src/graph/molecular.cpp</text>
</a>
</g>
</g>
<!-- Node40&#45;&gt;Node48 -->
<g id="edge21" class="edge">
<title>Node40&#45;&gt;Node48</title>
<path fill="none" stroke="#191970" d="M1265.0715,-133.5576C1122.4375,-130.8278 794.1789,-120.5956 760.6821,-84 733.9217,-54.7638 793.432,-30.8534 834.3015,-18.5355"/>
<polygon fill="#191970" stroke="#191970" points="1265.3605,-137.0634 1275.4235,-133.7487 1265.4898,-130.0646 1265.3605,-137.0634"/>
</g>
<!-- Node49 -->
<g id="node10" class="node">
<title>Node49</title>
<g id="a_node10"><a xlink:href="cherrypicker_8cpp.html" target="_top" xlink:title="src/algorithm/cherrypicker.cpp">
<polygon fill="#ffffff" stroke="#000000" points="769.2686,-60.5 769.2686,-78.5 918.0957,-78.5 918.0957,-60.5 769.2686,-60.5"/>
<text text-anchor="middle" x="843.6821" y="-66.5" font-family="Helvetica,sans-Serif" font-size="10.00" fill="#000000">src/algorithm/cherrypicker.cpp</text>
</a>
</g>
</g>
<!-- Node40&#45;&gt;Node49 -->
<g id="edge9" class="edge">
<title>Node40&#45;&gt;Node49</title>
<path fill="none" stroke="#191970" d="M1264.9288,-127.2751C1184.8663,-118.2486 1045.5994,-101.8089 926.6821,-84 915.8322,-82.3751 904.2156,-80.4578 893.213,-78.5588"/>
<polygon fill="#191970" stroke="#191970" points="1265.0193,-130.8071 1275.3475,-128.4455 1265.8008,-123.8509 1265.0193,-130.8071"/>
</g>
<!-- Node50 -->
<g id="node11" class="node">
<title>Node50</title>
<g id="a_node11"><a xlink:href="assigner_8cpp.html" target="_top" xlink:title="src/algorithm/electron\l_assignment/assigner.cpp">
<polygon fill="#ffffff" stroke="#000000" points="935.8672,-55.5 935.8672,-83.5 1067.4971,-83.5 1067.4971,-55.5 935.8672,-55.5"/>
<text text-anchor="start" x="943.8672" y="-71.5" font-family="Helvetica,sans-Serif" font-size="10.00" fill="#000000">src/algorithm/electron</text>
<text text-anchor="middle" x="1001.6821" y="-61.5" font-family="Helvetica,sans-Serif" font-size="10.00" fill="#000000">_assignment/assigner.cpp</text>
</a>
</g>
</g>
<!-- Node40&#45;&gt;Node50 -->
<g id="edge10" class="edge">
<title>Node40&#45;&gt;Node50</title>
<path fill="none" stroke="#191970" d="M1265.2055,-121.5639C1207.8802,-110.2382 1125.0017,-93.8641 1067.5581,-82.515"/>
<polygon fill="#191970" stroke="#191970" points="1264.755,-125.0425 1275.2438,-123.5471 1266.1118,-118.1752 1264.755,-125.0425"/>
</g>
<!-- Node51 -->
<g id="node12" class="node">
<title>Node51</title>
<g id="a_node12"><a xlink:href="astar__optimisation_8cpp.html" target="_top" xlink:title="src/algorithm/electron\l_assignment/astar_optimisation.cpp">
<polygon fill="#ffffff" stroke="#000000" points="1085.9165,-55.5 1085.9165,-83.5 1261.4478,-83.5 1261.4478,-55.5 1085.9165,-55.5"/>
<text text-anchor="start" x="1093.9165" y="-71.5" font-family="Helvetica,sans-Serif" font-size="10.00" fill="#000000">src/algorithm/electron</text>
<text text-anchor="middle" x="1173.6821" y="-61.5" font-family="Helvetica,sans-Serif" font-size="10.00" fill="#000000">_assignment/astar_optimisation.cpp</text>
</a>
</g>
</g>
<!-- Node40&#45;&gt;Node51 -->
<g id="edge11" class="edge">
<title>Node40&#45;&gt;Node51</title>
<path fill="none" stroke="#191970" d="M1287.312,-116.5442C1262.1891,-106.143 1231.0184,-93.238 1207.6823,-83.5765"/>
<polygon fill="#191970" stroke="#191970" points="1286.0371,-119.8045 1296.6155,-120.396 1288.7149,-113.3368 1286.0371,-119.8045"/>
</g>
<!-- Node52 -->
<g id="node13" class="node">
<title>Node52</title>
<g id="a_node13"><a xlink:href="connectivity_8cpp.html" target="_top" xlink:title="src/algorithm/graph\l/connectivity.cpp">
<polygon fill="#ffffff" stroke="#000000" points="1279.8867,-55.5 1279.8867,-83.5 1381.4775,-83.5 1381.4775,-55.5 1279.8867,-55.5"/>
<text text-anchor="start" x="1287.8867" y="-71.5" font-family="Helvetica,sans-Serif" font-size="10.00" fill="#000000">src/algorithm/graph</text>
<text text-anchor="middle" x="1330.6821" y="-61.5" font-family="Helvetica,sans-Serif" font-size="10.00" fill="#000000">/connectivity.cpp</text>
</a>
</g>
</g>
<!-- Node40&#45;&gt;Node52 -->
<g id="edge12" class="edge">
<title>Node40&#45;&gt;Node52</title>
<path fill="none" stroke="#191970" d="M1330.6821,-110.1081C1330.6821,-101.1539 1330.6821,-91.3227 1330.6821,-83.5765"/>
<polygon fill="#191970" stroke="#191970" points="1327.1822,-110.3959 1330.6821,-120.396 1334.1822,-110.396 1327.1822,-110.3959"/>
</g>
<!-- Node53 -->
<g id="node14" class="node">
<title>Node53</title>
<g id="a_node14"><a xlink:href="cycles_8cpp.html" target="_top" xlink:title="src/algorithm/graph\l/cycles.cpp">
<polygon fill="#ffffff" stroke="#000000" points="1399.8867,-55.5 1399.8867,-83.5 1501.4775,-83.5 1501.4775,-55.5 1399.8867,-55.5"/>
<text text-anchor="start" x="1407.8867" y="-71.5" font-family="Helvetica,sans-Serif" font-size="10.00" fill="#000000">src/algorithm/graph</text>
<text text-anchor="middle" x="1450.6821" y="-61.5" font-family="Helvetica,sans-Serif" font-size="10.00" fill="#000000">/cycles.cpp</text>
</a>
</g>
</g>
<!-- Node40&#45;&gt;Node53 -->
<g id="edge13" class="edge">
<title>Node40&#45;&gt;Node53</title>
<path fill="none" stroke="#191970" d="M1365.6206,-115.575C1384.4971,-105.3502 1407.4082,-92.94 1424.6947,-83.5765"/>
<polygon fill="#191970" stroke="#191970" points="1363.8463,-112.5556 1356.7203,-120.396 1367.1803,-118.7106 1363.8463,-112.5556"/>
</g>
<!-- Node54 -->
<g id="node15" class="node">
<title>Node54</title>
<g id="a_node15"><a xlink:href="isomorphism_8cpp.html" target="_top" xlink:title="src/algorithm/graph\l/isomorphism.cpp">
<polygon fill="#ffffff" stroke="#000000" points="1519.8867,-55.5 1519.8867,-83.5 1621.4775,-83.5 1621.4775,-55.5 1519.8867,-55.5"/>
<text text-anchor="start" x="1527.8867" y="-71.5" font-family="Helvetica,sans-Serif" font-size="10.00" fill="#000000">src/algorithm/graph</text>
<text text-anchor="middle" x="1570.6821" y="-61.5" font-family="Helvetica,sans-Serif" font-size="10.00" fill="#000000">/isomorphism.cpp</text>
</a>
</g>
</g>
<!-- Node40&#45;&gt;Node54 -->
<g id="edge14" class="edge">
<title>Node40&#45;&gt;Node54</title>
<path fill="none" stroke="#191970" d="M1392.262,-117.8221C1431.8125,-107.1105 1482.5622,-93.3658 1519.8181,-83.2757"/>
<polygon fill="#191970" stroke="#191970" points="1391.2004,-114.4835 1382.4631,-120.476 1393.0303,-121.2401 1391.2004,-114.4835"/>
</g>
<!-- Node55 -->
<g id="node16" class="node">
<title>Node55</title>
<g id="a_node16"><a xlink:href="paths_8cpp.html" target="_top" xlink:title="src/algorithm/graph\l/paths.cpp">
<polygon fill="#ffffff" stroke="#000000" points="1639.8867,-55.5 1639.8867,-83.5 1741.4775,-83.5 1741.4775,-55.5 1639.8867,-55.5"/>
<text text-anchor="start" x="1647.8867" y="-71.5" font-family="Helvetica,sans-Serif" font-size="10.00" fill="#000000">src/algorithm/graph</text>
<text text-anchor="middle" x="1690.6821" y="-61.5" font-family="Helvetica,sans-Serif" font-size="10.00" fill="#000000">/paths.cpp</text>
</a>
</g>
</g>
<!-- Node40&#45;&gt;Node55 -->
<g id="edge15" class="edge">
<title>Node40&#45;&gt;Node55</title>
<path fill="none" stroke="#191970" d="M1396.4371,-124.794C1457.383,-115.4755 1550.4646,-100.4234 1630.6821,-84 1633.6218,-83.3981 1636.6362,-82.7545 1639.6737,-82.0854"/>
<polygon fill="#191970" stroke="#191970" points="1395.5508,-121.3885 1386.191,-126.3529 1396.6037,-128.3088 1395.5508,-121.3885"/>
</g>
<!-- Node56 -->
<g id="node17" class="node">
<title>Node56</title>
<g id="a_node17"><a xlink:href="athenaeum_8cpp.html" target="_top" xlink:title="src/classes/athenaeum.cpp">
<polygon fill="#ffffff" stroke="#000000" points="1759.0962,-60.5 1759.0962,-78.5 1896.2681,-78.5 1896.2681,-60.5 1759.0962,-60.5"/>
<text text-anchor="middle" x="1827.6821" y="-66.5" font-family="Helvetica,sans-Serif" font-size="10.00" fill="#000000">src/classes/athenaeum.cpp</text>
</a>
</g>
</g>
<!-- Node40&#45;&gt;Node56 -->
<g id="edge16" class="edge">
<title>Node40&#45;&gt;Node56</title>
<path fill="none" stroke="#191970" d="M1396.2353,-127.9817C1479.0325,-119.4358 1625.7828,-103.247 1750.6821,-84 1761.0343,-82.4047 1772.1251,-80.4573 1782.5737,-78.5139"/>
<polygon fill="#191970" stroke="#191970" points="1395.8052,-124.5074 1386.2152,-129.0108 1396.5204,-131.4708 1395.8052,-124.5074"/>
</g>
<!-- Node57 -->
<g id="node18" class="node">
<title>Node57</title>
<g id="a_node18"><a xlink:href="assignment_8cpp.html" target="_top" xlink:title="src/graph/assignment.cpp">
<polygon fill="#ffffff" stroke="#000000" points="1914.4312,-60.5 1914.4312,-78.5 2044.9331,-78.5 2044.9331,-60.5 1914.4312,-60.5"/>
<text text-anchor="middle" x="1979.6821" y="-66.5" font-family="Helvetica,sans-Serif" font-size="10.00" fill="#000000">src/graph/assignment.cpp</text>
</a>
</g>
</g>
<!-- Node40&#45;&gt;Node57 -->
<g id="edge19" class="edge">
<title>Node40&#45;&gt;Node57</title>
<path fill="none" stroke="#191970" d="M1396.0026,-131.0217C1502.9332,-124.8219 1721.8492,-110.0088 1905.6821,-84 1916.0521,-82.5329 1927.1674,-80.5667 1937.5495,-78.5566"/>
<polygon fill="#191970" stroke="#191970" points="1395.7922,-127.528 1386.009,-131.5949 1396.1931,-134.5165 1395.7922,-127.528"/>
</g>
<!-- Node58 -->
<g id="node19" class="node">
<title>Node58</title>
<g id="a_node19"><a xlink:href="condensed_8cpp.html" target="_top" xlink:title="src/graph/condensed.cpp">
<polygon fill="#ffffff" stroke="#000000" points="2062.5347,-60.5 2062.5347,-78.5 2190.8296,-78.5 2190.8296,-60.5 2062.5347,-60.5"/>
<text text-anchor="middle" x="2126.6821" y="-66.5" font-family="Helvetica,sans-Serif" font-size="10.00" fill="#000000">src/graph/condensed.cpp</text>
</a>
</g>
</g>
<!-- Node40&#45;&gt;Node58 -->
<g id="edge20" class="edge">
<title>Node40&#45;&gt;Node58</title>
<path fill="none" stroke="#191970" d="M1396.6145,-132.6816C1524.0597,-128.5511 1812.8882,-116.1928 2053.6821,-84 2064.1841,-82.5959 2075.448,-80.6037 2085.9083,-78.544"/>
<polygon fill="#191970" stroke="#191970" points="1396.1372,-129.1949 1386.2534,-133.0107 1396.3595,-136.1914 1396.1372,-129.1949"/>
</g>
<!-- Node59 -->
<g id="node20" class="node">
<title>Node59</title>
<g id="a_node20"><a xlink:href="main_8cpp.html" target="_top" xlink:title="src/main.cpp">
<polygon fill="#ffffff" stroke="#000000" points="2208.3398,-60.5 2208.3398,-78.5 2281.0244,-78.5 2281.0244,-60.5 2208.3398,-60.5"/>
<text text-anchor="middle" x="2244.6821" y="-66.5" font-family="Helvetica,sans-Serif" font-size="10.00" fill="#000000">src/main.cpp</text>
</a>
</g>
</g>
<!-- Node40&#45;&gt;Node59 -->
<g id="edge22" class="edge">
<title>Node40&#45;&gt;Node59</title>
<path fill="none" stroke="#191970" d="M1396.1711,-132.8436C1570.9642,-128.0797 2045.6617,-112.8046 2199.6821,-84 2206.4594,-82.7325 2213.6341,-80.7357 2220.2156,-78.6246"/>
<polygon fill="#191970" stroke="#191970" points="1395.9891,-129.3472 1386.0872,-133.1159 1396.1781,-136.3446 1395.9891,-129.3472"/>
</g>
<!-- Node42 -->
<g id="node3" class="node">
<title>Node42</title>
<g id="a_node3"><a xlink:href="angle_8cpp.html" target="_top" xlink:title="src/classes/angle.cpp">
<polygon fill="#ffffff" stroke="#000000" points="394.8818,-.5 394.8818,-18.5 506.4824,-18.5 506.4824,-.5 394.8818,-.5"/>
<text text-anchor="middle" x="450.6821" y="-6.5" font-family="Helvetica,sans-Serif" font-size="10.00" fill="#000000">src/classes/angle.cpp</text>
</a>
</g>
</g>
<!-- Node41&#45;&gt;Node42 -->
<g id="edge2" class="edge">
<title>Node41&#45;&gt;Node42</title>
<path fill="none" stroke="#191970" d="M483.0829,-47.6186C474.5646,-37.5971 464.9353,-26.2685 458.4037,-18.5842"/>
<polygon fill="#191970" stroke="#191970" points="480.4525,-49.9282 489.5958,-55.2808 485.7861,-45.3946 480.4525,-49.9282"/>
</g>
<!-- Node43 -->
<g id="node4" class="node">
<title>Node43</title>
<g id="a_node4"><a xlink:href="atom_8cpp.html" target="_top" xlink:title="src/classes/atom.cpp">
<polygon fill="#ffffff" stroke="#000000" points="0,-.5 0,-18.5 109.3643,-18.5 109.3643,-.5 0,-.5"/>
<text text-anchor="middle" x="54.6821" y="-6.5" font-family="Helvetica,sans-Serif" font-size="10.00" fill="#000000">src/classes/atom.cpp</text>
</a>
</g>
</g>
<!-- Node41&#45;&gt;Node43 -->
<g id="edge3" class="edge">
<title>Node41&#45;&gt;Node43</title>
<path fill="none" stroke="#191970" d="M432.3808,-60.7866C355.4421,-51.0196 227.599,-34.5136 117.6821,-19 115.0535,-18.629 112.364,-18.2441 109.6482,-17.8511"/>
<polygon fill="#191970" stroke="#191970" points="432.069,-64.275 442.4299,-62.0607 432.9496,-57.3306 432.069,-64.275"/>
</g>
<!-- Node44 -->
<g id="node5" class="node">
<title>Node44</title>
<g id="a_node5"><a xlink:href="bond_8cpp.html" target="_top" xlink:title="src/classes/bond.cpp">
<polygon fill="#ffffff" stroke="#000000" points="126.9927,-.5 126.9927,-18.5 236.3716,-18.5 236.3716,-.5 126.9927,-.5"/>
<text text-anchor="middle" x="181.6821" y="-6.5" font-family="Helvetica,sans-Serif" font-size="10.00" fill="#000000">src/classes/bond.cpp</text>
</a>
</g>
</g>
<!-- Node41&#45;&gt;Node44 -->
<g id="edge4" class="edge">
<title>Node41&#45;&gt;Node44</title>
<path fill="none" stroke="#191970" d="M432.2833,-56.4877C371.1223,-45.02 283.615,-28.6124 229.8369,-18.529"/>
<polygon fill="#191970" stroke="#191970" points="431.7688,-59.9522 442.2425,-58.3551 433.0588,-53.0721 431.7688,-59.9522"/>
</g>
<!-- Node45 -->
<g id="node6" class="node">
<title>Node45</title>
<g id="a_node6"><a xlink:href="dihedral_8cpp.html" target="_top" xlink:title="src/classes/dihedral.cpp">
<polygon fill="#ffffff" stroke="#000000" points="254.3252,-.5 254.3252,-18.5 377.0391,-18.5 377.0391,-.5 254.3252,-.5"/>
<text text-anchor="middle" x="315.6821" y="-6.5" font-family="Helvetica,sans-Serif" font-size="10.00" fill="#000000">src/classes/dihedral.cpp</text>
</a>
</g>
</g>
<!-- Node41&#45;&gt;Node45 -->
<g id="edge5" class="edge">
<title>Node41&#45;&gt;Node45</title>
<path fill="none" stroke="#191970" d="M448.2505,-52.264C414.1411,-41.261 371.3027,-27.4421 343.7115,-18.5417"/>
<polygon fill="#191970" stroke="#191970" points="447.4818,-55.6936 458.0734,-55.4327 449.6308,-49.0316 447.4818,-55.6936"/>
</g>
<!-- Node41&#45;&gt;Node46 -->
<g id="edge6" class="edge">
<title>Node41&#45;&gt;Node46</title>
<path fill="none" stroke="#191970" d="M530.5069,-49.3897C545.462,-38.9559 562.993,-26.725 574.6615,-18.5842"/>
<polygon fill="#191970" stroke="#191970" points="528.2616,-46.6885 522.0629,-55.2808 532.2669,-52.4294 528.2616,-46.6885"/>
</g>
<!-- Node41&#45;&gt;Node47 -->
<g id="edge7" class="edge">
<title>Node41&#45;&gt;Node47</title>
<path fill="none" stroke="#191970" d="M565.0351,-52.8282C607.182,-41.7369 660.9215,-27.5949 695.3236,-18.5417"/>
<polygon fill="#191970" stroke="#191970" points="563.918,-49.5029 555.138,-55.4327 565.6995,-56.2724 563.918,-49.5029"/>
</g>
<!-- Node41&#45;&gt;Node48 -->
<g id="edge8" class="edge">
<title>Node41&#45;&gt;Node48</title>
<path fill="none" stroke="#191970" d="M571.1564,-58.1418C641.5085,-46.6401 748.9021,-29.0826 813.5958,-18.5059"/>
<polygon fill="#191970" stroke="#191970" points="570.3592,-54.7256 561.0549,-59.7933 571.4886,-61.6339 570.3592,-54.7256"/>
</g>
</g>
</svg>
