<?xml version="1.0" encoding="UTF-8" standalone="no"?>
<!DOCTYPE svg PUBLIC "-//W3C//DTD SVG 1.1//EN"
 "http://www.w3.org/Graphics/SVG/1.1/DTD/svg11.dtd">
<!-- Generated by graphviz version 2.40.1 (20161225.0304)
 -->
<!-- Title: include/indigox/graph/molecular.hpp Pages: 1 -->
<svg width="2501pt" height="407pt"
 viewBox="0.00 0.00 2501.03 407.00" xmlns="http://www.w3.org/2000/svg" xmlns:xlink="http://www.w3.org/1999/xlink">
<g id="graph0" class="graph" transform="scale(1 1) rotate(0) translate(4 403)">
<title>include/indigox/graph/molecular.hpp</title>
<polygon fill="#ffffff" stroke="transparent" points="-4,4 -4,-403 2497.0266,-403 2497.0266,4 -4,4"/>
<!-- Node0 -->
<g id="node1" class="node">
<title>Node0</title>
<g id="a_node1"><a xlink:title=" ">
<polygon fill="#bfbfbf" stroke="#000000" points="1367.7141,-370.5 1367.7141,-398.5 1478.2258,-398.5 1478.2258,-370.5 1367.7141,-370.5"/>
<text text-anchor="start" x="1375.7141" y="-386.5" font-family="Helvetica,sans-Serif" font-size="10.00" fill="#000000">include/indigox/graph</text>
<text text-anchor="middle" x="1422.9699" y="-376.5" font-family="Helvetica,sans-Serif" font-size="10.00" fill="#000000">/molecular.hpp</text>
</a>
</g>
</g>
<!-- Node1 -->
<g id="node2" class="node">
<title>Node1</title>
<g id="a_node2"><a xlink:href="cycles_8hpp.html" target="_top" xlink:title=" ">
<polygon fill="#ffffff" stroke="#000000" points="482.0613,-185.5 482.0613,-213.5 575.8786,-213.5 575.8786,-185.5 482.0613,-185.5"/>
<text text-anchor="start" x="490.0613" y="-201.5" font-family="Helvetica,sans-Serif" font-size="10.00" fill="#000000">../algorithm/graph</text>
<text text-anchor="middle" x="528.9699" y="-191.5" font-family="Helvetica,sans-Serif" font-size="10.00" fill="#000000">/cycles.hpp</text>
</a>
</g>
</g>
<!-- Node0&#45;&gt;Node1 -->
<g id="edge1" class="edge">
<title>Node0&#45;&gt;Node1</title>
<path fill="none" stroke="#191970" d="M1367.6847,-382.8013C1214.4909,-377.791 786.7725,-361.665 648.9699,-334 575.2457,-319.1993 532.6518,-340.2063 488.9699,-279 476.0116,-260.843 490.3916,-237.8803 505.3957,-221.3074"/>
<polygon fill="#191970" stroke="#191970" points="508.2753,-223.3632 512.6944,-213.7339 503.235,-218.5057 508.2753,-223.3632"/>
</g>
<!-- Node2 -->
<g id="node3" class="node">
<title>Node2</title>
<g id="a_node3"><a xlink:href="fwd__declares_8hpp.html" target="_top" xlink:title=" ">
<polygon fill="#ffffff" stroke="#000000" points="538.1623,-60.5 538.1623,-78.5 669.7776,-78.5 669.7776,-60.5 538.1623,-60.5"/>
<text text-anchor="middle" x="603.9699" y="-66.5" font-family="Helvetica,sans-Serif" font-size="10.00" fill="#000000">../../utils/fwd_declares.hpp</text>
</a>
</g>
</g>
<!-- Node0&#45;&gt;Node2 -->
<g id="edge13" class="edge">
<title>Node0&#45;&gt;Node2</title>
<path fill="none" stroke="#191970" d="M1426.7237,-370.208C1432.2609,-347.8342 1441.9699,-303.0999 1441.9699,-264.5 1441.9699,-264.5 1441.9699,-264.5 1441.9699,-199.5 1441.9699,-28.0128 847.9675,-113.1151 678.9699,-84 672.6231,-82.9066 665.9854,-81.7062 659.3954,-80.4788"/>
<polygon fill="#191970" stroke="#191970" points="659.6038,-76.9563 649.1279,-78.5393 658.3045,-83.8347 659.6038,-76.9563"/>
</g>
<!-- Node4 -->
<g id="node5" class="node">
<title>Node4</title>
<g id="a_node5"><a xlink:title=" ">
<polygon fill="#ffffff" stroke="#bfbfbf" points="2440.9133,-.5 2440.9133,-18.5 2493.0266,-18.5 2493.0266,-.5 2440.9133,-.5"/>
<text text-anchor="middle" x="2466.9699" y="-6.5" font-family="Helvetica,sans-Serif" font-size="10.00" fill="#000000">memory</text>
</a>
</g>
</g>
<!-- Node0&#45;&gt;Node4 -->
<g id="edge55" class="edge">
<title>Node0&#45;&gt;Node4</title>
<path fill="none" stroke="#191970" d="M1434.2828,-370.4074C1447.9035,-354.4314 1472.2994,-328.8185 1498.9699,-315 1652.269,-235.5731 2090.9902,-192.8977 2257.9699,-149 2352.8719,-124.051 2410.6859,-162.9418 2468.9699,-84 2480.5842,-68.2694 2477.7889,-45.1487 2473.5495,-28.8451"/>
<polygon fill="#191970" stroke="#191970" points="2476.7685,-27.3946 2470.5431,-18.8217 2470.0636,-29.4057 2476.7685,-27.3946"/>
</g>
<!-- Node8 -->
<g id="node9" class="node">
<title>Node8</title>
<g id="a_node9"><a xlink:title=" ">
<polygon fill="#ffffff" stroke="#bfbfbf" points="15.4084,-60.5 15.4084,-78.5 62.5315,-78.5 62.5315,-60.5 15.4084,-60.5"/>
<text text-anchor="middle" x="38.9699" y="-66.5" font-family="Helvetica,sans-Serif" font-size="10.00" fill="#000000">iterator</text>
</a>
</g>
</g>
<!-- Node0&#45;&gt;Node8 -->
<g id="edge53" class="edge">
<title>Node0&#45;&gt;Node8</title>
<path fill="none" stroke="#191970" d="M1367.7022,-383.3102C1176.2881,-378.9722 542.3788,-362.7354 340.9699,-334 210.6157,-315.4021 52.9699,-396.1743 52.9699,-264.5 52.9699,-264.5 52.9699,-264.5 52.9699,-199.5 52.9699,-159.9329 46.4796,-113.9793 42.3372,-88.679"/>
<polygon fill="#191970" stroke="#191970" points="45.7518,-87.8801 40.6309,-78.6051 38.8501,-89.0492 45.7518,-87.8801"/>
</g>
<!-- Node11 -->
<g id="node12" class="node">
<title>Node11</title>
<g id="a_node12"><a xlink:title=" ">
<polygon fill="#ffffff" stroke="#bfbfbf" points="382.3542,-60.5 382.3542,-78.5 425.5857,-78.5 425.5857,-60.5 382.3542,-60.5"/>
<text text-anchor="middle" x="403.9699" y="-66.5" font-family="Helvetica,sans-Serif" font-size="10.00" fill="#000000">vector</text>
</a>
</g>
</g>
<!-- Node0&#45;&gt;Node11 -->
<g id="edge58" class="edge">
<title>Node0&#45;&gt;Node11</title>
<path fill="none" stroke="#191970" d="M1367.5047,-383.3538C1197.8602,-379.5372 687.6297,-365.665 524.9699,-334 430.9509,-315.6973 320.9699,-360.284 320.9699,-264.5 320.9699,-264.5 320.9699,-264.5 320.9699,-199.5 320.9699,-152.1064 360.644,-108.1063 385.1327,-85.4615"/>
<polygon fill="#191970" stroke="#191970" points="387.6549,-87.9015 392.7762,-78.6266 382.9888,-82.6834 387.6549,-87.9015"/>
</g>
<!-- Node12 -->
<g id="node13" class="node">
<title>Node12</title>
<g id="a_node13"><a xlink:href="base__graph_8hpp.html" target="_top" xlink:title=" ">
<polygon fill="#ffffff" stroke="#000000" points="657.8274,-315.5 657.8274,-333.5 746.1125,-333.5 746.1125,-315.5 657.8274,-315.5"/>
<text text-anchor="middle" x="701.9699" y="-321.5" font-family="Helvetica,sans-Serif" font-size="10.00" fill="#000000">base_graph.hpp</text>
</a>
</g>
</g>
<!-- Node0&#45;&gt;Node12 -->
<g id="edge14" class="edge">
<title>Node0&#45;&gt;Node12</title>
<path fill="none" stroke="#191970" d="M1367.5915,-379.8915C1232.935,-368.6857 889.6522,-340.1185 756.1954,-329.0125"/>
<polygon fill="#191970" stroke="#191970" points="756.4554,-325.5221 746.1996,-328.1807 755.8748,-332.498 756.4554,-325.5221"/>
</g>
<!-- Node14 -->
<g id="node15" class="node">
<title>Node14</title>
<g id="a_node15"><a xlink:title=" ">
<polygon fill="#ffffff" stroke="#bfbfbf" points="906.448,-190.5 906.448,-208.5 1017.4919,-208.5 1017.4919,-190.5 906.448,-190.5"/>
<text text-anchor="middle" x="961.9699" y="-196.5" font-family="Helvetica,sans-Serif" font-size="10.00" fill="#000000">EASTL/vector_map.h</text>
</a>
</g>
</g>
<!-- Node0&#45;&gt;Node14 -->
<g id="edge52" class="edge">
<title>Node0&#45;&gt;Node14</title>
<path fill="none" stroke="#191970" d="M1387.9416,-370.4431C1301.2206,-335.6418 1077.5165,-245.869 994.0241,-212.3634"/>
<polygon fill="#191970" stroke="#191970" points="995.14,-209.0399 984.5558,-208.5638 992.5329,-215.5363 995.14,-209.0399"/>
</g>
<!-- Node37 -->
<g id="node38" class="node">
<title>Node37</title>
<g id="a_node38"><a xlink:title=" ">
<polygon fill="#ffffff" stroke="#bfbfbf" points="1508.2434,-315.5 1508.2434,-333.5 1543.6965,-333.5 1543.6965,-315.5 1508.2434,-315.5"/>
<text text-anchor="middle" x="1525.9699" y="-321.5" font-family="Helvetica,sans-Serif" font-size="10.00" fill="#000000">map</text>
</a>
</g>
</g>
<!-- Node0&#45;&gt;Node37 -->
<g id="edge54" class="edge">
<title>Node0&#45;&gt;Node37</title>
<path fill="none" stroke="#191970" d="M1447.1189,-370.4327C1463.4222,-360.9356 1484.8771,-348.4376 1501.2906,-338.8763"/>
<polygon fill="#191970" stroke="#191970" points="1503.4159,-341.6889 1510.295,-333.6311 1499.8924,-335.6403 1503.4159,-341.6889"/>
</g>
<!-- Node38 -->
<g id="node39" class="node">
<title>Node38</title>
<g id="a_node39"><a xlink:title=" ">
<polygon fill="#ffffff" stroke="#bfbfbf" points="1561.3,-315.5 1561.3,-333.5 1590.6399,-333.5 1590.6399,-315.5 1561.3,-315.5"/>
<text text-anchor="middle" x="1575.9699" y="-321.5" font-family="Helvetica,sans-Serif" font-size="10.00" fill="#000000">set</text>
</a>
</g>
</g>
<!-- Node0&#45;&gt;Node38 -->
<g id="edge56" class="edge">
<title>Node0&#45;&gt;Node38</title>
<path fill="none" stroke="#191970" d="M1459.7544,-370.449C1483.6924,-361.2518 1515.8112,-348.8123 1551.3027,-334.6245"/>
<polygon fill="#191970" stroke="#191970" points="1552.9146,-337.7492 1560.8948,-330.7801 1550.3105,-331.2516 1552.9146,-337.7492"/>
</g>
<!-- Node39 -->
<g id="node40" class="node">
<title>Node39</title>
<g id="a_node40"><a xlink:title=" ">
<polygon fill="#ffffff" stroke="#bfbfbf" points="1608.5686,-315.5 1608.5686,-333.5 1667.3713,-333.5 1667.3713,-315.5 1608.5686,-315.5"/>
<text text-anchor="middle" x="1637.9699" y="-321.5" font-family="Helvetica,sans-Serif" font-size="10.00" fill="#000000">stdexcept</text>
</a>
</g>
</g>
<!-- Node0&#45;&gt;Node39 -->
<g id="edge57" class="edge">
<title>Node0&#45;&gt;Node39</title>
<path fill="none" stroke="#191970" d="M1473.3779,-370.4327C1511.5601,-359.7772 1563.2793,-345.3439 1598.4839,-335.5194"/>
<polygon fill="#191970" stroke="#191970" points="1599.7065,-338.812 1608.3976,-332.7527 1597.8249,-332.0696 1599.7065,-338.812"/>
</g>
<!-- Node1&#45;&gt;Node2 -->
<g id="edge2" class="edge">
<title>Node1&#45;&gt;Node2</title>
<path fill="none" stroke="#191970" d="M549.9993,-185.4769C561.9762,-176.428 576.2813,-163.634 584.9699,-149 595.9186,-130.5595 600.5619,-106.1859 602.5288,-89.3106"/>
<polygon fill="#191970" stroke="#191970" points="606.0477,-89.2765 603.5076,-78.9907 599.079,-88.6156 606.0477,-89.2765"/>
</g>
<!-- Node5 -->
<g id="node6" class="node">
<title>Node5</title>
<g id="a_node6"><a xlink:href="numerics_8hpp.html" target="_top" xlink:title=" ">
<polygon fill="#ffffff" stroke="#000000" points="179.3396,-125.5 179.3396,-143.5 292.6003,-143.5 292.6003,-125.5 179.3396,-125.5"/>
<text text-anchor="middle" x="235.9699" y="-131.5" font-family="Helvetica,sans-Serif" font-size="10.00" fill="#000000">../../utils/numerics.hpp</text>
</a>
</g>
</g>
<!-- Node1&#45;&gt;Node5 -->
<g id="edge5" class="edge">
<title>Node1&#45;&gt;Node5</title>
<path fill="none" stroke="#191970" d="M481.8944,-189.0566C428.4414,-177.1985 341.5525,-157.9228 286.6491,-145.7428"/>
<polygon fill="#191970" stroke="#191970" points="287.3057,-142.3035 276.785,-143.5545 285.7896,-149.1373 287.3057,-142.3035"/>
</g>
<!-- Node3 -->
<g id="node4" class="node">
<title>Node3</title>
<g id="a_node4"><a xlink:title=" ">
<polygon fill="#ffffff" stroke="#bfbfbf" points="381.5193,-.5 381.5193,-18.5 426.4206,-18.5 426.4206,-.5 381.5193,-.5"/>
<text text-anchor="middle" x="403.9699" y="-6.5" font-family="Helvetica,sans-Serif" font-size="10.00" fill="#000000">cstdint</text>
</a>
</g>
</g>
<!-- Node2&#45;&gt;Node3 -->
<g id="edge3" class="edge">
<title>Node2&#45;&gt;Node3</title>
<path fill="none" stroke="#191970" d="M573.5943,-60.3873C536.6367,-49.3 474.4918,-30.6566 436.5604,-19.2771"/>
<polygon fill="#191970" stroke="#191970" points="437.1289,-15.7936 426.5449,-16.2725 435.1174,-22.4984 437.1289,-15.7936"/>
</g>
<!-- Node2&#45;&gt;Node4 -->
<g id="edge4" class="edge">
<title>Node2&#45;&gt;Node4</title>
<path fill="none" stroke="#191970" d="M644.2644,-60.4392C655.4469,-58.2723 667.6314,-56.2318 678.9699,-55 1036.2286,-16.1896 2209.0936,-10.3644 2430.6767,-9.6043"/>
<polygon fill="#191970" stroke="#191970" points="2430.8019,-13.104 2440.7902,-9.5709 2430.7787,-6.104 2430.8019,-13.104"/>
</g>
<!-- Node5&#45;&gt;Node3 -->
<g id="edge8" class="edge">
<title>Node5&#45;&gt;Node3</title>
<path fill="none" stroke="#191970" d="M259.3101,-125.3758C280.2616,-116.561 311.2742,-101.9278 334.9699,-84 357.0335,-67.3071 377.9767,-43.0827 390.8814,-26.8345"/>
<polygon fill="#191970" stroke="#191970" points="393.8089,-28.7711 397.1797,-18.7268 388.2809,-24.4768 393.8089,-28.7711"/>
</g>
<!-- Node6 -->
<g id="node7" class="node">
<title>Node6</title>
<g id="a_node7"><a xlink:title=" ">
<polygon fill="#ffffff" stroke="#bfbfbf" points="80.406,-60.5 80.406,-78.5 137.5339,-78.5 137.5339,-60.5 80.406,-60.5"/>
<text text-anchor="middle" x="108.9699" y="-66.5" font-family="Helvetica,sans-Serif" font-size="10.00" fill="#000000">algorithm</text>
</a>
</g>
</g>
<!-- Node5&#45;&gt;Node6 -->
<g id="edge6" class="edge">
<title>Node5&#45;&gt;Node6</title>
<path fill="none" stroke="#191970" d="M218.3111,-125.462C196.9169,-114.5122 160.6574,-95.9542 135.8014,-83.2326"/>
<polygon fill="#191970" stroke="#191970" points="137.3847,-80.1112 126.8882,-78.6708 134.1954,-86.3425 137.3847,-80.1112"/>
</g>
<!-- Node7 -->
<g id="node8" class="node">
<title>Node7</title>
<g id="a_node8"><a xlink:title=" ">
<polygon fill="#ffffff" stroke="#bfbfbf" points="155.3542,-60.5 155.3542,-78.5 198.5857,-78.5 198.5857,-60.5 155.3542,-60.5"/>
<text text-anchor="middle" x="176.9699" y="-66.5" font-family="Helvetica,sans-Serif" font-size="10.00" fill="#000000">cmath</text>
</a>
</g>
</g>
<!-- Node5&#45;&gt;Node7 -->
<g id="edge7" class="edge">
<title>Node5&#45;&gt;Node7</title>
<path fill="none" stroke="#191970" d="M227.7662,-125.462C218.6235,-115.3895 203.637,-98.879 192.3061,-86.3957"/>
<polygon fill="#191970" stroke="#191970" points="194.7987,-83.9343 185.486,-78.8821 189.6155,-88.6391 194.7987,-83.9343"/>
</g>
<!-- Node5&#45;&gt;Node8 -->
<g id="edge9" class="edge">
<title>Node5&#45;&gt;Node8</title>
<path fill="none" stroke="#191970" d="M202.0464,-125.4943C168.3868,-116.2381 115.5283,-100.8344 70.9699,-84 69.7825,-83.5514 68.5765,-83.0798 67.3631,-82.5921"/>
<polygon fill="#191970" stroke="#191970" points="68.6642,-79.3421 58.0922,-78.647 65.9232,-85.7832 68.6642,-79.3421"/>
</g>
<!-- Node9 -->
<g id="node10" class="node">
<title>Node9</title>
<g id="a_node10"><a xlink:title=" ">
<polygon fill="#ffffff" stroke="#bfbfbf" points="216.1867,-60.5 216.1867,-78.5 267.7531,-78.5 267.7531,-60.5 216.1867,-60.5"/>
<text text-anchor="middle" x="241.9699" y="-66.5" font-family="Helvetica,sans-Serif" font-size="10.00" fill="#000000">numeric</text>
</a>
</g>
</g>
<!-- Node5&#45;&gt;Node9 -->
<g id="edge10" class="edge">
<title>Node5&#45;&gt;Node9</title>
<path fill="none" stroke="#191970" d="M236.8042,-125.462C237.672,-116.061 239.0575,-101.0518 240.1752,-88.943"/>
<polygon fill="#191970" stroke="#191970" points="243.6698,-89.1615 241.1039,-78.8821 236.6995,-88.5181 243.6698,-89.1615"/>
</g>
<!-- Node10 -->
<g id="node11" class="node">
<title>Node10</title>
<g id="a_node11"><a xlink:title=" ">
<polygon fill="#ffffff" stroke="#bfbfbf" points="285.7434,-60.5 285.7434,-78.5 326.1965,-78.5 326.1965,-60.5 285.7434,-60.5"/>
<text text-anchor="middle" x="305.9699" y="-66.5" font-family="Helvetica,sans-Serif" font-size="10.00" fill="#000000">string</text>
</a>
</g>
</g>
<!-- Node5&#45;&gt;Node10 -->
<g id="edge11" class="edge">
<title>Node5&#45;&gt;Node10</title>
<path fill="none" stroke="#191970" d="M245.7031,-125.462C256.7571,-115.1976 275.0109,-98.2477 288.5379,-85.6869"/>
<polygon fill="#191970" stroke="#191970" points="290.9197,-88.2515 295.8661,-78.8821 286.1566,-83.1219 290.9197,-88.2515"/>
</g>
<!-- Node5&#45;&gt;Node11 -->
<g id="edge12" class="edge">
<title>Node5&#45;&gt;Node11</title>
<path fill="none" stroke="#191970" d="M260.348,-125.3196C286.8755,-115.2958 330.5139,-98.7068 367.9699,-84 369.5653,-83.3736 371.1991,-82.7285 372.8479,-82.0746"/>
<polygon fill="#191970" stroke="#191970" points="374.3039,-85.262 382.2924,-78.3026 371.7075,-78.7613 374.3039,-85.262"/>
</g>
<!-- Node12&#45;&gt;Node2 -->
<g id="edge15" class="edge">
<title>Node12&#45;&gt;Node2</title>
<path fill="none" stroke="#191970" d="M698.4821,-315.4244C684.2847,-278.4822 630.6716,-138.9789 611.1421,-88.1621"/>
<polygon fill="#191970" stroke="#191970" points="614.3729,-86.8121 607.5184,-78.7333 607.8388,-89.3233 614.3729,-86.8121"/>
</g>
<!-- Node12&#45;&gt;Node3 -->
<g id="edge19" class="edge">
<title>Node12&#45;&gt;Node3</title>
<path fill="none" stroke="#191970" d="M657.5514,-319.1332C608.472,-312.5184 527.4447,-299.5599 459.9699,-279 249.9026,-214.9914 126.7862,-267.3816 5.9699,-84 -1.121,-73.237 -2.6107,-64.6175 5.9699,-55 30.1869,-27.8568 280.6452,-14.6898 371.3783,-10.7838"/>
<polygon fill="#191970" stroke="#191970" points="371.5366,-14.2803 381.3806,-10.3631 371.2423,-7.2865 371.5366,-14.2803"/>
</g>
<!-- Node12&#45;&gt;Node4 -->
<g id="edge20" class="edge">
<title>Node12&#45;&gt;Node4</title>
<path fill="none" stroke="#191970" d="M746.3134,-320.4193C922.2774,-303.9384 1588.1424,-238.8404 2130.9699,-149 2201.915,-137.2583 2395.9295,-133.6271 2447.9699,-84 2462.7253,-69.9289 2466.6367,-46.1257 2467.3916,-29.214"/>
<polygon fill="#191970" stroke="#191970" points="2470.8957,-28.8485 2467.5044,-18.8112 2463.8961,-28.7726 2470.8957,-28.8485"/>
</g>
<!-- Node12&#45;&gt;Node11 -->
<g id="edge21" class="edge">
<title>Node12&#45;&gt;Node11</title>
<path fill="none" stroke="#191970" d="M657.695,-319.9372C603.0052,-313.4858 514.1034,-300.0798 488.9699,-279 429.3181,-228.969 411.0758,-130.6976 405.8849,-88.9754"/>
<polygon fill="#191970" stroke="#191970" points="409.3359,-88.3419 404.7433,-78.7942 402.3795,-89.122 409.3359,-88.3419"/>
</g>
<!-- Node13 -->
<g id="node14" class="node">
<title>Node13</title>
<g id="a_node14"><a xlink:href="simple__bimap_8hpp.html" target="_top" xlink:title=" ">
<polygon fill="#ffffff" stroke="#000000" points="867.9431,-255.5 867.9431,-273.5 993.9968,-273.5 993.9968,-255.5 867.9431,-255.5"/>
<text text-anchor="middle" x="930.9699" y="-261.5" font-family="Helvetica,sans-Serif" font-size="10.00" fill="#000000">../utils/simple_bimap.hpp</text>
</a>
</g>
</g>
<!-- Node12&#45;&gt;Node13 -->
<g id="edge16" class="edge">
<title>Node12&#45;&gt;Node13</title>
<path fill="none" stroke="#191970" d="M736.7501,-315.3873C776.9135,-304.8641 843.0566,-287.5341 886.817,-276.0685"/>
<polygon fill="#191970" stroke="#191970" points="887.8264,-279.4222 896.6128,-273.5019 886.0522,-272.6508 887.8264,-279.4222"/>
</g>
<!-- Node15 -->
<g id="node16" class="node">
<title>Node15</title>
<g id="a_node16"><a xlink:title=" ">
<polygon fill="#ffffff" stroke="#bfbfbf" points="497.6574,-250.5 497.6574,-278.5 614.2824,-278.5 614.2824,-250.5 497.6574,-250.5"/>
<text text-anchor="start" x="505.6574" y="-266.5" font-family="Helvetica,sans-Serif" font-size="10.00" fill="#000000">boost/graph/adjacency</text>
<text text-anchor="middle" x="555.9699" y="-256.5" font-family="Helvetica,sans-Serif" font-size="10.00" fill="#000000">_list.hpp</text>
</a>
</g>
</g>
<!-- Node12&#45;&gt;Node15 -->
<g id="edge18" class="edge">
<title>Node12&#45;&gt;Node15</title>
<path fill="none" stroke="#191970" d="M679.7957,-315.3873C658.5528,-306.6573 625.9104,-293.2427 599.4731,-282.378"/>
<polygon fill="#191970" stroke="#191970" points="600.6262,-279.0679 590.0464,-278.504 597.9654,-285.5425 600.6262,-279.0679"/>
</g>
<!-- Node16 -->
<g id="node17" class="node">
<title>Node16</title>
<g id="a_node17"><a xlink:href="base__graph__impl_8hpp.html" target="_top" xlink:title=" ">
<polygon fill="#ffffff" stroke="#000000" points="705.8791,-255.5 705.8791,-273.5 818.0608,-273.5 818.0608,-255.5 705.8791,-255.5"/>
<text text-anchor="middle" x="761.9699" y="-261.5" font-family="Helvetica,sans-Serif" font-size="10.00" fill="#000000">base_graph_impl.hpp</text>
</a>
</g>
</g>
<!-- Node12&#45;&gt;Node16 -->
<g id="edge22" class="edge">
<title>Node12&#45;&gt;Node16</title>
<path fill="none" stroke="#191970" d="M711.0827,-315.3873C720.2455,-306.2245 734.569,-291.9009 745.6883,-280.7817"/>
<polygon fill="#191970" stroke="#191970" points="748.1753,-283.2444 752.7715,-273.6985 743.2255,-278.2947 748.1753,-283.2444"/>
</g>
<!-- Node13&#45;&gt;Node14 -->
<g id="edge17" class="edge">
<title>Node13&#45;&gt;Node14</title>
<path fill="none" stroke="#191970" d="M935.2804,-255.462C939.8554,-245.8691 947.2155,-230.4368 953.0489,-218.2053"/>
<polygon fill="#191970" stroke="#191970" points="956.3497,-219.4149 957.4954,-208.8821 950.0315,-216.4015 956.3497,-219.4149"/>
</g>
<!-- Node16&#45;&gt;Node1 -->
<g id="edge28" class="edge">
<title>Node16&#45;&gt;Node1</title>
<path fill="none" stroke="#191970" d="M729.5723,-255.462C692.4103,-245.095 630.8014,-227.9079 585.6472,-215.3112"/>
<polygon fill="#191970" stroke="#191970" points="586.5622,-211.9329 575.9895,-212.617 584.6812,-218.6755 586.5622,-211.9329"/>
</g>
<!-- Node16&#45;&gt;Node11 -->
<g id="edge51" class="edge">
<title>Node16&#45;&gt;Node11</title>
<path fill="none" stroke="#191970" d="M743.6535,-255.4568C711.8363,-239.9337 644.0929,-207.6989 584.9699,-185 536.1578,-166.2597 516.6049,-177.8066 472.9699,-149 448.1632,-132.6232 427.0253,-104.965 414.9079,-86.9713"/>
<polygon fill="#191970" stroke="#191970" points="417.8143,-85.0204 409.4219,-78.5536 411.9498,-88.8425 417.8143,-85.0204"/>
</g>
<!-- Node16&#45;&gt;Node14 -->
<g id="edge49" class="edge">
<title>Node16&#45;&gt;Node14</title>
<path fill="none" stroke="#191970" d="M789.7791,-255.462C824.8311,-244.0701 885.2215,-224.4432 924.3665,-211.7211"/>
<polygon fill="#191970" stroke="#191970" points="925.6468,-214.9853 934.0753,-208.5658 923.4832,-208.3281 925.6468,-214.9853"/>
</g>
<!-- Node17 -->
<g id="node18" class="node">
<title>Node17</title>
<g id="a_node18"><a xlink:href="connectivity_8hpp.html" target="_top" xlink:title=" ">
<polygon fill="#ffffff" stroke="#000000" points="482.0613,-120.5 482.0613,-148.5 575.8786,-148.5 575.8786,-120.5 482.0613,-120.5"/>
<text text-anchor="start" x="490.0613" y="-136.5" font-family="Helvetica,sans-Serif" font-size="10.00" fill="#000000">../algorithm/graph</text>
<text text-anchor="middle" x="528.9699" y="-126.5" font-family="Helvetica,sans-Serif" font-size="10.00" fill="#000000">/connectivity.hpp</text>
</a>
</g>
</g>
<!-- Node16&#45;&gt;Node17 -->
<g id="edge23" class="edge">
<title>Node16&#45;&gt;Node17</title>
<path fill="none" stroke="#191970" d="M756.6562,-255.4044C746.5566,-238.9097 722.9848,-204.014 693.9699,-185 661.4982,-163.7206 619.6189,-151.0442 586.1781,-143.7138"/>
<polygon fill="#191970" stroke="#191970" points="586.595,-140.2254 576.0906,-141.6069 585.1637,-147.0776 586.595,-140.2254"/>
</g>
<!-- Node19 -->
<g id="node20" class="node">
<title>Node19</title>
<g id="a_node20"><a xlink:href="serialise_8hpp.html" target="_top" xlink:title=" ">
<polygon fill="#ffffff" stroke="#000000" points="1470.4504,-125.5 1470.4504,-143.5 1571.4895,-143.5 1571.4895,-125.5 1470.4504,-125.5"/>
<text text-anchor="middle" x="1520.9699" y="-131.5" font-family="Helvetica,sans-Serif" font-size="10.00" fill="#000000">../utils/serialise.hpp</text>
</a>
</g>
</g>
<!-- Node16&#45;&gt;Node19 -->
<g id="edge29" class="edge">
<title>Node16&#45;&gt;Node19</title>
<path fill="none" stroke="#191970" d="M781.844,-255.3932C801.8485,-245.943 833.3289,-230.2885 858.9699,-214 876.9027,-202.6082 877.1343,-192.6095 896.9699,-185 998.7134,-145.9686 1323.9296,-137.0991 1460.0979,-135.0879"/>
<polygon fill="#191970" stroke="#191970" points="1460.3982,-138.5841 1470.3481,-134.9442 1460.3,-131.5848 1460.3982,-138.5841"/>
</g>
<!-- Node34 -->
<g id="node35" class="node">
<title>Node34</title>
<g id="a_node35"><a xlink:href="triple_8hpp.html" target="_top" xlink:title=" ">
<polygon fill="#ffffff" stroke="#000000" points="1521.9529,-190.5 1521.9529,-208.5 1607.987,-208.5 1607.987,-190.5 1521.9529,-190.5"/>
<text text-anchor="middle" x="1564.9699" y="-196.5" font-family="Helvetica,sans-Serif" font-size="10.00" fill="#000000">../utils/triple.hpp</text>
</a>
</g>
</g>
<!-- Node16&#45;&gt;Node34 -->
<g id="edge45" class="edge">
<title>Node16&#45;&gt;Node34</title>
<path fill="none" stroke="#191970" d="M817.2735,-255.4815C830.8802,-253.4703 845.4302,-251.494 858.9699,-250 1102.024,-223.181 1393.8008,-207.5425 1511.694,-201.9075"/>
<polygon fill="#191970" stroke="#191970" points="1512.064,-205.394 1521.8871,-201.4246 1511.7327,-198.4019 1512.064,-205.394"/>
</g>
<!-- Node36 -->
<g id="node37" class="node">
<title>Node36</title>
<g id="a_node37"><a xlink:title=" ">
<polygon fill="#ffffff" stroke="#bfbfbf" points="745.5046,-190.5 745.5046,-208.5 850.4353,-208.5 850.4353,-190.5 745.5046,-190.5"/>
<text text-anchor="middle" x="797.9699" y="-196.5" font-family="Helvetica,sans-Serif" font-size="10.00" fill="#000000">EASTL/vector_set.h</text>
</a>
</g>
</g>
<!-- Node16&#45;&gt;Node36 -->
<g id="edge50" class="edge">
<title>Node16&#45;&gt;Node36</title>
<path fill="none" stroke="#191970" d="M766.9756,-255.462C772.3417,-245.7732 781.007,-230.1276 787.8128,-217.8393"/>
<polygon fill="#191970" stroke="#191970" points="790.9904,-219.3258 792.7737,-208.8821 784.8669,-215.9343 790.9904,-219.3258"/>
</g>
<!-- Node17&#45;&gt;Node2 -->
<g id="edge24" class="edge">
<title>Node17&#45;&gt;Node2</title>
<path fill="none" stroke="#191970" d="M545.2438,-120.396C557.1453,-110.0814 573.2999,-96.0807 585.6534,-85.3743"/>
<polygon fill="#191970" stroke="#191970" points="588.2349,-87.7686 593.4996,-78.5743 583.6504,-82.4787 588.2349,-87.7686"/>
</g>
<!-- Node17&#45;&gt;Node3 -->
<g id="edge25" class="edge">
<title>Node17&#45;&gt;Node3</title>
<path fill="none" stroke="#191970" d="M512.441,-120.2912C501.0977,-110.373 485.8294,-96.6897 472.9699,-84 453.7005,-64.9849 432.7208,-41.9754 419.0164,-26.6058"/>
<polygon fill="#191970" stroke="#191970" points="421.4613,-24.0876 412.2083,-18.927 416.2235,-28.7315 421.4613,-24.0876"/>
</g>
<!-- Node17&#45;&gt;Node11 -->
<g id="edge27" class="edge">
<title>Node17&#45;&gt;Node11</title>
<path fill="none" stroke="#191970" d="M501.8468,-120.396C480.6759,-109.3871 451.4301,-94.1793 430.4302,-83.2594"/>
<polygon fill="#191970" stroke="#191970" points="431.9075,-80.0826 421.4205,-78.5743 428.678,-86.2931 431.9075,-80.0826"/>
</g>
<!-- Node18 -->
<g id="node19" class="node">
<title>Node18</title>
<g id="a_node19"><a xlink:title=" ">
<polygon fill="#ffffff" stroke="#bfbfbf" points="481.5832,-60.5 481.5832,-78.5 520.3567,-78.5 520.3567,-60.5 481.5832,-60.5"/>
<text text-anchor="middle" x="500.9699" y="-66.5" font-family="Helvetica,sans-Serif" font-size="10.00" fill="#000000">limits</text>
</a>
</g>
</g>
<!-- Node17&#45;&gt;Node18 -->
<g id="edge26" class="edge">
<title>Node17&#45;&gt;Node18</title>
<path fill="none" stroke="#191970" d="M522.8944,-120.396C518.7929,-110.8748 513.3385,-98.2128 508.8962,-87.9003"/>
<polygon fill="#191970" stroke="#191970" points="512.0496,-86.3737 504.8789,-78.5743 505.6207,-89.1431 512.0496,-86.3737"/>
</g>
<!-- Node19&#45;&gt;Node2 -->
<g id="edge30" class="edge">
<title>Node19&#45;&gt;Node2</title>
<path fill="none" stroke="#191970" d="M1485.748,-125.4771C1476.1494,-123.3382 1465.7111,-121.3022 1455.9699,-120 1113.3142,-74.1941 1022.2437,-124.9175 678.9699,-84 671.1922,-83.0729 663.0111,-81.8018 655.0269,-80.3947"/>
<polygon fill="#191970" stroke="#191970" points="655.5332,-76.9291 645.064,-78.5554 654.2623,-83.8128 655.5332,-76.9291"/>
</g>
<!-- Node20 -->
<g id="node21" class="node">
<title>Node20</title>
<g id="a_node21"><a xlink:title=" ">
<polygon fill="#ffffff" stroke="#bfbfbf" points="824.6697,-60.5 824.6697,-78.5 921.2702,-78.5 921.2702,-60.5 824.6697,-60.5"/>
<text text-anchor="middle" x="872.9699" y="-66.5" font-family="Helvetica,sans-Serif" font-size="10.00" fill="#000000">cereal/access.hpp</text>
</a>
</g>
</g>
<!-- Node19&#45;&gt;Node20 -->
<g id="edge31" class="edge">
<title>Node19&#45;&gt;Node20</title>
<path fill="none" stroke="#191970" d="M1485.0491,-125.4698C1475.6389,-123.3843 1465.4673,-121.3763 1455.9699,-120 1224.0675,-86.3949 1161.3493,-121.0357 929.9699,-84 924.8089,-83.1739 919.4329,-82.0984 914.1342,-80.9064"/>
<polygon fill="#191970" stroke="#191970" points="914.6571,-77.4326 904.1167,-78.5051 913.0254,-84.2398 914.6571,-77.4326"/>
</g>
<!-- Node21 -->
<g id="node22" class="node">
<title>Node21</title>
<g id="a_node22"><a xlink:title=" ">
<polygon fill="#ffffff" stroke="#bfbfbf" points="939.0515,-60.5 939.0515,-78.5 1062.8884,-78.5 1062.8884,-60.5 939.0515,-60.5"/>
<text text-anchor="middle" x="1000.9699" y="-66.5" font-family="Helvetica,sans-Serif" font-size="10.00" fill="#000000">cereal/archives/json.hpp</text>
</a>
</g>
</g>
<!-- Node19&#45;&gt;Node21 -->
<g id="edge32" class="edge">
<title>Node19&#45;&gt;Node21</title>
<path fill="none" stroke="#191970" d="M1484.3428,-125.4824C1475.125,-123.4471 1465.2208,-121.4595 1455.9699,-120 1286.6493,-93.2863 1241.5245,-109.1864 1071.9699,-84 1065.2811,-83.0064 1058.2712,-81.7909 1051.3698,-80.4903"/>
<polygon fill="#191970" stroke="#191970" points="1051.8717,-77.0223 1041.3862,-78.54 1050.5296,-83.8924 1051.8717,-77.0223"/>
</g>
<!-- Node22 -->
<g id="node23" class="node">
<title>Node22</title>
<g id="a_node23"><a xlink:title=" ">
<polygon fill="#ffffff" stroke="#bfbfbf" points="1080.8864,-55.5 1080.8864,-83.5 1203.0534,-83.5 1203.0534,-55.5 1080.8864,-55.5"/>
<text text-anchor="start" x="1088.8864" y="-71.5" font-family="Helvetica,sans-Serif" font-size="10.00" fill="#000000">cereal/archives/portable</text>
<text text-anchor="middle" x="1141.9699" y="-61.5" font-family="Helvetica,sans-Serif" font-size="10.00" fill="#000000">_binary.hpp</text>
</a>
</g>
</g>
<!-- Node19&#45;&gt;Node22 -->
<g id="edge33" class="edge">
<title>Node19&#45;&gt;Node22</title>
<path fill="none" stroke="#191970" d="M1482.57,-125.4466C1473.8494,-123.5265 1464.6104,-121.599 1455.9699,-120 1351.3395,-100.6377 1321.632,-102.9651 1213.409,-84.1909"/>
<polygon fill="#191970" stroke="#191970" points="1213.846,-80.7142 1203.3914,-82.4322 1212.6355,-87.6088 1213.846,-80.7142"/>
</g>
<!-- Node23 -->
<g id="node24" class="node">
<title>Node23</title>
<g id="a_node24"><a xlink:title=" ">
<polygon fill="#ffffff" stroke="#bfbfbf" points="1220.613,-60.5 1220.613,-78.5 1313.3269,-78.5 1313.3269,-60.5 1220.613,-60.5"/>
<text text-anchor="middle" x="1266.9699" y="-66.5" font-family="Helvetica,sans-Serif" font-size="10.00" fill="#000000">cereal/cereal.hpp</text>
</a>
</g>
</g>
<!-- Node19&#45;&gt;Node23 -->
<g id="edge34" class="edge">
<title>Node19&#45;&gt;Node23</title>
<path fill="none" stroke="#191970" d="M1484.9945,-125.4769C1445.1178,-115.4506 1378.9077,-98.7296 1321.9699,-84 1318.364,-83.0671 1314.6266,-82.0944 1310.8749,-81.1138"/>
<polygon fill="#191970" stroke="#191970" points="1311.5514,-77.6729 1300.9906,-78.5216 1309.7756,-84.4439 1311.5514,-77.6729"/>
</g>
<!-- Node24 -->
<g id="node25" class="node">
<title>Node24</title>
<g id="a_node25"><a xlink:title=" ">
<polygon fill="#ffffff" stroke="#bfbfbf" points="1330.8684,-60.5 1330.8684,-78.5 1445.0715,-78.5 1445.0715,-60.5 1330.8684,-60.5"/>
<text text-anchor="middle" x="1387.9699" y="-66.5" font-family="Helvetica,sans-Serif" font-size="10.00" fill="#000000">cereal/types/array.hpp</text>
</a>
</g>
</g>
<!-- Node19&#45;&gt;Node24 -->
<g id="edge35" class="edge">
<title>Node19&#45;&gt;Node24</title>
<path fill="none" stroke="#191970" d="M1502.4769,-125.462C1479.9732,-114.464 1441.7645,-95.7906 1415.7257,-83.0648"/>
<polygon fill="#191970" stroke="#191970" points="1417.256,-79.9171 1406.7347,-78.6708 1414.1823,-86.2063 1417.256,-79.9171"/>
</g>
<!-- Node25 -->
<g id="node26" class="node">
<title>Node25</title>
<g id="a_node26"><a xlink:title=" ">
<polygon fill="#ffffff" stroke="#bfbfbf" points="1462.9406,-60.5 1462.9406,-78.5 1578.9992,-78.5 1578.9992,-60.5 1462.9406,-60.5"/>
<text text-anchor="middle" x="1520.9699" y="-66.5" font-family="Helvetica,sans-Serif" font-size="10.00" fill="#000000">cereal/types/bitset.hpp</text>
</a>
</g>
</g>
<!-- Node19&#45;&gt;Node25 -->
<g id="edge36" class="edge">
<title>Node19&#45;&gt;Node25</title>
<path fill="none" stroke="#191970" d="M1520.9699,-125.462C1520.9699,-116.061 1520.9699,-101.0518 1520.9699,-88.943"/>
<polygon fill="#191970" stroke="#191970" points="1524.47,-88.8821 1520.9699,-78.8821 1517.47,-88.8822 1524.47,-88.8821"/>
</g>
<!-- Node26 -->
<g id="node27" class="node">
<title>Node26</title>
<g id="a_node27"><a xlink:title=" ">
<polygon fill="#ffffff" stroke="#bfbfbf" points="1597.1081,-55.5 1597.1081,-83.5 1704.8318,-83.5 1704.8318,-55.5 1597.1081,-55.5"/>
<text text-anchor="start" x="1605.1081" y="-71.5" font-family="Helvetica,sans-Serif" font-size="10.00" fill="#000000">cereal/types/boost</text>
<text text-anchor="middle" x="1650.9699" y="-61.5" font-family="Helvetica,sans-Serif" font-size="10.00" fill="#000000">_dynamic_bitset.hpp</text>
</a>
</g>
</g>
<!-- Node19&#45;&gt;Node26 -->
<g id="edge37" class="edge">
<title>Node19&#45;&gt;Node26</title>
<path fill="none" stroke="#191970" d="M1539.0459,-125.462C1558.2235,-115.8732 1589.07,-100.45 1613.528,-88.221"/>
<polygon fill="#191970" stroke="#191970" points="1615.1724,-91.312 1622.5514,-83.7093 1612.0418,-85.051 1615.1724,-91.312"/>
</g>
<!-- Node27 -->
<g id="node28" class="node">
<title>Node27</title>
<g id="a_node28"><a xlink:title=" ">
<polygon fill="#ffffff" stroke="#bfbfbf" points="1723.0613,-55.5 1723.0613,-83.5 1816.8786,-83.5 1816.8786,-55.5 1723.0613,-55.5"/>
<text text-anchor="start" x="1731.0613" y="-71.5" font-family="Helvetica,sans-Serif" font-size="10.00" fill="#000000">cereal/types/eastl</text>
<text text-anchor="middle" x="1769.9699" y="-61.5" font-family="Helvetica,sans-Serif" font-size="10.00" fill="#000000">_bitset.hpp</text>
</a>
</g>
</g>
<!-- Node19&#45;&gt;Node27 -->
<g id="edge38" class="edge">
<title>Node19&#45;&gt;Node27</title>
<path fill="none" stroke="#191970" d="M1555.5923,-125.462C1596.3478,-114.823 1664.6175,-97.0016 1713.1606,-84.3298"/>
<polygon fill="#191970" stroke="#191970" points="1714.1054,-87.7005 1722.8972,-81.7881 1712.3373,-80.9274 1714.1054,-87.7005"/>
</g>
<!-- Node28 -->
<g id="node29" class="node">
<title>Node28</title>
<g id="a_node29"><a xlink:title=" ">
<polygon fill="#ffffff" stroke="#bfbfbf" points="1834.6574,-60.5 1834.6574,-78.5 1951.2824,-78.5 1951.2824,-60.5 1834.6574,-60.5"/>
<text text-anchor="middle" x="1892.9699" y="-66.5" font-family="Helvetica,sans-Serif" font-size="10.00" fill="#000000">cereal/types/eigen.hpp</text>
</a>
</g>
</g>
<!-- Node19&#45;&gt;Node28 -->
<g id="edge39" class="edge">
<title>Node19&#45;&gt;Node28</title>
<path fill="none" stroke="#191970" d="M1556.0691,-125.45C1564.2132,-123.5082 1572.8691,-121.5706 1580.9699,-120 1689.016,-99.0516 1717.6804,-103.6509 1825.9699,-84 1831.6712,-82.9654 1837.6274,-81.7999 1843.5351,-80.5906"/>
<polygon fill="#191970" stroke="#191970" points="1844.3079,-84.0048 1853.3784,-78.5297 1842.8733,-77.1534 1844.3079,-84.0048"/>
</g>
<!-- Node29 -->
<g id="node30" class="node">
<title>Node29</title>
<g id="a_node30"><a xlink:title=" ">
<polygon fill="#ffffff" stroke="#bfbfbf" points="1969.1648,-60.5 1969.1648,-78.5 2080.7751,-78.5 2080.7751,-60.5 1969.1648,-60.5"/>
<text text-anchor="middle" x="2024.9699" y="-66.5" font-family="Helvetica,sans-Serif" font-size="10.00" fill="#000000">cereal/types/map.hpp</text>
</a>
</g>
</g>
<!-- Node19&#45;&gt;Node29 -->
<g id="edge40" class="edge">
<title>Node19&#45;&gt;Node29</title>
<path fill="none" stroke="#191970" d="M1554.7488,-125.446C1563.2584,-123.4116 1572.4088,-121.4336 1580.9699,-120 1747.8491,-92.056 1792.8508,-110.4714 1959.9699,-84 1965.8957,-83.0614 1972.0898,-81.9075 1978.2,-80.6642"/>
<polygon fill="#191970" stroke="#191970" points="1979.2873,-84.0114 1988.3416,-78.5097 1977.8325,-77.1642 1979.2873,-84.0114"/>
</g>
<!-- Node30 -->
<g id="node31" class="node">
<title>Node30</title>
<g id="a_node31"><a xlink:title=" ">
<polygon fill="#ffffff" stroke="#bfbfbf" points="2099.2033,-60.5 2099.2033,-78.5 2226.7365,-78.5 2226.7365,-60.5 2099.2033,-60.5"/>
<text text-anchor="middle" x="2162.9699" y="-66.5" font-family="Helvetica,sans-Serif" font-size="10.00" fill="#000000">cereal/types/memory.hpp</text>
</a>
</g>
</g>
<!-- Node19&#45;&gt;Node30 -->
<g id="edge41" class="edge">
<title>Node19&#45;&gt;Node30</title>
<path fill="none" stroke="#191970" d="M1554.0963,-125.4519C1562.7831,-123.3666 1572.1803,-121.3632 1580.9699,-120 1805.078,-85.2429 1865.1958,-114.1511 2089.9699,-84 2097.1896,-83.0316 2104.7696,-81.7865 2112.2012,-80.4336"/>
<polygon fill="#191970" stroke="#191970" points="2113.0228,-83.8402 2122.1953,-78.5377 2111.7181,-76.9628 2113.0228,-83.8402"/>
</g>
<!-- Node31 -->
<g id="node32" class="node">
<title>Node31</title>
<g id="a_node32"><a xlink:title=" ">
<polygon fill="#ffffff" stroke="#bfbfbf" points="2244.8684,-60.5 2244.8684,-78.5 2359.0715,-78.5 2359.0715,-60.5 2244.8684,-60.5"/>
<text text-anchor="middle" x="2301.9699" y="-66.5" font-family="Helvetica,sans-Serif" font-size="10.00" fill="#000000">cereal/types/utility.hpp</text>
</a>
</g>
</g>
<!-- Node19&#45;&gt;Node31 -->
<g id="edge42" class="edge">
<title>Node19&#45;&gt;Node31</title>
<path fill="none" stroke="#191970" d="M1553.7683,-125.4327C1562.5424,-123.3211 1572.0638,-121.3097 1580.9699,-120 1869.418,-77.5808 1947.0952,-123.4086 2235.9699,-84 2242.3776,-83.1259 2249.0861,-81.9558 2255.6686,-80.6579"/>
<polygon fill="#191970" stroke="#191970" points="2256.7717,-84.0033 2265.8476,-78.5371 2255.3439,-77.1505 2256.7717,-84.0033"/>
</g>
<!-- Node32 -->
<g id="node33" class="node">
<title>Node32</title>
<g id="a_node33"><a xlink:title=" ">
<polygon fill="#ffffff" stroke="#bfbfbf" points="687.549,-60.5 687.549,-78.5 806.3908,-78.5 806.3908,-60.5 687.549,-60.5"/>
<text text-anchor="middle" x="746.9699" y="-66.5" font-family="Helvetica,sans-Serif" font-size="10.00" fill="#000000">cereal/types/vector.hpp</text>
</a>
</g>
</g>
<!-- Node19&#45;&gt;Node32 -->
<g id="edge43" class="edge">
<title>Node19&#45;&gt;Node32</title>
<path fill="none" stroke="#191970" d="M1485.4001,-125.4662C1475.8952,-123.3543 1465.59,-121.3345 1455.9699,-120 1173.7779,-80.8553 1098.3983,-121.4011 815.9699,-84 809.1213,-83.0931 801.9388,-81.8813 794.9025,-80.5431"/>
<polygon fill="#191970" stroke="#191970" points="795.2464,-77.0426 784.7541,-78.513 793.8732,-83.9066 795.2464,-77.0426"/>
</g>
<!-- Node33 -->
<g id="node34" class="node">
<title>Node33</title>
<g id="a_node34"><a xlink:title=" ">
<polygon fill="#ffffff" stroke="#bfbfbf" points="2376.9035,-60.5 2376.9035,-78.5 2439.0364,-78.5 2439.0364,-60.5 2376.9035,-60.5"/>
<text text-anchor="middle" x="2407.9699" y="-66.5" font-family="Helvetica,sans-Serif" font-size="10.00" fill="#000000">type_traits</text>
</a>
</g>
</g>
<!-- Node19&#45;&gt;Node33 -->
<g id="edge44" class="edge">
<title>Node19&#45;&gt;Node33</title>
<path fill="none" stroke="#191970" d="M1553.4473,-125.4526C1562.3076,-123.3137 1571.9518,-121.2839 1580.9699,-120 1927.6181,-70.649 2024.581,-152.4434 2367.9699,-84 2370.9876,-83.3985 2374.0823,-82.6089 2377.149,-81.7082"/>
<polygon fill="#191970" stroke="#191970" points="2378.323,-85.0065 2386.7213,-78.5476 2376.1282,-78.3595 2378.323,-85.0065"/>
</g>
<!-- Node34&#45;&gt;Node19 -->
<g id="edge48" class="edge">
<title>Node34&#45;&gt;Node19</title>
<path fill="none" stroke="#191970" d="M1558.8519,-190.462C1552.2284,-180.6773 1541.4924,-164.8172 1533.1379,-152.4753"/>
<polygon fill="#191970" stroke="#191970" points="1535.825,-150.2013 1527.3209,-143.8821 1530.0283,-154.1252 1535.825,-150.2013"/>
</g>
<!-- Node34&#45;&gt;Node33 -->
<g id="edge46" class="edge">
<title>Node34&#45;&gt;Node33</title>
<path fill="none" stroke="#191970" d="M1608.225,-196.4124C1729.5997,-187.0807 2083.101,-155.318 2367.9699,-84 2370.5674,-83.3497 2373.2314,-82.5928 2375.8908,-81.7726"/>
<polygon fill="#191970" stroke="#191970" points="2377.0012,-85.0919 2385.3756,-78.602 2374.7819,-78.453 2377.0012,-85.0919"/>
</g>
<!-- Node35 -->
<g id="node36" class="node">
<title>Node35</title>
<g id="a_node36"><a xlink:title=" ">
<polygon fill="#ffffff" stroke="#bfbfbf" points="1589.5783,-125.5 1589.5783,-143.5 1628.3615,-143.5 1628.3615,-125.5 1589.5783,-125.5"/>
<text text-anchor="middle" x="1608.9699" y="-131.5" font-family="Helvetica,sans-Serif" font-size="10.00" fill="#000000">utility</text>
</a>
</g>
</g>
<!-- Node34&#45;&gt;Node35 -->
<g id="edge47" class="edge">
<title>Node34&#45;&gt;Node35</title>
<path fill="none" stroke="#191970" d="M1571.088,-190.462C1577.7115,-180.6773 1588.4475,-164.8172 1596.802,-152.4753"/>
<polygon fill="#191970" stroke="#191970" points="1599.9116,-154.1252 1602.619,-143.8821 1594.1149,-150.2013 1599.9116,-154.1252"/>
</g>
</g>
</svg>
