<?xml version="1.0" encoding="UTF-8" standalone="no"?>
<!DOCTYPE svg PUBLIC "-//W3C//DTD SVG 1.1//EN"
 "http://www.w3.org/Graphics/SVG/1.1/DTD/svg11.dtd">
<!-- Generated by graphviz version 2.40.1 (20161225.0304)
 -->
<!-- Title: include/indigox/classes/molecule.hpp Pages: 1 -->
<svg width="448pt" height="147pt"
 viewBox="0.00 0.00 448.07 147.00" xmlns="http://www.w3.org/2000/svg" xmlns:xlink="http://www.w3.org/1999/xlink">
<g id="graph0" class="graph" transform="scale(1 1) rotate(0) translate(4 143)">
<title>include/indigox/classes/molecule.hpp</title>
<polygon fill="#ffffff" stroke="transparent" points="-4,4 -4,-143 444.0664,-143 444.0664,4 -4,4"/>
<!-- Node0 -->
<g id="node1" class="node">
<title>Node0</title>
<polygon fill="#bfbfbf" stroke="#000000" points="169.3105,-110.5 169.3105,-138.5 287.5908,-138.5 287.5908,-110.5 169.3105,-110.5"/>
<text text-anchor="start" x="177.3105" y="-126.5" font-family="Helvetica,sans-Serif" font-size="10.00" fill="#000000">include/indigox/classes</text>
<text text-anchor="middle" x="228.4507" y="-116.5" font-family="Helvetica,sans-Serif" font-size="10.00" fill="#000000">/molecule.hpp</text>
</g>
<!-- Node1 -->
<g id="node2" class="node">
<title>Node1</title>
<g id="a_node2"><a xlink:href="fwd__declares_8hpp.html" target="_top" xlink:title="../utils/fwd_declares.hpp">
<polygon fill="#ffffff" stroke="#000000" points="38.8105,-55.5 38.8105,-73.5 162.0908,-73.5 162.0908,-55.5 38.8105,-55.5"/>
<text text-anchor="middle" x="100.4507" y="-61.5" font-family="Helvetica,sans-Serif" font-size="10.00" fill="#000000">../utils/fwd_declares.hpp</text>
</a>
</g>
</g>
<!-- Node0&#45;&gt;Node1 -->
<g id="edge1" class="edge">
<title>Node0&#45;&gt;Node1</title>
<path fill="none" stroke="#191970" d="M198.4404,-110.4327C177.5173,-100.625 149.7663,-87.6167 129.1391,-77.9477"/>
<polygon fill="#191970" stroke="#191970" points="130.4704,-74.7063 119.9303,-73.6311 127.4993,-81.0446 130.4704,-74.7063"/>
</g>
<!-- Node2 -->
<g id="node3" class="node">
<title>Node2</title>
<polygon fill="#ffffff" stroke="#bfbfbf" points="0,-.5 0,-18.5 44.9014,-18.5 44.9014,-.5 0,-.5"/>
<text text-anchor="middle" x="22.4507" y="-6.5" font-family="Helvetica,sans-Serif" font-size="10.00" fill="#000000">cstdint</text>
</g>
<!-- Node0&#45;&gt;Node2 -->
<g id="edge5" class="edge">
<title>Node0&#45;&gt;Node2</title>
<path fill="none" stroke="#191970" d="M169.1747,-116.9735C117.3663,-109.1054 47.653,-94.9561 29.4507,-74 18.8433,-61.7879 17.934,-42.9795 19.1801,-28.8186"/>
<polygon fill="#191970" stroke="#191970" points="22.6806,-29.0404 20.4975,-18.673 15.7389,-28.139 22.6806,-29.0404"/>
</g>
<!-- Node4 -->
<g id="node5" class="node">
<title>Node4</title>
<polygon fill="#ffffff" stroke="#bfbfbf" points="180.5,-55.5 180.5,-73.5 220.4014,-73.5 220.4014,-55.5 180.5,-55.5"/>
<text text-anchor="middle" x="200.4507" y="-61.5" font-family="Helvetica,sans-Serif" font-size="10.00" fill="#000000">bitset</text>
</g>
<!-- Node0&#45;&gt;Node4 -->
<g id="edge4" class="edge">
<title>Node0&#45;&gt;Node4</title>
<path fill="none" stroke="#191970" d="M221.8151,-110.2808C217.9611,-102.0224 213.0663,-91.5335 208.9345,-82.6796"/>
<polygon fill="#191970" stroke="#191970" points="212.0905,-81.1659 204.69,-73.5842 205.7472,-84.1261 212.0905,-81.1659"/>
</g>
<!-- Node5 -->
<g id="node6" class="node">
<title>Node5</title>
<polygon fill="#ffffff" stroke="#bfbfbf" points="238.7241,-55.5 238.7241,-73.5 274.1772,-73.5 274.1772,-55.5 238.7241,-55.5"/>
<text text-anchor="middle" x="256.4507" y="-61.5" font-family="Helvetica,sans-Serif" font-size="10.00" fill="#000000">map</text>
</g>
<!-- Node0&#45;&gt;Node5 -->
<g id="edge6" class="edge">
<title>Node0&#45;&gt;Node5</title>
<path fill="none" stroke="#191970" d="M235.0863,-110.2808C238.9402,-102.0224 243.8351,-91.5335 247.9668,-82.6796"/>
<polygon fill="#191970" stroke="#191970" points="251.1541,-84.1261 252.2114,-73.5842 244.8108,-81.1659 251.1541,-84.1261"/>
</g>
<!-- Node6 -->
<g id="node7" class="node">
<title>Node6</title>
<polygon fill="#ffffff" stroke="#bfbfbf" points="292.1479,-55.5 292.1479,-73.5 378.7534,-73.5 378.7534,-55.5 292.1479,-55.5"/>
<text text-anchor="middle" x="335.4507" y="-61.5" font-family="Helvetica,sans-Serif" font-size="10.00" fill="#000000">unordered_map</text>
</g>
<!-- Node0&#45;&gt;Node6 -->
<g id="edge7" class="edge">
<title>Node0&#45;&gt;Node6</title>
<path fill="none" stroke="#191970" d="M253.5374,-110.4327C270.6321,-100.8468 293.1791,-88.2037 310.2896,-78.609"/>
<polygon fill="#191970" stroke="#191970" points="312.1565,-81.5749 319.167,-73.6311 308.7328,-75.4693 312.1565,-81.5749"/>
</g>
<!-- Node7 -->
<g id="node8" class="node">
<title>Node7</title>
<polygon fill="#ffffff" stroke="#bfbfbf" points="396.835,-55.5 396.835,-73.5 440.0664,-73.5 440.0664,-55.5 396.835,-55.5"/>
<text text-anchor="middle" x="418.4507" y="-61.5" font-family="Helvetica,sans-Serif" font-size="10.00" fill="#000000">vector</text>
</g>
<!-- Node0&#45;&gt;Node7 -->
<g id="edge8" class="edge">
<title>Node0&#45;&gt;Node7</title>
<path fill="none" stroke="#191970" d="M272.9972,-110.4327C307.9805,-99.3853 355.8226,-84.2773 386.9276,-74.4546"/>
<polygon fill="#191970" stroke="#191970" points="388.3101,-77.6885 396.7919,-71.3396 386.2021,-71.0135 388.3101,-77.6885"/>
</g>
<!-- Node1&#45;&gt;Node2 -->
<g id="edge2" class="edge">
<title>Node1&#45;&gt;Node2</title>
<path fill="none" stroke="#191970" d="M87.5706,-55.4179C75.7153,-47.0584 57.9004,-34.4966 43.8991,-24.6239"/>
<polygon fill="#191970" stroke="#191970" points="45.5395,-21.498 35.3499,-18.5956 41.5056,-27.2188 45.5395,-21.498"/>
</g>
<!-- Node3 -->
<g id="node4" class="node">
<title>Node3</title>
<polygon fill="#ffffff" stroke="#bfbfbf" points="74.394,-.5 74.394,-18.5 126.5073,-18.5 126.5073,-.5 74.394,-.5"/>
<text text-anchor="middle" x="100.4507" y="-6.5" font-family="Helvetica,sans-Serif" font-size="10.00" fill="#000000">memory</text>
</g>
<!-- Node1&#45;&gt;Node3 -->
<g id="edge3" class="edge">
<title>Node1&#45;&gt;Node3</title>
<path fill="none" stroke="#191970" d="M100.4507,-55.4179C100.4507,-48.2164 100.4507,-37.8962 100.4507,-28.8632"/>
<polygon fill="#191970" stroke="#191970" points="103.9508,-28.7794 100.4507,-18.7795 96.9508,-28.7795 103.9508,-28.7794"/>
</g>
</g>
</svg>
