<?xml version="1.0" encoding="UTF-8" standalone="no"?>
<!DOCTYPE svg PUBLIC "-//W3C//DTD SVG 1.1//EN"
 "http://www.w3.org/Graphics/SVG/1.1/DTD/svg11.dtd">
<!-- Generated by graphviz version 2.40.1 (20161225.0304)
 -->
<!-- Title: include/indigox/classes/molecule_impl.hpp Pages: 1 -->
<!--zoomable 92 -->
<svg id="main" version="1.1" xmlns="http://www.w3.org/2000/svg" xmlns:xlink="http://www.w3.org/1999/xlink" xml:space="preserve" onload="init(evt)">
<style type="text/css"><![CDATA[
.edge:hover path { stroke: red; }
.edge:hover polygon { stroke: red; fill: red; }
]]></style>
<script type="text/javascript"><![CDATA[
var edges = document.getElementsByTagName('g');
if (edges && edges.length) {
  for (var i=0;i<edges.length;i++) {
    if (edges[i].id.substr(0,4)=='edge') {
      edges[i].setAttribute('class','edge');
    }
  }
}
]]></script>
        <defs>
                <circle id="rim" cx="0" cy="0" r="7"/>
                <circle id="rim2" cx="0" cy="0" r="3.5"/>
                <g id="zoomPlus">
                        <use xlink:href="#rim" fill="#404040">
                                <set attributeName="fill" to="#808080" begin="zoomplus.mouseover" end="zoomplus.mouseout"/>
                        </use>
                        <path d="M-4,0h8M0,-4v8" fill="none" stroke="white" stroke-width="1.5" pointer-events="none"/>
                </g>
                <g id="zoomMin">
                        <use xlink:href="#rim" fill="#404040">
                                <set attributeName="fill" to="#808080" begin="zoomminus.mouseover" end="zoomminus.mouseout"/>
                        </use>
                        <path d="M-4,0h8" fill="none" stroke="white" stroke-width="1.5" pointer-events="none"/>
                </g>
                <g id="dirArrow">
                        <path fill="none" stroke="white" stroke-width="1.5" d="M0,-3.0v7 M-2.5,-0.5L0,-3.0L2.5,-0.5"/>
                </g>
               <g id="resetDef">
                       <use xlink:href="#rim2" fill="#404040">
                               <set attributeName="fill" to="#808080" begin="reset.mouseover" end="reset.mouseout"/>
                       </use>
               </g>
        </defs>

<script type="text/javascript">
var viewWidth = 938;
var viewHeight = 92;
var sectionId = 'dynsection-1';
</script>
<script xlink:href="svgpan.js"/>
<svg id="graph" class="graph">
<g id="viewport">
<title>include/indigox/classes/molecule_impl.hpp</title>
<polygon fill="#ffffff" stroke="transparent" points="-4,4 -4,-88 933.8838,-88 933.8838,4 -4,4"/>
<!-- Node58 -->
<g id="node1" class="node">
<title>Node58</title>
<polygon fill="#bfbfbf" stroke="#000000" points="385.6602,-55.5 385.6602,-83.5 503.9404,-83.5 503.9404,-55.5 385.6602,-55.5"/>
<text text-anchor="start" x="393.6602" y="-71.5" font-family="Helvetica,sans-Serif" font-size="10.00" fill="#000000">include/indigox/classes</text>
<text text-anchor="middle" x="444.8003" y="-61.5" font-family="Helvetica,sans-Serif" font-size="10.00" fill="#000000">/molecule_impl.hpp</text>
</g>
<!-- Node59 -->
<g id="node2" class="node">
<title>Node59</title>
<g id="a_node2"><a xlink:href="angle_8cpp.html" target="_top" xlink:title="src/classes/angle.cpp">
<polygon fill="#ffffff" stroke="#000000" points="0,-.5 0,-18.5 111.6006,-18.5 111.6006,-.5 0,-.5"/>
<text text-anchor="middle" x="55.8003" y="-6.5" font-family="Helvetica,sans-Serif" font-size="10.00" fill="#000000">src/classes/angle.cpp</text>
</a>
</g>
</g>
<!-- Node58&#45;&gt;Node59 -->
<g id="edge1" class="edge">
<title>Node58&#45;&gt;Node59</title>
<path fill="none" stroke="#191970" d="M374.9664,-58.7287C299.666,-47.1143 181.2784,-28.8539 111.8253,-18.1414"/>
<polygon fill="#191970" stroke="#191970" points="374.8794,-62.2566 385.2961,-60.322 375.9466,-55.3384 374.8794,-62.2566"/>
</g>
<!-- Node60 -->
<g id="node3" class="node">
<title>Node60</title>
<g id="a_node3"><a xlink:href="atom_8cpp.html" target="_top" xlink:title="src/classes/atom.cpp">
<polygon fill="#ffffff" stroke="#000000" points="129.1182,-.5 129.1182,-18.5 238.4824,-18.5 238.4824,-.5 129.1182,-.5"/>
<text text-anchor="middle" x="183.8003" y="-6.5" font-family="Helvetica,sans-Serif" font-size="10.00" fill="#000000">src/classes/atom.cpp</text>
</a>
</g>
</g>
<!-- Node58&#45;&gt;Node60 -->
<g id="edge2" class="edge">
<title>Node58&#45;&gt;Node60</title>
<path fill="none" stroke="#191970" d="M375.713,-53.6179C326.9123,-42.3993 263.2695,-27.7688 222.9562,-18.5014"/>
<polygon fill="#191970" stroke="#191970" points="375.0454,-57.0556 385.5754,-55.8851 376.6137,-50.2336 375.0454,-57.0556"/>
</g>
<!-- Node61 -->
<g id="node4" class="node">
<title>Node61</title>
<g id="a_node4"><a xlink:href="bond_8cpp.html" target="_top" xlink:title="src/classes/bond.cpp">
<polygon fill="#ffffff" stroke="#000000" points="256.1108,-.5 256.1108,-18.5 365.4897,-18.5 365.4897,-.5 256.1108,-.5"/>
<text text-anchor="middle" x="310.8003" y="-6.5" font-family="Helvetica,sans-Serif" font-size="10.00" fill="#000000">src/classes/bond.cpp</text>
</a>
</g>
</g>
<!-- Node58&#45;&gt;Node61 -->
<g id="edge3" class="edge">
<title>Node58&#45;&gt;Node61</title>
<path fill="none" stroke="#191970" d="M404.1045,-51.278C379.9958,-40.4831 350.4855,-27.2695 331.193,-18.6311"/>
<polygon fill="#191970" stroke="#191970" points="402.826,-54.5404 413.3832,-55.4327 405.6867,-48.1516 402.826,-54.5404"/>
</g>
<!-- Node62 -->
<g id="node5" class="node">
<title>Node62</title>
<g id="a_node5"><a xlink:href="dihedral_8cpp.html" target="_top" xlink:title="src/classes/dihedral.cpp">
<polygon fill="#ffffff" stroke="#000000" points="383.4434,-.5 383.4434,-18.5 506.1572,-18.5 506.1572,-.5 383.4434,-.5"/>
<text text-anchor="middle" x="444.8003" y="-6.5" font-family="Helvetica,sans-Serif" font-size="10.00" fill="#000000">src/classes/dihedral.cpp</text>
</a>
</g>
</g>
<!-- Node58&#45;&gt;Node62 -->
<g id="edge4" class="edge">
<title>Node58&#45;&gt;Node62</title>
<path fill="none" stroke="#191970" d="M444.8003,-45.2151C444.8003,-35.8253 444.8003,-25.6598 444.8003,-18.5842"/>
<polygon fill="#191970" stroke="#191970" points="441.3004,-45.2808 444.8003,-55.2808 448.3004,-45.2809 441.3004,-45.2808"/>
</g>
<!-- Node63 -->
<g id="node6" class="node">
<title>Node63</title>
<g id="a_node6"><a xlink:href="molecule_8cpp.html" target="_top" xlink:title="src/classes/molecule.cpp">
<polygon fill="#ffffff" stroke="#000000" points="524.2241,-.5 524.2241,-18.5 651.3765,-18.5 651.3765,-.5 524.2241,-.5"/>
<text text-anchor="middle" x="587.8003" y="-6.5" font-family="Helvetica,sans-Serif" font-size="10.00" fill="#000000">src/classes/molecule.cpp</text>
</a>
</g>
</g>
<!-- Node58&#45;&gt;Node63 -->
<g id="edge5" class="edge">
<title>Node58&#45;&gt;Node63</title>
<path fill="none" stroke="#191970" d="M487.8882,-51.4212C513.6784,-40.6001 545.3586,-27.3077 566.0379,-18.6311"/>
<polygon fill="#191970" stroke="#191970" points="486.1945,-48.3361 478.3274,-55.4327 488.9028,-54.791 486.1945,-48.3361"/>
</g>
<!-- Node64 -->
<g id="node7" class="node">
<title>Node64</title>
<g id="a_node7"><a xlink:href="residue_8cpp.html" target="_top" xlink:title="src/classes/residue.cpp">
<polygon fill="#ffffff" stroke="#000000" points="669.835,-.5 669.835,-18.5 789.7656,-18.5 789.7656,-.5 669.835,-.5"/>
<text text-anchor="middle" x="729.8003" y="-6.5" font-family="Helvetica,sans-Serif" font-size="10.00" fill="#000000">src/classes/residue.cpp</text>
</a>
</g>
</g>
<!-- Node58&#45;&gt;Node64 -->
<g id="edge6" class="edge">
<title>Node58&#45;&gt;Node64</title>
<path fill="none" stroke="#191970" d="M514.022,-54.927C567.8854,-43.5873 640.9388,-28.2077 686.7144,-18.5707"/>
<polygon fill="#191970" stroke="#191970" points="513.2632,-51.51 504.1987,-56.9951 514.7053,-58.3598 513.2632,-51.51"/>
</g>
<!-- Node65 -->
<g id="node8" class="node">
<title>Node65</title>
<g id="a_node8"><a xlink:href="molecular_8cpp.html" target="_top" xlink:title="src/graph/molecular.cpp">
<polygon fill="#ffffff" stroke="#000000" points="807.7168,-.5 807.7168,-18.5 929.8838,-18.5 929.8838,-.5 807.7168,-.5"/>
<text text-anchor="middle" x="868.8003" y="-6.5" font-family="Helvetica,sans-Serif" font-size="10.00" fill="#000000">src/graph/molecular.cpp</text>
</a>
</g>
</g>
<!-- Node58&#45;&gt;Node65 -->
<g id="edge7" class="edge">
<title>Node58&#45;&gt;Node65</title>
<path fill="none" stroke="#191970" d="M514.3632,-59.6562C595.8555,-48.1243 729.5958,-29.1988 807.3953,-18.1894"/>
<polygon fill="#191970" stroke="#191970" points="513.6131,-56.2274 504.2021,-61.0941 514.5939,-63.1583 513.6131,-56.2274"/>
</g>
</g>
</svg>
        <g id="navigator" transform="translate(0 0)" fill="#404254">
                <rect fill="#f2f5e9" fill-opacity="0.5" stroke="#606060" stroke-width=".5" x="0" y="0" width="60" height="60"/>
                <use id="zoomplus" xlink:href="#zoomPlus" x="17" y="9" onmousedown="handleZoom(evt,'in')"/>
                <use id="zoomminus" xlink:href="#zoomMin" x="42" y="9" onmousedown="handleZoom(evt,'out')"/>
                <use id="reset" xlink:href="#resetDef" x="30" y="36" onmousedown="handleReset()"/>
                <g id="arrowUp" xlink:href="#dirArrow" transform="translate(30 24)" onmousedown="handlePan(0,-1)">
                  <use xlink:href="#rim" fill="#404040">
                        <set attributeName="fill" to="#808080" begin="arrowUp.mouseover" end="arrowUp.mouseout"/>
                  </use>
                  <path fill="none" stroke="white" stroke-width="1.5" d="M0,-3.0v7 M-2.5,-0.5L0,-3.0L2.5,-0.5"/>
                </g>
                <g id="arrowRight" xlink:href="#dirArrow" transform="rotate(90) translate(36 -43)" onmousedown="handlePan(1,0)">
                  <use xlink:href="#rim" fill="#404040">
                        <set attributeName="fill" to="#808080" begin="arrowRight.mouseover" end="arrowRight.mouseout"/>
                  </use>
                  <path fill="none" stroke="white" stroke-width="1.5" d="M0,-3.0v7 M-2.5,-0.5L0,-3.0L2.5,-0.5"/>
                </g>
                <g id="arrowDown" xlink:href="#dirArrow" transform="rotate(180) translate(-30 -48)" onmousedown="handlePan(0,1)">
                  <use xlink:href="#rim" fill="#404040">
                        <set attributeName="fill" to="#808080" begin="arrowDown.mouseover" end="arrowDown.mouseout"/>
                  </use>
                  <path fill="none" stroke="white" stroke-width="1.5" d="M0,-3.0v7 M-2.5,-0.5L0,-3.0L2.5,-0.5"/>
                </g>
                <g id="arrowLeft" xlink:href="#dirArrow" transform="rotate(270) translate(-36 17)" onmousedown="handlePan(-1,0)">
                  <use xlink:href="#rim" fill="#404040">
                        <set attributeName="fill" to="#808080" begin="arrowLeft.mouseover" end="arrowLeft.mouseout"/>
                  </use>
                  <path fill="none" stroke="white" stroke-width="1.5" d="M0,-3.0v7 M-2.5,-0.5L0,-3.0L2.5,-0.5"/>
                </g>
        </g>
        <svg viewBox="0 0 15 15" width="100%" height="30px" preserveAspectRatio="xMaxYMin meet">
         <g id="arrow_out" transform="scale(0.3 0.3)">
          <a xlink:href="molecule__impl_8hpp__dep__incl_org.svg" target="_base">
           <rect id="button" ry="5" rx="5" y="6" x="6" height="38" width="38"
                fill="#f2f5e9" fill-opacity="0.5" stroke="#606060" stroke-width="1.0"/>
           <path id="arrow"
             d="M 11.500037,31.436501 C 11.940474,20.09759 22.043105,11.32322 32.158766,21.979434 L 37.068811,17.246167 C 37.068811,17.246167 37.088388,32 37.088388,32 L 22.160133,31.978069 C 22.160133,31.978069 26.997745,27.140456 26.997745,27.140456 C 18.528582,18.264221 13.291696,25.230495 11.500037,31.436501 z"
             style="fill:#404040;"/>
          </a>
         </g>
        </svg>
</svg>
