<?xml version="1.0" encoding="UTF-8" standalone="no"?>
<!DOCTYPE svg PUBLIC "-//W3C//DTD SVG 1.1//EN"
 "http://www.w3.org/Graphics/SVG/1.1/DTD/svg11.dtd">
<!-- Generated by graphviz version 2.40.1 (20161225.0304)
 -->
<!-- Title: src/graph/molecular.cpp Pages: 1 -->
<!--zoomable 387 -->
<svg id="main" version="1.1" xmlns="http://www.w3.org/2000/svg" xmlns:xlink="http://www.w3.org/1999/xlink" xml:space="preserve" onload="init(evt)">
<style type="text/css"><![CDATA[
.edge:hover path { stroke: red; }
.edge:hover polygon { stroke: red; fill: red; }
]]></style>
<script type="text/javascript"><![CDATA[
var edges = document.getElementsByTagName('g');
if (edges && edges.length) {
  for (var i=0;i<edges.length;i++) {
    if (edges[i].id.substr(0,4)=='edge') {
      edges[i].setAttribute('class','edge');
    }
  }
}
]]></script>
        <defs>
                <circle id="rim" cx="0" cy="0" r="7"/>
                <circle id="rim2" cx="0" cy="0" r="3.5"/>
                <g id="zoomPlus">
                        <use xlink:href="#rim" fill="#404040">
                                <set attributeName="fill" to="#808080" begin="zoomplus.mouseover" end="zoomplus.mouseout"/>
                        </use>
                        <path d="M-4,0h8M0,-4v8" fill="none" stroke="white" stroke-width="1.5" pointer-events="none"/>
                </g>
                <g id="zoomMin">
                        <use xlink:href="#rim" fill="#404040">
                                <set attributeName="fill" to="#808080" begin="zoomminus.mouseover" end="zoomminus.mouseout"/>
                        </use>
                        <path d="M-4,0h8" fill="none" stroke="white" stroke-width="1.5" pointer-events="none"/>
                </g>
                <g id="dirArrow">
                        <path fill="none" stroke="white" stroke-width="1.5" d="M0,-3.0v7 M-2.5,-0.5L0,-3.0L2.5,-0.5"/>
                </g>
               <g id="resetDef">
                       <use xlink:href="#rim2" fill="#404040">
                               <set attributeName="fill" to="#808080" begin="reset.mouseover" end="reset.mouseout"/>
                       </use>
               </g>
        </defs>

<script type="text/javascript">
var viewWidth = 3810;
var viewHeight = 387;
var sectionId = 'dynsection-0';
</script>
<script xlink:href="svgpan.js"/>
<svg id="graph" class="graph">
<g id="viewport">
<title>src/graph/molecular.cpp</title>
<polygon fill="#ffffff" stroke="transparent" points="-4,4 -4,-383 3806.0166,-383 3806.0166,4 -4,4"/>
<!-- Node0 -->
<g id="node1" class="node">
<title>Node0</title>
<polygon fill="#bfbfbf" stroke="#000000" points="2497.5464,-360.5 2497.5464,-378.5 2619.7134,-378.5 2619.7134,-360.5 2497.5464,-360.5"/>
<text text-anchor="middle" x="2558.6299" y="-366.5" font-family="Helvetica,sans-Serif" font-size="10.00" fill="#000000">src/graph/molecular.cpp</text>
</g>
<!-- Node1 -->
<g id="node2" class="node">
<title>Node1</title>
<g id="a_node2"><a xlink:href="atom_8hpp.html" target="_top" xlink:title="indigox/classes/atom.hpp">
<polygon fill="#ffffff" stroke="#000000" points="1508.4873,-125.5 1508.4873,-143.5 1636.7725,-143.5 1636.7725,-125.5 1508.4873,-125.5"/>
<text text-anchor="middle" x="1572.6299" y="-131.5" font-family="Helvetica,sans-Serif" font-size="10.00" fill="#000000">indigox/classes/atom.hpp</text>
</a>
</g>
</g>
<!-- Node0&#45;&gt;Node1 -->
<g id="edge1" class="edge">
<title>Node0&#45;&gt;Node1</title>
<path fill="none" stroke="#191970" d="M2497.3088,-367.6197C2332.4936,-362.3247 1882.5153,-346.2152 1735.6299,-324 1617.8573,-306.1879 1589.701,-293.2849 1475.6299,-259 1405.2249,-237.8393 1362.101,-264.0071 1319.6299,-204 1314.7515,-197.1073 1314.275,-191.5294 1319.6299,-185 1341.9182,-157.8232 1431.9666,-144.9884 1498.3161,-139.1247"/>
<polygon fill="#191970" stroke="#191970" points="1498.6657,-142.6077 1508.3345,-138.2758 1498.0746,-135.6327 1498.6657,-142.6077"/>
</g>
<!-- Node7 -->
<g id="node8" class="node">
<title>Node7</title>
<g id="a_node8"><a xlink:href="bond_8hpp.html" target="_top" xlink:title="indigox/classes/bond.hpp">
<polygon fill="#ffffff" stroke="#000000" points="1328.48,-185.5 1328.48,-203.5 1456.7798,-203.5 1456.7798,-185.5 1328.48,-185.5"/>
<text text-anchor="middle" x="1392.6299" y="-191.5" font-family="Helvetica,sans-Serif" font-size="10.00" fill="#000000">indigox/classes/bond.hpp</text>
</a>
</g>
</g>
<!-- Node0&#45;&gt;Node7 -->
<g id="edge8" class="edge">
<title>Node0&#45;&gt;Node7</title>
<path fill="none" stroke="#191970" d="M2497.2212,-365.5915C2304.5675,-352.9086 1713.9776,-310.7145 1529.6299,-259 1487.9248,-247.3006 1443.1528,-223.9425 1416.5376,-208.7795"/>
<polygon fill="#191970" stroke="#191970" points="1418.0008,-205.5823 1407.5929,-203.6007 1414.4933,-211.6402 1418.0008,-205.5823"/>
</g>
<!-- Node9 -->
<g id="node10" class="node">
<title>Node9</title>
<g id="a_node10"><a xlink:href="molecule_8hpp.html" target="_top" xlink:title="indigox/classes/molecule.hpp">
<polygon fill="#ffffff" stroke="#000000" points="2463.5933,-185.5 2463.5933,-203.5 2609.6665,-203.5 2609.6665,-185.5 2463.5933,-185.5"/>
<text text-anchor="middle" x="2536.6299" y="-191.5" font-family="Helvetica,sans-Serif" font-size="10.00" fill="#000000">indigox/classes/molecule.hpp</text>
</a>
</g>
</g>
<!-- Node0&#45;&gt;Node9 -->
<g id="edge12" class="edge">
<title>Node0&#45;&gt;Node9</title>
<path fill="none" stroke="#191970" d="M2557.4471,-360.0912C2553.9691,-332.4255 2543.7263,-250.9483 2539.0309,-213.5988"/>
<polygon fill="#191970" stroke="#191970" points="2542.4855,-213.018 2537.7655,-203.5326 2535.5402,-213.8911 2542.4855,-213.018"/>
</g>
<!-- Node13 -->
<g id="node14" class="node">
<title>Node13</title>
<g id="a_node14"><a xlink:href="molecule__impl_8hpp.html" target="_top" xlink:title="indigox/classes/molecule\l_impl.hpp">
<polygon fill="#ffffff" stroke="#000000" points="2234.3247,-295.5 2234.3247,-323.5 2360.9351,-323.5 2360.9351,-295.5 2234.3247,-295.5"/>
<text text-anchor="start" x="2242.3247" y="-311.5" font-family="Helvetica,sans-Serif" font-size="10.00" fill="#000000">indigox/classes/molecule</text>
<text text-anchor="middle" x="2297.6299" y="-301.5" font-family="Helvetica,sans-Serif" font-size="10.00" fill="#000000">_impl.hpp</text>
</a>
</g>
</g>
<!-- Node0&#45;&gt;Node13 -->
<g id="edge19" class="edge">
<title>Node0&#45;&gt;Node13</title>
<path fill="none" stroke="#191970" d="M2519.273,-360.4524C2479.4375,-351.2948 2416.971,-336.9347 2368.4928,-325.7903"/>
<polygon fill="#191970" stroke="#191970" points="2369.2144,-322.365 2358.6844,-323.5355 2367.6461,-329.187 2369.2144,-322.365"/>
</g>
<!-- Node14 -->
<g id="node15" class="node">
<title>Node14</title>
<g id="a_node15"><a xlink:href="condensed_8hpp.html" target="_top" xlink:title="../graph/condensed.hpp">
<polygon fill="#ffffff" stroke="#000000" points="2937.0884,-185.5 2937.0884,-203.5 3058.1714,-203.5 3058.1714,-185.5 2937.0884,-185.5"/>
<text text-anchor="middle" x="2997.6299" y="-191.5" font-family="Helvetica,sans-Serif" font-size="10.00" fill="#000000">../graph/condensed.hpp</text>
</a>
</g>
</g>
<!-- Node0&#45;&gt;Node14 -->
<g id="edge100" class="edge">
<title>Node0&#45;&gt;Node14</title>
<path fill="none" stroke="#191970" d="M2581.308,-360.4597C2653.9303,-331.5101 2880.9214,-241.0239 2965.4695,-207.3202"/>
<polygon fill="#191970" stroke="#191970" points="2966.8309,-210.5454 2974.824,-203.5912 2964.2388,-204.043 2966.8309,-210.5454"/>
</g>
<!-- Node48 -->
<g id="node20" class="node">
<title>Node48</title>
<g id="a_node20"><a xlink:href="molecular_8hpp.html" target="_top" xlink:title="../graph/molecular.hpp">
<polygon fill="#ffffff" stroke="#000000" points="3277.1524,-185.5 3277.1524,-203.5 3392.1075,-203.5 3392.1075,-185.5 3277.1524,-185.5"/>
<text text-anchor="middle" x="3334.6299" y="-191.5" font-family="Helvetica,sans-Serif" font-size="10.00" fill="#000000">../graph/molecular.hpp</text>
</a>
</g>
</g>
<!-- Node0&#45;&gt;Node48 -->
<g id="edge101" class="edge">
<title>Node0&#45;&gt;Node48</title>
<path fill="none" stroke="#191970" d="M2598.717,-360.4597C2729.0429,-331.0692 3140.6135,-238.2537 3284.4322,-205.8204"/>
<polygon fill="#191970" stroke="#191970" points="3285.3319,-209.2054 3294.3169,-203.5912 3283.7919,-202.3769 3285.3319,-209.2054"/>
</g>
<!-- Node29 -->
<g id="node29" class="node">
<title>Node29</title>
<g id="a_node29"><a xlink:href="serialise_8hpp.html" target="_top" xlink:title="../utils/serialise.hpp">
<polygon fill="#ffffff" stroke="#000000" points="1109.1104,-125.5 1109.1104,-143.5 1210.1495,-143.5 1210.1495,-125.5 1109.1104,-125.5"/>
<text text-anchor="middle" x="1159.6299" y="-131.5" font-family="Helvetica,sans-Serif" font-size="10.00" fill="#000000">../utils/serialise.hpp</text>
</a>
</g>
</g>
<!-- Node0&#45;&gt;Node29 -->
<g id="edge102" class="edge">
<title>Node0&#45;&gt;Node29</title>
<path fill="none" stroke="#191970" d="M2497.3625,-368.428C2313.3098,-364.9212 1767.1924,-352.349 1591.6299,-324 1485.9176,-306.9301 1457.6227,-302.1727 1359.6299,-259 1289.5389,-228.12 1214.9716,-175.7977 1179.9827,-149.9274"/>
<polygon fill="#191970" stroke="#191970" points="1181.6903,-146.8346 1171.5823,-143.6598 1177.5043,-152.4451 1181.6903,-146.8346"/>
</g>
<!-- Node24 -->
<g id="node47" class="node">
<title>Node24</title>
<polygon fill="#ffffff" stroke="#bfbfbf" points="3673.066,-60.5 3673.066,-78.5 3730.1939,-78.5 3730.1939,-60.5 3673.066,-60.5"/>
<text text-anchor="middle" x="3701.6299" y="-66.5" font-family="Helvetica,sans-Serif" font-size="10.00" fill="#000000">algorithm</text>
</g>
<!-- Node0&#45;&gt;Node24 -->
<g id="edge103" class="edge">
<title>Node0&#45;&gt;Node24</title>
<path fill="none" stroke="#191970" d="M2619.8421,-366.504C2861.4396,-354.2822 3735.6299,-306.1453 3735.6299,-249.5 3735.6299,-249.5 3735.6299,-249.5 3735.6299,-194.5 3735.6299,-155.5144 3720.0403,-112.0115 3709.9738,-87.9845"/>
<polygon fill="#191970" stroke="#191970" points="3713.1262,-86.4566 3705.936,-78.6751 3706.7042,-89.242 3713.1262,-86.4566"/>
</g>
<!-- Node21 -->
<g id="node50" class="node">
<title>Node21</title>
<polygon fill="#ffffff" stroke="#bfbfbf" points="3763.2432,-300.5 3763.2432,-318.5 3802.0166,-318.5 3802.0166,-300.5 3763.2432,-300.5"/>
<text text-anchor="middle" x="3782.6299" y="-306.5" font-family="Helvetica,sans-Serif" font-size="10.00" fill="#000000">limits</text>
</g>
<!-- Node0&#45;&gt;Node21 -->
<g id="edge104" class="edge">
<title>Node0&#45;&gt;Node21</title>
<path fill="none" stroke="#191970" d="M2619.9362,-368.5016C2847.9198,-364.6044 3639.3496,-349.3672 3749.6299,-324 3751.5967,-323.5476 3753.5917,-322.979 3755.5765,-322.3308"/>
<polygon fill="#191970" stroke="#191970" points="3757.1743,-325.4656 3765.2388,-318.5943 3754.6495,-318.9368 3757.1743,-325.4656"/>
</g>
<!-- Node2 -->
<g id="node3" class="node">
<title>Node2</title>
<g id="a_node3"><a xlink:href="fwd__declares_8hpp.html" target="_top" xlink:title="../utils/fwd_declares.hpp">
<polygon fill="#ffffff" stroke="#000000" points="2186.9898,-60.5 2186.9898,-78.5 2310.2701,-78.5 2310.2701,-60.5 2186.9898,-60.5"/>
<text text-anchor="middle" x="2248.6299" y="-66.5" font-family="Helvetica,sans-Serif" font-size="10.00" fill="#000000">../utils/fwd_declares.hpp</text>
</a>
</g>
</g>
<!-- Node1&#45;&gt;Node2 -->
<g id="edge2" class="edge">
<title>Node1&#45;&gt;Node2</title>
<path fill="none" stroke="#191970" d="M1637.0093,-126.0523C1653.7993,-123.959 1671.8812,-121.8014 1688.6299,-120 1863.7495,-101.1647 2070.1981,-83.794 2176.8239,-75.1798"/>
<polygon fill="#191970" stroke="#191970" points="2177.14,-78.6657 2186.8265,-74.3737 2176.5776,-71.6884 2177.14,-78.6657"/>
</g>
<!-- Node4 -->
<g id="node5" class="node">
<title>Node4</title>
<polygon fill="#ffffff" stroke="#bfbfbf" points="2125.5733,-.5 2125.5733,-18.5 2177.6866,-18.5 2177.6866,-.5 2125.5733,-.5"/>
<text text-anchor="middle" x="2151.6299" y="-6.5" font-family="Helvetica,sans-Serif" font-size="10.00" fill="#000000">memory</text>
</g>
<!-- Node1&#45;&gt;Node4 -->
<g id="edge6" class="edge">
<title>Node1&#45;&gt;Node4</title>
<path fill="none" stroke="#191970" d="M1618.7512,-125.4882C1629.2137,-123.566 1640.2892,-121.627 1650.6299,-120 1774.1385,-100.5671 1813.995,-131.5453 1929.6299,-84 1949.279,-75.9209 1948.4734,-64.1863 1967.6299,-55 2015.9063,-31.8497 2077.1418,-19.7471 2115.3633,-14.0005"/>
<polygon fill="#191970" stroke="#191970" points="2116.1026,-17.4303 2125.5036,-12.5443 2115.1076,-10.5014 2116.1026,-17.4303"/>
</g>
<!-- Node5 -->
<g id="node6" class="node">
<title>Node5</title>
<polygon fill="#ffffff" stroke="#bfbfbf" points="1846.9996,-60.5 1846.9996,-78.5 1920.2603,-78.5 1920.2603,-60.5 1846.9996,-60.5"/>
<text text-anchor="middle" x="1883.6299" y="-66.5" font-family="Helvetica,sans-Serif" font-size="10.00" fill="#000000">Eigen/Dense</text>
</g>
<!-- Node1&#45;&gt;Node5 -->
<g id="edge5" class="edge">
<title>Node1&#45;&gt;Node5</title>
<path fill="none" stroke="#191970" d="M1620.9461,-125.4439C1694.4951,-111.6367 1827.1702,-86.6356 1837.6299,-84 1840.619,-83.2468 1843.6996,-82.4105 1846.7836,-81.5304"/>
<polygon fill="#191970" stroke="#191970" points="1847.9567,-84.8329 1856.5378,-78.6188 1845.9545,-78.1253 1847.9567,-84.8329"/>
</g>
<!-- Node6 -->
<g id="node7" class="node">
<title>Node6</title>
<polygon fill="#ffffff" stroke="#bfbfbf" points="2715.0142,-60.5 2715.0142,-78.5 2758.2456,-78.5 2758.2456,-60.5 2715.0142,-60.5"/>
<text text-anchor="middle" x="2736.6299" y="-66.5" font-family="Helvetica,sans-Serif" font-size="10.00" fill="#000000">vector</text>
</g>
<!-- Node1&#45;&gt;Node6 -->
<g id="edge7" class="edge">
<title>Node1&#45;&gt;Node6</title>
<path fill="none" stroke="#191970" d="M1637.1024,-129.9398C1682.075,-126.8582 1743.491,-122.8477 1797.6299,-120 2189.8582,-99.3688 2292.0987,-141.5513 2680.6299,-84 2688.5736,-82.8233 2697.0183,-80.9671 2704.8761,-78.9706"/>
<polygon fill="#191970" stroke="#191970" points="2706.027,-82.2856 2714.7763,-76.3106 2704.2106,-75.5253 2706.027,-82.2856"/>
</g>
<!-- Node3 -->
<g id="node4" class="node">
<title>Node3</title>
<polygon fill="#ffffff" stroke="#bfbfbf" points="2226.1792,-.5 2226.1792,-18.5 2271.0806,-18.5 2271.0806,-.5 2226.1792,-.5"/>
<text text-anchor="middle" x="2248.6299" y="-6.5" font-family="Helvetica,sans-Serif" font-size="10.00" fill="#000000">cstdint</text>
</g>
<!-- Node2&#45;&gt;Node3 -->
<g id="edge3" class="edge">
<title>Node2&#45;&gt;Node3</title>
<path fill="none" stroke="#191970" d="M2248.6299,-60.3873C2248.6299,-52.0174 2248.6299,-39.3414 2248.6299,-28.735"/>
<polygon fill="#191970" stroke="#191970" points="2252.13,-28.6984 2248.6299,-18.6985 2245.13,-28.6985 2252.13,-28.6984"/>
</g>
<!-- Node2&#45;&gt;Node4 -->
<g id="edge4" class="edge">
<title>Node2&#45;&gt;Node4</title>
<path fill="none" stroke="#191970" d="M2233.8977,-60.3873C2218.2104,-50.6838 2193.1663,-35.1926 2174.8268,-23.8486"/>
<polygon fill="#191970" stroke="#191970" points="2176.5287,-20.7859 2166.183,-18.5019 2172.8463,-26.739 2176.5287,-20.7859"/>
</g>
<!-- Node7&#45;&gt;Node2 -->
<g id="edge9" class="edge">
<title>Node7&#45;&gt;Node2</title>
<path fill="none" stroke="#191970" d="M1448.5941,-185.4445C1499.9877,-176.8894 1578.1724,-163.2715 1645.6299,-149 1698.8878,-137.7326 1710.9918,-129.2902 1764.6299,-120 1909.8046,-94.8555 2081.7975,-80.5336 2176.6974,-73.9578"/>
<polygon fill="#191970" stroke="#191970" points="2177.0211,-77.444 2186.7589,-73.2697 2176.5434,-70.4603 2177.0211,-77.444"/>
</g>
<!-- Node7&#45;&gt;Node4 -->
<g id="edge11" class="edge">
<title>Node7&#45;&gt;Node4</title>
<path fill="none" stroke="#191970" d="M1328.4237,-192.5876C1187.5619,-188.0495 840.8932,-175.0107 551.6299,-149 319.459,-128.1231 -127.4207,-221.5943 35.6299,-55 73.5155,-16.291 1837.5856,-10.2872 2115.0662,-9.5818"/>
<polygon fill="#191970" stroke="#191970" points="2115.3925,-13.0812 2125.3838,-9.5564 2115.3751,-6.0812 2115.3925,-13.0812"/>
</g>
<!-- Node8 -->
<g id="node9" class="node">
<title>Node8</title>
<polygon fill="#ffffff" stroke="#bfbfbf" points="1806.2383,-125.5 1806.2383,-143.5 1845.0215,-143.5 1845.0215,-125.5 1806.2383,-125.5"/>
<text text-anchor="middle" x="1825.6299" y="-131.5" font-family="Helvetica,sans-Serif" font-size="10.00" fill="#000000">array</text>
</g>
<!-- Node7&#45;&gt;Node8 -->
<g id="edge10" class="edge">
<title>Node7&#45;&gt;Node8</title>
<path fill="none" stroke="#191970" d="M1456.9868,-185.5822C1552.0268,-172.4127 1726.1614,-148.2832 1795.7459,-138.641"/>
<polygon fill="#191970" stroke="#191970" points="1796.5631,-142.0613 1805.988,-137.2217 1795.6023,-135.1275 1796.5631,-142.0613"/>
</g>
<!-- Node9&#45;&gt;Node2 -->
<g id="edge13" class="edge">
<title>Node9&#45;&gt;Node2</title>
<path fill="none" stroke="#191970" d="M2536.3782,-185.3494C2535.4179,-169.49 2531.0429,-136.9706 2511.6299,-120 2483.7037,-95.5872 2388.4201,-81.9883 2320.5925,-75.207"/>
<polygon fill="#191970" stroke="#191970" points="2320.6679,-71.6979 2310.3766,-74.216 2319.992,-78.6652 2320.6679,-71.6979"/>
</g>
<!-- Node9&#45;&gt;Node3 -->
<g id="edge15" class="edge">
<title>Node9&#45;&gt;Node3</title>
<path fill="none" stroke="#191970" d="M2539.3752,-185.2462C2543.2734,-170.0817 2548.5046,-139.6638 2534.6299,-120 2504.1994,-76.8724 2349.2779,-34.2503 2281.0105,-17.2329"/>
<polygon fill="#191970" stroke="#191970" points="2281.7576,-13.8124 2271.2106,-14.818 2280.0827,-20.6091 2281.7576,-13.8124"/>
</g>
<!-- Node9&#45;&gt;Node6 -->
<g id="edge18" class="edge">
<title>Node9&#45;&gt;Node6</title>
<path fill="none" stroke="#191970" d="M2545.8399,-185.3151C2561.3029,-170.2495 2593.9142,-139.9707 2625.6299,-120 2651.068,-103.9822 2682.4347,-90.1975 2705.328,-81.0963"/>
<polygon fill="#191970" stroke="#191970" points="2706.841,-84.2631 2714.8881,-77.3714 2704.2997,-77.7407 2706.841,-84.2631"/>
</g>
<!-- Node10 -->
<g id="node11" class="node">
<title>Node10</title>
<polygon fill="#ffffff" stroke="#bfbfbf" points="2358.6792,-125.5 2358.6792,-143.5 2398.5806,-143.5 2398.5806,-125.5 2358.6792,-125.5"/>
<text text-anchor="middle" x="2378.6299" y="-131.5" font-family="Helvetica,sans-Serif" font-size="10.00" fill="#000000">bitset</text>
</g>
<!-- Node9&#45;&gt;Node10 -->
<g id="edge14" class="edge">
<title>Node9&#45;&gt;Node10</title>
<path fill="none" stroke="#191970" d="M2507.8022,-185.4741C2481.3982,-176.9392 2441.4048,-163.3343 2407.6299,-149 2406.7911,-148.644 2405.9425,-148.2751 2405.0886,-147.8962"/>
<polygon fill="#191970" stroke="#191970" points="2406.4861,-144.6858 2395.9472,-143.5982 2403.5076,-151.0205 2406.4861,-144.6858"/>
</g>
<!-- Node11 -->
<g id="node12" class="node">
<title>Node11</title>
<polygon fill="#ffffff" stroke="#bfbfbf" points="2634.9034,-125.5 2634.9034,-143.5 2670.3565,-143.5 2670.3565,-125.5 2634.9034,-125.5"/>
<text text-anchor="middle" x="2652.6299" y="-131.5" font-family="Helvetica,sans-Serif" font-size="10.00" fill="#000000">map</text>
</g>
<!-- Node9&#45;&gt;Node11 -->
<g id="edge16" class="edge">
<title>Node9&#45;&gt;Node11</title>
<path fill="none" stroke="#191970" d="M2554.2478,-185.3873C2573.3505,-175.5066 2604.0553,-159.6248 2626.083,-148.2312"/>
<polygon fill="#191970" stroke="#191970" points="2627.9521,-151.2049 2635.2263,-143.5019 2624.7361,-144.9874 2627.9521,-151.2049"/>
</g>
<!-- Node12 -->
<g id="node13" class="node">
<title>Node12</title>
<polygon fill="#ffffff" stroke="#bfbfbf" points="2416.3272,-125.5 2416.3272,-143.5 2502.9327,-143.5 2502.9327,-125.5 2416.3272,-125.5"/>
<text text-anchor="middle" x="2459.6299" y="-131.5" font-family="Helvetica,sans-Serif" font-size="10.00" fill="#000000">unordered_map</text>
</g>
<!-- Node9&#45;&gt;Node12 -->
<g id="edge17" class="edge">
<title>Node9&#45;&gt;Node12</title>
<path fill="none" stroke="#191970" d="M2524.9353,-185.3873C2512.8805,-175.994 2493.8654,-161.177 2479.4558,-149.9487"/>
<polygon fill="#191970" stroke="#191970" points="2481.2216,-146.8876 2471.1823,-143.5019 2476.9191,-152.4092 2481.2216,-146.8876"/>
</g>
<!-- Node13&#45;&gt;Node1 -->
<g id="edge49" class="edge">
<title>Node13&#45;&gt;Node1</title>
<path fill="none" stroke="#191970" d="M2234.171,-306.6649C2089.3986,-299.8421 1743.5155,-281.4019 1695.6299,-259 1644.4467,-235.0554 1602.7152,-180.1948 1583.7151,-151.9743"/>
<polygon fill="#191970" stroke="#191970" points="1586.5735,-149.9506 1578.1623,-143.5084 1580.7202,-153.7898 1586.5735,-149.9506"/>
</g>
<!-- Node13&#45;&gt;Node2 -->
<g id="edge44" class="edge">
<title>Node13&#45;&gt;Node2</title>
<path fill="none" stroke="#191970" d="M2257.2058,-295.4567C2203.162,-273.938 2111.3959,-226.9056 2087.6299,-149 2083.8691,-136.672 2080.0009,-130.3885 2087.6299,-120 2099.9643,-103.2042 2148.3137,-89.4798 2188.8386,-80.6004"/>
<polygon fill="#191970" stroke="#191970" points="2189.6276,-84.0109 2198.6786,-78.5038 2188.1688,-77.1646 2189.6276,-84.0109"/>
</g>
<!-- Node13&#45;&gt;Node7 -->
<g id="edge50" class="edge">
<title>Node13&#45;&gt;Node7</title>
<path fill="none" stroke="#191970" d="M2234.0564,-306.5361C2087.7908,-299.4377 1730.916,-280.4499 1612.6299,-259 1545.5549,-246.8367 1469.7594,-222.0789 1426.9339,-207.0227"/>
<polygon fill="#191970" stroke="#191970" points="1427.886,-203.6468 1417.2912,-203.6001 1425.5445,-210.2436 1427.886,-203.6468"/>
</g>
<!-- Node13&#45;&gt;Node9 -->
<g id="edge93" class="edge">
<title>Node13&#45;&gt;Node9</title>
<path fill="none" stroke="#191970" d="M2323.3305,-295.3265C2349.906,-280.8472 2392.7428,-257.9986 2430.6299,-240 2455.147,-228.353 2483.4156,-216.2849 2504.5912,-207.5064"/>
<polygon fill="#191970" stroke="#191970" points="2506.1632,-210.6441 2514.0752,-203.5978 2503.4959,-204.1722 2506.1632,-210.6441"/>
</g>
<!-- Node13&#45;&gt;Node10 -->
<g id="edge99" class="edge">
<title>Node13&#45;&gt;Node10</title>
<path fill="none" stroke="#191970" d="M2314.6153,-295.1554C2324.6834,-285.8075 2336.9389,-272.8127 2344.6299,-259 2363.7238,-224.7083 2372.6066,-179.0526 2376.3123,-153.6409"/>
<polygon fill="#191970" stroke="#191970" points="2379.8115,-153.8792 2377.6688,-143.5033 2372.8734,-152.9508 2379.8115,-153.8792"/>
</g>
<!-- Node13&#45;&gt;Node14 -->
<g id="edge20" class="edge">
<title>Node13&#45;&gt;Node14</title>
<path fill="none" stroke="#191970" d="M2347.9451,-295.434C2380.6197,-285.9502 2423.9775,-272.7064 2461.6299,-259 2482.03,-251.5739 2485.5736,-245.286 2506.6299,-240 2584.2067,-220.5249 2810.1322,-205.2386 2926.508,-198.4022"/>
<polygon fill="#191970" stroke="#191970" points="2926.9591,-201.882 2936.7386,-197.8064 2926.552,-194.8938 2926.9591,-201.882"/>
</g>
<!-- Node13&#45;&gt;Node48 -->
<g id="edge32" class="edge">
<title>Node13&#45;&gt;Node48</title>
<path fill="none" stroke="#191970" d="M2360.9379,-302.4793C2544.7757,-282.0923 3077.5643,-223.0078 3266.8875,-202.0124"/>
<polygon fill="#191970" stroke="#191970" points="3267.431,-205.4737 3276.9843,-200.8927 3266.6594,-198.5163 3267.431,-205.4737"/>
</g>
<!-- Node51 -->
<g id="node25" class="node">
<title>Node51</title>
<g id="a_node25"><a xlink:href="angle_8hpp.html" target="_top" xlink:title="angle.hpp">
<polygon fill="#ffffff" stroke="#000000" points="1865.6646,-185.5 1865.6646,-203.5 1925.5953,-203.5 1925.5953,-185.5 1865.6646,-185.5"/>
<text text-anchor="middle" x="1895.6299" y="-191.5" font-family="Helvetica,sans-Serif" font-size="10.00" fill="#000000">angle.hpp</text>
</a>
</g>
</g>
<!-- Node13&#45;&gt;Node51 -->
<g id="edge45" class="edge">
<title>Node13&#45;&gt;Node51</title>
<path fill="none" stroke="#191970" d="M2234.1635,-299.5448C2184.6679,-291.0085 2114.5104,-277.2048 2054.6299,-259 2007.8238,-244.7701 1955.6368,-222.2534 1924.235,-207.9382"/>
<polygon fill="#191970" stroke="#191970" points="1925.3508,-204.5989 1914.8032,-203.5995 1922.4254,-210.9583 1925.3508,-204.5989"/>
</g>
<!-- Node52 -->
<g id="node26" class="node">
<title>Node52</title>
<g id="a_node26"><a xlink:href="dihedral_8hpp.html" target="_top" xlink:title="dihedral.hpp">
<polygon fill="#ffffff" stroke="#000000" points="1705.1079,-240.5 1705.1079,-258.5 1776.1519,-258.5 1776.1519,-240.5 1705.1079,-240.5"/>
<text text-anchor="middle" x="1740.6299" y="-246.5" font-family="Helvetica,sans-Serif" font-size="10.00" fill="#000000">dihedral.hpp</text>
</a>
</g>
</g>
<!-- Node13&#45;&gt;Node52 -->
<g id="edge51" class="edge">
<title>Node13&#45;&gt;Node52</title>
<path fill="none" stroke="#191970" d="M2234.2772,-302.6757C2120.8168,-290.4537 1885.5455,-265.1103 1786.3339,-254.4232"/>
<polygon fill="#191970" stroke="#191970" points="1786.6408,-250.9361 1776.3234,-253.3449 1785.891,-257.8959 1786.6408,-250.9361"/>
</g>
<!-- Node54 -->
<g id="node44" class="node">
<title>Node54</title>
<g id="a_node44"><a xlink:href="forcefield_8hpp.html" target="_top" xlink:title="forcefield.hpp">
<polygon fill="#ffffff" stroke="#000000" points="2259.6104,-240.5 2259.6104,-258.5 2335.6495,-258.5 2335.6495,-240.5 2259.6104,-240.5"/>
<text text-anchor="middle" x="2297.6299" y="-246.5" font-family="Helvetica,sans-Serif" font-size="10.00" fill="#000000">forcefield.hpp</text>
</a>
</g>
</g>
<!-- Node13&#45;&gt;Node54 -->
<g id="edge75" class="edge">
<title>Node13&#45;&gt;Node54</title>
<path fill="none" stroke="#191970" d="M2297.6299,-295.2808C2297.6299,-287.3776 2297.6299,-277.4316 2297.6299,-268.8308"/>
<polygon fill="#191970" stroke="#191970" points="2301.13,-268.5842 2297.6299,-258.5842 2294.13,-268.5842 2301.13,-268.5842"/>
</g>
<!-- Node55 -->
<g id="node45" class="node">
<title>Node55</title>
<g id="a_node45"><a xlink:href="periodictable_8hpp.html" target="_top" xlink:title="periodictable.hpp">
<polygon fill="#ffffff" stroke="#000000" points="2133.5464,-185.5 2133.5464,-203.5 2225.7134,-203.5 2225.7134,-185.5 2133.5464,-185.5"/>
<text text-anchor="middle" x="2179.6299" y="-191.5" font-family="Helvetica,sans-Serif" font-size="10.00" fill="#000000">periodictable.hpp</text>
</a>
</g>
</g>
<!-- Node13&#45;&gt;Node55 -->
<g id="edge94" class="edge">
<title>Node13&#45;&gt;Node55</title>
<path fill="none" stroke="#191970" d="M2283.1608,-295.3987C2261.2505,-274.0455 2219.7516,-233.6017 2196.5005,-210.9417"/>
<polygon fill="#191970" stroke="#191970" points="2198.7037,-208.2016 2189.0993,-203.7286 2193.818,-213.2147 2198.7037,-208.2016"/>
</g>
<!-- Node58 -->
<g id="node49" class="node">
<title>Node58</title>
<g id="a_node49"><a xlink:href="residue_8hpp.html" target="_top" xlink:title="residue.hpp">
<polygon fill="#ffffff" stroke="#000000" points="2681.4996,-185.5 2681.4996,-203.5 2749.7603,-203.5 2749.7603,-185.5 2681.4996,-185.5"/>
<text text-anchor="middle" x="2715.6299" y="-191.5" font-family="Helvetica,sans-Serif" font-size="10.00" fill="#000000">residue.hpp</text>
</a>
</g>
</g>
<!-- Node13&#45;&gt;Node58 -->
<g id="edge95" class="edge">
<title>Node13&#45;&gt;Node58</title>
<path fill="none" stroke="#191970" d="M2335.0933,-295.4213C2360.9501,-285.5611 2396.0467,-271.8937 2426.6299,-259 2445.5086,-251.0408 2449.0784,-246.1231 2468.6299,-240 2505.7032,-228.3896 2610.8374,-210.8975 2671.3216,-201.337"/>
<polygon fill="#191970" stroke="#191970" points="2672.014,-204.7712 2681.3487,-199.7601 2670.9264,-197.8562 2672.014,-204.7712"/>
</g>
<!-- Node14&#45;&gt;Node2 -->
<g id="edge21" class="edge">
<title>Node14&#45;&gt;Node2</title>
<path fill="none" stroke="#191970" d="M2998.3763,-185.4366C2999.139,-169.4128 2998.1075,-136.2425 2978.6299,-120 2953.6111,-99.1366 2499.9248,-79.2823 2320.6521,-72.2171"/>
<polygon fill="#191970" stroke="#191970" points="2320.6565,-68.7146 2310.527,-71.8202 2320.3822,-75.7093 2320.6565,-68.7146"/>
</g>
<!-- Node14&#45;&gt;Node4 -->
<g id="edge30" class="edge">
<title>Node14&#45;&gt;Node4</title>
<path fill="none" stroke="#191970" d="M3058.3657,-190.5794C3150.482,-184.0071 3316.7576,-169.4476 3334.6299,-149 3343.1121,-139.2956 3343.2091,-129.6188 3334.6299,-120 3251.6817,-26.9995 2341.572,-31.9566 2217.6299,-19 2207.9908,-17.9923 2197.5977,-16.6278 2187.9747,-15.2475"/>
<polygon fill="#191970" stroke="#191970" points="2188.3113,-11.7593 2177.907,-13.7597 2187.2879,-18.6841 2188.3113,-11.7593"/>
</g>
<!-- Node14&#45;&gt;Node6 -->
<g id="edge31" class="edge">
<title>Node14&#45;&gt;Node6</title>
<path fill="none" stroke="#191970" d="M3058.2112,-185.453C3111.8292,-174.9711 3177.1897,-154.5548 3146.6299,-120 3121.6365,-91.7392 2860.7342,-75.8185 2768.6183,-71.045"/>
<polygon fill="#191970" stroke="#191970" points="2768.6604,-67.5427 2758.4955,-70.5303 2768.3049,-74.5337 2768.6604,-67.5427"/>
</g>
<!-- Node15 -->
<g id="node16" class="node">
<title>Node15</title>
<g id="a_node16"><a xlink:href="base__graph_8hpp.html" target="_top" xlink:title="base_graph.hpp">
<polygon fill="#ffffff" stroke="#ff0000" points="3457.4873,-125.5 3457.4873,-143.5 3545.7725,-143.5 3545.7725,-125.5 3457.4873,-125.5"/>
<text text-anchor="middle" x="3501.6299" y="-131.5" font-family="Helvetica,sans-Serif" font-size="10.00" fill="#000000">base_graph.hpp</text>
</a>
</g>
</g>
<!-- Node14&#45;&gt;Node15 -->
<g id="edge22" class="edge">
<title>Node14&#45;&gt;Node15</title>
<path fill="none" stroke="#191970" d="M3058.1736,-187.2924C3157.2228,-175.5008 3352.3559,-152.2707 3447.2477,-140.9741"/>
<polygon fill="#191970" stroke="#191970" points="3447.6956,-144.4456 3457.2117,-139.7879 3446.868,-137.4946 3447.6956,-144.4456"/>
</g>
<!-- Node47 -->
<g id="node17" class="node">
<title>Node47</title>
<polygon fill="#ffffff" stroke="#bfbfbf" points="2887.2803,-125.5 2887.2803,-143.5 2969.9795,-143.5 2969.9795,-125.5 2887.2803,-125.5"/>
<text text-anchor="middle" x="2928.6299" y="-131.5" font-family="Helvetica,sans-Serif" font-size="10.00" fill="#000000">EASTL/bitset.h</text>
</g>
<!-- Node14&#45;&gt;Node47 -->
<g id="edge27" class="edge">
<title>Node14&#45;&gt;Node47</title>
<path fill="none" stroke="#191970" d="M2987.1503,-185.3873C2976.5118,-176.1364 2959.8237,-161.625 2946.986,-150.4618"/>
<polygon fill="#191970" stroke="#191970" points="2949.0509,-147.6192 2939.2082,-143.6985 2944.4576,-152.9014 2949.0509,-147.6192"/>
</g>
<!-- Node17 -->
<g id="node18" class="node">
<title>Node17</title>
<polygon fill="#ffffff" stroke="#bfbfbf" points="3026.1079,-125.5 3026.1079,-143.5 3137.1519,-143.5 3137.1519,-125.5 3026.1079,-125.5"/>
<text text-anchor="middle" x="3081.6299" y="-131.5" font-family="Helvetica,sans-Serif" font-size="10.00" fill="#000000">EASTL/vector_map.h</text>
</g>
<!-- Node14&#45;&gt;Node17 -->
<g id="edge28" class="edge">
<title>Node14&#45;&gt;Node17</title>
<path fill="none" stroke="#191970" d="M3010.3877,-185.3873C3023.7865,-175.8168 3045.0676,-160.6159 3060.886,-149.3171"/>
<polygon fill="#191970" stroke="#191970" points="3062.9243,-152.1624 3069.0273,-143.5019 3058.8556,-146.4662 3062.9243,-152.1624"/>
</g>
<!-- Node46 -->
<g id="node19" class="node">
<title>Node46</title>
<polygon fill="#ffffff" stroke="#bfbfbf" points="2764.1646,-125.5 2764.1646,-143.5 2869.0953,-143.5 2869.0953,-125.5 2764.1646,-125.5"/>
<text text-anchor="middle" x="2816.6299" y="-131.5" font-family="Helvetica,sans-Serif" font-size="10.00" fill="#000000">EASTL/vector_set.h</text>
</g>
<!-- Node14&#45;&gt;Node46 -->
<g id="edge29" class="edge">
<title>Node14&#45;&gt;Node46</title>
<path fill="none" stroke="#191970" d="M2970.1399,-185.3873C2938.9965,-175.0635 2888.0898,-158.1883 2853.513,-146.7264"/>
<polygon fill="#191970" stroke="#191970" points="2854.379,-143.3263 2843.7856,-143.5019 2852.1763,-149.9707 2854.379,-143.3263"/>
</g>
<!-- Node15&#45;&gt;Node2 -->
<g id="edge23" class="edge">
<title>Node15&#45;&gt;Node2</title>
<path fill="none" stroke="#191970" d="M3457.3641,-130.1692C3423.7267,-126.9965 3376.2991,-122.7767 3334.6299,-120 3136.4646,-106.7949 2530.2074,-81.1736 2320.7266,-72.4735"/>
<polygon fill="#191970" stroke="#191970" points="2320.597,-68.9652 2310.4605,-72.0475 2320.3067,-75.9592 2320.597,-68.9652"/>
</g>
<!-- Node15&#45;&gt;Node3 -->
<g id="edge24" class="edge">
<title>Node15&#45;&gt;Node3</title>
<path fill="none" stroke="#191970" d="M3499.9989,-125.3463C3496.3839,-108.0977 3485.9264,-71.0749 3460.6299,-55 3409.4738,-22.4923 2469.6558,-11.6514 2281.3251,-9.8012"/>
<polygon fill="#191970" stroke="#191970" points="2281.2521,-6.3004 2271.2187,-9.7035 2281.1843,-13.3001 2281.2521,-6.3004"/>
</g>
<!-- Node15&#45;&gt;Node4 -->
<g id="edge25" class="edge">
<title>Node15&#45;&gt;Node4</title>
<path fill="none" stroke="#191970" d="M3490.7236,-125.3514C3468.9882,-107.7624 3418.014,-69.6727 3367.6299,-55 3244.8884,-19.2555 2344.9854,-30.1241 2217.6299,-19 2207.975,-18.1567 2197.5765,-16.8489 2187.9533,-15.4707"/>
<polygon fill="#191970" stroke="#191970" points="2188.2947,-11.983 2177.8872,-13.9662 2187.2599,-18.9061 2188.2947,-11.983"/>
</g>
<!-- Node15&#45;&gt;Node6 -->
<g id="edge26" class="edge">
<title>Node15&#45;&gt;Node6</title>
<path fill="none" stroke="#191970" d="M3469.6224,-125.443C3461.225,-123.3579 3452.1373,-121.3567 3443.6299,-120 3185.3912,-78.8174 2868.7075,-71.2083 2768.5554,-69.8115"/>
<polygon fill="#191970" stroke="#191970" points="2768.5275,-66.311 2758.4834,-69.6823 2768.4376,-73.3104 2768.5275,-66.311"/>
</g>
<!-- Node48&#45;&gt;Node2 -->
<g id="edge35" class="edge">
<title>Node48&#45;&gt;Node2</title>
<path fill="none" stroke="#191970" d="M3312.4492,-185.4903C3264.5771,-166.0752 3155.1802,-121.8827 3146.6299,-120 3067.0009,-102.4662 2519.5286,-79.9269 2320.6398,-72.222"/>
<polygon fill="#191970" stroke="#191970" points="2320.7136,-68.7223 2310.586,-71.8336 2320.4434,-75.7171 2320.7136,-68.7223"/>
</g>
<!-- Node48&#45;&gt;Node4 -->
<g id="edge40" class="edge">
<title>Node48&#45;&gt;Node4</title>
<path fill="none" stroke="#191970" d="M3392.1557,-190.6554C3450.3418,-185.4264 3534.4962,-173.7239 3554.6299,-149 3562.7687,-139.0058 3561.6078,-130.8366 3554.6299,-120 3516.8341,-61.3029 3479.6303,-70.806 3411.6299,-55 3153.0689,5.0999 2482.0902,-41.9462 2217.6299,-19 2207.9746,-18.1622 2197.5759,-16.8564 2187.9526,-15.4783"/>
<polygon fill="#191970" stroke="#191970" points="2188.2942,-11.9905 2177.8866,-13.9732 2187.259,-18.9136 2188.2942,-11.9905"/>
</g>
<!-- Node48&#45;&gt;Node6 -->
<g id="edge43" class="edge">
<title>Node48&#45;&gt;Node6</title>
<path fill="none" stroke="#191970" d="M3360.5087,-185.3954C3376.6354,-178.2187 3396.0764,-166.4692 3405.6299,-149 3411.8142,-137.6917 3414.394,-129.4506 3405.6299,-120 3383.699,-96.3512 2898.7873,-75.8165 2768.5713,-70.7144"/>
<polygon fill="#191970" stroke="#191970" points="2768.5768,-67.212 2758.4484,-70.3209 2768.3049,-74.2068 2768.5768,-67.212"/>
</g>
<!-- Node48&#45;&gt;Node11 -->
<g id="edge39" class="edge">
<title>Node48&#45;&gt;Node11</title>
<path fill="none" stroke="#191970" d="M3276.9936,-191.1476C3172.7625,-184.8231 2946.0684,-169.8674 2755.6299,-149 2730.1019,-146.2028 2701.151,-142.0387 2680.4579,-138.8896"/>
<polygon fill="#191970" stroke="#191970" points="2680.8677,-135.4115 2670.4513,-137.348 2679.8018,-142.3299 2680.8677,-135.4115"/>
</g>
<!-- Node48&#45;&gt;Node15 -->
<g id="edge36" class="edge">
<title>Node48&#45;&gt;Node15</title>
<path fill="none" stroke="#191970" d="M3359.9936,-185.3873C3388.4815,-175.1521 3434.8924,-158.4776 3466.7749,-147.0228"/>
<polygon fill="#191970" stroke="#191970" points="3468.3471,-150.177 3476.5747,-143.5019 3465.9802,-143.5893 3468.3471,-150.177"/>
</g>
<!-- Node48&#45;&gt;Node17 -->
<g id="edge37" class="edge">
<title>Node48&#45;&gt;Node17</title>
<path fill="none" stroke="#191970" d="M3296.4793,-185.4524C3251.8883,-174.8775 3178.0438,-157.3649 3129.6072,-145.878"/>
<polygon fill="#191970" stroke="#191970" points="3130.2144,-142.425 3119.6766,-143.5229 3128.5991,-149.2361 3130.2144,-142.425"/>
</g>
<!-- Node22 -->
<g id="node21" class="node">
<title>Node22</title>
<g id="a_node21"><a xlink:href="cycles_8hpp.html" target="_top" xlink:title="../algorithm/graph\l/cycles.hpp">
<polygon fill="#ffffff" stroke="#ff0000" points="3231.7212,-120.5 3231.7212,-148.5 3325.5386,-148.5 3325.5386,-120.5 3231.7212,-120.5"/>
<text text-anchor="start" x="3239.7212" y="-136.5" font-family="Helvetica,sans-Serif" font-size="10.00" fill="#000000">../algorithm/graph</text>
<text text-anchor="middle" x="3278.6299" y="-126.5" font-family="Helvetica,sans-Serif" font-size="10.00" fill="#000000">/cycles.hpp</text>
</a>
</g>
</g>
<!-- Node48&#45;&gt;Node22 -->
<g id="edge33" class="edge">
<title>Node48&#45;&gt;Node22</title>
<path fill="none" stroke="#191970" d="M3326.1247,-185.3873C3318.9076,-177.6546 3308.26,-166.2465 3298.8745,-156.1906"/>
<polygon fill="#191970" stroke="#191970" points="3301.403,-153.7701 3292.0211,-148.8477 3296.2856,-158.5464 3301.403,-153.7701"/>
</g>
<!-- Node26 -->
<g id="node22" class="node">
<title>Node26</title>
<polygon fill="#ffffff" stroke="#bfbfbf" points="2624.0684,-60.5 2624.0684,-78.5 2671.1914,-78.5 2671.1914,-60.5 2624.0684,-60.5"/>
<text text-anchor="middle" x="2647.6299" y="-66.5" font-family="Helvetica,sans-Serif" font-size="10.00" fill="#000000">iterator</text>
</g>
<!-- Node48&#45;&gt;Node26 -->
<g id="edge38" class="edge">
<title>Node48&#45;&gt;Node26</title>
<path fill="none" stroke="#191970" d="M3338.1639,-185.2651C3343.4994,-169.57 3351.3255,-137.6784 3334.6299,-120 3286.5652,-69.1056 2774.8358,-94.5356 2705.6299,-84 2697.6214,-82.7808 2689.1052,-80.9573 2681.1351,-79.0113"/>
<polygon fill="#191970" stroke="#191970" points="2681.9672,-75.6115 2671.4112,-76.517 2680.2279,-82.392 2681.9672,-75.6115"/>
</g>
<!-- Node49 -->
<g id="node23" class="node">
<title>Node49</title>
<polygon fill="#ffffff" stroke="#bfbfbf" points="3601.96,-125.5 3601.96,-143.5 3631.2998,-143.5 3631.2998,-125.5 3601.96,-125.5"/>
<text text-anchor="middle" x="3616.6299" y="-131.5" font-family="Helvetica,sans-Serif" font-size="10.00" fill="#000000">set</text>
</g>
<!-- Node48&#45;&gt;Node49 -->
<g id="edge41" class="edge">
<title>Node48&#45;&gt;Node49</title>
<path fill="none" stroke="#191970" d="M3392.3085,-188.8772C3444.3558,-182.6954 3522.5144,-170.636 3587.6299,-149 3589.2826,-148.4509 3590.9593,-147.8227 3592.6301,-147.1426"/>
<polygon fill="#191970" stroke="#191970" points="3594.3031,-150.2257 3601.927,-142.8686 3591.3792,-143.8656 3594.3031,-150.2257"/>
</g>
<!-- Node50 -->
<g id="node24" class="node">
<title>Node50</title>
<polygon fill="#ffffff" stroke="#bfbfbf" points="3649.2286,-125.5 3649.2286,-143.5 3708.0313,-143.5 3708.0313,-125.5 3649.2286,-125.5"/>
<text text-anchor="middle" x="3678.6299" y="-131.5" font-family="Helvetica,sans-Serif" font-size="10.00" fill="#000000">stdexcept</text>
</g>
<!-- Node48&#45;&gt;Node50 -->
<g id="edge42" class="edge">
<title>Node48&#45;&gt;Node50</title>
<path fill="none" stroke="#191970" d="M3392.3384,-189.6831C3454.4216,-183.6325 3555.6789,-171.2416 3640.6299,-149 3642.9354,-148.3964 3645.2934,-147.6999 3647.6501,-146.9456"/>
<polygon fill="#191970" stroke="#191970" points="3648.9084,-150.2134 3657.1923,-143.6082 3646.5974,-143.6059 3648.9084,-150.2134"/>
</g>
<!-- Node22&#45;&gt;Node2 -->
<g id="edge34" class="edge">
<title>Node22&#45;&gt;Node2</title>
<path fill="none" stroke="#191970" d="M3231.6533,-126.7241C3215.2353,-124.2445 3196.6551,-121.7049 3179.6299,-120 3013.1727,-103.3305 2508.5846,-80.6577 2320.4016,-72.5429"/>
<polygon fill="#191970" stroke="#191970" points="2320.4813,-69.0432 2310.34,-72.1099 2320.1802,-76.0367 2320.4813,-69.0432"/>
</g>
<!-- Node51&#45;&gt;Node2 -->
<g id="edge46" class="edge">
<title>Node51&#45;&gt;Node2</title>
<path fill="none" stroke="#191970" d="M1896.9557,-185.4569C1899.8116,-169.4652 1908.1226,-136.3441 1929.6299,-120 1948.9812,-105.2943 2088.45,-87.3434 2176.4519,-77.2889"/>
<polygon fill="#191970" stroke="#191970" points="2177.1102,-80.7367 2186.6522,-76.1324 2176.3216,-73.7813 2177.1102,-80.7367"/>
</g>
<!-- Node51&#45;&gt;Node4 -->
<g id="edge48" class="edge">
<title>Node51&#45;&gt;Node4</title>
<path fill="none" stroke="#191970" d="M1893.8541,-185.4853C1891.3846,-170.1226 1888.834,-138.7186 1904.6299,-120 1940.8148,-77.1199 1976.5281,-111.1489 2025.6299,-84 2042.7172,-74.5523 2042.3838,-65.8304 2058.6299,-55 2077.8611,-42.1796 2101.2364,-30.7589 2119.7409,-22.5663"/>
<polygon fill="#191970" stroke="#191970" points="2121.1419,-25.7737 2128.9257,-18.586 2118.3585,-19.3509 2121.1419,-25.7737"/>
</g>
<!-- Node51&#45;&gt;Node8 -->
<g id="edge47" class="edge">
<title>Node51&#45;&gt;Node8</title>
<path fill="none" stroke="#191970" d="M1884.9984,-185.3873C1874.2057,-176.1364 1857.2758,-161.625 1844.2521,-150.4618"/>
<polygon fill="#191970" stroke="#191970" points="1846.2318,-147.549 1836.3615,-143.6985 1841.6763,-152.8638 1846.2318,-147.549"/>
</g>
<!-- Node52&#45;&gt;Node2 -->
<g id="edge52" class="edge">
<title>Node52&#45;&gt;Node2</title>
<path fill="none" stroke="#191970" d="M1743.3588,-240.3252C1751.5666,-213.3699 1776.7485,-135.348 1797.6299,-120 1805.1845,-114.4474 2050.9721,-89.2201 2176.4471,-76.6553"/>
<polygon fill="#191970" stroke="#191970" points="2177.134,-80.1042 2186.7361,-75.6264 2176.4374,-73.1389 2177.134,-80.1042"/>
</g>
<!-- Node52&#45;&gt;Node3 -->
<g id="edge72" class="edge">
<title>Node52&#45;&gt;Node3</title>
<path fill="none" stroke="#191970" d="M1739.8492,-240.1707C1738.3973,-216.0092 1738.2348,-151.1169 1774.6299,-120 1817.4588,-83.3824 1970.7967,-96.98 2025.6299,-84 2095.0931,-67.5569 2173.716,-38.8136 2216.5694,-22.2482"/>
<polygon fill="#191970" stroke="#191970" points="2217.8629,-25.5006 2225.9112,-18.6103 2215.3227,-18.9777 2217.8629,-25.5006"/>
</g>
<!-- Node52&#45;&gt;Node4 -->
<g id="edge73" class="edge">
<title>Node52&#45;&gt;Node4</title>
<path fill="none" stroke="#191970" d="M1704.9169,-245.7348C1657.8374,-240.0782 1572.8744,-227.46 1503.6299,-204 1485.7461,-197.941 1483.8387,-189.9985 1465.6299,-185 1428.111,-174.7007 95.1307,-112.4859 68.6299,-84 59.8508,-74.5633 59.6162,-64.2128 68.6299,-55 105.8989,-16.908 1840.6663,-10.388 2115.2065,-9.5942"/>
<polygon fill="#191970" stroke="#191970" points="2115.4304,-13.0937 2125.4205,-9.5654 2115.4106,-6.0937 2115.4304,-13.0937"/>
</g>
<!-- Node52&#45;&gt;Node8 -->
<g id="edge71" class="edge">
<title>Node52&#45;&gt;Node8</title>
<path fill="none" stroke="#191970" d="M1753.9566,-240.2732C1765.3601,-231.8556 1781.6295,-218.5416 1792.6299,-204 1804.4316,-188.3992 1813.5304,-167.9024 1819.1564,-153.2173"/>
<polygon fill="#191970" stroke="#191970" points="1822.4876,-154.2984 1822.6283,-143.7045 1815.9119,-151.8984 1822.4876,-154.2984"/>
</g>
<!-- Node53 -->
<g id="node27" class="node">
<title>Node53</title>
<g id="a_node27"><a xlink:href="quad_8hpp.html" target="_top" xlink:title="../utils/quad.hpp">
<polygon fill="#ffffff" stroke="#ff0000" points="1512.3272,-185.5 1512.3272,-203.5 1598.9327,-203.5 1598.9327,-185.5 1512.3272,-185.5"/>
<text text-anchor="middle" x="1555.6299" y="-191.5" font-family="Helvetica,sans-Serif" font-size="10.00" fill="#000000">../utils/quad.hpp</text>
</a>
</g>
</g>
<!-- Node52&#45;&gt;Node53 -->
<g id="edge53" class="edge">
<title>Node52&#45;&gt;Node53</title>
<path fill="none" stroke="#191970" d="M1710.0809,-240.4179C1678.7896,-231.115 1629.9933,-216.608 1595.6379,-206.3943"/>
<polygon fill="#191970" stroke="#191970" points="1596.4996,-202.9991 1585.9168,-203.5042 1594.5048,-209.7089 1596.4996,-202.9991"/>
</g>
<!-- Node28 -->
<g id="node43" class="node">
<title>Node28</title>
<polygon fill="#ffffff" stroke="#bfbfbf" points="1976.4034,-60.5 1976.4034,-78.5 2016.8565,-78.5 2016.8565,-60.5 1976.4034,-60.5"/>
<text text-anchor="middle" x="1996.6299" y="-66.5" font-family="Helvetica,sans-Serif" font-size="10.00" fill="#000000">string</text>
</g>
<!-- Node52&#45;&gt;Node28 -->
<g id="edge74" class="edge">
<title>Node52&#45;&gt;Node28</title>
<path fill="none" stroke="#191970" d="M1735.5878,-240.3159C1723.5716,-217.053 1696.4224,-155.1649 1726.6299,-120 1761.1988,-79.7581 1911.6047,-98.5205 1962.6299,-84 1964.3273,-83.517 1966.0523,-82.9704 1967.7794,-82.3795"/>
<polygon fill="#191970" stroke="#191970" points="1969.4338,-85.4937 1977.5171,-78.6445 1966.9269,-78.9579 1969.4338,-85.4937"/>
</g>
<!-- Node43 -->
<g id="node28" class="node">
<title>Node43</title>
<polygon fill="#ffffff" stroke="#bfbfbf" points="1766.5635,-60.5 1766.5635,-78.5 1828.6963,-78.5 1828.6963,-60.5 1766.5635,-60.5"/>
<text text-anchor="middle" x="1797.6299" y="-66.5" font-family="Helvetica,sans-Serif" font-size="10.00" fill="#000000">type_traits</text>
</g>
<!-- Node53&#45;&gt;Node43 -->
<g id="edge54" class="edge">
<title>Node53&#45;&gt;Node43</title>
<path fill="none" stroke="#191970" d="M1540.1948,-185.4655C1517.5664,-171.1204 1480.0865,-142.4598 1499.6299,-120 1537.6299,-76.3295 1701.4447,-97.9404 1757.6299,-84 1760.2288,-83.3552 1762.8937,-82.6022 1765.5538,-81.7847"/>
<polygon fill="#191970" stroke="#191970" points="1766.6621,-85.1047 1775.0399,-78.6191 1764.4462,-78.4647 1766.6621,-85.1047"/>
</g>
<!-- Node53&#45;&gt;Node29 -->
<g id="edge55" class="edge">
<title>Node53&#45;&gt;Node29</title>
<path fill="none" stroke="#191970" d="M1512.0733,-187.1611C1507.5355,-186.4203 1502.9902,-185.6881 1498.6299,-185 1401.3529,-169.6492 1288.1659,-153.0399 1220.2987,-143.2154"/>
<polygon fill="#191970" stroke="#191970" points="1220.6114,-139.7243 1210.2134,-141.7571 1219.6096,-146.6522 1220.6114,-139.7243"/>
</g>
<!-- Node29&#45;&gt;Node2 -->
<g id="edge56" class="edge">
<title>Node29&#45;&gt;Node2</title>
<path fill="none" stroke="#191970" d="M1210.3944,-131.6586C1343.9176,-124.1591 1715.9767,-103.0956 2025.6299,-84 2075.9984,-80.8939 2132.7527,-77.2009 2176.4005,-74.3192"/>
<polygon fill="#191970" stroke="#191970" points="2176.888,-77.7947 2186.6353,-73.6425 2176.4262,-70.8099 2176.888,-77.7947"/>
</g>
<!-- Node29&#45;&gt;Node43 -->
<g id="edge70" class="edge">
<title>Node29&#45;&gt;Node43</title>
<path fill="none" stroke="#191970" d="M1210.3192,-131.9392C1334.9441,-125.3668 1653.6996,-106.8055 1757.6299,-84 1760.4708,-83.3766 1763.3841,-82.602 1766.2803,-81.7373"/>
<polygon fill="#191970" stroke="#191970" points="1767.5392,-85.0074 1775.9311,-78.54 1765.3378,-78.3626 1767.5392,-85.0074"/>
</g>
<!-- Node30 -->
<g id="node30" class="node">
<title>Node30</title>
<polygon fill="#ffffff" stroke="#bfbfbf" points="214.3296,-60.5 214.3296,-78.5 310.9302,-78.5 310.9302,-60.5 214.3296,-60.5"/>
<text text-anchor="middle" x="262.6299" y="-66.5" font-family="Helvetica,sans-Serif" font-size="10.00" fill="#000000">cereal/access.hpp</text>
</g>
<!-- Node29&#45;&gt;Node30 -->
<g id="edge57" class="edge">
<title>Node29&#45;&gt;Node30</title>
<path fill="none" stroke="#191970" d="M1108.9527,-132.7116C951.6631,-126.9626 473.1873,-107.9269 319.6299,-84 314.4655,-83.1953 309.0874,-82.1327 303.7877,-80.9474"/>
<polygon fill="#191970" stroke="#191970" points="304.3089,-77.4735 293.7692,-78.5527 302.6815,-84.2817 304.3089,-77.4735"/>
</g>
<!-- Node31 -->
<g id="node31" class="node">
<title>Node31</title>
<polygon fill="#ffffff" stroke="#bfbfbf" points="328.7115,-60.5 328.7115,-78.5 452.5484,-78.5 452.5484,-60.5 328.7115,-60.5"/>
<text text-anchor="middle" x="390.6299" y="-66.5" font-family="Helvetica,sans-Serif" font-size="10.00" fill="#000000">cereal/archives/json.hpp</text>
</g>
<!-- Node29&#45;&gt;Node31 -->
<g id="edge58" class="edge">
<title>Node29&#45;&gt;Node31</title>
<path fill="none" stroke="#191970" d="M1109.0311,-133.0802C993.6983,-129.3552 702.6539,-117.189 461.6299,-84 454.7635,-83.0545 447.5641,-81.8444 440.4931,-80.5273"/>
<polygon fill="#191970" stroke="#191970" points="440.7633,-77.0143 430.2789,-78.5396 439.4261,-83.8854 440.7633,-77.0143"/>
</g>
<!-- Node32 -->
<g id="node32" class="node">
<title>Node32</title>
<polygon fill="#ffffff" stroke="#bfbfbf" points="470.5464,-55.5 470.5464,-83.5 592.7134,-83.5 592.7134,-55.5 470.5464,-55.5"/>
<text text-anchor="start" x="478.5464" y="-71.5" font-family="Helvetica,sans-Serif" font-size="10.00" fill="#000000">cereal/archives/portable</text>
<text text-anchor="middle" x="531.6299" y="-61.5" font-family="Helvetica,sans-Serif" font-size="10.00" fill="#000000">_binary.hpp</text>
</g>
<!-- Node29&#45;&gt;Node32 -->
<g id="edge59" class="edge">
<title>Node29&#45;&gt;Node32</title>
<path fill="none" stroke="#191970" d="M1109.003,-131.8563C1012.4391,-126.3932 795.1636,-112.0809 603.0182,-84.101"/>
<polygon fill="#191970" stroke="#191970" points="603.4224,-80.6228 593.0193,-82.6291 602.4029,-87.5482 603.4224,-80.6228"/>
</g>
<!-- Node33 -->
<g id="node33" class="node">
<title>Node33</title>
<polygon fill="#ffffff" stroke="#bfbfbf" points="610.273,-60.5 610.273,-78.5 702.9869,-78.5 702.9869,-60.5 610.273,-60.5"/>
<text text-anchor="middle" x="656.6299" y="-66.5" font-family="Helvetica,sans-Serif" font-size="10.00" fill="#000000">cereal/cereal.hpp</text>
</g>
<!-- Node29&#45;&gt;Node33 -->
<g id="edge60" class="edge">
<title>Node29&#45;&gt;Node33</title>
<path fill="none" stroke="#191970" d="M1108.8847,-131.1965C1025.4603,-125.2263 854.3437,-110.7089 711.6299,-84 706.9618,-83.1264 702.1064,-82.0692 697.299,-80.9283"/>
<polygon fill="#191970" stroke="#191970" points="698.1237,-77.5269 687.5737,-78.5009 696.4285,-84.3185 698.1237,-77.5269"/>
</g>
<!-- Node34 -->
<g id="node34" class="node">
<title>Node34</title>
<polygon fill="#ffffff" stroke="#bfbfbf" points="720.5284,-60.5 720.5284,-78.5 834.7315,-78.5 834.7315,-60.5 720.5284,-60.5"/>
<text text-anchor="middle" x="777.6299" y="-66.5" font-family="Helvetica,sans-Serif" font-size="10.00" fill="#000000">cereal/types/array.hpp</text>
</g>
<!-- Node29&#45;&gt;Node34 -->
<g id="edge61" class="edge">
<title>Node29&#45;&gt;Node34</title>
<path fill="none" stroke="#191970" d="M1108.8484,-127.308C1046.2867,-118.2352 936.8336,-101.6704 843.6299,-84 838.227,-82.9757 832.5898,-81.8403 826.9854,-80.6689"/>
<polygon fill="#191970" stroke="#191970" points="827.5004,-77.2001 816.9904,-78.5377 826.0406,-84.0462 827.5004,-77.2001"/>
</g>
<!-- Node35 -->
<g id="node35" class="node">
<title>Node35</title>
<polygon fill="#ffffff" stroke="#bfbfbf" points="852.6006,-60.5 852.6006,-78.5 968.6592,-78.5 968.6592,-60.5 852.6006,-60.5"/>
<text text-anchor="middle" x="910.6299" y="-66.5" font-family="Helvetica,sans-Serif" font-size="10.00" fill="#000000">cereal/types/bitset.hpp</text>
</g>
<!-- Node29&#45;&gt;Node35 -->
<g id="edge62" class="edge">
<title>Node29&#45;&gt;Node35</title>
<path fill="none" stroke="#191970" d="M1125.0075,-125.462C1080.7192,-113.9008 1003.9399,-93.858 955.2911,-81.1585"/>
<polygon fill="#191970" stroke="#191970" points="955.9185,-77.7051 945.3587,-78.5658 954.1504,-84.4781 955.9185,-77.7051"/>
</g>
<!-- Node36 -->
<g id="node36" class="node">
<title>Node36</title>
<polygon fill="#ffffff" stroke="#bfbfbf" points="986.7681,-55.5 986.7681,-83.5 1094.4917,-83.5 1094.4917,-55.5 986.7681,-55.5"/>
<text text-anchor="start" x="994.7681" y="-71.5" font-family="Helvetica,sans-Serif" font-size="10.00" fill="#000000">cereal/types/boost</text>
<text text-anchor="middle" x="1040.6299" y="-61.5" font-family="Helvetica,sans-Serif" font-size="10.00" fill="#000000">_dynamic_bitset.hpp</text>
</g>
<!-- Node29&#45;&gt;Node36 -->
<g id="edge63" class="edge">
<title>Node29&#45;&gt;Node36</title>
<path fill="none" stroke="#191970" d="M1143.0835,-125.462C1125.6833,-115.9577 1097.7889,-100.7213 1075.4968,-88.5449"/>
<polygon fill="#191970" stroke="#191970" points="1077.0978,-85.4314 1066.6439,-83.7093 1073.7422,-91.5747 1077.0978,-85.4314"/>
</g>
<!-- Node37 -->
<g id="node37" class="node">
<title>Node37</title>
<polygon fill="#ffffff" stroke="#bfbfbf" points="1112.7212,-55.5 1112.7212,-83.5 1206.5386,-83.5 1206.5386,-55.5 1112.7212,-55.5"/>
<text text-anchor="start" x="1120.7212" y="-71.5" font-family="Helvetica,sans-Serif" font-size="10.00" fill="#000000">cereal/types/eastl</text>
<text text-anchor="middle" x="1159.6299" y="-61.5" font-family="Helvetica,sans-Serif" font-size="10.00" fill="#000000">_bitset.hpp</text>
</g>
<!-- Node29&#45;&gt;Node37 -->
<g id="edge64" class="edge">
<title>Node29&#45;&gt;Node37</title>
<path fill="none" stroke="#191970" d="M1159.6299,-125.462C1159.6299,-117.404 1159.6299,-105.2257 1159.6299,-94.2852"/>
<polygon fill="#191970" stroke="#191970" points="1163.13,-93.9558 1159.6299,-83.9559 1156.13,-93.9559 1163.13,-93.9558"/>
</g>
<!-- Node38 -->
<g id="node38" class="node">
<title>Node38</title>
<polygon fill="#ffffff" stroke="#bfbfbf" points="1224.3174,-60.5 1224.3174,-78.5 1340.9424,-78.5 1340.9424,-60.5 1224.3174,-60.5"/>
<text text-anchor="middle" x="1282.6299" y="-66.5" font-family="Helvetica,sans-Serif" font-size="10.00" fill="#000000">cereal/types/eigen.hpp</text>
</g>
<!-- Node29&#45;&gt;Node38 -->
<g id="edge65" class="edge">
<title>Node29&#45;&gt;Node38</title>
<path fill="none" stroke="#191970" d="M1176.7325,-125.462C1197.3616,-114.5605 1232.2613,-96.1176 1256.3248,-83.4011"/>
<polygon fill="#191970" stroke="#191970" points="1258.07,-86.4376 1265.276,-78.6708 1254.7993,-80.2486 1258.07,-86.4376"/>
</g>
<!-- Node39 -->
<g id="node39" class="node">
<title>Node39</title>
<polygon fill="#ffffff" stroke="#bfbfbf" points="1358.8247,-60.5 1358.8247,-78.5 1470.4351,-78.5 1470.4351,-60.5 1358.8247,-60.5"/>
<text text-anchor="middle" x="1414.6299" y="-66.5" font-family="Helvetica,sans-Serif" font-size="10.00" fill="#000000">cereal/types/map.hpp</text>
</g>
<!-- Node29&#45;&gt;Node39 -->
<g id="edge66" class="edge">
<title>Node29&#45;&gt;Node39</title>
<path fill="none" stroke="#191970" d="M1195.0866,-125.462C1240.537,-113.8766 1319.4006,-93.7741 1369.2049,-81.0789"/>
<polygon fill="#191970" stroke="#191970" points="1370.2387,-84.4274 1379.0643,-78.5658 1368.5096,-77.6443 1370.2387,-84.4274"/>
</g>
<!-- Node40 -->
<g id="node40" class="node">
<title>Node40</title>
<polygon fill="#ffffff" stroke="#bfbfbf" points="1488.8633,-60.5 1488.8633,-78.5 1616.3965,-78.5 1616.3965,-60.5 1488.8633,-60.5"/>
<text text-anchor="middle" x="1552.6299" y="-66.5" font-family="Helvetica,sans-Serif" font-size="10.00" fill="#000000">cereal/types/memory.hpp</text>
</g>
<!-- Node29&#45;&gt;Node40 -->
<g id="edge67" class="edge">
<title>Node29&#45;&gt;Node40</title>
<path fill="none" stroke="#191970" d="M1210.1687,-127.1556C1273.3258,-117.8323 1384.6681,-100.9174 1479.6299,-84 1485.8075,-82.8995 1492.2683,-81.6947 1498.6825,-80.4648"/>
<polygon fill="#191970" stroke="#191970" points="1499.5274,-83.8662 1508.6762,-78.5229 1498.1921,-76.9947 1499.5274,-83.8662"/>
</g>
<!-- Node41 -->
<g id="node41" class="node">
<title>Node41</title>
<polygon fill="#ffffff" stroke="#bfbfbf" points="1634.5284,-60.5 1634.5284,-78.5 1748.7315,-78.5 1748.7315,-60.5 1634.5284,-60.5"/>
<text text-anchor="middle" x="1691.6299" y="-66.5" font-family="Helvetica,sans-Serif" font-size="10.00" fill="#000000">cereal/types/utility.hpp</text>
</g>
<!-- Node29&#45;&gt;Node41 -->
<g id="edge68" class="edge">
<title>Node29&#45;&gt;Node41</title>
<path fill="none" stroke="#191970" d="M1210.2112,-130.8243C1296.0237,-124.1855 1475.451,-108.5602 1625.6299,-84 1631.4894,-83.0417 1637.6115,-81.8957 1643.6635,-80.6735"/>
<polygon fill="#191970" stroke="#191970" points="1644.6544,-84.0419 1653.7235,-78.5645 1643.2181,-77.1909 1644.6544,-84.0419"/>
</g>
<!-- Node42 -->
<g id="node42" class="node">
<title>Node42</title>
<polygon fill="#ffffff" stroke="#bfbfbf" points="77.209,-60.5 77.209,-78.5 196.0508,-78.5 196.0508,-60.5 77.209,-60.5"/>
<text text-anchor="middle" x="136.6299" y="-66.5" font-family="Helvetica,sans-Serif" font-size="10.00" fill="#000000">cereal/types/vector.hpp</text>
</g>
<!-- Node29&#45;&gt;Node42 -->
<g id="edge69" class="edge">
<title>Node29&#45;&gt;Node42</title>
<path fill="none" stroke="#191970" d="M1108.8591,-132.8477C937.7233,-127.1161 382.8325,-107.1685 205.6299,-84 198.7798,-83.1044 191.5965,-81.8989 184.5598,-80.5638"/>
<polygon fill="#191970" stroke="#191970" points="184.9031,-77.0632 174.4111,-78.5358 183.5313,-83.9275 184.9031,-77.0632"/>
</g>
<!-- Node54&#45;&gt;Node2 -->
<g id="edge76" class="edge">
<title>Node54&#45;&gt;Node2</title>
<path fill="none" stroke="#191970" d="M2293.2085,-240.2689C2289.0019,-231.2015 2282.7239,-216.8909 2278.6299,-204 2265.8874,-163.8771 2256.4885,-115.3669 2251.857,-88.9553"/>
<polygon fill="#191970" stroke="#191970" points="2255.2528,-88.0483 2250.1187,-78.7805 2248.3528,-89.2272 2255.2528,-88.0483"/>
</g>
<!-- Node54&#45;&gt;Node4 -->
<g id="edge91" class="edge">
<title>Node54&#45;&gt;Node4</title>
<path fill="none" stroke="#191970" d="M2299.0467,-240.0966C2303.5846,-209.8044 2317.582,-114.9467 2319.6299,-84 2320.481,-71.1392 2327.4624,-65.236 2319.6299,-55 2303.7348,-34.2274 2232.5083,-20.7418 2188.0556,-14.1873"/>
<polygon fill="#191970" stroke="#191970" points="2188.3166,-10.6892 2177.923,-12.7443 2187.3297,-17.6193 2188.3166,-10.6892"/>
</g>
<!-- Node54&#45;&gt;Node6 -->
<g id="edge92" class="edge">
<title>Node54&#45;&gt;Node6</title>
<path fill="none" stroke="#191970" d="M2299.9972,-240.3338C2307.1435,-213.4026 2329.2611,-135.441 2349.6299,-120 2408.5921,-75.3024 2607.8473,-97.3081 2680.6299,-84 2688.6875,-82.5267 2697.2952,-80.5203 2705.2846,-78.4701"/>
<polygon fill="#191970" stroke="#191970" points="2706.2233,-81.8422 2714.9858,-75.8865 2704.4219,-75.0779 2706.2233,-81.8422"/>
</g>
<!-- Node54&#45;&gt;Node11 -->
<g id="edge90" class="edge">
<title>Node54&#45;&gt;Node11</title>
<path fill="none" stroke="#191970" d="M2335.8204,-246.1016C2415.9382,-238.6851 2596.0608,-220.3972 2618.6299,-204 2635.0529,-192.0682 2643.9345,-170.0036 2648.4554,-153.9279"/>
<polygon fill="#191970" stroke="#191970" points="2651.919,-154.5017 2650.9276,-143.9534 2645.1246,-152.8177 2651.919,-154.5017"/>
</g>
<!-- Node54&#45;&gt;Node47 -->
<g id="edge89" class="edge">
<title>Node54&#45;&gt;Node47</title>
<path fill="none" stroke="#191970" d="M2335.7026,-247.1659C2431.1353,-241.0874 2678.6223,-223.8537 2758.6299,-204 2811.355,-190.9164 2869.1977,-164.4644 2901.9928,-148.2331"/>
<polygon fill="#191970" stroke="#191970" points="2903.9624,-151.1609 2911.333,-143.5501 2900.825,-144.9034 2903.9624,-151.1609"/>
</g>
<!-- Node54&#45;&gt;Node55 -->
<g id="edge77" class="edge">
<title>Node54&#45;&gt;Node55</title>
<path fill="none" stroke="#191970" d="M2278.1446,-240.4179C2259.0995,-231.5409 2229.8877,-217.9253 2208.2137,-207.823"/>
<polygon fill="#191970" stroke="#191970" points="2209.6866,-204.648 2199.1442,-203.5956 2206.7293,-210.9927 2209.6866,-204.648"/>
</g>
<!-- Node55&#45;&gt;Node2 -->
<g id="edge84" class="edge">
<title>Node55&#45;&gt;Node2</title>
<path fill="none" stroke="#191970" d="M2184.8161,-185.1047C2196.2606,-164.372 2223.8395,-114.4101 2238.7177,-87.457"/>
<polygon fill="#191970" stroke="#191970" points="2241.8025,-89.1108 2243.571,-78.6646 2235.6742,-85.728 2241.8025,-89.1108"/>
</g>
<!-- Node55&#45;&gt;Node3 -->
<g id="edge87" class="edge">
<title>Node55&#45;&gt;Node3</title>
<path fill="none" stroke="#191970" d="M2176.5868,-185.2835C2169.4199,-161.8122 2153.8055,-98.5646 2177.6299,-55 2185.9854,-39.7215 2201.904,-28.8181 2216.5539,-21.5225"/>
<polygon fill="#191970" stroke="#191970" points="2218.271,-24.5858 2225.9054,-17.2396 2215.3562,-18.2215 2218.271,-24.5858"/>
</g>
<!-- Node55&#45;&gt;Node8 -->
<g id="edge86" class="edge">
<title>Node55&#45;&gt;Node8</title>
<path fill="none" stroke="#191970" d="M2133.3506,-186.656C2059.4729,-174.1344 1916.9477,-149.9776 1855.2724,-139.5241"/>
<polygon fill="#191970" stroke="#191970" points="1855.8534,-136.0728 1845.4091,-137.8524 1854.6836,-142.9744 1855.8534,-136.0728"/>
</g>
<!-- Node55&#45;&gt;Node17 -->
<g id="edge85" class="edge">
<title>Node55&#45;&gt;Node17</title>
<path fill="none" stroke="#191970" d="M2226.1173,-193.2015C2349.1625,-189.4727 2693.4515,-177.1442 2978.6299,-149 2990.634,-147.8153 3003.3861,-146.2617 3015.6788,-144.6123"/>
<polygon fill="#191970" stroke="#191970" points="3016.4403,-148.0406 3025.87,-143.2102 3015.4863,-141.1059 3016.4403,-148.0406"/>
</g>
<!-- Node56 -->
<g id="node46" class="node">
<title>Node56</title>
<g id="a_node46"><a xlink:href="common_8hpp.html" target="_top" xlink:title="../utils/common.hpp">
<polygon fill="#ffffff" stroke="#000000" points="1938.2779,-125.5 1938.2779,-143.5 2040.982,-143.5 2040.982,-125.5 1938.2779,-125.5"/>
<text text-anchor="middle" x="1989.6299" y="-131.5" font-family="Helvetica,sans-Serif" font-size="10.00" fill="#000000">../utils/common.hpp</text>
</a>
</g>
</g>
<!-- Node55&#45;&gt;Node56 -->
<g id="edge78" class="edge">
<title>Node55&#45;&gt;Node56</title>
<path fill="none" stroke="#191970" d="M2150.773,-185.3873C2117.9407,-175.0192 2064.1839,-158.0434 2027.8806,-146.5791"/>
<polygon fill="#191970" stroke="#191970" points="2028.7257,-143.1757 2018.1359,-143.5019 2026.6177,-149.8508 2028.7257,-143.1757"/>
</g>
<!-- Node57 -->
<g id="node48" class="node">
<title>Node57</title>
<polygon fill="#ffffff" stroke="#bfbfbf" points="2096.4576,-125.5 2096.4576,-143.5 2150.8023,-143.5 2150.8023,-125.5 2096.4576,-125.5"/>
<text text-anchor="middle" x="2123.6299" y="-131.5" font-family="Helvetica,sans-Serif" font-size="10.00" fill="#000000">iostream</text>
</g>
<!-- Node55&#45;&gt;Node57 -->
<g id="edge88" class="edge">
<title>Node55&#45;&gt;Node57</title>
<path fill="none" stroke="#191970" d="M2171.1247,-185.3873C2162.655,-176.3126 2149.4608,-162.1759 2139.1263,-151.1033"/>
<polygon fill="#191970" stroke="#191970" points="2141.5971,-148.6209 2132.2152,-143.6985 2136.4797,-153.3972 2141.5971,-148.6209"/>
</g>
<!-- Node56&#45;&gt;Node4 -->
<g id="edge81" class="edge">
<title>Node56&#45;&gt;Node4</title>
<path fill="none" stroke="#191970" d="M2002.4704,-125.357C2016.4204,-115.365 2039.3021,-98.8032 2058.6299,-84 2084.6938,-64.0376 2114.1816,-40.1958 2132.8325,-24.9555"/>
<polygon fill="#191970" stroke="#191970" points="2135.0695,-27.6475 2140.588,-18.6033 2130.6339,-22.2321 2135.0695,-27.6475"/>
</g>
<!-- Node56&#45;&gt;Node26 -->
<g id="edge80" class="edge">
<title>Node56&#45;&gt;Node26</title>
<path fill="none" stroke="#191970" d="M2041.1797,-126.31C2056.139,-124.086 2072.5153,-121.7982 2087.6299,-120 2286.5286,-96.3368 2526.3529,-78.1634 2613.7141,-71.8817"/>
<polygon fill="#191970" stroke="#191970" points="2614.1107,-75.3624 2623.8356,-71.1583 2613.6115,-68.3802 2614.1107,-75.3624"/>
</g>
<!-- Node56&#45;&gt;Node43 -->
<g id="edge83" class="edge">
<title>Node56&#45;&gt;Node43</title>
<path fill="none" stroke="#191970" d="M1961.5383,-125.4183C1930.9743,-115.4788 1880.7096,-98.9615 1837.6299,-84 1835.7459,-83.3457 1833.8144,-82.6681 1831.8663,-81.9794"/>
<polygon fill="#191970" stroke="#191970" points="1832.7259,-78.5699 1822.1313,-78.5001 1830.37,-85.1615 1832.7259,-78.5699"/>
</g>
<!-- Node56&#45;&gt;Node28 -->
<g id="edge82" class="edge">
<title>Node56&#45;&gt;Node28</title>
<path fill="none" stroke="#191970" d="M1990.6032,-125.462C1991.6157,-116.061 1993.232,-101.0518 1994.5361,-88.943"/>
<polygon fill="#191970" stroke="#191970" points="1998.0286,-89.1994 1995.6195,-78.8821 1991.0688,-88.4499 1998.0286,-89.1994"/>
</g>
<!-- Node56&#45;&gt;Node24 -->
<g id="edge79" class="edge">
<title>Node56&#45;&gt;Node24</title>
<path fill="none" stroke="#191970" d="M2041.1203,-125.7398C2056.0785,-123.505 2072.4691,-121.3542 2087.6299,-120 2407.5366,-91.4252 3447.7687,-73.546 3662.5974,-70.1078"/>
<polygon fill="#191970" stroke="#191970" points="3662.8213,-73.6047 3672.7643,-69.946 3662.7099,-66.6056 3662.8213,-73.6047"/>
</g>
<!-- Node58&#45;&gt;Node2 -->
<g id="edge96" class="edge">
<title>Node58&#45;&gt;Node2</title>
<path fill="none" stroke="#191970" d="M2714.1189,-185.3541C2710.9251,-169.1993 2701.8648,-135.8284 2679.6299,-120 2651.0329,-99.6426 2435.6344,-82.1605 2320.5848,-74.157"/>
<polygon fill="#191970" stroke="#191970" points="2320.6669,-70.6544 2310.4499,-73.4584 2320.1855,-77.6379 2320.6669,-70.6544"/>
</g>
<!-- Node58&#45;&gt;Node6 -->
<g id="edge98" class="edge">
<title>Node58&#45;&gt;Node6</title>
<path fill="none" stroke="#191970" d="M2717.2083,-185.1047C2720.6456,-164.6447 2728.865,-115.7198 2733.4324,-88.5327"/>
<polygon fill="#191970" stroke="#191970" points="2736.885,-89.1063 2735.0903,-78.6646 2729.9818,-87.9465 2736.885,-89.1063"/>
</g>
<!-- Node58&#45;&gt;Node46 -->
<g id="edge97" class="edge">
<title>Node58&#45;&gt;Node46</title>
<path fill="none" stroke="#191970" d="M2730.9696,-185.3873C2747.3784,-175.6395 2773.619,-160.051 2792.7377,-148.6934"/>
<polygon fill="#191970" stroke="#191970" points="2794.667,-151.6184 2801.4768,-143.5019 2791.0918,-145.6002 2794.667,-151.6184"/>
</g>
</g>
</svg>
        <g id="navigator" transform="translate(0 0)" fill="#404254">
                <rect fill="#f2f5e9" fill-opacity="0.5" stroke="#606060" stroke-width=".5" x="0" y="0" width="60" height="60"/>
                <use id="zoomplus" xlink:href="#zoomPlus" x="17" y="9" onmousedown="handleZoom(evt,'in')"/>
                <use id="zoomminus" xlink:href="#zoomMin" x="42" y="9" onmousedown="handleZoom(evt,'out')"/>
                <use id="reset" xlink:href="#resetDef" x="30" y="36" onmousedown="handleReset()"/>
                <g id="arrowUp" xlink:href="#dirArrow" transform="translate(30 24)" onmousedown="handlePan(0,-1)">
                  <use xlink:href="#rim" fill="#404040">
                        <set attributeName="fill" to="#808080" begin="arrowUp.mouseover" end="arrowUp.mouseout"/>
                  </use>
                  <path fill="none" stroke="white" stroke-width="1.5" d="M0,-3.0v7 M-2.5,-0.5L0,-3.0L2.5,-0.5"/>
                </g>
                <g id="arrowRight" xlink:href="#dirArrow" transform="rotate(90) translate(36 -43)" onmousedown="handlePan(1,0)">
                  <use xlink:href="#rim" fill="#404040">
                        <set attributeName="fill" to="#808080" begin="arrowRight.mouseover" end="arrowRight.mouseout"/>
                  </use>
                  <path fill="none" stroke="white" stroke-width="1.5" d="M0,-3.0v7 M-2.5,-0.5L0,-3.0L2.5,-0.5"/>
                </g>
                <g id="arrowDown" xlink:href="#dirArrow" transform="rotate(180) translate(-30 -48)" onmousedown="handlePan(0,1)">
                  <use xlink:href="#rim" fill="#404040">
                        <set attributeName="fill" to="#808080" begin="arrowDown.mouseover" end="arrowDown.mouseout"/>
                  </use>
                  <path fill="none" stroke="white" stroke-width="1.5" d="M0,-3.0v7 M-2.5,-0.5L0,-3.0L2.5,-0.5"/>
                </g>
                <g id="arrowLeft" xlink:href="#dirArrow" transform="rotate(270) translate(-36 17)" onmousedown="handlePan(-1,0)">
                  <use xlink:href="#rim" fill="#404040">
                        <set attributeName="fill" to="#808080" begin="arrowLeft.mouseover" end="arrowLeft.mouseout"/>
                  </use>
                  <path fill="none" stroke="white" stroke-width="1.5" d="M0,-3.0v7 M-2.5,-0.5L0,-3.0L2.5,-0.5"/>
                </g>
        </g>
        <svg viewBox="0 0 15 15" width="100%" height="30px" preserveAspectRatio="xMaxYMin meet">
         <g id="arrow_out" transform="scale(0.3 0.3)">
          <a xlink:href="molecular_8cpp__incl_org.svg" target="_base">
           <rect id="button" ry="5" rx="5" y="6" x="6" height="38" width="38"
                fill="#f2f5e9" fill-opacity="0.5" stroke="#606060" stroke-width="1.0"/>
           <path id="arrow"
             d="M 11.500037,31.436501 C 11.940474,20.09759 22.043105,11.32322 32.158766,21.979434 L 37.068811,17.246167 C 37.068811,17.246167 37.088388,32 37.088388,32 L 22.160133,31.978069 C 22.160133,31.978069 26.997745,27.140456 26.997745,27.140456 C 18.528582,18.264221 13.291696,25.230495 11.500037,31.436501 z"
             style="fill:#404040;"/>
          </a>
         </g>
        </svg>
</svg>
