<?xml version="1.0" encoding="UTF-8" standalone="no"?>
<!DOCTYPE svg PUBLIC "-//W3C//DTD SVG 1.1//EN"
 "http://www.w3.org/Graphics/SVG/1.1/DTD/svg11.dtd">
<!-- Generated by graphviz version 2.40.1 (20161225.0304)
 -->
<!-- Title: src/classes/nicetreedecomp.cpp Pages: 1 -->
<!--zoomable 257 -->
<svg id="main" version="1.1" xmlns="http://www.w3.org/2000/svg" xmlns:xlink="http://www.w3.org/1999/xlink" xml:space="preserve" onload="init(evt)">
<style type="text/css"><![CDATA[
.edge:hover path { stroke: red; }
.edge:hover polygon { stroke: red; fill: red; }
]]></style>
<script type="text/javascript"><![CDATA[
var edges = document.getElementsByTagName('g');
if (edges && edges.length) {
  for (var i=0;i<edges.length;i++) {
    if (edges[i].id.substr(0,4)=='edge') {
      edges[i].setAttribute('class','edge');
    }
  }
}
]]></script>
        <defs>
                <circle id="rim" cx="0" cy="0" r="7"/>
                <circle id="rim2" cx="0" cy="0" r="3.5"/>
                <g id="zoomPlus">
                        <use xlink:href="#rim" fill="#404040">
                                <set attributeName="fill" to="#808080" begin="zoomplus.mouseover" end="zoomplus.mouseout"/>
                        </use>
                        <path d="M-4,0h8M0,-4v8" fill="none" stroke="white" stroke-width="1.5" pointer-events="none"/>
                </g>
                <g id="zoomMin">
                        <use xlink:href="#rim" fill="#404040">
                                <set attributeName="fill" to="#808080" begin="zoomminus.mouseover" end="zoomminus.mouseout"/>
                        </use>
                        <path d="M-4,0h8" fill="none" stroke="white" stroke-width="1.5" pointer-events="none"/>
                </g>
                <g id="dirArrow">
                        <path fill="none" stroke="white" stroke-width="1.5" d="M0,-3.0v7 M-2.5,-0.5L0,-3.0L2.5,-0.5"/>
                </g>
               <g id="resetDef">
                       <use xlink:href="#rim2" fill="#404040">
                               <set attributeName="fill" to="#808080" begin="reset.mouseover" end="reset.mouseout"/>
                       </use>
               </g>
        </defs>

<script type="text/javascript">
var viewWidth = 1054;
var viewHeight = 257;
var sectionId = 'dynsection-0';
</script>
<script xlink:href="svgpan.js"/>
<svg id="graph" class="graph">
<g id="viewport">
<title>src/classes/nicetreedecomp.cpp</title>
<polygon fill="#ffffff" stroke="transparent" points="-4,4 -4,-253 1049.7655,-253 1049.7655,4 -4,4"/>
<!-- Node0 -->
<g id="node1" class="node">
<title>Node0</title>
<polygon fill="#bfbfbf" stroke="#000000" points="359.8421,-230.5 359.8421,-248.5 518.1273,-248.5 518.1273,-230.5 359.8421,-230.5"/>
<text text-anchor="middle" x="438.9847" y="-236.5" font-family="Helvetica,sans-Serif" font-size="10.00" fill="#000000">src/classes/nicetreedecomp.cpp</text>
</g>
<!-- Node1 -->
<g id="node2" class="node">
<title>Node1</title>
<g id="a_node2"><a xlink:href="nicetreedecomp_8hpp.html" target="_top" xlink:title="indigox/classes/nicetreedecomp.hpp">
<polygon fill="#ffffff" stroke="#000000" points="21.3817,-170.5 21.3817,-188.5 198.5877,-188.5 198.5877,-170.5 21.3817,-170.5"/>
<text text-anchor="middle" x="109.9847" y="-176.5" font-family="Helvetica,sans-Serif" font-size="10.00" fill="#000000">indigox/classes/nicetreedecomp.hpp</text>
</a>
</g>
</g>
<!-- Node0&#45;&gt;Node1 -->
<g id="edge1" class="edge">
<title>Node0&#45;&gt;Node1</title>
<path fill="none" stroke="#191970" d="M389.3738,-230.4524C330.5387,-219.7226 232.5401,-201.8505 169.6283,-190.3773"/>
<polygon fill="#191970" stroke="#191970" points="169.9262,-186.8739 159.4604,-188.5229 168.6702,-193.7603 169.9262,-186.8739"/>
</g>
<!-- Node3 -->
<g id="node4" class="node">
<title>Node3</title>
<g id="a_node4"><a xlink:href="treedecomp_8hpp.html" target="_top" xlink:title="treedecomp.hpp">
<polygon fill="#ffffff" stroke="#000000" points="229.8494,-110.5 229.8494,-128.5 318.1199,-128.5 318.1199,-110.5 229.8494,-110.5"/>
<text text-anchor="middle" x="273.9847" y="-116.5" font-family="Helvetica,sans-Serif" font-size="10.00" fill="#000000">treedecomp.hpp</text>
</a>
</g>
</g>
<!-- Node0&#45;&gt;Node3 -->
<g id="edge16" class="edge">
<title>Node0&#45;&gt;Node3</title>
<path fill="none" stroke="#191970" d="M412.0257,-230.374C391.3927,-222.6171 362.8578,-210.1672 340.9847,-194 319.0311,-177.7733 298.8147,-153.4436 286.456,-137.044"/>
<polygon fill="#191970" stroke="#191970" points="289.1783,-134.8379 280.4373,-128.8507 283.5369,-138.9821 289.1783,-134.8379"/>
</g>
<!-- Node7 -->
<g id="node8" class="node">
<title>Node7</title>
<polygon fill="#ffffff" stroke="#bfbfbf" points="379.369,-.5 379.369,-18.5 422.6004,-18.5 422.6004,-.5 379.369,-.5"/>
<text text-anchor="middle" x="400.9847" y="-6.5" font-family="Helvetica,sans-Serif" font-size="10.00" fill="#000000">vector</text>
</g>
<!-- Node0&#45;&gt;Node7 -->
<g id="edge25" class="edge">
<title>Node0&#45;&gt;Node7</title>
<path fill="none" stroke="#191970" d="M431.7668,-230.3669C425.2929,-221.5987 416.1858,-207.6996 411.9847,-194 394.1505,-135.8435 396.6972,-62.6466 399.2197,-28.5747"/>
<polygon fill="#191970" stroke="#191970" points="402.7086,-28.8525 400.0448,-18.5981 395.7324,-28.2755 402.7086,-28.8525"/>
</g>
<!-- Node8 -->
<g id="node9" class="node">
<title>Node8</title>
<polygon fill="#ffffff" stroke="#bfbfbf" points="337.2581,-55.5 337.2581,-73.5 372.7113,-73.5 372.7113,-55.5 337.2581,-55.5"/>
<text text-anchor="middle" x="354.9847" y="-61.5" font-family="Helvetica,sans-Serif" font-size="10.00" fill="#000000">map</text>
</g>
<!-- Node0&#45;&gt;Node8 -->
<g id="edge21" class="edge">
<title>Node0&#45;&gt;Node8</title>
<path fill="none" stroke="#191970" d="M420.5382,-230.3556C406.8624,-222.5887 388.935,-210.1345 378.9847,-194 357.7605,-159.5849 354.4063,-110.9252 354.3615,-84.1205"/>
<polygon fill="#191970" stroke="#191970" points="357.8661,-83.8232 354.5118,-73.7734 350.8668,-83.7215 357.8661,-83.8232"/>
</g>
<!-- Node9 -->
<g id="node10" class="node">
<title>Node9</title>
<polygon fill="#ffffff" stroke="#bfbfbf" points="122.3148,-55.5 122.3148,-73.5 151.6546,-73.5 151.6546,-55.5 122.3148,-55.5"/>
<text text-anchor="middle" x="136.9847" y="-61.5" font-family="Helvetica,sans-Serif" font-size="10.00" fill="#000000">set</text>
</g>
<!-- Node0&#45;&gt;Node9 -->
<g id="edge22" class="edge">
<title>Node0&#45;&gt;Node9</title>
<path fill="none" stroke="#191970" d="M402.3946,-230.4328C374.9146,-222.8157 336.8635,-210.5194 305.9847,-194 264.0507,-171.5663 258.7338,-157.9264 220.9847,-129 199.1113,-112.2388 174.0583,-92.9959 157.0459,-79.9219"/>
<polygon fill="#191970" stroke="#191970" points="159.0035,-77.0121 148.9419,-73.6933 154.7377,-82.5623 159.0035,-77.0121"/>
</g>
<!-- Node10 -->
<g id="node11" class="node">
<title>Node10</title>
<polygon fill="#ffffff" stroke="#bfbfbf" points="25.7581,-55.5 25.7581,-73.5 66.2113,-73.5 66.2113,-55.5 25.7581,-55.5"/>
<text text-anchor="middle" x="45.9847" y="-61.5" font-family="Helvetica,sans-Serif" font-size="10.00" fill="#000000">string</text>
</g>
<!-- Node0&#45;&gt;Node10 -->
<g id="edge24" class="edge">
<title>Node0&#45;&gt;Node10</title>
<path fill="none" stroke="#191970" d="M359.7061,-236.6773C242.6188,-231.6817 34.7576,-219.3285 11.9847,-194 -16.6392,-162.164 13.5227,-109.1063 32.6994,-81.8416"/>
<polygon fill="#191970" stroke="#191970" points="35.6091,-83.7918 38.6808,-73.652 29.9563,-79.6631 35.6091,-83.7918"/>
</g>
<!-- Node11 -->
<g id="node12" class="node">
<title>Node11</title>
<polygon fill="#ffffff" stroke="#bfbfbf" points="421.0145,-165.5 421.0145,-193.5 550.9549,-193.5 550.9549,-165.5 421.0145,-165.5"/>
<text text-anchor="start" x="429.0145" y="-181.5" font-family="Helvetica,sans-Serif" font-size="10.00" fill="#000000">indigox/classes/molecular</text>
<text text-anchor="middle" x="485.9847" y="-171.5" font-family="Helvetica,sans-Serif" font-size="10.00" fill="#000000">_graph.hpp</text>
</g>
<!-- Node0&#45;&gt;Node11 -->
<g id="edge15" class="edge">
<title>Node0&#45;&gt;Node11</title>
<path fill="none" stroke="#191970" d="M446.123,-230.3873C452.0615,-222.8063 460.7672,-211.6925 468.5292,-201.7837"/>
<polygon fill="#191970" stroke="#191970" points="471.3343,-203.8783 474.7457,-193.8477 465.8237,-199.5616 471.3343,-203.8783"/>
</g>
<!-- Node12 -->
<g id="node13" class="node">
<title>Node12</title>
<polygon fill="#ffffff" stroke="#bfbfbf" points="568.6156,-170.5 568.6156,-188.5 691.3538,-188.5 691.3538,-170.5 568.6156,-170.5"/>
<text text-anchor="middle" x="629.9847" y="-176.5" font-family="Helvetica,sans-Serif" font-size="10.00" fill="#000000">indigox/utils/options.hpp</text>
</g>
<!-- Node0&#45;&gt;Node12 -->
<g id="edge17" class="edge">
<title>Node0&#45;&gt;Node12</title>
<path fill="none" stroke="#191970" d="M467.9935,-230.3873C500.9986,-220.0192 555.0383,-203.0434 591.5327,-191.5791"/>
<polygon fill="#191970" stroke="#191970" points="592.8373,-194.838 601.3287,-188.5019 590.7394,-188.1598 592.8373,-194.838"/>
</g>
<!-- Node13 -->
<g id="node14" class="node">
<title>Node13</title>
<polygon fill="#ffffff" stroke="#bfbfbf" points="709.2806,-165.5 709.2806,-193.5 828.6888,-193.5 828.6888,-165.5 709.2806,-165.5"/>
<text text-anchor="start" x="717.2806" y="-181.5" font-family="Helvetica,sans-Serif" font-size="10.00" fill="#000000">boost/graph/topological</text>
<text text-anchor="middle" x="768.9847" y="-171.5" font-family="Helvetica,sans-Serif" font-size="10.00" fill="#000000">_sort.hpp</text>
</g>
<!-- Node0&#45;&gt;Node13 -->
<g id="edge18" class="edge">
<title>Node0&#45;&gt;Node13</title>
<path fill="none" stroke="#191970" d="M494.0772,-230.4636C544.8005,-222.0153 622.3833,-208.7702 699.3068,-194.0923"/>
<polygon fill="#191970" stroke="#191970" points="700.0088,-197.5216 709.171,-192.2014 698.6909,-190.6468 700.0088,-197.5216"/>
</g>
<!-- Node14 -->
<g id="node15" class="node">
<title>Node14</title>
<polygon fill="#ffffff" stroke="#bfbfbf" points="846.4207,-170.5 846.4207,-188.5 903.5487,-188.5 903.5487,-170.5 846.4207,-170.5"/>
<text text-anchor="middle" x="874.9847" y="-176.5" font-family="Helvetica,sans-Serif" font-size="10.00" fill="#000000">algorithm</text>
</g>
<!-- Node0&#45;&gt;Node14 -->
<g id="edge19" class="edge">
<title>Node0&#45;&gt;Node14</title>
<path fill="none" stroke="#191970" d="M518.4173,-236.5138C599.7222,-232.0498 729.2169,-221.0235 837.9847,-194 840.301,-193.4245 842.6669,-192.7398 845.0268,-191.9858"/>
<polygon fill="#191970" stroke="#191970" points="846.3012,-195.2474 854.5508,-188.5994 843.956,-188.6519 846.3012,-195.2474"/>
</g>
<!-- Node15 -->
<g id="node16" class="node">
<title>Node15</title>
<polygon fill="#ffffff" stroke="#bfbfbf" points="921.8123,-170.5 921.8123,-188.5 976.1571,-188.5 976.1571,-170.5 921.8123,-170.5"/>
<text text-anchor="middle" x="948.9847" y="-176.5" font-family="Helvetica,sans-Serif" font-size="10.00" fill="#000000">iostream</text>
</g>
<!-- Node0&#45;&gt;Node15 -->
<g id="edge20" class="edge">
<title>Node0&#45;&gt;Node15</title>
<path fill="none" stroke="#191970" d="M518.4822,-234.6385C633.4468,-227.1356 840.3003,-211.733 912.9847,-194 915.3044,-193.4341 917.6717,-192.7469 920.029,-191.983"/>
<polygon fill="#191970" stroke="#191970" points="921.3193,-195.2381 929.5154,-188.5243 918.9215,-188.6615 921.3193,-195.2381"/>
</g>
<!-- Node16 -->
<g id="node17" class="node">
<title>Node16</title>
<polygon fill="#ffffff" stroke="#bfbfbf" points="994.2039,-170.5 994.2039,-188.5 1045.7655,-188.5 1045.7655,-170.5 994.2039,-170.5"/>
<text text-anchor="middle" x="1019.9847" y="-176.5" font-family="Helvetica,sans-Serif" font-size="10.00" fill="#000000">sstream</text>
</g>
<!-- Node0&#45;&gt;Node16 -->
<g id="edge23" class="edge">
<title>Node0&#45;&gt;Node16</title>
<path fill="none" stroke="#191970" d="M518.2808,-235.9088C647.7277,-229.5397 898.6688,-214.9356 984.9847,-194 987.1659,-193.471 989.3875,-192.8253 991.6,-192.1035"/>
<polygon fill="#191970" stroke="#191970" points="992.9336,-195.3419 1001.0879,-188.5774 990.495,-188.7804 992.9336,-195.3419"/>
</g>
<!-- Node2 -->
<g id="node3" class="node">
<title>Node2</title>
<polygon fill="#ffffff" stroke="#bfbfbf" points="73.0169,-.5 73.0169,-18.5 162.9525,-18.5 162.9525,-.5 73.0169,-.5"/>
<text text-anchor="middle" x="117.9847" y="-6.5" font-family="Helvetica,sans-Serif" font-size="10.00" fill="#000000">../utils/graph.hpp</text>
</g>
<!-- Node1&#45;&gt;Node2 -->
<g id="edge2" class="edge">
<title>Node1&#45;&gt;Node2</title>
<path fill="none" stroke="#191970" d="M109.9384,-170.4276C109.8914,-149.8649 110.0995,-98.1454 112.9847,-55 113.5679,-46.2779 114.5731,-36.6507 115.5299,-28.5065"/>
<polygon fill="#191970" stroke="#191970" points="119.0081,-28.898 116.7606,-18.5443 112.0609,-28.0398 119.0081,-28.898"/>
</g>
<!-- Node1&#45;&gt;Node3 -->
<g id="edge3" class="edge">
<title>Node1&#45;&gt;Node3</title>
<path fill="none" stroke="#191970" d="M134.8928,-170.3873C162.8689,-160.1521 208.446,-143.4776 239.7558,-132.0228"/>
<polygon fill="#191970" stroke="#191970" points="241.1909,-135.2247 249.3796,-128.5019 238.7858,-128.6508 241.1909,-135.2247"/>
</g>
<!-- Node1&#45;&gt;Node9 -->
<g id="edge13" class="edge">
<title>Node1&#45;&gt;Node9</title>
<path fill="none" stroke="#191970" d="M112.1033,-170.4761C116.4783,-151.842 126.5941,-108.7561 132.492,-83.6357"/>
<polygon fill="#191970" stroke="#191970" points="135.9225,-84.3367 134.8009,-73.8014 129.1078,-82.7366 135.9225,-84.3367"/>
</g>
<!-- Node1&#45;&gt;Node10 -->
<g id="edge14" class="edge">
<title>Node1&#45;&gt;Node10</title>
<path fill="none" stroke="#191970" d="M104.3125,-170.2749C98.1709,-160.2127 88.1575,-143.5913 79.9847,-129 71.394,-113.6626 62.1181,-95.9843 55.4287,-83.0185"/>
<polygon fill="#191970" stroke="#191970" points="58.36,-81.0645 50.6808,-73.7651 52.132,-84.2601 58.36,-81.0645"/>
</g>
<!-- Node3&#45;&gt;Node2 -->
<g id="edge4" class="edge">
<title>Node3&#45;&gt;Node2</title>
<path fill="none" stroke="#191970" d="M257.8104,-110.4849C242.3629,-101.6906 218.598,-87.6758 198.9847,-74 176.7142,-58.4714 152.5285,-38.8156 136.4389,-25.3074"/>
<polygon fill="#191970" stroke="#191970" points="138.2909,-22.2895 128.3968,-18.5005 133.7685,-27.6326 138.2909,-22.2895"/>
</g>
<!-- Node4 -->
<g id="node5" class="node">
<title>Node4</title>
<g id="a_node5"><a xlink:href="permutablegraph_8hpp.html" target="_top" xlink:title="permutablegraph.hpp">
<polygon fill="#ffffff" stroke="#000000" points="208.4505,-55.5 208.4505,-73.5 319.5189,-73.5 319.5189,-55.5 208.4505,-55.5"/>
<text text-anchor="middle" x="263.9847" y="-61.5" font-family="Helvetica,sans-Serif" font-size="10.00" fill="#000000">permutablegraph.hpp</text>
</a>
</g>
</g>
<!-- Node3&#45;&gt;Node4 -->
<g id="edge5" class="edge">
<title>Node3&#45;&gt;Node4</title>
<path fill="none" stroke="#191970" d="M272.3334,-110.4179C271.024,-103.2164 269.1476,-92.8962 267.5053,-83.8632"/>
<polygon fill="#191970" stroke="#191970" points="270.9043,-82.992 265.6719,-73.7795 264.0173,-84.2443 270.9043,-82.992"/>
</g>
<!-- Node3&#45;&gt;Node8 -->
<g id="edge10" class="edge">
<title>Node3&#45;&gt;Node8</title>
<path fill="none" stroke="#191970" d="M287.3602,-110.4179C299.7887,-101.9788 318.5244,-89.257 333.1256,-79.3426"/>
<polygon fill="#191970" stroke="#191970" points="335.2824,-82.1088 341.5893,-73.5956 331.3501,-76.3176 335.2824,-82.1088"/>
</g>
<!-- Node3&#45;&gt;Node9 -->
<g id="edge11" class="edge">
<title>Node3&#45;&gt;Node9</title>
<path fill="none" stroke="#191970" d="M251.3619,-110.4179C226.5373,-100.4518 186.8353,-84.513 161.3422,-74.2786"/>
<polygon fill="#191970" stroke="#191970" points="162.5933,-71.0094 152.0093,-70.5318 159.9854,-77.5054 162.5933,-71.0094"/>
</g>
<!-- Node3&#45;&gt;Node10 -->
<g id="edge12" class="edge">
<title>Node3&#45;&gt;Node10</title>
<path fill="none" stroke="#191970" d="M236.5904,-110.4795C191.7518,-99.6631 117.4852,-81.7479 76.1365,-71.7735"/>
<polygon fill="#191970" stroke="#191970" points="76.9133,-68.3605 66.3713,-69.4178 75.2717,-75.1653 76.9133,-68.3605"/>
</g>
<!-- Node4&#45;&gt;Node2 -->
<g id="edge6" class="edge">
<title>Node4&#45;&gt;Node2</title>
<path fill="none" stroke="#191970" d="M239.8758,-55.4179C215.7831,-46.3419 178.541,-32.3123 151.5615,-22.1488"/>
<polygon fill="#191970" stroke="#191970" points="152.7213,-18.8457 142.1294,-18.5956 150.2536,-25.3963 152.7213,-18.8457"/>
</g>
<!-- Node5 -->
<g id="node6" class="node">
<title>Node5</title>
<polygon fill="#ffffff" stroke="#bfbfbf" points="251.0096,-.5 251.0096,-18.5 360.9598,-18.5 360.9598,-.5 251.0096,-.5"/>
<text text-anchor="middle" x="305.9847" y="-6.5" font-family="Helvetica,sans-Serif" font-size="10.00" fill="#000000">molecular_graph.hpp</text>
</g>
<!-- Node4&#45;&gt;Node5 -->
<g id="edge7" class="edge">
<title>Node4&#45;&gt;Node5</title>
<path fill="none" stroke="#191970" d="M270.9201,-55.4179C276.8425,-47.6624 285.5269,-36.29 292.7711,-26.8035"/>
<polygon fill="#191970" stroke="#191970" points="295.6111,-28.8514 298.8986,-18.7795 290.0477,-24.6029 295.6111,-28.8514"/>
</g>
<!-- Node6 -->
<g id="node7" class="node">
<title>Node6</title>
<polygon fill="#ffffff" stroke="#bfbfbf" points="180.9281,-.5 180.9281,-18.5 233.0413,-18.5 233.0413,-.5 180.9281,-.5"/>
<text text-anchor="middle" x="206.9847" y="-6.5" font-family="Helvetica,sans-Serif" font-size="10.00" fill="#000000">memory</text>
</g>
<!-- Node4&#45;&gt;Node6 -->
<g id="edge8" class="edge">
<title>Node4&#45;&gt;Node6</title>
<path fill="none" stroke="#191970" d="M254.5723,-55.4179C246.2888,-47.425 234.0238,-35.5903 224.0202,-25.9377"/>
<polygon fill="#191970" stroke="#191970" points="226.2281,-23.2045 216.6016,-18.7795 221.3675,-28.2419 226.2281,-23.2045"/>
</g>
<!-- Node4&#45;&gt;Node7 -->
<g id="edge9" class="edge">
<title>Node4&#45;&gt;Node7</title>
<path fill="none" stroke="#191970" d="M286.6075,-55.4179C309.2851,-46.3137 344.378,-32.2253 369.7127,-22.0544"/>
<polygon fill="#191970" stroke="#191970" points="371.2579,-25.2057 379.2341,-18.232 368.65,-18.7096 371.2579,-25.2057"/>
</g>
</g>
</svg>
        <g id="navigator" transform="translate(0 0)" fill="#404254">
                <rect fill="#f2f5e9" fill-opacity="0.5" stroke="#606060" stroke-width=".5" x="0" y="0" width="60" height="60"/>
                <use id="zoomplus" xlink:href="#zoomPlus" x="17" y="9" onmousedown="handleZoom(evt,'in')"/>
                <use id="zoomminus" xlink:href="#zoomMin" x="42" y="9" onmousedown="handleZoom(evt,'out')"/>
                <use id="reset" xlink:href="#resetDef" x="30" y="36" onmousedown="handleReset()"/>
                <g id="arrowUp" xlink:href="#dirArrow" transform="translate(30 24)" onmousedown="handlePan(0,-1)">
                  <use xlink:href="#rim" fill="#404040">
                        <set attributeName="fill" to="#808080" begin="arrowUp.mouseover" end="arrowUp.mouseout"/>
                  </use>
                  <path fill="none" stroke="white" stroke-width="1.5" d="M0,-3.0v7 M-2.5,-0.5L0,-3.0L2.5,-0.5"/>
                </g>
                <g id="arrowRight" xlink:href="#dirArrow" transform="rotate(90) translate(36 -43)" onmousedown="handlePan(1,0)">
                  <use xlink:href="#rim" fill="#404040">
                        <set attributeName="fill" to="#808080" begin="arrowRight.mouseover" end="arrowRight.mouseout"/>
                  </use>
                  <path fill="none" stroke="white" stroke-width="1.5" d="M0,-3.0v7 M-2.5,-0.5L0,-3.0L2.5,-0.5"/>
                </g>
                <g id="arrowDown" xlink:href="#dirArrow" transform="rotate(180) translate(-30 -48)" onmousedown="handlePan(0,1)">
                  <use xlink:href="#rim" fill="#404040">
                        <set attributeName="fill" to="#808080" begin="arrowDown.mouseover" end="arrowDown.mouseout"/>
                  </use>
                  <path fill="none" stroke="white" stroke-width="1.5" d="M0,-3.0v7 M-2.5,-0.5L0,-3.0L2.5,-0.5"/>
                </g>
                <g id="arrowLeft" xlink:href="#dirArrow" transform="rotate(270) translate(-36 17)" onmousedown="handlePan(-1,0)">
                  <use xlink:href="#rim" fill="#404040">
                        <set attributeName="fill" to="#808080" begin="arrowLeft.mouseover" end="arrowLeft.mouseout"/>
                  </use>
                  <path fill="none" stroke="white" stroke-width="1.5" d="M0,-3.0v7 M-2.5,-0.5L0,-3.0L2.5,-0.5"/>
                </g>
        </g>
        <svg viewBox="0 0 15 15" width="100%" height="30px" preserveAspectRatio="xMaxYMin meet">
         <g id="arrow_out" transform="scale(0.3 0.3)">
          <a xlink:href="nicetreedecomp_8cpp__incl_org.svg" target="_base">
           <rect id="button" ry="5" rx="5" y="6" x="6" height="38" width="38"
                fill="#f2f5e9" fill-opacity="0.5" stroke="#606060" stroke-width="1.0"/>
           <path id="arrow"
             d="M 11.500037,31.436501 C 11.940474,20.09759 22.043105,11.32322 32.158766,21.979434 L 37.068811,17.246167 C 37.068811,17.246167 37.088388,32 37.088388,32 L 22.160133,31.978069 C 22.160133,31.978069 26.997745,27.140456 26.997745,27.140456 C 18.528582,18.264221 13.291696,25.230495 11.500037,31.436501 z"
             style="fill:#404040;"/>
          </a>
         </g>
        </svg>
</svg>
