<?xml version="1.0" encoding="UTF-8" standalone="no"?>
<!DOCTYPE svg PUBLIC "-//W3C//DTD SVG 1.1//EN"
 "http://www.w3.org/Graphics/SVG/1.1/DTD/svg11.dtd">
<!-- Generated by graphviz version 2.40.1 (20161225.0304)
 -->
<!-- Title: include/indigox/classes/nicetreedecomp.hpp Pages: 1 -->
<svg width="387pt" height="202pt"
 viewBox="0.00 0.00 387.19 202.00" xmlns="http://www.w3.org/2000/svg" xmlns:xlink="http://www.w3.org/1999/xlink">
<g id="graph0" class="graph" transform="scale(1 1) rotate(0) translate(4 198)">
<title>include/indigox/classes/nicetreedecomp.hpp</title>
<polygon fill="#ffffff" stroke="transparent" points="-4,4 -4,-198 383.1943,-198 383.1943,4 -4,4"/>
<!-- Node0 -->
<g id="node1" class="node">
<title>Node0</title>
<polygon fill="#bfbfbf" stroke="#000000" points="214.8276,-165.5 214.8276,-193.5 333.1079,-193.5 333.1079,-165.5 214.8276,-165.5"/>
<text text-anchor="start" x="222.8276" y="-181.5" font-family="Helvetica,sans-Serif" font-size="10.00" fill="#000000">include/indigox/classes</text>
<text text-anchor="middle" x="273.9678" y="-171.5" font-family="Helvetica,sans-Serif" font-size="10.00" fill="#000000">/nicetreedecomp.hpp</text>
</g>
<!-- Node1 -->
<g id="node2" class="node">
<title>Node1</title>
<polygon fill="#ffffff" stroke="#bfbfbf" points="0,-.5 0,-18.5 89.9355,-18.5 89.9355,-.5 0,-.5"/>
<text text-anchor="middle" x="44.9678" y="-6.5" font-family="Helvetica,sans-Serif" font-size="10.00" fill="#000000">../utils/graph.hpp</text>
</g>
<!-- Node0&#45;&gt;Node1 -->
<g id="edge1" class="edge">
<title>Node0&#45;&gt;Node1</title>
<path fill="none" stroke="#191970" d="M230.3396,-165.3933C186.5012,-149.3145 119.3798,-119.2539 75.9678,-74 63.631,-61.1398 55.3867,-42.4417 50.5219,-28.4851"/>
<polygon fill="#191970" stroke="#191970" points="53.8378,-27.3633 47.4487,-18.9117 47.1728,-29.503 53.8378,-27.3633"/>
</g>
<!-- Node2 -->
<g id="node3" class="node">
<title>Node2</title>
<g id="a_node3"><a xlink:href="treedecomp_8hpp.html" target="_top" xlink:title="treedecomp.hpp">
<polygon fill="#ffffff" stroke="#000000" points="193.8325,-110.5 193.8325,-128.5 282.103,-128.5 282.103,-110.5 193.8325,-110.5"/>
<text text-anchor="middle" x="237.9678" y="-116.5" font-family="Helvetica,sans-Serif" font-size="10.00" fill="#000000">treedecomp.hpp</text>
</a>
</g>
</g>
<!-- Node0&#45;&gt;Node2 -->
<g id="edge2" class="edge">
<title>Node0&#45;&gt;Node2</title>
<path fill="none" stroke="#191970" d="M265.4363,-165.2808C260.4279,-156.9336 254.0524,-146.3076 248.7045,-137.3946"/>
<polygon fill="#191970" stroke="#191970" points="251.5645,-135.3584 243.4183,-128.5842 245.5621,-138.9599 251.5645,-135.3584"/>
</g>
<!-- Node8 -->
<g id="node9" class="node">
<title>Node8</title>
<polygon fill="#ffffff" stroke="#bfbfbf" points="291.2979,-55.5 291.2979,-73.5 320.6377,-73.5 320.6377,-55.5 291.2979,-55.5"/>
<text text-anchor="middle" x="305.9678" y="-61.5" font-family="Helvetica,sans-Serif" font-size="10.00" fill="#000000">set</text>
</g>
<!-- Node0&#45;&gt;Node8 -->
<g id="edge12" class="edge">
<title>Node0&#45;&gt;Node8</title>
<path fill="none" stroke="#191970" d="M279.0974,-165.4646C282.6783,-155.394 287.4309,-141.4588 290.9678,-129 295.2417,-113.945 299.2116,-96.6635 301.9923,-83.7801"/>
<polygon fill="#191970" stroke="#191970" points="305.4672,-84.2643 304.1077,-73.757 298.618,-82.8187 305.4672,-84.2643"/>
</g>
<!-- Node9 -->
<g id="node10" class="node">
<title>Node9</title>
<polygon fill="#ffffff" stroke="#bfbfbf" points="338.7412,-55.5 338.7412,-73.5 379.1943,-73.5 379.1943,-55.5 338.7412,-55.5"/>
<text text-anchor="middle" x="358.9678" y="-61.5" font-family="Helvetica,sans-Serif" font-size="10.00" fill="#000000">string</text>
</g>
<!-- Node0&#45;&gt;Node9 -->
<g id="edge13" class="edge">
<title>Node0&#45;&gt;Node9</title>
<path fill="none" stroke="#191970" d="M284.3904,-165.3987C299.9665,-144.3252 329.2857,-104.6581 346.1503,-81.8413"/>
<polygon fill="#191970" stroke="#191970" points="349.0173,-83.8508 352.1466,-73.7286 343.388,-79.69 349.0173,-83.8508"/>
</g>
<!-- Node2&#45;&gt;Node1 -->
<g id="edge3" class="edge">
<title>Node2&#45;&gt;Node1</title>
<path fill="none" stroke="#191970" d="M193.5681,-111.3438C165.0668,-104.6076 128.2361,-92.9931 99.9678,-74 81.7309,-61.7469 66.059,-41.8484 56.163,-27.3894"/>
<polygon fill="#191970" stroke="#191970" points="58.9413,-25.2439 50.525,-18.8082 53.091,-29.0877 58.9413,-25.2439"/>
</g>
<!-- Node3 -->
<g id="node4" class="node">
<title>Node3</title>
<g id="a_node4"><a xlink:href="permutablegraph_8hpp.html" target="_top" xlink:title="permutablegraph.hpp">
<polygon fill="#ffffff" stroke="#000000" points="109.4336,-55.5 109.4336,-73.5 220.502,-73.5 220.502,-55.5 109.4336,-55.5"/>
<text text-anchor="middle" x="164.9678" y="-61.5" font-family="Helvetica,sans-Serif" font-size="10.00" fill="#000000">permutablegraph.hpp</text>
</a>
</g>
</g>
<!-- Node2&#45;&gt;Node3 -->
<g id="edge4" class="edge">
<title>Node2&#45;&gt;Node3</title>
<path fill="none" stroke="#191970" d="M225.9133,-110.4179C214.8844,-102.1084 198.3446,-89.6469 185.2771,-79.8015"/>
<polygon fill="#191970" stroke="#191970" points="187.3772,-77.0016 177.2841,-73.7795 183.1649,-82.5924 187.3772,-77.0016"/>
</g>
<!-- Node7 -->
<g id="node8" class="node">
<title>Node7</title>
<polygon fill="#ffffff" stroke="#bfbfbf" points="238.2412,-55.5 238.2412,-73.5 273.6943,-73.5 273.6943,-55.5 238.2412,-55.5"/>
<text text-anchor="middle" x="255.9678" y="-61.5" font-family="Helvetica,sans-Serif" font-size="10.00" fill="#000000">map</text>
</g>
<!-- Node2&#45;&gt;Node7 -->
<g id="edge9" class="edge">
<title>Node2&#45;&gt;Node7</title>
<path fill="none" stroke="#191970" d="M240.9401,-110.4179C243.3229,-103.1372 246.7488,-92.669 249.728,-83.5659"/>
<polygon fill="#191970" stroke="#191970" points="253.1468,-84.3721 252.9309,-73.7795 246.494,-82.1948 253.1468,-84.3721"/>
</g>
<!-- Node2&#45;&gt;Node8 -->
<g id="edge10" class="edge">
<title>Node2&#45;&gt;Node8</title>
<path fill="none" stroke="#191970" d="M249.1966,-110.4179C259.3722,-102.1876 274.584,-89.8839 286.7008,-80.0836"/>
<polygon fill="#191970" stroke="#191970" points="288.9209,-82.7895 294.495,-73.7795 284.5188,-77.3469 288.9209,-82.7895"/>
</g>
<!-- Node2&#45;&gt;Node9 -->
<g id="edge11" class="edge">
<title>Node2&#45;&gt;Node9</title>
<path fill="none" stroke="#191970" d="M257.9485,-110.4179C277.4778,-101.5409 307.4322,-87.9253 329.6573,-77.823"/>
<polygon fill="#191970" stroke="#191970" points="331.3021,-80.92 338.9574,-73.5956 328.4054,-74.5474 331.3021,-80.92"/>
</g>
<!-- Node3&#45;&gt;Node1 -->
<g id="edge5" class="edge">
<title>Node3&#45;&gt;Node1</title>
<path fill="none" stroke="#191970" d="M145.1522,-55.4179C125.7843,-46.5409 96.0774,-32.9253 74.036,-22.823"/>
<polygon fill="#191970" stroke="#191970" points="75.3617,-19.5805 64.8128,-18.5956 72.4451,-25.944 75.3617,-19.5805"/>
</g>
<!-- Node4 -->
<g id="node5" class="node">
<title>Node4</title>
<polygon fill="#ffffff" stroke="#bfbfbf" points="107.9927,-.5 107.9927,-18.5 217.9429,-18.5 217.9429,-.5 107.9927,-.5"/>
<text text-anchor="middle" x="162.9678" y="-6.5" font-family="Helvetica,sans-Serif" font-size="10.00" fill="#000000">molecular_graph.hpp</text>
</g>
<!-- Node3&#45;&gt;Node4 -->
<g id="edge6" class="edge">
<title>Node3&#45;&gt;Node4</title>
<path fill="none" stroke="#191970" d="M164.6375,-55.4179C164.3756,-48.2164 164.0004,-37.8962 163.6719,-28.8632"/>
<polygon fill="#191970" stroke="#191970" points="167.1664,-28.6456 163.3052,-18.7795 160.171,-28.9001 167.1664,-28.6456"/>
</g>
<!-- Node5 -->
<g id="node6" class="node">
<title>Node5</title>
<polygon fill="#ffffff" stroke="#bfbfbf" points="235.9111,-.5 235.9111,-18.5 288.0244,-18.5 288.0244,-.5 235.9111,-.5"/>
<text text-anchor="middle" x="261.9678" y="-6.5" font-family="Helvetica,sans-Serif" font-size="10.00" fill="#000000">memory</text>
</g>
<!-- Node3&#45;&gt;Node5 -->
<g id="edge7" class="edge">
<title>Node3&#45;&gt;Node5</title>
<path fill="none" stroke="#191970" d="M180.9854,-55.4179C196.1497,-46.8195 219.1548,-33.7754 236.7753,-23.7844"/>
<polygon fill="#191970" stroke="#191970" points="238.9538,-26.5727 245.9264,-18.5956 235.5011,-20.4834 238.9538,-26.5727"/>
</g>
<!-- Node6 -->
<g id="node7" class="node">
<title>Node6</title>
<polygon fill="#ffffff" stroke="#bfbfbf" points="306.3521,-.5 306.3521,-18.5 349.5835,-18.5 349.5835,-.5 306.3521,-.5"/>
<text text-anchor="middle" x="327.9678" y="-6.5" font-family="Helvetica,sans-Serif" font-size="10.00" fill="#000000">vector</text>
</g>
<!-- Node3&#45;&gt;Node6 -->
<g id="edge8" class="edge">
<title>Node3&#45;&gt;Node6</title>
<path fill="none" stroke="#191970" d="M191.8839,-55.4179C220.6427,-45.714 266.1832,-30.3475 296.5592,-20.098"/>
<polygon fill="#191970" stroke="#191970" points="297.877,-23.3473 306.2331,-16.8338 295.6389,-16.7147 297.877,-23.3473"/>
</g>
</g>
</svg>
