<?xml version="1.0" encoding="UTF-8" standalone="no"?>
<!DOCTYPE svg PUBLIC "-//W3C//DTD SVG 1.1//EN"
 "http://www.w3.org/Graphics/SVG/1.1/DTD/svg11.dtd">
<!-- Generated by graphviz version 2.40.1 (20161225.0304)
 -->
<!-- Title: include/indigox/utils/numerics.hpp Pages: 1 -->
<svg width="599pt" height="437pt"
 viewBox="0.00 0.00 599.17 437.00" xmlns="http://www.w3.org/2000/svg" xmlns:xlink="http://www.w3.org/1999/xlink">
<g id="graph0" class="graph" transform="scale(1 1) rotate(0) translate(4 433)">
<title>include/indigox/utils/numerics.hpp</title>
<polygon fill="#ffffff" stroke="transparent" points="-4,4 -4,-433 595.1719,-433 595.1719,4 -4,4"/>
<!-- Node8 -->
<g id="node1" class="node">
<title>Node8</title>
<g id="a_node1"><a xlink:title=" ">
<polygon fill="#bfbfbf" stroke="#000000" points="410.6724,-400.5 410.6724,-428.5 513.3911,-428.5 513.3911,-400.5 410.6724,-400.5"/>
<text text-anchor="start" x="418.6724" y="-416.5" font-family="Helvetica,sans-Serif" font-size="10.00" fill="#000000">include/indigox/utils</text>
<text text-anchor="middle" x="462.0317" y="-406.5" font-family="Helvetica,sans-Serif" font-size="10.00" fill="#000000">/numerics.hpp</text>
</a>
</g>
</g>
<!-- Node9 -->
<g id="node2" class="node">
<title>Node9</title>
<g id="a_node2"><a xlink:href="cycles_8hpp.html" target="_top" xlink:title=" ">
<polygon fill="#ffffff" stroke="#000000" points="329,-335.5 329,-363.5 455.0635,-363.5 455.0635,-335.5 329,-335.5"/>
<text text-anchor="start" x="337" y="-351.5" font-family="Helvetica,sans-Serif" font-size="10.00" fill="#000000">include/indigox/algorithm</text>
<text text-anchor="middle" x="392.0317" y="-341.5" font-family="Helvetica,sans-Serif" font-size="10.00" fill="#000000">/graph/cycles.hpp</text>
</a>
</g>
</g>
<!-- Node8&#45;&gt;Node9 -->
<g id="edge1" class="edge">
<title>Node8&#45;&gt;Node9</title>
<path fill="none" stroke="#191970" d="M439.2133,-393.3115C428.713,-383.5612 416.5415,-372.259 407.1911,-363.5765"/>
<polygon fill="#191970" stroke="#191970" points="437.1332,-396.1562 446.8428,-400.396 441.8964,-391.0266 437.1332,-396.1562"/>
</g>
<!-- Node20 -->
<g id="node13" class="node">
<title>Node20</title>
<g id="a_node13"><a xlink:href="parameterised_8hpp.html" target="_top" xlink:title=" ">
<polygon fill="#ffffff" stroke="#000000" points="472.8916,-335.5 472.8916,-363.5 591.1719,-363.5 591.1719,-335.5 472.8916,-335.5"/>
<text text-anchor="start" x="480.8916" y="-351.5" font-family="Helvetica,sans-Serif" font-size="10.00" fill="#000000">include/indigox/classes</text>
<text text-anchor="middle" x="532.0317" y="-341.5" font-family="Helvetica,sans-Serif" font-size="10.00" fill="#000000">/parameterised.hpp</text>
</a>
</g>
</g>
<!-- Node8&#45;&gt;Node20 -->
<g id="edge16" class="edge">
<title>Node8&#45;&gt;Node20</title>
<path fill="none" stroke="#191970" d="M484.8502,-393.3115C495.3504,-383.5612 507.522,-372.259 516.8724,-363.5765"/>
<polygon fill="#191970" stroke="#191970" points="482.1671,-391.0266 477.2207,-400.396 486.9302,-396.1562 482.1671,-391.0266"/>
</g>
<!-- Node10 -->
<g id="node3" class="node">
<title>Node10</title>
<g id="a_node3"><a xlink:href="base__graph__impl_8hpp.html" target="_top" xlink:title=" ">
<polygon fill="#ffffff" stroke="#000000" points="292.5518,-270.5 292.5518,-298.5 407.5117,-298.5 407.5117,-270.5 292.5518,-270.5"/>
<text text-anchor="start" x="300.5518" y="-286.5" font-family="Helvetica,sans-Serif" font-size="10.00" fill="#000000">include/indigox/graph</text>
<text text-anchor="middle" x="350.0317" y="-276.5" font-family="Helvetica,sans-Serif" font-size="10.00" fill="#000000">/base_graph_impl.hpp</text>
</a>
</g>
</g>
<!-- Node9&#45;&gt;Node10 -->
<g id="edge2" class="edge">
<title>Node9&#45;&gt;Node10</title>
<path fill="none" stroke="#191970" d="M377.4073,-326.8669C371.3286,-317.4594 364.4626,-306.8334 359.1273,-298.5765"/>
<polygon fill="#191970" stroke="#191970" points="374.5515,-328.8963 382.9184,-335.396 380.4309,-325.0973 374.5515,-328.8963"/>
</g>
<!-- Node19 -->
<g id="node12" class="node">
<title>Node19</title>
<g id="a_node12"><a xlink:href="molecular_8hpp.html" target="_top" xlink:title=" ">
<polygon fill="#ffffff" stroke="#000000" points="401.7759,-140.5 401.7759,-168.5 512.2876,-168.5 512.2876,-140.5 401.7759,-140.5"/>
<text text-anchor="start" x="409.7759" y="-156.5" font-family="Helvetica,sans-Serif" font-size="10.00" fill="#000000">include/indigox/graph</text>
<text text-anchor="middle" x="457.0317" y="-146.5" font-family="Helvetica,sans-Serif" font-size="10.00" fill="#000000">/molecular.hpp</text>
</a>
</g>
</g>
<!-- Node9&#45;&gt;Node19 -->
<g id="edge15" class="edge">
<title>Node9&#45;&gt;Node19</title>
<path fill="none" stroke="#191970" d="M404.1965,-326.0114C408.273,-317.6201 412.6394,-308.0108 416.0317,-299 433.5804,-252.3866 447.766,-194.8924 453.8384,-168.7012"/>
<polygon fill="#191970" stroke="#191970" points="400.9482,-324.6825 399.62,-335.1938 407.2133,-327.805 400.9482,-324.6825"/>
</g>
<!-- Node11 -->
<g id="node4" class="node">
<title>Node11</title>
<g id="a_node4"><a xlink:href="base__graph_8hpp.html" target="_top" xlink:title=" ">
<polygon fill="#ffffff" stroke="#000000" points="272.7759,-205.5 272.7759,-233.5 383.2876,-233.5 383.2876,-205.5 272.7759,-205.5"/>
<text text-anchor="start" x="280.7759" y="-221.5" font-family="Helvetica,sans-Serif" font-size="10.00" fill="#000000">include/indigox/graph</text>
<text text-anchor="middle" x="328.0317" y="-211.5" font-family="Helvetica,sans-Serif" font-size="10.00" fill="#000000">/base_graph.hpp</text>
</a>
</g>
</g>
<!-- Node10&#45;&gt;Node11 -->
<g id="edge3" class="edge">
<title>Node10&#45;&gt;Node11</title>
<path fill="none" stroke="#191970" d="M341.9754,-260.6971C338.892,-251.5871 335.4755,-241.4929 332.7961,-233.5765"/>
<polygon fill="#191970" stroke="#191970" points="338.7368,-262.0459 345.2581,-270.396 345.3673,-259.8017 338.7368,-262.0459"/>
</g>
<!-- Node12 -->
<g id="node5" class="node">
<title>Node12</title>
<g id="a_node5"><a xlink:href="access_8hpp.html" target="_top" xlink:title=" ">
<polygon fill="#ffffff" stroke="#000000" points="0,-140.5 0,-168.5 126.0635,-168.5 126.0635,-140.5 0,-140.5"/>
<text text-anchor="start" x="8" y="-156.5" font-family="Helvetica,sans-Serif" font-size="10.00" fill="#000000">include/indigox/algorithm</text>
<text text-anchor="middle" x="63.0317" y="-146.5" font-family="Helvetica,sans-Serif" font-size="10.00" fill="#000000">/access.hpp</text>
</a>
</g>
</g>
<!-- Node11&#45;&gt;Node12 -->
<g id="edge4" class="edge">
<title>Node11&#45;&gt;Node12</title>
<path fill="none" stroke="#191970" d="M262.5396,-203.4359C218.9251,-192.738 162.1637,-178.8154 120.3416,-168.5571"/>
<polygon fill="#191970" stroke="#191970" points="261.9331,-206.8908 272.4791,-205.8739 263.6007,-200.0923 261.9331,-206.8908"/>
</g>
<!-- Node13 -->
<g id="node6" class="node">
<title>Node13</title>
<g id="a_node6"><a xlink:href="assignment_8hpp.html" target="_top" xlink:title=" ">
<polygon fill="#ffffff" stroke="#000000" points="143.7759,-140.5 143.7759,-168.5 254.2876,-168.5 254.2876,-140.5 143.7759,-140.5"/>
<text text-anchor="start" x="151.7759" y="-156.5" font-family="Helvetica,sans-Serif" font-size="10.00" fill="#000000">include/indigox/graph</text>
<text text-anchor="middle" x="199.0317" y="-146.5" font-family="Helvetica,sans-Serif" font-size="10.00" fill="#000000">/assignment.hpp</text>
</a>
</g>
</g>
<!-- Node11&#45;&gt;Node13 -->
<g id="edge5" class="edge">
<title>Node11&#45;&gt;Node13</title>
<path fill="none" stroke="#191970" d="M291.0252,-200.8533C270.6289,-190.5761 245.7201,-178.0252 226.9682,-168.5765"/>
<polygon fill="#191970" stroke="#191970" points="289.5353,-204.0217 300.0407,-205.396 292.6852,-197.7705 289.5353,-204.0217"/>
</g>
<!-- Node17 -->
<g id="node10" class="node">
<title>Node17</title>
<g id="a_node10"><a xlink:href="condensed_8hpp.html" target="_top" xlink:title=" ">
<polygon fill="#ffffff" stroke="#000000" points="272.7759,-140.5 272.7759,-168.5 383.2876,-168.5 383.2876,-140.5 272.7759,-140.5"/>
<text text-anchor="start" x="280.7759" y="-156.5" font-family="Helvetica,sans-Serif" font-size="10.00" fill="#000000">include/indigox/graph</text>
<text text-anchor="middle" x="328.0317" y="-146.5" font-family="Helvetica,sans-Serif" font-size="10.00" fill="#000000">/condensed.hpp</text>
</a>
</g>
</g>
<!-- Node11&#45;&gt;Node17 -->
<g id="edge11" class="edge">
<title>Node11&#45;&gt;Node17</title>
<path fill="none" stroke="#191970" d="M328.0317,-195.1081C328.0317,-186.1539 328.0317,-176.3227 328.0317,-168.5765"/>
<polygon fill="#191970" stroke="#191970" points="324.5318,-195.3959 328.0317,-205.396 331.5318,-195.396 324.5318,-195.3959"/>
</g>
<!-- Node11&#45;&gt;Node19 -->
<g id="edge13" class="edge">
<title>Node11&#45;&gt;Node19</title>
<path fill="none" stroke="#191970" d="M365.0382,-200.8533C385.4346,-190.5761 410.3434,-178.0252 429.0953,-168.5765"/>
<polygon fill="#191970" stroke="#191970" points="363.3783,-197.7705 356.0228,-205.396 366.5282,-204.0217 363.3783,-197.7705"/>
</g>
<!-- Node14 -->
<g id="node7" class="node">
<title>Node14</title>
<g id="a_node7"><a xlink:href="assigner_8hpp.html" target="_top" xlink:title=" ">
<polygon fill="#ffffff" stroke="#000000" points="113.7588,-75.5 113.7588,-103.5 284.3047,-103.5 284.3047,-75.5 113.7588,-75.5"/>
<text text-anchor="start" x="121.7588" y="-91.5" font-family="Helvetica,sans-Serif" font-size="10.00" fill="#000000">include/indigox/algorithm</text>
<text text-anchor="middle" x="199.0317" y="-81.5" font-family="Helvetica,sans-Serif" font-size="10.00" fill="#000000">/electron_assignment/assigner.hpp</text>
</a>
</g>
</g>
<!-- Node13&#45;&gt;Node14 -->
<g id="edge6" class="edge">
<title>Node13&#45;&gt;Node14</title>
<path fill="none" stroke="#191970" d="M199.0317,-130.1081C199.0317,-121.1539 199.0317,-111.3227 199.0317,-103.5765"/>
<polygon fill="#191970" stroke="#191970" points="195.5318,-130.3959 199.0317,-140.396 202.5318,-130.396 195.5318,-130.3959"/>
</g>
<!-- Node15 -->
<g id="node8" class="node">
<title>Node15</title>
<g id="a_node8"><a xlink:href="astar__optimisation_8hpp.html" target="_top" xlink:title=" ">
<polygon fill="#ffffff" stroke="#000000" points="54,-.5 54,-38.5 190.0635,-38.5 190.0635,-.5 54,-.5"/>
<text text-anchor="start" x="62" y="-26.5" font-family="Helvetica,sans-Serif" font-size="10.00" fill="#000000">include/indigox/algorithm</text>
<text text-anchor="start" x="62" y="-16.5" font-family="Helvetica,sans-Serif" font-size="10.00" fill="#000000">/electron_assignment/astar</text>
<text text-anchor="middle" x="122.0317" y="-6.5" font-family="Helvetica,sans-Serif" font-size="10.00" fill="#000000">_optimisation.hpp</text>
</a>
</g>
</g>
<!-- Node13&#45;&gt;Node15 -->
<g id="edge9" class="edge">
<title>Node13&#45;&gt;Node15</title>
<path fill="none" stroke="#191970" d="M141.8262,-136.0331C127.3102,-128.4746 113.456,-118.0887 105.0317,-104 92.9749,-83.8361 102.1005,-56.6229 110.9616,-38.5907"/>
<polygon fill="#191970" stroke="#191970" points="140.3765,-139.2194 150.9074,-140.3817 143.3998,-132.9059 140.3765,-139.2194"/>
</g>
<!-- Node16 -->
<g id="node9" class="node">
<title>Node16</title>
<g id="a_node9"><a xlink:href="local__optimisation_8hpp.html" target="_top" xlink:title=" ">
<polygon fill="#ffffff" stroke="#000000" points="225.8325,-.5 225.8325,-38.5 360.231,-38.5 360.231,-.5 225.8325,-.5"/>
<text text-anchor="start" x="233.8325" y="-26.5" font-family="Helvetica,sans-Serif" font-size="10.00" fill="#000000">include/indigox/algorithm</text>
<text text-anchor="start" x="233.8325" y="-16.5" font-family="Helvetica,sans-Serif" font-size="10.00" fill="#000000">/electron_assignment/local</text>
<text text-anchor="middle" x="293.0317" y="-6.5" font-family="Helvetica,sans-Serif" font-size="10.00" fill="#000000">_optimisation.hpp</text>
</a>
</g>
</g>
<!-- Node13&#45;&gt;Node16 -->
<g id="edge10" class="edge">
<title>Node13&#45;&gt;Node16</title>
<path fill="none" stroke="#191970" d="M256.2372,-136.0331C270.7533,-128.4746 284.6075,-118.0887 293.0317,-104 304.8517,-84.2322 302.1737,-56.9292 298.3348,-38.7684"/>
<polygon fill="#191970" stroke="#191970" points="254.6637,-132.9059 247.1561,-140.3817 257.687,-139.2194 254.6637,-132.9059"/>
</g>
<!-- Node14&#45;&gt;Node15 -->
<g id="edge7" class="edge">
<title>Node14&#45;&gt;Node15</title>
<path fill="none" stroke="#191970" d="M175.9033,-68.4742C165.4947,-59.0118 153.2927,-47.9191 143.136,-38.6857"/>
<polygon fill="#191970" stroke="#191970" points="173.6958,-71.1975 183.4496,-75.3345 178.4046,-66.0179 173.6958,-71.1975"/>
</g>
<!-- Node14&#45;&gt;Node16 -->
<g id="edge8" class="edge">
<title>Node14&#45;&gt;Node16</title>
<path fill="none" stroke="#191970" d="M226.1511,-69.3047C239.0946,-59.6659 254.5043,-48.1906 267.2681,-38.6857"/>
<polygon fill="#191970" stroke="#191970" points="223.984,-66.5546 218.054,-75.3345 228.1649,-72.1689 223.984,-66.5546"/>
</g>
<!-- Node18 -->
<g id="node11" class="node">
<title>Node18</title>
<g id="a_node11"><a xlink:href="molecule__impl_8hpp.html" target="_top" xlink:title=" ">
<polygon fill="#ffffff" stroke="#000000" points="368.8916,-75.5 368.8916,-103.5 487.1719,-103.5 487.1719,-75.5 368.8916,-75.5"/>
<text text-anchor="start" x="376.8916" y="-91.5" font-family="Helvetica,sans-Serif" font-size="10.00" fill="#000000">include/indigox/classes</text>
<text text-anchor="middle" x="428.0317" y="-81.5" font-family="Helvetica,sans-Serif" font-size="10.00" fill="#000000">/molecule_impl.hpp</text>
</a>
</g>
</g>
<!-- Node17&#45;&gt;Node18 -->
<g id="edge12" class="edge">
<title>Node17&#45;&gt;Node18</title>
<path fill="none" stroke="#191970" d="M358.4415,-134.7337C373.9155,-124.6755 392.363,-112.6847 406.3756,-103.5765"/>
<polygon fill="#191970" stroke="#191970" points="356.2072,-132.0115 349.7302,-140.396 360.0222,-137.8806 356.2072,-132.0115"/>
</g>
<!-- Node19&#45;&gt;Node18 -->
<g id="edge14" class="edge">
<title>Node19&#45;&gt;Node18</title>
<path fill="none" stroke="#191970" d="M446.543,-130.9907C442.4445,-121.8044 437.882,-111.5781 434.312,-103.5765"/>
<polygon fill="#191970" stroke="#191970" points="443.4684,-132.6897 450.7392,-140.396 449.861,-129.8376 443.4684,-132.6897"/>
</g>
</g>
</svg>
