<?xml version="1.0" encoding="UTF-8" standalone="no"?>
<!DOCTYPE svg PUBLIC "-//W3C//DTD SVG 1.1//EN"
 "http://www.w3.org/Graphics/SVG/1.1/DTD/svg11.dtd">
<!-- Generated by graphviz version 2.40.1 (20161225.0304)
 -->
<!-- Title: include/indigox/utils/numerics.hpp Pages: 1 -->
<svg width="443pt" height="92pt"
 viewBox="0.00 0.00 443.18 92.00" xmlns="http://www.w3.org/2000/svg" xmlns:xlink="http://www.w3.org/1999/xlink">
<g id="graph0" class="graph" transform="scale(1 1) rotate(0) translate(4 88)">
<title>include/indigox/utils/numerics.hpp</title>
<polygon fill="#ffffff" stroke="transparent" points="-4,4 -4,-88 439.1797,-88 439.1797,4 -4,4"/>
<!-- Node0 -->
<g id="node1" class="node">
<title>Node0</title>
<g id="a_node1"><a xlink:title=" ">
<polygon fill="#bfbfbf" stroke="#000000" points="171.2046,-55.5 171.2046,-83.5 273.9233,-83.5 273.9233,-55.5 171.2046,-55.5"/>
<text text-anchor="start" x="179.2046" y="-71.5" font-family="Helvetica,sans-Serif" font-size="10.00" fill="#000000">include/indigox/utils</text>
<text text-anchor="middle" x="222.564" y="-61.5" font-family="Helvetica,sans-Serif" font-size="10.00" fill="#000000">/numerics.hpp</text>
</a>
</g>
</g>
<!-- Node1 -->
<g id="node2" class="node">
<title>Node1</title>
<g id="a_node2"><a xlink:title=" ">
<polygon fill="#ffffff" stroke="#bfbfbf" points="0,-.5 0,-18.5 57.1279,-18.5 57.1279,-.5 0,-.5"/>
<text text-anchor="middle" x="28.564" y="-6.5" font-family="Helvetica,sans-Serif" font-size="10.00" fill="#000000">algorithm</text>
</a>
</g>
</g>
<!-- Node0&#45;&gt;Node1 -->
<g id="edge1" class="edge">
<title>Node0&#45;&gt;Node1</title>
<path fill="none" stroke="#191970" d="M177.0796,-55.4327C143.6299,-45.0874 98.6664,-31.1812 67.0051,-21.389"/>
<polygon fill="#191970" stroke="#191970" points="67.8121,-17.9751 57.2244,-18.364 65.7437,-24.6625 67.8121,-17.9751"/>
</g>
<!-- Node2 -->
<g id="node3" class="node">
<title>Node2</title>
<g id="a_node3"><a xlink:title=" ">
<polygon fill="#ffffff" stroke="#bfbfbf" points="74.9482,-.5 74.9482,-18.5 118.1797,-18.5 118.1797,-.5 74.9482,-.5"/>
<text text-anchor="middle" x="96.564" y="-6.5" font-family="Helvetica,sans-Serif" font-size="10.00" fill="#000000">cmath</text>
</a>
</g>
</g>
<!-- Node0&#45;&gt;Node2 -->
<g id="edge2" class="edge">
<title>Node0&#45;&gt;Node2</title>
<path fill="none" stroke="#191970" d="M193.0226,-55.4327C172.4264,-45.625 145.1091,-32.6167 124.8041,-22.9477"/>
<polygon fill="#191970" stroke="#191970" points="126.2726,-19.7704 115.7392,-18.6311 123.263,-26.0905 126.2726,-19.7704"/>
</g>
<!-- Node3 -->
<g id="node4" class="node">
<title>Node3</title>
<g id="a_node4"><a xlink:title=" ">
<polygon fill="#ffffff" stroke="#bfbfbf" points="136.1133,-.5 136.1133,-18.5 181.0146,-18.5 181.0146,-.5 136.1133,-.5"/>
<text text-anchor="middle" x="158.564" y="-6.5" font-family="Helvetica,sans-Serif" font-size="10.00" fill="#000000">cstdint</text>
</a>
</g>
</g>
<!-- Node0&#45;&gt;Node3 -->
<g id="edge3" class="edge">
<title>Node0&#45;&gt;Node3</title>
<path fill="none" stroke="#191970" d="M207.3969,-55.2808C197.8301,-46.312 185.4572,-34.7124 175.5598,-25.4335"/>
<polygon fill="#191970" stroke="#191970" points="177.943,-22.8702 168.2538,-18.5842 173.1554,-27.977 177.943,-22.8702"/>
</g>
<!-- Node4 -->
<g id="node5" class="node">
<title>Node4</title>
<g id="a_node5"><a xlink:title=" ">
<polygon fill="#ffffff" stroke="#bfbfbf" points="199.0024,-.5 199.0024,-18.5 246.1255,-18.5 246.1255,-.5 199.0024,-.5"/>
<text text-anchor="middle" x="222.564" y="-6.5" font-family="Helvetica,sans-Serif" font-size="10.00" fill="#000000">iterator</text>
</a>
</g>
</g>
<!-- Node0&#45;&gt;Node4 -->
<g id="edge4" class="edge">
<title>Node0&#45;&gt;Node4</title>
<path fill="none" stroke="#191970" d="M222.564,-55.2808C222.564,-47.3776 222.564,-37.4316 222.564,-28.8308"/>
<polygon fill="#191970" stroke="#191970" points="226.0641,-28.5842 222.564,-18.5842 219.0641,-28.5842 226.0641,-28.5842"/>
</g>
<!-- Node5 -->
<g id="node6" class="node">
<title>Node5</title>
<g id="a_node6"><a xlink:title=" ">
<polygon fill="#ffffff" stroke="#bfbfbf" points="263.7808,-.5 263.7808,-18.5 315.3472,-18.5 315.3472,-.5 263.7808,-.5"/>
<text text-anchor="middle" x="289.564" y="-6.5" font-family="Helvetica,sans-Serif" font-size="10.00" fill="#000000">numeric</text>
</a>
</g>
</g>
<!-- Node0&#45;&gt;Node5 -->
<g id="edge5" class="edge">
<title>Node0&#45;&gt;Node5</title>
<path fill="none" stroke="#191970" d="M238.442,-55.2808C248.4573,-46.312 261.4101,-34.7124 271.7715,-25.4335"/>
<polygon fill="#191970" stroke="#191970" points="274.3054,-27.8628 279.42,-18.5842 269.6355,-22.6481 274.3054,-27.8628"/>
</g>
<!-- Node6 -->
<g id="node7" class="node">
<title>Node6</title>
<g id="a_node7"><a xlink:title=" ">
<polygon fill="#ffffff" stroke="#bfbfbf" points="333.3374,-.5 333.3374,-18.5 373.7905,-18.5 373.7905,-.5 333.3374,-.5"/>
<text text-anchor="middle" x="353.564" y="-6.5" font-family="Helvetica,sans-Serif" font-size="10.00" fill="#000000">string</text>
</a>
</g>
</g>
<!-- Node0&#45;&gt;Node6 -->
<g id="edge6" class="edge">
<title>Node0&#45;&gt;Node6</title>
<path fill="none" stroke="#191970" d="M253.2776,-55.4327C274.788,-45.5806 303.3496,-32.4989 324.4893,-22.8167"/>
<polygon fill="#191970" stroke="#191970" points="325.9935,-25.9774 333.6278,-18.6311 323.0786,-19.6132 325.9935,-25.9774"/>
</g>
<!-- Node7 -->
<g id="node8" class="node">
<title>Node7</title>
<g id="a_node8"><a xlink:title=" ">
<polygon fill="#ffffff" stroke="#bfbfbf" points="391.9482,-.5 391.9482,-18.5 435.1797,-18.5 435.1797,-.5 391.9482,-.5"/>
<text text-anchor="middle" x="413.564" y="-6.5" font-family="Helvetica,sans-Serif" font-size="10.00" fill="#000000">vector</text>
</a>
</g>
</g>
<!-- Node0&#45;&gt;Node7 -->
<g id="edge7" class="edge">
<title>Node0&#45;&gt;Node7</title>
<path fill="none" stroke="#191970" d="M267.345,-55.4327C302.5123,-44.3853 350.6063,-29.2773 381.875,-19.4546"/>
<polygon fill="#191970" stroke="#191970" points="383.2998,-22.6758 391.7912,-16.3396 381.2019,-15.9975 383.2998,-22.6758"/>
</g>
</g>
</svg>
