<?xml version="1.0" encoding="UTF-8" standalone="no"?>
<!DOCTYPE svg PUBLIC "-//W3C//DTD SVG 1.1//EN"
 "http://www.w3.org/Graphics/SVG/1.1/DTD/svg11.dtd">
<!-- Generated by graphviz version 2.40.1 (20161225.0304)
 -->
<!-- Title: include/indigox/utils/numerics.hpp Pages: 1 -->
<!--zoomable 502 -->
<svg id="main" version="1.1" xmlns="http://www.w3.org/2000/svg" xmlns:xlink="http://www.w3.org/1999/xlink" xml:space="preserve" onload="init(evt)">
<style type="text/css"><![CDATA[
.edge:hover path { stroke: red; }
.edge:hover polygon { stroke: red; fill: red; }
]]></style>
<script type="text/javascript"><![CDATA[
var edges = document.getElementsByTagName('g');
if (edges && edges.length) {
  for (var i=0;i<edges.length;i++) {
    if (edges[i].id.substr(0,4)=='edge') {
      edges[i].setAttribute('class','edge');
    }
  }
}
]]></script>
        <defs>
                <circle id="rim" cx="0" cy="0" r="7"/>
                <circle id="rim2" cx="0" cy="0" r="3.5"/>
                <g id="zoomPlus">
                        <use xlink:href="#rim" fill="#404040">
                                <set attributeName="fill" to="#808080" begin="zoomplus.mouseover" end="zoomplus.mouseout"/>
                        </use>
                        <path d="M-4,0h8M0,-4v8" fill="none" stroke="white" stroke-width="1.5" pointer-events="none"/>
                </g>
                <g id="zoomMin">
                        <use xlink:href="#rim" fill="#404040">
                                <set attributeName="fill" to="#808080" begin="zoomminus.mouseover" end="zoomminus.mouseout"/>
                        </use>
                        <path d="M-4,0h8" fill="none" stroke="white" stroke-width="1.5" pointer-events="none"/>
                </g>
                <g id="dirArrow">
                        <path fill="none" stroke="white" stroke-width="1.5" d="M0,-3.0v7 M-2.5,-0.5L0,-3.0L2.5,-0.5"/>
                </g>
               <g id="resetDef">
                       <use xlink:href="#rim2" fill="#404040">
                               <set attributeName="fill" to="#808080" begin="reset.mouseover" end="reset.mouseout"/>
                       </use>
               </g>
        </defs>

<script type="text/javascript">
var viewWidth = 2341;
var viewHeight = 502;
var sectionId = 'dynsection-1';
</script>
<script xlink:href="svgpan.js"/>
<svg id="graph" class="graph">
<g id="viewport">
<title>include/indigox/utils/numerics.hpp</title>
<polygon fill="#ffffff" stroke="transparent" points="-4,4 -4,-498 2337.46,-498 2337.46,4 -4,4"/>
<!-- Node8 -->
<g id="node1" class="node">
<title>Node8</title>
<polygon fill="#bfbfbf" stroke="#000000" points="1724.5737,-465.5 1724.5737,-493.5 1827.2925,-493.5 1827.2925,-465.5 1724.5737,-465.5"/>
<text text-anchor="start" x="1732.5737" y="-481.5" font-family="Helvetica,sans-Serif" font-size="10.00" fill="#000000">include/indigox/utils</text>
<text text-anchor="middle" x="1775.9331" y="-471.5" font-family="Helvetica,sans-Serif" font-size="10.00" fill="#000000">/numerics.hpp</text>
</g>
<!-- Node9 -->
<g id="node2" class="node">
<title>Node9</title>
<g id="a_node2"><a xlink:href="cycles_8hpp.html" target="_top" xlink:title="include/indigox/algorithm\l/graph/cycles.hpp">
<polygon fill="#ffffff" stroke="#000000" points="1667.9014,-400.5 1667.9014,-428.5 1793.9648,-428.5 1793.9648,-400.5 1667.9014,-400.5"/>
<text text-anchor="start" x="1675.9014" y="-416.5" font-family="Helvetica,sans-Serif" font-size="10.00" fill="#000000">include/indigox/algorithm</text>
<text text-anchor="middle" x="1730.9331" y="-406.5" font-family="Helvetica,sans-Serif" font-size="10.00" fill="#000000">/graph/cycles.hpp</text>
</a>
</g>
</g>
<!-- Node8&#45;&gt;Node9 -->
<g id="edge1" class="edge">
<title>Node8&#45;&gt;Node9</title>
<path fill="none" stroke="#191970" d="M1760.4652,-457.1575C1753.903,-447.6788 1746.4536,-436.9186 1740.6784,-428.5765"/>
<polygon fill="#191970" stroke="#191970" points="1757.599,-459.1663 1766.1688,-465.396 1763.3543,-455.1818 1757.599,-459.1663"/>
</g>
<!-- Node39 -->
<g id="node32" class="node">
<title>Node39</title>
<g id="a_node32"><a xlink:href="parameterised_8hpp.html" target="_top" xlink:title="include/indigox/classes\l/parameterised.hpp">
<polygon fill="#ffffff" stroke="#000000" points="1927.793,-205.5 1927.793,-233.5 2046.0732,-233.5 2046.0732,-205.5 1927.793,-205.5"/>
<text text-anchor="start" x="1935.793" y="-221.5" font-family="Helvetica,sans-Serif" font-size="10.00" fill="#000000">include/indigox/classes</text>
<text text-anchor="middle" x="1986.9331" y="-211.5" font-family="Helvetica,sans-Serif" font-size="10.00" fill="#000000">/parameterised.hpp</text>
</a>
</g>
</g>
<!-- Node8&#45;&gt;Node39 -->
<g id="edge60" class="edge">
<title>Node8&#45;&gt;Node39</title>
<path fill="none" stroke="#191970" d="M1794.0349,-457.1945C1836.2787,-405.1404 1940.4269,-276.8062 1975.3243,-233.8047"/>
<polygon fill="#191970" stroke="#191970" points="1791.1617,-455.1806 1787.5779,-465.1509 1796.5971,-459.5916 1791.1617,-455.1806"/>
</g>
<!-- Node10 -->
<g id="node3" class="node">
<title>Node10</title>
<g id="a_node3"><a xlink:href="base__graph__impl_8hpp.html" target="_top" xlink:title="include/indigox/graph\l/base_graph_impl.hpp">
<polygon fill="#ffffff" stroke="#000000" points="1539.4531,-335.5 1539.4531,-363.5 1654.4131,-363.5 1654.4131,-335.5 1539.4531,-335.5"/>
<text text-anchor="start" x="1547.4531" y="-351.5" font-family="Helvetica,sans-Serif" font-size="10.00" fill="#000000">include/indigox/graph</text>
<text text-anchor="middle" x="1596.9331" y="-341.5" font-family="Helvetica,sans-Serif" font-size="10.00" fill="#000000">/base_graph_impl.hpp</text>
</a>
</g>
</g>
<!-- Node9&#45;&gt;Node10 -->
<g id="edge2" class="edge">
<title>Node9&#45;&gt;Node10</title>
<path fill="none" stroke="#191970" d="M1692.7783,-395.9921C1671.5386,-385.6892 1645.5189,-373.0677 1625.9524,-363.5765"/>
<polygon fill="#191970" stroke="#191970" points="1691.3322,-399.1806 1701.8571,-400.396 1694.3873,-392.8825 1691.3322,-399.1806"/>
</g>
<!-- Node33 -->
<g id="node26" class="node">
<title>Node33</title>
<g id="a_node26"><a xlink:href="cycles_8cpp.html" target="_top" xlink:title="src/algorithm/graph\l/cycles.cpp">
<polygon fill="#ffffff" stroke="#000000" points="1729.1377,-140.5 1729.1377,-168.5 1830.7285,-168.5 1830.7285,-140.5 1729.1377,-140.5"/>
<text text-anchor="start" x="1737.1377" y="-156.5" font-family="Helvetica,sans-Serif" font-size="10.00" fill="#000000">src/algorithm/graph</text>
<text text-anchor="middle" x="1779.9331" y="-146.5" font-family="Helvetica,sans-Serif" font-size="10.00" fill="#000000">/cycles.cpp</text>
</a>
</g>
</g>
<!-- Node9&#45;&gt;Node33 -->
<g id="edge59" class="edge">
<title>Node9&#45;&gt;Node33</title>
<path fill="none" stroke="#191970" d="M1735.5075,-390.2278C1745.543,-336.9782 1769.2333,-211.2742 1777.2372,-168.8047"/>
<polygon fill="#191970" stroke="#191970" points="1732.05,-389.6757 1733.6374,-400.1509 1738.9289,-390.9721 1732.05,-389.6757"/>
</g>
<!-- Node37 -->
<g id="node30" class="node">
<title>Node37</title>
<g id="a_node30"><a xlink:href="molecular_8hpp.html" target="_top" xlink:title="include/indigox/graph\l/molecular.hpp">
<polygon fill="#ffffff" stroke="#000000" points="1231.6772,-205.5 1231.6772,-233.5 1342.189,-233.5 1342.189,-205.5 1231.6772,-205.5"/>
<text text-anchor="start" x="1239.6772" y="-221.5" font-family="Helvetica,sans-Serif" font-size="10.00" fill="#000000">include/indigox/graph</text>
<text text-anchor="middle" x="1286.9331" y="-211.5" font-family="Helvetica,sans-Serif" font-size="10.00" fill="#000000">/molecular.hpp</text>
</a>
</g>
</g>
<!-- Node9&#45;&gt;Node37 -->
<g id="edge58" class="edge">
<title>Node9&#45;&gt;Node37</title>
<path fill="none" stroke="#191970" d="M1657.6272,-401.2738C1619.068,-393.011 1571.508,-380.7261 1530.9331,-364 1441.7207,-327.2242 1346.0865,-262.0581 1306.1585,-233.5316"/>
<polygon fill="#191970" stroke="#191970" points="1657.232,-404.7669 1667.7373,-403.3928 1658.668,-397.9158 1657.232,-404.7669"/>
</g>
<!-- Node11 -->
<g id="node4" class="node">
<title>Node11</title>
<g id="a_node4"><a xlink:href="base__graph_8hpp.html" target="_top" xlink:title="include/indigox/graph\l/base_graph.hpp">
<polygon fill="#ffffff" stroke="#000000" points="1468.6772,-270.5 1468.6772,-298.5 1579.189,-298.5 1579.189,-270.5 1468.6772,-270.5"/>
<text text-anchor="start" x="1476.6772" y="-286.5" font-family="Helvetica,sans-Serif" font-size="10.00" fill="#000000">include/indigox/graph</text>
<text text-anchor="middle" x="1523.9331" y="-276.5" font-family="Helvetica,sans-Serif" font-size="10.00" fill="#000000">/base_graph.hpp</text>
</a>
</g>
</g>
<!-- Node10&#45;&gt;Node11 -->
<g id="edge3" class="edge">
<title>Node10&#45;&gt;Node11</title>
<path fill="none" stroke="#191970" d="M1573.4583,-328.5978C1562.4356,-318.7831 1549.5889,-307.3442 1539.7421,-298.5765"/>
<polygon fill="#191970" stroke="#191970" points="1571.2972,-331.3599 1581.0932,-335.396 1575.9522,-326.132 1571.2972,-331.3599"/>
</g>
<!-- Node12 -->
<g id="node5" class="node">
<title>Node12</title>
<g id="a_node5"><a xlink:href="access_8hpp.html" target="_top" xlink:title="include/indigox/algorithm\l/access.hpp">
<polygon fill="#ffffff" stroke="#000000" points="1596.9014,-205.5 1596.9014,-233.5 1722.9648,-233.5 1722.9648,-205.5 1596.9014,-205.5"/>
<text text-anchor="start" x="1604.9014" y="-221.5" font-family="Helvetica,sans-Serif" font-size="10.00" fill="#000000">include/indigox/algorithm</text>
<text text-anchor="middle" x="1659.9331" y="-211.5" font-family="Helvetica,sans-Serif" font-size="10.00" fill="#000000">/access.hpp</text>
</a>
</g>
</g>
<!-- Node11&#45;&gt;Node12 -->
<g id="edge4" class="edge">
<title>Node11&#45;&gt;Node12</title>
<path fill="none" stroke="#191970" d="M1562.6574,-265.9921C1584.2141,-255.6892 1610.6222,-243.0677 1630.4807,-233.5765"/>
<polygon fill="#191970" stroke="#191970" points="1560.9563,-262.9258 1553.4431,-270.396 1563.9748,-269.2416 1560.9563,-262.9258"/>
</g>
<!-- Node15 -->
<g id="node8" class="node">
<title>Node15</title>
<g id="a_node8"><a xlink:href="assignment_8hpp.html" target="_top" xlink:title="include/indigox/graph\l/assignment.hpp">
<polygon fill="#ffffff" stroke="#000000" points="224.6772,-205.5 224.6772,-233.5 335.189,-233.5 335.189,-205.5 224.6772,-205.5"/>
<text text-anchor="start" x="232.6772" y="-221.5" font-family="Helvetica,sans-Serif" font-size="10.00" fill="#000000">include/indigox/graph</text>
<text text-anchor="middle" x="279.9331" y="-211.5" font-family="Helvetica,sans-Serif" font-size="10.00" fill="#000000">/assignment.hpp</text>
</a>
</g>
</g>
<!-- Node11&#45;&gt;Node15 -->
<g id="edge7" class="edge">
<title>Node11&#45;&gt;Node15</title>
<path fill="none" stroke="#191970" d="M1458.4333,-281.0776C1239.9063,-269.6594 538.2251,-232.996 335.3534,-222.3958"/>
<polygon fill="#191970" stroke="#191970" points="1458.3012,-284.5754 1468.4702,-281.602 1458.6665,-277.5849 1458.3012,-284.5754"/>
</g>
<!-- Node23 -->
<g id="node16" class="node">
<title>Node23</title>
<g id="a_node16"><a xlink:href="condensed_8hpp.html" target="_top" xlink:title="include/indigox/graph\l/condensed.hpp">
<polygon fill="#ffffff" stroke="#000000" points="1468.6772,-205.5 1468.6772,-233.5 1579.189,-233.5 1579.189,-205.5 1468.6772,-205.5"/>
<text text-anchor="start" x="1476.6772" y="-221.5" font-family="Helvetica,sans-Serif" font-size="10.00" fill="#000000">include/indigox/graph</text>
<text text-anchor="middle" x="1523.9331" y="-211.5" font-family="Helvetica,sans-Serif" font-size="10.00" fill="#000000">/condensed.hpp</text>
</a>
</g>
</g>
<!-- Node11&#45;&gt;Node23 -->
<g id="edge24" class="edge">
<title>Node11&#45;&gt;Node23</title>
<path fill="none" stroke="#191970" d="M1523.9331,-260.1081C1523.9331,-251.1539 1523.9331,-241.3227 1523.9331,-233.5765"/>
<polygon fill="#191970" stroke="#191970" points="1520.4332,-260.3959 1523.9331,-270.396 1527.4332,-260.396 1520.4332,-260.3959"/>
</g>
<!-- Node11&#45;&gt;Node37 -->
<g id="edge42" class="edge">
<title>Node11&#45;&gt;Node37</title>
<path fill="none" stroke="#191970" d="M1462.7322,-267.7149C1424.1646,-257.1373 1374.9323,-243.6348 1338.3837,-233.6109"/>
<polygon fill="#191970" stroke="#191970" points="1462.2298,-271.2063 1472.7994,-270.476 1464.0813,-264.4556 1462.2298,-271.2063"/>
</g>
<!-- Node13 -->
<g id="node6" class="node">
<title>Node13</title>
<g id="a_node6"><a xlink:href="connectivity_8cpp.html" target="_top" xlink:title="src/algorithm/graph\l/connectivity.cpp">
<polygon fill="#ffffff" stroke="#000000" points="1489.1377,-140.5 1489.1377,-168.5 1590.7285,-168.5 1590.7285,-140.5 1489.1377,-140.5"/>
<text text-anchor="start" x="1497.1377" y="-156.5" font-family="Helvetica,sans-Serif" font-size="10.00" fill="#000000">src/algorithm/graph</text>
<text text-anchor="middle" x="1539.9331" y="-146.5" font-family="Helvetica,sans-Serif" font-size="10.00" fill="#000000">/connectivity.cpp</text>
</a>
</g>
</g>
<!-- Node12&#45;&gt;Node13 -->
<g id="edge5" class="edge">
<title>Node12&#45;&gt;Node13</title>
<path fill="none" stroke="#191970" d="M1624.9946,-200.575C1606.1181,-190.3502 1583.207,-177.94 1565.9205,-168.5765"/>
<polygon fill="#191970" stroke="#191970" points="1623.435,-203.7106 1633.8949,-205.396 1626.769,-197.5556 1623.435,-203.7106"/>
</g>
<!-- Node14 -->
<g id="node7" class="node">
<title>Node14</title>
<g id="a_node7"><a xlink:href="isomorphism_8cpp.html" target="_top" xlink:title="src/algorithm/graph\l/isomorphism.cpp">
<polygon fill="#ffffff" stroke="#000000" points="1609.1377,-140.5 1609.1377,-168.5 1710.7285,-168.5 1710.7285,-140.5 1609.1377,-140.5"/>
<text text-anchor="start" x="1617.1377" y="-156.5" font-family="Helvetica,sans-Serif" font-size="10.00" fill="#000000">src/algorithm/graph</text>
<text text-anchor="middle" x="1659.9331" y="-146.5" font-family="Helvetica,sans-Serif" font-size="10.00" fill="#000000">/isomorphism.cpp</text>
</a>
</g>
</g>
<!-- Node12&#45;&gt;Node14 -->
<g id="edge6" class="edge">
<title>Node12&#45;&gt;Node14</title>
<path fill="none" stroke="#191970" d="M1659.9331,-195.1081C1659.9331,-186.1539 1659.9331,-176.3227 1659.9331,-168.5765"/>
<polygon fill="#191970" stroke="#191970" points="1656.4332,-195.3959 1659.9331,-205.396 1663.4332,-195.396 1656.4332,-195.3959"/>
</g>
<!-- Node16 -->
<g id="node9" class="node">
<title>Node16</title>
<g id="a_node9"><a xlink:href="assigner_8hpp.html" target="_top" xlink:title="include/indigox/algorithm\l/electron_assignment/assigner.hpp">
<polygon fill="#ffffff" stroke="#000000" points="62.6602,-140.5 62.6602,-168.5 233.2061,-168.5 233.2061,-140.5 62.6602,-140.5"/>
<text text-anchor="start" x="70.6602" y="-156.5" font-family="Helvetica,sans-Serif" font-size="10.00" fill="#000000">include/indigox/algorithm</text>
<text text-anchor="middle" x="147.9331" y="-146.5" font-family="Helvetica,sans-Serif" font-size="10.00" fill="#000000">/electron_assignment/assigner.hpp</text>
</a>
</g>
</g>
<!-- Node15&#45;&gt;Node16 -->
<g id="edge8" class="edge">
<title>Node15&#45;&gt;Node16</title>
<path fill="none" stroke="#191970" d="M242.066,-200.8533C221.1953,-190.5761 195.7073,-178.0252 176.5192,-168.5765"/>
<polygon fill="#191970" stroke="#191970" points="240.7736,-204.1182 251.2911,-205.396 243.866,-197.8383 240.7736,-204.1182"/>
</g>
<!-- Node17 -->
<g id="node10" class="node">
<title>Node17</title>
<g id="a_node10"><a xlink:href="astar__optimisation_8hpp.html" target="_top" xlink:title="include/indigox/algorithm\l/electron_assignment/astar\l_optimisation.hpp">
<polygon fill="#ffffff" stroke="#000000" points="285.9014,-65.5 285.9014,-103.5 421.9648,-103.5 421.9648,-65.5 285.9014,-65.5"/>
<text text-anchor="start" x="293.9014" y="-91.5" font-family="Helvetica,sans-Serif" font-size="10.00" fill="#000000">include/indigox/algorithm</text>
<text text-anchor="start" x="293.9014" y="-81.5" font-family="Helvetica,sans-Serif" font-size="10.00" fill="#000000">/electron_assignment/astar</text>
<text text-anchor="middle" x="353.9331" y="-71.5" font-family="Helvetica,sans-Serif" font-size="10.00" fill="#000000">_optimisation.hpp</text>
</a>
</g>
</g>
<!-- Node15&#45;&gt;Node17 -->
<g id="edge18" class="edge">
<title>Node15&#45;&gt;Node17</title>
<path fill="none" stroke="#191970" d="M290.0878,-196.2415C297.3349,-180.1738 307.593,-158.4573 317.9331,-140 324.8935,-127.5755 333.5573,-114.1659 340.6413,-103.6405"/>
<polygon fill="#191970" stroke="#191970" points="286.8639,-194.8775 285.9908,-205.4363 293.2579,-197.7266 286.8639,-194.8775"/>
</g>
<!-- Node18 -->
<g id="node11" class="node">
<title>Node18</title>
<g id="a_node11"><a xlink:href="assigner_8cpp.html" target="_top" xlink:title="src/algorithm/electron\l_assignment/assigner.cpp">
<polygon fill="#ffffff" stroke="#000000" points="192.1182,-.5 192.1182,-28.5 323.748,-28.5 323.748,-.5 192.1182,-.5"/>
<text text-anchor="start" x="200.1182" y="-16.5" font-family="Helvetica,sans-Serif" font-size="10.00" fill="#000000">src/algorithm/electron</text>
<text text-anchor="middle" x="257.9331" y="-6.5" font-family="Helvetica,sans-Serif" font-size="10.00" fill="#000000">_assignment/assigner.cpp</text>
</a>
</g>
</g>
<!-- Node15&#45;&gt;Node18 -->
<g id="edge20" class="edge">
<title>Node15&#45;&gt;Node18</title>
<path fill="none" stroke="#191970" d="M277.3299,-195.2425C272.6979,-152.0815 263.1642,-63.2439 259.4558,-28.6891"/>
<polygon fill="#191970" stroke="#191970" points="273.8738,-195.8401 278.421,-205.4095 280.8338,-195.0931 273.8738,-195.8401"/>
</g>
<!-- Node19 -->
<g id="node12" class="node">
<title>Node19</title>
<g id="a_node12"><a xlink:href="astar__optimisation_8cpp.html" target="_top" xlink:title="src/algorithm/electron\l_assignment/astar_optimisation.cpp">
<polygon fill="#ffffff" stroke="#000000" points="419.1675,-.5 419.1675,-28.5 594.6987,-28.5 594.6987,-.5 419.1675,-.5"/>
<text text-anchor="start" x="427.1675" y="-16.5" font-family="Helvetica,sans-Serif" font-size="10.00" fill="#000000">src/algorithm/electron</text>
<text text-anchor="middle" x="506.9331" y="-6.5" font-family="Helvetica,sans-Serif" font-size="10.00" fill="#000000">_assignment/astar_optimisation.cpp</text>
</a>
</g>
</g>
<!-- Node15&#45;&gt;Node19 -->
<g id="edge21" class="edge">
<title>Node15&#45;&gt;Node19</title>
<path fill="none" stroke="#191970" d="M345.3058,-217.1169C489.6002,-211.4366 831.443,-195.5571 943.9331,-169 977.1075,-161.1681 982.2368,-149.6346 1014.9331,-140 1098.2131,-115.4599 1151.4865,-170.8091 1206.9331,-104 1218.0028,-90.6618 1218.7404,-77.6898 1206.9331,-65 1186.3779,-42.9085 778.3663,-24.7638 594.9351,-17.6888"/>
<polygon fill="#191970" stroke="#191970" points="345.1199,-213.6214 335.2639,-217.5082 345.3926,-220.6161 345.1199,-213.6214"/>
</g>
<!-- Node20 -->
<g id="node13" class="node">
<title>Node20</title>
<g id="a_node13"><a xlink:href="local__optimisation_8hpp.html" target="_top" xlink:title="include/indigox/algorithm\l/electron_assignment/local\l_optimisation.hpp">
<polygon fill="#ffffff" stroke="#000000" points="19.7339,-65.5 19.7339,-103.5 154.1323,-103.5 154.1323,-65.5 19.7339,-65.5"/>
<text text-anchor="start" x="27.7339" y="-91.5" font-family="Helvetica,sans-Serif" font-size="10.00" fill="#000000">include/indigox/algorithm</text>
<text text-anchor="start" x="27.7339" y="-81.5" font-family="Helvetica,sans-Serif" font-size="10.00" fill="#000000">/electron_assignment/local</text>
<text text-anchor="middle" x="86.9331" y="-71.5" font-family="Helvetica,sans-Serif" font-size="10.00" fill="#000000">_optimisation.hpp</text>
</a>
</g>
</g>
<!-- Node15&#45;&gt;Node20 -->
<g id="edge19" class="edge">
<title>Node15&#45;&gt;Node20</title>
<path fill="none" stroke="#191970" d="M214.5131,-213.8447C155.0889,-207.1911 73.7756,-193.7657 53.9331,-169 38.3741,-149.5806 54.5911,-121.9442 69.2874,-103.631"/>
<polygon fill="#191970" stroke="#191970" points="214.2726,-217.339 224.5905,-214.9323 215.0239,-210.3794 214.2726,-217.339"/>
</g>
<!-- Node21 -->
<g id="node14" class="node">
<title>Node21</title>
<g id="a_node14"><a xlink:href="local__optimisation_8cpp.html" target="_top" xlink:title="src/algorithm/electron\l_assignment/local_optimisation.cpp">
<polygon fill="#ffffff" stroke="#000000" points="0,-.5 0,-28.5 173.8662,-28.5 173.8662,-.5 0,-.5"/>
<text text-anchor="start" x="8" y="-16.5" font-family="Helvetica,sans-Serif" font-size="10.00" fill="#000000">src/algorithm/electron</text>
<text text-anchor="middle" x="86.9331" y="-6.5" font-family="Helvetica,sans-Serif" font-size="10.00" fill="#000000">_assignment/local_optimisation.cpp</text>
</a>
</g>
</g>
<!-- Node15&#45;&gt;Node21 -->
<g id="edge22" class="edge">
<title>Node15&#45;&gt;Node21</title>
<path fill="none" stroke="#191970" d="M214.3089,-211.8556C154.0241,-203.7115 70.1825,-189.2007 43.9331,-169 5.5024,-139.4249 -11.9813,-107.738 10.9331,-65 19.6913,-48.665 36.3187,-36.7129 51.7929,-28.5494"/>
<polygon fill="#191970" stroke="#191970" points="214.147,-215.3645 224.5194,-213.2049 215.0642,-208.4249 214.147,-215.3645"/>
</g>
<!-- Node22 -->
<g id="node15" class="node">
<title>Node22</title>
<g id="a_node15"><a xlink:href="assignment_8cpp.html" target="_top" xlink:title="src/graph/assignment.cpp">
<polygon fill="#ffffff" stroke="#000000" points="326.6821,-145.5 326.6821,-163.5 457.1841,-163.5 457.1841,-145.5 326.6821,-145.5"/>
<text text-anchor="middle" x="391.9331" y="-151.5" font-family="Helvetica,sans-Serif" font-size="10.00" fill="#000000">src/graph/assignment.cpp</text>
</a>
</g>
</g>
<!-- Node15&#45;&gt;Node22 -->
<g id="edge23" class="edge">
<title>Node15&#45;&gt;Node22</title>
<path fill="none" stroke="#191970" d="M313.1262,-200.2361C334.0169,-188.1121 360.0146,-173.0241 376.2974,-163.5743"/>
<polygon fill="#191970" stroke="#191970" points="311.1276,-197.3493 304.2354,-205.396 314.6413,-203.4036 311.1276,-197.3493"/>
</g>
<!-- Node16&#45;&gt;Node17 -->
<g id="edge9" class="edge">
<title>Node16&#45;&gt;Node17</title>
<path fill="none" stroke="#191970" d="M199.4554,-136.9924C229.4035,-126.8159 267.1669,-113.9837 297.8596,-103.5541"/>
<polygon fill="#191970" stroke="#191970" points="197.9625,-133.8031 189.6203,-140.3345 200.2147,-140.4309 197.9625,-133.8031"/>
</g>
<!-- Node16&#45;&gt;Node18 -->
<g id="edge15" class="edge">
<title>Node16&#45;&gt;Node18</title>
<path fill="none" stroke="#191970" d="M165.3237,-132.3665C188.1437,-103.3228 227.5412,-53.1806 246.7509,-28.732"/>
<polygon fill="#191970" stroke="#191970" points="162.512,-130.28 159.0858,-140.3056 168.0162,-134.6048 162.512,-130.28"/>
</g>
<!-- Node16&#45;&gt;Node19 -->
<g id="edge16" class="edge">
<title>Node16&#45;&gt;Node19</title>
<path fill="none" stroke="#191970" d="M243.5541,-144.4409C312.8029,-135.8597 399.5384,-122.0458 430.9331,-104 462.7444,-85.7147 487.3943,-48.8957 499.2265,-28.6459"/>
<polygon fill="#191970" stroke="#191970" points="242.976,-140.9854 233.4726,-145.6689 243.8224,-147.934 242.976,-140.9854"/>
</g>
<!-- Node16&#45;&gt;Node20 -->
<g id="edge12" class="edge">
<title>Node16&#45;&gt;Node20</title>
<path fill="none" stroke="#191970" d="M128.8794,-132.6351C120.7976,-123.3609 111.4616,-112.6475 103.652,-103.6857"/>
<polygon fill="#191970" stroke="#191970" points="126.3803,-135.0948 135.5888,-140.3345 131.6577,-130.4959 126.3803,-135.0948"/>
</g>
<!-- Node16&#45;&gt;Node21 -->
<g id="edge17" class="edge">
<title>Node16&#45;&gt;Node21</title>
<path fill="none" stroke="#191970" d="M159.6512,-130.9307C167.2622,-112.0692 173.9134,-85.4794 162.9331,-65 154.1749,-48.665 137.5475,-36.7129 122.0733,-28.5494"/>
<polygon fill="#191970" stroke="#191970" points="156.3658,-129.7075 155.5513,-140.271 162.7755,-132.521 156.3658,-129.7075"/>
</g>
<!-- Node17&#45;&gt;Node18 -->
<g id="edge10" class="edge">
<title>Node17&#45;&gt;Node18</title>
<path fill="none" stroke="#191970" d="M319.6023,-59.4671C305.4368,-49.1381 289.5386,-37.5457 277.4324,-28.7183"/>
<polygon fill="#191970" stroke="#191970" points="317.5585,-62.3085 327.7007,-65.3722 321.6827,-56.6524 317.5585,-62.3085"/>
</g>
<!-- Node17&#45;&gt;Node19 -->
<g id="edge11" class="edge">
<title>Node17&#45;&gt;Node19</title>
<path fill="none" stroke="#191970" d="M404.8776,-61.1921C428.3634,-50.4469 455.4799,-38.0407 475.8561,-28.7183"/>
<polygon fill="#191970" stroke="#191970" points="403.3783,-58.029 395.741,-65.3722 406.2907,-64.3944 403.3783,-58.029"/>
</g>
<!-- Node20&#45;&gt;Node18 -->
<g id="edge13" class="edge">
<title>Node20&#45;&gt;Node18</title>
<path fill="none" stroke="#191970" d="M143.2092,-61.463C169.713,-50.6135 200.4756,-38.0206 223.4702,-28.6076"/>
<polygon fill="#191970" stroke="#191970" points="141.5882,-58.3446 133.6596,-65.3722 144.2402,-64.8228 141.5882,-58.3446"/>
</g>
<!-- Node20&#45;&gt;Node21 -->
<g id="edge14" class="edge">
<title>Node20&#45;&gt;Node21</title>
<path fill="none" stroke="#191970" d="M86.9331,-55.1346C86.9331,-46.0837 86.9331,-36.5165 86.9331,-28.9404"/>
<polygon fill="#191970" stroke="#191970" points="83.4332,-55.3722 86.9331,-65.3722 90.4332,-55.3722 83.4332,-55.3722"/>
</g>
<!-- Node23&#45;&gt;Node13 -->
<g id="edge34" class="edge">
<title>Node23&#45;&gt;Node13</title>
<path fill="none" stroke="#191970" d="M1529.8647,-195.4029C1532.0881,-186.3703 1534.5404,-176.4078 1536.4681,-168.5765"/>
<polygon fill="#191970" stroke="#191970" points="1526.3966,-194.8492 1527.4049,-205.396 1533.1937,-196.5224 1526.3966,-194.8492"/>
</g>
<!-- Node23&#45;&gt;Node14 -->
<g id="edge36" class="edge">
<title>Node23&#45;&gt;Node14</title>
<path fill="none" stroke="#191970" d="M1562.6574,-200.9921C1584.2141,-190.6892 1610.6222,-178.0677 1630.4807,-168.5765"/>
<polygon fill="#191970" stroke="#191970" points="1560.9563,-197.9258 1553.4431,-205.396 1563.9748,-204.2416 1560.9563,-197.9258"/>
</g>
<!-- Node24 -->
<g id="node17" class="node">
<title>Node24</title>
<g id="a_node17"><a xlink:href="molecule__impl_8hpp.html" target="_top" xlink:title="include/indigox/classes\l/molecule_impl.hpp">
<polygon fill="#ffffff" stroke="#000000" points="816.793,-140.5 816.793,-168.5 935.0732,-168.5 935.0732,-140.5 816.793,-140.5"/>
<text text-anchor="start" x="824.793" y="-156.5" font-family="Helvetica,sans-Serif" font-size="10.00" fill="#000000">include/indigox/classes</text>
<text text-anchor="middle" x="875.9331" y="-146.5" font-family="Helvetica,sans-Serif" font-size="10.00" fill="#000000">/molecule_impl.hpp</text>
</a>
</g>
</g>
<!-- Node23&#45;&gt;Node24 -->
<g id="edge25" class="edge">
<title>Node23&#45;&gt;Node24</title>
<path fill="none" stroke="#191970" d="M1458.0939,-212.8958C1331.5734,-200.2047 1056.3037,-172.5927 935.1676,-160.4417"/>
<polygon fill="#191970" stroke="#191970" points="1458.1054,-216.4144 1468.4049,-213.93 1458.8042,-209.4493 1458.1054,-216.4144"/>
</g>
<!-- Node29 -->
<g id="node22" class="node">
<title>Node29</title>
<g id="a_node22"><a xlink:href="molecule_8cpp.html" target="_top" xlink:title="src/classes/molecule.cpp">
<polygon fill="#ffffff" stroke="#000000" points="1394.3569,-75.5 1394.3569,-93.5 1521.5093,-93.5 1521.5093,-75.5 1394.3569,-75.5"/>
<text text-anchor="middle" x="1457.9331" y="-81.5" font-family="Helvetica,sans-Serif" font-size="10.00" fill="#000000">src/classes/molecule.cpp</text>
</a>
</g>
</g>
<!-- Node23&#45;&gt;Node29 -->
<g id="edge39" class="edge">
<title>Node23&#45;&gt;Node29</title>
<path fill="none" stroke="#191970" d="M1589.5022,-205.1048C1733.5637,-189.4043 2215.8541,-227.8263 2134.9331,-140 2114.3065,-117.6133 1686.4534,-95.2305 1521.7658,-87.4117"/>
<polygon fill="#191970" stroke="#191970" points="1588.8193,-201.6631 1579.3364,-206.388 1589.696,-208.608 1588.8193,-201.6631"/>
</g>
<!-- Node31 -->
<g id="node24" class="node">
<title>Node31</title>
<g id="a_node24"><a xlink:href="molecular_8cpp.html" target="_top" xlink:title="src/graph/molecular.cpp">
<polygon fill="#ffffff" stroke="#000000" points="1253.8496,-75.5 1253.8496,-93.5 1376.0166,-93.5 1376.0166,-75.5 1253.8496,-75.5"/>
<text text-anchor="middle" x="1314.9331" y="-81.5" font-family="Helvetica,sans-Serif" font-size="10.00" fill="#000000">src/graph/molecular.cpp</text>
</a>
</g>
</g>
<!-- Node23&#45;&gt;Node31 -->
<g id="edge41" class="edge">
<title>Node23&#45;&gt;Node31</title>
<path fill="none" stroke="#191970" d="M1589.2435,-204.9889C1712.906,-186.0959 1916.3597,-222.7124 1839.9331,-140 1805.5165,-102.7527 1434.8693,-112.8456 1384.9331,-104 1370.7719,-101.4915 1355.3418,-97.3502 1342.5811,-93.5278"/>
<polygon fill="#191970" stroke="#191970" points="1588.6596,-201.5379 1579.3794,-206.6495 1589.8217,-208.4407 1588.6596,-201.5379"/>
</g>
<!-- Node32 -->
<g id="node25" class="node">
<title>Node32</title>
<g id="a_node25"><a xlink:href="cherrypicker_8cpp.html" target="_top" xlink:title="src/algorithm/cherrypicker.cpp">
<polygon fill="#ffffff" stroke="#000000" points="1977.5195,-145.5 1977.5195,-163.5 2126.3467,-163.5 2126.3467,-145.5 1977.5195,-145.5"/>
<text text-anchor="middle" x="2051.9331" y="-151.5" font-family="Helvetica,sans-Serif" font-size="10.00" fill="#000000">src/algorithm/cherrypicker.cpp</text>
</a>
</g>
</g>
<!-- Node23&#45;&gt;Node32 -->
<g id="edge33" class="edge">
<title>Node23&#45;&gt;Node32</title>
<path fill="none" stroke="#191970" d="M1589.2701,-204.9156C1757.1816,-178.6937 1802.9815,-191.0176 1967.9331,-169 1979.3749,-167.4728 1991.6424,-165.5301 2003.1703,-163.5669"/>
<polygon fill="#191970" stroke="#191970" points="1588.6806,-201.4652 1579.3514,-206.4868 1589.7759,-208.379 1588.6806,-201.4652"/>
</g>
<!-- Node23&#45;&gt;Node33 -->
<g id="edge35" class="edge">
<title>Node23&#45;&gt;Node33</title>
<path fill="none" stroke="#191970" d="M1589.05,-202.9664C1632.4016,-191.9592 1688.5579,-177.7007 1728.7178,-167.5039"/>
<polygon fill="#191970" stroke="#191970" points="1587.9972,-199.6226 1579.1661,-205.476 1589.7199,-206.4073 1587.9972,-199.6226"/>
</g>
<!-- Node34 -->
<g id="node27" class="node">
<title>Node34</title>
<g id="a_node27"><a xlink:href="paths_8cpp.html" target="_top" xlink:title="src/algorithm/graph\l/paths.cpp">
<polygon fill="#ffffff" stroke="#000000" points="1369.1377,-140.5 1369.1377,-168.5 1470.7285,-168.5 1470.7285,-140.5 1369.1377,-140.5"/>
<text text-anchor="start" x="1377.1377" y="-156.5" font-family="Helvetica,sans-Serif" font-size="10.00" fill="#000000">src/algorithm/graph</text>
<text text-anchor="middle" x="1419.9331" y="-146.5" font-family="Helvetica,sans-Serif" font-size="10.00" fill="#000000">/paths.cpp</text>
</a>
</g>
</g>
<!-- Node23&#45;&gt;Node34 -->
<g id="edge37" class="edge">
<title>Node23&#45;&gt;Node34</title>
<path fill="none" stroke="#191970" d="M1492.7573,-200.0151C1476.573,-189.8999 1457.1648,-177.7698 1442.4555,-168.5765"/>
<polygon fill="#191970" stroke="#191970" points="1491.0316,-203.0639 1501.3667,-205.396 1494.7417,-197.1279 1491.0316,-203.0639"/>
</g>
<!-- Node35 -->
<g id="node28" class="node">
<title>Node35</title>
<g id="a_node28"><a xlink:href="athenaeum_8cpp.html" target="_top" xlink:title="src/classes/athenaeum.cpp">
<polygon fill="#ffffff" stroke="#000000" points="1067.3472,-145.5 1067.3472,-163.5 1204.519,-163.5 1204.519,-145.5 1067.3472,-145.5"/>
<text text-anchor="middle" x="1135.9331" y="-151.5" font-family="Helvetica,sans-Serif" font-size="10.00" fill="#000000">src/classes/athenaeum.cpp</text>
</a>
</g>
</g>
<!-- Node23&#45;&gt;Node35 -->
<g id="edge38" class="edge">
<title>Node23&#45;&gt;Node35</title>
<path fill="none" stroke="#191970" d="M1458.2728,-209.2393C1395.4758,-199.323 1298.1486,-183.6853 1213.9331,-169 1204.1635,-167.2964 1193.7194,-165.4041 1183.7529,-163.564"/>
<polygon fill="#191970" stroke="#191970" points="1458.0082,-212.7407 1468.4313,-210.8411 1459.0985,-205.8261 1458.0082,-212.7407"/>
</g>
<!-- Node36 -->
<g id="node29" class="node">
<title>Node36</title>
<g id="a_node29"><a xlink:href="condensed_8cpp.html" target="_top" xlink:title="src/graph/condensed.cpp">
<polygon fill="#ffffff" stroke="#000000" points="1222.7856,-145.5 1222.7856,-163.5 1351.0806,-163.5 1351.0806,-145.5 1222.7856,-145.5"/>
<text text-anchor="middle" x="1286.9331" y="-151.5" font-family="Helvetica,sans-Serif" font-size="10.00" fill="#000000">src/graph/condensed.cpp</text>
</a>
</g>
</g>
<!-- Node23&#45;&gt;Node36 -->
<g id="edge40" class="edge">
<title>Node23&#45;&gt;Node36</title>
<path fill="none" stroke="#191970" d="M1463.0094,-202.791C1417.3598,-190.271 1356.6508,-173.6209 1319.7542,-163.5016"/>
<polygon fill="#191970" stroke="#191970" points="1462.2298,-206.2063 1472.7994,-205.476 1464.0813,-199.4556 1462.2298,-206.2063"/>
</g>
<!-- Node25 -->
<g id="node18" class="node">
<title>Node25</title>
<g id="a_node18"><a xlink:href="angle_8cpp.html" target="_top" xlink:title="src/classes/angle.cpp">
<polygon fill="#ffffff" stroke="#000000" points="692.1328,-75.5 692.1328,-93.5 803.7334,-93.5 803.7334,-75.5 692.1328,-75.5"/>
<text text-anchor="middle" x="747.9331" y="-81.5" font-family="Helvetica,sans-Serif" font-size="10.00" fill="#000000">src/classes/angle.cpp</text>
</a>
</g>
</g>
<!-- Node24&#45;&gt;Node25 -->
<g id="edge26" class="edge">
<title>Node24&#45;&gt;Node25</title>
<path fill="none" stroke="#191970" d="M841.2217,-135.5172C816.2787,-121.8765 783.7682,-104.0973 764.4497,-93.5325"/>
<polygon fill="#191970" stroke="#191970" points="839.5773,-138.6071 850.0304,-140.3345 842.936,-132.4655 839.5773,-138.6071"/>
</g>
<!-- Node26 -->
<g id="node19" class="node">
<title>Node26</title>
<g id="a_node19"><a xlink:href="atom_8cpp.html" target="_top" xlink:title="src/classes/atom.cpp">
<polygon fill="#ffffff" stroke="#000000" points="821.251,-75.5 821.251,-93.5 930.6152,-93.5 930.6152,-75.5 821.251,-75.5"/>
<text text-anchor="middle" x="875.9331" y="-81.5" font-family="Helvetica,sans-Serif" font-size="10.00" fill="#000000">src/classes/atom.cpp</text>
</a>
</g>
</g>
<!-- Node24&#45;&gt;Node26 -->
<g id="edge27" class="edge">
<title>Node24&#45;&gt;Node26</title>
<path fill="none" stroke="#191970" d="M875.9331,-130.007C875.9331,-117.4648 875.9331,-102.9386 875.9331,-93.7368"/>
<polygon fill="#191970" stroke="#191970" points="872.4332,-130.3344 875.9331,-140.3345 879.4332,-130.3345 872.4332,-130.3344"/>
</g>
<!-- Node27 -->
<g id="node20" class="node">
<title>Node27</title>
<g id="a_node20"><a xlink:href="bond_8cpp.html" target="_top" xlink:title="src/classes/bond.cpp">
<polygon fill="#ffffff" stroke="#000000" points="948.2437,-75.5 948.2437,-93.5 1057.6226,-93.5 1057.6226,-75.5 948.2437,-75.5"/>
<text text-anchor="middle" x="1002.9331" y="-81.5" font-family="Helvetica,sans-Serif" font-size="10.00" fill="#000000">src/classes/bond.cpp</text>
</a>
</g>
</g>
<!-- Node24&#45;&gt;Node27 -->
<g id="edge28" class="edge">
<title>Node24&#45;&gt;Node27</title>
<path fill="none" stroke="#191970" d="M910.6994,-135.3375C935.4042,-121.7207 967.462,-104.051 986.5455,-93.5325"/>
<polygon fill="#191970" stroke="#191970" points="908.7017,-132.442 901.6335,-140.3345 912.0808,-138.5725 908.7017,-132.442"/>
</g>
<!-- Node28 -->
<g id="node21" class="node">
<title>Node28</title>
<g id="a_node21"><a xlink:href="dihedral_8cpp.html" target="_top" xlink:title="src/classes/dihedral.cpp">
<polygon fill="#ffffff" stroke="#000000" points="1075.5762,-75.5 1075.5762,-93.5 1198.29,-93.5 1198.29,-75.5 1075.5762,-75.5"/>
<text text-anchor="middle" x="1136.9331" y="-81.5" font-family="Helvetica,sans-Serif" font-size="10.00" fill="#000000">src/classes/dihedral.cpp</text>
</a>
</g>
</g>
<!-- Node24&#45;&gt;Node28 -->
<g id="edge29" class="edge">
<title>Node24&#45;&gt;Node28</title>
<path fill="none" stroke="#191970" d="M939.6067,-137.8895C976.7714,-128.1383 1024.5449,-115.5072 1066.9331,-104 1079.3515,-100.6288 1092.9866,-96.8483 1104.8975,-93.5199"/>
<polygon fill="#191970" stroke="#191970" points="938.6945,-134.5103 929.909,-140.4318 940.4697,-141.2815 938.6945,-134.5103"/>
</g>
<!-- Node24&#45;&gt;Node29 -->
<g id="edge30" class="edge">
<title>Node24&#45;&gt;Node29</title>
<path fill="none" stroke="#191970" d="M945.6293,-147.6579C1083.7784,-134.0861 1379.5793,-104.974 1384.9331,-104 1399.388,-101.3703 1415.1675,-97.3091 1428.3458,-93.5724"/>
<polygon fill="#191970" stroke="#191970" points="945.1709,-144.186 935.561,-148.6469 945.8553,-151.1525 945.1709,-144.186"/>
</g>
<!-- Node30 -->
<g id="node23" class="node">
<title>Node30</title>
<g id="a_node23"><a xlink:href="residue_8cpp.html" target="_top" xlink:title="src/classes/residue.cpp">
<polygon fill="#ffffff" stroke="#000000" points="553.9678,-75.5 553.9678,-93.5 673.8984,-93.5 673.8984,-75.5 553.9678,-75.5"/>
<text text-anchor="middle" x="613.9331" y="-81.5" font-family="Helvetica,sans-Serif" font-size="10.00" fill="#000000">src/classes/residue.cpp</text>
</a>
</g>
</g>
<!-- Node24&#45;&gt;Node30 -->
<g id="edge31" class="edge">
<title>Node24&#45;&gt;Node30</title>
<path fill="none" stroke="#191970" d="M811.1617,-137.8883C773.6572,-128.1856 725.576,-115.6034 682.9331,-104 670.6813,-100.6662 657.2387,-96.8934 645.4993,-93.5606"/>
<polygon fill="#191970" stroke="#191970" points="810.3936,-141.3047 820.9513,-140.4177 812.1448,-134.5273 810.3936,-141.3047"/>
</g>
<!-- Node24&#45;&gt;Node31 -->
<g id="edge32" class="edge">
<title>Node24&#45;&gt;Node31</title>
<path fill="none" stroke="#191970" d="M945.2254,-144.4889C1012.2553,-134.6722 1116.6682,-119.0318 1206.9331,-104 1226.4792,-100.745 1247.9684,-96.9164 1266.5959,-93.5175"/>
<polygon fill="#191970" stroke="#191970" points="944.5935,-141.044 935.205,-145.9538 945.6062,-147.9703 944.5935,-141.044"/>
</g>
<!-- Node37&#45;&gt;Node13 -->
<g id="edge47" class="edge">
<title>Node37&#45;&gt;Node13</title>
<path fill="none" stroke="#191970" d="M1351.2538,-202.9749C1393.949,-192.0058 1449.2224,-177.8051 1488.8924,-167.6132"/>
<polygon fill="#191970" stroke="#191970" points="1350.3334,-199.5976 1341.5189,-205.476 1352.0753,-206.3775 1350.3334,-199.5976"/>
</g>
<!-- Node37&#45;&gt;Node14 -->
<g id="edge49" class="edge">
<title>Node37&#45;&gt;Node14</title>
<path fill="none" stroke="#191970" d="M1352.5624,-210.4158C1416.0777,-201.2701 1514.9527,-186.0974 1599.9331,-169 1602.8748,-168.4082 1605.8908,-167.7723 1608.9296,-167.1092"/>
<polygon fill="#191970" stroke="#191970" points="1351.6948,-207.0043 1342.2919,-211.8865 1352.6871,-213.9336 1351.6948,-207.0043"/>
</g>
<!-- Node37&#45;&gt;Node18 -->
<g id="edge45" class="edge">
<title>Node37&#45;&gt;Node18</title>
<path fill="none" stroke="#191970" d="M1221.0003,-218.8918C1070.648,-216.8338 706.5079,-207.8658 590.9331,-169 510.5436,-141.9664 508.0185,-100.3712 430.9331,-65 396.3817,-49.1458 355.6582,-36.9654 322.4041,-28.5428"/>
<polygon fill="#191970" stroke="#191970" points="1221.405,-222.3973 1231.4499,-219.0283 1221.4965,-215.3979 1221.405,-222.3973"/>
</g>
<!-- Node37&#45;&gt;Node19 -->
<g id="edge46" class="edge">
<title>Node37&#45;&gt;Node19</title>
<path fill="none" stroke="#191970" d="M1221.4042,-215.8107C1093.6242,-208.2598 815.4953,-189.9757 721.9331,-169 640.1595,-150.6672 605.6415,-161.7711 544.9331,-104 523.1661,-83.2862 513.2974,-48.1079 509.3044,-28.5941"/>
<polygon fill="#191970" stroke="#191970" points="1221.2601,-219.3082 1231.448,-216.4004 1221.6704,-212.3202 1221.2601,-219.3082"/>
</g>
<!-- Node37&#45;&gt;Node22 -->
<g id="edge54" class="edge">
<title>Node37&#45;&gt;Node22</title>
<path fill="none" stroke="#191970" d="M1221.2553,-218.1007C1082.3155,-214.5555 748.5797,-202.9479 470.9331,-169 459.5832,-167.6123 447.399,-165.6258 436.0793,-163.5666"/>
<polygon fill="#191970" stroke="#191970" points="1221.232,-221.6011 1231.3163,-218.3519 1221.4069,-214.6033 1221.232,-221.6011"/>
</g>
<!-- Node37&#45;&gt;Node24 -->
<g id="edge43" class="edge">
<title>Node37&#45;&gt;Node24</title>
<path fill="none" stroke="#191970" d="M1221.1977,-209.1039C1142.2623,-196.6202 1011.0373,-175.8668 935.1304,-163.8621"/>
<polygon fill="#191970" stroke="#191970" points="1221.0798,-212.6287 1231.5038,-210.7338 1222.1733,-205.7146 1221.0798,-212.6287"/>
</g>
<!-- Node37&#45;&gt;Node29 -->
<g id="edge52" class="edge">
<title>Node37&#45;&gt;Node29</title>
<path fill="none" stroke="#191970" d="M1221.1948,-214.0291C1160.9429,-207.4896 1078.1218,-194.1258 1057.9331,-169 1049.86,-158.9527 1049.3324,-149.5995 1057.9331,-140 1106.7163,-85.5514 1313.0794,-117.4719 1384.9331,-104 1399.2447,-101.3167 1414.8697,-97.2943 1427.9785,-93.5984"/>
<polygon fill="#191970" stroke="#191970" points="1221.099,-217.5381 1231.4087,-215.0965 1221.8267,-210.576 1221.099,-217.5381"/>
</g>
<!-- Node37&#45;&gt;Node30 -->
<g id="edge53" class="edge">
<title>Node37&#45;&gt;Node30</title>
<path fill="none" stroke="#191970" d="M1221.1182,-215.0566C1108.6647,-207.048 884.282,-189.14 807.9331,-169 738.8434,-150.7749 662.7524,-111.4663 630.1803,-93.6316"/>
<polygon fill="#191970" stroke="#191970" points="1221.0929,-218.5635 1231.3149,-215.7775 1221.5866,-211.5809 1221.0929,-218.5635"/>
</g>
<!-- Node37&#45;&gt;Node31 -->
<g id="edge56" class="edge">
<title>Node37&#45;&gt;Node31</title>
<path fill="none" stroke="#191970" d="M1221.0095,-216.1114C1151.6944,-211.0059 1049.3395,-198.5599 1024.9331,-169 1016.7269,-159.0611 1016.6058,-149.8376 1024.9331,-140 1056.2314,-103.0253 1192.5558,-114.1048 1239.9331,-104 1254.0119,-100.9972 1269.4241,-97.098 1282.5954,-93.5762"/>
<polygon fill="#191970" stroke="#191970" points="1221.1877,-219.6324 1231.4081,-216.841 1221.6776,-212.6496 1221.1877,-219.6324"/>
</g>
<!-- Node37&#45;&gt;Node32 -->
<g id="edge44" class="edge">
<title>Node37&#45;&gt;Node32</title>
<path fill="none" stroke="#191970" d="M1352.467,-213.8073C1384.8086,-211.0489 1424.4115,-207.7471 1459.9331,-205 1685.6032,-187.5473 1743.2397,-196.2852 1967.9331,-169 1979.8329,-167.555 1992.6118,-165.5727 2004.5223,-163.5379"/>
<polygon fill="#191970" stroke="#191970" points="1351.9013,-210.3428 1342.236,-214.6824 1352.4979,-217.3173 1351.9013,-210.3428"/>
</g>
<!-- Node37&#45;&gt;Node33 -->
<g id="edge48" class="edge">
<title>Node37&#45;&gt;Node33</title>
<path fill="none" stroke="#191970" d="M1352.3028,-214.3581C1437.3948,-207.0983 1590.5243,-192.0958 1719.9331,-169 1722.8871,-168.4728 1725.9126,-167.8875 1728.9588,-167.263"/>
<polygon fill="#191970" stroke="#191970" points="1351.9393,-210.8762 1342.2692,-215.2051 1352.5282,-217.8514 1351.9393,-210.8762"/>
</g>
<!-- Node37&#45;&gt;Node34 -->
<g id="edge50" class="edge">
<title>Node37&#45;&gt;Node34</title>
<path fill="none" stroke="#191970" d="M1324.8032,-200.9921C1345.8844,-190.6892 1371.7099,-178.0677 1391.1304,-168.5765"/>
<polygon fill="#191970" stroke="#191970" points="1323.2397,-197.8605 1315.7921,-205.396 1326.3134,-204.1496 1323.2397,-197.8605"/>
</g>
<!-- Node37&#45;&gt;Node35 -->
<g id="edge51" class="edge">
<title>Node37&#45;&gt;Node35</title>
<path fill="none" stroke="#191970" d="M1244.813,-201.3688C1216.23,-189.0649 1179.6552,-173.3208 1157.0134,-163.5743"/>
<polygon fill="#191970" stroke="#191970" points="1243.5993,-204.6568 1254.1684,-205.396 1246.3671,-198.2272 1243.5993,-204.6568"/>
</g>
<!-- Node37&#45;&gt;Node36 -->
<g id="edge55" class="edge">
<title>Node37&#45;&gt;Node36</title>
<path fill="none" stroke="#191970" d="M1286.9331,-195.3747C1286.9331,-184.2832 1286.9331,-171.7952 1286.9331,-163.5743"/>
<polygon fill="#191970" stroke="#191970" points="1283.4332,-195.3959 1286.9331,-205.396 1290.4332,-195.396 1283.4332,-195.3959"/>
</g>
<!-- Node38 -->
<g id="node31" class="node">
<title>Node38</title>
<g id="a_node31"><a xlink:href="main_8cpp.html" target="_top" xlink:title="src/main.cpp">
<polygon fill="#ffffff" stroke="#000000" points="1886.5908,-145.5 1886.5908,-163.5 1959.2754,-163.5 1959.2754,-145.5 1886.5908,-145.5"/>
<text text-anchor="middle" x="1922.9331" y="-151.5" font-family="Helvetica,sans-Serif" font-size="10.00" fill="#000000">src/main.cpp</text>
</a>
</g>
</g>
<!-- Node37&#45;&gt;Node38 -->
<g id="edge57" class="edge">
<title>Node37&#45;&gt;Node38</title>
<path fill="none" stroke="#191970" d="M1352.764,-213.7939C1488.9146,-201.9481 1792.7222,-175.2688 1839.9331,-169 1855.1588,-166.9783 1871.8576,-164.1757 1886.2597,-161.5729"/>
<polygon fill="#191970" stroke="#191970" points="1352.131,-210.3356 1342.4718,-214.6889 1352.7375,-217.3093 1352.131,-210.3356"/>
</g>
<!-- Node39&#45;&gt;Node32 -->
<g id="edge61" class="edge">
<title>Node39&#45;&gt;Node32</title>
<path fill="none" stroke="#191970" d="M2008.3458,-198.0873C2020.061,-186.3721 2033.9599,-172.4732 2042.8588,-163.5743"/>
<polygon fill="#191970" stroke="#191970" points="2005.6333,-195.85 2001.0371,-205.396 2010.5831,-200.7998 2005.6333,-195.85"/>
</g>
<!-- Node39&#45;&gt;Node38 -->
<g id="edge63" class="edge">
<title>Node39&#45;&gt;Node38</title>
<path fill="none" stroke="#191970" d="M1965.8498,-198.0873C1954.3149,-186.3721 1940.6298,-172.4732 1931.8678,-163.5743"/>
<polygon fill="#191970" stroke="#191970" points="1963.536,-200.7259 1973.0461,-205.396 1968.524,-195.8146 1963.536,-200.7259"/>
</g>
<!-- Node40 -->
<g id="node33" class="node">
<title>Node40</title>
<g id="a_node33"><a xlink:href="parameterised_8cpp.html" target="_top" xlink:title="src/classes/parameterised.cpp">
<polygon fill="#ffffff" stroke="#000000" points="2182.4063,-145.5 2182.4063,-163.5 2333.46,-163.5 2333.46,-145.5 2182.4063,-145.5"/>
<text text-anchor="middle" x="2257.9331" y="-151.5" font-family="Helvetica,sans-Serif" font-size="10.00" fill="#000000">src/classes/parameterised.cpp</text>
</a>
</g>
</g>
<!-- Node39&#45;&gt;Node40 -->
<g id="edge62" class="edge">
<title>Node39&#45;&gt;Node40</title>
<path fill="none" stroke="#191970" d="M2055.2874,-203.105C2107.6292,-190.5507 2177.8599,-173.7058 2220.4035,-163.5016"/>
<polygon fill="#191970" stroke="#191970" points="2054.3103,-199.7401 2045.4024,-205.476 2055.943,-206.547 2054.3103,-199.7401"/>
</g>
</g>
</svg>
        <g id="navigator" transform="translate(0 0)" fill="#404254">
                <rect fill="#f2f5e9" fill-opacity="0.5" stroke="#606060" stroke-width=".5" x="0" y="0" width="60" height="60"/>
                <use id="zoomplus" xlink:href="#zoomPlus" x="17" y="9" onmousedown="handleZoom(evt,'in')"/>
                <use id="zoomminus" xlink:href="#zoomMin" x="42" y="9" onmousedown="handleZoom(evt,'out')"/>
                <use id="reset" xlink:href="#resetDef" x="30" y="36" onmousedown="handleReset()"/>
                <g id="arrowUp" xlink:href="#dirArrow" transform="translate(30 24)" onmousedown="handlePan(0,-1)">
                  <use xlink:href="#rim" fill="#404040">
                        <set attributeName="fill" to="#808080" begin="arrowUp.mouseover" end="arrowUp.mouseout"/>
                  </use>
                  <path fill="none" stroke="white" stroke-width="1.5" d="M0,-3.0v7 M-2.5,-0.5L0,-3.0L2.5,-0.5"/>
                </g>
                <g id="arrowRight" xlink:href="#dirArrow" transform="rotate(90) translate(36 -43)" onmousedown="handlePan(1,0)">
                  <use xlink:href="#rim" fill="#404040">
                        <set attributeName="fill" to="#808080" begin="arrowRight.mouseover" end="arrowRight.mouseout"/>
                  </use>
                  <path fill="none" stroke="white" stroke-width="1.5" d="M0,-3.0v7 M-2.5,-0.5L0,-3.0L2.5,-0.5"/>
                </g>
                <g id="arrowDown" xlink:href="#dirArrow" transform="rotate(180) translate(-30 -48)" onmousedown="handlePan(0,1)">
                  <use xlink:href="#rim" fill="#404040">
                        <set attributeName="fill" to="#808080" begin="arrowDown.mouseover" end="arrowDown.mouseout"/>
                  </use>
                  <path fill="none" stroke="white" stroke-width="1.5" d="M0,-3.0v7 M-2.5,-0.5L0,-3.0L2.5,-0.5"/>
                </g>
                <g id="arrowLeft" xlink:href="#dirArrow" transform="rotate(270) translate(-36 17)" onmousedown="handlePan(-1,0)">
                  <use xlink:href="#rim" fill="#404040">
                        <set attributeName="fill" to="#808080" begin="arrowLeft.mouseover" end="arrowLeft.mouseout"/>
                  </use>
                  <path fill="none" stroke="white" stroke-width="1.5" d="M0,-3.0v7 M-2.5,-0.5L0,-3.0L2.5,-0.5"/>
                </g>
        </g>
        <svg viewBox="0 0 15 15" width="100%" height="30px" preserveAspectRatio="xMaxYMin meet">
         <g id="arrow_out" transform="scale(0.3 0.3)">
          <a xlink:href="numerics_8hpp__dep__incl_org.svg" target="_base">
           <rect id="button" ry="5" rx="5" y="6" x="6" height="38" width="38"
                fill="#f2f5e9" fill-opacity="0.5" stroke="#606060" stroke-width="1.0"/>
           <path id="arrow"
             d="M 11.500037,31.436501 C 11.940474,20.09759 22.043105,11.32322 32.158766,21.979434 L 37.068811,17.246167 C 37.068811,17.246167 37.088388,32 37.088388,32 L 22.160133,31.978069 C 22.160133,31.978069 26.997745,27.140456 26.997745,27.140456 C 18.528582,18.264221 13.291696,25.230495 11.500037,31.436501 z"
             style="fill:#404040;"/>
          </a>
         </g>
        </svg>
</svg>
