<?xml version="1.0" encoding="UTF-8" standalone="no"?>
<!DOCTYPE svg PUBLIC "-//W3C//DTD SVG 1.1//EN"
 "http://www.w3.org/Graphics/SVG/1.1/DTD/svg11.dtd">
<!-- Generated by graphviz version 2.40.1 (20161225.0304)
 -->
<!-- Title: src/utils/options.cpp Pages: 1 -->
<svg width="188pt" height="82pt"
 viewBox="0.00 0.00 187.76 82.00" xmlns="http://www.w3.org/2000/svg" xmlns:xlink="http://www.w3.org/1999/xlink">
<g id="graph0" class="graph" transform="scale(1 1) rotate(0) translate(4 78)">
<title>src/utils/options.cpp</title>
<polygon fill="#ffffff" stroke="transparent" points="-4,4 -4,-78 183.7559,-78 183.7559,4 -4,4"/>
<!-- Node0 -->
<g id="node1" class="node">
<title>Node0</title>
<polygon fill="#bfbfbf" stroke="#000000" points="58.4604,-55.5 58.4604,-73.5 162.2778,-73.5 162.2778,-55.5 58.4604,-55.5"/>
<text text-anchor="middle" x="110.3691" y="-61.5" font-family="Helvetica,sans-Serif" font-size="10.00" fill="#000000">src/utils/options.cpp</text>
</g>
<!-- Node1 -->
<g id="node2" class="node">
<title>Node1</title>
<polygon fill="#ffffff" stroke="#bfbfbf" points="0,-.5 0,-18.5 122.7383,-18.5 122.7383,-.5 0,-.5"/>
<text text-anchor="middle" x="61.3691" y="-6.5" font-family="Helvetica,sans-Serif" font-size="10.00" fill="#000000">indigox/utils/options.hpp</text>
</g>
<!-- Node0&#45;&gt;Node1 -->
<g id="edge1" class="edge">
<title>Node0&#45;&gt;Node1</title>
<path fill="none" stroke="#191970" d="M102.2778,-55.4179C95.2979,-47.5833 85.0295,-36.0575 76.5268,-26.5137"/>
<polygon fill="#191970" stroke="#191970" points="78.9017,-23.9178 69.6363,-18.7795 73.6751,-28.5743 78.9017,-23.9178"/>
</g>
<!-- Node2 -->
<g id="node3" class="node">
<title>Node2</title>
<polygon fill="#ffffff" stroke="#bfbfbf" points="140.9824,-.5 140.9824,-18.5 179.7559,-18.5 179.7559,-.5 140.9824,-.5"/>
<text text-anchor="middle" x="160.3691" y="-6.5" font-family="Helvetica,sans-Serif" font-size="10.00" fill="#000000">limits</text>
</g>
<!-- Node0&#45;&gt;Node2 -->
<g id="edge2" class="edge">
<title>Node0&#45;&gt;Node2</title>
<path fill="none" stroke="#191970" d="M118.6256,-55.4179C125.8199,-47.5041 136.4379,-35.8243 145.1645,-26.2251"/>
<polygon fill="#191970" stroke="#191970" points="147.7963,-28.5332 151.9333,-18.7795 142.6167,-23.8245 147.7963,-28.5332"/>
</g>
</g>
</svg>
