<?xml version="1.0" encoding="UTF-8" standalone="no"?>
<!DOCTYPE svg PUBLIC "-//W3C//DTD SVG 1.1//EN"
 "http://www.w3.org/Graphics/SVG/1.1/DTD/svg11.dtd">
<!-- Generated by graphviz version 2.40.1 (20161225.0304)
 -->
<!-- Title: include/indigox/classes/parameterised.hpp Pages: 1 -->
<svg width="417pt" height="92pt"
 viewBox="0.00 0.00 416.76 92.00" xmlns="http://www.w3.org/2000/svg" xmlns:xlink="http://www.w3.org/1999/xlink">
<g id="graph0" class="graph" transform="scale(1 1) rotate(0) translate(4 88)">
<title>include/indigox/classes/parameterised.hpp</title>
<polygon fill="#ffffff" stroke="transparent" points="-4,4 -4,-88 412.7559,-88 412.7559,4 -4,4"/>
<!-- Node31 -->
<g id="node1" class="node">
<title>Node31</title>
<polygon fill="#bfbfbf" stroke="#000000" points="183.2734,-55.5 183.2734,-83.5 301.5537,-83.5 301.5537,-55.5 183.2734,-55.5"/>
<text text-anchor="start" x="191.2734" y="-71.5" font-family="Helvetica,sans-Serif" font-size="10.00" fill="#000000">include/indigox/classes</text>
<text text-anchor="middle" x="242.4136" y="-61.5" font-family="Helvetica,sans-Serif" font-size="10.00" fill="#000000">/parameterised.hpp</text>
</g>
<!-- Node32 -->
<g id="node2" class="node">
<title>Node32</title>
<g id="a_node2"><a xlink:href="cherrypicker_8cpp.html" target="_top" xlink:title="src/algorithm/cherrypicker.cpp">
<polygon fill="#ffffff" stroke="#000000" points="0,-.5 0,-18.5 148.8271,-18.5 148.8271,-.5 0,-.5"/>
<text text-anchor="middle" x="74.4136" y="-6.5" font-family="Helvetica,sans-Serif" font-size="10.00" fill="#000000">src/algorithm/cherrypicker.cpp</text>
</a>
</g>
</g>
<!-- Node31&#45;&gt;Node32 -->
<g id="edge1" class="edge">
<title>Node31&#45;&gt;Node32</title>
<path fill="none" stroke="#191970" d="M193.388,-51.9909C162.8095,-41.07 124.7033,-27.4606 99.9805,-18.6311"/>
<polygon fill="#191970" stroke="#191970" points="192.4304,-55.3653 203.025,-55.4327 194.7848,-48.7731 192.4304,-55.3653"/>
</g>
<!-- Node33 -->
<g id="node3" class="node">
<title>Node33</title>
<g id="a_node3"><a xlink:href="parameterised_8cpp.html" target="_top" xlink:title="src/classes/parameterised.cpp">
<polygon fill="#ffffff" stroke="#000000" points="166.8867,-.5 166.8867,-18.5 317.9404,-18.5 317.9404,-.5 166.8867,-.5"/>
<text text-anchor="middle" x="242.4136" y="-6.5" font-family="Helvetica,sans-Serif" font-size="10.00" fill="#000000">src/classes/parameterised.cpp</text>
</a>
</g>
</g>
<!-- Node31&#45;&gt;Node33 -->
<g id="edge2" class="edge">
<title>Node31&#45;&gt;Node33</title>
<path fill="none" stroke="#191970" d="M242.4136,-45.2151C242.4136,-35.8253 242.4136,-25.6598 242.4136,-18.5842"/>
<polygon fill="#191970" stroke="#191970" points="238.9137,-45.2808 242.4136,-55.2808 245.9137,-45.2809 238.9137,-45.2808"/>
</g>
<!-- Node34 -->
<g id="node4" class="node">
<title>Node34</title>
<g id="a_node4"><a xlink:href="main_8cpp.html" target="_top" xlink:title="src/main.cpp">
<polygon fill="#ffffff" stroke="#000000" points="336.0713,-.5 336.0713,-18.5 408.7559,-18.5 408.7559,-.5 336.0713,-.5"/>
<text text-anchor="middle" x="372.4136" y="-6.5" font-family="Helvetica,sans-Serif" font-size="10.00" fill="#000000">src/main.cpp</text>
</a>
</g>
</g>
<!-- Node31&#45;&gt;Node34 -->
<g id="edge3" class="edge">
<title>Node31&#45;&gt;Node34</title>
<path fill="none" stroke="#191970" d="M282.2053,-51.1346C305.5368,-40.3662 333.9958,-27.2313 352.6296,-18.6311"/>
<polygon fill="#191970" stroke="#191970" points="280.5057,-48.0642 272.8928,-55.4327 283.4391,-54.4199 280.5057,-48.0642"/>
</g>
</g>
</svg>
