<?xml version="1.0" encoding="UTF-8" standalone="no"?>
<!DOCTYPE svg PUBLIC "-//W3C//DTD SVG 1.1//EN"
 "http://www.w3.org/Graphics/SVG/1.1/DTD/svg11.dtd">
<!-- Generated by graphviz version 2.40.1 (20161225.0304)
 -->
<!-- Title: include/indigox/classes/parameterised.hpp Pages: 1 -->
<svg width="1941pt" height="267pt"
 viewBox="0.00 0.00 1940.52 267.00" xmlns="http://www.w3.org/2000/svg" xmlns:xlink="http://www.w3.org/1999/xlink">
<g id="graph0" class="graph" transform="scale(1 1) rotate(0) translate(4 263)">
<title>include/indigox/classes/parameterised.hpp</title>
<polygon fill="#ffffff" stroke="transparent" points="-4,4 -4,-263 1936.5171,-263 1936.5171,4 -4,4"/>
<!-- Node0 -->
<g id="node1" class="node">
<title>Node0</title>
<polygon fill="#bfbfbf" stroke="#000000" points="961.3105,-230.5 961.3105,-258.5 1079.5908,-258.5 1079.5908,-230.5 961.3105,-230.5"/>
<text text-anchor="start" x="969.3105" y="-246.5" font-family="Helvetica,sans-Serif" font-size="10.00" fill="#000000">include/indigox/classes</text>
<text text-anchor="middle" x="1020.4507" y="-236.5" font-family="Helvetica,sans-Serif" font-size="10.00" fill="#000000">/parameterised.hpp</text>
</g>
<!-- Node1 -->
<g id="node2" class="node">
<title>Node1</title>
<g id="a_node2"><a xlink:href="fwd__declares_8hpp.html" target="_top" xlink:title="../utils/fwd_declares.hpp">
<polygon fill="#ffffff" stroke="#000000" points="38.8105,-60.5 38.8105,-78.5 162.0908,-78.5 162.0908,-60.5 38.8105,-60.5"/>
<text text-anchor="middle" x="100.4507" y="-66.5" font-family="Helvetica,sans-Serif" font-size="10.00" fill="#000000">../utils/fwd_declares.hpp</text>
</a>
</g>
</g>
<!-- Node0&#45;&gt;Node1 -->
<g id="edge1" class="edge">
<title>Node0&#45;&gt;Node1</title>
<path fill="none" stroke="#191970" d="M961.04,-234.804C901.4065,-224.96 806.9469,-209.0636 725.4507,-194 513.0777,-154.7455 261.1881,-102.9677 153.5247,-80.5884"/>
<polygon fill="#191970" stroke="#191970" points="154.0653,-77.126 143.5621,-78.5159 152.6396,-83.9793 154.0653,-77.126"/>
</g>
<!-- Node4 -->
<g id="node5" class="node">
<title>Node4</title>
<g id="a_node5"><a xlink:href="numerics_8hpp.html" target="_top" xlink:title="../utils/numerics.hpp">
<polygon fill="#ffffff" stroke="#000000" points="733.9878,-175.5 733.9878,-193.5 838.9136,-193.5 838.9136,-175.5 733.9878,-175.5"/>
<text text-anchor="middle" x="786.4507" y="-181.5" font-family="Helvetica,sans-Serif" font-size="10.00" fill="#000000">../utils/numerics.hpp</text>
</a>
</g>
</g>
<!-- Node0&#45;&gt;Node4 -->
<g id="edge4" class="edge">
<title>Node0&#45;&gt;Node4</title>
<path fill="none" stroke="#191970" d="M965.5881,-230.4327C924.7909,-219.9719 869.794,-205.8701 831.5443,-196.0625"/>
<polygon fill="#191970" stroke="#191970" points="832.2694,-192.6352 821.7134,-193.5417 830.5307,-199.4159 832.2694,-192.6352"/>
</g>
<!-- Node10 -->
<g id="node11" class="node">
<title>Node10</title>
<polygon fill="#ffffff" stroke="#bfbfbf" points="922.835,-120.5 922.835,-138.5 966.0664,-138.5 966.0664,-120.5 922.835,-120.5"/>
<text text-anchor="middle" x="944.4507" y="-126.5" font-family="Helvetica,sans-Serif" font-size="10.00" fill="#000000">vector</text>
</g>
<!-- Node0&#45;&gt;Node10 -->
<g id="edge37" class="edge">
<title>Node0&#45;&gt;Node10</title>
<path fill="none" stroke="#191970" d="M1002.0582,-230.2252C991.0696,-220.9035 977.5281,-207.9119 968.4507,-194 959.3712,-180.085 953.074,-162.2549 949.2155,-148.8693"/>
<polygon fill="#191970" stroke="#191970" points="952.5025,-147.6122 946.5404,-138.8542 945.7396,-149.4187 952.5025,-147.6122"/>
</g>
<!-- Node11 -->
<g id="node12" class="node">
<title>Node11</title>
<g id="a_node12"><a xlink:href="quad_8hpp.html" target="_top" xlink:title="../utils/quad.hpp">
<polygon fill="#ffffff" stroke="#000000" points="977.1479,-175.5 977.1479,-193.5 1063.7534,-193.5 1063.7534,-175.5 977.1479,-175.5"/>
<text text-anchor="middle" x="1020.4507" y="-181.5" font-family="Helvetica,sans-Serif" font-size="10.00" fill="#000000">../utils/quad.hpp</text>
</a>
</g>
</g>
<!-- Node0&#45;&gt;Node11 -->
<g id="edge12" class="edge">
<title>Node0&#45;&gt;Node11</title>
<path fill="none" stroke="#191970" d="M1020.4507,-230.2808C1020.4507,-222.3776 1020.4507,-212.4316 1020.4507,-203.8308"/>
<polygon fill="#191970" stroke="#191970" points="1023.9508,-203.5842 1020.4507,-193.5842 1016.9508,-203.5842 1023.9508,-203.5842"/>
</g>
<!-- Node28 -->
<g id="node29" class="node">
<title>Node28</title>
<g id="a_node29"><a xlink:href="triple_8hpp.html" target="_top" xlink:title="../utils/triple.hpp">
<polygon fill="#ffffff" stroke="#000000" points="1081.4336,-175.5 1081.4336,-193.5 1167.4678,-193.5 1167.4678,-175.5 1081.4336,-175.5"/>
<text text-anchor="middle" x="1124.4507" y="-181.5" font-family="Helvetica,sans-Serif" font-size="10.00" fill="#000000">../utils/triple.hpp</text>
</a>
</g>
</g>
<!-- Node0&#45;&gt;Node28 -->
<g id="edge31" class="edge">
<title>Node0&#45;&gt;Node28</title>
<path fill="none" stroke="#191970" d="M1044.8341,-230.4327C1061.2956,-220.9356 1082.9589,-208.4376 1099.5317,-198.8763"/>
<polygon fill="#191970" stroke="#191970" points="1101.7107,-201.66 1108.6235,-193.6311 1098.2126,-195.5967 1101.7107,-201.66"/>
</g>
<!-- Node29 -->
<g id="node30" class="node">
<title>Node29</title>
<polygon fill="#ffffff" stroke="#bfbfbf" points="1185.9287,-175.5 1185.9287,-193.5 1296.9727,-193.5 1296.9727,-175.5 1185.9287,-175.5"/>
<text text-anchor="middle" x="1241.4507" y="-181.5" font-family="Helvetica,sans-Serif" font-size="10.00" fill="#000000">EASTL/vector_map.h</text>
</g>
<!-- Node0&#45;&gt;Node29 -->
<g id="edge35" class="edge">
<title>Node0&#45;&gt;Node29</title>
<path fill="none" stroke="#191970" d="M1072.2654,-230.4327C1110.6321,-220.0164 1162.2957,-205.99 1198.4002,-196.1879"/>
<polygon fill="#191970" stroke="#191970" points="1199.4134,-199.5396 1208.147,-193.5417 1197.5793,-192.7842 1199.4134,-199.5396"/>
</g>
<!-- Node30 -->
<g id="node31" class="node">
<title>Node30</title>
<polygon fill="#ffffff" stroke="#bfbfbf" points="1315.0591,-175.5 1315.0591,-193.5 1353.8423,-193.5 1353.8423,-175.5 1315.0591,-175.5"/>
<text text-anchor="middle" x="1334.4507" y="-181.5" font-family="Helvetica,sans-Serif" font-size="10.00" fill="#000000">array</text>
</g>
<!-- Node0&#45;&gt;Node30 -->
<g id="edge36" class="edge">
<title>Node0&#45;&gt;Node30</title>
<path fill="none" stroke="#191970" d="M1079.619,-236.7395C1135.6313,-228.7889 1222.1384,-214.9494 1305.1421,-194.0445"/>
<polygon fill="#191970" stroke="#191970" points="1306.1617,-197.3965 1314.9828,-191.5281 1304.4274,-190.6147 1306.1617,-197.3965"/>
</g>
<!-- Node2 -->
<g id="node3" class="node">
<title>Node2</title>
<polygon fill="#ffffff" stroke="#bfbfbf" points="0,-.5 0,-18.5 44.9014,-18.5 44.9014,-.5 0,-.5"/>
<text text-anchor="middle" x="22.4507" y="-6.5" font-family="Helvetica,sans-Serif" font-size="10.00" fill="#000000">cstdint</text>
</g>
<!-- Node1&#45;&gt;Node2 -->
<g id="edge2" class="edge">
<title>Node1&#45;&gt;Node2</title>
<path fill="none" stroke="#191970" d="M88.6042,-60.3873C76.2777,-50.9054 56.7667,-35.897 42.1222,-24.6319"/>
<polygon fill="#191970" stroke="#191970" points="44.2134,-21.8248 34.1531,-18.5019 39.9454,-27.3732 44.2134,-21.8248"/>
</g>
<!-- Node3 -->
<g id="node4" class="node">
<title>Node3</title>
<polygon fill="#ffffff" stroke="#bfbfbf" points="74.394,-.5 74.394,-18.5 126.5073,-18.5 126.5073,-.5 74.394,-.5"/>
<text text-anchor="middle" x="100.4507" y="-6.5" font-family="Helvetica,sans-Serif" font-size="10.00" fill="#000000">memory</text>
</g>
<!-- Node1&#45;&gt;Node3 -->
<g id="edge3" class="edge">
<title>Node1&#45;&gt;Node3</title>
<path fill="none" stroke="#191970" d="M100.4507,-60.3873C100.4507,-52.0174 100.4507,-39.3414 100.4507,-28.735"/>
<polygon fill="#191970" stroke="#191970" points="103.9508,-28.6984 100.4507,-18.6985 96.9508,-28.6985 103.9508,-28.6984"/>
</g>
<!-- Node4&#45;&gt;Node2 -->
<g id="edge7" class="edge">
<title>Node4&#45;&gt;Node2</title>
<path fill="none" stroke="#191970" d="M733.9841,-181.2702C570.5264,-170.7037 78.4339,-134.8964 29.4507,-84 15.558,-69.5647 15.8634,-45.485 18.3022,-28.6195"/>
<polygon fill="#191970" stroke="#191970" points="21.7512,-29.2151 20.0852,-18.7521 14.8627,-27.9704 21.7512,-29.2151"/>
</g>
<!-- Node5 -->
<g id="node6" class="node">
<title>Node5</title>
<polygon fill="#ffffff" stroke="#bfbfbf" points="593.8867,-120.5 593.8867,-138.5 651.0146,-138.5 651.0146,-120.5 593.8867,-120.5"/>
<text text-anchor="middle" x="622.4507" y="-126.5" font-family="Helvetica,sans-Serif" font-size="10.00" fill="#000000">algorithm</text>
</g>
<!-- Node4&#45;&gt;Node5 -->
<g id="edge5" class="edge">
<title>Node4&#45;&gt;Node5</title>
<path fill="none" stroke="#191970" d="M759.3694,-175.4179C731.9873,-166.2348 689.4842,-151.9807 659.0999,-141.7909"/>
<polygon fill="#191970" stroke="#191970" points="659.8935,-138.3655 649.2996,-138.5042 657.6678,-145.0023 659.8935,-138.3655"/>
</g>
<!-- Node6 -->
<g id="node7" class="node">
<title>Node6</title>
<polygon fill="#ffffff" stroke="#bfbfbf" points="668.835,-120.5 668.835,-138.5 712.0664,-138.5 712.0664,-120.5 668.835,-120.5"/>
<text text-anchor="middle" x="690.4507" y="-126.5" font-family="Helvetica,sans-Serif" font-size="10.00" fill="#000000">cmath</text>
</g>
<!-- Node4&#45;&gt;Node6 -->
<g id="edge6" class="edge">
<title>Node4&#45;&gt;Node6</title>
<path fill="none" stroke="#191970" d="M770.5982,-175.4179C755.5902,-166.8195 732.8223,-153.7754 715.3835,-143.7844"/>
<polygon fill="#191970" stroke="#191970" points="716.7435,-140.5299 706.3267,-138.5956 713.2636,-146.6037 716.7435,-140.5299"/>
</g>
<!-- Node7 -->
<g id="node8" class="node">
<title>Node7</title>
<polygon fill="#ffffff" stroke="#bfbfbf" points="729.8892,-120.5 729.8892,-138.5 777.0122,-138.5 777.0122,-120.5 729.8892,-120.5"/>
<text text-anchor="middle" x="753.4507" y="-126.5" font-family="Helvetica,sans-Serif" font-size="10.00" fill="#000000">iterator</text>
</g>
<!-- Node4&#45;&gt;Node7 -->
<g id="edge8" class="edge">
<title>Node4&#45;&gt;Node7</title>
<path fill="none" stroke="#191970" d="M781.0014,-175.4179C776.4431,-167.8207 769.8023,-156.7527 764.1827,-147.3866"/>
<polygon fill="#191970" stroke="#191970" points="767.1646,-145.5536 759.0184,-138.7795 761.1621,-149.1552 767.1646,-145.5536"/>
</g>
<!-- Node8 -->
<g id="node9" class="node">
<title>Node8</title>
<polygon fill="#ffffff" stroke="#bfbfbf" points="794.6675,-120.5 794.6675,-138.5 846.2339,-138.5 846.2339,-120.5 794.6675,-120.5"/>
<text text-anchor="middle" x="820.4507" y="-126.5" font-family="Helvetica,sans-Serif" font-size="10.00" fill="#000000">numeric</text>
</g>
<!-- Node4&#45;&gt;Node8 -->
<g id="edge9" class="edge">
<title>Node4&#45;&gt;Node8</title>
<path fill="none" stroke="#191970" d="M792.0651,-175.4179C796.7615,-167.8207 803.6036,-156.7527 809.3935,-147.3866"/>
<polygon fill="#191970" stroke="#191970" points="812.4331,-149.1258 814.7143,-138.7795 806.4789,-145.445 812.4331,-149.1258"/>
</g>
<!-- Node9 -->
<g id="node10" class="node">
<title>Node9</title>
<polygon fill="#ffffff" stroke="#bfbfbf" points="864.2241,-120.5 864.2241,-138.5 904.6772,-138.5 904.6772,-120.5 864.2241,-120.5"/>
<text text-anchor="middle" x="884.4507" y="-126.5" font-family="Helvetica,sans-Serif" font-size="10.00" fill="#000000">string</text>
</g>
<!-- Node4&#45;&gt;Node9 -->
<g id="edge10" class="edge">
<title>Node4&#45;&gt;Node9</title>
<path fill="none" stroke="#191970" d="M802.6334,-175.4179C818.0959,-166.7399 841.6275,-153.5334 859.4915,-143.5077"/>
<polygon fill="#191970" stroke="#191970" points="861.2364,-146.542 868.2439,-138.5956 857.8104,-140.4377 861.2364,-146.542"/>
</g>
<!-- Node4&#45;&gt;Node10 -->
<g id="edge11" class="edge">
<title>Node4&#45;&gt;Node10</title>
<path fill="none" stroke="#191970" d="M812.5412,-175.4179C839.9829,-165.8654 883.1882,-150.8255 912.6171,-140.5813"/>
<polygon fill="#191970" stroke="#191970" points="914.11,-143.7677 922.4035,-137.1746 911.8087,-137.1568 914.11,-143.7677"/>
</g>
<!-- Node12 -->
<g id="node13" class="node">
<title>Node12</title>
<polygon fill="#ffffff" stroke="#bfbfbf" points="1870.3843,-60.5 1870.3843,-78.5 1932.5171,-78.5 1932.5171,-60.5 1870.3843,-60.5"/>
<text text-anchor="middle" x="1901.4507" y="-66.5" font-family="Helvetica,sans-Serif" font-size="10.00" fill="#000000">type_traits</text>
</g>
<!-- Node11&#45;&gt;Node12 -->
<g id="edge13" class="edge">
<title>Node11&#45;&gt;Node12</title>
<path fill="none" stroke="#191970" d="M1028.5327,-175.3093C1042.224,-160.4847 1071.6124,-131.7679 1103.4507,-120 1261.6261,-61.5359 1696.0983,-117.1078 1861.4507,-84 1864.4678,-83.3959 1867.5621,-82.6045 1870.6287,-81.7027"/>
<polygon fill="#191970" stroke="#191970" points="1871.8033,-85.0007 1880.2006,-78.5404 1869.6074,-78.3541 1871.8033,-85.0007"/>
</g>
<!-- Node13 -->
<g id="node14" class="node">
<title>Node13</title>
<polygon fill="#ffffff" stroke="#bfbfbf" points="1112.0591,-120.5 1112.0591,-138.5 1150.8423,-138.5 1150.8423,-120.5 1112.0591,-120.5"/>
<text text-anchor="middle" x="1131.4507" y="-126.5" font-family="Helvetica,sans-Serif" font-size="10.00" fill="#000000">utility</text>
</g>
<!-- Node11&#45;&gt;Node13 -->
<g id="edge14" class="edge">
<title>Node11&#45;&gt;Node13</title>
<path fill="none" stroke="#191970" d="M1038.7801,-175.4179C1056.5348,-166.6205 1083.6821,-153.1691 1104.0123,-143.0956"/>
<polygon fill="#191970" stroke="#191970" points="1105.6876,-146.1716 1113.0941,-138.5956 1102.5797,-139.8994 1105.6876,-146.1716"/>
</g>
<!-- Node14 -->
<g id="node15" class="node">
<title>Node14</title>
<g id="a_node15"><a xlink:href="serialise_8hpp.html" target="_top" xlink:title="serialise.hpp">
<polygon fill="#ffffff" stroke="#000000" points="984.3794,-120.5 984.3794,-138.5 1056.522,-138.5 1056.522,-120.5 984.3794,-120.5"/>
<text text-anchor="middle" x="1020.4507" y="-126.5" font-family="Helvetica,sans-Serif" font-size="10.00" fill="#000000">serialise.hpp</text>
</a>
</g>
</g>
<!-- Node11&#45;&gt;Node14 -->
<g id="edge15" class="edge">
<title>Node11&#45;&gt;Node14</title>
<path fill="none" stroke="#191970" d="M1020.4507,-175.4179C1020.4507,-168.2164 1020.4507,-157.8962 1020.4507,-148.8632"/>
<polygon fill="#191970" stroke="#191970" points="1023.9508,-148.7794 1020.4507,-138.7795 1016.9508,-148.7795 1023.9508,-148.7794"/>
</g>
<!-- Node14&#45;&gt;Node1 -->
<g id="edge16" class="edge">
<title>Node14&#45;&gt;Node1</title>
<path fill="none" stroke="#191970" d="M984.1879,-121.3136C981.2417,-120.8107 978.3022,-120.3624 975.4507,-120 620.613,-74.9077 526.4353,-127.9209 171.4507,-84 164.1544,-83.0973 156.4895,-81.8511 149.0045,-80.4653"/>
<polygon fill="#191970" stroke="#191970" points="149.4456,-76.9855 138.9607,-78.5083 148.1067,-83.8563 149.4456,-76.9855"/>
</g>
<!-- Node14&#45;&gt;Node12 -->
<g id="edge30" class="edge">
<title>Node14&#45;&gt;Node12</title>
<path fill="none" stroke="#191970" d="M1056.678,-121.9896C1061.2982,-121.2168 1065.975,-120.5243 1070.4507,-120 1419.9797,-79.0517 1516.3121,-152.7507 1861.4507,-84 1864.4684,-83.3989 1867.5631,-82.6095 1870.6299,-81.7089"/>
<polygon fill="#191970" stroke="#191970" points="1871.8038,-85.0073 1880.2023,-78.5485 1869.6091,-78.3602 1871.8038,-85.0073"/>
</g>
<!-- Node15 -->
<g id="node16" class="node">
<title>Node15</title>
<polygon fill="#ffffff" stroke="#bfbfbf" points="1098.1504,-60.5 1098.1504,-78.5 1194.751,-78.5 1194.751,-60.5 1098.1504,-60.5"/>
<text text-anchor="middle" x="1146.4507" y="-66.5" font-family="Helvetica,sans-Serif" font-size="10.00" fill="#000000">cereal/access.hpp</text>
</g>
<!-- Node14&#45;&gt;Node15 -->
<g id="edge17" class="edge">
<title>Node14&#45;&gt;Node15</title>
<path fill="none" stroke="#191970" d="M1039.5874,-120.3873C1060.5229,-110.418 1094.2879,-94.3394 1118.2567,-82.9257"/>
<polygon fill="#191970" stroke="#191970" points="1120.0229,-85.9613 1127.5467,-78.5019 1117.0133,-79.6413 1120.0229,-85.9613"/>
</g>
<!-- Node16 -->
<g id="node17" class="node">
<title>Node16</title>
<polygon fill="#ffffff" stroke="#bfbfbf" points="1212.5322,-60.5 1212.5322,-78.5 1336.3691,-78.5 1336.3691,-60.5 1212.5322,-60.5"/>
<text text-anchor="middle" x="1274.4507" y="-66.5" font-family="Helvetica,sans-Serif" font-size="10.00" fill="#000000">cereal/archives/json.hpp</text>
</g>
<!-- Node14&#45;&gt;Node16 -->
<g id="edge18" class="edge">
<title>Node14&#45;&gt;Node16</title>
<path fill="none" stroke="#191970" d="M1056.5729,-120.9672C1101.0358,-110.4641 1176.7068,-92.5891 1226.1357,-80.913"/>
<polygon fill="#191970" stroke="#191970" points="1227.0318,-84.2977 1235.9593,-78.5925 1225.4224,-77.4852 1227.0318,-84.2977"/>
</g>
<!-- Node17 -->
<g id="node18" class="node">
<title>Node17</title>
<polygon fill="#ffffff" stroke="#bfbfbf" points="1354.3672,-55.5 1354.3672,-83.5 1476.5342,-83.5 1476.5342,-55.5 1354.3672,-55.5"/>
<text text-anchor="start" x="1362.3672" y="-71.5" font-family="Helvetica,sans-Serif" font-size="10.00" fill="#000000">cereal/archives/portable</text>
<text text-anchor="middle" x="1415.4507" y="-61.5" font-family="Helvetica,sans-Serif" font-size="10.00" fill="#000000">_binary.hpp</text>
</g>
<!-- Node14&#45;&gt;Node17 -->
<g id="edge19" class="edge">
<title>Node14&#45;&gt;Node17</title>
<path fill="none" stroke="#191970" d="M1056.7285,-122.3532C1061.3402,-121.5195 1066.0012,-120.7133 1070.4507,-120 1188.9524,-101.002 1222.1683,-104.3194 1343.9471,-84.1781"/>
<polygon fill="#191970" stroke="#191970" points="1344.754,-87.5919 1354.0391,-82.4893 1343.5986,-80.6879 1344.754,-87.5919"/>
</g>
<!-- Node18 -->
<g id="node19" class="node">
<title>Node18</title>
<polygon fill="#ffffff" stroke="#bfbfbf" points="1494.0938,-60.5 1494.0938,-78.5 1586.8076,-78.5 1586.8076,-60.5 1494.0938,-60.5"/>
<text text-anchor="middle" x="1540.4507" y="-66.5" font-family="Helvetica,sans-Serif" font-size="10.00" fill="#000000">cereal/cereal.hpp</text>
</g>
<!-- Node14&#45;&gt;Node18 -->
<g id="edge20" class="edge">
<title>Node14&#45;&gt;Node18</title>
<path fill="none" stroke="#191970" d="M1056.7006,-122.1661C1061.317,-121.3637 1065.9867,-120.6161 1070.4507,-120 1253.8494,-94.6887 1303.0501,-115.7143 1485.4507,-84 1490.1874,-83.1764 1495.1119,-82.1416 1499.9812,-81.0057"/>
<polygon fill="#191970" stroke="#191970" points="1500.9565,-84.37 1509.8212,-78.5675 1499.2729,-77.5755 1500.9565,-84.37"/>
</g>
<!-- Node19 -->
<g id="node20" class="node">
<title>Node19</title>
<polygon fill="#ffffff" stroke="#bfbfbf" points="1604.3491,-60.5 1604.3491,-78.5 1718.5522,-78.5 1718.5522,-60.5 1604.3491,-60.5"/>
<text text-anchor="middle" x="1661.4507" y="-66.5" font-family="Helvetica,sans-Serif" font-size="10.00" fill="#000000">cereal/types/array.hpp</text>
</g>
<!-- Node14&#45;&gt;Node19 -->
<g id="edge21" class="edge">
<title>Node14&#45;&gt;Node19</title>
<path fill="none" stroke="#191970" d="M1056.6902,-122.0885C1061.3083,-121.2991 1065.9813,-120.5757 1070.4507,-120 1302.4152,-90.1186 1363.9355,-117.1836 1595.4507,-84 1601.7761,-83.0934 1608.3977,-81.9161 1614.903,-80.6244"/>
<polygon fill="#191970" stroke="#191970" points="1615.8969,-83.9925 1624.9707,-78.523 1614.4665,-77.1402 1615.8969,-83.9925"/>
</g>
<!-- Node20 -->
<g id="node21" class="node">
<title>Node20</title>
<polygon fill="#ffffff" stroke="#bfbfbf" points="1736.4214,-60.5 1736.4214,-78.5 1852.48,-78.5 1852.48,-60.5 1736.4214,-60.5"/>
<text text-anchor="middle" x="1794.4507" y="-66.5" font-family="Helvetica,sans-Serif" font-size="10.00" fill="#000000">cereal/types/bitset.hpp</text>
</g>
<!-- Node14&#45;&gt;Node20 -->
<g id="edge22" class="edge">
<title>Node14&#45;&gt;Node20</title>
<path fill="none" stroke="#191970" d="M1056.6828,-122.0294C1061.3022,-121.25 1065.9775,-120.5451 1070.4507,-120 1360.7417,-84.6285 1437.6317,-123.0508 1727.4507,-84 1734.1073,-83.1031 1741.0852,-81.8969 1747.9193,-80.5614"/>
<polygon fill="#191970" stroke="#191970" points="1748.6856,-83.9771 1757.7748,-78.5332 1747.2746,-77.1208 1748.6856,-83.9771"/>
</g>
<!-- Node21 -->
<g id="node22" class="node">
<title>Node21</title>
<polygon fill="#ffffff" stroke="#bfbfbf" points="180.5889,-55.5 180.5889,-83.5 288.3125,-83.5 288.3125,-55.5 180.5889,-55.5"/>
<text text-anchor="start" x="188.5889" y="-71.5" font-family="Helvetica,sans-Serif" font-size="10.00" fill="#000000">cereal/types/boost</text>
<text text-anchor="middle" x="234.4507" y="-61.5" font-family="Helvetica,sans-Serif" font-size="10.00" fill="#000000">_dynamic_bitset.hpp</text>
</g>
<!-- Node14&#45;&gt;Node21 -->
<g id="edge23" class="edge">
<title>Node14&#45;&gt;Node21</title>
<path fill="none" stroke="#191970" d="M984.1845,-121.3398C981.2391,-120.831 978.3007,-120.3742 975.4507,-120 679.6208,-81.1579 598.0958,-124.9923 298.9147,-84.0271"/>
<polygon fill="#191970" stroke="#191970" points="299.0222,-80.5085 288.6356,-82.5982 298.0584,-87.4418 299.0222,-80.5085"/>
</g>
<!-- Node22 -->
<g id="node23" class="node">
<title>Node22</title>
<polygon fill="#ffffff" stroke="#bfbfbf" points="306.542,-55.5 306.542,-83.5 400.3594,-83.5 400.3594,-55.5 306.542,-55.5"/>
<text text-anchor="start" x="314.542" y="-71.5" font-family="Helvetica,sans-Serif" font-size="10.00" fill="#000000">cereal/types/eastl</text>
<text text-anchor="middle" x="353.4507" y="-61.5" font-family="Helvetica,sans-Serif" font-size="10.00" fill="#000000">_bitset.hpp</text>
</g>
<!-- Node14&#45;&gt;Node22 -->
<g id="edge24" class="edge">
<title>Node14&#45;&gt;Node22</title>
<path fill="none" stroke="#191970" d="M984.1801,-121.3729C981.2356,-120.8567 978.2987,-120.3891 975.4507,-120 728.9996,-86.3278 660.1648,-122.7839 410.4729,-83.9355"/>
<polygon fill="#191970" stroke="#191970" points="410.7917,-80.4425 400.3678,-82.3378 409.6985,-87.3566 410.7917,-80.4425"/>
</g>
<!-- Node23 -->
<g id="node24" class="node">
<title>Node23</title>
<polygon fill="#ffffff" stroke="#bfbfbf" points="418.1382,-60.5 418.1382,-78.5 534.7632,-78.5 534.7632,-60.5 418.1382,-60.5"/>
<text text-anchor="middle" x="476.4507" y="-66.5" font-family="Helvetica,sans-Serif" font-size="10.00" fill="#000000">cereal/types/eigen.hpp</text>
</g>
<!-- Node14&#45;&gt;Node23 -->
<g id="edge25" class="edge">
<title>Node14&#45;&gt;Node23</title>
<path fill="none" stroke="#191970" d="M984.1713,-121.4348C981.2288,-120.9047 978.2948,-120.417 975.4507,-120 784.8237,-92.0472 734.0061,-112.4365 543.4507,-84 537.1937,-83.0663 530.6465,-81.8951 524.1992,-80.6255"/>
<polygon fill="#191970" stroke="#191970" points="524.7066,-77.1566 514.2063,-78.5691 523.2956,-84.0129 524.7066,-77.1566"/>
</g>
<!-- Node24 -->
<g id="node25" class="node">
<title>Node24</title>
<polygon fill="#ffffff" stroke="#bfbfbf" points="552.6455,-60.5 552.6455,-78.5 664.2559,-78.5 664.2559,-60.5 552.6455,-60.5"/>
<text text-anchor="middle" x="608.4507" y="-66.5" font-family="Helvetica,sans-Serif" font-size="10.00" fill="#000000">cereal/types/map.hpp</text>
</g>
<!-- Node14&#45;&gt;Node24 -->
<g id="edge26" class="edge">
<title>Node14&#45;&gt;Node24</title>
<path fill="none" stroke="#191970" d="M984.154,-121.5465C981.2153,-120.9913 978.2869,-120.4675 975.4507,-120 842.0776,-98.0175 806.696,-106.7441 673.4507,-84 667.6826,-83.0154 661.6548,-81.8534 655.6953,-80.6227"/>
<polygon fill="#191970" stroke="#191970" points="656.2992,-77.1728 645.7885,-78.5056 654.8363,-84.0182 656.2992,-77.1728"/>
</g>
<!-- Node25 -->
<g id="node26" class="node">
<title>Node25</title>
<polygon fill="#ffffff" stroke="#bfbfbf" points="682.6841,-60.5 682.6841,-78.5 810.2173,-78.5 810.2173,-60.5 682.6841,-60.5"/>
<text text-anchor="middle" x="746.4507" y="-66.5" font-family="Helvetica,sans-Serif" font-size="10.00" fill="#000000">cereal/types/memory.hpp</text>
</g>
<!-- Node14&#45;&gt;Node25 -->
<g id="edge27" class="edge">
<title>Node14&#45;&gt;Node25</title>
<path fill="none" stroke="#191970" d="M984.3482,-121.5943C936.467,-111.1094 851.6891,-92.5449 797.3331,-80.6421"/>
<polygon fill="#191970" stroke="#191970" points="798.0707,-77.2208 787.5535,-78.5006 796.5733,-84.0588 798.0707,-77.2208"/>
</g>
<!-- Node26 -->
<g id="node27" class="node">
<title>Node26</title>
<polygon fill="#ffffff" stroke="#bfbfbf" points="828.3491,-60.5 828.3491,-78.5 942.5522,-78.5 942.5522,-60.5 828.3491,-60.5"/>
<text text-anchor="middle" x="885.4507" y="-66.5" font-family="Helvetica,sans-Serif" font-size="10.00" fill="#000000">cereal/types/utility.hpp</text>
</g>
<!-- Node14&#45;&gt;Node26 -->
<g id="edge28" class="edge">
<title>Node14&#45;&gt;Node26</title>
<path fill="none" stroke="#191970" d="M999.9471,-120.3873C977.3168,-110.3294 940.6952,-94.0531 914.9762,-82.6225"/>
<polygon fill="#191970" stroke="#191970" points="916.2645,-79.365 905.7049,-78.5019 913.4215,-85.7617 916.2645,-79.365"/>
</g>
<!-- Node27 -->
<g id="node28" class="node">
<title>Node27</title>
<polygon fill="#ffffff" stroke="#bfbfbf" points="961.0298,-60.5 961.0298,-78.5 1079.8716,-78.5 1079.8716,-60.5 961.0298,-60.5"/>
<text text-anchor="middle" x="1020.4507" y="-66.5" font-family="Helvetica,sans-Serif" font-size="10.00" fill="#000000">cereal/types/vector.hpp</text>
</g>
<!-- Node14&#45;&gt;Node27 -->
<g id="edge29" class="edge">
<title>Node14&#45;&gt;Node27</title>
<path fill="none" stroke="#191970" d="M1020.4507,-120.3873C1020.4507,-112.0174 1020.4507,-99.3414 1020.4507,-88.735"/>
<polygon fill="#191970" stroke="#191970" points="1023.9508,-88.6984 1020.4507,-78.6985 1016.9508,-88.6985 1023.9508,-88.6984"/>
</g>
<!-- Node28&#45;&gt;Node12 -->
<g id="edge32" class="edge">
<title>Node28&#45;&gt;Node12</title>
<path fill="none" stroke="#191970" d="M1167.5534,-176.4588C1170.5617,-175.9489 1173.5498,-175.4574 1176.4507,-175 1479.8219,-127.1663 1563.1284,-156.9792 1861.4507,-84 1863.962,-83.3857 1866.5342,-82.6683 1869.1039,-81.8875"/>
<polygon fill="#191970" stroke="#191970" points="1870.4796,-85.1187 1878.8672,-78.6459 1868.2738,-78.4753 1870.4796,-85.1187"/>
</g>
<!-- Node28&#45;&gt;Node13 -->
<g id="edge33" class="edge">
<title>Node28&#45;&gt;Node13</title>
<path fill="none" stroke="#191970" d="M1125.6066,-175.4179C1126.5231,-168.2164 1127.8366,-157.8962 1128.9863,-148.8632"/>
<polygon fill="#191970" stroke="#191970" points="1132.479,-149.1414 1130.2697,-138.7795 1125.535,-148.2575 1132.479,-149.1414"/>
</g>
<!-- Node28&#45;&gt;Node14 -->
<g id="edge34" class="edge">
<title>Node28&#45;&gt;Node14</title>
<path fill="none" stroke="#191970" d="M1107.2772,-175.4179C1090.7927,-166.7001 1065.6665,-153.4122 1046.6774,-143.3699"/>
<polygon fill="#191970" stroke="#191970" points="1048.1259,-140.1767 1037.6497,-138.5956 1044.8534,-146.3646 1048.1259,-140.1767"/>
</g>
</g>
</svg>
