<?xml version="1.0" encoding="UTF-8" standalone="no"?>
<!DOCTYPE svg PUBLIC "-//W3C//DTD SVG 1.1//EN"
 "http://www.w3.org/Graphics/SVG/1.1/DTD/svg11.dtd">
<!-- Generated by graphviz version 2.40.1 (20161225.0304)
 -->
<!-- Title: include/indigox/classes/parameterised.hpp Pages: 1 -->
<svg width="717pt" height="102pt"
 viewBox="0.00 0.00 716.56 102.00" xmlns="http://www.w3.org/2000/svg" xmlns:xlink="http://www.w3.org/1999/xlink">
<g id="graph0" class="graph" transform="scale(1 1) rotate(0) translate(4 98)">
<title>include/indigox/classes/parameterised.hpp</title>
<polygon fill="#ffffff" stroke="transparent" points="-4,4 -4,-98 712.561,-98 712.561,4 -4,4"/>
<!-- Node31 -->
<g id="node1" class="node">
<title>Node31</title>
<polygon fill="#bfbfbf" stroke="#000000" points="313.2734,-65.5 313.2734,-93.5 431.5537,-93.5 431.5537,-65.5 313.2734,-65.5"/>
<text text-anchor="start" x="321.2734" y="-81.5" font-family="Helvetica,sans-Serif" font-size="10.00" fill="#000000">include/indigox/classes</text>
<text text-anchor="middle" x="372.4136" y="-71.5" font-family="Helvetica,sans-Serif" font-size="10.00" fill="#000000">/parameterised.hpp</text>
</g>
<!-- Node32 -->
<g id="node2" class="node">
<title>Node32</title>
<g id="a_node2"><a xlink:href="cherrypicker_8cpp.html" target="_top" xlink:title="src/algorithm/cherrypicker.cpp">
<polygon fill="#ffffff" stroke="#000000" points="0,-5.5 0,-23.5 148.8271,-23.5 148.8271,-5.5 0,-5.5"/>
<text text-anchor="middle" x="74.4136" y="-11.5" font-family="Helvetica,sans-Serif" font-size="10.00" fill="#000000">src/algorithm/cherrypicker.cpp</text>
</a>
</g>
</g>
<!-- Node31&#45;&gt;Node32 -->
<g id="edge1" class="edge">
<title>Node31&#45;&gt;Node32</title>
<path fill="none" stroke="#191970" d="M303.3502,-64.4358C245.3077,-51.7756 164.2757,-34.1008 115.8051,-23.5284"/>
<polygon fill="#191970" stroke="#191970" points="302.6659,-67.8688 313.1821,-66.5804 304.1577,-61.0296 302.6659,-67.8688"/>
</g>
<!-- Node33 -->
<g id="node3" class="node">
<title>Node33</title>
<g id="a_node3"><a xlink:href="parameterised_8cpp.html" target="_top" xlink:title="src/classes/parameterised.cpp">
<polygon fill="#ffffff" stroke="#000000" points="166.8867,-5.5 166.8867,-23.5 317.9404,-23.5 317.9404,-5.5 166.8867,-5.5"/>
<text text-anchor="middle" x="242.4136" y="-11.5" font-family="Helvetica,sans-Serif" font-size="10.00" fill="#000000">src/classes/parameterised.cpp</text>
</a>
</g>
</g>
<!-- Node31&#45;&gt;Node33 -->
<g id="edge2" class="edge">
<title>Node31&#45;&gt;Node33</title>
<path fill="none" stroke="#191970" d="M335.1849,-60.8856C310.724,-48.6552 279.8008,-33.1936 260.5622,-23.5743"/>
<polygon fill="#191970" stroke="#191970" points="333.696,-64.0543 344.2055,-65.396 336.8265,-57.7933 333.696,-64.0543"/>
</g>
<!-- Node34 -->
<g id="node4" class="node">
<title>Node34</title>
<g id="a_node4"><a xlink:href="main_8cpp.html" target="_top" xlink:title="src/main.cpp">
<polygon fill="#ffffff" stroke="#000000" points="336.0713,-5.5 336.0713,-23.5 408.7559,-23.5 408.7559,-5.5 336.0713,-5.5"/>
<text text-anchor="middle" x="372.4136" y="-11.5" font-family="Helvetica,sans-Serif" font-size="10.00" fill="#000000">src/main.cpp</text>
</a>
</g>
</g>
<!-- Node31&#45;&gt;Node34 -->
<g id="edge3" class="edge">
<title>Node31&#45;&gt;Node34</title>
<path fill="none" stroke="#191970" d="M372.4136,-55.3747C372.4136,-44.2832 372.4136,-31.7952 372.4136,-23.5743"/>
<polygon fill="#191970" stroke="#191970" points="368.9137,-55.3959 372.4136,-65.396 375.9137,-55.396 368.9137,-55.3959"/>
</g>
<!-- Node35 -->
<g id="node5" class="node">
<title>Node35</title>
<g id="a_node5"><a xlink:href="parammolecule_8cpp.html" target="_top" xlink:title="src/python/classes\l/parammolecule.cpp">
<polygon fill="#ffffff" stroke="#000000" points="426.3916,-.5 426.3916,-28.5 532.4355,-28.5 532.4355,-.5 426.3916,-.5"/>
<text text-anchor="start" x="434.3916" y="-16.5" font-family="Helvetica,sans-Serif" font-size="10.00" fill="#000000">src/python/classes</text>
<text text-anchor="middle" x="479.4136" y="-6.5" font-family="Helvetica,sans-Serif" font-size="10.00" fill="#000000">/parammolecule.cpp</text>
</a>
</g>
</g>
<!-- Node31&#45;&gt;Node35 -->
<g id="edge4" class="edge">
<title>Node31&#45;&gt;Node35</title>
<path fill="none" stroke="#191970" d="M404.4886,-60.0151C421.1398,-49.8999 441.1079,-37.7698 456.2415,-28.5765"/>
<polygon fill="#191970" stroke="#191970" points="402.3604,-57.2127 395.631,-65.396 405.9948,-63.1954 402.3604,-57.2127"/>
</g>
<!-- Node36 -->
<g id="node6" class="node">
<title>Node36</title>
<g id="a_node6"><a xlink:href="algorithms_8cpp.html" target="_top" xlink:title="src/python/graph/algorithms.cpp">
<polygon fill="#ffffff" stroke="#000000" points="550.2661,-5.5 550.2661,-23.5 708.561,-23.5 708.561,-5.5 550.2661,-5.5"/>
<text text-anchor="middle" x="629.4136" y="-11.5" font-family="Helvetica,sans-Serif" font-size="10.00" fill="#000000">src/python/graph/algorithms.cpp</text>
</a>
</g>
</g>
<!-- Node31&#45;&gt;Node36 -->
<g id="edge5" class="edge">
<title>Node31&#45;&gt;Node36</title>
<path fill="none" stroke="#191970" d="M437.8568,-62.9482C487.4279,-50.4108 553.6447,-33.6633 593.8228,-23.5016"/>
<polygon fill="#191970" stroke="#191970" points="436.6989,-59.6308 427.8623,-65.476 438.4153,-66.4171 436.6989,-59.6308"/>
</g>
</g>
</svg>
