<?xml version="1.0" encoding="UTF-8" standalone="no"?>
<!DOCTYPE svg PUBLIC "-//W3C//DTD SVG 1.1//EN"
 "http://www.w3.org/Graphics/SVG/1.1/DTD/svg11.dtd">
<!-- Generated by graphviz version 2.40.1 (20161225.0304)
 -->
<!-- Title: include/indigox/algorithm/graph/paths.hpp Pages: 1 -->
<svg width="638pt" height="102pt"
 viewBox="0.00 0.00 638.14 102.00" xmlns="http://www.w3.org/2000/svg" xmlns:xlink="http://www.w3.org/1999/xlink">
<g id="graph0" class="graph" transform="scale(1 1) rotate(0) translate(4 98)">
<title>include/indigox/algorithm/graph/paths.hpp</title>
<polygon fill="#ffffff" stroke="transparent" points="-4,4 -4,-98 634.1377,-98 634.1377,4 -4,4"/>
<!-- Node6 -->
<g id="node1" class="node">
<title>Node6</title>
<polygon fill="#bfbfbf" stroke="#000000" points="274.7637,-65.5 274.7637,-93.5 400.8271,-93.5 400.8271,-65.5 274.7637,-65.5"/>
<text text-anchor="start" x="282.7637" y="-81.5" font-family="Helvetica,sans-Serif" font-size="10.00" fill="#000000">include/indigox/algorithm</text>
<text text-anchor="middle" x="337.7954" y="-71.5" font-family="Helvetica,sans-Serif" font-size="10.00" fill="#000000">/graph/paths.hpp</text>
</g>
<!-- Node7 -->
<g id="node2" class="node">
<title>Node7</title>
<g id="a_node2"><a xlink:href="paths_8cpp.html" target="_top" xlink:title="src/algorithm/graph\l/paths.cpp">
<polygon fill="#ffffff" stroke="#000000" points="0,-.5 0,-28.5 101.5908,-28.5 101.5908,-.5 0,-.5"/>
<text text-anchor="start" x="8" y="-16.5" font-family="Helvetica,sans-Serif" font-size="10.00" fill="#000000">src/algorithm/graph</text>
<text text-anchor="middle" x="50.7954" y="-6.5" font-family="Helvetica,sans-Serif" font-size="10.00" fill="#000000">/paths.cpp</text>
</a>
</g>
</g>
<!-- Node6&#45;&gt;Node7 -->
<g id="edge1" class="edge">
<title>Node6&#45;&gt;Node7</title>
<path fill="none" stroke="#191970" d="M264.4055,-63.6939C219.6667,-53.9469 161.3644,-41.0462 109.7954,-29 107.1249,-28.3762 104.3882,-27.7295 101.6264,-27.071"/>
<polygon fill="#191970" stroke="#191970" points="263.7993,-67.1438 274.3148,-65.8496 265.2873,-60.3038 263.7993,-67.1438"/>
</g>
<!-- Node8 -->
<g id="node3" class="node">
<title>Node8</title>
<g id="a_node3"><a xlink:href="athenaeum_8cpp.html" target="_top" xlink:title="src/classes/athenaeum.cpp">
<polygon fill="#ffffff" stroke="#000000" points="119.2095,-5.5 119.2095,-23.5 256.3813,-23.5 256.3813,-5.5 119.2095,-5.5"/>
<text text-anchor="middle" x="187.7954" y="-11.5" font-family="Helvetica,sans-Serif" font-size="10.00" fill="#000000">src/classes/athenaeum.cpp</text>
</a>
</g>
</g>
<!-- Node6&#45;&gt;Node8 -->
<g id="edge2" class="edge">
<title>Node6&#45;&gt;Node8</title>
<path fill="none" stroke="#191970" d="M295.9543,-61.3688C267.5605,-49.0649 231.2279,-33.3208 208.7361,-23.5743"/>
<polygon fill="#191970" stroke="#191970" points="294.6804,-64.6313 305.2476,-65.396 297.4637,-58.2084 294.6804,-64.6313"/>
</g>
<!-- Node9 -->
<g id="node4" class="node">
<title>Node9</title>
<g id="a_node4"><a xlink:href="molecule_8cpp.html" target="_top" xlink:title="src/classes/molecule.cpp">
<polygon fill="#ffffff" stroke="#000000" points="274.2192,-5.5 274.2192,-23.5 401.3716,-23.5 401.3716,-5.5 274.2192,-5.5"/>
<text text-anchor="middle" x="337.7954" y="-11.5" font-family="Helvetica,sans-Serif" font-size="10.00" fill="#000000">src/classes/molecule.cpp</text>
</a>
</g>
</g>
<!-- Node6&#45;&gt;Node9 -->
<g id="edge3" class="edge">
<title>Node6&#45;&gt;Node9</title>
<path fill="none" stroke="#191970" d="M337.7954,-55.3747C337.7954,-44.2832 337.7954,-31.7952 337.7954,-23.5743"/>
<polygon fill="#191970" stroke="#191970" points="334.2955,-55.3959 337.7954,-65.396 341.2955,-55.396 334.2955,-55.3959"/>
</g>
<!-- Node10 -->
<g id="node5" class="node">
<title>Node10</title>
<g id="a_node5"><a xlink:href="residue_8cpp.html" target="_top" xlink:title="src/classes/residue.cpp">
<polygon fill="#ffffff" stroke="#000000" points="419.8301,-5.5 419.8301,-23.5 539.7607,-23.5 539.7607,-5.5 419.8301,-5.5"/>
<text text-anchor="middle" x="479.7954" y="-11.5" font-family="Helvetica,sans-Serif" font-size="10.00" fill="#000000">src/classes/residue.cpp</text>
</a>
</g>
</g>
<!-- Node6&#45;&gt;Node10 -->
<g id="edge4" class="edge">
<title>Node6&#45;&gt;Node10</title>
<path fill="none" stroke="#191970" d="M377.756,-61.2082C404.5833,-48.9281 438.7719,-33.2784 459.9715,-23.5743"/>
<polygon fill="#191970" stroke="#191970" points="376.2432,-58.0513 368.6073,-65.396 379.1567,-64.4162 376.2432,-58.0513"/>
</g>
<!-- Node11 -->
<g id="node6" class="node">
<title>Node11</title>
<g id="a_node6"><a xlink:href="main_8cpp.html" target="_top" xlink:title="src/main.cpp">
<polygon fill="#ffffff" stroke="#000000" points="557.4531,-5.5 557.4531,-23.5 630.1377,-23.5 630.1377,-5.5 557.4531,-5.5"/>
<text text-anchor="middle" x="593.7954" y="-11.5" font-family="Helvetica,sans-Serif" font-size="10.00" fill="#000000">src/main.cpp</text>
</a>
</g>
</g>
<!-- Node6&#45;&gt;Node11 -->
<g id="edge5" class="edge">
<title>Node6&#45;&gt;Node11</title>
<path fill="none" stroke="#191970" d="M410.7647,-63.489C451.5644,-54.1735 503.2276,-41.7742 548.7954,-29 554.6439,-27.3605 560.8713,-25.4572 566.7699,-23.5797"/>
<polygon fill="#191970" stroke="#191970" points="409.88,-60.1007 400.9036,-65.7289 411.4305,-66.9268 409.88,-60.1007"/>
</g>
</g>
</svg>
