<?xml version="1.0" encoding="UTF-8" standalone="no"?>
<!DOCTYPE svg PUBLIC "-//W3C//DTD SVG 1.1//EN"
 "http://www.w3.org/Graphics/SVG/1.1/DTD/svg11.dtd">
<!-- Generated by graphviz version 2.40.1 (20161225.0304)
 -->
<!-- Title: src/algorithm/graph/paths.cpp Pages: 1 -->
<svg width="2587pt" height="472pt"
 viewBox="0.00 0.00 2586.56 472.00" xmlns="http://www.w3.org/2000/svg" xmlns:xlink="http://www.w3.org/1999/xlink">
<g id="graph0" class="graph" transform="scale(1 1) rotate(0) translate(4 468)">
<title>src/algorithm/graph/paths.cpp</title>
<polygon fill="#ffffff" stroke="transparent" points="-4,4 -4,-468 2582.5615,-468 2582.5615,4 -4,4"/>
<!-- Node0 -->
<g id="node1" class="node">
<title>Node0</title>
<polygon fill="#bfbfbf" stroke="#000000" points="1983.2046,-435.5 1983.2046,-463.5 2084.7954,-463.5 2084.7954,-435.5 1983.2046,-435.5"/>
<text text-anchor="start" x="1991.2046" y="-451.5" font-family="Helvetica,sans-Serif" font-size="10.00" fill="#000000">src/algorithm/graph</text>
<text text-anchor="middle" x="2034" y="-441.5" font-family="Helvetica,sans-Serif" font-size="10.00" fill="#000000">/paths.cpp</text>
</g>
<!-- Node1 -->
<g id="node2" class="node">
<title>Node1</title>
<g id="a_node2"><a xlink:href="paths_8hpp.html" target="_top" xlink:title="indigox/algorithm/graph\l/paths.hpp">
<polygon fill="#ffffff" stroke="#000000" points="1900.0249,-370.5 1900.0249,-398.5 2019.9751,-398.5 2019.9751,-370.5 1900.0249,-370.5"/>
<text text-anchor="start" x="1908.0249" y="-386.5" font-family="Helvetica,sans-Serif" font-size="10.00" fill="#000000">indigox/algorithm/graph</text>
<text text-anchor="middle" x="1960" y="-376.5" font-family="Helvetica,sans-Serif" font-size="10.00" fill="#000000">/paths.hpp</text>
</a>
</g>
</g>
<!-- Node0&#45;&gt;Node1 -->
<g id="edge1" class="edge">
<title>Node0&#45;&gt;Node1</title>
<path fill="none" stroke="#191970" d="M2017.9431,-435.396C2007.9551,-426.6227 1994.9311,-415.1827 1983.7613,-405.3714"/>
<polygon fill="#191970" stroke="#191970" points="1985.8486,-402.5463 1976.0256,-398.5765 1981.229,-407.8056 1985.8486,-402.5463"/>
</g>
<!-- Node6 -->
<g id="node7" class="node">
<title>Node6</title>
<polygon fill="#ffffff" stroke="#bfbfbf" points="2168.3843,-60.5 2168.3843,-78.5 2211.6157,-78.5 2211.6157,-60.5 2168.3843,-60.5"/>
<text text-anchor="middle" x="2190" y="-66.5" font-family="Helvetica,sans-Serif" font-size="10.00" fill="#000000">vector</text>
</g>
<!-- Node0&#45;&gt;Node6 -->
<g id="edge74" class="edge">
<title>Node0&#45;&gt;Node6</title>
<path fill="none" stroke="#191970" d="M2084.8473,-440.2806C2173.2607,-423.101 2349.3274,-383.4133 2385,-334 2432.7276,-267.8882 2687.7143,-540.5594 2276,-120 2266.8734,-110.6773 2238.6902,-94.8308 2217.0492,-83.3718"/>
<polygon fill="#191970" stroke="#191970" points="2218.4368,-80.1476 2207.9544,-78.6082 2215.1889,-86.3485 2218.4368,-80.1476"/>
</g>
<!-- Node7 -->
<g id="node8" class="node">
<title>Node7</title>
<g id="a_node8"><a xlink:href="condensed_8hpp.html" target="_top" xlink:title="indigox/graph/condensed.hpp">
<polygon fill="#ffffff" stroke="#000000" points="1225.3921,-375.5 1225.3921,-393.5 1372.6079,-393.5 1372.6079,-375.5 1225.3921,-375.5"/>
<text text-anchor="middle" x="1299" y="-381.5" font-family="Helvetica,sans-Serif" font-size="10.00" fill="#000000">indigox/graph/condensed.hpp</text>
</a>
</g>
</g>
<!-- Node0&#45;&gt;Node7 -->
<g id="edge7" class="edge">
<title>Node0&#45;&gt;Node7</title>
<path fill="none" stroke="#191970" d="M1983.1053,-447.0094C1873.7177,-441.3314 1608.1827,-425.8047 1387,-399 1377.9693,-397.9056 1368.449,-396.5498 1359.1392,-395.1103"/>
<polygon fill="#191970" stroke="#191970" points="1359.5783,-391.6363 1349.153,-393.5238 1358.48,-398.5496 1359.5783,-391.6363"/>
</g>
<!-- Node10 -->
<g id="node11" class="node">
<title>Node10</title>
<polygon fill="#ffffff" stroke="#bfbfbf" points="1286.478,-190.5 1286.478,-208.5 1397.522,-208.5 1397.522,-190.5 1286.478,-190.5"/>
<text text-anchor="middle" x="1342" y="-196.5" font-family="Helvetica,sans-Serif" font-size="10.00" fill="#000000">EASTL/vector_map.h</text>
</g>
<!-- Node0&#45;&gt;Node10 -->
<g id="edge72" class="edge">
<title>Node0&#45;&gt;Node10</title>
<path fill="none" stroke="#191970" d="M1983.1387,-446.239C1876.6761,-438.0446 1623.9994,-411.3865 1428,-334 1406.7255,-325.6002 1352.0364,-299.0339 1341,-279 1330.7287,-260.3549 1333.1955,-235.323 1336.7806,-218.3658"/>
<polygon fill="#191970" stroke="#191970" points="1340.2087,-219.0811 1339.1754,-208.5367 1333.4076,-217.424 1340.2087,-219.0811"/>
</g>
<!-- Node41 -->
<g id="node42" class="node">
<title>Node41</title>
<g id="a_node42"><a xlink:href="molecular_8hpp.html" target="_top" xlink:title="indigox/graph/molecular.hpp">
<polygon fill="#ffffff" stroke="#000000" points="2038.4561,-375.5 2038.4561,-393.5 2179.5439,-393.5 2179.5439,-375.5 2038.4561,-375.5"/>
<text text-anchor="middle" x="2109" y="-381.5" font-family="Helvetica,sans-Serif" font-size="10.00" fill="#000000">indigox/graph/molecular.hpp</text>
</a>
</g>
</g>
<!-- Node0&#45;&gt;Node41 -->
<g id="edge61" class="edge">
<title>Node0&#45;&gt;Node41</title>
<path fill="none" stroke="#191970" d="M2050.2739,-435.396C2062.1753,-425.0814 2078.33,-411.0807 2090.6835,-400.3743"/>
<polygon fill="#191970" stroke="#191970" points="2093.265,-402.7686 2098.5296,-393.5743 2088.6805,-397.4787 2093.265,-402.7686"/>
</g>
<!-- Node44 -->
<g id="node45" class="node">
<title>Node44</title>
<polygon fill="#ffffff" stroke="#bfbfbf" points="2432.0962,-375.5 2432.0962,-393.5 2475.9038,-393.5 2475.9038,-375.5 2432.0962,-375.5"/>
<text text-anchor="middle" x="2454" y="-381.5" font-family="Helvetica,sans-Serif" font-size="10.00" fill="#000000">deque</text>
</g>
<!-- Node0&#45;&gt;Node44 -->
<g id="edge73" class="edge">
<title>Node0&#45;&gt;Node44</title>
<path fill="none" stroke="#191970" d="M2085.1041,-446.8798C2159.4402,-442.1514 2301.2618,-429.6589 2418,-399 2420.1709,-398.4298 2422.3865,-397.7625 2424.5983,-397.033"/>
<polygon fill="#191970" stroke="#191970" points="2425.9348,-400.2709 2434.1208,-393.5449 2423.5271,-393.698 2425.9348,-400.2709"/>
</g>
<!-- Node2 -->
<g id="node3" class="node">
<title>Node2</title>
<g id="a_node3"><a xlink:href="fwd__declares_8hpp.html" target="_top" xlink:title="../../utils/fwd_declares.hpp">
<polygon fill="#ffffff" stroke="#000000" points="1874.1924,-60.5 1874.1924,-78.5 2005.8076,-78.5 2005.8076,-60.5 1874.1924,-60.5"/>
<text text-anchor="middle" x="1940" y="-66.5" font-family="Helvetica,sans-Serif" font-size="10.00" fill="#000000">../../utils/fwd_declares.hpp</text>
</a>
</g>
</g>
<!-- Node1&#45;&gt;Node2 -->
<g id="edge2" class="edge">
<title>Node1&#45;&gt;Node2</title>
<path fill="none" stroke="#191970" d="M1955.6801,-370.45C1952.6861,-360.3725 1948.7576,-346.4351 1946,-334 1927.9505,-252.6087 1921.9127,-232.0815 1915,-149 1913.9313,-136.1555 1912.0636,-132.5499 1915,-120 1917.6797,-108.5469 1923.3569,-96.7125 1928.6249,-87.3813"/>
<polygon fill="#191970" stroke="#191970" points="1931.697,-89.0635 1933.8237,-78.6843 1925.6886,-85.4719 1931.697,-89.0635"/>
</g>
<!-- Node5 -->
<g id="node6" class="node">
<title>Node5</title>
<polygon fill="#ffffff" stroke="#bfbfbf" points="1988.2734,-315.5 1988.2734,-333.5 2023.7266,-333.5 2023.7266,-315.5 1988.2734,-315.5"/>
<text text-anchor="middle" x="2006" y="-321.5" font-family="Helvetica,sans-Serif" font-size="10.00" fill="#000000">map</text>
</g>
<!-- Node1&#45;&gt;Node5 -->
<g id="edge5" class="edge">
<title>Node1&#45;&gt;Node5</title>
<path fill="none" stroke="#191970" d="M1970.9014,-370.2808C1977.5052,-361.6672 1985.9692,-350.6271 1992.9309,-341.5466"/>
<polygon fill="#191970" stroke="#191970" points="1995.7287,-343.6498 1999.0355,-333.5842 1990.1735,-339.3907 1995.7287,-343.6498"/>
</g>
<!-- Node1&#45;&gt;Node6 -->
<g id="edge6" class="edge">
<title>Node1&#45;&gt;Node6</title>
<path fill="none" stroke="#191970" d="M1959.8057,-370.3622C1960.3929,-354.5892 1963.8679,-329.4012 1979,-315 2032.7424,-263.8536 2075.6027,-312.0998 2142,-279 2181.778,-259.1703 2199.4058,-254.3703 2218,-214 2235.4777,-176.0538 2228.4626,-160.4465 2218,-120 2214.9497,-108.208 2208.4877,-96.2338 2202.5395,-86.9066"/>
<polygon fill="#191970" stroke="#191970" points="2205.4048,-84.8955 2196.908,-78.5666 2199.6034,-88.8128 2205.4048,-84.8955"/>
</g>
<!-- Node3 -->
<g id="node4" class="node">
<title>Node3</title>
<polygon fill="#ffffff" stroke="#bfbfbf" points="2086.5493,-.5 2086.5493,-18.5 2131.4507,-18.5 2131.4507,-.5 2086.5493,-.5"/>
<text text-anchor="middle" x="2109" y="-6.5" font-family="Helvetica,sans-Serif" font-size="10.00" fill="#000000">cstdint</text>
</g>
<!-- Node2&#45;&gt;Node3 -->
<g id="edge3" class="edge">
<title>Node2&#45;&gt;Node3</title>
<path fill="none" stroke="#191970" d="M1965.6675,-60.3873C1995.4581,-49.8107 2044.6166,-32.358 2076.9058,-20.8944"/>
<polygon fill="#191970" stroke="#191970" points="2078.0923,-24.1873 2086.345,-17.5432 2075.7502,-17.5907 2078.0923,-24.1873"/>
</g>
<!-- Node4 -->
<g id="node5" class="node">
<title>Node4</title>
<polygon fill="#ffffff" stroke="#bfbfbf" points="915.9434,-.5 915.9434,-18.5 968.0566,-18.5 968.0566,-.5 915.9434,-.5"/>
<text text-anchor="middle" x="942" y="-6.5" font-family="Helvetica,sans-Serif" font-size="10.00" fill="#000000">memory</text>
</g>
<!-- Node2&#45;&gt;Node4 -->
<g id="edge4" class="edge">
<title>Node2&#45;&gt;Node4</title>
<path fill="none" stroke="#191970" d="M1896.1394,-60.4921C1884.4416,-58.3801 1871.7792,-56.3536 1860,-55 1684.6576,-34.8504 1126.8782,-15.5492 978.5309,-10.6759"/>
<polygon fill="#191970" stroke="#191970" points="978.2844,-7.1661 968.1754,-10.3374 978.0556,-14.1623 978.2844,-7.1661"/>
</g>
<!-- Node7&#45;&gt;Node2 -->
<g id="edge8" class="edge">
<title>Node7&#45;&gt;Node2</title>
<path fill="none" stroke="#191970" d="M1317.2813,-375.3661C1353.3505,-357.2944 1436.1527,-315.5582 1505,-279 1634.4785,-210.2463 1660.0208,-179.5091 1794,-120 1828.6848,-104.5942 1869.6333,-90.7901 1899.3236,-81.524"/>
<polygon fill="#191970" stroke="#191970" points="1900.4111,-84.8514 1908.9356,-78.5598 1898.3482,-78.1622 1900.4111,-84.8514"/>
</g>
<!-- Node7&#45;&gt;Node4 -->
<g id="edge59" class="edge">
<title>Node7&#45;&gt;Node4</title>
<path fill="none" stroke="#191970" d="M1224.967,-381.5703C949.5581,-370.1909 0,-326.4638 0,-264.5 0,-264.5 0,-264.5 0,-134.5 0,-93.4538 11.8755,-76.2382 47,-55 84.2916,-32.4514 742.024,-14.5161 905.4658,-10.3941"/>
<polygon fill="#191970" stroke="#191970" points="905.5956,-13.892 915.5048,-10.1426 905.4203,-6.8942 905.5956,-13.892"/>
</g>
<!-- Node7&#45;&gt;Node6 -->
<g id="edge60" class="edge">
<title>Node7&#45;&gt;Node6</title>
<path fill="none" stroke="#191970" d="M1372.7119,-381.611C1475.9312,-376.6362 1669.0657,-363.9348 1831,-334 1920.8104,-317.3979 1945.6577,-316.3576 2029,-279 2077.7117,-257.1653 2095.7636,-254.9567 2130,-214 2161.9771,-175.746 2178.9443,-118.063 2185.9867,-88.4777"/>
<polygon fill="#191970" stroke="#191970" points="2189.4255,-89.1386 2188.2105,-78.6137 2182.5969,-87.5991 2189.4255,-89.1386"/>
</g>
<!-- Node8 -->
<g id="node9" class="node">
<title>Node8</title>
<g id="a_node9"><a xlink:href="base__graph_8hpp.html" target="_top" xlink:title="base_graph.hpp">
<polygon fill="#ffffff" stroke="#000000" points="1733.8574,-315.5 1733.8574,-333.5 1822.1426,-333.5 1822.1426,-315.5 1733.8574,-315.5"/>
<text text-anchor="middle" x="1778" y="-321.5" font-family="Helvetica,sans-Serif" font-size="10.00" fill="#000000">base_graph.hpp</text>
</a>
</g>
</g>
<!-- Node7&#45;&gt;Node8 -->
<g id="edge9" class="edge">
<title>Node7&#45;&gt;Node8</title>
<path fill="none" stroke="#191970" d="M1370.9703,-375.4849C1467.5931,-363.3819 1637.0996,-342.1493 1723.7123,-331.3001"/>
<polygon fill="#191970" stroke="#191970" points="1724.366,-334.7457 1733.8534,-330.0298 1723.4959,-327.8 1724.366,-334.7457"/>
</g>
<!-- Node7&#45;&gt;Node10 -->
<g id="edge57" class="edge">
<title>Node7&#45;&gt;Node10</title>
<path fill="none" stroke="#191970" d="M1294.9416,-375.4223C1290.7395,-365.4862 1284.4524,-348.9718 1282,-334 1277.849,-308.6583 1287.3903,-255.2509 1290,-250 1296.9626,-235.9908 1309.4249,-223.6792 1320.4039,-214.7198"/>
<polygon fill="#191970" stroke="#191970" points="1322.619,-217.4315 1328.3948,-208.5494 1318.3407,-211.891 1322.619,-217.4315"/>
</g>
<!-- Node39 -->
<g id="node40" class="node">
<title>Node39</title>
<polygon fill="#ffffff" stroke="#bfbfbf" points="1163.5347,-190.5 1163.5347,-208.5 1268.4653,-208.5 1268.4653,-190.5 1163.5347,-190.5"/>
<text text-anchor="middle" x="1216" y="-196.5" font-family="Helvetica,sans-Serif" font-size="10.00" fill="#000000">EASTL/vector_set.h</text>
</g>
<!-- Node7&#45;&gt;Node39 -->
<g id="edge58" class="edge">
<title>Node7&#45;&gt;Node39</title>
<path fill="none" stroke="#191970" d="M1294.7392,-375.2022C1290.1058,-365.078 1282.4927,-348.4038 1276,-334 1257.3454,-292.6156 1235.7077,-243.9434 1224.1965,-217.9959"/>
<polygon fill="#191970" stroke="#191970" points="1227.3027,-216.3665 1220.0496,-208.6436 1220.9036,-219.204 1227.3027,-216.3665"/>
</g>
<!-- Node40 -->
<g id="node41" class="node">
<title>Node40</title>
<polygon fill="#ffffff" stroke="#bfbfbf" points="1290.6504,-315.5 1290.6504,-333.5 1373.3496,-333.5 1373.3496,-315.5 1290.6504,-315.5"/>
<text text-anchor="middle" x="1332" y="-321.5" font-family="Helvetica,sans-Serif" font-size="10.00" fill="#000000">EASTL/bitset.h</text>
</g>
<!-- Node7&#45;&gt;Node40 -->
<g id="edge56" class="edge">
<title>Node7&#45;&gt;Node40</title>
<path fill="none" stroke="#191970" d="M1304.012,-375.3873C1308.7608,-366.7531 1316.0299,-353.5365 1321.9699,-342.7366"/>
<polygon fill="#191970" stroke="#191970" points="1325.1884,-344.1474 1326.9408,-333.6985 1319.0548,-340.7739 1325.1884,-344.1474"/>
</g>
<!-- Node8&#45;&gt;Node2 -->
<g id="edge10" class="edge">
<title>Node8&#45;&gt;Node2</title>
<path fill="none" stroke="#191970" d="M1801.4597,-315.498C1816.8853,-308.2009 1835.8517,-296.271 1845,-279 1851.033,-267.6103 1849.6725,-262.0121 1845,-250 1837.1314,-229.7714 1819.8686,-234.2286 1812,-214 1796.8546,-175.0642 1788.4965,-154.5394 1812,-120 1821.8351,-105.5469 1862.2624,-91.1135 1895.0872,-81.4015"/>
<polygon fill="#191970" stroke="#191970" points="1896.3504,-84.6798 1904.9878,-78.5442 1894.4094,-77.9543 1896.3504,-84.6798"/>
</g>
<!-- Node8&#45;&gt;Node3 -->
<g id="edge14" class="edge">
<title>Node8&#45;&gt;Node3</title>
<path fill="none" stroke="#191970" d="M1822.3821,-316.2727C1904.4907,-300.052 2074.8714,-261.3735 2109,-214 2149.784,-157.3882 2127.9507,-67.1795 2115.6042,-28.3188"/>
<polygon fill="#191970" stroke="#191970" points="2118.9119,-27.1735 2112.4334,-18.7903 2112.27,-29.3838 2118.9119,-27.1735"/>
</g>
<!-- Node8&#45;&gt;Node4 -->
<g id="edge15" class="edge">
<title>Node8&#45;&gt;Node4</title>
<path fill="none" stroke="#191970" d="M1733.7941,-317.1567C1693.3473,-309.7685 1632.1922,-296.9023 1581,-279 1517.7621,-256.8852 1502.1534,-248.9512 1445,-214 1426.8753,-202.9161 1426.998,-192.1721 1407,-185 1265.4111,-134.2207 153.8029,-199.1309 57,-84 48.7053,-74.1348 48.1232,-64.3449 57,-55 86.6788,-23.7561 742.4638,-12.3477 905.5384,-9.9885"/>
<polygon fill="#191970" stroke="#191970" points="905.6062,-13.488 915.5554,-9.8461 905.5066,-6.4887 905.6062,-13.488"/>
</g>
<!-- Node8&#45;&gt;Node6 -->
<g id="edge16" class="edge">
<title>Node8&#45;&gt;Node6</title>
<path fill="none" stroke="#191970" d="M1795.7886,-315.43C1812.8035,-306.5961 1839.0473,-292.5536 1861,-279 1923.5212,-240.3993 1931.0499,-217.396 1997,-185 2044.3096,-161.7606 2064.9361,-176.3408 2110,-149 2137.4778,-132.3289 2162.6079,-104.3531 2177.1045,-86.4228"/>
<polygon fill="#191970" stroke="#191970" points="2179.8907,-88.542 2183.3306,-78.5212 2174.3924,-84.2097 2179.8907,-88.542"/>
</g>
<!-- Node9 -->
<g id="node10" class="node">
<title>Node9</title>
<g id="a_node10"><a xlink:href="simple__bimap_8hpp.html" target="_top" xlink:title="../utils/simple_bimap.hpp">
<polygon fill="#ffffff" stroke="#000000" points="1369.9731,-255.5 1369.9731,-273.5 1496.0269,-273.5 1496.0269,-255.5 1369.9731,-255.5"/>
<text text-anchor="middle" x="1433" y="-261.5" font-family="Helvetica,sans-Serif" font-size="10.00" fill="#000000">../utils/simple_bimap.hpp</text>
</a>
</g>
</g>
<!-- Node8&#45;&gt;Node9 -->
<g id="edge11" class="edge">
<title>Node8&#45;&gt;Node9</title>
<path fill="none" stroke="#191970" d="M1733.6036,-316.7789C1672.9306,-306.2271 1563.8189,-287.2511 1495.0742,-275.2955"/>
<polygon fill="#191970" stroke="#191970" points="1495.2702,-271.7771 1484.8184,-273.5119 1494.0708,-278.6736 1495.2702,-271.7771"/>
</g>
<!-- Node11 -->
<g id="node12" class="node">
<title>Node11</title>
<polygon fill="#ffffff" stroke="#bfbfbf" points="1719.6875,-250.5 1719.6875,-278.5 1836.3125,-278.5 1836.3125,-250.5 1719.6875,-250.5"/>
<text text-anchor="start" x="1727.6875" y="-266.5" font-family="Helvetica,sans-Serif" font-size="10.00" fill="#000000">boost/graph/adjacency</text>
<text text-anchor="middle" x="1778" y="-256.5" font-family="Helvetica,sans-Serif" font-size="10.00" fill="#000000">_list.hpp</text>
</g>
<!-- Node8&#45;&gt;Node11 -->
<g id="edge13" class="edge">
<title>Node8&#45;&gt;Node11</title>
<path fill="none" stroke="#191970" d="M1778,-315.3873C1778,-308.3369 1778,-298.2311 1778,-288.8806"/>
<polygon fill="#191970" stroke="#191970" points="1781.5001,-288.8476 1778,-278.8477 1774.5001,-288.8477 1781.5001,-288.8476"/>
</g>
<!-- Node12 -->
<g id="node13" class="node">
<title>Node12</title>
<g id="a_node13"><a xlink:href="base__graph__impl_8hpp.html" target="_top" xlink:title="base_graph_impl.hpp">
<polygon fill="#ffffff" stroke="#000000" points="1589.9092,-255.5 1589.9092,-273.5 1702.0908,-273.5 1702.0908,-255.5 1589.9092,-255.5"/>
<text text-anchor="middle" x="1646" y="-261.5" font-family="Helvetica,sans-Serif" font-size="10.00" fill="#000000">base_graph_impl.hpp</text>
</a>
</g>
</g>
<!-- Node8&#45;&gt;Node12 -->
<g id="edge17" class="edge">
<title>Node8&#45;&gt;Node12</title>
<path fill="none" stroke="#191970" d="M1757.952,-315.3873C1735.9221,-305.3737 1700.3321,-289.1964 1675.2024,-277.7738"/>
<polygon fill="#191970" stroke="#191970" points="1676.3561,-274.4537 1665.8041,-273.5019 1673.4595,-280.8262 1676.3561,-274.4537"/>
</g>
<!-- Node9&#45;&gt;Node10 -->
<g id="edge12" class="edge">
<title>Node9&#45;&gt;Node10</title>
<path fill="none" stroke="#191970" d="M1420.3468,-255.462C1405.6249,-244.9464 1381.0793,-227.4138 1363.3814,-214.7725"/>
<polygon fill="#191970" stroke="#191970" points="1365.0108,-211.6351 1354.8391,-208.6708 1360.9421,-217.3313 1365.0108,-211.6351"/>
</g>
<!-- Node12&#45;&gt;Node6 -->
<g id="edge55" class="edge">
<title>Node12&#45;&gt;Node6</title>
<path fill="none" stroke="#191970" d="M1685.7357,-255.4796C1725.9225,-246.0965 1789.6884,-230.4933 1844,-214 1880.9885,-202.7674 1888.9759,-196.1147 1926,-185 1989.597,-165.908 2010.2666,-175.8429 2071,-149 2109.3187,-132.0639 2148.7856,-102.9483 2171.2642,-85.045"/>
<polygon fill="#191970" stroke="#191970" points="2173.7031,-87.5738 2179.2754,-78.5627 2169.2999,-82.1321 2173.7031,-87.5738"/>
</g>
<!-- Node12&#45;&gt;Node10 -->
<g id="edge53" class="edge">
<title>Node12&#45;&gt;Node10</title>
<path fill="none" stroke="#191970" d="M1603.7301,-255.462C1548.9805,-243.7557 1453.5611,-223.3535 1394.3058,-210.6838"/>
<polygon fill="#191970" stroke="#191970" points="1394.9106,-207.2341 1384.3998,-208.5658 1393.447,-214.0794 1394.9106,-207.2341"/>
</g>
<!-- Node13 -->
<g id="node14" class="node">
<title>Node13</title>
<g id="a_node14"><a xlink:href="connectivity_8hpp.html" target="_top" xlink:title="../algorithm/graph\l/connectivity.hpp">
<polygon fill="#ffffff" stroke="#000000" points="1968.0913,-120.5 1968.0913,-148.5 2061.9087,-148.5 2061.9087,-120.5 1968.0913,-120.5"/>
<text text-anchor="start" x="1976.0913" y="-136.5" font-family="Helvetica,sans-Serif" font-size="10.00" fill="#000000">../algorithm/graph</text>
<text text-anchor="middle" x="2015" y="-126.5" font-family="Helvetica,sans-Serif" font-size="10.00" fill="#000000">/connectivity.hpp</text>
</a>
</g>
</g>
<!-- Node12&#45;&gt;Node13 -->
<g id="edge18" class="edge">
<title>Node12&#45;&gt;Node13</title>
<path fill="none" stroke="#191970" d="M1671.6544,-255.4619C1732.3895,-234.0647 1885.8288,-180.0075 1965.4101,-151.9707"/>
<polygon fill="#191970" stroke="#191970" points="1966.934,-155.1447 1975.2028,-148.5207 1964.608,-148.5425 1966.934,-155.1447"/>
</g>
<!-- Node15 -->
<g id="node16" class="node">
<title>Node15</title>
<g id="a_node16"><a xlink:href="cycles_8hpp.html" target="_top" xlink:title="../algorithm/graph\l/cycles.hpp">
<polygon fill="#ffffff" stroke="#000000" points="2006.0913,-185.5 2006.0913,-213.5 2099.9087,-213.5 2099.9087,-185.5 2006.0913,-185.5"/>
<text text-anchor="start" x="2014.0913" y="-201.5" font-family="Helvetica,sans-Serif" font-size="10.00" fill="#000000">../algorithm/graph</text>
<text text-anchor="middle" x="2053" y="-191.5" font-family="Helvetica,sans-Serif" font-size="10.00" fill="#000000">/cycles.hpp</text>
</a>
</g>
</g>
<!-- Node12&#45;&gt;Node15 -->
<g id="edge23" class="edge">
<title>Node12&#45;&gt;Node15</title>
<path fill="none" stroke="#191970" d="M1684.4001,-255.4473C1693.1207,-253.5272 1702.3596,-251.5995 1711,-250 1810.7791,-231.5295 1927.9341,-215.4294 1995.9929,-206.625"/>
<polygon fill="#191970" stroke="#191970" points="1996.6056,-210.0751 2006.0771,-205.3274 1995.7122,-203.1323 1996.6056,-210.0751"/>
</g>
<!-- Node22 -->
<g id="node23" class="node">
<title>Node22</title>
<g id="a_node23"><a xlink:href="serialise_8hpp.html" target="_top" xlink:title="../utils/serialise.hpp">
<polygon fill="#ffffff" stroke="#000000" points="1154.4805,-125.5 1154.4805,-143.5 1255.5195,-143.5 1255.5195,-125.5 1154.4805,-125.5"/>
<text text-anchor="middle" x="1205" y="-131.5" font-family="Helvetica,sans-Serif" font-size="10.00" fill="#000000">../utils/serialise.hpp</text>
</a>
</g>
</g>
<!-- Node12&#45;&gt;Node22 -->
<g id="edge33" class="edge">
<title>Node12&#45;&gt;Node22</title>
<path fill="none" stroke="#191970" d="M1638.0132,-255.2469C1622.6811,-238.1688 1587.2372,-201.9001 1549,-185 1499.4613,-163.1048 1350.3353,-147.091 1265.5858,-139.4722"/>
<polygon fill="#191970" stroke="#191970" points="1265.8508,-135.982 1255.5806,-138.5848 1265.2323,-142.9546 1265.8508,-135.982"/>
</g>
<!-- Node37 -->
<g id="node38" class="node">
<title>Node37</title>
<g id="a_node38"><a xlink:href="triple_8hpp.html" target="_top" xlink:title="../utils/triple.hpp">
<polygon fill="#ffffff" stroke="#000000" points="1453.9829,-190.5 1453.9829,-208.5 1540.0171,-208.5 1540.0171,-190.5 1453.9829,-190.5"/>
<text text-anchor="middle" x="1497" y="-196.5" font-family="Helvetica,sans-Serif" font-size="10.00" fill="#000000">../utils/triple.hpp</text>
</a>
</g>
</g>
<!-- Node12&#45;&gt;Node37 -->
<g id="edge49" class="edge">
<title>Node12&#45;&gt;Node37</title>
<path fill="none" stroke="#191970" d="M1625.2822,-255.462C1599.8502,-244.3675 1556.5137,-225.4624 1527.3303,-212.7313"/>
<polygon fill="#191970" stroke="#191970" points="1528.5875,-209.4613 1518.0222,-208.6708 1525.7885,-215.8774 1528.5875,-209.4613"/>
</g>
<!-- Node12&#45;&gt;Node39 -->
<g id="edge54" class="edge">
<title>Node12&#45;&gt;Node39</title>
<path fill="none" stroke="#191970" d="M1589.7769,-258.5302C1517.1918,-250.4288 1387.1176,-234.5724 1277,-214 1271.914,-213.0498 1266.6138,-211.9526 1261.3543,-210.7958"/>
<polygon fill="#191970" stroke="#191970" points="1261.8844,-207.327 1251.357,-208.5205 1260.3309,-214.1525 1261.8844,-207.327"/>
</g>
<!-- Node13&#45;&gt;Node2 -->
<g id="edge19" class="edge">
<title>Node13&#45;&gt;Node2</title>
<path fill="none" stroke="#191970" d="M1998.7261,-120.396C1986.8247,-110.0814 1970.67,-96.0807 1958.3165,-85.3743"/>
<polygon fill="#191970" stroke="#191970" points="1960.3195,-82.4787 1950.4704,-78.5743 1955.735,-87.7686 1960.3195,-82.4787"/>
</g>
<!-- Node13&#45;&gt;Node3 -->
<g id="edge20" class="edge">
<title>Node13&#45;&gt;Node3</title>
<path fill="none" stroke="#191970" d="M2034.021,-120.2966C2045.7015,-110.9064 2060.4027,-97.8154 2071,-84 2084.2112,-66.7769 2094.9516,-44.2625 2101.6014,-28.5107"/>
<polygon fill="#191970" stroke="#191970" points="2105.0113,-29.4161 2105.5318,-18.834 2098.5259,-26.7819 2105.0113,-29.4161"/>
</g>
<!-- Node13&#45;&gt;Node6 -->
<g id="edge22" class="edge">
<title>Node13&#45;&gt;Node6</title>
<path fill="none" stroke="#191970" d="M2052.9724,-120.396C2084.5829,-108.6549 2129.052,-92.1378 2158.6616,-81.14"/>
<polygon fill="#191970" stroke="#191970" points="2159.9379,-84.3996 2168.0934,-77.6367 2157.5005,-77.8377 2159.9379,-84.3996"/>
</g>
<!-- Node14 -->
<g id="node15" class="node">
<title>Node14</title>
<polygon fill="#ffffff" stroke="#bfbfbf" points="2023.6133,-60.5 2023.6133,-78.5 2062.3867,-78.5 2062.3867,-60.5 2023.6133,-60.5"/>
<text text-anchor="middle" x="2043" y="-66.5" font-family="Helvetica,sans-Serif" font-size="10.00" fill="#000000">limits</text>
</g>
<!-- Node13&#45;&gt;Node14 -->
<g id="edge21" class="edge">
<title>Node13&#45;&gt;Node14</title>
<path fill="none" stroke="#191970" d="M2021.0756,-120.396C2025.177,-110.8748 2030.6314,-98.2128 2035.0737,-87.9003"/>
<polygon fill="#191970" stroke="#191970" points="2038.3492,-89.1431 2039.0911,-78.5743 2031.9203,-86.3737 2038.3492,-89.1431"/>
</g>
<!-- Node15&#45;&gt;Node2 -->
<g id="edge24" class="edge">
<title>Node15&#45;&gt;Node2</title>
<path fill="none" stroke="#191970" d="M2005.8415,-186.7719C1973.7678,-177.0523 1935.4923,-162.9897 1926,-149 1913.6338,-130.7747 1921.7267,-104.9655 1929.8197,-87.7523"/>
<polygon fill="#191970" stroke="#191970" points="1932.995,-89.2302 1934.4301,-78.733 1926.7621,-86.0441 1932.995,-89.2302"/>
</g>
<!-- Node16 -->
<g id="node17" class="node">
<title>Node16</title>
<g id="a_node17"><a xlink:href="numerics_8hpp.html" target="_top" xlink:title="../../utils/numerics.hpp">
<polygon fill="#ffffff" stroke="#000000" points="2346.3696,-125.5 2346.3696,-143.5 2459.6304,-143.5 2459.6304,-125.5 2346.3696,-125.5"/>
<text text-anchor="middle" x="2403" y="-131.5" font-family="Helvetica,sans-Serif" font-size="10.00" fill="#000000">../../utils/numerics.hpp</text>
</a>
</g>
</g>
<!-- Node15&#45;&gt;Node16 -->
<g id="edge25" class="edge">
<title>Node15&#45;&gt;Node16</title>
<path fill="none" stroke="#191970" d="M2100.2026,-190.7338C2163.3858,-178.9998 2275.4385,-158.19 2344.0835,-145.4416"/>
<polygon fill="#191970" stroke="#191970" points="2345.1067,-148.8115 2354.2995,-143.5444 2343.8285,-141.9292 2345.1067,-148.8115"/>
</g>
<!-- Node16&#45;&gt;Node3 -->
<g id="edge28" class="edge">
<title>Node16&#45;&gt;Node3</title>
<path fill="none" stroke="#191970" d="M2424.5792,-125.4945C2455.9635,-111.1755 2507.9777,-82.0629 2484,-55 2461.4292,-29.5251 2228.8766,-15.4463 2141.7344,-11.0328"/>
<polygon fill="#191970" stroke="#191970" points="2141.7764,-7.5307 2131.6152,-10.5309 2141.4295,-14.5221 2141.7764,-7.5307"/>
</g>
<!-- Node16&#45;&gt;Node6 -->
<g id="edge32" class="edge">
<title>Node16&#45;&gt;Node6</title>
<path fill="none" stroke="#191970" d="M2361.986,-125.433C2324.4481,-116.6082 2267.6611,-101.9257 2220,-84 2218.9712,-83.6131 2217.9299,-83.2037 2216.8836,-82.7774"/>
<polygon fill="#191970" stroke="#191970" points="2218.0947,-79.4858 2207.5346,-78.6295 2215.2559,-85.8843 2218.0947,-79.4858"/>
</g>
<!-- Node17 -->
<g id="node18" class="node">
<title>Node17</title>
<polygon fill="#ffffff" stroke="#bfbfbf" points="2229.436,-60.5 2229.436,-78.5 2286.564,-78.5 2286.564,-60.5 2229.436,-60.5"/>
<text text-anchor="middle" x="2258" y="-66.5" font-family="Helvetica,sans-Serif" font-size="10.00" fill="#000000">algorithm</text>
</g>
<!-- Node16&#45;&gt;Node17 -->
<g id="edge26" class="edge">
<title>Node16&#45;&gt;Node17</title>
<path fill="none" stroke="#191970" d="M2382.8384,-125.462C2358.1967,-114.4158 2316.2824,-95.6266 2287.8873,-82.8977"/>
<polygon fill="#191970" stroke="#191970" points="2289.0147,-79.5676 2278.4578,-78.6708 2286.1512,-85.9552 2289.0147,-79.5676"/>
</g>
<!-- Node18 -->
<g id="node19" class="node">
<title>Node18</title>
<polygon fill="#ffffff" stroke="#bfbfbf" points="2304.3843,-60.5 2304.3843,-78.5 2347.6157,-78.5 2347.6157,-60.5 2304.3843,-60.5"/>
<text text-anchor="middle" x="2326" y="-66.5" font-family="Helvetica,sans-Serif" font-size="10.00" fill="#000000">cmath</text>
</g>
<!-- Node16&#45;&gt;Node18 -->
<g id="edge27" class="edge">
<title>Node16&#45;&gt;Node18</title>
<path fill="none" stroke="#191970" d="M2392.2935,-125.462C2380.0205,-115.1017 2359.6789,-97.9303 2344.7594,-85.3358"/>
<polygon fill="#191970" stroke="#191970" points="2347.0133,-82.6582 2337.1142,-78.8821 2342.4979,-88.0072 2347.0133,-82.6582"/>
</g>
<!-- Node19 -->
<g id="node20" class="node">
<title>Node19</title>
<polygon fill="#ffffff" stroke="#bfbfbf" points="2531.4385,-60.5 2531.4385,-78.5 2578.5615,-78.5 2578.5615,-60.5 2531.4385,-60.5"/>
<text text-anchor="middle" x="2555" y="-66.5" font-family="Helvetica,sans-Serif" font-size="10.00" fill="#000000">iterator</text>
</g>
<!-- Node16&#45;&gt;Node19 -->
<g id="edge29" class="edge">
<title>Node16&#45;&gt;Node19</title>
<path fill="none" stroke="#191970" d="M2424.1349,-125.462C2450.079,-114.3675 2494.288,-95.4624 2524.059,-82.7313"/>
<polygon fill="#191970" stroke="#191970" points="2525.7361,-85.8208 2533.5545,-78.6708 2522.9838,-79.3846 2525.7361,-85.8208"/>
</g>
<!-- Node20 -->
<g id="node21" class="node">
<title>Node20</title>
<polygon fill="#ffffff" stroke="#bfbfbf" points="2365.2168,-60.5 2365.2168,-78.5 2416.7832,-78.5 2416.7832,-60.5 2365.2168,-60.5"/>
<text text-anchor="middle" x="2391" y="-66.5" font-family="Helvetica,sans-Serif" font-size="10.00" fill="#000000">numeric</text>
</g>
<!-- Node16&#45;&gt;Node20 -->
<g id="edge30" class="edge">
<title>Node16&#45;&gt;Node20</title>
<path fill="none" stroke="#191970" d="M2401.3315,-125.462C2399.5959,-116.061 2396.8249,-101.0518 2394.5895,-88.943"/>
<polygon fill="#191970" stroke="#191970" points="2397.9895,-88.0805 2392.7321,-78.8821 2391.1058,-89.3514 2397.9895,-88.0805"/>
</g>
<!-- Node21 -->
<g id="node22" class="node">
<title>Node21</title>
<polygon fill="#ffffff" stroke="#bfbfbf" points="2434.7734,-60.5 2434.7734,-78.5 2475.2266,-78.5 2475.2266,-60.5 2434.7734,-60.5"/>
<text text-anchor="middle" x="2455" y="-66.5" font-family="Helvetica,sans-Serif" font-size="10.00" fill="#000000">string</text>
</g>
<!-- Node16&#45;&gt;Node21 -->
<g id="edge31" class="edge">
<title>Node16&#45;&gt;Node21</title>
<path fill="none" stroke="#191970" d="M2410.2304,-125.462C2418.2117,-115.4854 2431.2457,-99.1929 2441.1972,-86.7535"/>
<polygon fill="#191970" stroke="#191970" points="2443.9803,-88.8773 2447.4943,-78.8821 2438.5143,-84.5044 2443.9803,-88.8773"/>
</g>
<!-- Node22&#45;&gt;Node2 -->
<g id="edge34" class="edge">
<title>Node22&#45;&gt;Node2</title>
<path fill="none" stroke="#191970" d="M1255.8687,-131.1766C1362.1094,-124.058 1615.2664,-106.1678 1827,-84 1838.9104,-82.753 1851.5079,-81.2848 1863.8012,-79.7697"/>
<polygon fill="#191970" stroke="#191970" points="1864.5459,-83.2039 1874.0342,-78.4899 1863.6771,-76.2581 1864.5459,-83.2039"/>
</g>
<!-- Node23 -->
<g id="node24" class="node">
<title>Node23</title>
<polygon fill="#ffffff" stroke="#bfbfbf" points="825.6997,-60.5 825.6997,-78.5 922.3003,-78.5 922.3003,-60.5 825.6997,-60.5"/>
<text text-anchor="middle" x="874" y="-66.5" font-family="Helvetica,sans-Serif" font-size="10.00" fill="#000000">cereal/access.hpp</text>
</g>
<!-- Node22&#45;&gt;Node23 -->
<g id="edge35" class="edge">
<title>Node22&#45;&gt;Node23</title>
<path fill="none" stroke="#191970" d="M1169.5588,-125.4973C1161.5088,-123.5746 1152.9791,-121.6332 1145,-120 1050.5114,-100.66 1025.371,-103.9057 931,-84 926.6101,-83.074 922.0481,-82.0388 917.5023,-80.9591"/>
<polygon fill="#191970" stroke="#191970" points="918.195,-77.5254 907.6498,-78.5494 916.5319,-84.325 918.195,-77.5254"/>
</g>
<!-- Node24 -->
<g id="node25" class="node">
<title>Node24</title>
<polygon fill="#ffffff" stroke="#bfbfbf" points="940.0815,-60.5 940.0815,-78.5 1063.9185,-78.5 1063.9185,-60.5 940.0815,-60.5"/>
<text text-anchor="middle" x="1002" y="-66.5" font-family="Helvetica,sans-Serif" font-size="10.00" fill="#000000">cereal/archives/json.hpp</text>
</g>
<!-- Node22&#45;&gt;Node24 -->
<g id="edge36" class="edge">
<title>Node22&#45;&gt;Node24</title>
<path fill="none" stroke="#191970" d="M1176.7737,-125.462C1141.1204,-114.0459 1079.6392,-94.3599 1039.9148,-81.6402"/>
<polygon fill="#191970" stroke="#191970" points="1040.9041,-78.282 1030.313,-78.5658 1038.7694,-84.9486 1040.9041,-78.282"/>
</g>
<!-- Node25 -->
<g id="node26" class="node">
<title>Node25</title>
<polygon fill="#ffffff" stroke="#bfbfbf" points="1081.9165,-55.5 1081.9165,-83.5 1204.0835,-83.5 1204.0835,-55.5 1081.9165,-55.5"/>
<text text-anchor="start" x="1089.9165" y="-71.5" font-family="Helvetica,sans-Serif" font-size="10.00" fill="#000000">cereal/archives/portable</text>
<text text-anchor="middle" x="1143" y="-61.5" font-family="Helvetica,sans-Serif" font-size="10.00" fill="#000000">_binary.hpp</text>
</g>
<!-- Node22&#45;&gt;Node25 -->
<g id="edge37" class="edge">
<title>Node22&#45;&gt;Node25</title>
<path fill="none" stroke="#191970" d="M1196.3792,-125.462C1187.9725,-116.6486 1174.8642,-102.906 1163.7417,-91.2453"/>
<polygon fill="#191970" stroke="#191970" points="1166.2235,-88.7762 1156.7887,-83.9559 1161.1582,-93.6077 1166.2235,-88.7762"/>
</g>
<!-- Node26 -->
<g id="node27" class="node">
<title>Node26</title>
<polygon fill="#ffffff" stroke="#bfbfbf" points="1221.6431,-60.5 1221.6431,-78.5 1314.3569,-78.5 1314.3569,-60.5 1221.6431,-60.5"/>
<text text-anchor="middle" x="1268" y="-66.5" font-family="Helvetica,sans-Serif" font-size="10.00" fill="#000000">cereal/cereal.hpp</text>
</g>
<!-- Node22&#45;&gt;Node26 -->
<g id="edge38" class="edge">
<title>Node22&#45;&gt;Node26</title>
<path fill="none" stroke="#191970" d="M1213.7599,-125.462C1223.5225,-115.3895 1239.525,-98.879 1251.6241,-86.3957"/>
<polygon fill="#191970" stroke="#191970" points="1254.46,-88.4988 1258.9065,-78.8821 1249.4335,-83.6269 1254.46,-88.4988"/>
</g>
<!-- Node27 -->
<g id="node28" class="node">
<title>Node27</title>
<polygon fill="#ffffff" stroke="#bfbfbf" points="1331.8984,-60.5 1331.8984,-78.5 1446.1016,-78.5 1446.1016,-60.5 1331.8984,-60.5"/>
<text text-anchor="middle" x="1389" y="-66.5" font-family="Helvetica,sans-Serif" font-size="10.00" fill="#000000">cereal/types/array.hpp</text>
</g>
<!-- Node22&#45;&gt;Node27 -->
<g id="edge39" class="edge">
<title>Node22&#45;&gt;Node27</title>
<path fill="none" stroke="#191970" d="M1230.5844,-125.462C1262.6269,-114.1427 1317.6846,-94.6929 1353.7143,-81.9651"/>
<polygon fill="#191970" stroke="#191970" points="1355.0738,-85.1968 1363.3369,-78.5658 1352.7422,-78.5966 1355.0738,-85.1968"/>
</g>
<!-- Node28 -->
<g id="node29" class="node">
<title>Node28</title>
<polygon fill="#ffffff" stroke="#bfbfbf" points="1463.9707,-60.5 1463.9707,-78.5 1580.0293,-78.5 1580.0293,-60.5 1463.9707,-60.5"/>
<text text-anchor="middle" x="1522" y="-66.5" font-family="Helvetica,sans-Serif" font-size="10.00" fill="#000000">cereal/types/bitset.hpp</text>
</g>
<!-- Node22&#45;&gt;Node28 -->
<g id="edge40" class="edge">
<title>Node22&#45;&gt;Node28</title>
<path fill="none" stroke="#191970" d="M1250.658,-125.4738C1300.8077,-115.5137 1383.7037,-98.9151 1455,-84 1460.04,-82.9456 1465.2902,-81.8335 1470.5355,-80.7132"/>
<polygon fill="#191970" stroke="#191970" points="1471.5171,-84.0823 1480.5601,-78.5619 1470.0483,-77.2382 1471.5171,-84.0823"/>
</g>
<!-- Node29 -->
<g id="node30" class="node">
<title>Node29</title>
<polygon fill="#ffffff" stroke="#bfbfbf" points="1598.1382,-55.5 1598.1382,-83.5 1705.8618,-83.5 1705.8618,-55.5 1598.1382,-55.5"/>
<text text-anchor="start" x="1606.1382" y="-71.5" font-family="Helvetica,sans-Serif" font-size="10.00" fill="#000000">cereal/types/boost</text>
<text text-anchor="middle" x="1652" y="-61.5" font-family="Helvetica,sans-Serif" font-size="10.00" fill="#000000">_dynamic_bitset.hpp</text>
</g>
<!-- Node22&#45;&gt;Node29 -->
<g id="edge41" class="edge">
<title>Node22&#45;&gt;Node29</title>
<path fill="none" stroke="#191970" d="M1255.5572,-129.4072C1327.2779,-121.84 1462.8317,-106.2777 1587.9711,-84.0769"/>
<polygon fill="#191970" stroke="#191970" points="1588.888,-87.4684 1598.1135,-82.2586 1587.6528,-80.5782 1588.888,-87.4684"/>
</g>
<!-- Node30 -->
<g id="node31" class="node">
<title>Node30</title>
<polygon fill="#ffffff" stroke="#bfbfbf" points="1724.0913,-55.5 1724.0913,-83.5 1817.9087,-83.5 1817.9087,-55.5 1724.0913,-55.5"/>
<text text-anchor="start" x="1732.0913" y="-71.5" font-family="Helvetica,sans-Serif" font-size="10.00" fill="#000000">cereal/types/eastl</text>
<text text-anchor="middle" x="1771" y="-61.5" font-family="Helvetica,sans-Serif" font-size="10.00" fill="#000000">_bitset.hpp</text>
</g>
<!-- Node22&#45;&gt;Node30 -->
<g id="edge42" class="edge">
<title>Node22&#45;&gt;Node30</title>
<path fill="none" stroke="#191970" d="M1255.6643,-132.0839C1345.9698,-127.2126 1540.7402,-114.154 1713.9974,-83.9917"/>
<polygon fill="#191970" stroke="#191970" points="1714.8227,-87.4002 1724.0623,-82.2157 1713.6062,-80.5067 1714.8227,-87.4002"/>
</g>
<!-- Node31 -->
<g id="node32" class="node">
<title>Node31</title>
<polygon fill="#ffffff" stroke="#bfbfbf" points="145.6875,-60.5 145.6875,-78.5 262.3125,-78.5 262.3125,-60.5 145.6875,-60.5"/>
<text text-anchor="middle" x="204" y="-66.5" font-family="Helvetica,sans-Serif" font-size="10.00" fill="#000000">cereal/types/eigen.hpp</text>
</g>
<!-- Node22&#45;&gt;Node31 -->
<g id="edge43" class="edge">
<title>Node22&#45;&gt;Node31</title>
<path fill="none" stroke="#191970" d="M1172.5265,-125.4252C1163.6662,-123.2863 1154.021,-121.2634 1145,-120 759.9836,-66.079 656.6354,-133.2991 271,-84 264.2581,-83.1381 257.19,-81.9392 250.2765,-80.5965"/>
<polygon fill="#191970" stroke="#191970" points="250.8143,-77.1339 240.3143,-78.5488 249.4049,-83.9906 250.8143,-77.1339"/>
</g>
<!-- Node32 -->
<g id="node33" class="node">
<title>Node32</title>
<polygon fill="#ffffff" stroke="#bfbfbf" points="280.1948,-60.5 280.1948,-78.5 391.8052,-78.5 391.8052,-60.5 280.1948,-60.5"/>
<text text-anchor="middle" x="336" y="-66.5" font-family="Helvetica,sans-Serif" font-size="10.00" fill="#000000">cereal/types/map.hpp</text>
</g>
<!-- Node22&#45;&gt;Node32 -->
<g id="edge44" class="edge">
<title>Node22&#45;&gt;Node32</title>
<path fill="none" stroke="#191970" d="M1172.5204,-125.4686C1163.6601,-123.3296 1154.0164,-121.2958 1145,-120 817.3131,-72.9074 729.0895,-128.2011 401,-84 394.6083,-83.1389 387.9159,-81.9646 381.3574,-80.6545"/>
<polygon fill="#191970" stroke="#191970" points="381.7318,-77.1563 371.2237,-78.5095 380.2821,-84.0045 381.7318,-77.1563"/>
</g>
<!-- Node33 -->
<g id="node34" class="node">
<title>Node33</title>
<polygon fill="#ffffff" stroke="#bfbfbf" points="410.2334,-60.5 410.2334,-78.5 537.7666,-78.5 537.7666,-60.5 410.2334,-60.5"/>
<text text-anchor="middle" x="474" y="-66.5" font-family="Helvetica,sans-Serif" font-size="10.00" fill="#000000">cereal/types/memory.hpp</text>
</g>
<!-- Node22&#45;&gt;Node33 -->
<g id="edge45" class="edge">
<title>Node22&#45;&gt;Node33</title>
<path fill="none" stroke="#191970" d="M1172.1969,-125.4641C1163.4229,-123.3523 1153.9026,-121.333 1145,-120 881.6764,-80.573 811.0772,-118.0154 547,-84 539.6042,-83.0474 531.833,-81.7873 524.2315,-80.4069"/>
<polygon fill="#191970" stroke="#191970" points="524.8594,-76.9637 514.3823,-78.5386 523.5548,-83.8411 524.8594,-76.9637"/>
</g>
<!-- Node34 -->
<g id="node35" class="node">
<title>Node34</title>
<polygon fill="#ffffff" stroke="#bfbfbf" points="555.8984,-60.5 555.8984,-78.5 670.1016,-78.5 670.1016,-60.5 555.8984,-60.5"/>
<text text-anchor="middle" x="613" y="-66.5" font-family="Helvetica,sans-Serif" font-size="10.00" fill="#000000">cereal/types/utility.hpp</text>
</g>
<!-- Node22&#45;&gt;Node34 -->
<g id="edge46" class="edge">
<title>Node22&#45;&gt;Node34</title>
<path fill="none" stroke="#191970" d="M1171.8673,-125.492C1163.1806,-123.4062 1153.7851,-121.3924 1145,-120 940.2706,-87.5503 885.1039,-113.9918 680,-84 673.663,-83.0734 667.0297,-81.8956 660.5047,-80.6132"/>
<polygon fill="#191970" stroke="#191970" points="660.8986,-77.121 650.3982,-78.533 659.4873,-83.9773 660.8986,-77.121"/>
</g>
<!-- Node35 -->
<g id="node36" class="node">
<title>Node35</title>
<polygon fill="#ffffff" stroke="#bfbfbf" points="688.5791,-60.5 688.5791,-78.5 807.4209,-78.5 807.4209,-60.5 688.5791,-60.5"/>
<text text-anchor="middle" x="748" y="-66.5" font-family="Helvetica,sans-Serif" font-size="10.00" fill="#000000">cereal/types/vector.hpp</text>
</g>
<!-- Node22&#45;&gt;Node35 -->
<g id="edge47" class="edge">
<title>Node22&#45;&gt;Node35</title>
<path fill="none" stroke="#191970" d="M1170.8907,-125.4583C1162.4711,-123.4478 1153.4449,-121.4776 1145,-120 1000.5415,-94.7237 961.8213,-107.1075 817,-84 810.7332,-83.0001 804.1748,-81.8105 797.6999,-80.549"/>
<polygon fill="#191970" stroke="#191970" points="798.1419,-77.0678 787.6477,-78.5246 796.7598,-83.9301 798.1419,-77.0678"/>
</g>
<!-- Node36 -->
<g id="node37" class="node">
<title>Node36</title>
<polygon fill="#ffffff" stroke="#bfbfbf" points="65.9336,-60.5 65.9336,-78.5 128.0664,-78.5 128.0664,-60.5 65.9336,-60.5"/>
<text text-anchor="middle" x="97" y="-66.5" font-family="Helvetica,sans-Serif" font-size="10.00" fill="#000000">type_traits</text>
</g>
<!-- Node22&#45;&gt;Node36 -->
<g id="edge48" class="edge">
<title>Node22&#45;&gt;Node36</title>
<path fill="none" stroke="#191970" d="M1172.8435,-125.4677C1163.8978,-123.3009 1154.1306,-121.2533 1145,-120 700.8787,-59.039 577.071,-169.4255 137,-84 133.9794,-83.4136 130.8827,-82.6342 127.8147,-81.74"/>
<polygon fill="#191970" stroke="#191970" points="128.8335,-78.3907 118.2405,-78.5888 126.645,-85.0398 128.8335,-78.3907"/>
</g>
<!-- Node37&#45;&gt;Node22 -->
<g id="edge52" class="edge">
<title>Node37&#45;&gt;Node22</title>
<path fill="none" stroke="#191970" d="M1462.3865,-190.4742C1455.0103,-188.6126 1447.2571,-186.7022 1440,-185 1378.1749,-170.4987 1306.8136,-155.3932 1259.0997,-145.5259"/>
<polygon fill="#191970" stroke="#191970" points="1259.7898,-142.0947 1249.2889,-143.5019 1258.3755,-148.9503 1259.7898,-142.0947"/>
</g>
<!-- Node37&#45;&gt;Node36 -->
<g id="edge50" class="edge">
<title>Node37&#45;&gt;Node36</title>
<path fill="none" stroke="#191970" d="M1465.5468,-190.4712C1457.2941,-188.3857 1448.3625,-186.3773 1440,-185 1153.4364,-137.8041 420.8877,-145.2696 137,-84 134.157,-83.3864 131.2422,-82.6185 128.3451,-81.7584"/>
<polygon fill="#191970" stroke="#191970" points="129.2858,-78.3832 118.6926,-78.5683 127.0892,-85.0296 129.2858,-78.3832"/>
</g>
<!-- Node38 -->
<g id="node39" class="node">
<title>Node38</title>
<polygon fill="#ffffff" stroke="#bfbfbf" points="1097.6084,-125.5 1097.6084,-143.5 1136.3916,-143.5 1136.3916,-125.5 1097.6084,-125.5"/>
<text text-anchor="middle" x="1117" y="-131.5" font-family="Helvetica,sans-Serif" font-size="10.00" fill="#000000">utility</text>
</g>
<!-- Node37&#45;&gt;Node38 -->
<g id="edge51" class="edge">
<title>Node37&#45;&gt;Node38</title>
<path fill="none" stroke="#191970" d="M1464.6051,-190.4968C1456.6063,-188.4851 1448.029,-186.5048 1440,-185 1310.1766,-160.6689 1271.1988,-187.987 1145,-149 1143.7643,-148.6183 1142.5183,-148.1835 1141.2742,-147.7087"/>
<polygon fill="#191970" stroke="#191970" points="1142.538,-144.4389 1131.9845,-143.5029 1139.6508,-150.8158 1142.538,-144.4389"/>
</g>
<!-- Node41&#45;&gt;Node2 -->
<g id="edge63" class="edge">
<title>Node41&#45;&gt;Node2</title>
<path fill="none" stroke="#191970" d="M2112.5477,-375.2874C2123.7676,-344.446 2155.1037,-243.4778 2109,-185 2066.553,-131.1604 2007.456,-197.5022 1959,-149 1943.2108,-133.1958 1939.6556,-106.7655 1939.2587,-88.7546"/>
<polygon fill="#191970" stroke="#191970" points="1942.7601,-88.5948 1939.3477,-78.5645 1935.7604,-88.5336 1942.7601,-88.5948"/>
</g>
<!-- Node41&#45;&gt;Node4 -->
<g id="edge68" class="edge">
<title>Node41&#45;&gt;Node4</title>
<path fill="none" stroke="#191970" d="M2101.4655,-375.2897C2058.5732,-322.9099 1846.4245,-64.5548 1827,-55 1749.994,-17.121 1134.9365,-10.707 978.2294,-9.6843"/>
<polygon fill="#191970" stroke="#191970" points="978.187,-6.1841 968.1655,-9.6221 978.1436,-13.184 978.187,-6.1841"/>
</g>
<!-- Node41&#45;&gt;Node5 -->
<g id="edge67" class="edge">
<title>Node41&#45;&gt;Node5</title>
<path fill="none" stroke="#191970" d="M2093.3565,-375.3873C2076.5468,-365.5952 2049.6191,-349.9092 2030.1,-338.5388"/>
<polygon fill="#191970" stroke="#191970" points="2031.8558,-335.5111 2021.4532,-333.5019 2028.3323,-341.5597 2031.8558,-335.5111"/>
</g>
<!-- Node41&#45;&gt;Node6 -->
<g id="edge71" class="edge">
<title>Node41&#45;&gt;Node6</title>
<path fill="none" stroke="#191970" d="M2160.891,-375.4147C2186.2538,-368.3252 2215.0946,-355.8407 2233,-334 2293.6473,-260.0235 2298.3676,-205.7648 2256,-120 2248.242,-104.2955 2232.9985,-92.1287 2219.1143,-83.6762"/>
<polygon fill="#191970" stroke="#191970" points="2220.7029,-80.5534 2210.279,-78.6583 2217.2459,-86.6403 2220.7029,-80.5534"/>
</g>
<!-- Node41&#45;&gt;Node8 -->
<g id="edge64" class="edge">
<title>Node41&#45;&gt;Node8</title>
<path fill="none" stroke="#191970" d="M2059.0876,-375.4524C1998.0985,-364.397 1895.2801,-345.7592 1832.3435,-334.3508"/>
<polygon fill="#191970" stroke="#191970" points="1832.6813,-330.8551 1822.2173,-332.5152 1831.4327,-337.7428 1832.6813,-330.8551"/>
</g>
<!-- Node41&#45;&gt;Node10 -->
<g id="edge65" class="edge">
<title>Node41&#45;&gt;Node10</title>
<path fill="none" stroke="#191970" d="M2061.7012,-375.4305C2050.9702,-373.5113 2039.6093,-371.5881 2029,-370 1880.8353,-347.8211 1471.322,-380.3595 1361,-279 1344.4712,-263.814 1341.1141,-237.0445 1340.962,-218.8027"/>
<polygon fill="#191970" stroke="#191970" points="1344.4628,-218.8039 1341.1924,-208.7264 1337.4647,-218.6438 1344.4628,-218.8039"/>
</g>
<!-- Node41&#45;&gt;Node15 -->
<g id="edge62" class="edge">
<title>Node41&#45;&gt;Node15</title>
<path fill="none" stroke="#191970" d="M2106.223,-375.3258C2097.8584,-347.6929 2072.713,-264.6233 2060.2143,-223.333"/>
<polygon fill="#191970" stroke="#191970" points="2063.5044,-222.1211 2057.2572,-213.564 2056.8046,-224.1492 2063.5044,-222.1211"/>
</g>
<!-- Node41&#45;&gt;Node19 -->
<g id="edge66" class="edge">
<title>Node41&#45;&gt;Node19</title>
<path fill="none" stroke="#191970" d="M2146.4285,-375.4893C2176.496,-367.3027 2219.1423,-353.5103 2253,-334 2378.6376,-261.602 2499.5288,-132.1829 2540.4074,-86.2419"/>
<polygon fill="#191970" stroke="#191970" points="2543.0992,-88.4813 2547.0923,-78.6678 2537.851,-83.8492 2543.0992,-88.4813"/>
</g>
<!-- Node42 -->
<g id="node43" class="node">
<title>Node42</title>
<polygon fill="#ffffff" stroke="#bfbfbf" points="2194.3301,-315.5 2194.3301,-333.5 2223.6699,-333.5 2223.6699,-315.5 2194.3301,-315.5"/>
<text text-anchor="middle" x="2209" y="-321.5" font-family="Helvetica,sans-Serif" font-size="10.00" fill="#000000">set</text>
</g>
<!-- Node41&#45;&gt;Node42 -->
<g id="edge69" class="edge">
<title>Node41&#45;&gt;Node42</title>
<path fill="none" stroke="#191970" d="M2124.1878,-375.3873C2140.528,-365.5832 2166.7157,-349.8706 2185.6718,-338.4969"/>
<polygon fill="#191970" stroke="#191970" points="2187.5477,-341.4531 2194.3219,-333.3069 2183.9462,-335.4507 2187.5477,-341.4531"/>
</g>
<!-- Node43 -->
<g id="node44" class="node">
<title>Node43</title>
<polygon fill="#ffffff" stroke="#bfbfbf" points="2317.5986,-315.5 2317.5986,-333.5 2376.4014,-333.5 2376.4014,-315.5 2317.5986,-315.5"/>
<text text-anchor="middle" x="2347" y="-321.5" font-family="Helvetica,sans-Serif" font-size="10.00" fill="#000000">stdexcept</text>
</g>
<!-- Node41&#45;&gt;Node43 -->
<g id="edge70" class="edge">
<title>Node41&#45;&gt;Node43</title>
<path fill="none" stroke="#191970" d="M2144.8887,-375.4524C2188.7128,-364.4043 2262.5738,-345.7839 2307.8353,-334.3735"/>
<polygon fill="#191970" stroke="#191970" points="2308.7476,-337.7531 2317.5886,-331.9146 2307.0363,-330.9654 2308.7476,-337.7531"/>
</g>
</g>
</svg>
