<?xml version="1.0" encoding="UTF-8" standalone="no"?>
<!DOCTYPE svg PUBLIC "-//W3C//DTD SVG 1.1//EN"
 "http://www.w3.org/Graphics/SVG/1.1/DTD/svg11.dtd">
<!-- Generated by graphviz version 2.40.1 (20161225.0304)
 -->
<!-- Title: include/indigox/algorithm/graph/paths.hpp Pages: 1 -->
<svg width="254pt" height="147pt"
 viewBox="0.00 0.00 254.42 147.00" xmlns="http://www.w3.org/2000/svg" xmlns:xlink="http://www.w3.org/1999/xlink">
<g id="graph0" class="graph" transform="scale(1 1) rotate(0) translate(4 143)">
<title>include/indigox/algorithm/graph/paths.hpp</title>
<polygon fill="#ffffff" stroke="transparent" points="-4,4 -4,-143 250.4233,-143 250.4233,4 -4,4"/>
<!-- Node0 -->
<g id="node1" class="node">
<title>Node0</title>
<g id="a_node1"><a xlink:title=" ">
<polygon fill="#bfbfbf" stroke="#000000" points="104.7759,-110.5 104.7759,-138.5 230.8394,-138.5 230.8394,-110.5 104.7759,-110.5"/>
<text text-anchor="start" x="112.7759" y="-126.5" font-family="Helvetica,sans-Serif" font-size="10.00" fill="#000000">include/indigox/algorithm</text>
<text text-anchor="middle" x="167.8076" y="-116.5" font-family="Helvetica,sans-Serif" font-size="10.00" fill="#000000">/graph/paths.hpp</text>
</a>
</g>
</g>
<!-- Node1 -->
<g id="node2" class="node">
<title>Node1</title>
<g id="a_node2"><a xlink:href="fwd__declares_8hpp.html" target="_top" xlink:title=" ">
<polygon fill="#ffffff" stroke="#000000" points="0,-55.5 0,-73.5 131.6152,-73.5 131.6152,-55.5 0,-55.5"/>
<text text-anchor="middle" x="65.8076" y="-61.5" font-family="Helvetica,sans-Serif" font-size="10.00" fill="#000000">../../utils/fwd_declares.hpp</text>
</a>
</g>
</g>
<!-- Node0&#45;&gt;Node1 -->
<g id="edge1" class="edge">
<title>Node0&#45;&gt;Node1</title>
<path fill="none" stroke="#191970" d="M143.8931,-110.4327C127.7481,-100.9356 106.5015,-88.4376 90.2474,-78.8763"/>
<polygon fill="#191970" stroke="#191970" points="91.7244,-75.6845 81.3304,-73.6311 88.1752,-81.7181 91.7244,-75.6845"/>
</g>
<!-- Node4 -->
<g id="node5" class="node">
<title>Node4</title>
<g id="a_node5"><a xlink:title=" ">
<polygon fill="#ffffff" stroke="#bfbfbf" points="150.0811,-55.5 150.0811,-73.5 185.5342,-73.5 185.5342,-55.5 150.0811,-55.5"/>
<text text-anchor="middle" x="167.8076" y="-61.5" font-family="Helvetica,sans-Serif" font-size="10.00" fill="#000000">map</text>
</a>
</g>
</g>
<!-- Node0&#45;&gt;Node4 -->
<g id="edge4" class="edge">
<title>Node0&#45;&gt;Node4</title>
<path fill="none" stroke="#191970" d="M167.8076,-110.2808C167.8076,-102.3776 167.8076,-92.4316 167.8076,-83.8308"/>
<polygon fill="#191970" stroke="#191970" points="171.3077,-83.5842 167.8076,-73.5842 164.3077,-83.5842 171.3077,-83.5842"/>
</g>
<!-- Node5 -->
<g id="node6" class="node">
<title>Node5</title>
<g id="a_node6"><a xlink:title=" ">
<polygon fill="#ffffff" stroke="#bfbfbf" points="203.1919,-55.5 203.1919,-73.5 246.4233,-73.5 246.4233,-55.5 203.1919,-55.5"/>
<text text-anchor="middle" x="224.8076" y="-61.5" font-family="Helvetica,sans-Serif" font-size="10.00" fill="#000000">vector</text>
</a>
</g>
</g>
<!-- Node0&#45;&gt;Node5 -->
<g id="edge5" class="edge">
<title>Node0&#45;&gt;Node5</title>
<path fill="none" stroke="#191970" d="M181.3158,-110.2808C189.6675,-101.4896 200.4204,-90.1708 209.1445,-80.9875"/>
<polygon fill="#191970" stroke="#191970" points="211.8276,-83.2448 216.1776,-73.5842 206.7526,-78.4236 211.8276,-83.2448"/>
</g>
<!-- Node2 -->
<g id="node3" class="node">
<title>Node2</title>
<g id="a_node3"><a xlink:title=" ">
<polygon fill="#ffffff" stroke="#bfbfbf" points="10.3569,-.5 10.3569,-18.5 55.2583,-18.5 55.2583,-.5 10.3569,-.5"/>
<text text-anchor="middle" x="32.8076" y="-6.5" font-family="Helvetica,sans-Serif" font-size="10.00" fill="#000000">cstdint</text>
</a>
</g>
</g>
<!-- Node1&#45;&gt;Node2 -->
<g id="edge2" class="edge">
<title>Node1&#45;&gt;Node2</title>
<path fill="none" stroke="#191970" d="M60.3583,-55.4179C55.8,-47.8207 49.1592,-36.7527 43.5396,-27.3866"/>
<polygon fill="#191970" stroke="#191970" points="46.5215,-25.5536 38.3753,-18.7795 40.5191,-29.1552 46.5215,-25.5536"/>
</g>
<!-- Node3 -->
<g id="node4" class="node">
<title>Node3</title>
<g id="a_node4"><a xlink:title=" ">
<polygon fill="#ffffff" stroke="#bfbfbf" points="73.751,-.5 73.751,-18.5 125.8643,-18.5 125.8643,-.5 73.751,-.5"/>
<text text-anchor="middle" x="99.8076" y="-6.5" font-family="Helvetica,sans-Serif" font-size="10.00" fill="#000000">memory</text>
</a>
</g>
</g>
<!-- Node1&#45;&gt;Node3 -->
<g id="edge3" class="edge">
<title>Node1&#45;&gt;Node3</title>
<path fill="none" stroke="#191970" d="M71.422,-55.4179C76.1185,-47.8207 82.9605,-36.7527 88.7504,-27.3866"/>
<polygon fill="#191970" stroke="#191970" points="91.79,-29.1258 94.0712,-18.7795 85.8359,-25.445 91.79,-29.1258"/>
</g>
</g>
</svg>
