<?xml version="1.0" encoding="UTF-8" standalone="no"?>
<!DOCTYPE svg PUBLIC "-//W3C//DTD SVG 1.1//EN"
 "http://www.w3.org/Graphics/SVG/1.1/DTD/svg11.dtd">
<!-- Generated by graphviz version 2.40.1 (20161225.0304)
 -->
<!-- Title: src/classes/periodictable.cpp Pages: 1 -->
<!--zoomable 192 -->
<svg id="main" version="1.1" xmlns="http://www.w3.org/2000/svg" xmlns:xlink="http://www.w3.org/1999/xlink" xml:space="preserve" onload="init(evt)">
<style type="text/css"><![CDATA[
.edge:hover path { stroke: red; }
.edge:hover polygon { stroke: red; fill: red; }
]]></style>
<script type="text/javascript"><![CDATA[
var edges = document.getElementsByTagName('g');
if (edges && edges.length) {
  for (var i=0;i<edges.length;i++) {
    if (edges[i].id.substr(0,4)=='edge') {
      edges[i].setAttribute('class','edge');
    }
  }
}
]]></script>
        <defs>
                <circle id="rim" cx="0" cy="0" r="7"/>
                <circle id="rim2" cx="0" cy="0" r="3.5"/>
                <g id="zoomPlus">
                        <use xlink:href="#rim" fill="#404040">
                                <set attributeName="fill" to="#808080" begin="zoomplus.mouseover" end="zoomplus.mouseout"/>
                        </use>
                        <path d="M-4,0h8M0,-4v8" fill="none" stroke="white" stroke-width="1.5" pointer-events="none"/>
                </g>
                <g id="zoomMin">
                        <use xlink:href="#rim" fill="#404040">
                                <set attributeName="fill" to="#808080" begin="zoomminus.mouseover" end="zoomminus.mouseout"/>
                        </use>
                        <path d="M-4,0h8" fill="none" stroke="white" stroke-width="1.5" pointer-events="none"/>
                </g>
                <g id="dirArrow">
                        <path fill="none" stroke="white" stroke-width="1.5" d="M0,-3.0v7 M-2.5,-0.5L0,-3.0L2.5,-0.5"/>
                </g>
               <g id="resetDef">
                       <use xlink:href="#rim2" fill="#404040">
                               <set attributeName="fill" to="#808080" begin="reset.mouseover" end="reset.mouseout"/>
                       </use>
               </g>
        </defs>

<script type="text/javascript">
var viewWidth = 756;
var viewHeight = 192;
var sectionId = 'dynsection-0';
</script>
<script xlink:href="svgpan.js"/>
<svg id="graph" class="graph">
<g id="viewport">
<title>src/classes/periodictable.cpp</title>
<polygon fill="#ffffff" stroke="transparent" points="-4,4 -4,-188 752.1797,-188 752.1797,4 -4,4"/>
<!-- Node0 -->
<g id="node1" class="node">
<title>Node0</title>
<polygon fill="#bfbfbf" stroke="#000000" points="493.6455,-165.5 493.6455,-183.5 637.4824,-183.5 637.4824,-165.5 493.6455,-165.5"/>
<text text-anchor="middle" x="565.564" y="-171.5" font-family="Helvetica,sans-Serif" font-size="10.00" fill="#000000">src/classes/periodictable.cpp</text>
</g>
<!-- Node1 -->
<g id="node2" class="node">
<title>Node1</title>
<g id="a_node2"><a xlink:href="periodictable_8hpp.html" target="_top" xlink:title="indigox/classes/periodictable.hpp">
<polygon fill="#ffffff" stroke="#000000" points="348.1851,-110.5 348.1851,-128.5 510.9429,-128.5 510.9429,-110.5 348.1851,-110.5"/>
<text text-anchor="middle" x="429.564" y="-116.5" font-family="Helvetica,sans-Serif" font-size="10.00" fill="#000000">indigox/classes/periodictable.hpp</text>
</a>
</g>
</g>
<!-- Node0&#45;&gt;Node1 -->
<g id="edge1" class="edge">
<title>Node0&#45;&gt;Node1</title>
<path fill="none" stroke="#191970" d="M543.1063,-165.4179C520.8607,-156.4215 486.5803,-142.5581 461.5046,-132.4172"/>
<polygon fill="#191970" stroke="#191970" points="462.6378,-129.1001 452.055,-128.5956 460.0133,-135.5895 462.6378,-129.1001"/>
</g>
<!-- Node2 -->
<g id="node3" class="node">
<title>Node2</title>
<g id="a_node3"><a xlink:href="common_8hpp.html" target="_top" xlink:title="../utils/common.hpp">
<polygon fill="#ffffff" stroke="#000000" points="115.2119,-55.5 115.2119,-73.5 217.916,-73.5 217.916,-55.5 115.2119,-55.5"/>
<text text-anchor="middle" x="166.564" y="-61.5" font-family="Helvetica,sans-Serif" font-size="10.00" fill="#000000">../utils/common.hpp</text>
</a>
</g>
</g>
<!-- Node0&#45;&gt;Node2 -->
<g id="edge15" class="edge">
<title>Node0&#45;&gt;Node2</title>
<path fill="none" stroke="#191970" d="M507.8404,-165.4726C461.8134,-157.6551 395.9507,-145.0782 339.564,-129 288.5018,-114.44 231.0869,-91.7169 196.9198,-77.4909"/>
<polygon fill="#191970" stroke="#191970" points="198.0852,-74.1843 187.5098,-73.5425 195.3767,-80.6391 198.0852,-74.1843"/>
</g>
<!-- Node12 -->
<g id="node13" class="node">
<title>Node12</title>
<polygon fill="#ffffff" stroke="#bfbfbf" points="602.3916,-55.5 602.3916,-73.5 656.7363,-73.5 656.7363,-55.5 602.3916,-55.5"/>
<text text-anchor="middle" x="629.564" y="-61.5" font-family="Helvetica,sans-Serif" font-size="10.00" fill="#000000">iostream</text>
</g>
<!-- Node0&#45;&gt;Node12 -->
<g id="edge17" class="edge">
<title>Node0&#45;&gt;Node12</title>
<path fill="none" stroke="#191970" d="M561.089,-165.0846C555.5251,-151.9029 547.8711,-127.5914 557.564,-110 565.525,-95.5516 580.2212,-85.0551 594.2703,-77.81"/>
<polygon fill="#191970" stroke="#191970" points="595.7982,-80.9591 603.3318,-73.5096 592.7969,-74.6351 595.7982,-80.9591"/>
</g>
<!-- Node13 -->
<g id="node14" class="node">
<title>Node13</title>
<polygon fill="#ffffff" stroke="#bfbfbf" points="567.0542,-110.5 567.0542,-128.5 618.0737,-128.5 618.0737,-110.5 567.0542,-110.5"/>
<text text-anchor="middle" x="592.564" y="-116.5" font-family="Helvetica,sans-Serif" font-size="10.00" fill="#000000">iomanip</text>
</g>
<!-- Node0&#45;&gt;Node13 -->
<g id="edge16" class="edge">
<title>Node0&#45;&gt;Node13</title>
<path fill="none" stroke="#191970" d="M570.0225,-165.4179C573.6743,-157.9789 578.9597,-147.2123 583.4948,-137.9742"/>
<polygon fill="#191970" stroke="#191970" points="586.7436,-139.2985 588.0086,-128.7795 580.46,-136.2138 586.7436,-139.2985"/>
</g>
<!-- Node14 -->
<g id="node15" class="node">
<title>Node14</title>
<polygon fill="#ffffff" stroke="#bfbfbf" points="635.7832,-110.5 635.7832,-128.5 687.3447,-128.5 687.3447,-110.5 635.7832,-110.5"/>
<text text-anchor="middle" x="661.564" y="-116.5" font-family="Helvetica,sans-Serif" font-size="10.00" fill="#000000">sstream</text>
</g>
<!-- Node0&#45;&gt;Node14 -->
<g id="edge18" class="edge">
<title>Node0&#45;&gt;Node14</title>
<path fill="none" stroke="#191970" d="M581.4164,-165.4179C596.4244,-156.8195 619.1924,-143.7754 636.6312,-133.7844"/>
<polygon fill="#191970" stroke="#191970" points="638.751,-136.6037 645.688,-128.5956 635.2712,-130.5299 638.751,-136.6037"/>
</g>
<!-- Node15 -->
<g id="node16" class="node">
<title>Node15</title>
<polygon fill="#ffffff" stroke="#bfbfbf" points="704.9482,-110.5 704.9482,-128.5 748.1797,-128.5 748.1797,-110.5 704.9482,-110.5"/>
<text text-anchor="middle" x="726.564" y="-116.5" font-family="Helvetica,sans-Serif" font-size="10.00" fill="#000000">vector</text>
</g>
<!-- Node0&#45;&gt;Node15 -->
<g id="edge19" class="edge">
<title>Node0&#45;&gt;Node15</title>
<path fill="none" stroke="#191970" d="M592.1498,-165.4179C620.3952,-155.7688 665.0298,-140.521 695.0308,-130.2722"/>
<polygon fill="#191970" stroke="#191970" points="696.2677,-133.5483 704.5993,-127.0035 694.0047,-126.9242 696.2677,-133.5483"/>
</g>
<!-- Node1&#45;&gt;Node2 -->
<g id="edge2" class="edge">
<title>Node1&#45;&gt;Node2</title>
<path fill="none" stroke="#191970" d="M386.4294,-110.4795C340.7572,-100.9282 268.6162,-85.8417 219.5241,-75.5753"/>
<polygon fill="#191970" stroke="#191970" points="220.2268,-72.1466 209.7221,-73.5255 218.7939,-78.9984 220.2268,-72.1466"/>
</g>
<!-- Node8 -->
<g id="node9" class="node">
<title>Node8</title>
<g id="a_node9"><a xlink:href="fwd__declares_8hpp.html" target="_top" xlink:title="../utils/fwd_declares.hpp">
<polygon fill="#ffffff" stroke="#000000" points="235.9238,-55.5 235.9238,-73.5 359.2041,-73.5 359.2041,-55.5 235.9238,-55.5"/>
<text text-anchor="middle" x="297.564" y="-61.5" font-family="Helvetica,sans-Serif" font-size="10.00" fill="#000000">../utils/fwd_declares.hpp</text>
</a>
</g>
</g>
<!-- Node1&#45;&gt;Node8 -->
<g id="edge8" class="edge">
<title>Node1&#45;&gt;Node8</title>
<path fill="none" stroke="#191970" d="M407.7668,-110.4179C386.271,-101.4613 353.1975,-87.6806 328.8888,-77.552"/>
<polygon fill="#191970" stroke="#191970" points="329.9704,-74.2111 319.3935,-73.5956 327.2781,-80.6726 329.9704,-74.2111"/>
</g>
<!-- Node9 -->
<g id="node10" class="node">
<title>Node9</title>
<polygon fill="#ffffff" stroke="#bfbfbf" points="357.1133,-.5 357.1133,-18.5 402.0146,-18.5 402.0146,-.5 357.1133,-.5"/>
<text text-anchor="middle" x="379.564" y="-6.5" font-family="Helvetica,sans-Serif" font-size="10.00" fill="#000000">cstdint</text>
</g>
<!-- Node1&#45;&gt;Node9 -->
<g id="edge13" class="edge">
<title>Node1&#45;&gt;Node9</title>
<path fill="none" stroke="#191970" d="M424.6084,-110.1844C419.8104,-101.0543 412.4223,-86.6987 406.564,-74 399.5717,-58.8434 392.3016,-41.3609 387.0692,-28.4235"/>
<polygon fill="#191970" stroke="#191970" points="390.172,-26.7571 383.2041,-18.776 383.6741,-29.3604 390.172,-26.7571"/>
</g>
<!-- Node10 -->
<g id="node11" class="node">
<title>Node10</title>
<polygon fill="#ffffff" stroke="#bfbfbf" points="416.042,-55.5 416.042,-73.5 527.0859,-73.5 527.0859,-55.5 416.042,-55.5"/>
<text text-anchor="middle" x="471.564" y="-61.5" font-family="Helvetica,sans-Serif" font-size="10.00" fill="#000000">EASTL/vector_map.h</text>
</g>
<!-- Node1&#45;&gt;Node10 -->
<g id="edge11" class="edge">
<title>Node1&#45;&gt;Node10</title>
<path fill="none" stroke="#191970" d="M436.4994,-110.4179C442.4218,-102.6624 451.1061,-91.29 458.3504,-81.8035"/>
<polygon fill="#191970" stroke="#191970" points="461.1904,-83.8514 464.4778,-73.7795 455.627,-79.6029 461.1904,-83.8514"/>
</g>
<!-- Node11 -->
<g id="node12" class="node">
<title>Node11</title>
<polygon fill="#ffffff" stroke="#bfbfbf" points="545.1724,-55.5 545.1724,-73.5 583.9556,-73.5 583.9556,-55.5 545.1724,-55.5"/>
<text text-anchor="middle" x="564.564" y="-61.5" font-family="Helvetica,sans-Serif" font-size="10.00" fill="#000000">array</text>
</g>
<!-- Node1&#45;&gt;Node11 -->
<g id="edge12" class="edge">
<title>Node1&#45;&gt;Node11</title>
<path fill="none" stroke="#191970" d="M451.8565,-110.4179C474.7319,-101.0982 510.4275,-86.5556 535.5047,-76.3389"/>
<polygon fill="#191970" stroke="#191970" points="536.9347,-79.5357 544.8751,-72.5214 534.2936,-73.0531 536.9347,-79.5357"/>
</g>
<!-- Node1&#45;&gt;Node12 -->
<g id="edge14" class="edge">
<title>Node1&#45;&gt;Node12</title>
<path fill="none" stroke="#191970" d="M462.5899,-110.4179C498.2876,-100.601 555.0587,-84.9889 592.3201,-74.7421"/>
<polygon fill="#191970" stroke="#191970" points="593.5646,-78.0298 602.2786,-72.0035 591.7085,-71.2804 593.5646,-78.0298"/>
</g>
<!-- Node3 -->
<g id="node4" class="node">
<title>Node3</title>
<polygon fill="#ffffff" stroke="#bfbfbf" points="0,-.5 0,-18.5 57.1279,-18.5 57.1279,-.5 0,-.5"/>
<text text-anchor="middle" x="28.564" y="-6.5" font-family="Helvetica,sans-Serif" font-size="10.00" fill="#000000">algorithm</text>
</g>
<!-- Node2&#45;&gt;Node3 -->
<g id="edge3" class="edge">
<title>Node2&#45;&gt;Node3</title>
<path fill="none" stroke="#191970" d="M143.7761,-55.4179C121.2033,-46.4215 86.4187,-32.5581 60.9743,-22.4172"/>
<polygon fill="#191970" stroke="#191970" points="61.9709,-19.0467 51.3857,-18.5956 59.3793,-25.5493 61.9709,-19.0467"/>
</g>
<!-- Node4 -->
<g id="node5" class="node">
<title>Node4</title>
<polygon fill="#ffffff" stroke="#bfbfbf" points="75.0024,-.5 75.0024,-18.5 122.1255,-18.5 122.1255,-.5 75.0024,-.5"/>
<text text-anchor="middle" x="98.564" y="-6.5" font-family="Helvetica,sans-Serif" font-size="10.00" fill="#000000">iterator</text>
</g>
<!-- Node2&#45;&gt;Node4 -->
<g id="edge4" class="edge">
<title>Node2&#45;&gt;Node4</title>
<path fill="none" stroke="#191970" d="M155.3351,-55.4179C145.1595,-47.1876 129.9477,-34.8839 117.8309,-25.0836"/>
<polygon fill="#191970" stroke="#191970" points="120.0129,-22.3469 110.0367,-18.7795 115.6108,-27.7895 120.0129,-22.3469"/>
</g>
<!-- Node5 -->
<g id="node6" class="node">
<title>Node5</title>
<polygon fill="#ffffff" stroke="#bfbfbf" points="278.5073,-.5 278.5073,-18.5 330.6206,-18.5 330.6206,-.5 278.5073,-.5"/>
<text text-anchor="middle" x="304.564" y="-6.5" font-family="Helvetica,sans-Serif" font-size="10.00" fill="#000000">memory</text>
</g>
<!-- Node2&#45;&gt;Node5 -->
<g id="edge5" class="edge">
<title>Node2&#45;&gt;Node5</title>
<path fill="none" stroke="#191970" d="M189.3519,-55.4179C211.9247,-46.4215 246.7092,-32.5581 272.1536,-22.4172"/>
<polygon fill="#191970" stroke="#191970" points="273.7486,-25.5493 281.7422,-18.5956 271.157,-19.0467 273.7486,-25.5493"/>
</g>
<!-- Node6 -->
<g id="node7" class="node">
<title>Node6</title>
<polygon fill="#ffffff" stroke="#bfbfbf" points="140.3374,-.5 140.3374,-18.5 180.7905,-18.5 180.7905,-.5 140.3374,-.5"/>
<text text-anchor="middle" x="160.564" y="-6.5" font-family="Helvetica,sans-Serif" font-size="10.00" fill="#000000">string</text>
</g>
<!-- Node2&#45;&gt;Node6 -->
<g id="edge6" class="edge">
<title>Node2&#45;&gt;Node6</title>
<path fill="none" stroke="#191970" d="M165.5732,-55.4179C164.7876,-48.2164 163.6617,-37.8962 162.6763,-28.8632"/>
<polygon fill="#191970" stroke="#191970" points="166.1402,-28.3409 161.5763,-18.7795 159.1815,-29.1001 166.1402,-28.3409"/>
</g>
<!-- Node7 -->
<g id="node8" class="node">
<title>Node7</title>
<polygon fill="#ffffff" stroke="#bfbfbf" points="198.4976,-.5 198.4976,-18.5 260.6304,-18.5 260.6304,-.5 198.4976,-.5"/>
<text text-anchor="middle" x="229.564" y="-6.5" font-family="Helvetica,sans-Serif" font-size="10.00" fill="#000000">type_traits</text>
</g>
<!-- Node2&#45;&gt;Node7 -->
<g id="edge7" class="edge">
<title>Node2&#45;&gt;Node7</title>
<path fill="none" stroke="#191970" d="M176.9671,-55.4179C186.3039,-47.2667 200.2173,-35.1201 211.3891,-25.3669"/>
<polygon fill="#191970" stroke="#191970" points="213.7034,-27.9927 218.9348,-18.7795 209.0998,-22.7194 213.7034,-27.9927"/>
</g>
<!-- Node8&#45;&gt;Node5 -->
<g id="edge10" class="edge">
<title>Node8&#45;&gt;Node5</title>
<path fill="none" stroke="#191970" d="M298.7199,-55.4179C299.6364,-48.2164 300.9499,-37.8962 302.0996,-28.8632"/>
<polygon fill="#191970" stroke="#191970" points="305.5923,-29.1414 303.3829,-18.7795 298.6483,-28.2575 305.5923,-29.1414"/>
</g>
<!-- Node8&#45;&gt;Node9 -->
<g id="edge9" class="edge">
<title>Node8&#45;&gt;Node9</title>
<path fill="none" stroke="#191970" d="M311.1046,-55.4179C323.6865,-46.9788 342.6536,-34.257 357.435,-24.3426"/>
<polygon fill="#191970" stroke="#191970" points="359.6479,-27.0727 366.0032,-18.5956 355.7487,-21.2593 359.6479,-27.0727"/>
</g>
</g>
</svg>
        <g id="navigator" transform="translate(0 0)" fill="#404254">
                <rect fill="#f2f5e9" fill-opacity="0.5" stroke="#606060" stroke-width=".5" x="0" y="0" width="60" height="60"/>
                <use id="zoomplus" xlink:href="#zoomPlus" x="17" y="9" onmousedown="handleZoom(evt,'in')"/>
                <use id="zoomminus" xlink:href="#zoomMin" x="42" y="9" onmousedown="handleZoom(evt,'out')"/>
                <use id="reset" xlink:href="#resetDef" x="30" y="36" onmousedown="handleReset()"/>
                <g id="arrowUp" xlink:href="#dirArrow" transform="translate(30 24)" onmousedown="handlePan(0,-1)">
                  <use xlink:href="#rim" fill="#404040">
                        <set attributeName="fill" to="#808080" begin="arrowUp.mouseover" end="arrowUp.mouseout"/>
                  </use>
                  <path fill="none" stroke="white" stroke-width="1.5" d="M0,-3.0v7 M-2.5,-0.5L0,-3.0L2.5,-0.5"/>
                </g>
                <g id="arrowRight" xlink:href="#dirArrow" transform="rotate(90) translate(36 -43)" onmousedown="handlePan(1,0)">
                  <use xlink:href="#rim" fill="#404040">
                        <set attributeName="fill" to="#808080" begin="arrowRight.mouseover" end="arrowRight.mouseout"/>
                  </use>
                  <path fill="none" stroke="white" stroke-width="1.5" d="M0,-3.0v7 M-2.5,-0.5L0,-3.0L2.5,-0.5"/>
                </g>
                <g id="arrowDown" xlink:href="#dirArrow" transform="rotate(180) translate(-30 -48)" onmousedown="handlePan(0,1)">
                  <use xlink:href="#rim" fill="#404040">
                        <set attributeName="fill" to="#808080" begin="arrowDown.mouseover" end="arrowDown.mouseout"/>
                  </use>
                  <path fill="none" stroke="white" stroke-width="1.5" d="M0,-3.0v7 M-2.5,-0.5L0,-3.0L2.5,-0.5"/>
                </g>
                <g id="arrowLeft" xlink:href="#dirArrow" transform="rotate(270) translate(-36 17)" onmousedown="handlePan(-1,0)">
                  <use xlink:href="#rim" fill="#404040">
                        <set attributeName="fill" to="#808080" begin="arrowLeft.mouseover" end="arrowLeft.mouseout"/>
                  </use>
                  <path fill="none" stroke="white" stroke-width="1.5" d="M0,-3.0v7 M-2.5,-0.5L0,-3.0L2.5,-0.5"/>
                </g>
        </g>
        <svg viewBox="0 0 15 15" width="100%" height="30px" preserveAspectRatio="xMaxYMin meet">
         <g id="arrow_out" transform="scale(0.3 0.3)">
          <a xlink:href="periodictable_8cpp__incl_org.svg" target="_base">
           <rect id="button" ry="5" rx="5" y="6" x="6" height="38" width="38"
                fill="#f2f5e9" fill-opacity="0.5" stroke="#606060" stroke-width="1.0"/>
           <path id="arrow"
             d="M 11.500037,31.436501 C 11.940474,20.09759 22.043105,11.32322 32.158766,21.979434 L 37.068811,17.246167 C 37.068811,17.246167 37.088388,32 37.088388,32 L 22.160133,31.978069 C 22.160133,31.978069 26.997745,27.140456 26.997745,27.140456 C 18.528582,18.264221 13.291696,25.230495 11.500037,31.436501 z"
             style="fill:#404040;"/>
          </a>
         </g>
        </svg>
</svg>
