<?xml version="1.0" encoding="UTF-8" standalone="no"?>
<!DOCTYPE svg PUBLIC "-//W3C//DTD SVG 1.1//EN"
 "http://www.w3.org/Graphics/SVG/1.1/DTD/svg11.dtd">
<!-- Generated by graphviz version 2.40.1 (20161225.0304)
 -->
<!-- Title: include/indigox/classes/periodictable.hpp Pages: 1 -->
<svg width="595pt" height="177pt"
 viewBox="0.00 0.00 595.08 177.00" xmlns="http://www.w3.org/2000/svg" xmlns:xlink="http://www.w3.org/1999/xlink">
<g id="graph0" class="graph" transform="scale(1 1) rotate(0) translate(4 173)">
<title>include/indigox/classes/periodictable.hpp</title>
<polygon fill="#ffffff" stroke="transparent" points="-4,4 -4,-173 591.0757,-173 591.0757,4 -4,4"/>
<!-- Node12 -->
<g id="node1" class="node">
<title>Node12</title>
<g id="a_node1"><a xlink:title=" ">
<polygon fill="#bfbfbf" stroke="#000000" points="231.8916,-140.5 231.8916,-168.5 350.1719,-168.5 350.1719,-140.5 231.8916,-140.5"/>
<text text-anchor="start" x="239.8916" y="-156.5" font-family="Helvetica,sans-Serif" font-size="10.00" fill="#000000">include/indigox/classes</text>
<text text-anchor="middle" x="291.0317" y="-146.5" font-family="Helvetica,sans-Serif" font-size="10.00" fill="#000000">/periodictable.hpp</text>
</a>
</g>
</g>
<!-- Node13 -->
<g id="node2" class="node">
<title>Node13</title>
<g id="a_node2"><a xlink:href="forcefield_8hpp.html" target="_top" xlink:title=" ">
<polygon fill="#ffffff" stroke="#000000" points="88.8916,-75.5 88.8916,-103.5 207.1719,-103.5 207.1719,-75.5 88.8916,-75.5"/>
<text text-anchor="start" x="96.8916" y="-91.5" font-family="Helvetica,sans-Serif" font-size="10.00" fill="#000000">include/indigox/classes</text>
<text text-anchor="middle" x="148.0317" y="-81.5" font-family="Helvetica,sans-Serif" font-size="10.00" fill="#000000">/forcefield.hpp</text>
</a>
</g>
</g>
<!-- Node12&#45;&gt;Node13 -->
<g id="edge1" class="edge">
<title>Node12&#45;&gt;Node13</title>
<path fill="none" stroke="#191970" d="M250.6189,-136.1305C227.8972,-125.8025 199.9743,-113.1103 179.0001,-103.5765"/>
<polygon fill="#191970" stroke="#191970" points="249.4509,-139.4442 260.0029,-140.396 252.3475,-133.0716 249.4509,-139.4442"/>
</g>
<!-- Node15 -->
<g id="node4" class="node">
<title>Node15</title>
<g id="a_node4"><a xlink:href="molecule__impl_8hpp.html" target="_top" xlink:title=" ">
<polygon fill="#ffffff" stroke="#000000" points="143.8916,-5.5 143.8916,-33.5 262.1719,-33.5 262.1719,-5.5 143.8916,-5.5"/>
<text text-anchor="start" x="151.8916" y="-21.5" font-family="Helvetica,sans-Serif" font-size="10.00" fill="#000000">include/indigox/classes</text>
<text text-anchor="middle" x="203.0317" y="-11.5" font-family="Helvetica,sans-Serif" font-size="10.00" fill="#000000">/molecule_impl.hpp</text>
</a>
</g>
</g>
<!-- Node12&#45;&gt;Node15 -->
<g id="edge7" class="edge">
<title>Node12&#45;&gt;Node15</title>
<path fill="none" stroke="#191970" d="M273.9247,-132.0556C267.5102,-123.4084 260.2686,-113.3619 254.0317,-104 237.9766,-79.9 220.8931,-50.7939 211.136,-33.7943"/>
<polygon fill="#191970" stroke="#191970" points="271.1988,-134.2545 279.9957,-140.1592 276.801,-130.0575 271.1988,-134.2545"/>
</g>
<!-- Node16 -->
<g id="node5" class="node">
<title>Node16</title>
<g id="a_node5"><a xlink:href="assigner_8hpp.html" target="_top" xlink:title=" ">
<polygon fill="#ffffff" stroke="#000000" points="262.7588,-75.5 262.7588,-103.5 433.3047,-103.5 433.3047,-75.5 262.7588,-75.5"/>
<text text-anchor="start" x="270.7588" y="-91.5" font-family="Helvetica,sans-Serif" font-size="10.00" fill="#000000">include/indigox/algorithm</text>
<text text-anchor="middle" x="348.0317" y="-81.5" font-family="Helvetica,sans-Serif" font-size="10.00" fill="#000000">/electron_assignment/assigner.hpp</text>
</a>
</g>
</g>
<!-- Node12&#45;&gt;Node16 -->
<g id="edge4" class="edge">
<title>Node12&#45;&gt;Node16</title>
<path fill="none" stroke="#191970" d="M310.1169,-132.7362C318.5505,-123.119 328.2231,-112.0888 335.6877,-103.5765"/>
<polygon fill="#191970" stroke="#191970" points="307.3616,-130.5697 303.3999,-140.396 312.6247,-135.185 307.3616,-130.5697"/>
</g>
<!-- Node19 -->
<g id="node8" class="node">
<title>Node19</title>
<g id="a_node8"><a xlink:href="indigox_8hpp.html" target="_top" xlink:title=" ">
<polygon fill="#ffffff" stroke="#000000" points="450.9878,-80.5 450.9878,-98.5 587.0757,-98.5 587.0757,-80.5 450.9878,-80.5"/>
<text text-anchor="middle" x="519.0317" y="-86.5" font-family="Helvetica,sans-Serif" font-size="10.00" fill="#000000">include/indigox/indigox.hpp</text>
</a>
</g>
</g>
<!-- Node12&#45;&gt;Node19 -->
<g id="edge8" class="edge">
<title>Node12&#45;&gt;Node19</title>
<path fill="none" stroke="#191970" d="M349.9183,-137.7122C393.8027,-125.2013 452.0359,-108.5997 487.457,-98.5016"/>
<polygon fill="#191970" stroke="#191970" points="348.8809,-134.3684 340.2236,-140.476 350.8001,-141.1002 348.8809,-134.3684"/>
</g>
<!-- Node14 -->
<g id="node3" class="node">
<title>Node14</title>
<g id="a_node3"><a xlink:href="cherrypicker_8hpp.html" target="_top" xlink:title=" ">
<polygon fill="#ffffff" stroke="#000000" points="0,-5.5 0,-33.5 126.0635,-33.5 126.0635,-5.5 0,-5.5"/>
<text text-anchor="start" x="8" y="-21.5" font-family="Helvetica,sans-Serif" font-size="10.00" fill="#000000">include/indigox/algorithm</text>
<text text-anchor="middle" x="63.0317" y="-11.5" font-family="Helvetica,sans-Serif" font-size="10.00" fill="#000000">/cherrypicker.hpp</text>
</a>
</g>
</g>
<!-- Node13&#45;&gt;Node14 -->
<g id="edge2" class="edge">
<title>Node13&#45;&gt;Node14</title>
<path fill="none" stroke="#191970" d="M122.7254,-68.6595C109.0068,-57.3618 92.4135,-43.6968 80.2072,-33.6445"/>
<polygon fill="#191970" stroke="#191970" points="120.8864,-71.6791 130.8307,-75.3345 125.3364,-66.2756 120.8864,-71.6791"/>
</g>
<!-- Node13&#45;&gt;Node15 -->
<g id="edge3" class="edge">
<title>Node13&#45;&gt;Node15</title>
<path fill="none" stroke="#191970" d="M165.419,-67.3707C174.0894,-56.3357 184.3181,-43.3174 191.9182,-33.6445"/>
<polygon fill="#191970" stroke="#191970" points="162.5879,-65.3089 159.1618,-75.3345 168.0922,-69.6336 162.5879,-65.3089"/>
</g>
<!-- Node17 -->
<g id="node6" class="node">
<title>Node17</title>
<g id="a_node6"><a xlink:href="astar__optimisation_8hpp.html" target="_top" xlink:title=" ">
<polygon fill="#ffffff" stroke="#000000" points="280,-.5 280,-38.5 416.0635,-38.5 416.0635,-.5 280,-.5"/>
<text text-anchor="start" x="288" y="-26.5" font-family="Helvetica,sans-Serif" font-size="10.00" fill="#000000">include/indigox/algorithm</text>
<text text-anchor="start" x="288" y="-16.5" font-family="Helvetica,sans-Serif" font-size="10.00" fill="#000000">/electron_assignment/astar</text>
<text text-anchor="middle" x="348.0317" y="-6.5" font-family="Helvetica,sans-Serif" font-size="10.00" fill="#000000">_optimisation.hpp</text>
</a>
</g>
</g>
<!-- Node16&#45;&gt;Node17 -->
<g id="edge5" class="edge">
<title>Node16&#45;&gt;Node17</title>
<path fill="none" stroke="#191970" d="M348.0317,-65.0725C348.0317,-56.4275 348.0317,-46.8328 348.0317,-38.6857"/>
<polygon fill="#191970" stroke="#191970" points="344.5318,-65.3344 348.0317,-75.3345 351.5318,-65.3345 344.5318,-65.3344"/>
</g>
<!-- Node18 -->
<g id="node7" class="node">
<title>Node18</title>
<g id="a_node7"><a xlink:href="local__optimisation_8hpp.html" target="_top" xlink:title=" ">
<polygon fill="#ffffff" stroke="#000000" points="433.8325,-.5 433.8325,-38.5 568.231,-38.5 568.231,-.5 433.8325,-.5"/>
<text text-anchor="start" x="441.8325" y="-26.5" font-family="Helvetica,sans-Serif" font-size="10.00" fill="#000000">include/indigox/algorithm</text>
<text text-anchor="start" x="441.8325" y="-16.5" font-family="Helvetica,sans-Serif" font-size="10.00" fill="#000000">/electron_assignment/local</text>
<text text-anchor="middle" x="501.0317" y="-6.5" font-family="Helvetica,sans-Serif" font-size="10.00" fill="#000000">_optimisation.hpp</text>
</a>
</g>
</g>
<!-- Node16&#45;&gt;Node18 -->
<g id="edge6" class="edge">
<title>Node16&#45;&gt;Node18</title>
<path fill="none" stroke="#191970" d="M388.345,-71.056C410.2436,-61.037 437.2827,-48.6662 459.3849,-38.5541"/>
<polygon fill="#191970" stroke="#191970" points="386.6309,-67.9913 378.9936,-75.3345 389.5432,-74.3567 386.6309,-67.9913"/>
</g>
</g>
</svg>
