<?xml version="1.0" encoding="UTF-8" standalone="no"?>
<!DOCTYPE svg PUBLIC "-//W3C//DTD SVG 1.1//EN"
 "http://www.w3.org/Graphics/SVG/1.1/DTD/svg11.dtd">
<!-- Generated by graphviz version 2.40.1 (20161225.0304)
 -->
<!-- Title: include/indigox/classes/periodictable.hpp Pages: 1 -->
<!--zoomable 242 -->
<svg id="main" version="1.1" xmlns="http://www.w3.org/2000/svg" xmlns:xlink="http://www.w3.org/1999/xlink" xml:space="preserve" onload="init(evt)">
<style type="text/css"><![CDATA[
.edge:hover path { stroke: red; }
.edge:hover polygon { stroke: red; fill: red; }
]]></style>
<script type="text/javascript"><![CDATA[
var edges = document.getElementsByTagName('g');
if (edges && edges.length) {
  for (var i=0;i<edges.length;i++) {
    if (edges[i].id.substr(0,4)=='edge') {
      edges[i].setAttribute('class','edge');
    }
  }
}
]]></script>
        <defs>
                <circle id="rim" cx="0" cy="0" r="7"/>
                <circle id="rim2" cx="0" cy="0" r="3.5"/>
                <g id="zoomPlus">
                        <use xlink:href="#rim" fill="#404040">
                                <set attributeName="fill" to="#808080" begin="zoomplus.mouseover" end="zoomplus.mouseout"/>
                        </use>
                        <path d="M-4,0h8M0,-4v8" fill="none" stroke="white" stroke-width="1.5" pointer-events="none"/>
                </g>
                <g id="zoomMin">
                        <use xlink:href="#rim" fill="#404040">
                                <set attributeName="fill" to="#808080" begin="zoomminus.mouseover" end="zoomminus.mouseout"/>
                        </use>
                        <path d="M-4,0h8" fill="none" stroke="white" stroke-width="1.5" pointer-events="none"/>
                </g>
                <g id="dirArrow">
                        <path fill="none" stroke="white" stroke-width="1.5" d="M0,-3.0v7 M-2.5,-0.5L0,-3.0L2.5,-0.5"/>
                </g>
               <g id="resetDef">
                       <use xlink:href="#rim2" fill="#404040">
                               <set attributeName="fill" to="#808080" begin="reset.mouseover" end="reset.mouseout"/>
                       </use>
               </g>
        </defs>

<script type="text/javascript">
var viewWidth = 2156;
var viewHeight = 242;
var sectionId = 'dynsection-1';
</script>
<script xlink:href="svgpan.js"/>
<svg id="graph" class="graph">
<g id="viewport">
<title>include/indigox/classes/periodictable.hpp</title>
<polygon fill="#ffffff" stroke="transparent" points="-4,4 -4,-238 2151.8296,-238 2151.8296,4 -4,4"/>
<!-- Node12 -->
<g id="node1" class="node">
<title>Node12</title>
<polygon fill="#bfbfbf" stroke="#000000" points="1176.542,-205.5 1176.542,-233.5 1294.8223,-233.5 1294.8223,-205.5 1176.542,-205.5"/>
<text text-anchor="start" x="1184.542" y="-221.5" font-family="Helvetica,sans-Serif" font-size="10.00" fill="#000000">include/indigox/classes</text>
<text text-anchor="middle" x="1235.6821" y="-211.5" font-family="Helvetica,sans-Serif" font-size="10.00" fill="#000000">/periodictable.hpp</text>
</g>
<!-- Node13 -->
<g id="node2" class="node">
<title>Node13</title>
<g id="a_node2"><a xlink:href="forcefield_8hpp.html" target="_top" xlink:title="include/indigox/classes\l/forcefield.hpp">
<polygon fill="#ffffff" stroke="#000000" points="715.542,-140.5 715.542,-168.5 833.8223,-168.5 833.8223,-140.5 715.542,-140.5"/>
<text text-anchor="start" x="723.542" y="-156.5" font-family="Helvetica,sans-Serif" font-size="10.00" fill="#000000">include/indigox/classes</text>
<text text-anchor="middle" x="774.6821" y="-146.5" font-family="Helvetica,sans-Serif" font-size="10.00" fill="#000000">/forcefield.hpp</text>
</a>
</g>
</g>
<!-- Node12&#45;&gt;Node13 -->
<g id="edge1" class="edge">
<title>Node12&#45;&gt;Node13</title>
<path fill="none" stroke="#191970" d="M1166.2072,-209.7042C1075.7961,-196.9564 919.3355,-174.8958 834.143,-162.8839"/>
<polygon fill="#191970" stroke="#191970" points="1165.9675,-213.2049 1176.3582,-211.1355 1166.9448,-206.2735 1165.9675,-213.2049"/>
</g>
<!-- Node16 -->
<g id="node5" class="node">
<title>Node16</title>
<g id="a_node5"><a xlink:href="main_8cpp.html" target="_top" xlink:title="src/main.cpp">
<polygon fill="#ffffff" stroke="#000000" points="1115.3398,-5.5 1115.3398,-23.5 1188.0244,-23.5 1188.0244,-5.5 1115.3398,-5.5"/>
<text text-anchor="middle" x="1151.6821" y="-11.5" font-family="Helvetica,sans-Serif" font-size="10.00" fill="#000000">src/main.cpp</text>
</a>
</g>
</g>
<!-- Node12&#45;&gt;Node16 -->
<g id="edge42" class="edge">
<title>Node12&#45;&gt;Node16</title>
<path fill="none" stroke="#191970" d="M1227.9213,-195.3472C1217.7778,-164.5883 1198.9086,-110.0248 1178.6821,-65 1172.0009,-50.1272 1162.7992,-33.585 1157.0483,-23.6161"/>
<polygon fill="#191970" stroke="#191970" points="1224.701,-196.7608 1231.1332,-205.1797 1231.355,-194.5872 1224.701,-196.7608"/>
</g>
<!-- Node17 -->
<g id="node6" class="node">
<title>Node17</title>
<g id="a_node6"><a xlink:href="molecule__impl_8hpp.html" target="_top" xlink:title="include/indigox/classes\l/molecule_impl.hpp">
<polygon fill="#ffffff" stroke="#000000" points="284.542,-70.5 284.542,-98.5 402.8223,-98.5 402.8223,-70.5 284.542,-70.5"/>
<text text-anchor="start" x="292.542" y="-86.5" font-family="Helvetica,sans-Serif" font-size="10.00" fill="#000000">include/indigox/classes</text>
<text text-anchor="middle" x="343.6821" y="-76.5" font-family="Helvetica,sans-Serif" font-size="10.00" fill="#000000">/molecule_impl.hpp</text>
</a>
</g>
</g>
<!-- Node12&#45;&gt;Node17 -->
<g id="edge32" class="edge">
<title>Node12&#45;&gt;Node17</title>
<path fill="none" stroke="#191970" d="M1166.1635,-215.5691C1064.7106,-209.2209 870.3485,-194.7452 706.6821,-169 574.0569,-148.1377 541.8283,-136.9646 411.6821,-104 405.0151,-102.3113 398.011,-100.4283 391.1363,-98.5168"/>
<polygon fill="#191970" stroke="#191970" points="1166.0855,-219.0708 1176.2824,-216.1945 1166.5174,-212.0842 1166.0855,-219.0708"/>
</g>
<!-- Node19 -->
<g id="node8" class="node">
<title>Node19</title>
<g id="a_node8"><a xlink:href="atom_8cpp.html" target="_top" xlink:title="src/classes/atom.cpp">
<polygon fill="#ffffff" stroke="#000000" points="0,-5.5 0,-23.5 109.3643,-23.5 109.3643,-5.5 0,-5.5"/>
<text text-anchor="middle" x="54.6821" y="-11.5" font-family="Helvetica,sans-Serif" font-size="10.00" fill="#000000">src/classes/atom.cpp</text>
</a>
</g>
</g>
<!-- Node12&#45;&gt;Node19 -->
<g id="edge36" class="edge">
<title>Node12&#45;&gt;Node19</title>
<path fill="none" stroke="#191970" d="M1166.2928,-217.9108C961.7475,-212.9321 370.2989,-196.3207 287.6821,-169 189.9881,-136.6934 94.3105,-51.9399 64.3073,-23.7602"/>
<polygon fill="#191970" stroke="#191970" points="1166.2354,-221.4103 1176.317,-218.153 1166.4045,-214.4124 1166.2354,-221.4103"/>
</g>
<!-- Node22 -->
<g id="node11" class="node">
<title>Node22</title>
<g id="a_node11"><a xlink:href="molecule_8cpp.html" target="_top" xlink:title="src/classes/molecule.cpp">
<polygon fill="#ffffff" stroke="#000000" points="127.106,-5.5 127.106,-23.5 254.2583,-23.5 254.2583,-5.5 127.106,-5.5"/>
<text text-anchor="middle" x="190.6821" y="-11.5" font-family="Helvetica,sans-Serif" font-size="10.00" fill="#000000">src/classes/molecule.cpp</text>
</a>
</g>
</g>
<!-- Node12&#45;&gt;Node22 -->
<g id="edge39" class="edge">
<title>Node12&#45;&gt;Node22</title>
<path fill="none" stroke="#191970" d="M1166.1325,-217.2034C1042.5747,-212.4873 776.884,-199.4758 554.6821,-169 409.6068,-149.1024 346.4684,-194.9224 231.6821,-104 205.4234,-83.2005 195.3399,-41.787 192.0557,-23.5169"/>
<polygon fill="#191970" stroke="#191970" points="1166.0877,-220.7041 1176.2119,-217.5817 1166.3502,-213.709 1166.0877,-220.7041"/>
</g>
<!-- Node26 -->
<g id="node15" class="node">
<title>Node26</title>
<g id="a_node15"><a xlink:href="forcefield_8cpp.html" target="_top" xlink:title="src/classes/forcefield.cpp">
<polygon fill="#ffffff" stroke="#000000" points="1041.8276,-75.5 1041.8276,-93.5 1169.5366,-93.5 1169.5366,-75.5 1041.8276,-75.5"/>
<text text-anchor="middle" x="1105.6821" y="-81.5" font-family="Helvetica,sans-Serif" font-size="10.00" fill="#000000">src/classes/forcefield.cpp</text>
</a>
</g>
</g>
<!-- Node12&#45;&gt;Node26 -->
<g id="edge38" class="edge">
<title>Node12&#45;&gt;Node26</title>
<path fill="none" stroke="#191970" d="M1213.1031,-198.0914C1203.8701,-189.2034 1193.1535,-178.7145 1183.6821,-169 1157.4803,-142.1255 1127.6965,-109.1515 1113.7226,-93.5303"/>
<polygon fill="#191970" stroke="#191970" points="1210.8074,-200.739 1220.4501,-205.1287 1215.6495,-195.6838 1210.8074,-200.739"/>
</g>
<!-- Node28 -->
<g id="node17" class="node">
<title>Node28</title>
<g id="a_node17"><a xlink:href="assigner_8hpp.html" target="_top" xlink:title="include/indigox/algorithm\l/electron_assignment/assigner.hpp">
<polygon fill="#ffffff" stroke="#000000" points="1263.4092,-140.5 1263.4092,-168.5 1433.9551,-168.5 1433.9551,-140.5 1263.4092,-140.5"/>
<text text-anchor="start" x="1271.4092" y="-156.5" font-family="Helvetica,sans-Serif" font-size="10.00" fill="#000000">include/indigox/algorithm</text>
<text text-anchor="middle" x="1348.6821" y="-146.5" font-family="Helvetica,sans-Serif" font-size="10.00" fill="#000000">/electron_assignment/assigner.hpp</text>
</a>
</g>
</g>
<!-- Node12&#45;&gt;Node28 -->
<g id="edge22" class="edge">
<title>Node12&#45;&gt;Node28</title>
<path fill="none" stroke="#191970" d="M1269.0682,-200.2956C1286.7498,-190.1248 1308.0805,-177.8549 1324.2107,-168.5765"/>
<polygon fill="#191970" stroke="#191970" points="1267.1245,-197.3759 1260.2014,-205.396 1270.6149,-203.4437 1267.1245,-197.3759"/>
</g>
<!-- Node30 -->
<g id="node19" class="node">
<title>Node30</title>
<g id="a_node19"><a xlink:href="assigner_8cpp.html" target="_top" xlink:title="src/algorithm/electron\l_assignment/assigner.cpp">
<polygon fill="#ffffff" stroke="#000000" points="1217.8672,-.5 1217.8672,-28.5 1349.4971,-28.5 1349.4971,-.5 1217.8672,-.5"/>
<text text-anchor="start" x="1225.8672" y="-16.5" font-family="Helvetica,sans-Serif" font-size="10.00" fill="#000000">src/algorithm/electron</text>
<text text-anchor="middle" x="1283.6821" y="-6.5" font-family="Helvetica,sans-Serif" font-size="10.00" fill="#000000">_assignment/assigner.cpp</text>
</a>
</g>
</g>
<!-- Node12&#45;&gt;Node30 -->
<g id="edge34" class="edge">
<title>Node12&#45;&gt;Node30</title>
<path fill="none" stroke="#191970" d="M1241.2977,-195.5168C1251.3795,-152.459 1272.2517,-63.3173 1280.3598,-28.6891"/>
<polygon fill="#191970" stroke="#191970" points="1237.8534,-194.8749 1238.9814,-205.4095 1244.6691,-196.4708 1237.8534,-194.8749"/>
</g>
<!-- Node34 -->
<g id="node23" class="node">
<title>Node34</title>
<g id="a_node23"><a xlink:href="indigox_8hpp.html" target="_top" xlink:title="include/indigox/indigox.hpp">
<polygon fill="#ffffff" stroke="#000000" points="1451.6382,-145.5 1451.6382,-163.5 1587.7261,-163.5 1587.7261,-145.5 1451.6382,-145.5"/>
<text text-anchor="middle" x="1519.6821" y="-151.5" font-family="Helvetica,sans-Serif" font-size="10.00" fill="#000000">include/indigox/indigox.hpp</text>
</a>
</g>
</g>
<!-- Node12&#45;&gt;Node34 -->
<g id="edge33" class="edge">
<title>Node12&#45;&gt;Node34</title>
<path fill="none" stroke="#191970" d="M1304.9011,-203.6576C1359.9194,-191.0654 1434.915,-173.9009 1480.1756,-163.542"/>
<polygon fill="#191970" stroke="#191970" points="1303.8392,-200.3101 1294.8721,-205.953 1305.401,-207.1337 1303.8392,-200.3101"/>
</g>
<!-- Node35 -->
<g id="node24" class="node">
<title>Node35</title>
<g id="a_node24"><a xlink:href="electron__optimisation_8cpp.html" target="_top" xlink:title="src/algorithm/electron\l_optimisation.cpp">
<polygon fill="#ffffff" stroke="#000000" points="1605.8867,-140.5 1605.8867,-168.5 1717.4775,-168.5 1717.4775,-140.5 1605.8867,-140.5"/>
<text text-anchor="start" x="1613.8867" y="-156.5" font-family="Helvetica,sans-Serif" font-size="10.00" fill="#000000">src/algorithm/electron</text>
<text text-anchor="middle" x="1661.6821" y="-146.5" font-family="Helvetica,sans-Serif" font-size="10.00" fill="#000000">_optimisation.cpp</text>
</a>
</g>
</g>
<!-- Node12&#45;&gt;Node35 -->
<g id="edge35" class="edge">
<title>Node12&#45;&gt;Node35</title>
<path fill="none" stroke="#191970" d="M1304.9847,-211.4869C1377.8561,-202.6686 1495.7271,-187.291 1596.6821,-169 1599.6401,-168.4641 1602.6677,-167.8874 1605.7203,-167.2839"/>
<polygon fill="#191970" stroke="#191970" points="1304.5176,-208.0178 1295.0073,-212.6873 1305.3538,-214.9677 1304.5176,-208.0178"/>
</g>
<!-- Node36 -->
<g id="node25" class="node">
<title>Node36</title>
<g id="a_node25"><a xlink:href="electron__graph_8cpp.html" target="_top" xlink:title="src/classes/electron\l_graph.cpp">
<polygon fill="#ffffff" stroke="#000000" points="1735.7783,-140.5 1735.7783,-168.5 1839.5859,-168.5 1839.5859,-140.5 1735.7783,-140.5"/>
<text text-anchor="start" x="1743.7783" y="-156.5" font-family="Helvetica,sans-Serif" font-size="10.00" fill="#000000">src/classes/electron</text>
<text text-anchor="middle" x="1787.6821" y="-146.5" font-family="Helvetica,sans-Serif" font-size="10.00" fill="#000000">_graph.cpp</text>
</a>
</g>
</g>
<!-- Node12&#45;&gt;Node36 -->
<g id="edge37" class="edge">
<title>Node12&#45;&gt;Node36</title>
<path fill="none" stroke="#191970" d="M1305.0766,-215.2356C1400.5368,-208.7172 1577.506,-194.2897 1726.6821,-169 1729.5798,-168.5088 1732.5448,-167.9598 1735.5307,-167.3709"/>
<polygon fill="#191970" stroke="#191970" points="1304.7135,-211.7521 1294.9716,-215.9168 1305.1844,-218.7362 1304.7135,-211.7521"/>
</g>
<!-- Node37 -->
<g id="node26" class="node">
<title>Node37</title>
<g id="a_node26"><a xlink:href="periodictable_8cpp.html" target="_top" xlink:title="src/classes/periodictable.cpp">
<polygon fill="#ffffff" stroke="#000000" points="1857.7637,-145.5 1857.7637,-163.5 2001.6006,-163.5 2001.6006,-145.5 1857.7637,-145.5"/>
<text text-anchor="middle" x="1929.6821" y="-151.5" font-family="Helvetica,sans-Serif" font-size="10.00" fill="#000000">src/classes/periodictable.cpp</text>
</a>
</g>
</g>
<!-- Node12&#45;&gt;Node37 -->
<g id="edge40" class="edge">
<title>Node12&#45;&gt;Node37</title>
<path fill="none" stroke="#191970" d="M1305.3764,-215.9182C1419.3465,-209.5769 1652.5593,-194.574 1848.6821,-169 1860.015,-167.5222 1872.175,-165.552 1883.5384,-163.5415"/>
<polygon fill="#191970" stroke="#191970" points="1304.8481,-212.4419 1295.0559,-216.4869 1305.2333,-219.4313 1304.8481,-212.4419"/>
</g>
<!-- Node38 -->
<g id="node27" class="node">
<title>Node38</title>
<g id="a_node27"><a xlink:href="condensed_8cpp.html" target="_top" xlink:title="src/graph/condensed.cpp">
<polygon fill="#ffffff" stroke="#000000" points="2019.5347,-145.5 2019.5347,-163.5 2147.8296,-163.5 2147.8296,-145.5 2019.5347,-145.5"/>
<text text-anchor="middle" x="2083.6821" y="-151.5" font-family="Helvetica,sans-Serif" font-size="10.00" fill="#000000">src/graph/condensed.cpp</text>
</a>
</g>
</g>
<!-- Node12&#45;&gt;Node38 -->
<g id="edge41" class="edge">
<title>Node12&#45;&gt;Node38</title>
<path fill="none" stroke="#191970" d="M1305.5359,-218.0118C1441.725,-214.4342 1752.0529,-202.9634 2010.6821,-169 2021.3154,-167.6036 2032.7273,-165.5885 2043.2951,-163.5026"/>
<polygon fill="#191970" stroke="#191970" points="1305.1574,-214.5203 1295.2504,-218.2756 1305.3369,-221.518 1305.1574,-214.5203"/>
</g>
<!-- Node14 -->
<g id="node3" class="node">
<title>Node14</title>
<g id="a_node3"><a xlink:href="cherrypicker_8hpp.html" target="_top" xlink:title="include/indigox/algorithm\l/cherrypicker.hpp">
<polygon fill="#ffffff" stroke="#000000" points="859.6504,-70.5 859.6504,-98.5 985.7139,-98.5 985.7139,-70.5 859.6504,-70.5"/>
<text text-anchor="start" x="867.6504" y="-86.5" font-family="Helvetica,sans-Serif" font-size="10.00" fill="#000000">include/indigox/algorithm</text>
<text text-anchor="middle" x="922.6821" y="-76.5" font-family="Helvetica,sans-Serif" font-size="10.00" fill="#000000">/cherrypicker.hpp</text>
</a>
</g>
</g>
<!-- Node13&#45;&gt;Node14 -->
<g id="edge2" class="edge">
<title>Node13&#45;&gt;Node14</title>
<path fill="none" stroke="#191970" d="M813.7856,-136.0051C838.623,-124.2577 870.263,-109.2929 893.0296,-98.5249"/>
<polygon fill="#191970" stroke="#191970" points="812.1755,-132.8948 804.6321,-140.3345 815.1685,-139.2227 812.1755,-132.8948"/>
</g>
<!-- Node13&#45;&gt;Node16 -->
<g id="edge21" class="edge">
<title>Node13&#45;&gt;Node16</title>
<path fill="none" stroke="#191970" d="M844.0225,-148.7902C889.2664,-142.6822 948.312,-130.0601 994.6821,-104 1015.7795,-92.1433 1012.7064,-78.662 1032.6821,-65 1060.4694,-45.9954 1096.5488,-31.924 1121.6631,-23.5295"/>
<polygon fill="#191970" stroke="#191970" points="843.4824,-145.3306 834.0053,-150.0673 844.3677,-152.2744 843.4824,-145.3306"/>
</g>
<!-- Node13&#45;&gt;Node17 -->
<g id="edge5" class="edge">
<title>Node13&#45;&gt;Node17</title>
<path fill="none" stroke="#191970" d="M705.4026,-147.801C631.9815,-140.0182 512.8961,-125.4409 411.6821,-104 404.3531,-102.4474 396.656,-100.5276 389.1822,-98.5037"/>
<polygon fill="#191970" stroke="#191970" points="705.1426,-151.2928 715.453,-148.854 705.8722,-144.3309 705.1426,-151.2928"/>
</g>
<!-- Node18 -->
<g id="node7" class="node">
<title>Node18</title>
<g id="a_node7"><a xlink:href="angle_8cpp.html" target="_top" xlink:title="src/classes/angle.cpp">
<polygon fill="#ffffff" stroke="#000000" points="550.8818,-5.5 550.8818,-23.5 662.4824,-23.5 662.4824,-5.5 550.8818,-5.5"/>
<text text-anchor="middle" x="606.6821" y="-11.5" font-family="Helvetica,sans-Serif" font-size="10.00" fill="#000000">src/classes/angle.cpp</text>
</a>
</g>
</g>
<!-- Node13&#45;&gt;Node18 -->
<g id="edge13" class="edge">
<title>Node13&#45;&gt;Node18</title>
<path fill="none" stroke="#191970" d="M769.9726,-130.5897C764.9002,-110.6495 754.9692,-82.7288 736.6821,-65 722.2099,-50.9695 671.5718,-33.8277 637.9336,-23.5567"/>
<polygon fill="#191970" stroke="#191970" points="766.5927,-131.5085 772.257,-140.462 773.4125,-129.9303 766.5927,-131.5085"/>
</g>
<!-- Node13&#45;&gt;Node19 -->
<g id="edge15" class="edge">
<title>Node13&#45;&gt;Node19</title>
<path fill="none" stroke="#191970" d="M705.1094,-151.2374C579.4479,-144.8118 319.6025,-128.9377 232.6821,-104 167.1837,-85.2083 97.0837,-42.3382 68.251,-23.576"/>
<polygon fill="#191970" stroke="#191970" points="705.2183,-154.7473 715.3824,-151.757 705.5719,-147.7563 705.2183,-154.7473"/>
</g>
<!-- Node20 -->
<g id="node9" class="node">
<title>Node20</title>
<g id="a_node9"><a xlink:href="bond_8cpp.html" target="_top" xlink:title="src/classes/bond.cpp">
<polygon fill="#ffffff" stroke="#000000" points="679.9927,-5.5 679.9927,-23.5 789.3716,-23.5 789.3716,-5.5 679.9927,-5.5"/>
<text text-anchor="middle" x="734.6821" y="-11.5" font-family="Helvetica,sans-Serif" font-size="10.00" fill="#000000">src/classes/bond.cpp</text>
</a>
</g>
</g>
<!-- Node13&#45;&gt;Node20 -->
<g id="edge16" class="edge">
<title>Node13&#45;&gt;Node20</title>
<path fill="none" stroke="#191970" d="M776.8306,-130.2444C777.635,-111.8421 776.9607,-86.1853 769.6821,-65 764.1364,-48.8586 751.851,-33.1674 743.4168,-23.6689"/>
<polygon fill="#191970" stroke="#191970" points="773.3262,-130.2097 776.2049,-140.406 780.313,-130.64 773.3262,-130.2097"/>
</g>
<!-- Node21 -->
<g id="node10" class="node">
<title>Node21</title>
<g id="a_node10"><a xlink:href="dihedral_8cpp.html" target="_top" xlink:title="src/classes/dihedral.cpp">
<polygon fill="#ffffff" stroke="#000000" points="807.3252,-5.5 807.3252,-23.5 930.0391,-23.5 930.0391,-5.5 807.3252,-5.5"/>
<text text-anchor="middle" x="868.6821" y="-11.5" font-family="Helvetica,sans-Serif" font-size="10.00" fill="#000000">src/classes/dihedral.cpp</text>
</a>
</g>
</g>
<!-- Node13&#45;&gt;Node21 -->
<g id="edge17" class="edge">
<title>Node13&#45;&gt;Node21</title>
<path fill="none" stroke="#191970" d="M789.9341,-131.7844C810.9479,-100.4872 847.8626,-45.5078 862.4748,-23.745"/>
<polygon fill="#191970" stroke="#191970" points="786.8813,-130.0523 784.2126,-140.3056 792.6928,-133.9544 786.8813,-130.0523"/>
</g>
<!-- Node13&#45;&gt;Node22 -->
<g id="edge19" class="edge">
<title>Node13&#45;&gt;Node22</title>
<path fill="none" stroke="#191970" d="M705.1989,-153.3793C586.3158,-150.4922 349.5557,-140.2351 275.6821,-104 256.3467,-94.5159 214.974,-44.7507 198.0891,-23.805"/>
<polygon fill="#191970" stroke="#191970" points="705.2078,-156.8803 715.2863,-153.6134 705.3703,-149.8822 705.2078,-156.8803"/>
</g>
<!-- Node25 -->
<g id="node14" class="node">
<title>Node25</title>
<g id="a_node14"><a xlink:href="athenaeum_8cpp.html" target="_top" xlink:title="src/classes/athenaeum.cpp">
<polygon fill="#ffffff" stroke="#000000" points="421.0962,-75.5 421.0962,-93.5 558.2681,-93.5 558.2681,-75.5 421.0962,-75.5"/>
<text text-anchor="middle" x="489.6821" y="-81.5" font-family="Helvetica,sans-Serif" font-size="10.00" fill="#000000">src/classes/athenaeum.cpp</text>
</a>
</g>
</g>
<!-- Node13&#45;&gt;Node25 -->
<g id="edge14" class="edge">
<title>Node13&#45;&gt;Node25</title>
<path fill="none" stroke="#191970" d="M706.1341,-138.0369C665.5589,-128.2472 613.1637,-115.528 566.6821,-104 553.0299,-100.6141 538.0328,-96.8306 524.9299,-93.504"/>
<polygon fill="#191970" stroke="#191970" points="705.3778,-141.4548 715.9196,-140.3964 707.0187,-134.6498 705.3778,-141.4548"/>
</g>
<!-- Node13&#45;&gt;Node26 -->
<g id="edge18" class="edge">
<title>Node13&#45;&gt;Node26</title>
<path fill="none" stroke="#191970" d="M843.8127,-141.6284C894.775,-131.9145 965.7158,-117.9218 1027.6821,-104 1041.8458,-100.8179 1057.3746,-97.003 1070.8217,-93.5946"/>
<polygon fill="#191970" stroke="#191970" points="843.0661,-138.2076 833.8952,-143.5128 844.3728,-145.0845 843.0661,-138.2076"/>
</g>
<!-- Node27 -->
<g id="node16" class="node">
<title>Node27</title>
<g id="a_node16"><a xlink:href="parameterised_8cpp.html" target="_top" xlink:title="src/classes/parameterised.cpp">
<polygon fill="#ffffff" stroke="#000000" points="576.1553,-75.5 576.1553,-93.5 727.209,-93.5 727.209,-75.5 576.1553,-75.5"/>
<text text-anchor="middle" x="651.6821" y="-81.5" font-family="Helvetica,sans-Serif" font-size="10.00" fill="#000000">src/classes/parameterised.cpp</text>
</a>
</g>
</g>
<!-- Node13&#45;&gt;Node27 -->
<g id="edge20" class="edge">
<title>Node13&#45;&gt;Node27</title>
<path fill="none" stroke="#191970" d="M741.0108,-135.3375C717.0841,-121.7207 686.036,-104.051 667.5536,-93.5325"/>
<polygon fill="#191970" stroke="#191970" points="739.3689,-138.4301 749.7912,-140.3345 742.8313,-132.3463 739.3689,-138.4301"/>
</g>
<!-- Node15 -->
<g id="node4" class="node">
<title>Node15</title>
<g id="a_node4"><a xlink:href="cherrypicker_8cpp.html" target="_top" xlink:title="src/algorithm/cherrypicker.cpp">
<polygon fill="#ffffff" stroke="#000000" points="948.2686,-5.5 948.2686,-23.5 1097.0957,-23.5 1097.0957,-5.5 948.2686,-5.5"/>
<text text-anchor="middle" x="1022.6821" y="-11.5" font-family="Helvetica,sans-Serif" font-size="10.00" fill="#000000">src/algorithm/cherrypicker.cpp</text>
</a>
</g>
</g>
<!-- Node14&#45;&gt;Node15 -->
<g id="edge3" class="edge">
<title>Node14&#45;&gt;Node15</title>
<path fill="none" stroke="#191970" d="M951.3508,-64.4319C970.6168,-50.9457 995.0831,-33.8193 1009.7785,-23.5325"/>
<polygon fill="#191970" stroke="#191970" points="949.1038,-61.7325 942.9186,-70.3345 953.1181,-67.4671 949.1038,-61.7325"/>
</g>
<!-- Node14&#45;&gt;Node16 -->
<g id="edge4" class="edge">
<title>Node14&#45;&gt;Node16</title>
<path fill="none" stroke="#191970" d="M979.2394,-67.5208C1015.4258,-56.6143 1063.3536,-42.0896 1105.6821,-29 1111.2819,-27.2683 1117.2587,-25.3995 1122.9875,-23.5981"/>
<polygon fill="#191970" stroke="#191970" points="977.9245,-64.2615 969.3588,-70.4968 979.9433,-70.964 977.9245,-64.2615"/>
</g>
<!-- Node17&#45;&gt;Node18 -->
<g id="edge6" class="edge">
<title>Node17&#45;&gt;Node18</title>
<path fill="none" stroke="#191970" d="M401.5826,-67.7866C404.9973,-66.835 408.3831,-65.9 411.6821,-65 467.0124,-49.9048 531.4788,-33.4251 570.6682,-23.5299"/>
<polygon fill="#191970" stroke="#191970" points="400.612,-64.4237 391.9309,-70.4973 402.5048,-71.1629 400.612,-64.4237"/>
</g>
<!-- Node17&#45;&gt;Node19 -->
<g id="edge7" class="edge">
<title>Node17&#45;&gt;Node19</title>
<path fill="none" stroke="#191970" d="M275.4764,-67.9796C218.1552,-54.0955 138.3758,-34.7718 92.0671,-23.5552"/>
<polygon fill="#191970" stroke="#191970" points="275.0034,-71.4662 285.5463,-70.4187 276.6513,-64.6629 275.0034,-71.4662"/>
</g>
<!-- Node17&#45;&gt;Node20 -->
<g id="edge8" class="edge">
<title>Node17&#45;&gt;Node20</title>
<path fill="none" stroke="#191970" d="M399.0696,-67.9187C403.32,-66.8605 407.5593,-65.872 411.6821,-65 525.8153,-40.8608 556.9489,-50.1036 671.6821,-29 680.1816,-27.4366 689.2677,-25.5019 697.8186,-23.5607"/>
<polygon fill="#191970" stroke="#191970" points="397.9774,-64.5863 389.1813,-70.4922 399.7405,-71.3607 397.9774,-64.5863"/>
</g>
<!-- Node17&#45;&gt;Node21 -->
<g id="edge9" class="edge">
<title>Node17&#45;&gt;Node21</title>
<path fill="none" stroke="#191970" d="M398.0269,-67.9494C402.6211,-66.8452 407.2164,-65.8404 411.6821,-65 581.4448,-33.0525 627.8409,-54.559 798.6821,-29 808.5015,-27.531 819.0196,-25.5641 828.841,-23.5539"/>
<polygon fill="#191970" stroke="#191970" points="396.8475,-64.638 388.0221,-70.4999 398.5768,-71.4211 396.8475,-64.638"/>
</g>
<!-- Node17&#45;&gt;Node22 -->
<g id="edge10" class="edge">
<title>Node17&#45;&gt;Node22</title>
<path fill="none" stroke="#191970" d="M303.3633,-66.0535C273.4018,-52.3456 233.8202,-34.2364 210.4247,-23.5325"/>
<polygon fill="#191970" stroke="#191970" points="302.1707,-69.3567 312.7203,-70.3345 305.083,-62.9913 302.1707,-69.3567"/>
</g>
<!-- Node23 -->
<g id="node12" class="node">
<title>Node23</title>
<g id="a_node12"><a xlink:href="residue_8cpp.html" target="_top" xlink:title="src/classes/residue.cpp">
<polygon fill="#ffffff" stroke="#000000" points="412.7168,-5.5 412.7168,-23.5 532.6475,-23.5 532.6475,-5.5 412.7168,-5.5"/>
<text text-anchor="middle" x="472.6821" y="-11.5" font-family="Helvetica,sans-Serif" font-size="10.00" fill="#000000">src/classes/residue.cpp</text>
</a>
</g>
</g>
<!-- Node17&#45;&gt;Node23 -->
<g id="edge11" class="edge">
<title>Node17&#45;&gt;Node23</title>
<path fill="none" stroke="#191970" d="M378.6647,-65.5172C403.8026,-51.8765 436.567,-34.0973 456.0364,-23.5325"/>
<polygon fill="#191970" stroke="#191970" points="376.9073,-62.4887 369.7872,-70.3345 380.2459,-68.6413 376.9073,-62.4887"/>
</g>
<!-- Node24 -->
<g id="node13" class="node">
<title>Node24</title>
<g id="a_node13"><a xlink:href="molecular_8cpp.html" target="_top" xlink:title="src/graph/molecular.cpp">
<polygon fill="#ffffff" stroke="#000000" points="272.5986,-5.5 272.5986,-23.5 394.7656,-23.5 394.7656,-5.5 272.5986,-5.5"/>
<text text-anchor="middle" x="333.6821" y="-11.5" font-family="Helvetica,sans-Serif" font-size="10.00" fill="#000000">src/graph/molecular.cpp</text>
</a>
</g>
</g>
<!-- Node17&#45;&gt;Node24 -->
<g id="edge12" class="edge">
<title>Node17&#45;&gt;Node24</title>
<path fill="none" stroke="#191970" d="M340.2373,-60.3864C338.4334,-47.7588 336.3295,-33.0315 335.0017,-23.7368"/>
<polygon fill="#191970" stroke="#191970" points="336.7794,-60.93 341.6585,-70.3345 343.709,-59.94 336.7794,-60.93"/>
</g>
<!-- Node29 -->
<g id="node18" class="node">
<title>Node29</title>
<g id="a_node18"><a xlink:href="astar__optimisation_8hpp.html" target="_top" xlink:title="include/indigox/algorithm\l/electron_assignment/astar\l_optimisation.hpp">
<polygon fill="#ffffff" stroke="#000000" points="1453.6504,-65.5 1453.6504,-103.5 1589.7139,-103.5 1589.7139,-65.5 1453.6504,-65.5"/>
<text text-anchor="start" x="1461.6504" y="-91.5" font-family="Helvetica,sans-Serif" font-size="10.00" fill="#000000">include/indigox/algorithm</text>
<text text-anchor="start" x="1461.6504" y="-81.5" font-family="Helvetica,sans-Serif" font-size="10.00" fill="#000000">/electron_assignment/astar</text>
<text text-anchor="middle" x="1521.6821" y="-71.5" font-family="Helvetica,sans-Serif" font-size="10.00" fill="#000000">_optimisation.hpp</text>
</a>
</g>
</g>
<!-- Node28&#45;&gt;Node29 -->
<g id="edge23" class="edge">
<title>Node28&#45;&gt;Node29</title>
<path fill="none" stroke="#191970" d="M1393.269,-136.4591C1418.2027,-126.3703 1449.2636,-113.8023 1474.5912,-103.5541"/>
<polygon fill="#191970" stroke="#191970" points="1391.6484,-133.3391 1383.6913,-140.3345 1394.274,-139.828 1391.6484,-133.3391"/>
</g>
<!-- Node28&#45;&gt;Node30 -->
<g id="edge29" class="edge">
<title>Node28&#45;&gt;Node30</title>
<path fill="none" stroke="#191970" d="M1318.228,-134.1089C1308.4332,-125.941 1298.5949,-115.6802 1292.6821,-104 1280.4097,-79.7565 1280.6623,-47.1222 1282.0833,-28.7033"/>
<polygon fill="#191970" stroke="#191970" points="1316.3239,-137.0629 1326.3583,-140.463 1320.6344,-131.5475 1316.3239,-137.0629"/>
</g>
<!-- Node31 -->
<g id="node20" class="node">
<title>Node31</title>
<g id="a_node20"><a xlink:href="astar__optimisation_8cpp.html" target="_top" xlink:title="src/algorithm/electron\l_assignment/astar_optimisation.cpp">
<polygon fill="#ffffff" stroke="#000000" points="1566.9165,-.5 1566.9165,-28.5 1742.4478,-28.5 1742.4478,-.5 1566.9165,-.5"/>
<text text-anchor="start" x="1574.9165" y="-16.5" font-family="Helvetica,sans-Serif" font-size="10.00" fill="#000000">src/algorithm/electron</text>
<text text-anchor="middle" x="1654.6821" y="-6.5" font-family="Helvetica,sans-Serif" font-size="10.00" fill="#000000">_assignment/astar_optimisation.cpp</text>
</a>
</g>
</g>
<!-- Node28&#45;&gt;Node31 -->
<g id="edge30" class="edge">
<title>Node28&#45;&gt;Node31</title>
<path fill="none" stroke="#191970" d="M1443.5689,-138.7003C1517.4866,-126.0513 1608.7369,-109.5408 1615.6821,-104 1639.3987,-85.0792 1649.0165,-48.8608 1652.6566,-28.7849"/>
<polygon fill="#191970" stroke="#191970" points="1442.5335,-135.3263 1433.2644,-140.458 1443.7106,-142.2267 1442.5335,-135.3263"/>
</g>
<!-- Node32 -->
<g id="node21" class="node">
<title>Node32</title>
<g id="a_node21"><a xlink:href="local__optimisation_8hpp.html" target="_top" xlink:title="include/indigox/algorithm\l/electron_assignment/local\l_optimisation.hpp">
<polygon fill="#ffffff" stroke="#000000" points="1301.4829,-65.5 1301.4829,-103.5 1435.8813,-103.5 1435.8813,-65.5 1301.4829,-65.5"/>
<text text-anchor="start" x="1309.4829" y="-91.5" font-family="Helvetica,sans-Serif" font-size="10.00" fill="#000000">include/indigox/algorithm</text>
<text text-anchor="start" x="1309.4829" y="-81.5" font-family="Helvetica,sans-Serif" font-size="10.00" fill="#000000">/electron_assignment/local</text>
<text text-anchor="middle" x="1368.6821" y="-71.5" font-family="Helvetica,sans-Serif" font-size="10.00" fill="#000000">_optimisation.hpp</text>
</a>
</g>
</g>
<!-- Node28&#45;&gt;Node32 -->
<g id="edge26" class="edge">
<title>Node28&#45;&gt;Node32</title>
<path fill="none" stroke="#191970" d="M1355.4972,-130.6474C1358.0094,-121.8546 1360.821,-112.0138 1363.2005,-103.6857"/>
<polygon fill="#191970" stroke="#191970" points="1352.1114,-129.7577 1352.7294,-140.3345 1358.842,-131.6808 1352.1114,-129.7577"/>
</g>
<!-- Node33 -->
<g id="node22" class="node">
<title>Node33</title>
<g id="a_node22"><a xlink:href="local__optimisation_8cpp.html" target="_top" xlink:title="src/algorithm/electron\l_assignment/local_optimisation.cpp">
<polygon fill="#ffffff" stroke="#000000" points="1372.749,-.5 1372.749,-28.5 1546.6152,-28.5 1546.6152,-.5 1372.749,-.5"/>
<text text-anchor="start" x="1380.749" y="-16.5" font-family="Helvetica,sans-Serif" font-size="10.00" fill="#000000">src/algorithm/electron</text>
<text text-anchor="middle" x="1459.6821" y="-6.5" font-family="Helvetica,sans-Serif" font-size="10.00" fill="#000000">_assignment/local_optimisation.cpp</text>
</a>
</g>
</g>
<!-- Node28&#45;&gt;Node33 -->
<g id="edge31" class="edge">
<title>Node28&#45;&gt;Node33</title>
<path fill="none" stroke="#191970" d="M1440.8948,-138.6758C1509.9777,-126.3757 1593.4707,-110.3694 1598.6821,-104 1609.6584,-90.5848 1608.6283,-79.1957 1598.6821,-65 1588.8848,-51.0166 1551.7496,-37.9323 1518.3268,-28.5871"/>
<polygon fill="#191970" stroke="#191970" points="1440.0534,-135.2703 1430.8178,-140.4621 1441.2752,-142.1629 1440.0534,-135.2703"/>
</g>
<!-- Node29&#45;&gt;Node30 -->
<g id="edge24" class="edge">
<title>Node29&#45;&gt;Node30</title>
<path fill="none" stroke="#191970" d="M1447.0128,-62.5384C1409.2299,-51.4258 1364.4903,-38.2671 1331.3979,-28.534"/>
<polygon fill="#191970" stroke="#191970" points="1446.3807,-66.0007 1456.962,-65.4647 1448.3559,-59.2851 1446.3807,-66.0007"/>
</g>
<!-- Node29&#45;&gt;Node31 -->
<g id="edge25" class="edge">
<title>Node29&#45;&gt;Node31</title>
<path fill="none" stroke="#191970" d="M1567.0542,-60.62C1587.2156,-50.0087 1610.2684,-37.8757 1627.6674,-28.7183"/>
<polygon fill="#191970" stroke="#191970" points="1565.244,-57.6175 1558.025,-65.3722 1568.5043,-63.8119 1565.244,-57.6175"/>
</g>
<!-- Node32&#45;&gt;Node30 -->
<g id="edge27" class="edge">
<title>Node32&#45;&gt;Node30</title>
<path fill="none" stroke="#191970" d="M1337.5802,-58.8866C1325.2177,-48.7057 1311.4658,-37.3807 1300.9472,-28.7183"/>
<polygon fill="#191970" stroke="#191970" points="1335.5112,-61.7168 1345.4555,-65.3722 1339.9612,-56.3133 1335.5112,-61.7168"/>
</g>
<!-- Node32&#45;&gt;Node33 -->
<g id="edge28" class="edge">
<title>Node32&#45;&gt;Node33</title>
<path fill="none" stroke="#191970" d="M1401.6018,-59.1772C1414.9339,-48.9217 1429.83,-37.4632 1441.1984,-28.7183"/>
<polygon fill="#191970" stroke="#191970" points="1399.3405,-56.5009 1393.5483,-65.3722 1403.6085,-62.0492 1399.3405,-56.5009"/>
</g>
</g>
</svg>
        <g id="navigator" transform="translate(0 0)" fill="#404254">
                <rect fill="#f2f5e9" fill-opacity="0.5" stroke="#606060" stroke-width=".5" x="0" y="0" width="60" height="60"/>
                <use id="zoomplus" xlink:href="#zoomPlus" x="17" y="9" onmousedown="handleZoom(evt,'in')"/>
                <use id="zoomminus" xlink:href="#zoomMin" x="42" y="9" onmousedown="handleZoom(evt,'out')"/>
                <use id="reset" xlink:href="#resetDef" x="30" y="36" onmousedown="handleReset()"/>
                <g id="arrowUp" xlink:href="#dirArrow" transform="translate(30 24)" onmousedown="handlePan(0,-1)">
                  <use xlink:href="#rim" fill="#404040">
                        <set attributeName="fill" to="#808080" begin="arrowUp.mouseover" end="arrowUp.mouseout"/>
                  </use>
                  <path fill="none" stroke="white" stroke-width="1.5" d="M0,-3.0v7 M-2.5,-0.5L0,-3.0L2.5,-0.5"/>
                </g>
                <g id="arrowRight" xlink:href="#dirArrow" transform="rotate(90) translate(36 -43)" onmousedown="handlePan(1,0)">
                  <use xlink:href="#rim" fill="#404040">
                        <set attributeName="fill" to="#808080" begin="arrowRight.mouseover" end="arrowRight.mouseout"/>
                  </use>
                  <path fill="none" stroke="white" stroke-width="1.5" d="M0,-3.0v7 M-2.5,-0.5L0,-3.0L2.5,-0.5"/>
                </g>
                <g id="arrowDown" xlink:href="#dirArrow" transform="rotate(180) translate(-30 -48)" onmousedown="handlePan(0,1)">
                  <use xlink:href="#rim" fill="#404040">
                        <set attributeName="fill" to="#808080" begin="arrowDown.mouseover" end="arrowDown.mouseout"/>
                  </use>
                  <path fill="none" stroke="white" stroke-width="1.5" d="M0,-3.0v7 M-2.5,-0.5L0,-3.0L2.5,-0.5"/>
                </g>
                <g id="arrowLeft" xlink:href="#dirArrow" transform="rotate(270) translate(-36 17)" onmousedown="handlePan(-1,0)">
                  <use xlink:href="#rim" fill="#404040">
                        <set attributeName="fill" to="#808080" begin="arrowLeft.mouseover" end="arrowLeft.mouseout"/>
                  </use>
                  <path fill="none" stroke="white" stroke-width="1.5" d="M0,-3.0v7 M-2.5,-0.5L0,-3.0L2.5,-0.5"/>
                </g>
        </g>
        <svg viewBox="0 0 15 15" width="100%" height="30px" preserveAspectRatio="xMaxYMin meet">
         <g id="arrow_out" transform="scale(0.3 0.3)">
          <a xlink:href="periodictable_8hpp__dep__incl_org.svg" target="_base">
           <rect id="button" ry="5" rx="5" y="6" x="6" height="38" width="38"
                fill="#f2f5e9" fill-opacity="0.5" stroke="#606060" stroke-width="1.0"/>
           <path id="arrow"
             d="M 11.500037,31.436501 C 11.940474,20.09759 22.043105,11.32322 32.158766,21.979434 L 37.068811,17.246167 C 37.068811,17.246167 37.088388,32 37.088388,32 L 22.160133,31.978069 C 22.160133,31.978069 26.997745,27.140456 26.997745,27.140456 C 18.528582,18.264221 13.291696,25.230495 11.500037,31.436501 z"
             style="fill:#404040;"/>
          </a>
         </g>
        </svg>
</svg>
