<?xml version="1.0" encoding="UTF-8" standalone="no"?>
<!DOCTYPE svg PUBLIC "-//W3C//DTD SVG 1.1//EN"
 "http://www.w3.org/Graphics/SVG/1.1/DTD/svg11.dtd">
<!-- Generated by graphviz version 2.40.1 (20161225.0304)
 -->
<!-- Title: include/indigox/classes/periodictable.hpp Pages: 1 -->
<svg width="668pt" height="147pt"
 viewBox="0.00 0.00 667.74 147.00" xmlns="http://www.w3.org/2000/svg" xmlns:xlink="http://www.w3.org/1999/xlink">
<g id="graph0" class="graph" transform="scale(1 1) rotate(0) translate(4 143)">
<title>include/indigox/classes/periodictable.hpp</title>
<polygon fill="#ffffff" stroke="transparent" points="-4,4 -4,-143 663.7363,-143 663.7363,4 -4,4"/>
<!-- Node0 -->
<g id="node1" class="node">
<title>Node0</title>
<polygon fill="#bfbfbf" stroke="#000000" points="373.4238,-110.5 373.4238,-138.5 491.7041,-138.5 491.7041,-110.5 373.4238,-110.5"/>
<text text-anchor="start" x="381.4238" y="-126.5" font-family="Helvetica,sans-Serif" font-size="10.00" fill="#000000">include/indigox/classes</text>
<text text-anchor="middle" x="432.564" y="-116.5" font-family="Helvetica,sans-Serif" font-size="10.00" fill="#000000">/periodictable.hpp</text>
</g>
<!-- Node1 -->
<g id="node2" class="node">
<title>Node1</title>
<g id="a_node2"><a xlink:href="common_8hpp.html" target="_top" xlink:title="../utils/common.hpp">
<polygon fill="#ffffff" stroke="#000000" points="115.2119,-55.5 115.2119,-73.5 217.916,-73.5 217.916,-55.5 115.2119,-55.5"/>
<text text-anchor="middle" x="166.564" y="-61.5" font-family="Helvetica,sans-Serif" font-size="10.00" fill="#000000">../utils/common.hpp</text>
</a>
</g>
</g>
<!-- Node0&#45;&gt;Node1 -->
<g id="edge1" class="edge">
<title>Node0&#45;&gt;Node1</title>
<path fill="none" stroke="#191970" d="M373.1995,-111.1095C326.1801,-100.5036 261.2312,-85.8535 216.7736,-75.8255"/>
<polygon fill="#191970" stroke="#191970" points="217.3008,-72.3565 206.7757,-73.5703 215.7605,-79.185 217.3008,-72.3565"/>
</g>
<!-- Node7 -->
<g id="node8" class="node">
<title>Node7</title>
<g id="a_node8"><a xlink:href="fwd__declares_8hpp.html" target="_top" xlink:title="../utils/fwd_declares.hpp">
<polygon fill="#ffffff" stroke="#000000" points="238.9238,-55.5 238.9238,-73.5 362.2041,-73.5 362.2041,-55.5 238.9238,-55.5"/>
<text text-anchor="middle" x="300.564" y="-61.5" font-family="Helvetica,sans-Serif" font-size="10.00" fill="#000000">../utils/fwd_declares.hpp</text>
</a>
</g>
</g>
<!-- Node0&#45;&gt;Node7 -->
<g id="edge7" class="edge">
<title>Node0&#45;&gt;Node7</title>
<path fill="none" stroke="#191970" d="M401.6158,-110.4327C379.9412,-100.5806 351.1616,-87.4989 329.8606,-77.8167"/>
<polygon fill="#191970" stroke="#191970" points="331.2043,-74.5829 320.6523,-73.6311 328.3076,-80.9554 331.2043,-74.5829"/>
</g>
<!-- Node8 -->
<g id="node9" class="node">
<title>Node8</title>
<polygon fill="#ffffff" stroke="#bfbfbf" points="359.1133,-.5 359.1133,-18.5 404.0146,-18.5 404.0146,-.5 359.1133,-.5"/>
<text text-anchor="middle" x="381.564" y="-6.5" font-family="Helvetica,sans-Serif" font-size="10.00" fill="#000000">cstdint</text>
</g>
<!-- Node0&#45;&gt;Node8 -->
<g id="edge12" class="edge">
<title>Node0&#45;&gt;Node8</title>
<path fill="none" stroke="#191970" d="M426.0524,-110.3813C421.4095,-100.2714 415.0447,-86.3236 409.564,-74 402.6749,-58.5096 395.0202,-40.8443 389.4579,-27.9224"/>
<polygon fill="#191970" stroke="#191970" points="392.6628,-26.5153 385.5003,-18.7083 386.231,-29.278 392.6628,-26.5153"/>
</g>
<!-- Node9 -->
<g id="node10" class="node">
<title>Node9</title>
<polygon fill="#ffffff" stroke="#bfbfbf" points="419.042,-55.5 419.042,-73.5 530.0859,-73.5 530.0859,-55.5 419.042,-55.5"/>
<text text-anchor="middle" x="474.564" y="-61.5" font-family="Helvetica,sans-Serif" font-size="10.00" fill="#000000">EASTL/vector_map.h</text>
</g>
<!-- Node0&#45;&gt;Node9 -->
<g id="edge10" class="edge">
<title>Node0&#45;&gt;Node9</title>
<path fill="none" stroke="#191970" d="M442.5174,-110.2808C448.4848,-101.756 456.1158,-90.8545 462.4343,-81.8281"/>
<polygon fill="#191970" stroke="#191970" points="465.3377,-83.7837 468.205,-73.5842 459.603,-79.7694 465.3377,-83.7837"/>
</g>
<!-- Node10 -->
<g id="node11" class="node">
<title>Node10</title>
<polygon fill="#ffffff" stroke="#bfbfbf" points="548.1724,-55.5 548.1724,-73.5 586.9556,-73.5 586.9556,-55.5 548.1724,-55.5"/>
<text text-anchor="middle" x="567.564" y="-61.5" font-family="Helvetica,sans-Serif" font-size="10.00" fill="#000000">array</text>
</g>
<!-- Node0&#45;&gt;Node10 -->
<g id="edge11" class="edge">
<title>Node0&#45;&gt;Node10</title>
<path fill="none" stroke="#191970" d="M464.2155,-110.4327C486.653,-100.4604 516.5354,-87.1794 538.3951,-77.464"/>
<polygon fill="#191970" stroke="#191970" points="540.102,-80.5355 547.8186,-73.2757 537.259,-74.1388 540.102,-80.5355"/>
</g>
<!-- Node11 -->
<g id="node12" class="node">
<title>Node11</title>
<polygon fill="#ffffff" stroke="#bfbfbf" points="605.3916,-55.5 605.3916,-73.5 659.7363,-73.5 659.7363,-55.5 605.3916,-55.5"/>
<text text-anchor="middle" x="632.564" y="-61.5" font-family="Helvetica,sans-Serif" font-size="10.00" fill="#000000">iostream</text>
</g>
<!-- Node0&#45;&gt;Node11 -->
<g id="edge13" class="edge">
<title>Node0&#45;&gt;Node11</title>
<path fill="none" stroke="#191970" d="M479.4551,-110.4327C514.9256,-99.7915 562.9549,-85.3827 595.7005,-75.5591"/>
<polygon fill="#191970" stroke="#191970" points="596.7689,-78.8927 605.3414,-72.6668 594.7574,-72.1879 596.7689,-78.8927"/>
</g>
<!-- Node2 -->
<g id="node3" class="node">
<title>Node2</title>
<polygon fill="#ffffff" stroke="#bfbfbf" points="0,-.5 0,-18.5 57.1279,-18.5 57.1279,-.5 0,-.5"/>
<text text-anchor="middle" x="28.564" y="-6.5" font-family="Helvetica,sans-Serif" font-size="10.00" fill="#000000">algorithm</text>
</g>
<!-- Node1&#45;&gt;Node2 -->
<g id="edge2" class="edge">
<title>Node1&#45;&gt;Node2</title>
<path fill="none" stroke="#191970" d="M143.7761,-55.4179C121.2033,-46.4215 86.4187,-32.5581 60.9743,-22.4172"/>
<polygon fill="#191970" stroke="#191970" points="61.9709,-19.0467 51.3857,-18.5956 59.3793,-25.5493 61.9709,-19.0467"/>
</g>
<!-- Node3 -->
<g id="node4" class="node">
<title>Node3</title>
<polygon fill="#ffffff" stroke="#bfbfbf" points="75.0024,-.5 75.0024,-18.5 122.1255,-18.5 122.1255,-.5 75.0024,-.5"/>
<text text-anchor="middle" x="98.564" y="-6.5" font-family="Helvetica,sans-Serif" font-size="10.00" fill="#000000">iterator</text>
</g>
<!-- Node1&#45;&gt;Node3 -->
<g id="edge3" class="edge">
<title>Node1&#45;&gt;Node3</title>
<path fill="none" stroke="#191970" d="M155.3351,-55.4179C145.1595,-47.1876 129.9477,-34.8839 117.8309,-25.0836"/>
<polygon fill="#191970" stroke="#191970" points="120.0129,-22.3469 110.0367,-18.7795 115.6108,-27.7895 120.0129,-22.3469"/>
</g>
<!-- Node4 -->
<g id="node5" class="node">
<title>Node4</title>
<polygon fill="#ffffff" stroke="#bfbfbf" points="278.5073,-.5 278.5073,-18.5 330.6206,-18.5 330.6206,-.5 278.5073,-.5"/>
<text text-anchor="middle" x="304.564" y="-6.5" font-family="Helvetica,sans-Serif" font-size="10.00" fill="#000000">memory</text>
</g>
<!-- Node1&#45;&gt;Node4 -->
<g id="edge4" class="edge">
<title>Node1&#45;&gt;Node4</title>
<path fill="none" stroke="#191970" d="M189.3519,-55.4179C211.9247,-46.4215 246.7092,-32.5581 272.1536,-22.4172"/>
<polygon fill="#191970" stroke="#191970" points="273.7486,-25.5493 281.7422,-18.5956 271.157,-19.0467 273.7486,-25.5493"/>
</g>
<!-- Node5 -->
<g id="node6" class="node">
<title>Node5</title>
<polygon fill="#ffffff" stroke="#bfbfbf" points="140.3374,-.5 140.3374,-18.5 180.7905,-18.5 180.7905,-.5 140.3374,-.5"/>
<text text-anchor="middle" x="160.564" y="-6.5" font-family="Helvetica,sans-Serif" font-size="10.00" fill="#000000">string</text>
</g>
<!-- Node1&#45;&gt;Node5 -->
<g id="edge5" class="edge">
<title>Node1&#45;&gt;Node5</title>
<path fill="none" stroke="#191970" d="M165.5732,-55.4179C164.7876,-48.2164 163.6617,-37.8962 162.6763,-28.8632"/>
<polygon fill="#191970" stroke="#191970" points="166.1402,-28.3409 161.5763,-18.7795 159.1815,-29.1001 166.1402,-28.3409"/>
</g>
<!-- Node6 -->
<g id="node7" class="node">
<title>Node6</title>
<polygon fill="#ffffff" stroke="#bfbfbf" points="198.4976,-.5 198.4976,-18.5 260.6304,-18.5 260.6304,-.5 198.4976,-.5"/>
<text text-anchor="middle" x="229.564" y="-6.5" font-family="Helvetica,sans-Serif" font-size="10.00" fill="#000000">type_traits</text>
</g>
<!-- Node1&#45;&gt;Node6 -->
<g id="edge6" class="edge">
<title>Node1&#45;&gt;Node6</title>
<path fill="none" stroke="#191970" d="M176.9671,-55.4179C186.3039,-47.2667 200.2173,-35.1201 211.3891,-25.3669"/>
<polygon fill="#191970" stroke="#191970" points="213.7034,-27.9927 218.9348,-18.7795 209.0998,-22.7194 213.7034,-27.9927"/>
</g>
<!-- Node7&#45;&gt;Node4 -->
<g id="edge9" class="edge">
<title>Node7&#45;&gt;Node4</title>
<path fill="none" stroke="#191970" d="M301.2245,-55.4179C301.7482,-48.2164 302.4988,-37.8962 303.1557,-28.8632"/>
<polygon fill="#191970" stroke="#191970" points="306.6544,-29.007 303.8891,-18.7795 299.6729,-28.4992 306.6544,-29.007"/>
</g>
<!-- Node7&#45;&gt;Node8 -->
<g id="edge8" class="edge">
<title>Node7&#45;&gt;Node8</title>
<path fill="none" stroke="#191970" d="M313.9395,-55.4179C326.368,-46.9788 345.1037,-34.257 359.7049,-24.3426"/>
<polygon fill="#191970" stroke="#191970" points="361.8617,-27.1088 368.1686,-18.5956 357.9294,-21.3176 361.8617,-27.1088"/>
</g>
</g>
</svg>
