<?xml version="1.0" encoding="UTF-8" standalone="no"?>
<!DOCTYPE svg PUBLIC "-//W3C//DTD SVG 1.1//EN"
 "http://www.w3.org/Graphics/SVG/1.1/DTD/svg11.dtd">
<!-- Generated by graphviz version 2.40.1 (20161225.0304)
 -->
<!-- Title: include/indigox/classes/permutablegraph.hpp Pages: 1 -->
<svg width="358pt" height="92pt"
 viewBox="0.00 0.00 357.58 92.00" xmlns="http://www.w3.org/2000/svg" xmlns:xlink="http://www.w3.org/1999/xlink">
<g id="graph0" class="graph" transform="scale(1 1) rotate(0) translate(4 88)">
<title>include/indigox/classes/permutablegraph.hpp</title>
<polygon fill="#ffffff" stroke="transparent" points="-4,4 -4,-88 353.5835,-88 353.5835,4 -4,4"/>
<!-- Node0 -->
<g id="node1" class="node">
<title>Node0</title>
<g id="a_node1"><a xlink:title=" ">
<polygon fill="#bfbfbf" stroke="#000000" points="152.8276,-55.5 152.8276,-83.5 271.1079,-83.5 271.1079,-55.5 152.8276,-55.5"/>
<text text-anchor="start" x="160.8276" y="-71.5" font-family="Helvetica,sans-Serif" font-size="10.00" fill="#000000">include/indigox/classes</text>
<text text-anchor="middle" x="211.9678" y="-61.5" font-family="Helvetica,sans-Serif" font-size="10.00" fill="#000000">/permutablegraph.hpp</text>
</a>
</g>
</g>
<!-- Node1 -->
<g id="node2" class="node">
<title>Node1</title>
<g id="a_node2"><a xlink:title=" ">
<polygon fill="#ffffff" stroke="#bfbfbf" points="0,-.5 0,-18.5 89.9355,-18.5 89.9355,-.5 0,-.5"/>
<text text-anchor="middle" x="44.9678" y="-6.5" font-family="Helvetica,sans-Serif" font-size="10.00" fill="#000000">../utils/graph.hpp</text>
</a>
</g>
</g>
<!-- Node0&#45;&gt;Node1 -->
<g id="edge1" class="edge">
<title>Node0&#45;&gt;Node1</title>
<path fill="none" stroke="#191970" d="M172.8137,-55.4327C144.6509,-45.3143 107.0068,-31.7895 79.8685,-22.0392"/>
<polygon fill="#191970" stroke="#191970" points="80.977,-18.7185 70.3826,-18.6311 78.6101,-25.3062 80.977,-18.7185"/>
</g>
<!-- Node2 -->
<g id="node3" class="node">
<title>Node2</title>
<g id="a_node3"><a xlink:title=" ">
<polygon fill="#ffffff" stroke="#bfbfbf" points="107.9927,-.5 107.9927,-18.5 217.9429,-18.5 217.9429,-.5 107.9927,-.5"/>
<text text-anchor="middle" x="162.9678" y="-6.5" font-family="Helvetica,sans-Serif" font-size="10.00" fill="#000000">molecular_graph.hpp</text>
</a>
</g>
</g>
<!-- Node0&#45;&gt;Node2 -->
<g id="edge2" class="edge">
<title>Node0&#45;&gt;Node2</title>
<path fill="none" stroke="#191970" d="M200.3555,-55.2808C193.321,-46.6672 184.3049,-35.6271 176.8892,-26.5466"/>
<polygon fill="#191970" stroke="#191970" points="179.4228,-24.1156 170.3865,-18.5842 174.001,-28.5434 179.4228,-24.1156"/>
</g>
<!-- Node3 -->
<g id="node4" class="node">
<title>Node3</title>
<g id="a_node4"><a xlink:title=" ">
<polygon fill="#ffffff" stroke="#bfbfbf" points="235.9111,-.5 235.9111,-18.5 288.0244,-18.5 288.0244,-.5 235.9111,-.5"/>
<text text-anchor="middle" x="261.9678" y="-6.5" font-family="Helvetica,sans-Serif" font-size="10.00" fill="#000000">memory</text>
</a>
</g>
</g>
<!-- Node0&#45;&gt;Node3 -->
<g id="edge3" class="edge">
<title>Node0&#45;&gt;Node3</title>
<path fill="none" stroke="#191970" d="M223.8171,-55.2808C230.9951,-46.6672 240.1952,-35.6271 247.7623,-26.5466"/>
<polygon fill="#191970" stroke="#191970" points="250.6845,-28.5071 254.3976,-18.5842 245.307,-24.0258 250.6845,-28.5071"/>
</g>
<!-- Node4 -->
<g id="node5" class="node">
<title>Node4</title>
<g id="a_node5"><a xlink:title=" ">
<polygon fill="#ffffff" stroke="#bfbfbf" points="306.3521,-.5 306.3521,-18.5 349.5835,-18.5 349.5835,-.5 306.3521,-.5"/>
<text text-anchor="middle" x="327.9678" y="-6.5" font-family="Helvetica,sans-Serif" font-size="10.00" fill="#000000">vector</text>
</a>
</g>
</g>
<!-- Node0&#45;&gt;Node4 -->
<g id="edge4" class="edge">
<title>Node0&#45;&gt;Node4</title>
<path fill="none" stroke="#191970" d="M239.1646,-55.4327C257.8688,-45.7581 282.5938,-32.9693 301.2041,-23.3433"/>
<polygon fill="#191970" stroke="#191970" points="303.0402,-26.3341 310.3144,-18.6311 299.8242,-20.1166 303.0402,-26.3341"/>
</g>
</g>
</svg>
