<?xml version="1.0" encoding="UTF-8" standalone="no"?>
<!DOCTYPE svg PUBLIC "-//W3C//DTD SVG 1.1//EN"
 "http://www.w3.org/Graphics/SVG/1.1/DTD/svg11.dtd">
<!-- Generated by graphviz version 2.40.1 (20161225.0304)
 -->
<!-- Title: include/indigox/classes/permutablegraph.hpp Pages: 1 -->
<!--zoomable 222 -->
<svg id="main" version="1.1" xmlns="http://www.w3.org/2000/svg" xmlns:xlink="http://www.w3.org/1999/xlink" xml:space="preserve" onload="init(evt)">
<style type="text/css"><![CDATA[
.edge:hover path { stroke: red; }
.edge:hover polygon { stroke: red; fill: red; }
]]></style>
<script type="text/javascript"><![CDATA[
var edges = document.getElementsByTagName('g');
if (edges && edges.length) {
  for (var i=0;i<edges.length;i++) {
    if (edges[i].id.substr(0,4)=='edge') {
      edges[i].setAttribute('class','edge');
    }
  }
}
]]></script>
        <defs>
                <circle id="rim" cx="0" cy="0" r="7"/>
                <circle id="rim2" cx="0" cy="0" r="3.5"/>
                <g id="zoomPlus">
                        <use xlink:href="#rim" fill="#404040">
                                <set attributeName="fill" to="#808080" begin="zoomplus.mouseover" end="zoomplus.mouseout"/>
                        </use>
                        <path d="M-4,0h8M0,-4v8" fill="none" stroke="white" stroke-width="1.5" pointer-events="none"/>
                </g>
                <g id="zoomMin">
                        <use xlink:href="#rim" fill="#404040">
                                <set attributeName="fill" to="#808080" begin="zoomminus.mouseover" end="zoomminus.mouseout"/>
                        </use>
                        <path d="M-4,0h8" fill="none" stroke="white" stroke-width="1.5" pointer-events="none"/>
                </g>
                <g id="dirArrow">
                        <path fill="none" stroke="white" stroke-width="1.5" d="M0,-3.0v7 M-2.5,-0.5L0,-3.0L2.5,-0.5"/>
                </g>
               <g id="resetDef">
                       <use xlink:href="#rim2" fill="#404040">
                               <set attributeName="fill" to="#808080" begin="reset.mouseover" end="reset.mouseout"/>
                       </use>
               </g>
        </defs>

<script type="text/javascript">
var viewWidth = 529;
var viewHeight = 222;
var sectionId = 'dynsection-1';
</script>
<script xlink:href="svgpan.js"/>
<svg id="graph" class="graph">
<g id="viewport">
<title>include/indigox/classes/permutablegraph.hpp</title>
<polygon fill="#ffffff" stroke="transparent" points="-4,4 -4,-218 525.1128,-218 525.1128,4 -4,4"/>
<!-- Node5 -->
<g id="node1" class="node">
<title>Node5</title>
<polygon fill="#bfbfbf" stroke="#000000" points="256.0024,-185.5 256.0024,-213.5 374.2827,-213.5 374.2827,-185.5 256.0024,-185.5"/>
<text text-anchor="start" x="264.0024" y="-201.5" font-family="Helvetica,sans-Serif" font-size="10.00" fill="#000000">include/indigox/classes</text>
<text text-anchor="middle" x="315.1426" y="-191.5" font-family="Helvetica,sans-Serif" font-size="10.00" fill="#000000">/permutablegraph.hpp</text>
</g>
<!-- Node6 -->
<g id="node2" class="node">
<title>Node6</title>
<g id="a_node2"><a xlink:href="treedecomp_8hpp.html" target="_top" xlink:title="include/indigox/classes\l/treedecomp.hpp">
<polygon fill="#ffffff" stroke="#000000" points="169.0024,-120.5 169.0024,-148.5 287.2827,-148.5 287.2827,-120.5 169.0024,-120.5"/>
<text text-anchor="start" x="177.0024" y="-136.5" font-family="Helvetica,sans-Serif" font-size="10.00" fill="#000000">include/indigox/classes</text>
<text text-anchor="middle" x="228.1426" y="-126.5" font-family="Helvetica,sans-Serif" font-size="10.00" fill="#000000">/treedecomp.hpp</text>
</a>
</g>
</g>
<!-- Node5&#45;&gt;Node6 -->
<g id="edge1" class="edge">
<title>Node5&#45;&gt;Node6</title>
<path fill="none" stroke="#191970" d="M287.9285,-179.1677C274.6251,-169.2283 258.9465,-157.5144 246.9834,-148.5765"/>
<polygon fill="#191970" stroke="#191970" points="286.159,-182.2145 296.2649,-185.396 290.3487,-176.6068 286.159,-182.2145"/>
</g>
<!-- Node9 -->
<g id="node5" class="node">
<title>Node9</title>
<g id="a_node5"><a xlink:href="permutablegraph_8cpp.html" target="_top" xlink:title="src/classes/permutablegraph.cpp">
<polygon fill="#ffffff" stroke="#000000" points="200.7734,-60.5 200.7734,-78.5 363.5117,-78.5 363.5117,-60.5 200.7734,-60.5"/>
<text text-anchor="middle" x="282.1426" y="-66.5" font-family="Helvetica,sans-Serif" font-size="10.00" fill="#000000">src/classes/permutablegraph.cpp</text>
</a>
</g>
</g>
<!-- Node5&#45;&gt;Node9 -->
<g id="edge7" class="edge">
<title>Node5&#45;&gt;Node9</title>
<path fill="none" stroke="#191970" d="M309.6187,-175.396C305.9416,-159.6048 300.9245,-138.5328 296.1426,-120 292.4148,-105.5524 287.7176,-88.8906 284.823,-78.7808"/>
<polygon fill="#191970" stroke="#191970" points="306.2666,-176.4352 311.931,-185.3887 313.0864,-174.8571 306.2666,-176.4352"/>
</g>
<!-- Node10 -->
<g id="node6" class="node">
<title>Node10</title>
<g id="a_node6"><a xlink:href="treedecomp_8cpp.html" target="_top" xlink:title="src/classes/treedecomp.cpp">
<polygon fill="#ffffff" stroke="#000000" points="381.1724,-60.5 381.1724,-78.5 521.1128,-78.5 521.1128,-60.5 381.1724,-60.5"/>
<text text-anchor="middle" x="451.1426" y="-66.5" font-family="Helvetica,sans-Serif" font-size="10.00" fill="#000000">src/classes/treedecomp.cpp</text>
</a>
</g>
</g>
<!-- Node5&#45;&gt;Node10 -->
<g id="edge8" class="edge">
<title>Node5&#45;&gt;Node10</title>
<path fill="none" stroke="#191970" d="M337.4799,-178.1482C367.6849,-149.2757 420.2352,-99.0438 441.6502,-78.5736"/>
<polygon fill="#191970" stroke="#191970" points="334.7662,-175.9003 329.9559,-185.3402 339.6031,-180.9605 334.7662,-175.9003"/>
</g>
<!-- Node7 -->
<g id="node3" class="node">
<title>Node7</title>
<g id="a_node3"><a xlink:href="nicetreedecomp_8hpp.html" target="_top" xlink:title="include/indigox/classes\l/nicetreedecomp.hpp">
<polygon fill="#ffffff" stroke="#000000" points="64.0024,-55.5 64.0024,-83.5 182.2827,-83.5 182.2827,-55.5 64.0024,-55.5"/>
<text text-anchor="start" x="72.0024" y="-71.5" font-family="Helvetica,sans-Serif" font-size="10.00" fill="#000000">include/indigox/classes</text>
<text text-anchor="middle" x="123.1426" y="-61.5" font-family="Helvetica,sans-Serif" font-size="10.00" fill="#000000">/nicetreedecomp.hpp</text>
</a>
</g>
</g>
<!-- Node6&#45;&gt;Node7 -->
<g id="edge2" class="edge">
<title>Node6&#45;&gt;Node7</title>
<path fill="none" stroke="#191970" d="M196.667,-115.0151C180.3271,-104.8999 160.7322,-92.7698 145.8816,-83.5765"/>
<polygon fill="#191970" stroke="#191970" points="195.0142,-118.1083 205.3591,-120.396 198.6987,-112.1564 195.0142,-118.1083"/>
</g>
<!-- Node8 -->
<g id="node4" class="node">
<title>Node8</title>
<g id="a_node4"><a xlink:href="nicetreedecomp_8cpp.html" target="_top" xlink:title="src/classes/nicetreedecomp.cpp">
<polygon fill="#ffffff" stroke="#000000" points="0,-.5 0,-18.5 158.2852,-18.5 158.2852,-.5 0,-.5"/>
<text text-anchor="middle" x="79.1426" y="-6.5" font-family="Helvetica,sans-Serif" font-size="10.00" fill="#000000">src/classes/nicetreedecomp.cpp</text>
</a>
</g>
</g>
<!-- Node6&#45;&gt;Node8 -->
<g id="edge4" class="edge">
<title>Node6&#45;&gt;Node8</title>
<path fill="none" stroke="#191970" d="M158.6695,-122.9397C116.3247,-114.3179 67.9581,-101.0914 55.1426,-84 39.9799,-63.7785 59.5199,-33.6133 71.3396,-18.6287"/>
<polygon fill="#191970" stroke="#191970" points="158.2274,-126.4199 168.7161,-124.9242 159.5839,-119.5526 158.2274,-126.4199"/>
</g>
<!-- Node6&#45;&gt;Node9 -->
<g id="edge5" class="edge">
<title>Node6&#45;&gt;Node9</title>
<path fill="none" stroke="#191970" d="M246.4897,-112.4155C256.1026,-100.8445 267.3518,-87.3037 274.6039,-78.5743"/>
<polygon fill="#191970" stroke="#191970" points="243.5578,-110.4675 239.8598,-120.396 248.9422,-114.9406 243.5578,-110.4675"/>
</g>
<!-- Node6&#45;&gt;Node10 -->
<g id="edge6" class="edge">
<title>Node6&#45;&gt;Node10</title>
<path fill="none" stroke="#191970" d="M286.0085,-117.6333C328.899,-105.1315 385.6888,-88.5785 420.2603,-78.5016"/>
<polygon fill="#191970" stroke="#191970" points="284.8767,-114.3174 276.2557,-120.476 286.8356,-121.0377 284.8767,-114.3174"/>
</g>
<!-- Node7&#45;&gt;Node8 -->
<g id="edge3" class="edge">
<title>Node7&#45;&gt;Node8</title>
<path fill="none" stroke="#191970" d="M106.6585,-47.0217C99.4191,-37.1498 91.3279,-26.1163 85.8043,-18.5842"/>
<polygon fill="#191970" stroke="#191970" points="103.9791,-49.2866 112.7152,-55.2808 109.6239,-45.147 103.9791,-49.2866"/>
</g>
</g>
</svg>
        <g id="navigator" transform="translate(0 0)" fill="#404254">
                <rect fill="#f2f5e9" fill-opacity="0.5" stroke="#606060" stroke-width=".5" x="0" y="0" width="60" height="60"/>
                <use id="zoomplus" xlink:href="#zoomPlus" x="17" y="9" onmousedown="handleZoom(evt,'in')"/>
                <use id="zoomminus" xlink:href="#zoomMin" x="42" y="9" onmousedown="handleZoom(evt,'out')"/>
                <use id="reset" xlink:href="#resetDef" x="30" y="36" onmousedown="handleReset()"/>
                <g id="arrowUp" xlink:href="#dirArrow" transform="translate(30 24)" onmousedown="handlePan(0,-1)">
                  <use xlink:href="#rim" fill="#404040">
                        <set attributeName="fill" to="#808080" begin="arrowUp.mouseover" end="arrowUp.mouseout"/>
                  </use>
                  <path fill="none" stroke="white" stroke-width="1.5" d="M0,-3.0v7 M-2.5,-0.5L0,-3.0L2.5,-0.5"/>
                </g>
                <g id="arrowRight" xlink:href="#dirArrow" transform="rotate(90) translate(36 -43)" onmousedown="handlePan(1,0)">
                  <use xlink:href="#rim" fill="#404040">
                        <set attributeName="fill" to="#808080" begin="arrowRight.mouseover" end="arrowRight.mouseout"/>
                  </use>
                  <path fill="none" stroke="white" stroke-width="1.5" d="M0,-3.0v7 M-2.5,-0.5L0,-3.0L2.5,-0.5"/>
                </g>
                <g id="arrowDown" xlink:href="#dirArrow" transform="rotate(180) translate(-30 -48)" onmousedown="handlePan(0,1)">
                  <use xlink:href="#rim" fill="#404040">
                        <set attributeName="fill" to="#808080" begin="arrowDown.mouseover" end="arrowDown.mouseout"/>
                  </use>
                  <path fill="none" stroke="white" stroke-width="1.5" d="M0,-3.0v7 M-2.5,-0.5L0,-3.0L2.5,-0.5"/>
                </g>
                <g id="arrowLeft" xlink:href="#dirArrow" transform="rotate(270) translate(-36 17)" onmousedown="handlePan(-1,0)">
                  <use xlink:href="#rim" fill="#404040">
                        <set attributeName="fill" to="#808080" begin="arrowLeft.mouseover" end="arrowLeft.mouseout"/>
                  </use>
                  <path fill="none" stroke="white" stroke-width="1.5" d="M0,-3.0v7 M-2.5,-0.5L0,-3.0L2.5,-0.5"/>
                </g>
        </g>
        <svg viewBox="0 0 15 15" width="100%" height="30px" preserveAspectRatio="xMaxYMin meet">
         <g id="arrow_out" transform="scale(0.3 0.3)">
          <a xlink:href="permutablegraph_8hpp__dep__incl_org.svg" target="_base">
           <rect id="button" ry="5" rx="5" y="6" x="6" height="38" width="38"
                fill="#f2f5e9" fill-opacity="0.5" stroke="#606060" stroke-width="1.0"/>
           <path id="arrow"
             d="M 11.500037,31.436501 C 11.940474,20.09759 22.043105,11.32322 32.158766,21.979434 L 37.068811,17.246167 C 37.068811,17.246167 37.088388,32 37.088388,32 L 22.160133,31.978069 C 22.160133,31.978069 26.997745,27.140456 26.997745,27.140456 C 18.528582,18.264221 13.291696,25.230495 11.500037,31.436501 z"
             style="fill:#404040;"/>
          </a>
         </g>
        </svg>
</svg>
