<?xml version="1.0" encoding="UTF-8" standalone="no"?>
<!DOCTYPE svg PUBLIC "-//W3C//DTD SVG 1.1//EN"
 "http://www.w3.org/Graphics/SVG/1.1/DTD/svg11.dtd">
<!-- Generated by graphviz version 2.40.1 (20161225.0304)
 -->
<!-- Title: src/classes/permutablegraph.cpp Pages: 1 -->
<!--zoomable 202 -->
<svg id="main" version="1.1" xmlns="http://www.w3.org/2000/svg" xmlns:xlink="http://www.w3.org/1999/xlink" xml:space="preserve" onload="init(evt)">
<style type="text/css"><![CDATA[
.edge:hover path { stroke: red; }
.edge:hover polygon { stroke: red; fill: red; }
]]></style>
<script type="text/javascript"><![CDATA[
var edges = document.getElementsByTagName('g');
if (edges && edges.length) {
  for (var i=0;i<edges.length;i++) {
    if (edges[i].id.substr(0,4)=='edge') {
      edges[i].setAttribute('class','edge');
    }
  }
}
]]></script>
        <defs>
                <circle id="rim" cx="0" cy="0" r="7"/>
                <circle id="rim2" cx="0" cy="0" r="3.5"/>
                <g id="zoomPlus">
                        <use xlink:href="#rim" fill="#404040">
                                <set attributeName="fill" to="#808080" begin="zoomplus.mouseover" end="zoomplus.mouseout"/>
                        </use>
                        <path d="M-4,0h8M0,-4v8" fill="none" stroke="white" stroke-width="1.5" pointer-events="none"/>
                </g>
                <g id="zoomMin">
                        <use xlink:href="#rim" fill="#404040">
                                <set attributeName="fill" to="#808080" begin="zoomminus.mouseover" end="zoomminus.mouseout"/>
                        </use>
                        <path d="M-4,0h8" fill="none" stroke="white" stroke-width="1.5" pointer-events="none"/>
                </g>
                <g id="dirArrow">
                        <path fill="none" stroke="white" stroke-width="1.5" d="M0,-3.0v7 M-2.5,-0.5L0,-3.0L2.5,-0.5"/>
                </g>
               <g id="resetDef">
                       <use xlink:href="#rim2" fill="#404040">
                               <set attributeName="fill" to="#808080" begin="reset.mouseover" end="reset.mouseout"/>
                       </use>
               </g>
        </defs>

<script type="text/javascript">
var viewWidth = 800;
var viewHeight = 202;
var sectionId = 'dynsection-0';
</script>
<script xlink:href="svgpan.js"/>
<svg id="graph" class="graph">
<g id="viewport">
<title>src/classes/permutablegraph.cpp</title>
<polygon fill="#ffffff" stroke="transparent" points="-4,4 -4,-198 795.7559,-198 795.7559,4 -4,4"/>
<!-- Node0 -->
<g id="node1" class="node">
<title>Node0</title>
<polygon fill="#bfbfbf" stroke="#000000" points="356.606,-175.5 356.606,-193.5 519.3442,-193.5 519.3442,-175.5 356.606,-175.5"/>
<text text-anchor="middle" x="437.9751" y="-181.5" font-family="Helvetica,sans-Serif" font-size="10.00" fill="#000000">src/classes/permutablegraph.cpp</text>
</g>
<!-- Node1 -->
<g id="node2" class="node">
<title>Node1</title>
<g id="a_node2"><a xlink:href="permutablegraph_8hpp.html" target="_top" xlink:title="indigox/classes/permutablegraph.hpp">
<polygon fill="#ffffff" stroke="#000000" points="63.1455,-55.5 63.1455,-73.5 244.8047,-73.5 244.8047,-55.5 63.1455,-55.5"/>
<text text-anchor="middle" x="153.9751" y="-61.5" font-family="Helvetica,sans-Serif" font-size="10.00" fill="#000000">indigox/classes/permutablegraph.hpp</text>
</a>
</g>
</g>
<!-- Node0&#45;&gt;Node1 -->
<g id="edge1" class="edge">
<title>Node0&#45;&gt;Node1</title>
<path fill="none" stroke="#191970" d="M356.501,-179.2632C260.5483,-172.2491 111.9718,-158.4003 94.9751,-139 77.3327,-118.8627 105.7614,-94.3211 128.944,-79.0495"/>
<polygon fill="#191970" stroke="#191970" points="130.8714,-81.9719 137.465,-73.6789 127.1389,-76.05 130.8714,-81.9719"/>
</g>
<!-- Node6 -->
<g id="node7" class="node">
<title>Node6</title>
<polygon fill="#ffffff" stroke="#bfbfbf" points="104.0049,-110.5 104.0049,-138.5 233.9453,-138.5 233.9453,-110.5 104.0049,-110.5"/>
<text text-anchor="start" x="112.0049" y="-126.5" font-family="Helvetica,sans-Serif" font-size="10.00" fill="#000000">indigox/classes/molecular</text>
<text text-anchor="middle" x="168.9751" y="-116.5" font-family="Helvetica,sans-Serif" font-size="10.00" fill="#000000">_graph.hpp</text>
</g>
<!-- Node0&#45;&gt;Node6 -->
<g id="edge6" class="edge">
<title>Node0&#45;&gt;Node6</title>
<path fill="none" stroke="#191970" d="M397.4118,-175.4524C356.2696,-166.2757 291.7052,-151.8748 241.6973,-140.7206"/>
<polygon fill="#191970" stroke="#191970" points="242.4232,-137.2965 231.901,-138.5355 240.8992,-144.1286 242.4232,-137.2965"/>
</g>
<!-- Node7 -->
<g id="node8" class="node">
<title>Node7</title>
<g id="a_node8"><a xlink:href="treedecomp_8hpp.html" target="_top" xlink:title="indigox/classes/treedecomp.hpp">
<polygon fill="#ffffff" stroke="#000000" points="251.5444,-115.5 251.5444,-133.5 410.4058,-133.5 410.4058,-115.5 251.5444,-115.5"/>
<text text-anchor="middle" x="330.9751" y="-121.5" font-family="Helvetica,sans-Serif" font-size="10.00" fill="#000000">indigox/classes/treedecomp.hpp</text>
</a>
</g>
</g>
<!-- Node0&#45;&gt;Node7 -->
<g id="edge7" class="edge">
<title>Node0&#45;&gt;Node7</title>
<path fill="none" stroke="#191970" d="M421.7241,-175.3873C404.2616,-165.5952 376.2881,-149.9092 356.011,-138.5388"/>
<polygon fill="#191970" stroke="#191970" points="357.4626,-135.3401 347.0284,-133.5019 354.0389,-141.4457 357.4626,-135.3401"/>
</g>
<!-- Node8 -->
<g id="node9" class="node">
<title>Node8</title>
<polygon fill="#ffffff" stroke="#bfbfbf" points="413.2485,-55.5 413.2485,-73.5 448.7017,-73.5 448.7017,-55.5 413.2485,-55.5"/>
<text text-anchor="middle" x="430.9751" y="-61.5" font-family="Helvetica,sans-Serif" font-size="10.00" fill="#000000">map</text>
</g>
<!-- Node0&#45;&gt;Node8 -->
<g id="edge15" class="edge">
<title>Node0&#45;&gt;Node8</title>
<path fill="none" stroke="#191970" d="M437.449,-175.4805C436.3189,-156.1085 433.6383,-110.155 432.1043,-83.8576"/>
<polygon fill="#191970" stroke="#191970" points="435.5838,-83.4033 431.5073,-73.6242 428.5957,-83.811 435.5838,-83.4033"/>
</g>
<!-- Node11 -->
<g id="node12" class="node">
<title>Node11</title>
<polygon fill="#ffffff" stroke="#bfbfbf" points="465.9409,-115.5 465.9409,-133.5 582.0093,-133.5 582.0093,-115.5 465.9409,-115.5"/>
<text text-anchor="middle" x="523.9751" y="-121.5" font-family="Helvetica,sans-Serif" font-size="10.00" fill="#000000">indigox/utils/graph.hpp</text>
</g>
<!-- Node0&#45;&gt;Node11 -->
<g id="edge13" class="edge">
<title>Node0&#45;&gt;Node11</title>
<path fill="none" stroke="#191970" d="M451.0366,-175.3873C464.7544,-165.8168 486.5422,-150.6159 502.7373,-139.3171"/>
<polygon fill="#191970" stroke="#191970" points="504.8738,-142.0942 511.0724,-133.5019 500.8685,-136.3533 504.8738,-142.0942"/>
</g>
<!-- Node12 -->
<g id="node13" class="node">
<title>Node12</title>
<polygon fill="#ffffff" stroke="#bfbfbf" points="599.606,-115.5 599.606,-133.5 722.3442,-133.5 722.3442,-115.5 599.606,-115.5"/>
<text text-anchor="middle" x="660.9751" y="-121.5" font-family="Helvetica,sans-Serif" font-size="10.00" fill="#000000">indigox/utils/options.hpp</text>
</g>
<!-- Node0&#45;&gt;Node12 -->
<g id="edge14" class="edge">
<title>Node0&#45;&gt;Node12</title>
<path fill="none" stroke="#191970" d="M471.844,-175.3873C510.8727,-164.8863 575.094,-147.607 617.7095,-136.141"/>
<polygon fill="#191970" stroke="#191970" points="618.7709,-139.4799 627.5181,-133.5019 616.9522,-132.7203 618.7709,-139.4799"/>
</g>
<!-- Node13 -->
<g id="node14" class="node">
<title>Node13</title>
<polygon fill="#ffffff" stroke="#bfbfbf" points="740.1943,-115.5 740.1943,-133.5 791.7559,-133.5 791.7559,-115.5 740.1943,-115.5"/>
<text text-anchor="middle" x="765.9751" y="-121.5" font-family="Helvetica,sans-Serif" font-size="10.00" fill="#000000">sstream</text>
</g>
<!-- Node0&#45;&gt;Node13 -->
<g id="edge16" class="edge">
<title>Node0&#45;&gt;Node13</title>
<path fill="none" stroke="#191970" d="M519.6085,-177.1042C579.011,-170.453 660.9636,-158.6335 730.9751,-139 732.875,-138.4672 734.8102,-137.8602 736.7464,-137.2036"/>
<polygon fill="#191970" stroke="#191970" points="738.1469,-140.4164 746.2767,-133.6224 735.6846,-133.8637 738.1469,-140.4164"/>
</g>
<!-- Node2 -->
<g id="node3" class="node">
<title>Node2</title>
<polygon fill="#ffffff" stroke="#bfbfbf" points="273.0073,-.5 273.0073,-18.5 362.9429,-18.5 362.9429,-.5 273.0073,-.5"/>
<text text-anchor="middle" x="317.9751" y="-6.5" font-family="Helvetica,sans-Serif" font-size="10.00" fill="#000000">../utils/graph.hpp</text>
</g>
<!-- Node1&#45;&gt;Node2 -->
<g id="edge2" class="edge">
<title>Node1&#45;&gt;Node2</title>
<path fill="none" stroke="#191970" d="M181.0564,-55.4179C208.4385,-46.2348 250.9416,-31.9807 281.3259,-21.7909"/>
<polygon fill="#191970" stroke="#191970" points="282.758,-25.0023 291.1262,-18.5042 280.5323,-18.3655 282.758,-25.0023"/>
</g>
<!-- Node3 -->
<g id="node4" class="node">
<title>Node3</title>
<polygon fill="#ffffff" stroke="#bfbfbf" points="0,-.5 0,-18.5 109.9502,-18.5 109.9502,-.5 0,-.5"/>
<text text-anchor="middle" x="54.9751" y="-6.5" font-family="Helvetica,sans-Serif" font-size="10.00" fill="#000000">molecular_graph.hpp</text>
</g>
<!-- Node1&#45;&gt;Node3 -->
<g id="edge3" class="edge">
<title>Node1&#45;&gt;Node3</title>
<path fill="none" stroke="#191970" d="M137.6273,-55.4179C122.007,-46.7399 98.2353,-33.5334 80.1889,-23.5077"/>
<polygon fill="#191970" stroke="#191970" points="81.7886,-20.3925 71.3472,-18.5956 78.389,-26.5117 81.7886,-20.3925"/>
</g>
<!-- Node4 -->
<g id="node5" class="node">
<title>Node4</title>
<polygon fill="#ffffff" stroke="#bfbfbf" points="127.9185,-.5 127.9185,-18.5 180.0317,-18.5 180.0317,-.5 127.9185,-.5"/>
<text text-anchor="middle" x="153.9751" y="-6.5" font-family="Helvetica,sans-Serif" font-size="10.00" fill="#000000">memory</text>
</g>
<!-- Node1&#45;&gt;Node4 -->
<g id="edge4" class="edge">
<title>Node1&#45;&gt;Node4</title>
<path fill="none" stroke="#191970" d="M153.9751,-55.4179C153.9751,-48.2164 153.9751,-37.8962 153.9751,-28.8632"/>
<polygon fill="#191970" stroke="#191970" points="157.4752,-28.7794 153.9751,-18.7795 150.4752,-28.7795 157.4752,-28.7794"/>
</g>
<!-- Node5 -->
<g id="node6" class="node">
<title>Node5</title>
<polygon fill="#ffffff" stroke="#bfbfbf" points="198.3594,-.5 198.3594,-18.5 241.5908,-18.5 241.5908,-.5 198.3594,-.5"/>
<text text-anchor="middle" x="219.9751" y="-6.5" font-family="Helvetica,sans-Serif" font-size="10.00" fill="#000000">vector</text>
</g>
<!-- Node1&#45;&gt;Node5 -->
<g id="edge5" class="edge">
<title>Node1&#45;&gt;Node5</title>
<path fill="none" stroke="#191970" d="M164.8737,-55.4179C174.655,-47.2667 189.2309,-35.1201 200.9348,-25.3669"/>
<polygon fill="#191970" stroke="#191970" points="203.3982,-27.8701 208.8397,-18.7795 198.9169,-22.4926 203.3982,-27.8701"/>
</g>
<!-- Node7&#45;&gt;Node1 -->
<g id="edge9" class="edge">
<title>Node7&#45;&gt;Node1</title>
<path fill="none" stroke="#191970" d="M304.0926,-115.3873C273.6375,-105.0635 223.8557,-88.1883 190.0431,-76.7264"/>
<polygon fill="#191970" stroke="#191970" points="191.125,-73.3976 180.5306,-73.5019 188.8776,-80.0271 191.125,-73.3976"/>
</g>
<!-- Node7&#45;&gt;Node2 -->
<g id="edge8" class="edge">
<title>Node7&#45;&gt;Node2</title>
<path fill="none" stroke="#191970" d="M329.955,-115.4761C327.858,-96.9256 323.0216,-54.142 320.1766,-28.9748"/>
<polygon fill="#191970" stroke="#191970" points="323.6278,-28.3449 319.0266,-18.8014 316.6721,-29.1313 323.6278,-28.3449"/>
</g>
<!-- Node7&#45;&gt;Node8 -->
<g id="edge10" class="edge">
<title>Node7&#45;&gt;Node8</title>
<path fill="none" stroke="#191970" d="M346.1629,-115.3873C362.4092,-105.6395 388.3901,-90.051 407.3194,-78.6934"/>
<polygon fill="#191970" stroke="#191970" points="409.1978,-81.6481 415.972,-73.5019 405.5963,-75.6456 409.1978,-81.6481"/>
</g>
<!-- Node9 -->
<g id="node10" class="node">
<title>Node9</title>
<polygon fill="#ffffff" stroke="#bfbfbf" points="359.3052,-55.5 359.3052,-73.5 388.645,-73.5 388.645,-55.5 359.3052,-55.5"/>
<text text-anchor="middle" x="373.9751" y="-61.5" font-family="Helvetica,sans-Serif" font-size="10.00" fill="#000000">set</text>
</g>
<!-- Node7&#45;&gt;Node9 -->
<g id="edge11" class="edge">
<title>Node7&#45;&gt;Node9</title>
<path fill="none" stroke="#191970" d="M337.5059,-115.3873C343.82,-106.5769 353.5536,-92.9951 361.3772,-82.0784"/>
<polygon fill="#191970" stroke="#191970" points="364.4025,-83.8655 367.3829,-73.6985 358.7128,-79.7878 364.4025,-83.8655"/>
</g>
<!-- Node10 -->
<g id="node11" class="node">
<title>Node10</title>
<polygon fill="#ffffff" stroke="#bfbfbf" points="262.7485,-55.5 262.7485,-73.5 303.2017,-73.5 303.2017,-55.5 262.7485,-55.5"/>
<text text-anchor="middle" x="282.9751" y="-61.5" font-family="Helvetica,sans-Serif" font-size="10.00" fill="#000000">string</text>
</g>
<!-- Node7&#45;&gt;Node10 -->
<g id="edge12" class="edge">
<title>Node7&#45;&gt;Node10</title>
<path fill="none" stroke="#191970" d="M323.6849,-115.3873C316.5661,-106.4888 305.5535,-92.723 296.7765,-81.7517"/>
<polygon fill="#191970" stroke="#191970" points="299.3139,-79.3207 290.3339,-73.6985 293.8478,-83.6936 299.3139,-79.3207"/>
</g>
</g>
</svg>
        <g id="navigator" transform="translate(0 0)" fill="#404254">
                <rect fill="#f2f5e9" fill-opacity="0.5" stroke="#606060" stroke-width=".5" x="0" y="0" width="60" height="60"/>
                <use id="zoomplus" xlink:href="#zoomPlus" x="17" y="9" onmousedown="handleZoom(evt,'in')"/>
                <use id="zoomminus" xlink:href="#zoomMin" x="42" y="9" onmousedown="handleZoom(evt,'out')"/>
                <use id="reset" xlink:href="#resetDef" x="30" y="36" onmousedown="handleReset()"/>
                <g id="arrowUp" xlink:href="#dirArrow" transform="translate(30 24)" onmousedown="handlePan(0,-1)">
                  <use xlink:href="#rim" fill="#404040">
                        <set attributeName="fill" to="#808080" begin="arrowUp.mouseover" end="arrowUp.mouseout"/>
                  </use>
                  <path fill="none" stroke="white" stroke-width="1.5" d="M0,-3.0v7 M-2.5,-0.5L0,-3.0L2.5,-0.5"/>
                </g>
                <g id="arrowRight" xlink:href="#dirArrow" transform="rotate(90) translate(36 -43)" onmousedown="handlePan(1,0)">
                  <use xlink:href="#rim" fill="#404040">
                        <set attributeName="fill" to="#808080" begin="arrowRight.mouseover" end="arrowRight.mouseout"/>
                  </use>
                  <path fill="none" stroke="white" stroke-width="1.5" d="M0,-3.0v7 M-2.5,-0.5L0,-3.0L2.5,-0.5"/>
                </g>
                <g id="arrowDown" xlink:href="#dirArrow" transform="rotate(180) translate(-30 -48)" onmousedown="handlePan(0,1)">
                  <use xlink:href="#rim" fill="#404040">
                        <set attributeName="fill" to="#808080" begin="arrowDown.mouseover" end="arrowDown.mouseout"/>
                  </use>
                  <path fill="none" stroke="white" stroke-width="1.5" d="M0,-3.0v7 M-2.5,-0.5L0,-3.0L2.5,-0.5"/>
                </g>
                <g id="arrowLeft" xlink:href="#dirArrow" transform="rotate(270) translate(-36 17)" onmousedown="handlePan(-1,0)">
                  <use xlink:href="#rim" fill="#404040">
                        <set attributeName="fill" to="#808080" begin="arrowLeft.mouseover" end="arrowLeft.mouseout"/>
                  </use>
                  <path fill="none" stroke="white" stroke-width="1.5" d="M0,-3.0v7 M-2.5,-0.5L0,-3.0L2.5,-0.5"/>
                </g>
        </g>
        <svg viewBox="0 0 15 15" width="100%" height="30px" preserveAspectRatio="xMaxYMin meet">
         <g id="arrow_out" transform="scale(0.3 0.3)">
          <a xlink:href="permutablegraph_8cpp__incl_org.svg" target="_base">
           <rect id="button" ry="5" rx="5" y="6" x="6" height="38" width="38"
                fill="#f2f5e9" fill-opacity="0.5" stroke="#606060" stroke-width="1.0"/>
           <path id="arrow"
             d="M 11.500037,31.436501 C 11.940474,20.09759 22.043105,11.32322 32.158766,21.979434 L 37.068811,17.246167 C 37.068811,17.246167 37.088388,32 37.088388,32 L 22.160133,31.978069 C 22.160133,31.978069 26.997745,27.140456 26.997745,27.140456 C 18.528582,18.264221 13.291696,25.230495 11.500037,31.436501 z"
             style="fill:#404040;"/>
          </a>
         </g>
        </svg>
</svg>
