<?xml version="1.0" encoding="UTF-8" standalone="no"?>
<!DOCTYPE svg PUBLIC "-//W3C//DTD SVG 1.1//EN"
 "http://www.w3.org/Graphics/SVG/1.1/DTD/svg11.dtd">
<!-- Generated by graphviz version 2.40.1 (20161225.0304)
 -->
<!-- Title: include/indigox/classes/permutablegraph.hpp Pages: 1 -->
<svg width="126pt" height="167pt"
 viewBox="0.00 0.00 126.28 167.00" xmlns="http://www.w3.org/2000/svg" xmlns:xlink="http://www.w3.org/1999/xlink">
<g id="graph0" class="graph" transform="scale(1 1) rotate(0) translate(4 163)">
<title>include/indigox/classes/permutablegraph.hpp</title>
<polygon fill="#ffffff" stroke="transparent" points="-4,4 -4,-163 122.2803,-163 122.2803,4 -4,4"/>
<!-- Node5 -->
<g id="node1" class="node">
<title>Node5</title>
<g id="a_node1"><a xlink:title=" ">
<polygon fill="#bfbfbf" stroke="#000000" points="0,-130.5 0,-158.5 118.2803,-158.5 118.2803,-130.5 0,-130.5"/>
<text text-anchor="start" x="8" y="-146.5" font-family="Helvetica,sans-Serif" font-size="10.00" fill="#000000">include/indigox/classes</text>
<text text-anchor="middle" x="59.1401" y="-136.5" font-family="Helvetica,sans-Serif" font-size="10.00" fill="#000000">/permutablegraph.hpp</text>
</a>
</g>
</g>
<!-- Node6 -->
<g id="node2" class="node">
<title>Node6</title>
<g id="a_node2"><a xlink:href="treedecomp_8hpp.html" target="_top" xlink:title=" ">
<polygon fill="#ffffff" stroke="#000000" points="0,-65.5 0,-93.5 118.2803,-93.5 118.2803,-65.5 0,-65.5"/>
<text text-anchor="start" x="8" y="-81.5" font-family="Helvetica,sans-Serif" font-size="10.00" fill="#000000">include/indigox/classes</text>
<text text-anchor="middle" x="59.1401" y="-71.5" font-family="Helvetica,sans-Serif" font-size="10.00" fill="#000000">/treedecomp.hpp</text>
</a>
</g>
</g>
<!-- Node5&#45;&gt;Node6 -->
<g id="edge1" class="edge">
<title>Node5&#45;&gt;Node6</title>
<path fill="none" stroke="#191970" d="M59.1401,-120.1081C59.1401,-111.1539 59.1401,-101.3227 59.1401,-93.5765"/>
<polygon fill="#191970" stroke="#191970" points="55.6402,-120.3959 59.1401,-130.396 62.6402,-120.396 55.6402,-120.3959"/>
</g>
<!-- Node7 -->
<g id="node3" class="node">
<title>Node7</title>
<g id="a_node3"><a xlink:href="nicetreedecomp_8hpp.html" target="_top" xlink:title=" ">
<polygon fill="#ffffff" stroke="#000000" points="0,-.5 0,-28.5 118.2803,-28.5 118.2803,-.5 0,-.5"/>
<text text-anchor="start" x="8" y="-16.5" font-family="Helvetica,sans-Serif" font-size="10.00" fill="#000000">include/indigox/classes</text>
<text text-anchor="middle" x="59.1401" y="-6.5" font-family="Helvetica,sans-Serif" font-size="10.00" fill="#000000">/nicetreedecomp.hpp</text>
</a>
</g>
</g>
<!-- Node6&#45;&gt;Node7 -->
<g id="edge2" class="edge">
<title>Node6&#45;&gt;Node7</title>
<path fill="none" stroke="#191970" d="M59.1401,-55.1081C59.1401,-46.1539 59.1401,-36.3227 59.1401,-28.5765"/>
<polygon fill="#191970" stroke="#191970" points="55.6402,-55.3959 59.1401,-65.396 62.6402,-55.396 55.6402,-55.3959"/>
</g>
</g>
</svg>
