<?xml version="1.0" encoding="UTF-8" standalone="no"?>
<!DOCTYPE svg PUBLIC "-//W3C//DTD SVG 1.1//EN"
 "http://www.w3.org/Graphics/SVG/1.1/DTD/svg11.dtd">
<!-- Generated by graphviz version 2.40.1 (20161225.0304)
 -->
<!-- Title: include/indigox/python/pickle.hpp Pages: 1 -->
<svg width="1039pt" height="202pt"
 viewBox="0.00 0.00 1038.86 202.00" xmlns="http://www.w3.org/2000/svg" xmlns:xlink="http://www.w3.org/1999/xlink">
<g id="graph0" class="graph" transform="scale(1 1) rotate(0) translate(4 198)">
<title>include/indigox/python/pickle.hpp</title>
<polygon fill="#ffffff" stroke="transparent" points="-4,4 -4,-198 1034.8643,-198 1034.8643,4 -4,4"/>
<!-- Node0 -->
<g id="node1" class="node">
<title>Node0</title>
<polygon fill="#bfbfbf" stroke="#000000" points="502.8228,-165.5 502.8228,-193.5 617.7827,-193.5 617.7827,-165.5 502.8228,-165.5"/>
<text text-anchor="start" x="510.8228" y="-181.5" font-family="Helvetica,sans-Serif" font-size="10.00" fill="#000000">include/indigox/python</text>
<text text-anchor="middle" x="560.3027" y="-171.5" font-family="Helvetica,sans-Serif" font-size="10.00" fill="#000000">/pickle.hpp</text>
</g>
<!-- Node1 -->
<g id="node2" class="node">
<title>Node1</title>
<g id="a_node2"><a xlink:href="atom_8hpp.html" target="_top" xlink:title="indigox/classes/atom.hpp">
<polygon fill="#ffffff" stroke="#000000" points="350.1602,-110.5 350.1602,-128.5 478.4453,-128.5 478.4453,-110.5 350.1602,-110.5"/>
<text text-anchor="middle" x="414.3027" y="-116.5" font-family="Helvetica,sans-Serif" font-size="10.00" fill="#000000">indigox/classes/atom.hpp</text>
</a>
</g>
</g>
<!-- Node0&#45;&gt;Node1 -->
<g id="edge1" class="edge">
<title>Node0&#45;&gt;Node1</title>
<path fill="none" stroke="#191970" d="M526.0722,-165.4327C501.8828,-155.4918 469.6926,-142.263 446.0719,-132.5558"/>
<polygon fill="#191970" stroke="#191970" points="447.1015,-129.195 436.5216,-128.6311 444.4406,-135.6695 447.1015,-129.195"/>
</g>
<!-- Node7 -->
<g id="node8" class="node">
<title>Node7</title>
<g id="a_node8"><a xlink:href="bond_8hpp.html" target="_top" xlink:title="indigox/classes/bond.hpp">
<polygon fill="#ffffff" stroke="#000000" points="496.1528,-110.5 496.1528,-128.5 624.4526,-128.5 624.4526,-110.5 496.1528,-110.5"/>
<text text-anchor="middle" x="560.3027" y="-116.5" font-family="Helvetica,sans-Serif" font-size="10.00" fill="#000000">indigox/classes/bond.hpp</text>
</a>
</g>
</g>
<!-- Node0&#45;&gt;Node7 -->
<g id="edge8" class="edge">
<title>Node0&#45;&gt;Node7</title>
<path fill="none" stroke="#191970" d="M560.3027,-165.2808C560.3027,-157.3776 560.3027,-147.4316 560.3027,-138.8308"/>
<polygon fill="#191970" stroke="#191970" points="563.8028,-138.5842 560.3027,-128.5842 556.8028,-138.5842 563.8028,-138.5842"/>
</g>
<!-- Node9 -->
<g id="node10" class="node">
<title>Node9</title>
<g id="a_node10"><a xlink:href="molecule_8hpp.html" target="_top" xlink:title="indigox/classes/molecule.hpp">
<polygon fill="#ffffff" stroke="#000000" points="145.2661,-110.5 145.2661,-128.5 291.3394,-128.5 291.3394,-110.5 145.2661,-110.5"/>
<text text-anchor="middle" x="218.3027" y="-116.5" font-family="Helvetica,sans-Serif" font-size="10.00" fill="#000000">indigox/classes/molecule.hpp</text>
</a>
</g>
</g>
<!-- Node0&#45;&gt;Node9 -->
<g id="edge12" class="edge">
<title>Node0&#45;&gt;Node9</title>
<path fill="none" stroke="#191970" d="M502.6738,-169.3897C440.9118,-158.5542 343.2378,-141.4184 279.9641,-130.3178"/>
<polygon fill="#191970" stroke="#191970" points="280.1832,-126.8028 269.7288,-128.5221 278.9735,-133.6975 280.1832,-126.8028"/>
</g>
<!-- Node13 -->
<g id="node14" class="node">
<title>Node13</title>
<g id="a_node14"><a xlink:href="periodictable_8hpp.html" target="_top" xlink:title="indigox/classes/periodictable.hpp">
<polygon fill="#ffffff" stroke="#000000" points="642.9238,-110.5 642.9238,-128.5 805.6816,-128.5 805.6816,-110.5 642.9238,-110.5"/>
<text text-anchor="middle" x="724.3027" y="-116.5" font-family="Helvetica,sans-Serif" font-size="10.00" fill="#000000">indigox/classes/periodictable.hpp</text>
</a>
</g>
</g>
<!-- Node0&#45;&gt;Node13 -->
<g id="edge19" class="edge">
<title>Node0&#45;&gt;Node13</title>
<path fill="none" stroke="#191970" d="M598.7534,-165.4327C626.289,-155.3587 663.0541,-141.908 689.6777,-132.1677"/>
<polygon fill="#191970" stroke="#191970" points="691.1558,-135.3539 699.3445,-128.6311 688.7507,-128.78 691.1558,-135.3539"/>
</g>
<!-- Node21 -->
<g id="node22" class="node">
<title>Node21</title>
<polygon fill="#ffffff" stroke="#bfbfbf" points="823.8901,-110.5 823.8901,-128.5 930.7153,-128.5 930.7153,-110.5 823.8901,-110.5"/>
<text text-anchor="middle" x="877.3027" y="-116.5" font-family="Helvetica,sans-Serif" font-size="10.00" fill="#000000">pybind11/pybind11.h</text>
</g>
<!-- Node0&#45;&gt;Node21 -->
<g id="edge31" class="edge">
<title>Node0&#45;&gt;Node21</title>
<path fill="none" stroke="#191970" d="M618.0768,-168.5648C675.3554,-157.7235 762.6001,-141.2103 819.788,-130.3861"/>
<polygon fill="#191970" stroke="#191970" points="820.5763,-133.7991 829.7509,-128.5004 819.2744,-126.9212 820.5763,-133.7991"/>
</g>
<!-- Node2 -->
<g id="node3" class="node">
<title>Node2</title>
<g id="a_node3"><a xlink:href="fwd__declares_8hpp.html" target="_top" xlink:title="../utils/fwd_declares.hpp">
<polygon fill="#ffffff" stroke="#000000" points="405.6626,-55.5 405.6626,-73.5 528.9429,-73.5 528.9429,-55.5 405.6626,-55.5"/>
<text text-anchor="middle" x="467.3027" y="-61.5" font-family="Helvetica,sans-Serif" font-size="10.00" fill="#000000">../utils/fwd_declares.hpp</text>
</a>
</g>
</g>
<!-- Node1&#45;&gt;Node2 -->
<g id="edge2" class="edge">
<title>Node1&#45;&gt;Node2</title>
<path fill="none" stroke="#191970" d="M423.0546,-110.4179C430.6806,-102.5041 441.9357,-90.8243 451.1858,-81.2251"/>
<polygon fill="#191970" stroke="#191970" points="453.942,-83.4089 458.3607,-73.7795 448.9015,-78.5516 453.942,-83.4089"/>
</g>
<!-- Node4 -->
<g id="node5" class="node">
<title>Node4</title>
<polygon fill="#ffffff" stroke="#bfbfbf" points="550.2461,-.5 550.2461,-18.5 602.3594,-18.5 602.3594,-.5 550.2461,-.5"/>
<text text-anchor="middle" x="576.3027" y="-6.5" font-family="Helvetica,sans-Serif" font-size="10.00" fill="#000000">memory</text>
</g>
<!-- Node1&#45;&gt;Node4 -->
<g id="edge6" class="edge">
<title>Node1&#45;&gt;Node4</title>
<path fill="none" stroke="#191970" d="M460.8878,-110.4516C485.9672,-103.7253 516.1998,-92.4304 538.3027,-74 552.9216,-61.8102 563.2506,-42.4581 569.4137,-28.128"/>
<polygon fill="#191970" stroke="#191970" points="572.6986,-29.3397 573.1668,-18.7552 566.2002,-26.7375 572.6986,-29.3397"/>
</g>
<!-- Node5 -->
<g id="node6" class="node">
<title>Node5</title>
<polygon fill="#ffffff" stroke="#bfbfbf" points="314.6724,-55.5 314.6724,-73.5 387.9331,-73.5 387.9331,-55.5 314.6724,-55.5"/>
<text text-anchor="middle" x="351.3027" y="-61.5" font-family="Helvetica,sans-Serif" font-size="10.00" fill="#000000">Eigen/Dense</text>
</g>
<!-- Node1&#45;&gt;Node5 -->
<g id="edge5" class="edge">
<title>Node1&#45;&gt;Node5</title>
<path fill="none" stroke="#191970" d="M403.8996,-110.4179C394.5628,-102.2667 380.6494,-90.1201 369.4776,-80.3669"/>
<polygon fill="#191970" stroke="#191970" points="371.7669,-77.7194 361.9319,-73.7795 367.1633,-82.9927 371.7669,-77.7194"/>
</g>
<!-- Node6 -->
<g id="node7" class="node">
<title>Node6</title>
<polygon fill="#ffffff" stroke="#bfbfbf" points="253.687,-55.5 253.687,-73.5 296.9185,-73.5 296.9185,-55.5 253.687,-55.5"/>
<text text-anchor="middle" x="275.3027" y="-61.5" font-family="Helvetica,sans-Serif" font-size="10.00" fill="#000000">vector</text>
</g>
<!-- Node1&#45;&gt;Node6 -->
<g id="edge7" class="edge">
<title>Node1&#45;&gt;Node6</title>
<path fill="none" stroke="#191970" d="M391.3497,-110.4179C368.2392,-101.2734 332.4204,-87.1005 306.6906,-76.9197"/>
<polygon fill="#191970" stroke="#191970" points="307.9572,-73.6569 297.3709,-73.232 305.3817,-80.1658 307.9572,-73.6569"/>
</g>
<!-- Node3 -->
<g id="node4" class="node">
<title>Node3</title>
<polygon fill="#ffffff" stroke="#bfbfbf" points="444.8521,-.5 444.8521,-18.5 489.7534,-18.5 489.7534,-.5 444.8521,-.5"/>
<text text-anchor="middle" x="467.3027" y="-6.5" font-family="Helvetica,sans-Serif" font-size="10.00" fill="#000000">cstdint</text>
</g>
<!-- Node2&#45;&gt;Node3 -->
<g id="edge3" class="edge">
<title>Node2&#45;&gt;Node3</title>
<path fill="none" stroke="#191970" d="M467.3027,-55.4179C467.3027,-48.2164 467.3027,-37.8962 467.3027,-28.8632"/>
<polygon fill="#191970" stroke="#191970" points="470.8028,-28.7794 467.3027,-18.7795 463.8028,-28.7795 470.8028,-28.7794"/>
</g>
<!-- Node2&#45;&gt;Node4 -->
<g id="edge4" class="edge">
<title>Node2&#45;&gt;Node4</title>
<path fill="none" stroke="#191970" d="M485.3019,-55.4179C502.6578,-46.6603 529.1538,-33.2907 549.0873,-23.2326"/>
<polygon fill="#191970" stroke="#191970" points="550.9257,-26.2253 558.2769,-18.5956 547.7723,-19.9758 550.9257,-26.2253"/>
</g>
<!-- Node7&#45;&gt;Node2 -->
<g id="edge9" class="edge">
<title>Node7&#45;&gt;Node2</title>
<path fill="none" stroke="#191970" d="M544.9457,-110.4179C530.4067,-101.8195 508.3502,-88.7754 491.4564,-78.7844"/>
<polygon fill="#191970" stroke="#191970" points="493.0717,-75.6735 482.6826,-73.5956 489.5084,-81.6987 493.0717,-75.6735"/>
</g>
<!-- Node7&#45;&gt;Node4 -->
<g id="edge11" class="edge">
<title>Node7&#45;&gt;Node4</title>
<path fill="none" stroke="#191970" d="M563.0203,-110.177C565.5727,-101.0415 569.2914,-86.682 571.3027,-74 573.6976,-58.8998 574.9593,-41.6212 575.6158,-28.7504"/>
<polygon fill="#191970" stroke="#191970" points="579.1133,-28.8823 576.0502,-18.74 572.1198,-28.5788 579.1133,-28.8823"/>
</g>
<!-- Node8 -->
<g id="node9" class="node">
<title>Node8</title>
<polygon fill="#ffffff" stroke="#bfbfbf" points="622.9111,-55.5 622.9111,-73.5 661.6943,-73.5 661.6943,-55.5 622.9111,-55.5"/>
<text text-anchor="middle" x="642.3027" y="-61.5" font-family="Helvetica,sans-Serif" font-size="10.00" fill="#000000">array</text>
</g>
<!-- Node7&#45;&gt;Node8 -->
<g id="edge10" class="edge">
<title>Node7&#45;&gt;Node8</title>
<path fill="none" stroke="#191970" d="M573.8434,-110.4179C586.4253,-101.9788 605.3923,-89.257 620.1738,-79.3426"/>
<polygon fill="#191970" stroke="#191970" points="622.3867,-82.0727 628.742,-73.5956 618.4874,-76.2593 622.3867,-82.0727"/>
</g>
<!-- Node9&#45;&gt;Node2 -->
<g id="edge13" class="edge">
<title>Node9&#45;&gt;Node2</title>
<path fill="none" stroke="#191970" d="M259.1412,-110.4795C302.2016,-100.9681 370.113,-85.9676 416.5784,-75.7042"/>
<polygon fill="#191970" stroke="#191970" points="417.4323,-79.1 426.442,-73.5255 415.9224,-72.2648 417.4323,-79.1"/>
</g>
<!-- Node9&#45;&gt;Node3 -->
<g id="edge15" class="edge">
<title>Node9&#45;&gt;Node3</title>
<path fill="none" stroke="#191970" d="M188.6747,-110.4861C156.611,-99.2608 112.6529,-78.6536 133.3027,-55 152.9855,-32.4541 354.4825,-16.887 434.6561,-11.5417"/>
<polygon fill="#191970" stroke="#191970" points="434.9441,-15.0305 444.6938,-10.8839 434.4863,-8.0454 434.9441,-15.0305"/>
</g>
<!-- Node9&#45;&gt;Node6 -->
<g id="edge18" class="edge">
<title>Node9&#45;&gt;Node6</title>
<path fill="none" stroke="#191970" d="M227.7151,-110.4179C235.9987,-102.425 248.2637,-90.5903 258.2672,-80.9377"/>
<polygon fill="#191970" stroke="#191970" points="260.9199,-83.2419 265.6858,-73.7795 256.0593,-78.2045 260.9199,-83.2419"/>
</g>
<!-- Node10 -->
<g id="node11" class="node">
<title>Node10</title>
<polygon fill="#ffffff" stroke="#bfbfbf" points="142.3521,-55.5 142.3521,-73.5 182.2534,-73.5 182.2534,-55.5 142.3521,-55.5"/>
<text text-anchor="middle" x="162.3027" y="-61.5" font-family="Helvetica,sans-Serif" font-size="10.00" fill="#000000">bitset</text>
</g>
<!-- Node9&#45;&gt;Node10 -->
<g id="edge14" class="edge">
<title>Node9&#45;&gt;Node10</title>
<path fill="none" stroke="#191970" d="M209.0555,-110.4179C200.9173,-102.425 188.8674,-90.5903 179.0394,-80.9377"/>
<polygon fill="#191970" stroke="#191970" points="181.3379,-78.2895 171.7509,-73.7795 176.4329,-83.2836 181.3379,-78.2895"/>
</g>
<!-- Node11 -->
<g id="node12" class="node">
<title>Node11</title>
<polygon fill="#ffffff" stroke="#bfbfbf" points="200.5762,-55.5 200.5762,-73.5 236.0293,-73.5 236.0293,-55.5 200.5762,-55.5"/>
<text text-anchor="middle" x="218.3027" y="-61.5" font-family="Helvetica,sans-Serif" font-size="10.00" fill="#000000">map</text>
</g>
<!-- Node9&#45;&gt;Node11 -->
<g id="edge16" class="edge">
<title>Node9&#45;&gt;Node11</title>
<path fill="none" stroke="#191970" d="M218.3027,-110.4179C218.3027,-103.2164 218.3027,-92.8962 218.3027,-83.8632"/>
<polygon fill="#191970" stroke="#191970" points="221.8028,-83.7794 218.3027,-73.7795 214.8028,-83.7795 221.8028,-83.7794"/>
</g>
<!-- Node12 -->
<g id="node13" class="node">
<title>Node12</title>
<polygon fill="#ffffff" stroke="#bfbfbf" points="0,-55.5 0,-73.5 86.6055,-73.5 86.6055,-55.5 0,-55.5"/>
<text text-anchor="middle" x="43.3027" y="-61.5" font-family="Helvetica,sans-Serif" font-size="10.00" fill="#000000">unordered_map</text>
</g>
<!-- Node9&#45;&gt;Node12 -->
<g id="edge17" class="edge">
<title>Node9&#45;&gt;Node12</title>
<path fill="none" stroke="#191970" d="M189.405,-110.4179C159.9322,-101.155 114.0424,-86.7325 81.5673,-76.526"/>
<polygon fill="#191970" stroke="#191970" points="82.5419,-73.1636 71.9525,-73.5042 80.443,-79.8415 82.5419,-73.1636"/>
</g>
<!-- Node13&#45;&gt;Node2 -->
<g id="edge26" class="edge">
<title>Node13&#45;&gt;Node2</title>
<path fill="none" stroke="#191970" d="M682.1522,-110.4795C637.6152,-100.9482 567.321,-85.9047 519.3554,-75.6397"/>
<polygon fill="#191970" stroke="#191970" points="519.9873,-72.1957 509.4763,-73.5255 518.5224,-79.0407 519.9873,-72.1957"/>
</g>
<!-- Node13&#45;&gt;Node3 -->
<g id="edge29" class="edge">
<title>Node13&#45;&gt;Node3</title>
<path fill="none" stroke="#191970" d="M719.3369,-110.3812C711.108,-96.1845 693.2518,-68.9798 670.3027,-55 641.938,-37.7211 549.5528,-21.7851 499.7757,-14.1808"/>
<polygon fill="#191970" stroke="#191970" points="500.2481,-10.7126 489.8389,-12.6871 499.2075,-17.6348 500.2481,-10.7126"/>
</g>
<!-- Node13&#45;&gt;Node8 -->
<g id="edge28" class="edge">
<title>Node13&#45;&gt;Node8</title>
<path fill="none" stroke="#191970" d="M710.7621,-110.4179C698.1802,-101.9788 679.2131,-89.257 664.4317,-79.3426"/>
<polygon fill="#191970" stroke="#191970" points="666.118,-76.2593 655.8635,-73.5956 662.2187,-82.0727 666.118,-76.2593"/>
</g>
<!-- Node14 -->
<g id="node15" class="node">
<title>Node14</title>
<g id="a_node15"><a xlink:href="common_8hpp.html" target="_top" xlink:title="../utils/common.hpp">
<polygon fill="#ffffff" stroke="#000000" points="846.9507,-55.5 846.9507,-73.5 949.6548,-73.5 949.6548,-55.5 846.9507,-55.5"/>
<text text-anchor="middle" x="898.3027" y="-61.5" font-family="Helvetica,sans-Serif" font-size="10.00" fill="#000000">../utils/common.hpp</text>
</a>
</g>
</g>
<!-- Node13&#45;&gt;Node14 -->
<g id="edge20" class="edge">
<title>Node13&#45;&gt;Node14</title>
<path fill="none" stroke="#191970" d="M753.0353,-110.4179C782.3397,-101.155 827.9673,-86.7325 860.2568,-76.526"/>
<polygon fill="#191970" stroke="#191970" points="861.3366,-79.8555 869.8167,-73.5042 859.2268,-73.181 861.3366,-79.8555"/>
</g>
<!-- Node19 -->
<g id="node20" class="node">
<title>Node19</title>
<polygon fill="#ffffff" stroke="#bfbfbf" points="717.7808,-55.5 717.7808,-73.5 828.8247,-73.5 828.8247,-55.5 717.7808,-55.5"/>
<text text-anchor="middle" x="773.3027" y="-61.5" font-family="Helvetica,sans-Serif" font-size="10.00" fill="#000000">EASTL/vector_map.h</text>
</g>
<!-- Node13&#45;&gt;Node19 -->
<g id="edge27" class="edge">
<title>Node13&#45;&gt;Node19</title>
<path fill="none" stroke="#191970" d="M732.3941,-110.4179C739.374,-102.5833 749.6424,-91.0575 758.1451,-81.5137"/>
<polygon fill="#191970" stroke="#191970" points="760.9968,-83.5743 765.0356,-73.7795 755.7702,-78.9178 760.9968,-83.5743"/>
</g>
<!-- Node20 -->
<g id="node21" class="node">
<title>Node20</title>
<polygon fill="#ffffff" stroke="#bfbfbf" points="968.1304,-55.5 968.1304,-73.5 1022.4751,-73.5 1022.4751,-55.5 968.1304,-55.5"/>
<text text-anchor="middle" x="995.3027" y="-61.5" font-family="Helvetica,sans-Serif" font-size="10.00" fill="#000000">iostream</text>
</g>
<!-- Node13&#45;&gt;Node20 -->
<g id="edge30" class="edge">
<title>Node13&#45;&gt;Node20</title>
<path fill="none" stroke="#191970" d="M775.6104,-110.4279C820.9139,-102.2134 888.9749,-89.3783 957.7221,-74.021"/>
<polygon fill="#191970" stroke="#191970" points="958.8804,-77.3479 967.8675,-71.7371 957.343,-70.5188 958.8804,-77.3479"/>
</g>
<!-- Node14&#45;&gt;Node4 -->
<g id="edge23" class="edge">
<title>Node14&#45;&gt;Node4</title>
<path fill="none" stroke="#191970" d="M846.9248,-55.7243C781.4006,-44.5322 669.743,-25.4603 612.4944,-15.6818"/>
<polygon fill="#191970" stroke="#191970" points="612.908,-12.2018 602.4614,-13.9681 611.7294,-19.1019 612.908,-12.2018"/>
</g>
<!-- Node15 -->
<g id="node16" class="node">
<title>Node15</title>
<polygon fill="#ffffff" stroke="#bfbfbf" points="908.7388,-.5 908.7388,-18.5 965.8667,-18.5 965.8667,-.5 908.7388,-.5"/>
<text text-anchor="middle" x="937.3027" y="-6.5" font-family="Helvetica,sans-Serif" font-size="10.00" fill="#000000">algorithm</text>
</g>
<!-- Node14&#45;&gt;Node15 -->
<g id="edge21" class="edge">
<title>Node14&#45;&gt;Node15</title>
<path fill="none" stroke="#191970" d="M904.7428,-55.4179C910.186,-47.7415 918.1419,-36.5217 924.8266,-27.0945"/>
<polygon fill="#191970" stroke="#191970" points="927.7935,-28.9613 930.7228,-18.7795 922.0834,-24.9123 927.7935,-28.9613"/>
</g>
<!-- Node16 -->
<g id="node17" class="node">
<title>Node16</title>
<polygon fill="#ffffff" stroke="#bfbfbf" points="983.7412,-.5 983.7412,-18.5 1030.8643,-18.5 1030.8643,-.5 983.7412,-.5"/>
<text text-anchor="middle" x="1007.3027" y="-6.5" font-family="Helvetica,sans-Serif" font-size="10.00" fill="#000000">iterator</text>
</g>
<!-- Node14&#45;&gt;Node16 -->
<g id="edge22" class="edge">
<title>Node14&#45;&gt;Node16</title>
<path fill="none" stroke="#191970" d="M916.3019,-55.4179C933.6578,-46.6603 960.1538,-33.2907 980.0873,-23.2326"/>
<polygon fill="#191970" stroke="#191970" points="981.9257,-26.2253 989.2769,-18.5956 978.7723,-19.9758 981.9257,-26.2253"/>
</g>
<!-- Node17 -->
<g id="node18" class="node">
<title>Node17</title>
<polygon fill="#ffffff" stroke="#bfbfbf" points="770.0762,-.5 770.0762,-18.5 810.5293,-18.5 810.5293,-.5 770.0762,-.5"/>
<text text-anchor="middle" x="790.3027" y="-6.5" font-family="Helvetica,sans-Serif" font-size="10.00" fill="#000000">string</text>
</g>
<!-- Node14&#45;&gt;Node17 -->
<g id="edge24" class="edge">
<title>Node14&#45;&gt;Node17</title>
<path fill="none" stroke="#191970" d="M880.4687,-55.4179C863.2721,-46.6603 837.0191,-33.2907 817.2685,-23.2326"/>
<polygon fill="#191970" stroke="#191970" points="818.6626,-20.0148 808.1632,-18.5956 815.4859,-26.2526 818.6626,-20.0148"/>
</g>
<!-- Node18 -->
<g id="node19" class="node">
<title>Node18</title>
<polygon fill="#ffffff" stroke="#bfbfbf" points="828.2363,-.5 828.2363,-18.5 890.3691,-18.5 890.3691,-.5 828.2363,-.5"/>
<text text-anchor="middle" x="859.3027" y="-6.5" font-family="Helvetica,sans-Serif" font-size="10.00" fill="#000000">type_traits</text>
</g>
<!-- Node14&#45;&gt;Node18 -->
<g id="edge25" class="edge">
<title>Node14&#45;&gt;Node18</title>
<path fill="none" stroke="#191970" d="M891.8627,-55.4179C886.4195,-47.7415 878.4636,-36.5217 871.7788,-27.0945"/>
<polygon fill="#191970" stroke="#191970" points="874.5221,-24.9123 865.8827,-18.7795 868.812,-28.9613 874.5221,-24.9123"/>
</g>
</g>
</svg>
