<?xml version="1.0" encoding="UTF-8" standalone="no"?>
<!DOCTYPE svg PUBLIC "-//W3C//DTD SVG 1.1//EN"
 "http://www.w3.org/Graphics/SVG/1.1/DTD/svg11.dtd">
<!-- Generated by graphviz version 2.40.1 (20161225.0304)
 -->
<!-- Title: src/python/pyoptions.cpp Pages: 1 -->
<svg width="812pt" height="247pt"
 viewBox="0.00 0.00 811.98 247.00" xmlns="http://www.w3.org/2000/svg" xmlns:xlink="http://www.w3.org/1999/xlink">
<g id="graph0" class="graph" transform="scale(1 1) rotate(0) translate(4 243)">
<title>src/python/pyoptions.cpp</title>
<polygon fill="#ffffff" stroke="transparent" points="-4,4 -4,-243 807.9834,-243 807.9834,4 -4,4"/>
<!-- Node0 -->
<g id="node1" class="node">
<title>Node0</title>
<polygon fill="#bfbfbf" stroke="#000000" points="436.3042,-220.5 436.3042,-238.5 562.9243,-238.5 562.9243,-220.5 436.3042,-220.5"/>
<text text-anchor="middle" x="499.6143" y="-226.5" font-family="Helvetica,sans-Serif" font-size="10.00" fill="#000000">src/python/pyoptions.cpp</text>
</g>
<!-- Node1 -->
<g id="node2" class="node">
<title>Node1</title>
<g id="a_node2"><a xlink:href="interface_8hpp.html" target="_top" xlink:title="indigox/python/interface.hpp">
<polygon fill="#ffffff" stroke="#000000" points="314.0703,-165.5 314.0703,-183.5 455.1582,-183.5 455.1582,-165.5 314.0703,-165.5"/>
<text text-anchor="middle" x="384.6143" y="-171.5" font-family="Helvetica,sans-Serif" font-size="10.00" fill="#000000">indigox/python/interface.hpp</text>
</a>
</g>
</g>
<!-- Node0&#45;&gt;Node1 -->
<g id="edge1" class="edge">
<title>Node0&#45;&gt;Node1</title>
<path fill="none" stroke="#191970" d="M480.6243,-220.4179C462.1466,-211.5807 433.8495,-198.0473 412.7559,-187.9591"/>
<polygon fill="#191970" stroke="#191970" points="414.1638,-184.7528 403.6324,-183.5956 411.1436,-191.0677 414.1638,-184.7528"/>
</g>
<!-- Node3 -->
<g id="node4" class="node">
<title>Node3</title>
<polygon fill="#ffffff" stroke="#bfbfbf" points="14.0054,-110.5 14.0054,-128.5 123.2231,-128.5 123.2231,-110.5 14.0054,-110.5"/>
<text text-anchor="middle" x="68.6143" y="-116.5" font-family="Helvetica,sans-Serif" font-size="10.00" fill="#000000">pybind11/operators.h</text>
</g>
<!-- Node0&#45;&gt;Node3 -->
<g id="edge20" class="edge">
<title>Node0&#45;&gt;Node3</title>
<path fill="none" stroke="#191970" d="M458.7969,-220.4449C419.269,-211.5652 357.6915,-197.4405 304.6143,-184 236.1407,-166.6608 157.0405,-144.6309 110.0144,-131.3213"/>
<polygon fill="#191970" stroke="#191970" points="110.7732,-127.8986 100.1976,-128.5377 108.8635,-134.6331 110.7732,-127.8986"/>
</g>
<!-- Node4 -->
<g id="node5" class="node">
<title>Node4</title>
<polygon fill="#ffffff" stroke="#bfbfbf" points="18.2017,-55.5 18.2017,-73.5 125.0268,-73.5 125.0268,-55.5 18.2017,-55.5"/>
<text text-anchor="middle" x="71.6143" y="-61.5" font-family="Helvetica,sans-Serif" font-size="10.00" fill="#000000">pybind11/pybind11.h</text>
</g>
<!-- Node0&#45;&gt;Node4 -->
<g id="edge21" class="edge">
<title>Node0&#45;&gt;Node4</title>
<path fill="none" stroke="#191970" d="M436.2864,-226.4725C314.9865,-219.1832 57.2043,-195.9938 4.6143,-129 -10.6796,-109.5173 16.4135,-90.2235 40.5863,-77.8879"/>
<polygon fill="#191970" stroke="#191970" points="42.1396,-81.0246 49.6133,-73.515 39.0878,-74.7248 42.1396,-81.0246"/>
</g>
<!-- Node5 -->
<g id="node6" class="node">
<title>Node5</title>
<polygon fill="#ffffff" stroke="#bfbfbf" points="513.1284,-55.5 513.1284,-73.5 590.1001,-73.5 590.1001,-55.5 513.1284,-55.5"/>
<text text-anchor="middle" x="551.6143" y="-61.5" font-family="Helvetica,sans-Serif" font-size="10.00" fill="#000000">pybind11/stl.h</text>
</g>
<!-- Node0&#45;&gt;Node5 -->
<g id="edge22" class="edge">
<title>Node0&#45;&gt;Node5</title>
<path fill="none" stroke="#191970" d="M504.3292,-220.3491C513.0626,-203.0038 531.7609,-163.9451 541.6143,-129 545.8004,-114.1536 548.3622,-96.8589 549.8434,-83.9174"/>
<polygon fill="#191970" stroke="#191970" points="553.3387,-84.1418 550.8806,-73.8361 546.3755,-83.4253 553.3387,-84.1418"/>
</g>
<!-- Node6 -->
<g id="node7" class="node">
<title>Node6</title>
<polygon fill="#ffffff" stroke="#bfbfbf" points="607.8945,-55.5 607.8945,-73.5 709.334,-73.5 709.334,-55.5 607.8945,-55.5"/>
<text text-anchor="middle" x="658.6143" y="-61.5" font-family="Helvetica,sans-Serif" font-size="10.00" fill="#000000">pybind11/stl_bind.h</text>
</g>
<!-- Node0&#45;&gt;Node6 -->
<g id="edge23" class="edge">
<title>Node0&#45;&gt;Node6</title>
<path fill="none" stroke="#191970" d="M508.6183,-220.1561C534.527,-193.2698 609.5189,-115.448 642.6061,-81.1123"/>
<polygon fill="#191970" stroke="#191970" points="645.2902,-83.3708 649.7089,-73.7414 640.2497,-78.5136 645.2902,-83.3708"/>
</g>
<!-- Node14 -->
<g id="node15" class="node">
<title>Node14</title>
<polygon fill="#ffffff" stroke="#bfbfbf" points="681.2451,-165.5 681.2451,-183.5 803.9834,-183.5 803.9834,-165.5 681.2451,-165.5"/>
<text text-anchor="middle" x="742.6143" y="-171.5" font-family="Helvetica,sans-Serif" font-size="10.00" fill="#000000">indigox/utils/options.hpp</text>
</g>
<!-- Node0&#45;&gt;Node14 -->
<g id="edge19" class="edge">
<title>Node0&#45;&gt;Node14</title>
<path fill="none" stroke="#191970" d="M539.4687,-220.4795C581.4033,-210.9881 647.4887,-196.0305 692.8267,-185.7688"/>
<polygon fill="#191970" stroke="#191970" points="693.7575,-189.1467 702.7381,-183.5255 692.2121,-182.3194 693.7575,-189.1467"/>
</g>
<!-- Node2 -->
<g id="node3" class="node">
<title>Node2</title>
<polygon fill="#ffffff" stroke="#bfbfbf" points="179.8945,-110.5 179.8945,-128.5 271.334,-128.5 271.334,-110.5 179.8945,-110.5"/>
<text text-anchor="middle" x="225.6143" y="-116.5" font-family="Helvetica,sans-Serif" font-size="10.00" fill="#000000">pybind11/eigen.h</text>
</g>
<!-- Node1&#45;&gt;Node2 -->
<g id="edge2" class="edge">
<title>Node1&#45;&gt;Node2</title>
<path fill="none" stroke="#191970" d="M358.3586,-165.4179C331.8113,-156.2348 290.604,-141.9807 261.1461,-131.7909"/>
<polygon fill="#191970" stroke="#191970" points="262.2394,-128.4656 251.6446,-128.5042 259.951,-135.081 262.2394,-128.4656"/>
</g>
<!-- Node1&#45;&gt;Node3 -->
<g id="edge3" class="edge">
<title>Node1&#45;&gt;Node3</title>
<path fill="none" stroke="#191970" d="M332.7871,-165.4795C277.3383,-155.8285 189.4191,-140.5262 130.409,-130.2554"/>
<polygon fill="#191970" stroke="#191970" points="130.9218,-126.7921 120.4697,-128.5255 129.7214,-133.6884 130.9218,-126.7921"/>
</g>
<!-- Node1&#45;&gt;Node4 -->
<g id="edge4" class="edge">
<title>Node1&#45;&gt;Node4</title>
<path fill="none" stroke="#191970" d="M313.7558,-166.1182C271.1108,-159.4566 216.3946,-148.0041 170.6143,-129 140.3836,-116.4508 109.3773,-94.4875 90.3066,-79.7208"/>
<polygon fill="#191970" stroke="#191970" points="92.4474,-76.9517 82.4299,-73.5022 88.1098,-82.4458 92.4474,-76.9517"/>
</g>
<!-- Node1&#45;&gt;Node5 -->
<g id="edge5" class="edge">
<title>Node1&#45;&gt;Node5</title>
<path fill="none" stroke="#191970" d="M443.7371,-165.4482C469.7739,-158.9487 499.235,-147.8577 520.6143,-129 534.1275,-117.0806 542.279,-97.965 546.8069,-83.6325"/>
<polygon fill="#191970" stroke="#191970" points="550.2332,-84.3785 549.5918,-73.8031 543.4983,-82.4703 550.2332,-84.3785"/>
</g>
<!-- Node1&#45;&gt;Node6 -->
<g id="edge6" class="edge">
<title>Node1&#45;&gt;Node6</title>
<path fill="none" stroke="#191970" d="M424.8051,-165.466C457.0305,-157.6055 503.0774,-144.974 541.6143,-129 575.8887,-114.7928 613.0114,-93.1573 636.0409,-78.9235"/>
<polygon fill="#191970" stroke="#191970" points="638.09,-81.7702 644.7129,-73.5005 634.3785,-75.8351 638.09,-81.7702"/>
</g>
<!-- Node7 -->
<g id="node8" class="node">
<title>Node7</title>
<polygon fill="#ffffff" stroke="#bfbfbf" points="459.8335,-110.5 459.8335,-128.5 511.395,-128.5 511.395,-110.5 459.8335,-110.5"/>
<text text-anchor="middle" x="485.6143" y="-116.5" font-family="Helvetica,sans-Serif" font-size="10.00" fill="#000000">sstream</text>
</g>
<!-- Node1&#45;&gt;Node7 -->
<g id="edge7" class="edge">
<title>Node1&#45;&gt;Node7</title>
<path fill="none" stroke="#191970" d="M401.2923,-165.4179C417.2282,-156.7399 441.4801,-143.5334 459.8911,-133.5077"/>
<polygon fill="#191970" stroke="#191970" points="461.803,-136.4519 468.9114,-128.5956 458.4552,-130.3043 461.803,-136.4519"/>
</g>
<!-- Node8 -->
<g id="node9" class="node">
<title>Node8</title>
<g id="a_node9"><a xlink:href="fwd__declares_8hpp.html" target="_top" xlink:title="../utils/fwd_declares.hpp">
<polygon fill="#ffffff" stroke="#000000" points="142.9741,-55.5 142.9741,-73.5 266.2544,-73.5 266.2544,-55.5 142.9741,-55.5"/>
<text text-anchor="middle" x="204.6143" y="-61.5" font-family="Helvetica,sans-Serif" font-size="10.00" fill="#000000">../utils/fwd_declares.hpp</text>
</a>
</g>
</g>
<!-- Node1&#45;&gt;Node8 -->
<g id="edge8" class="edge">
<title>Node1&#45;&gt;Node8</title>
<path fill="none" stroke="#191970" d="M370.1893,-165.4547C350.1503,-152.9116 312.727,-129.5691 280.6143,-110 263.323,-99.4629 243.7133,-87.7282 228.7445,-78.8154"/>
<polygon fill="#191970" stroke="#191970" points="230.4703,-75.7696 220.0862,-73.6666 226.8923,-81.7862 230.4703,-75.7696"/>
</g>
<!-- Node11 -->
<g id="node12" class="node">
<title>Node11</title>
<g id="a_node12"><a xlink:href="opaquecontainers_8hpp.html" target="_top" xlink:title="opaquecontainers.hpp">
<polygon fill="#ffffff" stroke="#000000" points="327.1294,-110.5 327.1294,-128.5 442.0991,-128.5 442.0991,-110.5 327.1294,-110.5"/>
<text text-anchor="middle" x="384.6143" y="-116.5" font-family="Helvetica,sans-Serif" font-size="10.00" fill="#000000">opaquecontainers.hpp</text>
</a>
</g>
</g>
<!-- Node1&#45;&gt;Node11 -->
<g id="edge11" class="edge">
<title>Node1&#45;&gt;Node11</title>
<path fill="none" stroke="#191970" d="M384.6143,-165.4179C384.6143,-158.2164 384.6143,-147.8962 384.6143,-138.8632"/>
<polygon fill="#191970" stroke="#191970" points="388.1144,-138.7794 384.6143,-128.7795 381.1144,-138.7795 388.1144,-138.7794"/>
</g>
<!-- Node9 -->
<g id="node10" class="node">
<title>Node9</title>
<polygon fill="#ffffff" stroke="#bfbfbf" points="260.1636,-.5 260.1636,-18.5 305.0649,-18.5 305.0649,-.5 260.1636,-.5"/>
<text text-anchor="middle" x="282.6143" y="-6.5" font-family="Helvetica,sans-Serif" font-size="10.00" fill="#000000">cstdint</text>
</g>
<!-- Node8&#45;&gt;Node9 -->
<g id="edge9" class="edge">
<title>Node8&#45;&gt;Node9</title>
<path fill="none" stroke="#191970" d="M217.4944,-55.4179C229.3496,-47.0584 247.1645,-34.4966 261.1658,-24.6239"/>
<polygon fill="#191970" stroke="#191970" points="263.5594,-27.2188 269.715,-18.5956 259.5254,-21.498 263.5594,-27.2188"/>
</g>
<!-- Node10 -->
<g id="node11" class="node">
<title>Node10</title>
<polygon fill="#ffffff" stroke="#bfbfbf" points="178.5576,-.5 178.5576,-18.5 230.6709,-18.5 230.6709,-.5 178.5576,-.5"/>
<text text-anchor="middle" x="204.6143" y="-6.5" font-family="Helvetica,sans-Serif" font-size="10.00" fill="#000000">memory</text>
</g>
<!-- Node8&#45;&gt;Node10 -->
<g id="edge10" class="edge">
<title>Node8&#45;&gt;Node10</title>
<path fill="none" stroke="#191970" d="M204.6143,-55.4179C204.6143,-48.2164 204.6143,-37.8962 204.6143,-28.8632"/>
<polygon fill="#191970" stroke="#191970" points="208.1144,-28.7794 204.6143,-18.7795 201.1144,-28.7795 208.1144,-28.7794"/>
</g>
<!-- Node11&#45;&gt;Node4 -->
<g id="edge15" class="edge">
<title>Node11&#45;&gt;Node4</title>
<path fill="none" stroke="#191970" d="M333.2792,-110.4795C278.4702,-100.8485 191.632,-85.5894 133.185,-75.3191"/>
<polygon fill="#191970" stroke="#191970" points="133.4322,-71.809 122.9774,-73.5255 132.2207,-78.7034 133.4322,-71.809"/>
</g>
<!-- Node11&#45;&gt;Node5 -->
<g id="edge16" class="edge">
<title>Node11&#45;&gt;Node5</title>
<path fill="none" stroke="#191970" d="M412.1909,-110.4179C440.1952,-101.1949 483.7312,-86.8567 514.6975,-76.6582"/>
<polygon fill="#191970" stroke="#191970" points="515.8709,-79.9568 524.2742,-73.5042 513.6812,-73.3081 515.8709,-79.9568"/>
</g>
<!-- Node11&#45;&gt;Node6 -->
<g id="edge17" class="edge">
<title>Node11&#45;&gt;Node6</title>
<path fill="none" stroke="#191970" d="M429.553,-110.4795C477.2347,-100.9083 552.6076,-85.7787 603.759,-75.5111"/>
<polygon fill="#191970" stroke="#191970" points="604.5354,-78.9251 613.651,-73.5255 603.1577,-72.062 604.5354,-78.9251"/>
</g>
<!-- Node11&#45;&gt;Node8 -->
<g id="edge12" class="edge">
<title>Node11&#45;&gt;Node8</title>
<path fill="none" stroke="#191970" d="M354.8909,-110.4179C324.576,-101.155 277.375,-86.7325 243.9721,-76.526"/>
<polygon fill="#191970" stroke="#191970" points="244.6689,-73.0792 234.0826,-73.5042 242.6233,-79.7737 244.6689,-73.0792"/>
</g>
<!-- Node11&#45;&gt;Node9 -->
<g id="edge14" class="edge">
<title>Node11&#45;&gt;Node9</title>
<path fill="none" stroke="#191970" d="M364.3995,-110.3833C348.8811,-102.555 327.7799,-90.0068 313.6143,-74 301.9197,-60.7855 293.6594,-42.3801 288.6224,-28.6113"/>
<polygon fill="#191970" stroke="#191970" points="291.8027,-27.0918 285.2699,-18.7508 285.1752,-29.3452 291.8027,-27.0918"/>
</g>
<!-- Node12 -->
<g id="node13" class="node">
<title>Node12</title>
<polygon fill="#ffffff" stroke="#bfbfbf" points="323.0923,-55.5 323.0923,-73.5 434.1362,-73.5 434.1362,-55.5 323.0923,-55.5"/>
<text text-anchor="middle" x="378.6143" y="-61.5" font-family="Helvetica,sans-Serif" font-size="10.00" fill="#000000">EASTL/vector_map.h</text>
</g>
<!-- Node11&#45;&gt;Node12 -->
<g id="edge13" class="edge">
<title>Node11&#45;&gt;Node12</title>
<path fill="none" stroke="#191970" d="M383.6235,-110.4179C382.8379,-103.2164 381.712,-92.8962 380.7266,-83.8632"/>
<polygon fill="#191970" stroke="#191970" points="384.1905,-83.3409 379.6266,-73.7795 377.2318,-84.1001 384.1905,-83.3409"/>
</g>
<!-- Node13 -->
<g id="node14" class="node">
<title>Node13</title>
<polygon fill="#ffffff" stroke="#bfbfbf" points="451.9985,-55.5 451.9985,-73.5 495.23,-73.5 495.23,-55.5 451.9985,-55.5"/>
<text text-anchor="middle" x="473.6143" y="-61.5" font-family="Helvetica,sans-Serif" font-size="10.00" fill="#000000">vector</text>
</g>
<!-- Node11&#45;&gt;Node13 -->
<g id="edge18" class="edge">
<title>Node11&#45;&gt;Node13</title>
<path fill="none" stroke="#191970" d="M399.3108,-110.4179C413.0956,-101.8992 433.942,-89.0166 450.0491,-79.0627"/>
<polygon fill="#191970" stroke="#191970" points="452.2291,-81.83 458.8959,-73.5956 448.5492,-75.8753 452.2291,-81.83"/>
</g>
</g>
</svg>
