<?xml version="1.0" encoding="UTF-8" standalone="no"?>
<!DOCTYPE svg PUBLIC "-//W3C//DTD SVG 1.1//EN"
 "http://www.w3.org/Graphics/SVG/1.1/DTD/svg11.dtd">
<!-- Generated by graphviz version 2.40.1 (20161225.0304)
 -->
<!-- Title: src/python/classes/forcefield.cpp Pages: 1 -->
<!--zoomable 257 -->
<svg id="main" version="1.1" xmlns="http://www.w3.org/2000/svg" xmlns:xlink="http://www.w3.org/1999/xlink" xml:space="preserve" onload="init(evt)">
<style type="text/css"><![CDATA[
.edge:hover path { stroke: red; }
.edge:hover polygon { stroke: red; fill: red; }
]]></style>
<script type="text/javascript"><![CDATA[
var edges = document.getElementsByTagName('g');
if (edges && edges.length) {
  for (var i=0;i<edges.length;i++) {
    if (edges[i].id.substr(0,4)=='edge') {
      edges[i].setAttribute('class','edge');
    }
  }
}
]]></script>
        <defs>
                <circle id="rim" cx="0" cy="0" r="7"/>
                <circle id="rim2" cx="0" cy="0" r="3.5"/>
                <g id="zoomPlus">
                        <use xlink:href="#rim" fill="#404040">
                                <set attributeName="fill" to="#808080" begin="zoomplus.mouseover" end="zoomplus.mouseout"/>
                        </use>
                        <path d="M-4,0h8M0,-4v8" fill="none" stroke="white" stroke-width="1.5" pointer-events="none"/>
                </g>
                <g id="zoomMin">
                        <use xlink:href="#rim" fill="#404040">
                                <set attributeName="fill" to="#808080" begin="zoomminus.mouseover" end="zoomminus.mouseout"/>
                        </use>
                        <path d="M-4,0h8" fill="none" stroke="white" stroke-width="1.5" pointer-events="none"/>
                </g>
                <g id="dirArrow">
                        <path fill="none" stroke="white" stroke-width="1.5" d="M0,-3.0v7 M-2.5,-0.5L0,-3.0L2.5,-0.5"/>
                </g>
               <g id="resetDef">
                       <use xlink:href="#rim2" fill="#404040">
                               <set attributeName="fill" to="#808080" begin="reset.mouseover" end="reset.mouseout"/>
                       </use>
               </g>
        </defs>

<script type="text/javascript">
var viewWidth = 1151;
var viewHeight = 257;
var sectionId = 'dynsection-0';
</script>
<script xlink:href="svgpan.js"/>
<svg id="graph" class="graph">
<g id="viewport">
<title>src/python/classes/forcefield.cpp</title>
<polygon fill="#ffffff" stroke="transparent" points="-4,4 -4,-253 1147.479,-253 1147.479,4 -4,4"/>
<!-- Node0 -->
<g id="node1" class="node">
<title>Node0</title>
<polygon fill="#bfbfbf" stroke="#000000" points="662.9385,-220.5 662.9385,-248.5 761.1943,-248.5 761.1943,-220.5 662.9385,-220.5"/>
<text text-anchor="start" x="670.9385" y="-236.5" font-family="Helvetica,sans-Serif" font-size="10.00" fill="#000000">src/python/classes</text>
<text text-anchor="middle" x="712.0664" y="-226.5" font-family="Helvetica,sans-Serif" font-size="10.00" fill="#000000">/forcefield.cpp</text>
</g>
<!-- Node1 -->
<g id="node2" class="node">
<title>Node1</title>
<g id="a_node2"><a xlink:href="forcefield_8hpp.html" target="_top" xlink:title="indigox/classes/forcefield.hpp">
<polygon fill="#ffffff" stroke="#000000" points="258.7515,-165.5 258.7515,-183.5 405.3813,-183.5 405.3813,-165.5 258.7515,-165.5"/>
<text text-anchor="middle" x="332.0664" y="-171.5" font-family="Helvetica,sans-Serif" font-size="10.00" fill="#000000">indigox/classes/forcefield.hpp</text>
</a>
</g>
</g>
<!-- Node0&#45;&gt;Node1 -->
<g id="edge1" class="edge">
<title>Node0&#45;&gt;Node1</title>
<path fill="none" stroke="#191970" d="M662.7776,-226.7176C595.5115,-216.0966 474.7132,-197.0232 399.2167,-185.1027"/>
<polygon fill="#191970" stroke="#191970" points="399.7542,-181.6443 389.3307,-183.5417 398.6624,-188.5586 399.7542,-181.6443"/>
</g>
<!-- Node17 -->
<g id="node18" class="node">
<title>Node17</title>
<g id="a_node18"><a xlink:href="interface_8hpp.html" target="_top" xlink:title="indigox/python/interface.hpp">
<polygon fill="#ffffff" stroke="#000000" points="703.5225,-165.5 703.5225,-183.5 844.6104,-183.5 844.6104,-165.5 703.5225,-165.5"/>
<text text-anchor="middle" x="774.0664" y="-171.5" font-family="Helvetica,sans-Serif" font-size="10.00" fill="#000000">indigox/python/interface.hpp</text>
</a>
</g>
</g>
<!-- Node0&#45;&gt;Node17 -->
<g id="edge21" class="edge">
<title>Node0&#45;&gt;Node17</title>
<path fill="none" stroke="#191970" d="M726.7595,-220.2808C735.9356,-211.4008 747.7765,-199.9419 757.3162,-190.7098"/>
<polygon fill="#191970" stroke="#191970" points="759.9273,-193.0536 764.6794,-183.5842 755.0594,-188.0233 759.9273,-193.0536"/>
</g>
<!-- Node19 -->
<g id="node20" class="node">
<title>Node19</title>
<polygon fill="#ffffff" stroke="#bfbfbf" points="472.4575,-110.5 472.4575,-128.5 581.6753,-128.5 581.6753,-110.5 472.4575,-110.5"/>
<text text-anchor="middle" x="527.0664" y="-116.5" font-family="Helvetica,sans-Serif" font-size="10.00" fill="#000000">pybind11/operators.h</text>
</g>
<!-- Node0&#45;&gt;Node19 -->
<g id="edge37" class="edge">
<title>Node0&#45;&gt;Node19</title>
<path fill="none" stroke="#191970" d="M689.3818,-220.3987C654.1308,-198.486 586.5387,-156.4692 550.7107,-134.1978"/>
<polygon fill="#191970" stroke="#191970" points="552.2531,-131.0355 541.9125,-128.7286 548.5576,-136.9805 552.2531,-131.0355"/>
</g>
<!-- Node20 -->
<g id="node21" class="node">
<title>Node20</title>
<polygon fill="#ffffff" stroke="#bfbfbf" points="1036.6538,-55.5 1036.6538,-73.5 1143.479,-73.5 1143.479,-55.5 1036.6538,-55.5"/>
<text text-anchor="middle" x="1090.0664" y="-61.5" font-family="Helvetica,sans-Serif" font-size="10.00" fill="#000000">pybind11/pybind11.h</text>
</g>
<!-- Node0&#45;&gt;Node20 -->
<g id="edge38" class="edge">
<title>Node0&#45;&gt;Node20</title>
<path fill="none" stroke="#191970" d="M761.2875,-222.2523C821.7722,-206.0315 926.411,-174.1152 1008.0664,-129 1032.637,-115.4246 1057.5117,-94.646 1073.3166,-80.3617"/>
<polygon fill="#191970" stroke="#191970" points="1075.7209,-82.9056 1080.7052,-73.5564 1070.9786,-77.7568 1075.7209,-82.9056"/>
</g>
<!-- Node2 -->
<g id="node3" class="node">
<title>Node2</title>
<g id="a_node3"><a xlink:href="fwd__declares_8hpp.html" target="_top" xlink:title="../utils/fwd_declares.hpp">
<polygon fill="#ffffff" stroke="#000000" points="582.4263,-55.5 582.4263,-73.5 705.7065,-73.5 705.7065,-55.5 582.4263,-55.5"/>
<text text-anchor="middle" x="644.0664" y="-61.5" font-family="Helvetica,sans-Serif" font-size="10.00" fill="#000000">../utils/fwd_declares.hpp</text>
</a>
</g>
</g>
<!-- Node1&#45;&gt;Node2 -->
<g id="edge2" class="edge">
<title>Node1&#45;&gt;Node2</title>
<path fill="none" stroke="#191970" d="M342.7557,-165.4926C359.9881,-151.4485 395.4862,-124.4492 430.0664,-110 456.8178,-98.8221 527.7648,-84.7953 580.6838,-75.2924"/>
<polygon fill="#191970" stroke="#191970" points="581.4427,-78.7124 590.6742,-73.5134 580.2154,-71.8208 581.4427,-78.7124"/>
</g>
<!-- Node4 -->
<g id="node5" class="node">
<title>Node4</title>
<polygon fill="#ffffff" stroke="#bfbfbf" points="279.0098,-.5 279.0098,-18.5 331.123,-18.5 331.123,-.5 279.0098,-.5"/>
<text text-anchor="middle" x="305.0664" y="-6.5" font-family="Helvetica,sans-Serif" font-size="10.00" fill="#000000">memory</text>
</g>
<!-- Node1&#45;&gt;Node4 -->
<g id="edge19" class="edge">
<title>Node1&#45;&gt;Node4</title>
<path fill="none" stroke="#191970" d="M314.3279,-165.4258C301.3461,-157.6967 284.7173,-145.259 277.0664,-129 263.063,-99.2412 268.1093,-86.6457 277.0664,-55 279.9295,-44.8845 285.7461,-34.8071 291.3396,-26.7169"/>
<polygon fill="#191970" stroke="#191970" points="294.2608,-28.653 297.3908,-18.5311 288.6318,-24.4919 294.2608,-28.653"/>
</g>
<!-- Node5 -->
<g id="node6" class="node">
<title>Node5</title>
<g id="a_node6"><a xlink:href="periodictable_8hpp.html" target="_top" xlink:title="periodictable.hpp">
<polygon fill="#ffffff" stroke="#000000" points="285.9829,-110.5 285.9829,-128.5 378.1499,-128.5 378.1499,-110.5 285.9829,-110.5"/>
<text text-anchor="middle" x="332.0664" y="-116.5" font-family="Helvetica,sans-Serif" font-size="10.00" fill="#000000">periodictable.hpp</text>
</a>
</g>
</g>
<!-- Node1&#45;&gt;Node5 -->
<g id="edge5" class="edge">
<title>Node1&#45;&gt;Node5</title>
<path fill="none" stroke="#191970" d="M332.0664,-165.4179C332.0664,-158.2164 332.0664,-147.8962 332.0664,-138.8632"/>
<polygon fill="#191970" stroke="#191970" points="335.5665,-138.7794 332.0664,-128.7795 328.5665,-138.7795 335.5665,-138.7794"/>
</g>
<!-- Node14 -->
<g id="node15" class="node">
<title>Node14</title>
<polygon fill="#ffffff" stroke="#bfbfbf" points="93.7168,-110.5 93.7168,-128.5 176.416,-128.5 176.416,-110.5 93.7168,-110.5"/>
<text text-anchor="middle" x="135.0664" y="-116.5" font-family="Helvetica,sans-Serif" font-size="10.00" fill="#000000">EASTL/bitset.h</text>
</g>
<!-- Node1&#45;&gt;Node14 -->
<g id="edge17" class="edge">
<title>Node1&#45;&gt;Node14</title>
<path fill="none" stroke="#191970" d="M299.5359,-165.4179C266.0718,-156.0751 213.807,-141.4834 177.1993,-131.263"/>
<polygon fill="#191970" stroke="#191970" points="177.8907,-127.8222 167.3179,-128.5042 176.0083,-134.5644 177.8907,-127.8222"/>
</g>
<!-- Node15 -->
<g id="node16" class="node">
<title>Node15</title>
<polygon fill="#ffffff" stroke="#bfbfbf" points="194.3398,-110.5 194.3398,-128.5 229.793,-128.5 229.793,-110.5 194.3398,-110.5"/>
<text text-anchor="middle" x="212.0664" y="-116.5" font-family="Helvetica,sans-Serif" font-size="10.00" fill="#000000">map</text>
</g>
<!-- Node1&#45;&gt;Node15 -->
<g id="edge18" class="edge">
<title>Node1&#45;&gt;Node15</title>
<path fill="none" stroke="#191970" d="M312.2508,-165.4179C292.303,-156.2751 261.3879,-142.1057 239.176,-131.9252"/>
<polygon fill="#191970" stroke="#191970" points="240.4996,-128.6818 229.9506,-127.6969 237.5829,-135.0453 240.4996,-128.6818"/>
</g>
<!-- Node16 -->
<g id="node17" class="node">
<title>Node16</title>
<polygon fill="#ffffff" stroke="#bfbfbf" points="723.4507,-55.5 723.4507,-73.5 766.6821,-73.5 766.6821,-55.5 723.4507,-55.5"/>
<text text-anchor="middle" x="745.0664" y="-61.5" font-family="Helvetica,sans-Serif" font-size="10.00" fill="#000000">vector</text>
</g>
<!-- Node1&#45;&gt;Node16 -->
<g id="edge20" class="edge">
<title>Node1&#45;&gt;Node16</title>
<path fill="none" stroke="#191970" d="M351.4605,-165.4817C370.7358,-156.4553 401.0921,-142.0683 427.0664,-129 443.2278,-120.8688 445.858,-115.5838 463.0664,-110 567.6325,-76.0706 602.7736,-97.8463 713.3608,-74.0716"/>
<polygon fill="#191970" stroke="#191970" points="714.2262,-77.4647 723.226,-71.8742 712.7043,-70.6321 714.2262,-77.4647"/>
</g>
<!-- Node3 -->
<g id="node4" class="node">
<title>Node3</title>
<polygon fill="#ffffff" stroke="#bfbfbf" points="621.6157,-.5 621.6157,-18.5 666.5171,-18.5 666.5171,-.5 621.6157,-.5"/>
<text text-anchor="middle" x="644.0664" y="-6.5" font-family="Helvetica,sans-Serif" font-size="10.00" fill="#000000">cstdint</text>
</g>
<!-- Node2&#45;&gt;Node3 -->
<g id="edge3" class="edge">
<title>Node2&#45;&gt;Node3</title>
<path fill="none" stroke="#191970" d="M644.0664,-55.4179C644.0664,-48.2164 644.0664,-37.8962 644.0664,-28.8632"/>
<polygon fill="#191970" stroke="#191970" points="647.5665,-28.7794 644.0664,-18.7795 640.5665,-28.7795 647.5665,-28.7794"/>
</g>
<!-- Node2&#45;&gt;Node4 -->
<g id="edge4" class="edge">
<title>Node2&#45;&gt;Node4</title>
<path fill="none" stroke="#191970" d="M588.4671,-55.4795C518.6505,-44.1523 400.849,-25.0399 341.5244,-15.415"/>
<polygon fill="#191970" stroke="#191970" points="341.9255,-11.9344 331.494,-13.7877 340.8044,-18.8441 341.9255,-11.9344"/>
</g>
<!-- Node5&#45;&gt;Node2 -->
<g id="edge12" class="edge">
<title>Node5&#45;&gt;Node2</title>
<path fill="none" stroke="#191970" d="M378.4391,-111.3253C432.6778,-101.764 522.6675,-85.9004 582.6643,-75.3241"/>
<polygon fill="#191970" stroke="#191970" points="583.5225,-78.7268 592.763,-73.5439 582.3072,-71.8331 583.5225,-78.7268"/>
</g>
<!-- Node5&#45;&gt;Node3 -->
<g id="edge15" class="edge">
<title>Node5&#45;&gt;Node3</title>
<path fill="none" stroke="#191970" d="M346.6028,-110.3985C372.137,-94.5357 424.2165,-62.7699 444.0664,-55 500.836,-32.7785 571.1223,-19.9294 611.4573,-13.8552"/>
<polygon fill="#191970" stroke="#191970" points="612.1319,-17.2939 621.522,-12.3872 611.1215,-10.3672 612.1319,-17.2939"/>
</g>
<!-- Node6 -->
<g id="node7" class="node">
<title>Node6</title>
<g id="a_node7"><a xlink:href="common_8hpp.html" target="_top" xlink:title="../utils/common.hpp">
<polygon fill="#ffffff" stroke="#000000" points="127.7144,-55.5 127.7144,-73.5 230.4185,-73.5 230.4185,-55.5 127.7144,-55.5"/>
<text text-anchor="middle" x="179.0664" y="-61.5" font-family="Helvetica,sans-Serif" font-size="10.00" fill="#000000">../utils/common.hpp</text>
</a>
</g>
</g>
<!-- Node5&#45;&gt;Node6 -->
<g id="edge6" class="edge">
<title>Node5&#45;&gt;Node6</title>
<path fill="none" stroke="#191970" d="M306.8016,-110.4179C281.3671,-101.2748 241.9483,-87.1046 213.6278,-76.924"/>
<polygon fill="#191970" stroke="#191970" points="214.7089,-73.5935 204.1145,-73.5042 212.3409,-80.1808 214.7089,-73.5935"/>
</g>
<!-- Node11 -->
<g id="node12" class="node">
<title>Node11</title>
<polygon fill="#ffffff" stroke="#bfbfbf" points="453.5444,-55.5 453.5444,-73.5 564.5884,-73.5 564.5884,-55.5 453.5444,-55.5"/>
<text text-anchor="middle" x="509.0664" y="-61.5" font-family="Helvetica,sans-Serif" font-size="10.00" fill="#000000">EASTL/vector_map.h</text>
</g>
<!-- Node5&#45;&gt;Node11 -->
<g id="edge13" class="edge">
<title>Node5&#45;&gt;Node11</title>
<path fill="none" stroke="#191970" d="M361.2944,-110.4179C391.104,-101.155 437.5183,-86.7325 470.3646,-76.526"/>
<polygon fill="#191970" stroke="#191970" points="471.5782,-79.814 480.0892,-73.5042 469.501,-73.1293 471.5782,-79.814"/>
</g>
<!-- Node12 -->
<g id="node13" class="node">
<title>Node12</title>
<polygon fill="#ffffff" stroke="#bfbfbf" points="358.6748,-55.5 358.6748,-73.5 397.458,-73.5 397.458,-55.5 358.6748,-55.5"/>
<text text-anchor="middle" x="378.0664" y="-61.5" font-family="Helvetica,sans-Serif" font-size="10.00" fill="#000000">array</text>
</g>
<!-- Node5&#45;&gt;Node12 -->
<g id="edge14" class="edge">
<title>Node5&#45;&gt;Node12</title>
<path fill="none" stroke="#191970" d="M339.6624,-110.4179C346.215,-102.5833 355.8547,-91.0575 363.8368,-81.5137"/>
<polygon fill="#191970" stroke="#191970" points="366.5746,-83.6957 370.3054,-73.7795 361.205,-79.2048 366.5746,-83.6957"/>
</g>
<!-- Node13 -->
<g id="node14" class="node">
<title>Node13</title>
<polygon fill="#ffffff" stroke="#bfbfbf" points="285.894,-55.5 285.894,-73.5 340.2388,-73.5 340.2388,-55.5 285.894,-55.5"/>
<text text-anchor="middle" x="313.0664" y="-61.5" font-family="Helvetica,sans-Serif" font-size="10.00" fill="#000000">iostream</text>
</g>
<!-- Node5&#45;&gt;Node13 -->
<g id="edge16" class="edge">
<title>Node5&#45;&gt;Node13</title>
<path fill="none" stroke="#191970" d="M328.9289,-110.4179C326.3865,-103.0581 322.7188,-92.441 319.5504,-83.2695"/>
<polygon fill="#191970" stroke="#191970" points="322.8455,-82.0885 316.272,-73.7795 316.2291,-84.3742 322.8455,-82.0885"/>
</g>
<!-- Node6&#45;&gt;Node4 -->
<g id="edge9" class="edge">
<title>Node6&#45;&gt;Node4</title>
<path fill="none" stroke="#191970" d="M199.8727,-55.4179C220.3003,-46.5011 251.6812,-32.803 274.8556,-22.6873"/>
<polygon fill="#191970" stroke="#191970" points="276.4645,-25.804 284.2292,-18.5956 273.664,-19.3885 276.4645,-25.804"/>
</g>
<!-- Node7 -->
<g id="node8" class="node">
<title>Node7</title>
<polygon fill="#ffffff" stroke="#bfbfbf" points="80.5024,-.5 80.5024,-18.5 137.6304,-18.5 137.6304,-.5 80.5024,-.5"/>
<text text-anchor="middle" x="109.0664" y="-6.5" font-family="Helvetica,sans-Serif" font-size="10.00" fill="#000000">algorithm</text>
</g>
<!-- Node6&#45;&gt;Node7 -->
<g id="edge7" class="edge">
<title>Node6&#45;&gt;Node7</title>
<path fill="none" stroke="#191970" d="M167.5073,-55.4179C157.0324,-47.1876 141.3732,-34.8839 128.9,-25.0836"/>
<polygon fill="#191970" stroke="#191970" points="130.9022,-22.2056 120.8766,-18.7795 126.5774,-27.7098 130.9022,-22.2056"/>
</g>
<!-- Node8 -->
<g id="node9" class="node">
<title>Node8</title>
<polygon fill="#ffffff" stroke="#bfbfbf" points="155.5049,-.5 155.5049,-18.5 202.6279,-18.5 202.6279,-.5 155.5049,-.5"/>
<text text-anchor="middle" x="179.0664" y="-6.5" font-family="Helvetica,sans-Serif" font-size="10.00" fill="#000000">iterator</text>
</g>
<!-- Node6&#45;&gt;Node8 -->
<g id="edge8" class="edge">
<title>Node6&#45;&gt;Node8</title>
<path fill="none" stroke="#191970" d="M179.0664,-55.4179C179.0664,-48.2164 179.0664,-37.8962 179.0664,-28.8632"/>
<polygon fill="#191970" stroke="#191970" points="182.5665,-28.7794 179.0664,-18.7795 175.5665,-28.7795 182.5665,-28.7794"/>
</g>
<!-- Node9 -->
<g id="node10" class="node">
<title>Node9</title>
<polygon fill="#ffffff" stroke="#bfbfbf" points="220.8398,-.5 220.8398,-18.5 261.293,-18.5 261.293,-.5 220.8398,-.5"/>
<text text-anchor="middle" x="241.0664" y="-6.5" font-family="Helvetica,sans-Serif" font-size="10.00" fill="#000000">string</text>
</g>
<!-- Node6&#45;&gt;Node9 -->
<g id="edge10" class="edge">
<title>Node6&#45;&gt;Node9</title>
<path fill="none" stroke="#191970" d="M189.3044,-55.4179C198.4038,-47.3458 211.9201,-35.3556 222.8591,-25.6517"/>
<polygon fill="#191970" stroke="#191970" points="225.4478,-28.0339 230.6059,-18.7795 220.8025,-22.7974 225.4478,-28.0339"/>
</g>
<!-- Node10 -->
<g id="node11" class="node">
<title>Node10</title>
<polygon fill="#ffffff" stroke="#bfbfbf" points="0,-.5 0,-18.5 62.1328,-18.5 62.1328,-.5 0,-.5"/>
<text text-anchor="middle" x="31.0664" y="-6.5" font-family="Helvetica,sans-Serif" font-size="10.00" fill="#000000">type_traits</text>
</g>
<!-- Node6&#45;&gt;Node10 -->
<g id="edge11" class="edge">
<title>Node6&#45;&gt;Node10</title>
<path fill="none" stroke="#191970" d="M154.6272,-55.4179C130.2045,-46.3419 92.4523,-32.3123 65.1032,-22.1488"/>
<polygon fill="#191970" stroke="#191970" points="66.1348,-18.7984 55.5419,-18.5956 63.6963,-25.3599 66.1348,-18.7984"/>
</g>
<!-- Node17&#45;&gt;Node2 -->
<g id="edge28" class="edge">
<title>Node17&#45;&gt;Node2</title>
<path fill="none" stroke="#191970" d="M724.5902,-165.4413C687.2795,-157.4856 640.622,-144.7372 629.0664,-129 619.2105,-115.5776 625.3094,-96.6958 632.4638,-82.8293"/>
<polygon fill="#191970" stroke="#191970" points="635.7196,-84.1865 637.6468,-73.7685 629.6434,-80.7108 635.7196,-84.1865"/>
</g>
<!-- Node18 -->
<g id="node19" class="node">
<title>Node18</title>
<polygon fill="#ffffff" stroke="#bfbfbf" points="638.3467,-110.5 638.3467,-128.5 729.7861,-128.5 729.7861,-110.5 638.3467,-110.5"/>
<text text-anchor="middle" x="684.0664" y="-116.5" font-family="Helvetica,sans-Serif" font-size="10.00" fill="#000000">pybind11/eigen.h</text>
</g>
<!-- Node17&#45;&gt;Node18 -->
<g id="edge22" class="edge">
<title>Node17&#45;&gt;Node18</title>
<path fill="none" stroke="#191970" d="M759.2047,-165.4179C745.265,-156.8992 724.1844,-144.0166 707.8963,-134.0627"/>
<polygon fill="#191970" stroke="#191970" points="709.3081,-130.8237 698.9502,-128.5956 705.6579,-136.7967 709.3081,-130.8237"/>
</g>
<!-- Node17&#45;&gt;Node19 -->
<g id="edge23" class="edge">
<title>Node17&#45;&gt;Node19</title>
<path fill="none" stroke="#191970" d="M733.556,-165.4795C690.8415,-155.9681 623.4755,-140.9676 577.3833,-130.7042"/>
<polygon fill="#191970" stroke="#191970" points="578.1207,-127.2827 567.599,-128.5255 576.5992,-134.1154 578.1207,-127.2827"/>
</g>
<!-- Node17&#45;&gt;Node20 -->
<g id="edge24" class="edge">
<title>Node17&#45;&gt;Node20</title>
<path fill="none" stroke="#191970" d="M834.7697,-165.4646C875.3605,-158.2911 929.4786,-146.5186 975.0664,-129 1009.4343,-115.7931 1046.0115,-93.7209 1068.4557,-79.1365"/>
<polygon fill="#191970" stroke="#191970" points="1070.4638,-82.0048 1076.885,-73.5775 1066.61,-76.1612 1070.4638,-82.0048"/>
</g>
<!-- Node21 -->
<g id="node22" class="node">
<title>Node21</title>
<polygon fill="#ffffff" stroke="#bfbfbf" points="822.5806,-55.5 822.5806,-73.5 899.5522,-73.5 899.5522,-55.5 822.5806,-55.5"/>
<text text-anchor="middle" x="861.0664" y="-61.5" font-family="Helvetica,sans-Serif" font-size="10.00" fill="#000000">pybind11/stl.h</text>
</g>
<!-- Node17&#45;&gt;Node21 -->
<g id="edge25" class="edge">
<title>Node17&#45;&gt;Node21</title>
<path fill="none" stroke="#191970" d="M836.6594,-165.4746C878.4996,-158.0132 928.1594,-145.8941 941.0664,-129 957.4632,-107.5381 926.4914,-88.9038 898.4402,-77.258"/>
<polygon fill="#191970" stroke="#191970" points="899.6988,-73.992 889.1118,-73.5825 897.1326,-80.5047 899.6988,-73.992"/>
</g>
<!-- Node22 -->
<g id="node23" class="node">
<title>Node22</title>
<polygon fill="#ffffff" stroke="#bfbfbf" points="917.3467,-55.5 917.3467,-73.5 1018.7861,-73.5 1018.7861,-55.5 917.3467,-55.5"/>
<text text-anchor="middle" x="968.0664" y="-61.5" font-family="Helvetica,sans-Serif" font-size="10.00" fill="#000000">pybind11/stl_bind.h</text>
</g>
<!-- Node17&#45;&gt;Node22 -->
<g id="edge26" class="edge">
<title>Node17&#45;&gt;Node22</title>
<path fill="none" stroke="#191970" d="M842.1709,-165.4465C887.4471,-158.0035 941.3676,-145.9189 957.0664,-129 968.1625,-117.0415 970.271,-98.2022 969.9836,-83.9652"/>
<polygon fill="#191970" stroke="#191970" points="973.4634,-83.5237 969.3654,-73.7535 966.4762,-83.9468 973.4634,-83.5237"/>
</g>
<!-- Node23 -->
<g id="node24" class="node">
<title>Node23</title>
<polygon fill="#ffffff" stroke="#bfbfbf" points="748.2856,-110.5 748.2856,-128.5 799.8472,-128.5 799.8472,-110.5 748.2856,-110.5"/>
<text text-anchor="middle" x="774.0664" y="-116.5" font-family="Helvetica,sans-Serif" font-size="10.00" fill="#000000">sstream</text>
</g>
<!-- Node17&#45;&gt;Node23 -->
<g id="edge27" class="edge">
<title>Node17&#45;&gt;Node23</title>
<path fill="none" stroke="#191970" d="M774.0664,-165.4179C774.0664,-158.2164 774.0664,-147.8962 774.0664,-138.8632"/>
<polygon fill="#191970" stroke="#191970" points="777.5665,-138.7794 774.0664,-128.7795 770.5665,-138.7795 777.5665,-138.7794"/>
</g>
<!-- Node24 -->
<g id="node25" class="node">
<title>Node24</title>
<g id="a_node25"><a xlink:href="opaquecontainers_8hpp.html" target="_top" xlink:title="opaquecontainers.hpp">
<polygon fill="#ffffff" stroke="#000000" points="817.5815,-110.5 817.5815,-128.5 932.5513,-128.5 932.5513,-110.5 817.5815,-110.5"/>
<text text-anchor="middle" x="875.0664" y="-116.5" font-family="Helvetica,sans-Serif" font-size="10.00" fill="#000000">opaquecontainers.hpp</text>
</a>
</g>
</g>
<!-- Node17&#45;&gt;Node24 -->
<g id="edge29" class="edge">
<title>Node17&#45;&gt;Node24</title>
<path fill="none" stroke="#191970" d="M790.7445,-165.4179C806.6804,-156.7399 830.9323,-143.5334 849.3432,-133.5077"/>
<polygon fill="#191970" stroke="#191970" points="851.2551,-136.4519 858.3635,-128.5956 847.9074,-130.3043 851.2551,-136.4519"/>
</g>
<!-- Node24&#45;&gt;Node2 -->
<g id="edge30" class="edge">
<title>Node24&#45;&gt;Node2</title>
<path fill="none" stroke="#191970" d="M837.1801,-110.4795C797.4838,-101.0279 735.022,-86.1561 691.9396,-75.8984"/>
<polygon fill="#191970" stroke="#191970" points="692.5121,-72.4369 681.9734,-73.5255 690.8907,-79.2466 692.5121,-72.4369"/>
</g>
<!-- Node24&#45;&gt;Node3 -->
<g id="edge32" class="edge">
<title>Node24&#45;&gt;Node3</title>
<path fill="none" stroke="#191970" d="M863.1427,-110.3344C845.1009,-96.7978 809.4234,-71.3067 776.0664,-55 743.4323,-39.0467 703.7731,-26.1796 676.4959,-18.2521"/>
<polygon fill="#191970" stroke="#191970" points="677.2646,-14.8319 666.6884,-15.4595 675.3476,-21.5643 677.2646,-14.8319"/>
</g>
<!-- Node24&#45;&gt;Node11 -->
<g id="edge31" class="edge">
<title>Node24&#45;&gt;Node11</title>
<path fill="none" stroke="#191970" d="M817.4763,-110.8457C751.5677,-100.9415 643.842,-84.7532 574.7288,-74.3673"/>
<polygon fill="#191970" stroke="#191970" points="575.2306,-70.9035 564.8215,-72.8785 574.1903,-77.8258 575.2306,-70.9035"/>
</g>
<!-- Node24&#45;&gt;Node16 -->
<g id="edge36" class="edge">
<title>Node24&#45;&gt;Node16</title>
<path fill="none" stroke="#191970" d="M853.5996,-110.4179C832.4294,-101.4613 799.857,-87.6806 775.9166,-77.552"/>
<polygon fill="#191970" stroke="#191970" points="777.1386,-74.2687 766.5652,-73.5956 774.4111,-80.7155 777.1386,-74.2687"/>
</g>
<!-- Node24&#45;&gt;Node20 -->
<g id="edge33" class="edge">
<title>Node24&#45;&gt;Node20</title>
<path fill="none" stroke="#191970" d="M910.5693,-110.4179C947.4031,-100.9953 1005.1078,-86.2336 1045.1045,-76.0019"/>
<polygon fill="#191970" stroke="#191970" points="1046.0475,-79.3734 1054.8681,-73.5042 1044.3127,-72.5918 1046.0475,-79.3734"/>
</g>
<!-- Node24&#45;&gt;Node21 -->
<g id="edge34" class="edge">
<title>Node24&#45;&gt;Node21</title>
<path fill="none" stroke="#191970" d="M872.7546,-110.4179C870.9013,-103.1372 868.2367,-92.669 865.9195,-83.5659"/>
<polygon fill="#191970" stroke="#191970" points="869.2872,-82.607 863.4284,-73.7795 862.5035,-84.3338 869.2872,-82.607"/>
</g>
<!-- Node24&#45;&gt;Node22 -->
<g id="edge35" class="edge">
<title>Node24&#45;&gt;Node22</title>
<path fill="none" stroke="#191970" d="M890.4235,-110.4179C904.9625,-101.8195 927.0189,-88.7754 943.9128,-78.7844"/>
<polygon fill="#191970" stroke="#191970" points="945.8608,-81.6987 952.6865,-73.5956 942.2974,-75.6735 945.8608,-81.6987"/>
</g>
</g>
</svg>
        <g id="navigator" transform="translate(0 0)" fill="#404254">
                <rect fill="#f2f5e9" fill-opacity="0.5" stroke="#606060" stroke-width=".5" x="0" y="0" width="60" height="60"/>
                <use id="zoomplus" xlink:href="#zoomPlus" x="17" y="9" onmousedown="handleZoom(evt,'in')"/>
                <use id="zoomminus" xlink:href="#zoomMin" x="42" y="9" onmousedown="handleZoom(evt,'out')"/>
                <use id="reset" xlink:href="#resetDef" x="30" y="36" onmousedown="handleReset()"/>
                <g id="arrowUp" xlink:href="#dirArrow" transform="translate(30 24)" onmousedown="handlePan(0,-1)">
                  <use xlink:href="#rim" fill="#404040">
                        <set attributeName="fill" to="#808080" begin="arrowUp.mouseover" end="arrowUp.mouseout"/>
                  </use>
                  <path fill="none" stroke="white" stroke-width="1.5" d="M0,-3.0v7 M-2.5,-0.5L0,-3.0L2.5,-0.5"/>
                </g>
                <g id="arrowRight" xlink:href="#dirArrow" transform="rotate(90) translate(36 -43)" onmousedown="handlePan(1,0)">
                  <use xlink:href="#rim" fill="#404040">
                        <set attributeName="fill" to="#808080" begin="arrowRight.mouseover" end="arrowRight.mouseout"/>
                  </use>
                  <path fill="none" stroke="white" stroke-width="1.5" d="M0,-3.0v7 M-2.5,-0.5L0,-3.0L2.5,-0.5"/>
                </g>
                <g id="arrowDown" xlink:href="#dirArrow" transform="rotate(180) translate(-30 -48)" onmousedown="handlePan(0,1)">
                  <use xlink:href="#rim" fill="#404040">
                        <set attributeName="fill" to="#808080" begin="arrowDown.mouseover" end="arrowDown.mouseout"/>
                  </use>
                  <path fill="none" stroke="white" stroke-width="1.5" d="M0,-3.0v7 M-2.5,-0.5L0,-3.0L2.5,-0.5"/>
                </g>
                <g id="arrowLeft" xlink:href="#dirArrow" transform="rotate(270) translate(-36 17)" onmousedown="handlePan(-1,0)">
                  <use xlink:href="#rim" fill="#404040">
                        <set attributeName="fill" to="#808080" begin="arrowLeft.mouseover" end="arrowLeft.mouseout"/>
                  </use>
                  <path fill="none" stroke="white" stroke-width="1.5" d="M0,-3.0v7 M-2.5,-0.5L0,-3.0L2.5,-0.5"/>
                </g>
        </g>
        <svg viewBox="0 0 15 15" width="100%" height="30px" preserveAspectRatio="xMaxYMin meet">
         <g id="arrow_out" transform="scale(0.3 0.3)">
          <a xlink:href="python_2classes_2forcefield_8cpp__incl_org.svg" target="_base">
           <rect id="button" ry="5" rx="5" y="6" x="6" height="38" width="38"
                fill="#f2f5e9" fill-opacity="0.5" stroke="#606060" stroke-width="1.0"/>
           <path id="arrow"
             d="M 11.500037,31.436501 C 11.940474,20.09759 22.043105,11.32322 32.158766,21.979434 L 37.068811,17.246167 C 37.068811,17.246167 37.088388,32 37.088388,32 L 22.160133,31.978069 C 22.160133,31.978069 26.997745,27.140456 26.997745,27.140456 C 18.528582,18.264221 13.291696,25.230495 11.500037,31.436501 z"
             style="fill:#404040;"/>
          </a>
         </g>
        </svg>
</svg>
