<?xml version="1.0" encoding="UTF-8" standalone="no"?>
<!DOCTYPE svg PUBLIC "-//W3C//DTD SVG 1.1//EN"
 "http://www.w3.org/Graphics/SVG/1.1/DTD/svg11.dtd">
<!-- Generated by graphviz version 2.40.1 (20161225.0304)
 -->
<!-- Title: src/python/classes/periodictable.cpp Pages: 1 -->
<svg width="1141pt" height="257pt"
 viewBox="0.00 0.00 1141.26 257.00" xmlns="http://www.w3.org/2000/svg" xmlns:xlink="http://www.w3.org/1999/xlink">
<g id="graph0" class="graph" transform="scale(1 1) rotate(0) translate(4 253)">
<title>src/python/classes/periodictable.cpp</title>
<polygon fill="#ffffff" stroke="transparent" points="-4,4 -4,-253 1137.2632,-253 1137.2632,4 -4,4"/>
<!-- Node0 -->
<g id="node1" class="node">
<title>Node0</title>
<polygon fill="#bfbfbf" stroke="#000000" points="920.0986,-220.5 920.0986,-248.5 1018.3545,-248.5 1018.3545,-220.5 920.0986,-220.5"/>
<text text-anchor="start" x="928.0986" y="-236.5" font-family="Helvetica,sans-Serif" font-size="10.00" fill="#000000">src/python/classes</text>
<text text-anchor="middle" x="969.2266" y="-226.5" font-family="Helvetica,sans-Serif" font-size="10.00" fill="#000000">/periodictable.cpp</text>
</g>
<!-- Node1 -->
<g id="node2" class="node">
<title>Node1</title>
<g id="a_node2"><a xlink:href="periodictable_8hpp.html" target="_top" xlink:title="indigox/classes/periodictable.hpp">
<polygon fill="#ffffff" stroke="#000000" points="255.8477,-110.5 255.8477,-128.5 418.6055,-128.5 418.6055,-110.5 255.8477,-110.5"/>
<text text-anchor="middle" x="337.2266" y="-116.5" font-family="Helvetica,sans-Serif" font-size="10.00" fill="#000000">indigox/classes/periodictable.hpp</text>
</a>
</g>
</g>
<!-- Node0&#45;&gt;Node1 -->
<g id="edge1" class="edge">
<title>Node0&#45;&gt;Node1</title>
<path fill="none" stroke="#191970" d="M919.8978,-225.524C805.318,-204.6749 521.5006,-153.0309 397.179,-130.4091"/>
<polygon fill="#191970" stroke="#191970" points="397.5446,-126.9182 387.0795,-128.5713 396.2914,-133.8051 397.5446,-126.9182"/>
</g>
<!-- Node13 -->
<g id="node14" class="node">
<title>Node13</title>
<g id="a_node14"><a xlink:href="interface_8hpp.html" target="_top" xlink:title="indigox/python/interface.hpp">
<polygon fill="#ffffff" stroke="#000000" points="803.6826,-165.5 803.6826,-183.5 944.7705,-183.5 944.7705,-165.5 803.6826,-165.5"/>
<text text-anchor="middle" x="874.2266" y="-171.5" font-family="Helvetica,sans-Serif" font-size="10.00" fill="#000000">indigox/python/interface.hpp</text>
</a>
</g>
</g>
<!-- Node0&#45;&gt;Node13 -->
<g id="edge15" class="edge">
<title>Node0&#45;&gt;Node13</title>
<path fill="none" stroke="#191970" d="M946.7129,-220.2808C931.8092,-210.868 912.3176,-198.5575 897.3007,-189.0732"/>
<polygon fill="#191970" stroke="#191970" points="898.9338,-185.9649 888.6099,-183.5842 895.1958,-191.8834 898.9338,-185.9649"/>
</g>
<!-- Node15 -->
<g id="node16" class="node">
<title>Node15</title>
<polygon fill="#ffffff" stroke="#bfbfbf" points="1010.6177,-110.5 1010.6177,-128.5 1119.8354,-128.5 1119.8354,-110.5 1010.6177,-110.5"/>
<text text-anchor="middle" x="1065.2266" y="-116.5" font-family="Helvetica,sans-Serif" font-size="10.00" fill="#000000">pybind11/operators.h</text>
</g>
<!-- Node0&#45;&gt;Node15 -->
<g id="edge31" class="edge">
<title>Node0&#45;&gt;Node15</title>
<path fill="none" stroke="#191970" d="M980.998,-220.3987C998.6677,-199.232 1031.9967,-159.3067 1051.0024,-136.5394"/>
<polygon fill="#191970" stroke="#191970" points="1053.8011,-138.6484 1057.5227,-128.7286 1048.4273,-134.1624 1053.8011,-138.6484"/>
</g>
<!-- Node16 -->
<g id="node17" class="node">
<title>Node16</title>
<polygon fill="#ffffff" stroke="#bfbfbf" points="949.814,-55.5 949.814,-73.5 1056.6392,-73.5 1056.6392,-55.5 949.814,-55.5"/>
<text text-anchor="middle" x="1003.2266" y="-61.5" font-family="Helvetica,sans-Serif" font-size="10.00" fill="#000000">pybind11/pybind11.h</text>
</g>
<!-- Node0&#45;&gt;Node16 -->
<g id="edge32" class="edge">
<title>Node0&#45;&gt;Node16</title>
<path fill="none" stroke="#191970" d="M1010.294,-220.4535C1048.8483,-204.8115 1104.2243,-175.4341 1129.2266,-129 1145.6593,-98.4812 1105.7355,-82.0122 1066.5678,-73.3755"/>
<polygon fill="#191970" stroke="#191970" points="1067.1601,-69.9242 1056.6609,-71.3447 1065.7544,-76.7816 1067.1601,-69.9242"/>
</g>
<!-- Node2 -->
<g id="node3" class="node">
<title>Node2</title>
<g id="a_node3"><a xlink:href="common_8hpp.html" target="_top" xlink:title="../utils/common.hpp">
<polygon fill="#ffffff" stroke="#000000" points="76.8745,-55.5 76.8745,-73.5 179.5786,-73.5 179.5786,-55.5 76.8745,-55.5"/>
<text text-anchor="middle" x="128.2266" y="-61.5" font-family="Helvetica,sans-Serif" font-size="10.00" fill="#000000">../utils/common.hpp</text>
</a>
</g>
</g>
<!-- Node1&#45;&gt;Node2 -->
<g id="edge2" class="edge">
<title>Node1&#45;&gt;Node2</title>
<path fill="none" stroke="#191970" d="M302.7145,-110.4179C267.0603,-101.0352 211.2892,-86.3586 172.4289,-76.1322"/>
<polygon fill="#191970" stroke="#191970" points="173.0041,-72.6645 162.4426,-73.5042 171.2226,-79.434 173.0041,-72.6645"/>
</g>
<!-- Node8 -->
<g id="node9" class="node">
<title>Node8</title>
<g id="a_node9"><a xlink:href="fwd__declares_8hpp.html" target="_top" xlink:title="../utils/fwd_declares.hpp">
<polygon fill="#ffffff" stroke="#000000" points="494.5864,-55.5 494.5864,-73.5 617.8667,-73.5 617.8667,-55.5 494.5864,-55.5"/>
<text text-anchor="middle" x="556.2266" y="-61.5" font-family="Helvetica,sans-Serif" font-size="10.00" fill="#000000">../utils/fwd_declares.hpp</text>
</a>
</g>
</g>
<!-- Node1&#45;&gt;Node8 -->
<g id="edge8" class="edge">
<title>Node1&#45;&gt;Node8</title>
<path fill="none" stroke="#191970" d="M373.39,-110.4179C410.909,-100.9953 469.6873,-86.2336 510.4281,-76.0019"/>
<polygon fill="#191970" stroke="#191970" points="511.5272,-79.3346 520.3734,-73.5042 509.8221,-72.5455 511.5272,-79.3346"/>
</g>
<!-- Node9 -->
<g id="node10" class="node">
<title>Node9</title>
<polygon fill="#ffffff" stroke="#bfbfbf" points="533.7759,-.5 533.7759,-18.5 578.6772,-18.5 578.6772,-.5 533.7759,-.5"/>
<text text-anchor="middle" x="556.2266" y="-6.5" font-family="Helvetica,sans-Serif" font-size="10.00" fill="#000000">cstdint</text>
</g>
<!-- Node1&#45;&gt;Node9 -->
<g id="edge13" class="edge">
<title>Node1&#45;&gt;Node9</title>
<path fill="none" stroke="#191970" d="M337.1893,-110.0933C337.6697,-96.0088 340.7392,-69.5443 356.2266,-55 380.1574,-32.5262 473.3686,-18.8223 523.6469,-12.9138"/>
<polygon fill="#191970" stroke="#191970" points="524.1439,-16.3799 533.6837,-11.7709 523.3519,-9.4248 524.1439,-16.3799"/>
</g>
<!-- Node10 -->
<g id="node11" class="node">
<title>Node10</title>
<polygon fill="#ffffff" stroke="#bfbfbf" points="365.7046,-55.5 365.7046,-73.5 476.7485,-73.5 476.7485,-55.5 365.7046,-55.5"/>
<text text-anchor="middle" x="421.2266" y="-61.5" font-family="Helvetica,sans-Serif" font-size="10.00" fill="#000000">EASTL/vector_map.h</text>
</g>
<!-- Node1&#45;&gt;Node10 -->
<g id="edge11" class="edge">
<title>Node1&#45;&gt;Node10</title>
<path fill="none" stroke="#191970" d="M351.0975,-110.4179C363.9863,-101.9788 383.4159,-89.257 398.5579,-79.3426"/>
<polygon fill="#191970" stroke="#191970" points="400.8861,-82.0017 407.3351,-73.5956 397.0516,-76.1454 400.8861,-82.0017"/>
</g>
<!-- Node11 -->
<g id="node12" class="node">
<title>Node11</title>
<polygon fill="#ffffff" stroke="#bfbfbf" points="197.835,-55.5 197.835,-73.5 236.6182,-73.5 236.6182,-55.5 197.835,-55.5"/>
<text text-anchor="middle" x="217.2266" y="-61.5" font-family="Helvetica,sans-Serif" font-size="10.00" fill="#000000">array</text>
</g>
<!-- Node1&#45;&gt;Node11 -->
<g id="edge12" class="edge">
<title>Node1&#45;&gt;Node11</title>
<path fill="none" stroke="#191970" d="M317.411,-110.4179C297.9271,-101.4877 267.9801,-87.762 245.8997,-77.6419"/>
<polygon fill="#191970" stroke="#191970" points="247.2224,-74.398 236.6734,-73.4131 244.3057,-80.7615 247.2224,-74.398"/>
</g>
<!-- Node12 -->
<g id="node13" class="node">
<title>Node12</title>
<polygon fill="#ffffff" stroke="#bfbfbf" points="255.0542,-55.5 255.0542,-73.5 309.3989,-73.5 309.3989,-55.5 255.0542,-55.5"/>
<text text-anchor="middle" x="282.2266" y="-61.5" font-family="Helvetica,sans-Serif" font-size="10.00" fill="#000000">iostream</text>
</g>
<!-- Node1&#45;&gt;Node12 -->
<g id="edge14" class="edge">
<title>Node1&#45;&gt;Node12</title>
<path fill="none" stroke="#191970" d="M328.1444,-110.4179C320.1515,-102.425 308.3169,-90.5903 298.6643,-80.9377"/>
<polygon fill="#191970" stroke="#191970" points="301.052,-78.3757 291.506,-73.7795 296.1022,-83.3254 301.052,-78.3757"/>
</g>
<!-- Node3 -->
<g id="node4" class="node">
<title>Node3</title>
<polygon fill="#ffffff" stroke="#bfbfbf" points="138.6626,-.5 138.6626,-18.5 195.7905,-18.5 195.7905,-.5 138.6626,-.5"/>
<text text-anchor="middle" x="167.2266" y="-6.5" font-family="Helvetica,sans-Serif" font-size="10.00" fill="#000000">algorithm</text>
</g>
<!-- Node2&#45;&gt;Node3 -->
<g id="edge3" class="edge">
<title>Node2&#45;&gt;Node3</title>
<path fill="none" stroke="#191970" d="M134.6666,-55.4179C140.1098,-47.7415 148.0657,-36.5217 154.7505,-27.0945"/>
<polygon fill="#191970" stroke="#191970" points="157.7173,-28.9613 160.6466,-18.7795 152.0072,-24.9123 157.7173,-28.9613"/>
</g>
<!-- Node4 -->
<g id="node5" class="node">
<title>Node4</title>
<polygon fill="#ffffff" stroke="#bfbfbf" points="213.665,-.5 213.665,-18.5 260.7881,-18.5 260.7881,-.5 213.665,-.5"/>
<text text-anchor="middle" x="237.2266" y="-6.5" font-family="Helvetica,sans-Serif" font-size="10.00" fill="#000000">iterator</text>
</g>
<!-- Node2&#45;&gt;Node4 -->
<g id="edge4" class="edge">
<title>Node2&#45;&gt;Node4</title>
<path fill="none" stroke="#191970" d="M146.2257,-55.4179C163.5816,-46.6603 190.0776,-33.2907 210.0111,-23.2326"/>
<polygon fill="#191970" stroke="#191970" points="211.8496,-26.2253 219.2007,-18.5956 208.6961,-19.9758 211.8496,-26.2253"/>
</g>
<!-- Node5 -->
<g id="node6" class="node">
<title>Node5</title>
<polygon fill="#ffffff" stroke="#bfbfbf" points="371.1699,-.5 371.1699,-18.5 423.2832,-18.5 423.2832,-.5 371.1699,-.5"/>
<text text-anchor="middle" x="397.2266" y="-6.5" font-family="Helvetica,sans-Serif" font-size="10.00" fill="#000000">memory</text>
</g>
<!-- Node2&#45;&gt;Node5 -->
<g id="edge5" class="edge">
<title>Node2&#45;&gt;Node5</title>
<path fill="none" stroke="#191970" d="M172.3452,-55.4795C225.0846,-44.6963 312.3308,-26.8579 361.2022,-16.8656"/>
<polygon fill="#191970" stroke="#191970" points="361.926,-20.2901 371.0221,-14.8578 360.5237,-13.432 361.926,-20.2901"/>
</g>
<!-- Node6 -->
<g id="node7" class="node">
<title>Node6</title>
<polygon fill="#ffffff" stroke="#bfbfbf" points="0,-.5 0,-18.5 40.4531,-18.5 40.4531,-.5 0,-.5"/>
<text text-anchor="middle" x="20.2266" y="-6.5" font-family="Helvetica,sans-Serif" font-size="10.00" fill="#000000">string</text>
</g>
<!-- Node2&#45;&gt;Node6 -->
<g id="edge6" class="edge">
<title>Node2&#45;&gt;Node6</title>
<path fill="none" stroke="#191970" d="M110.3926,-55.4179C93.1959,-46.6603 66.9429,-33.2907 47.1923,-23.2326"/>
<polygon fill="#191970" stroke="#191970" points="48.5864,-20.0148 38.0871,-18.5956 45.4098,-26.2526 48.5864,-20.0148"/>
</g>
<!-- Node7 -->
<g id="node8" class="node">
<title>Node7</title>
<polygon fill="#ffffff" stroke="#bfbfbf" points="58.1602,-.5 58.1602,-18.5 120.293,-18.5 120.293,-.5 58.1602,-.5"/>
<text text-anchor="middle" x="89.2266" y="-6.5" font-family="Helvetica,sans-Serif" font-size="10.00" fill="#000000">type_traits</text>
</g>
<!-- Node2&#45;&gt;Node7 -->
<g id="edge7" class="edge">
<title>Node2&#45;&gt;Node7</title>
<path fill="none" stroke="#191970" d="M121.7865,-55.4179C116.3433,-47.7415 108.3874,-36.5217 101.7027,-27.0945"/>
<polygon fill="#191970" stroke="#191970" points="104.4459,-24.9123 95.8065,-18.7795 98.7358,-28.9613 104.4459,-24.9123"/>
</g>
<!-- Node8&#45;&gt;Node5 -->
<g id="edge10" class="edge">
<title>Node8&#45;&gt;Node5</title>
<path fill="none" stroke="#191970" d="M529.9709,-55.4179C503.4236,-46.2348 462.2163,-31.9807 432.7584,-21.7909"/>
<polygon fill="#191970" stroke="#191970" points="433.8517,-18.4656 423.2569,-18.5042 431.5633,-25.081 433.8517,-18.4656"/>
</g>
<!-- Node8&#45;&gt;Node9 -->
<g id="edge9" class="edge">
<title>Node8&#45;&gt;Node9</title>
<path fill="none" stroke="#191970" d="M556.2266,-55.4179C556.2266,-48.2164 556.2266,-37.8962 556.2266,-28.8632"/>
<polygon fill="#191970" stroke="#191970" points="559.7267,-28.7794 556.2266,-18.7795 552.7267,-28.7795 559.7267,-28.7794"/>
</g>
<!-- Node13&#45;&gt;Node8 -->
<g id="edge22" class="edge">
<title>Node13&#45;&gt;Node8</title>
<path fill="none" stroke="#191970" d="M803.4267,-168.4462C735.2228,-161.5706 637.7431,-148.6837 605.2266,-129 587.2413,-118.1127 573.5514,-97.9445 565.2737,-83.0482"/>
<polygon fill="#191970" stroke="#191970" points="568.1529,-81.0004 560.4214,-73.7564 561.948,-84.2407 568.1529,-81.0004"/>
</g>
<!-- Node14 -->
<g id="node15" class="node">
<title>Node14</title>
<polygon fill="#ffffff" stroke="#bfbfbf" points="622.5068,-110.5 622.5068,-128.5 713.9463,-128.5 713.9463,-110.5 622.5068,-110.5"/>
<text text-anchor="middle" x="668.2266" y="-116.5" font-family="Helvetica,sans-Serif" font-size="10.00" fill="#000000">pybind11/eigen.h</text>
</g>
<!-- Node13&#45;&gt;Node14 -->
<g id="edge16" class="edge">
<title>Node13&#45;&gt;Node14</title>
<path fill="none" stroke="#191970" d="M840.2099,-165.4179C805.0675,-156.0352 750.097,-141.3586 711.7944,-131.1322"/>
<polygon fill="#191970" stroke="#191970" points="712.5159,-127.7023 701.9514,-128.5042 710.7101,-134.4654 712.5159,-127.7023"/>
</g>
<!-- Node13&#45;&gt;Node15 -->
<g id="edge17" class="edge">
<title>Node13&#45;&gt;Node15</title>
<path fill="none" stroke="#191970" d="M905.7663,-165.4179C938.0725,-156.115 988.4514,-141.608 1023.9211,-131.3943"/>
<polygon fill="#191970" stroke="#191970" points="1025.3164,-134.6348 1033.9574,-128.5042 1023.3793,-127.9081 1025.3164,-134.6348"/>
</g>
<!-- Node13&#45;&gt;Node16 -->
<g id="edge18" class="edge">
<title>Node13&#45;&gt;Node16</title>
<path fill="none" stroke="#191970" d="M900.6702,-165.3972C919.6976,-157.8648 945.0982,-145.691 963.2266,-129 977.267,-116.0728 988.2244,-97.1258 995.0928,-83.1094"/>
<polygon fill="#191970" stroke="#191970" points="998.3176,-84.4749 999.357,-73.9312 991.9693,-81.5254 998.3176,-84.4749"/>
</g>
<!-- Node17 -->
<g id="node18" class="node">
<title>Node17</title>
<polygon fill="#ffffff" stroke="#bfbfbf" points="854.7407,-55.5 854.7407,-73.5 931.7124,-73.5 931.7124,-55.5 854.7407,-55.5"/>
<text text-anchor="middle" x="893.2266" y="-61.5" font-family="Helvetica,sans-Serif" font-size="10.00" fill="#000000">pybind11/stl.h</text>
</g>
<!-- Node13&#45;&gt;Node17 -->
<g id="edge19" class="edge">
<title>Node13&#45;&gt;Node17</title>
<path fill="none" stroke="#191970" d="M875.7814,-165.4982C878.8572,-147.6913 885.7781,-107.6225 889.9186,-83.6515"/>
<polygon fill="#191970" stroke="#191970" points="893.397,-84.076 891.6502,-73.6261 886.4991,-82.8845 893.397,-84.076"/>
</g>
<!-- Node18 -->
<g id="node19" class="node">
<title>Node18</title>
<polygon fill="#ffffff" stroke="#bfbfbf" points="635.5068,-55.5 635.5068,-73.5 736.9463,-73.5 736.9463,-55.5 635.5068,-55.5"/>
<text text-anchor="middle" x="686.2266" y="-61.5" font-family="Helvetica,sans-Serif" font-size="10.00" fill="#000000">pybind11/stl_bind.h</text>
</g>
<!-- Node13&#45;&gt;Node18 -->
<g id="edge20" class="edge">
<title>Node13&#45;&gt;Node18</title>
<path fill="none" stroke="#191970" d="M803.5592,-172.0989C734.7465,-168.0969 637.1283,-157.429 613.2266,-129 596.5547,-109.1702 625.9743,-89.9768 652.2939,-77.7586"/>
<polygon fill="#191970" stroke="#191970" points="654.0217,-80.822 661.7593,-73.5845 651.1972,-74.4171 654.0217,-80.822"/>
</g>
<!-- Node19 -->
<g id="node20" class="node">
<title>Node19</title>
<polygon fill="#ffffff" stroke="#bfbfbf" points="902.4458,-110.5 902.4458,-128.5 954.0073,-128.5 954.0073,-110.5 902.4458,-110.5"/>
<text text-anchor="middle" x="928.2266" y="-116.5" font-family="Helvetica,sans-Serif" font-size="10.00" fill="#000000">sstream</text>
</g>
<!-- Node13&#45;&gt;Node19 -->
<g id="edge21" class="edge">
<title>Node13&#45;&gt;Node19</title>
<path fill="none" stroke="#191970" d="M883.1436,-165.4179C890.9911,-157.425 902.6106,-145.5903 912.0877,-135.9377"/>
<polygon fill="#191970" stroke="#191970" points="914.6074,-138.3672 919.1158,-128.7795 909.6124,-133.463 914.6074,-138.3672"/>
</g>
<!-- Node20 -->
<g id="node21" class="node">
<title>Node20</title>
<g id="a_node21"><a xlink:href="opaquecontainers_8hpp.html" target="_top" xlink:title="opaquecontainers.hpp">
<polygon fill="#ffffff" stroke="#000000" points="731.7417,-110.5 731.7417,-128.5 846.7114,-128.5 846.7114,-110.5 731.7417,-110.5"/>
<text text-anchor="middle" x="789.2266" y="-116.5" font-family="Helvetica,sans-Serif" font-size="10.00" fill="#000000">opaquecontainers.hpp</text>
</a>
</g>
</g>
<!-- Node13&#45;&gt;Node20 -->
<g id="edge23" class="edge">
<title>Node13&#45;&gt;Node20</title>
<path fill="none" stroke="#191970" d="M860.1905,-165.4179C847.0252,-156.8992 827.1158,-144.0166 811.7326,-134.0627"/>
<polygon fill="#191970" stroke="#191970" points="813.5805,-131.0897 803.2834,-128.5956 809.7778,-136.9667 813.5805,-131.0897"/>
</g>
<!-- Node20&#45;&gt;Node8 -->
<g id="edge24" class="edge">
<title>Node20&#45;&gt;Node8</title>
<path fill="none" stroke="#191970" d="M751.0123,-110.4795C710.8878,-101.008 647.7037,-86.0933 604.2395,-75.8335"/>
<polygon fill="#191970" stroke="#191970" points="604.9984,-72.4165 594.4617,-73.5255 603.3902,-79.2293 604.9984,-72.4165"/>
</g>
<!-- Node20&#45;&gt;Node9 -->
<g id="edge26" class="edge">
<title>Node20&#45;&gt;Node9</title>
<path fill="none" stroke="#191970" d="M785.7559,-110.425C779.8661,-96.2881 766.5389,-69.1641 746.2266,-55 721.0071,-37.4141 636.2232,-21.9176 588.8845,-14.3705"/>
<polygon fill="#191970" stroke="#191970" points="589.2492,-10.885 578.8283,-12.797 588.167,-17.8009 589.2492,-10.885"/>
</g>
<!-- Node20&#45;&gt;Node10 -->
<g id="edge25" class="edge">
<title>Node20&#45;&gt;Node10</title>
<path fill="none" stroke="#191970" d="M731.7266,-110.9063C665.3508,-100.986 556.4075,-84.7037 486.7938,-74.2995"/>
<polygon fill="#191970" stroke="#191970" points="487.2256,-70.8252 476.8181,-72.8085 486.1909,-77.7483 487.2256,-70.8252"/>
</g>
<!-- Node20&#45;&gt;Node16 -->
<g id="edge27" class="edge">
<title>Node20&#45;&gt;Node16</title>
<path fill="none" stroke="#191970" d="M824.5643,-110.4179C861.2268,-100.9953 918.6631,-86.2336 958.4738,-76.0019"/>
<polygon fill="#191970" stroke="#191970" points="959.378,-79.3833 968.192,-73.5042 957.6355,-72.6036 959.378,-79.3833"/>
</g>
<!-- Node20&#45;&gt;Node17 -->
<g id="edge28" class="edge">
<title>Node20&#45;&gt;Node17</title>
<path fill="none" stroke="#191970" d="M806.4,-110.4179C822.8845,-101.7001 848.0108,-88.4122 866.9998,-78.3699"/>
<polygon fill="#191970" stroke="#191970" points="868.8239,-81.3646 876.0276,-73.5956 865.5513,-75.1767 868.8239,-81.3646"/>
</g>
<!-- Node20&#45;&gt;Node18 -->
<g id="edge29" class="edge">
<title>Node20&#45;&gt;Node18</title>
<path fill="none" stroke="#191970" d="M772.2182,-110.4179C755.8922,-101.7001 731.0076,-88.4122 712.2011,-78.3699"/>
<polygon fill="#191970" stroke="#191970" points="713.73,-75.2186 703.2602,-73.5956 710.4327,-81.3934 713.73,-75.2186"/>
</g>
<!-- Node21 -->
<g id="node22" class="node">
<title>Node21</title>
<polygon fill="#ffffff" stroke="#bfbfbf" points="793.6108,-55.5 793.6108,-73.5 836.8423,-73.5 836.8423,-55.5 793.6108,-55.5"/>
<text text-anchor="middle" x="815.2266" y="-61.5" font-family="Helvetica,sans-Serif" font-size="10.00" fill="#000000">vector</text>
</g>
<!-- Node20&#45;&gt;Node21 -->
<g id="edge30" class="edge">
<title>Node20&#45;&gt;Node21</title>
<path fill="none" stroke="#191970" d="M793.5199,-110.4179C797.0365,-102.9789 802.1262,-92.2123 806.4933,-82.9742"/>
<polygon fill="#191970" stroke="#191970" points="809.7303,-84.316 810.8399,-73.7795 803.4018,-81.3243 809.7303,-84.316"/>
</g>
</g>
</svg>
