<?xml version="1.0" encoding="UTF-8" standalone="no"?>
<!DOCTYPE svg PUBLIC "-//W3C//DTD SVG 1.1//EN"
 "http://www.w3.org/Graphics/SVG/1.1/DTD/svg11.dtd">
<!-- Generated by graphviz version 2.40.1 (20161225.0304)
 -->
<!-- Title: src/python/classes/athenaeum.cpp Pages: 1 -->
<svg width="2622pt" height="452pt"
 viewBox="0.00 0.00 2622.00 452.00" xmlns="http://www.w3.org/2000/svg" xmlns:xlink="http://www.w3.org/1999/xlink">
<g id="graph0" class="graph" transform="scale(1 1) rotate(0) translate(4 448)">
<title>src/python/classes/athenaeum.cpp</title>
<polygon fill="#ffffff" stroke="transparent" points="-4,4 -4,-448 2618,-448 2618,4 -4,4"/>
<!-- Node0 -->
<g id="node1" class="node">
<title>Node0</title>
<polygon fill="#bfbfbf" stroke="#000000" points="1791.8721,-415.5 1791.8721,-443.5 1890.1279,-443.5 1890.1279,-415.5 1791.8721,-415.5"/>
<text text-anchor="start" x="1799.8721" y="-431.5" font-family="Helvetica,sans-Serif" font-size="10.00" fill="#000000">src/python/classes</text>
<text text-anchor="middle" x="1841" y="-421.5" font-family="Helvetica,sans-Serif" font-size="10.00" fill="#000000">/athenaeum.cpp</text>
</g>
<!-- Node1 -->
<g id="node2" class="node">
<title>Node1</title>
<g id="a_node2"><a xlink:href="athenaeum_8hpp.html" target="_top" xlink:title="indigox/classes/athenaeum.hpp">
<polygon fill="#ffffff" stroke="#000000" points="419.9536,-245.5 419.9536,-263.5 576.0464,-263.5 576.0464,-245.5 419.9536,-245.5"/>
<text text-anchor="middle" x="498" y="-251.5" font-family="Helvetica,sans-Serif" font-size="10.00" fill="#000000">indigox/classes/athenaeum.hpp</text>
</a>
</g>
</g>
<!-- Node0&#45;&gt;Node1 -->
<g id="edge1" class="edge">
<title>Node0&#45;&gt;Node1</title>
<path fill="none" stroke="#191970" d="M1791.7591,-428.4517C1623.8622,-424.6278 1074.6568,-409.9999 901,-379 759.0634,-353.6625 597.0693,-293.6539 529.8308,-267.2941"/>
<polygon fill="#191970" stroke="#191970" points="530.8271,-263.9246 520.2404,-263.5098 528.2577,-270.4361 530.8271,-263.9246"/>
</g>
<!-- Node27 -->
<g id="node21" class="node">
<title>Node27</title>
<g id="a_node21"><a xlink:href="forcefield_8hpp.html" target="_top" xlink:title="indigox/classes/forcefield.hpp">
<polygon fill="#ffffff" stroke="#000000" points="640.6851,-245.5 640.6851,-263.5 787.3149,-263.5 787.3149,-245.5 640.6851,-245.5"/>
<text text-anchor="middle" x="714" y="-251.5" font-family="Helvetica,sans-Serif" font-size="10.00" fill="#000000">indigox/classes/forcefield.hpp</text>
</a>
</g>
</g>
<!-- Node0&#45;&gt;Node27 -->
<g id="edge25" class="edge">
<title>Node0&#45;&gt;Node27</title>
<path fill="none" stroke="#191970" d="M1791.5923,-427.8327C1617.9882,-421.813 1042.1089,-400.4243 962,-379 872.4344,-355.0466 777.381,-296.7502 735.7051,-269.2811"/>
<polygon fill="#191970" stroke="#191970" points="737.4529,-266.2398 727.1907,-263.6058 733.5704,-272.0645 737.4529,-266.2398"/>
</g>
<!-- Node36 -->
<g id="node29" class="node">
<title>Node36</title>
<g id="a_node29"><a xlink:href="molecule_8hpp.html" target="_top" xlink:title="indigox/classes/molecule.hpp">
<polygon fill="#ffffff" stroke="#000000" points="983.9634,-245.5 983.9634,-263.5 1130.0366,-263.5 1130.0366,-245.5 983.9634,-245.5"/>
<text text-anchor="middle" x="1057" y="-251.5" font-family="Helvetica,sans-Serif" font-size="10.00" fill="#000000">indigox/classes/molecule.hpp</text>
</a>
</g>
</g>
<!-- Node0&#45;&gt;Node36 -->
<g id="edge42" class="edge">
<title>Node0&#45;&gt;Node36</title>
<path fill="none" stroke="#191970" d="M1791.8404,-428.0628C1602.2817,-422.0098 926.3682,-395.5165 866,-324 830.9274,-282.4504 907.2754,-265.7395 973.6197,-259.0192"/>
<polygon fill="#191970" stroke="#191970" points="974.1158,-262.488 983.7415,-258.0612 973.4561,-255.5191 974.1158,-262.488"/>
</g>
<!-- Node39 -->
<g id="node32" class="node">
<title>Node39</title>
<g id="a_node32"><a xlink:href="condensed_8hpp.html" target="_top" xlink:title="indigox/graph/condensed.hpp">
<polygon fill="#ffffff" stroke="#000000" points="1198.3921,-360.5 1198.3921,-378.5 1345.6079,-378.5 1345.6079,-360.5 1198.3921,-360.5"/>
<text text-anchor="middle" x="1272" y="-366.5" font-family="Helvetica,sans-Serif" font-size="10.00" fill="#000000">indigox/graph/condensed.hpp</text>
</a>
</g>
</g>
<!-- Node0&#45;&gt;Node39 -->
<g id="edge49" class="edge">
<title>Node0&#45;&gt;Node39</title>
<path fill="none" stroke="#191970" d="M1791.5004,-424.2804C1694.0305,-414.0023 1476.2782,-391.0408 1355.942,-378.3515"/>
<polygon fill="#191970" stroke="#191970" points="1355.9858,-374.8368 1345.6738,-377.2688 1355.2516,-381.7982 1355.9858,-374.8368"/>
</g>
<!-- Node51 -->
<g id="node40" class="node">
<title>Node51</title>
<g id="a_node40"><a xlink:href="molecular_8hpp.html" target="_top" xlink:title="indigox/graph/molecular.hpp">
<polygon fill="#ffffff" stroke="#000000" points="1770.4561,-360.5 1770.4561,-378.5 1911.5439,-378.5 1911.5439,-360.5 1770.4561,-360.5"/>
<text text-anchor="middle" x="1841" y="-366.5" font-family="Helvetica,sans-Serif" font-size="10.00" fill="#000000">indigox/graph/molecular.hpp</text>
</a>
</g>
</g>
<!-- Node0&#45;&gt;Node51 -->
<g id="edge77" class="edge">
<title>Node0&#45;&gt;Node51</title>
<path fill="none" stroke="#191970" d="M1841,-415.2808C1841,-407.3776 1841,-397.4316 1841,-388.8308"/>
<polygon fill="#191970" stroke="#191970" points="1844.5001,-388.5842 1841,-378.5842 1837.5001,-388.5842 1844.5001,-388.5842"/>
</g>
<!-- Node54 -->
<g id="node43" class="node">
<title>Node54</title>
<g id="a_node43"><a xlink:href="interface_8hpp.html" target="_top" xlink:title="indigox/python/interface.hpp">
<polygon fill="#ffffff" stroke="#000000" points="2157.4561,-245.5 2157.4561,-263.5 2298.5439,-263.5 2298.5439,-245.5 2157.4561,-245.5"/>
<text text-anchor="middle" x="2228" y="-251.5" font-family="Helvetica,sans-Serif" font-size="10.00" fill="#000000">indigox/python/interface.hpp</text>
</a>
</g>
</g>
<!-- Node0&#45;&gt;Node54 -->
<g id="edge88" class="edge">
<title>Node0&#45;&gt;Node54</title>
<path fill="none" stroke="#191970" d="M1873.4245,-415.3622C1919.3107,-395.3013 2005.7677,-357.3068 2079,-324 2121.0188,-304.8894 2169.4102,-282.1888 2199.3547,-268.0603"/>
<polygon fill="#191970" stroke="#191970" points="2201.2193,-271.0505 2208.7668,-263.615 2198.2298,-264.7209 2201.2193,-271.0505"/>
</g>
<!-- Node56 -->
<g id="node45" class="node">
<title>Node56</title>
<polygon fill="#ffffff" stroke="#bfbfbf" points="2438.3911,-180.5 2438.3911,-198.5 2547.6089,-198.5 2547.6089,-180.5 2438.3911,-180.5"/>
<text text-anchor="middle" x="2493" y="-186.5" font-family="Helvetica,sans-Serif" font-size="10.00" fill="#000000">pybind11/operators.h</text>
</g>
<!-- Node0&#45;&gt;Node56 -->
<g id="edge104" class="edge">
<title>Node0&#45;&gt;Node56</title>
<path fill="none" stroke="#191970" d="M1882.7705,-415.4206C1912.6531,-405.3293 1953.8233,-391.3875 1990,-379 2131.4855,-330.5532 2168.5406,-323.0028 2308,-269 2363.7219,-247.4228 2427.5093,-219.2172 2463.7499,-202.8542"/>
<polygon fill="#191970" stroke="#191970" points="2465.5467,-205.8827 2473.2116,-198.5683 2462.6583,-199.5063 2465.5467,-205.8827"/>
</g>
<!-- Node57 -->
<g id="node46" class="node">
<title>Node57</title>
<polygon fill="#ffffff" stroke="#bfbfbf" points="2247.5874,-120.5 2247.5874,-138.5 2354.4126,-138.5 2354.4126,-120.5 2247.5874,-120.5"/>
<text text-anchor="middle" x="2301" y="-126.5" font-family="Helvetica,sans-Serif" font-size="10.00" fill="#000000">pybind11/pybind11.h</text>
</g>
<!-- Node0&#45;&gt;Node57 -->
<g id="edge105" class="edge">
<title>Node0&#45;&gt;Node57</title>
<path fill="none" stroke="#191970" d="M1890.3667,-427.0006C2055.1628,-418.0081 2576,-384.0831 2576,-314.5 2576,-314.5 2576,-314.5 2576,-254.5 2576,-218.1716 2583.4308,-199.9232 2557,-175 2553.4761,-171.6771 2439.5519,-152.349 2364.8825,-139.9764"/>
<polygon fill="#191970" stroke="#191970" points="2365.0596,-136.4582 2354.6224,-138.2791 2363.9171,-143.3643 2365.0596,-136.4582"/>
</g>
<!-- Node58 -->
<g id="node47" class="node">
<title>Node58</title>
<polygon fill="#ffffff" stroke="#bfbfbf" points="2372.5142,-120.5 2372.5142,-138.5 2449.4858,-138.5 2449.4858,-120.5 2372.5142,-120.5"/>
<text text-anchor="middle" x="2411" y="-126.5" font-family="Helvetica,sans-Serif" font-size="10.00" fill="#000000">pybind11/stl.h</text>
</g>
<!-- Node0&#45;&gt;Node58 -->
<g id="edge106" class="edge">
<title>Node0&#45;&gt;Node58</title>
<path fill="none" stroke="#191970" d="M1890.3113,-427.3722C2016.3641,-421.6247 2347.9594,-404.4832 2455,-379 2529.1864,-361.3384 2614,-390.7598 2614,-314.5 2614,-314.5 2614,-314.5 2614,-254.5 2614,-216.071 2609.0218,-200.1898 2580,-175 2562.0489,-159.4192 2502.9155,-145.8881 2459.6427,-137.721"/>
<polygon fill="#191970" stroke="#191970" points="2460.0398,-134.2353 2449.5706,-135.8619 2458.7691,-141.119 2460.0398,-134.2353"/>
</g>
<!-- Node2 -->
<g id="node3" class="node">
<title>Node2</title>
<g id="a_node3"><a xlink:href="fwd__declares_8hpp.html" target="_top" xlink:title="../utils/fwd_declares.hpp">
<polygon fill="#ffffff" stroke="#000000" points="1284.3599,-60.5 1284.3599,-78.5 1407.6401,-78.5 1407.6401,-60.5 1284.3599,-60.5"/>
<text text-anchor="middle" x="1346" y="-66.5" font-family="Helvetica,sans-Serif" font-size="10.00" fill="#000000">../utils/fwd_declares.hpp</text>
</a>
</g>
</g>
<!-- Node1&#45;&gt;Node2 -->
<g id="edge2" class="edge">
<title>Node1&#45;&gt;Node2</title>
<path fill="none" stroke="#191970" d="M551.5384,-245.4255C596.4295,-237.0448 661.854,-223.0166 717,-204 745.759,-194.0827 750.5295,-185.7174 779,-175 832.7074,-154.7824 848.169,-155.9349 903,-139 928.9177,-130.9952 934.549,-126.0122 961,-120 968.5698,-118.2794 1164.6716,-92.8767 1274.0041,-78.7721"/>
<polygon fill="#191970" stroke="#191970" points="1274.5115,-82.2358 1283.9816,-77.4853 1273.6161,-75.2933 1274.5115,-82.2358"/>
</g>
<!-- Node5 -->
<g id="node6" class="node">
<title>Node5</title>
<g id="a_node6"><a xlink:href="quad_8hpp.html" target="_top" xlink:title="../utils/quad.hpp">
<polygon fill="#ffffff" stroke="#000000" points="407.6973,-180.5 407.6973,-198.5 494.3027,-198.5 494.3027,-180.5 407.6973,-180.5"/>
<text text-anchor="middle" x="451" y="-186.5" font-family="Helvetica,sans-Serif" font-size="10.00" fill="#000000">../utils/quad.hpp</text>
</a>
</g>
</g>
<!-- Node1&#45;&gt;Node5 -->
<g id="edge5" class="edge">
<title>Node1&#45;&gt;Node5</title>
<path fill="none" stroke="#191970" d="M491.4649,-245.462C484.3204,-235.5813 472.6964,-219.5056 463.7358,-207.1134"/>
<polygon fill="#191970" stroke="#191970" points="466.4797,-204.9348 457.784,-198.8821 460.8073,-209.0365 466.4797,-204.9348"/>
</g>
<!-- Node22 -->
<g id="node16" class="node">
<title>Node22</title>
<g id="a_node16"><a xlink:href="triple_8hpp.html" target="_top" xlink:title="../utils/triple.hpp">
<polygon fill="#ffffff" stroke="#000000" points="511.9829,-180.5 511.9829,-198.5 598.0171,-198.5 598.0171,-180.5 511.9829,-180.5"/>
<text text-anchor="middle" x="555" y="-186.5" font-family="Helvetica,sans-Serif" font-size="10.00" fill="#000000">../utils/triple.hpp</text>
</a>
</g>
</g>
<!-- Node1&#45;&gt;Node22 -->
<g id="edge17" class="edge">
<title>Node1&#45;&gt;Node22</title>
<path fill="none" stroke="#191970" d="M505.9256,-245.462C514.6743,-235.4854 528.9616,-219.1929 539.87,-206.7535"/>
<polygon fill="#191970" stroke="#191970" points="542.8108,-208.7084 546.7726,-198.8821 537.5478,-204.0931 542.8108,-208.7084"/>
</g>
<!-- Node23 -->
<g id="node17" class="node">
<title>Node23</title>
<polygon fill="#ffffff" stroke="#bfbfbf" points="204.0298,-175.5 204.0298,-203.5 313.9702,-203.5 313.9702,-175.5 204.0298,-175.5"/>
<text text-anchor="start" x="212.0298" y="-191.5" font-family="Helvetica,sans-Serif" font-size="10.00" fill="#000000">boost/dynamic_bitset</text>
<text text-anchor="middle" x="259" y="-181.5" font-family="Helvetica,sans-Serif" font-size="10.00" fill="#000000">_fwd.hpp</text>
</g>
<!-- Node1&#45;&gt;Node23 -->
<g id="edge21" class="edge">
<title>Node1&#45;&gt;Node23</title>
<path fill="none" stroke="#191970" d="M464.7681,-245.462C427.6051,-235.3549 366.6076,-218.7657 320.6526,-206.2674"/>
<polygon fill="#191970" stroke="#191970" points="321.3631,-202.8336 310.795,-203.5865 319.526,-209.5883 321.3631,-202.8336"/>
</g>
<!-- Node24 -->
<g id="node18" class="node">
<title>Node24</title>
<polygon fill="#ffffff" stroke="#bfbfbf" points="360.436,-60.5 360.436,-78.5 417.564,-78.5 417.564,-60.5 360.436,-60.5"/>
<text text-anchor="middle" x="389" y="-66.5" font-family="Helvetica,sans-Serif" font-size="10.00" fill="#000000">algorithm</text>
</g>
<!-- Node1&#45;&gt;Node24 -->
<g id="edge22" class="edge">
<title>Node1&#45;&gt;Node24</title>
<path fill="none" stroke="#191970" d="M460.7432,-245.3622C438.9794,-237.9738 413.099,-225.2102 399,-204 375.6453,-168.8656 380.2117,-116.5625 384.9656,-88.6616"/>
<polygon fill="#191970" stroke="#191970" points="388.4439,-89.1047 386.8687,-78.6277 381.5665,-87.8003 388.4439,-89.1047"/>
</g>
<!-- Node25 -->
<g id="node19" class="node">
<title>Node25</title>
<polygon fill="#ffffff" stroke="#bfbfbf" points="878.2734,-180.5 878.2734,-198.5 913.7266,-198.5 913.7266,-180.5 878.2734,-180.5"/>
<text text-anchor="middle" x="896" y="-186.5" font-family="Helvetica,sans-Serif" font-size="10.00" fill="#000000">map</text>
</g>
<!-- Node1&#45;&gt;Node25 -->
<g id="edge23" class="edge">
<title>Node1&#45;&gt;Node25</title>
<path fill="none" stroke="#191970" d="M563.1982,-245.4711C629.5056,-236.0518 735.1384,-220.3941 826,-204 839.9311,-201.4864 855.3444,-198.3342 868.1536,-195.6114"/>
<polygon fill="#191970" stroke="#191970" points="869.1704,-198.9728 878.2111,-193.4487 867.6987,-192.1293 869.1704,-198.9728"/>
</g>
<!-- Node26 -->
<g id="node20" class="node">
<title>Node26</title>
<polygon fill="#ffffff" stroke="#bfbfbf" points="1602.3843,-60.5 1602.3843,-78.5 1645.6157,-78.5 1645.6157,-60.5 1602.3843,-60.5"/>
<text text-anchor="middle" x="1624" y="-66.5" font-family="Helvetica,sans-Serif" font-size="10.00" fill="#000000">vector</text>
</g>
<!-- Node1&#45;&gt;Node26 -->
<g id="edge24" class="edge">
<title>Node1&#45;&gt;Node26</title>
<path fill="none" stroke="#191970" d="M569.7245,-245.4639C623.4732,-237.5728 698.3946,-224.1803 762,-204 791.7661,-194.556 796.2176,-184.3926 826,-175 952.3615,-135.1487 987.8484,-138.8315 1119,-120 1296.8423,-94.4643 1511.7691,-77.5686 1591.8722,-71.75"/>
<polygon fill="#191970" stroke="#191970" points="1592.5393,-75.2111 1602.2624,-71.0027 1592.0371,-68.2291 1592.5393,-75.2111"/>
</g>
<!-- Node3 -->
<g id="node4" class="node">
<title>Node3</title>
<polygon fill="#ffffff" stroke="#bfbfbf" points="1580.5493,-.5 1580.5493,-18.5 1625.4507,-18.5 1625.4507,-.5 1580.5493,-.5"/>
<text text-anchor="middle" x="1603" y="-6.5" font-family="Helvetica,sans-Serif" font-size="10.00" fill="#000000">cstdint</text>
</g>
<!-- Node2&#45;&gt;Node3 -->
<g id="edge3" class="edge">
<title>Node2&#45;&gt;Node3</title>
<path fill="none" stroke="#191970" d="M1384.7538,-60.4524C1435.3356,-48.6434 1522.9736,-28.1832 1570.3467,-17.1233"/>
<polygon fill="#191970" stroke="#191970" points="1571.4284,-20.465 1580.3708,-14.7831 1569.8369,-13.6483 1571.4284,-20.465"/>
</g>
<!-- Node4 -->
<g id="node5" class="node">
<title>Node4</title>
<polygon fill="#ffffff" stroke="#bfbfbf" points="168.9434,-.5 168.9434,-18.5 221.0566,-18.5 221.0566,-.5 168.9434,-.5"/>
<text text-anchor="middle" x="195" y="-6.5" font-family="Helvetica,sans-Serif" font-size="10.00" fill="#000000">memory</text>
</g>
<!-- Node2&#45;&gt;Node4 -->
<g id="edge4" class="edge">
<title>Node2&#45;&gt;Node4</title>
<path fill="none" stroke="#191970" d="M1284.1938,-62.6684C1257.9513,-59.9587 1227.0086,-57.0146 1199,-55 821.5144,-27.8481 362.9508,-14.0432 231.6872,-10.4597"/>
<polygon fill="#191970" stroke="#191970" points="231.4928,-6.9533 221.4019,-10.1817 231.3036,-13.9507 231.4928,-6.9533"/>
</g>
<!-- Node6 -->
<g id="node7" class="node">
<title>Node6</title>
<polygon fill="#ffffff" stroke="#bfbfbf" points="241.9336,-60.5 241.9336,-78.5 304.0664,-78.5 304.0664,-60.5 241.9336,-60.5"/>
<text text-anchor="middle" x="273" y="-66.5" font-family="Helvetica,sans-Serif" font-size="10.00" fill="#000000">type_traits</text>
</g>
<!-- Node5&#45;&gt;Node6 -->
<g id="edge6" class="edge">
<title>Node5&#45;&gt;Node6</title>
<path fill="none" stroke="#191970" d="M437.6211,-180.4805C407.2108,-159.9792 332.6402,-109.7069 295.2027,-84.4681"/>
<polygon fill="#191970" stroke="#191970" points="296.7824,-81.312 286.5342,-78.6242 292.8694,-87.1162 296.7824,-81.312"/>
</g>
<!-- Node7 -->
<g id="node8" class="node">
<title>Node7</title>
<polygon fill="#ffffff" stroke="#bfbfbf" points="407.6084,-120.5 407.6084,-138.5 446.3916,-138.5 446.3916,-120.5 407.6084,-120.5"/>
<text text-anchor="middle" x="427" y="-126.5" font-family="Helvetica,sans-Serif" font-size="10.00" fill="#000000">utility</text>
</g>
<!-- Node5&#45;&gt;Node7 -->
<g id="edge7" class="edge">
<title>Node5&#45;&gt;Node7</title>
<path fill="none" stroke="#191970" d="M447.3549,-180.3873C443.9365,-171.8412 438.7223,-158.8057 434.4272,-148.0679"/>
<polygon fill="#191970" stroke="#191970" points="437.643,-146.6834 430.6794,-138.6985 431.1437,-149.2831 437.643,-146.6834"/>
</g>
<!-- Node8 -->
<g id="node9" class="node">
<title>Node8</title>
<g id="a_node9"><a xlink:href="serialise_8hpp.html" target="_top" xlink:title="serialise.hpp">
<polygon fill="#ffffff" stroke="#ff0000" points="621.9287,-120.5 621.9287,-138.5 694.0713,-138.5 694.0713,-120.5 621.9287,-120.5"/>
<text text-anchor="middle" x="658" y="-126.5" font-family="Helvetica,sans-Serif" font-size="10.00" fill="#000000">serialise.hpp</text>
</a>
</g>
</g>
<!-- Node5&#45;&gt;Node8 -->
<g id="edge8" class="edge">
<title>Node5&#45;&gt;Node8</title>
<path fill="none" stroke="#191970" d="M482.4388,-180.3873C518.5145,-169.9306 577.7782,-152.7527 617.3369,-141.2864"/>
<polygon fill="#191970" stroke="#191970" points="618.3133,-144.6475 626.9435,-138.5019 616.3645,-137.9243 618.3133,-144.6475"/>
</g>
<!-- Node8&#45;&gt;Node2 -->
<g id="edge9" class="edge">
<title>Node8&#45;&gt;Node2</title>
<path fill="none" stroke="#191970" d="M694.2745,-121.4011C697.2181,-120.8785 700.1537,-120.4018 703,-120 921.854,-89.1018 978.7809,-102.8498 1199,-84 1223.4813,-81.9045 1250.2287,-79.3465 1274.1167,-76.9656"/>
<polygon fill="#191970" stroke="#191970" points="1274.5636,-80.4385 1284.1644,-75.958 1273.865,-73.4734 1274.5636,-80.4385"/>
</g>
<!-- Node8&#45;&gt;Node6 -->
<g id="edge16" class="edge">
<title>Node8&#45;&gt;Node6</title>
<path fill="none" stroke="#191970" d="M621.6937,-121.6027C618.7573,-121.0349 615.8319,-120.4928 613,-120 497.2019,-99.8478 467.034,-102.7463 351,-84 339.1161,-82.0801 326.2553,-79.781 314.4698,-77.5855"/>
<polygon fill="#191970" stroke="#191970" points="314.9165,-74.1081 304.4412,-75.6949 313.6197,-80.987 314.9165,-74.1081"/>
</g>
<!-- Node9 -->
<g id="node10" class="node">
<title>Node9</title>
<polygon fill="#ffffff" stroke="#bfbfbf" points="951.6997,-60.5 951.6997,-78.5 1048.3003,-78.5 1048.3003,-60.5 951.6997,-60.5"/>
<text text-anchor="middle" x="1000" y="-66.5" font-family="Helvetica,sans-Serif" font-size="10.00" fill="#000000">cereal/access.hpp</text>
</g>
<!-- Node8&#45;&gt;Node9 -->
<g id="edge10" class="edge">
<title>Node8&#45;&gt;Node9</title>
<path fill="none" stroke="#191970" d="M694.3131,-121.6414C697.2481,-121.0649 700.1712,-120.5103 703,-120 809.1467,-100.8519 837.2686,-105.3223 943,-84 947.4558,-83.1014 952.0855,-82.0769 956.6939,-80.9974"/>
<polygon fill="#191970" stroke="#191970" points="957.7811,-84.3352 966.6726,-78.574 956.1291,-77.5329 957.7811,-84.3352"/>
</g>
<!-- Node10 -->
<g id="node11" class="node">
<title>Node10</title>
<polygon fill="#ffffff" stroke="#bfbfbf" points="1066.0815,-60.5 1066.0815,-78.5 1189.9185,-78.5 1189.9185,-60.5 1066.0815,-60.5"/>
<text text-anchor="middle" x="1128" y="-66.5" font-family="Helvetica,sans-Serif" font-size="10.00" fill="#000000">cereal/archives/json.hpp</text>
</g>
<!-- Node8&#45;&gt;Node10 -->
<g id="edge11" class="edge">
<title>Node8&#45;&gt;Node10</title>
<path fill="none" stroke="#191970" d="M694.288,-121.4921C697.2286,-120.9491 700.1598,-120.4429 703,-120 859.2562,-95.6323 900.6643,-107.8519 1057,-84 1063.6013,-82.9929 1070.5174,-81.78 1077.3339,-80.4901"/>
<polygon fill="#191970" stroke="#191970" points="1078.0594,-83.9146 1087.2015,-78.56 1076.7156,-77.0448 1078.0594,-83.9146"/>
</g>
<!-- Node11 -->
<g id="node12" class="node">
<title>Node11</title>
<polygon fill="#ffffff" stroke="#bfbfbf" points="435.9165,-55.5 435.9165,-83.5 558.0835,-83.5 558.0835,-55.5 435.9165,-55.5"/>
<text text-anchor="start" x="443.9165" y="-71.5" font-family="Helvetica,sans-Serif" font-size="10.00" fill="#000000">cereal/archives/portable</text>
<text text-anchor="middle" x="497" y="-61.5" font-family="Helvetica,sans-Serif" font-size="10.00" fill="#000000">_binary.hpp</text>
</g>
<!-- Node8&#45;&gt;Node11 -->
<g id="edge12" class="edge">
<title>Node8&#45;&gt;Node11</title>
<path fill="none" stroke="#191970" d="M633.5476,-120.3873C609.9167,-111.5807 573.4937,-98.007 544.2071,-87.0927"/>
<polygon fill="#191970" stroke="#191970" points="545.1702,-83.7165 534.5775,-83.504 542.7257,-90.2758 545.1702,-83.7165"/>
</g>
<!-- Node12 -->
<g id="node13" class="node">
<title>Node12</title>
<polygon fill="#ffffff" stroke="#bfbfbf" points="575.6431,-60.5 575.6431,-78.5 668.3569,-78.5 668.3569,-60.5 575.6431,-60.5"/>
<text text-anchor="middle" x="622" y="-66.5" font-family="Helvetica,sans-Serif" font-size="10.00" fill="#000000">cereal/cereal.hpp</text>
</g>
<!-- Node8&#45;&gt;Node12 -->
<g id="edge13" class="edge">
<title>Node8&#45;&gt;Node12</title>
<path fill="none" stroke="#191970" d="M652.5324,-120.3873C647.299,-111.665 639.2598,-98.2663 632.744,-87.4067"/>
<polygon fill="#191970" stroke="#191970" points="635.6653,-85.4727 627.5191,-78.6985 629.6629,-89.0742 635.6653,-85.4727"/>
</g>
<!-- Node13 -->
<g id="node14" class="node">
<title>Node13</title>
<polygon fill="#ffffff" stroke="#bfbfbf" points="685.8984,-60.5 685.8984,-78.5 800.1016,-78.5 800.1016,-60.5 685.8984,-60.5"/>
<text text-anchor="middle" x="743" y="-66.5" font-family="Helvetica,sans-Serif" font-size="10.00" fill="#000000">cereal/types/array.hpp</text>
</g>
<!-- Node8&#45;&gt;Node13 -->
<g id="edge14" class="edge">
<title>Node8&#45;&gt;Node13</title>
<path fill="none" stroke="#191970" d="M670.9097,-120.3873C684.4679,-110.8168 706.0024,-95.6159 722.0092,-84.3171"/>
<polygon fill="#191970" stroke="#191970" points="724.0961,-87.1281 730.2473,-78.5019 720.0592,-81.4094 724.0961,-87.1281"/>
</g>
<!-- Node14 -->
<g id="node15" class="node">
<title>Node14</title>
<polygon fill="#ffffff" stroke="#bfbfbf" points="817.9707,-60.5 817.9707,-78.5 934.0293,-78.5 934.0293,-60.5 817.9707,-60.5"/>
<text text-anchor="middle" x="876" y="-66.5" font-family="Helvetica,sans-Serif" font-size="10.00" fill="#000000">cereal/types/bitset.hpp</text>
</g>
<!-- Node8&#45;&gt;Node14 -->
<g id="edge15" class="edge">
<title>Node8&#45;&gt;Node14</title>
<path fill="none" stroke="#191970" d="M691.1095,-120.3873C729.1827,-109.9084 791.7797,-92.6799 833.4406,-81.2136"/>
<polygon fill="#191970" stroke="#191970" points="834.5805,-84.5301 843.2932,-78.5019 832.7229,-77.781 834.5805,-84.5301"/>
</g>
<!-- Node22&#45;&gt;Node6 -->
<g id="edge18" class="edge">
<title>Node22&#45;&gt;Node6</title>
<path fill="none" stroke="#191970" d="M544.6682,-180.447C527.3178,-165.6959 490.7092,-136.4706 455,-120 397.8321,-93.6317 378.4281,-101.6607 318,-84 315.4296,-83.2488 312.7836,-82.4535 310.1228,-81.6377"/>
<polygon fill="#191970" stroke="#191970" points="311.1213,-78.2828 300.5323,-78.6349 309.0296,-84.963 311.1213,-78.2828"/>
</g>
<!-- Node22&#45;&gt;Node7 -->
<g id="edge19" class="edge">
<title>Node22&#45;&gt;Node7</title>
<path fill="none" stroke="#191970" d="M535.5596,-180.3873C514.1972,-170.3737 479.6856,-154.1964 455.3175,-142.7738"/>
<polygon fill="#191970" stroke="#191970" points="456.7441,-139.5772 446.204,-138.5019 453.7731,-145.9154 456.7441,-139.5772"/>
</g>
<!-- Node22&#45;&gt;Node8 -->
<g id="edge20" class="edge">
<title>Node22&#45;&gt;Node8</title>
<path fill="none" stroke="#191970" d="M570.6435,-180.3873C587.4532,-170.5952 614.3809,-154.9092 633.9,-143.5388"/>
<polygon fill="#191970" stroke="#191970" points="635.6677,-146.5597 642.5468,-138.5019 632.1442,-140.5111 635.6677,-146.5597"/>
</g>
<!-- Node27&#45;&gt;Node2 -->
<g id="edge26" class="edge">
<title>Node27&#45;&gt;Node2</title>
<path fill="none" stroke="#191970" d="M724.9666,-245.284C745.416,-228.5936 791.3536,-193.3916 836,-175 915.7101,-142.1643 1159.6495,-99.7086 1278.9242,-80.1839"/>
<polygon fill="#191970" stroke="#191970" points="1279.7222,-83.6001 1289.0284,-78.536 1278.5954,-76.6914 1279.7222,-83.6001"/>
</g>
<!-- Node27&#45;&gt;Node4 -->
<g id="edge40" class="edge">
<title>Node27&#45;&gt;Node4</title>
<path fill="none" stroke="#191970" d="M640.6823,-246.7237C561.6751,-237.6438 441.5394,-221.6077 399,-204 314.8846,-169.1833 292.221,-153.141 233,-84 218.726,-67.335 208.0621,-44.3831 201.7204,-28.3747"/>
<polygon fill="#191970" stroke="#191970" points="204.8264,-26.6908 198.0292,-18.5638 198.2748,-29.1558 204.8264,-26.6908"/>
</g>
<!-- Node27&#45;&gt;Node25 -->
<g id="edge39" class="edge">
<title>Node27&#45;&gt;Node25</title>
<path fill="none" stroke="#191970" d="M743.6327,-245.4942C774.1205,-236.0031 822.8365,-220.2077 864,-204 865.5997,-203.3701 867.2351,-202.7032 868.8789,-202.0149"/>
<polygon fill="#191970" stroke="#191970" points="870.4296,-205.1571 878.196,-197.9505 867.6306,-198.741 870.4296,-205.1571"/>
</g>
<!-- Node27&#45;&gt;Node26 -->
<g id="edge41" class="edge">
<title>Node27&#45;&gt;Node26</title>
<path fill="none" stroke="#191970" d="M737.2948,-245.3549C760.346,-235.9929 796.3764,-220.5109 826,-204 846.135,-192.7777 847.4763,-183.2516 869,-175 877.6473,-171.6848 1448.7835,-93.4558 1591.8043,-73.8996"/>
<polygon fill="#191970" stroke="#191970" points="1592.6593,-77.3153 1602.093,-72.493 1591.7111,-70.3799 1592.6593,-77.3153"/>
</g>
<!-- Node28 -->
<g id="node22" class="node">
<title>Node28</title>
<g id="a_node22"><a xlink:href="periodictable_8hpp.html" target="_top" xlink:title="periodictable.hpp">
<polygon fill="#ffffff" stroke="#000000" points="615.9165,-180.5 615.9165,-198.5 708.0835,-198.5 708.0835,-180.5 615.9165,-180.5"/>
<text text-anchor="middle" x="662" y="-186.5" font-family="Helvetica,sans-Serif" font-size="10.00" fill="#000000">periodictable.hpp</text>
</a>
</g>
</g>
<!-- Node27&#45;&gt;Node28 -->
<g id="edge27" class="edge">
<title>Node27&#45;&gt;Node28</title>
<path fill="none" stroke="#191970" d="M706.7696,-245.462C698.7883,-235.4854 685.7543,-219.1929 675.8028,-206.7535"/>
<polygon fill="#191970" stroke="#191970" points="678.4857,-204.5044 669.5057,-198.8821 673.0197,-208.8773 678.4857,-204.5044"/>
</g>
<!-- Node35 -->
<g id="node28" class="node">
<title>Node35</title>
<polygon fill="#ffffff" stroke="#bfbfbf" points="27.6504,-180.5 27.6504,-198.5 110.3496,-198.5 110.3496,-180.5 27.6504,-180.5"/>
<text text-anchor="middle" x="69" y="-186.5" font-family="Helvetica,sans-Serif" font-size="10.00" fill="#000000">EASTL/bitset.h</text>
</g>
<!-- Node27&#45;&gt;Node35 -->
<g id="edge38" class="edge">
<title>Node27&#45;&gt;Node35</title>
<path fill="none" stroke="#191970" d="M640.3518,-245.9659C622.2594,-243.94 602.9358,-241.8356 585,-240 411.8343,-222.2773 368.1421,-221.9514 195,-204 170.4989,-201.4597 143.3508,-198.3707 120.5476,-195.6977"/>
<polygon fill="#191970" stroke="#191970" points="120.7423,-192.1965 110.4014,-194.5022 119.9231,-199.1484 120.7423,-192.1965"/>
</g>
<!-- Node28&#45;&gt;Node2 -->
<g id="edge33" class="edge">
<title>Node28&#45;&gt;Node2</title>
<path fill="none" stroke="#191970" d="M699.5832,-180.4374C753.8272,-167.3135 849.3084,-144.0328 865,-139 886.8476,-131.9928 890.7393,-125.5572 913,-120 1051.4293,-85.442 1090.3389,-101.0017 1232,-84 1245.6287,-82.3643 1260.1659,-80.5605 1274.139,-78.7971"/>
<polygon fill="#191970" stroke="#191970" points="1274.712,-82.2526 1284.1927,-77.5232 1273.832,-75.3081 1274.712,-82.2526"/>
</g>
<!-- Node28&#45;&gt;Node3 -->
<g id="edge36" class="edge">
<title>Node28&#45;&gt;Node3</title>
<path fill="none" stroke="#191970" d="M693.9278,-180.4518C739.5172,-167.4654 819.1984,-144.4968 832,-139 847.551,-132.3226 848.9082,-125.2415 865,-120 1006.9632,-73.7592 1058.7661,-135.2466 1199,-84 1220.6508,-76.088 1220.4213,-63.1066 1242,-55 1301.8665,-32.5095 1492.8608,-17.1326 1570.1084,-11.6858"/>
<polygon fill="#191970" stroke="#191970" points="1570.4944,-15.1675 1580.228,-10.9834 1570.0097,-8.1843 1570.4944,-15.1675"/>
</g>
<!-- Node29 -->
<g id="node23" class="node">
<title>Node29</title>
<g id="a_node23"><a xlink:href="common_8hpp.html" target="_top" xlink:title="../utils/common.hpp">
<polygon fill="#ffffff" stroke="#ff0000" points="501.6479,-120.5 501.6479,-138.5 604.3521,-138.5 604.3521,-120.5 501.6479,-120.5"/>
<text text-anchor="middle" x="553" y="-126.5" font-family="Helvetica,sans-Serif" font-size="10.00" fill="#000000">../utils/common.hpp</text>
</a>
</g>
</g>
<!-- Node28&#45;&gt;Node29 -->
<g id="edge28" class="edge">
<title>Node28&#45;&gt;Node29</title>
<path fill="none" stroke="#191970" d="M645.4452,-180.3873C627.5758,-170.5509 598.9019,-154.7671 578.2239,-143.3847"/>
<polygon fill="#191970" stroke="#191970" points="579.8017,-140.258 569.3534,-138.5019 576.4261,-146.3904 579.8017,-140.258"/>
</g>
<!-- Node32 -->
<g id="node25" class="node">
<title>Node32</title>
<polygon fill="#ffffff" stroke="#bfbfbf" points="1484.478,-120.5 1484.478,-138.5 1595.522,-138.5 1595.522,-120.5 1484.478,-120.5"/>
<text text-anchor="middle" x="1540" y="-126.5" font-family="Helvetica,sans-Serif" font-size="10.00" fill="#000000">EASTL/vector_map.h</text>
</g>
<!-- Node28&#45;&gt;Node32 -->
<g id="edge34" class="edge">
<title>Node28&#45;&gt;Node32</title>
<path fill="none" stroke="#191970" d="M708.4479,-186.2167C750.3992,-183.2583 813.8317,-178.8027 869,-175 1090.8432,-159.7086 1353.9744,-141.9871 1474.1826,-133.9142"/>
<polygon fill="#191970" stroke="#191970" points="1474.5815,-137.3954 1484.3245,-133.2332 1474.1124,-130.4111 1474.5815,-137.3954"/>
</g>
<!-- Node33 -->
<g id="node26" class="node">
<title>Node33</title>
<polygon fill="#ffffff" stroke="#bfbfbf" points="711.6084,-120.5 711.6084,-138.5 750.3916,-138.5 750.3916,-120.5 711.6084,-120.5"/>
<text text-anchor="middle" x="731" y="-126.5" font-family="Helvetica,sans-Serif" font-size="10.00" fill="#000000">array</text>
</g>
<!-- Node28&#45;&gt;Node33 -->
<g id="edge35" class="edge">
<title>Node28&#45;&gt;Node33</title>
<path fill="none" stroke="#191970" d="M672.4796,-180.3873C683.1182,-171.1364 699.8062,-156.625 712.6439,-145.4618"/>
<polygon fill="#191970" stroke="#191970" points="715.1723,-147.9014 720.4218,-138.6985 710.579,-142.6192 715.1723,-147.9014"/>
</g>
<!-- Node34 -->
<g id="node27" class="node">
<title>Node34</title>
<polygon fill="#ffffff" stroke="#bfbfbf" points="768.8276,-120.5 768.8276,-138.5 823.1724,-138.5 823.1724,-120.5 768.8276,-120.5"/>
<text text-anchor="middle" x="796" y="-126.5" font-family="Helvetica,sans-Serif" font-size="10.00" fill="#000000">iostream</text>
</g>
<!-- Node28&#45;&gt;Node34 -->
<g id="edge37" class="edge">
<title>Node28&#45;&gt;Node34</title>
<path fill="none" stroke="#191970" d="M682.3517,-180.3873C704.8144,-170.3294 741.1647,-154.0531 766.6932,-142.6225"/>
<polygon fill="#191970" stroke="#191970" points="768.1993,-145.783 775.8958,-138.5019 765.3386,-139.3942 768.1993,-145.783"/>
</g>
<!-- Node29&#45;&gt;Node4 -->
<g id="edge31" class="edge">
<title>Node29&#45;&gt;Node4</title>
<path fill="none" stroke="#191970" d="M501.4979,-120.4963C450.8122,-111.1727 377.3037,-96.2777 351,-84 331.7487,-75.0141 331.5422,-65.3704 313,-55 286.8428,-40.3705 255.0317,-28.4061 231.0327,-20.424"/>
<polygon fill="#191970" stroke="#191970" points="231.8572,-17.0118 221.265,-17.2507 229.6943,-23.6693 231.8572,-17.0118"/>
</g>
<!-- Node29&#45;&gt;Node6 -->
<g id="edge32" class="edge">
<title>Node29&#45;&gt;Node6</title>
<path fill="none" stroke="#191970" d="M501.2584,-121.3262C453.3758,-113.3274 380.3861,-100.0284 318,-84 315.1679,-83.2724 312.2525,-82.4664 309.332,-81.6181"/>
<polygon fill="#191970" stroke="#191970" points="310.0815,-78.1877 299.4956,-78.6226 308.0422,-84.8841 310.0815,-78.1877"/>
</g>
<!-- Node29&#45;&gt;Node24 -->
<g id="edge29" class="edge">
<title>Node29&#45;&gt;Node24</title>
<path fill="none" stroke="#191970" d="M527.3706,-120.3972C501.8764,-111.3067 461.6669,-96.8722 427,-84 425.4072,-83.4086 423.778,-82.8002 422.1335,-82.1833"/>
<polygon fill="#191970" stroke="#191970" points="423.2835,-78.8764 412.6919,-78.6157 420.8092,-85.4245 423.2835,-78.8764"/>
</g>
<!-- Node30 -->
<g id="node24" class="node">
<title>Node30</title>
<polygon fill="#ffffff" stroke="#bfbfbf" points="1785.4385,-60.5 1785.4385,-78.5 1832.5615,-78.5 1832.5615,-60.5 1785.4385,-60.5"/>
<text text-anchor="middle" x="1809" y="-66.5" font-family="Helvetica,sans-Serif" font-size="10.00" fill="#000000">iterator</text>
</g>
<!-- Node29&#45;&gt;Node30 -->
<g id="edge30" class="edge">
<title>Node29&#45;&gt;Node30</title>
<path fill="none" stroke="#191970" d="M604.6593,-120.9091C607.4765,-120.5692 610.2705,-120.2622 613,-120 1074.2634,-75.6834 1192.5674,-113.7323 1655,-84 1696.3527,-81.3412 1743.8051,-76.6195 1774.9797,-73.2878"/>
<polygon fill="#191970" stroke="#191970" points="1775.7252,-76.7277 1785.291,-72.1729 1774.9727,-69.7682 1775.7252,-76.7277"/>
</g>
<!-- Node36&#45;&gt;Node2 -->
<g id="edge43" class="edge">
<title>Node36&#45;&gt;Node2</title>
<path fill="none" stroke="#191970" d="M1061.7377,-245.3603C1074.8325,-221.0241 1114.0146,-154.1806 1166,-120 1198.2115,-98.8208 1239.2805,-86.4236 1274.0539,-79.2185"/>
<polygon fill="#191970" stroke="#191970" points="1275.016,-82.5964 1284.153,-77.2331 1273.6656,-75.7279 1275.016,-82.5964"/>
</g>
<!-- Node36&#45;&gt;Node3 -->
<g id="edge45" class="edge">
<title>Node36&#45;&gt;Node3</title>
<path fill="none" stroke="#191970" d="M1062.5886,-245.2729C1077.1437,-221.8431 1118.4141,-159.1401 1166,-120 1192.4102,-98.2772 1204.8694,-101.9106 1234,-84 1253.0135,-72.3098 1254.2454,-63.211 1275,-55 1328.3903,-33.8774 1498.1515,-18.0164 1570.1807,-12.0657"/>
<polygon fill="#191970" stroke="#191970" points="1570.7888,-15.5279 1580.4719,-11.2283 1570.221,-8.551 1570.7888,-15.5279"/>
</g>
<!-- Node36&#45;&gt;Node25 -->
<g id="edge46" class="edge">
<title>Node36&#45;&gt;Node25</title>
<path fill="none" stroke="#191970" d="M1029.8787,-245.4655C1002.5031,-236.0715 959.2125,-220.4599 923,-204 922.4399,-203.7454 921.8754,-203.4843 921.3079,-203.2177"/>
<polygon fill="#191970" stroke="#191970" points="922.6084,-199.9543 912.1011,-198.5953 919.4676,-206.2101 922.6084,-199.9543"/>
</g>
<!-- Node36&#45;&gt;Node26 -->
<g id="edge48" class="edge">
<title>Node36&#45;&gt;Node26</title>
<path fill="none" stroke="#191970" d="M1081.2948,-245.4351C1122.1379,-230.2868 1207.2367,-199.1144 1280,-175 1394.3491,-137.1037 1531.6252,-96.4352 1592.3987,-78.6755"/>
<polygon fill="#191970" stroke="#191970" points="1593.5392,-81.9887 1602.1589,-75.8282 1591.5788,-75.2688 1593.5392,-81.9887"/>
</g>
<!-- Node37 -->
<g id="node30" class="node">
<title>Node37</title>
<polygon fill="#ffffff" stroke="#bfbfbf" points="1036.0493,-180.5 1036.0493,-198.5 1075.9507,-198.5 1075.9507,-180.5 1036.0493,-180.5"/>
<text text-anchor="middle" x="1056" y="-186.5" font-family="Helvetica,sans-Serif" font-size="10.00" fill="#000000">bitset</text>
</g>
<!-- Node36&#45;&gt;Node37 -->
<g id="edge44" class="edge">
<title>Node36&#45;&gt;Node37</title>
<path fill="none" stroke="#191970" d="M1056.861,-245.462C1056.7163,-236.061 1056.4854,-221.0518 1056.2991,-208.943"/>
<polygon fill="#191970" stroke="#191970" points="1059.7979,-208.8271 1056.1443,-198.8821 1052.7987,-208.9348 1059.7979,-208.8271"/>
</g>
<!-- Node38 -->
<g id="node31" class="node">
<title>Node38</title>
<polygon fill="#ffffff" stroke="#bfbfbf" points="931.6973,-180.5 931.6973,-198.5 1018.3027,-198.5 1018.3027,-180.5 931.6973,-180.5"/>
<text text-anchor="middle" x="975" y="-186.5" font-family="Helvetica,sans-Serif" font-size="10.00" fill="#000000">unordered_map</text>
</g>
<!-- Node36&#45;&gt;Node38 -->
<g id="edge47" class="edge">
<title>Node36&#45;&gt;Node38</title>
<path fill="none" stroke="#191970" d="M1045.5983,-245.462C1032.454,-235.0428 1010.6194,-217.7349 994.7073,-205.1216"/>
<polygon fill="#191970" stroke="#191970" points="996.58,-202.1399 986.5693,-198.6708 992.2317,-207.6255 996.58,-202.1399"/>
</g>
<!-- Node39&#45;&gt;Node2 -->
<g id="edge50" class="edge">
<title>Node39&#45;&gt;Node2</title>
<path fill="none" stroke="#191970" d="M1257.8875,-360.3998C1229.5841,-340.8834 1169.6079,-292.4938 1182,-240 1195.6998,-181.9666 1199.5924,-161.9183 1242,-120 1259.6222,-102.5811 1284.4329,-90.2185 1305.4012,-82.0864"/>
<polygon fill="#191970" stroke="#191970" points="1306.8578,-85.2798 1315.0306,-78.5377 1304.4372,-78.7116 1306.8578,-85.2798"/>
</g>
<!-- Node39&#45;&gt;Node4 -->
<g id="edge75" class="edge">
<title>Node39&#45;&gt;Node4</title>
<path fill="none" stroke="#191970" d="M1198.1139,-366.7185C926.6379,-356.0187 0,-315.0611 0,-254.5 0,-254.5 0,-254.5 0,-129.5 0,-55.7792 102.339,-25.8934 158.7398,-15.0206"/>
<polygon fill="#191970" stroke="#191970" points="159.4909,-18.4414 168.7014,-13.2054 158.236,-11.5548 159.4909,-18.4414"/>
</g>
<!-- Node39&#45;&gt;Node26 -->
<g id="edge76" class="edge">
<title>Node39&#45;&gt;Node26</title>
<path fill="none" stroke="#191970" d="M1345.6776,-362.0786C1408.6807,-354.9187 1501.5016,-342.4334 1581,-324 1659.1834,-305.8715 1685.3201,-312.1361 1753,-269 1786.1538,-247.8693 1798.6838,-240.6159 1813,-204 1817.6934,-191.996 1819.5251,-186.1152 1813,-175 1778.9201,-116.9466 1699.9891,-88.4805 1655.6648,-76.6204"/>
<polygon fill="#191970" stroke="#191970" points="1656.2676,-73.1621 1645.7127,-74.0815 1654.5371,-79.9449 1656.2676,-73.1621"/>
</g>
<!-- Node39&#45;&gt;Node32 -->
<g id="edge73" class="edge">
<title>Node39&#45;&gt;Node32</title>
<path fill="none" stroke="#191970" d="M1272.3833,-360.4223C1274.2886,-328.2708 1285.5287,-219.3683 1351,-175 1371.0423,-161.4178 1427.9832,-148.7684 1474.1686,-140.2723"/>
<polygon fill="#191970" stroke="#191970" points="1474.9242,-143.6925 1484.1427,-138.4704 1473.6797,-136.804 1474.9242,-143.6925"/>
</g>
<!-- Node39&#45;&gt;Node35 -->
<g id="edge72" class="edge">
<title>Node39&#45;&gt;Node35</title>
<path fill="none" stroke="#191970" d="M1198.1711,-365.1086C995.7094,-352.6038 434.9178,-314.7405 256,-269 195.705,-253.5855 129.7076,-221.6626 94.5001,-203.3039"/>
<polygon fill="#191970" stroke="#191970" points="95.8942,-200.0821 85.4166,-198.5104 92.6272,-206.273 95.8942,-200.0821"/>
</g>
<!-- Node40 -->
<g id="node33" class="node">
<title>Node40</title>
<g id="a_node33"><a xlink:href="base__graph_8hpp.html" target="_top" xlink:title="base_graph.hpp">
<polygon fill="#ffffff" stroke="#000000" points="1483.8574,-305.5 1483.8574,-323.5 1572.1426,-323.5 1572.1426,-305.5 1483.8574,-305.5"/>
<text text-anchor="middle" x="1528" y="-311.5" font-family="Helvetica,sans-Serif" font-size="10.00" fill="#000000">base_graph.hpp</text>
</a>
</g>
</g>
<!-- Node39&#45;&gt;Node40 -->
<g id="edge51" class="edge">
<title>Node39&#45;&gt;Node40</title>
<path fill="none" stroke="#191970" d="M1313.9865,-360.4795C1358.3502,-350.9482 1428.3709,-335.9047 1476.1499,-325.6397"/>
<polygon fill="#191970" stroke="#191970" points="1476.9488,-329.048 1485.9905,-323.5255 1475.4784,-322.2041 1476.9488,-329.048"/>
</g>
<!-- Node50 -->
<g id="node39" class="node">
<title>Node50</title>
<polygon fill="#ffffff" stroke="#bfbfbf" points="1359.5347,-180.5 1359.5347,-198.5 1464.4653,-198.5 1464.4653,-180.5 1359.5347,-180.5"/>
<text text-anchor="middle" x="1412" y="-186.5" font-family="Helvetica,sans-Serif" font-size="10.00" fill="#000000">EASTL/vector_set.h</text>
</g>
<!-- Node39&#45;&gt;Node50 -->
<g id="edge74" class="edge">
<title>Node39&#45;&gt;Node50</title>
<path fill="none" stroke="#191970" d="M1274.0128,-360.3068C1279.3899,-337.5465 1295.9796,-277.6929 1329,-240 1343.067,-223.9425 1363.5115,-211.4191 1380.5895,-202.8602"/>
<polygon fill="#191970" stroke="#191970" points="1382.1591,-205.9892 1389.669,-198.5158 1379.1377,-199.6748 1382.1591,-205.9892"/>
</g>
<!-- Node40&#45;&gt;Node2 -->
<g id="edge52" class="edge">
<title>Node40&#45;&gt;Node2</title>
<path fill="none" stroke="#191970" d="M1483.4607,-310.6679C1430.8158,-305.1078 1347.9433,-292.7634 1329,-269 1286.4174,-215.5824 1319.2319,-126.6102 1336.778,-88.1517"/>
<polygon fill="#191970" stroke="#191970" points="1340.1299,-89.2513 1341.2467,-78.7155 1333.8035,-86.2553 1340.1299,-89.2513"/>
</g>
<!-- Node40&#45;&gt;Node3 -->
<g id="edge56" class="edge">
<title>Node40&#45;&gt;Node3</title>
<path fill="none" stroke="#191970" d="M1572.1862,-311.9801C1661.4561,-304.1156 1860.4605,-271.7731 1927,-139 1949.4371,-94.2289 1879.4632,-63.638 1863,-55 1823.9542,-34.5134 1696.6838,-19.1154 1635.8978,-12.7326"/>
<polygon fill="#191970" stroke="#191970" points="1636.0076,-9.2254 1625.7013,-11.6812 1635.2896,-16.1885 1636.0076,-9.2254"/>
</g>
<!-- Node40&#45;&gt;Node4 -->
<g id="edge57" class="edge">
<title>Node40&#45;&gt;Node4</title>
<path fill="none" stroke="#191970" d="M1483.8525,-314.1821C1303.5855,-312.6558 622.856,-304.6056 411,-269 386.2835,-264.846 209.9524,-224.1143 195,-204 155.7624,-151.2166 176.2314,-66.1622 188.2668,-28.4971"/>
<polygon fill="#191970" stroke="#191970" points="191.6559,-29.3989 191.5188,-18.805 185.0195,-27.1722 191.6559,-29.3989"/>
</g>
<!-- Node40&#45;&gt;Node26 -->
<g id="edge58" class="edge">
<title>Node40&#45;&gt;Node26</title>
<path fill="none" stroke="#191970" d="M1572.354,-311.2291C1627.4619,-306.1362 1716.7303,-294.1573 1737,-269 1745.0866,-258.9635 1741.9324,-251.9078 1737,-240 1728.3409,-219.095 1714.7419,-221.9767 1701,-204 1671.7158,-165.6914 1645.6974,-115.1051 1632.7234,-88.2044"/>
<polygon fill="#191970" stroke="#191970" points="1635.7215,-86.3587 1628.2692,-78.8279 1629.3987,-89.3624 1635.7215,-86.3587"/>
</g>
<!-- Node41 -->
<g id="node34" class="node">
<title>Node41</title>
<g id="a_node34"><a xlink:href="simple__bimap_8hpp.html" target="_top" xlink:title="../utils/simple_bimap.hpp">
<polygon fill="#ffffff" stroke="#000000" points="1601.9731,-245.5 1601.9731,-263.5 1728.0269,-263.5 1728.0269,-245.5 1601.9731,-245.5"/>
<text text-anchor="middle" x="1665" y="-251.5" font-family="Helvetica,sans-Serif" font-size="10.00" fill="#000000">../utils/simple_bimap.hpp</text>
</a>
</g>
</g>
<!-- Node40&#45;&gt;Node41 -->
<g id="edge53" class="edge">
<title>Node40&#45;&gt;Node41</title>
<path fill="none" stroke="#191970" d="M1548.8074,-305.3873C1571.773,-295.3294 1608.9371,-279.0531 1635.037,-267.6225"/>
<polygon fill="#191970" stroke="#191970" points="1636.6898,-270.7196 1644.4457,-263.5019 1633.8816,-264.3076 1636.6898,-270.7196"/>
</g>
<!-- Node42 -->
<g id="node35" class="node">
<title>Node42</title>
<polygon fill="#ffffff" stroke="#bfbfbf" points="1337.6875,-240.5 1337.6875,-268.5 1454.3125,-268.5 1454.3125,-240.5 1337.6875,-240.5"/>
<text text-anchor="start" x="1345.6875" y="-256.5" font-family="Helvetica,sans-Serif" font-size="10.00" fill="#000000">boost/graph/adjacency</text>
<text text-anchor="middle" x="1396" y="-246.5" font-family="Helvetica,sans-Serif" font-size="10.00" fill="#000000">_list.hpp</text>
</g>
<!-- Node40&#45;&gt;Node42 -->
<g id="edge55" class="edge">
<title>Node40&#45;&gt;Node42</title>
<path fill="none" stroke="#191970" d="M1507.952,-305.3873C1488.9146,-296.7339 1459.7508,-283.4776 1435.9619,-272.6645"/>
<polygon fill="#191970" stroke="#191970" points="1437.3609,-269.4558 1426.8089,-268.504 1434.4642,-275.8284 1437.3609,-269.4558"/>
</g>
<!-- Node43 -->
<g id="node36" class="node">
<title>Node43</title>
<g id="a_node36"><a xlink:href="base__graph__impl_8hpp.html" target="_top" xlink:title="base_graph_impl.hpp">
<polygon fill="#ffffff" stroke="#ff0000" points="1471.9092,-245.5 1471.9092,-263.5 1584.0908,-263.5 1584.0908,-245.5 1471.9092,-245.5"/>
<text text-anchor="middle" x="1528" y="-251.5" font-family="Helvetica,sans-Serif" font-size="10.00" fill="#000000">base_graph_impl.hpp</text>
</a>
</g>
</g>
<!-- Node40&#45;&gt;Node43 -->
<g id="edge59" class="edge">
<title>Node40&#45;&gt;Node43</title>
<path fill="none" stroke="#191970" d="M1528,-305.3873C1528,-297.0174 1528,-284.3414 1528,-273.735"/>
<polygon fill="#191970" stroke="#191970" points="1531.5001,-273.6984 1528,-263.6985 1524.5001,-273.6985 1531.5001,-273.6984"/>
</g>
<!-- Node41&#45;&gt;Node32 -->
<g id="edge54" class="edge">
<title>Node41&#45;&gt;Node32</title>
<path fill="none" stroke="#191970" d="M1655.6047,-245.1047C1634.5082,-224.0082 1583.148,-172.648 1556.5599,-146.0599"/>
<polygon fill="#191970" stroke="#191970" points="1558.7106,-143.2608 1549.1646,-138.6646 1553.7608,-148.2106 1558.7106,-143.2608"/>
</g>
<!-- Node43&#45;&gt;Node8 -->
<g id="edge67" class="edge">
<title>Node43&#45;&gt;Node8</title>
<path fill="none" stroke="#191970" d="M1524.7939,-245.2788C1518.2043,-227.915 1501.3301,-190.7038 1473,-175 1400.4308,-134.7739 825.5658,-148.9124 704.5281,-138.7428"/>
<polygon fill="#191970" stroke="#191970" points="704.5708,-135.2286 694.2636,-137.6801 703.8499,-142.1914 704.5708,-135.2286"/>
</g>
<!-- Node43&#45;&gt;Node22 -->
<g id="edge68" class="edge">
<title>Node43&#45;&gt;Node22</title>
<path fill="none" stroke="#191970" d="M1492.7818,-245.4493C1483.1831,-243.3104 1472.7439,-241.2814 1463,-240 1085.4698,-190.3519 983.0983,-263.5316 607,-204 602.2732,-203.2518 597.3632,-202.2252 592.5311,-201.061"/>
<polygon fill="#191970" stroke="#191970" points="593.3655,-197.6616 582.8058,-198.5232 591.598,-204.4348 593.3655,-197.6616"/>
</g>
<!-- Node43&#45;&gt;Node26 -->
<g id="edge71" class="edge">
<title>Node43&#45;&gt;Node26</title>
<path fill="none" stroke="#191970" d="M1525.8368,-245.3225C1522.053,-230.1431 1513.4341,-199.0926 1501,-175 1488.5997,-150.973 1459.2457,-141.9741 1475,-120 1488.8422,-100.6929 1552.6713,-84.3069 1592.1624,-75.787"/>
<polygon fill="#191970" stroke="#191970" points="1593.0474,-79.1775 1602.1133,-73.6949 1591.6071,-72.3273 1593.0474,-79.1775"/>
</g>
<!-- Node43&#45;&gt;Node32 -->
<g id="edge69" class="edge">
<title>Node43&#45;&gt;Node32</title>
<path fill="none" stroke="#191970" d="M1531.821,-245.3967C1535.777,-235.4387 1541.6952,-218.9057 1544,-204 1546.8706,-185.4352 1545.2049,-163.9943 1543.2213,-148.8945"/>
<polygon fill="#191970" stroke="#191970" points="1546.6438,-148.1135 1541.7125,-138.7363 1539.7198,-149.142 1546.6438,-148.1135"/>
</g>
<!-- Node46 -->
<g id="node37" class="node">
<title>Node46</title>
<g id="a_node37"><a xlink:href="cycles_8hpp.html" target="_top" xlink:title="../algorithm/graph\l/cycles.hpp">
<polygon fill="#ffffff" stroke="#000000" points="1710.0913,-175.5 1710.0913,-203.5 1803.9087,-203.5 1803.9087,-175.5 1710.0913,-175.5"/>
<text text-anchor="start" x="1718.0913" y="-191.5" font-family="Helvetica,sans-Serif" font-size="10.00" fill="#000000">../algorithm/graph</text>
<text text-anchor="middle" x="1757" y="-181.5" font-family="Helvetica,sans-Serif" font-size="10.00" fill="#000000">/cycles.hpp</text>
</a>
</g>
</g>
<!-- Node43&#45;&gt;Node46 -->
<g id="edge60" class="edge">
<title>Node43&#45;&gt;Node46</title>
<path fill="none" stroke="#191970" d="M1559.8415,-245.462C1596.0604,-235.1816 1655.9068,-218.1946 1700.1803,-205.6279"/>
<polygon fill="#191970" stroke="#191970" points="1701.2771,-208.9549 1709.9414,-202.8573 1699.3657,-202.2209 1701.2771,-208.9549"/>
</g>
<!-- Node43&#45;&gt;Node50 -->
<g id="edge70" class="edge">
<title>Node43&#45;&gt;Node50</title>
<path fill="none" stroke="#191970" d="M1511.8707,-245.462C1492.5017,-234.6087 1459.7931,-216.2806 1437.11,-203.5702"/>
<polygon fill="#191970" stroke="#191970" points="1438.801,-200.5058 1428.3663,-198.6708 1435.3791,-206.6125 1438.801,-200.5058"/>
</g>
<!-- Node46&#45;&gt;Node2 -->
<g id="edge61" class="edge">
<title>Node46&#45;&gt;Node2</title>
<path fill="none" stroke="#191970" d="M1731.122,-175.3716C1701.4607,-159.7271 1650.9992,-134.7708 1605,-120 1543.1241,-100.131 1470.2941,-86.7754 1417.6497,-78.8158"/>
<polygon fill="#191970" stroke="#191970" points="1418.1364,-75.3497 1407.7309,-77.3437 1417.1088,-82.2739 1418.1364,-75.3497"/>
</g>
<!-- Node47 -->
<g id="node38" class="node">
<title>Node47</title>
<g id="a_node38"><a xlink:href="numerics_8hpp.html" target="_top" xlink:title="../../utils/numerics.hpp">
<polygon fill="#ffffff" stroke="#ff0000" points="1804.3696,-120.5 1804.3696,-138.5 1917.6304,-138.5 1917.6304,-120.5 1804.3696,-120.5"/>
<text text-anchor="middle" x="1861" y="-126.5" font-family="Helvetica,sans-Serif" font-size="10.00" fill="#000000">../../utils/numerics.hpp</text>
</a>
</g>
</g>
<!-- Node46&#45;&gt;Node47 -->
<g id="edge62" class="edge">
<title>Node46&#45;&gt;Node47</title>
<path fill="none" stroke="#191970" d="M1781.3834,-175.4327C1797.8449,-165.9356 1819.5082,-153.4376 1836.081,-143.8763"/>
<polygon fill="#191970" stroke="#191970" points="1838.26,-146.66 1845.1728,-138.6311 1834.7619,-140.5967 1838.26,-146.66"/>
</g>
<!-- Node47&#45;&gt;Node3 -->
<g id="edge64" class="edge">
<title>Node47&#45;&gt;Node3</title>
<path fill="none" stroke="#191970" d="M1861.5537,-120.4132C1861.9766,-104.6525 1860.3795,-72.2811 1842,-55 1812.5962,-27.3535 1693.9049,-15.6277 1635.6192,-11.4594"/>
<polygon fill="#191970" stroke="#191970" points="1635.6893,-7.9561 1625.4741,-10.7669 1635.2125,-14.9399 1635.6893,-7.9561"/>
</g>
<!-- Node47&#45;&gt;Node24 -->
<g id="edge63" class="edge">
<title>Node47&#45;&gt;Node24</title>
<path fill="none" stroke="#191970" d="M1804.317,-127.2901C1752.4443,-125.2931 1673.5635,-122.3198 1605,-120 1343.2498,-111.1438 683.8067,-135.3995 427,-84 424.3019,-83.46 421.5446,-82.7484 418.8088,-81.9299"/>
<polygon fill="#191970" stroke="#191970" points="419.7331,-78.5469 409.1385,-78.6136 417.4623,-85.1683 419.7331,-78.5469"/>
</g>
<!-- Node47&#45;&gt;Node26 -->
<g id="edge66" class="edge">
<title>Node47&#45;&gt;Node26</title>
<path fill="none" stroke="#191970" d="M1825.2621,-120.4524C1779.1717,-108.784 1699.7175,-88.669 1655.6876,-77.5222"/>
<polygon fill="#191970" stroke="#191970" points="1656.3698,-74.0845 1645.8167,-75.0232 1654.6518,-80.8705 1656.3698,-74.0845"/>
</g>
<!-- Node47&#45;&gt;Node30 -->
<g id="edge65" class="edge">
<title>Node47&#45;&gt;Node30</title>
<path fill="none" stroke="#191970" d="M1853.1023,-120.3873C1845.3139,-111.4007 1833.2233,-97.4499 1823.6698,-86.4267"/>
<polygon fill="#191970" stroke="#191970" points="1826.1663,-83.9631 1816.972,-78.6985 1820.8764,-88.5477 1826.1663,-83.9631"/>
</g>
<!-- Node51&#45;&gt;Node2 -->
<g id="edge79" class="edge">
<title>Node51&#45;&gt;Node2</title>
<path fill="none" stroke="#191970" d="M1770.3199,-367.1126C1639.145,-361.0085 1366.2266,-339.8908 1310,-269 1268.8338,-217.0974 1289.9006,-181.7071 1314,-120 1318.5877,-108.2532 1326.0288,-96.2813 1332.5814,-86.9441"/>
<polygon fill="#191970" stroke="#191970" points="1335.6141,-88.7266 1338.6992,-78.5909 1329.9668,-84.5905 1335.6141,-88.7266"/>
</g>
<!-- Node51&#45;&gt;Node4 -->
<g id="edge84" class="edge">
<title>Node51&#45;&gt;Node4</title>
<path fill="none" stroke="#191970" d="M1770.3338,-366.8645C1485.5757,-355.9811 430.7207,-313.0366 288,-269 274.343,-264.7861 184.8535,-215.9413 177,-204 140.5912,-148.6401 155.1532,-119.082 172,-55 174.4959,-45.5061 179.146,-35.6985 183.6153,-27.6309"/>
<polygon fill="#191970" stroke="#191970" points="186.7623,-29.1843 188.8203,-18.7912 180.7303,-25.6325 186.7623,-29.1843"/>
</g>
<!-- Node51&#45;&gt;Node25 -->
<g id="edge83" class="edge">
<title>Node51&#45;&gt;Node25</title>
<path fill="none" stroke="#191970" d="M1770.3395,-367.6366C1589.3466,-361.8713 1113.5921,-340.1801 975,-269 946.441,-254.3323 921.8781,-225.5462 908.0241,-206.9345"/>
<polygon fill="#191970" stroke="#191970" points="910.7953,-204.7932 902.1127,-198.7216 905.1139,-208.8825 910.7953,-204.7932"/>
</g>
<!-- Node51&#45;&gt;Node26 -->
<g id="edge87" class="edge">
<title>Node51&#45;&gt;Node26</title>
<path fill="none" stroke="#191970" d="M1871.3356,-360.3833C1889.9473,-353.3021 1912.8467,-341.6637 1927,-324 1947.0235,-299.0102 1946,-286.5224 1946,-254.5 1946,-254.5 1946,-254.5 1946,-189.5 1946,-157.4776 1950.765,-141.4629 1927,-120 1907.0069,-101.9436 1729.8047,-80.9295 1656.0215,-72.876"/>
<polygon fill="#191970" stroke="#191970" points="1656.2352,-69.3788 1645.9169,-71.7837 1655.4828,-76.3383 1656.2352,-69.3788"/>
</g>
<!-- Node51&#45;&gt;Node30 -->
<g id="edge82" class="edge">
<title>Node51&#45;&gt;Node30</title>
<path fill="none" stroke="#191970" d="M1891.635,-360.4389C1915.1477,-353.8868 1941.8489,-342.7545 1960,-324 1982.7265,-300.5179 1984,-287.1788 1984,-254.5 1984,-254.5 1984,-254.5 1984,-189.5 1984,-156.8212 1983.2199,-142.9943 1960,-120 1928.4526,-88.759 1877.0513,-76.8409 1843.1276,-72.2967"/>
<polygon fill="#191970" stroke="#191970" points="1843.1183,-68.771 1832.7749,-71.0652 1842.2914,-75.722 1843.1183,-68.771"/>
</g>
<!-- Node51&#45;&gt;Node32 -->
<g id="edge81" class="edge">
<title>Node51&#45;&gt;Node32</title>
<path fill="none" stroke="#191970" d="M1835.4265,-360.3468C1821.2773,-337.6777 1781.8893,-278.0158 1737,-240 1684.778,-195.7743 1612.2101,-160.4963 1571.3019,-142.5181"/>
<polygon fill="#191970" stroke="#191970" points="1572.6678,-139.2955 1562.1005,-138.5321 1569.8852,-145.7187 1572.6678,-139.2955"/>
</g>
<!-- Node51&#45;&gt;Node40 -->
<g id="edge80" class="edge">
<title>Node51&#45;&gt;Node40</title>
<path fill="none" stroke="#191970" d="M1789.6649,-360.4795C1732.5654,-350.446 1640.7037,-334.3042 1582.3962,-324.0584"/>
<polygon fill="#191970" stroke="#191970" points="1582.7262,-320.5629 1572.2713,-322.2793 1581.5146,-327.4572 1582.7262,-320.5629"/>
</g>
<!-- Node51&#45;&gt;Node46 -->
<g id="edge78" class="edge">
<title>Node51&#45;&gt;Node46</title>
<path fill="none" stroke="#191970" d="M1840.3511,-360.4023C1838.439,-338.3542 1831.3989,-280.8747 1808,-240 1801.6799,-228.9597 1792.2895,-218.6934 1783.2829,-210.3398"/>
<polygon fill="#191970" stroke="#191970" points="1785.3676,-207.5116 1775.5535,-203.5197 1780.7362,-212.7604 1785.3676,-207.5116"/>
</g>
<!-- Node52 -->
<g id="node41" class="node">
<title>Node52</title>
<polygon fill="#ffffff" stroke="#bfbfbf" points="1888.3301,-305.5 1888.3301,-323.5 1917.6699,-323.5 1917.6699,-305.5 1888.3301,-305.5"/>
<text text-anchor="middle" x="1903" y="-311.5" font-family="Helvetica,sans-Serif" font-size="10.00" fill="#000000">set</text>
</g>
<!-- Node51&#45;&gt;Node52 -->
<g id="edge85" class="edge">
<title>Node51&#45;&gt;Node52</title>
<path fill="none" stroke="#191970" d="M1851.238,-360.4179C1860.3374,-352.3458 1873.8537,-340.3556 1884.7926,-330.6517"/>
<polygon fill="#191970" stroke="#191970" points="1887.3814,-333.0339 1892.5395,-323.7795 1882.7361,-327.7974 1887.3814,-333.0339"/>
</g>
<!-- Node53 -->
<g id="node42" class="node">
<title>Node53</title>
<polygon fill="#ffffff" stroke="#bfbfbf" points="2011.5986,-305.5 2011.5986,-323.5 2070.4014,-323.5 2070.4014,-305.5 2011.5986,-305.5"/>
<text text-anchor="middle" x="2041" y="-311.5" font-family="Helvetica,sans-Serif" font-size="10.00" fill="#000000">stdexcept</text>
</g>
<!-- Node51&#45;&gt;Node53 -->
<g id="edge86" class="edge">
<title>Node51&#45;&gt;Node53</title>
<path fill="none" stroke="#191970" d="M1874.0259,-360.4179C1909.0137,-350.7962 1964.2451,-335.6076 2001.5103,-325.3597"/>
<polygon fill="#191970" stroke="#191970" points="2002.7988,-328.6353 2011.5128,-322.609 2000.9427,-321.8859 2002.7988,-328.6353"/>
</g>
<!-- Node54&#45;&gt;Node2 -->
<g id="edge95" class="edge">
<title>Node54&#45;&gt;Node2</title>
<path fill="none" stroke="#191970" d="M2187.7608,-245.4742C2142.7431,-235.3753 2067.6452,-218.5244 2003,-204 1874.5491,-175.1398 1841.8916,-170.2457 1714,-139 1681.8501,-131.1454 1674.3441,-127.0121 1642,-120 1566.025,-103.5288 1478.1239,-89.1112 1417.9708,-79.9438"/>
<polygon fill="#191970" stroke="#191970" points="1418.2286,-76.4431 1407.8173,-78.4061 1417.1804,-83.3641 1418.2286,-76.4431"/>
</g>
<!-- Node55 -->
<g id="node44" class="node">
<title>Node55</title>
<polygon fill="#ffffff" stroke="#bfbfbf" points="2182.2803,-180.5 2182.2803,-198.5 2273.7197,-198.5 2273.7197,-180.5 2182.2803,-180.5"/>
<text text-anchor="middle" x="2228" y="-186.5" font-family="Helvetica,sans-Serif" font-size="10.00" fill="#000000">pybind11/eigen.h</text>
</g>
<!-- Node54&#45;&gt;Node55 -->
<g id="edge89" class="edge">
<title>Node54&#45;&gt;Node55</title>
<path fill="none" stroke="#191970" d="M2228,-245.462C2228,-236.061 2228,-221.0518 2228,-208.943"/>
<polygon fill="#191970" stroke="#191970" points="2231.5001,-208.8821 2228,-198.8821 2224.5001,-208.8822 2231.5001,-208.8821"/>
</g>
<!-- Node54&#45;&gt;Node56 -->
<g id="edge90" class="edge">
<title>Node54&#45;&gt;Node56</title>
<path fill="none" stroke="#191970" d="M2264.8471,-245.462C2312.1785,-233.8524 2394.3786,-213.6902 2446.1174,-200.9995"/>
<polygon fill="#191970" stroke="#191970" points="2447.1613,-204.3473 2456.0396,-198.5658 2445.4937,-197.5488 2447.1613,-204.3473"/>
</g>
<!-- Node54&#45;&gt;Node57 -->
<g id="edge91" class="edge">
<title>Node54&#45;&gt;Node57</title>
<path fill="none" stroke="#191970" d="M2241.9204,-245.3782C2254.5549,-236.3635 2272.7325,-221.422 2283,-204 2293.003,-187.0268 2297.4564,-164.7661 2299.4334,-149.0119"/>
<polygon fill="#191970" stroke="#191970" points="2302.9361,-149.165 2300.4793,-138.8589 2295.9729,-148.4476 2302.9361,-149.165"/>
</g>
<!-- Node54&#45;&gt;Node58 -->
<g id="edge92" class="edge">
<title>Node54&#45;&gt;Node58</title>
<path fill="none" stroke="#191970" d="M2273.8362,-245.465C2316.1142,-236.2432 2374.7181,-220.9154 2391,-204 2405.1861,-189.2619 2409.5636,-165.5876 2410.7871,-148.8885"/>
<polygon fill="#191970" stroke="#191970" points="2414.2948,-148.7738 2411.212,-138.6374 2407.3008,-148.4838 2414.2948,-148.7738"/>
</g>
<!-- Node59 -->
<g id="node48" class="node">
<title>Node59</title>
<polygon fill="#ffffff" stroke="#bfbfbf" points="2126.2803,-120.5 2126.2803,-138.5 2227.7197,-138.5 2227.7197,-120.5 2126.2803,-120.5"/>
<text text-anchor="middle" x="2177" y="-126.5" font-family="Helvetica,sans-Serif" font-size="10.00" fill="#000000">pybind11/stl_bind.h</text>
</g>
<!-- Node54&#45;&gt;Node59 -->
<g id="edge93" class="edge">
<title>Node54&#45;&gt;Node59</title>
<path fill="none" stroke="#191970" d="M2212.329,-245.3716C2199.066,-236.6497 2180.9788,-222.1579 2173,-204 2165.2849,-186.4423 2167.8322,-164.2732 2171.3518,-148.7001"/>
<polygon fill="#191970" stroke="#191970" points="2174.8263,-149.2453 2173.9536,-138.6865 2168.0512,-147.485 2174.8263,-149.2453"/>
</g>
<!-- Node60 -->
<g id="node49" class="node">
<title>Node60</title>
<polygon fill="#ffffff" stroke="#bfbfbf" points="2330.2192,-180.5 2330.2192,-198.5 2381.7808,-198.5 2381.7808,-180.5 2330.2192,-180.5"/>
<text text-anchor="middle" x="2356" y="-186.5" font-family="Helvetica,sans-Serif" font-size="10.00" fill="#000000">sstream</text>
</g>
<!-- Node54&#45;&gt;Node60 -->
<g id="edge94" class="edge">
<title>Node54&#45;&gt;Node60</title>
<path fill="none" stroke="#191970" d="M2245.7979,-245.462C2267.3605,-234.5122 2303.9055,-215.9542 2328.9573,-203.2326"/>
<polygon fill="#191970" stroke="#191970" points="2330.6092,-206.3193 2337.9407,-198.6708 2327.4397,-200.0779 2330.6092,-206.3193"/>
</g>
<!-- Node61 -->
<g id="node50" class="node">
<title>Node61</title>
<g id="a_node50"><a xlink:href="opaquecontainers_8hpp.html" target="_top" xlink:title="opaquecontainers.hpp">
<polygon fill="#ffffff" stroke="#000000" points="2011.5151,-180.5 2011.5151,-198.5 2126.4849,-198.5 2126.4849,-180.5 2011.5151,-180.5"/>
<text text-anchor="middle" x="2069" y="-186.5" font-family="Helvetica,sans-Serif" font-size="10.00" fill="#000000">opaquecontainers.hpp</text>
</a>
</g>
</g>
<!-- Node54&#45;&gt;Node61 -->
<g id="edge96" class="edge">
<title>Node54&#45;&gt;Node61</title>
<path fill="none" stroke="#191970" d="M2205.8917,-245.462C2178.5579,-234.2878 2131.8424,-215.1903 2100.697,-202.4579"/>
<polygon fill="#191970" stroke="#191970" points="2101.7571,-199.1101 2091.1762,-198.5658 2099.1082,-205.5896 2101.7571,-199.1101"/>
</g>
<!-- Node61&#45;&gt;Node2 -->
<g id="edge97" class="edge">
<title>Node61&#45;&gt;Node2</title>
<path fill="none" stroke="#191970" d="M2015.8123,-180.4787C1960.4977,-170.9138 1871.4616,-155.0042 1795,-139 1758.8072,-131.4245 1750.3571,-126.7433 1714,-120 1611.8085,-101.0462 1492.431,-85.9418 1418.0112,-77.3524"/>
<polygon fill="#191970" stroke="#191970" points="1418.1486,-73.8453 1407.8151,-76.1839 1417.3516,-80.7998 1418.1486,-73.8453"/>
</g>
<!-- Node61&#45;&gt;Node3 -->
<g id="edge99" class="edge">
<title>Node61&#45;&gt;Node3</title>
<path fill="none" stroke="#191970" d="M2069.9575,-180.2C2071.9319,-155.4656 2073.5007,-87.7216 2036,-55 2005.9747,-28.8012 1731.6156,-14.8909 1635.8221,-10.8008"/>
<polygon fill="#191970" stroke="#191970" points="1635.7041,-7.2929 1625.5665,-10.3715 1635.4113,-14.2868 1635.7041,-7.2929"/>
</g>
<!-- Node61&#45;&gt;Node26 -->
<g id="edge103" class="edge">
<title>Node61&#45;&gt;Node26</title>
<path fill="none" stroke="#191970" d="M2058.0785,-180.2832C2039.3468,-165.02 1999.3018,-134.7216 1960,-120 1904.4357,-99.1869 1728.7093,-79.8996 1655.9878,-72.5929"/>
<polygon fill="#191970" stroke="#191970" points="1655.9301,-69.07 1645.6329,-71.5637 1655.2377,-76.0357 1655.9301,-69.07"/>
</g>
<!-- Node61&#45;&gt;Node32 -->
<g id="edge98" class="edge">
<title>Node61&#45;&gt;Node32</title>
<path fill="none" stroke="#191970" d="M2011.3807,-182.9647C1912.2544,-171.7217 1710.0629,-148.7888 1605.6528,-136.9464"/>
<polygon fill="#191970" stroke="#191970" points="1605.8858,-133.4505 1595.555,-135.8011 1605.0969,-140.4059 1605.8858,-133.4505"/>
</g>
<!-- Node61&#45;&gt;Node57 -->
<g id="edge100" class="edge">
<title>Node61&#45;&gt;Node57</title>
<path fill="none" stroke="#191970" d="M2103.9839,-180.4524C2144.6171,-169.9439 2211.74,-152.5845 2256.166,-141.095"/>
<polygon fill="#191970" stroke="#191970" points="2257.3062,-144.4154 2266.1113,-138.5229 2255.5535,-137.6383 2257.3062,-144.4154"/>
</g>
<!-- Node61&#45;&gt;Node58 -->
<g id="edge101" class="edge">
<title>Node61&#45;&gt;Node58</title>
<path fill="none" stroke="#191970" d="M2124.0722,-180.4673C2181.0643,-171.0237 2272.9258,-155.5347 2362.448,-139.0641"/>
<polygon fill="#191970" stroke="#191970" points="2363.3055,-142.465 2372.504,-137.2079 2362.0348,-135.5813 2363.3055,-142.465"/>
</g>
<!-- Node61&#45;&gt;Node59 -->
<g id="edge102" class="edge">
<title>Node61&#45;&gt;Node59</title>
<path fill="none" stroke="#191970" d="M2085.4029,-180.3873C2103.1084,-170.5509 2131.5192,-154.7671 2152.0075,-143.3847"/>
<polygon fill="#191970" stroke="#191970" points="2153.7548,-146.4179 2160.7966,-138.5019 2150.3553,-140.2988 2153.7548,-146.4179"/>
</g>
</g>
</svg>
