<?xml version="1.0" encoding="UTF-8" standalone="no"?>
<!DOCTYPE svg PUBLIC "-//W3C//DTD SVG 1.1//EN"
 "http://www.w3.org/Graphics/SVG/1.1/DTD/svg11.dtd">
<!-- Generated by graphviz version 2.40.1 (20161225.0304)
 -->
<!-- Title: include/indigox/utils/quad.hpp Pages: 1 -->
<!--zoomable 222 -->
<svg id="main" version="1.1" xmlns="http://www.w3.org/2000/svg" xmlns:xlink="http://www.w3.org/1999/xlink" xml:space="preserve" onload="init(evt)">
<style type="text/css"><![CDATA[
.edge:hover path { stroke: red; }
.edge:hover polygon { stroke: red; fill: red; }
]]></style>
<script type="text/javascript"><![CDATA[
var edges = document.getElementsByTagName('g');
if (edges && edges.length) {
  for (var i=0;i<edges.length;i++) {
    if (edges[i].id.substr(0,4)=='edge') {
      edges[i].setAttribute('class','edge');
    }
  }
}
]]></script>
        <defs>
                <circle id="rim" cx="0" cy="0" r="7"/>
                <circle id="rim2" cx="0" cy="0" r="3.5"/>
                <g id="zoomPlus">
                        <use xlink:href="#rim" fill="#404040">
                                <set attributeName="fill" to="#808080" begin="zoomplus.mouseover" end="zoomplus.mouseout"/>
                        </use>
                        <path d="M-4,0h8M0,-4v8" fill="none" stroke="white" stroke-width="1.5" pointer-events="none"/>
                </g>
                <g id="zoomMin">
                        <use xlink:href="#rim" fill="#404040">
                                <set attributeName="fill" to="#808080" begin="zoomminus.mouseover" end="zoomminus.mouseout"/>
                        </use>
                        <path d="M-4,0h8" fill="none" stroke="white" stroke-width="1.5" pointer-events="none"/>
                </g>
                <g id="dirArrow">
                        <path fill="none" stroke="white" stroke-width="1.5" d="M0,-3.0v7 M-2.5,-0.5L0,-3.0L2.5,-0.5"/>
                </g>
               <g id="resetDef">
                       <use xlink:href="#rim2" fill="#404040">
                               <set attributeName="fill" to="#808080" begin="reset.mouseover" end="reset.mouseout"/>
                       </use>
               </g>
        </defs>

<script type="text/javascript">
var viewWidth = 1217;
var viewHeight = 222;
var sectionId = 'dynsection-1';
</script>
<script xlink:href="svgpan.js"/>
<svg id="graph" class="graph">
<g id="viewport">
<title>include/indigox/utils/quad.hpp</title>
<polygon fill="#ffffff" stroke="transparent" points="-4,4 -4,-218 1213.4071,-218 1213.4071,4 -4,4"/>
<!-- Node20 -->
<g id="node1" class="node">
<title>Node20</title>
<polygon fill="#bfbfbf" stroke="#000000" points="488.4715,-185.5 488.4715,-213.5 591.1903,-213.5 591.1903,-185.5 488.4715,-185.5"/>
<text text-anchor="start" x="496.4715" y="-201.5" font-family="Helvetica,sans-Serif" font-size="10.00" fill="#000000">include/indigox/utils</text>
<text text-anchor="middle" x="539.8309" y="-191.5" font-family="Helvetica,sans-Serif" font-size="10.00" fill="#000000">/quad.hpp</text>
</g>
<!-- Node21 -->
<g id="node2" class="node">
<title>Node21</title>
<g id="a_node2"><a xlink:href="athenaeum_8hpp.html" target="_top" xlink:title="include/indigox/classes\l/athenaeum.hpp">
<polygon fill="#ffffff" stroke="#000000" points="108.6908,-120.5 108.6908,-148.5 226.971,-148.5 226.971,-120.5 108.6908,-120.5"/>
<text text-anchor="start" x="116.6908" y="-136.5" font-family="Helvetica,sans-Serif" font-size="10.00" fill="#000000">include/indigox/classes</text>
<text text-anchor="middle" x="167.8309" y="-126.5" font-family="Helvetica,sans-Serif" font-size="10.00" fill="#000000">/athenaeum.hpp</text>
</a>
</g>
</g>
<!-- Node20&#45;&gt;Node21 -->
<g id="edge1" class="edge">
<title>Node20&#45;&gt;Node21</title>
<path fill="none" stroke="#191970" d="M478.144,-188.7214C408.4422,-176.5423 295.7848,-156.8575 227.0967,-144.8556"/>
<polygon fill="#191970" stroke="#191970" points="477.6527,-192.1885 488.1059,-190.462 478.8576,-185.2929 477.6527,-192.1885"/>
</g>
<!-- Node26 -->
<g id="node7" class="node">
<title>Node26</title>
<g id="a_node7"><a xlink:href="dihedral_8hpp.html" target="_top" xlink:title="include/indigox/classes\l/dihedral.hpp">
<polygon fill="#ffffff" stroke="#000000" points="548.6908,-120.5 548.6908,-148.5 666.971,-148.5 666.971,-120.5 548.6908,-120.5"/>
<text text-anchor="start" x="556.6908" y="-136.5" font-family="Helvetica,sans-Serif" font-size="10.00" fill="#000000">include/indigox/classes</text>
<text text-anchor="middle" x="607.8309" y="-126.5" font-family="Helvetica,sans-Serif" font-size="10.00" fill="#000000">/dihedral.hpp</text>
</a>
</g>
</g>
<!-- Node20&#45;&gt;Node26 -->
<g id="edge8" class="edge">
<title>Node20&#45;&gt;Node26</title>
<path fill="none" stroke="#191970" d="M561.9974,-178.3115C572.1977,-168.5612 584.0214,-157.259 593.1047,-148.5765"/>
<polygon fill="#191970" stroke="#191970" points="559.3962,-175.9561 554.5859,-185.396 564.2331,-181.0162 559.3962,-175.9561"/>
</g>
<!-- Node36 -->
<g id="node17" class="node">
<title>Node36</title>
<g id="a_node17"><a xlink:href="parameterised_8hpp.html" target="_top" xlink:title="include/indigox/classes\l/parameterised.hpp">
<polygon fill="#ffffff" stroke="#000000" points="376.6908,-120.5 376.6908,-148.5 494.971,-148.5 494.971,-120.5 376.6908,-120.5"/>
<text text-anchor="start" x="384.6908" y="-136.5" font-family="Helvetica,sans-Serif" font-size="10.00" fill="#000000">include/indigox/classes</text>
<text text-anchor="middle" x="435.8309" y="-126.5" font-family="Helvetica,sans-Serif" font-size="10.00" fill="#000000">/parameterised.hpp</text>
</a>
</g>
</g>
<!-- Node20&#45;&gt;Node36 -->
<g id="edge23" class="edge">
<title>Node20&#45;&gt;Node36</title>
<path fill="none" stroke="#191970" d="M508.6551,-180.0151C492.4708,-169.8999 473.0626,-157.7698 458.3533,-148.5765"/>
<polygon fill="#191970" stroke="#191970" points="506.9294,-183.0639 517.2645,-185.396 510.6395,-177.1279 506.9294,-183.0639"/>
</g>
<!-- Node37 -->
<g id="node18" class="node">
<title>Node37</title>
<g id="a_node18"><a xlink:href="forcefield_8cpp.html" target="_top" xlink:title="src/classes/forcefield.cpp">
<polygon fill="#ffffff" stroke="#000000" points="684.9764,-125.5 684.9764,-143.5 812.6854,-143.5 812.6854,-125.5 684.9764,-125.5"/>
<text text-anchor="middle" x="748.8309" y="-131.5" font-family="Helvetica,sans-Serif" font-size="10.00" fill="#000000">src/classes/forcefield.cpp</text>
</a>
</g>
</g>
<!-- Node20&#45;&gt;Node37 -->
<g id="edge27" class="edge">
<title>Node20&#45;&gt;Node37</title>
<path fill="none" stroke="#191970" d="M594.5724,-182.4751C634.7097,-169.9923 687.6227,-153.536 719.8874,-143.5016"/>
<polygon fill="#191970" stroke="#191970" points="593.4329,-179.1641 584.9235,-185.476 595.5118,-185.8483 593.4329,-179.1641"/>
</g>
<!-- Node22 -->
<g id="node3" class="node">
<title>Node22</title>
<g id="a_node3"><a xlink:href="cherrypicker_8hpp.html" target="_top" xlink:title="include/indigox/algorithm\l/cherrypicker.hpp">
<polygon fill="#ffffff" stroke="#000000" points="13.7992,-55.5 13.7992,-83.5 139.8626,-83.5 139.8626,-55.5 13.7992,-55.5"/>
<text text-anchor="start" x="21.7992" y="-71.5" font-family="Helvetica,sans-Serif" font-size="10.00" fill="#000000">include/indigox/algorithm</text>
<text text-anchor="middle" x="76.8309" y="-61.5" font-family="Helvetica,sans-Serif" font-size="10.00" fill="#000000">/cherrypicker.hpp</text>
</a>
</g>
</g>
<!-- Node21&#45;&gt;Node22 -->
<g id="edge2" class="edge">
<title>Node21&#45;&gt;Node22</title>
<path fill="none" stroke="#191970" d="M139.7625,-114.4511C125.7632,-104.4517 109.1703,-92.5995 96.538,-83.5765"/>
<polygon fill="#191970" stroke="#191970" points="137.9136,-117.4316 148.0853,-120.396 141.9823,-111.7355 137.9136,-117.4316"/>
</g>
<!-- Node23 -->
<g id="node4" class="node">
<title>Node23</title>
<g id="a_node4"><a xlink:href="cherrypicker_8cpp.html" target="_top" xlink:title="src/algorithm/cherrypicker.cpp">
<polygon fill="#ffffff" stroke="#000000" points="112.4173,-.5 112.4173,-18.5 261.2445,-18.5 261.2445,-.5 112.4173,-.5"/>
<text text-anchor="middle" x="186.8309" y="-6.5" font-family="Helvetica,sans-Serif" font-size="10.00" fill="#000000">src/algorithm/cherrypicker.cpp</text>
</a>
</g>
</g>
<!-- Node21&#45;&gt;Node23 -->
<g id="edge5" class="edge">
<title>Node21&#45;&gt;Node23</title>
<path fill="none" stroke="#191970" d="M171.5556,-109.9957C175.8019,-82.0593 182.5292,-37.8007 185.427,-18.736"/>
<polygon fill="#191970" stroke="#191970" points="168.053,-109.7485 170.0104,-120.1609 174.9735,-110.8005 168.053,-109.7485"/>
</g>
<!-- Node24 -->
<g id="node5" class="node">
<title>Node24</title>
<g id="a_node5"><a xlink:href="main_8cpp.html" target="_top" xlink:title="src/main.cpp">
<polygon fill="#ffffff" stroke="#000000" points="21.4886,-.5 21.4886,-18.5 94.1732,-18.5 94.1732,-.5 21.4886,-.5"/>
<text text-anchor="middle" x="57.8309" y="-6.5" font-family="Helvetica,sans-Serif" font-size="10.00" fill="#000000">src/main.cpp</text>
</a>
</g>
</g>
<!-- Node21&#45;&gt;Node24 -->
<g id="edge7" class="edge">
<title>Node21&#45;&gt;Node24</title>
<path fill="none" stroke="#191970" d="M98.5711,-121.5695C59.5946,-112.7306 16.4575,-99.7739 4.8309,-84 -12.4037,-60.6176 22.0849,-32.5951 43.1556,-18.5148"/>
<polygon fill="#191970" stroke="#191970" points="97.8503,-124.9946 108.369,-123.7272 99.3558,-118.1584 97.8503,-124.9946"/>
</g>
<!-- Node25 -->
<g id="node6" class="node">
<title>Node25</title>
<g id="a_node6"><a xlink:href="athenaeum_8cpp.html" target="_top" xlink:title="src/classes/athenaeum.cpp">
<polygon fill="#ffffff" stroke="#000000" points="234.245,-60.5 234.245,-78.5 371.4168,-78.5 371.4168,-60.5 234.245,-60.5"/>
<text text-anchor="middle" x="302.8309" y="-66.5" font-family="Helvetica,sans-Serif" font-size="10.00" fill="#000000">src/classes/athenaeum.cpp</text>
</a>
</g>
</g>
<!-- Node21&#45;&gt;Node25 -->
<g id="edge6" class="edge">
<title>Node21&#45;&gt;Node25</title>
<path fill="none" stroke="#191970" d="M206.1562,-116.0471C231.61,-103.7915 263.9177,-88.236 283.9843,-78.5743"/>
<polygon fill="#191970" stroke="#191970" points="204.6155,-112.9042 197.1239,-120.396 207.6523,-119.2113 204.6155,-112.9042"/>
</g>
<!-- Node22&#45;&gt;Node23 -->
<g id="edge3" class="edge">
<title>Node22&#45;&gt;Node23</title>
<path fill="none" stroke="#191970" d="M111.5578,-50.558C131.0964,-39.9006 154.6039,-27.0784 170.0906,-18.6311"/>
<polygon fill="#191970" stroke="#191970" points="109.724,-47.5715 102.621,-55.4327 113.076,-53.7167 109.724,-47.5715"/>
</g>
<!-- Node22&#45;&gt;Node24 -->
<g id="edge4" class="edge">
<title>Node22&#45;&gt;Node24</title>
<path fill="none" stroke="#191970" d="M69.2365,-45.5177C66.2366,-36.0443 62.9723,-25.7359 60.7076,-18.5842"/>
<polygon fill="#191970" stroke="#191970" points="65.9725,-46.8041 72.3282,-55.2808 72.6459,-44.6908 65.9725,-46.8041"/>
</g>
<!-- Node26&#45;&gt;Node23 -->
<g id="edge17" class="edge">
<title>Node26&#45;&gt;Node23</title>
<path fill="none" stroke="#191970" d="M608.9016,-110.2279C608.2782,-92.2542 604.2181,-68.6129 588.8309,-55 535.4002,-7.7306 340.7134,-27.0562 269.8309,-19 267.0928,-18.6888 264.304,-18.3715 261.487,-18.0506"/>
<polygon fill="#191970" stroke="#191970" points="605.4016,-110.299 608.9239,-120.2912 612.4016,-110.2834 605.4016,-110.299"/>
</g>
<!-- Node26&#45;&gt;Node25 -->
<g id="edge18" class="edge">
<title>Node26&#45;&gt;Node25</title>
<path fill="none" stroke="#191970" d="M538.5894,-119.7436C479.0743,-107.0601 395.1631,-89.1774 345.1553,-78.52"/>
<polygon fill="#191970" stroke="#191970" points="538.1523,-123.229 548.6622,-121.8903 539.6114,-116.3827 538.1523,-123.229"/>
</g>
<!-- Node27 -->
<g id="node8" class="node">
<title>Node27</title>
<g id="a_node8"><a xlink:href="molecule__impl_8hpp.html" target="_top" xlink:title="include/indigox/classes\l/molecule_impl.hpp">
<polygon fill="#ffffff" stroke="#000000" points="673.6908,-55.5 673.6908,-83.5 791.971,-83.5 791.971,-55.5 673.6908,-55.5"/>
<text text-anchor="start" x="681.6908" y="-71.5" font-family="Helvetica,sans-Serif" font-size="10.00" fill="#000000">include/indigox/classes</text>
<text text-anchor="middle" x="732.8309" y="-61.5" font-family="Helvetica,sans-Serif" font-size="10.00" fill="#000000">/molecule_impl.hpp</text>
</a>
</g>
</g>
<!-- Node26&#45;&gt;Node27 -->
<g id="edge9" class="edge">
<title>Node26&#45;&gt;Node27</title>
<path fill="none" stroke="#191970" d="M643.9573,-115.7143C663.6711,-105.4631 687.6721,-92.9826 705.7607,-83.5765"/>
<polygon fill="#191970" stroke="#191970" points="642.2115,-112.6771 634.954,-120.396 645.441,-118.8877 642.2115,-112.6771"/>
</g>
<!-- Node29 -->
<g id="node10" class="node">
<title>Node29</title>
<g id="a_node10"><a xlink:href="atom_8cpp.html" target="_top" xlink:title="src/classes/atom.cpp">
<polygon fill="#ffffff" stroke="#000000" points="279.1488,-.5 279.1488,-18.5 388.513,-18.5 388.513,-.5 279.1488,-.5"/>
<text text-anchor="middle" x="333.8309" y="-6.5" font-family="Helvetica,sans-Serif" font-size="10.00" fill="#000000">src/classes/atom.cpp</text>
</a>
</g>
</g>
<!-- Node26&#45;&gt;Node29 -->
<g id="edge19" class="edge">
<title>Node26&#45;&gt;Node29</title>
<path fill="none" stroke="#191970" d="M620.8693,-111.3812C628.7759,-93.943 635.0427,-70.4629 621.8309,-55 620.8842,-53.892 472.1144,-30.8096 388.7963,-17.9579"/>
<polygon fill="#191970" stroke="#191970" points="617.725,-109.8439 616.4213,-120.3582 623.9973,-112.9517 617.725,-109.8439"/>
</g>
<!-- Node31 -->
<g id="node12" class="node">
<title>Node31</title>
<g id="a_node12"><a xlink:href="dihedral_8cpp.html" target="_top" xlink:title="src/classes/dihedral.cpp">
<polygon fill="#ffffff" stroke="#000000" points="941.474,-.5 941.474,-18.5 1064.1878,-18.5 1064.1878,-.5 941.474,-.5"/>
<text text-anchor="middle" x="1002.8309" y="-6.5" font-family="Helvetica,sans-Serif" font-size="10.00" fill="#000000">src/classes/dihedral.cpp</text>
</a>
</g>
</g>
<!-- Node26&#45;&gt;Node31 -->
<g id="edge20" class="edge">
<title>Node26&#45;&gt;Node31</title>
<path fill="none" stroke="#191970" d="M677.5404,-118.0022C714.4365,-108.8328 760.3616,-96.7241 800.8309,-84 866.9757,-63.2032 943.3241,-33.4286 980.3589,-18.6066"/>
<polygon fill="#191970" stroke="#191970" points="676.2552,-114.7143 667.3852,-120.5085 677.9326,-121.5103 676.2552,-114.7143"/>
</g>
<!-- Node32 -->
<g id="node13" class="node">
<title>Node32</title>
<g id="a_node13"><a xlink:href="molecule_8cpp.html" target="_top" xlink:title="src/classes/molecule.cpp">
<polygon fill="#ffffff" stroke="#000000" points="1082.2547,-.5 1082.2547,-18.5 1209.4071,-18.5 1209.4071,-.5 1082.2547,-.5"/>
<text text-anchor="middle" x="1145.8309" y="-6.5" font-family="Helvetica,sans-Serif" font-size="10.00" fill="#000000">src/classes/molecule.cpp</text>
</a>
</g>
</g>
<!-- Node26&#45;&gt;Node32 -->
<g id="edge21" class="edge">
<title>Node26&#45;&gt;Node32</title>
<path fill="none" stroke="#191970" d="M677.2351,-119.7327C757.4244,-103.3625 779.3996,-101.4472 855.8309,-84 949.586,-62.5983 1059.283,-33.2224 1112.9189,-18.5742"/>
<polygon fill="#191970" stroke="#191970" points="676.2507,-116.3617 667.1597,-121.8027 677.6595,-123.2185 676.2507,-116.3617"/>
</g>
<!-- Node35 -->
<g id="node16" class="node">
<title>Node35</title>
<g id="a_node16"><a xlink:href="parameterised_8cpp.html" target="_top" xlink:title="src/classes/parameterised.cpp">
<polygon fill="#ffffff" stroke="#000000" points="428.3041,-60.5 428.3041,-78.5 579.3578,-78.5 579.3578,-60.5 428.3041,-60.5"/>
<text text-anchor="middle" x="503.8309" y="-66.5" font-family="Helvetica,sans-Serif" font-size="10.00" fill="#000000">src/classes/parameterised.cpp</text>
</a>
</g>
</g>
<!-- Node26&#45;&gt;Node35 -->
<g id="edge22" class="edge">
<title>Node26&#45;&gt;Node35</title>
<path fill="none" stroke="#191970" d="M576.7475,-115.0729C557.3939,-102.9769 533.4017,-87.9818 518.3498,-78.5743"/>
<polygon fill="#191970" stroke="#191970" points="574.9294,-118.0639 585.2645,-120.396 578.6395,-112.1279 574.9294,-118.0639"/>
</g>
<!-- Node28 -->
<g id="node9" class="node">
<title>Node28</title>
<g id="a_node9"><a xlink:href="angle_8cpp.html" target="_top" xlink:title="src/classes/angle.cpp">
<polygon fill="#ffffff" stroke="#000000" points="812.0306,-.5 812.0306,-18.5 923.6312,-18.5 923.6312,-.5 812.0306,-.5"/>
<text text-anchor="middle" x="867.8309" y="-6.5" font-family="Helvetica,sans-Serif" font-size="10.00" fill="#000000">src/classes/angle.cpp</text>
</a>
</g>
</g>
<!-- Node27&#45;&gt;Node28 -->
<g id="edge10" class="edge">
<title>Node27&#45;&gt;Node28</title>
<path fill="none" stroke="#191970" d="M773.8304,-51.278C798.119,-40.4831 827.8496,-27.2695 847.286,-18.6311"/>
<polygon fill="#191970" stroke="#191970" points="772.199,-48.1729 764.4824,-55.4327 775.042,-54.5696 772.199,-48.1729"/>
</g>
<!-- Node27&#45;&gt;Node29 -->
<g id="edge11" class="edge">
<title>Node27&#45;&gt;Node29</title>
<path fill="none" stroke="#191970" d="M663.6259,-55.6458C662.3512,-55.4258 661.0853,-55.2102 659.8309,-55 543.4749,-35.4987 513.608,-35.7962 396.8309,-19 394.2033,-18.6221 391.5146,-18.2315 388.7994,-17.834"/>
<polygon fill="#191970" stroke="#191970" points="663.0642,-59.1008 673.5233,-57.4103 664.2929,-52.2095 663.0642,-59.1008"/>
</g>
<!-- Node30 -->
<g id="node11" class="node">
<title>Node30</title>
<g id="a_node11"><a xlink:href="bond_8cpp.html" target="_top" xlink:title="src/classes/bond.cpp">
<polygon fill="#ffffff" stroke="#000000" points="406.1415,-.5 406.1415,-18.5 515.5204,-18.5 515.5204,-.5 406.1415,-.5"/>
<text text-anchor="middle" x="460.8309" y="-6.5" font-family="Helvetica,sans-Serif" font-size="10.00" fill="#000000">src/classes/bond.cpp</text>
</a>
</g>
</g>
<!-- Node27&#45;&gt;Node30 -->
<g id="edge12" class="edge">
<title>Node27&#45;&gt;Node30</title>
<path fill="none" stroke="#191970" d="M663.4981,-54.206C612.4394,-42.943 544.7236,-28.0057 501.9549,-18.5715"/>
<polygon fill="#191970" stroke="#191970" points="662.9563,-57.6705 673.4755,-56.4069 664.4642,-50.8349 662.9563,-57.6705"/>
</g>
<!-- Node27&#45;&gt;Node31 -->
<g id="edge13" class="edge">
<title>Node27&#45;&gt;Node31</title>
<path fill="none" stroke="#191970" d="M801.9898,-54.1314C852.6749,-42.868 919.7574,-27.9608 962.1123,-18.5486"/>
<polygon fill="#191970" stroke="#191970" points="801.0861,-50.7467 792.0836,-56.3327 802.6047,-57.58 801.0861,-50.7467"/>
</g>
<!-- Node27&#45;&gt;Node32 -->
<g id="edge14" class="edge">
<title>Node27&#45;&gt;Node32</title>
<path fill="none" stroke="#191970" d="M802.3059,-59.4068C881.0335,-47.9694 1008.19,-29.4963 1083.73,-18.5219"/>
<polygon fill="#191970" stroke="#191970" points="801.3966,-56.002 792.0037,-60.9035 802.4031,-62.9293 801.3966,-56.002"/>
</g>
<!-- Node33 -->
<g id="node14" class="node">
<title>Node33</title>
<g id="a_node14"><a xlink:href="residue_8cpp.html" target="_top" xlink:title="src/classes/residue.cpp">
<polygon fill="#ffffff" stroke="#000000" points="533.8656,-.5 533.8656,-18.5 653.7962,-18.5 653.7962,-.5 533.8656,-.5"/>
<text text-anchor="middle" x="593.8309" y="-6.5" font-family="Helvetica,sans-Serif" font-size="10.00" fill="#000000">src/classes/residue.cpp</text>
</a>
</g>
</g>
<!-- Node27&#45;&gt;Node33 -->
<g id="edge15" class="edge">
<title>Node27&#45;&gt;Node33</title>
<path fill="none" stroke="#191970" d="M690.9483,-51.4212C665.8794,-40.6001 635.0854,-27.3077 614.9845,-18.6311"/>
<polygon fill="#191970" stroke="#191970" points="689.6733,-54.6829 700.2416,-55.4327 692.4475,-48.2561 689.6733,-54.6829"/>
</g>
<!-- Node34 -->
<g id="node15" class="node">
<title>Node34</title>
<g id="a_node15"><a xlink:href="molecular_8cpp.html" target="_top" xlink:title="src/graph/molecular.cpp">
<polygon fill="#ffffff" stroke="#000000" points="671.7474,-.5 671.7474,-18.5 793.9144,-18.5 793.9144,-.5 671.7474,-.5"/>
<text text-anchor="middle" x="732.8309" y="-6.5" font-family="Helvetica,sans-Serif" font-size="10.00" fill="#000000">src/graph/molecular.cpp</text>
</a>
</g>
</g>
<!-- Node27&#45;&gt;Node34 -->
<g id="edge16" class="edge">
<title>Node27&#45;&gt;Node34</title>
<path fill="none" stroke="#191970" d="M732.8309,-45.2151C732.8309,-35.8253 732.8309,-25.6598 732.8309,-18.5842"/>
<polygon fill="#191970" stroke="#191970" points="729.331,-45.2808 732.8309,-55.2808 736.331,-45.2809 729.331,-45.2808"/>
</g>
<!-- Node36&#45;&gt;Node23 -->
<g id="edge24" class="edge">
<title>Node36&#45;&gt;Node23</title>
<path fill="none" stroke="#191970" d="M425.4635,-111.0204C416.2909,-92.9792 401.1951,-68.8714 380.8309,-55 359.0298,-40.1498 294.3594,-26.846 245.6309,-18.516"/>
<polygon fill="#191970" stroke="#191970" points="422.4496,-112.8284 429.9458,-120.3156 428.7548,-109.7879 422.4496,-112.8284"/>
</g>
<!-- Node36&#45;&gt;Node24 -->
<g id="edge26" class="edge">
<title>Node36&#45;&gt;Node24</title>
<path fill="none" stroke="#191970" d="M366.3066,-121.2402C324.7184,-112.4774 271.1264,-99.716 224.8309,-84 168.6145,-64.9161 105.4181,-33.9605 75.4353,-18.6599"/>
<polygon fill="#191970" stroke="#191970" points="365.835,-124.7169 376.3381,-123.3256 367.2598,-117.8634 365.835,-124.7169"/>
</g>
<!-- Node36&#45;&gt;Node35 -->
<g id="edge25" class="edge">
<title>Node36&#45;&gt;Node35</title>
<path fill="none" stroke="#191970" d="M457.8824,-113.4214C470.2103,-101.6373 484.9395,-87.558 494.3378,-78.5743"/>
<polygon fill="#191970" stroke="#191970" points="455.3962,-110.9561 450.5859,-120.396 460.2331,-116.0162 455.3962,-110.9561"/>
</g>
</g>
</svg>
        <g id="navigator" transform="translate(0 0)" fill="#404254">
                <rect fill="#f2f5e9" fill-opacity="0.5" stroke="#606060" stroke-width=".5" x="0" y="0" width="60" height="60"/>
                <use id="zoomplus" xlink:href="#zoomPlus" x="17" y="9" onmousedown="handleZoom(evt,'in')"/>
                <use id="zoomminus" xlink:href="#zoomMin" x="42" y="9" onmousedown="handleZoom(evt,'out')"/>
                <use id="reset" xlink:href="#resetDef" x="30" y="36" onmousedown="handleReset()"/>
                <g id="arrowUp" xlink:href="#dirArrow" transform="translate(30 24)" onmousedown="handlePan(0,-1)">
                  <use xlink:href="#rim" fill="#404040">
                        <set attributeName="fill" to="#808080" begin="arrowUp.mouseover" end="arrowUp.mouseout"/>
                  </use>
                  <path fill="none" stroke="white" stroke-width="1.5" d="M0,-3.0v7 M-2.5,-0.5L0,-3.0L2.5,-0.5"/>
                </g>
                <g id="arrowRight" xlink:href="#dirArrow" transform="rotate(90) translate(36 -43)" onmousedown="handlePan(1,0)">
                  <use xlink:href="#rim" fill="#404040">
                        <set attributeName="fill" to="#808080" begin="arrowRight.mouseover" end="arrowRight.mouseout"/>
                  </use>
                  <path fill="none" stroke="white" stroke-width="1.5" d="M0,-3.0v7 M-2.5,-0.5L0,-3.0L2.5,-0.5"/>
                </g>
                <g id="arrowDown" xlink:href="#dirArrow" transform="rotate(180) translate(-30 -48)" onmousedown="handlePan(0,1)">
                  <use xlink:href="#rim" fill="#404040">
                        <set attributeName="fill" to="#808080" begin="arrowDown.mouseover" end="arrowDown.mouseout"/>
                  </use>
                  <path fill="none" stroke="white" stroke-width="1.5" d="M0,-3.0v7 M-2.5,-0.5L0,-3.0L2.5,-0.5"/>
                </g>
                <g id="arrowLeft" xlink:href="#dirArrow" transform="rotate(270) translate(-36 17)" onmousedown="handlePan(-1,0)">
                  <use xlink:href="#rim" fill="#404040">
                        <set attributeName="fill" to="#808080" begin="arrowLeft.mouseover" end="arrowLeft.mouseout"/>
                  </use>
                  <path fill="none" stroke="white" stroke-width="1.5" d="M0,-3.0v7 M-2.5,-0.5L0,-3.0L2.5,-0.5"/>
                </g>
        </g>
        <svg viewBox="0 0 15 15" width="100%" height="30px" preserveAspectRatio="xMaxYMin meet">
         <g id="arrow_out" transform="scale(0.3 0.3)">
          <a xlink:href="quad_8hpp__dep__incl_org.svg" target="_base">
           <rect id="button" ry="5" rx="5" y="6" x="6" height="38" width="38"
                fill="#f2f5e9" fill-opacity="0.5" stroke="#606060" stroke-width="1.0"/>
           <path id="arrow"
             d="M 11.500037,31.436501 C 11.940474,20.09759 22.043105,11.32322 32.158766,21.979434 L 37.068811,17.246167 C 37.068811,17.246167 37.088388,32 37.088388,32 L 22.160133,31.978069 C 22.160133,31.978069 26.997745,27.140456 26.997745,27.140456 C 18.528582,18.264221 13.291696,25.230495 11.500037,31.436501 z"
             style="fill:#404040;"/>
          </a>
         </g>
        </svg>
</svg>
