<?xml version="1.0" encoding="UTF-8" standalone="no"?>
<!DOCTYPE svg PUBLIC "-//W3C//DTD SVG 1.1//EN"
 "http://www.w3.org/Graphics/SVG/1.1/DTD/svg11.dtd">
<!-- Generated by graphviz version 2.40.1 (20161225.0304)
 -->
<!-- Title: include/indigox/utils/quad.hpp Pages: 1 -->
<svg width="405pt" height="167pt"
 viewBox="0.00 0.00 405.17 167.00" xmlns="http://www.w3.org/2000/svg" xmlns:xlink="http://www.w3.org/1999/xlink">
<g id="graph0" class="graph" transform="scale(1 1) rotate(0) translate(4 163)">
<title>include/indigox/utils/quad.hpp</title>
<polygon fill="#ffffff" stroke="transparent" points="-4,4 -4,-163 401.1719,-163 401.1719,4 -4,4"/>
<!-- Node20 -->
<g id="node1" class="node">
<title>Node20</title>
<g id="a_node1"><a xlink:title=" ">
<polygon fill="#bfbfbf" stroke="#000000" points="150.6724,-130.5 150.6724,-158.5 253.3911,-158.5 253.3911,-130.5 150.6724,-130.5"/>
<text text-anchor="start" x="158.6724" y="-146.5" font-family="Helvetica,sans-Serif" font-size="10.00" fill="#000000">include/indigox/utils</text>
<text text-anchor="middle" x="202.0317" y="-136.5" font-family="Helvetica,sans-Serif" font-size="10.00" fill="#000000">/quad.hpp</text>
</a>
</g>
</g>
<!-- Node21 -->
<g id="node2" class="node">
<title>Node21</title>
<g id="a_node2"><a xlink:href="athenaeum_8hpp.html" target="_top" xlink:title=" ">
<polygon fill="#ffffff" stroke="#000000" points="4.8916,-65.5 4.8916,-93.5 123.1719,-93.5 123.1719,-65.5 4.8916,-65.5"/>
<text text-anchor="start" x="12.8916" y="-81.5" font-family="Helvetica,sans-Serif" font-size="10.00" fill="#000000">include/indigox/classes</text>
<text text-anchor="middle" x="64.0317" y="-71.5" font-family="Helvetica,sans-Serif" font-size="10.00" fill="#000000">/athenaeum.hpp</text>
</a>
</g>
</g>
<!-- Node20&#45;&gt;Node21 -->
<g id="edge1" class="edge">
<title>Node20&#45;&gt;Node21</title>
<path fill="none" stroke="#191970" d="M163.0319,-126.1305C141.1047,-115.8025 114.1582,-103.1103 93.9172,-93.5765"/>
<polygon fill="#191970" stroke="#191970" points="161.5497,-129.3011 172.0878,-130.396 164.5325,-122.9684 161.5497,-129.3011"/>
</g>
<!-- Node23 -->
<g id="node4" class="node">
<title>Node23</title>
<g id="a_node4"><a xlink:href="dihedral_8hpp.html" target="_top" xlink:title=" ">
<polygon fill="#ffffff" stroke="#000000" points="142.8916,-65.5 142.8916,-93.5 261.1719,-93.5 261.1719,-65.5 142.8916,-65.5"/>
<text text-anchor="start" x="150.8916" y="-81.5" font-family="Helvetica,sans-Serif" font-size="10.00" fill="#000000">include/indigox/classes</text>
<text text-anchor="middle" x="202.0317" y="-71.5" font-family="Helvetica,sans-Serif" font-size="10.00" fill="#000000">/dihedral.hpp</text>
</a>
</g>
</g>
<!-- Node20&#45;&gt;Node23 -->
<g id="edge3" class="edge">
<title>Node20&#45;&gt;Node23</title>
<path fill="none" stroke="#191970" d="M202.0317,-120.1081C202.0317,-111.1539 202.0317,-101.3227 202.0317,-93.5765"/>
<polygon fill="#191970" stroke="#191970" points="198.5318,-120.3959 202.0317,-130.396 205.5318,-120.396 198.5318,-120.3959"/>
</g>
<!-- Node25 -->
<g id="node6" class="node">
<title>Node25</title>
<g id="a_node6"><a xlink:href="parameterised_8hpp.html" target="_top" xlink:title=" ">
<polygon fill="#ffffff" stroke="#000000" points="278.8916,-65.5 278.8916,-93.5 397.1719,-93.5 397.1719,-65.5 278.8916,-65.5"/>
<text text-anchor="start" x="286.8916" y="-81.5" font-family="Helvetica,sans-Serif" font-size="10.00" fill="#000000">include/indigox/classes</text>
<text text-anchor="middle" x="338.0317" y="-71.5" font-family="Helvetica,sans-Serif" font-size="10.00" fill="#000000">/parameterised.hpp</text>
</a>
</g>
</g>
<!-- Node20&#45;&gt;Node25 -->
<g id="edge5" class="edge">
<title>Node20&#45;&gt;Node25</title>
<path fill="none" stroke="#191970" d="M240.7561,-125.9921C262.3127,-115.6892 288.7208,-103.0677 308.5794,-93.5765"/>
<polygon fill="#191970" stroke="#191970" points="239.0549,-122.9258 231.5417,-130.396 242.0735,-129.2416 239.0549,-122.9258"/>
</g>
<!-- Node22 -->
<g id="node3" class="node">
<title>Node22</title>
<g id="a_node3"><a xlink:href="cherrypicker_8hpp.html" target="_top" xlink:title=" ">
<polygon fill="#ffffff" stroke="#000000" points="0,-.5 0,-28.5 126.0635,-28.5 126.0635,-.5 0,-.5"/>
<text text-anchor="start" x="8" y="-16.5" font-family="Helvetica,sans-Serif" font-size="10.00" fill="#000000">include/indigox/algorithm</text>
<text text-anchor="middle" x="63.0317" y="-6.5" font-family="Helvetica,sans-Serif" font-size="10.00" fill="#000000">/cherrypicker.hpp</text>
</a>
</g>
</g>
<!-- Node21&#45;&gt;Node22 -->
<g id="edge2" class="edge">
<title>Node21&#45;&gt;Node22</title>
<path fill="none" stroke="#191970" d="M63.6565,-55.1081C63.5187,-46.1539 63.3675,-36.3227 63.2483,-28.5765"/>
<polygon fill="#191970" stroke="#191970" points="60.1612,-55.451 63.8148,-65.396 67.1604,-55.3433 60.1612,-55.451"/>
</g>
<!-- Node24 -->
<g id="node5" class="node">
<title>Node24</title>
<g id="a_node5"><a xlink:href="molecule__impl_8hpp.html" target="_top" xlink:title=" ">
<polygon fill="#ffffff" stroke="#000000" points="143.8916,-.5 143.8916,-28.5 262.1719,-28.5 262.1719,-.5 143.8916,-.5"/>
<text text-anchor="start" x="151.8916" y="-16.5" font-family="Helvetica,sans-Serif" font-size="10.00" fill="#000000">include/indigox/classes</text>
<text text-anchor="middle" x="203.0317" y="-6.5" font-family="Helvetica,sans-Serif" font-size="10.00" fill="#000000">/molecule_impl.hpp</text>
</a>
</g>
</g>
<!-- Node23&#45;&gt;Node24 -->
<g id="edge4" class="edge">
<title>Node23&#45;&gt;Node24</title>
<path fill="none" stroke="#191970" d="M202.407,-55.1081C202.5448,-46.1539 202.696,-36.3227 202.8152,-28.5765"/>
<polygon fill="#191970" stroke="#191970" points="198.9031,-55.3433 202.2487,-65.396 205.9022,-55.451 198.9031,-55.3433"/>
</g>
</g>
</svg>
