<?xml version="1.0" encoding="UTF-8" standalone="no"?>
<!DOCTYPE svg PUBLIC "-//W3C//DTD SVG 1.1//EN"
 "http://www.w3.org/Graphics/SVG/1.1/DTD/svg11.dtd">
<!-- Generated by graphviz version 2.40.1 (20161225.0304)
 -->
<!-- Title: include/indigox/utils/quad.hpp Pages: 1 -->
<!--zoomable 212 -->
<svg id="main" version="1.1" xmlns="http://www.w3.org/2000/svg" xmlns:xlink="http://www.w3.org/1999/xlink" xml:space="preserve" onload="init(evt)">
<style type="text/css"><![CDATA[
.edge:hover path { stroke: red; }
.edge:hover polygon { stroke: red; fill: red; }
]]></style>
<script type="text/javascript"><![CDATA[
var edges = document.getElementsByTagName('g');
if (edges && edges.length) {
  for (var i=0;i<edges.length;i++) {
    if (edges[i].id.substr(0,4)=='edge') {
      edges[i].setAttribute('class','edge');
    }
  }
}
]]></script>
        <defs>
                <circle id="rim" cx="0" cy="0" r="7"/>
                <circle id="rim2" cx="0" cy="0" r="3.5"/>
                <g id="zoomPlus">
                        <use xlink:href="#rim" fill="#404040">
                                <set attributeName="fill" to="#808080" begin="zoomplus.mouseover" end="zoomplus.mouseout"/>
                        </use>
                        <path d="M-4,0h8M0,-4v8" fill="none" stroke="white" stroke-width="1.5" pointer-events="none"/>
                </g>
                <g id="zoomMin">
                        <use xlink:href="#rim" fill="#404040">
                                <set attributeName="fill" to="#808080" begin="zoomminus.mouseover" end="zoomminus.mouseout"/>
                        </use>
                        <path d="M-4,0h8" fill="none" stroke="white" stroke-width="1.5" pointer-events="none"/>
                </g>
                <g id="dirArrow">
                        <path fill="none" stroke="white" stroke-width="1.5" d="M0,-3.0v7 M-2.5,-0.5L0,-3.0L2.5,-0.5"/>
                </g>
               <g id="resetDef">
                       <use xlink:href="#rim2" fill="#404040">
                               <set attributeName="fill" to="#808080" begin="reset.mouseover" end="reset.mouseout"/>
                       </use>
               </g>
        </defs>

<script type="text/javascript">
var viewWidth = 1871;
var viewHeight = 212;
var sectionId = 'dynsection-0';
</script>
<script xlink:href="svgpan.js"/>
<svg id="graph" class="graph">
<g id="viewport">
<title>include/indigox/utils/quad.hpp</title>
<polygon fill="#ffffff" stroke="transparent" points="-4,4 -4,-208 1867.4873,-208 1867.4873,4 -4,4"/>
<!-- Node0 -->
<g id="node1" class="node">
<title>Node0</title>
<polygon fill="#bfbfbf" stroke="#000000" points="545.707,-175.5 545.707,-203.5 648.4258,-203.5 648.4258,-175.5 545.707,-175.5"/>
<text text-anchor="start" x="553.707" y="-191.5" font-family="Helvetica,sans-Serif" font-size="10.00" fill="#000000">include/indigox/utils</text>
<text text-anchor="middle" x="597.0664" y="-181.5" font-family="Helvetica,sans-Serif" font-size="10.00" fill="#000000">/quad.hpp</text>
</g>
<!-- Node1 -->
<g id="node2" class="node">
<title>Node1</title>
<polygon fill="#ffffff" stroke="#bfbfbf" points="0,-60.5 0,-78.5 62.1328,-78.5 62.1328,-60.5 0,-60.5"/>
<text text-anchor="middle" x="31.0664" y="-66.5" font-family="Helvetica,sans-Serif" font-size="10.00" fill="#000000">type_traits</text>
</g>
<!-- Node0&#45;&gt;Node1 -->
<g id="edge1" class="edge">
<title>Node0&#45;&gt;Node1</title>
<path fill="none" stroke="#191970" d="M545.6882,-181.8213C450.8622,-167.0714 242.3792,-131.9393 71.0664,-84 68.639,-83.3207 66.1479,-82.5649 63.6534,-81.765"/>
<polygon fill="#191970" stroke="#191970" points="64.7362,-78.4364 54.1418,-78.5301 62.4822,-85.0636 64.7362,-78.4364"/>
</g>
<!-- Node2 -->
<g id="node3" class="node">
<title>Node2</title>
<polygon fill="#ffffff" stroke="#bfbfbf" points="577.6748,-120.5 577.6748,-138.5 616.458,-138.5 616.458,-120.5 577.6748,-120.5"/>
<text text-anchor="middle" x="597.0664" y="-126.5" font-family="Helvetica,sans-Serif" font-size="10.00" fill="#000000">utility</text>
</g>
<!-- Node0&#45;&gt;Node2 -->
<g id="edge2" class="edge">
<title>Node0&#45;&gt;Node2</title>
<path fill="none" stroke="#191970" d="M597.0664,-175.2808C597.0664,-167.3776 597.0664,-157.4316 597.0664,-148.8308"/>
<polygon fill="#191970" stroke="#191970" points="600.5665,-148.5842 597.0664,-138.5842 593.5665,-148.5842 600.5665,-148.5842"/>
</g>
<!-- Node3 -->
<g id="node4" class="node">
<title>Node3</title>
<g id="a_node4"><a xlink:href="serialise_8hpp.html" target="_top" xlink:title="serialise.hpp">
<polygon fill="#ffffff" stroke="#000000" points="784.9951,-120.5 784.9951,-138.5 857.1377,-138.5 857.1377,-120.5 784.9951,-120.5"/>
<text text-anchor="middle" x="821.0664" y="-126.5" font-family="Helvetica,sans-Serif" font-size="10.00" fill="#000000">serialise.hpp</text>
</a>
</g>
</g>
<!-- Node0&#45;&gt;Node3 -->
<g id="edge3" class="edge">
<title>Node0&#45;&gt;Node3</title>
<path fill="none" stroke="#191970" d="M648.4565,-175.7348C687.4179,-165.2987 740.3826,-151.1117 777.3276,-141.2157"/>
<polygon fill="#191970" stroke="#191970" points="778.5444,-144.5133 787.2983,-138.545 776.7332,-137.7516 778.5444,-144.5133"/>
</g>
<!-- Node3&#45;&gt;Node1 -->
<g id="edge20" class="edge">
<title>Node3&#45;&gt;Node1</title>
<path fill="none" stroke="#191970" d="M784.8215,-127.5908C639.6563,-119.907 106.354,-91.3068 71.0664,-84 68.2183,-83.4103 65.3001,-82.6589 62.4006,-81.8096"/>
<polygon fill="#191970" stroke="#191970" points="63.3373,-78.4334 52.7445,-78.6373 61.1525,-85.0837 63.3373,-78.4334"/>
</g>
<!-- Node4 -->
<g id="node5" class="node">
<title>Node4</title>
<g id="a_node5"><a xlink:href="fwd__declares_8hpp.html" target="_top" xlink:title="fwd_declares.hpp">
<polygon fill="#ffffff" stroke="#000000" points="79.8745,-60.5 79.8745,-78.5 174.2583,-78.5 174.2583,-60.5 79.8745,-60.5"/>
<text text-anchor="middle" x="127.0664" y="-66.5" font-family="Helvetica,sans-Serif" font-size="10.00" fill="#000000">fwd_declares.hpp</text>
</a>
</g>
</g>
<!-- Node3&#45;&gt;Node4 -->
<g id="edge4" class="edge">
<title>Node3&#45;&gt;Node4</title>
<path fill="none" stroke="#191970" d="M784.6515,-127.7779C667.3704,-122.0941 300.3237,-103.1973 183.0664,-84 178.0537,-83.1793 172.8357,-82.1169 167.6894,-80.9404"/>
<polygon fill="#191970" stroke="#191970" points="168.4978,-77.535 157.9537,-78.5706 166.8422,-84.3364 168.4978,-77.535"/>
</g>
<!-- Node7 -->
<g id="node8" class="node">
<title>Node7</title>
<polygon fill="#ffffff" stroke="#bfbfbf" points="191.7661,-60.5 191.7661,-78.5 288.3667,-78.5 288.3667,-60.5 191.7661,-60.5"/>
<text text-anchor="middle" x="240.0664" y="-66.5" font-family="Helvetica,sans-Serif" font-size="10.00" fill="#000000">cereal/access.hpp</text>
</g>
<!-- Node3&#45;&gt;Node7 -->
<g id="edge7" class="edge">
<title>Node3&#45;&gt;Node7</title>
<path fill="none" stroke="#191970" d="M784.8161,-127.1235C682.2557,-120.2774 391.374,-99.9807 297.0664,-84 292.0358,-83.1475 286.7974,-82.0754 281.624,-80.9019"/>
<polygon fill="#191970" stroke="#191970" points="282.3677,-77.4811 271.827,-78.5512 280.7344,-84.2879 282.3677,-77.4811"/>
</g>
<!-- Node8 -->
<g id="node9" class="node">
<title>Node8</title>
<polygon fill="#ffffff" stroke="#bfbfbf" points="306.1479,-60.5 306.1479,-78.5 429.9849,-78.5 429.9849,-60.5 306.1479,-60.5"/>
<text text-anchor="middle" x="368.0664" y="-66.5" font-family="Helvetica,sans-Serif" font-size="10.00" fill="#000000">cereal/archives/json.hpp</text>
</g>
<!-- Node3&#45;&gt;Node8 -->
<g id="edge8" class="edge">
<title>Node3&#45;&gt;Node8</title>
<path fill="none" stroke="#191970" d="M784.85,-126.1962C716.8444,-119.7689 565.497,-104.4037 439.0664,-84 432.7089,-82.974 426.0551,-81.7786 419.4778,-80.5225"/>
<polygon fill="#191970" stroke="#191970" points="419.7456,-77.0083 409.2584,-78.5144 418.3959,-83.8769 419.7456,-77.0083"/>
</g>
<!-- Node9 -->
<g id="node10" class="node">
<title>Node9</title>
<polygon fill="#ffffff" stroke="#bfbfbf" points="447.9829,-55.5 447.9829,-83.5 570.1499,-83.5 570.1499,-55.5 447.9829,-55.5"/>
<text text-anchor="start" x="455.9829" y="-71.5" font-family="Helvetica,sans-Serif" font-size="10.00" fill="#000000">cereal/archives/portable</text>
<text text-anchor="middle" x="509.0664" y="-61.5" font-family="Helvetica,sans-Serif" font-size="10.00" fill="#000000">_binary.hpp</text>
</g>
<!-- Node3&#45;&gt;Node9 -->
<g id="edge9" class="edge">
<title>Node3&#45;&gt;Node9</title>
<path fill="none" stroke="#191970" d="M784.9466,-122.9233C739.5551,-114.6113 658.9963,-99.7042 580.5627,-84.2769"/>
<polygon fill="#191970" stroke="#191970" points="581.0018,-80.7961 570.5135,-82.295 579.6473,-87.6638 581.0018,-80.7961"/>
</g>
<!-- Node10 -->
<g id="node11" class="node">
<title>Node10</title>
<polygon fill="#ffffff" stroke="#bfbfbf" points="587.7095,-60.5 587.7095,-78.5 680.4233,-78.5 680.4233,-60.5 587.7095,-60.5"/>
<text text-anchor="middle" x="634.0664" y="-66.5" font-family="Helvetica,sans-Serif" font-size="10.00" fill="#000000">cereal/cereal.hpp</text>
</g>
<!-- Node3&#45;&gt;Node10 -->
<g id="edge10" class="edge">
<title>Node3&#45;&gt;Node10</title>
<path fill="none" stroke="#191970" d="M792.6651,-120.3873C760.3513,-110.0192 707.4433,-93.0434 671.7131,-81.5791"/>
<polygon fill="#191970" stroke="#191970" points="672.7135,-78.2244 662.1222,-78.5019 670.5748,-84.8897 672.7135,-78.2244"/>
</g>
<!-- Node11 -->
<g id="node12" class="node">
<title>Node11</title>
<polygon fill="#ffffff" stroke="#bfbfbf" points="697.9648,-60.5 697.9648,-78.5 812.168,-78.5 812.168,-60.5 697.9648,-60.5"/>
<text text-anchor="middle" x="755.0664" y="-66.5" font-family="Helvetica,sans-Serif" font-size="10.00" fill="#000000">cereal/types/array.hpp</text>
</g>
<!-- Node3&#45;&gt;Node11 -->
<g id="edge11" class="edge">
<title>Node3&#45;&gt;Node11</title>
<path fill="none" stroke="#191970" d="M811.0424,-120.3873C800.8664,-111.1364 784.9039,-96.625 772.6244,-85.4618"/>
<polygon fill="#191970" stroke="#191970" points="774.9385,-82.8354 765.1847,-78.6985 770.2298,-88.015 774.9385,-82.8354"/>
</g>
<!-- Node12 -->
<g id="node13" class="node">
<title>Node12</title>
<polygon fill="#ffffff" stroke="#bfbfbf" points="830.0371,-60.5 830.0371,-78.5 946.0957,-78.5 946.0957,-60.5 830.0371,-60.5"/>
<text text-anchor="middle" x="888.0664" y="-66.5" font-family="Helvetica,sans-Serif" font-size="10.00" fill="#000000">cereal/types/bitset.hpp</text>
</g>
<!-- Node3&#45;&gt;Node12 -->
<g id="edge12" class="edge">
<title>Node3&#45;&gt;Node12</title>
<path fill="none" stroke="#191970" d="M831.2423,-120.3873C841.5724,-111.1364 857.7768,-96.625 870.2424,-85.4618"/>
<polygon fill="#191970" stroke="#191970" points="872.6802,-87.977 877.7948,-78.6985 868.0103,-82.7624 872.6802,-87.977"/>
</g>
<!-- Node13 -->
<g id="node14" class="node">
<title>Node13</title>
<polygon fill="#ffffff" stroke="#bfbfbf" points="964.2046,-55.5 964.2046,-83.5 1071.9282,-83.5 1071.9282,-55.5 964.2046,-55.5"/>
<text text-anchor="start" x="972.2046" y="-71.5" font-family="Helvetica,sans-Serif" font-size="10.00" fill="#000000">cereal/types/boost</text>
<text text-anchor="middle" x="1018.0664" y="-61.5" font-family="Helvetica,sans-Serif" font-size="10.00" fill="#000000">_dynamic_bitset.hpp</text>
</g>
<!-- Node3&#45;&gt;Node13 -->
<g id="edge13" class="edge">
<title>Node3&#45;&gt;Node13</title>
<path fill="none" stroke="#191970" d="M850.9865,-120.3873C880.4042,-111.4276 926.0235,-97.5334 962.1653,-86.5257"/>
<polygon fill="#191970" stroke="#191970" points="963.5401,-89.7658 972.0865,-83.504 961.5006,-83.0695 963.5401,-89.7658"/>
</g>
<!-- Node14 -->
<g id="node15" class="node">
<title>Node14</title>
<polygon fill="#ffffff" stroke="#bfbfbf" points="1090.1577,-55.5 1090.1577,-83.5 1183.9751,-83.5 1183.9751,-55.5 1090.1577,-55.5"/>
<text text-anchor="start" x="1098.1577" y="-71.5" font-family="Helvetica,sans-Serif" font-size="10.00" fill="#000000">cereal/types/eastl</text>
<text text-anchor="middle" x="1137.0664" y="-61.5" font-family="Helvetica,sans-Serif" font-size="10.00" fill="#000000">_bitset.hpp</text>
</g>
<!-- Node3&#45;&gt;Node14 -->
<g id="edge14" class="edge">
<title>Node3&#45;&gt;Node14</title>
<path fill="none" stroke="#191970" d="M857.4172,-124.0807C905.9783,-116.6352 994.8821,-102.2865 1080.2286,-84.0801"/>
<polygon fill="#191970" stroke="#191970" points="1081.0394,-87.4858 1090.0779,-81.9581 1079.565,-80.6428 1081.0394,-87.4858"/>
</g>
<!-- Node15 -->
<g id="node16" class="node">
<title>Node15</title>
<polygon fill="#ffffff" stroke="#bfbfbf" points="1201.7539,-60.5 1201.7539,-78.5 1318.3789,-78.5 1318.3789,-60.5 1201.7539,-60.5"/>
<text text-anchor="middle" x="1260.0664" y="-66.5" font-family="Helvetica,sans-Serif" font-size="10.00" fill="#000000">cereal/types/eigen.hpp</text>
</g>
<!-- Node3&#45;&gt;Node15 -->
<g id="edge15" class="edge">
<title>Node3&#45;&gt;Node15</title>
<path fill="none" stroke="#191970" d="M857.3976,-126.1698C924.1493,-119.8043 1070.6909,-104.6816 1193.0664,-84 1198.9302,-83.009 1205.0575,-81.8525 1211.122,-80.6327"/>
<polygon fill="#191970" stroke="#191970" points="1212.1315,-83.9979 1221.2114,-78.5384 1210.7088,-77.144 1212.1315,-83.9979"/>
</g>
<!-- Node16 -->
<g id="node17" class="node">
<title>Node16</title>
<polygon fill="#ffffff" stroke="#bfbfbf" points="1336.2612,-60.5 1336.2612,-78.5 1447.8716,-78.5 1447.8716,-60.5 1336.2612,-60.5"/>
<text text-anchor="middle" x="1392.0664" y="-66.5" font-family="Helvetica,sans-Serif" font-size="10.00" fill="#000000">cereal/types/map.hpp</text>
</g>
<!-- Node3&#45;&gt;Node16 -->
<g id="edge16" class="edge">
<title>Node3&#45;&gt;Node16</title>
<path fill="none" stroke="#191970" d="M857.1521,-127.8663C940.3908,-123.7471 1152.1129,-111.2621 1327.0664,-84 1332.9945,-83.0763 1339.19,-81.9312 1345.3009,-80.6926"/>
<polygon fill="#191970" stroke="#191970" points="1346.3866,-84.0403 1355.4432,-78.5422 1344.9347,-77.1925 1346.3866,-84.0403"/>
</g>
<!-- Node17 -->
<g id="node18" class="node">
<title>Node17</title>
<polygon fill="#ffffff" stroke="#bfbfbf" points="1466.2998,-60.5 1466.2998,-78.5 1593.833,-78.5 1593.833,-60.5 1466.2998,-60.5"/>
<text text-anchor="middle" x="1530.0664" y="-66.5" font-family="Helvetica,sans-Serif" font-size="10.00" fill="#000000">cereal/types/memory.hpp</text>
</g>
<!-- Node3&#45;&gt;Node17 -->
<g id="edge17" class="edge">
<title>Node3&#45;&gt;Node17</title>
<path fill="none" stroke="#191970" d="M857.4414,-128.4847C954.9635,-125.4202 1230.2405,-114.5199 1457.0664,-84 1464.2857,-83.0286 1471.8655,-81.7819 1479.2969,-80.4282"/>
<polygon fill="#191970" stroke="#191970" points="1480.1188,-83.8348 1489.2909,-78.5318 1478.8137,-76.9575 1480.1188,-83.8348"/>
</g>
<!-- Node18 -->
<g id="node19" class="node">
<title>Node18</title>
<polygon fill="#ffffff" stroke="#bfbfbf" points="1611.9648,-60.5 1611.9648,-78.5 1726.168,-78.5 1726.168,-60.5 1611.9648,-60.5"/>
<text text-anchor="middle" x="1669.0664" y="-66.5" font-family="Helvetica,sans-Serif" font-size="10.00" fill="#000000">cereal/types/utility.hpp</text>
</g>
<!-- Node3&#45;&gt;Node18 -->
<g id="edge18" class="edge">
<title>Node3&#45;&gt;Node18</title>
<path fill="none" stroke="#191970" d="M857.4746,-128.1476C991.3349,-123.0561 1456.0579,-104.2956 1603.0664,-84 1609.4727,-83.1156 1616.1803,-81.9397 1622.7624,-80.6389"/>
<polygon fill="#191970" stroke="#191970" points="1623.8664,-83.984 1632.9411,-78.5159 1622.4371,-77.1315 1623.8664,-83.984"/>
</g>
<!-- Node19 -->
<g id="node20" class="node">
<title>Node19</title>
<polygon fill="#ffffff" stroke="#bfbfbf" points="1744.6455,-60.5 1744.6455,-78.5 1863.4873,-78.5 1863.4873,-60.5 1744.6455,-60.5"/>
<text text-anchor="middle" x="1804.0664" y="-66.5" font-family="Helvetica,sans-Serif" font-size="10.00" fill="#000000">cereal/types/vector.hpp</text>
</g>
<!-- Node3&#45;&gt;Node19 -->
<g id="edge19" class="edge">
<title>Node3&#45;&gt;Node19</title>
<path fill="none" stroke="#191970" d="M857.3827,-128.4569C1005.0393,-124.0974 1560.7563,-106.5115 1735.0664,-84 1741.9179,-83.1152 1749.102,-81.9157 1756.1391,-80.5834"/>
<polygon fill="#191970" stroke="#191970" points="1757.1667,-83.9474 1766.2881,-78.5575 1755.7964,-77.0828 1757.1667,-83.9474"/>
</g>
<!-- Node5 -->
<g id="node6" class="node">
<title>Node5</title>
<polygon fill="#ffffff" stroke="#bfbfbf" points="70.6157,-.5 70.6157,-18.5 115.5171,-18.5 115.5171,-.5 70.6157,-.5"/>
<text text-anchor="middle" x="93.0664" y="-6.5" font-family="Helvetica,sans-Serif" font-size="10.00" fill="#000000">cstdint</text>
</g>
<!-- Node4&#45;&gt;Node5 -->
<g id="edge5" class="edge">
<title>Node4&#45;&gt;Node5</title>
<path fill="none" stroke="#191970" d="M121.9025,-60.3873C116.9599,-51.665 109.3673,-38.2663 103.2135,-27.4067"/>
<polygon fill="#191970" stroke="#191970" points="106.2541,-25.6731 98.2789,-18.6985 100.164,-29.1243 106.2541,-25.6731"/>
</g>
<!-- Node6 -->
<g id="node7" class="node">
<title>Node6</title>
<polygon fill="#ffffff" stroke="#bfbfbf" points="134.0098,-.5 134.0098,-18.5 186.123,-18.5 186.123,-.5 134.0098,-.5"/>
<text text-anchor="middle" x="160.0664" y="-6.5" font-family="Helvetica,sans-Serif" font-size="10.00" fill="#000000">memory</text>
</g>
<!-- Node4&#45;&gt;Node6 -->
<g id="edge6" class="edge">
<title>Node4&#45;&gt;Node6</title>
<path fill="none" stroke="#191970" d="M132.0784,-60.3873C136.8272,-51.7531 144.0963,-38.5365 150.0363,-27.7366"/>
<polygon fill="#191970" stroke="#191970" points="153.2548,-29.1474 155.0072,-18.6985 147.1213,-25.7739 153.2548,-29.1474"/>
</g>
</g>
</svg>
        <g id="navigator" transform="translate(0 0)" fill="#404254">
                <rect fill="#f2f5e9" fill-opacity="0.5" stroke="#606060" stroke-width=".5" x="0" y="0" width="60" height="60"/>
                <use id="zoomplus" xlink:href="#zoomPlus" x="17" y="9" onmousedown="handleZoom(evt,'in')"/>
                <use id="zoomminus" xlink:href="#zoomMin" x="42" y="9" onmousedown="handleZoom(evt,'out')"/>
                <use id="reset" xlink:href="#resetDef" x="30" y="36" onmousedown="handleReset()"/>
                <g id="arrowUp" xlink:href="#dirArrow" transform="translate(30 24)" onmousedown="handlePan(0,-1)">
                  <use xlink:href="#rim" fill="#404040">
                        <set attributeName="fill" to="#808080" begin="arrowUp.mouseover" end="arrowUp.mouseout"/>
                  </use>
                  <path fill="none" stroke="white" stroke-width="1.5" d="M0,-3.0v7 M-2.5,-0.5L0,-3.0L2.5,-0.5"/>
                </g>
                <g id="arrowRight" xlink:href="#dirArrow" transform="rotate(90) translate(36 -43)" onmousedown="handlePan(1,0)">
                  <use xlink:href="#rim" fill="#404040">
                        <set attributeName="fill" to="#808080" begin="arrowRight.mouseover" end="arrowRight.mouseout"/>
                  </use>
                  <path fill="none" stroke="white" stroke-width="1.5" d="M0,-3.0v7 M-2.5,-0.5L0,-3.0L2.5,-0.5"/>
                </g>
                <g id="arrowDown" xlink:href="#dirArrow" transform="rotate(180) translate(-30 -48)" onmousedown="handlePan(0,1)">
                  <use xlink:href="#rim" fill="#404040">
                        <set attributeName="fill" to="#808080" begin="arrowDown.mouseover" end="arrowDown.mouseout"/>
                  </use>
                  <path fill="none" stroke="white" stroke-width="1.5" d="M0,-3.0v7 M-2.5,-0.5L0,-3.0L2.5,-0.5"/>
                </g>
                <g id="arrowLeft" xlink:href="#dirArrow" transform="rotate(270) translate(-36 17)" onmousedown="handlePan(-1,0)">
                  <use xlink:href="#rim" fill="#404040">
                        <set attributeName="fill" to="#808080" begin="arrowLeft.mouseover" end="arrowLeft.mouseout"/>
                  </use>
                  <path fill="none" stroke="white" stroke-width="1.5" d="M0,-3.0v7 M-2.5,-0.5L0,-3.0L2.5,-0.5"/>
                </g>
        </g>
        <svg viewBox="0 0 15 15" width="100%" height="30px" preserveAspectRatio="xMaxYMin meet">
         <g id="arrow_out" transform="scale(0.3 0.3)">
          <a xlink:href="quad_8hpp__incl_org.svg" target="_base">
           <rect id="button" ry="5" rx="5" y="6" x="6" height="38" width="38"
                fill="#f2f5e9" fill-opacity="0.5" stroke="#606060" stroke-width="1.0"/>
           <path id="arrow"
             d="M 11.500037,31.436501 C 11.940474,20.09759 22.043105,11.32322 32.158766,21.979434 L 37.068811,17.246167 C 37.068811,17.246167 37.088388,32 37.088388,32 L 22.160133,31.978069 C 22.160133,31.978069 26.997745,27.140456 26.997745,27.140456 C 18.528582,18.264221 13.291696,25.230495 11.500037,31.436501 z"
             style="fill:#404040;"/>
          </a>
         </g>
        </svg>
</svg>
