<?xml version="1.0" encoding="UTF-8" standalone="no"?>
<!DOCTYPE svg PUBLIC "-//W3C//DTD SVG 1.1//EN"
 "http://www.w3.org/Graphics/SVG/1.1/DTD/svg11.dtd">
<!-- Generated by graphviz version 2.40.1 (20161225.0304)
 -->
<!-- Title: src/classes/residue.cpp Pages: 1 -->
<!--zoomable 527 -->
<svg id="main" version="1.1" xmlns="http://www.w3.org/2000/svg" xmlns:xlink="http://www.w3.org/1999/xlink" xml:space="preserve" onload="init(evt)">
<style type="text/css"><![CDATA[
.edge:hover path { stroke: red; }
.edge:hover polygon { stroke: red; fill: red; }
]]></style>
<script type="text/javascript"><![CDATA[
var edges = document.getElementsByTagName('g');
if (edges && edges.length) {
  for (var i=0;i<edges.length;i++) {
    if (edges[i].id.substr(0,4)=='edge') {
      edges[i].setAttribute('class','edge');
    }
  }
}
]]></script>
        <defs>
                <circle id="rim" cx="0" cy="0" r="7"/>
                <circle id="rim2" cx="0" cy="0" r="3.5"/>
                <g id="zoomPlus">
                        <use xlink:href="#rim" fill="#404040">
                                <set attributeName="fill" to="#808080" begin="zoomplus.mouseover" end="zoomplus.mouseout"/>
                        </use>
                        <path d="M-4,0h8M0,-4v8" fill="none" stroke="white" stroke-width="1.5" pointer-events="none"/>
                </g>
                <g id="zoomMin">
                        <use xlink:href="#rim" fill="#404040">
                                <set attributeName="fill" to="#808080" begin="zoomminus.mouseover" end="zoomminus.mouseout"/>
                        </use>
                        <path d="M-4,0h8" fill="none" stroke="white" stroke-width="1.5" pointer-events="none"/>
                </g>
                <g id="dirArrow">
                        <path fill="none" stroke="white" stroke-width="1.5" d="M0,-3.0v7 M-2.5,-0.5L0,-3.0L2.5,-0.5"/>
                </g>
               <g id="resetDef">
                       <use xlink:href="#rim2" fill="#404040">
                               <set attributeName="fill" to="#808080" begin="reset.mouseover" end="reset.mouseout"/>
                       </use>
               </g>
        </defs>

<script type="text/javascript">
var viewWidth = 2611;
var viewHeight = 527;
var sectionId = 'dynsection-0';
</script>
<script xlink:href="svgpan.js"/>
<svg id="graph" class="graph">
<g id="viewport">
<title>src/classes/residue.cpp</title>
<polygon fill="#ffffff" stroke="transparent" points="-4,4 -4,-523 2607,-523 2607,4 -4,4"/>
<!-- Node0 -->
<g id="node1" class="node">
<title>Node0</title>
<polygon fill="#bfbfbf" stroke="#000000" points="325.0347,-500.5 325.0347,-518.5 444.9653,-518.5 444.9653,-500.5 325.0347,-500.5"/>
<text text-anchor="middle" x="385" y="-506.5" font-family="Helvetica,sans-Serif" font-size="10.00" fill="#000000">src/classes/residue.cpp</text>
</g>
<!-- Node1 -->
<g id="node2" class="node">
<title>Node1</title>
<g id="a_node2"><a xlink:href="paths_8hpp.html" target="_top" xlink:title="indigox/algorithm/graph\l/paths.hpp">
<polygon fill="#ffffff" stroke="#000000" points="294.0249,-315.5 294.0249,-343.5 413.9751,-343.5 413.9751,-315.5 294.0249,-315.5"/>
<text text-anchor="start" x="302.0249" y="-331.5" font-family="Helvetica,sans-Serif" font-size="10.00" fill="#000000">indigox/algorithm/graph</text>
<text text-anchor="middle" x="354" y="-321.5" font-family="Helvetica,sans-Serif" font-size="10.00" fill="#000000">/paths.hpp</text>
</a>
</g>
</g>
<!-- Node0&#45;&gt;Node1 -->
<g id="edge1" class="edge">
<title>Node0&#45;&gt;Node1</title>
<path fill="none" stroke="#191970" d="M383.4201,-500.3263C378.7862,-473.4201 365.1206,-394.0714 358.1667,-353.6936"/>
<polygon fill="#191970" stroke="#191970" points="361.5819,-352.9016 356.4353,-343.6407 354.6834,-354.0897 361.5819,-352.9016"/>
</g>
<!-- Node7 -->
<g id="node8" class="node">
<title>Node7</title>
<g id="a_node8"><a xlink:href="atom_8hpp.html" target="_top" xlink:title="indigox/classes/atom.hpp">
<polygon fill="#ffffff" stroke="#000000" points="649.8574,-125.5 649.8574,-143.5 778.1426,-143.5 778.1426,-125.5 649.8574,-125.5"/>
<text text-anchor="middle" x="714" y="-131.5" font-family="Helvetica,sans-Serif" font-size="10.00" fill="#000000">indigox/classes/atom.hpp</text>
</a>
</g>
</g>
<!-- Node0&#45;&gt;Node7 -->
<g id="edge7" class="edge">
<title>Node0&#45;&gt;Node7</title>
<path fill="none" stroke="#191970" d="M324.8438,-503.3521C216.5625,-490.6057 0,-456.7113 0,-389.5 0,-389.5 0,-389.5 0,-329.5 0,-197.9474 456.7549,-152.0877 639.6209,-138.999"/>
<polygon fill="#191970" stroke="#191970" points="639.9636,-142.4836 649.6938,-138.2914 639.4731,-135.5008 639.9636,-142.4836"/>
</g>
<!-- Node9 -->
<g id="node10" class="node">
<title>Node9</title>
<g id="a_node10"><a xlink:href="molecule_8hpp.html" target="_top" xlink:title="indigox/classes/molecule.hpp">
<polygon fill="#ffffff" stroke="#000000" points="91.9634,-320.5 91.9634,-338.5 238.0366,-338.5 238.0366,-320.5 91.9634,-320.5"/>
<text text-anchor="middle" x="165" y="-326.5" font-family="Helvetica,sans-Serif" font-size="10.00" fill="#000000">indigox/classes/molecule.hpp</text>
</a>
</g>
</g>
<!-- Node0&#45;&gt;Node9 -->
<g id="edge12" class="edge">
<title>Node0&#45;&gt;Node9</title>
<path fill="none" stroke="#191970" d="M373.7877,-500.3263C338.3335,-471.3183 228.3778,-381.3545 183.9298,-344.988"/>
<polygon fill="#191970" stroke="#191970" points="186.1457,-342.2788 176.1897,-338.6552 181.713,-347.6965 186.1457,-342.2788"/>
</g>
<!-- Node12 -->
<g id="node13" class="node">
<title>Node12</title>
<g id="a_node13"><a xlink:href="molecule__impl_8hpp.html" target="_top" xlink:title="indigox/classes/molecule\l_impl.hpp">
<polygon fill="#ffffff" stroke="#000000" points="727.6948,-435.5 727.6948,-463.5 854.3052,-463.5 854.3052,-435.5 727.6948,-435.5"/>
<text text-anchor="start" x="735.6948" y="-451.5" font-family="Helvetica,sans-Serif" font-size="10.00" fill="#000000">indigox/classes/molecule</text>
<text text-anchor="middle" x="791" y="-441.5" font-family="Helvetica,sans-Serif" font-size="10.00" fill="#000000">_impl.hpp</text>
</a>
</g>
</g>
<!-- Node0&#45;&gt;Node12 -->
<g id="edge19" class="edge">
<title>Node0&#45;&gt;Node12</title>
<path fill="none" stroke="#191970" d="M445.3439,-500.5822C517.8558,-489.8661 639.4716,-471.8934 717.4202,-460.3739"/>
<polygon fill="#191970" stroke="#191970" points="718.2661,-463.7869 727.647,-458.8625 717.2427,-456.8622 718.2661,-463.7869"/>
</g>
<!-- Node47 -->
<g id="node38" class="node">
<title>Node47</title>
<g id="a_node38"><a xlink:href="molecular_8hpp.html" target="_top" xlink:title="../graph/molecular.hpp">
<polygon fill="#ffffff" stroke="#000000" points="1745.5225,-380.5 1745.5225,-398.5 1860.4775,-398.5 1860.4775,-380.5 1745.5225,-380.5"/>
<text text-anchor="middle" x="1803" y="-386.5" font-family="Helvetica,sans-Serif" font-size="10.00" fill="#000000">../graph/molecular.hpp</text>
</a>
</g>
</g>
<!-- Node0&#45;&gt;Node47 -->
<g id="edge121" class="edge">
<title>Node0&#45;&gt;Node47</title>
<path fill="none" stroke="#191970" d="M445.1848,-505.6655C634.6977,-493.3551 1235.9736,-452.495 1732,-399 1733.0819,-398.8833 1734.1728,-398.7635 1735.2708,-398.6409"/>
<polygon fill="#191970" stroke="#191970" points="1735.7666,-402.1069 1745.294,-397.4724 1734.9559,-395.154 1735.7666,-402.1069"/>
</g>
<!-- Node59 -->
<g id="node50" class="node">
<title>Node59</title>
<g id="a_node50"><a xlink:href="residue_8hpp.html" target="_top" xlink:title="residue.hpp">
<polygon fill="#ffffff" stroke="#000000" points="547.8696,-255.5 547.8696,-273.5 616.1304,-273.5 616.1304,-255.5 547.8696,-255.5"/>
<text text-anchor="middle" x="582" y="-261.5" font-family="Helvetica,sans-Serif" font-size="10.00" fill="#000000">residue.hpp</text>
</a>
</g>
</g>
<!-- Node0&#45;&gt;Node59 -->
<g id="edge120" class="edge">
<title>Node0&#45;&gt;Node59</title>
<path fill="none" stroke="#191970" d="M392.245,-500.4898C421.3255,-464.3237 529.854,-329.3516 568.3509,-281.4748"/>
<polygon fill="#191970" stroke="#191970" points="571.1504,-283.5786 574.6892,-273.5922 565.6952,-279.1921 571.1504,-283.5786"/>
</g>
<!-- Node2 -->
<g id="node3" class="node">
<title>Node2</title>
<g id="a_node3"><a xlink:href="fwd__declares_8hpp.html" target="_top" xlink:title="../../utils/fwd_declares.hpp">
<polygon fill="#ffffff" stroke="#000000" points="1129.1924,-60.5 1129.1924,-78.5 1260.8076,-78.5 1260.8076,-60.5 1129.1924,-60.5"/>
<text text-anchor="middle" x="1195" y="-66.5" font-family="Helvetica,sans-Serif" font-size="10.00" fill="#000000">../../utils/fwd_declares.hpp</text>
</a>
</g>
</g>
<!-- Node1&#45;&gt;Node2 -->
<g id="edge2" class="edge">
<title>Node1&#45;&gt;Node2</title>
<path fill="none" stroke="#191970" d="M352.8492,-315.3833C352.2293,-297.6873 354.0251,-267.5517 371,-250 570.2761,-43.9516 741.1318,-253.6341 1008,-149 1027.7792,-141.2449 1027.2479,-129.9858 1046,-120 1078.273,-102.814 1117.5369,-89.7929 1147.6554,-81.2802"/>
<polygon fill="#191970" stroke="#191970" points="1148.7859,-84.5992 1157.4956,-78.5666 1146.925,-77.8511 1148.7859,-84.5992"/>
</g>
<!-- Node5 -->
<g id="node6" class="node">
<title>Node5</title>
<polygon fill="#ffffff" stroke="#bfbfbf" points="380.2734,-255.5 380.2734,-273.5 415.7266,-273.5 415.7266,-255.5 380.2734,-255.5"/>
<text text-anchor="middle" x="398" y="-261.5" font-family="Helvetica,sans-Serif" font-size="10.00" fill="#000000">map</text>
</g>
<!-- Node1&#45;&gt;Node5 -->
<g id="edge5" class="edge">
<title>Node1&#45;&gt;Node5</title>
<path fill="none" stroke="#191970" d="M363.5473,-315.396C370.1939,-305.5773 379.1014,-292.4184 386.1941,-281.9406"/>
<polygon fill="#191970" stroke="#191970" points="389.1501,-283.8174 391.8574,-273.5743 383.3533,-279.8934 389.1501,-283.8174"/>
</g>
<!-- Node6 -->
<g id="node7" class="node">
<title>Node6</title>
<polygon fill="#ffffff" stroke="#bfbfbf" points="524.3843,-60.5 524.3843,-78.5 567.6157,-78.5 567.6157,-60.5 524.3843,-60.5"/>
<text text-anchor="middle" x="546" y="-66.5" font-family="Helvetica,sans-Serif" font-size="10.00" fill="#000000">vector</text>
</g>
<!-- Node1&#45;&gt;Node6 -->
<g id="edge6" class="edge">
<title>Node1&#45;&gt;Node6</title>
<path fill="none" stroke="#191970" d="M347.0978,-315.2692C340.2522,-299.2389 331.6351,-272.4874 338,-250 356.4762,-184.7229 366.0012,-163.5729 418,-120 446.0887,-96.4628 486.4758,-83.0007 514.3363,-75.9907"/>
<polygon fill="#191970" stroke="#191970" points="515.4286,-79.3287 524.349,-73.6124 513.8108,-72.5182 515.4286,-79.3287"/>
</g>
<!-- Node3 -->
<g id="node4" class="node">
<title>Node3</title>
<polygon fill="#ffffff" stroke="#bfbfbf" points="897.5493,-.5 897.5493,-18.5 942.4507,-18.5 942.4507,-.5 897.5493,-.5"/>
<text text-anchor="middle" x="920" y="-6.5" font-family="Helvetica,sans-Serif" font-size="10.00" fill="#000000">cstdint</text>
</g>
<!-- Node2&#45;&gt;Node3 -->
<g id="edge3" class="edge">
<title>Node2&#45;&gt;Node3</title>
<path fill="none" stroke="#191970" d="M1153.532,-60.4524C1098.6197,-48.4716 1002.8933,-27.5858 952.7547,-16.6465"/>
<polygon fill="#191970" stroke="#191970" points="953.295,-13.1821 942.7787,-14.4699 951.8027,-20.0212 953.295,-13.1821"/>
</g>
<!-- Node4 -->
<g id="node5" class="node">
<title>Node4</title>
<polygon fill="#ffffff" stroke="#bfbfbf" points="1927.9434,-.5 1927.9434,-18.5 1980.0566,-18.5 1980.0566,-.5 1927.9434,-.5"/>
<text text-anchor="middle" x="1954" y="-6.5" font-family="Helvetica,sans-Serif" font-size="10.00" fill="#000000">memory</text>
</g>
<!-- Node2&#45;&gt;Node4 -->
<g id="edge4" class="edge">
<title>Node2&#45;&gt;Node4</title>
<path fill="none" stroke="#191970" d="M1260.9559,-62.3179C1284.6098,-59.8479 1311.4869,-57.1623 1336,-55 1556.7903,-35.5236 1822.4723,-17.9262 1917.7856,-11.7981"/>
<polygon fill="#191970" stroke="#191970" points="1918.0195,-15.2904 1927.7751,-11.1578 1917.5716,-8.3047 1918.0195,-15.2904"/>
</g>
<!-- Node7&#45;&gt;Node2 -->
<g id="edge8" class="edge">
<title>Node7&#45;&gt;Node2</title>
<path fill="none" stroke="#191970" d="M778.3707,-125.8013C866.6706,-113.8688 1025.0894,-92.4609 1119.0734,-79.7603"/>
<polygon fill="#191970" stroke="#191970" points="1119.6427,-83.2153 1129.0838,-78.4076 1118.7052,-76.2784 1119.6427,-83.2153"/>
</g>
<!-- Node7&#45;&gt;Node4 -->
<g id="edge10" class="edge">
<title>Node7&#45;&gt;Node4</title>
<path fill="none" stroke="#191970" d="M750.946,-125.4732C821.9522,-108.5254 982.6197,-72.1138 1120,-55 1277.9467,-35.3242 1778.3071,-15.9343 1917.6623,-10.8092"/>
<polygon fill="#191970" stroke="#191970" points="1917.941,-14.3014 1927.8063,-10.4379 1917.6849,-7.3061 1917.941,-14.3014"/>
</g>
<!-- Node7&#45;&gt;Node6 -->
<g id="edge11" class="edge">
<title>Node7&#45;&gt;Node6</title>
<path fill="none" stroke="#191970" d="M690.6403,-125.462C661.144,-114.0498 610.2872,-94.373 577.4107,-81.653"/>
<polygon fill="#191970" stroke="#191970" points="578.4177,-78.2898 567.8285,-77.9455 575.8918,-84.8182 578.4177,-78.2898"/>
</g>
<!-- Node8 -->
<g id="node9" class="node">
<title>Node8</title>
<polygon fill="#ffffff" stroke="#bfbfbf" points="677.3696,-60.5 677.3696,-78.5 750.6304,-78.5 750.6304,-60.5 677.3696,-60.5"/>
<text text-anchor="middle" x="714" y="-66.5" font-family="Helvetica,sans-Serif" font-size="10.00" fill="#000000">Eigen/Dense</text>
</g>
<!-- Node7&#45;&gt;Node8 -->
<g id="edge9" class="edge">
<title>Node7&#45;&gt;Node8</title>
<path fill="none" stroke="#191970" d="M714,-125.462C714,-116.061 714,-101.0518 714,-88.943"/>
<polygon fill="#191970" stroke="#191970" points="717.5001,-88.8821 714,-78.8821 710.5001,-88.8822 717.5001,-88.8821"/>
</g>
<!-- Node9&#45;&gt;Node2 -->
<g id="edge13" class="edge">
<title>Node9&#45;&gt;Node2</title>
<path fill="none" stroke="#191970" d="M171.0442,-320.3225C182.2246,-304.007 207.6865,-269.811 237,-250 306.088,-203.3081 331.4261,-202.2909 413,-185 535.4248,-159.0501 859.3703,-196.8644 975,-149 993.0407,-141.5321 990.794,-129.2298 1008,-120 1044.1613,-100.6019 1088.3376,-88.2225 1124.6715,-80.5781"/>
<polygon fill="#191970" stroke="#191970" points="1125.5931,-83.9625 1134.6984,-78.5456 1124.2024,-77.102 1125.5931,-83.9625"/>
</g>
<!-- Node9&#45;&gt;Node3 -->
<g id="edge15" class="edge">
<title>Node9&#45;&gt;Node3</title>
<path fill="none" stroke="#191970" d="M144.8765,-320.4079C109.0659,-302.6916 38,-259.9218 38,-199.5 38,-199.5 38,-199.5 38,-134.5 38,-47.0037 727.2216,-16.5195 887.141,-10.624"/>
<polygon fill="#191970" stroke="#191970" points="887.4444,-14.1154 897.3113,-10.2561 887.1913,-7.1199 887.4444,-14.1154"/>
</g>
<!-- Node9&#45;&gt;Node5 -->
<g id="edge16" class="edge">
<title>Node9&#45;&gt;Node5</title>
<path fill="none" stroke="#191970" d="M197.3977,-320.462C243.3739,-307.636 326.7695,-284.3712 370.1298,-272.275"/>
<polygon fill="#191970" stroke="#191970" points="371.3036,-275.5812 379.9953,-269.5228 369.4226,-268.8387 371.3036,-275.5812"/>
</g>
<!-- Node9&#45;&gt;Node6 -->
<g id="edge18" class="edge">
<title>Node9&#45;&gt;Node6</title>
<path fill="none" stroke="#191970" d="M143.1927,-320.4963C126.6251,-312.3508 105.0335,-298.6105 95,-279 89.1293,-267.5257 88.0958,-260.8837 95,-250 142.7899,-174.6645 419.6237,-100.5674 514.2783,-77.1162"/>
<polygon fill="#191970" stroke="#191970" points="515.2575,-80.4798 524.1336,-74.695 513.5873,-73.6819 515.2575,-80.4798"/>
</g>
<!-- Node10 -->
<g id="node11" class="node">
<title>Node10</title>
<polygon fill="#ffffff" stroke="#bfbfbf" points="246.0493,-255.5 246.0493,-273.5 285.9507,-273.5 285.9507,-255.5 246.0493,-255.5"/>
<text text-anchor="middle" x="266" y="-261.5" font-family="Helvetica,sans-Serif" font-size="10.00" fill="#000000">bitset</text>
</g>
<!-- Node9&#45;&gt;Node10 -->
<g id="edge14" class="edge">
<title>Node9&#45;&gt;Node10</title>
<path fill="none" stroke="#191970" d="M179.0436,-320.462C195.6082,-309.8017 223.3781,-291.9299 243.0755,-279.2534"/>
<polygon fill="#191970" stroke="#191970" points="245.2351,-282.0258 251.7501,-273.6708 241.4468,-276.1394 245.2351,-282.0258"/>
</g>
<!-- Node11 -->
<g id="node12" class="node">
<title>Node11</title>
<polygon fill="#ffffff" stroke="#bfbfbf" points="103.6973,-255.5 103.6973,-273.5 190.3027,-273.5 190.3027,-255.5 103.6973,-255.5"/>
<text text-anchor="middle" x="147" y="-261.5" font-family="Helvetica,sans-Serif" font-size="10.00" fill="#000000">unordered_map</text>
</g>
<!-- Node9&#45;&gt;Node11 -->
<g id="edge17" class="edge">
<title>Node9&#45;&gt;Node11</title>
<path fill="none" stroke="#191970" d="M162.4972,-320.462C159.8672,-310.9651 155.6524,-295.7449 152.2818,-283.5732"/>
<polygon fill="#191970" stroke="#191970" points="155.6401,-282.5853 149.5981,-273.8821 148.8939,-284.4535 155.6401,-282.5853"/>
</g>
<!-- Node12&#45;&gt;Node2 -->
<g id="edge75" class="edge">
<title>Node12&#45;&gt;Node2</title>
<path fill="none" stroke="#191970" d="M779.1757,-435.382C744.4072,-392.1347 649.0981,-259.8885 717,-185 772.0442,-124.2922 1007.7424,-179.0015 1084,-149 1103.7702,-141.2219 1104.8149,-132.4912 1122,-120 1138.9298,-107.6944 1158.4422,-94.2323 1173.0322,-84.3042"/>
<polygon fill="#191970" stroke="#191970" points="1175.1009,-87.1302 1181.4133,-78.6211 1171.1723,-81.3366 1175.1009,-87.1302"/>
</g>
<!-- Node12&#45;&gt;Node7 -->
<g id="edge80" class="edge">
<title>Node12&#45;&gt;Node7</title>
<path fill="none" stroke="#191970" d="M727.5125,-438.6343C704.8351,-431.3605 681.5616,-419.2281 668,-399 614.8882,-319.7799 647.8538,-273.2618 684,-185 688.6957,-173.534 695.6918,-161.5765 701.7469,-152.1767"/>
<polygon fill="#191970" stroke="#191970" points="704.7347,-154.0047 707.3684,-143.7424 698.9099,-150.1224 704.7347,-154.0047"/>
</g>
<!-- Node12&#45;&gt;Node9 -->
<g id="edge113" class="edge">
<title>Node12&#45;&gt;Node9</title>
<path fill="none" stroke="#191970" d="M727.4844,-441.7159C659.3376,-432.967 548.0693,-417.5354 453,-399 365.551,-381.9503 264.5875,-356.1539 208.4356,-341.2534"/>
<polygon fill="#191970" stroke="#191970" points="209.0496,-337.795 198.4856,-338.6025 207.2475,-344.559 209.0496,-337.795"/>
</g>
<!-- Node12&#45;&gt;Node10 -->
<g id="edge119" class="edge">
<title>Node12&#45;&gt;Node10</title>
<path fill="none" stroke="#191970" d="M727.3026,-438.0907C594.9108,-414.1228 300.931,-359.475 285,-344 268.9756,-328.4343 265.4744,-301.9492 265.1541,-283.8607"/>
<polygon fill="#191970" stroke="#191970" points="268.6569,-283.6669 265.2925,-273.6205 261.6576,-283.5723 268.6569,-283.6669"/>
</g>
<!-- Node13 -->
<g id="node14" class="node">
<title>Node13</title>
<g id="a_node14"><a xlink:href="condensed_8hpp.html" target="_top" xlink:title="../graph/condensed.hpp">
<polygon fill="#ffffff" stroke="#000000" points="867.4585,-380.5 867.4585,-398.5 988.5415,-398.5 988.5415,-380.5 867.4585,-380.5"/>
<text text-anchor="middle" x="928" y="-386.5" font-family="Helvetica,sans-Serif" font-size="10.00" fill="#000000">../graph/condensed.hpp</text>
</a>
</g>
</g>
<!-- Node12&#45;&gt;Node13 -->
<g id="edge20" class="edge">
<title>Node12&#45;&gt;Node13</title>
<path fill="none" stroke="#191970" d="M823.1204,-435.4327C845.7173,-425.5362 875.755,-412.381 897.8919,-402.686"/>
<polygon fill="#191970" stroke="#191970" points="899.3948,-405.8488 907.1507,-398.6311 896.5866,-399.4368 899.3948,-405.8488"/>
</g>
<!-- Node12&#45;&gt;Node47 -->
<g id="edge64" class="edge">
<title>Node12&#45;&gt;Node47</title>
<path fill="none" stroke="#191970" d="M854.4588,-447.8337C1006.3215,-443.467 1402.5522,-429.8316 1732,-399 1733.0834,-398.8986 1734.1758,-398.793 1735.2751,-398.6837"/>
<polygon fill="#191970" stroke="#191970" points="1735.7374,-402.1543 1745.3077,-397.6091 1734.9918,-395.1941 1735.7374,-402.1543"/>
</g>
<!-- Node50 -->
<g id="node41" class="node">
<title>Node50</title>
<g id="a_node41"><a xlink:href="angle_8hpp.html" target="_top" xlink:title="angle.hpp">
<polygon fill="#ffffff" stroke="#000000" points="1822.0347,-255.5 1822.0347,-273.5 1881.9653,-273.5 1881.9653,-255.5 1822.0347,-255.5"/>
<text text-anchor="middle" x="1852" y="-261.5" font-family="Helvetica,sans-Serif" font-size="10.00" fill="#000000">angle.hpp</text>
</a>
</g>
</g>
<!-- Node12&#45;&gt;Node50 -->
<g id="edge76" class="edge">
<title>Node12&#45;&gt;Node50</title>
<path fill="none" stroke="#191970" d="M854.6154,-444.8881C982.4241,-435.4569 1266.4026,-413.6235 1363,-399 1477.6334,-381.6461 1506.2249,-374.7943 1618,-344 1656.888,-333.2863 1665.7378,-327.7696 1704,-315 1752.3943,-298.849 1764.8595,-295.8925 1813,-279 1814.8404,-278.3542 1816.7264,-277.6834 1818.6279,-276.9999"/>
<polygon fill="#191970" stroke="#191970" points="1819.9305,-280.2504 1828.1255,-273.5353 1817.5316,-273.6743 1819.9305,-280.2504"/>
</g>
<!-- Node52 -->
<g id="node43" class="node">
<title>Node52</title>
<g id="a_node43"><a xlink:href="bond_8hpp.html" target="_top" xlink:title="bond.hpp">
<polygon fill="#ffffff" stroke="#000000" points="1746.1455,-255.5 1746.1455,-273.5 1803.8545,-273.5 1803.8545,-255.5 1746.1455,-255.5"/>
<text text-anchor="middle" x="1775" y="-261.5" font-family="Helvetica,sans-Serif" font-size="10.00" fill="#000000">bond.hpp</text>
</a>
</g>
</g>
<!-- Node12&#45;&gt;Node52 -->
<g id="edge81" class="edge">
<title>Node12&#45;&gt;Node52</title>
<path fill="none" stroke="#191970" d="M854.4657,-444.3786C1017.1723,-430.7142 1445.8006,-391.1999 1580,-344 1603.5127,-335.7303 1605.4197,-325.553 1628,-315 1663.5814,-298.3709 1706.2201,-284.3268 1736.39,-275.3036"/>
<polygon fill="#191970" stroke="#191970" points="1737.5114,-278.6221 1746.1153,-272.4396 1735.5339,-271.9072 1737.5114,-278.6221"/>
</g>
<!-- Node53 -->
<g id="node44" class="node">
<title>Node53</title>
<g id="a_node44"><a xlink:href="dihedral_8hpp.html" target="_top" xlink:title="dihedral.hpp">
<polygon fill="#ffffff" stroke="#000000" points="1899.478,-255.5 1899.478,-273.5 1970.522,-273.5 1970.522,-255.5 1899.478,-255.5"/>
<text text-anchor="middle" x="1935" y="-261.5" font-family="Helvetica,sans-Serif" font-size="10.00" fill="#000000">dihedral.hpp</text>
</a>
</g>
</g>
<!-- Node12&#45;&gt;Node53 -->
<g id="edge85" class="edge">
<title>Node12&#45;&gt;Node53</title>
<path fill="none" stroke="#191970" d="M854.538,-445.6637C993.7131,-437.0699 1321.841,-415.717 1432,-399 1541.4784,-382.3863 1567.9176,-372.1937 1675,-344 1755.2839,-322.8621 1847.978,-293.2433 1898.1334,-276.7748"/>
<polygon fill="#191970" stroke="#191970" points="1899.4731,-280.0185 1907.8759,-273.5653 1897.2829,-273.37 1899.4731,-280.0185"/>
</g>
<!-- Node55 -->
<g id="node46" class="node">
<title>Node55</title>
<g id="a_node46"><a xlink:href="forcefield_8hpp.html" target="_top" xlink:title="forcefield.hpp">
<polygon fill="#ffffff" stroke="#000000" points="752.9805,-320.5 752.9805,-338.5 829.0195,-338.5 829.0195,-320.5 752.9805,-320.5"/>
<text text-anchor="middle" x="791" y="-326.5" font-family="Helvetica,sans-Serif" font-size="10.00" fill="#000000">forcefield.hpp</text>
</a>
</g>
</g>
<!-- Node12&#45;&gt;Node55 -->
<g id="edge95" class="edge">
<title>Node12&#45;&gt;Node55</title>
<path fill="none" stroke="#191970" d="M791,-435.2632C791,-413.7178 791,-372.7893 791,-348.6524"/>
<polygon fill="#191970" stroke="#191970" points="794.5001,-348.5918 791,-338.5918 787.5001,-348.5918 794.5001,-348.5918"/>
</g>
<!-- Node56 -->
<g id="node47" class="node">
<title>Node56</title>
<g id="a_node47"><a xlink:href="periodictable_8hpp.html" target="_top" xlink:title="periodictable.hpp">
<polygon fill="#ffffff" stroke="#000000" points="1037.9165,-255.5 1037.9165,-273.5 1130.0835,-273.5 1130.0835,-255.5 1037.9165,-255.5"/>
<text text-anchor="middle" x="1084" y="-261.5" font-family="Helvetica,sans-Serif" font-size="10.00" fill="#000000">periodictable.hpp</text>
</a>
</g>
</g>
<!-- Node12&#45;&gt;Node56 -->
<g id="edge114" class="edge">
<title>Node12&#45;&gt;Node56</title>
<path fill="none" stroke="#191970" d="M854.4078,-439.3628C906.4415,-430.0865 975.1287,-415.3486 998,-399 1039.5691,-369.286 1065.8673,-312.6147 1077.3308,-283.2232"/>
<polygon fill="#191970" stroke="#191970" points="1080.6567,-284.3219 1080.8839,-273.7295 1074.1008,-281.8683 1080.6567,-284.3219"/>
</g>
<!-- Node12&#45;&gt;Node59 -->
<g id="edge115" class="edge">
<title>Node12&#45;&gt;Node59</title>
<path fill="none" stroke="#191970" d="M727.5005,-435.717C688.8977,-426.1987 644.3565,-412.8094 630,-399 597.5044,-367.7427 586.9545,-313.0194 583.5693,-283.9441"/>
<polygon fill="#191970" stroke="#191970" points="587.0367,-283.4412 582.5654,-273.8361 580.071,-284.1331 587.0367,-283.4412"/>
</g>
<!-- Node13&#45;&gt;Node2 -->
<g id="edge21" class="edge">
<title>Node13&#45;&gt;Node2</title>
<path fill="none" stroke="#191970" d="M931.8613,-380.3796C945.6063,-348.9221 995.1994,-243.6742 1067,-185 1099.0854,-158.7804 1122.4177,-176.9582 1153,-149 1171.2131,-132.3497 1182.9482,-105.9472 1189.2607,-88.1862"/>
<polygon fill="#191970" stroke="#191970" points="1192.6017,-89.2309 1192.4294,-78.6374 1185.9579,-87.0261 1192.6017,-89.2309"/>
</g>
<!-- Node13&#45;&gt;Node4 -->
<g id="edge62" class="edge">
<title>Node13&#45;&gt;Node4</title>
<path fill="none" stroke="#191970" d="M988.5471,-384.4936C1150.3929,-370.4832 1583.4705,-328.638 1623,-279 1669.6232,-220.4543 1558.5955,-234.4888 1535,-214 1475.8599,-162.6466 1406.2118,-112.863 1459,-55 1489.783,-21.2577 1808.1616,-12.2067 1917.4275,-10.0847"/>
<polygon fill="#191970" stroke="#191970" points="1917.6959,-13.5804 1927.6291,-9.8951 1917.5658,-6.5816 1917.6959,-13.5804"/>
</g>
<!-- Node13&#45;&gt;Node6 -->
<g id="edge63" class="edge">
<title>Node13&#45;&gt;Node6</title>
<path fill="none" stroke="#191970" d="M867.3213,-382.7005C757.3924,-369.1185 531.7682,-335.0292 479,-279 430.5506,-227.5565 441.3938,-179.8294 479,-120 488.6016,-104.7245 504.5974,-92.4083 518.5518,-83.764"/>
<polygon fill="#191970" stroke="#191970" points="520.4777,-86.6923 527.3393,-78.6195 516.9411,-80.6513 520.4777,-86.6923"/>
</g>
<!-- Node14 -->
<g id="node15" class="node">
<title>Node14</title>
<g id="a_node15"><a xlink:href="base__graph_8hpp.html" target="_top" xlink:title="base_graph.hpp">
<polygon fill="#ffffff" stroke="#000000" points="1242.8574,-320.5 1242.8574,-338.5 1331.1426,-338.5 1331.1426,-320.5 1242.8574,-320.5"/>
<text text-anchor="middle" x="1287" y="-326.5" font-family="Helvetica,sans-Serif" font-size="10.00" fill="#000000">base_graph.hpp</text>
</a>
</g>
</g>
<!-- Node13&#45;&gt;Node14 -->
<g id="edge22" class="edge">
<title>Node13&#45;&gt;Node14</title>
<path fill="none" stroke="#191970" d="M982.1346,-380.4524C1049.7667,-369.149 1164.8247,-349.9193 1232.5868,-338.5941"/>
<polygon fill="#191970" stroke="#191970" points="1233.3495,-342.0153 1242.6357,-336.9146 1232.1955,-335.1111 1233.3495,-342.0153"/>
</g>
<!-- Node16 -->
<g id="node17" class="node">
<title>Node16</title>
<polygon fill="#ffffff" stroke="#bfbfbf" points="1224.478,-190.5 1224.478,-208.5 1335.522,-208.5 1335.522,-190.5 1224.478,-190.5"/>
<text text-anchor="middle" x="1280" y="-196.5" font-family="Helvetica,sans-Serif" font-size="10.00" fill="#000000">EASTL/vector_map.h</text>
</g>
<!-- Node13&#45;&gt;Node16 -->
<g id="edge60" class="edge">
<title>Node13&#45;&gt;Node16</title>
<path fill="none" stroke="#191970" d="M948.0598,-380.4977C967.6234,-371.5998 998.1281,-357.4112 1024,-344 1110.9289,-298.9387 1211.3443,-240.2605 1256.209,-213.6835"/>
<polygon fill="#191970" stroke="#191970" points="1258.1019,-216.6301 1264.9146,-208.5159 1254.5289,-210.6106 1258.1019,-216.6301"/>
</g>
<!-- Node45 -->
<g id="node36" class="node">
<title>Node45</title>
<polygon fill="#ffffff" stroke="#bfbfbf" points="725.5347,-190.5 725.5347,-208.5 830.4653,-208.5 830.4653,-190.5 725.5347,-190.5"/>
<text text-anchor="middle" x="778" y="-196.5" font-family="Helvetica,sans-Serif" font-size="10.00" fill="#000000">EASTL/vector_set.h</text>
</g>
<!-- Node13&#45;&gt;Node45 -->
<g id="edge61" class="edge">
<title>Node13&#45;&gt;Node45</title>
<path fill="none" stroke="#191970" d="M867.31,-382.5529C819.7698,-375.7145 759.2132,-363.4334 744,-344 718.2473,-311.1035 731.8024,-289.9575 744,-250 747.7416,-237.7431 755.566,-225.7682 762.7665,-216.5577"/>
<polygon fill="#191970" stroke="#191970" points="765.632,-218.5854 769.3251,-208.6551 760.2454,-214.1149 765.632,-218.5854"/>
</g>
<!-- Node46 -->
<g id="node37" class="node">
<title>Node46</title>
<polygon fill="#ffffff" stroke="#bfbfbf" points="823.6504,-255.5 823.6504,-273.5 906.3496,-273.5 906.3496,-255.5 823.6504,-255.5"/>
<text text-anchor="middle" x="865" y="-261.5" font-family="Helvetica,sans-Serif" font-size="10.00" fill="#000000">EASTL/bitset.h</text>
</g>
<!-- Node13&#45;&gt;Node46 -->
<g id="edge59" class="edge">
<title>Node13&#45;&gt;Node46</title>
<path fill="none" stroke="#191970" d="M923.2648,-380.1047C912.8613,-359.4629 887.8553,-309.8478 874.2297,-282.8129"/>
<polygon fill="#191970" stroke="#191970" points="877.2452,-281.0193 869.619,-273.6646 870.9942,-284.1698 877.2452,-281.0193"/>
</g>
<!-- Node14&#45;&gt;Node2 -->
<g id="edge23" class="edge">
<title>Node14&#45;&gt;Node2</title>
<path fill="none" stroke="#191970" d="M1264.275,-320.4774C1247.3107,-312.3933 1225.3474,-298.7444 1215,-279 1182.197,-216.4066 1226.8652,-189.4871 1214,-120 1211.9461,-108.9067 1207.6195,-97.0741 1203.6131,-87.653"/>
<polygon fill="#191970" stroke="#191970" points="1206.8038,-86.2143 1199.5143,-78.5258 1200.4182,-89.082 1206.8038,-86.2143"/>
</g>
<!-- Node14&#45;&gt;Node3 -->
<g id="edge27" class="edge">
<title>Node14&#45;&gt;Node3</title>
<path fill="none" stroke="#191970" d="M1242.7381,-324.3803C1178.8982,-316.405 1064.7134,-299.7537 1029,-279 981.3178,-251.291 993.3863,-216.3284 948,-185 909.4691,-158.4036 875.8598,-187.3478 849,-149 838.0198,-133.3235 846.9221,-73.5799 858,-55 865.9229,-41.7117 879.3759,-31.1309 891.7296,-23.5291"/>
<polygon fill="#191970" stroke="#191970" points="893.5107,-26.5424 900.4359,-18.5242 890.022,-20.4737 893.5107,-26.5424"/>
</g>
<!-- Node14&#45;&gt;Node4 -->
<g id="edge28" class="edge">
<title>Node14&#45;&gt;Node4</title>
<path fill="none" stroke="#191970" d="M1331.3168,-328.7104C1517.8038,-324.8379 2238.6117,-304.2051 2444,-214 2485.6301,-195.7163 2502.9557,-189.8115 2523,-149 2541.4216,-111.4924 2553.3502,-85.6992 2525,-55 2506.7872,-35.2782 2112.9656,-16.4513 1990.206,-11.0439"/>
<polygon fill="#191970" stroke="#191970" points="1990.3224,-7.5458 1980.1791,-10.6056 1990.0166,-14.5391 1990.3224,-7.5458"/>
</g>
<!-- Node14&#45;&gt;Node6 -->
<g id="edge29" class="edge">
<title>Node14&#45;&gt;Node6</title>
<path fill="none" stroke="#191970" d="M1242.7042,-328.1625C1085.6006,-323.2071 563.1506,-304.8361 539,-279 489.4968,-226.042 521.271,-128.6528 537.808,-88.0429"/>
<polygon fill="#191970" stroke="#191970" points="541.1348,-89.1619 541.8074,-78.5884 534.6879,-86.4347 541.1348,-89.1619"/>
</g>
<!-- Node15 -->
<g id="node16" class="node">
<title>Node15</title>
<g id="a_node16"><a xlink:href="simple__bimap_8hpp.html" target="_top" xlink:title="../utils/simple_bimap.hpp">
<polygon fill="#ffffff" stroke="#000000" points="1223.9731,-255.5 1223.9731,-273.5 1350.0269,-273.5 1350.0269,-255.5 1223.9731,-255.5"/>
<text text-anchor="middle" x="1287" y="-261.5" font-family="Helvetica,sans-Serif" font-size="10.00" fill="#000000">../utils/simple_bimap.hpp</text>
</a>
</g>
</g>
<!-- Node14&#45;&gt;Node15 -->
<g id="edge24" class="edge">
<title>Node14&#45;&gt;Node15</title>
<path fill="none" stroke="#191970" d="M1287,-320.462C1287,-311.061 1287,-296.0518 1287,-283.943"/>
<polygon fill="#191970" stroke="#191970" points="1290.5001,-283.8821 1287,-273.8821 1283.5001,-283.8822 1290.5001,-283.8821"/>
</g>
<!-- Node17 -->
<g id="node18" class="node">
<title>Node17</title>
<polygon fill="#ffffff" stroke="#bfbfbf" points="1497.6875,-250.5 1497.6875,-278.5 1614.3125,-278.5 1614.3125,-250.5 1497.6875,-250.5"/>
<text text-anchor="start" x="1505.6875" y="-266.5" font-family="Helvetica,sans-Serif" font-size="10.00" fill="#000000">boost/graph/adjacency</text>
<text text-anchor="middle" x="1556" y="-256.5" font-family="Helvetica,sans-Serif" font-size="10.00" fill="#000000">_list.hpp</text>
</g>
<!-- Node14&#45;&gt;Node17 -->
<g id="edge26" class="edge">
<title>Node14&#45;&gt;Node17</title>
<path fill="none" stroke="#191970" d="M1324.4033,-320.462C1366.6496,-310.2538 1436.2619,-293.433 1488.1562,-280.8935"/>
<polygon fill="#191970" stroke="#191970" points="1489.0589,-284.2762 1497.957,-278.5253 1487.4147,-277.472 1489.0589,-284.2762"/>
</g>
<!-- Node18 -->
<g id="node19" class="node">
<title>Node18</title>
<g id="a_node19"><a xlink:href="base__graph__impl_8hpp.html" target="_top" xlink:title="base_graph_impl.hpp">
<polygon fill="#ffffff" stroke="#000000" points="1367.9092,-255.5 1367.9092,-273.5 1480.0908,-273.5 1480.0908,-255.5 1367.9092,-255.5"/>
<text text-anchor="middle" x="1424" y="-261.5" font-family="Helvetica,sans-Serif" font-size="10.00" fill="#000000">base_graph_impl.hpp</text>
</a>
</g>
</g>
<!-- Node14&#45;&gt;Node18 -->
<g id="edge30" class="edge">
<title>Node14&#45;&gt;Node18</title>
<path fill="none" stroke="#191970" d="M1306.0493,-320.462C1329.2297,-309.464 1368.5876,-290.7906 1395.4095,-278.0648"/>
<polygon fill="#191970" stroke="#191970" points="1397.1365,-281.1195 1404.6709,-273.6708 1394.1359,-274.7952 1397.1365,-281.1195"/>
</g>
<!-- Node15&#45;&gt;Node16 -->
<g id="edge25" class="edge">
<title>Node15&#45;&gt;Node16</title>
<path fill="none" stroke="#191970" d="M1286.0267,-255.462C1285.0143,-246.061 1283.3979,-231.0518 1282.0939,-218.943"/>
<polygon fill="#191970" stroke="#191970" points="1285.5611,-218.4499 1281.0104,-208.8821 1278.6013,-219.1994 1285.5611,-218.4499"/>
</g>
<!-- Node18&#45;&gt;Node6 -->
<g id="edge58" class="edge">
<title>Node18&#45;&gt;Node6</title>
<path fill="none" stroke="#191970" d="M1415.5884,-255.321C1397.1045,-235.2578 1353.8841,-188.9655 1345,-185 1201.9543,-121.1502 786.8232,-206.2229 641,-149 623.348,-142.0731 584.937,-106.9662 562.7423,-85.7893"/>
<polygon fill="#191970" stroke="#191970" points="565.0009,-83.1055 555.3675,-78.6956 560.1482,-88.1505 565.0009,-83.1055"/>
</g>
<!-- Node18&#45;&gt;Node16 -->
<g id="edge56" class="edge">
<title>Node18&#45;&gt;Node16</title>
<path fill="none" stroke="#191970" d="M1403.9774,-255.462C1379.5057,-244.4158 1337.8805,-225.6266 1309.6812,-212.8977"/>
<polygon fill="#191970" stroke="#191970" points="1310.8712,-209.5949 1300.3168,-208.6708 1307.9913,-215.9751 1310.8712,-209.5949"/>
</g>
<!-- Node19 -->
<g id="node20" class="node">
<title>Node19</title>
<g id="a_node20"><a xlink:href="connectivity_8hpp.html" target="_top" xlink:title="../algorithm/graph\l/connectivity.hpp">
<polygon fill="#ffffff" stroke="#ff0000" points="872.0913,-120.5 872.0913,-148.5 965.9087,-148.5 965.9087,-120.5 872.0913,-120.5"/>
<text text-anchor="start" x="880.0913" y="-136.5" font-family="Helvetica,sans-Serif" font-size="10.00" fill="#000000">../algorithm/graph</text>
<text text-anchor="middle" x="919" y="-126.5" font-family="Helvetica,sans-Serif" font-size="10.00" fill="#000000">/connectivity.hpp</text>
</a>
</g>
</g>
<!-- Node18&#45;&gt;Node19 -->
<g id="edge31" class="edge">
<title>Node18&#45;&gt;Node19</title>
<path fill="none" stroke="#191970" d="M1421.6971,-255.4802C1416.8328,-238.4605 1403.7779,-201.8122 1378,-185 1345.0016,-163.4787 1092.0609,-145.2335 976.3947,-137.9219"/>
<polygon fill="#191970" stroke="#191970" points="976.5061,-134.4221 966.3068,-137.2899 976.0684,-141.4084 976.5061,-134.4221"/>
</g>
<!-- Node21 -->
<g id="node21" class="node">
<title>Node21</title>
<g id="a_node21"><a xlink:href="cycles_8hpp.html" target="_top" xlink:title="../algorithm/graph\l/cycles.hpp">
<polygon fill="#ffffff" stroke="#000000" points="2036.0913,-185.5 2036.0913,-213.5 2129.9087,-213.5 2129.9087,-185.5 2036.0913,-185.5"/>
<text text-anchor="start" x="2044.0913" y="-201.5" font-family="Helvetica,sans-Serif" font-size="10.00" fill="#000000">../algorithm/graph</text>
<text text-anchor="middle" x="2083" y="-191.5" font-family="Helvetica,sans-Serif" font-size="10.00" fill="#000000">/cycles.hpp</text>
</a>
</g>
</g>
<!-- Node18&#45;&gt;Node21 -->
<g id="edge35" class="edge">
<title>Node18&#45;&gt;Node21</title>
<path fill="none" stroke="#191970" d="M1459.92,-255.464C1469.3303,-253.3786 1479.502,-251.372 1489,-250 1723.9895,-216.0548 1787.2519,-249.5764 2022,-214 2023.2713,-213.8073 2024.5552,-213.6016 2025.8477,-213.3843"/>
<polygon fill="#191970" stroke="#191970" points="2026.6719,-216.7911 2035.8631,-211.5211 2025.3916,-209.9092 2026.6719,-216.7911"/>
</g>
<!-- Node28 -->
<g id="node28" class="node">
<title>Node28</title>
<g id="a_node28"><a xlink:href="serialise_8hpp.html" target="_top" xlink:title="../utils/serialise.hpp">
<polygon fill="#ffffff" stroke="#ff0000" points="1922.4805,-125.5 1922.4805,-143.5 2023.5195,-143.5 2023.5195,-125.5 1922.4805,-125.5"/>
<text text-anchor="middle" x="1973" y="-131.5" font-family="Helvetica,sans-Serif" font-size="10.00" fill="#000000">../utils/serialise.hpp</text>
</a>
</g>
</g>
<!-- Node18&#45;&gt;Node28 -->
<g id="edge45" class="edge">
<title>Node18&#45;&gt;Node28</title>
<path fill="none" stroke="#191970" d="M1460.2703,-255.4558C1469.585,-253.3961 1479.6236,-251.4039 1489,-250 1539.9213,-242.3756 1911.2662,-246.7466 1951,-214 1968.5716,-199.5184 1972.8026,-172.3579 1973.4862,-153.8545"/>
<polygon fill="#191970" stroke="#191970" points="1976.9872,-153.6617 1973.541,-143.643 1969.9873,-153.6241 1976.9872,-153.6617"/>
</g>
<!-- Node43 -->
<g id="node34" class="node">
<title>Node43</title>
<g id="a_node34"><a xlink:href="triple_8hpp.html" target="_top" xlink:title="../utils/triple.hpp">
<polygon fill="#ffffff" stroke="#000000" points="1751.9829,-190.5 1751.9829,-208.5 1838.0171,-208.5 1838.0171,-190.5 1751.9829,-190.5"/>
<text text-anchor="middle" x="1795" y="-196.5" font-family="Helvetica,sans-Serif" font-size="10.00" fill="#000000">../utils/triple.hpp</text>
</a>
</g>
</g>
<!-- Node18&#45;&gt;Node43 -->
<g id="edge52" class="edge">
<title>Node18&#45;&gt;Node43</title>
<path fill="none" stroke="#191970" d="M1462.7652,-255.4799C1471.3831,-253.5787 1480.487,-251.6507 1489,-250 1577.1942,-232.8994 1680.409,-216.6382 1741.6024,-207.3861"/>
<polygon fill="#191970" stroke="#191970" points="1742.4225,-210.8022 1751.7897,-205.852 1741.38,-203.8802 1742.4225,-210.8022"/>
</g>
<!-- Node18&#45;&gt;Node45 -->
<g id="edge57" class="edge">
<title>Node18&#45;&gt;Node45</title>
<path fill="none" stroke="#191970" d="M1387.3798,-255.4384C1378.1617,-253.4042 1368.2558,-251.4282 1359,-250 1171.8577,-221.124 948.0648,-207.4866 841.0518,-202.234"/>
<polygon fill="#191970" stroke="#191970" points="840.9127,-198.7233 830.7555,-201.7369 840.575,-205.7151 840.9127,-198.7233"/>
</g>
<!-- Node19&#45;&gt;Node2 -->
<g id="edge32" class="edge">
<title>Node19&#45;&gt;Node2</title>
<path fill="none" stroke="#191970" d="M965.9546,-123.3253C970.6987,-122.2003 975.4447,-121.0764 980,-120 1037.2929,-106.462 1103.2008,-90.9975 1146.7803,-80.7872"/>
<polygon fill="#191970" stroke="#191970" points="1147.6049,-84.1889 1156.5431,-78.5003 1146.0084,-77.3733 1147.6049,-84.1889"/>
</g>
<!-- Node19&#45;&gt;Node3 -->
<g id="edge33" class="edge">
<title>Node19&#45;&gt;Node3</title>
<path fill="none" stroke="#191970" d="M919.1147,-120.1609C919.2944,-97.6941 919.6427,-54.1603 919.8447,-28.9097"/>
<polygon fill="#191970" stroke="#191970" points="923.3459,-28.7637 919.9261,-18.736 916.3461,-28.7076 923.3459,-28.7637"/>
</g>
<!-- Node19&#45;&gt;Node6 -->
<g id="edge34" class="edge">
<title>Node19&#45;&gt;Node6</title>
<path fill="none" stroke="#191970" d="M871.7593,-126.2677C794.6956,-112.8384 643.9292,-86.5654 578.0692,-75.0885"/>
<polygon fill="#191970" stroke="#191970" points="578.3391,-71.5828 567.8867,-73.314 577.1373,-78.4789 578.3391,-71.5828"/>
</g>
<!-- Node21&#45;&gt;Node2 -->
<g id="edge36" class="edge">
<title>Node21&#45;&gt;Node2</title>
<path fill="none" stroke="#191970" d="M2035.7963,-186.5161C2001.5118,-176.8343 1954.1165,-162.9293 1913,-149 1878.7583,-137.3997 1872.2699,-127.9431 1837,-120 1783.0692,-107.8544 1429.2664,-84.3328 1271.1373,-74.2628"/>
<polygon fill="#191970" stroke="#191970" points="1271.2117,-70.7605 1261.0098,-73.6192 1270.7677,-77.7465 1271.2117,-70.7605"/>
</g>
<!-- Node22 -->
<g id="node22" class="node">
<title>Node22</title>
<g id="a_node22"><a xlink:href="numerics_8hpp.html" target="_top" xlink:title="../../utils/numerics.hpp">
<polygon fill="#ffffff" stroke="#000000" points="2109.3696,-125.5 2109.3696,-143.5 2222.6304,-143.5 2222.6304,-125.5 2109.3696,-125.5"/>
<text text-anchor="middle" x="2166" y="-131.5" font-family="Helvetica,sans-Serif" font-size="10.00" fill="#000000">../../utils/numerics.hpp</text>
</a>
</g>
</g>
<!-- Node21&#45;&gt;Node22 -->
<g id="edge37" class="edge">
<title>Node21&#45;&gt;Node22</title>
<path fill="none" stroke="#191970" d="M2101.0098,-185.396C2114.434,-174.883 2132.7479,-160.5408 2146.5137,-149.7603"/>
<polygon fill="#191970" stroke="#191970" points="2148.6977,-152.4956 2154.4128,-143.5743 2144.3818,-146.9844 2148.6977,-152.4956"/>
</g>
<!-- Node22&#45;&gt;Node3 -->
<g id="edge40" class="edge">
<title>Node22&#45;&gt;Node3</title>
<path fill="none" stroke="#191970" d="M2154.2655,-125.2024C2128.0181,-104.426 2066.6486,-55.9695 2064,-55 1957.3886,-15.9743 1129.9143,-10.3663 953.1536,-9.6115"/>
<polygon fill="#191970" stroke="#191970" points="952.9334,-6.1106 942.9193,-9.5702 952.9051,-13.1106 952.9334,-6.1106"/>
</g>
<!-- Node22&#45;&gt;Node6 -->
<g id="edge44" class="edge">
<title>Node22&#45;&gt;Node6</title>
<path fill="none" stroke="#191970" d="M2109.1363,-127.2606C2085.61,-124.5365 2058.0282,-121.6915 2033,-120 1427.5036,-79.0786 1273.2907,-127.8587 668,-84 637.423,-81.7844 602.7235,-77.486 578.1693,-74.1419"/>
<polygon fill="#191970" stroke="#191970" points="578.3671,-70.6359 567.9812,-72.7298 577.406,-77.5697 578.3671,-70.6359"/>
</g>
<!-- Node23 -->
<g id="node23" class="node">
<title>Node23</title>
<polygon fill="#ffffff" stroke="#bfbfbf" points="2241.436,-60.5 2241.436,-78.5 2298.564,-78.5 2298.564,-60.5 2241.436,-60.5"/>
<text text-anchor="middle" x="2270" y="-66.5" font-family="Helvetica,sans-Serif" font-size="10.00" fill="#000000">algorithm</text>
</g>
<!-- Node22&#45;&gt;Node23 -->
<g id="edge38" class="edge">
<title>Node22&#45;&gt;Node23</title>
<path fill="none" stroke="#191970" d="M2180.4608,-125.462C2197.5945,-114.7534 2226.3711,-96.7681 2246.6694,-84.0816"/>
<polygon fill="#191970" stroke="#191970" points="2248.7018,-86.9388 2255.3268,-78.6708 2244.9918,-81.0028 2248.7018,-86.9388"/>
</g>
<!-- Node24 -->
<g id="node24" class="node">
<title>Node24</title>
<polygon fill="#ffffff" stroke="#bfbfbf" points="2111.3843,-60.5 2111.3843,-78.5 2154.6157,-78.5 2154.6157,-60.5 2111.3843,-60.5"/>
<text text-anchor="middle" x="2133" y="-66.5" font-family="Helvetica,sans-Serif" font-size="10.00" fill="#000000">cmath</text>
</g>
<!-- Node22&#45;&gt;Node24 -->
<g id="edge39" class="edge">
<title>Node22&#45;&gt;Node24</title>
<path fill="none" stroke="#191970" d="M2161.4115,-125.462C2156.4926,-115.7732 2148.5494,-100.1276 2142.3107,-87.8393"/>
<polygon fill="#191970" stroke="#191970" points="2145.4111,-86.2144 2137.7632,-78.8821 2139.1694,-89.3833 2145.4111,-86.2144"/>
</g>
<!-- Node25 -->
<g id="node25" class="node">
<title>Node25</title>
<polygon fill="#ffffff" stroke="#bfbfbf" points="2375.4385,-60.5 2375.4385,-78.5 2422.5615,-78.5 2422.5615,-60.5 2375.4385,-60.5"/>
<text text-anchor="middle" x="2399" y="-66.5" font-family="Helvetica,sans-Serif" font-size="10.00" fill="#000000">iterator</text>
</g>
<!-- Node22&#45;&gt;Node25 -->
<g id="edge41" class="edge">
<title>Node22&#45;&gt;Node25</title>
<path fill="none" stroke="#191970" d="M2210.7092,-125.4511C2251.656,-116.6385 2313.6678,-101.9639 2366,-84 2367.4057,-83.5175 2368.8346,-82.9997 2370.2704,-82.4573"/>
<polygon fill="#191970" stroke="#191970" points="2371.7253,-85.644 2379.6701,-78.6348 2369.0883,-79.1597 2371.7253,-85.644"/>
</g>
<!-- Node26 -->
<g id="node26" class="node">
<title>Node26</title>
<polygon fill="#ffffff" stroke="#bfbfbf" points="2172.2168,-60.5 2172.2168,-78.5 2223.7832,-78.5 2223.7832,-60.5 2172.2168,-60.5"/>
<text text-anchor="middle" x="2198" y="-66.5" font-family="Helvetica,sans-Serif" font-size="10.00" fill="#000000">numeric</text>
</g>
<!-- Node22&#45;&gt;Node26 -->
<g id="edge42" class="edge">
<title>Node22&#45;&gt;Node26</title>
<path fill="none" stroke="#191970" d="M2170.4495,-125.462C2175.1721,-115.8691 2182.7696,-100.4368 2188.7912,-88.2053"/>
<polygon fill="#191970" stroke="#191970" points="2192.1043,-89.3998 2193.3811,-78.8821 2185.8241,-86.3079 2192.1043,-89.3998"/>
</g>
<!-- Node27 -->
<g id="node27" class="node">
<title>Node27</title>
<polygon fill="#ffffff" stroke="#bfbfbf" points="2316.7734,-60.5 2316.7734,-78.5 2357.2266,-78.5 2357.2266,-60.5 2316.7734,-60.5"/>
<text text-anchor="middle" x="2337" y="-66.5" font-family="Helvetica,sans-Serif" font-size="10.00" fill="#000000">string</text>
</g>
<!-- Node22&#45;&gt;Node27 -->
<g id="edge43" class="edge">
<title>Node22&#45;&gt;Node27</title>
<path fill="none" stroke="#191970" d="M2194.6807,-125.4426C2223.6441,-116.0308 2269.4838,-100.4056 2308,-84 2308.8383,-83.6429 2309.6866,-83.273 2310.5401,-82.8934"/>
<polygon fill="#191970" stroke="#191970" points="2312.1229,-86.0168 2319.6795,-78.5906 2309.1412,-79.6836 2312.1229,-86.0168"/>
</g>
<!-- Node28&#45;&gt;Node2 -->
<g id="edge46" class="edge">
<title>Node28&#45;&gt;Node2</title>
<path fill="none" stroke="#191970" d="M1937.0769,-125.4853C1927.6667,-123.3996 1917.4957,-121.3875 1908,-120 1786.871,-102.3002 1428.9636,-81.888 1271.1806,-73.4568"/>
<polygon fill="#191970" stroke="#191970" points="1271.2538,-69.9558 1261.0818,-72.9189 1270.8814,-76.9459 1271.2538,-69.9558"/>
</g>
<!-- Node29 -->
<g id="node29" class="node">
<title>Node29</title>
<polygon fill="#ffffff" stroke="#bfbfbf" points="1816.6997,-60.5 1816.6997,-78.5 1913.3003,-78.5 1913.3003,-60.5 1816.6997,-60.5"/>
<text text-anchor="middle" x="1865" y="-66.5" font-family="Helvetica,sans-Serif" font-size="10.00" fill="#000000">cereal/access.hpp</text>
</g>
<!-- Node28&#45;&gt;Node29 -->
<g id="edge47" class="edge">
<title>Node28&#45;&gt;Node29</title>
<path fill="none" stroke="#191970" d="M1957.9831,-125.462C1940.1101,-114.7052 1910.0375,-96.6059 1888.9436,-83.9105"/>
<polygon fill="#191970" stroke="#191970" points="1890.6103,-80.8286 1880.2376,-78.6708 1887.0007,-86.8262 1890.6103,-80.8286"/>
</g>
<!-- Node30 -->
<g id="node30" class="node">
<title>Node30</title>
<polygon fill="#ffffff" stroke="#bfbfbf" points="1931.0815,-60.5 1931.0815,-78.5 2054.9185,-78.5 2054.9185,-60.5 1931.0815,-60.5"/>
<text text-anchor="middle" x="1993" y="-66.5" font-family="Helvetica,sans-Serif" font-size="10.00" fill="#000000">cereal/archives/json.hpp</text>
</g>
<!-- Node28&#45;&gt;Node30 -->
<g id="edge48" class="edge">
<title>Node28&#45;&gt;Node30</title>
<path fill="none" stroke="#191970" d="M1975.7809,-125.462C1978.7031,-115.9651 1983.3862,-100.7449 1987.1313,-88.5732"/>
<polygon fill="#191970" stroke="#191970" points="1990.5175,-89.4693 1990.1132,-78.8821 1983.827,-87.4106 1990.5175,-89.4693"/>
</g>
<!-- Node31 -->
<g id="node31" class="node">
<title>Node31</title>
<polygon fill="#ffffff" stroke="#bfbfbf" points="1565.9165,-55.5 1565.9165,-83.5 1688.0835,-83.5 1688.0835,-55.5 1565.9165,-55.5"/>
<text text-anchor="start" x="1573.9165" y="-71.5" font-family="Helvetica,sans-Serif" font-size="10.00" fill="#000000">cereal/archives/portable</text>
<text text-anchor="middle" x="1627" y="-61.5" font-family="Helvetica,sans-Serif" font-size="10.00" fill="#000000">_binary.hpp</text>
</g>
<!-- Node28&#45;&gt;Node31 -->
<g id="edge49" class="edge">
<title>Node28&#45;&gt;Node31</title>
<path fill="none" stroke="#191970" d="M1933.8831,-125.4384C1925.3679,-123.5597 1916.3951,-121.6514 1908,-120 1817.7553,-102.2474 1792.1627,-101.6704 1698.3483,-84.2134"/>
<polygon fill="#191970" stroke="#191970" points="1698.9097,-80.7578 1688.4358,-82.3537 1697.6189,-87.6377 1698.9097,-80.7578"/>
</g>
<!-- Node32 -->
<g id="node32" class="node">
<title>Node32</title>
<polygon fill="#ffffff" stroke="#bfbfbf" points="1705.6431,-60.5 1705.6431,-78.5 1798.3569,-78.5 1798.3569,-60.5 1705.6431,-60.5"/>
<text text-anchor="middle" x="1752" y="-66.5" font-family="Helvetica,sans-Serif" font-size="10.00" fill="#000000">cereal/cereal.hpp</text>
</g>
<!-- Node28&#45;&gt;Node32 -->
<g id="edge50" class="edge">
<title>Node28&#45;&gt;Node32</title>
<path fill="none" stroke="#191970" d="M1942.2709,-125.462C1903.2095,-113.9734 1835.6715,-94.1093 1792.4549,-81.3985"/>
<polygon fill="#191970" stroke="#191970" points="1793.4048,-78.0297 1782.8236,-78.5658 1791.4296,-84.7453 1793.4048,-78.0297"/>
</g>
<!-- Node42 -->
<g id="node33" class="node">
<title>Node42</title>
<polygon fill="#ffffff" stroke="#bfbfbf" points="1485.9336,-60.5 1485.9336,-78.5 1548.0664,-78.5 1548.0664,-60.5 1485.9336,-60.5"/>
<text text-anchor="middle" x="1517" y="-66.5" font-family="Helvetica,sans-Serif" font-size="10.00" fill="#000000">type_traits</text>
</g>
<!-- Node28&#45;&gt;Node42 -->
<g id="edge51" class="edge">
<title>Node28&#45;&gt;Node42</title>
<path fill="none" stroke="#191970" d="M1936.0221,-125.4636C1926.9018,-123.4529 1917.1303,-121.4814 1908,-120 1753.2058,-94.8852 1709.8661,-118.9852 1557,-84 1554.3246,-83.3877 1551.5831,-82.6477 1548.8512,-81.8299"/>
<polygon fill="#191970" stroke="#191970" points="1549.7273,-78.4333 1539.1341,-78.6172 1547.5299,-85.0795 1549.7273,-78.4333"/>
</g>
<!-- Node43&#45;&gt;Node28 -->
<g id="edge55" class="edge">
<title>Node43&#45;&gt;Node28</title>
<path fill="none" stroke="#191970" d="M1819.7501,-190.462C1850.6152,-179.1911 1903.5553,-159.859 1938.417,-147.1286"/>
<polygon fill="#191970" stroke="#191970" points="1939.981,-150.2836 1948.1738,-143.5658 1937.5799,-143.7083 1939.981,-150.2836"/>
</g>
<!-- Node43&#45;&gt;Node42 -->
<g id="edge53" class="edge">
<title>Node43&#45;&gt;Node42</title>
<path fill="none" stroke="#191970" d="M1791.2326,-190.3905C1783.7662,-173.5517 1765.4074,-137.666 1738,-120 1669.0602,-75.5634 1636.0036,-106.0394 1557,-84 1554.572,-83.3227 1552.0806,-82.5683 1549.5857,-81.7694"/>
<polygon fill="#191970" stroke="#191970" points="1550.668,-78.4406 1540.0736,-78.5365 1548.4154,-85.0683 1550.668,-78.4406"/>
</g>
<!-- Node44 -->
<g id="node35" class="node">
<title>Node44</title>
<polygon fill="#ffffff" stroke="#bfbfbf" points="1789.6084,-125.5 1789.6084,-143.5 1828.3916,-143.5 1828.3916,-125.5 1789.6084,-125.5"/>
<text text-anchor="middle" x="1809" y="-131.5" font-family="Helvetica,sans-Serif" font-size="10.00" fill="#000000">utility</text>
</g>
<!-- Node43&#45;&gt;Node44 -->
<g id="edge54" class="edge">
<title>Node43&#45;&gt;Node44</title>
<path fill="none" stroke="#191970" d="M1796.9466,-190.462C1798.9715,-181.061 1802.2042,-166.0518 1804.8123,-153.943"/>
<polygon fill="#191970" stroke="#191970" points="1808.2951,-154.3949 1806.9792,-143.8821 1801.4521,-152.921 1808.2951,-154.3949"/>
</g>
<!-- Node47&#45;&gt;Node2 -->
<g id="edge66" class="edge">
<title>Node47&#45;&gt;Node2</title>
<path fill="none" stroke="#191970" d="M1796.9106,-380.3072C1779.2813,-354.5515 1725.2775,-281.5155 1660,-250 1591.2332,-216.7999 1564.1929,-238.8856 1492,-214 1385.8137,-177.3965 1268.2466,-112.2106 1218.8802,-83.6105"/>
<polygon fill="#191970" stroke="#191970" points="1220.6085,-80.5667 1210.2065,-78.5541 1217.083,-86.6142 1220.6085,-80.5667"/>
</g>
<!-- Node47&#45;&gt;Node4 -->
<g id="edge71" class="edge">
<title>Node47&#45;&gt;Node4</title>
<path fill="none" stroke="#191970" d="M1860.534,-386.5832C2043.9668,-376.5263 2603,-339.7071 2603,-264.5 2603,-264.5 2603,-264.5 2603,-134.5 2603,-91.0233 2583.8858,-76.3281 2546,-55 2497.662,-27.7878 2112.0677,-14.1689 1990.545,-10.523"/>
<polygon fill="#191970" stroke="#191970" points="1990.3791,-7.0166 1980.2801,-10.22 1990.1725,-14.0136 1990.3791,-7.0166"/>
</g>
<!-- Node47&#45;&gt;Node5 -->
<g id="edge70" class="edge">
<title>Node47&#45;&gt;Node5</title>
<path fill="none" stroke="#191970" d="M1745.2961,-388.4123C1553.7471,-384.5832 940.0417,-370.5066 744,-344 623.8248,-327.7513 483.9936,-289.5185 425.7079,-272.6923"/>
<polygon fill="#191970" stroke="#191970" points="426.3763,-269.2418 415.7967,-269.8098 424.4214,-275.9633 426.3763,-269.2418"/>
</g>
<!-- Node47&#45;&gt;Node6 -->
<g id="edge74" class="edge">
<title>Node47&#45;&gt;Node6</title>
<path fill="none" stroke="#191970" d="M1745.2198,-388.3766C1641.9137,-385.5935 1419.0358,-376.071 1234,-344 1124.6912,-325.0543 1094.9318,-322.7865 993,-279 919.3227,-247.3507 914.3766,-212.3569 839,-185 737.1979,-148.0523 689.1823,-207.4343 598,-149 586.1326,-141.3948 566.9304,-108.5032 555.4789,-87.4828"/>
<polygon fill="#191970" stroke="#191970" points="558.4918,-85.6952 550.6812,-78.5366 552.3229,-89.0035 558.4918,-85.6952"/>
</g>
<!-- Node47&#45;&gt;Node14 -->
<g id="edge67" class="edge">
<title>Node47&#45;&gt;Node14</title>
<path fill="none" stroke="#191970" d="M1745.3102,-382.7919C1644.8547,-371.111 1439.1936,-347.1969 1341.2198,-335.8046"/>
<polygon fill="#191970" stroke="#191970" points="1341.5696,-332.3218 1331.2322,-334.6433 1340.761,-339.275 1341.5696,-332.3218"/>
</g>
<!-- Node47&#45;&gt;Node16 -->
<g id="edge68" class="edge">
<title>Node47&#45;&gt;Node16</title>
<path fill="none" stroke="#191970" d="M1790.3059,-380.19C1777.9136,-371.064 1758.5583,-356.7114 1742,-344 1688.5378,-302.9584 1684.8834,-276.7032 1623,-250 1574.4743,-229.0607 1431.1182,-213.0855 1345.8704,-205.1173"/>
<polygon fill="#191970" stroke="#191970" points="1346.052,-201.6193 1335.7727,-204.1855 1345.4087,-208.5897 1346.052,-201.6193"/>
</g>
<!-- Node47&#45;&gt;Node21 -->
<g id="edge65" class="edge">
<title>Node47&#45;&gt;Node21</title>
<path fill="none" stroke="#191970" d="M1818.9647,-380.2565C1850.4064,-361.895 1922.3048,-319.1282 1980,-279 2007.3822,-259.9551 2037.4431,-236.4319 2057.9831,-219.9321"/>
<polygon fill="#191970" stroke="#191970" points="2060.3162,-222.5469 2065.8989,-213.5423 2055.9193,-217.1001 2060.3162,-222.5469"/>
</g>
<!-- Node47&#45;&gt;Node25 -->
<g id="edge69" class="edge">
<title>Node47&#45;&gt;Node25</title>
<path fill="none" stroke="#191970" d="M1860.5057,-384.4606C2019.0956,-369.7965 2451,-324.3649 2451,-264.5 2451,-264.5 2451,-264.5 2451,-199.5 2451,-156.7957 2426.5113,-111.4811 2411.1445,-87.2499"/>
<polygon fill="#191970" stroke="#191970" points="2413.9954,-85.2146 2405.5858,-78.7702 2408.1411,-89.0523 2413.9954,-85.2146"/>
</g>
<!-- Node48 -->
<g id="node39" class="node">
<title>Node48</title>
<polygon fill="#ffffff" stroke="#bfbfbf" points="2027.3301,-320.5 2027.3301,-338.5 2056.6699,-338.5 2056.6699,-320.5 2027.3301,-320.5"/>
<text text-anchor="middle" x="2042" y="-326.5" font-family="Helvetica,sans-Serif" font-size="10.00" fill="#000000">set</text>
</g>
<!-- Node47&#45;&gt;Node48 -->
<g id="edge72" class="edge">
<title>Node47&#45;&gt;Node48</title>
<path fill="none" stroke="#191970" d="M1860.6657,-381.0092C1903.47,-373.7513 1962.8581,-361.6529 2013,-344 2014.6426,-343.4217 2016.3118,-342.7714 2017.9771,-342.075"/>
<polygon fill="#191970" stroke="#191970" points="2019.6664,-345.1494 2027.2605,-337.7615 2016.7167,-338.8012 2019.6664,-345.1494"/>
</g>
<!-- Node49 -->
<g id="node40" class="node">
<title>Node49</title>
<polygon fill="#ffffff" stroke="#bfbfbf" points="2074.5986,-320.5 2074.5986,-338.5 2133.4014,-338.5 2133.4014,-320.5 2074.5986,-320.5"/>
<text text-anchor="middle" x="2104" y="-326.5" font-family="Helvetica,sans-Serif" font-size="10.00" fill="#000000">stdexcept</text>
</g>
<!-- Node47&#45;&gt;Node49 -->
<g id="edge73" class="edge">
<title>Node47&#45;&gt;Node49</title>
<path fill="none" stroke="#191970" d="M1860.6475,-382.788C1914.4066,-375.7644 1996.5151,-363.0748 2066,-344 2068.2981,-343.3691 2070.6508,-342.6526 2073.0036,-341.8839"/>
<polygon fill="#191970" stroke="#191970" points="2074.2742,-345.1471 2082.5378,-338.5165 2071.943,-338.5467 2074.2742,-345.1471"/>
</g>
<!-- Node50&#45;&gt;Node2 -->
<g id="edge77" class="edge">
<title>Node50&#45;&gt;Node2</title>
<path fill="none" stroke="#191970" d="M1829.5155,-255.4545C1824.1568,-253.4905 1818.4193,-251.542 1813,-250 1734.9496,-227.7915 1708.8714,-245.2948 1634,-214 1612.7319,-205.1104 1611.4644,-195.6098 1591,-185 1518.8188,-147.5775 1497.8633,-143.4066 1420,-120 1364.7522,-103.3919 1300.4102,-89.48 1254.7175,-80.4913"/>
<polygon fill="#191970" stroke="#191970" points="1255.1669,-77.0132 1244.6823,-78.5373 1253.829,-83.8841 1255.1669,-77.0132"/>
</g>
<!-- Node50&#45;&gt;Node4 -->
<g id="edge79" class="edge">
<title>Node50&#45;&gt;Node4</title>
<path fill="none" stroke="#191970" d="M1872.569,-255.3984C1878.1275,-253.2871 1884.2093,-251.2844 1890,-250 2107.0784,-201.8506 2176.2582,-278.6707 2389,-214 2444.8026,-197.0368 2473.7018,-199.4311 2503,-149 2523.9865,-112.8759 2531.2951,-85.7371 2503,-55 2468.3349,-17.3431 2107.7664,-10.8486 1990.5741,-9.7314"/>
<polygon fill="#191970" stroke="#191970" points="1990.3576,-6.2294 1980.3273,-9.6417 1990.2962,-13.2292 1990.3576,-6.2294"/>
</g>
<!-- Node51 -->
<g id="node42" class="node">
<title>Node51</title>
<polygon fill="#ffffff" stroke="#bfbfbf" points="1543.6084,-190.5 1543.6084,-208.5 1582.3916,-208.5 1582.3916,-190.5 1543.6084,-190.5"/>
<text text-anchor="middle" x="1563" y="-196.5" font-family="Helvetica,sans-Serif" font-size="10.00" fill="#000000">array</text>
</g>
<!-- Node50&#45;&gt;Node51 -->
<g id="edge78" class="edge">
<title>Node50&#45;&gt;Node51</title>
<path fill="none" stroke="#191970" d="M1829.964,-255.4711C1824.4872,-253.4602 1818.5844,-251.4867 1813,-250 1718.5277,-224.8502 1689.7028,-241.8805 1596,-214 1594.3506,-213.5092 1592.6747,-212.9566 1590.9971,-212.361"/>
<polygon fill="#191970" stroke="#191970" points="1592.1283,-209.0445 1581.5423,-208.6125 1589.5484,-215.5517 1592.1283,-209.0445"/>
</g>
<!-- Node52&#45;&gt;Node2 -->
<g id="edge82" class="edge">
<title>Node52&#45;&gt;Node2</title>
<path fill="none" stroke="#191970" d="M1750.1721,-255.4489C1744.2653,-253.485 1737.9495,-251.5381 1732,-250 1645.8277,-227.7219 1617.4215,-247.5957 1535,-214 1513.654,-205.2992 1511.5818,-197.1619 1492,-185 1442.4543,-154.2282 1431.8613,-142.375 1378,-120 1336.2686,-102.664 1286.745,-89.4118 1249.7466,-80.8419"/>
<polygon fill="#191970" stroke="#191970" points="1250.1872,-77.3528 1239.6602,-78.5494 1248.6358,-84.1787 1250.1872,-77.3528"/>
</g>
<!-- Node52&#45;&gt;Node4 -->
<g id="edge84" class="edge">
<title>Node52&#45;&gt;Node4</title>
<path fill="none" stroke="#191970" d="M1796.0013,-255.3961C1801.4507,-253.3377 1807.372,-251.3609 1813,-250 2065.625,-188.913 2166.0595,-282.5985 2389,-149 2422.7235,-128.791 2434.6838,-120.6159 2449,-84 2453.6934,-71.996 2457.6867,-64.5218 2449,-55 2418.217,-21.2577 2099.8384,-12.2067 1990.5725,-10.0847"/>
<polygon fill="#191970" stroke="#191970" points="1990.4342,-6.5816 1980.3709,-9.8951 1990.3041,-13.5804 1990.4342,-6.5816"/>
</g>
<!-- Node52&#45;&gt;Node51 -->
<g id="edge83" class="edge">
<title>Node52&#45;&gt;Node51</title>
<path fill="none" stroke="#191970" d="M1749.1674,-255.479C1743.5315,-253.5979 1737.5832,-251.6783 1732,-250 1672.1205,-232.0005 1655.0219,-234.6385 1596,-214 1594.5971,-213.5094 1593.1704,-212.9851 1591.7365,-212.4374"/>
<polygon fill="#191970" stroke="#191970" points="1592.9239,-209.1417 1582.3431,-208.5966 1590.2746,-215.621 1592.9239,-209.1417"/>
</g>
<!-- Node53&#45;&gt;Node2 -->
<g id="edge86" class="edge">
<title>Node53&#45;&gt;Node2</title>
<path fill="none" stroke="#191970" d="M1909.6019,-255.3865C1903.5575,-253.4252 1897.0928,-251.4951 1891,-250 1795.2024,-226.4925 1764.2219,-248.9985 1672,-214 1649.4043,-205.4249 1647.331,-196.3616 1626,-185 1562.9505,-151.4176 1547.3255,-140.8479 1479,-120 1440.1374,-108.142 1336.4351,-91.0266 1265.7068,-80.0831"/>
<polygon fill="#191970" stroke="#191970" points="1265.9386,-76.5776 1255.5223,-78.5147 1264.8731,-83.4961 1265.9386,-76.5776"/>
</g>
<!-- Node53&#45;&gt;Node3 -->
<g id="edge92" class="edge">
<title>Node53&#45;&gt;Node3</title>
<path fill="none" stroke="#191970" d="M1909.0858,-255.4313C1903.1785,-253.512 1896.9026,-251.5887 1891,-250 1816.003,-229.8147 1793.244,-239.8324 1720,-214 1693.1947,-204.5461 1688.417,-197.723 1663,-185 1604.5234,-155.7283 1592.4107,-142.4739 1531,-120 1418.7382,-78.9165 1387.4663,-77.1865 1270,-55 1154.1721,-33.123 1014.7851,-18.4321 952.6512,-12.4808"/>
<polygon fill="#191970" stroke="#191970" points="952.948,-8.9934 942.6628,-11.536 952.2888,-15.9622 952.948,-8.9934"/>
</g>
<!-- Node53&#45;&gt;Node4 -->
<g id="edge93" class="edge">
<title>Node53&#45;&gt;Node4</title>
<path fill="none" stroke="#191970" d="M1908.5811,-255.4151C1902.8132,-253.5379 1896.7225,-251.6361 1891,-250 1825.9121,-231.3912 1795.202,-257.1007 1743,-214 1707.5733,-184.7499 1736.5479,-147.8364 1700,-120 1617.8728,-57.4484 1407.5537,-131.3858 1477,-55 1506.5197,-22.5305 1811.4313,-12.675 1917.7066,-10.2136"/>
<polygon fill="#191970" stroke="#191970" points="1918.0147,-13.7077 1927.9341,-9.9855 1917.8585,-6.7094 1918.0147,-13.7077"/>
</g>
<!-- Node53&#45;&gt;Node27 -->
<g id="edge94" class="edge">
<title>Node53&#45;&gt;Node27</title>
<path fill="none" stroke="#191970" d="M1970.7335,-260.974C2068.5998,-250.5056 2337.1356,-216.0735 2389,-149 2405.4923,-127.6714 2379.7165,-101.164 2358.9304,-84.7894"/>
<polygon fill="#191970" stroke="#191970" points="2360.8433,-81.8487 2350.7466,-78.6383 2356.6375,-87.4444 2360.8433,-81.8487"/>
</g>
<!-- Node53&#45;&gt;Node51 -->
<g id="edge91" class="edge">
<title>Node53&#45;&gt;Node51</title>
<path fill="none" stroke="#191970" d="M1910.0912,-255.432C1903.9137,-253.4223 1897.2668,-251.4591 1891,-250 1778.6672,-223.8455 1747.6687,-233.5487 1634,-214 1620.342,-211.6511 1605.2919,-208.6389 1592.5766,-205.9691"/>
<polygon fill="#191970" stroke="#191970" points="1593.0364,-202.4886 1582.5267,-203.8291 1591.5785,-209.3351 1593.0364,-202.4886"/>
</g>
<!-- Node54 -->
<g id="node45" class="node">
<title>Node54</title>
<g id="a_node45"><a xlink:href="quad_8hpp.html" target="_top" xlink:title="../utils/quad.hpp">
<polygon fill="#ffffff" stroke="#000000" points="1855.6973,-190.5 1855.6973,-208.5 1942.3027,-208.5 1942.3027,-190.5 1855.6973,-190.5"/>
<text text-anchor="middle" x="1899" y="-196.5" font-family="Helvetica,sans-Serif" font-size="10.00" fill="#000000">../utils/quad.hpp</text>
</a>
</g>
</g>
<!-- Node53&#45;&gt;Node54 -->
<g id="edge87" class="edge">
<title>Node53&#45;&gt;Node54</title>
<path fill="none" stroke="#191970" d="M1929.9944,-255.462C1924.6282,-245.7732 1915.963,-230.1276 1909.1572,-217.8393"/>
<polygon fill="#191970" stroke="#191970" points="1912.1031,-215.9343 1904.1963,-208.8821 1905.9795,-219.3258 1912.1031,-215.9343"/>
</g>
<!-- Node54&#45;&gt;Node28 -->
<g id="edge90" class="edge">
<title>Node54&#45;&gt;Node28</title>
<path fill="none" stroke="#191970" d="M1909.2894,-190.462C1920.975,-180.1976 1940.2719,-163.2477 1954.5719,-150.6869"/>
<polygon fill="#191970" stroke="#191970" points="1957.1154,-153.1112 1962.3188,-143.8821 1952.4958,-147.852 1957.1154,-153.1112"/>
</g>
<!-- Node54&#45;&gt;Node42 -->
<g id="edge88" class="edge">
<title>Node54&#45;&gt;Node42</title>
<path fill="none" stroke="#191970" d="M1894.9154,-190.4655C1886.6833,-173.4206 1866.3466,-136.7311 1837,-120 1728.0012,-57.8576 1678.9374,-113.5583 1557,-84 1554.3327,-83.3534 1551.5969,-82.5891 1548.8689,-81.7548"/>
<polygon fill="#191970" stroke="#191970" points="1549.7525,-78.3599 1539.1588,-78.5123 1547.5354,-84.9995 1549.7525,-78.3599"/>
</g>
<!-- Node54&#45;&gt;Node44 -->
<g id="edge89" class="edge">
<title>Node54&#45;&gt;Node44</title>
<path fill="none" stroke="#191970" d="M1886.4859,-190.462C1871.9257,-179.9464 1847.6499,-162.4138 1830.1465,-149.7725"/>
<polygon fill="#191970" stroke="#191970" points="1831.854,-146.6883 1821.698,-143.6708 1827.7555,-152.3631 1831.854,-146.6883"/>
</g>
<!-- Node55&#45;&gt;Node2 -->
<g id="edge96" class="edge">
<title>Node55&#45;&gt;Node2</title>
<path fill="none" stroke="#191970" d="M786.7642,-320.493C780.1573,-305.0245 769.3948,-272.8699 782,-250 796.4632,-223.759 813.9098,-230.3786 839,-214 858.3025,-201.3995 860.5181,-193.3597 882,-185 982.5171,-145.8836 1026.7526,-199.6134 1122,-149 1149.1784,-134.5577 1171.5321,-105.9214 1184.064,-87.2501"/>
<polygon fill="#191970" stroke="#191970" points="1187.0645,-89.0555 1189.5507,-78.7564 1181.1846,-85.2572 1187.0645,-89.0555"/>
</g>
<!-- Node55&#45;&gt;Node4 -->
<g id="edge111" class="edge">
<title>Node55&#45;&gt;Node4</title>
<path fill="none" stroke="#191970" d="M791.0848,-320.4876C791.7384,-304.1281 795.501,-269.4442 815,-250 870.5101,-194.646 1078.6624,-173.8868 1153,-149 1266.7495,-110.9188 1288.9179,-81.0942 1406,-55 1504.0814,-33.1405 1811.4342,-16.4637 1917.5448,-11.2282"/>
<polygon fill="#191970" stroke="#191970" points="1917.9315,-14.7135 1927.7487,-10.7295 1917.5898,-7.7219 1917.9315,-14.7135"/>
</g>
<!-- Node55&#45;&gt;Node5 -->
<g id="edge110" class="edge">
<title>Node55&#45;&gt;Node5</title>
<path fill="none" stroke="#191970" d="M752.612,-324.1216C691.9984,-315.489 570.4737,-297.6124 468,-279 454.0719,-276.4702 438.6588,-273.3162 425.8491,-270.5964"/>
<polygon fill="#191970" stroke="#191970" points="426.3029,-267.1142 415.791,-268.4372 424.8336,-273.9583 426.3029,-267.1142"/>
</g>
<!-- Node55&#45;&gt;Node6 -->
<g id="edge112" class="edge">
<title>Node55&#45;&gt;Node6</title>
<path fill="none" stroke="#191970" d="M752.8117,-323.9076C677.157,-312.6681 514.7366,-287.674 506,-279 455.7093,-229.0694 466.4018,-185.273 494,-120 500.0142,-105.7758 512.2117,-93.5842 523.2823,-84.7451"/>
<polygon fill="#191970" stroke="#191970" points="525.5005,-87.4567 531.4073,-78.6612 521.3048,-81.8534 525.5005,-87.4567"/>
</g>
<!-- Node55&#45;&gt;Node46 -->
<g id="edge109" class="edge">
<title>Node55&#45;&gt;Node46</title>
<path fill="none" stroke="#191970" d="M801.2894,-320.462C812.975,-310.1976 832.2719,-293.2477 846.5719,-280.6869"/>
<polygon fill="#191970" stroke="#191970" points="849.1154,-283.1112 854.3188,-273.8821 844.4958,-277.852 849.1154,-283.1112"/>
</g>
<!-- Node55&#45;&gt;Node56 -->
<g id="edge97" class="edge">
<title>Node55&#45;&gt;Node56</title>
<path fill="none" stroke="#191970" d="M829.3046,-321.0024C881.5456,-309.4131 975.2588,-288.6235 1033.2829,-275.7512"/>
<polygon fill="#191970" stroke="#191970" points="1034.3272,-279.1047 1043.3318,-273.522 1032.8111,-272.2709 1034.3272,-279.1047"/>
</g>
<!-- Node56&#45;&gt;Node2 -->
<g id="edge104" class="edge">
<title>Node56&#45;&gt;Node2</title>
<path fill="none" stroke="#191970" d="M1098.9795,-255.3851C1125.2606,-238.3712 1178.7159,-198.9372 1198,-149 1205.5194,-129.5282 1203.1154,-105.3409 1199.8838,-88.7914"/>
<polygon fill="#191970" stroke="#191970" points="1203.2262,-87.6999 1197.6261,-78.706 1196.3952,-89.2291 1203.2262,-87.6999"/>
</g>
<!-- Node56&#45;&gt;Node3 -->
<g id="edge107" class="edge">
<title>Node56&#45;&gt;Node3</title>
<path fill="none" stroke="#191970" d="M1075.4213,-255.4866C1059.3694,-239.1257 1023.0552,-204.4394 986,-185 935.5596,-158.5386 897.1547,-194.584 863,-149 833.7296,-109.9347 877.4044,-53.7111 903.2426,-26.092"/>
<polygon fill="#191970" stroke="#191970" points="905.8604,-28.4196 910.2856,-18.7931 900.8231,-23.5589 905.8604,-28.4196"/>
</g>
<!-- Node56&#45;&gt;Node16 -->
<g id="edge105" class="edge">
<title>Node56&#45;&gt;Node16</title>
<path fill="none" stroke="#191970" d="M1111.253,-255.462C1145.531,-244.0943 1204.5354,-224.5265 1242.904,-211.8023"/>
<polygon fill="#191970" stroke="#191970" points="1244.2733,-215.0356 1252.6633,-208.5658 1242.0699,-208.3915 1244.2733,-215.0356"/>
</g>
<!-- Node56&#45;&gt;Node51 -->
<g id="edge106" class="edge">
<title>Node56&#45;&gt;Node51</title>
<path fill="none" stroke="#191970" d="M1130.3638,-258.2085C1228.1074,-244.9447 1452.9312,-214.4363 1533.5549,-203.4957"/>
<polygon fill="#191970" stroke="#191970" points="1534.0793,-206.9567 1543.5178,-202.1437 1533.1379,-200.0203 1534.0793,-206.9567"/>
</g>
<!-- Node57 -->
<g id="node48" class="node">
<title>Node57</title>
<g id="a_node48"><a xlink:href="common_8hpp.html" target="_top" xlink:title="../utils/common.hpp">
<polygon fill="#ffffff" stroke="#000000" points="2277.6479,-125.5 2277.6479,-143.5 2380.3521,-143.5 2380.3521,-125.5 2277.6479,-125.5"/>
<text text-anchor="middle" x="2329" y="-131.5" font-family="Helvetica,sans-Serif" font-size="10.00" fill="#000000">../utils/common.hpp</text>
</a>
</g>
</g>
<!-- Node56&#45;&gt;Node57 -->
<g id="edge98" class="edge">
<title>Node56&#45;&gt;Node57</title>
<path fill="none" stroke="#191970" d="M1130.3137,-258.6727C1155.3521,-255.6994 1186.8302,-252.2458 1215,-250 1541.4663,-223.9727 1630.4692,-281.2137 1951,-214 1986.3837,-206.5802 1992.1097,-194.4726 2027,-185 2049.723,-178.8308 2185.6439,-157.0126 2267.1951,-144.1609"/>
<polygon fill="#191970" stroke="#191970" points="2268.0132,-147.5753 2277.3474,-142.5631 2266.9248,-140.6605 2268.0132,-147.5753"/>
</g>
<!-- Node58 -->
<g id="node49" class="node">
<title>Node58</title>
<polygon fill="#ffffff" stroke="#bfbfbf" points="1075.8276,-190.5 1075.8276,-208.5 1130.1724,-208.5 1130.1724,-190.5 1075.8276,-190.5"/>
<text text-anchor="middle" x="1103" y="-196.5" font-family="Helvetica,sans-Serif" font-size="10.00" fill="#000000">iostream</text>
</g>
<!-- Node56&#45;&gt;Node58 -->
<g id="edge108" class="edge">
<title>Node56&#45;&gt;Node58</title>
<path fill="none" stroke="#191970" d="M1086.6419,-255.462C1089.4179,-245.9651 1093.8669,-230.7449 1097.4248,-218.5732"/>
<polygon fill="#191970" stroke="#191970" points="1100.8112,-219.4625 1100.2575,-208.8821 1094.0924,-217.4985 1100.8112,-219.4625"/>
</g>
<!-- Node57&#45;&gt;Node4 -->
<g id="edge101" class="edge">
<title>Node57&#45;&gt;Node4</title>
<path fill="none" stroke="#191970" d="M2358.404,-125.4818C2397.6643,-112.0146 2459.279,-84.9989 2432,-55 2402.4158,-22.466 2096.8667,-12.6523 1990.3692,-10.2076"/>
<polygon fill="#191970" stroke="#191970" points="1990.1952,-6.703 1980.1203,-9.9811 1990.0406,-13.7013 1990.1952,-6.703"/>
</g>
<!-- Node57&#45;&gt;Node23 -->
<g id="edge99" class="edge">
<title>Node57&#45;&gt;Node23</title>
<path fill="none" stroke="#191970" d="M2320.7963,-125.462C2311.6535,-115.3895 2296.6671,-98.879 2285.3361,-86.3957"/>
<polygon fill="#191970" stroke="#191970" points="2287.8288,-83.9343 2278.5161,-78.8821 2282.6456,-88.6391 2287.8288,-83.9343"/>
</g>
<!-- Node57&#45;&gt;Node25 -->
<g id="edge100" class="edge">
<title>Node57&#45;&gt;Node25</title>
<path fill="none" stroke="#191970" d="M2338.7332,-125.462C2349.7872,-115.1976 2368.041,-98.2477 2381.568,-85.6869"/>
<polygon fill="#191970" stroke="#191970" points="2383.9498,-88.2515 2388.8962,-78.8821 2379.1866,-83.1219 2383.9498,-88.2515"/>
</g>
<!-- Node57&#45;&gt;Node27 -->
<g id="edge102" class="edge">
<title>Node57&#45;&gt;Node27</title>
<path fill="none" stroke="#191970" d="M2330.1124,-125.462C2331.2694,-116.061 2333.1167,-101.0518 2334.607,-88.943"/>
<polygon fill="#191970" stroke="#191970" points="2338.0974,-89.2348 2335.8453,-78.8821 2331.1498,-88.3797 2338.0974,-89.2348"/>
</g>
<!-- Node57&#45;&gt;Node42 -->
<g id="edge103" class="edge">
<title>Node57&#45;&gt;Node42</title>
<path fill="none" stroke="#191970" d="M2277.5153,-125.8732C2262.8455,-123.6683 2246.8233,-121.4998 2232,-120 1933.0996,-89.758 1851.4065,-143.8401 1557,-84 1553.9847,-83.3871 1550.8915,-82.5898 1547.8257,-81.6842"/>
<polygon fill="#191970" stroke="#191970" points="1548.8482,-78.3359 1538.2549,-78.5164 1546.6486,-84.9814 1548.8482,-78.3359"/>
</g>
<!-- Node59&#45;&gt;Node2 -->
<g id="edge116" class="edge">
<title>Node59&#45;&gt;Node2</title>
<path fill="none" stroke="#191970" d="M590.1821,-255.3502C606.2244,-238.1083 643.7687,-201.0965 684,-185 834.1134,-124.9399 892.5915,-200.0593 1046,-149 1069.6491,-141.1288 1072.1693,-132.0273 1094,-120 1118.162,-106.6882 1146.2774,-92.7528 1166.7,-82.9012"/>
<polygon fill="#191970" stroke="#191970" points="1168.2754,-86.0274 1175.7779,-78.5466 1165.2478,-79.716 1168.2754,-86.0274"/>
</g>
<!-- Node59&#45;&gt;Node6 -->
<g id="edge118" class="edge">
<title>Node59&#45;&gt;Node6</title>
<path fill="none" stroke="#191970" d="M580.3119,-255.3563C574.7856,-225.4218 557.1546,-129.9208 549.5485,-88.7212"/>
<polygon fill="#191970" stroke="#191970" points="552.9837,-88.0492 547.7263,-78.8508 546.1,-89.3201 552.9837,-88.0492"/>
</g>
<!-- Node59&#45;&gt;Node45 -->
<g id="edge117" class="edge">
<title>Node59&#45;&gt;Node45</title>
<path fill="none" stroke="#191970" d="M609.253,-255.462C643.531,-244.0943 702.5354,-224.5265 740.904,-211.8023"/>
<polygon fill="#191970" stroke="#191970" points="742.2733,-215.0356 750.6633,-208.5658 740.0699,-208.3915 742.2733,-215.0356"/>
</g>
</g>
</svg>
        <g id="navigator" transform="translate(0 0)" fill="#404254">
                <rect fill="#f2f5e9" fill-opacity="0.5" stroke="#606060" stroke-width=".5" x="0" y="0" width="60" height="60"/>
                <use id="zoomplus" xlink:href="#zoomPlus" x="17" y="9" onmousedown="handleZoom(evt,'in')"/>
                <use id="zoomminus" xlink:href="#zoomMin" x="42" y="9" onmousedown="handleZoom(evt,'out')"/>
                <use id="reset" xlink:href="#resetDef" x="30" y="36" onmousedown="handleReset()"/>
                <g id="arrowUp" xlink:href="#dirArrow" transform="translate(30 24)" onmousedown="handlePan(0,-1)">
                  <use xlink:href="#rim" fill="#404040">
                        <set attributeName="fill" to="#808080" begin="arrowUp.mouseover" end="arrowUp.mouseout"/>
                  </use>
                  <path fill="none" stroke="white" stroke-width="1.5" d="M0,-3.0v7 M-2.5,-0.5L0,-3.0L2.5,-0.5"/>
                </g>
                <g id="arrowRight" xlink:href="#dirArrow" transform="rotate(90) translate(36 -43)" onmousedown="handlePan(1,0)">
                  <use xlink:href="#rim" fill="#404040">
                        <set attributeName="fill" to="#808080" begin="arrowRight.mouseover" end="arrowRight.mouseout"/>
                  </use>
                  <path fill="none" stroke="white" stroke-width="1.5" d="M0,-3.0v7 M-2.5,-0.5L0,-3.0L2.5,-0.5"/>
                </g>
                <g id="arrowDown" xlink:href="#dirArrow" transform="rotate(180) translate(-30 -48)" onmousedown="handlePan(0,1)">
                  <use xlink:href="#rim" fill="#404040">
                        <set attributeName="fill" to="#808080" begin="arrowDown.mouseover" end="arrowDown.mouseout"/>
                  </use>
                  <path fill="none" stroke="white" stroke-width="1.5" d="M0,-3.0v7 M-2.5,-0.5L0,-3.0L2.5,-0.5"/>
                </g>
                <g id="arrowLeft" xlink:href="#dirArrow" transform="rotate(270) translate(-36 17)" onmousedown="handlePan(-1,0)">
                  <use xlink:href="#rim" fill="#404040">
                        <set attributeName="fill" to="#808080" begin="arrowLeft.mouseover" end="arrowLeft.mouseout"/>
                  </use>
                  <path fill="none" stroke="white" stroke-width="1.5" d="M0,-3.0v7 M-2.5,-0.5L0,-3.0L2.5,-0.5"/>
                </g>
        </g>
        <svg viewBox="0 0 15 15" width="100%" height="30px" preserveAspectRatio="xMaxYMin meet">
         <g id="arrow_out" transform="scale(0.3 0.3)">
          <a xlink:href="residue_8cpp__incl_org.svg" target="_base">
           <rect id="button" ry="5" rx="5" y="6" x="6" height="38" width="38"
                fill="#f2f5e9" fill-opacity="0.5" stroke="#606060" stroke-width="1.0"/>
           <path id="arrow"
             d="M 11.500037,31.436501 C 11.940474,20.09759 22.043105,11.32322 32.158766,21.979434 L 37.068811,17.246167 C 37.068811,17.246167 37.088388,32 37.088388,32 L 22.160133,31.978069 C 22.160133,31.978069 26.997745,27.140456 26.997745,27.140456 C 18.528582,18.264221 13.291696,25.230495 11.500037,31.436501 z"
             style="fill:#404040;"/>
          </a>
         </g>
        </svg>
</svg>
