<?xml version="1.0" encoding="UTF-8" standalone="no"?>
<!DOCTYPE svg PUBLIC "-//W3C//DTD SVG 1.1//EN"
 "http://www.w3.org/Graphics/SVG/1.1/DTD/svg11.dtd">
<!-- Generated by graphviz version 2.40.1 (20161225.0304)
 -->
<!-- Title: include/indigox/classes/residue.hpp Pages: 1 -->
<svg width="938pt" height="157pt"
 viewBox="0.00 0.00 937.77 157.00" xmlns="http://www.w3.org/2000/svg" xmlns:xlink="http://www.w3.org/1999/xlink">
<g id="graph0" class="graph" transform="scale(1 1) rotate(0) translate(4 153)">
<title>include/indigox/classes/residue.hpp</title>
<polygon fill="#ffffff" stroke="transparent" points="-4,4 -4,-153 933.7656,-153 933.7656,4 -4,4"/>
<!-- Node6 -->
<g id="node1" class="node">
<title>Node6</title>
<polygon fill="#bfbfbf" stroke="#000000" points="499.6602,-120.5 499.6602,-148.5 617.9404,-148.5 617.9404,-120.5 499.6602,-120.5"/>
<text text-anchor="start" x="507.6602" y="-136.5" font-family="Helvetica,sans-Serif" font-size="10.00" fill="#000000">include/indigox/classes</text>
<text text-anchor="middle" x="558.8003" y="-126.5" font-family="Helvetica,sans-Serif" font-size="10.00" fill="#000000">/residue.hpp</text>
</g>
<!-- Node7 -->
<g id="node2" class="node">
<title>Node7</title>
<g id="a_node2"><a xlink:href="molecule__impl_8hpp.html" target="_top" xlink:title="include/indigox/classes\l/molecule_impl.hpp">
<polygon fill="#ffffff" stroke="#000000" points="456.6602,-55.5 456.6602,-83.5 574.9404,-83.5 574.9404,-55.5 456.6602,-55.5"/>
<text text-anchor="start" x="464.6602" y="-71.5" font-family="Helvetica,sans-Serif" font-size="10.00" fill="#000000">include/indigox/classes</text>
<text text-anchor="middle" x="515.8003" y="-61.5" font-family="Helvetica,sans-Serif" font-size="10.00" fill="#000000">/molecule_impl.hpp</text>
</a>
</g>
</g>
<!-- Node6&#45;&gt;Node7 -->
<g id="edge1" class="edge">
<title>Node6&#45;&gt;Node7</title>
<path fill="none" stroke="#191970" d="M543.8276,-111.8669C537.6042,-102.4594 530.5747,-91.8334 525.1124,-83.5765"/>
<polygon fill="#191970" stroke="#191970" points="541.0335,-113.9869 549.4699,-120.396 546.8716,-110.1247 541.0335,-113.9869"/>
</g>
<!-- Node13 -->
<g id="node8" class="node">
<title>Node13</title>
<g id="a_node8"><a xlink:href="residue_8cpp.html" target="_top" xlink:title="src/classes/residue.cpp">
<polygon fill="#ffffff" stroke="#000000" points="809.835,-.5 809.835,-18.5 929.7656,-18.5 929.7656,-.5 809.835,-.5"/>
<text text-anchor="middle" x="869.8003" y="-6.5" font-family="Helvetica,sans-Serif" font-size="10.00" fill="#000000">src/classes/residue.cpp</text>
</a>
</g>
</g>
<!-- Node6&#45;&gt;Node13 -->
<g id="edge9" class="edge">
<title>Node6&#45;&gt;Node13</title>
<path fill="none" stroke="#191970" d="M603.3702,-116.586C670.7045,-89.5224 795.9297,-39.1908 847.1137,-18.6184"/>
<polygon fill="#191970" stroke="#191970" points="601.8447,-113.427 593.8714,-120.4039 604.4553,-119.922 601.8447,-113.427"/>
</g>
<!-- Node8 -->
<g id="node3" class="node">
<title>Node8</title>
<g id="a_node3"><a xlink:href="angle_8cpp.html" target="_top" xlink:title="src/classes/angle.cpp">
<polygon fill="#ffffff" stroke="#000000" points="0,-.5 0,-18.5 111.6006,-18.5 111.6006,-.5 0,-.5"/>
<text text-anchor="middle" x="55.8003" y="-6.5" font-family="Helvetica,sans-Serif" font-size="10.00" fill="#000000">src/classes/angle.cpp</text>
</a>
</g>
</g>
<!-- Node7&#45;&gt;Node8 -->
<g id="edge2" class="edge">
<title>Node7&#45;&gt;Node8</title>
<path fill="none" stroke="#191970" d="M446.0468,-61.0439C366.8961,-51.3465 233.9651,-34.7509 119.8003,-19 117.1297,-18.6315 114.3974,-18.2487 111.6383,-17.8574"/>
<polygon fill="#191970" stroke="#191970" points="446.025,-64.5672 456.3761,-62.3076 446.8752,-57.619 446.025,-64.5672"/>
</g>
<!-- Node9 -->
<g id="node4" class="node">
<title>Node9</title>
<g id="a_node4"><a xlink:href="atom_8cpp.html" target="_top" xlink:title="src/classes/atom.cpp">
<polygon fill="#ffffff" stroke="#000000" points="129.1182,-.5 129.1182,-18.5 238.4824,-18.5 238.4824,-.5 129.1182,-.5"/>
<text text-anchor="middle" x="183.8003" y="-6.5" font-family="Helvetica,sans-Serif" font-size="10.00" fill="#000000">src/classes/atom.cpp</text>
</a>
</g>
</g>
<!-- Node7&#45;&gt;Node9 -->
<g id="edge3" class="edge">
<title>Node7&#45;&gt;Node9</title>
<path fill="none" stroke="#191970" d="M446.5009,-56.976C382.9228,-45.486 290.2882,-28.7448 233.7019,-18.5184"/>
<polygon fill="#191970" stroke="#191970" points="445.9823,-60.4389 456.4453,-58.7732 447.2272,-53.5505 445.9823,-60.4389"/>
</g>
<!-- Node10 -->
<g id="node5" class="node">
<title>Node10</title>
<g id="a_node5"><a xlink:href="bond_8cpp.html" target="_top" xlink:title="src/classes/bond.cpp">
<polygon fill="#ffffff" stroke="#000000" points="256.1108,-.5 256.1108,-18.5 365.4897,-18.5 365.4897,-.5 256.1108,-.5"/>
<text text-anchor="middle" x="310.8003" y="-6.5" font-family="Helvetica,sans-Serif" font-size="10.00" fill="#000000">src/classes/bond.cpp</text>
</a>
</g>
</g>
<!-- Node7&#45;&gt;Node10 -->
<g id="edge4" class="edge">
<title>Node7&#45;&gt;Node10</title>
<path fill="none" stroke="#191970" d="M457.8766,-52.5467C420.1287,-41.4985 372.3635,-27.5185 341.6929,-18.5417"/>
<polygon fill="#191970" stroke="#191970" points="457.1564,-55.9827 467.7369,-55.4327 459.1227,-49.2645 457.1564,-55.9827"/>
</g>
<!-- Node11 -->
<g id="node6" class="node">
<title>Node11</title>
<g id="a_node6"><a xlink:href="dihedral_8cpp.html" target="_top" xlink:title="src/classes/dihedral.cpp">
<polygon fill="#ffffff" stroke="#000000" points="383.4434,-.5 383.4434,-18.5 506.1572,-18.5 506.1572,-.5 383.4434,-.5"/>
<text text-anchor="middle" x="444.8003" y="-6.5" font-family="Helvetica,sans-Serif" font-size="10.00" fill="#000000">src/classes/dihedral.cpp</text>
</a>
</g>
</g>
<!-- Node7&#45;&gt;Node11 -->
<g id="edge5" class="edge">
<title>Node7&#45;&gt;Node11</title>
<path fill="none" stroke="#191970" d="M491.3086,-48.8028C479.1171,-38.5001 465.0031,-26.5728 455.5499,-18.5842"/>
<polygon fill="#191970" stroke="#191970" points="489.0772,-51.4995 498.9743,-55.2808 493.5954,-46.1529 489.0772,-51.4995"/>
</g>
<!-- Node12 -->
<g id="node7" class="node">
<title>Node12</title>
<g id="a_node7"><a xlink:href="molecule_8cpp.html" target="_top" xlink:title="src/classes/molecule.cpp">
<polygon fill="#ffffff" stroke="#000000" points="524.2241,-.5 524.2241,-18.5 651.3765,-18.5 651.3765,-.5 524.2241,-.5"/>
<text text-anchor="middle" x="587.8003" y="-6.5" font-family="Helvetica,sans-Serif" font-size="10.00" fill="#000000">src/classes/molecule.cpp</text>
</a>
</g>
</g>
<!-- Node7&#45;&gt;Node12 -->
<g id="edge6" class="edge">
<title>Node7&#45;&gt;Node12</title>
<path fill="none" stroke="#191970" d="M540.6369,-48.8028C553.0002,-38.5001 567.3129,-26.5728 576.8993,-18.5842"/>
<polygon fill="#191970" stroke="#191970" points="538.3049,-46.1902 532.8633,-55.2808 542.7862,-51.5677 538.3049,-46.1902"/>
</g>
<!-- Node7&#45;&gt;Node13 -->
<g id="edge7" class="edge">
<title>Node7&#45;&gt;Node13</title>
<path fill="none" stroke="#191970" d="M585.2152,-57.7348C653.0155,-46.2432 754.75,-29 816.4429,-18.5436"/>
<polygon fill="#191970" stroke="#191970" points="584.3264,-54.3354 575.0519,-59.4573 585.4962,-61.237 584.3264,-54.3354"/>
</g>
<!-- Node14 -->
<g id="node9" class="node">
<title>Node14</title>
<g id="a_node9"><a xlink:href="molecular_8cpp.html" target="_top" xlink:title="src/graph/molecular.cpp">
<polygon fill="#ffffff" stroke="#000000" points="669.7168,-.5 669.7168,-18.5 791.8838,-18.5 791.8838,-.5 669.7168,-.5"/>
<text text-anchor="middle" x="730.8003" y="-6.5" font-family="Helvetica,sans-Serif" font-size="10.00" fill="#000000">src/graph/molecular.cpp</text>
</a>
</g>
</g>
<!-- Node7&#45;&gt;Node14 -->
<g id="edge8" class="edge">
<title>Node7&#45;&gt;Node14</title>
<path fill="none" stroke="#191970" d="M576.0447,-52.6876C615.7122,-41.6176 666.0971,-27.5567 698.4008,-18.5417"/>
<polygon fill="#191970" stroke="#191970" points="574.8994,-49.3734 566.2082,-55.4327 576.781,-56.1158 574.8994,-49.3734"/>
</g>
</g>
</svg>
