<?xml version="1.0" encoding="UTF-8" standalone="no"?>
<!DOCTYPE svg PUBLIC "-//W3C//DTD SVG 1.1//EN"
 "http://www.w3.org/Graphics/SVG/1.1/DTD/svg11.dtd">
<!-- Generated by graphviz version 2.40.1 (20161225.0304)
 -->
<!-- Title: include/indigox/classes/residue.hpp Pages: 1 -->
<svg width="315pt" height="147pt"
 viewBox="0.00 0.00 315.26 147.00" xmlns="http://www.w3.org/2000/svg" xmlns:xlink="http://www.w3.org/1999/xlink">
<g id="graph0" class="graph" transform="scale(1 1) rotate(0) translate(4 143)">
<title>include/indigox/classes/residue.hpp</title>
<polygon fill="#ffffff" stroke="transparent" points="-4,4 -4,-143 311.2559,-143 311.2559,4 -4,4"/>
<!-- Node0 -->
<g id="node1" class="node">
<title>Node0</title>
<polygon fill="#bfbfbf" stroke="#000000" points="134.5,-110.5 134.5,-138.5 252.7803,-138.5 252.7803,-110.5 134.5,-110.5"/>
<text text-anchor="start" x="142.5" y="-126.5" font-family="Helvetica,sans-Serif" font-size="10.00" fill="#000000">include/indigox/classes</text>
<text text-anchor="middle" x="193.6401" y="-116.5" font-family="Helvetica,sans-Serif" font-size="10.00" fill="#000000">/residue.hpp</text>
</g>
<!-- Node1 -->
<g id="node2" class="node">
<title>Node1</title>
<g id="a_node2"><a xlink:href="fwd__declares_8hpp.html" target="_top" xlink:title="../utils/fwd_declares.hpp">
<polygon fill="#ffffff" stroke="#000000" points="0,-55.5 0,-73.5 123.2803,-73.5 123.2803,-55.5 0,-55.5"/>
<text text-anchor="middle" x="61.6401" y="-61.5" font-family="Helvetica,sans-Serif" font-size="10.00" fill="#000000">../utils/fwd_declares.hpp</text>
</a>
</g>
</g>
<!-- Node0&#45;&gt;Node1 -->
<g id="edge1" class="edge">
<title>Node0&#45;&gt;Node1</title>
<path fill="none" stroke="#191970" d="M162.692,-110.4327C141.0174,-100.5806 112.2378,-87.4989 90.9368,-77.8167"/>
<polygon fill="#191970" stroke="#191970" points="92.2805,-74.5829 81.7285,-73.6311 89.3838,-80.9554 92.2805,-74.5829"/>
</g>
<!-- Node4 -->
<g id="node5" class="node">
<title>Node4</title>
<polygon fill="#ffffff" stroke="#bfbfbf" points="141.1748,-55.5 141.1748,-73.5 246.1055,-73.5 246.1055,-55.5 141.1748,-55.5"/>
<text text-anchor="middle" x="193.6401" y="-61.5" font-family="Helvetica,sans-Serif" font-size="10.00" fill="#000000">EASTL/vector_set.h</text>
</g>
<!-- Node0&#45;&gt;Node4 -->
<g id="edge4" class="edge">
<title>Node0&#45;&gt;Node4</title>
<path fill="none" stroke="#191970" d="M193.6401,-110.2808C193.6401,-102.3776 193.6401,-92.4316 193.6401,-83.8308"/>
<polygon fill="#191970" stroke="#191970" points="197.1402,-83.5842 193.6401,-73.5842 190.1402,-83.5842 197.1402,-83.5842"/>
</g>
<!-- Node5 -->
<g id="node6" class="node">
<title>Node5</title>
<polygon fill="#ffffff" stroke="#bfbfbf" points="264.0244,-55.5 264.0244,-73.5 307.2559,-73.5 307.2559,-55.5 264.0244,-55.5"/>
<text text-anchor="middle" x="285.6401" y="-61.5" font-family="Helvetica,sans-Serif" font-size="10.00" fill="#000000">vector</text>
</g>
<!-- Node0&#45;&gt;Node5 -->
<g id="edge5" class="edge">
<title>Node0&#45;&gt;Node5</title>
<path fill="none" stroke="#191970" d="M215.4429,-110.2808C229.8759,-100.868 248.7519,-88.5575 263.2946,-79.0732"/>
<polygon fill="#191970" stroke="#191970" points="265.2469,-81.9786 271.711,-73.5842 261.423,-76.1153 265.2469,-81.9786"/>
</g>
<!-- Node2 -->
<g id="node3" class="node">
<title>Node2</title>
<polygon fill="#ffffff" stroke="#bfbfbf" points="6.1895,-.5 6.1895,-18.5 51.0908,-18.5 51.0908,-.5 6.1895,-.5"/>
<text text-anchor="middle" x="28.6401" y="-6.5" font-family="Helvetica,sans-Serif" font-size="10.00" fill="#000000">cstdint</text>
</g>
<!-- Node1&#45;&gt;Node2 -->
<g id="edge2" class="edge">
<title>Node1&#45;&gt;Node2</title>
<path fill="none" stroke="#191970" d="M56.1909,-55.4179C51.6325,-47.8207 44.9917,-36.7527 39.3721,-27.3866"/>
<polygon fill="#191970" stroke="#191970" points="42.354,-25.5536 34.2078,-18.7795 36.3516,-29.1552 42.354,-25.5536"/>
</g>
<!-- Node3 -->
<g id="node4" class="node">
<title>Node3</title>
<polygon fill="#ffffff" stroke="#bfbfbf" points="69.5835,-.5 69.5835,-18.5 121.6968,-18.5 121.6968,-.5 69.5835,-.5"/>
<text text-anchor="middle" x="95.6401" y="-6.5" font-family="Helvetica,sans-Serif" font-size="10.00" fill="#000000">memory</text>
</g>
<!-- Node1&#45;&gt;Node3 -->
<g id="edge3" class="edge">
<title>Node1&#45;&gt;Node3</title>
<path fill="none" stroke="#191970" d="M67.2545,-55.4179C71.951,-47.8207 78.793,-36.7527 84.583,-27.3866"/>
<polygon fill="#191970" stroke="#191970" points="87.6226,-29.1258 89.9037,-18.7795 81.6684,-25.445 87.6226,-29.1258"/>
</g>
</g>
</svg>
