<?xml version="1.0" encoding="UTF-8" standalone="no"?>
<!DOCTYPE svg PUBLIC "-//W3C//DTD SVG 1.1//EN"
 "http://www.w3.org/Graphics/SVG/1.1/DTD/svg11.dtd">
<!-- Generated by graphviz version 2.40.1 (20161225.0304)
 -->
<!-- Title: include/indigox/utils/serialise.hpp Pages: 1 -->
<!--zoomable 157 -->
<svg id="main" version="1.1" xmlns="http://www.w3.org/2000/svg" xmlns:xlink="http://www.w3.org/1999/xlink" xml:space="preserve" onload="init(evt)">
<style type="text/css"><![CDATA[
.edge:hover path { stroke: red; }
.edge:hover polygon { stroke: red; fill: red; }
]]></style>
<script type="text/javascript"><![CDATA[
var edges = document.getElementsByTagName('g');
if (edges && edges.length) {
  for (var i=0;i<edges.length;i++) {
    if (edges[i].id.substr(0,4)=='edge') {
      edges[i].setAttribute('class','edge');
    }
  }
}
]]></script>
        <defs>
                <circle id="rim" cx="0" cy="0" r="7"/>
                <circle id="rim2" cx="0" cy="0" r="3.5"/>
                <g id="zoomPlus">
                        <use xlink:href="#rim" fill="#404040">
                                <set attributeName="fill" to="#808080" begin="zoomplus.mouseover" end="zoomplus.mouseout"/>
                        </use>
                        <path d="M-4,0h8M0,-4v8" fill="none" stroke="white" stroke-width="1.5" pointer-events="none"/>
                </g>
                <g id="zoomMin">
                        <use xlink:href="#rim" fill="#404040">
                                <set attributeName="fill" to="#808080" begin="zoomminus.mouseover" end="zoomminus.mouseout"/>
                        </use>
                        <path d="M-4,0h8" fill="none" stroke="white" stroke-width="1.5" pointer-events="none"/>
                </g>
                <g id="dirArrow">
                        <path fill="none" stroke="white" stroke-width="1.5" d="M0,-3.0v7 M-2.5,-0.5L0,-3.0L2.5,-0.5"/>
                </g>
               <g id="resetDef">
                       <use xlink:href="#rim2" fill="#404040">
                               <set attributeName="fill" to="#808080" begin="reset.mouseover" end="reset.mouseout"/>
                       </use>
               </g>
        </defs>

<script type="text/javascript">
var viewWidth = 1880;
var viewHeight = 157;
var sectionId = 'dynsection-0';
</script>
<script xlink:href="svgpan.js"/>
<svg id="graph" class="graph">
<g id="viewport">
<title>include/indigox/utils/serialise.hpp</title>
<polygon fill="#ffffff" stroke="transparent" points="-4,4 -4,-153 1875.5171,-153 1875.5171,4 -4,4"/>
<!-- Node0 -->
<g id="node1" class="node">
<title>Node0</title>
<polygon fill="#bfbfbf" stroke="#000000" points="895.0913,-120.5 895.0913,-148.5 997.8101,-148.5 997.8101,-120.5 895.0913,-120.5"/>
<text text-anchor="start" x="903.0913" y="-136.5" font-family="Helvetica,sans-Serif" font-size="10.00" fill="#000000">include/indigox/utils</text>
<text text-anchor="middle" x="946.4507" y="-126.5" font-family="Helvetica,sans-Serif" font-size="10.00" fill="#000000">/serialise.hpp</text>
</g>
<!-- Node1 -->
<g id="node2" class="node">
<title>Node1</title>
<g id="a_node2"><a xlink:href="fwd__declares_8hpp.html" target="_top" xlink:title="fwd_declares.hpp">
<polygon fill="#ffffff" stroke="#000000" points="8.2588,-60.5 8.2588,-78.5 102.6426,-78.5 102.6426,-60.5 8.2588,-60.5"/>
<text text-anchor="middle" x="55.4507" y="-66.5" font-family="Helvetica,sans-Serif" font-size="10.00" fill="#000000">fwd_declares.hpp</text>
</a>
</g>
</g>
<!-- Node0&#45;&gt;Node1 -->
<g id="edge1" class="edge">
<title>Node0&#45;&gt;Node1</title>
<path fill="none" stroke="#191970" d="M894.9629,-132.6893C737.4702,-126.9449 263.6833,-108.0809 111.4507,-84 106.3731,-83.1968 101.0872,-82.1351 95.8792,-80.9504"/>
<polygon fill="#191970" stroke="#191970" points="96.5793,-77.5187 86.0354,-78.5561 94.9249,-84.3204 96.5793,-77.5187"/>
</g>
<!-- Node4 -->
<g id="node5" class="node">
<title>Node4</title>
<polygon fill="#ffffff" stroke="#bfbfbf" points="120.1504,-60.5 120.1504,-78.5 216.751,-78.5 216.751,-60.5 120.1504,-60.5"/>
<text text-anchor="middle" x="168.4507" y="-66.5" font-family="Helvetica,sans-Serif" font-size="10.00" fill="#000000">cereal/access.hpp</text>
</g>
<!-- Node0&#45;&gt;Node4 -->
<g id="edge4" class="edge">
<title>Node0&#45;&gt;Node4</title>
<path fill="none" stroke="#191970" d="M895.0473,-132.1001C752.5946,-125.258 354.758,-104.8032 225.4507,-84 220.3517,-83.1797 215.0426,-82.1175 209.8054,-80.941"/>
<polygon fill="#191970" stroke="#191970" points="210.4368,-77.4934 199.8969,-78.5714 208.8086,-84.3014 210.4368,-77.4934"/>
</g>
<!-- Node5 -->
<g id="node6" class="node">
<title>Node5</title>
<polygon fill="#ffffff" stroke="#bfbfbf" points="234.5322,-60.5 234.5322,-78.5 358.3691,-78.5 358.3691,-60.5 234.5322,-60.5"/>
<text text-anchor="middle" x="296.4507" y="-66.5" font-family="Helvetica,sans-Serif" font-size="10.00" fill="#000000">cereal/archives/json.hpp</text>
</g>
<!-- Node0&#45;&gt;Node5 -->
<g id="edge5" class="edge">
<title>Node0&#45;&gt;Node5</title>
<path fill="none" stroke="#191970" d="M894.7124,-131.9785C793.1915,-126.5915 560.9194,-112.0985 367.4507,-84 360.6751,-83.0159 353.5716,-81.795 346.5858,-80.4823"/>
<polygon fill="#191970" stroke="#191970" points="346.9724,-76.9918 336.487,-78.5104 345.6309,-83.862 346.9724,-76.9918"/>
</g>
<!-- Node6 -->
<g id="node7" class="node">
<title>Node6</title>
<polygon fill="#ffffff" stroke="#bfbfbf" points="376.3672,-55.5 376.3672,-83.5 498.5342,-83.5 498.5342,-55.5 376.3672,-55.5"/>
<text text-anchor="start" x="384.3672" y="-71.5" font-family="Helvetica,sans-Serif" font-size="10.00" fill="#000000">cereal/archives/portable</text>
<text text-anchor="middle" x="437.4507" y="-61.5" font-family="Helvetica,sans-Serif" font-size="10.00" fill="#000000">_binary.hpp</text>
</g>
<!-- Node0&#45;&gt;Node6 -->
<g id="edge6" class="edge">
<title>Node0&#45;&gt;Node6</title>
<path fill="none" stroke="#191970" d="M894.8806,-130.0799C814.4826,-122.8571 654.2287,-107.132 508.8497,-84.1403"/>
<polygon fill="#191970" stroke="#191970" points="509.2801,-80.6648 498.8532,-82.544 508.1762,-87.5772 509.2801,-80.6648"/>
</g>
<!-- Node7 -->
<g id="node8" class="node">
<title>Node7</title>
<polygon fill="#ffffff" stroke="#bfbfbf" points="516.0938,-60.5 516.0938,-78.5 608.8076,-78.5 608.8076,-60.5 516.0938,-60.5"/>
<text text-anchor="middle" x="562.4507" y="-66.5" font-family="Helvetica,sans-Serif" font-size="10.00" fill="#000000">cereal/cereal.hpp</text>
</g>
<!-- Node0&#45;&gt;Node7 -->
<g id="edge7" class="edge">
<title>Node0&#45;&gt;Node7</title>
<path fill="none" stroke="#191970" d="M894.8616,-128.2933C829.8273,-120.0771 714.7624,-104.2371 617.4507,-84 613.091,-83.0934 608.5607,-82.0562 604.0551,-80.9627"/>
<polygon fill="#191970" stroke="#191970" points="604.859,-77.5559 594.307,-78.5074 603.1493,-84.3439 604.859,-77.5559"/>
</g>
<!-- Node8 -->
<g id="node9" class="node">
<title>Node8</title>
<polygon fill="#ffffff" stroke="#bfbfbf" points="626.3491,-60.5 626.3491,-78.5 740.5522,-78.5 740.5522,-60.5 626.3491,-60.5"/>
<text text-anchor="middle" x="683.4507" y="-66.5" font-family="Helvetica,sans-Serif" font-size="10.00" fill="#000000">cereal/types/array.hpp</text>
</g>
<!-- Node0&#45;&gt;Node8 -->
<g id="edge8" class="edge">
<title>Node0&#45;&gt;Node8</title>
<path fill="none" stroke="#191970" d="M894.8041,-121.7356C846.8613,-109.8867 776.1277,-92.405 729.9192,-80.9846"/>
<polygon fill="#191970" stroke="#191970" points="730.7101,-77.5748 720.1624,-78.5732 729.0305,-84.3704 730.7101,-77.5748"/>
</g>
<!-- Node9 -->
<g id="node10" class="node">
<title>Node9</title>
<polygon fill="#ffffff" stroke="#bfbfbf" points="758.4214,-60.5 758.4214,-78.5 874.48,-78.5 874.48,-60.5 758.4214,-60.5"/>
<text text-anchor="middle" x="816.4507" y="-66.5" font-family="Helvetica,sans-Serif" font-size="10.00" fill="#000000">cereal/types/bitset.hpp</text>
</g>
<!-- Node0&#45;&gt;Node9 -->
<g id="edge9" class="edge">
<title>Node0&#45;&gt;Node9</title>
<path fill="none" stroke="#191970" d="M918.2426,-120.396C896.1257,-109.3375 865.5351,-94.0422 843.6748,-83.112"/>
<polygon fill="#191970" stroke="#191970" points="845.1088,-79.916 834.5993,-78.5743 841.9783,-86.177 845.1088,-79.916"/>
</g>
<!-- Node10 -->
<g id="node11" class="node">
<title>Node10</title>
<polygon fill="#ffffff" stroke="#bfbfbf" points="892.5889,-55.5 892.5889,-83.5 1000.3125,-83.5 1000.3125,-55.5 892.5889,-55.5"/>
<text text-anchor="start" x="900.5889" y="-71.5" font-family="Helvetica,sans-Serif" font-size="10.00" fill="#000000">cereal/types/boost</text>
<text text-anchor="middle" x="946.4507" y="-61.5" font-family="Helvetica,sans-Serif" font-size="10.00" fill="#000000">_dynamic_bitset.hpp</text>
</g>
<!-- Node0&#45;&gt;Node10 -->
<g id="edge10" class="edge">
<title>Node0&#45;&gt;Node10</title>
<path fill="none" stroke="#191970" d="M946.4507,-120.396C946.4507,-112.6448 946.4507,-102.8122 946.4507,-93.8601"/>
<polygon fill="#191970" stroke="#191970" points="949.9508,-93.5765 946.4507,-83.5765 942.9508,-93.5765 949.9508,-93.5765"/>
</g>
<!-- Node11 -->
<g id="node12" class="node">
<title>Node11</title>
<polygon fill="#ffffff" stroke="#bfbfbf" points="1018.542,-55.5 1018.542,-83.5 1112.3594,-83.5 1112.3594,-55.5 1018.542,-55.5"/>
<text text-anchor="start" x="1026.542" y="-71.5" font-family="Helvetica,sans-Serif" font-size="10.00" fill="#000000">cereal/types/eastl</text>
<text text-anchor="middle" x="1065.4507" y="-61.5" font-family="Helvetica,sans-Serif" font-size="10.00" fill="#000000">_bitset.hpp</text>
</g>
<!-- Node0&#45;&gt;Node11 -->
<g id="edge11" class="edge">
<title>Node0&#45;&gt;Node11</title>
<path fill="none" stroke="#191970" d="M972.2719,-120.396C989.4253,-111.0265 1012.147,-98.6155 1030.8584,-88.395"/>
<polygon fill="#191970" stroke="#191970" points="1032.5815,-91.4419 1039.6798,-83.5765 1029.2259,-85.2986 1032.5815,-91.4419"/>
</g>
<!-- Node12 -->
<g id="node13" class="node">
<title>Node12</title>
<polygon fill="#ffffff" stroke="#bfbfbf" points="1130.1382,-60.5 1130.1382,-78.5 1246.7632,-78.5 1246.7632,-60.5 1130.1382,-60.5"/>
<text text-anchor="middle" x="1188.4507" y="-66.5" font-family="Helvetica,sans-Serif" font-size="10.00" fill="#000000">cereal/types/eigen.hpp</text>
</g>
<!-- Node0&#45;&gt;Node12 -->
<g id="edge12" class="edge">
<title>Node0&#45;&gt;Node12</title>
<path fill="none" stroke="#191970" d="M998.0689,-120.6356C1041.7988,-108.89 1103.7898,-92.2395 1145.0153,-81.1665"/>
<polygon fill="#191970" stroke="#191970" points="1146.0176,-84.5215 1154.7673,-78.5472 1144.2017,-77.7611 1146.0176,-84.5215"/>
</g>
<!-- Node13 -->
<g id="node14" class="node">
<title>Node13</title>
<polygon fill="#ffffff" stroke="#bfbfbf" points="1264.6455,-60.5 1264.6455,-78.5 1376.2559,-78.5 1376.2559,-60.5 1264.6455,-60.5"/>
<text text-anchor="middle" x="1320.4507" y="-66.5" font-family="Helvetica,sans-Serif" font-size="10.00" fill="#000000">cereal/types/map.hpp</text>
</g>
<!-- Node0&#45;&gt;Node13 -->
<g id="edge13" class="edge">
<title>Node0&#45;&gt;Node13</title>
<path fill="none" stroke="#191970" d="M998.005,-127.0013C1059.48,-117.8458 1165.2525,-101.4162 1255.4507,-84 1260.7721,-82.9725 1266.3241,-81.8351 1271.8437,-80.6626"/>
<polygon fill="#191970" stroke="#191970" points="1272.6552,-84.068 1281.6875,-78.5301 1271.1731,-77.2267 1272.6552,-84.068"/>
</g>
<!-- Node14 -->
<g id="node15" class="node">
<title>Node14</title>
<polygon fill="#ffffff" stroke="#bfbfbf" points="1394.6841,-60.5 1394.6841,-78.5 1522.2173,-78.5 1522.2173,-60.5 1394.6841,-60.5"/>
<text text-anchor="middle" x="1458.4507" y="-66.5" font-family="Helvetica,sans-Serif" font-size="10.00" fill="#000000">cereal/types/memory.hpp</text>
</g>
<!-- Node0&#45;&gt;Node14 -->
<g id="edge14" class="edge">
<title>Node0&#45;&gt;Node14</title>
<path fill="none" stroke="#191970" d="M997.9993,-129.9446C1080.2152,-122.3705 1245.9887,-105.8349 1385.4507,-84 1392.1407,-82.9526 1399.1509,-81.7263 1406.0698,-80.4384"/>
<polygon fill="#191970" stroke="#191970" points="1406.9292,-83.8375 1416.0935,-78.5209 1405.614,-76.9622 1406.9292,-83.8375"/>
</g>
<!-- Node15 -->
<g id="node16" class="node">
<title>Node15</title>
<polygon fill="#ffffff" stroke="#bfbfbf" points="1540.3491,-60.5 1540.3491,-78.5 1654.5522,-78.5 1654.5522,-60.5 1540.3491,-60.5"/>
<text text-anchor="middle" x="1597.4507" y="-66.5" font-family="Helvetica,sans-Serif" font-size="10.00" fill="#000000">cereal/types/utility.hpp</text>
</g>
<!-- Node0&#45;&gt;Node15 -->
<g id="edge15" class="edge">
<title>Node0&#45;&gt;Node15</title>
<path fill="none" stroke="#191970" d="M997.9716,-132.3085C1100.1916,-127.4636 1335.6906,-113.8238 1531.4507,-84 1537.6156,-83.0608 1544.066,-81.8864 1550.4174,-80.6151"/>
<polygon fill="#191970" stroke="#191970" points="1551.1893,-84.0295 1560.2615,-78.5573 1549.7569,-77.1776 1551.1893,-84.0295"/>
</g>
<!-- Node16 -->
<g id="node17" class="node">
<title>Node16</title>
<polygon fill="#ffffff" stroke="#bfbfbf" points="1673.0298,-60.5 1673.0298,-78.5 1791.8716,-78.5 1791.8716,-60.5 1673.0298,-60.5"/>
<text text-anchor="middle" x="1732.4507" y="-66.5" font-family="Helvetica,sans-Serif" font-size="10.00" fill="#000000">cereal/types/vector.hpp</text>
</g>
<!-- Node0&#45;&gt;Node16 -->
<g id="edge16" class="edge">
<title>Node0&#45;&gt;Node16</title>
<path fill="none" stroke="#191970" d="M997.9978,-133.2868C1116.1952,-129.9782 1415.6553,-118.5973 1663.4507,-84 1670.1298,-83.0675 1677.1299,-81.8647 1684.0034,-80.5513"/>
<polygon fill="#191970" stroke="#191970" points="1684.8115,-83.9591 1693.9312,-78.5663 1683.439,-77.0949 1684.8115,-83.9591"/>
</g>
<!-- Node17 -->
<g id="node18" class="node">
<title>Node17</title>
<polygon fill="#ffffff" stroke="#bfbfbf" points="1809.3843,-60.5 1809.3843,-78.5 1871.5171,-78.5 1871.5171,-60.5 1809.3843,-60.5"/>
<text text-anchor="middle" x="1840.4507" y="-66.5" font-family="Helvetica,sans-Serif" font-size="10.00" fill="#000000">type_traits</text>
</g>
<!-- Node0&#45;&gt;Node17 -->
<g id="edge17" class="edge">
<title>Node0&#45;&gt;Node17</title>
<path fill="none" stroke="#191970" d="M998.091,-133.3958C1158.3509,-129.6623 1645.7169,-115.9167 1800.4507,-84 1803.2992,-83.4124 1806.2178,-82.6626 1809.1174,-81.8143"/>
<polygon fill="#191970" stroke="#191970" points="1810.3649,-85.0886 1818.7739,-78.6435 1808.1811,-78.4379 1810.3649,-85.0886"/>
</g>
<!-- Node2 -->
<g id="node3" class="node">
<title>Node2</title>
<polygon fill="#ffffff" stroke="#bfbfbf" points="0,-.5 0,-18.5 44.9014,-18.5 44.9014,-.5 0,-.5"/>
<text text-anchor="middle" x="22.4507" y="-6.5" font-family="Helvetica,sans-Serif" font-size="10.00" fill="#000000">cstdint</text>
</g>
<!-- Node1&#45;&gt;Node2 -->
<g id="edge2" class="edge">
<title>Node1&#45;&gt;Node2</title>
<path fill="none" stroke="#191970" d="M50.4387,-60.3873C45.6899,-51.7531 38.4207,-38.5365 32.4808,-27.7366"/>
<polygon fill="#191970" stroke="#191970" points="35.3958,-25.7739 27.5098,-18.6985 29.2623,-29.1474 35.3958,-25.7739"/>
</g>
<!-- Node3 -->
<g id="node4" class="node">
<title>Node3</title>
<polygon fill="#ffffff" stroke="#bfbfbf" points="63.394,-.5 63.394,-18.5 115.5073,-18.5 115.5073,-.5 63.394,-.5"/>
<text text-anchor="middle" x="89.4507" y="-6.5" font-family="Helvetica,sans-Serif" font-size="10.00" fill="#000000">memory</text>
</g>
<!-- Node1&#45;&gt;Node3 -->
<g id="edge3" class="edge">
<title>Node1&#45;&gt;Node3</title>
<path fill="none" stroke="#191970" d="M60.6146,-60.3873C65.5572,-51.665 73.1498,-38.2663 79.3035,-27.4067"/>
<polygon fill="#191970" stroke="#191970" points="82.3531,-29.1243 84.2382,-18.6985 76.263,-25.6731 82.3531,-29.1243"/>
</g>
</g>
</svg>
        <g id="navigator" transform="translate(0 0)" fill="#404254">
                <rect fill="#f2f5e9" fill-opacity="0.5" stroke="#606060" stroke-width=".5" x="0" y="0" width="60" height="60"/>
                <use id="zoomplus" xlink:href="#zoomPlus" x="17" y="9" onmousedown="handleZoom(evt,'in')"/>
                <use id="zoomminus" xlink:href="#zoomMin" x="42" y="9" onmousedown="handleZoom(evt,'out')"/>
                <use id="reset" xlink:href="#resetDef" x="30" y="36" onmousedown="handleReset()"/>
                <g id="arrowUp" xlink:href="#dirArrow" transform="translate(30 24)" onmousedown="handlePan(0,-1)">
                  <use xlink:href="#rim" fill="#404040">
                        <set attributeName="fill" to="#808080" begin="arrowUp.mouseover" end="arrowUp.mouseout"/>
                  </use>
                  <path fill="none" stroke="white" stroke-width="1.5" d="M0,-3.0v7 M-2.5,-0.5L0,-3.0L2.5,-0.5"/>
                </g>
                <g id="arrowRight" xlink:href="#dirArrow" transform="rotate(90) translate(36 -43)" onmousedown="handlePan(1,0)">
                  <use xlink:href="#rim" fill="#404040">
                        <set attributeName="fill" to="#808080" begin="arrowRight.mouseover" end="arrowRight.mouseout"/>
                  </use>
                  <path fill="none" stroke="white" stroke-width="1.5" d="M0,-3.0v7 M-2.5,-0.5L0,-3.0L2.5,-0.5"/>
                </g>
                <g id="arrowDown" xlink:href="#dirArrow" transform="rotate(180) translate(-30 -48)" onmousedown="handlePan(0,1)">
                  <use xlink:href="#rim" fill="#404040">
                        <set attributeName="fill" to="#808080" begin="arrowDown.mouseover" end="arrowDown.mouseout"/>
                  </use>
                  <path fill="none" stroke="white" stroke-width="1.5" d="M0,-3.0v7 M-2.5,-0.5L0,-3.0L2.5,-0.5"/>
                </g>
                <g id="arrowLeft" xlink:href="#dirArrow" transform="rotate(270) translate(-36 17)" onmousedown="handlePan(-1,0)">
                  <use xlink:href="#rim" fill="#404040">
                        <set attributeName="fill" to="#808080" begin="arrowLeft.mouseover" end="arrowLeft.mouseout"/>
                  </use>
                  <path fill="none" stroke="white" stroke-width="1.5" d="M0,-3.0v7 M-2.5,-0.5L0,-3.0L2.5,-0.5"/>
                </g>
        </g>
        <svg viewBox="0 0 15 15" width="100%" height="30px" preserveAspectRatio="xMaxYMin meet">
         <g id="arrow_out" transform="scale(0.3 0.3)">
          <a xlink:href="serialise_8hpp__incl_org.svg" target="_base">
           <rect id="button" ry="5" rx="5" y="6" x="6" height="38" width="38"
                fill="#f2f5e9" fill-opacity="0.5" stroke="#606060" stroke-width="1.0"/>
           <path id="arrow"
             d="M 11.500037,31.436501 C 11.940474,20.09759 22.043105,11.32322 32.158766,21.979434 L 37.068811,17.246167 C 37.068811,17.246167 37.088388,32 37.088388,32 L 22.160133,31.978069 C 22.160133,31.978069 26.997745,27.140456 26.997745,27.140456 C 18.528582,18.264221 13.291696,25.230495 11.500037,31.436501 z"
             style="fill:#404040;"/>
          </a>
         </g>
        </svg>
</svg>
