<?xml version="1.0" encoding="UTF-8" standalone="no"?>
<!DOCTYPE svg PUBLIC "-//W3C//DTD SVG 1.1//EN"
 "http://www.w3.org/Graphics/SVG/1.1/DTD/svg11.dtd">
<!-- Generated by graphviz version 2.40.1 (20161225.0304)
 -->
<!-- Title: include/indigox/utils/serialise.hpp Pages: 1 -->
<!--zoomable 437 -->
<svg id="main" version="1.1" xmlns="http://www.w3.org/2000/svg" xmlns:xlink="http://www.w3.org/1999/xlink" xml:space="preserve" onload="init(evt)">
<style type="text/css"><![CDATA[
.edge:hover path { stroke: red; }
.edge:hover polygon { stroke: red; fill: red; }
]]></style>
<script type="text/javascript"><![CDATA[
var edges = document.getElementsByTagName('g');
if (edges && edges.length) {
  for (var i=0;i<edges.length;i++) {
    if (edges[i].id.substr(0,4)=='edge') {
      edges[i].setAttribute('class','edge');
    }
  }
}
]]></script>
        <defs>
                <circle id="rim" cx="0" cy="0" r="7"/>
                <circle id="rim2" cx="0" cy="0" r="3.5"/>
                <g id="zoomPlus">
                        <use xlink:href="#rim" fill="#404040">
                                <set attributeName="fill" to="#808080" begin="zoomplus.mouseover" end="zoomplus.mouseout"/>
                        </use>
                        <path d="M-4,0h8M0,-4v8" fill="none" stroke="white" stroke-width="1.5" pointer-events="none"/>
                </g>
                <g id="zoomMin">
                        <use xlink:href="#rim" fill="#404040">
                                <set attributeName="fill" to="#808080" begin="zoomminus.mouseover" end="zoomminus.mouseout"/>
                        </use>
                        <path d="M-4,0h8" fill="none" stroke="white" stroke-width="1.5" pointer-events="none"/>
                </g>
                <g id="dirArrow">
                        <path fill="none" stroke="white" stroke-width="1.5" d="M0,-3.0v7 M-2.5,-0.5L0,-3.0L2.5,-0.5"/>
                </g>
               <g id="resetDef">
                       <use xlink:href="#rim2" fill="#404040">
                               <set attributeName="fill" to="#808080" begin="reset.mouseover" end="reset.mouseout"/>
                       </use>
               </g>
        </defs>

<script type="text/javascript">
var viewWidth = 716;
var viewHeight = 437;
var sectionId = 'dynsection-1';
</script>
<script xlink:href="svgpan.js"/>
<svg id="graph" class="graph">
<g id="viewport">
<title>include/indigox/utils/serialise.hpp</title>
<polygon fill="#ffffff" stroke="transparent" points="-4,4 -4,-433 712.1719,-433 712.1719,4 -4,4"/>
<!-- Node18 -->
<g id="node1" class="node">
<title>Node18</title>
<g id="a_node1"><a xlink:title=" ">
<polygon fill="#bfbfbf" stroke="#000000" points="233.7808,-400.5 233.7808,-428.5 336.4995,-428.5 336.4995,-400.5 233.7808,-400.5"/>
<text text-anchor="start" x="241.7808" y="-416.5" font-family="Helvetica,sans-Serif" font-size="10.00" fill="#000000">include/indigox/utils</text>
<text text-anchor="middle" x="285.1401" y="-406.5" font-family="Helvetica,sans-Serif" font-size="10.00" fill="#000000">/serialise.hpp</text>
</a>
</g>
</g>
<!-- Node19 -->
<g id="node2" class="node">
<title>Node19</title>
<g id="a_node2"><a xlink:href="base__graph__impl_8hpp.html" target="_top" xlink:title=" ">
<polygon fill="#ffffff" stroke="#000000" points="440.6602,-270.5 440.6602,-298.5 555.6201,-298.5 555.6201,-270.5 440.6602,-270.5"/>
<text text-anchor="start" x="448.6602" y="-286.5" font-family="Helvetica,sans-Serif" font-size="10.00" fill="#000000">include/indigox/graph</text>
<text text-anchor="middle" x="498.1401" y="-276.5" font-family="Helvetica,sans-Serif" font-size="10.00" fill="#000000">/base_graph_impl.hpp</text>
</a>
</g>
</g>
<!-- Node18&#45;&gt;Node19 -->
<g id="edge1" class="edge">
<title>Node18&#45;&gt;Node19</title>
<path fill="none" stroke="#191970" d="M317.0557,-395.021C360.3695,-368.5853 436.736,-321.9767 474.9685,-298.6423"/>
<polygon fill="#191970" stroke="#191970" points="315.0528,-392.143 308.3403,-400.3402 318.6995,-398.1181 315.0528,-392.143"/>
</g>
<!-- Node29 -->
<g id="node12" class="node">
<title>Node29</title>
<g id="a_node12"><a xlink:href="triple_8hpp.html" target="_top" xlink:title=" ">
<polygon fill="#ffffff" stroke="#000000" points="233.7808,-335.5 233.7808,-363.5 336.4995,-363.5 336.4995,-335.5 233.7808,-335.5"/>
<text text-anchor="start" x="241.7808" y="-351.5" font-family="Helvetica,sans-Serif" font-size="10.00" fill="#000000">include/indigox/utils</text>
<text text-anchor="middle" x="285.1401" y="-341.5" font-family="Helvetica,sans-Serif" font-size="10.00" fill="#000000">/triple.hpp</text>
</a>
</g>
</g>
<!-- Node18&#45;&gt;Node29 -->
<g id="edge14" class="edge">
<title>Node18&#45;&gt;Node29</title>
<path fill="none" stroke="#191970" d="M285.1401,-390.1081C285.1401,-381.1539 285.1401,-371.3227 285.1401,-363.5765"/>
<polygon fill="#191970" stroke="#191970" points="281.6402,-390.3959 285.1401,-400.396 288.6402,-390.396 281.6402,-390.3959"/>
</g>
<!-- Node34 -->
<g id="node17" class="node">
<title>Node34</title>
<g id="a_node17"><a xlink:href="quad_8hpp.html" target="_top" xlink:title=" ">
<polygon fill="#ffffff" stroke="#000000" points="105.7808,-335.5 105.7808,-363.5 208.4995,-363.5 208.4995,-335.5 105.7808,-335.5"/>
<text text-anchor="start" x="113.7808" y="-351.5" font-family="Helvetica,sans-Serif" font-size="10.00" fill="#000000">include/indigox/utils</text>
<text text-anchor="middle" x="157.1401" y="-341.5" font-family="Helvetica,sans-Serif" font-size="10.00" fill="#000000">/quad.hpp</text>
</a>
</g>
</g>
<!-- Node18&#45;&gt;Node34 -->
<g id="edge20" class="edge">
<title>Node18&#45;&gt;Node34</title>
<path fill="none" stroke="#191970" d="M248.4205,-395.8533C228.1823,-385.5761 203.4666,-373.0252 184.86,-363.5765"/>
<polygon fill="#191970" stroke="#191970" points="246.8651,-398.9888 257.366,-400.396 250.0345,-392.7475 246.8651,-398.9888"/>
</g>
<!-- Node20 -->
<g id="node3" class="node">
<title>Node20</title>
<g id="a_node3"><a xlink:href="base__graph_8hpp.html" target="_top" xlink:title=" ">
<polygon fill="#ffffff" stroke="#000000" points="361.8843,-205.5 361.8843,-233.5 472.396,-233.5 472.396,-205.5 361.8843,-205.5"/>
<text text-anchor="start" x="369.8843" y="-221.5" font-family="Helvetica,sans-Serif" font-size="10.00" fill="#000000">include/indigox/graph</text>
<text text-anchor="middle" x="417.1401" y="-211.5" font-family="Helvetica,sans-Serif" font-size="10.00" fill="#000000">/base_graph.hpp</text>
</a>
</g>
</g>
<!-- Node19&#45;&gt;Node20 -->
<g id="edge2" class="edge">
<title>Node19&#45;&gt;Node20</title>
<path fill="none" stroke="#191970" d="M472.4484,-263.8832C460.1392,-254.0054 445.7136,-242.4293 434.6816,-233.5765"/>
<polygon fill="#191970" stroke="#191970" points="470.5745,-266.867 480.5643,-270.396 474.9556,-261.4075 470.5745,-266.867"/>
</g>
<!-- Node21 -->
<g id="node4" class="node">
<title>Node21</title>
<g id="a_node4"><a xlink:href="access_8hpp.html" target="_top" xlink:title=" ">
<polygon fill="#ffffff" stroke="#000000" points="89.1084,-140.5 89.1084,-168.5 215.1719,-168.5 215.1719,-140.5 89.1084,-140.5"/>
<text text-anchor="start" x="97.1084" y="-156.5" font-family="Helvetica,sans-Serif" font-size="10.00" fill="#000000">include/indigox/algorithm</text>
<text text-anchor="middle" x="152.1401" y="-146.5" font-family="Helvetica,sans-Serif" font-size="10.00" fill="#000000">/access.hpp</text>
</a>
</g>
</g>
<!-- Node20&#45;&gt;Node21 -->
<g id="edge3" class="edge">
<title>Node20&#45;&gt;Node21</title>
<path fill="none" stroke="#191970" d="M351.648,-203.4359C308.0335,-192.738 251.2721,-178.8154 209.45,-168.5571"/>
<polygon fill="#191970" stroke="#191970" points="351.0415,-206.8908 361.5875,-205.8739 352.7091,-200.0923 351.0415,-206.8908"/>
</g>
<!-- Node22 -->
<g id="node5" class="node">
<title>Node22</title>
<g id="a_node5"><a xlink:href="assignment_8hpp.html" target="_top" xlink:title=" ">
<polygon fill="#ffffff" stroke="#000000" points="490.8843,-140.5 490.8843,-168.5 601.396,-168.5 601.396,-140.5 490.8843,-140.5"/>
<text text-anchor="start" x="498.8843" y="-156.5" font-family="Helvetica,sans-Serif" font-size="10.00" fill="#000000">include/indigox/graph</text>
<text text-anchor="middle" x="546.1401" y="-146.5" font-family="Helvetica,sans-Serif" font-size="10.00" fill="#000000">/assignment.hpp</text>
</a>
</g>
</g>
<!-- Node20&#45;&gt;Node22 -->
<g id="edge4" class="edge">
<title>Node20&#45;&gt;Node22</title>
<path fill="none" stroke="#191970" d="M454.1466,-200.8533C474.543,-190.5761 499.4518,-178.0252 518.2037,-168.5765"/>
<polygon fill="#191970" stroke="#191970" points="452.4867,-197.7705 445.1312,-205.396 455.6366,-204.0217 452.4867,-197.7705"/>
</g>
<!-- Node26 -->
<g id="node9" class="node">
<title>Node26</title>
<g id="a_node9"><a xlink:href="condensed_8hpp.html" target="_top" xlink:title=" ">
<polygon fill="#ffffff" stroke="#000000" points="361.8843,-140.5 361.8843,-168.5 472.396,-168.5 472.396,-140.5 361.8843,-140.5"/>
<text text-anchor="start" x="369.8843" y="-156.5" font-family="Helvetica,sans-Serif" font-size="10.00" fill="#000000">include/indigox/graph</text>
<text text-anchor="middle" x="417.1401" y="-146.5" font-family="Helvetica,sans-Serif" font-size="10.00" fill="#000000">/condensed.hpp</text>
</a>
</g>
</g>
<!-- Node20&#45;&gt;Node26 -->
<g id="edge10" class="edge">
<title>Node20&#45;&gt;Node26</title>
<path fill="none" stroke="#191970" d="M417.1401,-195.1081C417.1401,-186.1539 417.1401,-176.3227 417.1401,-168.5765"/>
<polygon fill="#191970" stroke="#191970" points="413.6402,-195.3959 417.1401,-205.396 420.6402,-195.396 413.6402,-195.3959"/>
</g>
<!-- Node28 -->
<g id="node11" class="node">
<title>Node28</title>
<g id="a_node11"><a xlink:href="molecular_8hpp.html" target="_top" xlink:title=" ">
<polygon fill="#ffffff" stroke="#000000" points="232.8843,-140.5 232.8843,-168.5 343.396,-168.5 343.396,-140.5 232.8843,-140.5"/>
<text text-anchor="start" x="240.8843" y="-156.5" font-family="Helvetica,sans-Serif" font-size="10.00" fill="#000000">include/indigox/graph</text>
<text text-anchor="middle" x="288.1401" y="-146.5" font-family="Helvetica,sans-Serif" font-size="10.00" fill="#000000">/molecular.hpp</text>
</a>
</g>
</g>
<!-- Node20&#45;&gt;Node28 -->
<g id="edge12" class="edge">
<title>Node20&#45;&gt;Node28</title>
<path fill="none" stroke="#191970" d="M380.1336,-200.8533C359.7373,-190.5761 334.8285,-178.0252 316.0766,-168.5765"/>
<polygon fill="#191970" stroke="#191970" points="378.6437,-204.0217 389.1491,-205.396 381.7936,-197.7705 378.6437,-204.0217"/>
</g>
<!-- Node23 -->
<g id="node6" class="node">
<title>Node23</title>
<g id="a_node6"><a xlink:href="assigner_8hpp.html" target="_top" xlink:title=" ">
<polygon fill="#ffffff" stroke="#000000" points="460.8672,-75.5 460.8672,-103.5 631.4131,-103.5 631.4131,-75.5 460.8672,-75.5"/>
<text text-anchor="start" x="468.8672" y="-91.5" font-family="Helvetica,sans-Serif" font-size="10.00" fill="#000000">include/indigox/algorithm</text>
<text text-anchor="middle" x="546.1401" y="-81.5" font-family="Helvetica,sans-Serif" font-size="10.00" fill="#000000">/electron_assignment/assigner.hpp</text>
</a>
</g>
</g>
<!-- Node22&#45;&gt;Node23 -->
<g id="edge5" class="edge">
<title>Node22&#45;&gt;Node23</title>
<path fill="none" stroke="#191970" d="M546.1401,-130.1081C546.1401,-121.1539 546.1401,-111.3227 546.1401,-103.5765"/>
<polygon fill="#191970" stroke="#191970" points="542.6402,-130.3959 546.1401,-140.396 549.6402,-130.396 542.6402,-130.3959"/>
</g>
<!-- Node24 -->
<g id="node7" class="node">
<title>Node24</title>
<g id="a_node7"><a xlink:href="astar__optimisation_8hpp.html" target="_top" xlink:title=" ">
<polygon fill="#ffffff" stroke="#000000" points="572.1084,-.5 572.1084,-38.5 708.1719,-38.5 708.1719,-.5 572.1084,-.5"/>
<text text-anchor="start" x="580.1084" y="-26.5" font-family="Helvetica,sans-Serif" font-size="10.00" fill="#000000">include/indigox/algorithm</text>
<text text-anchor="start" x="580.1084" y="-16.5" font-family="Helvetica,sans-Serif" font-size="10.00" fill="#000000">/electron_assignment/astar</text>
<text text-anchor="middle" x="640.1401" y="-6.5" font-family="Helvetica,sans-Serif" font-size="10.00" fill="#000000">_optimisation.hpp</text>
</a>
</g>
</g>
<!-- Node22&#45;&gt;Node24 -->
<g id="edge8" class="edge">
<title>Node22&#45;&gt;Node24</title>
<path fill="none" stroke="#191970" d="M603.3456,-136.0331C617.8617,-128.4746 631.7159,-118.0887 640.1401,-104 651.9601,-84.2322 649.2821,-56.9292 645.4432,-38.7684"/>
<polygon fill="#191970" stroke="#191970" points="601.7721,-132.9059 594.2645,-140.3817 604.7954,-139.2194 601.7721,-132.9059"/>
</g>
<!-- Node25 -->
<g id="node8" class="node">
<title>Node25</title>
<g id="a_node8"><a xlink:href="local__optimisation_8hpp.html" target="_top" xlink:title=" ">
<polygon fill="#ffffff" stroke="#000000" points="401.9409,-.5 401.9409,-38.5 536.3394,-38.5 536.3394,-.5 401.9409,-.5"/>
<text text-anchor="start" x="409.9409" y="-26.5" font-family="Helvetica,sans-Serif" font-size="10.00" fill="#000000">include/indigox/algorithm</text>
<text text-anchor="start" x="409.9409" y="-16.5" font-family="Helvetica,sans-Serif" font-size="10.00" fill="#000000">/electron_assignment/local</text>
<text text-anchor="middle" x="469.1401" y="-6.5" font-family="Helvetica,sans-Serif" font-size="10.00" fill="#000000">_optimisation.hpp</text>
</a>
</g>
</g>
<!-- Node22&#45;&gt;Node25 -->
<g id="edge9" class="edge">
<title>Node22&#45;&gt;Node25</title>
<path fill="none" stroke="#191970" d="M488.9346,-136.0331C474.4186,-128.4746 460.5644,-118.0887 452.1401,-104 440.0833,-83.8361 449.2089,-56.6229 458.07,-38.5907"/>
<polygon fill="#191970" stroke="#191970" points="487.4849,-139.2194 498.0158,-140.3817 490.5082,-132.9059 487.4849,-139.2194"/>
</g>
<!-- Node23&#45;&gt;Node24 -->
<g id="edge6" class="edge">
<title>Node23&#45;&gt;Node24</title>
<path fill="none" stroke="#191970" d="M573.2595,-69.3047C586.203,-59.6659 601.6127,-48.1906 614.3765,-38.6857"/>
<polygon fill="#191970" stroke="#191970" points="571.0924,-66.5546 565.1624,-75.3345 575.2733,-72.1689 571.0924,-66.5546"/>
</g>
<!-- Node23&#45;&gt;Node25 -->
<g id="edge7" class="edge">
<title>Node23&#45;&gt;Node25</title>
<path fill="none" stroke="#191970" d="M523.0117,-68.4742C512.6031,-59.0118 500.4011,-47.9191 490.2444,-38.6857"/>
<polygon fill="#191970" stroke="#191970" points="520.8042,-71.1975 530.558,-75.3345 525.513,-66.0179 520.8042,-71.1975"/>
</g>
<!-- Node27 -->
<g id="node10" class="node">
<title>Node27</title>
<g id="a_node10"><a xlink:href="molecule__impl_8hpp.html" target="_top" xlink:title=" ">
<polygon fill="#ffffff" stroke="#000000" points="229,-75.5 229,-103.5 347.2803,-103.5 347.2803,-75.5 229,-75.5"/>
<text text-anchor="start" x="237" y="-91.5" font-family="Helvetica,sans-Serif" font-size="10.00" fill="#000000">include/indigox/classes</text>
<text text-anchor="middle" x="288.1401" y="-81.5" font-family="Helvetica,sans-Serif" font-size="10.00" fill="#000000">/molecule_impl.hpp</text>
</a>
</g>
</g>
<!-- Node26&#45;&gt;Node27 -->
<g id="edge11" class="edge">
<title>Node26&#45;&gt;Node27</title>
<path fill="none" stroke="#191970" d="M380.1336,-135.8533C359.7373,-125.5761 334.8285,-113.0252 316.0766,-103.5765"/>
<polygon fill="#191970" stroke="#191970" points="378.6437,-139.0217 389.1491,-140.396 381.7936,-132.7705 378.6437,-139.0217"/>
</g>
<!-- Node28&#45;&gt;Node27 -->
<g id="edge13" class="edge">
<title>Node28&#45;&gt;Node27</title>
<path fill="none" stroke="#191970" d="M288.1401,-130.1081C288.1401,-121.1539 288.1401,-111.3227 288.1401,-103.5765"/>
<polygon fill="#191970" stroke="#191970" points="284.6402,-130.3959 288.1401,-140.396 291.6402,-130.396 284.6402,-130.3959"/>
</g>
<!-- Node29&#45;&gt;Node19 -->
<g id="edge15" class="edge">
<title>Node29&#45;&gt;Node19</title>
<path fill="none" stroke="#191970" d="M341.0306,-332.4442C375.5578,-321.9078 419.3318,-308.5495 451.8998,-298.6109"/>
<polygon fill="#191970" stroke="#191970" points="339.6387,-329.2096 331.0957,-335.476 341.6819,-335.9048 339.6387,-329.2096"/>
</g>
<!-- Node30 -->
<g id="node13" class="node">
<title>Node30</title>
<g id="a_node13"><a xlink:href="athenaeum_8hpp.html" target="_top" xlink:title=" ">
<polygon fill="#ffffff" stroke="#000000" points="181,-270.5 181,-298.5 299.2803,-298.5 299.2803,-270.5 181,-270.5"/>
<text text-anchor="start" x="189" y="-286.5" font-family="Helvetica,sans-Serif" font-size="10.00" fill="#000000">include/indigox/classes</text>
<text text-anchor="middle" x="240.1401" y="-276.5" font-family="Helvetica,sans-Serif" font-size="10.00" fill="#000000">/athenaeum.hpp</text>
</a>
</g>
</g>
<!-- Node29&#45;&gt;Node30 -->
<g id="edge16" class="edge">
<title>Node29&#45;&gt;Node30</title>
<path fill="none" stroke="#191970" d="M269.6722,-327.1575C263.1101,-317.6788 255.6607,-306.9186 249.8854,-298.5765"/>
<polygon fill="#191970" stroke="#191970" points="266.806,-329.1663 275.3758,-335.396 272.5613,-325.1818 266.806,-329.1663"/>
</g>
<!-- Node32 -->
<g id="node15" class="node">
<title>Node32</title>
<g id="a_node15"><a xlink:href="parameterised_8hpp.html" target="_top" xlink:title=" ">
<polygon fill="#ffffff" stroke="#000000" points="45,-270.5 45,-298.5 163.2803,-298.5 163.2803,-270.5 45,-270.5"/>
<text text-anchor="start" x="53" y="-286.5" font-family="Helvetica,sans-Serif" font-size="10.00" fill="#000000">include/indigox/classes</text>
<text text-anchor="middle" x="104.1401" y="-276.5" font-family="Helvetica,sans-Serif" font-size="10.00" fill="#000000">/parameterised.hpp</text>
</a>
</g>
</g>
<!-- Node29&#45;&gt;Node32 -->
<g id="edge18" class="edge">
<title>Node29&#45;&gt;Node32</title>
<path fill="none" stroke="#191970" d="M236.2848,-331.9553C207.1283,-321.4847 170.5968,-308.3656 143.3378,-298.5765"/>
<polygon fill="#191970" stroke="#191970" points="235.2713,-335.3101 245.8658,-335.396 237.6373,-328.722 235.2713,-335.3101"/>
</g>
<!-- Node33 -->
<g id="node16" class="node">
<title>Node33</title>
<g id="a_node16"><a xlink:href="combinatronics_8hpp.html" target="_top" xlink:title=" ">
<polygon fill="#ffffff" stroke="#000000" points="317.394,-270.5 317.394,-298.5 422.8862,-298.5 422.8862,-270.5 317.394,-270.5"/>
<text text-anchor="start" x="325.394" y="-286.5" font-family="Helvetica,sans-Serif" font-size="10.00" fill="#000000">include/indigox/utils</text>
<text text-anchor="middle" x="370.1401" y="-276.5" font-family="Helvetica,sans-Serif" font-size="10.00" fill="#000000">/combinatronics.hpp</text>
</a>
</g>
</g>
<!-- Node29&#45;&gt;Node33 -->
<g id="edge19" class="edge">
<title>Node29&#45;&gt;Node33</title>
<path fill="none" stroke="#191970" d="M311.7286,-329.1677C324.7262,-319.2283 340.0444,-307.5144 351.7324,-298.5765"/>
<polygon fill="#191970" stroke="#191970" points="309.4014,-326.5412 303.5839,-335.396 313.6536,-332.1017 309.4014,-326.5412"/>
</g>
<!-- Node31 -->
<g id="node14" class="node">
<title>Node31</title>
<g id="a_node14"><a xlink:href="cherrypicker_8hpp.html" target="_top" xlink:title=" ">
<polygon fill="#ffffff" stroke="#000000" points="177.1084,-205.5 177.1084,-233.5 303.1719,-233.5 303.1719,-205.5 177.1084,-205.5"/>
<text text-anchor="start" x="185.1084" y="-221.5" font-family="Helvetica,sans-Serif" font-size="10.00" fill="#000000">include/indigox/algorithm</text>
<text text-anchor="middle" x="240.1401" y="-211.5" font-family="Helvetica,sans-Serif" font-size="10.00" fill="#000000">/cherrypicker.hpp</text>
</a>
</g>
</g>
<!-- Node30&#45;&gt;Node31 -->
<g id="edge17" class="edge">
<title>Node30&#45;&gt;Node31</title>
<path fill="none" stroke="#191970" d="M240.1401,-260.1081C240.1401,-251.1539 240.1401,-241.3227 240.1401,-233.5765"/>
<polygon fill="#191970" stroke="#191970" points="236.6402,-260.3959 240.1401,-270.396 243.6402,-260.396 236.6402,-260.3959"/>
</g>
<!-- Node34&#45;&gt;Node30 -->
<g id="edge21" class="edge">
<title>Node34&#45;&gt;Node30</title>
<path fill="none" stroke="#191970" d="M183.103,-329.1677C195.7948,-319.2283 210.7525,-307.5144 222.1655,-298.5765"/>
<polygon fill="#191970" stroke="#191970" points="180.865,-326.4747 175.1499,-335.396 185.181,-331.9859 180.865,-326.4747"/>
</g>
<!-- Node34&#45;&gt;Node32 -->
<g id="edge24" class="edge">
<title>Node34&#45;&gt;Node32</title>
<path fill="none" stroke="#191970" d="M139.1586,-327.4472C131.3729,-317.8986 122.4893,-307.0037 115.6179,-298.5765"/>
<polygon fill="#191970" stroke="#191970" points="136.6079,-329.8576 145.6399,-335.396 142.0331,-325.434 136.6079,-329.8576"/>
</g>
<!-- Node35 -->
<g id="node18" class="node">
<title>Node35</title>
<g id="a_node18"><a xlink:href="dihedral_8hpp.html" target="_top" xlink:title=" ">
<polygon fill="#ffffff" stroke="#000000" points="0,-205.5 0,-233.5 118.2803,-233.5 118.2803,-205.5 0,-205.5"/>
<text text-anchor="start" x="8" y="-221.5" font-family="Helvetica,sans-Serif" font-size="10.00" fill="#000000">include/indigox/classes</text>
<text text-anchor="middle" x="59.1401" y="-211.5" font-family="Helvetica,sans-Serif" font-size="10.00" fill="#000000">/dihedral.hpp</text>
</a>
</g>
</g>
<!-- Node34&#45;&gt;Node35 -->
<g id="edge22" class="edge">
<title>Node34&#45;&gt;Node35</title>
<path fill="none" stroke="#191970" d="M96.0057,-338.8187C73.272,-331.5592 49.7236,-319.3882 36.1401,-299 22.5971,-278.6726 37.1834,-250.2847 48.512,-233.5056"/>
<polygon fill="#191970" stroke="#191970" points="95.0872,-342.1966 105.6674,-341.6388 97.0487,-335.477 95.0872,-342.1966"/>
</g>
<!-- Node35&#45;&gt;Node27 -->
<g id="edge23" class="edge">
<title>Node35&#45;&gt;Node27</title>
<path fill="none" stroke="#191970" d="M59.2732,-195.1559C60.6991,-177.5068 65.5341,-154.3158 80.1401,-140 101.0725,-119.4837 175.1882,-105.0765 228.9947,-97.0397"/>
<polygon fill="#191970" stroke="#191970" points="55.7699,-195.1384 58.7691,-205.2998 62.7612,-195.4859 55.7699,-195.1384"/>
</g>
</g>
</svg>
        <g id="navigator" transform="translate(0 0)" fill="#404254">
                <rect fill="#f2f5e9" fill-opacity="0.5" stroke="#606060" stroke-width=".5" x="0" y="0" width="60" height="60"/>
                <use id="zoomplus" xlink:href="#zoomPlus" x="17" y="9" onmousedown="handleZoom(evt,'in')"/>
                <use id="zoomminus" xlink:href="#zoomMin" x="42" y="9" onmousedown="handleZoom(evt,'out')"/>
                <use id="reset" xlink:href="#resetDef" x="30" y="36" onmousedown="handleReset()"/>
                <g id="arrowUp" xlink:href="#dirArrow" transform="translate(30 24)" onmousedown="handlePan(0,-1)">
                  <use xlink:href="#rim" fill="#404040">
                        <set attributeName="fill" to="#808080" begin="arrowUp.mouseover" end="arrowUp.mouseout"/>
                  </use>
                  <path fill="none" stroke="white" stroke-width="1.5" d="M0,-3.0v7 M-2.5,-0.5L0,-3.0L2.5,-0.5"/>
                </g>
                <g id="arrowRight" xlink:href="#dirArrow" transform="rotate(90) translate(36 -43)" onmousedown="handlePan(1,0)">
                  <use xlink:href="#rim" fill="#404040">
                        <set attributeName="fill" to="#808080" begin="arrowRight.mouseover" end="arrowRight.mouseout"/>
                  </use>
                  <path fill="none" stroke="white" stroke-width="1.5" d="M0,-3.0v7 M-2.5,-0.5L0,-3.0L2.5,-0.5"/>
                </g>
                <g id="arrowDown" xlink:href="#dirArrow" transform="rotate(180) translate(-30 -48)" onmousedown="handlePan(0,1)">
                  <use xlink:href="#rim" fill="#404040">
                        <set attributeName="fill" to="#808080" begin="arrowDown.mouseover" end="arrowDown.mouseout"/>
                  </use>
                  <path fill="none" stroke="white" stroke-width="1.5" d="M0,-3.0v7 M-2.5,-0.5L0,-3.0L2.5,-0.5"/>
                </g>
                <g id="arrowLeft" xlink:href="#dirArrow" transform="rotate(270) translate(-36 17)" onmousedown="handlePan(-1,0)">
                  <use xlink:href="#rim" fill="#404040">
                        <set attributeName="fill" to="#808080" begin="arrowLeft.mouseover" end="arrowLeft.mouseout"/>
                  </use>
                  <path fill="none" stroke="white" stroke-width="1.5" d="M0,-3.0v7 M-2.5,-0.5L0,-3.0L2.5,-0.5"/>
                </g>
        </g>
        <svg viewBox="0 0 15 15" width="100%" height="30px" preserveAspectRatio="xMaxYMin meet">
         <g id="arrow_out" transform="scale(0.3 0.3)">
          <a xlink:href="serialise_8hpp__dep__incl_org.svg" target="_base">
           <rect id="button" ry="5" rx="5" y="6" x="6" height="38" width="38"
                fill="#f2f5e9" fill-opacity="0.5" stroke="#606060" stroke-width="1.0"/>
           <path id="arrow"
             d="M 11.500037,31.436501 C 11.940474,20.09759 22.043105,11.32322 32.158766,21.979434 L 37.068811,17.246167 C 37.068811,17.246167 37.088388,32 37.088388,32 L 22.160133,31.978069 C 22.160133,31.978069 26.997745,27.140456 26.997745,27.140456 C 18.528582,18.264221 13.291696,25.230495 11.500037,31.436501 z"
             style="fill:#404040;"/>
          </a>
         </g>
        </svg>
</svg>
