<?xml version="1.0" encoding="UTF-8" standalone="no"?>
<!DOCTYPE svg PUBLIC "-//W3C//DTD SVG 1.1//EN"
 "http://www.w3.org/Graphics/SVG/1.1/DTD/svg11.dtd">
<!-- Generated by graphviz version 2.40.1 (20161225.0304)
 -->
<!-- Title: ChargeGroupOptimiser Pages: 1 -->
<!--zoomable 342 -->
<svg id="main" version="1.1" xmlns="http://www.w3.org/2000/svg" xmlns:xlink="http://www.w3.org/1999/xlink" xml:space="preserve" onload="init(evt)">
<style type="text/css"><![CDATA[
.edge:hover path { stroke: red; }
.edge:hover polygon { stroke: red; fill: red; }
]]></style>
<script type="text/javascript"><![CDATA[
var edges = document.getElementsByTagName('g');
if (edges && edges.length) {
  for (var i=0;i<edges.length;i++) {
    if (edges[i].id.substr(0,4)=='edge') {
      edges[i].setAttribute('class','edge');
    }
  }
}
]]></script>
        <defs>
                <circle id="rim" cx="0" cy="0" r="7"/>
                <circle id="rim2" cx="0" cy="0" r="3.5"/>
                <g id="zoomPlus">
                        <use xlink:href="#rim" fill="#404040">
                                <set attributeName="fill" to="#808080" begin="zoomplus.mouseover" end="zoomplus.mouseout"/>
                        </use>
                        <path d="M-4,0h8M0,-4v8" fill="none" stroke="white" stroke-width="1.5" pointer-events="none"/>
                </g>
                <g id="zoomMin">
                        <use xlink:href="#rim" fill="#404040">
                                <set attributeName="fill" to="#808080" begin="zoomminus.mouseover" end="zoomminus.mouseout"/>
                        </use>
                        <path d="M-4,0h8" fill="none" stroke="white" stroke-width="1.5" pointer-events="none"/>
                </g>
                <g id="dirArrow">
                        <path fill="none" stroke="white" stroke-width="1.5" d="M0,-3.0v7 M-2.5,-0.5L0,-3.0L2.5,-0.5"/>
                </g>
               <g id="resetDef">
                       <use xlink:href="#rim2" fill="#404040">
                               <set attributeName="fill" to="#808080" begin="reset.mouseover" end="reset.mouseout"/>
                       </use>
               </g>
        </defs>

<script type="text/javascript">
var viewWidth = 951;
var viewHeight = 342;
var sectionId = 'dynsection-0';
</script>
<script xlink:href="svgpan.js"/>
<svg id="graph" class="graph">
<g id="viewport">
<title>ChargeGroupOptimiser</title>
<polygon fill="#ffffff" stroke="transparent" points="-4,4 -4,-338 947.1377,-338 947.1377,4 -4,4"/>
<!-- Node1 -->
<g id="node1" class="node">
<title>Node1</title>
<polygon fill="#bfbfbf" stroke="#000000" points="823.7637,-154.5 823.7637,-172.5 943.1377,-172.5 943.1377,-154.5 823.7637,-154.5"/>
<text text-anchor="middle" x="883.4507" y="-160.5" font-family="Helvetica,sans-Serif" font-size="10.00" fill="#000000">ChargeGroupOptimiser</text>
</g>
<!-- Node2 -->
<g id="node2" class="node">
<title>Node2</title>
<polygon fill="#ffffff" stroke="#bfbfbf" points="560.2598,-248.5 560.2598,-276.5 681.5918,-276.5 681.5918,-248.5 560.2598,-248.5"/>
<text text-anchor="start" x="568.2598" y="-264.5" font-family="Helvetica,sans-Serif" font-size="10.00" fill="#000000">map&lt; BitSet::size_type,</text>
<text text-anchor="middle" x="620.9258" y="-254.5" font-family="Helvetica,sans-Serif" font-size="10.00" fill="#000000"> Score &gt;</text>
</g>
<!-- Node2&#45;&gt;Node1 -->
<g id="edge1" class="edge">
<title>Node2&#45;&gt;Node1</title>
<path fill="none" stroke="#9a32cd" stroke-dasharray="5,2" d="M684.3468,-245.6892C720.4988,-235.345 766.3195,-220.937 805.7637,-204.5 828.287,-195.1142 853.0026,-181.445 868.372,-172.513"/>
<polygon fill="#9a32cd" stroke="#9a32cd" points="683.0896,-242.4075 674.4199,-248.4974 684.995,-249.1432 683.0896,-242.4075"/>
<text text-anchor="middle" x="752.6777" y="-242.5" font-family="Helvetica,sans-Serif" font-size="10.00" fill="#000000"> position_scores</text>
</g>
<!-- Node3 -->
<g id="node3" class="node">
<title>Node3</title>
<g id="a_node3"><a xlink:title="STL class. ">
<polygon fill="#ffffff" stroke="#bfbfbf" points="284.2876,-245.5 284.2876,-263.5 354.9604,-263.5 354.9604,-245.5 284.2876,-245.5"/>
<text text-anchor="middle" x="319.624" y="-251.5" font-family="Helvetica,sans-Serif" font-size="10.00" fill="#000000">map&lt; K, T &gt;</text>
</a>
</g>
</g>
<!-- Node3&#45;&gt;Node2 -->
<g id="edge2" class="edge">
<title>Node3&#45;&gt;Node2</title>
<path fill="none" stroke="#ffa500" stroke-dasharray="5,2" d="M365.3205,-261.1909C379.4228,-262.9613 395.0248,-264.6224 409.4033,-265.5 468.341,-269.0971 483.2232,-266.6253 542.2598,-265.5 547.999,-265.3906 553.9724,-265.2364 559.9487,-265.0549"/>
<polygon fill="#ffa500" stroke="#ffa500" points="365.7243,-257.714 355.3558,-259.8921 364.8195,-264.6553 365.7243,-257.714"/>
<text text-anchor="start" x="431.5029" y="-278.5" font-family="Helvetica,sans-Serif" font-size="10.00" fill="#000000"> &lt; BitSet::size_type,</text>
<text text-anchor="middle" x="475.8315" y="-268.5" font-family="Helvetica,sans-Serif" font-size="10.00" fill="#000000"> Score &gt;</text>
</g>
<!-- Node9 -->
<g id="node9" class="node">
<title>Node9</title>
<polygon fill="#ffffff" stroke="#bfbfbf" points="560.958,-191.5 560.958,-209.5 680.8936,-209.5 680.8936,-191.5 560.958,-191.5"/>
<text text-anchor="middle" x="620.9258" y="-197.5" font-family="Helvetica,sans-Serif" font-size="10.00" fill="#000000">map&lt; BitSet, Division &gt;</text>
</g>
<!-- Node3&#45;&gt;Node9 -->
<g id="edge11" class="edge">
<title>Node3&#45;&gt;Node9</title>
<path fill="none" stroke="#ffa500" stroke-dasharray="5,2" d="M365.3804,-253.8062C410.8497,-252.2275 482.2693,-247.3345 542.2598,-232.5 563.8722,-227.1556 587.3579,-216.9827 602.9876,-209.5367"/>
<polygon fill="#ffa500" stroke="#ffa500" points="365.1326,-250.3121 355.2449,-254.118 365.3478,-257.3088 365.1326,-250.3121"/>
<text text-anchor="middle" x="475.8315" y="-252.5" font-family="Helvetica,sans-Serif" font-size="10.00" fill="#000000"> &lt; BitSet, Division &gt;</text>
</g>
<!-- Node12 -->
<g id="node12" class="node">
<title>Node12</title>
<polygon fill="#ffffff" stroke="#bfbfbf" points="561.2363,-154.5 561.2363,-172.5 680.6152,-172.5 680.6152,-154.5 561.2363,-154.5"/>
<text text-anchor="middle" x="620.9258" y="-160.5" font-family="Helvetica,sans-Serif" font-size="10.00" fill="#000000">map&lt; Division, Score &gt;</text>
</g>
<!-- Node3&#45;&gt;Node12 -->
<g id="edge16" class="edge">
<title>Node3&#45;&gt;Node12</title>
<path fill="none" stroke="#ffa500" stroke-dasharray="5,2" d="M350.1648,-241.647C367.3213,-234.8417 389.2707,-226.8163 409.4033,-221.5 467.2712,-206.2192 488.6422,-226.0961 542.2598,-199.5 552.1176,-194.6102 550.7665,-188.0645 560.2598,-182.5 567.2106,-178.4258 575.1302,-175.1302 582.901,-172.5004"/>
<polygon fill="#ffa500" stroke="#ffa500" points="348.6286,-238.4927 340.6671,-245.4831 351.2502,-244.9832 348.6286,-238.4927"/>
<text text-anchor="middle" x="475.8315" y="-223.5" font-family="Helvetica,sans-Serif" font-size="10.00" fill="#000000"> &lt; Division, Score &gt;</text>
</g>
<!-- Node15 -->
<g id="node15" class="node">
<title>Node15</title>
<polygon fill="#ffffff" stroke="#bfbfbf" points="560.2598,-305.5 560.2598,-333.5 681.5918,-333.5 681.5918,-305.5 560.2598,-305.5"/>
<text text-anchor="start" x="568.2598" y="-321.5" font-family="Helvetica,sans-Serif" font-size="10.00" fill="#000000">map&lt; BitSet::size_type,</text>
<text text-anchor="middle" x="620.9258" y="-311.5" font-family="Helvetica,sans-Serif" font-size="10.00" fill="#000000"> BitSet &gt;</text>
</g>
<!-- Node3&#45;&gt;Node15 -->
<g id="edge21" class="edge">
<title>Node3&#45;&gt;Node15</title>
<path fill="none" stroke="#ffa500" stroke-dasharray="5,2" d="M347.9619,-267.9457C365.3348,-275.6593 388.2334,-284.8955 409.4033,-290.5 459.2095,-303.6857 517.2893,-311.1022 559.9744,-315.1271"/>
<polygon fill="#ffa500" stroke="#ffa500" points="348.9791,-264.5638 338.4264,-263.6189 346.0866,-270.9382 348.9791,-264.5638"/>
<text text-anchor="start" x="431.5029" y="-324.5" font-family="Helvetica,sans-Serif" font-size="10.00" fill="#000000"> &lt; BitSet::size_type,</text>
<text text-anchor="middle" x="475.8315" y="-314.5" font-family="Helvetica,sans-Serif" font-size="10.00" fill="#000000"> BitSet &gt;</text>
</g>
<!-- Node4 -->
<g id="node4" class="node">
<title>Node4</title>
<polygon fill="#ffffff" stroke="#bfbfbf" points="39.5938,-245.5 39.5938,-263.5 68.5938,-263.5 68.5938,-245.5 39.5938,-245.5"/>
<text text-anchor="middle" x="54.0938" y="-251.5" font-family="Helvetica,sans-Serif" font-size="10.00" fill="#000000">K</text>
</g>
<!-- Node4&#45;&gt;Node3 -->
<g id="edge3" class="edge">
<title>Node4&#45;&gt;Node3</title>
<path fill="none" stroke="#9a32cd" stroke-dasharray="5,2" d="M79.0091,-254.5C126.3701,-254.5 229.523,-254.5 284.1072,-254.5"/>
<polygon fill="#9a32cd" stroke="#9a32cd" points="78.7481,-251.0001 68.748,-254.5 78.748,-258.0001 78.7481,-251.0001"/>
<text text-anchor="middle" x="178.0161" y="-256.5" font-family="Helvetica,sans-Serif" font-size="10.00" fill="#000000"> keys</text>
</g>
<!-- Node5 -->
<g id="node5" class="node">
<title>Node5</title>
<polygon fill="#ffffff" stroke="#bfbfbf" points="39.5938,-194.5 39.5938,-212.5 68.5938,-212.5 68.5938,-194.5 39.5938,-194.5"/>
<text text-anchor="middle" x="54.0938" y="-200.5" font-family="Helvetica,sans-Serif" font-size="10.00" fill="#000000">T</text>
</g>
<!-- Node5&#45;&gt;Node3 -->
<g id="edge4" class="edge">
<title>Node5&#45;&gt;Node3</title>
<path fill="none" stroke="#9a32cd" stroke-dasharray="5,2" d="M78.7101,-208.228C125.9346,-217.2984 229.4079,-237.1723 284.1072,-247.6783"/>
<polygon fill="#9a32cd" stroke="#9a32cd" points="79.2287,-204.7637 68.748,-206.3146 77.9083,-211.6381 79.2287,-204.7637"/>
<text text-anchor="middle" x="178.0161" y="-238.5" font-family="Helvetica,sans-Serif" font-size="10.00" fill="#000000"> elements</text>
</g>
<!-- Node10 -->
<g id="node10" class="node">
<title>Node10</title>
<g id="a_node10"><a xlink:title="STL class. ">
<polygon fill="#ffffff" stroke="#bfbfbf" points="286.5117,-146.5 286.5117,-164.5 352.7363,-164.5 352.7363,-146.5 286.5117,-146.5"/>
<text text-anchor="middle" x="319.624" y="-152.5" font-family="Helvetica,sans-Serif" font-size="10.00" fill="#000000">vector&lt; T &gt;</text>
</a>
</g>
</g>
<!-- Node5&#45;&gt;Node10 -->
<g id="edge10" class="edge">
<title>Node5&#45;&gt;Node10</title>
<path fill="none" stroke="#9a32cd" stroke-dasharray="5,2" d="M78.5539,-194.9522C92.3884,-190.3925 110.0903,-185.0135 126.1875,-181.5 181.8045,-169.3607 247.7303,-161.957 286.4824,-158.3013"/>
<polygon fill="#9a32cd" stroke="#9a32cd" points="77.1765,-191.7229 68.8191,-198.2348 79.4132,-198.3559 77.1765,-191.7229"/>
<text text-anchor="middle" x="178.0161" y="-183.5" font-family="Helvetica,sans-Serif" font-size="10.00" fill="#000000"> elements</text>
</g>
<!-- Node6 -->
<g id="node6" class="node">
<title>Node6</title>
<g id="a_node6"><a xlink:href="classindigox_1_1graph_1_1_molecular_graph.html" target="_top" xlink:title="Class containing a graph representation of a molecule. ">
<polygon fill="#ffffff" stroke="#000000" points="577.3545,-26.5 577.3545,-44.5 664.4971,-44.5 664.4971,-26.5 577.3545,-26.5"/>
<text text-anchor="middle" x="620.9258" y="-32.5" font-family="Helvetica,sans-Serif" font-size="10.00" fill="#000000">MolecularGraph</text>
</a>
</g>
</g>
<!-- Node6&#45;&gt;Node1 -->
<g id="edge5" class="edge">
<title>Node6&#45;&gt;Node1</title>
<path fill="none" stroke="#9a32cd" stroke-dasharray="5,2" d="M674.7338,-33.3467C713.6131,-34.1377 766.0554,-40.2166 805.7637,-63.5 843.693,-85.7403 869.7742,-134.2653 879.3697,-154.4307"/>
<polygon fill="#9a32cd" stroke="#9a32cd" points="674.6867,-29.8462 664.6545,-33.2528 674.6215,-36.8459 674.6867,-29.8462"/>
<text text-anchor="middle" x="752.6777" y="-75.5" font-family="Helvetica,sans-Serif" font-size="10.00" fill="#000000"> leafless</text>
<text text-anchor="middle" x="752.6777" y="-65.5" font-family="Helvetica,sans-Serif" font-size="10.00" fill="#000000">full_graph</text>
</g>
<!-- Node7 -->
<g id="node7" class="node">
<title>Node7</title>
<g id="a_node7"><a xlink:href="classindigox_1_1graph_1_1_base_graph.html" target="_top" xlink:title="BaseGraph\&lt; MGVertex,\l MGEdge, MolecularGraph \&gt;">
<polygon fill="#ffffff" stroke="#000000" points="247.8447,-.5 247.8447,-28.5 391.4033,-28.5 391.4033,-.5 247.8447,-.5"/>
<text text-anchor="start" x="255.8447" y="-16.5" font-family="Helvetica,sans-Serif" font-size="10.00" fill="#000000">BaseGraph&lt; MGVertex,</text>
<text text-anchor="middle" x="319.624" y="-6.5" font-family="Helvetica,sans-Serif" font-size="10.00" fill="#000000"> MGEdge, MolecularGraph &gt;</text>
</a>
</g>
</g>
<!-- Node7&#45;&gt;Node6 -->
<g id="edge6" class="edge">
<title>Node7&#45;&gt;Node6</title>
<path fill="none" stroke="#191970" d="M401.428,-20.2015C458.0887,-24.1507 531.3028,-29.2535 577.197,-32.4522"/>
<polygon fill="#191970" stroke="#191970" points="401.6297,-16.7072 391.4105,-19.5033 401.1429,-23.6903 401.6297,-16.7072"/>
</g>
<!-- Node8 -->
<g id="node8" class="node">
<title>Node8</title>
<g id="a_node8"><a xlink:href="classindigox_1_1graph_1_1_base_graph.html" target="_top" xlink:title="Template base class for all graphs used in the indigoX library. ">
<polygon fill="#ffffff" stroke="#000000" points="0,-.5 0,-28.5 108.1875,-28.5 108.1875,-.5 0,-.5"/>
<text text-anchor="start" x="8" y="-16.5" font-family="Helvetica,sans-Serif" font-size="10.00" fill="#000000">BaseGraph&lt; V, E, S,</text>
<text text-anchor="middle" x="54.0938" y="-6.5" font-family="Helvetica,sans-Serif" font-size="10.00" fill="#000000"> D, VP, EP &gt;</text>
</a>
</g>
</g>
<!-- Node8&#45;&gt;Node7 -->
<g id="edge7" class="edge">
<title>Node8&#45;&gt;Node7</title>
<path fill="none" stroke="#ffa500" stroke-dasharray="5,2" d="M118.6506,-14.5C157.6486,-14.5 207.4261,-14.5 247.6843,-14.5"/>
<polygon fill="#ffa500" stroke="#ffa500" points="118.4685,-11.0001 108.4685,-14.5 118.4685,-18.0001 118.4685,-11.0001"/>
<text text-anchor="start" x="126.1875" y="-26.5" font-family="Helvetica,sans-Serif" font-size="10.00" fill="#000000"> &lt; MGVertex, MGEdge,</text>
<text text-anchor="middle" x="178.0161" y="-16.5" font-family="Helvetica,sans-Serif" font-size="10.00" fill="#000000"> MolecularGraph &gt;</text>
</g>
<!-- Node9&#45;&gt;Node1 -->
<g id="edge8" class="edge">
<title>Node9&#45;&gt;Node1</title>
<path fill="none" stroke="#9a32cd" stroke-dasharray="5,2" d="M690.9457,-192.0228C725.5428,-187.6778 767.8916,-182.1255 805.7637,-176.5 814.0148,-175.2744 822.7447,-173.8947 831.2566,-172.504"/>
<polygon fill="#9a32cd" stroke="#9a32cd" points="690.4274,-188.5602 680.9386,-193.2731 691.2954,-195.5062 690.4274,-188.5602"/>
<text text-anchor="middle" x="752.6777" y="-192.5" font-family="Helvetica,sans-Serif" font-size="10.00" fill="#000000"> optimal_seen_divisions</text>
</g>
<!-- Node10&#45;&gt;Node9 -->
<g id="edge9" class="edge">
<title>Node10&#45;&gt;Node9</title>
<path fill="none" stroke="#9a32cd" stroke-dasharray="5,2" d="M362.9255,-161.9672C414.9162,-169.7321 502.4051,-182.7987 560.8943,-191.5342"/>
<polygon fill="#9a32cd" stroke="#9a32cd" points="363.4271,-158.5033 353.0198,-160.4877 362.3931,-165.4266 363.4271,-158.5033"/>
<text text-anchor="middle" x="475.8315" y="-189.5" font-family="Helvetica,sans-Serif" font-size="10.00" fill="#000000"> elements</text>
</g>
<!-- Node11 -->
<g id="node11" class="node">
<title>Node11</title>
<polygon fill="#ffffff" stroke="#bfbfbf" points="575.6797,-117.5 575.6797,-135.5 666.1719,-135.5 666.1719,-117.5 575.6797,-117.5"/>
<text text-anchor="middle" x="620.9258" y="-123.5" font-family="Helvetica,sans-Serif" font-size="10.00" fill="#000000">vector&lt; int32_t &gt;</text>
</g>
<!-- Node10&#45;&gt;Node11 -->
<g id="edge13" class="edge">
<title>Node10&#45;&gt;Node11</title>
<path fill="none" stroke="#ffa500" stroke-dasharray="5,2" d="M362.6278,-146.8C377.4007,-144.0877 394.0758,-141.3307 409.4033,-139.5 466.3937,-132.6933 532.4734,-129.3549 575.4021,-127.7854"/>
<polygon fill="#ffa500" stroke="#ffa500" points="361.9251,-143.3707 352.7443,-148.6586 363.2189,-150.2501 361.9251,-143.3707"/>
<text text-anchor="middle" x="475.8315" y="-141.5" font-family="Helvetica,sans-Serif" font-size="10.00" fill="#000000"> &lt; int32_t &gt;</text>
</g>
<!-- Node10&#45;&gt;Node12 -->
<g id="edge15" class="edge">
<title>Node10&#45;&gt;Node12</title>
<path fill="none" stroke="#9a32cd" stroke-dasharray="5,2" d="M363.0937,-154.6138C407.9888,-153.9524 480.0638,-153.5983 542.2598,-156.5 548.2862,-156.7812 554.5649,-157.1725 560.8311,-157.6277"/>
<polygon fill="#9a32cd" stroke="#9a32cd" points="362.7821,-151.1183 352.8392,-154.7773 362.8938,-158.1174 362.7821,-151.1183"/>
<text text-anchor="middle" x="475.8315" y="-158.5" font-family="Helvetica,sans-Serif" font-size="10.00" fill="#000000"> keys</text>
</g>
<!-- Node13 -->
<g id="node13" class="node">
<title>Node13</title>
<polygon fill="#ffffff" stroke="#bfbfbf" points="563.5898,-70.5 563.5898,-98.5 678.2617,-98.5 678.2617,-70.5 563.5898,-70.5"/>
<text text-anchor="start" x="571.5898" y="-86.5" font-family="Helvetica,sans-Serif" font-size="10.00" fill="#000000">vector&lt; indigox::graph</text>
<text text-anchor="middle" x="620.9258" y="-76.5" font-family="Helvetica,sans-Serif" font-size="10.00" fill="#000000">::MGVertex &gt;</text>
</g>
<!-- Node10&#45;&gt;Node13 -->
<g id="edge19" class="edge">
<title>Node10&#45;&gt;Node13</title>
<path fill="none" stroke="#ffa500" stroke-dasharray="5,2" d="M344.655,-141.7039C362.2604,-132.5975 386.6467,-121.1583 409.4033,-114.5 460.3081,-99.606 520.3434,-91.9906 563.4251,-88.1695"/>
<polygon fill="#ffa500" stroke="#ffa500" points="342.83,-138.7097 335.6253,-146.4779 346.1017,-144.8981 342.83,-138.7097"/>
<text text-anchor="middle" x="475.8315" y="-116.5" font-family="Helvetica,sans-Serif" font-size="10.00" fill="#000000"> &lt; indigox::graph::MGVertex &gt;</text>
</g>
<!-- Node11&#45;&gt;Node1 -->
<g id="edge12" class="edge">
<title>Node11&#45;&gt;Node1</title>
<path fill="none" stroke="#9a32cd" stroke-dasharray="5,2" d="M676.2445,-132.5856C713.0271,-136.8281 762.3692,-142.8951 805.7637,-149.5 815.3831,-150.9641 825.6425,-152.693 835.4468,-154.4272"/>
<polygon fill="#9a32cd" stroke="#9a32cd" points="676.5514,-129.098 666.2183,-131.4384 675.7556,-136.0526 676.5514,-129.098"/>
<text text-anchor="middle" x="752.6777" y="-151.5" font-family="Helvetica,sans-Serif" font-size="10.00" fill="#000000"> weights</text>
</g>
<!-- Node12&#45;&gt;Node1 -->
<g id="edge14" class="edge">
<title>Node12&#45;&gt;Node1</title>
<path fill="none" stroke="#9a32cd" stroke-dasharray="5,2" d="M691.0783,-163.5C732.3399,-163.5 783.9724,-163.5 823.3546,-163.5"/>
<polygon fill="#9a32cd" stroke="#9a32cd" points="690.8253,-160.0001 680.8252,-163.5 690.8252,-167.0001 690.8253,-160.0001"/>
<text text-anchor="middle" x="752.6777" y="-165.5" font-family="Helvetica,sans-Serif" font-size="10.00" fill="#000000"> seen_division_scores</text>
</g>
<!-- Node13&#45;&gt;Node1 -->
<g id="edge17" class="edge">
<title>Node13&#45;&gt;Node1</title>
<path fill="none" stroke="#9a32cd" stroke-dasharray="5,2" d="M688.7694,-86.6227C724.5612,-89.565 768.6296,-96.1303 805.7637,-110.5 832.5628,-120.8704 859.2324,-142.0323 873.2838,-154.2457"/>
<polygon fill="#9a32cd" stroke="#9a32cd" points="688.6588,-83.1049 678.4266,-85.8533 688.1394,-90.0856 688.6588,-83.1049"/>
<text text-anchor="middle" x="752.6777" y="-122.5" font-family="Helvetica,sans-Serif" font-size="10.00" fill="#000000"> non_leaf_vertices</text>
<text text-anchor="middle" x="752.6777" y="-112.5" font-family="Helvetica,sans-Serif" font-size="10.00" fill="#000000">leaf_vertices</text>
</g>
<!-- Node14 -->
<g id="node14" class="node">
<title>Node14</title>
<g id="a_node14"><a xlink:href="classindigox_1_1graph_1_1_m_g_vertex.html" target="_top" xlink:title="Class for the vertices of a IXMolecularGraph. ">
<polygon fill="#ffffff" stroke="#000000" points="289.3926,-47.5 289.3926,-65.5 349.8555,-65.5 349.8555,-47.5 289.3926,-47.5"/>
<text text-anchor="middle" x="319.624" y="-53.5" font-family="Helvetica,sans-Serif" font-size="10.00" fill="#000000">MGVertex</text>
</a>
</g>
</g>
<!-- Node14&#45;&gt;Node13 -->
<g id="edge18" class="edge">
<title>Node14&#45;&gt;Node13</title>
<path fill="none" stroke="#9a32cd" stroke-dasharray="5,2" d="M360.3544,-52.7449C405.2562,-49.516 479.4568,-46.8773 542.2598,-57.5 557.6358,-60.1008 574.0392,-65.3126 587.8665,-70.4694"/>
<polygon fill="#9a32cd" stroke="#9a32cd" points="359.8449,-49.2735 350.1411,-53.5263 360.379,-56.2531 359.8449,-49.2735"/>
<text text-anchor="middle" x="475.8315" y="-59.5" font-family="Helvetica,sans-Serif" font-size="10.00" fill="#000000"> elements</text>
</g>
<!-- Node15&#45;&gt;Node1 -->
<g id="edge20" class="edge">
<title>Node15&#45;&gt;Node1</title>
<path fill="none" stroke="#9a32cd" stroke-dasharray="5,2" d="M691.6828,-304.0165C727.9368,-293.8417 771.5318,-277.9774 805.7637,-254.5 839.1689,-231.5896 866.7586,-190.7822 878.0101,-172.6357"/>
<polygon fill="#9a32cd" stroke="#9a32cd" points="690.399,-300.7383 681.6659,-306.737 692.2337,-307.4936 690.399,-300.7383"/>
<text text-anchor="middle" x="752.6777" y="-303.5" font-family="Helvetica,sans-Serif" font-size="10.00" fill="#000000"> neighbours</text>
</g>
</g>
</svg>
        <g id="navigator" transform="translate(0 0)" fill="#404254">
                <rect fill="#f2f5e9" fill-opacity="0.5" stroke="#606060" stroke-width=".5" x="0" y="0" width="60" height="60"/>
                <use id="zoomplus" xlink:href="#zoomPlus" x="17" y="9" onmousedown="handleZoom(evt,'in')"/>
                <use id="zoomminus" xlink:href="#zoomMin" x="42" y="9" onmousedown="handleZoom(evt,'out')"/>
                <use id="reset" xlink:href="#resetDef" x="30" y="36" onmousedown="handleReset()"/>
                <g id="arrowUp" xlink:href="#dirArrow" transform="translate(30 24)" onmousedown="handlePan(0,-1)">
                  <use xlink:href="#rim" fill="#404040">
                        <set attributeName="fill" to="#808080" begin="arrowUp.mouseover" end="arrowUp.mouseout"/>
                  </use>
                  <path fill="none" stroke="white" stroke-width="1.5" d="M0,-3.0v7 M-2.5,-0.5L0,-3.0L2.5,-0.5"/>
                </g>
                <g id="arrowRight" xlink:href="#dirArrow" transform="rotate(90) translate(36 -43)" onmousedown="handlePan(1,0)">
                  <use xlink:href="#rim" fill="#404040">
                        <set attributeName="fill" to="#808080" begin="arrowRight.mouseover" end="arrowRight.mouseout"/>
                  </use>
                  <path fill="none" stroke="white" stroke-width="1.5" d="M0,-3.0v7 M-2.5,-0.5L0,-3.0L2.5,-0.5"/>
                </g>
                <g id="arrowDown" xlink:href="#dirArrow" transform="rotate(180) translate(-30 -48)" onmousedown="handlePan(0,1)">
                  <use xlink:href="#rim" fill="#404040">
                        <set attributeName="fill" to="#808080" begin="arrowDown.mouseover" end="arrowDown.mouseout"/>
                  </use>
                  <path fill="none" stroke="white" stroke-width="1.5" d="M0,-3.0v7 M-2.5,-0.5L0,-3.0L2.5,-0.5"/>
                </g>
                <g id="arrowLeft" xlink:href="#dirArrow" transform="rotate(270) translate(-36 17)" onmousedown="handlePan(-1,0)">
                  <use xlink:href="#rim" fill="#404040">
                        <set attributeName="fill" to="#808080" begin="arrowLeft.mouseover" end="arrowLeft.mouseout"/>
                  </use>
                  <path fill="none" stroke="white" stroke-width="1.5" d="M0,-3.0v7 M-2.5,-0.5L0,-3.0L2.5,-0.5"/>
                </g>
        </g>
        <svg viewBox="0 0 15 15" width="100%" height="30px" preserveAspectRatio="xMaxYMin meet">
         <g id="arrow_out" transform="scale(0.3 0.3)">
          <a xlink:href="structindigox_1_1algorithm_1_1_charge_group_optimiser__coll__graph_org.svg" target="_base">
           <rect id="button" ry="5" rx="5" y="6" x="6" height="38" width="38"
                fill="#f2f5e9" fill-opacity="0.5" stroke="#606060" stroke-width="1.0"/>
           <path id="arrow"
             d="M 11.500037,31.436501 C 11.940474,20.09759 22.043105,11.32322 32.158766,21.979434 L 37.068811,17.246167 C 37.068811,17.246167 37.088388,32 37.088388,32 L 22.160133,31.978069 C 22.160133,31.978069 26.997745,27.140456 26.997745,27.140456 C 18.528582,18.264221 13.291696,25.230495 11.500037,31.436501 z"
             style="fill:#404040;"/>
          </a>
         </g>
        </svg>
</svg>
