<?xml version="1.0" encoding="UTF-8" standalone="no"?>
<!DOCTYPE svg PUBLIC "-//W3C//DTD SVG 1.1//EN"
 "http://www.w3.org/Graphics/SVG/1.1/DTD/svg11.dtd">
<!-- Generated by graphviz version 2.40.1 (20161225.0304)
 -->
<!-- Title: Element::ElementImpl Pages: 1 -->
<svg width="122pt" height="158pt"
 viewBox="0.00 0.00 121.82 158.00" xmlns="http://www.w3.org/2000/svg" xmlns:xlink="http://www.w3.org/1999/xlink">
<g id="graph0" class="graph" transform="scale(1 1) rotate(0) translate(4 154)">
<title>Element::ElementImpl</title>
<polygon fill="#ffffff" stroke="transparent" points="-4,4 -4,-154 117.8174,-154 117.8174,4 -4,4"/>
<!-- Node1 -->
<g id="node1" class="node">
<title>Node1</title>
<polygon fill="#bfbfbf" stroke="#000000" points="0,-.5 0,-18.5 113.8174,-18.5 113.8174,-.5 0,-.5"/>
<text text-anchor="middle" x="56.9087" y="-6.5" font-family="Helvetica,sans-Serif" font-size="10.00" fill="#000000">Element::ElementImpl</text>
</g>
<!-- Node2 -->
<g id="node2" class="node">
<title>Node2</title>
<g id="a_node2"><a xlink:title="STL class. ">
<polygon fill="#ffffff" stroke="#bfbfbf" points="36.6821,-75.5 36.6821,-93.5 77.1353,-93.5 77.1353,-75.5 36.6821,-75.5"/>
<text text-anchor="middle" x="56.9087" y="-81.5" font-family="Helvetica,sans-Serif" font-size="10.00" fill="#000000">string</text>
</a>
</g>
</g>
<!-- Node2&#45;&gt;Node1 -->
<g id="edge1" class="edge">
<title>Node2&#45;&gt;Node1</title>
<path fill="none" stroke="#9a32cd" stroke-dasharray="5,2" d="M56.9087,-65.1079C56.9087,-50.2042 56.9087,-30.2791 56.9087,-18.7717"/>
<polygon fill="#9a32cd" stroke="#9a32cd" points="53.4088,-65.3035 56.9087,-75.3035 60.4088,-65.3036 53.4088,-65.3035"/>
<text text-anchor="middle" x="74.1353" y="-49" font-family="Helvetica,sans-Serif" font-size="10.00" fill="#000000"> symbol</text>
<text text-anchor="middle" x="74.1353" y="-39" font-family="Helvetica,sans-Serif" font-size="10.00" fill="#000000">name</text>
</g>
<!-- Node3 -->
<g id="node3" class="node">
<title>Node3</title>
<g id="a_node3"><a xlink:title="STL class. ">
<polygon fill="#ffffff" stroke="#bfbfbf" points="3.8843,-131.5 3.8843,-149.5 109.9331,-149.5 109.9331,-131.5 3.8843,-131.5"/>
<text text-anchor="middle" x="56.9087" y="-137.5" font-family="Helvetica,sans-Serif" font-size="10.00" fill="#000000">basic_string&lt; char &gt;</text>
</a>
</g>
</g>
<!-- Node3&#45;&gt;Node2 -->
<g id="edge2" class="edge">
<title>Node3&#45;&gt;Node2</title>
<path fill="none" stroke="#191970" d="M56.9087,-121.2065C56.9087,-111.8384 56.9087,-101.0262 56.9087,-93.5752"/>
<polygon fill="#191970" stroke="#191970" points="53.4088,-121.2527 56.9087,-131.2527 60.4088,-121.2528 53.4088,-121.2527"/>
</g>
</g>
</svg>
