<?xml version="1.0" encoding="UTF-8" standalone="no"?>
<!DOCTYPE svg PUBLIC "-//W3C//DTD SVG 1.1//EN"
 "http://www.w3.org/Graphics/SVG/1.1/DTD/svg11.dtd">
<!-- Generated by graphviz version 2.40.1 (20161225.0304)
 -->
<!-- Title: CartesianProduct&lt; T, ICT &gt; Pages: 1 -->
<svg width="229pt" height="242pt"
 viewBox="0.00 0.00 228.97 242.00" xmlns="http://www.w3.org/2000/svg" xmlns:xlink="http://www.w3.org/1999/xlink">
<g id="graph0" class="graph" transform="scale(1 1) rotate(0) translate(4 238)">
<title>CartesianProduct&lt; T, ICT &gt;</title>
<polygon fill="#ffffff" stroke="transparent" points="-4,4 -4,-238 224.9702,-238 224.9702,4 -4,4"/>
<!-- Node1 -->
<g id="node1" class="node">
<title>Node1</title>
<polygon fill="#bfbfbf" stroke="#000000" points="67.875,-.5 67.875,-28.5 177.3564,-28.5 177.3564,-.5 67.875,-.5"/>
<text text-anchor="start" x="75.875" y="-16.5" font-family="Helvetica,sans-Serif" font-size="10.00" fill="#000000">CartesianProduct&lt; T,</text>
<text text-anchor="middle" x="122.6157" y="-6.5" font-family="Helvetica,sans-Serif" font-size="10.00" fill="#000000"> ICT &gt;</text>
</g>
<!-- Node2 -->
<g id="node2" class="node">
<title>Node2</title>
<polygon fill="#ffffff" stroke="#bfbfbf" points="71.5396,-75.5 71.5396,-93.5 173.6919,-93.5 173.6919,-75.5 71.5396,-75.5"/>
<text text-anchor="middle" x="122.6157" y="-81.5" font-family="Helvetica,sans-Serif" font-size="10.00" fill="#000000">vector&lt; innerIters &gt;</text>
</g>
<!-- Node2&#45;&gt;Node1 -->
<g id="edge1" class="edge">
<title>Node2&#45;&gt;Node1</title>
<path fill="none" stroke="#9a32cd" stroke-dasharray="5,2" d="M122.6157,-65.0243C122.6157,-53.5169 122.6157,-39.2016 122.6157,-28.7499"/>
<polygon fill="#9a32cd" stroke="#9a32cd" points="119.1158,-65.3487 122.6157,-75.3487 126.1158,-65.3488 119.1158,-65.3487"/>
<text text-anchor="middle" x="133.4507" y="-49" font-family="Helvetica,sans-Serif" font-size="10.00" fill="#000000"> iters</text>
</g>
<!-- Node3 -->
<g id="node3" class="node">
<title>Node3</title>
<g id="a_node3"><a xlink:href="structstdx_1_1triple.html" target="_top" xlink:title="triple\&lt; _T1, _T2, _T3 \&gt;">
<polygon fill="#ffffff" stroke="#000000" points="8.7563,-140.5 8.7563,-158.5 126.4751,-158.5 126.4751,-140.5 8.7563,-140.5"/>
<text text-anchor="middle" x="67.6157" y="-146.5" font-family="Helvetica,sans-Serif" font-size="10.00" fill="#000000">triple&lt; _T1, _T2, _T3 &gt;</text>
</a>
</g>
</g>
<!-- Node3&#45;&gt;Node2 -->
<g id="edge2" class="edge">
<title>Node3&#45;&gt;Node2</title>
<path fill="none" stroke="#9a32cd" stroke-dasharray="5,2" d="M81.8556,-132.6711C92.3057,-120.321 106.1143,-104.0016 114.677,-93.8821"/>
<polygon fill="#9a32cd" stroke="#9a32cd" points="79.0508,-130.5673 75.2632,-140.462 84.3946,-135.089 79.0508,-130.5673"/>
<text text-anchor="middle" x="120.293" y="-114" font-family="Helvetica,sans-Serif" font-size="10.00" fill="#000000"> elements</text>
</g>
<!-- Node4 -->
<g id="node4" class="node">
<title>Node4</title>
<polygon fill="#ffffff" stroke="#bfbfbf" points="0,-215.5 0,-233.5 33.2314,-233.5 33.2314,-215.5 0,-215.5"/>
<text text-anchor="middle" x="16.6157" y="-221.5" font-family="Helvetica,sans-Serif" font-size="10.00" fill="#000000">_T1</text>
</g>
<!-- Node4&#45;&gt;Node3 -->
<g id="edge3" class="edge">
<title>Node4&#45;&gt;Node3</title>
<path fill="none" stroke="#9a32cd" stroke-dasharray="5,2" d="M26.321,-206.5818C31.4619,-197.5019 38.0773,-186.4314 44.729,-177 49.2397,-170.6042 54.8545,-163.8425 59.3938,-158.6243"/>
<polygon fill="#9a32cd" stroke="#9a32cd" points="23.175,-205.038 21.3892,-215.4813 29.2977,-208.4311 23.175,-205.038"/>
<text text-anchor="middle" x="55.0591" y="-189" font-family="Helvetica,sans-Serif" font-size="10.00" fill="#000000"> first</text>
<text text-anchor="middle" x="55.0591" y="-179" font-family="Helvetica,sans-Serif" font-size="10.00" fill="#000000">A</text>
</g>
<!-- Node5 -->
<g id="node5" class="node">
<title>Node5</title>
<polygon fill="#ffffff" stroke="#bfbfbf" points="51,-215.5 51,-233.5 84.2314,-233.5 84.2314,-215.5 51,-215.5"/>
<text text-anchor="middle" x="67.6157" y="-221.5" font-family="Helvetica,sans-Serif" font-size="10.00" fill="#000000">_T2</text>
</g>
<!-- Node5&#45;&gt;Node3 -->
<g id="edge4" class="edge">
<title>Node5&#45;&gt;Node3</title>
<path fill="none" stroke="#9a32cd" stroke-dasharray="5,2" d="M67.6157,-205.1079C67.6157,-190.2042 67.6157,-170.2791 67.6157,-158.7717"/>
<polygon fill="#9a32cd" stroke="#9a32cd" points="64.1158,-205.3035 67.6157,-215.3035 71.1158,-205.3036 64.1158,-205.3035"/>
<text text-anchor="middle" x="85.1279" y="-189" font-family="Helvetica,sans-Serif" font-size="10.00" fill="#000000"> second</text>
<text text-anchor="middle" x="85.1279" y="-179" font-family="Helvetica,sans-Serif" font-size="10.00" fill="#000000">B</text>
</g>
<!-- Node6 -->
<g id="node6" class="node">
<title>Node6</title>
<polygon fill="#ffffff" stroke="#bfbfbf" points="109,-215.5 109,-233.5 142.2314,-233.5 142.2314,-215.5 109,-215.5"/>
<text text-anchor="middle" x="125.6157" y="-221.5" font-family="Helvetica,sans-Serif" font-size="10.00" fill="#000000">_T3</text>
</g>
<!-- Node6&#45;&gt;Node3 -->
<g id="edge5" class="edge">
<title>Node6&#45;&gt;Node3</title>
<path fill="none" stroke="#9a32cd" stroke-dasharray="5,2" d="M119.4195,-205.8696C115.754,-196.5868 110.4747,-185.5498 103.6157,-177 97.8083,-169.761 89.7059,-163.3527 82.6581,-158.5473"/>
<polygon fill="#9a32cd" stroke="#9a32cd" points="116.169,-207.1727 122.8706,-215.3787 122.7491,-204.7846 116.169,-207.1727"/>
<text text-anchor="middle" x="126.7314" y="-189" font-family="Helvetica,sans-Serif" font-size="10.00" fill="#000000"> third</text>
<text text-anchor="middle" x="126.7314" y="-179" font-family="Helvetica,sans-Serif" font-size="10.00" fill="#000000">C</text>
</g>
<!-- Node7 -->
<g id="node7" class="node">
<title>Node7</title>
<g id="a_node7"><a xlink:title="STL class. ">
<polygon fill="#ffffff" stroke="#bfbfbf" points="144.5034,-140.5 144.5034,-158.5 210.728,-158.5 210.728,-140.5 144.5034,-140.5"/>
<text text-anchor="middle" x="177.6157" y="-146.5" font-family="Helvetica,sans-Serif" font-size="10.00" fill="#000000">vector&lt; T &gt;</text>
</a>
</g>
</g>
<!-- Node7&#45;&gt;Node2 -->
<g id="edge6" class="edge">
<title>Node7&#45;&gt;Node2</title>
<path fill="none" stroke="#ffa500" stroke-dasharray="5,2" d="M163.3759,-132.6711C152.9258,-120.321 139.1171,-104.0016 130.5545,-93.8821"/>
<polygon fill="#ffa500" stroke="#ffa500" points="160.8369,-135.089 169.9682,-140.462 166.1806,-130.5673 160.8369,-135.089"/>
<text text-anchor="middle" x="183.4653" y="-114" font-family="Helvetica,sans-Serif" font-size="10.00" fill="#000000"> &lt; innerIters &gt;</text>
</g>
<!-- Node8 -->
<g id="node8" class="node">
<title>Node8</title>
<polygon fill="#ffffff" stroke="#bfbfbf" points="163.1157,-215.5 163.1157,-233.5 192.1157,-233.5 192.1157,-215.5 163.1157,-215.5"/>
<text text-anchor="middle" x="177.1699" y="-221.5" font-family="Helvetica,sans-Serif" font-size="10.00" fill="#000000">T</text>
</g>
<!-- Node8&#45;&gt;Node7 -->
<g id="edge7" class="edge">
<title>Node8&#45;&gt;Node7</title>
<path fill="none" stroke="#9a32cd" stroke-dasharray="5,2" d="M177.6157,-205.1079C177.6157,-190.2042 177.6157,-170.2791 177.6157,-158.7717"/>
<polygon fill="#9a32cd" stroke="#9a32cd" points="174.1158,-205.3035 177.6157,-215.3035 181.1158,-205.3036 174.1158,-205.3035"/>
<text text-anchor="middle" x="199.293" y="-184" font-family="Helvetica,sans-Serif" font-size="10.00" fill="#000000"> elements</text>
</g>
</g>
</svg>
