<?xml version="1.0" encoding="UTF-8" standalone="no"?>
<!DOCTYPE svg PUBLIC "-//W3C//DTD SVG 1.1//EN"
 "http://www.w3.org/Graphics/SVG/1.1/DTD/svg11.dtd">
<!-- Generated by graphviz version 2.40.1 (20161225.0304)
 -->
<!-- Title: MGVertex::MGVertexData Pages: 1 -->
<svg width="201pt" height="243pt"
 viewBox="0.00 0.00 200.58 243.00" xmlns="http://www.w3.org/2000/svg" xmlns:xlink="http://www.w3.org/1999/xlink">
<g id="graph0" class="graph" transform="scale(1 1) rotate(0) translate(4 239)">
<title>MGVertex::MGVertexData</title>
<polygon fill="#ffffff" stroke="transparent" points="-4,4 -4,-239 196.582,-239 196.582,4 -4,4"/>
<!-- Node1 -->
<g id="node1" class="node">
<title>Node1</title>
<polygon fill="#bfbfbf" stroke="#000000" points="60.9766,-.5 60.9766,-18.5 192.582,-18.5 192.582,-.5 60.9766,-.5"/>
<text text-anchor="middle" x="126.7793" y="-6.5" font-family="Helvetica,sans-Serif" font-size="10.00" fill="#000000">MGVertex::MGVertexData</text>
</g>
<!-- Node2 -->
<g id="node2" class="node">
<title>Node2</title>
<g id="a_node2"><a xlink:href="classindigox_1_1graph_1_1_molecular_graph.html" target="_top" xlink:title="Class containing a graph representation of a molecule. ">
<polygon fill="#ffffff" stroke="#000000" points="28.208,-65.5 28.208,-83.5 115.3506,-83.5 115.3506,-65.5 28.208,-65.5"/>
<text text-anchor="middle" x="71.7793" y="-71.5" font-family="Helvetica,sans-Serif" font-size="10.00" fill="#000000">MolecularGraph</text>
</a>
</g>
</g>
<!-- Node2&#45;&gt;Node1 -->
<g id="edge1" class="edge">
<title>Node2&#45;&gt;Node1</title>
<path fill="none" stroke="#9a32cd" stroke-dasharray="5,2" d="M86.0192,-57.6711C96.4693,-45.321 110.2779,-29.0016 118.8406,-18.8821"/>
<polygon fill="#9a32cd" stroke="#9a32cd" points="83.2144,-55.5673 79.4268,-65.462 88.5581,-60.089 83.2144,-55.5673"/>
<text text-anchor="middle" x="115.9565" y="-39" font-family="Helvetica,sans-Serif" font-size="10.00" fill="#000000"> graph</text>
</g>
<!-- Node3 -->
<g id="node3" class="node">
<title>Node3</title>
<g id="a_node3"><a xlink:href="classindigox_1_1graph_1_1_base_graph.html" target="_top" xlink:title="BaseGraph\&lt; MGVertex,\l MGEdge, MolecularGraph \&gt;">
<polygon fill="#ffffff" stroke="#000000" points="0,-121.5 0,-149.5 143.5586,-149.5 143.5586,-121.5 0,-121.5"/>
<text text-anchor="start" x="8" y="-137.5" font-family="Helvetica,sans-Serif" font-size="10.00" fill="#000000">BaseGraph&lt; MGVertex,</text>
<text text-anchor="middle" x="71.7793" y="-127.5" font-family="Helvetica,sans-Serif" font-size="10.00" fill="#000000"> MGEdge, MolecularGraph &gt;</text>
</a>
</g>
</g>
<!-- Node3&#45;&gt;Node2 -->
<g id="edge2" class="edge">
<title>Node3&#45;&gt;Node2</title>
<path fill="none" stroke="#191970" d="M71.7793,-111.1001C71.7793,-101.5157 71.7793,-91.0935 71.7793,-83.831"/>
<polygon fill="#191970" stroke="#191970" points="68.2794,-111.352 71.7793,-121.3521 75.2794,-111.3521 68.2794,-111.352"/>
</g>
<!-- Node4 -->
<g id="node4" class="node">
<title>Node4</title>
<g id="a_node4"><a xlink:href="classindigox_1_1graph_1_1_base_graph.html" target="_top" xlink:title="Template base class for all graphs used in the indigoX library. ">
<polygon fill="#ffffff" stroke="#000000" points="17.6855,-206.5 17.6855,-234.5 125.873,-234.5 125.873,-206.5 17.6855,-206.5"/>
<text text-anchor="start" x="25.6855" y="-222.5" font-family="Helvetica,sans-Serif" font-size="10.00" fill="#000000">BaseGraph&lt; V, E, S,</text>
<text text-anchor="middle" x="71.7793" y="-212.5" font-family="Helvetica,sans-Serif" font-size="10.00" fill="#000000"> D, VP, EP &gt;</text>
</a>
</g>
</g>
<!-- Node4&#45;&gt;Node3 -->
<g id="edge3" class="edge">
<title>Node4&#45;&gt;Node3</title>
<path fill="none" stroke="#ffa500" stroke-dasharray="5,2" d="M71.7793,-196.2752C71.7793,-181.1607 71.7793,-162.2369 71.7793,-149.5569"/>
<polygon fill="#ffa500" stroke="#ffa500" points="68.2794,-196.4639 71.7793,-206.464 75.2794,-196.464 68.2794,-196.4639"/>
<text text-anchor="start" x="71.7793" y="-180" font-family="Helvetica,sans-Serif" font-size="10.00" fill="#000000"> &lt; MGVertex, MGEdge,</text>
<text text-anchor="middle" x="123.6079" y="-170" font-family="Helvetica,sans-Serif" font-size="10.00" fill="#000000"> MolecularGraph &gt;</text>
</g>
<!-- Node5 -->
<g id="node5" class="node">
<title>Node5</title>
<g id="a_node5"><a xlink:href="classindigox_1_1_atom.html" target="_top" xlink:title="Atom">
<polygon fill="#ffffff" stroke="#000000" points="133.1094,-65.5 133.1094,-83.5 172.4492,-83.5 172.4492,-65.5 133.1094,-65.5"/>
<text text-anchor="middle" x="152.7793" y="-71.5" font-family="Helvetica,sans-Serif" font-size="10.00" fill="#000000">Atom</text>
</a>
</g>
</g>
<!-- Node5&#45;&gt;Node1 -->
<g id="edge4" class="edge">
<title>Node5&#45;&gt;Node1</title>
<path fill="none" stroke="#9a32cd" stroke-dasharray="5,2" d="M145.3247,-55.8634C140.4857,-43.7661 134.3853,-28.5151 130.5322,-18.8821"/>
<polygon fill="#9a32cd" stroke="#9a32cd" points="142.2005,-57.4771 149.1641,-65.462 148.6998,-54.8774 142.2005,-57.4771"/>
<text text-anchor="middle" x="153.2842" y="-39" font-family="Helvetica,sans-Serif" font-size="10.00" fill="#000000"> atom</text>
</g>
</g>
</svg>
