<?xml version="1.0" encoding="UTF-8" standalone="no"?>
<!DOCTYPE svg PUBLIC "-//W3C//DTD SVG 1.1//EN"
 "http://www.w3.org/Graphics/SVG/1.1/DTD/svg11.dtd">
<!-- Generated by graphviz version 2.40.1 (20161225.0304)
 -->
<!-- Title: TDVertProp Pages: 1 -->
<svg width="130pt" height="222pt"
 viewBox="0.00 0.00 129.67 222.00" xmlns="http://www.w3.org/2000/svg" xmlns:xlink="http://www.w3.org/1999/xlink">
<g id="graph0" class="graph" transform="scale(1 1) rotate(0) translate(4 218)">
<title>TDVertProp</title>
<polygon fill="#ffffff" stroke="transparent" points="-4,4 -4,-218 125.6719,-218 125.6719,4 -4,4"/>
<!-- Node1 -->
<g id="node1" class="node">
<title>Node1</title>
<g id="a_node1"><a xlink:title=" ">
<polygon fill="#bfbfbf" stroke="#000000" points="15.2881,-.5 15.2881,-18.5 83.5342,-18.5 83.5342,-.5 15.2881,-.5"/>
<text text-anchor="middle" x="49.4111" y="-6.5" font-family="Helvetica,sans-Serif" font-size="10.00" fill="#000000">TDVertProp</text>
</a>
</g>
</g>
<!-- Node2 -->
<g id="node2" class="node">
<title>Node2</title>
<g id="a_node2"><a xlink:title=" ">
<polygon fill="#ffffff" stroke="#bfbfbf" points="0,-65.5 0,-83.5 98.8223,-83.5 98.8223,-65.5 0,-65.5"/>
<text text-anchor="middle" x="49.4111" y="-71.5" font-family="Helvetica,sans-Serif" font-size="10.00" fill="#000000">set&lt; PermVertex &gt;</text>
</a>
</g>
</g>
<!-- Node2&#45;&gt;Node1 -->
<g id="edge1" class="edge">
<title>Node2&#45;&gt;Node1</title>
<path fill="none" stroke="#9a32cd" stroke-dasharray="5,2" d="M49.4111,-55.1265C49.4111,-43.1522 49.4111,-28.3205 49.4111,-18.8821"/>
<polygon fill="#9a32cd" stroke="#9a32cd" points="45.9112,-55.462 49.4111,-65.462 52.9112,-55.4621 45.9112,-55.462"/>
<text text-anchor="middle" x="59.1426" y="-39" font-family="Helvetica,sans-Serif" font-size="10.00" fill="#000000"> bag</text>
</g>
<!-- Node3 -->
<g id="node3" class="node">
<title>Node3</title>
<g id="a_node3"><a xlink:title="STL class.">
<polygon fill="#ffffff" stroke="#bfbfbf" points="22.7881,-130.5 22.7881,-148.5 76.0342,-148.5 76.0342,-130.5 22.7881,-130.5"/>
<text text-anchor="middle" x="49.4111" y="-136.5" font-family="Helvetica,sans-Serif" font-size="10.00" fill="#000000">set&lt; K &gt;</text>
</a>
</g>
</g>
<!-- Node3&#45;&gt;Node2 -->
<g id="edge2" class="edge">
<title>Node3&#45;&gt;Node2</title>
<path fill="none" stroke="#ffa500" stroke-dasharray="5,2" d="M49.4111,-120.1265C49.4111,-108.1522 49.4111,-93.3205 49.4111,-83.8821"/>
<polygon fill="#ffa500" stroke="#ffa500" points="45.9112,-120.462 49.4111,-130.462 52.9112,-120.4621 45.9112,-120.462"/>
<text text-anchor="middle" x="85.5415" y="-104" font-family="Helvetica,sans-Serif" font-size="10.00" fill="#000000"> &lt; PermVertex &gt;</text>
</g>
<!-- Node4 -->
<g id="node4" class="node">
<title>Node4</title>
<g id="a_node4"><a xlink:title=" ">
<polygon fill="#ffffff" stroke="#bfbfbf" points="34.9111,-195.5 34.9111,-213.5 63.9111,-213.5 63.9111,-195.5 34.9111,-195.5"/>
<text text-anchor="middle" x="49.2461" y="-201.5" font-family="Helvetica,sans-Serif" font-size="10.00" fill="#000000">K</text>
</a>
</g>
</g>
<!-- Node4&#45;&gt;Node3 -->
<g id="edge3" class="edge">
<title>Node4&#45;&gt;Node3</title>
<path fill="none" stroke="#9a32cd" stroke-dasharray="5,2" d="M49.4111,-185.1265C49.4111,-173.1522 49.4111,-158.3205 49.4111,-148.8821"/>
<polygon fill="#9a32cd" stroke="#9a32cd" points="45.9112,-185.462 49.4111,-195.462 52.9112,-185.4621 45.9112,-185.462"/>
<text text-anchor="middle" x="61.0811" y="-169" font-family="Helvetica,sans-Serif" font-size="10.00" fill="#000000"> keys</text>
</g>
</g>
</svg>
