<?xml version="1.0" encoding="UTF-8" standalone="no"?>
<!DOCTYPE svg PUBLIC "-//W3C//DTD SVG 1.1//EN"
 "http://www.w3.org/Graphics/SVG/1.1/DTD/svg11.dtd">
<!-- Generated by graphviz version 2.40.1 (20161225.0304)
 -->
<!-- Title: IXElectronAssigner::Settings Pages: 1 -->
<svg width="114pt" height="158pt"
 viewBox="0.00 0.00 114.05 158.00" xmlns="http://www.w3.org/2000/svg" xmlns:xlink="http://www.w3.org/1999/xlink">
<g id="graph0" class="graph" transform="scale(1 1) rotate(0) translate(4 154)">
<title>IXElectronAssigner::Settings</title>
<polygon fill="#ffffff" stroke="transparent" points="-4,4 -4,-154 110.0488,-154 110.0488,4 -4,4"/>
<!-- Node1 -->
<g id="node1" class="node">
<title>Node1</title>
<polygon fill="#bfbfbf" stroke="#000000" points="2.5049,-.5 2.5049,-28.5 103.5439,-28.5 103.5439,-.5 2.5049,-.5"/>
<text text-anchor="start" x="10.5049" y="-16.5" font-family="Helvetica,sans-Serif" font-size="10.00" fill="#000000">IXElectronAssigner</text>
<text text-anchor="middle" x="53.0244" y="-6.5" font-family="Helvetica,sans-Serif" font-size="10.00" fill="#000000">::Settings</text>
</g>
<!-- Node2 -->
<g id="node2" class="node">
<title>Node2</title>
<g id="a_node2"><a xlink:title="STL class. ">
<polygon fill="#ffffff" stroke="#bfbfbf" points="32.7979,-75.5 32.7979,-93.5 73.251,-93.5 73.251,-75.5 32.7979,-75.5"/>
<text text-anchor="middle" x="53.0244" y="-81.5" font-family="Helvetica,sans-Serif" font-size="10.00" fill="#000000">string</text>
</a>
</g>
</g>
<!-- Node2&#45;&gt;Node1 -->
<g id="edge1" class="edge">
<title>Node2&#45;&gt;Node1</title>
<path fill="none" stroke="#9a32cd" stroke-dasharray="5,2" d="M53.0244,-65.0243C53.0244,-53.5169 53.0244,-39.2016 53.0244,-28.7499"/>
<polygon fill="#9a32cd" stroke="#9a32cd" points="49.5245,-65.3487 53.0244,-75.3487 56.5245,-65.3488 49.5245,-65.3487"/>
<text text-anchor="middle" x="75.5317" y="-49" font-family="Helvetica,sans-Serif" font-size="10.00" fill="#000000"> ScoreFile</text>
</g>
<!-- Node3 -->
<g id="node3" class="node">
<title>Node3</title>
<g id="a_node3"><a xlink:title="STL class. ">
<polygon fill="#ffffff" stroke="#bfbfbf" points="0,-131.5 0,-149.5 106.0488,-149.5 106.0488,-131.5 0,-131.5"/>
<text text-anchor="middle" x="53.0244" y="-137.5" font-family="Helvetica,sans-Serif" font-size="10.00" fill="#000000">basic_string&lt; char &gt;</text>
</a>
</g>
</g>
<!-- Node3&#45;&gt;Node2 -->
<g id="edge2" class="edge">
<title>Node3&#45;&gt;Node2</title>
<path fill="none" stroke="#191970" d="M53.0244,-121.2065C53.0244,-111.8384 53.0244,-101.0262 53.0244,-93.5752"/>
<polygon fill="#191970" stroke="#191970" points="49.5245,-121.2527 53.0244,-131.2527 56.5245,-121.2528 49.5245,-121.2527"/>
</g>
</g>
</svg>
