<?xml version="1.0" encoding="UTF-8" standalone="no"?>
<!DOCTYPE svg PUBLIC "-//W3C//DTD SVG 1.1//EN"
 "http://www.w3.org/Graphics/SVG/1.1/DTD/svg11.dtd">
<!-- Generated by graphviz version 2.40.1 (20161225.0304)
 -->
<!-- Title: TDVertScore Pages: 1 -->
<svg width="1489pt" height="312pt"
 viewBox="0.00 0.00 1489.23 311.72" xmlns="http://www.w3.org/2000/svg" xmlns:xlink="http://www.w3.org/1999/xlink">
<g id="graph0" class="graph" transform="scale(1 1) rotate(0) translate(4 307.7157)">
<title>TDVertScore</title>
<polygon fill="#ffffff" stroke="transparent" points="-4,4 -4,-307.7157 1485.2285,-307.7157 1485.2285,4 -4,4"/>
<!-- Node1 -->
<g id="node1" class="node">
<title>Node1</title>
<polygon fill="#bfbfbf" stroke="#000000" points="1407.9824,-213.2157 1407.9824,-231.2157 1481.2285,-231.2157 1481.2285,-213.2157 1407.9824,-213.2157"/>
<text text-anchor="middle" x="1444.6055" y="-219.2157" font-family="Helvetica,sans-Serif" font-size="10.00" fill="#000000">TDVertScore</text>
</g>
<!-- Node2 -->
<g id="node2" class="node">
<title>Node2</title>
<polygon fill="#ffffff" stroke="#bfbfbf" points="658.9438,-213.2157 658.9438,-231.2157 801.6919,-231.2157 801.6919,-213.2157 658.9438,-213.2157"/>
<text text-anchor="middle" x="730.3179" y="-219.2157" font-family="Helvetica,sans-Serif" font-size="10.00" fill="#000000">map&lt; uint32_t, BagScores &gt;</text>
</g>
<!-- Node2&#45;&gt;Node1 -->
<g id="edge1" class="edge">
<title>Node2&#45;&gt;Node1</title>
<path fill="none" stroke="#9a32cd" stroke-dasharray="5,2" d="M812.1412,-222.2157C967.0341,-222.2157 1297.4552,-222.2157 1407.838,-222.2157"/>
<polygon fill="#9a32cd" stroke="#9a32cd" points="811.7471,-218.7158 801.7471,-222.2157 811.7471,-225.7158 811.7471,-218.7158"/>
<text text-anchor="middle" x="1197.2744" y="-224.2157" font-family="Helvetica,sans-Serif" font-size="10.00" fill="#000000"> score</text>
</g>
<!-- Node3 -->
<g id="node3" class="node">
<title>Node3</title>
<g id="a_node3"><a xlink:title="STL class. ">
<polygon fill="#ffffff" stroke="#bfbfbf" points="402.127,-196.2157 402.127,-214.2157 472.7998,-214.2157 472.7998,-196.2157 402.127,-196.2157"/>
<text text-anchor="middle" x="437.4634" y="-202.2157" font-family="Helvetica,sans-Serif" font-size="10.00" fill="#000000">map&lt; K, T &gt;</text>
</a>
</g>
</g>
<!-- Node3&#45;&gt;Node2 -->
<g id="edge2" class="edge">
<title>Node3&#45;&gt;Node2</title>
<path fill="none" stroke="#9a32cd" stroke-dasharray="5,2" d="M483.151,-203.3329C523.4987,-202.1734 583.8817,-201.6651 636.2197,-206.2157 652.5633,-207.6367 670.3387,-210.3515 685.9942,-213.1468"/>
<polygon fill="#9a32cd" stroke="#9a32cd" points="482.9739,-199.8366 473.0883,-203.6476 483.1928,-206.8332 482.9739,-199.8366"/>
<text text-anchor="middle" x="576.459" y="-208.2157" font-family="Helvetica,sans-Serif" font-size="10.00" fill="#000000"> elements</text>
</g>
<!-- Node3&#45;&gt;Node2 -->
<g id="edge5" class="edge">
<title>Node3&#45;&gt;Node2</title>
<path fill="none" stroke="#ffa500" stroke-dasharray="5,2" d="M482.7774,-212.3794C493.8477,-213.888 505.678,-215.2987 516.6982,-216.2157 563.8396,-220.138 617.0122,-221.6417 658.515,-222.1629"/>
<polygon fill="#ffa500" stroke="#ffa500" points="483.2612,-208.9131 472.8695,-210.9778 482.2807,-215.8441 483.2612,-208.9131"/>
<text text-anchor="middle" x="576.459" y="-223.2157" font-family="Helvetica,sans-Serif" font-size="10.00" fill="#000000"> &lt; uint32_t, BagScores &gt;</text>
</g>
<!-- Node13 -->
<g id="node13" class="node">
<title>Node13</title>
<polygon fill="#ffffff" stroke="#bfbfbf" points="654.2197,-255.2157 654.2197,-273.2157 806.416,-273.2157 806.416,-255.2157 654.2197,-255.2157"/>
<text text-anchor="middle" x="730.3179" y="-261.2157" font-family="Helvetica,sans-Serif" font-size="10.00" fill="#000000">map&lt; MolVertPair, ElnVertex &gt;</text>
</g>
<!-- Node3&#45;&gt;Node13 -->
<g id="edge17" class="edge">
<title>Node3&#45;&gt;Node13</title>
<path fill="none" stroke="#ffa500" stroke-dasharray="5,2" d="M467.1176,-218.278C481.7833,-224.2619 499.9012,-230.9547 516.6982,-235.2157 561.5014,-246.5812 612.7924,-253.7299 653.8844,-258.0854"/>
<polygon fill="#ffa500" stroke="#ffa500" points="468.1509,-214.9164 457.5747,-214.2871 465.4501,-221.3744 468.1509,-214.9164"/>
<text text-anchor="middle" x="576.459" y="-257.2157" font-family="Helvetica,sans-Serif" font-size="10.00" fill="#000000"> &lt; MolVertPair, ElnVertex &gt;</text>
</g>
<!-- Node15 -->
<g id="node15" class="node">
<title>Node15</title>
<polygon fill="#ffffff" stroke="#bfbfbf" points="824.416,-166.2157 824.416,-184.2157 975.4893,-184.2157 975.4893,-166.2157 824.416,-166.2157"/>
<text text-anchor="middle" x="899.9526" y="-172.2157" font-family="Helvetica,sans-Serif" font-size="10.00" fill="#000000">map&lt; MolVertPair, VertMask &gt;</text>
</g>
<!-- Node3&#45;&gt;Node15 -->
<g id="edge21" class="edge">
<title>Node3&#45;&gt;Node15</title>
<path fill="none" stroke="#ffa500" stroke-dasharray="5,2" d="M482.9573,-194.0107C493.9406,-191.707 505.6867,-189.5728 516.6982,-188.2157 622.9147,-175.1249 746.8538,-173.3485 824.3777,-173.8388"/>
<polygon fill="#ffa500" stroke="#ffa500" points="482.1514,-190.6041 473.1281,-196.1565 483.6445,-197.443 482.1514,-190.6041"/>
<text text-anchor="middle" x="576.459" y="-190.2157" font-family="Helvetica,sans-Serif" font-size="10.00" fill="#000000"> &lt; MolVertPair, VertMask &gt;</text>
</g>
<!-- Node16 -->
<g id="node16" class="node">
<title>Node16</title>
<polygon fill="#ffffff" stroke="#bfbfbf" points="997.376,-99.2157 997.376,-137.2157 1140.0996,-137.2157 1140.0996,-99.2157 997.376,-99.2157"/>
<text text-anchor="start" x="1005.376" y="-125.2157" font-family="Helvetica,sans-Serif" font-size="10.00" fill="#000000">map&lt; NTDVertex, std</text>
<text text-anchor="start" x="1005.376" y="-115.2157" font-family="Helvetica,sans-Serif" font-size="10.00" fill="#000000">::shared_ptr&lt; indigox</text>
<text text-anchor="middle" x="1068.7378" y="-105.2157" font-family="Helvetica,sans-Serif" font-size="10.00" fill="#000000">::algorithm::TDVertScore &gt; &gt;</text>
</g>
<!-- Node3&#45;&gt;Node16 -->
<g id="edge23" class="edge">
<title>Node3&#45;&gt;Node16</title>
<path fill="none" stroke="#ffa500" stroke-dasharray="5,2" d="M467.9292,-192.2767C482.5303,-186.3392 500.3594,-179.4688 516.6982,-174.2157 576.7404,-154.9114 591.858,-148.6354 654.2197,-139.2157 773.5618,-121.1891 914.1906,-117.7618 997.1596,-117.5465"/>
<polygon fill="#ffa500" stroke="#ffa500" points="466.3059,-189.1601 458.3944,-196.2069 468.9736,-195.6318 466.3059,-189.1601"/>
<text text-anchor="start" x="672.6519" y="-161.2157" font-family="Helvetica,sans-Serif" font-size="10.00" fill="#000000"> &lt; NTDVertex, std::shared</text>
<text text-anchor="start" x="672.6519" y="-151.2157" font-family="Helvetica,sans-Serif" font-size="10.00" fill="#000000">_ptr&lt; indigox::algorithm</text>
<text text-anchor="middle" x="730.3179" y="-141.2157" font-family="Helvetica,sans-Serif" font-size="10.00" fill="#000000">::TDVertScore &gt; &gt;</text>
</g>
<!-- Node4 -->
<g id="node4" class="node">
<title>Node4</title>
<polygon fill="#ffffff" stroke="#bfbfbf" points="0,-185.2157 0,-203.2157 29,-203.2157 29,-185.2157 0,-185.2157"/>
<text text-anchor="middle" x="14.5" y="-191.2157" font-family="Helvetica,sans-Serif" font-size="10.00" fill="#000000">K</text>
</g>
<!-- Node4&#45;&gt;Node3 -->
<g id="edge3" class="edge">
<title>Node4&#45;&gt;Node3</title>
<path fill="none" stroke="#9a32cd" stroke-dasharray="5,2" d="M38.7559,-203.2328C41.508,-204.0138 44.2954,-204.7011 47,-205.2157 182.9563,-231.0827 220.1059,-223.8973 358.2285,-215.2157 372.6199,-214.3111 388.3951,-212.4911 402.0547,-210.6488"/>
<polygon fill="#9a32cd" stroke="#9a32cd" points="39.7447,-199.8743 29.1531,-200.1355 37.5959,-206.5363 39.7447,-199.8743"/>
<text text-anchor="middle" x="169.2671" y="-224.2157" font-family="Helvetica,sans-Serif" font-size="10.00" fill="#000000"> keys</text>
</g>
<!-- Node10 -->
<g id="node10" class="node">
<title>Node10</title>
<g id="a_node10"><a xlink:title="STL class. ">
<polygon fill="#ffffff" stroke="#bfbfbf" points="108.3545,-124.2157 108.3545,-142.2157 230.1797,-142.2157 230.1797,-124.2157 108.3545,-124.2157"/>
<text text-anchor="middle" x="169.2671" y="-130.2157" font-family="Helvetica,sans-Serif" font-size="10.00" fill="#000000">unordered_map&lt; K, T &gt;</text>
</a>
</g>
</g>
<!-- Node4&#45;&gt;Node10 -->
<g id="edge11" class="edge">
<title>Node4&#45;&gt;Node10</title>
<path fill="none" stroke="#9a32cd" stroke-dasharray="5,2" d="M36.4271,-179.7977C39.894,-177.7901 43.4932,-175.8563 47,-174.2157 75.8975,-160.6959 110.5082,-149.5236 135.518,-142.2745"/>
<polygon fill="#9a32cd" stroke="#9a32cd" points="34.4141,-176.9263 27.7141,-185.1336 38.0699,-182.8958 34.4141,-176.9263"/>
<text text-anchor="middle" x="68.6772" y="-176.2157" font-family="Helvetica,sans-Serif" font-size="10.00" fill="#000000"> keys</text>
</g>
<!-- Node19 -->
<g id="node19" class="node">
<title>Node19</title>
<g id="a_node19"><a xlink:title="STL class. ">
<polygon fill="#ffffff" stroke="#bfbfbf" points="142.644,-174.2157 142.644,-192.2157 195.8901,-192.2157 195.8901,-174.2157 142.644,-174.2157"/>
<text text-anchor="middle" x="169.2671" y="-180.2157" font-family="Helvetica,sans-Serif" font-size="10.00" fill="#000000">set&lt; K &gt;</text>
</a>
</g>
</g>
<!-- Node4&#45;&gt;Node19 -->
<g id="edge28" class="edge">
<title>Node4&#45;&gt;Node19</title>
<path fill="none" stroke="#9a32cd" stroke-dasharray="5,2" d="M39.2871,-192.4539C67.527,-190.4468 113.5086,-187.1787 142.5343,-185.1157"/>
<polygon fill="#9a32cd" stroke="#9a32cd" points="38.7868,-188.9806 29.0601,-193.1808 39.2831,-195.963 38.7868,-188.9806"/>
<text text-anchor="middle" x="68.6772" y="-193.2157" font-family="Helvetica,sans-Serif" font-size="10.00" fill="#000000"> keys</text>
</g>
<!-- Node5 -->
<g id="node5" class="node">
<title>Node5</title>
<polygon fill="#ffffff" stroke="#bfbfbf" points="0,-86.2157 0,-104.2157 29,-104.2157 29,-86.2157 0,-86.2157"/>
<text text-anchor="middle" x="14.5" y="-92.2157" font-family="Helvetica,sans-Serif" font-size="10.00" fill="#000000">T</text>
</g>
<!-- Node5&#45;&gt;Node3 -->
<g id="edge4" class="edge">
<title>Node5&#45;&gt;Node3</title>
<path fill="none" stroke="#9a32cd" stroke-dasharray="5,2" d="M38.9326,-89.9795C97.9225,-78.6675 251.1584,-57.3173 358.2285,-114.2157 369.691,-120.307 367.8804,-127.2757 376.2285,-137.2157 394.4151,-158.8703 416.9156,-183.2867 428.9384,-196.1551"/>
<polygon fill="#9a32cd" stroke="#9a32cd" points="38.1679,-86.563 29.047,-91.9537 39.5389,-93.4274 38.1679,-86.563"/>
<text text-anchor="middle" x="169.2671" y="-81.2157" font-family="Helvetica,sans-Serif" font-size="10.00" fill="#000000"> elements</text>
</g>
<!-- Node5&#45;&gt;Node10 -->
<g id="edge12" class="edge">
<title>Node5&#45;&gt;Node10</title>
<path fill="none" stroke="#9a32cd" stroke-dasharray="5,2" d="M38.8618,-103.7802C41.5942,-104.6455 44.348,-105.4764 47,-106.2157 71.8139,-113.1326 99.8535,-119.4311 122.8156,-124.2018"/>
<polygon fill="#9a32cd" stroke="#9a32cd" points="39.8726,-100.428 29.2791,-100.5972 37.666,-107.0711 39.8726,-100.428"/>
<text text-anchor="middle" x="68.6772" y="-118.2157" font-family="Helvetica,sans-Serif" font-size="10.00" fill="#000000"> elements</text>
</g>
<!-- Node12 -->
<g id="node12" class="node">
<title>Node12</title>
<g id="a_node12"><a xlink:title="STL class. ">
<polygon fill="#ffffff" stroke="#bfbfbf" points="136.1548,-40.2157 136.1548,-58.2157 202.3794,-58.2157 202.3794,-40.2157 136.1548,-40.2157"/>
<text text-anchor="middle" x="169.2671" y="-46.2157" font-family="Helvetica,sans-Serif" font-size="10.00" fill="#000000">vector&lt; T &gt;</text>
</a>
</g>
</g>
<!-- Node5&#45;&gt;Node12 -->
<g id="edge15" class="edge">
<title>Node5&#45;&gt;Node12</title>
<path fill="none" stroke="#9a32cd" stroke-dasharray="5,2" d="M32.2902,-79.835C36.8408,-76.5521 41.8975,-73.4155 47,-71.2157 75.52,-58.9198 110.6411,-53.4959 135.9131,-51.1034"/>
<polygon fill="#9a32cd" stroke="#9a32cd" points="29.9883,-77.1923 24.2839,-86.1204 34.3109,-82.6983 29.9883,-77.1923"/>
<text text-anchor="middle" x="68.6772" y="-73.2157" font-family="Helvetica,sans-Serif" font-size="10.00" fill="#000000"> elements</text>
</g>
<!-- Node6 -->
<g id="node6" class="node">
<title>Node6</title>
<g id="a_node6"><a xlink:href="classindigox_1_1algorithm_1_1_f_p_t_optimisation.html" target="_top" xlink:title="FPTOptimisation">
<polygon fill="#ffffff" stroke="#000000" points="1250.5625,-109.2157 1250.5625,-127.2157 1340.8496,-127.2157 1340.8496,-109.2157 1250.5625,-109.2157"/>
<text text-anchor="middle" x="1295.7061" y="-115.2157" font-family="Helvetica,sans-Serif" font-size="10.00" fill="#000000">FPTOptimisation</text>
</a>
</g>
</g>
<!-- Node6&#45;&gt;Node1 -->
<g id="edge6" class="edge">
<title>Node6&#45;&gt;Node1</title>
<path fill="none" stroke="#9a32cd" stroke-dasharray="5,2" d="M1317.123,-133.1745C1348.4647,-155.0653 1405.883,-195.1696 1431.576,-213.1151"/>
<polygon fill="#9a32cd" stroke="#9a32cd" points="1318.8619,-130.1198 1308.6594,-127.2631 1314.8535,-135.8586 1318.8619,-130.1198"/>
<text text-anchor="middle" x="1374.416" y="-184.2157" font-family="Helvetica,sans-Serif" font-size="10.00" fill="#000000"> parent</text>
</g>
<!-- Node7 -->
<g id="node7" class="node">
<title>Node7</title>
<g id="a_node7"><a xlink:href="classindigox_1_1algorithm_1_1_electron_optimisation_algorithm.html" target="_top" xlink:title="ElectronOptimisationAlgorithm">
<polygon fill="#ffffff" stroke="#000000" points="993.4893,-62.2157 993.4893,-80.2157 1143.9863,-80.2157 1143.9863,-62.2157 993.4893,-62.2157"/>
<text text-anchor="middle" x="1068.7378" y="-68.2157" font-family="Helvetica,sans-Serif" font-size="10.00" fill="#000000">ElectronOptimisationAlgorithm</text>
</a>
</g>
</g>
<!-- Node7&#45;&gt;Node6 -->
<g id="edge7" class="edge">
<title>Node7&#45;&gt;Node6</title>
<path fill="none" stroke="#191970" d="M1122.2283,-82.2924C1161.7734,-90.4812 1214.9595,-101.4949 1251.9737,-109.1597"/>
<polygon fill="#191970" stroke="#191970" points="1122.733,-78.8227 1112.231,-80.2221 1121.3135,-85.6773 1122.733,-78.8227"/>
</g>
<!-- Node8 -->
<g id="node8" class="node">
<title>Node8</title>
<g id="a_node8"><a xlink:href="classindigox_1_1_electron_opt.html" target="_top" xlink:title="ElectronOpt">
<polygon fill="#ffffff" stroke="#000000" points="695.9165,-16.2157 695.9165,-34.2157 764.7192,-34.2157 764.7192,-16.2157 695.9165,-16.2157"/>
<text text-anchor="middle" x="730.3179" y="-22.2157" font-family="Helvetica,sans-Serif" font-size="10.00" fill="#000000">ElectronOpt</text>
</a>
</g>
</g>
<!-- Node8&#45;&gt;Node7 -->
<g id="edge8" class="edge">
<title>Node8&#45;&gt;Node7</title>
<path fill="none" stroke="#9a32cd" stroke-dasharray="5,2" d="M775.0884,-27.0484C824.4566,-29.5757 906.0935,-35.2533 975.4893,-47.2157 996.905,-50.9073 1020.6167,-57.0386 1038.77,-62.1798"/>
<polygon fill="#9a32cd" stroke="#9a32cd" points="775.2193,-23.5507 765.0596,-26.5558 774.8758,-30.5423 775.2193,-23.5507"/>
<text text-anchor="middle" x="899.9526" y="-49.2157" font-family="Helvetica,sans-Serif" font-size="10.00" fill="#000000"> parent_</text>
</g>
<!-- Node9 -->
<g id="node9" class="node">
<title>Node9</title>
<polygon fill="#ffffff" stroke="#bfbfbf" points="376.2285,-99.2157 376.2285,-127.2157 498.6982,-127.2157 498.6982,-99.2157 376.2285,-99.2157"/>
<text text-anchor="start" x="384.2285" y="-115.2157" font-family="Helvetica,sans-Serif" font-size="10.00" fill="#000000">unordered_map&lt; uint32</text>
<text text-anchor="middle" x="437.4634" y="-105.2157" font-family="Helvetica,sans-Serif" font-size="10.00" fill="#000000">_t, FCSCORE &gt;</text>
</g>
<!-- Node9&#45;&gt;Node8 -->
<g id="edge9" class="edge">
<title>Node9&#45;&gt;Node8</title>
<path fill="none" stroke="#9a32cd" stroke-dasharray="5,2" d="M501.4119,-96.7411C506.5753,-95.5125 511.7189,-94.3223 516.6982,-93.2157 569.5052,-81.4802 589.4407,-97.3823 636.2197,-70.2157 646.8499,-64.0423 643.9633,-55.9918 654.2197,-49.2157 666.5871,-41.045 681.9103,-35.5117 695.5579,-31.8386"/>
<polygon fill="#9a32cd" stroke="#9a32cd" points="500.3929,-93.3865 491.4957,-99.139 502.0382,-100.1904 500.3929,-93.3865"/>
<text text-anchor="middle" x="576.459" y="-95.2157" font-family="Helvetica,sans-Serif" font-size="10.00" fill="#000000"> scores_</text>
</g>
<!-- Node10&#45;&gt;Node9 -->
<g id="edge10" class="edge">
<title>Node10&#45;&gt;Node9</title>
<path fill="none" stroke="#ffa500" stroke-dasharray="5,2" d="M240.6673,-127.8912C282.8646,-124.7445 335.7508,-120.8006 376.0691,-117.794"/>
<polygon fill="#ffa500" stroke="#ffa500" points="240.1726,-124.4183 230.4606,-128.6523 240.6932,-131.3989 240.1726,-124.4183"/>
<text text-anchor="middle" x="303.2041" y="-129.2157" font-family="Helvetica,sans-Serif" font-size="10.00" fill="#000000"> &lt; uint32_t, FCSCORE &gt;</text>
</g>
<!-- Node11 -->
<g id="node11" class="node">
<title>Node11</title>
<polygon fill="#ffffff" stroke="#bfbfbf" points="381.3848,-7.2157 381.3848,-25.2157 493.542,-25.2157 493.542,-7.2157 381.3848,-7.2157"/>
<text text-anchor="middle" x="437.4634" y="-13.2157" font-family="Helvetica,sans-Serif" font-size="10.00" fill="#000000">vector&lt; MolVertPair &gt;</text>
</g>
<!-- Node11&#45;&gt;Node6 -->
<g id="edge24" class="edge">
<title>Node11&#45;&gt;Node6</title>
<path fill="none" stroke="#9a32cd" stroke-dasharray="5,2" d="M503.9438,-9.3073C631.2927,1.7019 917.1405,15.6159 1143.9863,-52.2157 1194.6242,-67.3574 1250.8488,-94.8286 1278.4696,-109.0834"/>
<polygon fill="#9a32cd" stroke="#9a32cd" points="503.6022,-5.8238 493.9505,-10.1937 504.2207,-12.7964 503.6022,-5.8238"/>
<text text-anchor="middle" x="899.9526" y="-18.2157" font-family="Helvetica,sans-Serif" font-size="10.00" fill="#000000"> possibleStates_</text>
</g>
<!-- Node11&#45;&gt;Node8 -->
<g id="edge13" class="edge">
<title>Node11&#45;&gt;Node8</title>
<path fill="none" stroke="#9a32cd" stroke-dasharray="5,2" d="M503.6651,-18.1861C542.3197,-19.3436 592.0332,-20.8444 636.2197,-22.2157 655.9874,-22.8292 678.0903,-23.5329 695.9048,-24.1046"/>
<polygon fill="#9a32cd" stroke="#9a32cd" points="503.6793,-14.6851 493.5791,-17.8843 503.4699,-21.6819 503.6793,-14.6851"/>
<text text-anchor="middle" x="576.459" y="-24.2157" font-family="Helvetica,sans-Serif" font-size="10.00" fill="#000000"> possibleLocations_</text>
</g>
<!-- Node12&#45;&gt;Node11 -->
<g id="edge14" class="edge">
<title>Node12&#45;&gt;Node11</title>
<path fill="none" stroke="#ffa500" stroke-dasharray="5,2" d="M199.665,-36.4424C214.0962,-30.9979 231.7455,-25.2177 248.1797,-22.2157 292.328,-14.1512 343.2107,-12.9809 381.0945,-13.6455"/>
<polygon fill="#ffa500" stroke="#ffa500" points="198.286,-33.2234 190.2429,-40.1197 200.8311,-39.7444 198.286,-33.2234"/>
<text text-anchor="middle" x="303.2041" y="-24.2157" font-family="Helvetica,sans-Serif" font-size="10.00" fill="#000000"> &lt; MolVertPair &gt;</text>
</g>
<!-- Node14 -->
<g id="node14" class="node">
<title>Node14</title>
<polygon fill="#ffffff" stroke="#bfbfbf" points="522.043,-40.2157 522.043,-68.2157 630.875,-68.2157 630.875,-40.2157 522.043,-40.2157"/>
<text text-anchor="start" x="530.043" y="-56.2157" font-family="Helvetica,sans-Serif" font-size="10.00" fill="#000000">vector&lt; std::pair&lt;</text>
<text text-anchor="middle" x="576.459" y="-46.2157" font-family="Helvetica,sans-Serif" font-size="10.00" fill="#000000"> ElnDist, uint32_t &gt; &gt;</text>
</g>
<!-- Node12&#45;&gt;Node14 -->
<g id="edge19" class="edge">
<title>Node12&#45;&gt;Node14</title>
<path fill="none" stroke="#ffa500" stroke-dasharray="5,2" d="M212.5976,-49.7477C287.3136,-50.6652 440.2221,-52.5428 522.007,-53.547"/>
<polygon fill="#ffa500" stroke="#ffa500" points="212.6316,-46.248 202.5893,-49.6248 212.5455,-53.2475 212.6316,-46.248"/>
<text text-anchor="start" x="258.1846" y="-64.2157" font-family="Helvetica,sans-Serif" font-size="10.00" fill="#000000"> &lt; std::pair&lt; ElnDist,</text>
<text text-anchor="middle" x="303.2041" y="-54.2157" font-family="Helvetica,sans-Serif" font-size="10.00" fill="#000000"> uint32_t &gt; &gt;</text>
</g>
<!-- Node13&#45;&gt;Node7 -->
<g id="edge16" class="edge">
<title>Node13&#45;&gt;Node7</title>
<path fill="none" stroke="#9a32cd" stroke-dasharray="5,2" d="M816.5919,-261.816C869.9658,-255.5935 935.6732,-238.5256 975.4893,-194.2157 1006.8426,-159.3236 961.6025,-124.621 993.4893,-90.2157 997.2444,-86.1639 1001.7269,-82.9226 1006.6074,-80.3361"/>
<polygon fill="#9a32cd" stroke="#9a32cd" points="816.0133,-258.3575 806.4362,-262.8883 816.7484,-265.3188 816.0133,-258.3575"/>
<text text-anchor="middle" x="899.9526" y="-262.2157" font-family="Helvetica,sans-Serif" font-size="10.00" fill="#000000"> mvp2ev_</text>
</g>
<!-- Node14&#45;&gt;Node7 -->
<g id="edge18" class="edge">
<title>Node14&#45;&gt;Node7</title>
<path fill="none" stroke="#9a32cd" stroke-dasharray="5,2" d="M641.1932,-56.4512C732.0926,-59.5902 897.1889,-65.2915 993.4584,-68.616"/>
<polygon fill="#9a32cd" stroke="#9a32cd" points="641.1372,-52.9472 631.0223,-56.0999 640.8955,-59.9431 641.1372,-52.9472"/>
<text text-anchor="middle" x="730.3179" y="-64.2157" font-family="Helvetica,sans-Serif" font-size="10.00" fill="#000000"> minDistributions_</text>
</g>
<!-- Node15&#45;&gt;Node6 -->
<g id="edge20" class="edge">
<title>Node15&#45;&gt;Node6</title>
<path fill="none" stroke="#9a32cd" stroke-dasharray="5,2" d="M985.8505,-167.1826C1053.3022,-160.1363 1149.4004,-148.4657 1232.5625,-132.2157 1240.2767,-130.7083 1248.4933,-128.9785 1256.3607,-127.2607"/>
<polygon fill="#9a32cd" stroke="#9a32cd" points="985.2823,-163.7226 975.6947,-168.2312 986.0013,-170.6856 985.2823,-163.7226"/>
<text text-anchor="middle" x="1068.7378" y="-167.2157" font-family="Helvetica,sans-Serif" font-size="10.00" fill="#000000"> pairMasks_</text>
</g>
<!-- Node16&#45;&gt;Node6 -->
<g id="edge22" class="edge">
<title>Node16&#45;&gt;Node6</title>
<path fill="none" stroke="#9a32cd" stroke-dasharray="5,2" d="M1150.5219,-118.2157C1184.1148,-118.2157 1221.7366,-118.2157 1250.2642,-118.2157"/>
<polygon fill="#9a32cd" stroke="#9a32cd" points="1150.2405,-114.7158 1140.2404,-118.2157 1150.2404,-121.7158 1150.2405,-114.7158"/>
<text text-anchor="middle" x="1197.2744" y="-120.2157" font-family="Helvetica,sans-Serif" font-size="10.00" fill="#000000"> scorematrices_</text>
</g>
<!-- Node17 -->
<g id="node17" class="node">
<title>Node17</title>
<g id="a_node17"><a xlink:href="structindigox_1_1_n_t_d_vert_prop.html" target="_top" xlink:title="NTDVertProp">
<polygon fill="#ffffff" stroke="#000000" points="862.2188,-285.2157 862.2188,-303.2157 937.6865,-303.2157 937.6865,-285.2157 862.2188,-285.2157"/>
<text text-anchor="middle" x="899.9526" y="-291.2157" font-family="Helvetica,sans-Serif" font-size="10.00" fill="#000000">NTDVertProp</text>
</a>
</g>
</g>
<!-- Node17&#45;&gt;Node1 -->
<g id="edge25" class="edge">
<title>Node17&#45;&gt;Node1</title>
<path fill="none" stroke="#9a32cd" stroke-dasharray="5,2" d="M947.9257,-290.6703C1036.0355,-283.687 1229.3423,-266.1709 1389.9824,-236.2157 1397.2965,-234.8518 1405.082,-233.0638 1412.4145,-231.2238"/>
<polygon fill="#9a32cd" stroke="#9a32cd" points="947.4077,-287.2001 937.7114,-291.4699 947.954,-294.1787 947.4077,-287.2001"/>
<text text-anchor="middle" x="1197.2744" y="-271.2157" font-family="Helvetica,sans-Serif" font-size="10.00" fill="#000000"> tdProperties</text>
</g>
<!-- Node18 -->
<g id="node18" class="node">
<title>Node18</title>
<polygon fill="#ffffff" stroke="#bfbfbf" points="388.3306,-264.2157 388.3306,-282.2157 486.5962,-282.2157 486.5962,-264.2157 388.3306,-264.2157"/>
<text text-anchor="middle" x="437.4634" y="-270.2157" font-family="Helvetica,sans-Serif" font-size="10.00" fill="#000000">set&lt; MolVertPair &gt;</text>
</g>
<!-- Node18&#45;&gt;Node17 -->
<g id="edge26" class="edge">
<title>Node18&#45;&gt;Node17</title>
<path fill="none" stroke="#9a32cd" stroke-dasharray="5,2" d="M497.0962,-275.9888C540.6363,-278.0082 601.0896,-280.8009 654.2197,-283.2157 727.8093,-286.5603 813.7991,-290.392 862.0649,-292.5358"/>
<polygon fill="#9a32cd" stroke="#9a32cd" points="497.1147,-272.486 486.9632,-275.5186 496.7902,-279.4785 497.1147,-272.486"/>
<text text-anchor="middle" x="576.459" y="-284.2157" font-family="Helvetica,sans-Serif" font-size="10.00" fill="#000000"> bag</text>
</g>
<!-- Node19&#45;&gt;Node18 -->
<g id="edge27" class="edge">
<title>Node19&#45;&gt;Node18</title>
<path fill="none" stroke="#ffa500" stroke-dasharray="5,2" d="M205.575,-195.3997C260.1259,-213.7056 361.9924,-247.8895 410.4771,-264.1598"/>
<polygon fill="#ffa500" stroke="#ffa500" points="206.5572,-192.0376 195.9633,-192.1743 204.3302,-198.6739 206.5572,-192.0376"/>
<text text-anchor="middle" x="303.2041" y="-248.2157" font-family="Helvetica,sans-Serif" font-size="10.00" fill="#000000"> &lt; MolVertPair &gt;</text>
</g>
</g>
</svg>
