<?xml version="1.0" encoding="UTF-8" standalone="no"?>
<!DOCTYPE svg PUBLIC "-//W3C//DTD SVG 1.1//EN"
 "http://www.w3.org/Graphics/SVG/1.1/DTD/svg11.dtd">
<!-- Generated by graphviz version 2.40.1 (20161225.0304)
 -->
<!-- Title: Molecule::Impl Pages: 1 -->
<!--zoomable 467 -->
<svg id="main" version="1.1" xmlns="http://www.w3.org/2000/svg" xmlns:xlink="http://www.w3.org/1999/xlink" xml:space="preserve" onload="init(evt)">
<style type="text/css"><![CDATA[
.edge:hover path { stroke: red; }
.edge:hover polygon { stroke: red; fill: red; }
]]></style>
<script type="text/javascript"><![CDATA[
var edges = document.getElementsByTagName('g');
if (edges && edges.length) {
  for (var i=0;i<edges.length;i++) {
    if (edges[i].id.substr(0,4)=='edge') {
      edges[i].setAttribute('class','edge');
    }
  }
}
]]></script>
        <defs>
                <circle id="rim" cx="0" cy="0" r="7"/>
                <circle id="rim2" cx="0" cy="0" r="3.5"/>
                <g id="zoomPlus">
                        <use xlink:href="#rim" fill="#404040">
                                <set attributeName="fill" to="#808080" begin="zoomplus.mouseover" end="zoomplus.mouseout"/>
                        </use>
                        <path d="M-4,0h8M0,-4v8" fill="none" stroke="white" stroke-width="1.5" pointer-events="none"/>
                </g>
                <g id="zoomMin">
                        <use xlink:href="#rim" fill="#404040">
                                <set attributeName="fill" to="#808080" begin="zoomminus.mouseover" end="zoomminus.mouseout"/>
                        </use>
                        <path d="M-4,0h8" fill="none" stroke="white" stroke-width="1.5" pointer-events="none"/>
                </g>
                <g id="dirArrow">
                        <path fill="none" stroke="white" stroke-width="1.5" d="M0,-3.0v7 M-2.5,-0.5L0,-3.0L2.5,-0.5"/>
                </g>
               <g id="resetDef">
                       <use xlink:href="#rim2" fill="#404040">
                               <set attributeName="fill" to="#808080" begin="reset.mouseover" end="reset.mouseout"/>
                       </use>
               </g>
        </defs>

<script type="text/javascript">
var viewWidth = 900;
var viewHeight = 467;
var sectionId = 'dynsection-0';
</script>
<script xlink:href="svgpan.js"/>
<svg id="graph" class="graph">
<g id="viewport">
<title>Molecule::Impl</title>
<polygon fill="#ffffff" stroke="transparent" points="-4,4 -4,-463 896.0391,-463 896.0391,4 -4,4"/>
<!-- Node1 -->
<g id="node1" class="node">
<title>Node1</title>
<polygon fill="#bfbfbf" stroke="#000000" points="811.5713,-177.5 811.5713,-195.5 892.0391,-195.5 892.0391,-177.5 811.5713,-177.5"/>
<text text-anchor="middle" x="851.8052" y="-183.5" font-family="Helvetica,sans-Serif" font-size="10.00" fill="#000000">Molecule::Impl</text>
</g>
<!-- Node2 -->
<g id="node2" class="node">
<title>Node2</title>
<g id="a_node2"><a xlink:href="classindigox_1_1graph_1_1_molecular_graph.html" target="_top" xlink:title="Class containing a graph representation of a molecule. ">
<polygon fill="#ffffff" stroke="#000000" points="562.2324,-328.5 562.2324,-346.5 649.375,-346.5 649.375,-328.5 562.2324,-328.5"/>
<text text-anchor="middle" x="605.8037" y="-334.5" font-family="Helvetica,sans-Serif" font-size="10.00" fill="#000000">MolecularGraph</text>
</a>
</g>
</g>
<!-- Node2&#45;&gt;Node1 -->
<g id="edge1" class="edge">
<title>Node2&#45;&gt;Node1</title>
<path fill="none" stroke="#9a32cd" stroke-dasharray="5,2" d="M659.4382,-329.6237C699.654,-321.5322 754.2976,-305.6771 793.5713,-275.5 822.123,-253.5615 840.9661,-213.4058 848.325,-195.5147"/>
<polygon fill="#9a32cd" stroke="#9a32cd" points="658.7066,-326.2001 649.5428,-331.5176 660.0225,-333.0753 658.7066,-326.2001"/>
<text text-anchor="middle" x="743.2612" y="-321.5" font-family="Helvetica,sans-Serif" font-size="10.00" fill="#000000"> molecular_graph</text>
</g>
<!-- Node3 -->
<g id="node3" class="node">
<title>Node3</title>
<g id="a_node3"><a xlink:href="classindigox_1_1graph_1_1_base_graph.html" target="_top" xlink:title="BaseGraph\&lt; MGVertex,\l MGEdge, MolecularGraph \&gt;">
<polygon fill="#ffffff" stroke="#000000" points="288.8604,-373.5 288.8604,-401.5 432.4189,-401.5 432.4189,-373.5 288.8604,-373.5"/>
<text text-anchor="start" x="296.8604" y="-389.5" font-family="Helvetica,sans-Serif" font-size="10.00" fill="#000000">BaseGraph&lt; MGVertex,</text>
<text text-anchor="middle" x="360.6396" y="-379.5" font-family="Helvetica,sans-Serif" font-size="10.00" fill="#000000"> MGEdge, MolecularGraph &gt;</text>
</a>
</g>
</g>
<!-- Node3&#45;&gt;Node2 -->
<g id="edge2" class="edge">
<title>Node3&#45;&gt;Node2</title>
<path fill="none" stroke="#191970" d="M442.4421,-374.1589C467.0164,-369.8406 493.9957,-364.7904 518.6563,-359.5 536.5073,-355.6704 556.2445,-350.746 572.4151,-346.5274"/>
<polygon fill="#191970" stroke="#191970" points="441.6857,-370.7378 432.434,-375.9008 442.8861,-377.6342 441.6857,-370.7378"/>
</g>
<!-- Node4 -->
<g id="node4" class="node">
<title>Node4</title>
<g id="a_node4"><a xlink:href="classindigox_1_1graph_1_1_base_graph.html" target="_top" xlink:title="Template base class for all graphs used in the indigoX library. ">
<polygon fill="#ffffff" stroke="#000000" points="0,-398.5 0,-426.5 108.1875,-426.5 108.1875,-398.5 0,-398.5"/>
<text text-anchor="start" x="8" y="-414.5" font-family="Helvetica,sans-Serif" font-size="10.00" fill="#000000">BaseGraph&lt; V, E, S,</text>
<text text-anchor="middle" x="54.0938" y="-404.5" font-family="Helvetica,sans-Serif" font-size="10.00" fill="#000000"> D, VP, EP &gt;</text>
</a>
</g>
</g>
<!-- Node4&#45;&gt;Node3 -->
<g id="edge3" class="edge">
<title>Node4&#45;&gt;Node3</title>
<path fill="none" stroke="#ffa500" stroke-dasharray="5,2" d="M114.455,-396.4276C118.408,-395.6856 122.3438,-395.0309 126.1875,-394.5 180.3421,-387.0197 242.1746,-385.4599 288.739,-385.6681"/>
<polygon fill="#ffa500" stroke="#ffa500" points="113.7341,-393.0025 104.6356,-398.431 115.1335,-399.8611 113.7341,-393.0025"/>
<text text-anchor="start" x="141.2046" y="-406.5" font-family="Helvetica,sans-Serif" font-size="10.00" fill="#000000"> &lt; MGVertex, MGEdge,</text>
<text text-anchor="middle" x="193.0332" y="-396.5" font-family="Helvetica,sans-Serif" font-size="10.00" fill="#000000"> MolecularGraph &gt;</text>
</g>
<!-- Node21 -->
<g id="node21" class="node">
<title>Node21</title>
<g id="a_node21"><a xlink:href="classindigox_1_1graph_1_1_base_graph.html" target="_top" xlink:title="BaseGraph\&lt; CMGVertex,\l CMGEdge, CondensedMolecular\lGraph \&gt;">
<polygon fill="#ffffff" stroke="#000000" points="277.8789,-420.5 277.8789,-458.5 443.4004,-458.5 443.4004,-420.5 277.8789,-420.5"/>
<text text-anchor="start" x="285.8789" y="-446.5" font-family="Helvetica,sans-Serif" font-size="10.00" fill="#000000">BaseGraph&lt; CMGVertex,</text>
<text text-anchor="start" x="285.8789" y="-436.5" font-family="Helvetica,sans-Serif" font-size="10.00" fill="#000000"> CMGEdge, CondensedMolecular</text>
<text text-anchor="middle" x="360.6396" y="-426.5" font-family="Helvetica,sans-Serif" font-size="10.00" fill="#000000">Graph &gt;</text>
</a>
</g>
</g>
<!-- Node4&#45;&gt;Node21 -->
<g id="edge25" class="edge">
<title>Node4&#45;&gt;Node21</title>
<path fill="none" stroke="#ffa500" stroke-dasharray="5,2" d="M118.3999,-418.164C164.6977,-422.2418 227.56,-427.7786 277.6444,-432.1899"/>
<polygon fill="#ffa500" stroke="#ffa500" points="118.4609,-414.6559 108.1924,-417.2649 117.8467,-421.6289 118.4609,-414.6559"/>
<text text-anchor="start" x="126.1875" y="-441.5" font-family="Helvetica,sans-Serif" font-size="10.00" fill="#000000"> &lt; CMGVertex, CMGEdge,</text>
<text text-anchor="middle" x="193.0332" y="-431.5" font-family="Helvetica,sans-Serif" font-size="10.00" fill="#000000"> CondensedMolecularGraph &gt;</text>
</g>
<!-- Node5 -->
<g id="node5" class="node">
<title>Node5</title>
<polygon fill="#ffffff" stroke="#bfbfbf" points="563.0552,-177.5 563.0552,-195.5 648.5522,-195.5 648.5522,-177.5 563.0552,-177.5"/>
<text text-anchor="middle" x="605.8037" y="-183.5" font-family="Helvetica,sans-Serif" font-size="10.00" fill="#000000">vector&lt; Angle &gt;</text>
</g>
<!-- Node5&#45;&gt;Node1 -->
<g id="edge4" class="edge">
<title>Node5&#45;&gt;Node1</title>
<path fill="none" stroke="#9a32cd" stroke-dasharray="5,2" d="M658.6948,-186.5C704.5048,-186.5 769.7939,-186.5 811.4843,-186.5"/>
<polygon fill="#9a32cd" stroke="#9a32cd" points="658.6539,-183.0001 648.6539,-186.5 658.6539,-190.0001 658.6539,-183.0001"/>
<text text-anchor="middle" x="743.2612" y="-188.5" font-family="Helvetica,sans-Serif" font-size="10.00" fill="#000000"> angles</text>
</g>
<!-- Node6 -->
<g id="node6" class="node">
<title>Node6</title>
<g id="a_node6"><a xlink:href="classindigox_1_1_angle.html" target="_top" xlink:title="Angle">
<polygon fill="#ffffff" stroke="#000000" points="339.8516,-237.5 339.8516,-255.5 381.4277,-255.5 381.4277,-237.5 339.8516,-237.5"/>
<text text-anchor="middle" x="360.6396" y="-243.5" font-family="Helvetica,sans-Serif" font-size="10.00" fill="#000000">Angle</text>
</a>
</g>
</g>
<!-- Node6&#45;&gt;Node5 -->
<g id="edge5" class="edge">
<title>Node6&#45;&gt;Node5</title>
<path fill="none" stroke="#9a32cd" stroke-dasharray="5,2" d="M391.9651,-246.1508C424.8988,-244.7086 477.5401,-239.3024 518.6563,-220.5 528.1266,-216.1692 527.4264,-210.3222 536.6563,-205.5 544.8218,-201.2339 554.0444,-197.8466 563.0306,-195.1864"/>
<polygon fill="#9a32cd" stroke="#9a32cd" points="391.4728,-242.6654 381.5969,-246.5016 391.7096,-249.6614 391.4728,-242.6654"/>
<text text-anchor="middle" x="490.0283" y="-239.5" font-family="Helvetica,sans-Serif" font-size="10.00" fill="#000000"> elements</text>
</g>
<!-- Node7 -->
<g id="node7" class="node">
<title>Node7</title>
<g id="a_node7"><a xlink:title="STL class. ">
<polygon fill="#ffffff" stroke="#bfbfbf" points="327.5273,-171.5 327.5273,-189.5 393.752,-189.5 393.752,-171.5 327.5273,-171.5"/>
<text text-anchor="middle" x="360.6396" y="-177.5" font-family="Helvetica,sans-Serif" font-size="10.00" fill="#000000">vector&lt; T &gt;</text>
</a>
</g>
</g>
<!-- Node7&#45;&gt;Node5 -->
<g id="edge6" class="edge">
<title>Node7&#45;&gt;Node5</title>
<path fill="none" stroke="#ffa500" stroke-dasharray="5,2" d="M404.2101,-180.1792C435.9505,-180.0908 479.9789,-180.2689 518.6563,-181.5 533.0459,-181.958 548.7568,-182.7647 562.8268,-183.5981"/>
<polygon fill="#ffa500" stroke="#ffa500" points="403.9291,-176.6801 393.9425,-180.2182 403.9558,-183.6801 403.9291,-176.6801"/>
<text text-anchor="middle" x="490.0283" y="-183.5" font-family="Helvetica,sans-Serif" font-size="10.00" fill="#000000"> &lt; Angle &gt;</text>
</g>
<!-- Node9 -->
<g id="node9" class="node">
<title>Node9</title>
<polygon fill="#ffffff" stroke="#bfbfbf" points="557.2251,-140.5 557.2251,-158.5 654.3823,-158.5 654.3823,-140.5 557.2251,-140.5"/>
<text text-anchor="middle" x="605.8037" y="-146.5" font-family="Helvetica,sans-Serif" font-size="10.00" fill="#000000">vector&lt; Residue &gt;</text>
</g>
<!-- Node7&#45;&gt;Node9 -->
<g id="edge10" class="edge">
<title>Node7&#45;&gt;Node9</title>
<path fill="none" stroke="#ffa500" stroke-dasharray="5,2" d="M404.235,-173.6462C421.9522,-170.9557 442.6338,-167.9357 461.4004,-165.5 493.1677,-161.377 528.9549,-157.407 556.9552,-154.453"/>
<polygon fill="#ffa500" stroke="#ffa500" points="403.5378,-170.2121 394.1827,-175.1853 404.5973,-177.1314 403.5378,-170.2121"/>
<text text-anchor="middle" x="490.0283" y="-167.5" font-family="Helvetica,sans-Serif" font-size="10.00" fill="#000000"> &lt; Residue &gt;</text>
</g>
<!-- Node11 -->
<g id="node11" class="node">
<title>Node11</title>
<polygon fill="#ffffff" stroke="#bfbfbf" points="564.1733,-214.5 564.1733,-232.5 647.4341,-232.5 647.4341,-214.5 564.1733,-214.5"/>
<text text-anchor="middle" x="605.8037" y="-220.5" font-family="Helvetica,sans-Serif" font-size="10.00" fill="#000000">vector&lt; Atom &gt;</text>
</g>
<!-- Node7&#45;&gt;Node11 -->
<g id="edge13" class="edge">
<title>Node7&#45;&gt;Node11</title>
<path fill="none" stroke="#ffa500" stroke-dasharray="5,2" d="M404.028,-188.11C449.1712,-196.0278 519.3691,-208.34 563.9387,-216.1572"/>
<polygon fill="#ffa500" stroke="#ffa500" points="404.413,-184.6242 393.9587,-186.3439 403.2037,-191.5189 404.413,-184.6242"/>
<text text-anchor="middle" x="490.0283" y="-208.5" font-family="Helvetica,sans-Serif" font-size="10.00" fill="#000000"> &lt; Atom &gt;</text>
</g>
<!-- Node13 -->
<g id="node13" class="node">
<title>Node13</title>
<polygon fill="#ffffff" stroke="#bfbfbf" points="563.8926,-270.5 563.8926,-288.5 647.7148,-288.5 647.7148,-270.5 563.8926,-270.5"/>
<text text-anchor="middle" x="605.8037" y="-276.5" font-family="Helvetica,sans-Serif" font-size="10.00" fill="#000000">vector&lt; Bond &gt;</text>
</g>
<!-- Node7&#45;&gt;Node13 -->
<g id="edge16" class="edge">
<title>Node7&#45;&gt;Node13</title>
<path fill="none" stroke="#ffa500" stroke-dasharray="5,2" d="M390.359,-194.2194C406.9754,-202.7184 427.4803,-214.6447 443.4004,-228.5 453.192,-237.0216 450.3283,-244.7248 461.4004,-251.5 492.3314,-270.4273 533.3781,-276.9721 563.8015,-279.0477"/>
<polygon fill="#ffa500" stroke="#ffa500" points="391.6028,-190.9296 381.0888,-189.6228 388.4931,-197.2009 391.6028,-190.9296"/>
<text text-anchor="middle" x="490.0283" y="-274.5" font-family="Helvetica,sans-Serif" font-size="10.00" fill="#000000"> &lt; Bond &gt;</text>
</g>
<!-- Node18 -->
<g id="node18" class="node">
<title>Node18</title>
<polygon fill="#ffffff" stroke="#bfbfbf" points="556.9492,-103.5 556.9492,-121.5 654.6582,-121.5 654.6582,-103.5 556.9492,-103.5"/>
<text text-anchor="middle" x="605.8037" y="-109.5" font-family="Helvetica,sans-Serif" font-size="10.00" fill="#000000">vector&lt; Dihedral &gt;</text>
</g>
<!-- Node7&#45;&gt;Node18 -->
<g id="edge22" class="edge">
<title>Node7&#45;&gt;Node18</title>
<path fill="none" stroke="#ffa500" stroke-dasharray="5,2" d="M392.9615,-167.7876C412.5627,-160.3713 438.1904,-151.1895 461.4004,-144.5 493.2296,-135.3263 529.6481,-127.2724 557.9485,-121.5393"/>
<polygon fill="#ffa500" stroke="#ffa500" points="391.6729,-164.5331 383.5834,-171.3749 394.1739,-171.0711 391.6729,-164.5331"/>
<text text-anchor="middle" x="490.0283" y="-146.5" font-family="Helvetica,sans-Serif" font-size="10.00" fill="#000000"> &lt; Dihedral &gt;</text>
</g>
<!-- Node8 -->
<g id="node8" class="node">
<title>Node8</title>
<polygon fill="#ffffff" stroke="#bfbfbf" points="39.5938,-171.5 39.5938,-189.5 68.5938,-189.5 68.5938,-171.5 39.5938,-171.5"/>
<text text-anchor="middle" x="54.0938" y="-177.5" font-family="Helvetica,sans-Serif" font-size="10.00" fill="#000000">T</text>
</g>
<!-- Node8&#45;&gt;Node7 -->
<g id="edge7" class="edge">
<title>Node8&#45;&gt;Node7</title>
<path fill="none" stroke="#9a32cd" stroke-dasharray="5,2" d="M79.1038,-180.5C134.067,-180.5 265.3989,-180.5 327.2915,-180.5"/>
<polygon fill="#9a32cd" stroke="#9a32cd" points="78.8791,-177.0001 68.8791,-180.5 78.8791,-184.0001 78.8791,-177.0001"/>
<text text-anchor="middle" x="193.0332" y="-182.5" font-family="Helvetica,sans-Serif" font-size="10.00" fill="#000000"> elements</text>
</g>
<!-- Node9&#45;&gt;Node1 -->
<g id="edge8" class="edge">
<title>Node9&#45;&gt;Node1</title>
<path fill="none" stroke="#9a32cd" stroke-dasharray="5,2" d="M664.8083,-154.9836C701.9261,-158.8635 750.7373,-164.7538 793.5713,-172.5 801.2454,-173.8878 809.4212,-175.6641 817.1461,-177.4821"/>
<polygon fill="#9a32cd" stroke="#9a32cd" points="664.969,-151.4818 654.6639,-153.9428 664.2544,-158.4453 664.969,-151.4818"/>
<text text-anchor="middle" x="743.2612" y="-174.5" font-family="Helvetica,sans-Serif" font-size="10.00" fill="#000000"> residues</text>
</g>
<!-- Node10 -->
<g id="node10" class="node">
<title>Node10</title>
<g id="a_node10"><a xlink:href="classindigox_1_1_residue.html" target="_top" xlink:title="Residue">
<polygon fill="#ffffff" stroke="#000000" points="334.2949,-74.5 334.2949,-92.5 386.9844,-92.5 386.9844,-74.5 334.2949,-74.5"/>
<text text-anchor="middle" x="360.6396" y="-80.5" font-family="Helvetica,sans-Serif" font-size="10.00" fill="#000000">Residue</text>
</a>
</g>
</g>
<!-- Node10&#45;&gt;Node9 -->
<g id="edge9" class="edge">
<title>Node10&#45;&gt;Node9</title>
<path fill="none" stroke="#9a32cd" stroke-dasharray="5,2" d="M397.2023,-78.5415C437.6972,-73.8566 499.7724,-69.3193 518.6563,-82.5 537.6809,-95.779 519.4718,-115.9126 536.6563,-131.5 542.4447,-136.7506 549.5719,-140.507 557.0284,-143.1867"/>
<polygon fill="#9a32cd" stroke="#9a32cd" points="396.6675,-75.0806 387.1605,-79.7568 397.5086,-82.0299 396.6675,-75.0806"/>
<text text-anchor="middle" x="490.0283" y="-84.5" font-family="Helvetica,sans-Serif" font-size="10.00" fill="#000000"> elements</text>
</g>
<!-- Node11&#45;&gt;Node1 -->
<g id="edge11" class="edge">
<title>Node11&#45;&gt;Node1</title>
<path fill="none" stroke="#9a32cd" stroke-dasharray="5,2" d="M657.9907,-218.1404C695.7766,-213.9412 748.004,-207.4807 793.5713,-199.5 800.1016,-198.3563 807.0064,-196.9719 813.6902,-195.5387"/>
<polygon fill="#9a32cd" stroke="#9a32cd" points="657.2929,-214.6958 647.7336,-219.2642 658.0554,-221.6542 657.2929,-214.6958"/>
<text text-anchor="middle" x="743.2612" y="-215.5" font-family="Helvetica,sans-Serif" font-size="10.00" fill="#000000"> atoms</text>
</g>
<!-- Node12 -->
<g id="node12" class="node">
<title>Node12</title>
<g id="a_node12"><a xlink:href="classindigox_1_1_atom.html" target="_top" xlink:title="Atom">
<polygon fill="#ffffff" stroke="#000000" points="340.9697,-299.5 340.9697,-317.5 380.3096,-317.5 380.3096,-299.5 340.9697,-299.5"/>
<text text-anchor="middle" x="360.6396" y="-305.5" font-family="Helvetica,sans-Serif" font-size="10.00" fill="#000000">Atom</text>
</a>
</g>
</g>
<!-- Node12&#45;&gt;Node11 -->
<g id="edge12" class="edge">
<title>Node12&#45;&gt;Node11</title>
<path fill="none" stroke="#9a32cd" stroke-dasharray="5,2" d="M390.5698,-312.4322C424.3667,-315.3085 479.7119,-315.1535 518.6563,-290.5 531.4737,-282.386 525.6491,-271.9387 536.6563,-261.5 549.9748,-248.8692 568.296,-239.0498 582.7336,-232.5592"/>
<polygon fill="#9a32cd" stroke="#9a32cd" points="390.6998,-308.9279 380.402,-311.419 390.0057,-315.8934 390.6998,-308.9279"/>
<text text-anchor="middle" x="490.0283" y="-311.5" font-family="Helvetica,sans-Serif" font-size="10.00" fill="#000000"> elements</text>
</g>
<!-- Node13&#45;&gt;Node1 -->
<g id="edge14" class="edge">
<title>Node13&#45;&gt;Node1</title>
<path fill="none" stroke="#9a32cd" stroke-dasharray="5,2" d="M657.9091,-270.0945C696.5722,-261.9342 749.9235,-248.1449 793.5713,-227.5 811.6784,-218.9355 830.1886,-204.792 841.3406,-195.56"/>
<polygon fill="#9a32cd" stroke="#9a32cd" points="657.0044,-266.7072 647.9134,-272.1482 658.4133,-273.564 657.0044,-266.7072"/>
<text text-anchor="middle" x="743.2612" y="-263.5" font-family="Helvetica,sans-Serif" font-size="10.00" fill="#000000"> bonds</text>
</g>
<!-- Node14 -->
<g id="node14" class="node">
<title>Node14</title>
<g id="a_node14"><a xlink:href="classindigox_1_1_bond.html" target="_top" xlink:title="Bond">
<polygon fill="#ffffff" stroke="#000000" points="340.9624,-336.5 340.9624,-354.5 380.3169,-354.5 380.3169,-336.5 340.9624,-336.5"/>
<text text-anchor="middle" x="360.6396" y="-342.5" font-family="Helvetica,sans-Serif" font-size="10.00" fill="#000000">Bond</text>
</a>
</g>
</g>
<!-- Node14&#45;&gt;Node13 -->
<g id="edge15" class="edge">
<title>Node14&#45;&gt;Node13</title>
<path fill="none" stroke="#9a32cd" stroke-dasharray="5,2" d="M390.683,-344.2511C422.9548,-342.2382 475.4281,-337.0117 518.6563,-323.5 545.8336,-315.0053 574.872,-298.7107 591.6244,-288.5119"/>
<polygon fill="#9a32cd" stroke="#9a32cd" points="390.3444,-340.7645 380.5556,-344.8178 390.7356,-347.7535 390.3444,-340.7645"/>
<text text-anchor="middle" x="490.0283" y="-337.5" font-family="Helvetica,sans-Serif" font-size="10.00" fill="#000000"> elements</text>
</g>
<!-- Node15 -->
<g id="node15" class="node">
<title>Node15</title>
<g id="a_node15"><a xlink:title="STL class. ">
<polygon fill="#ffffff" stroke="#bfbfbf" points="585.5771,-66.5 585.5771,-84.5 626.0303,-84.5 626.0303,-66.5 585.5771,-66.5"/>
<text text-anchor="middle" x="605.8037" y="-72.5" font-family="Helvetica,sans-Serif" font-size="10.00" fill="#000000">string</text>
</a>
</g>
</g>
<!-- Node15&#45;&gt;Node1 -->
<g id="edge17" class="edge">
<title>Node15&#45;&gt;Node1</title>
<path fill="none" stroke="#9a32cd" stroke-dasharray="5,2" d="M636.3014,-70.8757C675.7267,-66.5196 745.0654,-64.5158 793.5713,-94.5 825.2469,-114.0805 842.6566,-158.0058 848.9989,-177.2126"/>
<polygon fill="#9a32cd" stroke="#9a32cd" points="635.7494,-67.4171 626.2508,-72.1104 636.6029,-74.3649 635.7494,-67.4171"/>
<text text-anchor="middle" x="743.2612" y="-106.5" font-family="Helvetica,sans-Serif" font-size="10.00" fill="#000000"> cached_formula</text>
<text text-anchor="middle" x="743.2612" y="-96.5" font-family="Helvetica,sans-Serif" font-size="10.00" fill="#000000">name</text>
</g>
<!-- Node16 -->
<g id="node16" class="node">
<title>Node16</title>
<g id="a_node16"><a xlink:title="STL class. ">
<polygon fill="#ffffff" stroke="#bfbfbf" points="307.6152,-.5 307.6152,-18.5 413.6641,-18.5 413.6641,-.5 307.6152,-.5"/>
<text text-anchor="middle" x="360.6396" y="-6.5" font-family="Helvetica,sans-Serif" font-size="10.00" fill="#000000">basic_string&lt; char &gt;</text>
</a>
</g>
</g>
<!-- Node16&#45;&gt;Node15 -->
<g id="edge18" class="edge">
<title>Node16&#45;&gt;Node15</title>
<path fill="none" stroke="#191970" d="M424.0658,-2.2821C454.9139,-1.8977 491.1682,-6.3707 518.6563,-24.5 532.6028,-33.6982 523.4895,-47.2166 536.6563,-57.5 550.6366,-68.4188 570.5741,-72.7557 585.4513,-74.457"/>
<polygon fill="#191970" stroke="#191970" points="423.7237,1.2093 413.832,-2.586 423.9315,-5.7876 423.7237,1.2093"/>
</g>
<!-- Node17 -->
<g id="node17" class="node">
<title>Node17</title>
<g id="a_node17"><a xlink:href="classindigox_1_1_forcefield.html" target="_top" xlink:title="Forcefield">
<polygon fill="#ffffff" stroke="#000000" points="575.8506,-29.5 575.8506,-47.5 635.7568,-47.5 635.7568,-29.5 575.8506,-29.5"/>
<text text-anchor="middle" x="605.8037" y="-35.5" font-family="Helvetica,sans-Serif" font-size="10.00" fill="#000000">Forcefield</text>
</a>
</g>
</g>
<!-- Node17&#45;&gt;Node1 -->
<g id="edge19" class="edge">
<title>Node17&#45;&gt;Node1</title>
<path fill="none" stroke="#9a32cd" stroke-dasharray="5,2" d="M645.8749,-30.9072C686.8707,-25.4677 750.496,-23.7378 793.5713,-54.5 835.765,-84.6327 847.7983,-152.3399 850.8589,-177.1551"/>
<polygon fill="#9a32cd" stroke="#9a32cd" points="645.3561,-27.4458 635.966,-32.3526 646.3665,-34.3725 645.3561,-27.4458"/>
<text text-anchor="middle" x="743.2612" y="-56.5" font-family="Helvetica,sans-Serif" font-size="10.00" fill="#000000"> forcefield</text>
</g>
<!-- Node18&#45;&gt;Node1 -->
<g id="edge20" class="edge">
<title>Node18&#45;&gt;Node1</title>
<path fill="none" stroke="#9a32cd" stroke-dasharray="5,2" d="M665.3222,-115.7148C703.2389,-119.42 752.7301,-127.3856 793.5713,-144.5 812.4257,-152.4009 831.0221,-167.4156 841.9532,-177.187"/>
<polygon fill="#9a32cd" stroke="#9a32cd" points="665.2256,-112.192 654.9514,-114.7787 664.5963,-119.1636 665.2256,-112.192"/>
<text text-anchor="middle" x="743.2612" y="-146.5" font-family="Helvetica,sans-Serif" font-size="10.00" fill="#000000"> dihedrals</text>
</g>
<!-- Node19 -->
<g id="node19" class="node">
<title>Node19</title>
<g id="a_node19"><a xlink:href="classindigox_1_1_dihedral.html" target="_top" xlink:title="Dihedral">
<polygon fill="#ffffff" stroke="#000000" points="334.019,-37.5 334.019,-55.5 387.2603,-55.5 387.2603,-37.5 334.019,-37.5"/>
<text text-anchor="middle" x="360.6396" y="-43.5" font-family="Helvetica,sans-Serif" font-size="10.00" fill="#000000">Dihedral</text>
</a>
</g>
</g>
<!-- Node19&#45;&gt;Node18 -->
<g id="edge21" class="edge">
<title>Node19&#45;&gt;Node18</title>
<path fill="none" stroke="#9a32cd" stroke-dasharray="5,2" d="M397.5755,-40.0073C431.8688,-36.0395 482.8745,-35.5973 518.6563,-59.5 533.2015,-69.2165 523.0025,-83.5662 536.6563,-94.5 542.5628,-99.2299 549.5805,-102.7277 556.8446,-105.312"/>
<polygon fill="#9a32cd" stroke="#9a32cd" points="396.9642,-36.5574 387.5046,-41.3288 397.875,-43.4979 396.9642,-36.5574"/>
<text text-anchor="middle" x="490.0283" y="-61.5" font-family="Helvetica,sans-Serif" font-size="10.00" fill="#000000"> elements</text>
</g>
<!-- Node20 -->
<g id="node20" class="node">
<title>Node20</title>
<g id="a_node20"><a xlink:href="classindigox_1_1graph_1_1_condensed_molecular_graph.html" target="_top" xlink:title="CondensedMolecularGraph">
<polygon fill="#ffffff" stroke="#000000" points="536.6563,-375.5 536.6563,-393.5 674.9512,-393.5 674.9512,-375.5 536.6563,-375.5"/>
<text text-anchor="middle" x="605.8037" y="-381.5" font-family="Helvetica,sans-Serif" font-size="10.00" fill="#000000">CondensedMolecularGraph</text>
</a>
</g>
</g>
<!-- Node20&#45;&gt;Node1 -->
<g id="edge23" class="edge">
<title>Node20&#45;&gt;Node1</title>
<path fill="none" stroke="#9a32cd" stroke-dasharray="5,2" d="M685.2693,-379.0893C722.0259,-372.8558 763.9899,-359.9417 793.5713,-333.5 836.3454,-295.2658 848.0914,-221.4826 850.9626,-195.679"/>
<polygon fill="#9a32cd" stroke="#9a32cd" points="684.399,-375.6825 675.0547,-380.676 685.4735,-382.5995 684.399,-375.6825"/>
<text text-anchor="start" x="692.9512" y="-388.5" font-family="Helvetica,sans-Serif" font-size="10.00" fill="#000000"> condensed_molecular</text>
<text text-anchor="middle" x="743.2612" y="-378.5" font-family="Helvetica,sans-Serif" font-size="10.00" fill="#000000">_graph</text>
</g>
<!-- Node21&#45;&gt;Node20 -->
<g id="edge24" class="edge">
<title>Node21&#45;&gt;Node20</title>
<path fill="none" stroke="#191970" d="M453.8826,-418.5819C492.4981,-409.9189 535.2405,-400.3301 565.5258,-393.5359"/>
<polygon fill="#191970" stroke="#191970" points="452.6323,-415.2753 443.641,-420.8795 454.1647,-422.1056 452.6323,-415.2753"/>
</g>
</g>
</svg>
        <g id="navigator" transform="translate(0 0)" fill="#404254">
                <rect fill="#f2f5e9" fill-opacity="0.5" stroke="#606060" stroke-width=".5" x="0" y="0" width="60" height="60"/>
                <use id="zoomplus" xlink:href="#zoomPlus" x="17" y="9" onmousedown="handleZoom(evt,'in')"/>
                <use id="zoomminus" xlink:href="#zoomMin" x="42" y="9" onmousedown="handleZoom(evt,'out')"/>
                <use id="reset" xlink:href="#resetDef" x="30" y="36" onmousedown="handleReset()"/>
                <g id="arrowUp" xlink:href="#dirArrow" transform="translate(30 24)" onmousedown="handlePan(0,-1)">
                  <use xlink:href="#rim" fill="#404040">
                        <set attributeName="fill" to="#808080" begin="arrowUp.mouseover" end="arrowUp.mouseout"/>
                  </use>
                  <path fill="none" stroke="white" stroke-width="1.5" d="M0,-3.0v7 M-2.5,-0.5L0,-3.0L2.5,-0.5"/>
                </g>
                <g id="arrowRight" xlink:href="#dirArrow" transform="rotate(90) translate(36 -43)" onmousedown="handlePan(1,0)">
                  <use xlink:href="#rim" fill="#404040">
                        <set attributeName="fill" to="#808080" begin="arrowRight.mouseover" end="arrowRight.mouseout"/>
                  </use>
                  <path fill="none" stroke="white" stroke-width="1.5" d="M0,-3.0v7 M-2.5,-0.5L0,-3.0L2.5,-0.5"/>
                </g>
                <g id="arrowDown" xlink:href="#dirArrow" transform="rotate(180) translate(-30 -48)" onmousedown="handlePan(0,1)">
                  <use xlink:href="#rim" fill="#404040">
                        <set attributeName="fill" to="#808080" begin="arrowDown.mouseover" end="arrowDown.mouseout"/>
                  </use>
                  <path fill="none" stroke="white" stroke-width="1.5" d="M0,-3.0v7 M-2.5,-0.5L0,-3.0L2.5,-0.5"/>
                </g>
                <g id="arrowLeft" xlink:href="#dirArrow" transform="rotate(270) translate(-36 17)" onmousedown="handlePan(-1,0)">
                  <use xlink:href="#rim" fill="#404040">
                        <set attributeName="fill" to="#808080" begin="arrowLeft.mouseover" end="arrowLeft.mouseout"/>
                  </use>
                  <path fill="none" stroke="white" stroke-width="1.5" d="M0,-3.0v7 M-2.5,-0.5L0,-3.0L2.5,-0.5"/>
                </g>
        </g>
        <svg viewBox="0 0 15 15" width="100%" height="30px" preserveAspectRatio="xMaxYMin meet">
         <g id="arrow_out" transform="scale(0.3 0.3)">
          <a xlink:href="structindigox_1_1_molecule_1_1_impl__coll__graph_org.svg" target="_base">
           <rect id="button" ry="5" rx="5" y="6" x="6" height="38" width="38"
                fill="#f2f5e9" fill-opacity="0.5" stroke="#606060" stroke-width="1.0"/>
           <path id="arrow"
             d="M 11.500037,31.436501 C 11.940474,20.09759 22.043105,11.32322 32.158766,21.979434 L 37.068811,17.246167 C 37.068811,17.246167 37.088388,32 37.088388,32 L 22.160133,31.978069 C 22.160133,31.978069 26.997745,27.140456 26.997745,27.140456 C 18.528582,18.264221 13.291696,25.230495 11.500037,31.436501 z"
             style="fill:#404040;"/>
          </a>
         </g>
        </svg>
</svg>
