<?xml version="1.0" encoding="UTF-8" standalone="no"?>
<!DOCTYPE svg PUBLIC "-//W3C//DTD SVG 1.1//EN"
 "http://www.w3.org/Graphics/SVG/1.1/DTD/svg11.dtd">
<!-- Generated by graphviz version 2.40.1 (20161225.0304)
 -->
<!-- Title: FFBond::Impl Pages: 1 -->
<svg width="273pt" height="232pt"
 viewBox="0.00 0.00 273.42 232.00" xmlns="http://www.w3.org/2000/svg" xmlns:xlink="http://www.w3.org/1999/xlink">
<g id="graph0" class="graph" transform="scale(1 1) rotate(0) translate(4 228)">
<title>FFBond::Impl</title>
<polygon fill="#ffffff" stroke="transparent" points="-4,4 -4,-228 269.4155,-228 269.4155,4 -4,4"/>
<!-- Node1 -->
<g id="node1" class="node">
<title>Node1</title>
<polygon fill="#bfbfbf" stroke="#000000" points="127.6201,-.5 127.6201,-18.5 203.6396,-18.5 203.6396,-.5 127.6201,-.5"/>
<text text-anchor="middle" x="165.6299" y="-6.5" font-family="Helvetica,sans-Serif" font-size="10.00" fill="#000000">FFBond::Impl</text>
</g>
<!-- Node2 -->
<g id="node2" class="node">
<title>Node2</title>
<polygon fill="#ffffff" stroke="#bfbfbf" points="0,-65.5 0,-93.5 117.2598,-93.5 117.2598,-65.5 0,-65.5"/>
<text text-anchor="start" x="8" y="-81.5" font-family="Helvetica,sans-Serif" font-size="10.00" fill="#000000">array&lt; double, STORE</text>
<text text-anchor="middle" x="58.6299" y="-71.5" font-family="Helvetica,sans-Serif" font-size="10.00" fill="#000000">_SIZE &gt;</text>
</g>
<!-- Node2&#45;&gt;Node1 -->
<g id="edge1" class="edge">
<title>Node2&#45;&gt;Node1</title>
<path fill="none" stroke="#9a32cd" stroke-dasharray="5,2" d="M85.4869,-59.2961C95.4529,-52.0359 106.9513,-43.9334 117.7139,-37 127.8734,-30.4551 139.6397,-23.691 148.97,-18.509"/>
<polygon fill="#9a32cd" stroke="#9a32cd" points="83.1602,-56.6627 77.1805,-65.4088 87.3092,-62.3006 83.1602,-56.6627"/>
<text text-anchor="middle" x="140.5879" y="-39" font-family="Helvetica,sans-Serif" font-size="10.00" fill="#000000"> raw_data</text>
</g>
<!-- Node3 -->
<g id="node3" class="node">
<title>Node3</title>
<g id="a_node3"><a xlink:title="STL class. ">
<polygon fill="#ffffff" stroke="#bfbfbf" points="27.7417,-140.5 27.7417,-158.5 89.5181,-158.5 89.5181,-140.5 27.7417,-140.5"/>
<text text-anchor="middle" x="58.6299" y="-146.5" font-family="Helvetica,sans-Serif" font-size="10.00" fill="#000000">array&lt; T &gt;</text>
</a>
</g>
</g>
<!-- Node3&#45;&gt;Node2 -->
<g id="edge2" class="edge">
<title>Node3&#45;&gt;Node2</title>
<path fill="none" stroke="#ffa500" stroke-dasharray="5,2" d="M58.6299,-130.0243C58.6299,-118.5169 58.6299,-104.2016 58.6299,-93.7499"/>
<polygon fill="#ffa500" stroke="#ffa500" points="55.13,-130.3487 58.6299,-140.3487 62.13,-130.3488 55.13,-130.3487"/>
<text text-anchor="middle" x="117.4604" y="-114" font-family="Helvetica,sans-Serif" font-size="10.00" fill="#000000"> &lt; double, STORE_SIZE &gt;</text>
</g>
<!-- Node4 -->
<g id="node4" class="node">
<title>Node4</title>
<polygon fill="#ffffff" stroke="#bfbfbf" points="44.1299,-205.5 44.1299,-223.5 73.1299,-223.5 73.1299,-205.5 44.1299,-205.5"/>
<text text-anchor="middle" x="58.1841" y="-211.5" font-family="Helvetica,sans-Serif" font-size="10.00" fill="#000000">T</text>
</g>
<!-- Node4&#45;&gt;Node3 -->
<g id="edge3" class="edge">
<title>Node4&#45;&gt;Node3</title>
<path fill="none" stroke="#9a32cd" stroke-dasharray="5,2" d="M58.6299,-195.1265C58.6299,-183.1522 58.6299,-168.3205 58.6299,-158.8821"/>
<polygon fill="#9a32cd" stroke="#9a32cd" points="55.13,-195.462 58.6299,-205.462 62.13,-195.4621 55.13,-195.462"/>
<text text-anchor="middle" x="80.3071" y="-179" font-family="Helvetica,sans-Serif" font-size="10.00" fill="#000000"> elements</text>
</g>
<!-- Node5 -->
<g id="node5" class="node">
<title>Node5</title>
<g id="a_node5"><a xlink:href="classindigox_1_1_forcefield.html" target="_top" xlink:title="Forcefield">
<polygon fill="#ffffff" stroke="#000000" points="135.6768,-70.5 135.6768,-88.5 195.583,-88.5 195.583,-70.5 135.6768,-70.5"/>
<text text-anchor="middle" x="165.6299" y="-76.5" font-family="Helvetica,sans-Serif" font-size="10.00" fill="#000000">Forcefield</text>
</a>
</g>
</g>
<!-- Node5&#45;&gt;Node1 -->
<g id="edge4" class="edge">
<title>Node5&#45;&gt;Node1</title>
<path fill="none" stroke="#9a32cd" stroke-dasharray="5,2" d="M165.6299,-60.2039C165.6299,-46.7531 165.6299,-29.3986 165.6299,-18.8769"/>
<polygon fill="#9a32cd" stroke="#9a32cd" points="162.13,-60.3487 165.6299,-70.3487 169.13,-60.3488 162.13,-60.3487"/>
<text text-anchor="middle" x="169.7095" y="-39" font-family="Helvetica,sans-Serif" font-size="10.00" fill="#000000"> ff</text>
</g>
<!-- Node6 -->
<g id="node6" class="node">
<title>Node6</title>
<g id="a_node6"><a xlink:href="classindigox_1_1_f_f_bond.html" target="_top" xlink:title="FFBond">
<polygon fill="#ffffff" stroke="#000000" points="213.8442,-70.5 213.8442,-88.5 265.4155,-88.5 265.4155,-70.5 213.8442,-70.5"/>
<text text-anchor="middle" x="239.6299" y="-76.5" font-family="Helvetica,sans-Serif" font-size="10.00" fill="#000000">FFBond</text>
</a>
</g>
</g>
<!-- Node6&#45;&gt;Node1 -->
<g id="edge5" class="edge">
<title>Node6&#45;&gt;Node1</title>
<path fill="none" stroke="#9a32cd" stroke-dasharray="5,2" d="M222.5588,-63.3517C207.9934,-49.5736 187.5553,-30.2403 175.5427,-18.8769"/>
<polygon fill="#9a32cd" stroke="#9a32cd" points="220.2858,-66.0193 229.9557,-70.3487 225.0962,-60.934 220.2858,-66.0193"/>
<text text-anchor="middle" x="232.9868" y="-39" font-family="Helvetica,sans-Serif" font-size="10.00" fill="#000000"> linked_bond</text>
</g>
</g>
</svg>
