<?xml version="1.0" encoding="UTF-8" standalone="no"?>
<!DOCTYPE svg PUBLIC "-//W3C//DTD SVG 1.1//EN"
 "http://www.w3.org/Graphics/SVG/1.1/DTD/svg11.dtd">
<!-- Generated by graphviz version 2.40.1 (20161225.0304)
 -->
<!-- Title: CMGPrintCallback Pages: 1 -->
<svg width="749pt" height="88pt"
 viewBox="0.00 0.00 749.16 87.50" xmlns="http://www.w3.org/2000/svg" xmlns:xlink="http://www.w3.org/1999/xlink">
<g id="graph0" class="graph" transform="scale(1 1) rotate(0) translate(4 83.5)">
<title>CMGPrintCallback</title>
<polygon fill="#ffffff" stroke="transparent" points="-4,4 -4,-83.5 745.1631,-83.5 745.1631,4 -4,4"/>
<!-- Node0 -->
<g id="node1" class="node">
<title>Node0</title>
<polygon fill="#bfbfbf" stroke="#000000" points="642.9219,-20.5 642.9219,-38.5 741.1631,-38.5 741.1631,-20.5 642.9219,-20.5"/>
<text text-anchor="middle" x="692.0425" y="-26.5" font-family="Helvetica,sans-Serif" font-size="10.00" fill="#000000">CMGPrintCallback</text>
</g>
<!-- Node1 -->
<g id="node2" class="node">
<title>Node1</title>
<g id="a_node2"><a xlink:href="structindigox_1_1algorithm_1_1_c_m_g_callback.html" target="_top" xlink:title="CMGCallback">
<polygon fill="#ffffff" stroke="#000000" points="528.2422,-20.5 528.2422,-38.5 605.9219,-38.5 605.9219,-20.5 528.2422,-20.5"/>
<text text-anchor="middle" x="567.082" y="-26.5" font-family="Helvetica,sans-Serif" font-size="10.00" fill="#000000">CMGCallback</text>
</a>
</g>
</g>
<!-- Node1&#45;&gt;Node0 -->
<g id="edge1" class="edge">
<title>Node1&#45;&gt;Node0</title>
<path fill="none" stroke="#191970" d="M615.9873,-29.5C624.7333,-29.5 633.8521,-29.5 642.6127,-29.5"/>
<polygon fill="#191970" stroke="#191970" points="615.9353,-26.0001 605.9353,-29.5 615.9353,-33.0001 615.9353,-26.0001"/>
</g>
<!-- Node2 -->
<g id="node3" class="node">
<title>Node2</title>
<g id="a_node3"><a xlink:href="structindigox_1_1algorithm_1_1_mapping_callback.html" target="_top" xlink:title="MappingCallback\&lt; graph\l::CMGVertex, graph::CMGEdge,\l graph::CondensedMolecularGraph,\l graph::Undirected, graph::GraphLabel,\l graph::GraphLabel \&gt;">
<polygon fill="#ffffff" stroke="#000000" points="301.2432,-.5 301.2432,-58.5 491.2422,-58.5 491.2422,-.5 301.2432,-.5"/>
<text text-anchor="start" x="309.2432" y="-46.5" font-family="Helvetica,sans-Serif" font-size="10.00" fill="#000000">MappingCallback&lt; graph</text>
<text text-anchor="start" x="309.2432" y="-36.5" font-family="Helvetica,sans-Serif" font-size="10.00" fill="#000000">::CMGVertex, graph::CMGEdge,</text>
<text text-anchor="start" x="309.2432" y="-26.5" font-family="Helvetica,sans-Serif" font-size="10.00" fill="#000000"> graph::CondensedMolecularGraph,</text>
<text text-anchor="start" x="309.2432" y="-16.5" font-family="Helvetica,sans-Serif" font-size="10.00" fill="#000000"> graph::Undirected, graph::GraphLabel,</text>
<text text-anchor="middle" x="396.2427" y="-6.5" font-family="Helvetica,sans-Serif" font-size="10.00" fill="#000000"> graph::GraphLabel &gt;</text>
</a>
</g>
</g>
<!-- Node2&#45;&gt;Node1 -->
<g id="edge2" class="edge">
<title>Node2&#45;&gt;Node1</title>
<path fill="none" stroke="#191970" d="M501.7976,-29.5C511.0469,-29.5 519.9623,-29.5 528.0754,-29.5"/>
<polygon fill="#191970" stroke="#191970" points="501.6521,-26.0001 491.6521,-29.5 501.6521,-33.0001 501.6521,-26.0001"/>
</g>
<!-- Node3 -->
<g id="node4" class="node">
<title>Node3</title>
<g id="a_node4"><a xlink:href="structindigox_1_1algorithm_1_1_mapping_callback.html" target="_top" xlink:title="MappingCallback\&lt; V,\l E, S, D, VP, EP \&gt;">
<polygon fill="#ffffff" stroke="#000000" points="0,-15.5 0,-43.5 109.8574,-43.5 109.8574,-15.5 0,-15.5"/>
<text text-anchor="start" x="8" y="-31.5" font-family="Helvetica,sans-Serif" font-size="10.00" fill="#000000">MappingCallback&lt; V,</text>
<text text-anchor="middle" x="54.9287" y="-21.5" font-family="Helvetica,sans-Serif" font-size="10.00" fill="#000000"> E, S, D, VP, EP &gt;</text>
</a>
</g>
</g>
<!-- Node3&#45;&gt;Node2 -->
<g id="edge3" class="edge">
<title>Node3&#45;&gt;Node2</title>
<path fill="none" stroke="#ffa500" stroke-dasharray="5,2" d="M120.4231,-29.5C171.6291,-29.5 243.5368,-29.5 301.0924,-29.5"/>
<polygon fill="#ffa500" stroke="#ffa500" points="120.1461,-26.0001 110.146,-29.5 120.146,-33.0001 120.1461,-26.0001"/>
<text text-anchor="start" x="127.8574" y="-71.5" font-family="Helvetica,sans-Serif" font-size="10.00" fill="#000000"> &lt; graph::CMGVertex,</text>
<text text-anchor="start" x="127.8574" y="-61.5" font-family="Helvetica,sans-Serif" font-size="10.00" fill="#000000"> graph::CMGEdge, graph</text>
<text text-anchor="start" x="127.8574" y="-51.5" font-family="Helvetica,sans-Serif" font-size="10.00" fill="#000000">::CondensedMolecularGraph,</text>
<text text-anchor="start" x="127.8574" y="-41.5" font-family="Helvetica,sans-Serif" font-size="10.00" fill="#000000"> graph::Undirected, graph</text>
<text text-anchor="middle" x="205.5503" y="-31.5" font-family="Helvetica,sans-Serif" font-size="10.00" fill="#000000">::GraphLabel, graph::GraphLabel &gt;</text>
</g>
</g>
</svg>
