<?xml version="1.0" encoding="UTF-8" standalone="no"?>
<!DOCTYPE svg PUBLIC "-//W3C//DTD SVG 1.1//EN"
 "http://www.w3.org/Graphics/SVG/1.1/DTD/svg11.dtd">
<!-- Generated by graphviz version 2.40.1 (20161225.0304)
 -->
<!-- Title: ParamDihedral::ParamDihedralImpl Pages: 1 -->
<svg width="252pt" height="197pt"
 viewBox="0.00 0.00 252.14 197.00" xmlns="http://www.w3.org/2000/svg" xmlns:xlink="http://www.w3.org/1999/xlink">
<g id="graph0" class="graph" transform="scale(1 1) rotate(0) translate(4 193)">
<title>ParamDihedral::ParamDihedralImpl</title>
<polygon fill="#ffffff" stroke="transparent" points="-4,4 -4,-193 248.1436,-193 248.1436,4 -4,4"/>
<!-- Node1 -->
<g id="node1" class="node">
<title>Node1</title>
<polygon fill="#bfbfbf" stroke="#000000" points="0,-.5 0,-18.5 173.8369,-18.5 173.8369,-.5 0,-.5"/>
<text text-anchor="middle" x="86.9185" y="-6.5" font-family="Helvetica,sans-Serif" font-size="10.00" fill="#000000">ParamDihedral::ParamDihedralImpl</text>
</g>
<!-- Node2 -->
<g id="node2" class="node">
<title>Node2</title>
<g id="a_node2"><a xlink:href="classindigox_1_1_dihedral.html" target="_top" xlink:title="Dihedral">
<polygon fill="#ffffff" stroke="#000000" points="30.2979,-65.5 30.2979,-83.5 83.5391,-83.5 83.5391,-65.5 30.2979,-65.5"/>
<text text-anchor="middle" x="56.9185" y="-71.5" font-family="Helvetica,sans-Serif" font-size="10.00" fill="#000000">Dihedral</text>
</a>
</g>
</g>
<!-- Node2&#45;&gt;Node1 -->
<g id="edge1" class="edge">
<title>Node2&#45;&gt;Node1</title>
<path fill="none" stroke="#9a32cd" stroke-dasharray="5,2" d="M61.7052,-55.3559C63.5122,-49.3417 65.8091,-42.7689 68.5591,-37 71.6714,-30.4708 76.1676,-23.707 79.9314,-18.5211"/>
<polygon fill="#9a32cd" stroke="#9a32cd" points="58.2521,-54.7148 58.9899,-65.2839 65.0041,-56.5615 58.2521,-54.7148"/>
<text text-anchor="middle" x="88.0981" y="-39" font-family="Helvetica,sans-Serif" font-size="10.00" fill="#000000"> dihedral</text>
</g>
<!-- Node3 -->
<g id="node3" class="node">
<title>Node3</title>
<g id="a_node3"><a xlink:href="structstdx_1_1quad.html" target="_top" xlink:title="quad\&lt; Atom \&gt;">
<polygon fill="#ffffff" stroke="#000000" points="101.7808,-65.5 101.7808,-83.5 180.0562,-83.5 180.0562,-65.5 101.7808,-65.5"/>
<text text-anchor="middle" x="140.9185" y="-71.5" font-family="Helvetica,sans-Serif" font-size="10.00" fill="#000000">quad&lt; Atom &gt;</text>
</a>
</g>
</g>
<!-- Node3&#45;&gt;Node1 -->
<g id="edge2" class="edge">
<title>Node3&#45;&gt;Node1</title>
<path fill="none" stroke="#9a32cd" stroke-dasharray="5,2" d="M126.9375,-57.6711C116.6774,-45.321 103.1198,-29.0016 94.7128,-18.8821"/>
<polygon fill="#9a32cd" stroke="#9a32cd" points="124.3276,-60.0067 133.41,-65.462 129.7119,-55.5335 124.3276,-60.0067"/>
<text text-anchor="middle" x="132.9233" y="-39" font-family="Helvetica,sans-Serif" font-size="10.00" fill="#000000"> atoms</text>
</g>
<!-- Node4 -->
<g id="node4" class="node">
<title>Node4</title>
<g id="a_node4"><a xlink:href="classindigox_1_1_atom.html" target="_top" xlink:title="Atom">
<polygon fill="#ffffff" stroke="#000000" points="74.2485,-165.5 74.2485,-183.5 113.5884,-183.5 113.5884,-165.5 74.2485,-165.5"/>
<text text-anchor="middle" x="93.9185" y="-171.5" font-family="Helvetica,sans-Serif" font-size="10.00" fill="#000000">Atom</text>
</a>
</g>
</g>
<!-- Node4&#45;&gt;Node3 -->
<g id="edge3" class="edge">
<title>Node4&#45;&gt;Node3</title>
<path fill="none" stroke="#9a32cd" stroke-dasharray="5,2" d="M102.5135,-156.2127C112.583,-134.7881 128.8697,-100.1356 136.5915,-83.7062"/>
<polygon fill="#9a32cd" stroke="#9a32cd" points="99.3419,-154.7325 98.2559,-165.2715 105.6771,-157.71 99.3419,-154.7325"/>
<text text-anchor="middle" x="144.0415" y="-134" font-family="Helvetica,sans-Serif" font-size="10.00" fill="#000000"> third</text>
<text text-anchor="middle" x="144.0415" y="-124" font-family="Helvetica,sans-Serif" font-size="10.00" fill="#000000">second</text>
<text text-anchor="middle" x="144.0415" y="-114" font-family="Helvetica,sans-Serif" font-size="10.00" fill="#000000">first</text>
<text text-anchor="middle" x="144.0415" y="-104" font-family="Helvetica,sans-Serif" font-size="10.00" fill="#000000">fourth</text>
</g>
<!-- Node5 -->
<g id="node5" class="node">
<title>Node5</title>
<g id="a_node5"><a xlink:href="structstdx_1_1quad.html" target="_top" xlink:title="quad\&lt; _T1, _T2, _T3,\l _T4 \&gt;">
<polygon fill="#ffffff" stroke="#000000" points="131.6934,-160.5 131.6934,-188.5 244.1436,-188.5 244.1436,-160.5 131.6934,-160.5"/>
<text text-anchor="start" x="139.6934" y="-176.5" font-family="Helvetica,sans-Serif" font-size="10.00" fill="#000000">quad&lt; _T1, _T2, _T3,</text>
<text text-anchor="middle" x="187.9185" y="-166.5" font-family="Helvetica,sans-Serif" font-size="10.00" fill="#000000"> _T4 &gt;</text>
</a>
</g>
</g>
<!-- Node5&#45;&gt;Node3 -->
<g id="edge4" class="edge">
<title>Node5&#45;&gt;Node3</title>
<path fill="none" stroke="#ffa500" stroke-dasharray="5,2" d="M182.3991,-150.4326C178.4704,-135.8501 172.3793,-117.1935 163.9185,-102 160.1636,-95.2572 154.65,-88.5945 149.9624,-83.5162"/>
<polygon fill="#ffa500" stroke="#ffa500" points="179.0309,-151.3895 184.8805,-160.2231 185.8163,-149.6696 179.0309,-151.3895"/>
<text text-anchor="middle" x="200.3223" y="-119" font-family="Helvetica,sans-Serif" font-size="10.00" fill="#000000"> &lt; Atom &gt;</text>
</g>
</g>
</svg>
