<?xml version="1.0" encoding="UTF-8" standalone="no"?>
<!DOCTYPE svg PUBLIC "-//W3C//DTD SVG 1.1//EN"
 "http://www.w3.org/Graphics/SVG/1.1/DTD/svg11.dtd">
<!-- Generated by graphviz version 2.40.1 (20161225.0304)
 -->
<!-- Title: FFAtom::Impl Pages: 1 -->
<svg width="159pt" height="148pt"
 viewBox="0.00 0.00 158.98 148.00" xmlns="http://www.w3.org/2000/svg" xmlns:xlink="http://www.w3.org/1999/xlink">
<g id="graph0" class="graph" transform="scale(1 1) rotate(0) translate(4 144)">
<title>FFAtom::Impl</title>
<polygon fill="#ffffff" stroke="transparent" points="-4,4 -4,-144 154.9775,-144 154.9775,4 -4,4"/>
<!-- Node1 -->
<g id="node1" class="node">
<title>Node1</title>
<polygon fill="#bfbfbf" stroke="#000000" points="49.2954,-.5 49.2954,-18.5 124.7534,-18.5 124.7534,-.5 49.2954,-.5"/>
<text text-anchor="middle" x="87.0244" y="-6.5" font-family="Helvetica,sans-Serif" font-size="10.00" fill="#000000">FFAtom::Impl</text>
</g>
<!-- Node2 -->
<g id="node2" class="node">
<title>Node2</title>
<g id="a_node2"><a xlink:title="STL class. ">
<polygon fill="#ffffff" stroke="#bfbfbf" points="32.7979,-65.5 32.7979,-83.5 73.251,-83.5 73.251,-65.5 32.7979,-65.5"/>
<text text-anchor="middle" x="53.0244" y="-71.5" font-family="Helvetica,sans-Serif" font-size="10.00" fill="#000000">string</text>
</a>
</g>
</g>
<!-- Node2&#45;&gt;Node1 -->
<g id="edge1" class="edge">
<title>Node2&#45;&gt;Node1</title>
<path fill="none" stroke="#9a32cd" stroke-dasharray="5,2" d="M61.6543,-56.0798C64.603,-49.9631 67.9791,-43.1471 71.2314,-37 74.5272,-30.771 78.4754,-23.896 81.5997,-18.5782"/>
<polygon fill="#9a32cd" stroke="#9a32cd" points="58.3222,-54.9373 57.1928,-65.4718 64.6451,-57.9409 58.3222,-54.9373"/>
<text text-anchor="middle" x="84.9209" y="-39" font-family="Helvetica,sans-Serif" font-size="10.00" fill="#000000"> name</text>
</g>
<!-- Node3 -->
<g id="node3" class="node">
<title>Node3</title>
<g id="a_node3"><a xlink:title="STL class. ">
<polygon fill="#ffffff" stroke="#bfbfbf" points="0,-121.5 0,-139.5 106.0488,-139.5 106.0488,-121.5 0,-121.5"/>
<text text-anchor="middle" x="53.0244" y="-127.5" font-family="Helvetica,sans-Serif" font-size="10.00" fill="#000000">basic_string&lt; char &gt;</text>
</a>
</g>
</g>
<!-- Node3&#45;&gt;Node2 -->
<g id="edge2" class="edge">
<title>Node3&#45;&gt;Node2</title>
<path fill="none" stroke="#191970" d="M53.0244,-111.2065C53.0244,-101.8384 53.0244,-91.0262 53.0244,-83.5752"/>
<polygon fill="#191970" stroke="#191970" points="49.5245,-111.2527 53.0244,-121.2527 56.5245,-111.2528 49.5245,-111.2527"/>
</g>
<!-- Node4 -->
<g id="node4" class="node">
<title>Node4</title>
<g id="a_node4"><a xlink:href="classindigox_1_1_forcefield.html" target="_top" xlink:title="Forcefield">
<polygon fill="#ffffff" stroke="#000000" points="91.0713,-65.5 91.0713,-83.5 150.9775,-83.5 150.9775,-65.5 91.0713,-65.5"/>
<text text-anchor="middle" x="121.0244" y="-71.5" font-family="Helvetica,sans-Serif" font-size="10.00" fill="#000000">Forcefield</text>
</a>
</g>
</g>
<!-- Node4&#45;&gt;Node1 -->
<g id="edge3" class="edge">
<title>Node4&#45;&gt;Node1</title>
<path fill="none" stroke="#9a32cd" stroke-dasharray="5,2" d="M111.6575,-56.5926C105.2718,-44.3846 97.0726,-28.7097 91.932,-18.8821"/>
<polygon fill="#9a32cd" stroke="#9a32cd" points="108.5605,-58.2233 116.2969,-65.462 114.7632,-54.9788 108.5605,-58.2233"/>
<text text-anchor="middle" x="110.104" y="-39" font-family="Helvetica,sans-Serif" font-size="10.00" fill="#000000"> ff</text>
</g>
</g>
</svg>
