<?xml version="1.0" encoding="UTF-8" standalone="no"?>
<!DOCTYPE svg PUBLIC "-//W3C//DTD SVG 1.1//EN"
 "http://www.w3.org/Graphics/SVG/1.1/DTD/svg11.dtd">
<!-- Generated by graphviz version 2.40.1 (20161225.0304)
 -->
<!-- Title: NTDVertProp Pages: 1 -->
<svg width="129pt" height="222pt"
 viewBox="0.00 0.00 128.84 222.00" xmlns="http://www.w3.org/2000/svg" xmlns:xlink="http://www.w3.org/1999/xlink">
<g id="graph0" class="graph" transform="scale(1 1) rotate(0) translate(4 218)">
<title>NTDVertProp</title>
<polygon fill="#ffffff" stroke="transparent" points="-4,4 -4,-218 124.8369,-218 124.8369,4 -4,4"/>
<!-- Node1 -->
<g id="node1" class="node">
<title>Node1</title>
<polygon fill="#bfbfbf" stroke="#000000" points="11.3989,-.5 11.3989,-18.5 86.8667,-18.5 86.8667,-.5 11.3989,-.5"/>
<text text-anchor="middle" x="49.1328" y="-6.5" font-family="Helvetica,sans-Serif" font-size="10.00" fill="#000000">NTDVertProp</text>
</g>
<!-- Node2 -->
<g id="node2" class="node">
<title>Node2</title>
<polygon fill="#ffffff" stroke="#bfbfbf" points="0,-65.5 0,-83.5 98.2656,-83.5 98.2656,-65.5 0,-65.5"/>
<text text-anchor="middle" x="49.1328" y="-71.5" font-family="Helvetica,sans-Serif" font-size="10.00" fill="#000000">set&lt; MolVertPair &gt;</text>
</g>
<!-- Node2&#45;&gt;Node1 -->
<g id="edge1" class="edge">
<title>Node2&#45;&gt;Node1</title>
<path fill="none" stroke="#9a32cd" stroke-dasharray="5,2" d="M49.1328,-55.1265C49.1328,-43.1522 49.1328,-28.3205 49.1328,-18.8821"/>
<polygon fill="#9a32cd" stroke="#9a32cd" points="45.6329,-55.462 49.1328,-65.462 52.6329,-55.4621 45.6329,-55.462"/>
<text text-anchor="middle" x="58.8643" y="-39" font-family="Helvetica,sans-Serif" font-size="10.00" fill="#000000"> bag</text>
</g>
<!-- Node3 -->
<g id="node3" class="node">
<title>Node3</title>
<g id="a_node3"><a xlink:title="STL class. ">
<polygon fill="#ffffff" stroke="#bfbfbf" points="22.5098,-130.5 22.5098,-148.5 75.7559,-148.5 75.7559,-130.5 22.5098,-130.5"/>
<text text-anchor="middle" x="49.1328" y="-136.5" font-family="Helvetica,sans-Serif" font-size="10.00" fill="#000000">set&lt; K &gt;</text>
</a>
</g>
</g>
<!-- Node3&#45;&gt;Node2 -->
<g id="edge2" class="edge">
<title>Node3&#45;&gt;Node2</title>
<path fill="none" stroke="#ffa500" stroke-dasharray="5,2" d="M49.1328,-120.1265C49.1328,-108.1522 49.1328,-93.3205 49.1328,-83.8821"/>
<polygon fill="#ffa500" stroke="#ffa500" points="45.6329,-120.462 49.1328,-130.462 52.6329,-120.4621 45.6329,-120.462"/>
<text text-anchor="middle" x="84.9849" y="-104" font-family="Helvetica,sans-Serif" font-size="10.00" fill="#000000"> &lt; MolVertPair &gt;</text>
</g>
<!-- Node4 -->
<g id="node4" class="node">
<title>Node4</title>
<polygon fill="#ffffff" stroke="#bfbfbf" points="34.6328,-195.5 34.6328,-213.5 63.6328,-213.5 63.6328,-195.5 34.6328,-195.5"/>
<text text-anchor="middle" x="48.9678" y="-201.5" font-family="Helvetica,sans-Serif" font-size="10.00" fill="#000000">K</text>
</g>
<!-- Node4&#45;&gt;Node3 -->
<g id="edge3" class="edge">
<title>Node4&#45;&gt;Node3</title>
<path fill="none" stroke="#9a32cd" stroke-dasharray="5,2" d="M49.1328,-185.1265C49.1328,-173.1522 49.1328,-158.3205 49.1328,-148.8821"/>
<polygon fill="#9a32cd" stroke="#9a32cd" points="45.6329,-185.462 49.1328,-195.462 52.6329,-185.4621 45.6329,-185.462"/>
<text text-anchor="middle" x="60.8027" y="-169" font-family="Helvetica,sans-Serif" font-size="10.00" fill="#000000"> keys</text>
</g>
</g>
</svg>
