<?xml version="1.0" encoding="UTF-8" standalone="no"?>
<!DOCTYPE svg PUBLIC "-//W3C//DTD SVG 1.1//EN"
 "http://www.w3.org/Graphics/SVG/1.1/DTD/svg11.dtd">
<!-- Generated by graphviz version 2.40.1 (20161225.0304)
 -->
<!-- Title: CherryPickerCallback Pages: 1 -->
<svg width="849pt" height="193pt"
 viewBox="0.00 0.00 848.79 192.50" xmlns="http://www.w3.org/2000/svg" xmlns:xlink="http://www.w3.org/1999/xlink">
<g id="graph0" class="graph" transform="scale(1 1) rotate(0) translate(4 188.5)">
<title>CherryPickerCallback</title>
<polygon fill="#ffffff" stroke="transparent" points="-4,4 -4,-188.5 844.7881,-188.5 844.7881,4 -4,4"/>
<!-- Node4 -->
<g id="node1" class="node">
<title>Node4</title>
<polygon fill="#bfbfbf" stroke="#000000" points="728.6504,-69.5 728.6504,-87.5 840.7881,-87.5 840.7881,-69.5 728.6504,-69.5"/>
<text text-anchor="middle" x="784.7192" y="-75.5" font-family="Helvetica,sans-Serif" font-size="10.00" fill="#000000">CherryPickerCallback</text>
</g>
<!-- Node5 -->
<g id="node2" class="node">
<title>Node5</title>
<g id="a_node2"><a xlink:href="structindigox_1_1algorithm_1_1_c_m_g_callback.html" target="_top" xlink:title="CMGCallback">
<polygon fill="#ffffff" stroke="#000000" points="558.5498,-125.5 558.5498,-143.5 636.2295,-143.5 636.2295,-125.5 558.5498,-125.5"/>
<text text-anchor="middle" x="597.3896" y="-131.5" font-family="Helvetica,sans-Serif" font-size="10.00" fill="#000000">CMGCallback</text>
</a>
</g>
</g>
<!-- Node5&#45;&gt;Node4 -->
<g id="edge1" class="edge">
<title>Node5&#45;&gt;Node4</title>
<path fill="none" stroke="#191970" d="M643.647,-122.8187C651.3115,-120.7801 659.1617,-118.6287 666.5371,-116.5 698.2189,-107.3559 734.2449,-95.5685 758.1059,-87.5636"/>
<polygon fill="#191970" stroke="#191970" points="642.5165,-119.4969 633.7338,-125.4225 644.2949,-126.2672 642.5165,-119.4969"/>
</g>
<!-- Node6 -->
<g id="node3" class="node">
<title>Node6</title>
<g id="a_node3"><a xlink:href="structindigox_1_1algorithm_1_1_mapping_callback.html" target="_top" xlink:title="MappingCallback\&lt; graph\l::CMGVertex, graph::CMGEdge,\l graph::CondensedMolecularGraph,\l graph::Undirected, graph::GraphLabel,\l graph::GraphLabel \&gt;">
<polygon fill="#ffffff" stroke="#000000" points="301.2432,-105.5 301.2432,-163.5 491.2422,-163.5 491.2422,-105.5 301.2432,-105.5"/>
<text text-anchor="start" x="309.2432" y="-151.5" font-family="Helvetica,sans-Serif" font-size="10.00" fill="#000000">MappingCallback&lt; graph</text>
<text text-anchor="start" x="309.2432" y="-141.5" font-family="Helvetica,sans-Serif" font-size="10.00" fill="#000000">::CMGVertex, graph::CMGEdge,</text>
<text text-anchor="start" x="309.2432" y="-131.5" font-family="Helvetica,sans-Serif" font-size="10.00" fill="#000000"> graph::CondensedMolecularGraph,</text>
<text text-anchor="start" x="309.2432" y="-121.5" font-family="Helvetica,sans-Serif" font-size="10.00" fill="#000000"> graph::Undirected, graph::GraphLabel,</text>
<text text-anchor="middle" x="396.2427" y="-111.5" font-family="Helvetica,sans-Serif" font-size="10.00" fill="#000000"> graph::GraphLabel &gt;</text>
</a>
</g>
</g>
<!-- Node6&#45;&gt;Node5 -->
<g id="edge2" class="edge">
<title>Node6&#45;&gt;Node5</title>
<path fill="none" stroke="#191970" d="M501.738,-134.5C521.8947,-134.5 541.7871,-134.5 558.1664,-134.5"/>
<polygon fill="#191970" stroke="#191970" points="501.5147,-131.0001 491.5147,-134.5 501.5146,-138.0001 501.5147,-131.0001"/>
</g>
<!-- Node7 -->
<g id="node4" class="node">
<title>Node7</title>
<g id="a_node4"><a xlink:href="structindigox_1_1algorithm_1_1_mapping_callback.html" target="_top" xlink:title="MappingCallback\&lt; V,\l E, S, D, VP, EP \&gt;">
<polygon fill="#ffffff" stroke="#000000" points="0,-120.5 0,-148.5 109.8574,-148.5 109.8574,-120.5 0,-120.5"/>
<text text-anchor="start" x="8" y="-136.5" font-family="Helvetica,sans-Serif" font-size="10.00" fill="#000000">MappingCallback&lt; V,</text>
<text text-anchor="middle" x="54.9287" y="-126.5" font-family="Helvetica,sans-Serif" font-size="10.00" fill="#000000"> E, S, D, VP, EP &gt;</text>
</a>
</g>
</g>
<!-- Node7&#45;&gt;Node6 -->
<g id="edge3" class="edge">
<title>Node7&#45;&gt;Node6</title>
<path fill="none" stroke="#ffa500" stroke-dasharray="5,2" d="M120.4231,-134.5C171.6291,-134.5 243.5368,-134.5 301.0924,-134.5"/>
<polygon fill="#ffa500" stroke="#ffa500" points="120.1461,-131.0001 110.146,-134.5 120.146,-138.0001 120.1461,-131.0001"/>
<text text-anchor="start" x="127.8574" y="-176.5" font-family="Helvetica,sans-Serif" font-size="10.00" fill="#000000"> &lt; graph::CMGVertex,</text>
<text text-anchor="start" x="127.8574" y="-166.5" font-family="Helvetica,sans-Serif" font-size="10.00" fill="#000000"> graph::CMGEdge, graph</text>
<text text-anchor="start" x="127.8574" y="-156.5" font-family="Helvetica,sans-Serif" font-size="10.00" fill="#000000">::CondensedMolecularGraph,</text>
<text text-anchor="start" x="127.8574" y="-146.5" font-family="Helvetica,sans-Serif" font-size="10.00" fill="#000000"> graph::Undirected, graph</text>
<text text-anchor="middle" x="205.5503" y="-136.5" font-family="Helvetica,sans-Serif" font-size="10.00" fill="#000000">::GraphLabel, graph::GraphLabel &gt;</text>
</g>
<!-- Node8 -->
<g id="node5" class="node">
<title>Node8</title>
<g id="a_node5"><a xlink:href="classindigox_1_1_param_molecule.html" target="_top" xlink:title="ParamMolecule">
<polygon fill="#ffffff" stroke="#000000" points="554.6533,-88.5 554.6533,-106.5 640.126,-106.5 640.126,-88.5 554.6533,-88.5"/>
<text text-anchor="middle" x="597.3896" y="-94.5" font-family="Helvetica,sans-Serif" font-size="10.00" fill="#000000">ParamMolecule</text>
</a>
</g>
</g>
<!-- Node8&#45;&gt;Node4 -->
<g id="edge4" class="edge">
<title>Node8&#45;&gt;Node4</title>
<path fill="none" stroke="#9a32cd" stroke-dasharray="5,2" d="M650.4976,-92.1135C674.8424,-89.6443 703.7174,-86.7157 728.4368,-84.2085"/>
<polygon fill="#9a32cd" stroke="#9a32cd" points="649.9626,-88.6497 640.3668,-93.141 650.669,-95.614 649.9626,-88.6497"/>
<text text-anchor="middle" x="697.5938" y="-90.5" font-family="Helvetica,sans-Serif" font-size="10.00" fill="#000000"> pmol</text>
</g>
<!-- Node9 -->
<g id="node6" class="node">
<title>Node9</title>
<g id="a_node6"><a xlink:href="classindigox_1_1_fragment.html" target="_top" xlink:title="Fragment class for CherryPicker parameterisation algorithm. ">
<polygon fill="#ffffff" stroke="#000000" points="567.9932,-51.5 567.9932,-69.5 626.7861,-69.5 626.7861,-51.5 567.9932,-51.5"/>
<text text-anchor="middle" x="597.3896" y="-57.5" font-family="Helvetica,sans-Serif" font-size="10.00" fill="#000000">Fragment</text>
</a>
</g>
</g>
<!-- Node9&#45;&gt;Node4 -->
<g id="edge5" class="edge">
<title>Node9&#45;&gt;Node4</title>
<path fill="none" stroke="#9a32cd" stroke-dasharray="5,2" d="M637.0024,-60.9922C658.7888,-61.5784 686.2695,-62.8336 710.6504,-65.5 719.7352,-66.4935 729.3898,-67.9157 738.6232,-69.4579"/>
<polygon fill="#9a32cd" stroke="#9a32cd" points="636.882,-57.4885 626.8033,-60.7549 636.7192,-64.4866 636.882,-57.4885"/>
<text text-anchor="middle" x="697.5938" y="-67.5" font-family="Helvetica,sans-Serif" font-size="10.00" fill="#000000"> frag</text>
</g>
<!-- Node10 -->
<g id="node7" class="node">
<title>Node10</title>
<g id="a_node7"><a xlink:href="classindigox_1_1graph_1_1_condensed_molecular_graph.html" target="_top" xlink:title="CondensedMolecularGraph">
<polygon fill="#ffffff" stroke="#000000" points="528.2422,-10.5 528.2422,-28.5 666.5371,-28.5 666.5371,-10.5 528.2422,-10.5"/>
<text text-anchor="middle" x="597.3896" y="-16.5" font-family="Helvetica,sans-Serif" font-size="10.00" fill="#000000">CondensedMolecularGraph</text>
</a>
</g>
</g>
<!-- Node10&#45;&gt;Node4 -->
<g id="edge6" class="edge">
<title>Node10&#45;&gt;Node4</title>
<path fill="none" stroke="#9a32cd" stroke-dasharray="5,2" d="M676.6783,-29.3746C688.2289,-31.7967 699.8572,-34.7948 710.6504,-38.5 733.0432,-46.1872 756.7561,-60.1634 771.1511,-69.3907"/>
<polygon fill="#9a32cd" stroke="#9a32cd" points="677.0576,-25.8824 666.5708,-27.3912 675.7096,-32.7514 677.0576,-25.8824"/>
<text text-anchor="middle" x="697.5938" y="-50.5" font-family="Helvetica,sans-Serif" font-size="10.00" fill="#000000"> small</text>
<text text-anchor="middle" x="697.5938" y="-40.5" font-family="Helvetica,sans-Serif" font-size="10.00" fill="#000000">large</text>
</g>
<!-- Node11 -->
<g id="node8" class="node">
<title>Node11</title>
<g id="a_node8"><a xlink:href="classindigox_1_1graph_1_1_base_graph.html" target="_top" xlink:title="BaseGraph\&lt; CMGVertex,\l CMGEdge, CondensedMolecular\lGraph \&gt;">
<polygon fill="#ffffff" stroke="#000000" points="313.4819,-.5 313.4819,-38.5 479.0034,-38.5 479.0034,-.5 313.4819,-.5"/>
<text text-anchor="start" x="321.4819" y="-26.5" font-family="Helvetica,sans-Serif" font-size="10.00" fill="#000000">BaseGraph&lt; CMGVertex,</text>
<text text-anchor="start" x="321.4819" y="-16.5" font-family="Helvetica,sans-Serif" font-size="10.00" fill="#000000"> CMGEdge, CondensedMolecular</text>
<text text-anchor="middle" x="396.2427" y="-6.5" font-family="Helvetica,sans-Serif" font-size="10.00" fill="#000000">Graph &gt;</text>
</a>
</g>
</g>
<!-- Node11&#45;&gt;Node10 -->
<g id="edge7" class="edge">
<title>Node11&#45;&gt;Node10</title>
<path fill="none" stroke="#191970" d="M489.5582,-19.5C502.5152,-19.5 515.6337,-19.5 528.0475,-19.5"/>
<polygon fill="#191970" stroke="#191970" points="489.2182,-16.0001 479.2182,-19.5 489.2181,-23.0001 489.2182,-16.0001"/>
</g>
<!-- Node12 -->
<g id="node9" class="node">
<title>Node12</title>
<g id="a_node9"><a xlink:href="classindigox_1_1graph_1_1_base_graph.html" target="_top" xlink:title="Template base class for all graphs used in the indigoX library. ">
<polygon fill="#ffffff" stroke="#000000" points=".835,-5.5 .835,-33.5 109.0225,-33.5 109.0225,-5.5 .835,-5.5"/>
<text text-anchor="start" x="8.835" y="-21.5" font-family="Helvetica,sans-Serif" font-size="10.00" fill="#000000">BaseGraph&lt; V, E, S,</text>
<text text-anchor="middle" x="54.9287" y="-11.5" font-family="Helvetica,sans-Serif" font-size="10.00" fill="#000000"> D, VP, EP &gt;</text>
</a>
</g>
</g>
<!-- Node12&#45;&gt;Node11 -->
<g id="edge8" class="edge">
<title>Node12&#45;&gt;Node11</title>
<path fill="none" stroke="#ffa500" stroke-dasharray="5,2" d="M119.6957,-19.5C174.6259,-19.5 253.7561,-19.5 313.3104,-19.5"/>
<polygon fill="#ffa500" stroke="#ffa500" points="119.3884,-16.0001 109.3883,-19.5 119.3883,-23.0001 119.3884,-16.0001"/>
<text text-anchor="start" x="138.7046" y="-31.5" font-family="Helvetica,sans-Serif" font-size="10.00" fill="#000000"> &lt; CMGVertex, CMGEdge,</text>
<text text-anchor="middle" x="205.5503" y="-21.5" font-family="Helvetica,sans-Serif" font-size="10.00" fill="#000000"> CondensedMolecularGraph &gt;</text>
</g>
</g>
</svg>
