<?xml version="1.0" encoding="UTF-8" standalone="no"?>
<!DOCTYPE svg PUBLIC "-//W3C//DTD SVG 1.1//EN"
 "http://www.w3.org/Graphics/SVG/1.1/DTD/svg11.dtd">
<!-- Generated by graphviz version 2.40.1 (20161225.0304)
 -->
<!-- Title: Residue::Impl Pages: 1 -->
<svg width="198pt" height="243pt"
 viewBox="0.00 0.00 197.79 243.00" xmlns="http://www.w3.org/2000/svg" xmlns:xlink="http://www.w3.org/1999/xlink">
<g id="graph0" class="graph" transform="scale(1 1) rotate(0) translate(4 239)">
<title>Residue::Impl</title>
<polygon fill="#ffffff" stroke="transparent" points="-4,4 -4,-239 193.7891,-239 193.7891,4 -4,4"/>
<!-- Node1 -->
<g id="node1" class="node">
<title>Node1</title>
<polygon fill="#bfbfbf" stroke="#000000" points="78.2104,-.5 78.2104,-18.5 155.3481,-18.5 155.3481,-.5 78.2104,-.5"/>
<text text-anchor="middle" x="116.7793" y="-6.5" font-family="Helvetica,sans-Serif" font-size="10.00" fill="#000000">Residue::Impl</text>
</g>
<!-- Node2 -->
<g id="node2" class="node">
<title>Node2</title>
<g id="a_node2"><a xlink:href="classindigox_1_1graph_1_1_molecular_graph.html" target="_top" xlink:title="Class containing a graph representation of a molecule. ">
<polygon fill="#ffffff" stroke="#000000" points="28.208,-65.5 28.208,-83.5 115.3506,-83.5 115.3506,-65.5 28.208,-65.5"/>
<text text-anchor="middle" x="71.7793" y="-71.5" font-family="Helvetica,sans-Serif" font-size="10.00" fill="#000000">MolecularGraph</text>
</a>
</g>
</g>
<!-- Node2&#45;&gt;Node1 -->
<g id="edge1" class="edge">
<title>Node2&#45;&gt;Node1</title>
<path fill="none" stroke="#9a32cd" stroke-dasharray="5,2" d="M69.0056,-55.0257C69.0086,-48.9124 69.981,-42.3651 73.0654,-37 77.713,-28.9161 85.7989,-22.8618 93.7625,-18.5222"/>
<polygon fill="#9a32cd" stroke="#9a32cd" points="65.533,-55.5143 69.8001,-65.2118 72.5118,-54.9699 65.533,-55.5143"/>
<text text-anchor="middle" x="106.1362" y="-39" font-family="Helvetica,sans-Serif" font-size="10.00" fill="#000000"> residue_graph</text>
</g>
<!-- Node3 -->
<g id="node3" class="node">
<title>Node3</title>
<g id="a_node3"><a xlink:href="classindigox_1_1graph_1_1_base_graph.html" target="_top" xlink:title="BaseGraph\&lt; MGVertex,\l MGEdge, MolecularGraph \&gt;">
<polygon fill="#ffffff" stroke="#000000" points="0,-121.5 0,-149.5 143.5586,-149.5 143.5586,-121.5 0,-121.5"/>
<text text-anchor="start" x="8" y="-137.5" font-family="Helvetica,sans-Serif" font-size="10.00" fill="#000000">BaseGraph&lt; MGVertex,</text>
<text text-anchor="middle" x="71.7793" y="-127.5" font-family="Helvetica,sans-Serif" font-size="10.00" fill="#000000"> MGEdge, MolecularGraph &gt;</text>
</a>
</g>
</g>
<!-- Node3&#45;&gt;Node2 -->
<g id="edge2" class="edge">
<title>Node3&#45;&gt;Node2</title>
<path fill="none" stroke="#191970" d="M71.7793,-111.1001C71.7793,-101.5157 71.7793,-91.0935 71.7793,-83.831"/>
<polygon fill="#191970" stroke="#191970" points="68.2794,-111.352 71.7793,-121.3521 75.2794,-111.3521 68.2794,-111.352"/>
</g>
<!-- Node4 -->
<g id="node4" class="node">
<title>Node4</title>
<g id="a_node4"><a xlink:href="classindigox_1_1graph_1_1_base_graph.html" target="_top" xlink:title="Template base class for all graphs used in the indigoX library. ">
<polygon fill="#ffffff" stroke="#000000" points="17.6855,-206.5 17.6855,-234.5 125.873,-234.5 125.873,-206.5 17.6855,-206.5"/>
<text text-anchor="start" x="25.6855" y="-222.5" font-family="Helvetica,sans-Serif" font-size="10.00" fill="#000000">BaseGraph&lt; V, E, S,</text>
<text text-anchor="middle" x="71.7793" y="-212.5" font-family="Helvetica,sans-Serif" font-size="10.00" fill="#000000"> D, VP, EP &gt;</text>
</a>
</g>
</g>
<!-- Node4&#45;&gt;Node3 -->
<g id="edge3" class="edge">
<title>Node4&#45;&gt;Node3</title>
<path fill="none" stroke="#ffa500" stroke-dasharray="5,2" d="M71.7793,-196.2752C71.7793,-181.1607 71.7793,-162.2369 71.7793,-149.5569"/>
<polygon fill="#ffa500" stroke="#ffa500" points="68.2794,-196.4639 71.7793,-206.464 75.2794,-196.464 68.2794,-196.4639"/>
<text text-anchor="start" x="71.7793" y="-180" font-family="Helvetica,sans-Serif" font-size="10.00" fill="#000000"> &lt; MGVertex, MGEdge,</text>
<text text-anchor="middle" x="123.6079" y="-170" font-family="Helvetica,sans-Serif" font-size="10.00" fill="#000000"> MolecularGraph &gt;</text>
</g>
<!-- Node5 -->
<g id="node5" class="node">
<title>Node5</title>
<g id="a_node5"><a xlink:href="classindigox_1_1_molecule.html" target="_top" xlink:title="Molecule">
<polygon fill="#ffffff" stroke="#000000" points="133.7695,-65.5 133.7695,-83.5 189.7891,-83.5 189.7891,-65.5 133.7695,-65.5"/>
<text text-anchor="middle" x="161.7793" y="-71.5" font-family="Helvetica,sans-Serif" font-size="10.00" fill="#000000">Molecule</text>
</a>
</g>
</g>
<!-- Node5&#45;&gt;Node1 -->
<g id="edge4" class="edge">
<title>Node5&#45;&gt;Node1</title>
<path fill="none" stroke="#9a32cd" stroke-dasharray="5,2" d="M151.898,-56.2737C148.2982,-50.0227 144.0573,-43.075 139.7793,-37 135.264,-30.588 129.6217,-23.826 125.0557,-18.6118"/>
<polygon fill="#9a32cd" stroke="#9a32cd" points="149.007,-58.2753 156.9403,-65.2977 155.1178,-54.8608 149.007,-58.2753"/>
<text text-anchor="middle" x="167.1782" y="-39" font-family="Helvetica,sans-Serif" font-size="10.00" fill="#000000"> molecule</text>
</g>
</g>
</svg>
