<?xml version="1.0" encoding="UTF-8" standalone="no"?>
<!DOCTYPE svg PUBLIC "-//W3C//DTD SVG 1.1//EN"
 "http://www.w3.org/Graphics/SVG/1.1/DTD/svg11.dtd">
<!-- Generated by graphviz version 2.40.1 (20161225.0304)
 -->
<!-- Title: Atom::Impl Pages: 1 -->
<!--zoomable 232 -->
<svg id="main" version="1.1" xmlns="http://www.w3.org/2000/svg" xmlns:xlink="http://www.w3.org/1999/xlink" xml:space="preserve" onload="init(evt)">
<style type="text/css"><![CDATA[
.edge:hover path { stroke: red; }
.edge:hover polygon { stroke: red; fill: red; }
]]></style>
<script type="text/javascript"><![CDATA[
var edges = document.getElementsByTagName('g');
if (edges && edges.length) {
  for (var i=0;i<edges.length;i++) {
    if (edges[i].id.substr(0,4)=='edge') {
      edges[i].setAttribute('class','edge');
    }
  }
}
]]></script>
        <defs>
                <circle id="rim" cx="0" cy="0" r="7"/>
                <circle id="rim2" cx="0" cy="0" r="3.5"/>
                <g id="zoomPlus">
                        <use xlink:href="#rim" fill="#404040">
                                <set attributeName="fill" to="#808080" begin="zoomplus.mouseover" end="zoomplus.mouseout"/>
                        </use>
                        <path d="M-4,0h8M0,-4v8" fill="none" stroke="white" stroke-width="1.5" pointer-events="none"/>
                </g>
                <g id="zoomMin">
                        <use xlink:href="#rim" fill="#404040">
                                <set attributeName="fill" to="#808080" begin="zoomminus.mouseover" end="zoomminus.mouseout"/>
                        </use>
                        <path d="M-4,0h8" fill="none" stroke="white" stroke-width="1.5" pointer-events="none"/>
                </g>
                <g id="dirArrow">
                        <path fill="none" stroke="white" stroke-width="1.5" d="M0,-3.0v7 M-2.5,-0.5L0,-3.0L2.5,-0.5"/>
                </g>
               <g id="resetDef">
                       <use xlink:href="#rim2" fill="#404040">
                               <set attributeName="fill" to="#808080" begin="reset.mouseover" end="reset.mouseout"/>
                       </use>
               </g>
        </defs>

<script type="text/javascript">
var viewWidth = 636;
var viewHeight = 232;
var sectionId = 'dynsection-0';
</script>
<script xlink:href="svgpan.js"/>
<svg id="graph" class="graph">
<g id="viewport">
<title>Atom::Impl</title>
<polygon fill="#ffffff" stroke="transparent" points="-4,4 -4,-228 631.6055,-228 631.6055,4 -4,4"/>
<!-- Node1 -->
<g id="node1" class="node">
<title>Node1</title>
<g id="a_node1"><a xlink:title=" ">
<polygon fill="#bfbfbf" stroke="#000000" points="302.894,-.5 302.894,-18.5 366.6821,-18.5 366.6821,-.5 302.894,-.5"/>
<text text-anchor="middle" x="334.7881" y="-6.5" font-family="Helvetica,sans-Serif" font-size="10.00" fill="#000000">Atom::Impl</text>
</a>
</g>
</g>
<!-- Node2 -->
<g id="node2" class="node">
<title>Node2</title>
<g id="a_node2"><a xlink:title=" ">
<polygon fill="#ffffff" stroke="#bfbfbf" points="10.0396,-75.5 10.0396,-93.5 95.5366,-93.5 95.5366,-75.5 10.0396,-75.5"/>
<text text-anchor="middle" x="52.7881" y="-81.5" font-family="Helvetica,sans-Serif" font-size="10.00" fill="#000000">vector&lt; Angle &gt;</text>
</a>
</g>
</g>
<!-- Node2&#45;&gt;Node1 -->
<g id="edge1" class="edge">
<title>Node2&#45;&gt;Node1</title>
<path fill="none" stroke="#9a32cd" stroke-dasharray="5,2" d="M75.935,-70.2623C94.5955,-59.4445 121.8676,-45.0901 147.542,-37 200.3461,-20.3613 264.7595,-13.712 302.6231,-11.1104"/>
<polygon fill="#9a32cd" stroke="#9a32cd" points="74.0861,-67.2895 67.2636,-75.3953 77.6518,-73.3133 74.0861,-67.2895"/>
<text text-anchor="middle" x="163.9111" y="-44" font-family="Helvetica,sans-Serif" font-size="10.00" fill="#000000"> angles</text>
</g>
<!-- Node3 -->
<g id="node3" class="node">
<title>Node3</title>
<g id="a_node3"><a xlink:href="classindigox_1_1_angle.html" target="_top" xlink:title=" ">
<polygon fill="#ffffff" stroke="#000000" points="0,-140.5 0,-158.5 41.5762,-158.5 41.5762,-140.5 0,-140.5"/>
<text text-anchor="middle" x="20.7881" y="-146.5" font-family="Helvetica,sans-Serif" font-size="10.00" fill="#000000">Angle</text>
</a>
</g>
</g>
<!-- Node3&#45;&gt;Node2 -->
<g id="edge2" class="edge">
<title>Node3&#45;&gt;Node2</title>
<path fill="none" stroke="#9a32cd" stroke-dasharray="5,2" d="M18.1464,-130.3191C18.0729,-124.2234 18.8324,-117.6123 21.4336,-112 24.9046,-104.511 31.5019,-98.2386 37.7529,-93.5843"/>
<polygon fill="#9a32cd" stroke="#9a32cd" points="14.6674,-130.7216 18.9605,-140.4076 21.6447,-130.1585 14.6674,-130.7216"/>
<text text-anchor="middle" x="43.4653" y="-114" font-family="Helvetica,sans-Serif" font-size="10.00" fill="#000000"> elements</text>
</g>
<!-- Node4 -->
<g id="node4" class="node">
<title>Node4</title>
<g id="a_node4"><a xlink:title="STL class.">
<polygon fill="#ffffff" stroke="#bfbfbf" points="121.6758,-140.5 121.6758,-158.5 187.9004,-158.5 187.9004,-140.5 121.6758,-140.5"/>
<text text-anchor="middle" x="154.7881" y="-146.5" font-family="Helvetica,sans-Serif" font-size="10.00" fill="#000000">vector&lt; T &gt;</text>
</a>
</g>
</g>
<!-- Node4&#45;&gt;Node2 -->
<g id="edge3" class="edge">
<title>Node4&#45;&gt;Node2</title>
<path fill="none" stroke="#ffa500" stroke-dasharray="5,2" d="M126.694,-135.6911C118.8021,-131.5355 110.3124,-126.798 102.7441,-122 88.8223,-113.1741 73.8212,-101.6087 63.9304,-93.6685"/>
<polygon fill="#ffa500" stroke="#ffa500" points="125.0996,-138.8069 135.5928,-140.2709 128.3029,-132.5827 125.0996,-138.8069"/>
<text text-anchor="middle" x="125.3101" y="-114" font-family="Helvetica,sans-Serif" font-size="10.00" fill="#000000"> &lt; Angle &gt;</text>
</g>
<!-- Node7 -->
<g id="node7" class="node">
<title>Node7</title>
<g id="a_node7"><a xlink:title=" ">
<polygon fill="#ffffff" stroke="#bfbfbf" points="183.877,-75.5 183.877,-93.5 267.6992,-93.5 267.6992,-75.5 183.877,-75.5"/>
<text text-anchor="middle" x="225.7881" y="-81.5" font-family="Helvetica,sans-Serif" font-size="10.00" fill="#000000">vector&lt; Bond &gt;</text>
</a>
</g>
</g>
<!-- Node4&#45;&gt;Node7 -->
<g id="edge8" class="edge">
<title>Node4&#45;&gt;Node7</title>
<path fill="none" stroke="#ffa500" stroke-dasharray="5,2" d="M151.0391,-129.928C150.8648,-123.723 151.8414,-117.1457 155.4189,-112 160.0612,-105.3229 176.7163,-98.6622 192.6575,-93.5686"/>
<polygon fill="#ffa500" stroke="#ffa500" points="147.6176,-130.7929 152.2826,-140.3054 154.5679,-129.96 147.6176,-130.7929"/>
<text text-anchor="middle" x="177.4727" y="-114" font-family="Helvetica,sans-Serif" font-size="10.00" fill="#000000"> &lt; Bond &gt;</text>
</g>
<!-- Node12 -->
<g id="node12" class="node">
<title>Node12</title>
<g id="a_node12"><a xlink:title=" ">
<polygon fill="#ffffff" stroke="#bfbfbf" points="285.9336,-75.5 285.9336,-93.5 383.6426,-93.5 383.6426,-75.5 285.9336,-75.5"/>
<text text-anchor="middle" x="334.7881" y="-81.5" font-family="Helvetica,sans-Serif" font-size="10.00" fill="#000000">vector&lt; Dihedral &gt;</text>
</a>
</g>
</g>
<!-- Node4&#45;&gt;Node12 -->
<g id="edge14" class="edge">
<title>Node4&#45;&gt;Node12</title>
<path fill="none" stroke="#ffa500" stroke-dasharray="5,2" d="M178.5124,-134.8419C194.4789,-125.0606 213.3529,-113.6913 217.5322,-112 239.2405,-103.2151 264.3975,-96.8533 285.8305,-92.4759"/>
<polygon fill="#ffa500" stroke="#ffa500" points="176.267,-132.1137 169.5807,-140.3323 179.9328,-138.0771 176.267,-132.1137"/>
<text text-anchor="middle" x="245.416" y="-114" font-family="Helvetica,sans-Serif" font-size="10.00" fill="#000000"> &lt; Dihedral &gt;</text>
</g>
<!-- Node5 -->
<g id="node5" class="node">
<title>Node5</title>
<g id="a_node5"><a xlink:title=" ">
<polygon fill="#ffffff" stroke="#bfbfbf" points="140.2881,-205.5 140.2881,-223.5 169.2881,-223.5 169.2881,-205.5 140.2881,-205.5"/>
<text text-anchor="middle" x="154.3423" y="-211.5" font-family="Helvetica,sans-Serif" font-size="10.00" fill="#000000">T</text>
</a>
</g>
</g>
<!-- Node5&#45;&gt;Node4 -->
<g id="edge4" class="edge">
<title>Node5&#45;&gt;Node4</title>
<path fill="none" stroke="#9a32cd" stroke-dasharray="5,2" d="M154.7881,-195.1265C154.7881,-183.1522 154.7881,-168.3205 154.7881,-158.8821"/>
<polygon fill="#9a32cd" stroke="#9a32cd" points="151.2882,-195.462 154.7881,-205.462 158.2882,-195.4621 151.2882,-195.462"/>
<text text-anchor="middle" x="176.4653" y="-179" font-family="Helvetica,sans-Serif" font-size="10.00" fill="#000000"> elements</text>
</g>
<!-- Node6 -->
<g id="node6" class="node">
<title>Node6</title>
<g id="a_node6"><a xlink:href="classindigox_1_1_element.html" target="_top" xlink:title="Read only class for storing elemental information.">
<polygon fill="#ffffff" stroke="#000000" points="113.4458,-75.5 113.4458,-93.5 166.1304,-93.5 166.1304,-75.5 113.4458,-75.5"/>
<text text-anchor="middle" x="139.7881" y="-81.5" font-family="Helvetica,sans-Serif" font-size="10.00" fill="#000000">Element</text>
</a>
</g>
</g>
<!-- Node6&#45;&gt;Node1 -->
<g id="edge5" class="edge">
<title>Node6&#45;&gt;Node1</title>
<path fill="none" stroke="#9a32cd" stroke-dasharray="5,2" d="M161.7554,-70.0124C178.384,-59.5902 202.0995,-45.8636 224.4336,-37 249.9432,-26.8762 280.2852,-19.6388 302.6912,-15.138"/>
<polygon fill="#9a32cd" stroke="#9a32cd" points="159.8453,-67.0793 153.3001,-75.4106 163.6123,-72.9794 159.8453,-67.0793"/>
<text text-anchor="middle" x="242.9653" y="-44" font-family="Helvetica,sans-Serif" font-size="10.00" fill="#000000"> element</text>
</g>
<!-- Node7&#45;&gt;Node1 -->
<g id="edge6" class="edge">
<title>Node7&#45;&gt;Node1</title>
<path fill="none" stroke="#9a32cd" stroke-dasharray="5,2" d="M247.5848,-69.5022C269.7259,-54.2676 303.2937,-31.1704 321.6537,-18.5374"/>
<polygon fill="#9a32cd" stroke="#9a32cd" points="245.4079,-66.7516 239.1536,-75.3035 249.3758,-72.5184 245.4079,-66.7516"/>
<text text-anchor="middle" x="307.8003" y="-44" font-family="Helvetica,sans-Serif" font-size="10.00" fill="#000000"> bonds</text>
</g>
<!-- Node8 -->
<g id="node8" class="node">
<title>Node8</title>
<g id="a_node8"><a xlink:href="classindigox_1_1_bond.html" target="_top" xlink:title=" ">
<polygon fill="#ffffff" stroke="#000000" points="281.1108,-140.5 281.1108,-158.5 320.4653,-158.5 320.4653,-140.5 281.1108,-140.5"/>
<text text-anchor="middle" x="300.7881" y="-146.5" font-family="Helvetica,sans-Serif" font-size="10.00" fill="#000000">Bond</text>
</a>
</g>
</g>
<!-- Node8&#45;&gt;Node7 -->
<g id="edge7" class="edge">
<title>Node8&#45;&gt;Node7</title>
<path fill="none" stroke="#9a32cd" stroke-dasharray="5,2" d="M292.6968,-131.1527C289.1314,-124.5337 284.452,-117.3772 278.7881,-112 270.5936,-104.2204 259.7689,-98.0801 250.0393,-93.5936"/>
<polygon fill="#9a32cd" stroke="#9a32cd" points="289.5783,-132.7429 297.1084,-140.1959 295.8696,-129.6738 289.5783,-132.7429"/>
<text text-anchor="middle" x="308.4653" y="-114" font-family="Helvetica,sans-Serif" font-size="10.00" fill="#000000"> elements</text>
</g>
<!-- Node9 -->
<g id="node9" class="node">
<title>Node9</title>
<g id="a_node9"><a xlink:title="STL class.">
<polygon fill="#ffffff" stroke="#bfbfbf" points="475.5615,-75.5 475.5615,-93.5 516.0146,-93.5 516.0146,-75.5 475.5615,-75.5"/>
<text text-anchor="middle" x="495.7881" y="-81.5" font-family="Helvetica,sans-Serif" font-size="10.00" fill="#000000">string</text>
</a>
</g>
</g>
<!-- Node9&#45;&gt;Node1 -->
<g id="edge9" class="edge">
<title>Node9&#45;&gt;Node1</title>
<path fill="none" stroke="#9a32cd" stroke-dasharray="5,2" d="M483.3922,-67.0106C475.2491,-56.7824 463.7306,-44.4551 450.7881,-37 424.8726,-22.0724 391.2548,-15.2349 366.8868,-12.1107"/>
<polygon fill="#9a32cd" stroke="#9a32cd" points="480.815,-69.4061 489.6303,-75.2833 486.4041,-65.1916 480.815,-69.4061"/>
<text text-anchor="middle" x="506.8643" y="-49" font-family="Helvetica,sans-Serif" font-size="10.00" fill="#000000"> residue_name</text>
<text text-anchor="middle" x="506.8643" y="-39" font-family="Helvetica,sans-Serif" font-size="10.00" fill="#000000">name</text>
</g>
<!-- Node10 -->
<g id="node10" class="node">
<title>Node10</title>
<g id="a_node10"><a xlink:title="STL class.">
<polygon fill="#ffffff" stroke="#bfbfbf" points="442.7637,-140.5 442.7637,-158.5 548.8125,-158.5 548.8125,-140.5 442.7637,-140.5"/>
<text text-anchor="middle" x="495.7881" y="-146.5" font-family="Helvetica,sans-Serif" font-size="10.00" fill="#000000">basic_string&lt; char &gt;</text>
</a>
</g>
</g>
<!-- Node10&#45;&gt;Node9 -->
<g id="edge10" class="edge">
<title>Node10&#45;&gt;Node9</title>
<path fill="none" stroke="#191970" d="M495.7881,-130.1265C495.7881,-118.1522 495.7881,-103.3205 495.7881,-93.8821"/>
<polygon fill="#191970" stroke="#191970" points="492.2882,-130.462 495.7881,-140.462 499.2882,-130.4621 492.2882,-130.462"/>
</g>
<!-- Node11 -->
<g id="node11" class="node">
<title>Node11</title>
<g id="a_node11"><a xlink:href="classindigox_1_1_molecule.html" target="_top" xlink:title=" ">
<polygon fill="#ffffff" stroke="#000000" points="401.7783,-75.5 401.7783,-93.5 457.7979,-93.5 457.7979,-75.5 401.7783,-75.5"/>
<text text-anchor="middle" x="429.7881" y="-81.5" font-family="Helvetica,sans-Serif" font-size="10.00" fill="#000000">Molecule</text>
</a>
</g>
</g>
<!-- Node11&#45;&gt;Node1 -->
<g id="edge11" class="edge">
<title>Node11&#45;&gt;Node1</title>
<path fill="none" stroke="#9a32cd" stroke-dasharray="5,2" d="M415.0707,-67.9822C406.0075,-58.3274 393.848,-46.2593 381.7881,-37 372.7897,-30.0913 361.9002,-23.617 352.8696,-18.6879"/>
<polygon fill="#9a32cd" stroke="#9a32cd" points="412.5459,-70.4075 421.8853,-75.41 417.7039,-65.6752 412.5459,-70.4075"/>
<text text-anchor="middle" x="425.187" y="-44" font-family="Helvetica,sans-Serif" font-size="10.00" fill="#000000"> molecule</text>
</g>
<!-- Node12&#45;&gt;Node1 -->
<g id="edge12" class="edge">
<title>Node12&#45;&gt;Node1</title>
<path fill="none" stroke="#9a32cd" stroke-dasharray="5,2" d="M334.7881,-65.1079C334.7881,-50.2042 334.7881,-30.2791 334.7881,-18.7717"/>
<polygon fill="#9a32cd" stroke="#9a32cd" points="331.2882,-65.3035 334.7881,-75.3035 338.2882,-65.3036 331.2882,-65.3035"/>
<text text-anchor="middle" x="356.4678" y="-44" font-family="Helvetica,sans-Serif" font-size="10.00" fill="#000000"> dihedrals</text>
</g>
<!-- Node13 -->
<g id="node13" class="node">
<title>Node13</title>
<g id="a_node13"><a xlink:href="classindigox_1_1_dihedral.html" target="_top" xlink:title=" ">
<polygon fill="#ffffff" stroke="#000000" points="340.1675,-140.5 340.1675,-158.5 393.4087,-158.5 393.4087,-140.5 340.1675,-140.5"/>
<text text-anchor="middle" x="366.7881" y="-146.5" font-family="Helvetica,sans-Serif" font-size="10.00" fill="#000000">Dihedral</text>
</a>
</g>
</g>
<!-- Node13&#45;&gt;Node12 -->
<g id="edge13" class="edge">
<title>Node13&#45;&gt;Node12</title>
<path fill="none" stroke="#9a32cd" stroke-dasharray="5,2" d="M357.7931,-131.229C351.8095,-119.0748 344.1973,-103.6124 339.407,-93.8821"/>
<polygon fill="#9a32cd" stroke="#9a32cd" points="354.7816,-133.0362 362.3386,-140.462 361.0618,-129.9444 354.7816,-133.0362"/>
<text text-anchor="middle" x="373.4653" y="-114" font-family="Helvetica,sans-Serif" font-size="10.00" fill="#000000"> elements</text>
</g>
<!-- Node14 -->
<g id="node14" class="node">
<title>Node14</title>
<g id="a_node14"><a xlink:href="classindigox_1_1_f_f_atom.html" target="_top" xlink:title=" ">
<polygon fill="#ffffff" stroke="#000000" points="546.2832,-75.5 546.2832,-93.5 597.293,-93.5 597.293,-75.5 546.2832,-75.5"/>
<text text-anchor="middle" x="571.7881" y="-81.5" font-family="Helvetica,sans-Serif" font-size="10.00" fill="#000000">FFAtom</text>
</a>
</g>
</g>
<!-- Node14&#45;&gt;Node1 -->
<g id="edge15" class="edge">
<title>Node14&#45;&gt;Node1</title>
<path fill="none" stroke="#9a32cd" stroke-dasharray="5,2" d="M565.556,-66.0591C561.1162,-55.8217 554.0868,-43.8137 543.7881,-37 515.4026,-18.22 417.9351,-12.2126 366.7549,-10.3315"/>
<polygon fill="#9a32cd" stroke="#9a32cd" points="562.3083,-67.3652 569.1578,-75.4482 568.8439,-64.858 562.3083,-67.3652"/>
<text text-anchor="middle" x="593.6968" y="-44" font-family="Helvetica,sans-Serif" font-size="10.00" fill="#000000"> forcefield_type</text>
</g>
</g>
</svg>
        <g id="navigator" transform="translate(0 0)" fill="#404254">
                <rect fill="#f2f5e9" fill-opacity="0.5" stroke="#606060" stroke-width=".5" x="0" y="0" width="60" height="60"/>
                <use id="zoomplus" xlink:href="#zoomPlus" x="17" y="9" onmousedown="handleZoom(evt,'in')"/>
                <use id="zoomminus" xlink:href="#zoomMin" x="42" y="9" onmousedown="handleZoom(evt,'out')"/>
                <use id="reset" xlink:href="#resetDef" x="30" y="36" onmousedown="handleReset()"/>
                <g id="arrowUp" xlink:href="#dirArrow" transform="translate(30 24)" onmousedown="handlePan(0,-1)">
                  <use xlink:href="#rim" fill="#404040">
                        <set attributeName="fill" to="#808080" begin="arrowUp.mouseover" end="arrowUp.mouseout"/>
                  </use>
                  <path fill="none" stroke="white" stroke-width="1.5" d="M0,-3.0v7 M-2.5,-0.5L0,-3.0L2.5,-0.5"/>
                </g>
                <g id="arrowRight" xlink:href="#dirArrow" transform="rotate(90) translate(36 -43)" onmousedown="handlePan(1,0)">
                  <use xlink:href="#rim" fill="#404040">
                        <set attributeName="fill" to="#808080" begin="arrowRight.mouseover" end="arrowRight.mouseout"/>
                  </use>
                  <path fill="none" stroke="white" stroke-width="1.5" d="M0,-3.0v7 M-2.5,-0.5L0,-3.0L2.5,-0.5"/>
                </g>
                <g id="arrowDown" xlink:href="#dirArrow" transform="rotate(180) translate(-30 -48)" onmousedown="handlePan(0,1)">
                  <use xlink:href="#rim" fill="#404040">
                        <set attributeName="fill" to="#808080" begin="arrowDown.mouseover" end="arrowDown.mouseout"/>
                  </use>
                  <path fill="none" stroke="white" stroke-width="1.5" d="M0,-3.0v7 M-2.5,-0.5L0,-3.0L2.5,-0.5"/>
                </g>
                <g id="arrowLeft" xlink:href="#dirArrow" transform="rotate(270) translate(-36 17)" onmousedown="handlePan(-1,0)">
                  <use xlink:href="#rim" fill="#404040">
                        <set attributeName="fill" to="#808080" begin="arrowLeft.mouseover" end="arrowLeft.mouseout"/>
                  </use>
                  <path fill="none" stroke="white" stroke-width="1.5" d="M0,-3.0v7 M-2.5,-0.5L0,-3.0L2.5,-0.5"/>
                </g>
        </g>
        <svg viewBox="0 0 15 15" width="100%" height="30px" preserveAspectRatio="xMaxYMin meet">
         <g id="arrow_out" transform="scale(0.3 0.3)">
          <a xlink:href="structindigox_1_1_atom_1_1_impl__coll__graph_org.svg" target="_base">
           <rect id="button" ry="5" rx="5" y="6" x="6" height="38" width="38"
                fill="#f2f5e9" fill-opacity="0.5" stroke="#606060" stroke-width="1.0"/>
           <path id="arrow"
             d="M 11.500037,31.436501 C 11.940474,20.09759 22.043105,11.32322 32.158766,21.979434 L 37.068811,17.246167 C 37.068811,17.246167 37.088388,32 37.088388,32 L 22.160133,31.978069 C 22.160133,31.978069 26.997745,27.140456 26.997745,27.140456 C 18.528582,18.264221 13.291696,25.230495 11.500037,31.436501 z"
             style="fill:#404040;"/>
          </a>
         </g>
        </svg>
</svg>
