<?xml version="1.0" encoding="UTF-8" standalone="no"?>
<!DOCTYPE svg PUBLIC "-//W3C//DTD SVG 1.1//EN"
 "http://www.w3.org/Graphics/SVG/1.1/DTD/svg11.dtd">
<!-- Generated by graphviz version 2.40.1 (20161225.0304)
 -->
<!-- Title: CMGVertex::CMGVertexData Pages: 1 -->
<svg width="447pt" height="262pt"
 viewBox="0.00 0.00 446.92 262.00" xmlns="http://www.w3.org/2000/svg" xmlns:xlink="http://www.w3.org/1999/xlink">
<g id="graph0" class="graph" transform="scale(1 1) rotate(0) translate(4 258)">
<title>CMGVertex::CMGVertexData</title>
<polygon fill="#ffffff" stroke="transparent" points="-4,4 -4,-258 442.9229,-258 442.9229,4 -4,4"/>
<!-- Node1 -->
<g id="node1" class="node">
<title>Node1</title>
<polygon fill="#bfbfbf" stroke="#000000" points="75.207,-.5 75.207,-18.5 221.2559,-18.5 221.2559,-.5 75.207,-.5"/>
<text text-anchor="middle" x="148.2314" y="-6.5" font-family="Helvetica,sans-Serif" font-size="10.00" fill="#000000">CMGVertex::CMGVertexData</text>
</g>
<!-- Node2 -->
<g id="node2" class="node">
<title>Node2</title>
<g id="a_node2"><a xlink:href="classindigox_1_1graph_1_1_m_g_vertex.html" target="_top" xlink:title="Class for the vertices of a IXMolecularGraph. ">
<polygon fill="#ffffff" stroke="#000000" points="0,-65.5 0,-83.5 60.4629,-83.5 60.4629,-65.5 0,-65.5"/>
<text text-anchor="middle" x="30.2314" y="-71.5" font-family="Helvetica,sans-Serif" font-size="10.00" fill="#000000">MGVertex</text>
</a>
</g>
</g>
<!-- Node2&#45;&gt;Node1 -->
<g id="edge1" class="edge">
<title>Node2&#45;&gt;Node1</title>
<path fill="none" stroke="#9a32cd" stroke-dasharray="5,2" d="M55.4933,-60.5846C78.4843,-47.9201 111.7701,-29.5847 131.583,-18.6708"/>
<polygon fill="#9a32cd" stroke="#9a32cd" points="53.7091,-57.5714 46.6388,-65.462 57.0866,-63.7028 53.7091,-57.5714"/>
<text text-anchor="middle" x="113.6279" y="-39" font-family="Helvetica,sans-Serif" font-size="10.00" fill="#000000"> source</text>
</g>
<!-- Node3 -->
<g id="node3" class="node">
<title>Node3</title>
<polygon fill="#ffffff" stroke="#bfbfbf" points="78.2441,-65.5 78.2441,-83.5 218.2188,-83.5 218.2188,-65.5 78.2441,-65.5"/>
<text text-anchor="middle" x="148.2314" y="-71.5" font-family="Helvetica,sans-Serif" font-size="10.00" fill="#000000">vector&lt; CondensedVertex &gt;</text>
</g>
<!-- Node3&#45;&gt;Node1 -->
<g id="edge2" class="edge">
<title>Node3&#45;&gt;Node1</title>
<path fill="none" stroke="#9a32cd" stroke-dasharray="5,2" d="M148.2314,-55.1265C148.2314,-43.1522 148.2314,-28.3205 148.2314,-18.8821"/>
<polygon fill="#9a32cd" stroke="#9a32cd" points="144.7315,-55.462 148.2314,-65.462 151.7315,-55.4621 144.7315,-55.462"/>
<text text-anchor="middle" x="174.0859" y="-39" font-family="Helvetica,sans-Serif" font-size="10.00" fill="#000000"> condensed</text>
</g>
<!-- Node4 -->
<g id="node4" class="node">
<title>Node4</title>
<g id="a_node4"><a xlink:title="STL class. ">
<polygon fill="#ffffff" stroke="#bfbfbf" points="115.1191,-140.5 115.1191,-158.5 181.3438,-158.5 181.3438,-140.5 115.1191,-140.5"/>
<text text-anchor="middle" x="148.2314" y="-146.5" font-family="Helvetica,sans-Serif" font-size="10.00" fill="#000000">vector&lt; T &gt;</text>
</a>
</g>
</g>
<!-- Node4&#45;&gt;Node3 -->
<g id="edge3" class="edge">
<title>Node4&#45;&gt;Node3</title>
<path fill="none" stroke="#ffa500" stroke-dasharray="5,2" d="M148.2314,-130.1079C148.2314,-115.2042 148.2314,-95.2791 148.2314,-83.7717"/>
<polygon fill="#ffa500" stroke="#ffa500" points="144.7315,-130.3035 148.2314,-140.3035 151.7315,-130.3036 144.7315,-130.3035"/>
<text text-anchor="middle" x="197.9922" y="-104" font-family="Helvetica,sans-Serif" font-size="10.00" fill="#000000"> &lt; CondensedVertex &gt;</text>
</g>
<!-- Node5 -->
<g id="node5" class="node">
<title>Node5</title>
<polygon fill="#ffffff" stroke="#bfbfbf" points="133.7314,-230.5 133.7314,-248.5 162.7314,-248.5 162.7314,-230.5 133.7314,-230.5"/>
<text text-anchor="middle" x="147.7856" y="-236.5" font-family="Helvetica,sans-Serif" font-size="10.00" fill="#000000">T</text>
</g>
<!-- Node5&#45;&gt;Node4 -->
<g id="edge4" class="edge">
<title>Node5&#45;&gt;Node4</title>
<path fill="none" stroke="#9a32cd" stroke-dasharray="5,2" d="M148.2314,-219.9892C148.2314,-200.9794 148.2314,-172.9146 148.2314,-158.608"/>
<polygon fill="#9a32cd" stroke="#9a32cd" points="144.7315,-220.2074 148.2314,-230.2074 151.7315,-220.2074 144.7315,-220.2074"/>
<text text-anchor="middle" x="169.9087" y="-194" font-family="Helvetica,sans-Serif" font-size="10.00" fill="#000000"> elements</text>
</g>
<!-- Node6 -->
<g id="node6" class="node">
<title>Node6</title>
<g id="a_node6"><a xlink:href="classindigox_1_1graph_1_1_condensed_molecular_graph.html" target="_top" xlink:title="CondensedMolecularGraph">
<polygon fill="#ffffff" stroke="#000000" points="236.084,-65.5 236.084,-83.5 374.3789,-83.5 374.3789,-65.5 236.084,-65.5"/>
<text text-anchor="middle" x="305.2314" y="-71.5" font-family="Helvetica,sans-Serif" font-size="10.00" fill="#000000">CondensedMolecularGraph</text>
</a>
</g>
</g>
<!-- Node6&#45;&gt;Node1 -->
<g id="edge5" class="edge">
<title>Node6&#45;&gt;Node1</title>
<path fill="none" stroke="#9a32cd" stroke-dasharray="5,2" d="M274.0096,-61.5737C243.2814,-48.8519 197.1504,-29.7531 170.1287,-18.5658"/>
<polygon fill="#9a32cd" stroke="#9a32cd" points="272.823,-64.8705 283.4013,-65.462 275.5007,-58.4029 272.823,-64.8705"/>
<text text-anchor="middle" x="250.4087" y="-39" font-family="Helvetica,sans-Serif" font-size="10.00" fill="#000000"> graph</text>
</g>
<!-- Node7 -->
<g id="node7" class="node">
<title>Node7</title>
<g id="a_node7"><a xlink:href="classindigox_1_1graph_1_1_base_graph.html" target="_top" xlink:title="BaseGraph\&lt; CMGVertex,\l CMGEdge, CondensedMolecular\lGraph \&gt;">
<polygon fill="#ffffff" stroke="#000000" points="222.4707,-130.5 222.4707,-168.5 387.9922,-168.5 387.9922,-130.5 222.4707,-130.5"/>
<text text-anchor="start" x="230.4707" y="-156.5" font-family="Helvetica,sans-Serif" font-size="10.00" fill="#000000">BaseGraph&lt; CMGVertex,</text>
<text text-anchor="start" x="230.4707" y="-146.5" font-family="Helvetica,sans-Serif" font-size="10.00" fill="#000000"> CMGEdge, CondensedMolecular</text>
<text text-anchor="middle" x="305.2314" y="-136.5" font-family="Helvetica,sans-Serif" font-size="10.00" fill="#000000">Graph &gt;</text>
</a>
</g>
</g>
<!-- Node7&#45;&gt;Node6 -->
<g id="edge6" class="edge">
<title>Node7&#45;&gt;Node6</title>
<path fill="none" stroke="#191970" d="M305.2314,-119.801C305.2314,-106.909 305.2314,-92.73 305.2314,-83.7294"/>
<polygon fill="#191970" stroke="#191970" points="301.7315,-120.1856 305.2314,-130.1856 308.7315,-120.1857 301.7315,-120.1856"/>
</g>
<!-- Node8 -->
<g id="node8" class="node">
<title>Node8</title>
<g id="a_node8"><a xlink:href="classindigox_1_1graph_1_1_base_graph.html" target="_top" xlink:title="Template base class for all graphs used in the indigoX library. ">
<polygon fill="#ffffff" stroke="#000000" points="251.1377,-225.5 251.1377,-253.5 359.3252,-253.5 359.3252,-225.5 251.1377,-225.5"/>
<text text-anchor="start" x="259.1377" y="-241.5" font-family="Helvetica,sans-Serif" font-size="10.00" fill="#000000">BaseGraph&lt; V, E, S,</text>
<text text-anchor="middle" x="305.2314" y="-231.5" font-family="Helvetica,sans-Serif" font-size="10.00" fill="#000000"> D, VP, EP &gt;</text>
</a>
</g>
</g>
<!-- Node8&#45;&gt;Node7 -->
<g id="edge7" class="edge">
<title>Node8&#45;&gt;Node7</title>
<path fill="none" stroke="#ffa500" stroke-dasharray="5,2" d="M305.2314,-215.1632C305.2314,-200.6073 305.2314,-182.367 305.2314,-168.8073"/>
<polygon fill="#ffa500" stroke="#ffa500" points="301.7315,-215.4375 305.2314,-225.4375 308.7315,-215.4375 301.7315,-215.4375"/>
<text text-anchor="start" x="305.2314" y="-199" font-family="Helvetica,sans-Serif" font-size="10.00" fill="#000000"> &lt; CMGVertex, CMGEdge,</text>
<text text-anchor="middle" x="372.0771" y="-189" font-family="Helvetica,sans-Serif" font-size="10.00" fill="#000000"> CondensedMolecularGraph &gt;</text>
</g>
</g>
</svg>
