<?xml version="1.0" encoding="UTF-8" standalone="no"?>
<!DOCTYPE svg PUBLIC "-//W3C//DTD SVG 1.1//EN"
 "http://www.w3.org/Graphics/SVG/1.1/DTD/svg11.dtd">
<!-- Generated by graphviz version 2.40.1 (20161225.0304)
 -->
<!-- Title: Athenaeum::AthenaeumData Pages: 1 -->
<svg width="294pt" height="222pt"
 viewBox="0.00 0.00 293.63 222.00" xmlns="http://www.w3.org/2000/svg" xmlns:xlink="http://www.w3.org/1999/xlink">
<g id="graph0" class="graph" transform="scale(1 1) rotate(0) translate(4 218)">
<title>Athenaeum::AthenaeumData</title>
<polygon fill="#ffffff" stroke="transparent" points="-4,4 -4,-218 289.6299,-218 289.6299,4 -4,4"/>
<!-- Node1 -->
<g id="node1" class="node">
<title>Node1</title>
<polygon fill="#bfbfbf" stroke="#000000" points="97.5225,-.5 97.5225,-18.5 242.4971,-18.5 242.4971,-.5 97.5225,-.5"/>
<text text-anchor="middle" x="170.0098" y="-6.5" font-family="Helvetica,sans-Serif" font-size="10.00" fill="#000000">Athenaeum::AthenaeumData</text>
</g>
<!-- Node2 -->
<g id="node2" class="node">
<title>Node2</title>
<polygon fill="#ffffff" stroke="#bfbfbf" points="30.3623,-65.5 30.3623,-83.5 183.6572,-83.5 183.6572,-65.5 30.3623,-65.5"/>
<text text-anchor="middle" x="107.0098" y="-71.5" font-family="Helvetica,sans-Serif" font-size="10.00" fill="#000000">map&lt; Molecule, FragContain &gt;</text>
</g>
<!-- Node2&#45;&gt;Node1 -->
<g id="edge1" class="edge">
<title>Node2&#45;&gt;Node1</title>
<path fill="none" stroke="#9a32cd" stroke-dasharray="5,2" d="M122.9767,-58.0262C134.9863,-45.6354 151.0139,-29.0989 160.9163,-18.8821"/>
<polygon fill="#9a32cd" stroke="#9a32cd" points="120.2162,-55.8454 115.7696,-65.462 125.2427,-60.7172 120.2162,-55.8454"/>
<text text-anchor="middle" x="166.6304" y="-39" font-family="Helvetica,sans-Serif" font-size="10.00" fill="#000000"> fragments</text>
</g>
<!-- Node3 -->
<g id="node3" class="node">
<title>Node3</title>
<g id="a_node3"><a xlink:href="classindigox_1_1_molecule.html" target="_top" xlink:title="Molecule">
<polygon fill="#ffffff" stroke="#000000" points="0,-130.5 0,-148.5 56.0195,-148.5 56.0195,-130.5 0,-130.5"/>
<text text-anchor="middle" x="28.0098" y="-136.5" font-family="Helvetica,sans-Serif" font-size="10.00" fill="#000000">Molecule</text>
</a>
</g>
</g>
<!-- Node3&#45;&gt;Node2 -->
<g id="edge2" class="edge">
<title>Node3&#45;&gt;Node2</title>
<path fill="none" stroke="#9a32cd" stroke-dasharray="5,2" d="M46.8015,-124.0384C62.083,-111.4651 83.1298,-94.1481 95.8638,-83.6708"/>
<polygon fill="#9a32cd" stroke="#9a32cd" points="44.4927,-121.4056 38.9944,-130.462 48.9403,-126.8111 44.4927,-121.4056"/>
<text text-anchor="middle" x="84.6797" y="-104" font-family="Helvetica,sans-Serif" font-size="10.00" fill="#000000"> keys</text>
</g>
<!-- Node4 -->
<g id="node4" class="node">
<title>Node4</title>
<g id="a_node4"><a xlink:title="STL class. ">
<polygon fill="#ffffff" stroke="#bfbfbf" points="73.8975,-130.5 73.8975,-148.5 140.1221,-148.5 140.1221,-130.5 73.8975,-130.5"/>
<text text-anchor="middle" x="107.0098" y="-136.5" font-family="Helvetica,sans-Serif" font-size="10.00" fill="#000000">vector&lt; T &gt;</text>
</a>
</g>
</g>
<!-- Node4&#45;&gt;Node2 -->
<g id="edge3" class="edge">
<title>Node4&#45;&gt;Node2</title>
<path fill="none" stroke="#9a32cd" stroke-dasharray="5,2" d="M107.0098,-120.1265C107.0098,-108.1522 107.0098,-93.3205 107.0098,-83.8821"/>
<polygon fill="#9a32cd" stroke="#9a32cd" points="103.5099,-120.462 107.0098,-130.462 110.5099,-120.4621 103.5099,-120.462"/>
<text text-anchor="middle" x="128.687" y="-104" font-family="Helvetica,sans-Serif" font-size="10.00" fill="#000000"> elements</text>
</g>
<!-- Node5 -->
<g id="node5" class="node">
<title>Node5</title>
<polygon fill="#ffffff" stroke="#bfbfbf" points="125.5098,-195.5 125.5098,-213.5 154.5098,-213.5 154.5098,-195.5 125.5098,-195.5"/>
<text text-anchor="middle" x="139.564" y="-201.5" font-family="Helvetica,sans-Serif" font-size="10.00" fill="#000000">T</text>
</g>
<!-- Node5&#45;&gt;Node4 -->
<g id="edge4" class="edge">
<title>Node5&#45;&gt;Node4</title>
<path fill="none" stroke="#9a32cd" stroke-dasharray="5,2" d="M117.0938,-189.4414C113.2864,-185.8423 109.8635,-181.6691 107.6553,-177 103.4238,-168.0529 103.9896,-156.5102 105.1477,-148.6085"/>
<polygon fill="#9a32cd" stroke="#9a32cd" points="115.2102,-192.4199 125.1828,-195.9973 119.6177,-186.9817 115.2102,-192.4199"/>
<text text-anchor="middle" x="129.687" y="-169" font-family="Helvetica,sans-Serif" font-size="10.00" fill="#000000"> elements</text>
</g>
<!-- Node6 -->
<g id="node6" class="node">
<title>Node6</title>
<g id="a_node6"><a xlink:title="STL class. ">
<polygon fill="#ffffff" stroke="#bfbfbf" points="157.6733,-130.5 157.6733,-148.5 228.3462,-148.5 228.3462,-130.5 157.6733,-130.5"/>
<text text-anchor="middle" x="193.0098" y="-136.5" font-family="Helvetica,sans-Serif" font-size="10.00" fill="#000000">map&lt; K, T &gt;</text>
</a>
</g>
</g>
<!-- Node5&#45;&gt;Node6 -->
<g id="edge7" class="edge">
<title>Node5&#45;&gt;Node6</title>
<path fill="none" stroke="#9a32cd" stroke-dasharray="5,2" d="M153.2956,-187.435C158.3657,-180.9914 164.2306,-173.6197 169.6553,-167 174.7371,-160.7987 180.5757,-153.9237 185.1439,-148.599"/>
<polygon fill="#9a32cd" stroke="#9a32cd" points="150.3989,-185.4572 146.9903,-195.4888 155.9107,-189.7724 150.3989,-185.4572"/>
<text text-anchor="middle" x="190.687" y="-169" font-family="Helvetica,sans-Serif" font-size="10.00" fill="#000000"> elements</text>
</g>
<!-- Node6&#45;&gt;Node2 -->
<g id="edge5" class="edge">
<title>Node6&#45;&gt;Node2</title>
<path fill="none" stroke="#ffa500" stroke-dasharray="5,2" d="M177.324,-122.7625C170.4957,-115.9271 162.194,-108.1907 154.0098,-102 144.962,-95.1561 134.0694,-88.6859 125.0495,-83.7428"/>
<polygon fill="#ffa500" stroke="#ffa500" points="175.0915,-125.4877 184.5677,-130.2262 180.1147,-120.6125 175.0915,-125.4877"/>
<text text-anchor="middle" x="225.3198" y="-104" font-family="Helvetica,sans-Serif" font-size="10.00" fill="#000000"> &lt; Molecule, FragContain &gt;</text>
</g>
<!-- Node7 -->
<g id="node7" class="node">
<title>Node7</title>
<polygon fill="#ffffff" stroke="#bfbfbf" points="224.5098,-195.5 224.5098,-213.5 253.5098,-213.5 253.5098,-195.5 224.5098,-195.5"/>
<text text-anchor="middle" x="238.8447" y="-201.5" font-family="Helvetica,sans-Serif" font-size="10.00" fill="#000000">K</text>
</g>
<!-- Node7&#45;&gt;Node6 -->
<g id="edge6" class="edge">
<title>Node7&#45;&gt;Node6</title>
<path fill="none" stroke="#9a32cd" stroke-dasharray="5,2" d="M229.2007,-186.2222C225.607,-179.9669 221.3514,-173.0297 217.0098,-167 212.3443,-160.5205 206.4574,-153.7575 201.6817,-148.5596"/>
<polygon fill="#9a32cd" stroke="#9a32cd" points="226.306,-188.2188 234.2206,-195.2622 232.4258,-184.8205 226.306,-188.2188"/>
<text text-anchor="middle" x="234.6797" y="-169" font-family="Helvetica,sans-Serif" font-size="10.00" fill="#000000"> keys</text>
</g>
<!-- Node8 -->
<g id="node8" class="node">
<title>Node8</title>
<g id="a_node8"><a xlink:href="classindigox_1_1_forcefield.html" target="_top" xlink:title="Forcefield">
<polygon fill="#ffffff" stroke="#000000" points="202.0566,-65.5 202.0566,-83.5 261.9629,-83.5 261.9629,-65.5 202.0566,-65.5"/>
<text text-anchor="middle" x="232.0098" y="-71.5" font-family="Helvetica,sans-Serif" font-size="10.00" fill="#000000">Forcefield</text>
</a>
</g>
</g>
<!-- Node8&#45;&gt;Node1 -->
<g id="edge8" class="edge">
<title>Node8&#45;&gt;Node1</title>
<path fill="none" stroke="#9a32cd" stroke-dasharray="5,2" d="M216.2963,-58.0262C204.4773,-45.6354 188.7041,-29.0989 178.9589,-18.8821"/>
<polygon fill="#9a32cd" stroke="#9a32cd" points="213.9542,-60.6417 223.3889,-65.462 219.0194,-55.8102 213.9542,-60.6417"/>
<text text-anchor="middle" x="208.0894" y="-39" font-family="Helvetica,sans-Serif" font-size="10.00" fill="#000000"> ff</text>
</g>
</g>
</svg>
