<?xml version="1.0" encoding="UTF-8" standalone="no"?>
<!DOCTYPE svg PUBLIC "-//W3C//DTD SVG 1.1//EN"
 "http://www.w3.org/Graphics/SVG/1.1/DTD/svg11.dtd">
<!-- Generated by graphviz version 2.40.1 (20161225.0304)
 -->
<!-- Title: Angle::Impl Pages: 1 -->
<svg width="274pt" height="222pt"
 viewBox="0.00 0.00 274.49 222.00" xmlns="http://www.w3.org/2000/svg" xmlns:xlink="http://www.w3.org/1999/xlink">
<g id="graph0" class="graph" transform="scale(1 1) rotate(0) translate(4 218)">
<title>Angle::Impl</title>
<polygon fill="#ffffff" stroke="transparent" points="-4,4 -4,-218 270.4873,-218 270.4873,4 -4,4"/>
<!-- Node1 -->
<g id="node1" class="node">
<title>Node1</title>
<g id="a_node1"><a xlink:title=" ">
<polygon fill="#bfbfbf" stroke="#000000" points="110.6577,-.5 110.6577,-18.5 176.6821,-18.5 176.6821,-.5 110.6577,-.5"/>
<text text-anchor="middle" x="143.6699" y="-6.5" font-family="Helvetica,sans-Serif" font-size="10.00" fill="#000000">Angle::Impl</text>
</a>
</g>
</g>
<!-- Node2 -->
<g id="node2" class="node">
<title>Node2</title>
<g id="a_node2"><a xlink:title=" ">
<polygon fill="#ffffff" stroke="#bfbfbf" points="7.7046,-65.5 7.7046,-83.5 97.6353,-83.5 97.6353,-65.5 7.7046,-65.5"/>
<text text-anchor="middle" x="52.6699" y="-71.5" font-family="Helvetica,sans-Serif" font-size="10.00" fill="#000000">array&lt; Atom, 3 &gt;</text>
</a>
</g>
</g>
<!-- Node2&#45;&gt;Node1 -->
<g id="edge1" class="edge">
<title>Node2&#45;&gt;Node1</title>
<path fill="none" stroke="#9a32cd" stroke-dasharray="5,2" d="M73.8289,-59.3865C91.469,-46.7864 116.0268,-29.2451 130.8309,-18.6708"/>
<polygon fill="#9a32cd" stroke="#9a32cd" points="71.4261,-56.8015 65.3231,-65.462 75.4948,-62.4977 71.4261,-56.8015"/>
<text text-anchor="middle" x="118.6748" y="-39" font-family="Helvetica,sans-Serif" font-size="10.00" fill="#000000"> atoms</text>
</g>
<!-- Node3 -->
<g id="node3" class="node">
<title>Node3</title>
<g id="a_node3"><a xlink:href="classindigox_1_1_atom.html" target="_top" xlink:title=" ">
<polygon fill="#ffffff" stroke="#000000" points="0,-130.5 0,-148.5 39.3398,-148.5 39.3398,-130.5 0,-130.5"/>
<text text-anchor="middle" x="19.6699" y="-136.5" font-family="Helvetica,sans-Serif" font-size="10.00" fill="#000000">Atom</text>
</a>
</g>
</g>
<!-- Node3&#45;&gt;Node2 -->
<g id="edge2" class="edge">
<title>Node3&#45;&gt;Node2</title>
<path fill="none" stroke="#9a32cd" stroke-dasharray="5,2" d="M17.6263,-120.2828C17.7206,-114.1849 18.6375,-107.5817 21.3154,-102 24.8858,-94.5579 31.494,-88.2906 37.7265,-83.6276"/>
<polygon fill="#9a32cd" stroke="#9a32cd" points="14.1366,-120.5751 18.1426,-130.3834 21.1275,-120.2177 14.1366,-120.5751"/>
<text text-anchor="middle" x="43.3472" y="-104" font-family="Helvetica,sans-Serif" font-size="10.00" fill="#000000"> elements</text>
</g>
<!-- Node4 -->
<g id="node4" class="node">
<title>Node4</title>
<g id="a_node4"><a xlink:title="STL class.">
<polygon fill="#ffffff" stroke="#bfbfbf" points="57.7817,-130.5 57.7817,-148.5 119.5581,-148.5 119.5581,-130.5 57.7817,-130.5"/>
<text text-anchor="middle" x="88.6699" y="-136.5" font-family="Helvetica,sans-Serif" font-size="10.00" fill="#000000">array&lt; T &gt;</text>
</a>
</g>
</g>
<!-- Node4&#45;&gt;Node2 -->
<g id="edge3" class="edge">
<title>Node4&#45;&gt;Node2</title>
<path fill="none" stroke="#ffa500" stroke-dasharray="5,2" d="M78.752,-121.5926C71.9906,-109.3846 63.3092,-93.7097 57.8662,-83.8821"/>
<polygon fill="#ffa500" stroke="#ffa500" points="75.7575,-123.4099 83.6643,-130.462 81.881,-120.0183 75.7575,-123.4099"/>
<text text-anchor="middle" x="100.6328" y="-104" font-family="Helvetica,sans-Serif" font-size="10.00" fill="#000000"> &lt; Atom, 3 &gt;</text>
</g>
<!-- Node5 -->
<g id="node5" class="node">
<title>Node5</title>
<g id="a_node5"><a xlink:title=" ">
<polygon fill="#ffffff" stroke="#bfbfbf" points="74.1699,-195.5 74.1699,-213.5 103.1699,-213.5 103.1699,-195.5 74.1699,-195.5"/>
<text text-anchor="middle" x="88.2241" y="-201.5" font-family="Helvetica,sans-Serif" font-size="10.00" fill="#000000">T</text>
</a>
</g>
</g>
<!-- Node5&#45;&gt;Node4 -->
<g id="edge4" class="edge">
<title>Node5&#45;&gt;Node4</title>
<path fill="none" stroke="#9a32cd" stroke-dasharray="5,2" d="M88.6699,-185.1265C88.6699,-173.1522 88.6699,-158.3205 88.6699,-148.8821"/>
<polygon fill="#9a32cd" stroke="#9a32cd" points="85.17,-185.462 88.6699,-195.462 92.17,-185.4621 85.17,-185.462"/>
<text text-anchor="middle" x="110.3472" y="-169" font-family="Helvetica,sans-Serif" font-size="10.00" fill="#000000"> elements</text>
</g>
<!-- Node6 -->
<g id="node6" class="node">
<title>Node6</title>
<g id="a_node6"><a xlink:href="classindigox_1_1_molecule.html" target="_top" xlink:title=" ">
<polygon fill="#ffffff" stroke="#000000" points="115.6602,-65.5 115.6602,-83.5 171.6797,-83.5 171.6797,-65.5 115.6602,-65.5"/>
<text text-anchor="middle" x="143.6699" y="-71.5" font-family="Helvetica,sans-Serif" font-size="10.00" fill="#000000">Molecule</text>
</a>
</g>
</g>
<!-- Node6&#45;&gt;Node1 -->
<g id="edge5" class="edge">
<title>Node6&#45;&gt;Node1</title>
<path fill="none" stroke="#9a32cd" stroke-dasharray="5,2" d="M143.6699,-55.1265C143.6699,-43.1522 143.6699,-28.3205 143.6699,-18.8821"/>
<polygon fill="#9a32cd" stroke="#9a32cd" points="140.17,-55.462 143.6699,-65.462 147.17,-55.4621 140.17,-55.462"/>
<text text-anchor="middle" x="165.0688" y="-39" font-family="Helvetica,sans-Serif" font-size="10.00" fill="#000000"> molecule</text>
</g>
<!-- Node7 -->
<g id="node7" class="node">
<title>Node7</title>
<g id="a_node7"><a xlink:href="classindigox_1_1_f_f_angle.html" target="_top" xlink:title=" ">
<polygon fill="#ffffff" stroke="#000000" points="190.0469,-65.5 190.0469,-83.5 243.293,-83.5 243.293,-65.5 190.0469,-65.5"/>
<text text-anchor="middle" x="216.6699" y="-71.5" font-family="Helvetica,sans-Serif" font-size="10.00" fill="#000000">FFAngle</text>
</a>
</g>
</g>
<!-- Node7&#45;&gt;Node1 -->
<g id="edge6" class="edge">
<title>Node7&#45;&gt;Node1</title>
<path fill="none" stroke="#9a32cd" stroke-dasharray="5,2" d="M206.3841,-56.3572C202.0844,-49.7625 196.6844,-42.5692 190.6699,-37 182.7621,-29.6776 172.5769,-23.4234 163.7108,-18.738"/>
<polygon fill="#9a32cd" stroke="#9a32cd" points="203.6545,-58.605 211.8397,-65.332 209.6361,-54.9689 203.6545,-58.605"/>
<text text-anchor="middle" x="232.5786" y="-39" font-family="Helvetica,sans-Serif" font-size="10.00" fill="#000000"> forcefield_type</text>
</g>
</g>
</svg>
