<?xml version="1.0" encoding="UTF-8" standalone="no"?>
<!DOCTYPE svg PUBLIC "-//W3C//DTD SVG 1.1//EN"
 "http://www.w3.org/Graphics/SVG/1.1/DTD/svg11.dtd">
<!-- Generated by graphviz version 2.40.1 (20161225.0304)
 -->
<!-- Title: InternalCallback&lt; V, E, S, D, VP, EP, VIM &gt; Pages: 1 -->
<svg width="244pt" height="122pt"
 viewBox="0.00 0.00 244.02 122.00" xmlns="http://www.w3.org/2000/svg" xmlns:xlink="http://www.w3.org/1999/xlink">
<g id="graph0" class="graph" transform="scale(1 1) rotate(0) translate(4 118)">
<title>InternalCallback&lt; V, E, S, D, VP, EP, VIM &gt;</title>
<polygon fill="#ffffff" stroke="transparent" points="-4,4 -4,-118 240.0225,-118 240.0225,4 -4,4"/>
<!-- Node1 -->
<g id="node1" class="node">
<title>Node1</title>
<polygon fill="#bfbfbf" stroke="#000000" points="58.2832,-.5 58.2832,-28.5 175.9043,-28.5 175.9043,-.5 58.2832,-.5"/>
<text text-anchor="start" x="66.2832" y="-16.5" font-family="Helvetica,sans-Serif" font-size="10.00" fill="#000000">InternalCallback&lt; V,</text>
<text text-anchor="middle" x="117.0938" y="-6.5" font-family="Helvetica,sans-Serif" font-size="10.00" fill="#000000"> E, S, D, VP, EP, VIM &gt;</text>
</g>
<!-- Node2 -->
<g id="node2" class="node">
<title>Node2</title>
<g id="a_node2"><a xlink:href="classindigox_1_1graph_1_1_base_graph.html" target="_top" xlink:title="Template base class for all graphs used in the indigoX library. ">
<polygon fill="#ffffff" stroke="#000000" points="0,-85.5 0,-113.5 108.1875,-113.5 108.1875,-85.5 0,-85.5"/>
<text text-anchor="start" x="8" y="-101.5" font-family="Helvetica,sans-Serif" font-size="10.00" fill="#000000">BaseGraph&lt; V, E, S,</text>
<text text-anchor="middle" x="54.0938" y="-91.5" font-family="Helvetica,sans-Serif" font-size="10.00" fill="#000000"> D, VP, EP &gt;</text>
</a>
</g>
</g>
<!-- Node2&#45;&gt;Node1 -->
<g id="edge1" class="edge">
<title>Node2&#45;&gt;Node1</title>
<path fill="none" stroke="#9a32cd" stroke-dasharray="5,2" d="M70.7566,-77.0183C82.1548,-61.6399 96.912,-41.7293 106.6751,-28.5569"/>
<polygon fill="#9a32cd" stroke="#9a32cd" points="67.6396,-75.346 64.4969,-85.464 73.2634,-79.5142 67.6396,-75.346"/>
<text text-anchor="middle" x="105.1504" y="-59" font-family="Helvetica,sans-Serif" font-size="10.00" fill="#000000"> small</text>
<text text-anchor="middle" x="105.1504" y="-49" font-family="Helvetica,sans-Serif" font-size="10.00" fill="#000000">large</text>
</g>
<!-- Node3 -->
<g id="node3" class="node">
<title>Node3</title>
<g id="a_node3"><a xlink:href="structindigox_1_1algorithm_1_1_mapping_callback.html" target="_top" xlink:title="MappingCallback\&lt; V,\l E, S, D, VP, EP \&gt;">
<polygon fill="#ffffff" stroke="#000000" points="126.165,-85.5 126.165,-113.5 236.0225,-113.5 236.0225,-85.5 126.165,-85.5"/>
<text text-anchor="start" x="134.165" y="-101.5" font-family="Helvetica,sans-Serif" font-size="10.00" fill="#000000">MappingCallback&lt; V,</text>
<text text-anchor="middle" x="181.0938" y="-91.5" font-family="Helvetica,sans-Serif" font-size="10.00" fill="#000000"> E, S, D, VP, EP &gt;</text>
</a>
</g>
</g>
<!-- Node3&#45;&gt;Node1 -->
<g id="edge2" class="edge">
<title>Node3&#45;&gt;Node1</title>
<path fill="none" stroke="#9a32cd" stroke-dasharray="5,2" d="M164.4901,-77.4483C152.868,-62.0127 137.6885,-41.8524 127.6777,-28.5569"/>
<polygon fill="#9a32cd" stroke="#9a32cd" points="161.7143,-79.5805 170.5255,-85.464 167.3064,-75.37 161.7143,-79.5805"/>
<text text-anchor="middle" x="186.0542" y="-54" font-family="Helvetica,sans-Serif" font-size="10.00" fill="#000000"> user_callback</text>
</g>
</g>
</svg>
