<?xml version="1.0" encoding="UTF-8" standalone="no"?>
<!DOCTYPE svg PUBLIC "-//W3C//DTD SVG 1.1//EN"
 "http://www.w3.org/Graphics/SVG/1.1/DTD/svg11.dtd">
<!-- Generated by graphviz version 2.40.1 (20161225.0304)
 -->
<!-- Title: ParamAtom::ParamAtomImpl Pages: 1 -->
<svg width="190pt" height="222pt"
 viewBox="0.00 0.00 190.06 222.00" xmlns="http://www.w3.org/2000/svg" xmlns:xlink="http://www.w3.org/1999/xlink">
<g id="graph0" class="graph" transform="scale(1 1) rotate(0) translate(4 218)">
<title>ParamAtom::ParamAtomImpl</title>
<polygon fill="#ffffff" stroke="transparent" points="-4,4 -4,-218 186.061,-218 186.061,4 -4,4"/>
<!-- Node1 -->
<g id="node1" class="node">
<title>Node1</title>
<polygon fill="#bfbfbf" stroke="#000000" points="0,-.5 0,-18.5 146.0342,-18.5 146.0342,-.5 0,-.5"/>
<text text-anchor="middle" x="73.0171" y="-6.5" font-family="Helvetica,sans-Serif" font-size="10.00" fill="#000000">ParamAtom::ParamAtomImpl</text>
</g>
<!-- Node2 -->
<g id="node2" class="node">
<title>Node2</title>
<g id="a_node2"><a xlink:href="classindigox_1_1_atom.html" target="_top" xlink:title="Atom">
<polygon fill="#ffffff" stroke="#000000" points="29.3472,-65.5 29.3472,-83.5 68.687,-83.5 68.687,-65.5 29.3472,-65.5"/>
<text text-anchor="middle" x="49.0171" y="-71.5" font-family="Helvetica,sans-Serif" font-size="10.00" fill="#000000">Atom</text>
</a>
</g>
</g>
<!-- Node2&#45;&gt;Node1 -->
<g id="edge1" class="edge">
<title>Node2&#45;&gt;Node1</title>
<path fill="none" stroke="#9a32cd" stroke-dasharray="5,2" d="M55.8983,-55.8634C60.365,-43.7661 65.9961,-28.5151 69.5529,-18.8821"/>
<polygon fill="#9a32cd" stroke="#9a32cd" points="52.5347,-54.8687 52.3542,-65.462 59.1013,-57.2934 52.5347,-54.8687"/>
<text text-anchor="middle" x="75.522" y="-39" font-family="Helvetica,sans-Serif" font-size="10.00" fill="#000000"> atom</text>
</g>
<!-- Node3 -->
<g id="node3" class="node">
<title>Node3</title>
<polygon fill="#ffffff" stroke="#bfbfbf" points="86.7686,-65.5 86.7686,-83.5 177.2656,-83.5 177.2656,-65.5 86.7686,-65.5"/>
<text text-anchor="middle" x="132.0171" y="-71.5" font-family="Helvetica,sans-Serif" font-size="10.00" fill="#000000">vector&lt; double &gt;</text>
</g>
<!-- Node3&#45;&gt;Node1 -->
<g id="edge2" class="edge">
<title>Node3&#45;&gt;Node1</title>
<path fill="none" stroke="#9a32cd" stroke-dasharray="5,2" d="M117.064,-58.0262C105.8169,-45.6354 90.8069,-29.0989 81.5332,-18.8821"/>
<polygon fill="#9a32cd" stroke="#9a32cd" points="114.5007,-60.4098 123.8134,-65.462 119.6839,-55.7051 114.5007,-60.4098"/>
<text text-anchor="middle" x="125.1943" y="-39" font-family="Helvetica,sans-Serif" font-size="10.00" fill="#000000"> charges</text>
</g>
<!-- Node4 -->
<g id="node4" class="node">
<title>Node4</title>
<g id="a_node4"><a xlink:title="STL class. ">
<polygon fill="#ffffff" stroke="#bfbfbf" points="98.9048,-130.5 98.9048,-148.5 165.1294,-148.5 165.1294,-130.5 98.9048,-130.5"/>
<text text-anchor="middle" x="132.0171" y="-136.5" font-family="Helvetica,sans-Serif" font-size="10.00" fill="#000000">vector&lt; T &gt;</text>
</a>
</g>
</g>
<!-- Node4&#45;&gt;Node3 -->
<g id="edge3" class="edge">
<title>Node4&#45;&gt;Node3</title>
<path fill="none" stroke="#ffa500" stroke-dasharray="5,2" d="M132.0171,-120.1265C132.0171,-108.1522 132.0171,-93.3205 132.0171,-83.8821"/>
<polygon fill="#ffa500" stroke="#ffa500" points="128.5172,-120.462 132.0171,-130.462 135.5172,-120.4621 128.5172,-120.462"/>
<text text-anchor="middle" x="157.0391" y="-104" font-family="Helvetica,sans-Serif" font-size="10.00" fill="#000000"> &lt; double &gt;</text>
</g>
<!-- Node5 -->
<g id="node5" class="node">
<title>Node5</title>
<polygon fill="#ffffff" stroke="#bfbfbf" points="117.5171,-195.5 117.5171,-213.5 146.5171,-213.5 146.5171,-195.5 117.5171,-195.5"/>
<text text-anchor="middle" x="131.5713" y="-201.5" font-family="Helvetica,sans-Serif" font-size="10.00" fill="#000000">T</text>
</g>
<!-- Node5&#45;&gt;Node4 -->
<g id="edge4" class="edge">
<title>Node5&#45;&gt;Node4</title>
<path fill="none" stroke="#9a32cd" stroke-dasharray="5,2" d="M132.0171,-185.1265C132.0171,-173.1522 132.0171,-158.3205 132.0171,-148.8821"/>
<polygon fill="#9a32cd" stroke="#9a32cd" points="128.5172,-185.462 132.0171,-195.462 135.5172,-185.4621 128.5172,-185.462"/>
<text text-anchor="middle" x="153.6943" y="-169" font-family="Helvetica,sans-Serif" font-size="10.00" fill="#000000"> elements</text>
</g>
</g>
</svg>
