<?xml version="1.0" encoding="UTF-8" standalone="no"?>
<!DOCTYPE svg PUBLIC "-//W3C//DTD SVG 1.1//EN"
 "http://www.w3.org/Graphics/SVG/1.1/DTD/svg11.dtd">
<!-- Generated by graphviz version 2.40.1 (20161225.0304)
 -->
<!-- Title: Forcefield::Impl Pages: 1 -->
<svg width="848pt" height="345pt"
 viewBox="0.00 0.00 847.71 345.00" xmlns="http://www.w3.org/2000/svg" xmlns:xlink="http://www.w3.org/1999/xlink">
<g id="graph0" class="graph" transform="scale(1 1) rotate(0) translate(4 341)">
<title>Forcefield::Impl</title>
<polygon fill="#ffffff" stroke="transparent" points="-4,4 -4,-341 843.7051,-341 843.7051,4 -4,4"/>
<!-- Node1 -->
<g id="node1" class="node">
<title>Node1</title>
<polygon fill="#bfbfbf" stroke="#000000" points="755.3506,-205.5 755.3506,-223.5 839.7051,-223.5 839.7051,-205.5 755.3506,-205.5"/>
<text text-anchor="middle" x="797.5278" y="-211.5" font-family="Helvetica,sans-Serif" font-size="10.00" fill="#000000">Forcefield::Impl</text>
</g>
<!-- Node2 -->
<g id="node2" class="node">
<title>Node2</title>
<polygon fill="#ffffff" stroke="#bfbfbf" points="287.2759,-293.5 287.2759,-311.5 382.7534,-311.5 382.7534,-293.5 287.2759,-293.5"/>
<text text-anchor="middle" x="335.0146" y="-299.5" font-family="Helvetica,sans-Serif" font-size="10.00" fill="#000000">vector&lt; FFAtom &gt;</text>
</g>
<!-- Node2&#45;&gt;Node1 -->
<g id="edge1" class="edge">
<title>Node2&#45;&gt;Node1</title>
<path fill="none" stroke="#9a32cd" stroke-dasharray="5,2" d="M392.9396,-302.8075C461.3684,-302.0512 578.2624,-297.2335 675.9912,-275.5 704.4204,-269.1777 711.2663,-265.4538 737.3506,-252.5 754.3931,-244.0365 772.7081,-232.0043 784.5974,-223.7597"/>
<polygon fill="#9a32cd" stroke="#9a32cd" points="392.7636,-299.3087 382.7936,-302.8936 392.823,-306.3085 392.7636,-299.3087"/>
<text text-anchor="middle" x="605.8818" y="-297.5" font-family="Helvetica,sans-Serif" font-size="10.00" fill="#000000"> atoms</text>
</g>
<!-- Node3 -->
<g id="node3" class="node">
<title>Node3</title>
<g id="a_node3"><a xlink:href="classindigox_1_1_f_f_atom.html" target="_top" xlink:title="FFAtom">
<polygon fill="#ffffff" stroke="#000000" points="115.9619,-318.5 115.9619,-336.5 166.9717,-336.5 166.9717,-318.5 115.9619,-318.5"/>
<text text-anchor="middle" x="141.4668" y="-324.5" font-family="Helvetica,sans-Serif" font-size="10.00" fill="#000000">FFAtom</text>
</a>
</g>
</g>
<!-- Node3&#45;&gt;Node2 -->
<g id="edge2" class="edge">
<title>Node3&#45;&gt;Node2</title>
<path fill="none" stroke="#9a32cd" stroke-dasharray="5,2" d="M177.0887,-322.8988C208.0468,-318.9001 253.1496,-313.0743 287.2364,-308.6714"/>
<polygon fill="#9a32cd" stroke="#9a32cd" points="176.6377,-319.4279 167.1685,-324.1802 177.5345,-326.3702 176.6377,-319.4279"/>
<text text-anchor="middle" x="227.3154" y="-322.5" font-family="Helvetica,sans-Serif" font-size="10.00" fill="#000000"> elements</text>
</g>
<!-- Node4 -->
<g id="node4" class="node">
<title>Node4</title>
<g id="a_node4"><a xlink:title="STL class. ">
<polygon fill="#ffffff" stroke="#bfbfbf" points="108.3545,-182.5 108.3545,-200.5 174.5791,-200.5 174.5791,-182.5 108.3545,-182.5"/>
<text text-anchor="middle" x="141.4668" y="-188.5" font-family="Helvetica,sans-Serif" font-size="10.00" fill="#000000">vector&lt; T &gt;</text>
</a>
</g>
</g>
<!-- Node4&#45;&gt;Node2 -->
<g id="edge3" class="edge">
<title>Node4&#45;&gt;Node2</title>
<path fill="none" stroke="#ffa500" stroke-dasharray="5,2" d="M160.4926,-206.8892C169.8216,-214.0065 181.4279,-222.2476 192.5791,-228.5 221.7636,-244.8634 235.4379,-237.222 262.0518,-257.5 272.3767,-265.367 269.6692,-272.7092 280.0518,-280.5 287.2041,-285.867 295.8429,-290.1269 304.1319,-293.4125"/>
<polygon fill="#ffa500" stroke="#ffa500" points="162.369,-203.9135 152.3353,-200.5114 158.0574,-209.4281 162.369,-203.9135"/>
<text text-anchor="middle" x="227.3154" y="-259.5" font-family="Helvetica,sans-Serif" font-size="10.00" fill="#000000"> &lt; FFAtom &gt;</text>
</g>
<!-- Node7 -->
<g id="node7" class="node">
<title>Node7</title>
<polygon fill="#ffffff" stroke="#bfbfbf" points="286.9951,-215.5 286.9951,-233.5 383.0342,-233.5 383.0342,-215.5 286.9951,-215.5"/>
<text text-anchor="middle" x="335.0146" y="-221.5" font-family="Helvetica,sans-Serif" font-size="10.00" fill="#000000">vector&lt; FFBond &gt;</text>
</g>
<!-- Node4&#45;&gt;Node7 -->
<g id="edge8" class="edge">
<title>Node4&#45;&gt;Node7</title>
<path fill="none" stroke="#ffa500" stroke-dasharray="5,2" d="M184.5286,-200.9561C187.2495,-201.4951 189.9501,-202.0145 192.5791,-202.5 223.8282,-208.2707 259.127,-213.7302 286.7668,-217.767"/>
<polygon fill="#ffa500" stroke="#ffa500" points="185.1764,-197.5162 174.6781,-198.9434 183.775,-204.3745 185.1764,-197.5162"/>
<text text-anchor="middle" x="227.3154" y="-216.5" font-family="Helvetica,sans-Serif" font-size="10.00" fill="#000000"> &lt; FFBond &gt;</text>
</g>
<!-- Node14 -->
<g id="node14" class="node">
<title>Node14</title>
<polygon fill="#ffffff" stroke="#bfbfbf" points="286.1577,-17.5 286.1577,-35.5 383.8716,-35.5 383.8716,-17.5 286.1577,-17.5"/>
<text text-anchor="middle" x="335.0146" y="-23.5" font-family="Helvetica,sans-Serif" font-size="10.00" fill="#000000">vector&lt; FFAngle &gt;</text>
</g>
<!-- Node4&#45;&gt;Node14 -->
<g id="edge17" class="edge">
<title>Node4&#45;&gt;Node14</title>
<path fill="none" stroke="#ffa500" stroke-dasharray="5,2" d="M177.4113,-178.9293C208.5586,-167.3735 250.4048,-150.0344 262.0518,-136.5 281.0464,-114.4273 264.3174,-98.0037 280.0518,-73.5 290.3632,-57.4416 307.8064,-43.8832 320.2772,-35.5173"/>
<polygon fill="#ffa500" stroke="#ffa500" points="175.9192,-175.7481 167.7264,-182.4659 178.3203,-182.3234 175.9192,-175.7481"/>
<text text-anchor="middle" x="227.3154" y="-174.5" font-family="Helvetica,sans-Serif" font-size="10.00" fill="#000000"> &lt; FFAngle &gt;</text>
</g>
<!-- Node17 -->
<g id="node17" class="node">
<title>Node17</title>
<polygon fill="#ffffff" stroke="#bfbfbf" points="280.0518,-178.5 280.0518,-196.5 389.9775,-196.5 389.9775,-178.5 280.0518,-178.5"/>
<text text-anchor="middle" x="335.0146" y="-184.5" font-family="Helvetica,sans-Serif" font-size="10.00" fill="#000000">vector&lt; FFDihedral &gt;</text>
</g>
<!-- Node4&#45;&gt;Node17 -->
<g id="edge22" class="edge">
<title>Node4&#45;&gt;Node17</title>
<path fill="none" stroke="#ffa500" stroke-dasharray="5,2" d="M185.0335,-190.5996C213.0828,-190.0199 249.7856,-189.2614 279.8622,-188.6398"/>
<polygon fill="#ffa500" stroke="#ffa500" points="184.6644,-187.1064 174.7389,-190.8124 184.8091,-194.1049 184.6644,-187.1064"/>
<text text-anchor="middle" x="227.3154" y="-192.5" font-family="Helvetica,sans-Serif" font-size="10.00" fill="#000000"> &lt; FFDihedral &gt;</text>
</g>
<!-- Node5 -->
<g id="node5" class="node">
<title>Node5</title>
<polygon fill="#ffffff" stroke="#bfbfbf" points="0,-99.5 0,-117.5 29,-117.5 29,-99.5 0,-99.5"/>
<text text-anchor="middle" x="14.5" y="-105.5" font-family="Helvetica,sans-Serif" font-size="10.00" fill="#000000">T</text>
</g>
<!-- Node5&#45;&gt;Node4 -->
<g id="edge4" class="edge">
<title>Node5&#45;&gt;Node4</title>
<path fill="none" stroke="#9a32cd" stroke-dasharray="5,2" d="M37.086,-123.2648C63.2217,-140.3501 105.4602,-167.962 127.331,-182.2592"/>
<polygon fill="#9a32cd" stroke="#9a32cd" points="38.8581,-120.2418 28.5728,-117.6996 35.0279,-126.1009 38.8581,-120.2418"/>
<text text-anchor="middle" x="68.6772" y="-159.5" font-family="Helvetica,sans-Serif" font-size="10.00" fill="#000000"> elements</text>
</g>
<!-- Node9 -->
<g id="node9" class="node">
<title>Node9</title>
<g id="a_node9"><a xlink:title="STL class. ">
<polygon fill="#ffffff" stroke="#bfbfbf" points="299.6782,-83.5 299.6782,-101.5 370.3511,-101.5 370.3511,-83.5 299.6782,-83.5"/>
<text text-anchor="middle" x="335.0146" y="-89.5" font-family="Helvetica,sans-Serif" font-size="10.00" fill="#000000">map&lt; K, T &gt;</text>
</a>
</g>
</g>
<!-- Node5&#45;&gt;Node9 -->
<g id="edge11" class="edge">
<title>Node5&#45;&gt;Node9</title>
<path fill="none" stroke="#9a32cd" stroke-dasharray="5,2" d="M39.2718,-106.4164C58.1855,-104.8828 84.8997,-102.8399 108.3545,-101.5 175.9808,-97.6366 255.0523,-94.9019 299.6619,-93.5232"/>
<polygon fill="#9a32cd" stroke="#9a32cd" points="38.8002,-102.9433 29.1207,-107.2513 39.374,-109.9197 38.8002,-102.9433"/>
<text text-anchor="middle" x="141.4668" y="-103.5" font-family="Helvetica,sans-Serif" font-size="10.00" fill="#000000"> elements</text>
</g>
<!-- Node6 -->
<g id="node6" class="node">
<title>Node6</title>
<polygon fill="#ffffff" stroke="#bfbfbf" points="550.7749,-200.5 550.7749,-228.5 660.9888,-228.5 660.9888,-200.5 550.7749,-200.5"/>
<text text-anchor="start" x="558.7749" y="-216.5" font-family="Helvetica,sans-Serif" font-size="10.00" fill="#000000">map&lt; BondType, std</text>
<text text-anchor="middle" x="605.8818" y="-206.5" font-family="Helvetica,sans-Serif" font-size="10.00" fill="#000000">::vector&lt; FFBond &gt; &gt;</text>
</g>
<!-- Node6&#45;&gt;Node1 -->
<g id="edge5" class="edge">
<title>Node6&#45;&gt;Node1</title>
<path fill="none" stroke="#9a32cd" stroke-dasharray="5,2" d="M671.1032,-214.5C698.8978,-214.5 730.5303,-214.5 755.201,-214.5"/>
<polygon fill="#9a32cd" stroke="#9a32cd" points="671.0567,-211.0001 661.0567,-214.5 671.0566,-218.0001 671.0567,-211.0001"/>
<text text-anchor="middle" x="715.6709" y="-216.5" font-family="Helvetica,sans-Serif" font-size="10.00" fill="#000000"> bonds</text>
</g>
<!-- Node7&#45;&gt;Node6 -->
<g id="edge6" class="edge">
<title>Node7&#45;&gt;Node6</title>
<path fill="none" stroke="#9a32cd" stroke-dasharray="5,2" d="M393.3832,-222.3451C440.0359,-220.6228 504.9743,-218.2254 550.7522,-216.5353"/>
<polygon fill="#9a32cd" stroke="#9a32cd" points="392.9922,-218.8571 383.1282,-222.7237 393.2505,-225.8523 392.9922,-218.8571"/>
<text text-anchor="middle" x="462.875" y="-224.5" font-family="Helvetica,sans-Serif" font-size="10.00" fill="#000000"> elements</text>
</g>
<!-- Node8 -->
<g id="node8" class="node">
<title>Node8</title>
<g id="a_node8"><a xlink:href="classindigox_1_1_f_f_bond.html" target="_top" xlink:title="FFBond">
<polygon fill="#ffffff" stroke="#000000" points="115.6812,-281.5 115.6812,-299.5 167.2524,-299.5 167.2524,-281.5 115.6812,-281.5"/>
<text text-anchor="middle" x="141.4668" y="-287.5" font-family="Helvetica,sans-Serif" font-size="10.00" fill="#000000">FFBond</text>
</a>
</g>
</g>
<!-- Node8&#45;&gt;Node7 -->
<g id="edge7" class="edge">
<title>Node8&#45;&gt;Node7</title>
<path fill="none" stroke="#9a32cd" stroke-dasharray="5,2" d="M177.8839,-290.9894C203.2989,-289.7143 237.0153,-284.6486 262.0518,-268.5 273.8626,-260.8819 268.7859,-250.9031 280.0518,-242.5 284.9613,-238.838 290.6519,-235.8991 296.4725,-233.5467"/>
<polygon fill="#9a32cd" stroke="#9a32cd" points="177.4306,-287.5021 167.5495,-291.325 177.6579,-294.4984 177.4306,-287.5021"/>
<text text-anchor="middle" x="227.3154" y="-291.5" font-family="Helvetica,sans-Serif" font-size="10.00" fill="#000000"> elements</text>
</g>
<!-- Node9&#45;&gt;Node6 -->
<g id="edge9" class="edge">
<title>Node9&#45;&gt;Node6</title>
<path fill="none" stroke="#ffa500" stroke-dasharray="5,2" d="M363.3633,-105.7329C376.7157,-111.6568 392.9731,-118.4321 407.9775,-123.5 455.689,-139.6151 479.0628,-119.2875 517.7725,-151.5 532.4466,-163.7112 521.5991,-177.7109 535.7725,-190.5 540.1662,-194.4646 545.2445,-197.7793 550.6197,-200.5497"/>
<polygon fill="#ffa500" stroke="#ffa500" points="364.7684,-102.5272 354.2136,-101.6066 361.8905,-108.9083 364.7684,-102.5272"/>
<text text-anchor="start" x="408.8149" y="-163.5" font-family="Helvetica,sans-Serif" font-size="10.00" fill="#000000"> &lt; BondType, std::vector</text>
<text text-anchor="middle" x="462.875" y="-153.5" font-family="Helvetica,sans-Serif" font-size="10.00" fill="#000000">&lt; FFBond &gt; &gt;</text>
</g>
<!-- Node13 -->
<g id="node13" class="node">
<title>Node13</title>
<polygon fill="#ffffff" stroke="#bfbfbf" points="549.9375,-45.5 549.9375,-73.5 661.8262,-73.5 661.8262,-45.5 549.9375,-45.5"/>
<text text-anchor="start" x="557.9375" y="-61.5" font-family="Helvetica,sans-Serif" font-size="10.00" fill="#000000">map&lt; AngleType, std</text>
<text text-anchor="middle" x="605.8818" y="-51.5" font-family="Helvetica,sans-Serif" font-size="10.00" fill="#000000">::vector&lt; FFAngle &gt; &gt;</text>
</g>
<!-- Node9&#45;&gt;Node13 -->
<g id="edge18" class="edge">
<title>Node9&#45;&gt;Node13</title>
<path fill="none" stroke="#ffa500" stroke-dasharray="5,2" d="M359.8496,-78.578C373.5793,-71.6712 391.2105,-64.0595 407.9775,-60.5 455.0313,-50.511 509.8077,-51.1484 549.7876,-53.777"/>
<polygon fill="#ffa500" stroke="#ffa500" points="357.8463,-75.6761 350.6099,-83.4146 361.0927,-81.8778 357.8463,-75.6761"/>
<text text-anchor="start" x="407.9775" y="-72.5" font-family="Helvetica,sans-Serif" font-size="10.00" fill="#000000"> &lt; AngleType, std::vector</text>
<text text-anchor="middle" x="462.875" y="-62.5" font-family="Helvetica,sans-Serif" font-size="10.00" fill="#000000">&lt; FFAngle &gt; &gt;</text>
</g>
<!-- Node16 -->
<g id="node16" class="node">
<title>Node16</title>
<polygon fill="#ffffff" stroke="#bfbfbf" points="535.7725,-153.5 535.7725,-181.5 675.9912,-181.5 675.9912,-153.5 535.7725,-153.5"/>
<text text-anchor="start" x="543.7725" y="-169.5" font-family="Helvetica,sans-Serif" font-size="10.00" fill="#000000">map&lt; DihedralType,</text>
<text text-anchor="middle" x="605.8818" y="-159.5" font-family="Helvetica,sans-Serif" font-size="10.00" fill="#000000"> std::vector&lt; FFDihedral &gt; &gt;</text>
</g>
<!-- Node9&#45;&gt;Node16 -->
<g id="edge23" class="edge">
<title>Node9&#45;&gt;Node16</title>
<path fill="none" stroke="#ffa500" stroke-dasharray="5,2" d="M380.7472,-88.2833C418.5975,-86.4154 473.1907,-87.5208 517.7725,-103.5 547.3165,-114.0893 575.5931,-137.8558 591.8235,-153.2578"/>
<polygon fill="#ffa500" stroke="#ffa500" points="380.3168,-84.8023 370.5377,-88.8791 380.7247,-91.7905 380.3168,-84.8023"/>
<text text-anchor="start" x="408.8247" y="-115.5" font-family="Helvetica,sans-Serif" font-size="10.00" fill="#000000"> &lt; DihedralType, std</text>
<text text-anchor="middle" x="462.875" y="-105.5" font-family="Helvetica,sans-Serif" font-size="10.00" fill="#000000">::vector&lt; FFDihedral &gt; &gt;</text>
</g>
<!-- Node10 -->
<g id="node10" class="node">
<title>Node10</title>
<polygon fill="#ffffff" stroke="#bfbfbf" points="126.9668,-37.5 126.9668,-55.5 155.9668,-55.5 155.9668,-37.5 126.9668,-37.5"/>
<text text-anchor="middle" x="141.4668" y="-43.5" font-family="Helvetica,sans-Serif" font-size="10.00" fill="#000000">K</text>
</g>
<!-- Node10&#45;&gt;Node9 -->
<g id="edge10" class="edge">
<title>Node10&#45;&gt;Node9</title>
<path fill="none" stroke="#9a32cd" stroke-dasharray="5,2" d="M166.302,-50.0102C190.8333,-53.7162 229.3232,-60.1736 262.0518,-68.5 278.335,-72.6426 296.2646,-78.5213 310.2753,-83.4236"/>
<polygon fill="#9a32cd" stroke="#9a32cd" points="166.4874,-46.4998 156.0839,-48.5043 165.4667,-53.425 166.4874,-46.4998"/>
<text text-anchor="middle" x="227.3154" y="-70.5" font-family="Helvetica,sans-Serif" font-size="10.00" fill="#000000"> keys</text>
</g>
<!-- Node11 -->
<g id="node11" class="node">
<title>Node11</title>
<g id="a_node11"><a xlink:title="STL class. ">
<polygon fill="#ffffff" stroke="#bfbfbf" points="585.6553,-247.5 585.6553,-265.5 626.1084,-265.5 626.1084,-247.5 585.6553,-247.5"/>
<text text-anchor="middle" x="605.8818" y="-253.5" font-family="Helvetica,sans-Serif" font-size="10.00" fill="#000000">string</text>
</a>
</g>
</g>
<!-- Node11&#45;&gt;Node1 -->
<g id="edge12" class="edge">
<title>Node11&#45;&gt;Node1</title>
<path fill="none" stroke="#9a32cd" stroke-dasharray="5,2" d="M636.2852,-250.1933C662.954,-244.6211 702.7638,-236.2057 737.3506,-228.5 744.3653,-226.9372 751.8302,-225.2334 759.0292,-223.5696"/>
<polygon fill="#9a32cd" stroke="#9a32cd" points="635.4777,-246.7863 626.4025,-252.2537 636.9064,-253.639 635.4777,-246.7863"/>
<text text-anchor="middle" x="715.6709" y="-240.5" font-family="Helvetica,sans-Serif" font-size="10.00" fill="#000000"> name</text>
</g>
<!-- Node12 -->
<g id="node12" class="node">
<title>Node12</title>
<g id="a_node12"><a xlink:title="STL class. ">
<polygon fill="#ffffff" stroke="#bfbfbf" points="281.9902,-252.5 281.9902,-270.5 388.0391,-270.5 388.0391,-252.5 281.9902,-252.5"/>
<text text-anchor="middle" x="335.0146" y="-258.5" font-family="Helvetica,sans-Serif" font-size="10.00" fill="#000000">basic_string&lt; char &gt;</text>
</a>
</g>
</g>
<!-- Node12&#45;&gt;Node11 -->
<g id="edge13" class="edge">
<title>Node12&#45;&gt;Node11</title>
<path fill="none" stroke="#191970" d="M398.4152,-260.3297C458.8865,-259.2134 546.381,-257.5983 585.5678,-256.875"/>
<polygon fill="#191970" stroke="#191970" points="398.1398,-256.8341 388.2061,-260.5181 398.269,-263.8329 398.1398,-256.8341"/>
</g>
<!-- Node13&#45;&gt;Node1 -->
<g id="edge14" class="edge">
<title>Node13&#45;&gt;Node1</title>
<path fill="none" stroke="#9a32cd" stroke-dasharray="5,2" d="M631.0455,-79.852C672.9847,-113.7717 755.5695,-180.5648 785.9544,-205.1396"/>
<polygon fill="#9a32cd" stroke="#9a32cd" points="633.2034,-77.0958 623.2271,-73.5286 628.8014,-82.5385 633.2034,-77.0958"/>
<text text-anchor="middle" x="715.6709" y="-166.5" font-family="Helvetica,sans-Serif" font-size="10.00" fill="#000000"> angles</text>
</g>
<!-- Node14&#45;&gt;Node13 -->
<g id="edge15" class="edge">
<title>Node14&#45;&gt;Node13</title>
<path fill="none" stroke="#9a32cd" stroke-dasharray="5,2" d="M394.2402,-21.7351C430.2397,-20.0947 476.9786,-20.2064 517.7725,-27.5 537.4775,-31.0231 558.5873,-38.5479 575.203,-45.4158"/>
<polygon fill="#9a32cd" stroke="#9a32cd" points="393.7162,-18.2574 383.9093,-22.2669 394.0761,-25.2481 393.7162,-18.2574"/>
<text text-anchor="middle" x="462.875" y="-29.5" font-family="Helvetica,sans-Serif" font-size="10.00" fill="#000000"> elements</text>
</g>
<!-- Node15 -->
<g id="node15" class="node">
<title>Node15</title>
<g id="a_node15"><a xlink:href="classindigox_1_1_f_f_angle.html" target="_top" xlink:title="FFAngle">
<polygon fill="#ffffff" stroke="#000000" points="114.8438,-.5 114.8438,-18.5 168.0898,-18.5 168.0898,-.5 114.8438,-.5"/>
<text text-anchor="middle" x="141.4668" y="-6.5" font-family="Helvetica,sans-Serif" font-size="10.00" fill="#000000">FFAngle</text>
</a>
</g>
</g>
<!-- Node15&#45;&gt;Node14 -->
<g id="edge16" class="edge">
<title>Node15&#45;&gt;Node14</title>
<path fill="none" stroke="#9a32cd" stroke-dasharray="5,2" d="M178.4138,-9.8705C202.3217,-10.3965 234.0905,-11.6317 262.0518,-14.5 269.8417,-15.2991 278.0619,-16.3987 286.065,-17.6103"/>
<polygon fill="#9a32cd" stroke="#9a32cd" points="178.4185,-6.37 168.3542,-9.6805 178.2863,-13.3688 178.4185,-6.37"/>
<text text-anchor="middle" x="227.3154" y="-16.5" font-family="Helvetica,sans-Serif" font-size="10.00" fill="#000000"> elements</text>
</g>
<!-- Node16&#45;&gt;Node1 -->
<g id="edge19" class="edge">
<title>Node16&#45;&gt;Node1</title>
<path fill="none" stroke="#9a32cd" stroke-dasharray="5,2" d="M672.9576,-183.9499C702.4661,-191.1867 735.9828,-199.4065 760.8117,-205.4956"/>
<polygon fill="#9a32cd" stroke="#9a32cd" points="673.6682,-180.5205 663.1224,-181.5379 672.0009,-187.3191 673.6682,-180.5205"/>
<text text-anchor="middle" x="715.6709" y="-201.5" font-family="Helvetica,sans-Serif" font-size="10.00" fill="#000000"> dihedrals</text>
</g>
<!-- Node17&#45;&gt;Node16 -->
<g id="edge20" class="edge">
<title>Node17&#45;&gt;Node16</title>
<path fill="none" stroke="#9a32cd" stroke-dasharray="5,2" d="M400.2795,-182.681C441.1543,-179.663 493.8105,-175.775 535.6013,-172.6893"/>
<polygon fill="#9a32cd" stroke="#9a32cd" points="399.8702,-179.2016 390.1552,-183.4286 400.3858,-186.1826 399.8702,-179.2016"/>
<text text-anchor="middle" x="462.875" y="-184.5" font-family="Helvetica,sans-Serif" font-size="10.00" fill="#000000"> elements</text>
</g>
<!-- Node18 -->
<g id="node18" class="node">
<title>Node18</title>
<g id="a_node18"><a xlink:href="classindigox_1_1_f_f_dihedral.html" target="_top" xlink:title="FFDihedral">
<polygon fill="#ffffff" stroke="#000000" points="108.7378,-121.5 108.7378,-139.5 174.1958,-139.5 174.1958,-121.5 108.7378,-121.5"/>
<text text-anchor="middle" x="141.4668" y="-127.5" font-family="Helvetica,sans-Serif" font-size="10.00" fill="#000000">FFDihedral</text>
</a>
</g>
</g>
<!-- Node18&#45;&gt;Node17 -->
<g id="edge21" class="edge">
<title>Node18&#45;&gt;Node17</title>
<path fill="none" stroke="#9a32cd" stroke-dasharray="5,2" d="M184.2969,-121.4449C207.9079,-118.3166 237.3536,-117.5357 262.0518,-126.5 290.6091,-136.865 315.808,-163.843 327.7235,-178.1982"/>
<polygon fill="#9a32cd" stroke="#9a32cd" points="183.5981,-118.0106 174.2325,-122.9639 184.6428,-124.9322 183.5981,-118.0106"/>
<text text-anchor="middle" x="227.3154" y="-128.5" font-family="Helvetica,sans-Serif" font-size="10.00" fill="#000000"> elements</text>
</g>
</g>
</svg>
