<?xml version="1.0" encoding="UTF-8" standalone="no"?>
<!DOCTYPE svg PUBLIC "-//W3C//DTD SVG 1.1//EN"
 "http://www.w3.org/Graphics/SVG/1.1/DTD/svg11.dtd">
<!-- Generated by graphviz version 2.40.1 (20161225.0304)
 -->
<!-- Title: Fragment::FragmentData Pages: 1 -->
<svg width="983pt" height="397pt"
 viewBox="0.00 0.00 983.40 396.50" xmlns="http://www.w3.org/2000/svg" xmlns:xlink="http://www.w3.org/1999/xlink">
<g id="graph0" class="graph" transform="scale(1 1) rotate(0) translate(4 392.5)">
<title>Fragment::FragmentData</title>
<polygon fill="#ffffff" stroke="transparent" points="-4,4 -4,-392.5 979.3984,-392.5 979.3984,4 -4,4"/>
<!-- Node1 -->
<g id="node1" class="node">
<title>Node1</title>
<polygon fill="#bfbfbf" stroke="#000000" points="847.1328,-184.5 847.1328,-202.5 975.3984,-202.5 975.3984,-184.5 847.1328,-184.5"/>
<text text-anchor="middle" x="911.2656" y="-190.5" font-family="Helvetica,sans-Serif" font-size="10.00" fill="#000000">Fragment::FragmentData</text>
</g>
<!-- Node2 -->
<g id="node2" class="node">
<title>Node2</title>
<polygon fill="#ffffff" stroke="#bfbfbf" points="636.29,-305.5 636.29,-333.5 750.9619,-333.5 750.9619,-305.5 636.29,-305.5"/>
<text text-anchor="start" x="644.29" y="-321.5" font-family="Helvetica,sans-Serif" font-size="10.00" fill="#000000">vector&lt; indigox::graph</text>
<text text-anchor="middle" x="693.626" y="-311.5" font-family="Helvetica,sans-Serif" font-size="10.00" fill="#000000">::CMGVertex &gt;</text>
</g>
<!-- Node2&#45;&gt;Node1 -->
<g id="edge1" class="edge">
<title>Node2&#45;&gt;Node1</title>
<path fill="none" stroke="#9a32cd" stroke-dasharray="5,2" d="M752.873,-302.1016C757.9509,-300.3152 762.9766,-298.4399 767.7734,-296.5 796.0986,-285.0452 803.809,-282.5948 829.1328,-265.5 858.0514,-245.9785 887.8295,-217.3239 902.2921,-202.7498"/>
<polygon fill="#9a32cd" stroke="#9a32cd" points="751.4348,-298.8936 743.0897,-305.4213 753.6841,-305.5224 751.4348,-298.8936"/>
<text text-anchor="middle" x="807.4531" y="-290.5" font-family="Helvetica,sans-Serif" font-size="10.00" fill="#000000"> frag</text>
</g>
<!-- Node3 -->
<g id="node3" class="node">
<title>Node3</title>
<g id="a_node3"><a xlink:href="classindigox_1_1graph_1_1_c_m_g_vertex.html" target="_top" xlink:title="Class for the vertices of an IXCondensedMolecularGraph. ">
<polygon fill="#ffffff" stroke="#000000" points="326.7974,-360.5 326.7974,-378.5 394.4819,-378.5 394.4819,-360.5 326.7974,-360.5"/>
<text text-anchor="middle" x="360.6396" y="-366.5" font-family="Helvetica,sans-Serif" font-size="10.00" fill="#000000">CMGVertex</text>
</a>
</g>
</g>
<!-- Node3&#45;&gt;Node2 -->
<g id="edge2" class="edge">
<title>Node3&#45;&gt;Node2</title>
<path fill="none" stroke="#9a32cd" stroke-dasharray="5,2" d="M405.0271,-368.1533C453.6428,-366.0518 533.7208,-360.7452 601.4785,-347.5 618.8726,-344.0998 637.6607,-338.7149 653.7062,-333.5718"/>
<polygon fill="#9a32cd" stroke="#9a32cd" points="404.7009,-364.6636 394.851,-368.566 404.9847,-371.6578 404.7009,-364.6636"/>
<text text-anchor="middle" x="531.4395" y="-366.5" font-family="Helvetica,sans-Serif" font-size="10.00" fill="#000000"> elements</text>
</g>
<!-- Node4 -->
<g id="node4" class="node">
<title>Node4</title>
<g id="a_node4"><a xlink:title="STL class. ">
<polygon fill="#ffffff" stroke="#bfbfbf" points="327.5273,-209.5 327.5273,-227.5 393.752,-227.5 393.752,-209.5 327.5273,-209.5"/>
<text text-anchor="middle" x="360.6396" y="-215.5" font-family="Helvetica,sans-Serif" font-size="10.00" fill="#000000">vector&lt; T &gt;</text>
</a>
</g>
</g>
<!-- Node4&#45;&gt;Node2 -->
<g id="edge3" class="edge">
<title>Node4&#45;&gt;Node2</title>
<path fill="none" stroke="#ffa500" stroke-dasharray="5,2" d="M380.3532,-233.6482C399.85,-247.8246 431.0836,-268.4308 461.4004,-279.5 520.598,-301.1142 539.4138,-290.5683 601.4785,-301.5 612.7157,-303.4793 624.6972,-305.7219 636.1758,-307.936"/>
<polygon fill="#ffa500" stroke="#ffa500" points="382.3821,-230.7954 372.2666,-227.6446 378.2094,-236.4158 382.3821,-230.7954"/>
<text text-anchor="middle" x="531.4395" y="-303.5" font-family="Helvetica,sans-Serif" font-size="10.00" fill="#000000"> &lt; indigox::graph::CMGVertex &gt;</text>
</g>
<!-- Node6 -->
<g id="node6" class="node">
<title>Node6</title>
<polygon fill="#ffffff" stroke="#bfbfbf" points="640.6064,-268.5 640.6064,-286.5 746.6455,-286.5 746.6455,-268.5 640.6064,-268.5"/>
<text text-anchor="middle" x="693.626" y="-274.5" font-family="Helvetica,sans-Serif" font-size="10.00" fill="#000000">vector&lt; stdx::triple &gt;</text>
</g>
<!-- Node4&#45;&gt;Node6 -->
<g id="edge10" class="edge">
<title>Node4&#45;&gt;Node6</title>
<path fill="none" stroke="#ffa500" stroke-dasharray="5,2" d="M403.6625,-230.1584C421.4472,-234.7204 442.3302,-239.7475 461.4004,-243.5 522.3701,-255.4971 593.1082,-265.2661 640.3407,-271.2042"/>
<polygon fill="#ffa500" stroke="#ffa500" points="404.1451,-226.6676 393.5862,-227.5392 402.384,-233.4425 404.1451,-226.6676"/>
<text text-anchor="middle" x="531.4395" y="-267.5" font-family="Helvetica,sans-Serif" font-size="10.00" fill="#000000"> &lt; stdx::triple &gt;</text>
</g>
<!-- Node11 -->
<g id="node11" class="node">
<title>Node11</title>
<polygon fill="#ffffff" stroke="#bfbfbf" points="619.4785,-184.5 619.4785,-202.5 767.7734,-202.5 767.7734,-184.5 619.4785,-184.5"/>
<text text-anchor="middle" x="693.626" y="-190.5" font-family="Helvetica,sans-Serif" font-size="10.00" fill="#000000">vector&lt; Fragment::BndType &gt;</text>
</g>
<!-- Node4&#45;&gt;Node11 -->
<g id="edge12" class="edge">
<title>Node4&#45;&gt;Node11</title>
<path fill="none" stroke="#ffa500" stroke-dasharray="5,2" d="M403.8535,-214.4462C421.6673,-212.8256 442.5203,-210.9934 461.4004,-209.5 514.1759,-205.3254 573.7487,-201.2335 619.3425,-198.2329"/>
<polygon fill="#ffa500" stroke="#ffa500" points="403.393,-210.9737 393.7542,-215.3718 404.0319,-217.9445 403.393,-210.9737"/>
<text text-anchor="middle" x="531.4395" y="-211.5" font-family="Helvetica,sans-Serif" font-size="10.00" fill="#000000"> &lt; Fragment::BndType &gt;</text>
</g>
<!-- Node12 -->
<g id="node12" class="node">
<title>Node12</title>
<polygon fill="#ffffff" stroke="#bfbfbf" points="626.019,-221.5 626.019,-249.5 761.2329,-249.5 761.2329,-221.5 626.019,-221.5"/>
<text text-anchor="start" x="634.019" y="-237.5" font-family="Helvetica,sans-Serif" font-size="10.00" fill="#000000">vector&lt; Fragment::Overlap</text>
<text text-anchor="middle" x="693.626" y="-227.5" font-family="Helvetica,sans-Serif" font-size="10.00" fill="#000000">Vertex &gt;</text>
</g>
<!-- Node4&#45;&gt;Node12 -->
<g id="edge14" class="edge">
<title>Node4&#45;&gt;Node12</title>
<path fill="none" stroke="#ffa500" stroke-dasharray="5,2" d="M403.7906,-220.703C460.1454,-223.5801 559.4277,-228.6488 625.8681,-232.0407"/>
<polygon fill="#ffa500" stroke="#ffa500" points="403.9505,-217.2067 393.785,-220.1922 403.5935,-224.1976 403.9505,-217.2067"/>
<text text-anchor="middle" x="531.4395" y="-231.5" font-family="Helvetica,sans-Serif" font-size="10.00" fill="#000000"> &lt; Fragment::OverlapVertex &gt;</text>
</g>
<!-- Node13 -->
<g id="node13" class="node">
<title>Node13</title>
<polygon fill="#ffffff" stroke="#bfbfbf" points="640.3208,-147.5 640.3208,-165.5 746.9312,-165.5 746.9312,-147.5 640.3208,-147.5"/>
<text text-anchor="middle" x="693.626" y="-153.5" font-family="Helvetica,sans-Serif" font-size="10.00" fill="#000000">vector&lt; stdx::quad &gt;</text>
</g>
<!-- Node4&#45;&gt;Node13 -->
<g id="edge17" class="edge">
<title>Node4&#45;&gt;Node13</title>
<path fill="none" stroke="#ffa500" stroke-dasharray="5,2" d="M393.5096,-205.9582C412.9878,-198.9759 438.3034,-190.6739 461.4004,-185.5 521.8629,-171.9561 592.6981,-164.2575 640.092,-160.2463"/>
<polygon fill="#ffa500" stroke="#ffa500" points="392.0926,-202.7495 383.8985,-209.4657 394.4924,-209.3253 392.0926,-202.7495"/>
<text text-anchor="middle" x="531.4395" y="-187.5" font-family="Helvetica,sans-Serif" font-size="10.00" fill="#000000"> &lt; stdx::quad &gt;</text>
</g>
<!-- Node15 -->
<g id="node15" class="node">
<title>Node15</title>
<polygon fill="#ffffff" stroke="#bfbfbf" points="636.29,-100.5 636.29,-128.5 750.9619,-128.5 750.9619,-100.5 636.29,-100.5"/>
<text text-anchor="start" x="644.29" y="-116.5" font-family="Helvetica,sans-Serif" font-size="10.00" fill="#000000">vector&lt; indigox::graph</text>
<text text-anchor="middle" x="693.626" y="-106.5" font-family="Helvetica,sans-Serif" font-size="10.00" fill="#000000">::MGVertex &gt;</text>
</g>
<!-- Node4&#45;&gt;Node15 -->
<g id="edge20" class="edge">
<title>Node4&#45;&gt;Node15</title>
<path fill="none" stroke="#ffa500" stroke-dasharray="5,2" d="M378.1766,-202.7781C397.2283,-186.6388 429.2642,-162.1503 461.4004,-149.5 518.1187,-127.173 587.7895,-118.9869 635.9416,-116.04"/>
<polygon fill="#ffa500" stroke="#ffa500" points="375.8806,-200.1364 370.6134,-209.3292 380.4637,-205.4275 375.8806,-200.1364"/>
<text text-anchor="middle" x="531.4395" y="-151.5" font-family="Helvetica,sans-Serif" font-size="10.00" fill="#000000"> &lt; indigox::graph::MGVertex &gt;</text>
</g>
<!-- Node5 -->
<g id="node5" class="node">
<title>Node5</title>
<polygon fill="#ffffff" stroke="#bfbfbf" points="39.5938,-209.5 39.5938,-227.5 68.5938,-227.5 68.5938,-209.5 39.5938,-209.5"/>
<text text-anchor="middle" x="54.0938" y="-215.5" font-family="Helvetica,sans-Serif" font-size="10.00" fill="#000000">T</text>
</g>
<!-- Node5&#45;&gt;Node4 -->
<g id="edge4" class="edge">
<title>Node5&#45;&gt;Node4</title>
<path fill="none" stroke="#9a32cd" stroke-dasharray="5,2" d="M79.1038,-218.5C134.067,-218.5 265.3989,-218.5 327.2915,-218.5"/>
<polygon fill="#9a32cd" stroke="#9a32cd" points="78.8791,-215.0001 68.8791,-218.5 78.8791,-222.0001 78.8791,-215.0001"/>
<text text-anchor="middle" x="193.0332" y="-220.5" font-family="Helvetica,sans-Serif" font-size="10.00" fill="#000000"> elements</text>
</g>
<!-- Node6&#45;&gt;Node1 -->
<g id="edge5" class="edge">
<title>Node6&#45;&gt;Node1</title>
<path fill="none" stroke="#9a32cd" stroke-dasharray="5,2" d="M747.2821,-265.7801C754.2367,-263.8807 761.2164,-261.7799 767.7734,-259.5 815.1699,-243.0201 868.129,-216.3752 894.4782,-202.5193"/>
<polygon fill="#9a32cd" stroke="#9a32cd" points="745.9576,-262.5083 737.163,-268.4164 747.7224,-269.2822 745.9576,-262.5083"/>
<text text-anchor="middle" x="807.4531" y="-253.5" font-family="Helvetica,sans-Serif" font-size="10.00" fill="#000000"> angles</text>
</g>
<!-- Node7 -->
<g id="node7" class="node">
<title>Node7</title>
<g id="a_node7"><a xlink:href="structstdx_1_1triple.html" target="_top" xlink:title="triple\&lt; _T1, _T2, _T3 \&gt;">
<polygon fill="#ffffff" stroke="#000000" points="301.7803,-323.5 301.7803,-341.5 419.499,-341.5 419.499,-323.5 301.7803,-323.5"/>
<text text-anchor="middle" x="360.6396" y="-329.5" font-family="Helvetica,sans-Serif" font-size="10.00" fill="#000000">triple&lt; _T1, _T2, _T3 &gt;</text>
</a>
</g>
</g>
<!-- Node7&#45;&gt;Node6 -->
<g id="edge6" class="edge">
<title>Node7&#45;&gt;Node6</title>
<path fill="none" stroke="#9a32cd" stroke-dasharray="5,2" d="M429.8041,-331.5897C489.8215,-329.9231 571.6292,-325.2875 601.4785,-312.5 611.3173,-308.285 610.028,-301.5256 619.4785,-296.5 627.2222,-292.3821 635.9015,-289.1245 644.5192,-286.5575"/>
<polygon fill="#9a32cd" stroke="#9a32cd" points="429.5281,-328.0955 419.6209,-331.8502 429.7072,-335.0933 429.5281,-328.0955"/>
<text text-anchor="middle" x="531.4395" y="-331.5" font-family="Helvetica,sans-Serif" font-size="10.00" fill="#000000"> elements</text>
</g>
<!-- Node8 -->
<g id="node8" class="node">
<title>Node8</title>
<polygon fill="#ffffff" stroke="#bfbfbf" points="37.478,-280.5 37.478,-298.5 70.7095,-298.5 70.7095,-280.5 37.478,-280.5"/>
<text text-anchor="middle" x="54.0938" y="-286.5" font-family="Helvetica,sans-Serif" font-size="10.00" fill="#000000">_T1</text>
</g>
<!-- Node8&#45;&gt;Node7 -->
<g id="edge7" class="edge">
<title>Node8&#45;&gt;Node7</title>
<path fill="none" stroke="#9a32cd" stroke-dasharray="5,2" d="M80.8399,-290.7568C120.2454,-292.882 196.1281,-298.0189 259.8789,-308.5 282.7691,-312.2633 308.1756,-318.328 327.7501,-323.4192"/>
<polygon fill="#9a32cd" stroke="#9a32cd" points="80.9004,-287.2553 70.7332,-290.2353 80.5396,-294.246 80.9004,-287.2553"/>
<text text-anchor="middle" x="193.0332" y="-320.5" font-family="Helvetica,sans-Serif" font-size="10.00" fill="#000000"> first</text>
<text text-anchor="middle" x="193.0332" y="-310.5" font-family="Helvetica,sans-Serif" font-size="10.00" fill="#000000">A</text>
</g>
<!-- Node9 -->
<g id="node9" class="node">
<title>Node9</title>
<polygon fill="#ffffff" stroke="#bfbfbf" points="37.478,-366.5 37.478,-384.5 70.7095,-384.5 70.7095,-366.5 37.478,-366.5"/>
<text text-anchor="middle" x="54.0938" y="-372.5" font-family="Helvetica,sans-Serif" font-size="10.00" fill="#000000">_T2</text>
</g>
<!-- Node9&#45;&gt;Node7 -->
<g id="edge8" class="edge">
<title>Node9&#45;&gt;Node7</title>
<path fill="none" stroke="#9a32cd" stroke-dasharray="5,2" d="M81.0972,-373.4706C120.5333,-370.313 196.1271,-363.526 259.8789,-353.5 280.3554,-350.2798 302.9634,-345.6661 321.5671,-341.583"/>
<polygon fill="#9a32cd" stroke="#9a32cd" points="80.6685,-369.9934 70.9729,-374.2647 81.2159,-376.972 80.6685,-369.9934"/>
<text text-anchor="middle" x="193.0332" y="-380.5" font-family="Helvetica,sans-Serif" font-size="10.00" fill="#000000"> second</text>
<text text-anchor="middle" x="193.0332" y="-370.5" font-family="Helvetica,sans-Serif" font-size="10.00" fill="#000000">B</text>
</g>
<!-- Node10 -->
<g id="node10" class="node">
<title>Node10</title>
<polygon fill="#ffffff" stroke="#bfbfbf" points="37.478,-323.5 37.478,-341.5 70.7095,-341.5 70.7095,-323.5 37.478,-323.5"/>
<text text-anchor="middle" x="54.0938" y="-329.5" font-family="Helvetica,sans-Serif" font-size="10.00" fill="#000000">_T3</text>
</g>
<!-- Node10&#45;&gt;Node7 -->
<g id="edge9" class="edge">
<title>Node10&#45;&gt;Node7</title>
<path fill="none" stroke="#9a32cd" stroke-dasharray="5,2" d="M81.1572,-332.5C130.2675,-332.5 235.1106,-332.5 301.5005,-332.5"/>
<polygon fill="#9a32cd" stroke="#9a32cd" points="81.0117,-329.0001 71.0116,-332.5 81.0116,-336.0001 81.0117,-329.0001"/>
<text text-anchor="middle" x="193.0332" y="-344.5" font-family="Helvetica,sans-Serif" font-size="10.00" fill="#000000"> third</text>
<text text-anchor="middle" x="193.0332" y="-334.5" font-family="Helvetica,sans-Serif" font-size="10.00" fill="#000000">C</text>
</g>
<!-- Node11&#45;&gt;Node1 -->
<g id="edge11" class="edge">
<title>Node11&#45;&gt;Node1</title>
<path fill="none" stroke="#9a32cd" stroke-dasharray="5,2" d="M777.9984,-193.5C800.967,-193.5 825.4678,-193.5 847.115,-193.5"/>
<polygon fill="#9a32cd" stroke="#9a32cd" points="777.9165,-190.0001 767.9165,-193.5 777.9164,-197.0001 777.9165,-190.0001"/>
<text text-anchor="middle" x="807.4531" y="-195.5" font-family="Helvetica,sans-Serif" font-size="10.00" fill="#000000"> bonds</text>
</g>
<!-- Node12&#45;&gt;Node1 -->
<g id="edge13" class="edge">
<title>Node12&#45;&gt;Node1</title>
<path fill="none" stroke="#9a32cd" stroke-dasharray="5,2" d="M771.2524,-220.5197C802.3663,-214.5153 837.1964,-207.7938 864.3341,-202.5568"/>
<polygon fill="#9a32cd" stroke="#9a32cd" points="770.4511,-217.1097 761.2955,-222.4412 771.7776,-223.9828 770.4511,-217.1097"/>
<text text-anchor="middle" x="807.4531" y="-218.5" font-family="Helvetica,sans-Serif" font-size="10.00" fill="#000000"> overlap</text>
</g>
<!-- Node13&#45;&gt;Node1 -->
<g id="edge15" class="edge">
<title>Node13&#45;&gt;Node1</title>
<path fill="none" stroke="#9a32cd" stroke-dasharray="5,2" d="M756.6336,-167.185C779.4703,-171.0603 805.4649,-175.4742 829.1328,-179.5 838.5444,-181.1009 848.5623,-182.8068 858.2483,-184.4573"/>
<polygon fill="#9a32cd" stroke="#9a32cd" points="757.1652,-163.7253 746.7206,-165.503 755.9941,-170.6266 757.1652,-163.7253"/>
<text text-anchor="middle" x="807.4531" y="-181.5" font-family="Helvetica,sans-Serif" font-size="10.00" fill="#000000"> dihedrals</text>
</g>
<!-- Node14 -->
<g id="node14" class="node">
<title>Node14</title>
<g id="a_node14"><a xlink:href="structstdx_1_1quad.html" target="_top" xlink:title="quad\&lt; _T1, _T2, _T3,\l _T4 \&gt;">
<polygon fill="#ffffff" stroke="#000000" points="304.4146,-94.5 304.4146,-122.5 416.8647,-122.5 416.8647,-94.5 304.4146,-94.5"/>
<text text-anchor="start" x="312.4146" y="-110.5" font-family="Helvetica,sans-Serif" font-size="10.00" fill="#000000">quad&lt; _T1, _T2, _T3,</text>
<text text-anchor="middle" x="360.6396" y="-100.5" font-family="Helvetica,sans-Serif" font-size="10.00" fill="#000000"> _T4 &gt;</text>
</a>
</g>
</g>
<!-- Node14&#45;&gt;Node13 -->
<g id="edge16" class="edge">
<title>Node14&#45;&gt;Node13</title>
<path fill="none" stroke="#9a32cd" stroke-dasharray="5,2" d="M415.5694,-91.9817C467.3616,-79.8157 545.2209,-70.6283 601.4785,-104.5 616.1266,-113.3193 605.9819,-128.003 619.4785,-138.5 625.5433,-143.2168 632.666,-146.7203 640.0559,-149.3181"/>
<polygon fill="#9a32cd" stroke="#9a32cd" points="414.446,-88.6536 405.5726,-94.4427 416.1194,-95.4507 414.446,-88.6536"/>
<text text-anchor="middle" x="531.4395" y="-106.5" font-family="Helvetica,sans-Serif" font-size="10.00" fill="#000000"> elements</text>
</g>
<!-- Node15&#45;&gt;Node1 -->
<g id="edge18" class="edge">
<title>Node15&#45;&gt;Node1</title>
<path fill="none" stroke="#9a32cd" stroke-dasharray="5,2" d="M746.7143,-131.669C753.7956,-133.9634 760.9612,-136.2873 767.7734,-138.5 795.0534,-147.3609 802.2781,-148.4236 829.1328,-158.5 850.6105,-166.5588 874.7057,-176.9976 891.2135,-184.3711"/>
<polygon fill="#9a32cd" stroke="#9a32cd" points="747.7431,-128.3233 737.1511,-128.5717 745.5862,-134.9827 747.7431,-128.3233"/>
<text text-anchor="middle" x="807.4531" y="-160.5" font-family="Helvetica,sans-Serif" font-size="10.00" fill="#000000"> atoms</text>
</g>
<!-- Node16 -->
<g id="node16" class="node">
<title>Node16</title>
<g id="a_node16"><a xlink:href="classindigox_1_1graph_1_1_m_g_vertex.html" target="_top" xlink:title="Class for the vertices of a IXMolecularGraph. ">
<polygon fill="#ffffff" stroke="#000000" points="330.4082,-57.5 330.4082,-75.5 390.8711,-75.5 390.8711,-57.5 330.4082,-57.5"/>
<text text-anchor="middle" x="360.6396" y="-63.5" font-family="Helvetica,sans-Serif" font-size="10.00" fill="#000000">MGVertex</text>
</a>
</g>
</g>
<!-- Node16&#45;&gt;Node15 -->
<g id="edge19" class="edge">
<title>Node16&#45;&gt;Node15</title>
<path fill="none" stroke="#9a32cd" stroke-dasharray="5,2" d="M401.3193,-60.6867C449.7776,-55.084 532.8053,-49.6861 601.4785,-66.5 608.5306,-68.2266 643.1589,-86.7666 667.8885,-100.2889"/>
<polygon fill="#9a32cd" stroke="#9a32cd" points="400.734,-57.232 391.2301,-61.9146 401.5797,-64.1808 400.734,-57.232"/>
<text text-anchor="middle" x="531.4395" y="-68.5" font-family="Helvetica,sans-Serif" font-size="10.00" fill="#000000"> elements</text>
</g>
<!-- Node17 -->
<g id="node17" class="node">
<title>Node17</title>
<g id="a_node17"><a xlink:href="classindigox_1_1graph_1_1_condensed_molecular_graph.html" target="_top" xlink:title="CondensedMolecularGraph">
<polygon fill="#ffffff" stroke="#000000" points="624.4785,-46.5 624.4785,-64.5 762.7734,-64.5 762.7734,-46.5 624.4785,-46.5"/>
<text text-anchor="middle" x="693.626" y="-52.5" font-family="Helvetica,sans-Serif" font-size="10.00" fill="#000000">CondensedMolecularGraph</text>
</a>
</g>
</g>
<!-- Node17&#45;&gt;Node1 -->
<g id="edge21" class="edge">
<title>Node17&#45;&gt;Node1</title>
<path fill="none" stroke="#9a32cd" stroke-dasharray="5,2" d="M723.1832,-68.9981C736.9103,-75.483 753.3485,-83.5588 767.7734,-91.5 795.8736,-106.9698 802.8083,-111.171 829.1328,-129.5 855.5396,-147.8862 884.9323,-171.6455 900.3921,-184.417"/>
<polygon fill="#9a32cd" stroke="#9a32cd" points="724.2758,-65.6454 713.7345,-64.582 721.3119,-71.987 724.2758,-65.6454"/>
<text text-anchor="middle" x="807.4531" y="-131.5" font-family="Helvetica,sans-Serif" font-size="10.00" fill="#000000"> graph</text>
</g>
<!-- Node18 -->
<g id="node18" class="node">
<title>Node18</title>
<g id="a_node18"><a xlink:href="classindigox_1_1graph_1_1_base_graph.html" target="_top" xlink:title="BaseGraph\&lt; CMGVertex,\l CMGEdge, CondensedMolecular\lGraph \&gt;">
<polygon fill="#ffffff" stroke="#000000" points="277.8789,-.5 277.8789,-38.5 443.4004,-38.5 443.4004,-.5 277.8789,-.5"/>
<text text-anchor="start" x="285.8789" y="-26.5" font-family="Helvetica,sans-Serif" font-size="10.00" fill="#000000">BaseGraph&lt; CMGVertex,</text>
<text text-anchor="start" x="285.8789" y="-16.5" font-family="Helvetica,sans-Serif" font-size="10.00" fill="#000000"> CMGEdge, CondensedMolecular</text>
<text text-anchor="middle" x="360.6396" y="-6.5" font-family="Helvetica,sans-Serif" font-size="10.00" fill="#000000">Graph &gt;</text>
</a>
</g>
</g>
<!-- Node18&#45;&gt;Node17 -->
<g id="edge22" class="edge">
<title>Node18&#45;&gt;Node17</title>
<path fill="none" stroke="#191970" d="M453.4175,-28.7942C498.1777,-33.3642 552.637,-39.0502 601.4785,-44.5 608.8441,-45.3219 616.5378,-46.2035 624.204,-47.097"/>
<polygon fill="#191970" stroke="#191970" points="453.7382,-25.3089 443.4349,-27.7771 453.0286,-32.2728 453.7382,-25.3089"/>
</g>
<!-- Node19 -->
<g id="node19" class="node">
<title>Node19</title>
<g id="a_node19"><a xlink:href="classindigox_1_1graph_1_1_base_graph.html" target="_top" xlink:title="Template base class for all graphs used in the indigoX library. ">
<polygon fill="#ffffff" stroke="#000000" points="0,-5.5 0,-33.5 108.1875,-33.5 108.1875,-5.5 0,-5.5"/>
<text text-anchor="start" x="8" y="-21.5" font-family="Helvetica,sans-Serif" font-size="10.00" fill="#000000">BaseGraph&lt; V, E, S,</text>
<text text-anchor="middle" x="54.0938" y="-11.5" font-family="Helvetica,sans-Serif" font-size="10.00" fill="#000000"> D, VP, EP &gt;</text>
</a>
</g>
</g>
<!-- Node19&#45;&gt;Node18 -->
<g id="edge23" class="edge">
<title>Node19&#45;&gt;Node18</title>
<path fill="none" stroke="#ffa500" stroke-dasharray="5,2" d="M118.3999,-19.5C164.6977,-19.5 227.56,-19.5 277.6444,-19.5"/>
<polygon fill="#ffa500" stroke="#ffa500" points="118.1924,-16.0001 108.1924,-19.5 118.1923,-23.0001 118.1924,-16.0001"/>
<text text-anchor="start" x="126.1875" y="-31.5" font-family="Helvetica,sans-Serif" font-size="10.00" fill="#000000"> &lt; CMGVertex, CMGEdge,</text>
<text text-anchor="middle" x="193.0332" y="-21.5" font-family="Helvetica,sans-Serif" font-size="10.00" fill="#000000"> CondensedMolecularGraph &gt;</text>
</g>
</g>
</svg>
