<?xml version="1.0" encoding="UTF-8" standalone="no"?>
<!DOCTYPE svg PUBLIC "-//W3C//DTD SVG 1.1//EN"
 "http://www.w3.org/Graphics/SVG/1.1/DTD/svg11.dtd">
<!-- Generated by graphviz version 2.40.1 (20161225.0304)
 -->
<!-- Title: triple&lt; _T1, _T2, _T3 &gt; Pages: 1 -->
<svg width="150pt" height="102pt"
 viewBox="0.00 0.00 150.23 102.00" xmlns="http://www.w3.org/2000/svg" xmlns:xlink="http://www.w3.org/1999/xlink">
<g id="graph0" class="graph" transform="scale(1 1) rotate(0) translate(4 98)">
<title>triple&lt; _T1, _T2, _T3 &gt;</title>
<polygon fill="#ffffff" stroke="transparent" points="-4,4 -4,-98 146.2314,-98 146.2314,4 -4,4"/>
<!-- Node2 -->
<g id="node1" class="node">
<title>Node2</title>
<polygon fill="#bfbfbf" stroke="#000000" points="8.7563,-.5 8.7563,-18.5 126.4751,-18.5 126.4751,-.5 8.7563,-.5"/>
<text text-anchor="middle" x="67.6157" y="-6.5" font-family="Helvetica,sans-Serif" font-size="10.00" fill="#000000">triple&lt; _T1, _T2, _T3 &gt;</text>
</g>
<!-- Node3 -->
<g id="node2" class="node">
<title>Node3</title>
<polygon fill="#ffffff" stroke="#bfbfbf" points="0,-75.5 0,-93.5 33.2314,-93.5 33.2314,-75.5 0,-75.5"/>
<text text-anchor="middle" x="16.6157" y="-81.5" font-family="Helvetica,sans-Serif" font-size="10.00" fill="#000000">_T1</text>
</g>
<!-- Node3&#45;&gt;Node2 -->
<g id="edge1" class="edge">
<title>Node3&#45;&gt;Node2</title>
<path fill="none" stroke="#9a32cd" stroke-dasharray="5,2" d="M26.321,-66.5818C31.4619,-57.5019 38.0773,-46.4314 44.729,-37 49.2397,-30.6042 54.8545,-23.8425 59.3938,-18.6243"/>
<polygon fill="#9a32cd" stroke="#9a32cd" points="23.175,-65.038 21.3892,-75.4813 29.2977,-68.4311 23.175,-65.038"/>
<text text-anchor="middle" x="54.0591" y="-49" font-family="Helvetica,sans-Serif" font-size="10.00" fill="#000000"> first</text>
<text text-anchor="middle" x="54.0591" y="-39" font-family="Helvetica,sans-Serif" font-size="10.00" fill="#000000">A</text>
</g>
<!-- Node4 -->
<g id="node3" class="node">
<title>Node4</title>
<polygon fill="#ffffff" stroke="#bfbfbf" points="51,-75.5 51,-93.5 84.2314,-93.5 84.2314,-75.5 51,-75.5"/>
<text text-anchor="middle" x="67.6157" y="-81.5" font-family="Helvetica,sans-Serif" font-size="10.00" fill="#000000">_T2</text>
</g>
<!-- Node4&#45;&gt;Node2 -->
<g id="edge2" class="edge">
<title>Node4&#45;&gt;Node2</title>
<path fill="none" stroke="#9a32cd" stroke-dasharray="5,2" d="M67.6157,-65.1079C67.6157,-50.2042 67.6157,-30.2791 67.6157,-18.7717"/>
<polygon fill="#9a32cd" stroke="#9a32cd" points="64.1158,-65.3035 67.6157,-75.3035 71.1158,-65.3036 64.1158,-65.3035"/>
<text text-anchor="middle" x="85.1279" y="-49" font-family="Helvetica,sans-Serif" font-size="10.00" fill="#000000"> second</text>
<text text-anchor="middle" x="85.1279" y="-39" font-family="Helvetica,sans-Serif" font-size="10.00" fill="#000000">B</text>
</g>
<!-- Node5 -->
<g id="node4" class="node">
<title>Node5</title>
<polygon fill="#ffffff" stroke="#bfbfbf" points="109,-75.5 109,-93.5 142.2314,-93.5 142.2314,-75.5 109,-75.5"/>
<text text-anchor="middle" x="125.6157" y="-81.5" font-family="Helvetica,sans-Serif" font-size="10.00" fill="#000000">_T3</text>
</g>
<!-- Node5&#45;&gt;Node2 -->
<g id="edge3" class="edge">
<title>Node5&#45;&gt;Node2</title>
<path fill="none" stroke="#9a32cd" stroke-dasharray="5,2" d="M119.4195,-65.8696C115.754,-56.5868 110.4747,-45.5498 103.6157,-37 97.8083,-29.761 89.7059,-23.3527 82.6581,-18.5473"/>
<polygon fill="#9a32cd" stroke="#9a32cd" points="116.169,-67.1727 122.8706,-75.3787 122.7491,-64.7846 116.169,-67.1727"/>
<text text-anchor="middle" x="125.7314" y="-49" font-family="Helvetica,sans-Serif" font-size="10.00" fill="#000000"> third</text>
<text text-anchor="middle" x="125.7314" y="-39" font-family="Helvetica,sans-Serif" font-size="10.00" fill="#000000">C</text>
</g>
</g>
</svg>
