<?xml version="1.0" encoding="UTF-8" standalone="no"?>
<!DOCTYPE svg PUBLIC "-//W3C//DTD SVG 1.1//EN"
 "http://www.w3.org/Graphics/SVG/1.1/DTD/svg11.dtd">
<!-- Generated by graphviz version 2.40.1 (20161225.0304)
 -->
<!-- Title: CMGEdge::CMGEdgeData Pages: 1 -->
<svg width="297pt" height="253pt"
 viewBox="0.00 0.00 296.72 253.00" xmlns="http://www.w3.org/2000/svg" xmlns:xlink="http://www.w3.org/1999/xlink">
<g id="graph0" class="graph" transform="scale(1 1) rotate(0) translate(4 249)">
<title>CMGEdge::CMGEdgeData</title>
<polygon fill="#ffffff" stroke="transparent" points="-4,4 -4,-249 292.7158,-249 292.7158,4 -4,4"/>
<!-- Node1 -->
<g id="node1" class="node">
<title>Node1</title>
<polygon fill="#bfbfbf" stroke="#000000" points="0,-.5 0,-18.5 136.0488,-18.5 136.0488,-.5 0,-.5"/>
<text text-anchor="middle" x="68.0244" y="-6.5" font-family="Helvetica,sans-Serif" font-size="10.00" fill="#000000">CMGEdge::CMGEdgeData</text>
</g>
<!-- Node2 -->
<g id="node2" class="node">
<title>Node2</title>
<g id="a_node2"><a xlink:href="classindigox_1_1graph_1_1_m_g_edge.html" target="_top" xlink:title="Class for the edges of a IXMolecularGraph. ">
<polygon fill="#ffffff" stroke="#000000" points="12.293,-65.5 12.293,-83.5 67.7559,-83.5 67.7559,-65.5 12.293,-65.5"/>
<text text-anchor="middle" x="40.0244" y="-71.5" font-family="Helvetica,sans-Serif" font-size="10.00" fill="#000000">MGEdge</text>
</a>
</g>
</g>
<!-- Node2&#45;&gt;Node1 -->
<g id="edge1" class="edge">
<title>Node2&#45;&gt;Node1</title>
<path fill="none" stroke="#9a32cd" stroke-dasharray="5,2" d="M47.895,-56.229C53.1307,-44.0748 59.7914,-28.6124 63.9829,-18.8821"/>
<polygon fill="#9a32cd" stroke="#9a32cd" points="44.6595,-54.8932 43.9177,-65.462 51.0884,-57.6626 44.6595,-54.8932"/>
<text text-anchor="middle" x="72.4209" y="-39" font-family="Helvetica,sans-Serif" font-size="10.00" fill="#000000"> source</text>
</g>
<!-- Node3 -->
<g id="node3" class="node">
<title>Node3</title>
<g id="a_node3"><a xlink:href="classindigox_1_1graph_1_1_condensed_molecular_graph.html" target="_top" xlink:title="CondensedMolecularGraph">
<polygon fill="#ffffff" stroke="#000000" points="85.877,-65.5 85.877,-83.5 224.1719,-83.5 224.1719,-65.5 85.877,-65.5"/>
<text text-anchor="middle" x="155.0244" y="-71.5" font-family="Helvetica,sans-Serif" font-size="10.00" fill="#000000">CondensedMolecularGraph</text>
</a>
</g>
</g>
<!-- Node3&#45;&gt;Node1 -->
<g id="edge2" class="edge">
<title>Node3&#45;&gt;Node1</title>
<path fill="none" stroke="#9a32cd" stroke-dasharray="5,2" d="M134.7955,-59.3865C117.9308,-46.7864 94.4525,-29.2451 80.2991,-18.6708"/>
<polygon fill="#9a32cd" stroke="#9a32cd" points="132.8215,-62.2806 142.9274,-65.462 137.0112,-56.6729 132.8215,-62.2806"/>
<text text-anchor="middle" x="130.2017" y="-39" font-family="Helvetica,sans-Serif" font-size="10.00" fill="#000000"> graph</text>
</g>
<!-- Node4 -->
<g id="node4" class="node">
<title>Node4</title>
<g id="a_node4"><a xlink:href="classindigox_1_1graph_1_1_base_graph.html" target="_top" xlink:title="BaseGraph\&lt; CMGVertex,\l CMGEdge, CondensedMolecular\lGraph \&gt;">
<polygon fill="#ffffff" stroke="#000000" points="72.2637,-121.5 72.2637,-159.5 237.7852,-159.5 237.7852,-121.5 72.2637,-121.5"/>
<text text-anchor="start" x="80.2637" y="-147.5" font-family="Helvetica,sans-Serif" font-size="10.00" fill="#000000">BaseGraph&lt; CMGVertex,</text>
<text text-anchor="start" x="80.2637" y="-137.5" font-family="Helvetica,sans-Serif" font-size="10.00" fill="#000000"> CMGEdge, CondensedMolecular</text>
<text text-anchor="middle" x="155.0244" y="-127.5" font-family="Helvetica,sans-Serif" font-size="10.00" fill="#000000">Graph &gt;</text>
</a>
</g>
</g>
<!-- Node4&#45;&gt;Node3 -->
<g id="edge3" class="edge">
<title>Node4&#45;&gt;Node3</title>
<path fill="none" stroke="#191970" d="M155.0244,-111.3904C155.0244,-101.4627 155.0244,-91.0588 155.0244,-83.8402"/>
<polygon fill="#191970" stroke="#191970" points="151.5245,-111.41 155.0244,-121.4101 158.5245,-111.4101 151.5245,-111.41"/>
</g>
<!-- Node5 -->
<g id="node5" class="node">
<title>Node5</title>
<g id="a_node5"><a xlink:href="classindigox_1_1graph_1_1_base_graph.html" target="_top" xlink:title="Template base class for all graphs used in the indigoX library. ">
<polygon fill="#ffffff" stroke="#000000" points="100.9307,-216.5 100.9307,-244.5 209.1182,-244.5 209.1182,-216.5 100.9307,-216.5"/>
<text text-anchor="start" x="108.9307" y="-232.5" font-family="Helvetica,sans-Serif" font-size="10.00" fill="#000000">BaseGraph&lt; V, E, S,</text>
<text text-anchor="middle" x="155.0244" y="-222.5" font-family="Helvetica,sans-Serif" font-size="10.00" fill="#000000"> D, VP, EP &gt;</text>
</a>
</g>
</g>
<!-- Node5&#45;&gt;Node4 -->
<g id="edge4" class="edge">
<title>Node5&#45;&gt;Node4</title>
<path fill="none" stroke="#ffa500" stroke-dasharray="5,2" d="M155.0244,-206.1632C155.0244,-191.6073 155.0244,-173.367 155.0244,-159.8073"/>
<polygon fill="#ffa500" stroke="#ffa500" points="151.5245,-206.4375 155.0244,-216.4375 158.5245,-206.4375 151.5245,-206.4375"/>
<text text-anchor="start" x="155.0244" y="-190" font-family="Helvetica,sans-Serif" font-size="10.00" fill="#000000"> &lt; CMGVertex, CMGEdge,</text>
<text text-anchor="middle" x="221.8701" y="-180" font-family="Helvetica,sans-Serif" font-size="10.00" fill="#000000"> CondensedMolecularGraph &gt;</text>
</g>
</g>
</svg>
