<?xml version="1.0" encoding="UTF-8" standalone="no"?>
<!DOCTYPE svg PUBLIC "-//W3C//DTD SVG 1.1//EN"
 "http://www.w3.org/Graphics/SVG/1.1/DTD/svg11.dtd">
<!-- Generated by graphviz version 2.40.1 (20161225.0304)
 -->
<!-- Title: MolecularGraph::Impl Pages: 1 -->
<!--zoomable 116 -->
<svg id="main" version="1.1" xmlns="http://www.w3.org/2000/svg" xmlns:xlink="http://www.w3.org/1999/xlink" xml:space="preserve" onload="init(evt)">
<style type="text/css"><![CDATA[
.edge:hover path { stroke: red; }
.edge:hover polygon { stroke: red; fill: red; }
]]></style>
<script type="text/javascript"><![CDATA[
var edges = document.getElementsByTagName('g');
if (edges && edges.length) {
  for (var i=0;i<edges.length;i++) {
    if (edges[i].id.substr(0,4)=='edge') {
      edges[i].setAttribute('class','edge');
    }
  }
}
]]></script>
        <defs>
                <circle id="rim" cx="0" cy="0" r="7"/>
                <circle id="rim2" cx="0" cy="0" r="3.5"/>
                <g id="zoomPlus">
                        <use xlink:href="#rim" fill="#404040">
                                <set attributeName="fill" to="#808080" begin="zoomplus.mouseover" end="zoomplus.mouseout"/>
                        </use>
                        <path d="M-4,0h8M0,-4v8" fill="none" stroke="white" stroke-width="1.5" pointer-events="none"/>
                </g>
                <g id="zoomMin">
                        <use xlink:href="#rim" fill="#404040">
                                <set attributeName="fill" to="#808080" begin="zoomminus.mouseover" end="zoomminus.mouseout"/>
                        </use>
                        <path d="M-4,0h8" fill="none" stroke="white" stroke-width="1.5" pointer-events="none"/>
                </g>
                <g id="dirArrow">
                        <path fill="none" stroke="white" stroke-width="1.5" d="M0,-3.0v7 M-2.5,-0.5L0,-3.0L2.5,-0.5"/>
                </g>
               <g id="resetDef">
                       <use xlink:href="#rim2" fill="#404040">
                               <set attributeName="fill" to="#808080" begin="reset.mouseover" end="reset.mouseout"/>
                       </use>
               </g>
        </defs>

<script type="text/javascript">
var viewWidth = 857;
var viewHeight = 116;
var sectionId = 'dynsection-0';
</script>
<script xlink:href="svgpan.js"/>
<svg id="graph" class="graph">
<g id="viewport">
<title>MolecularGraph::Impl</title>
<polygon fill="#ffffff" stroke="transparent" points="-4,4 -4,-112 853.1328,-112 853.1328,4 -4,4"/>
<!-- Node1 -->
<g id="node1" class="node">
<title>Node1</title>
<polygon fill="#bfbfbf" stroke="#000000" points="737.542,-37.5 737.542,-55.5 849.1328,-55.5 849.1328,-37.5 737.542,-37.5"/>
<text text-anchor="middle" x="793.3374" y="-43.5" font-family="Helvetica,sans-Serif" font-size="10.00" fill="#000000">MolecularGraph::Impl</text>
</g>
<!-- Node2 -->
<g id="node2" class="node">
<title>Node2</title>
<g id="a_node2"><a xlink:href="classindigox_1_1graph_1_1_molecular_graph.html" target="_top" xlink:title="Class containing a graph representation of a molecule. ">
<polygon fill="#ffffff" stroke="#000000" points="505.9766,-81.5 505.9766,-99.5 593.1191,-99.5 593.1191,-81.5 505.9766,-81.5"/>
<text text-anchor="middle" x="549.5479" y="-87.5" font-family="Helvetica,sans-Serif" font-size="10.00" fill="#000000">MolecularGraph</text>
</a>
</g>
</g>
<!-- Node2&#45;&gt;Node1 -->
<g id="edge1" class="edge">
<title>Node2&#45;&gt;Node1</title>
<path fill="none" stroke="#9a32cd" stroke-dasharray="5,2" d="M603.2804,-81.1987C636.7433,-75.3612 680.6713,-67.6167 719.542,-60.5 728.1361,-58.9265 737.2865,-57.2177 746.1132,-55.5522"/>
<polygon fill="#9a32cd" stroke="#9a32cd" points="602.4994,-77.782 593.2485,-82.9463 603.7008,-84.6781 602.4994,-77.782"/>
<text text-anchor="middle" x="678.1187" y="-76.5" font-family="Helvetica,sans-Serif" font-size="10.00" fill="#000000"> super_graph</text>
</g>
<!-- Node3 -->
<g id="node3" class="node">
<title>Node3</title>
<g id="a_node3"><a xlink:href="classindigox_1_1graph_1_1_base_graph.html" target="_top" xlink:title="BaseGraph\&lt; MGVertex,\l MGEdge, MolecularGraph \&gt;">
<polygon fill="#ffffff" stroke="#000000" points="288.8604,-79.5 288.8604,-107.5 432.4189,-107.5 432.4189,-79.5 288.8604,-79.5"/>
<text text-anchor="start" x="296.8604" y="-95.5" font-family="Helvetica,sans-Serif" font-size="10.00" fill="#000000">BaseGraph&lt; MGVertex,</text>
<text text-anchor="middle" x="360.6396" y="-85.5" font-family="Helvetica,sans-Serif" font-size="10.00" fill="#000000"> MGEdge, MolecularGraph &gt;</text>
</a>
</g>
</g>
<!-- Node3&#45;&gt;Node2 -->
<g id="edge2" class="edge">
<title>Node3&#45;&gt;Node2</title>
<path fill="none" stroke="#191970" d="M442.8359,-92.1947C464.5658,-91.8496 487.1762,-91.4905 505.9611,-91.1922"/>
<polygon fill="#191970" stroke="#191970" points="442.5398,-88.6988 432.5966,-92.3573 442.651,-95.6979 442.5398,-88.6988"/>
</g>
<!-- Node4 -->
<g id="node4" class="node">
<title>Node4</title>
<g id="a_node4"><a xlink:href="classindigox_1_1graph_1_1_base_graph.html" target="_top" xlink:title="Template base class for all graphs used in the indigoX library. ">
<polygon fill="#ffffff" stroke="#000000" points="0,-52.5 0,-80.5 108.1875,-80.5 108.1875,-52.5 0,-52.5"/>
<text text-anchor="start" x="8" y="-68.5" font-family="Helvetica,sans-Serif" font-size="10.00" fill="#000000">BaseGraph&lt; V, E, S,</text>
<text text-anchor="middle" x="54.0938" y="-58.5" font-family="Helvetica,sans-Serif" font-size="10.00" fill="#000000"> D, VP, EP &gt;</text>
</a>
</g>
</g>
<!-- Node4&#45;&gt;Node3 -->
<g id="edge3" class="edge">
<title>Node4&#45;&gt;Node3</title>
<path fill="none" stroke="#ffa500" stroke-dasharray="5,2" d="M118.1948,-72.1459C167.9741,-76.5304 236.9938,-82.6095 288.6654,-87.1606"/>
<polygon fill="#ffa500" stroke="#ffa500" points="118.4609,-68.6559 108.1924,-71.2649 117.8467,-75.6289 118.4609,-68.6559"/>
<text text-anchor="start" x="141.2046" y="-95.5" font-family="Helvetica,sans-Serif" font-size="10.00" fill="#000000"> &lt; MGVertex, MGEdge,</text>
<text text-anchor="middle" x="193.0332" y="-85.5" font-family="Helvetica,sans-Serif" font-size="10.00" fill="#000000"> MolecularGraph &gt;</text>
</g>
<!-- Node7 -->
<g id="node7" class="node">
<title>Node7</title>
<g id="a_node7"><a xlink:href="classindigox_1_1graph_1_1_base_graph.html" target="_top" xlink:title="BaseGraph\&lt; CMGVertex,\l CMGEdge, CondensedMolecular\lGraph \&gt;">
<polygon fill="#ffffff" stroke="#000000" points="277.8789,-22.5 277.8789,-60.5 443.4004,-60.5 443.4004,-22.5 277.8789,-22.5"/>
<text text-anchor="start" x="285.8789" y="-48.5" font-family="Helvetica,sans-Serif" font-size="10.00" fill="#000000">BaseGraph&lt; CMGVertex,</text>
<text text-anchor="start" x="285.8789" y="-38.5" font-family="Helvetica,sans-Serif" font-size="10.00" fill="#000000"> CMGEdge, CondensedMolecular</text>
<text text-anchor="middle" x="360.6396" y="-28.5" font-family="Helvetica,sans-Serif" font-size="10.00" fill="#000000">Graph &gt;</text>
</a>
</g>
</g>
<!-- Node4&#45;&gt;Node7 -->
<g id="edge7" class="edge">
<title>Node4&#45;&gt;Node7</title>
<path fill="none" stroke="#ffa500" stroke-dasharray="5,2" d="M114.455,-50.4276C118.408,-49.6856 122.3438,-49.0309 126.1875,-48.5 176.2074,-41.5908 232.7775,-39.7326 277.8166,-39.6532"/>
<polygon fill="#ffa500" stroke="#ffa500" points="113.7341,-47.0025 104.6356,-52.431 115.1335,-53.8611 113.7341,-47.0025"/>
<text text-anchor="start" x="126.1875" y="-60.5" font-family="Helvetica,sans-Serif" font-size="10.00" fill="#000000"> &lt; CMGVertex, CMGEdge,</text>
<text text-anchor="middle" x="193.0332" y="-50.5" font-family="Helvetica,sans-Serif" font-size="10.00" fill="#000000"> CondensedMolecularGraph &gt;</text>
</g>
<!-- Node5 -->
<g id="node5" class="node">
<title>Node5</title>
<g id="a_node5"><a xlink:href="classindigox_1_1_molecule.html" target="_top" xlink:title="Molecule">
<polygon fill="#ffffff" stroke="#000000" points="521.5381,-.5 521.5381,-18.5 577.5576,-18.5 577.5576,-.5 521.5381,-.5"/>
<text text-anchor="middle" x="549.5479" y="-6.5" font-family="Helvetica,sans-Serif" font-size="10.00" fill="#000000">Molecule</text>
</a>
</g>
</g>
<!-- Node5&#45;&gt;Node1 -->
<g id="edge4" class="edge">
<title>Node5&#45;&gt;Node1</title>
<path fill="none" stroke="#9a32cd" stroke-dasharray="5,2" d="M587.7059,-14.0757C622.2151,-18.3532 674.3859,-25.1671 719.542,-32.5 728.6808,-33.984 738.4268,-35.7218 747.7401,-37.4583"/>
<polygon fill="#9a32cd" stroke="#9a32cd" points="587.9429,-10.5785 577.5905,-12.8318 587.0885,-17.5262 587.9429,-10.5785"/>
<text text-anchor="middle" x="678.1187" y="-34.5" font-family="Helvetica,sans-Serif" font-size="10.00" fill="#000000"> molecule</text>
</g>
<!-- Node6 -->
<g id="node6" class="node">
<title>Node6</title>
<g id="a_node6"><a xlink:href="classindigox_1_1graph_1_1_condensed_molecular_graph.html" target="_top" xlink:title="CondensedMolecularGraph">
<polygon fill="#ffffff" stroke="#000000" points="480.4004,-37.5 480.4004,-55.5 618.6953,-55.5 618.6953,-37.5 480.4004,-37.5"/>
<text text-anchor="middle" x="549.5479" y="-43.5" font-family="Helvetica,sans-Serif" font-size="10.00" fill="#000000">CondensedMolecularGraph</text>
</a>
</g>
</g>
<!-- Node6&#45;&gt;Node1 -->
<g id="edge5" class="edge">
<title>Node6&#45;&gt;Node1</title>
<path fill="none" stroke="#9a32cd" stroke-dasharray="5,2" d="M629.0734,-46.5C664.4974,-46.5 705.3738,-46.5 737.4884,-46.5"/>
<polygon fill="#9a32cd" stroke="#9a32cd" points="628.7561,-43.0001 618.756,-46.5 628.756,-50.0001 628.7561,-43.0001"/>
<text text-anchor="middle" x="678.1187" y="-48.5" font-family="Helvetica,sans-Serif" font-size="10.00" fill="#000000"> condensed_graph</text>
</g>
<!-- Node7&#45;&gt;Node6 -->
<g id="edge6" class="edge">
<title>Node7&#45;&gt;Node6</title>
<path fill="none" stroke="#191970" d="M453.6238,-43.9611C462.6148,-44.1991 471.6235,-44.4375 480.3241,-44.6678"/>
<polygon fill="#191970" stroke="#191970" points="453.5867,-40.459 443.4975,-43.6931 453.4014,-47.4565 453.5867,-40.459"/>
</g>
</g>
</svg>
        <g id="navigator" transform="translate(0 0)" fill="#404254">
                <rect fill="#f2f5e9" fill-opacity="0.5" stroke="#606060" stroke-width=".5" x="0" y="0" width="60" height="60"/>
                <use id="zoomplus" xlink:href="#zoomPlus" x="17" y="9" onmousedown="handleZoom(evt,'in')"/>
                <use id="zoomminus" xlink:href="#zoomMin" x="42" y="9" onmousedown="handleZoom(evt,'out')"/>
                <use id="reset" xlink:href="#resetDef" x="30" y="36" onmousedown="handleReset()"/>
                <g id="arrowUp" xlink:href="#dirArrow" transform="translate(30 24)" onmousedown="handlePan(0,-1)">
                  <use xlink:href="#rim" fill="#404040">
                        <set attributeName="fill" to="#808080" begin="arrowUp.mouseover" end="arrowUp.mouseout"/>
                  </use>
                  <path fill="none" stroke="white" stroke-width="1.5" d="M0,-3.0v7 M-2.5,-0.5L0,-3.0L2.5,-0.5"/>
                </g>
                <g id="arrowRight" xlink:href="#dirArrow" transform="rotate(90) translate(36 -43)" onmousedown="handlePan(1,0)">
                  <use xlink:href="#rim" fill="#404040">
                        <set attributeName="fill" to="#808080" begin="arrowRight.mouseover" end="arrowRight.mouseout"/>
                  </use>
                  <path fill="none" stroke="white" stroke-width="1.5" d="M0,-3.0v7 M-2.5,-0.5L0,-3.0L2.5,-0.5"/>
                </g>
                <g id="arrowDown" xlink:href="#dirArrow" transform="rotate(180) translate(-30 -48)" onmousedown="handlePan(0,1)">
                  <use xlink:href="#rim" fill="#404040">
                        <set attributeName="fill" to="#808080" begin="arrowDown.mouseover" end="arrowDown.mouseout"/>
                  </use>
                  <path fill="none" stroke="white" stroke-width="1.5" d="M0,-3.0v7 M-2.5,-0.5L0,-3.0L2.5,-0.5"/>
                </g>
                <g id="arrowLeft" xlink:href="#dirArrow" transform="rotate(270) translate(-36 17)" onmousedown="handlePan(-1,0)">
                  <use xlink:href="#rim" fill="#404040">
                        <set attributeName="fill" to="#808080" begin="arrowLeft.mouseover" end="arrowLeft.mouseout"/>
                  </use>
                  <path fill="none" stroke="white" stroke-width="1.5" d="M0,-3.0v7 M-2.5,-0.5L0,-3.0L2.5,-0.5"/>
                </g>
        </g>
        <svg viewBox="0 0 15 15" width="100%" height="30px" preserveAspectRatio="xMaxYMin meet">
         <g id="arrow_out" transform="scale(0.3 0.3)">
          <a xlink:href="structindigox_1_1graph_1_1_molecular_graph_1_1_impl__coll__graph_org.svg" target="_base">
           <rect id="button" ry="5" rx="5" y="6" x="6" height="38" width="38"
                fill="#f2f5e9" fill-opacity="0.5" stroke="#606060" stroke-width="1.0"/>
           <path id="arrow"
             d="M 11.500037,31.436501 C 11.940474,20.09759 22.043105,11.32322 32.158766,21.979434 L 37.068811,17.246167 C 37.068811,17.246167 37.088388,32 37.088388,32 L 22.160133,31.978069 C 22.160133,31.978069 26.997745,27.140456 26.997745,27.140456 C 18.528582,18.264221 13.291696,25.230495 11.500037,31.436501 z"
             style="fill:#404040;"/>
          </a>
         </g>
        </svg>
</svg>
