<?xml version="1.0" encoding="UTF-8" standalone="no"?>
<!DOCTYPE svg PUBLIC "-//W3C//DTD SVG 1.1//EN"
 "http://www.w3.org/Graphics/SVG/1.1/DTD/svg11.dtd">
<!-- Generated by graphviz version 2.40.1 (20161225.0304)
 -->
<!-- Title: Molecule::Impl Pages: 1 -->
<!--zoomable 467 -->
<svg id="main" version="1.1" xmlns="http://www.w3.org/2000/svg" xmlns:xlink="http://www.w3.org/1999/xlink" xml:space="preserve" onload="init(evt)">
<style type="text/css"><![CDATA[
.edge:hover path { stroke: red; }
.edge:hover polygon { stroke: red; fill: red; }
]]></style>
<script type="text/javascript"><![CDATA[
var edges = document.getElementsByTagName('g');
if (edges && edges.length) {
  for (var i=0;i<edges.length;i++) {
    if (edges[i].id.substr(0,4)=='edge') {
      edges[i].setAttribute('class','edge');
    }
  }
}
]]></script>
        <defs>
                <circle id="rim" cx="0" cy="0" r="7"/>
                <circle id="rim2" cx="0" cy="0" r="3.5"/>
                <g id="zoomPlus">
                        <use xlink:href="#rim" fill="#404040">
                                <set attributeName="fill" to="#808080" begin="zoomplus.mouseover" end="zoomplus.mouseout"/>
                        </use>
                        <path d="M-4,0h8M0,-4v8" fill="none" stroke="white" stroke-width="1.5" pointer-events="none"/>
                </g>
                <g id="zoomMin">
                        <use xlink:href="#rim" fill="#404040">
                                <set attributeName="fill" to="#808080" begin="zoomminus.mouseover" end="zoomminus.mouseout"/>
                        </use>
                        <path d="M-4,0h8" fill="none" stroke="white" stroke-width="1.5" pointer-events="none"/>
                </g>
                <g id="dirArrow">
                        <path fill="none" stroke="white" stroke-width="1.5" d="M0,-3.0v7 M-2.5,-0.5L0,-3.0L2.5,-0.5"/>
                </g>
               <g id="resetDef">
                       <use xlink:href="#rim2" fill="#404040">
                               <set attributeName="fill" to="#808080" begin="reset.mouseover" end="reset.mouseout"/>
                       </use>
               </g>
        </defs>

<script type="text/javascript">
var viewWidth = 1381;
var viewHeight = 467;
var sectionId = 'dynsection-0';
</script>
<script xlink:href="svgpan.js"/>
<svg id="graph" class="graph">
<g id="viewport">
<title>Molecule::Impl</title>
<polygon fill="#ffffff" stroke="transparent" points="-4,4 -4,-463 1376.5332,-463 1376.5332,4 -4,4"/>
<!-- Node1 -->
<g id="node1" class="node">
<title>Node1</title>
<g id="a_node1"><a xlink:title=" ">
<polygon fill="#bfbfbf" stroke="#000000" points="1292.0654,-177.5 1292.0654,-195.5 1372.5332,-195.5 1372.5332,-177.5 1292.0654,-177.5"/>
<text text-anchor="middle" x="1332.2993" y="-183.5" font-family="Helvetica,sans-Serif" font-size="10.00" fill="#000000">Molecule::Impl</text>
</a>
</g>
</g>
<!-- Node2 -->
<g id="node2" class="node">
<title>Node2</title>
<g id="a_node2"><a xlink:href="classindigox_1_1graph_1_1_molecular_graph.html" target="_top" xlink:title="Class containing a graph representation of a molecule.">
<polygon fill="#ffffff" stroke="#000000" points="1042.7266,-342.5 1042.7266,-360.5 1129.8691,-360.5 1129.8691,-342.5 1042.7266,-342.5"/>
<text text-anchor="middle" x="1086.2979" y="-348.5" font-family="Helvetica,sans-Serif" font-size="10.00" fill="#000000">MolecularGraph</text>
</a>
</g>
</g>
<!-- Node2&#45;&gt;Node1 -->
<g id="edge1" class="edge">
<title>Node2&#45;&gt;Node1</title>
<path fill="none" stroke="#9a32cd" stroke-dasharray="5,2" d="M1137.4221,-339.8325C1177.8779,-328.6095 1234.0338,-308.405 1274.0654,-275.5 1301.7388,-252.7532 1320.9123,-213.3711 1328.5762,-195.6296"/>
<polygon fill="#9a32cd" stroke="#9a32cd" points="1136.5041,-336.4549 1127.7532,-342.4275 1138.3187,-343.2157 1136.5041,-336.4549"/>
<text text-anchor="middle" x="1223.7554" y="-328.5" font-family="Helvetica,sans-Serif" font-size="10.00" fill="#000000"> molecular_graph</text>
</g>
<!-- Node3 -->
<g id="node3" class="node">
<title>Node3</title>
<g id="a_node3"><a xlink:href="classindigox_1_1graph_1_1_base_graph.html" target="_top" xlink:title=" ">
<polygon fill="#ffffff" stroke="#000000" points="769.3545,-373.5 769.3545,-401.5 912.9131,-401.5 912.9131,-373.5 769.3545,-373.5"/>
<text text-anchor="start" x="777.3545" y="-389.5" font-family="Helvetica,sans-Serif" font-size="10.00" fill="#000000">BaseGraph&lt; MGVertex,</text>
<text text-anchor="middle" x="841.1338" y="-379.5" font-family="Helvetica,sans-Serif" font-size="10.00" fill="#000000"> MGEdge, MolecularGraph &gt;</text>
</a>
</g>
</g>
<!-- Node3&#45;&gt;Node2 -->
<g id="edge2" class="edge">
<title>Node3&#45;&gt;Node2</title>
<path fill="none" stroke="#191970" d="M923.0338,-375.4738C962.9618,-369.6107 1009.385,-362.7939 1042.4989,-357.9315"/>
<polygon fill="#191970" stroke="#191970" points="922.4199,-372.0263 913.0346,-376.9421 923.437,-378.952 922.4199,-372.0263"/>
</g>
<!-- Node4 -->
<g id="node4" class="node">
<title>Node4</title>
<g id="a_node4"><a xlink:title=" ">
<polygon fill="#ffffff" stroke="#bfbfbf" points="263.9482,-366.5 263.9482,-384.5 386.6768,-384.5 386.6768,-366.5 263.9482,-366.5"/>
<text text-anchor="middle" x="325.3125" y="-372.5" font-family="Helvetica,sans-Serif" font-size="10.00" fill="#000000">shared_ptr&lt; BaseImpl &gt;</text>
</a>
</g>
</g>
<!-- Node4&#45;&gt;Node3 -->
<g id="edge3" class="edge">
<title>Node4&#45;&gt;Node3</title>
<path fill="none" stroke="#9a32cd" stroke-dasharray="5,2" d="M397.0436,-369.3517C423.2784,-367.3839 453.2101,-365.4658 480.4941,-364.5 528.5474,-362.799 540.6479,-362.3164 588.6816,-364.5 649.6825,-367.273 718.7186,-373.7965 769.1605,-379.1904"/>
<polygon fill="#9a32cd" stroke="#9a32cd" points="396.5098,-365.8822 386.8063,-370.1358 397.0445,-372.8618 396.5098,-365.8822"/>
<text text-anchor="middle" x="534.5879" y="-366.5" font-family="Helvetica,sans-Serif" font-size="10.00" fill="#000000"> m_basedata</text>
</g>
<!-- Node7 -->
<g id="node7" class="node">
<title>Node7</title>
<g id="a_node7"><a xlink:href="classindigox_1_1graph_1_1_base_graph.html" target="_top" xlink:title="Template base class for all graphs used in the indigoX library.">
<polygon fill="#ffffff" stroke="#000000" points="480.4941,-383.5 480.4941,-411.5 588.6816,-411.5 588.6816,-383.5 480.4941,-383.5"/>
<text text-anchor="start" x="488.4941" y="-399.5" font-family="Helvetica,sans-Serif" font-size="10.00" fill="#000000">BaseGraph&lt; V, E, S,</text>
<text text-anchor="middle" x="534.5879" y="-389.5" font-family="Helvetica,sans-Serif" font-size="10.00" fill="#000000"> D, VP, EP &gt;</text>
</a>
</g>
</g>
<!-- Node4&#45;&gt;Node7 -->
<g id="edge7" class="edge">
<title>Node4&#45;&gt;Node7</title>
<path fill="none" stroke="#9a32cd" stroke-dasharray="5,2" d="M396.97,-383.033C424.2705,-385.9029 454.9072,-389.1236 480.3317,-391.7963"/>
<polygon fill="#9a32cd" stroke="#9a32cd" points="396.9991,-379.5168 386.688,-381.9521 396.2672,-386.4785 396.9991,-379.5168"/>
<text text-anchor="middle" x="433.5854" y="-391.5" font-family="Helvetica,sans-Serif" font-size="10.00" fill="#000000"> m_basedata</text>
</g>
<!-- Node23 -->
<g id="node23" class="node">
<title>Node23</title>
<g id="a_node23"><a xlink:href="classindigox_1_1graph_1_1_base_graph.html" target="_top" xlink:title=" ">
<polygon fill="#ffffff" stroke="#000000" points="758.373,-420.5 758.373,-458.5 923.8945,-458.5 923.8945,-420.5 758.373,-420.5"/>
<text text-anchor="start" x="766.373" y="-446.5" font-family="Helvetica,sans-Serif" font-size="10.00" fill="#000000">BaseGraph&lt; CMGVertex,</text>
<text text-anchor="start" x="766.373" y="-436.5" font-family="Helvetica,sans-Serif" font-size="10.00" fill="#000000"> CMGEdge, CondensedMolecular</text>
<text text-anchor="middle" x="841.1338" y="-426.5" font-family="Helvetica,sans-Serif" font-size="10.00" fill="#000000">Graph &gt;</text>
</a>
</g>
</g>
<!-- Node4&#45;&gt;Node23 -->
<g id="edge29" class="edge">
<title>Node4&#45;&gt;Node23</title>
<path fill="none" stroke="#9a32cd" stroke-dasharray="5,2" d="M358.7946,-388.1996C372.8548,-393.3003 389.4499,-399.0201 404.6768,-403.5 437.9019,-413.2751 446.7689,-413.6214 480.4941,-421.5 536.5307,-434.5908 549.503,-444.0142 606.6816,-450.5 665.7214,-457.1969 681.0424,-453.729 740.373,-450.5 746.1715,-450.1844 752.1494,-449.7674 758.1641,-449.2804"/>
<polygon fill="#9a32cd" stroke="#9a32cd" points="359.654,-384.7866 349.0605,-384.6215 357.2389,-391.3568 359.654,-384.7866"/>
<text text-anchor="middle" x="534.5879" y="-449.5" font-family="Helvetica,sans-Serif" font-size="10.00" fill="#000000"> m_basedata</text>
</g>
<!-- Node5 -->
<g id="node5" class="node">
<title>Node5</title>
<g id="a_node5"><a xlink:title="STL class.">
<polygon fill="#ffffff" stroke="#bfbfbf" points="79.4482,-285.5 79.4482,-303.5 166.249,-303.5 166.249,-285.5 79.4482,-285.5"/>
<text text-anchor="middle" x="122.8486" y="-291.5" font-family="Helvetica,sans-Serif" font-size="10.00" fill="#000000">shared_ptr&lt; T &gt;</text>
</a>
</g>
</g>
<!-- Node5&#45;&gt;Node4 -->
<g id="edge4" class="edge">
<title>Node5&#45;&gt;Node4</title>
<path fill="none" stroke="#ffa500" stroke-dasharray="5,2" d="M154.9891,-307.3585C196.1692,-323.8335 266.5227,-351.9799 302.5643,-366.3991"/>
<polygon fill="#ffa500" stroke="#ffa500" points="156.2649,-304.0992 145.6802,-303.6343 153.6647,-310.5984 156.2649,-304.0992"/>
<text text-anchor="middle" x="215.0986" y="-343.5" font-family="Helvetica,sans-Serif" font-size="10.00" fill="#000000"> &lt; BaseImpl &gt;</text>
</g>
<!-- Node6 -->
<g id="node6" class="node">
<title>Node6</title>
<g id="a_node6"><a xlink:title=" ">
<polygon fill="#ffffff" stroke="#bfbfbf" points="0,-259.5 0,-277.5 29,-277.5 29,-259.5 0,-259.5"/>
<text text-anchor="middle" x="14.5" y="-265.5" font-family="Helvetica,sans-Serif" font-size="10.00" fill="#000000">T</text>
</a>
</g>
</g>
<!-- Node6&#45;&gt;Node5 -->
<g id="edge5" class="edge">
<title>Node6&#45;&gt;Node5</title>
<path fill="none" stroke="#9a32cd" stroke-dasharray="5,2" d="M39.1554,-274.4165C52.7662,-277.6826 69.9555,-281.8074 85.2101,-285.468"/>
<polygon fill="#9a32cd" stroke="#9a32cd" points="39.6531,-270.9366 29.1124,-272.0065 38.0196,-277.7434 39.6531,-270.9366"/>
<text text-anchor="middle" x="54.2241" y="-280.5" font-family="Helvetica,sans-Serif" font-size="10.00" fill="#000000"> ptr</text>
</g>
<!-- Node10 -->
<g id="node10" class="node">
<title>Node10</title>
<g id="a_node10"><a xlink:title="STL class.">
<polygon fill="#ffffff" stroke="#bfbfbf" points="808.0215,-186.5 808.0215,-204.5 874.2461,-204.5 874.2461,-186.5 808.0215,-186.5"/>
<text text-anchor="middle" x="841.1338" y="-192.5" font-family="Helvetica,sans-Serif" font-size="10.00" fill="#000000">vector&lt; T &gt;</text>
</a>
</g>
</g>
<!-- Node6&#45;&gt;Node10 -->
<g id="edge11" class="edge">
<title>Node6&#45;&gt;Node10</title>
<path fill="none" stroke="#9a32cd" stroke-dasharray="5,2" d="M38.8898,-262.8111C60.7506,-258.2128 93.7624,-252.5 122.8486,-252.5 122.8486,-252.5 122.8486,-252.5 534.5879,-252.5 638.2506,-252.5 758.3594,-220.6043 812.3023,-204.5318"/>
<polygon fill="#9a32cd" stroke="#9a32cd" points="38.1405,-259.3922 29.1199,-264.9491 39.637,-266.2304 38.1405,-259.3922"/>
<text text-anchor="middle" x="325.3125" y="-254.5" font-family="Helvetica,sans-Serif" font-size="10.00" fill="#000000"> elements</text>
</g>
<!-- Node7&#45;&gt;Node3 -->
<g id="edge6" class="edge">
<title>Node7&#45;&gt;Node3</title>
<path fill="none" stroke="#ffa500" stroke-dasharray="5,2" d="M598.9633,-389.0731C601.568,-388.8559 604.1484,-388.6629 606.6816,-388.5 661.1124,-384.9991 722.7977,-384.8892 769.2297,-385.5796"/>
<polygon fill="#ffa500" stroke="#ffa500" points="598.4767,-385.6032 588.846,-390.0191 599.1285,-392.5728 598.4767,-385.6032"/>
<text text-anchor="start" x="621.6987" y="-400.5" font-family="Helvetica,sans-Serif" font-size="10.00" fill="#000000"> &lt; MGVertex, MGEdge,</text>
<text text-anchor="middle" x="673.5273" y="-390.5" font-family="Helvetica,sans-Serif" font-size="10.00" fill="#000000"> MolecularGraph &gt;</text>
</g>
<!-- Node7&#45;&gt;Node23 -->
<g id="edge30" class="edge">
<title>Node7&#45;&gt;Node23</title>
<path fill="none" stroke="#ffa500" stroke-dasharray="5,2" d="M598.9903,-407.392C601.5875,-407.7701 604.159,-408.1408 606.6816,-408.5 656.9833,-415.6623 713.4388,-423.144 758.3445,-428.9627"/>
<polygon fill="#ffa500" stroke="#ffa500" points="599.2984,-403.8996 588.895,-405.9048 598.2781,-410.8249 599.2984,-403.8996"/>
<text text-anchor="start" x="606.6816" y="-438.5" font-family="Helvetica,sans-Serif" font-size="10.00" fill="#000000"> &lt; CMGVertex, CMGEdge,</text>
<text text-anchor="middle" x="673.5273" y="-428.5" font-family="Helvetica,sans-Serif" font-size="10.00" fill="#000000"> CondensedMolecularGraph &gt;</text>
</g>
<!-- Node8 -->
<g id="node8" class="node">
<title>Node8</title>
<g id="a_node8"><a xlink:title=" ">
<polygon fill="#ffffff" stroke="#bfbfbf" points="1043.5493,-270.5 1043.5493,-288.5 1129.0464,-288.5 1129.0464,-270.5 1043.5493,-270.5"/>
<text text-anchor="middle" x="1086.2979" y="-276.5" font-family="Helvetica,sans-Serif" font-size="10.00" fill="#000000">vector&lt; Angle &gt;</text>
</a>
</g>
</g>
<!-- Node8&#45;&gt;Node1 -->
<g id="edge8" class="edge">
<title>Node8&#45;&gt;Node1</title>
<path fill="none" stroke="#9a32cd" stroke-dasharray="5,2" d="M1139.151,-269.9364C1177.7521,-261.7566 1230.6984,-248.0121 1274.0654,-227.5 1292.1726,-218.9355 1310.6827,-204.792 1321.8348,-195.56"/>
<polygon fill="#9a32cd" stroke="#9a32cd" points="1138.25,-266.5485 1129.1634,-271.9968 1139.6643,-273.4041 1138.25,-266.5485"/>
<text text-anchor="middle" x="1223.7554" y="-263.5" font-family="Helvetica,sans-Serif" font-size="10.00" fill="#000000"> angles</text>
</g>
<!-- Node9 -->
<g id="node9" class="node">
<title>Node9</title>
<g id="a_node9"><a xlink:href="classindigox_1_1_angle.html" target="_top" xlink:title=" ">
<polygon fill="#ffffff" stroke="#000000" points="820.3457,-336.5 820.3457,-354.5 861.9219,-354.5 861.9219,-336.5 820.3457,-336.5"/>
<text text-anchor="middle" x="841.1338" y="-342.5" font-family="Helvetica,sans-Serif" font-size="10.00" fill="#000000">Angle</text>
</a>
</g>
</g>
<!-- Node9&#45;&gt;Node8 -->
<g id="edge9" class="edge">
<title>Node9&#45;&gt;Node8</title>
<path fill="none" stroke="#9a32cd" stroke-dasharray="5,2" d="M872.2483,-344.1835C904.6011,-342.1223 956.3972,-336.8632 999.1504,-323.5 1026.3278,-315.0053 1055.3661,-298.7107 1072.1186,-288.5119"/>
<polygon fill="#9a32cd" stroke="#9a32cd" points="871.8465,-340.7007 862.0631,-344.7671 872.2469,-347.6893 871.8465,-340.7007"/>
<text text-anchor="middle" x="970.5225" y="-337.5" font-family="Helvetica,sans-Serif" font-size="10.00" fill="#000000"> elements</text>
</g>
<!-- Node10&#45;&gt;Node8 -->
<g id="edge10" class="edge">
<title>Node10&#45;&gt;Node8</title>
<path fill="none" stroke="#ffa500" stroke-dasharray="5,2" d="M884.2927,-207.1399C897.9092,-212.207 912.3874,-219.1735 923.8945,-228.5 935.0988,-237.581 929.7817,-247.6719 941.8945,-255.5 971.9903,-274.9498 1012.7399,-280.2551 1043.2776,-281.0966"/>
<polygon fill="#ffa500" stroke="#ffa500" points="885.1797,-203.7432 874.5849,-203.7793 882.8898,-210.3581 885.1797,-203.7432"/>
<text text-anchor="middle" x="970.5225" y="-277.5" font-family="Helvetica,sans-Serif" font-size="10.00" fill="#000000"> &lt; Angle &gt;</text>
</g>
<!-- Node11 -->
<g id="node11" class="node">
<title>Node11</title>
<g id="a_node11"><a xlink:title=" ">
<polygon fill="#ffffff" stroke="#bfbfbf" points="1037.7192,-140.5 1037.7192,-158.5 1134.8765,-158.5 1134.8765,-140.5 1037.7192,-140.5"/>
<text text-anchor="middle" x="1086.2979" y="-146.5" font-family="Helvetica,sans-Serif" font-size="10.00" fill="#000000">vector&lt; Residue &gt;</text>
</a>
</g>
</g>
<!-- Node10&#45;&gt;Node11 -->
<g id="edge14" class="edge">
<title>Node10&#45;&gt;Node11</title>
<path fill="none" stroke="#ffa500" stroke-dasharray="5,2" d="M877.9269,-183.347C896.8585,-177.4944 920.4149,-170.8253 941.8945,-166.5 973.4462,-160.1465 1009.3888,-155.9048 1037.5221,-153.2474"/>
<polygon fill="#ffa500" stroke="#ffa500" points="876.6952,-180.0653 868.2066,-186.4051 878.796,-186.7426 876.6952,-180.0653"/>
<text text-anchor="middle" x="970.5225" y="-168.5" font-family="Helvetica,sans-Serif" font-size="10.00" fill="#000000"> &lt; Residue &gt;</text>
</g>
<!-- Node13 -->
<g id="node13" class="node">
<title>Node13</title>
<g id="a_node13"><a xlink:title=" ">
<polygon fill="#ffffff" stroke="#bfbfbf" points="1044.6675,-177.5 1044.6675,-195.5 1127.9282,-195.5 1127.9282,-177.5 1044.6675,-177.5"/>
<text text-anchor="middle" x="1086.2979" y="-183.5" font-family="Helvetica,sans-Serif" font-size="10.00" fill="#000000">vector&lt; Atom &gt;</text>
</a>
</g>
</g>
<!-- Node10&#45;&gt;Node13 -->
<g id="edge17" class="edge">
<title>Node10&#45;&gt;Node13</title>
<path fill="none" stroke="#ffa500" stroke-dasharray="5,2" d="M884.6418,-188.1175C902.3463,-185.4631 923.042,-182.8035 941.8945,-181.5 967.281,-179.7448 973.7138,-180.7709 999.1504,-181.5 1013.9958,-181.9255 1030.2463,-182.758 1044.6505,-183.6235"/>
<polygon fill="#ffa500" stroke="#ffa500" points="883.9478,-184.6831 874.5998,-189.6695 885.017,-191.6009 883.9478,-184.6831"/>
<text text-anchor="middle" x="970.5225" y="-183.5" font-family="Helvetica,sans-Serif" font-size="10.00" fill="#000000"> &lt; Atom &gt;</text>
</g>
<!-- Node15 -->
<g id="node15" class="node">
<title>Node15</title>
<g id="a_node15"><a xlink:title=" ">
<polygon fill="#ffffff" stroke="#bfbfbf" points="1044.3867,-214.5 1044.3867,-232.5 1128.209,-232.5 1128.209,-214.5 1044.3867,-214.5"/>
<text text-anchor="middle" x="1086.2979" y="-220.5" font-family="Helvetica,sans-Serif" font-size="10.00" fill="#000000">vector&lt; Bond &gt;</text>
</a>
</g>
</g>
<!-- Node10&#45;&gt;Node15 -->
<g id="edge20" class="edge">
<title>Node10&#45;&gt;Node15</title>
<path fill="none" stroke="#ffa500" stroke-dasharray="5,2" d="M884.4908,-200.4518C929.4886,-205.5909 999.4041,-213.5759 1044.0044,-218.6697"/>
<polygon fill="#ffa500" stroke="#ffa500" points="884.7854,-196.9628 874.4529,-199.3053 883.9911,-203.9175 884.7854,-196.9628"/>
<text text-anchor="middle" x="970.5225" y="-214.5" font-family="Helvetica,sans-Serif" font-size="10.00" fill="#000000"> &lt; Bond &gt;</text>
</g>
<!-- Node20 -->
<g id="node20" class="node">
<title>Node20</title>
<g id="a_node20"><a xlink:title=" ">
<polygon fill="#ffffff" stroke="#bfbfbf" points="1037.4434,-103.5 1037.4434,-121.5 1135.1523,-121.5 1135.1523,-103.5 1037.4434,-103.5"/>
<text text-anchor="middle" x="1086.2979" y="-109.5" font-family="Helvetica,sans-Serif" font-size="10.00" fill="#000000">vector&lt; Dihedral &gt;</text>
</a>
</g>
</g>
<!-- Node10&#45;&gt;Node20 -->
<g id="edge26" class="edge">
<title>Node10&#45;&gt;Node20</title>
<path fill="none" stroke="#ffa500" stroke-dasharray="5,2" d="M864.2714,-181.3076C884.1965,-169.6438 914.0569,-153.471 941.8945,-143.5 972.793,-132.4327 1008.8938,-124.6827 1037.2701,-119.6995"/>
<polygon fill="#ffa500" stroke="#ffa500" points="862.4038,-178.3461 855.5997,-186.4674 865.9832,-184.3617 862.4038,-178.3461"/>
<text text-anchor="middle" x="970.5225" y="-145.5" font-family="Helvetica,sans-Serif" font-size="10.00" fill="#000000"> &lt; Dihedral &gt;</text>
</g>
<!-- Node11&#45;&gt;Node1 -->
<g id="edge12" class="edge">
<title>Node11&#45;&gt;Node1</title>
<path fill="none" stroke="#9a32cd" stroke-dasharray="5,2" d="M1145.3024,-154.9836C1182.4203,-158.8635 1231.2315,-164.7538 1274.0654,-172.5 1281.7395,-173.8878 1289.9153,-175.6641 1297.6402,-177.4821"/>
<polygon fill="#9a32cd" stroke="#9a32cd" points="1145.4631,-151.4818 1135.1581,-153.9428 1144.7486,-158.4453 1145.4631,-151.4818"/>
<text text-anchor="middle" x="1223.7554" y="-174.5" font-family="Helvetica,sans-Serif" font-size="10.00" fill="#000000"> residues</text>
</g>
<!-- Node12 -->
<g id="node12" class="node">
<title>Node12</title>
<g id="a_node12"><a xlink:href="classindigox_1_1_residue.html" target="_top" xlink:title=" ">
<polygon fill="#ffffff" stroke="#000000" points="814.7891,-74.5 814.7891,-92.5 867.4785,-92.5 867.4785,-74.5 814.7891,-74.5"/>
<text text-anchor="middle" x="841.1338" y="-80.5" font-family="Helvetica,sans-Serif" font-size="10.00" fill="#000000">Residue</text>
</a>
</g>
</g>
<!-- Node12&#45;&gt;Node11 -->
<g id="edge13" class="edge">
<title>Node12&#45;&gt;Node11</title>
<path fill="none" stroke="#9a32cd" stroke-dasharray="5,2" d="M877.6965,-78.5415C918.1914,-73.8566 980.2666,-69.3193 999.1504,-82.5 1018.1751,-95.779 999.966,-115.9126 1017.1504,-131.5 1022.9389,-136.7506 1030.0661,-140.507 1037.5225,-143.1867"/>
<polygon fill="#9a32cd" stroke="#9a32cd" points="877.1617,-75.0806 867.6546,-79.7568 878.0027,-82.0299 877.1617,-75.0806"/>
<text text-anchor="middle" x="970.5225" y="-84.5" font-family="Helvetica,sans-Serif" font-size="10.00" fill="#000000"> elements</text>
</g>
<!-- Node13&#45;&gt;Node1 -->
<g id="edge15" class="edge">
<title>Node13&#45;&gt;Node1</title>
<path fill="none" stroke="#9a32cd" stroke-dasharray="5,2" d="M1138.0706,-186.5C1183.9388,-186.5 1249.9701,-186.5 1291.9999,-186.5"/>
<polygon fill="#9a32cd" stroke="#9a32cd" points="1138.0287,-183.0001 1128.0286,-186.5 1138.0286,-190.0001 1138.0287,-183.0001"/>
<text text-anchor="middle" x="1223.7554" y="-188.5" font-family="Helvetica,sans-Serif" font-size="10.00" fill="#000000"> atoms</text>
</g>
<!-- Node14 -->
<g id="node14" class="node">
<title>Node14</title>
<g id="a_node14"><a xlink:href="classindigox_1_1_atom.html" target="_top" xlink:title=" ">
<polygon fill="#ffffff" stroke="#000000" points="821.4639,-237.5 821.4639,-255.5 860.8037,-255.5 860.8037,-237.5 821.4639,-237.5"/>
<text text-anchor="middle" x="841.1338" y="-243.5" font-family="Helvetica,sans-Serif" font-size="10.00" fill="#000000">Atom</text>
</a>
</g>
</g>
<!-- Node14&#45;&gt;Node13 -->
<g id="edge16" class="edge">
<title>Node14&#45;&gt;Node13</title>
<path fill="none" stroke="#9a32cd" stroke-dasharray="5,2" d="M871.247,-248.063C904.4144,-248.5212 958.4391,-245.4561 999.1504,-224.5 1009.4928,-219.1762 1007.1751,-211.4834 1017.1504,-205.5 1025.478,-200.5049 1035.1502,-196.7899 1044.5746,-194.0386"/>
<polygon fill="#9a32cd" stroke="#9a32cd" points="870.9353,-244.5539 860.8479,-247.7933 870.7537,-251.5515 870.9353,-244.5539"/>
<text text-anchor="middle" x="970.5225" y="-243.5" font-family="Helvetica,sans-Serif" font-size="10.00" fill="#000000"> elements</text>
</g>
<!-- Node15&#45;&gt;Node1 -->
<g id="edge18" class="edge">
<title>Node15&#45;&gt;Node1</title>
<path fill="none" stroke="#9a32cd" stroke-dasharray="5,2" d="M1138.4848,-218.1404C1176.2707,-213.9412 1228.4982,-207.4807 1274.0654,-199.5 1280.5957,-198.3563 1287.5005,-196.9719 1294.1844,-195.5387"/>
<polygon fill="#9a32cd" stroke="#9a32cd" points="1137.7871,-214.6958 1128.2278,-219.2642 1138.5495,-221.6542 1137.7871,-214.6958"/>
<text text-anchor="middle" x="1223.7554" y="-215.5" font-family="Helvetica,sans-Serif" font-size="10.00" fill="#000000"> bonds</text>
</g>
<!-- Node16 -->
<g id="node16" class="node">
<title>Node16</title>
<g id="a_node16"><a xlink:href="classindigox_1_1_bond.html" target="_top" xlink:title=" ">
<polygon fill="#ffffff" stroke="#000000" points="821.4565,-299.5 821.4565,-317.5 860.811,-317.5 860.811,-299.5 821.4565,-299.5"/>
<text text-anchor="middle" x="841.1338" y="-305.5" font-family="Helvetica,sans-Serif" font-size="10.00" fill="#000000">Bond</text>
</a>
</g>
</g>
<!-- Node16&#45;&gt;Node15 -->
<g id="edge19" class="edge">
<title>Node16&#45;&gt;Node15</title>
<path fill="none" stroke="#9a32cd" stroke-dasharray="5,2" d="M871.0107,-312.0918C904.7589,-314.6159 960.0596,-313.9841 999.1504,-289.5 1011.6882,-281.6471 1006.3356,-271.5948 1017.1504,-261.5 1030.5686,-248.9751 1048.8851,-239.1507 1063.2956,-232.6314"/>
<polygon fill="#9a32cd" stroke="#9a32cd" points="871.1298,-308.5886 860.8587,-311.1876 870.5088,-315.561 871.1298,-308.5886"/>
<text text-anchor="middle" x="970.5225" y="-310.5" font-family="Helvetica,sans-Serif" font-size="10.00" fill="#000000"> elements</text>
</g>
<!-- Node17 -->
<g id="node17" class="node">
<title>Node17</title>
<g id="a_node17"><a xlink:title="STL class.">
<polygon fill="#ffffff" stroke="#bfbfbf" points="1066.0713,-66.5 1066.0713,-84.5 1106.5244,-84.5 1106.5244,-66.5 1066.0713,-66.5"/>
<text text-anchor="middle" x="1086.2979" y="-72.5" font-family="Helvetica,sans-Serif" font-size="10.00" fill="#000000">string</text>
</a>
</g>
</g>
<!-- Node17&#45;&gt;Node1 -->
<g id="edge21" class="edge">
<title>Node17&#45;&gt;Node1</title>
<path fill="none" stroke="#9a32cd" stroke-dasharray="5,2" d="M1116.7955,-70.8757C1156.2209,-66.5196 1225.5596,-64.5158 1274.0654,-94.5 1305.7411,-114.0805 1323.1508,-158.0058 1329.4931,-177.2126"/>
<polygon fill="#9a32cd" stroke="#9a32cd" points="1116.2435,-67.4171 1106.7449,-72.1104 1117.0971,-74.3649 1116.2435,-67.4171"/>
<text text-anchor="middle" x="1223.7554" y="-106.5" font-family="Helvetica,sans-Serif" font-size="10.00" fill="#000000"> cached_formula</text>
<text text-anchor="middle" x="1223.7554" y="-96.5" font-family="Helvetica,sans-Serif" font-size="10.00" fill="#000000">name</text>
</g>
<!-- Node18 -->
<g id="node18" class="node">
<title>Node18</title>
<g id="a_node18"><a xlink:title="STL class.">
<polygon fill="#ffffff" stroke="#bfbfbf" points="788.1094,-.5 788.1094,-18.5 894.1582,-18.5 894.1582,-.5 788.1094,-.5"/>
<text text-anchor="middle" x="841.1338" y="-6.5" font-family="Helvetica,sans-Serif" font-size="10.00" fill="#000000">basic_string&lt; char &gt;</text>
</a>
</g>
</g>
<!-- Node18&#45;&gt;Node17 -->
<g id="edge22" class="edge">
<title>Node18&#45;&gt;Node17</title>
<path fill="none" stroke="#191970" d="M904.56,-2.2821C935.408,-1.8977 971.6623,-6.3707 999.1504,-24.5 1013.0969,-33.6982 1003.9837,-47.2166 1017.1504,-57.5 1031.1307,-68.4188 1051.0683,-72.7557 1065.9455,-74.457"/>
<polygon fill="#191970" stroke="#191970" points="904.2178,1.2093 894.3262,-2.586 904.4257,-5.7876 904.2178,1.2093"/>
</g>
<!-- Node19 -->
<g id="node19" class="node">
<title>Node19</title>
<g id="a_node19"><a xlink:href="classindigox_1_1_forcefield.html" target="_top" xlink:title=" ">
<polygon fill="#ffffff" stroke="#000000" points="1056.3447,-29.5 1056.3447,-47.5 1116.251,-47.5 1116.251,-29.5 1056.3447,-29.5"/>
<text text-anchor="middle" x="1086.2979" y="-35.5" font-family="Helvetica,sans-Serif" font-size="10.00" fill="#000000">Forcefield</text>
</a>
</g>
</g>
<!-- Node19&#45;&gt;Node1 -->
<g id="edge23" class="edge">
<title>Node19&#45;&gt;Node1</title>
<path fill="none" stroke="#9a32cd" stroke-dasharray="5,2" d="M1126.369,-30.9072C1167.3649,-25.4677 1230.9901,-23.7378 1274.0654,-54.5 1316.2592,-84.6327 1328.2924,-152.3399 1331.3531,-177.1551"/>
<polygon fill="#9a32cd" stroke="#9a32cd" points="1125.8503,-27.4458 1116.4602,-32.3526 1126.8607,-34.3725 1125.8503,-27.4458"/>
<text text-anchor="middle" x="1223.7554" y="-56.5" font-family="Helvetica,sans-Serif" font-size="10.00" fill="#000000"> forcefield</text>
</g>
<!-- Node20&#45;&gt;Node1 -->
<g id="edge24" class="edge">
<title>Node20&#45;&gt;Node1</title>
<path fill="none" stroke="#9a32cd" stroke-dasharray="5,2" d="M1145.8163,-115.7148C1183.7331,-119.42 1233.2242,-127.3856 1274.0654,-144.5 1292.9199,-152.4009 1311.5163,-167.4156 1322.4474,-177.187"/>
<polygon fill="#9a32cd" stroke="#9a32cd" points="1145.7198,-112.192 1135.4456,-114.7787 1145.0904,-119.1636 1145.7198,-112.192"/>
<text text-anchor="middle" x="1223.7554" y="-146.5" font-family="Helvetica,sans-Serif" font-size="10.00" fill="#000000"> dihedrals</text>
</g>
<!-- Node21 -->
<g id="node21" class="node">
<title>Node21</title>
<g id="a_node21"><a xlink:href="classindigox_1_1_dihedral.html" target="_top" xlink:title=" ">
<polygon fill="#ffffff" stroke="#000000" points="814.5132,-37.5 814.5132,-55.5 867.7544,-55.5 867.7544,-37.5 814.5132,-37.5"/>
<text text-anchor="middle" x="841.1338" y="-43.5" font-family="Helvetica,sans-Serif" font-size="10.00" fill="#000000">Dihedral</text>
</a>
</g>
</g>
<!-- Node21&#45;&gt;Node20 -->
<g id="edge25" class="edge">
<title>Node21&#45;&gt;Node20</title>
<path fill="none" stroke="#9a32cd" stroke-dasharray="5,2" d="M878.0696,-40.0073C912.363,-36.0395 963.3687,-35.5973 999.1504,-59.5 1013.6957,-69.2165 1003.4966,-83.5662 1017.1504,-94.5 1023.0569,-99.2299 1030.0746,-102.7277 1037.3387,-105.312"/>
<polygon fill="#9a32cd" stroke="#9a32cd" points="877.4584,-36.5574 867.9988,-41.3288 878.3692,-43.4979 877.4584,-36.5574"/>
<text text-anchor="middle" x="970.5225" y="-61.5" font-family="Helvetica,sans-Serif" font-size="10.00" fill="#000000"> elements</text>
</g>
<!-- Node22 -->
<g id="node22" class="node">
<title>Node22</title>
<g id="a_node22"><a xlink:href="classindigox_1_1graph_1_1_condensed_molecular_graph.html" target="_top" xlink:title=" ">
<polygon fill="#ffffff" stroke="#000000" points="1017.1504,-404.5 1017.1504,-422.5 1155.4453,-422.5 1155.4453,-404.5 1017.1504,-404.5"/>
<text text-anchor="middle" x="1086.2979" y="-410.5" font-family="Helvetica,sans-Serif" font-size="10.00" fill="#000000">CondensedMolecularGraph</text>
</a>
</g>
</g>
<!-- Node22&#45;&gt;Node1 -->
<g id="edge27" class="edge">
<title>Node22&#45;&gt;Node1</title>
<path fill="none" stroke="#9a32cd" stroke-dasharray="5,2" d="M1151.8195,-402.0707C1191.7668,-392.0161 1241.2736,-373.5973 1274.0654,-340.5 1316.1118,-298.062 1328.3183,-222.2733 1331.3832,-195.8751"/>
<polygon fill="#9a32cd" stroke="#9a32cd" points="1150.7948,-398.7171 1141.8854,-404.4506 1152.4257,-405.5245 1150.7948,-398.7171"/>
<text text-anchor="start" x="1173.4453" y="-406.5" font-family="Helvetica,sans-Serif" font-size="10.00" fill="#000000"> condensed_molecular</text>
<text text-anchor="middle" x="1223.7554" y="-396.5" font-family="Helvetica,sans-Serif" font-size="10.00" fill="#000000">_graph</text>
</g>
<!-- Node23&#45;&gt;Node22 -->
<g id="edge28" class="edge">
<title>Node23&#45;&gt;Node22</title>
<path fill="none" stroke="#191970" d="M934.1436,-429.6362C961.5979,-426.7246 991.1568,-423.5898 1016.8529,-420.8647"/>
<polygon fill="#191970" stroke="#191970" points="933.7103,-426.1624 924.1352,-430.6976 934.4485,-433.1234 933.7103,-426.1624"/>
</g>
</g>
</svg>
        <g id="navigator" transform="translate(0 0)" fill="#404254">
                <rect fill="#f2f5e9" fill-opacity="0.5" stroke="#606060" stroke-width=".5" x="0" y="0" width="60" height="60"/>
                <use id="zoomplus" xlink:href="#zoomPlus" x="17" y="9" onmousedown="handleZoom(evt,'in')"/>
                <use id="zoomminus" xlink:href="#zoomMin" x="42" y="9" onmousedown="handleZoom(evt,'out')"/>
                <use id="reset" xlink:href="#resetDef" x="30" y="36" onmousedown="handleReset()"/>
                <g id="arrowUp" xlink:href="#dirArrow" transform="translate(30 24)" onmousedown="handlePan(0,-1)">
                  <use xlink:href="#rim" fill="#404040">
                        <set attributeName="fill" to="#808080" begin="arrowUp.mouseover" end="arrowUp.mouseout"/>
                  </use>
                  <path fill="none" stroke="white" stroke-width="1.5" d="M0,-3.0v7 M-2.5,-0.5L0,-3.0L2.5,-0.5"/>
                </g>
                <g id="arrowRight" xlink:href="#dirArrow" transform="rotate(90) translate(36 -43)" onmousedown="handlePan(1,0)">
                  <use xlink:href="#rim" fill="#404040">
                        <set attributeName="fill" to="#808080" begin="arrowRight.mouseover" end="arrowRight.mouseout"/>
                  </use>
                  <path fill="none" stroke="white" stroke-width="1.5" d="M0,-3.0v7 M-2.5,-0.5L0,-3.0L2.5,-0.5"/>
                </g>
                <g id="arrowDown" xlink:href="#dirArrow" transform="rotate(180) translate(-30 -48)" onmousedown="handlePan(0,1)">
                  <use xlink:href="#rim" fill="#404040">
                        <set attributeName="fill" to="#808080" begin="arrowDown.mouseover" end="arrowDown.mouseout"/>
                  </use>
                  <path fill="none" stroke="white" stroke-width="1.5" d="M0,-3.0v7 M-2.5,-0.5L0,-3.0L2.5,-0.5"/>
                </g>
                <g id="arrowLeft" xlink:href="#dirArrow" transform="rotate(270) translate(-36 17)" onmousedown="handlePan(-1,0)">
                  <use xlink:href="#rim" fill="#404040">
                        <set attributeName="fill" to="#808080" begin="arrowLeft.mouseover" end="arrowLeft.mouseout"/>
                  </use>
                  <path fill="none" stroke="white" stroke-width="1.5" d="M0,-3.0v7 M-2.5,-0.5L0,-3.0L2.5,-0.5"/>
                </g>
        </g>
        <svg viewBox="0 0 15 15" width="100%" height="30px" preserveAspectRatio="xMaxYMin meet">
         <g id="arrow_out" transform="scale(0.3 0.3)">
          <a xlink:href="structindigox_1_1_molecule_1_1_impl__coll__graph_org.svg" target="_base">
           <rect id="button" ry="5" rx="5" y="6" x="6" height="38" width="38"
                fill="#f2f5e9" fill-opacity="0.5" stroke="#606060" stroke-width="1.0"/>
           <path id="arrow"
             d="M 11.500037,31.436501 C 11.940474,20.09759 22.043105,11.32322 32.158766,21.979434 L 37.068811,17.246167 C 37.068811,17.246167 37.088388,32 37.088388,32 L 22.160133,31.978069 C 22.160133,31.978069 26.997745,27.140456 26.997745,27.140456 C 18.528582,18.264221 13.291696,25.230495 11.500037,31.436501 z"
             style="fill:#404040;"/>
          </a>
         </g>
        </svg>
</svg>
