<?xml version="1.0" encoding="UTF-8" standalone="no"?>
<!DOCTYPE svg PUBLIC "-//W3C//DTD SVG 1.1//EN"
 "http://www.w3.org/Graphics/SVG/1.1/DTD/svg11.dtd">
<!-- Generated by graphviz version 2.40.1 (20161225.0304)
 -->
<!-- Title: ParamAngle::ParamAngleImpl Pages: 1 -->
<svg width="199pt" height="282pt"
 viewBox="0.00 0.00 199.29 282.00" xmlns="http://www.w3.org/2000/svg" xmlns:xlink="http://www.w3.org/1999/xlink">
<g id="graph0" class="graph" transform="scale(1 1) rotate(0) translate(4 278)">
<title>ParamAngle::ParamAngleImpl</title>
<polygon fill="#ffffff" stroke="transparent" points="-4,4 -4,-278 195.2856,-278 195.2856,4 -4,4"/>
<!-- Node1 -->
<g id="node1" class="node">
<title>Node1</title>
<polygon fill="#bfbfbf" stroke="#000000" points="10.4165,-.5 10.4165,-18.5 160.9233,-18.5 160.9233,-.5 10.4165,-.5"/>
<text text-anchor="middle" x="85.6699" y="-6.5" font-family="Helvetica,sans-Serif" font-size="10.00" fill="#000000">ParamAngle::ParamAngleImpl</text>
</g>
<!-- Node2 -->
<g id="node2" class="node">
<title>Node2</title>
<g id="a_node2"><a xlink:href="structstdx_1_1triple.html" target="_top" xlink:title="triple\&lt; Atom \&gt;">
<polygon fill="#ffffff" stroke="#000000" points="7.8179,-65.5 7.8179,-83.5 85.522,-83.5 85.522,-65.5 7.8179,-65.5"/>
<text text-anchor="middle" x="46.6699" y="-71.5" font-family="Helvetica,sans-Serif" font-size="10.00" fill="#000000">triple&lt; Atom &gt;</text>
</a>
</g>
</g>
<!-- Node2&#45;&gt;Node1 -->
<g id="edge1" class="edge">
<title>Node2&#45;&gt;Node1</title>
<path fill="none" stroke="#9a32cd" stroke-dasharray="5,2" d="M57.4143,-56.5926C64.7391,-44.3846 74.1441,-28.7097 80.0406,-18.8821"/>
<polygon fill="#9a32cd" stroke="#9a32cd" points="54.2365,-55.0863 52.0927,-65.462 60.2389,-58.6878 54.2365,-55.0863"/>
<text text-anchor="middle" x="83.6748" y="-39" font-family="Helvetica,sans-Serif" font-size="10.00" fill="#000000"> atoms</text>
</g>
<!-- Node3 -->
<g id="node3" class="node">
<title>Node3</title>
<g id="a_node3"><a xlink:href="classindigox_1_1_atom.html" target="_top" xlink:title="Atom">
<polygon fill="#ffffff" stroke="#000000" points="0,-180.5 0,-198.5 39.3398,-198.5 39.3398,-180.5 0,-180.5"/>
<text text-anchor="middle" x="19.6699" y="-186.5" font-family="Helvetica,sans-Serif" font-size="10.00" fill="#000000">Atom</text>
</a>
</g>
</g>
<!-- Node3&#45;&gt;Node2 -->
<g id="edge2" class="edge">
<title>Node3&#45;&gt;Node2</title>
<path fill="none" stroke="#9a32cd" stroke-dasharray="5,2" d="M24.0757,-170.7347C29.9317,-145.7926 40.0548,-102.6757 44.4861,-83.8014"/>
<polygon fill="#9a32cd" stroke="#9a32cd" points="20.667,-169.9408 21.7886,-180.4761 27.4817,-171.5409 20.667,-169.9408"/>
<text text-anchor="middle" x="56.793" y="-154" font-family="Helvetica,sans-Serif" font-size="10.00" fill="#000000"> third</text>
<text text-anchor="middle" x="56.793" y="-144" font-family="Helvetica,sans-Serif" font-size="10.00" fill="#000000">second</text>
<text text-anchor="middle" x="56.793" y="-134" font-family="Helvetica,sans-Serif" font-size="10.00" fill="#000000">first</text>
<text text-anchor="middle" x="56.793" y="-124" font-family="Helvetica,sans-Serif" font-size="10.00" fill="#000000">A</text>
<text text-anchor="middle" x="56.793" y="-114" font-family="Helvetica,sans-Serif" font-size="10.00" fill="#000000">B</text>
<text text-anchor="middle" x="56.793" y="-104" font-family="Helvetica,sans-Serif" font-size="10.00" fill="#000000">C</text>
</g>
<!-- Node4 -->
<g id="node4" class="node">
<title>Node4</title>
<g id="a_node4"><a xlink:href="structstdx_1_1triple.html" target="_top" xlink:title="triple\&lt; _T1, _T2, _T3 \&gt;">
<polygon fill="#ffffff" stroke="#000000" points="57.8105,-180.5 57.8105,-198.5 175.5293,-198.5 175.5293,-180.5 57.8105,-180.5"/>
<text text-anchor="middle" x="116.6699" y="-186.5" font-family="Helvetica,sans-Serif" font-size="10.00" fill="#000000">triple&lt; _T1, _T2, _T3 &gt;</text>
</a>
</g>
</g>
<!-- Node4&#45;&gt;Node2 -->
<g id="edge3" class="edge">
<title>Node4&#45;&gt;Node2</title>
<path fill="none" stroke="#ffa500" stroke-dasharray="5,2" d="M109.5055,-170.7308C102.0216,-152.3326 89.2134,-123.9346 73.6699,-102 68.9504,-95.3399 62.5971,-88.7822 57.2392,-83.7418"/>
<polygon fill="#ffa500" stroke="#ffa500" points="106.3492,-172.2674 113.277,-180.2834 112.8601,-169.6967 106.3492,-172.2674"/>
<text text-anchor="middle" x="126.0737" y="-129" font-family="Helvetica,sans-Serif" font-size="10.00" fill="#000000"> &lt; Atom &gt;</text>
</g>
<!-- Node5 -->
<g id="node5" class="node">
<title>Node5</title>
<polygon fill="#ffffff" stroke="#bfbfbf" points="49.0542,-255.5 49.0542,-273.5 82.2856,-273.5 82.2856,-255.5 49.0542,-255.5"/>
<text text-anchor="middle" x="65.6699" y="-261.5" font-family="Helvetica,sans-Serif" font-size="10.00" fill="#000000">_T1</text>
</g>
<!-- Node5&#45;&gt;Node4 -->
<g id="edge4" class="edge">
<title>Node5&#45;&gt;Node4</title>
<path fill="none" stroke="#9a32cd" stroke-dasharray="5,2" d="M75.3752,-246.5818C80.5161,-237.5019 87.1315,-226.4314 93.7832,-217 98.2939,-210.6042 103.9087,-203.8425 108.448,-198.6243"/>
<polygon fill="#9a32cd" stroke="#9a32cd" points="72.2292,-245.038 70.4434,-255.4813 78.3519,-248.4311 72.2292,-245.038"/>
<text text-anchor="middle" x="103.1133" y="-229" font-family="Helvetica,sans-Serif" font-size="10.00" fill="#000000"> first</text>
<text text-anchor="middle" x="103.1133" y="-219" font-family="Helvetica,sans-Serif" font-size="10.00" fill="#000000">A</text>
</g>
<!-- Node6 -->
<g id="node6" class="node">
<title>Node6</title>
<polygon fill="#ffffff" stroke="#bfbfbf" points="100.0542,-255.5 100.0542,-273.5 133.2856,-273.5 133.2856,-255.5 100.0542,-255.5"/>
<text text-anchor="middle" x="116.6699" y="-261.5" font-family="Helvetica,sans-Serif" font-size="10.00" fill="#000000">_T2</text>
</g>
<!-- Node6&#45;&gt;Node4 -->
<g id="edge5" class="edge">
<title>Node6&#45;&gt;Node4</title>
<path fill="none" stroke="#9a32cd" stroke-dasharray="5,2" d="M116.6699,-245.1079C116.6699,-230.2042 116.6699,-210.2791 116.6699,-198.7717"/>
<polygon fill="#9a32cd" stroke="#9a32cd" points="113.17,-245.3035 116.6699,-255.3035 120.17,-245.3036 113.17,-245.3035"/>
<text text-anchor="middle" x="134.1821" y="-229" font-family="Helvetica,sans-Serif" font-size="10.00" fill="#000000"> second</text>
<text text-anchor="middle" x="134.1821" y="-219" font-family="Helvetica,sans-Serif" font-size="10.00" fill="#000000">B</text>
</g>
<!-- Node7 -->
<g id="node7" class="node">
<title>Node7</title>
<polygon fill="#ffffff" stroke="#bfbfbf" points="158.0542,-255.5 158.0542,-273.5 191.2856,-273.5 191.2856,-255.5 158.0542,-255.5"/>
<text text-anchor="middle" x="174.6699" y="-261.5" font-family="Helvetica,sans-Serif" font-size="10.00" fill="#000000">_T3</text>
</g>
<!-- Node7&#45;&gt;Node4 -->
<g id="edge6" class="edge">
<title>Node7&#45;&gt;Node4</title>
<path fill="none" stroke="#9a32cd" stroke-dasharray="5,2" d="M168.4737,-245.8696C164.8082,-236.5868 159.5289,-225.5498 152.6699,-217 146.8625,-209.761 138.7601,-203.3527 131.7123,-198.5473"/>
<polygon fill="#9a32cd" stroke="#9a32cd" points="165.2232,-247.1727 171.9248,-255.3787 171.8033,-244.7846 165.2232,-247.1727"/>
<text text-anchor="middle" x="174.7856" y="-229" font-family="Helvetica,sans-Serif" font-size="10.00" fill="#000000"> third</text>
<text text-anchor="middle" x="174.7856" y="-219" font-family="Helvetica,sans-Serif" font-size="10.00" fill="#000000">C</text>
</g>
<!-- Node8 -->
<g id="node8" class="node">
<title>Node8</title>
<g id="a_node8"><a xlink:href="classindigox_1_1_angle.html" target="_top" xlink:title="Angle">
<polygon fill="#ffffff" stroke="#000000" points="103.8818,-65.5 103.8818,-83.5 145.458,-83.5 145.458,-65.5 103.8818,-65.5"/>
<text text-anchor="middle" x="124.6699" y="-71.5" font-family="Helvetica,sans-Serif" font-size="10.00" fill="#000000">Angle</text>
</a>
</g>
</g>
<!-- Node8&#45;&gt;Node1 -->
<g id="edge7" class="edge">
<title>Node8&#45;&gt;Node1</title>
<path fill="none" stroke="#9a32cd" stroke-dasharray="5,2" d="M114.1376,-56.3537C110.5315,-50.1925 106.4524,-43.2799 102.6699,-37 98.963,-30.8456 94.713,-23.9706 91.3898,-18.6342"/>
<polygon fill="#9a32cd" stroke="#9a32cd" points="111.2449,-58.3412 119.3046,-65.2182 117.2926,-54.8162 111.2449,-58.3412"/>
<text text-anchor="middle" x="121.293" y="-39" font-family="Helvetica,sans-Serif" font-size="10.00" fill="#000000"> angle</text>
</g>
</g>
</svg>
