<?xml version="1.0" encoding="UTF-8" standalone="no"?>
<!DOCTYPE svg PUBLIC "-//W3C//DTD SVG 1.1//EN"
 "http://www.w3.org/Graphics/SVG/1.1/DTD/svg11.dtd">
<!-- Generated by graphviz version 2.40.1 (20161225.0304)
 -->
<!-- Title: CondensedMolecularGraph::Impl Pages: 1 -->
<svg width="860pt" height="94pt"
 viewBox="0.00 0.00 859.92 94.00" xmlns="http://www.w3.org/2000/svg" xmlns:xlink="http://www.w3.org/1999/xlink">
<g id="graph0" class="graph" transform="scale(1 1) rotate(0) translate(4 90)">
<title>CondensedMolecularGraph::Impl</title>
<polygon fill="#ffffff" stroke="transparent" points="-4,4 -4,-90 855.9209,-90 855.9209,4 -4,4"/>
<!-- Node1 -->
<g id="node1" class="node">
<title>Node1</title>
<polygon fill="#bfbfbf" stroke="#000000" points="713.626,-35.5 713.626,-63.5 851.9209,-63.5 851.9209,-35.5 713.626,-35.5"/>
<text text-anchor="start" x="721.626" y="-51.5" font-family="Helvetica,sans-Serif" font-size="10.00" fill="#000000">CondensedMolecularGraph</text>
<text text-anchor="middle" x="782.7734" y="-41.5" font-family="Helvetica,sans-Serif" font-size="10.00" fill="#000000">::Impl</text>
</g>
<!-- Node2 -->
<g id="node2" class="node">
<title>Node2</title>
<g id="a_node2"><a xlink:href="classindigox_1_1graph_1_1_molecular_graph.html" target="_top" xlink:title="Class containing a graph representation of a molecule. ">
<polygon fill="#ffffff" stroke="#000000" points="505.9766,-59.5 505.9766,-77.5 593.1191,-77.5 593.1191,-59.5 505.9766,-59.5"/>
<text text-anchor="middle" x="549.5479" y="-65.5" font-family="Helvetica,sans-Serif" font-size="10.00" fill="#000000">MolecularGraph</text>
</a>
</g>
</g>
<!-- Node2&#45;&gt;Node1 -->
<g id="edge1" class="edge">
<title>Node2&#45;&gt;Node1</title>
<path fill="none" stroke="#9a32cd" stroke-dasharray="5,2" d="M603.4006,-64.1128C636.073,-61.4511 678.1076,-58.0267 713.2718,-55.162"/>
<polygon fill="#9a32cd" stroke="#9a32cd" points="602.825,-60.648 593.1422,-64.9485 603.3934,-67.6249 602.825,-60.648"/>
<text text-anchor="middle" x="666.1606" y="-62.5" font-family="Helvetica,sans-Serif" font-size="10.00" fill="#000000"> graph</text>
</g>
<!-- Node3 -->
<g id="node3" class="node">
<title>Node3</title>
<g id="a_node3"><a xlink:href="classindigox_1_1graph_1_1_base_graph.html" target="_top" xlink:title="BaseGraph\&lt; MGVertex,\l MGEdge, MolecularGraph \&gt;">
<polygon fill="#ffffff" stroke="#000000" points="288.8604,-57.5 288.8604,-85.5 432.4189,-85.5 432.4189,-57.5 288.8604,-57.5"/>
<text text-anchor="start" x="296.8604" y="-73.5" font-family="Helvetica,sans-Serif" font-size="10.00" fill="#000000">BaseGraph&lt; MGVertex,</text>
<text text-anchor="middle" x="360.6396" y="-63.5" font-family="Helvetica,sans-Serif" font-size="10.00" fill="#000000"> MGEdge, MolecularGraph &gt;</text>
</a>
</g>
</g>
<!-- Node3&#45;&gt;Node2 -->
<g id="edge2" class="edge">
<title>Node3&#45;&gt;Node2</title>
<path fill="none" stroke="#191970" d="M442.8359,-70.1947C464.5658,-69.8496 487.1762,-69.4905 505.9611,-69.1922"/>
<polygon fill="#191970" stroke="#191970" points="442.5398,-66.6988 432.5966,-70.3573 442.651,-73.6979 442.5398,-66.6988"/>
</g>
<!-- Node4 -->
<g id="node4" class="node">
<title>Node4</title>
<g id="a_node4"><a xlink:href="classindigox_1_1graph_1_1_base_graph.html" target="_top" xlink:title="Template base class for all graphs used in the indigoX library. ">
<polygon fill="#ffffff" stroke="#000000" points="0,-30.5 0,-58.5 108.1875,-58.5 108.1875,-30.5 0,-30.5"/>
<text text-anchor="start" x="8" y="-46.5" font-family="Helvetica,sans-Serif" font-size="10.00" fill="#000000">BaseGraph&lt; V, E, S,</text>
<text text-anchor="middle" x="54.0938" y="-36.5" font-family="Helvetica,sans-Serif" font-size="10.00" fill="#000000"> D, VP, EP &gt;</text>
</a>
</g>
</g>
<!-- Node4&#45;&gt;Node3 -->
<g id="edge3" class="edge">
<title>Node4&#45;&gt;Node3</title>
<path fill="none" stroke="#ffa500" stroke-dasharray="5,2" d="M118.1948,-50.1459C167.9741,-54.5304 236.9938,-60.6095 288.6654,-65.1606"/>
<polygon fill="#ffa500" stroke="#ffa500" points="118.4609,-46.6559 108.1924,-49.2649 117.8467,-53.6289 118.4609,-46.6559"/>
<text text-anchor="start" x="141.2046" y="-73.5" font-family="Helvetica,sans-Serif" font-size="10.00" fill="#000000"> &lt; MGVertex, MGEdge,</text>
<text text-anchor="middle" x="193.0332" y="-63.5" font-family="Helvetica,sans-Serif" font-size="10.00" fill="#000000"> MolecularGraph &gt;</text>
</g>
<!-- Node6 -->
<g id="node6" class="node">
<title>Node6</title>
<g id="a_node6"><a xlink:href="classindigox_1_1graph_1_1_base_graph.html" target="_top" xlink:title="BaseGraph\&lt; CMGVertex,\l CMGEdge, CondensedMolecular\lGraph \&gt;">
<polygon fill="#ffffff" stroke="#000000" points="277.8789,-.5 277.8789,-38.5 443.4004,-38.5 443.4004,-.5 277.8789,-.5"/>
<text text-anchor="start" x="285.8789" y="-26.5" font-family="Helvetica,sans-Serif" font-size="10.00" fill="#000000">BaseGraph&lt; CMGVertex,</text>
<text text-anchor="start" x="285.8789" y="-16.5" font-family="Helvetica,sans-Serif" font-size="10.00" fill="#000000"> CMGEdge, CondensedMolecular</text>
<text text-anchor="middle" x="360.6396" y="-6.5" font-family="Helvetica,sans-Serif" font-size="10.00" fill="#000000">Graph &gt;</text>
</a>
</g>
</g>
<!-- Node4&#45;&gt;Node6 -->
<g id="edge6" class="edge">
<title>Node4&#45;&gt;Node6</title>
<path fill="none" stroke="#ffa500" stroke-dasharray="5,2" d="M114.455,-28.4276C118.408,-27.6856 122.3438,-27.0309 126.1875,-26.5 176.2074,-19.5908 232.7775,-17.7326 277.8166,-17.6532"/>
<polygon fill="#ffa500" stroke="#ffa500" points="113.7341,-25.0025 104.6356,-30.431 115.1335,-31.8611 113.7341,-25.0025"/>
<text text-anchor="start" x="126.1875" y="-38.5" font-family="Helvetica,sans-Serif" font-size="10.00" fill="#000000"> &lt; CMGVertex, CMGEdge,</text>
<text text-anchor="middle" x="193.0332" y="-28.5" font-family="Helvetica,sans-Serif" font-size="10.00" fill="#000000"> CondensedMolecularGraph &gt;</text>
</g>
<!-- Node5 -->
<g id="node5" class="node">
<title>Node5</title>
<g id="a_node5"><a xlink:href="classindigox_1_1graph_1_1_condensed_molecular_graph.html" target="_top" xlink:title="CondensedMolecularGraph">
<polygon fill="#ffffff" stroke="#000000" points="480.4004,-21.5 480.4004,-39.5 618.6953,-39.5 618.6953,-21.5 480.4004,-21.5"/>
<text text-anchor="middle" x="549.5479" y="-27.5" font-family="Helvetica,sans-Serif" font-size="10.00" fill="#000000">CondensedMolecularGraph</text>
</a>
</g>
</g>
<!-- Node5&#45;&gt;Node1 -->
<g id="edge4" class="edge">
<title>Node5&#45;&gt;Node1</title>
<path fill="none" stroke="#9a32cd" stroke-dasharray="5,2" d="M629.1987,-36.9889C656.5147,-39.2142 686.8485,-41.6854 713.294,-43.8398"/>
<polygon fill="#9a32cd" stroke="#9a32cd" points="629.143,-33.4728 618.8918,-36.1492 628.5745,-40.4497 629.143,-33.4728"/>
<text text-anchor="middle" x="666.1606" y="-43.5" font-family="Helvetica,sans-Serif" font-size="10.00" fill="#000000"> super_graph</text>
</g>
<!-- Node6&#45;&gt;Node5 -->
<g id="edge5" class="edge">
<title>Node6&#45;&gt;Node5</title>
<path fill="none" stroke="#191970" d="M453.6238,-24.9144C462.6148,-25.4379 471.6235,-25.9625 480.3241,-26.4691"/>
<polygon fill="#191970" stroke="#191970" points="453.6841,-21.4121 443.4975,-24.3248 453.2771,-28.4002 453.6841,-21.4121"/>
</g>
</g>
</svg>
