<?xml version="1.0" encoding="UTF-8" standalone="no"?>
<!DOCTYPE svg PUBLIC "-//W3C//DTD SVG 1.1//EN"
 "http://www.w3.org/Graphics/SVG/1.1/DTD/svg11.dtd">
<!-- Generated by graphviz version 2.40.1 (20161225.0304)
 -->
<!-- Title: quad&lt; _T1, _T2, _T3, _T4 &gt; Pages: 1 -->
<svg width="120pt" height="102pt"
 viewBox="0.00 0.00 120.45 102.00" xmlns="http://www.w3.org/2000/svg" xmlns:xlink="http://www.w3.org/1999/xlink">
<g id="graph0" class="graph" transform="scale(1 1) rotate(0) translate(4 98)">
<title>quad&lt; _T1, _T2, _T3, _T4 &gt;</title>
<polygon fill="#ffffff" stroke="transparent" points="-4,4 -4,-98 116.4502,-98 116.4502,4 -4,4"/>
<!-- Node0 -->
<g id="node1" class="node">
<title>Node0</title>
<polygon fill="#bfbfbf" stroke="#000000" points="0,-65.5 0,-93.5 112.4502,-93.5 112.4502,-65.5 0,-65.5"/>
<text text-anchor="start" x="8" y="-81.5" font-family="Helvetica,sans-Serif" font-size="10.00" fill="#000000">quad&lt; _T1, _T2, _T3,</text>
<text text-anchor="middle" x="56.2251" y="-71.5" font-family="Helvetica,sans-Serif" font-size="10.00" fill="#000000"> _T4 &gt;</text>
</g>
<!-- Node1 -->
<g id="node2" class="node">
<title>Node1</title>
<g id="a_node2"><a xlink:href="structstdx_1_1quad.html" target="_top" xlink:title="quad\&lt; Atom \&gt;">
<polygon fill="#ffffff" stroke="#000000" points="17.0874,-.5 17.0874,-18.5 95.3628,-18.5 95.3628,-.5 17.0874,-.5"/>
<text text-anchor="middle" x="56.2251" y="-6.5" font-family="Helvetica,sans-Serif" font-size="10.00" fill="#000000">quad&lt; Atom &gt;</text>
</a>
</g>
</g>
<!-- Node0&#45;&gt;Node1 -->
<g id="edge1" class="edge">
<title>Node0&#45;&gt;Node1</title>
<path fill="none" stroke="#ffa500" stroke-dasharray="5,2" d="M56.2251,-55.007C56.2251,-42.4648 56.2251,-27.9386 56.2251,-18.7368"/>
<polygon fill="#ffa500" stroke="#ffa500" points="52.7252,-55.3344 56.2251,-65.3345 59.7252,-55.3345 52.7252,-55.3344"/>
<text text-anchor="middle" x="77.6289" y="-39" font-family="Helvetica,sans-Serif" font-size="10.00" fill="#000000"> &lt; Atom &gt;</text>
</g>
</g>
</svg>
