<?xml version="1.0" encoding="UTF-8" standalone="no"?>
<!DOCTYPE svg PUBLIC "-//W3C//DTD SVG 1.1//EN"
 "http://www.w3.org/Graphics/SVG/1.1/DTD/svg11.dtd">
<!-- Generated by graphviz version 2.40.1 (20161225.0304)
 -->
<!-- Title: MappingCallback&lt; V, E, S, D, VP, EP &gt; Pages: 1 -->
<svg width="749pt" height="158pt"
 viewBox="0.00 0.00 749.16 157.50" xmlns="http://www.w3.org/2000/svg" xmlns:xlink="http://www.w3.org/1999/xlink">
<g id="graph0" class="graph" transform="scale(1 1) rotate(0) translate(4 153.5)">
<title>MappingCallback&lt; V, E, S, D, VP, EP &gt;</title>
<polygon fill="#ffffff" stroke="transparent" points="-4,4 -4,-153.5 745.1631,-153.5 745.1631,4 -4,4"/>
<!-- Node0 -->
<g id="node1" class="node">
<title>Node0</title>
<g id="a_node1"><a xlink:title=" ">
<polygon fill="#bfbfbf" stroke="#000000" points="0,-53.5 0,-81.5 109.8574,-81.5 109.8574,-53.5 0,-53.5"/>
<text text-anchor="start" x="8" y="-69.5" font-family="Helvetica,sans-Serif" font-size="10.00" fill="#000000">MappingCallback&lt; V,</text>
<text text-anchor="middle" x="54.9287" y="-59.5" font-family="Helvetica,sans-Serif" font-size="10.00" fill="#000000"> E, S, D, VP, EP &gt;</text>
</a>
</g>
</g>
<!-- Node1 -->
<g id="node2" class="node">
<title>Node1</title>
<g id="a_node2"><a xlink:href="structindigox_1_1algorithm_1_1_mapping_callback.html" target="_top" xlink:title=" ">
<polygon fill="#ffffff" stroke="#000000" points="301.2432,-77.5 301.2432,-135.5 491.2422,-135.5 491.2422,-77.5 301.2432,-77.5"/>
<text text-anchor="start" x="309.2432" y="-123.5" font-family="Helvetica,sans-Serif" font-size="10.00" fill="#000000">MappingCallback&lt; graph</text>
<text text-anchor="start" x="309.2432" y="-113.5" font-family="Helvetica,sans-Serif" font-size="10.00" fill="#000000">::CMGVertex, graph::CMGEdge,</text>
<text text-anchor="start" x="309.2432" y="-103.5" font-family="Helvetica,sans-Serif" font-size="10.00" fill="#000000"> graph::CondensedMolecularGraph,</text>
<text text-anchor="start" x="309.2432" y="-93.5" font-family="Helvetica,sans-Serif" font-size="10.00" fill="#000000"> graph::Undirected, graph::GraphLabel,</text>
<text text-anchor="middle" x="396.2427" y="-83.5" font-family="Helvetica,sans-Serif" font-size="10.00" fill="#000000"> graph::GraphLabel &gt;</text>
</a>
</g>
</g>
<!-- Node0&#45;&gt;Node1 -->
<g id="edge1" class="edge">
<title>Node0&#45;&gt;Node1</title>
<path fill="none" stroke="#ffa500" stroke-dasharray="5,2" d="M120.1801,-82.2511C122.7681,-82.6979 125.3344,-83.1168 127.8574,-83.5 185.0735,-92.1901 249.6879,-97.8531 301.1781,-101.385"/>
<polygon fill="#ffa500" stroke="#ffa500" points="120.6042,-78.7705 110.1363,-80.4056 119.3391,-85.6552 120.6042,-78.7705"/>
<text text-anchor="start" x="127.8574" y="-141.5" font-family="Helvetica,sans-Serif" font-size="10.00" fill="#000000"> &lt; graph::CMGVertex,</text>
<text text-anchor="start" x="127.8574" y="-131.5" font-family="Helvetica,sans-Serif" font-size="10.00" fill="#000000"> graph::CMGEdge, graph</text>
<text text-anchor="start" x="127.8574" y="-121.5" font-family="Helvetica,sans-Serif" font-size="10.00" fill="#000000">::CondensedMolecularGraph,</text>
<text text-anchor="start" x="127.8574" y="-111.5" font-family="Helvetica,sans-Serif" font-size="10.00" fill="#000000"> graph::Undirected, graph</text>
<text text-anchor="middle" x="205.5503" y="-101.5" font-family="Helvetica,sans-Serif" font-size="10.00" fill="#000000">::GraphLabel, graph::GraphLabel &gt;</text>
</g>
<!-- Node4 -->
<g id="node5" class="node">
<title>Node4</title>
<g id="a_node5"><a xlink:href="structindigox_1_1algorithm_1_1_mapping_callback.html" target="_top" xlink:title=" ">
<polygon fill="#ffffff" stroke="#000000" points="315.4204,-.5 315.4204,-58.5 477.0649,-58.5 477.0649,-.5 315.4204,-.5"/>
<text text-anchor="start" x="323.4204" y="-46.5" font-family="Helvetica,sans-Serif" font-size="10.00" fill="#000000">MappingCallback&lt; graph</text>
<text text-anchor="start" x="323.4204" y="-36.5" font-family="Helvetica,sans-Serif" font-size="10.00" fill="#000000">::MGVertex, graph::MGEdge,</text>
<text text-anchor="start" x="323.4204" y="-26.5" font-family="Helvetica,sans-Serif" font-size="10.00" fill="#000000"> graph::MolecularGraph, graph</text>
<text text-anchor="start" x="323.4204" y="-16.5" font-family="Helvetica,sans-Serif" font-size="10.00" fill="#000000">::Undirected, graph::GraphLabel,</text>
<text text-anchor="middle" x="396.2427" y="-6.5" font-family="Helvetica,sans-Serif" font-size="10.00" fill="#000000"> graph::GraphLabel &gt;</text>
</a>
</g>
</g>
<!-- Node0&#45;&gt;Node4 -->
<g id="edge4" class="edge">
<title>Node0&#45;&gt;Node4</title>
<path fill="none" stroke="#ffa500" stroke-dasharray="5,2" d="M87.2732,-48.8515C99.5708,-42.732 113.9694,-36.6871 127.8574,-33.5 189.6276,-19.3248 261.5124,-19.0819 315.3319,-21.9688"/>
<polygon fill="#ffa500" stroke="#ffa500" points="85.5839,-45.7849 78.322,-53.4996 88.8098,-51.9973 85.5839,-45.7849"/>
<text text-anchor="start" x="132.728" y="-75.5" font-family="Helvetica,sans-Serif" font-size="10.00" fill="#000000"> &lt; graph::MGVertex,</text>
<text text-anchor="start" x="132.728" y="-65.5" font-family="Helvetica,sans-Serif" font-size="10.00" fill="#000000"> graph::MGEdge, graph</text>
<text text-anchor="start" x="132.728" y="-55.5" font-family="Helvetica,sans-Serif" font-size="10.00" fill="#000000">::MolecularGraph, graph</text>
<text text-anchor="start" x="132.728" y="-45.5" font-family="Helvetica,sans-Serif" font-size="10.00" fill="#000000">::Undirected, graph::GraphLabel,</text>
<text text-anchor="middle" x="205.5503" y="-35.5" font-family="Helvetica,sans-Serif" font-size="10.00" fill="#000000"> graph::GraphLabel &gt;</text>
</g>
<!-- Node2 -->
<g id="node3" class="node">
<title>Node2</title>
<g id="a_node3"><a xlink:href="structindigox_1_1algorithm_1_1_c_m_g_callback.html" target="_top" xlink:title=" ">
<polygon fill="#ffffff" stroke="#000000" points="528.2422,-97.5 528.2422,-115.5 605.9219,-115.5 605.9219,-97.5 528.2422,-97.5"/>
<text text-anchor="middle" x="567.082" y="-103.5" font-family="Helvetica,sans-Serif" font-size="10.00" fill="#000000">CMGCallback</text>
</a>
</g>
</g>
<!-- Node1&#45;&gt;Node2 -->
<g id="edge2" class="edge">
<title>Node1&#45;&gt;Node2</title>
<path fill="none" stroke="#191970" d="M501.7976,-106.5C511.0469,-106.5 519.9623,-106.5 528.0754,-106.5"/>
<polygon fill="#191970" stroke="#191970" points="501.6521,-103.0001 491.6521,-106.5 501.6521,-110.0001 501.6521,-103.0001"/>
</g>
<!-- Node3 -->
<g id="node4" class="node">
<title>Node3</title>
<g id="a_node4"><a xlink:href="structindigox_1_1algorithm_1_1_c_m_g_print_callback.html" target="_top" xlink:title=" ">
<polygon fill="#ffffff" stroke="#000000" points="642.9219,-97.5 642.9219,-115.5 741.1631,-115.5 741.1631,-97.5 642.9219,-97.5"/>
<text text-anchor="middle" x="692.0425" y="-103.5" font-family="Helvetica,sans-Serif" font-size="10.00" fill="#000000">CMGPrintCallback</text>
</a>
</g>
</g>
<!-- Node2&#45;&gt;Node3 -->
<g id="edge3" class="edge">
<title>Node2&#45;&gt;Node3</title>
<path fill="none" stroke="#191970" d="M615.9873,-106.5C624.7333,-106.5 633.8521,-106.5 642.6127,-106.5"/>
<polygon fill="#191970" stroke="#191970" points="615.9353,-103.0001 605.9353,-106.5 615.9353,-110.0001 615.9353,-103.0001"/>
</g>
<!-- Node5 -->
<g id="node6" class="node">
<title>Node5</title>
<g id="a_node6"><a xlink:href="structindigox_1_1algorithm_1_1_m_g_callback.html" target="_top" xlink:title=" ">
<polygon fill="#ffffff" stroke="#000000" points="531.853,-20.5 531.853,-38.5 602.311,-38.5 602.311,-20.5 531.853,-20.5"/>
<text text-anchor="middle" x="567.082" y="-26.5" font-family="Helvetica,sans-Serif" font-size="10.00" fill="#000000">MGCallback</text>
</a>
</g>
</g>
<!-- Node4&#45;&gt;Node5 -->
<g id="edge5" class="edge">
<title>Node4&#45;&gt;Node5</title>
<path fill="none" stroke="#191970" d="M487.4875,-29.5C503.1801,-29.5 518.6094,-29.5 531.6435,-29.5"/>
<polygon fill="#191970" stroke="#191970" points="487.1597,-26.0001 477.1597,-29.5 487.1596,-33.0001 487.1597,-26.0001"/>
</g>
<!-- Node6 -->
<g id="node7" class="node">
<title>Node6</title>
<g id="a_node7"><a xlink:href="structindigox_1_1algorithm_1_1_m_g_print_callback.html" target="_top" xlink:title=" ">
<polygon fill="#ffffff" stroke="#000000" points="646.5327,-20.5 646.5327,-38.5 737.5522,-38.5 737.5522,-20.5 646.5327,-20.5"/>
<text text-anchor="middle" x="692.0425" y="-26.5" font-family="Helvetica,sans-Serif" font-size="10.00" fill="#000000">MGPrintCallback</text>
</a>
</g>
</g>
<!-- Node5&#45;&gt;Node6 -->
<g id="edge6" class="edge">
<title>Node5&#45;&gt;Node6</title>
<path fill="none" stroke="#191970" d="M612.7346,-29.5C623.6366,-29.5 635.2771,-29.5 646.1882,-29.5"/>
<polygon fill="#191970" stroke="#191970" points="612.5565,-26.0001 602.5564,-29.5 612.5564,-33.0001 612.5565,-26.0001"/>
</g>
</g>
</svg>
