<?xml version="1.0" encoding="UTF-8" standalone="no"?>
<!DOCTYPE svg PUBLIC "-//W3C//DTD SVG 1.1//EN"
 "http://www.w3.org/Graphics/SVG/1.1/DTD/svg11.dtd">
<!-- Generated by graphviz version 2.40.1 (20161225.0304)
 -->
<!-- Title: TraversalResults&lt; V &gt; Pages: 1 -->
<svg width="278pt" height="222pt"
 viewBox="0.00 0.00 277.58 222.00" xmlns="http://www.w3.org/2000/svg" xmlns:xlink="http://www.w3.org/1999/xlink">
<g id="graph0" class="graph" transform="scale(1 1) rotate(0) translate(4 218)">
<title>TraversalResults&lt; V &gt;</title>
<polygon fill="#ffffff" stroke="transparent" points="-4,4 -4,-218 273.5801,-218 273.5801,4 -4,4"/>
<!-- Node1 -->
<g id="node1" class="node">
<title>Node1</title>
<g id="a_node1"><a xlink:title=" ">
<polygon fill="#bfbfbf" stroke="#000000" points="68.2891,-.5 68.2891,-18.5 182.8486,-18.5 182.8486,-.5 68.2891,-.5"/>
<text text-anchor="middle" x="125.5688" y="-6.5" font-family="Helvetica,sans-Serif" font-size="10.00" fill="#000000">TraversalResults&lt; V &gt;</text>
</a>
</g>
</g>
<!-- Node2 -->
<g id="node2" class="node">
<title>Node2</title>
<g id="a_node2"><a xlink:title=" ">
<polygon fill="#ffffff" stroke="#bfbfbf" points="0,-65.5 0,-83.5 67.1377,-83.5 67.1377,-65.5 0,-65.5"/>
<text text-anchor="middle" x="33.5688" y="-71.5" font-family="Helvetica,sans-Serif" font-size="10.00" fill="#000000">vector&lt; V &gt;</text>
</a>
</g>
</g>
<!-- Node2&#45;&gt;Node1 -->
<g id="edge1" class="edge">
<title>Node2&#45;&gt;Node1</title>
<path fill="none" stroke="#9a32cd" stroke-dasharray="5,2" d="M39.3774,-55.5781C42.1919,-48.9776 46.1782,-41.9829 51.6479,-37 60.8592,-28.6086 72.8623,-22.7081 84.5085,-18.588"/>
<polygon fill="#9a32cd" stroke="#9a32cd" points="35.9785,-54.6857 35.8742,-65.28 42.5624,-57.0631 35.9785,-54.6857"/>
<text text-anchor="middle" x="87.0293" y="-39" font-family="Helvetica,sans-Serif" font-size="10.00" fill="#000000"> discover_order</text>
</g>
<!-- Node3 -->
<g id="node3" class="node">
<title>Node3</title>
<g id="a_node3"><a xlink:title="STL class.">
<polygon fill="#ffffff" stroke="#bfbfbf" points=".4565,-130.5 .4565,-148.5 66.6812,-148.5 66.6812,-130.5 .4565,-130.5"/>
<text text-anchor="middle" x="33.5688" y="-136.5" font-family="Helvetica,sans-Serif" font-size="10.00" fill="#000000">vector&lt; T &gt;</text>
</a>
</g>
</g>
<!-- Node3&#45;&gt;Node2 -->
<g id="edge2" class="edge">
<title>Node3&#45;&gt;Node2</title>
<path fill="none" stroke="#ffa500" stroke-dasharray="5,2" d="M33.5688,-120.1265C33.5688,-108.1522 33.5688,-93.3205 33.5688,-83.8821"/>
<polygon fill="#ffa500" stroke="#ffa500" points="30.0689,-120.462 33.5688,-130.462 37.0689,-120.4621 30.0689,-120.462"/>
<text text-anchor="middle" x="46.9111" y="-104" font-family="Helvetica,sans-Serif" font-size="10.00" fill="#000000"> &lt; V &gt;</text>
</g>
<!-- Node4 -->
<g id="node4" class="node">
<title>Node4</title>
<g id="a_node4"><a xlink:title=" ">
<polygon fill="#ffffff" stroke="#bfbfbf" points="52.0688,-195.5 52.0688,-213.5 81.0688,-213.5 81.0688,-195.5 52.0688,-195.5"/>
<text text-anchor="middle" x="66.123" y="-201.5" font-family="Helvetica,sans-Serif" font-size="10.00" fill="#000000">T</text>
</a>
</g>
</g>
<!-- Node4&#45;&gt;Node3 -->
<g id="edge3" class="edge">
<title>Node4&#45;&gt;Node3</title>
<path fill="none" stroke="#9a32cd" stroke-dasharray="5,2" d="M43.6529,-189.4414C39.8455,-185.8423 36.4226,-181.6691 34.2144,-177 29.9829,-168.0529 30.5487,-156.5102 31.7068,-148.6085"/>
<polygon fill="#9a32cd" stroke="#9a32cd" points="41.7693,-192.4199 51.7419,-195.9973 46.1768,-186.9817 41.7693,-192.4199"/>
<text text-anchor="middle" x="56.2461" y="-169" font-family="Helvetica,sans-Serif" font-size="10.00" fill="#000000"> elements</text>
</g>
<!-- Node6 -->
<g id="node6" class="node">
<title>Node6</title>
<g id="a_node6"><a xlink:title="STL class.">
<polygon fill="#ffffff" stroke="#bfbfbf" points="119.2324,-130.5 119.2324,-148.5 189.9053,-148.5 189.9053,-130.5 119.2324,-130.5"/>
<text text-anchor="middle" x="154.5688" y="-136.5" font-family="Helvetica,sans-Serif" font-size="10.00" fill="#000000">map&lt; K, T &gt;</text>
</a>
</g>
</g>
<!-- Node4&#45;&gt;Node6 -->
<g id="edge7" class="edge">
<title>Node4&#45;&gt;Node6</title>
<path fill="none" stroke="#9a32cd" stroke-dasharray="5,2" d="M84.9977,-188.5683C93.1683,-181.7136 103.0007,-173.7434 112.2144,-167 121.1286,-160.4758 131.5282,-153.712 139.7915,-148.525"/>
<polygon fill="#9a32cd" stroke="#9a32cd" points="82.5353,-186.0676 77.1804,-195.2096 87.0675,-191.4024 82.5353,-186.0676"/>
<text text-anchor="middle" x="134.2461" y="-169" font-family="Helvetica,sans-Serif" font-size="10.00" fill="#000000"> elements</text>
</g>
<!-- Node5 -->
<g id="node5" class="node">
<title>Node5</title>
<g id="a_node5"><a xlink:title=" ">
<polygon fill="#ffffff" stroke="#bfbfbf" points="87.2349,-65.5 87.2349,-83.5 157.9028,-83.5 157.9028,-65.5 87.2349,-65.5"/>
<text text-anchor="middle" x="122.5688" y="-71.5" font-family="Helvetica,sans-Serif" font-size="10.00" fill="#000000">map&lt; V, V &gt;</text>
</a>
</g>
</g>
<!-- Node5&#45;&gt;Node1 -->
<g id="edge4" class="edge">
<title>Node5&#45;&gt;Node1</title>
<path fill="none" stroke="#9a32cd" stroke-dasharray="5,2" d="M123.463,-55.1265C124.0157,-43.1522 124.7002,-28.3205 125.1358,-18.8821"/>
<polygon fill="#9a32cd" stroke="#9a32cd" points="119.9508,-55.3113 122.986,-65.462 126.9434,-55.6341 119.9508,-55.3113"/>
<text text-anchor="middle" x="155.9727" y="-39" font-family="Helvetica,sans-Serif" font-size="10.00" fill="#000000"> predecessors</text>
</g>
<!-- Node6&#45;&gt;Node5 -->
<g id="edge5" class="edge">
<title>Node6&#45;&gt;Node5</title>
<path fill="none" stroke="#ffa500" stroke-dasharray="5,2" d="M145.5739,-121.229C139.5903,-109.0748 131.978,-93.6124 127.1877,-83.8821"/>
<polygon fill="#ffa500" stroke="#ffa500" points="142.5624,-123.0362 150.1194,-130.462 148.8426,-119.9444 142.5624,-123.0362"/>
<text text-anchor="middle" x="159.5654" y="-104" font-family="Helvetica,sans-Serif" font-size="10.00" fill="#000000"> &lt; V, V &gt;</text>
</g>
<!-- Node8 -->
<g id="node8" class="node">
<title>Node8</title>
<g id="a_node8"><a xlink:title=" ">
<polygon fill="#ffffff" stroke="#bfbfbf" points="175.5576,-65.5 175.5576,-83.5 269.5801,-83.5 269.5801,-65.5 175.5576,-65.5"/>
<text text-anchor="middle" x="222.5688" y="-71.5" font-family="Helvetica,sans-Serif" font-size="10.00" fill="#000000">map&lt; V, int32_t &gt;</text>
</a>
</g>
</g>
<!-- Node6&#45;&gt;Node8 -->
<g id="edge9" class="edge">
<title>Node6&#45;&gt;Node8</title>
<path fill="none" stroke="#ffa500" stroke-dasharray="5,2" d="M171.4338,-123.3791C184.4356,-110.9509 201.9635,-94.1962 212.7537,-83.8821"/>
<polygon fill="#ffa500" stroke="#ffa500" points="168.8343,-121.0221 164.024,-130.462 173.6712,-126.0822 168.8343,-121.0221"/>
<text text-anchor="middle" x="224.2427" y="-104" font-family="Helvetica,sans-Serif" font-size="10.00" fill="#000000"> &lt; V, int32_t &gt;</text>
</g>
<!-- Node7 -->
<g id="node7" class="node">
<title>Node7</title>
<g id="a_node7"><a xlink:title=" ">
<polygon fill="#ffffff" stroke="#bfbfbf" points="151.0688,-195.5 151.0688,-213.5 180.0688,-213.5 180.0688,-195.5 151.0688,-195.5"/>
<text text-anchor="middle" x="165.4038" y="-201.5" font-family="Helvetica,sans-Serif" font-size="10.00" fill="#000000">K</text>
</a>
</g>
</g>
<!-- Node7&#45;&gt;Node6 -->
<g id="edge6" class="edge">
<title>Node7&#45;&gt;Node6</title>
<path fill="none" stroke="#9a32cd" stroke-dasharray="5,2" d="M162.3528,-185.4959C160.3157,-173.4586 157.7703,-158.4178 156.1566,-148.8821"/>
<polygon fill="#9a32cd" stroke="#9a32cd" points="158.9197,-186.1863 164.0393,-195.462 165.8216,-185.0182 158.9197,-186.1863"/>
<text text-anchor="middle" x="173.2388" y="-169" font-family="Helvetica,sans-Serif" font-size="10.00" fill="#000000"> keys</text>
</g>
<!-- Node8&#45;&gt;Node1 -->
<g id="edge8" class="edge">
<title>Node8&#45;&gt;Node1</title>
<path fill="none" stroke="#9a32cd" stroke-dasharray="5,2" d="M211.0619,-57.157C205.7712,-50.187 199.0148,-42.5138 191.5688,-37 180.8947,-29.0957 167.6134,-22.9947 155.7692,-18.5705"/>
<polygon fill="#9a32cd" stroke="#9a32cd" points="208.2727,-59.2741 216.9213,-65.3939 213.9768,-55.2165 208.2727,-59.2741"/>
<text text-anchor="middle" x="232.5933" y="-39" font-family="Helvetica,sans-Serif" font-size="10.00" fill="#000000"> path_lengths</text>
</g>
</g>
</svg>
