<?xml version="1.0" encoding="UTF-8" standalone="no"?>
<!DOCTYPE svg PUBLIC "-//W3C//DTD SVG 1.1//EN"
 "http://www.w3.org/Graphics/SVG/1.1/DTD/svg11.dtd">
<!-- Generated by graphviz version 2.40.1 (20161225.0304)
 -->
<!-- Title: MGCallback Pages: 1 -->
<svg width="697pt" height="88pt"
 viewBox="0.00 0.00 696.62 87.50" xmlns="http://www.w3.org/2000/svg" xmlns:xlink="http://www.w3.org/1999/xlink">
<g id="graph0" class="graph" transform="scale(1 1) rotate(0) translate(4 83.5)">
<title>MGCallback</title>
<polygon fill="#ffffff" stroke="transparent" points="-4,4 -4,-83.5 692.624,-83.5 692.624,4 -4,4"/>
<!-- Node0 -->
<g id="node1" class="node">
<title>Node0</title>
<g id="a_node1"><a xlink:title=" ">
<polygon fill="#bfbfbf" stroke="#000000" points="490.1465,-20.5 490.1465,-38.5 560.6045,-38.5 560.6045,-20.5 490.1465,-20.5"/>
<text text-anchor="middle" x="525.3755" y="-26.5" font-family="Helvetica,sans-Serif" font-size="10.00" fill="#000000">MGCallback</text>
</a>
</g>
</g>
<!-- Node3 -->
<g id="node4" class="node">
<title>Node3</title>
<g id="a_node4"><a xlink:href="structindigox_1_1algorithm_1_1_m_g_print_callback.html" target="_top" xlink:title=" ">
<polygon fill="#ffffff" stroke="#000000" points="597.6045,-20.5 597.6045,-38.5 688.624,-38.5 688.624,-20.5 597.6045,-20.5"/>
<text text-anchor="middle" x="643.1143" y="-26.5" font-family="Helvetica,sans-Serif" font-size="10.00" fill="#000000">MGPrintCallback</text>
</a>
</g>
</g>
<!-- Node0&#45;&gt;Node3 -->
<g id="edge3" class="edge">
<title>Node0&#45;&gt;Node3</title>
<path fill="none" stroke="#191970" d="M570.7088,-29.5C579.4405,-29.5 588.5923,-29.5 597.3379,-29.5"/>
<polygon fill="#191970" stroke="#191970" points="570.701,-26.0001 560.701,-29.5 570.701,-33.0001 570.701,-26.0001"/>
</g>
<!-- Node1 -->
<g id="node2" class="node">
<title>Node1</title>
<g id="a_node2"><a xlink:href="structindigox_1_1algorithm_1_1_mapping_callback.html" target="_top" xlink:title=" ">
<polygon fill="#ffffff" stroke="#000000" points="291.502,-.5 291.502,-58.5 453.1465,-58.5 453.1465,-.5 291.502,-.5"/>
<text text-anchor="start" x="299.502" y="-46.5" font-family="Helvetica,sans-Serif" font-size="10.00" fill="#000000">MappingCallback&lt; graph</text>
<text text-anchor="start" x="299.502" y="-36.5" font-family="Helvetica,sans-Serif" font-size="10.00" fill="#000000">::MGVertex, graph::MGEdge,</text>
<text text-anchor="start" x="299.502" y="-26.5" font-family="Helvetica,sans-Serif" font-size="10.00" fill="#000000"> graph::MolecularGraph, graph</text>
<text text-anchor="start" x="299.502" y="-16.5" font-family="Helvetica,sans-Serif" font-size="10.00" fill="#000000">::Undirected, graph::GraphLabel,</text>
<text text-anchor="middle" x="372.3242" y="-6.5" font-family="Helvetica,sans-Serif" font-size="10.00" fill="#000000"> graph::GraphLabel &gt;</text>
</a>
</g>
</g>
<!-- Node1&#45;&gt;Node0 -->
<g id="edge1" class="edge">
<title>Node1&#45;&gt;Node0</title>
<path fill="none" stroke="#191970" d="M463.5527,-29.5C472.888,-29.5 481.9199,-29.5 490.0643,-29.5"/>
<polygon fill="#191970" stroke="#191970" points="463.3315,-26.0001 453.3315,-29.5 463.3315,-33.0001 463.3315,-26.0001"/>
</g>
<!-- Node2 -->
<g id="node3" class="node">
<title>Node2</title>
<g id="a_node3"><a xlink:href="structindigox_1_1algorithm_1_1_mapping_callback.html" target="_top" xlink:title=" ">
<polygon fill="#ffffff" stroke="#000000" points="0,-15.5 0,-43.5 109.8574,-43.5 109.8574,-15.5 0,-15.5"/>
<text text-anchor="start" x="8" y="-31.5" font-family="Helvetica,sans-Serif" font-size="10.00" fill="#000000">MappingCallback&lt; V,</text>
<text text-anchor="middle" x="54.9287" y="-21.5" font-family="Helvetica,sans-Serif" font-size="10.00" fill="#000000"> E, S, D, VP, EP &gt;</text>
</a>
</g>
</g>
<!-- Node2&#45;&gt;Node1 -->
<g id="edge2" class="edge">
<title>Node2&#45;&gt;Node1</title>
<path fill="none" stroke="#ffa500" stroke-dasharray="5,2" d="M120.5025,-29.5C170.1075,-29.5 238.4965,-29.5 291.4878,-29.5"/>
<polygon fill="#ffa500" stroke="#ffa500" points="120.2148,-26.0001 110.2148,-29.5 120.2148,-33.0001 120.2148,-26.0001"/>
<text text-anchor="start" x="127.8574" y="-71.5" font-family="Helvetica,sans-Serif" font-size="10.00" fill="#000000"> &lt; graph::MGVertex,</text>
<text text-anchor="start" x="127.8574" y="-61.5" font-family="Helvetica,sans-Serif" font-size="10.00" fill="#000000"> graph::MGEdge, graph</text>
<text text-anchor="start" x="127.8574" y="-51.5" font-family="Helvetica,sans-Serif" font-size="10.00" fill="#000000">::MolecularGraph, graph</text>
<text text-anchor="start" x="127.8574" y="-41.5" font-family="Helvetica,sans-Serif" font-size="10.00" fill="#000000">::Undirected, graph::GraphLabel,</text>
<text text-anchor="middle" x="200.6797" y="-31.5" font-family="Helvetica,sans-Serif" font-size="10.00" fill="#000000"> graph::GraphLabel &gt;</text>
</g>
</g>
</svg>
