<?xml version="1.0" encoding="UTF-8" standalone="no"?>
<!DOCTYPE svg PUBLIC "-//W3C//DTD SVG 1.1//EN"
 "http://www.w3.org/Graphics/SVG/1.1/DTD/svg11.dtd">
<!-- Generated by graphviz version 2.40.1 (20161225.0304)
 -->
<!-- Title: FFDihedral::Impl Pages: 1 -->
<svg width="204pt" height="232pt"
 viewBox="0.00 0.00 203.58 232.00" xmlns="http://www.w3.org/2000/svg" xmlns:xlink="http://www.w3.org/1999/xlink">
<g id="graph0" class="graph" transform="scale(1 1) rotate(0) translate(4 228)">
<title>FFDihedral::Impl</title>
<polygon fill="#ffffff" stroke="transparent" points="-4,4 -4,-228 199.583,-228 199.583,4 -4,4"/>
<!-- Node1 -->
<g id="node1" class="node">
<title>Node1</title>
<polygon fill="#bfbfbf" stroke="#000000" points="66.6768,-.5 66.6768,-18.5 156.583,-18.5 156.583,-.5 66.6768,-.5"/>
<text text-anchor="middle" x="111.6299" y="-6.5" font-family="Helvetica,sans-Serif" font-size="10.00" fill="#000000">FFDihedral::Impl</text>
</g>
<!-- Node2 -->
<g id="node2" class="node">
<title>Node2</title>
<polygon fill="#ffffff" stroke="#bfbfbf" points="0,-65.5 0,-93.5 117.2598,-93.5 117.2598,-65.5 0,-65.5"/>
<text text-anchor="start" x="8" y="-81.5" font-family="Helvetica,sans-Serif" font-size="10.00" fill="#000000">array&lt; double, STORE</text>
<text text-anchor="middle" x="58.6299" y="-71.5" font-family="Helvetica,sans-Serif" font-size="10.00" fill="#000000">_SIZE &gt;</text>
</g>
<!-- Node2&#45;&gt;Node1 -->
<g id="edge1" class="edge">
<title>Node2&#45;&gt;Node1</title>
<path fill="none" stroke="#9a32cd" stroke-dasharray="5,2" d="M75.4658,-57.2639C85.3229,-44.2451 97.247,-28.4963 104.6363,-18.7368"/>
<polygon fill="#9a32cd" stroke="#9a32cd" points="72.6012,-55.2491 69.3552,-65.3345 78.1821,-59.4746 72.6012,-55.2491"/>
<text text-anchor="middle" x="112.5879" y="-39" font-family="Helvetica,sans-Serif" font-size="10.00" fill="#000000"> raw_data</text>
</g>
<!-- Node3 -->
<g id="node3" class="node">
<title>Node3</title>
<g id="a_node3"><a xlink:title="STL class. ">
<polygon fill="#ffffff" stroke="#bfbfbf" points="27.7417,-140.5 27.7417,-158.5 89.5181,-158.5 89.5181,-140.5 27.7417,-140.5"/>
<text text-anchor="middle" x="58.6299" y="-146.5" font-family="Helvetica,sans-Serif" font-size="10.00" fill="#000000">array&lt; T &gt;</text>
</a>
</g>
</g>
<!-- Node3&#45;&gt;Node2 -->
<g id="edge2" class="edge">
<title>Node3&#45;&gt;Node2</title>
<path fill="none" stroke="#ffa500" stroke-dasharray="5,2" d="M58.6299,-130.0243C58.6299,-118.5169 58.6299,-104.2016 58.6299,-93.7499"/>
<polygon fill="#ffa500" stroke="#ffa500" points="55.13,-130.3487 58.6299,-140.3487 62.13,-130.3488 55.13,-130.3487"/>
<text text-anchor="middle" x="117.4604" y="-114" font-family="Helvetica,sans-Serif" font-size="10.00" fill="#000000"> &lt; double, STORE_SIZE &gt;</text>
</g>
<!-- Node4 -->
<g id="node4" class="node">
<title>Node4</title>
<polygon fill="#ffffff" stroke="#bfbfbf" points="44.1299,-205.5 44.1299,-223.5 73.1299,-223.5 73.1299,-205.5 44.1299,-205.5"/>
<text text-anchor="middle" x="58.1841" y="-211.5" font-family="Helvetica,sans-Serif" font-size="10.00" fill="#000000">T</text>
</g>
<!-- Node4&#45;&gt;Node3 -->
<g id="edge3" class="edge">
<title>Node4&#45;&gt;Node3</title>
<path fill="none" stroke="#9a32cd" stroke-dasharray="5,2" d="M58.6299,-195.1265C58.6299,-183.1522 58.6299,-168.3205 58.6299,-158.8821"/>
<polygon fill="#9a32cd" stroke="#9a32cd" points="55.13,-195.462 58.6299,-205.462 62.13,-195.4621 55.13,-195.462"/>
<text text-anchor="middle" x="80.3071" y="-179" font-family="Helvetica,sans-Serif" font-size="10.00" fill="#000000"> elements</text>
</g>
<!-- Node5 -->
<g id="node5" class="node">
<title>Node5</title>
<g id="a_node5"><a xlink:href="classindigox_1_1_forcefield.html" target="_top" xlink:title="Forcefield">
<polygon fill="#ffffff" stroke="#000000" points="135.6768,-70.5 135.6768,-88.5 195.583,-88.5 195.583,-70.5 135.6768,-70.5"/>
<text text-anchor="middle" x="165.6299" y="-76.5" font-family="Helvetica,sans-Serif" font-size="10.00" fill="#000000">Forcefield</text>
</a>
</g>
</g>
<!-- Node5&#45;&gt;Node1 -->
<g id="edge4" class="edge">
<title>Node5&#45;&gt;Node1</title>
<path fill="none" stroke="#9a32cd" stroke-dasharray="5,2" d="M155.4325,-61.6329C150.6818,-53.8138 144.7359,-44.6898 138.6299,-37 133.4707,-30.5026 126.9748,-23.8475 121.6475,-18.712"/>
<polygon fill="#9a32cd" stroke="#9a32cd" points="152.4715,-63.5021 160.565,-70.3392 158.5016,-59.9472 152.4715,-63.5021"/>
<text text-anchor="middle" x="149.7095" y="-39" font-family="Helvetica,sans-Serif" font-size="10.00" fill="#000000"> ff</text>
</g>
</g>
</svg>
