<?xml version="1.0" encoding="UTF-8" standalone="no"?>
<!DOCTYPE svg PUBLIC "-//W3C//DTD SVG 1.1//EN"
 "http://www.w3.org/Graphics/SVG/1.1/DTD/svg11.dtd">
<!-- Generated by graphviz version 2.40.1 (20161225.0304)
 -->
<!-- Title: Dihedral::Impl Pages: 1 -->
<svg width="325pt" height="222pt"
 viewBox="0.00 0.00 324.68 222.00" xmlns="http://www.w3.org/2000/svg" xmlns:xlink="http://www.w3.org/1999/xlink">
<g id="graph0" class="graph" transform="scale(1 1) rotate(0) translate(4 218)">
<title>Dihedral::Impl</title>
<polygon fill="#ffffff" stroke="transparent" points="-4,4 -4,-218 320.6797,-218 320.6797,4 -4,4"/>
<!-- Node1 -->
<g id="node1" class="node">
<title>Node1</title>
<polygon fill="#bfbfbf" stroke="#000000" points="148.8252,-.5 148.8252,-18.5 226.5146,-18.5 226.5146,-.5 148.8252,-.5"/>
<text text-anchor="middle" x="187.6699" y="-6.5" font-family="Helvetica,sans-Serif" font-size="10.00" fill="#000000">Dihedral::Impl</text>
</g>
<!-- Node2 -->
<g id="node2" class="node">
<title>Node2</title>
<polygon fill="#ffffff" stroke="#bfbfbf" points="24.7046,-65.5 24.7046,-83.5 114.6353,-83.5 114.6353,-65.5 24.7046,-65.5"/>
<text text-anchor="middle" x="69.6699" y="-71.5" font-family="Helvetica,sans-Serif" font-size="10.00" fill="#000000">array&lt; Atom, 4 &gt;</text>
</g>
<!-- Node2&#45;&gt;Node1 -->
<g id="edge1" class="edge">
<title>Node2&#45;&gt;Node1</title>
<path fill="none" stroke="#9a32cd" stroke-dasharray="5,2" d="M94.9318,-60.5846C117.9227,-47.9201 151.2085,-29.5847 171.0215,-18.6708"/>
<polygon fill="#9a32cd" stroke="#9a32cd" points="93.1476,-57.5714 86.0773,-65.462 96.5251,-63.7028 93.1476,-57.5714"/>
<text text-anchor="middle" x="151.6748" y="-39" font-family="Helvetica,sans-Serif" font-size="10.00" fill="#000000"> atoms</text>
</g>
<!-- Node3 -->
<g id="node3" class="node">
<title>Node3</title>
<g id="a_node3"><a xlink:href="classindigox_1_1_atom.html" target="_top" xlink:title="Atom">
<polygon fill="#ffffff" stroke="#000000" points="0,-130.5 0,-148.5 39.3398,-148.5 39.3398,-130.5 0,-130.5"/>
<text text-anchor="middle" x="19.6699" y="-136.5" font-family="Helvetica,sans-Serif" font-size="10.00" fill="#000000">Atom</text>
</a>
</g>
</g>
<!-- Node3&#45;&gt;Node2 -->
<g id="edge2" class="edge">
<title>Node3&#45;&gt;Node2</title>
<path fill="none" stroke="#9a32cd" stroke-dasharray="5,2" d="M23.0007,-120.5968C24.7492,-114.2741 27.3807,-107.4544 31.3154,-102 36.78,-94.4248 44.9836,-88.1429 52.403,-83.5047"/>
<polygon fill="#9a32cd" stroke="#9a32cd" points="19.5662,-119.9186 20.8178,-130.4393 26.4001,-121.4344 19.5662,-119.9186"/>
<text text-anchor="middle" x="53.3472" y="-104" font-family="Helvetica,sans-Serif" font-size="10.00" fill="#000000"> elements</text>
</g>
<!-- Node4 -->
<g id="node4" class="node">
<title>Node4</title>
<g id="a_node4"><a xlink:title="STL class. ">
<polygon fill="#ffffff" stroke="#bfbfbf" points="57.7817,-130.5 57.7817,-148.5 119.5581,-148.5 119.5581,-130.5 57.7817,-130.5"/>
<text text-anchor="middle" x="88.6699" y="-136.5" font-family="Helvetica,sans-Serif" font-size="10.00" fill="#000000">array&lt; T &gt;</text>
</a>
</g>
</g>
<!-- Node4&#45;&gt;Node2 -->
<g id="edge3" class="edge">
<title>Node4&#45;&gt;Node2</title>
<path fill="none" stroke="#ffa500" stroke-dasharray="5,2" d="M83.2223,-120.8634C79.6862,-108.7661 75.2282,-93.5151 72.4124,-83.8821"/>
<polygon fill="#ffa500" stroke="#ffa500" points="79.8629,-121.8457 86.0281,-130.462 86.5817,-119.8817 79.8629,-121.8457"/>
<text text-anchor="middle" x="107.6328" y="-104" font-family="Helvetica,sans-Serif" font-size="10.00" fill="#000000"> &lt; Atom, 4 &gt;</text>
</g>
<!-- Node5 -->
<g id="node5" class="node">
<title>Node5</title>
<polygon fill="#ffffff" stroke="#bfbfbf" points="115.1699,-195.5 115.1699,-213.5 144.1699,-213.5 144.1699,-195.5 115.1699,-195.5"/>
<text text-anchor="middle" x="129.2241" y="-201.5" font-family="Helvetica,sans-Serif" font-size="10.00" fill="#000000">T</text>
</g>
<!-- Node5&#45;&gt;Node4 -->
<g id="edge4" class="edge">
<title>Node5&#45;&gt;Node4</title>
<path fill="none" stroke="#9a32cd" stroke-dasharray="5,2" d="M110.4819,-188.3786C107.0997,-184.8855 103.8545,-181.0233 101.3154,-177 95.7418,-168.1683 92.3289,-156.6041 90.4757,-148.6657"/>
<polygon fill="#9a32cd" stroke="#9a32cd" points="108.206,-191.0431 117.8838,-195.3548 113.0071,-185.949 108.206,-191.0431"/>
<text text-anchor="middle" x="123.3472" y="-169" font-family="Helvetica,sans-Serif" font-size="10.00" fill="#000000"> elements</text>
</g>
<!-- Node8 -->
<g id="node8" class="node">
<title>Node8</title>
<g id="a_node8"><a xlink:title="STL class. ">
<polygon fill="#ffffff" stroke="#bfbfbf" points="137.5576,-130.5 137.5576,-148.5 203.7822,-148.5 203.7822,-130.5 137.5576,-130.5"/>
<text text-anchor="middle" x="170.6699" y="-136.5" font-family="Helvetica,sans-Serif" font-size="10.00" fill="#000000">vector&lt; T &gt;</text>
</a>
</g>
</g>
<!-- Node5&#45;&gt;Node8 -->
<g id="edge8" class="edge">
<title>Node5&#45;&gt;Node8</title>
<path fill="none" stroke="#9a32cd" stroke-dasharray="5,2" d="M140.7373,-186.9542C148.4696,-174.6956 158.4916,-158.807 164.752,-148.8821"/>
<polygon fill="#9a32cd" stroke="#9a32cd" points="137.7456,-185.1368 135.3708,-195.462 143.6662,-188.8713 137.7456,-185.1368"/>
<text text-anchor="middle" x="173.3472" y="-169" font-family="Helvetica,sans-Serif" font-size="10.00" fill="#000000"> elements</text>
</g>
<!-- Node6 -->
<g id="node6" class="node">
<title>Node6</title>
<polygon fill="#ffffff" stroke="#bfbfbf" points="132.707,-65.5 132.707,-83.5 242.6328,-83.5 242.6328,-65.5 132.707,-65.5"/>
<text text-anchor="middle" x="187.6699" y="-71.5" font-family="Helvetica,sans-Serif" font-size="10.00" fill="#000000">vector&lt; FFDihedral &gt;</text>
</g>
<!-- Node6&#45;&gt;Node1 -->
<g id="edge5" class="edge">
<title>Node6&#45;&gt;Node1</title>
<path fill="none" stroke="#9a32cd" stroke-dasharray="5,2" d="M187.6699,-55.1265C187.6699,-43.1522 187.6699,-28.3205 187.6699,-18.8821"/>
<polygon fill="#9a32cd" stroke="#9a32cd" points="184.17,-55.462 187.6699,-65.462 191.17,-55.4621 184.17,-55.462"/>
<text text-anchor="middle" x="224.0786" y="-39" font-family="Helvetica,sans-Serif" font-size="10.00" fill="#000000"> forcefield_types</text>
</g>
<!-- Node7 -->
<g id="node7" class="node">
<title>Node7</title>
<g id="a_node7"><a xlink:href="classindigox_1_1_f_f_dihedral.html" target="_top" xlink:title="FFDihedral">
<polygon fill="#ffffff" stroke="#000000" points="229.9409,-130.5 229.9409,-148.5 295.3989,-148.5 295.3989,-130.5 229.9409,-130.5"/>
<text text-anchor="middle" x="262.6699" y="-136.5" font-family="Helvetica,sans-Serif" font-size="10.00" fill="#000000">FFDihedral</text>
</a>
</g>
</g>
<!-- Node7&#45;&gt;Node6 -->
<g id="edge6" class="edge">
<title>Node7&#45;&gt;Node6</title>
<path fill="none" stroke="#9a32cd" stroke-dasharray="5,2" d="M254.5787,-121.1527C251.0132,-114.5337 246.3339,-107.3772 240.6699,-102 232.4754,-94.2204 221.6507,-88.0801 211.9211,-83.5936"/>
<polygon fill="#9a32cd" stroke="#9a32cd" points="251.4601,-122.7429 258.9903,-130.1959 257.7514,-119.6738 251.4601,-122.7429"/>
<text text-anchor="middle" x="270.3472" y="-104" font-family="Helvetica,sans-Serif" font-size="10.00" fill="#000000"> elements</text>
</g>
<!-- Node8&#45;&gt;Node6 -->
<g id="edge7" class="edge">
<title>Node8&#45;&gt;Node6</title>
<path fill="none" stroke="#ffa500" stroke-dasharray="5,2" d="M169.0261,-120.028C169.0381,-114.1423 169.5704,-107.7248 171.1973,-102 173.0837,-95.3618 177.0074,-88.7024 180.5522,-83.5997"/>
<polygon fill="#ffa500" stroke="#ffa500" points="165.5454,-120.5366 169.4931,-130.3684 172.5383,-120.2207 165.5454,-120.5366"/>
<text text-anchor="middle" x="205.4063" y="-104" font-family="Helvetica,sans-Serif" font-size="10.00" fill="#000000"> &lt; FFDihedral &gt;</text>
</g>
<!-- Node9 -->
<g id="node9" class="node">
<title>Node9</title>
<g id="a_node9"><a xlink:href="classindigox_1_1_molecule.html" target="_top" xlink:title="Molecule">
<polygon fill="#ffffff" stroke="#000000" points="260.6602,-65.5 260.6602,-83.5 316.6797,-83.5 316.6797,-65.5 260.6602,-65.5"/>
<text text-anchor="middle" x="288.6699" y="-71.5" font-family="Helvetica,sans-Serif" font-size="10.00" fill="#000000">Molecule</text>
</a>
</g>
</g>
<!-- Node9&#45;&gt;Node1 -->
<g id="edge9" class="edge">
<title>Node9&#45;&gt;Node1</title>
<path fill="none" stroke="#9a32cd" stroke-dasharray="5,2" d="M280.0774,-55.9899C276.1801,-49.2453 271.0088,-42.0453 264.6699,-37 253.6745,-28.2484 239.6679,-22.153 226.6235,-17.9681"/>
<polygon fill="#9a32cd" stroke="#9a32cd" points="277.16,-57.9679 284.8634,-65.2417 283.3774,-54.7516 277.16,-57.9679"/>
<text text-anchor="middle" x="295.0688" y="-39" font-family="Helvetica,sans-Serif" font-size="10.00" fill="#000000"> molecule</text>
</g>
</g>
</svg>
