<?xml version="1.0" encoding="UTF-8" standalone="no"?>
<!DOCTYPE svg PUBLIC "-//W3C//DTD SVG 1.1//EN"
 "http://www.w3.org/Graphics/SVG/1.1/DTD/svg11.dtd">
<!-- Generated by graphviz version 2.40.1 (20161225.0304)
 -->
<!-- Title: src/classes/treedecomp.cpp Pages: 1 -->
<svg width="980pt" height="202pt"
 viewBox="0.00 0.00 980.40 202.00" xmlns="http://www.w3.org/2000/svg" xmlns:xlink="http://www.w3.org/1999/xlink">
<g id="graph0" class="graph" transform="scale(1 1) rotate(0) translate(4 198)">
<title>src/classes/treedecomp.cpp</title>
<polygon fill="#ffffff" stroke="transparent" points="-4,4 -4,-198 976.3965,-198 976.3965,4 -4,4"/>
<!-- Node0 -->
<g id="node1" class="node">
<title>Node0</title>
<polygon fill="#bfbfbf" stroke="#000000" points="375.6455,-175.5 375.6455,-193.5 515.5859,-193.5 515.5859,-175.5 375.6455,-175.5"/>
<text text-anchor="middle" x="445.6157" y="-181.5" font-family="Helvetica,sans-Serif" font-size="10.00" fill="#000000">src/classes/treedecomp.cpp</text>
</g>
<!-- Node1 -->
<g id="node2" class="node">
<title>Node1</title>
<g id="a_node2"><a xlink:href="treedecomp_8hpp.html" target="_top" xlink:title="indigox/classes/treedecomp.hpp">
<polygon fill="#ffffff" stroke="#000000" points="175.1851,-115.5 175.1851,-133.5 334.0464,-133.5 334.0464,-115.5 175.1851,-115.5"/>
<text text-anchor="middle" x="254.6157" y="-121.5" font-family="Helvetica,sans-Serif" font-size="10.00" fill="#000000">indigox/classes/treedecomp.hpp</text>
</a>
</g>
</g>
<!-- Node0&#45;&gt;Node1 -->
<g id="edge1" class="edge">
<title>Node0&#45;&gt;Node1</title>
<path fill="none" stroke="#191970" d="M416.6069,-175.3873C383.6019,-165.0192 329.5621,-148.0434 293.0677,-136.5791"/>
<polygon fill="#191970" stroke="#191970" points="293.861,-133.1598 283.2717,-133.5019 291.7631,-139.838 293.861,-133.1598"/>
</g>
<!-- Node3 -->
<g id="node4" class="node">
<title>Node3</title>
<g id="a_node4"><a xlink:href="permutablegraph_8hpp.html" target="_top" xlink:title="permutablegraph.hpp">
<polygon fill="#ffffff" stroke="#000000" points="94.0815,-55.5 94.0815,-73.5 205.1499,-73.5 205.1499,-55.5 94.0815,-55.5"/>
<text text-anchor="middle" x="149.6157" y="-61.5" font-family="Helvetica,sans-Serif" font-size="10.00" fill="#000000">permutablegraph.hpp</text>
</a>
</g>
</g>
<!-- Node0&#45;&gt;Node3 -->
<g id="edge12" class="edge">
<title>Node0&#45;&gt;Node3</title>
<path fill="none" stroke="#191970" d="M375.3222,-177.8587C294.9407,-169.5802 172.4671,-154.6087 157.6157,-139 143.9189,-124.6047 143.7191,-100.8642 145.7859,-84.0557"/>
<polygon fill="#191970" stroke="#191970" points="149.3147,-84.1545 147.441,-73.7267 142.4028,-83.047 149.3147,-84.1545"/>
</g>
<!-- Node6 -->
<g id="node7" class="node">
<title>Node6</title>
<polygon fill="#ffffff" stroke="#bfbfbf" points="0,-.5 0,-18.5 43.2314,-18.5 43.2314,-.5 0,-.5"/>
<text text-anchor="middle" x="21.6157" y="-6.5" font-family="Helvetica,sans-Serif" font-size="10.00" fill="#000000">vector</text>
</g>
<!-- Node0&#45;&gt;Node6 -->
<g id="edge21" class="edge">
<title>Node0&#45;&gt;Node6</title>
<path fill="none" stroke="#191970" d="M375.566,-179.4022C298.7308,-172.874 181.0751,-159.8454 141.6157,-139 91.2126,-112.3732 50.7111,-56.0887 32.3255,-27.2899"/>
<polygon fill="#191970" stroke="#191970" points="35.2104,-25.3014 26.9558,-18.6597 29.2669,-28.9994 35.2104,-25.3014"/>
</g>
<!-- Node7 -->
<g id="node8" class="node">
<title>Node7</title>
<polygon fill="#ffffff" stroke="#bfbfbf" points="229.8892,-55.5 229.8892,-73.5 265.3423,-73.5 265.3423,-55.5 229.8892,-55.5"/>
<text text-anchor="middle" x="247.6157" y="-61.5" font-family="Helvetica,sans-Serif" font-size="10.00" fill="#000000">map</text>
</g>
<!-- Node0&#45;&gt;Node7 -->
<g id="edge17" class="edge">
<title>Node0&#45;&gt;Node7</title>
<path fill="none" stroke="#191970" d="M375.5022,-177.7805C297.3341,-169.5669 180.046,-154.798 166.6157,-139 158.2675,-129.1801 160.1056,-121.1239 166.6157,-110 178.0793,-90.4123 201.4124,-78.6111 220.1035,-71.9544"/>
<polygon fill="#191970" stroke="#191970" points="221.2119,-75.2745 229.6355,-68.8485 219.0432,-68.6189 221.2119,-75.2745"/>
</g>
<!-- Node8 -->
<g id="node9" class="node">
<title>Node8</title>
<polygon fill="#ffffff" stroke="#bfbfbf" points="328.9458,-55.5 328.9458,-73.5 358.2856,-73.5 358.2856,-55.5 328.9458,-55.5"/>
<text text-anchor="middle" x="343.6157" y="-61.5" font-family="Helvetica,sans-Serif" font-size="10.00" fill="#000000">set</text>
</g>
<!-- Node0&#45;&gt;Node8 -->
<g id="edge18" class="edge">
<title>Node0&#45;&gt;Node8</title>
<path fill="none" stroke="#191970" d="M437.004,-175.2041C428.6156,-166.0886 415.5638,-151.7435 404.6157,-139 388.0425,-119.7088 369.6235,-97.0343 357.4061,-81.8114"/>
<polygon fill="#191970" stroke="#191970" points="359.9702,-79.4137 350.9902,-73.7914 354.5041,-83.7866 359.9702,-79.4137"/>
</g>
<!-- Node9 -->
<g id="node10" class="node">
<title>Node9</title>
<polygon fill="#ffffff" stroke="#bfbfbf" points="377.3892,-55.5 377.3892,-73.5 417.8423,-73.5 417.8423,-55.5 377.3892,-55.5"/>
<text text-anchor="middle" x="397.6157" y="-61.5" font-family="Helvetica,sans-Serif" font-size="10.00" fill="#000000">string</text>
</g>
<!-- Node0&#45;&gt;Node9 -->
<g id="edge20" class="edge">
<title>Node0&#45;&gt;Node9</title>
<path fill="none" stroke="#191970" d="M439.2898,-175.4655C433.2803,-166.5438 424.3361,-152.338 418.6157,-139 410.8585,-120.9129 405.104,-99.1381 401.5995,-83.8146"/>
<polygon fill="#191970" stroke="#191970" points="404.9972,-82.9677 399.4489,-73.9418 398.1576,-84.4576 404.9972,-82.9677"/>
</g>
<!-- Node10 -->
<g id="node11" class="node">
<title>Node10</title>
<polygon fill="#ffffff" stroke="#bfbfbf" points="427.6455,-110.5 427.6455,-138.5 557.5859,-138.5 557.5859,-110.5 427.6455,-110.5"/>
<text text-anchor="start" x="435.6455" y="-126.5" font-family="Helvetica,sans-Serif" font-size="10.00" fill="#000000">indigox/classes/molecular</text>
<text text-anchor="middle" x="492.6157" y="-116.5" font-family="Helvetica,sans-Serif" font-size="10.00" fill="#000000">_graph.hpp</text>
</g>
<!-- Node0&#45;&gt;Node10 -->
<g id="edge11" class="edge">
<title>Node0&#45;&gt;Node10</title>
<path fill="none" stroke="#191970" d="M452.754,-175.3873C458.6925,-167.8063 467.3983,-156.6925 475.1602,-146.7837"/>
<polygon fill="#191970" stroke="#191970" points="477.9654,-148.8783 481.3767,-138.8477 472.4548,-144.5616 477.9654,-148.8783"/>
</g>
<!-- Node11 -->
<g id="node12" class="node">
<title>Node11</title>
<polygon fill="#ffffff" stroke="#bfbfbf" points="575.2466,-115.5 575.2466,-133.5 697.9849,-133.5 697.9849,-115.5 575.2466,-115.5"/>
<text text-anchor="middle" x="636.6157" y="-121.5" font-family="Helvetica,sans-Serif" font-size="10.00" fill="#000000">indigox/utils/options.hpp</text>
</g>
<!-- Node0&#45;&gt;Node11 -->
<g id="edge13" class="edge">
<title>Node0&#45;&gt;Node11</title>
<path fill="none" stroke="#191970" d="M474.6245,-175.3873C507.6296,-165.0192 561.6693,-148.0434 598.1638,-136.5791"/>
<polygon fill="#191970" stroke="#191970" points="599.4684,-139.838 607.9598,-133.5019 597.3704,-133.1598 599.4684,-139.838"/>
</g>
<!-- Node12 -->
<g id="node13" class="node">
<title>Node12</title>
<polygon fill="#ffffff" stroke="#bfbfbf" points="716.0518,-115.5 716.0518,-133.5 773.1797,-133.5 773.1797,-115.5 716.0518,-115.5"/>
<text text-anchor="middle" x="744.6157" y="-121.5" font-family="Helvetica,sans-Serif" font-size="10.00" fill="#000000">algorithm</text>
</g>
<!-- Node0&#45;&gt;Node12 -->
<g id="edge14" class="edge">
<title>Node0&#45;&gt;Node12</title>
<path fill="none" stroke="#191970" d="M515.6583,-176.0089C568.6743,-168.6897 642.9776,-156.5138 706.6157,-139 708.9134,-138.3676 711.2658,-137.65 713.6184,-136.8806"/>
<polygon fill="#191970" stroke="#191970" points="714.8897,-140.1435 723.1521,-133.5115 712.5573,-133.5435 714.8897,-140.1435"/>
</g>
<!-- Node13 -->
<g id="node14" class="node">
<title>Node13</title>
<polygon fill="#ffffff" stroke="#bfbfbf" points="791.4434,-115.5 791.4434,-133.5 845.7881,-133.5 845.7881,-115.5 791.4434,-115.5"/>
<text text-anchor="middle" x="818.6157" y="-121.5" font-family="Helvetica,sans-Serif" font-size="10.00" fill="#000000">iostream</text>
</g>
<!-- Node0&#45;&gt;Node13 -->
<g id="edge15" class="edge">
<title>Node0&#45;&gt;Node13</title>
<path fill="none" stroke="#191970" d="M515.6632,-180.1388C584.5232,-174.666 692.1511,-162.9252 782.6157,-139 784.7857,-138.4261 787.0005,-137.756 789.2117,-137.0246"/>
<polygon fill="#191970" stroke="#191970" points="790.5501,-140.2617 798.7332,-133.5321 788.1395,-133.6899 790.5501,-140.2617"/>
</g>
<!-- Node14 -->
<g id="node15" class="node">
<title>Node14</title>
<polygon fill="#ffffff" stroke="#bfbfbf" points="864.229,-115.5 864.229,-133.5 903.0024,-133.5 903.0024,-115.5 864.229,-115.5"/>
<text text-anchor="middle" x="883.6157" y="-121.5" font-family="Helvetica,sans-Serif" font-size="10.00" fill="#000000">limits</text>
</g>
<!-- Node0&#45;&gt;Node14 -->
<g id="edge16" class="edge">
<title>Node0&#45;&gt;Node14</title>
<path fill="none" stroke="#191970" d="M515.6341,-179.6975C615.3056,-172.3519 792.8636,-157.2408 854.6157,-139 856.0328,-138.5814 857.4642,-138.0962 858.892,-137.5625"/>
<polygon fill="#191970" stroke="#191970" points="860.3279,-140.7546 868.0747,-133.5271 857.5116,-134.3461 860.3279,-140.7546"/>
</g>
<!-- Node15 -->
<g id="node16" class="node">
<title>Node15</title>
<polygon fill="#ffffff" stroke="#bfbfbf" points="920.835,-115.5 920.835,-133.5 972.3965,-133.5 972.3965,-115.5 920.835,-115.5"/>
<text text-anchor="middle" x="946.6157" y="-121.5" font-family="Helvetica,sans-Serif" font-size="10.00" fill="#000000">sstream</text>
</g>
<!-- Node0&#45;&gt;Node15 -->
<g id="edge19" class="edge">
<title>Node0&#45;&gt;Node15</title>
<path fill="none" stroke="#191970" d="M515.9832,-180.1806C627.2239,-172.9221 838.5724,-157.266 911.6157,-139 913.7931,-138.4555 916.012,-137.7985 918.2225,-137.0687"/>
<polygon fill="#191970" stroke="#191970" points="919.5633,-140.3041 927.7062,-133.5259 917.1137,-133.7467 919.5633,-140.3041"/>
</g>
<!-- Node2 -->
<g id="node3" class="node">
<title>Node2</title>
<polygon fill="#ffffff" stroke="#bfbfbf" points="259.6479,-.5 259.6479,-18.5 349.5835,-18.5 349.5835,-.5 259.6479,-.5"/>
<text text-anchor="middle" x="304.6157" y="-6.5" font-family="Helvetica,sans-Serif" font-size="10.00" fill="#000000">../utils/graph.hpp</text>
</g>
<!-- Node1&#45;&gt;Node2 -->
<g id="edge2" class="edge">
<title>Node1&#45;&gt;Node2</title>
<path fill="none" stroke="#191970" d="M258.5391,-115.4761C266.6773,-96.7585 285.5422,-53.3692 296.4423,-28.2989"/>
<polygon fill="#191970" stroke="#191970" points="299.7941,-29.3676 300.5716,-18.8014 293.3746,-26.5765 299.7941,-29.3676"/>
</g>
<!-- Node1&#45;&gt;Node3 -->
<g id="edge3" class="edge">
<title>Node1&#45;&gt;Node3</title>
<path fill="none" stroke="#191970" d="M238.6685,-115.3873C221.5323,-105.5952 194.0818,-89.9092 174.1836,-78.5388"/>
<polygon fill="#191970" stroke="#191970" points="175.788,-75.4245 165.369,-73.5019 172.3149,-81.5022 175.788,-75.4245"/>
</g>
<!-- Node1&#45;&gt;Node7 -->
<g id="edge8" class="edge">
<title>Node1&#45;&gt;Node7</title>
<path fill="none" stroke="#191970" d="M253.5526,-115.3873C252.5761,-107.0174 251.0972,-94.3414 249.8598,-83.735"/>
<polygon fill="#191970" stroke="#191970" points="253.3242,-83.2255 248.6889,-73.6985 246.3714,-84.0367 253.3242,-83.2255"/>
</g>
<!-- Node1&#45;&gt;Node8 -->
<g id="edge9" class="edge">
<title>Node1&#45;&gt;Node8</title>
<path fill="none" stroke="#191970" d="M268.1329,-115.3873C282.3292,-105.8168 304.8771,-90.6159 321.6371,-79.3171"/>
<polygon fill="#191970" stroke="#191970" points="323.9277,-81.994 330.2629,-73.5019 320.0147,-76.1897 323.9277,-81.994"/>
</g>
<!-- Node1&#45;&gt;Node9 -->
<g id="edge10" class="edge">
<title>Node1&#45;&gt;Node9</title>
<path fill="none" stroke="#191970" d="M276.3343,-115.3873C300.6897,-105.1683 340.3439,-88.5301 367.6406,-77.077"/>
<polygon fill="#191970" stroke="#191970" points="369.2199,-80.21 377.0869,-73.1135 366.5115,-73.7552 369.2199,-80.21"/>
</g>
<!-- Node3&#45;&gt;Node2 -->
<g id="edge4" class="edge">
<title>Node3&#45;&gt;Node2</title>
<path fill="none" stroke="#191970" d="M175.2108,-55.4179C200.9778,-46.2748 240.9119,-32.1046 269.6025,-21.924"/>
<polygon fill="#191970" stroke="#191970" points="270.9864,-25.1469 279.2402,-18.5042 268.6455,-18.5499 270.9864,-25.1469"/>
</g>
<!-- Node4 -->
<g id="node5" class="node">
<title>Node4</title>
<polygon fill="#ffffff" stroke="#bfbfbf" points="131.6406,-.5 131.6406,-18.5 241.5908,-18.5 241.5908,-.5 131.6406,-.5"/>
<text text-anchor="middle" x="186.6157" y="-6.5" font-family="Helvetica,sans-Serif" font-size="10.00" fill="#000000">molecular_graph.hpp</text>
</g>
<!-- Node3&#45;&gt;Node4 -->
<g id="edge5" class="edge">
<title>Node3&#45;&gt;Node4</title>
<path fill="none" stroke="#191970" d="M155.7255,-55.4179C160.8896,-47.7415 168.4375,-36.5217 174.7794,-27.0945"/>
<polygon fill="#191970" stroke="#191970" points="177.6954,-29.0303 180.3732,-18.7795 171.8873,-25.1231 177.6954,-29.0303"/>
</g>
<!-- Node5 -->
<g id="node6" class="node">
<title>Node5</title>
<polygon fill="#ffffff" stroke="#bfbfbf" points="61.5591,-.5 61.5591,-18.5 113.6724,-18.5 113.6724,-.5 61.5591,-.5"/>
<text text-anchor="middle" x="87.6157" y="-6.5" font-family="Helvetica,sans-Serif" font-size="10.00" fill="#000000">memory</text>
</g>
<!-- Node3&#45;&gt;Node5 -->
<g id="edge6" class="edge">
<title>Node3&#45;&gt;Node5</title>
<path fill="none" stroke="#191970" d="M139.3777,-55.4179C130.2783,-47.3458 116.762,-35.3556 105.8231,-25.6517"/>
<polygon fill="#191970" stroke="#191970" points="107.8796,-22.7974 98.0762,-18.7795 103.2343,-28.0339 107.8796,-22.7974"/>
</g>
<!-- Node3&#45;&gt;Node6 -->
<g id="edge7" class="edge">
<title>Node3&#45;&gt;Node6</title>
<path fill="none" stroke="#191970" d="M128.4791,-55.4179C107.6347,-46.4613 75.5634,-32.6806 51.9913,-22.552"/>
<polygon fill="#191970" stroke="#191970" points="53.3532,-19.3278 42.7837,-18.5956 50.5897,-25.7592 53.3532,-19.3278"/>
</g>
</g>
</svg>
