<?xml version="1.0" encoding="UTF-8" standalone="no"?>
<!DOCTYPE svg PUBLIC "-//W3C//DTD SVG 1.1//EN"
 "http://www.w3.org/Graphics/SVG/1.1/DTD/svg11.dtd">
<!-- Generated by graphviz version 2.40.1 (20161225.0304)
 -->
<!-- Title: include/indigox/classes/treedecomp.hpp Pages: 1 -->
<svg width="385pt" height="147pt"
 viewBox="0.00 0.00 385.19 147.00" xmlns="http://www.w3.org/2000/svg" xmlns:xlink="http://www.w3.org/1999/xlink">
<g id="graph0" class="graph" transform="scale(1 1) rotate(0) translate(4 143)">
<title>include/indigox/classes/treedecomp.hpp</title>
<polygon fill="#ffffff" stroke="transparent" points="-4,4 -4,-143 381.1943,-143 381.1943,4 -4,4"/>
<!-- Node0 -->
<g id="node1" class="node">
<title>Node0</title>
<polygon fill="#bfbfbf" stroke="#000000" points="194.8276,-110.5 194.8276,-138.5 313.1079,-138.5 313.1079,-110.5 194.8276,-110.5"/>
<text text-anchor="start" x="202.8276" y="-126.5" font-family="Helvetica,sans-Serif" font-size="10.00" fill="#000000">include/indigox/classes</text>
<text text-anchor="middle" x="253.9678" y="-116.5" font-family="Helvetica,sans-Serif" font-size="10.00" fill="#000000">/treedecomp.hpp</text>
</g>
<!-- Node1 -->
<g id="node2" class="node">
<title>Node1</title>
<polygon fill="#ffffff" stroke="#bfbfbf" points="0,-.5 0,-18.5 89.9355,-18.5 89.9355,-.5 0,-.5"/>
<text text-anchor="middle" x="44.9678" y="-6.5" font-family="Helvetica,sans-Serif" font-size="10.00" fill="#000000">../utils/graph.hpp</text>
</g>
<!-- Node0&#45;&gt;Node1 -->
<g id="edge1" class="edge">
<title>Node0&#45;&gt;Node1</title>
<path fill="none" stroke="#191970" d="M194.4562,-113.641C163.7468,-106.0401 126.788,-93.6332 97.9678,-74 80.0848,-61.8176 65.0343,-41.9073 55.5947,-27.4262"/>
<polygon fill="#191970" stroke="#191970" points="58.4929,-25.4593 50.2284,-18.8298 52.5549,-29.1661 58.4929,-25.4593"/>
</g>
<!-- Node2 -->
<g id="node3" class="node">
<title>Node2</title>
<g id="a_node3"><a xlink:href="permutablegraph_8hpp.html" target="_top" xlink:title="permutablegraph.hpp">
<polygon fill="#ffffff" stroke="#000000" points="107.4336,-55.5 107.4336,-73.5 218.502,-73.5 218.502,-55.5 107.4336,-55.5"/>
<text text-anchor="middle" x="162.9678" y="-61.5" font-family="Helvetica,sans-Serif" font-size="10.00" fill="#000000">permutablegraph.hpp</text>
</a>
</g>
</g>
<!-- Node0&#45;&gt;Node2 -->
<g id="edge2" class="edge">
<title>Node0&#45;&gt;Node2</title>
<path fill="none" stroke="#191970" d="M232.402,-110.2808C218.2605,-100.9568 199.8069,-88.7895 185.4786,-79.3423"/>
<polygon fill="#191970" stroke="#191970" points="187.0207,-76.1668 176.7455,-73.5842 183.1675,-82.0108 187.0207,-76.1668"/>
</g>
<!-- Node6 -->
<g id="node7" class="node">
<title>Node6</title>
<polygon fill="#ffffff" stroke="#bfbfbf" points="236.2412,-55.5 236.2412,-73.5 271.6943,-73.5 271.6943,-55.5 236.2412,-55.5"/>
<text text-anchor="middle" x="253.9678" y="-61.5" font-family="Helvetica,sans-Serif" font-size="10.00" fill="#000000">map</text>
</g>
<!-- Node0&#45;&gt;Node6 -->
<g id="edge7" class="edge">
<title>Node0&#45;&gt;Node6</title>
<path fill="none" stroke="#191970" d="M253.9678,-110.2808C253.9678,-102.3776 253.9678,-92.4316 253.9678,-83.8308"/>
<polygon fill="#191970" stroke="#191970" points="257.4679,-83.5842 253.9678,-73.5842 250.4679,-83.5842 257.4679,-83.5842"/>
</g>
<!-- Node7 -->
<g id="node8" class="node">
<title>Node7</title>
<polygon fill="#ffffff" stroke="#bfbfbf" points="289.2979,-55.5 289.2979,-73.5 318.6377,-73.5 318.6377,-55.5 289.2979,-55.5"/>
<text text-anchor="middle" x="303.9678" y="-61.5" font-family="Helvetica,sans-Serif" font-size="10.00" fill="#000000">set</text>
</g>
<!-- Node0&#45;&gt;Node7 -->
<g id="edge8" class="edge">
<title>Node0&#45;&gt;Node7</title>
<path fill="none" stroke="#191970" d="M265.8171,-110.2808C272.9951,-101.6672 282.1952,-90.6271 289.7623,-81.5466"/>
<polygon fill="#191970" stroke="#191970" points="292.6845,-83.5071 296.3976,-73.5842 287.307,-79.0258 292.6845,-83.5071"/>
</g>
<!-- Node8 -->
<g id="node9" class="node">
<title>Node8</title>
<polygon fill="#ffffff" stroke="#bfbfbf" points="336.7412,-55.5 336.7412,-73.5 377.1943,-73.5 377.1943,-55.5 336.7412,-55.5"/>
<text text-anchor="middle" x="356.9678" y="-61.5" font-family="Helvetica,sans-Serif" font-size="10.00" fill="#000000">string</text>
</g>
<!-- Node0&#45;&gt;Node8 -->
<g id="edge9" class="edge">
<title>Node0&#45;&gt;Node8</title>
<path fill="none" stroke="#191970" d="M278.1167,-110.4327C294.42,-100.9356 315.875,-88.4376 332.2884,-78.8763"/>
<polygon fill="#191970" stroke="#191970" points="334.4137,-81.6889 341.2928,-73.6311 330.8902,-75.6403 334.4137,-81.6889"/>
</g>
<!-- Node2&#45;&gt;Node1 -->
<g id="edge3" class="edge">
<title>Node2&#45;&gt;Node1</title>
<path fill="none" stroke="#191970" d="M143.4825,-55.4179C124.4373,-46.5409 95.2256,-32.9253 73.5516,-22.823"/>
<polygon fill="#191970" stroke="#191970" points="75.0245,-19.648 64.482,-18.5956 72.0672,-25.9927 75.0245,-19.648"/>
</g>
<!-- Node3 -->
<g id="node4" class="node">
<title>Node3</title>
<polygon fill="#ffffff" stroke="#bfbfbf" points="107.9927,-.5 107.9927,-18.5 217.9429,-18.5 217.9429,-.5 107.9927,-.5"/>
<text text-anchor="middle" x="162.9678" y="-6.5" font-family="Helvetica,sans-Serif" font-size="10.00" fill="#000000">molecular_graph.hpp</text>
</g>
<!-- Node2&#45;&gt;Node3 -->
<g id="edge4" class="edge">
<title>Node2&#45;&gt;Node3</title>
<path fill="none" stroke="#191970" d="M162.9678,-55.4179C162.9678,-48.2164 162.9678,-37.8962 162.9678,-28.8632"/>
<polygon fill="#191970" stroke="#191970" points="166.4679,-28.7794 162.9678,-18.7795 159.4679,-28.7795 166.4679,-28.7794"/>
</g>
<!-- Node4 -->
<g id="node5" class="node">
<title>Node4</title>
<polygon fill="#ffffff" stroke="#bfbfbf" points="235.9111,-.5 235.9111,-18.5 288.0244,-18.5 288.0244,-.5 235.9111,-.5"/>
<text text-anchor="middle" x="261.9678" y="-6.5" font-family="Helvetica,sans-Serif" font-size="10.00" fill="#000000">memory</text>
</g>
<!-- Node2&#45;&gt;Node4 -->
<g id="edge5" class="edge">
<title>Node2&#45;&gt;Node4</title>
<path fill="none" stroke="#191970" d="M179.3156,-55.4179C194.9359,-46.7399 218.7076,-33.5334 236.7539,-23.5077"/>
<polygon fill="#191970" stroke="#191970" points="238.5538,-26.5117 245.5957,-18.5956 235.1543,-20.3925 238.5538,-26.5117"/>
</g>
<!-- Node5 -->
<g id="node6" class="node">
<title>Node5</title>
<polygon fill="#ffffff" stroke="#bfbfbf" points="306.3521,-.5 306.3521,-18.5 349.5835,-18.5 349.5835,-.5 306.3521,-.5"/>
<text text-anchor="middle" x="327.9678" y="-6.5" font-family="Helvetica,sans-Serif" font-size="10.00" fill="#000000">vector</text>
</g>
<!-- Node2&#45;&gt;Node5 -->
<g id="edge6" class="edge">
<title>Node2&#45;&gt;Node5</title>
<path fill="none" stroke="#191970" d="M190.2142,-55.4179C219.408,-45.6866 265.6857,-30.2607 296.434,-20.0112"/>
<polygon fill="#191970" stroke="#191970" points="297.8392,-23.2322 306.2193,-16.7495 295.6256,-16.5915 297.8392,-23.2322"/>
</g>
</g>
</svg>
