<?xml version="1.0" encoding="UTF-8" standalone="no"?>
<!DOCTYPE svg PUBLIC "-//W3C//DTD SVG 1.1//EN"
 "http://www.w3.org/Graphics/SVG/1.1/DTD/svg11.dtd">
<!-- Generated by graphviz version 2.40.1 (20161225.0304)
 -->
<!-- Title: include/indigox/classes/treedecomp.hpp Pages: 1 -->
<svg width="502pt" height="157pt"
 viewBox="0.00 0.00 502.11 157.00" xmlns="http://www.w3.org/2000/svg" xmlns:xlink="http://www.w3.org/1999/xlink">
<g id="graph0" class="graph" transform="scale(1 1) rotate(0) translate(4 153)">
<title>include/indigox/classes/treedecomp.hpp</title>
<polygon fill="#ffffff" stroke="transparent" points="-4,4 -4,-153 498.1104,-153 498.1104,4 -4,4"/>
<!-- Node9 -->
<g id="node1" class="node">
<title>Node9</title>
<polygon fill="#bfbfbf" stroke="#000000" points="141,-120.5 141,-148.5 259.2803,-148.5 259.2803,-120.5 141,-120.5"/>
<text text-anchor="start" x="149" y="-136.5" font-family="Helvetica,sans-Serif" font-size="10.00" fill="#000000">include/indigox/classes</text>
<text text-anchor="middle" x="200.1401" y="-126.5" font-family="Helvetica,sans-Serif" font-size="10.00" fill="#000000">/treedecomp.hpp</text>
</g>
<!-- Node10 -->
<g id="node2" class="node">
<title>Node10</title>
<g id="a_node2"><a xlink:href="nicetreedecomp_8hpp.html" target="_top" xlink:title="include/indigox/classes\l/nicetreedecomp.hpp">
<polygon fill="#ffffff" stroke="#000000" points="0,-55.5 0,-83.5 118.2803,-83.5 118.2803,-55.5 0,-55.5"/>
<text text-anchor="start" x="8" y="-71.5" font-family="Helvetica,sans-Serif" font-size="10.00" fill="#000000">include/indigox/classes</text>
<text text-anchor="middle" x="59.1401" y="-61.5" font-family="Helvetica,sans-Serif" font-size="10.00" fill="#000000">/nicetreedecomp.hpp</text>
</a>
</g>
</g>
<!-- Node9&#45;&gt;Node10 -->
<g id="edge1" class="edge">
<title>Node9&#45;&gt;Node10</title>
<path fill="none" stroke="#191970" d="M160.2925,-116.1305C137.8886,-105.8025 110.3563,-93.1103 89.6753,-83.5765"/>
<polygon fill="#191970" stroke="#191970" points="158.9985,-119.3879 169.5452,-120.396 161.929,-113.0309 158.9985,-119.3879"/>
</g>
<!-- Node11 -->
<g id="node3" class="node">
<title>Node11</title>
<g id="a_node3"><a xlink:href="nicetreedecomp_8cpp.html" target="_top" xlink:title="src/classes/nicetreedecomp.cpp">
<polygon fill="#ffffff" stroke="#000000" points="22.9976,-.5 22.9976,-18.5 181.2827,-18.5 181.2827,-.5 22.9976,-.5"/>
<text text-anchor="middle" x="102.1401" y="-6.5" font-family="Helvetica,sans-Serif" font-size="10.00" fill="#000000">src/classes/nicetreedecomp.cpp</text>
</a>
</g>
</g>
<!-- Node9&#45;&gt;Node11 -->
<g id="edge3" class="edge">
<title>Node9&#45;&gt;Node11</title>
<path fill="none" stroke="#191970" d="M182.6455,-112.1854C160.8829,-84.427 124.7247,-38.3069 109.3811,-18.736"/>
<polygon fill="#191970" stroke="#191970" points="179.974,-114.4506 188.8983,-120.1609 185.4828,-110.1317 179.974,-114.4506"/>
</g>
<!-- Node12 -->
<g id="node4" class="node">
<title>Node12</title>
<g id="a_node4"><a xlink:href="permutablegraph_8cpp.html" target="_top" xlink:title="src/classes/permutablegraph.cpp">
<polygon fill="#ffffff" stroke="#000000" points="173.771,-60.5 173.771,-78.5 336.5093,-78.5 336.5093,-60.5 173.771,-60.5"/>
<text text-anchor="middle" x="255.1401" y="-66.5" font-family="Helvetica,sans-Serif" font-size="10.00" fill="#000000">src/classes/permutablegraph.cpp</text>
</a>
</g>
</g>
<!-- Node9&#45;&gt;Node12 -->
<g id="edge4" class="edge">
<title>Node9&#45;&gt;Node12</title>
<path fill="none" stroke="#191970" d="M218.5423,-112.752C228.395,-101.1078 240.0037,-87.3885 247.4619,-78.5743"/>
<polygon fill="#191970" stroke="#191970" points="215.8619,-110.5013 212.0743,-120.396 221.2056,-115.0229 215.8619,-110.5013"/>
</g>
<!-- Node13 -->
<g id="node5" class="node">
<title>Node13</title>
<g id="a_node5"><a xlink:href="treedecomp_8cpp.html" target="_top" xlink:title="src/classes/treedecomp.cpp">
<polygon fill="#ffffff" stroke="#000000" points="354.1699,-60.5 354.1699,-78.5 494.1104,-78.5 494.1104,-60.5 354.1699,-60.5"/>
<text text-anchor="middle" x="424.1401" y="-66.5" font-family="Helvetica,sans-Serif" font-size="10.00" fill="#000000">src/classes/treedecomp.cpp</text>
</a>
</g>
</g>
<!-- Node9&#45;&gt;Node13 -->
<g id="edge5" class="edge">
<title>Node9&#45;&gt;Node13</title>
<path fill="none" stroke="#191970" d="M258.2655,-117.6333C301.3484,-105.1315 358.3928,-88.5785 393.1194,-78.5016"/>
<polygon fill="#191970" stroke="#191970" points="257.0974,-114.3278 248.469,-120.476 259.0483,-121.0504 257.0974,-114.3278"/>
</g>
<!-- Node10&#45;&gt;Node11 -->
<g id="edge2" class="edge">
<title>Node10&#45;&gt;Node11</title>
<path fill="none" stroke="#191970" d="M75.2496,-47.0217C82.3244,-37.1498 90.2318,-26.1163 95.6298,-18.5842"/>
<polygon fill="#191970" stroke="#191970" points="72.3109,-45.1138 69.3305,-55.2808 78.0006,-49.1915 72.3109,-45.1138"/>
</g>
</g>
</svg>
