<?xml version="1.0" encoding="UTF-8" standalone="no"?>
<!DOCTYPE svg PUBLIC "-//W3C//DTD SVG 1.1//EN"
 "http://www.w3.org/Graphics/SVG/1.1/DTD/svg11.dtd">
<!-- Generated by graphviz version 2.40.1 (20161225.0304)
 -->
<!-- Title: include/indigox/utils/triple.hpp Pages: 1 -->
<svg width="725pt" height="372pt"
 viewBox="0.00 0.00 724.78 372.00" xmlns="http://www.w3.org/2000/svg" xmlns:xlink="http://www.w3.org/1999/xlink">
<g id="graph0" class="graph" transform="scale(1 1) rotate(0) translate(4 368)">
<title>include/indigox/utils/triple.hpp</title>
<polygon fill="#ffffff" stroke="transparent" points="-4,4 -4,-368 720.7778,-368 720.7778,4 -4,4"/>
<!-- Node20 -->
<g id="node1" class="node">
<title>Node20</title>
<g id="a_node1"><a xlink:title=" ">
<polygon fill="#bfbfbf" stroke="#000000" points="414.6724,-335.5 414.6724,-363.5 517.3911,-363.5 517.3911,-335.5 414.6724,-335.5"/>
<text text-anchor="start" x="422.6724" y="-351.5" font-family="Helvetica,sans-Serif" font-size="10.00" fill="#000000">include/indigox/utils</text>
<text text-anchor="middle" x="466.0317" y="-341.5" font-family="Helvetica,sans-Serif" font-size="10.00" fill="#000000">/triple.hpp</text>
</a>
</g>
</g>
<!-- Node21 -->
<g id="node2" class="node">
<title>Node21</title>
<g id="a_node2"><a xlink:href="base__graph__impl_8hpp.html" target="_top" xlink:title=" ">
<polygon fill="#ffffff" stroke="#000000" points="205.5518,-270.5 205.5518,-298.5 320.5117,-298.5 320.5117,-270.5 205.5518,-270.5"/>
<text text-anchor="start" x="213.5518" y="-286.5" font-family="Helvetica,sans-Serif" font-size="10.00" fill="#000000">include/indigox/graph</text>
<text text-anchor="middle" x="263.0317" y="-276.5" font-family="Helvetica,sans-Serif" font-size="10.00" fill="#000000">/base_graph_impl.hpp</text>
</a>
</g>
</g>
<!-- Node20&#45;&gt;Node21 -->
<g id="edge1" class="edge">
<title>Node20&#45;&gt;Node21</title>
<path fill="none" stroke="#191970" d="M412.0893,-332.2278C379.2511,-321.7131 337.8318,-308.4508 306.9938,-298.5765"/>
<polygon fill="#191970" stroke="#191970" points="411.3927,-335.6797 421.9838,-335.396 413.5274,-329.0131 411.3927,-335.6797"/>
</g>
<!-- Node31 -->
<g id="node12" class="node">
<title>Node31</title>
<g id="a_node12"><a xlink:href="athenaeum_8hpp.html" target="_top" xlink:title=" ">
<polygon fill="#ffffff" stroke="#000000" points="338.8916,-270.5 338.8916,-298.5 457.1719,-298.5 457.1719,-270.5 338.8916,-270.5"/>
<text text-anchor="start" x="346.8916" y="-286.5" font-family="Helvetica,sans-Serif" font-size="10.00" fill="#000000">include/indigox/classes</text>
<text text-anchor="middle" x="398.0317" y="-276.5" font-family="Helvetica,sans-Serif" font-size="10.00" fill="#000000">/athenaeum.hpp</text>
</a>
</g>
</g>
<!-- Node20&#45;&gt;Node31 -->
<g id="edge14" class="edge">
<title>Node20&#45;&gt;Node31</title>
<path fill="none" stroke="#191970" d="M443.8653,-328.3115C433.665,-318.5612 421.8412,-307.259 412.7579,-298.5765"/>
<polygon fill="#191970" stroke="#191970" points="441.6296,-331.0162 451.2768,-335.396 446.4664,-325.9561 441.6296,-331.0162"/>
</g>
<!-- Node33 -->
<g id="node14" class="node">
<title>Node33</title>
<g id="a_node14"><a xlink:href="parameterised_8hpp.html" target="_top" xlink:title=" ">
<polygon fill="#ffffff" stroke="#000000" points="474.8916,-270.5 474.8916,-298.5 593.1719,-298.5 593.1719,-270.5 474.8916,-270.5"/>
<text text-anchor="start" x="482.8916" y="-286.5" font-family="Helvetica,sans-Serif" font-size="10.00" fill="#000000">include/indigox/classes</text>
<text text-anchor="middle" x="534.0317" y="-276.5" font-family="Helvetica,sans-Serif" font-size="10.00" fill="#000000">/parameterised.hpp</text>
</a>
</g>
</g>
<!-- Node20&#45;&gt;Node33 -->
<g id="edge16" class="edge">
<title>Node20&#45;&gt;Node33</title>
<path fill="none" stroke="#191970" d="M488.1982,-328.3115C498.3985,-318.5612 510.2223,-307.259 519.3055,-298.5765"/>
<polygon fill="#191970" stroke="#191970" points="485.597,-325.9561 480.7867,-335.396 490.4339,-331.0162 485.597,-325.9561"/>
</g>
<!-- Node34 -->
<g id="node15" class="node">
<title>Node34</title>
<g id="a_node15"><a xlink:href="combinatronics_8hpp.html" target="_top" xlink:title=" ">
<polygon fill="#ffffff" stroke="#000000" points="611.2856,-270.5 611.2856,-298.5 716.7778,-298.5 716.7778,-270.5 611.2856,-270.5"/>
<text text-anchor="start" x="619.2856" y="-286.5" font-family="Helvetica,sans-Serif" font-size="10.00" fill="#000000">include/indigox/utils</text>
<text text-anchor="middle" x="664.0317" y="-276.5" font-family="Helvetica,sans-Serif" font-size="10.00" fill="#000000">/combinatronics.hpp</text>
</a>
</g>
</g>
<!-- Node20&#45;&gt;Node34 -->
<g id="edge17" class="edge">
<title>Node20&#45;&gt;Node34</title>
<path fill="none" stroke="#191970" d="M518.6455,-332.2278C550.6749,-321.7131 591.074,-308.4508 621.1525,-298.5765"/>
<polygon fill="#191970" stroke="#191970" points="517.4042,-328.9514 508.9948,-335.396 519.5876,-335.6022 517.4042,-328.9514"/>
</g>
<!-- Node22 -->
<g id="node3" class="node">
<title>Node22</title>
<g id="a_node3"><a xlink:href="base__graph_8hpp.html" target="_top" xlink:title=" ">
<polygon fill="#ffffff" stroke="#000000" points="207.7759,-205.5 207.7759,-233.5 318.2876,-233.5 318.2876,-205.5 207.7759,-205.5"/>
<text text-anchor="start" x="215.7759" y="-221.5" font-family="Helvetica,sans-Serif" font-size="10.00" fill="#000000">include/indigox/graph</text>
<text text-anchor="middle" x="263.0317" y="-211.5" font-family="Helvetica,sans-Serif" font-size="10.00" fill="#000000">/base_graph.hpp</text>
</a>
</g>
</g>
<!-- Node21&#45;&gt;Node22 -->
<g id="edge2" class="edge">
<title>Node21&#45;&gt;Node22</title>
<path fill="none" stroke="#191970" d="M263.0317,-260.1081C263.0317,-251.1539 263.0317,-241.3227 263.0317,-233.5765"/>
<polygon fill="#191970" stroke="#191970" points="259.5318,-260.3959 263.0317,-270.396 266.5318,-260.396 259.5318,-260.3959"/>
</g>
<!-- Node23 -->
<g id="node4" class="node">
<title>Node23</title>
<g id="a_node4"><a xlink:href="access_8hpp.html" target="_top" xlink:title=" ">
<polygon fill="#ffffff" stroke="#000000" points="0,-140.5 0,-168.5 126.0635,-168.5 126.0635,-140.5 0,-140.5"/>
<text text-anchor="start" x="8" y="-156.5" font-family="Helvetica,sans-Serif" font-size="10.00" fill="#000000">include/indigox/algorithm</text>
<text text-anchor="middle" x="63.0317" y="-146.5" font-family="Helvetica,sans-Serif" font-size="10.00" fill="#000000">/access.hpp</text>
</a>
</g>
</g>
<!-- Node22&#45;&gt;Node23 -->
<g id="edge3" class="edge">
<title>Node22&#45;&gt;Node23</title>
<path fill="none" stroke="#191970" d="M209.8865,-202.2278C177.5336,-191.7131 136.7264,-178.4508 106.3441,-168.5765"/>
<polygon fill="#191970" stroke="#191970" points="209.0425,-205.6337 219.6347,-205.396 211.2062,-198.9764 209.0425,-205.6337"/>
</g>
<!-- Node24 -->
<g id="node5" class="node">
<title>Node24</title>
<g id="a_node5"><a xlink:href="assignment_8hpp.html" target="_top" xlink:title=" ">
<polygon fill="#ffffff" stroke="#000000" points="143.7759,-140.5 143.7759,-168.5 254.2876,-168.5 254.2876,-140.5 143.7759,-140.5"/>
<text text-anchor="start" x="151.7759" y="-156.5" font-family="Helvetica,sans-Serif" font-size="10.00" fill="#000000">include/indigox/graph</text>
<text text-anchor="middle" x="199.0317" y="-146.5" font-family="Helvetica,sans-Serif" font-size="10.00" fill="#000000">/assignment.hpp</text>
</a>
</g>
</g>
<!-- Node22&#45;&gt;Node24 -->
<g id="edge4" class="edge">
<title>Node22&#45;&gt;Node24</title>
<path fill="none" stroke="#191970" d="M241.8864,-198.0243C232.351,-188.3398 221.3568,-177.1739 212.8917,-168.5765"/>
<polygon fill="#191970" stroke="#191970" points="239.6346,-200.7259 249.1447,-205.396 244.6226,-195.8146 239.6346,-200.7259"/>
</g>
<!-- Node28 -->
<g id="node9" class="node">
<title>Node28</title>
<g id="a_node9"><a xlink:href="condensed_8hpp.html" target="_top" xlink:title=" ">
<polygon fill="#ffffff" stroke="#000000" points="272.7759,-140.5 272.7759,-168.5 383.2876,-168.5 383.2876,-140.5 272.7759,-140.5"/>
<text text-anchor="start" x="280.7759" y="-156.5" font-family="Helvetica,sans-Serif" font-size="10.00" fill="#000000">include/indigox/graph</text>
<text text-anchor="middle" x="328.0317" y="-146.5" font-family="Helvetica,sans-Serif" font-size="10.00" fill="#000000">/condensed.hpp</text>
</a>
</g>
</g>
<!-- Node22&#45;&gt;Node28 -->
<g id="edge10" class="edge">
<title>Node22&#45;&gt;Node28</title>
<path fill="none" stroke="#191970" d="M284.2203,-198.3115C293.9705,-188.5612 305.2727,-177.259 313.9552,-168.5765"/>
<polygon fill="#191970" stroke="#191970" points="281.732,-195.85 277.1358,-205.396 286.6818,-200.7998 281.732,-195.85"/>
</g>
<!-- Node30 -->
<g id="node11" class="node">
<title>Node30</title>
<g id="a_node11"><a xlink:href="molecular_8hpp.html" target="_top" xlink:title=" ">
<polygon fill="#ffffff" stroke="#000000" points="401.7759,-140.5 401.7759,-168.5 512.2876,-168.5 512.2876,-140.5 401.7759,-140.5"/>
<text text-anchor="start" x="409.7759" y="-156.5" font-family="Helvetica,sans-Serif" font-size="10.00" fill="#000000">include/indigox/graph</text>
<text text-anchor="middle" x="457.0317" y="-146.5" font-family="Helvetica,sans-Serif" font-size="10.00" fill="#000000">/molecular.hpp</text>
</a>
</g>
</g>
<!-- Node22&#45;&gt;Node30 -->
<g id="edge12" class="edge">
<title>Node22&#45;&gt;Node30</title>
<path fill="none" stroke="#191970" d="M314.9889,-202.0917C346.306,-191.5988 385.6749,-178.4082 415.0188,-168.5765"/>
<polygon fill="#191970" stroke="#191970" points="313.4968,-198.9003 305.1268,-205.396 315.7207,-205.5376 313.4968,-198.9003"/>
</g>
<!-- Node25 -->
<g id="node6" class="node">
<title>Node25</title>
<g id="a_node6"><a xlink:href="assigner_8hpp.html" target="_top" xlink:title=" ">
<polygon fill="#ffffff" stroke="#000000" points="113.7588,-75.5 113.7588,-103.5 284.3047,-103.5 284.3047,-75.5 113.7588,-75.5"/>
<text text-anchor="start" x="121.7588" y="-91.5" font-family="Helvetica,sans-Serif" font-size="10.00" fill="#000000">include/indigox/algorithm</text>
<text text-anchor="middle" x="199.0317" y="-81.5" font-family="Helvetica,sans-Serif" font-size="10.00" fill="#000000">/electron_assignment/assigner.hpp</text>
</a>
</g>
</g>
<!-- Node24&#45;&gt;Node25 -->
<g id="edge5" class="edge">
<title>Node24&#45;&gt;Node25</title>
<path fill="none" stroke="#191970" d="M199.0317,-130.1081C199.0317,-121.1539 199.0317,-111.3227 199.0317,-103.5765"/>
<polygon fill="#191970" stroke="#191970" points="195.5318,-130.3959 199.0317,-140.396 202.5318,-130.396 195.5318,-130.3959"/>
</g>
<!-- Node26 -->
<g id="node7" class="node">
<title>Node26</title>
<g id="a_node7"><a xlink:href="astar__optimisation_8hpp.html" target="_top" xlink:title=" ">
<polygon fill="#ffffff" stroke="#000000" points="54,-.5 54,-38.5 190.0635,-38.5 190.0635,-.5 54,-.5"/>
<text text-anchor="start" x="62" y="-26.5" font-family="Helvetica,sans-Serif" font-size="10.00" fill="#000000">include/indigox/algorithm</text>
<text text-anchor="start" x="62" y="-16.5" font-family="Helvetica,sans-Serif" font-size="10.00" fill="#000000">/electron_assignment/astar</text>
<text text-anchor="middle" x="122.0317" y="-6.5" font-family="Helvetica,sans-Serif" font-size="10.00" fill="#000000">_optimisation.hpp</text>
</a>
</g>
</g>
<!-- Node24&#45;&gt;Node26 -->
<g id="edge8" class="edge">
<title>Node24&#45;&gt;Node26</title>
<path fill="none" stroke="#191970" d="M141.8262,-136.0331C127.3102,-128.4746 113.456,-118.0887 105.0317,-104 92.9749,-83.8361 102.1005,-56.6229 110.9616,-38.5907"/>
<polygon fill="#191970" stroke="#191970" points="140.3765,-139.2194 150.9074,-140.3817 143.3998,-132.9059 140.3765,-139.2194"/>
</g>
<!-- Node27 -->
<g id="node8" class="node">
<title>Node27</title>
<g id="a_node8"><a xlink:href="local__optimisation_8hpp.html" target="_top" xlink:title=" ">
<polygon fill="#ffffff" stroke="#000000" points="225.8325,-.5 225.8325,-38.5 360.231,-38.5 360.231,-.5 225.8325,-.5"/>
<text text-anchor="start" x="233.8325" y="-26.5" font-family="Helvetica,sans-Serif" font-size="10.00" fill="#000000">include/indigox/algorithm</text>
<text text-anchor="start" x="233.8325" y="-16.5" font-family="Helvetica,sans-Serif" font-size="10.00" fill="#000000">/electron_assignment/local</text>
<text text-anchor="middle" x="293.0317" y="-6.5" font-family="Helvetica,sans-Serif" font-size="10.00" fill="#000000">_optimisation.hpp</text>
</a>
</g>
</g>
<!-- Node24&#45;&gt;Node27 -->
<g id="edge9" class="edge">
<title>Node24&#45;&gt;Node27</title>
<path fill="none" stroke="#191970" d="M256.2372,-136.0331C270.7533,-128.4746 284.6075,-118.0887 293.0317,-104 304.8517,-84.2322 302.1737,-56.9292 298.3348,-38.7684"/>
<polygon fill="#191970" stroke="#191970" points="254.6637,-132.9059 247.1561,-140.3817 257.687,-139.2194 254.6637,-132.9059"/>
</g>
<!-- Node25&#45;&gt;Node26 -->
<g id="edge6" class="edge">
<title>Node25&#45;&gt;Node26</title>
<path fill="none" stroke="#191970" d="M175.9033,-68.4742C165.4947,-59.0118 153.2927,-47.9191 143.136,-38.6857"/>
<polygon fill="#191970" stroke="#191970" points="173.6958,-71.1975 183.4496,-75.3345 178.4046,-66.0179 173.6958,-71.1975"/>
</g>
<!-- Node25&#45;&gt;Node27 -->
<g id="edge7" class="edge">
<title>Node25&#45;&gt;Node27</title>
<path fill="none" stroke="#191970" d="M226.1511,-69.3047C239.0946,-59.6659 254.5043,-48.1906 267.2681,-38.6857"/>
<polygon fill="#191970" stroke="#191970" points="223.984,-66.5546 218.054,-75.3345 228.1649,-72.1689 223.984,-66.5546"/>
</g>
<!-- Node29 -->
<g id="node10" class="node">
<title>Node29</title>
<g id="a_node10"><a xlink:href="molecule__impl_8hpp.html" target="_top" xlink:title=" ">
<polygon fill="#ffffff" stroke="#000000" points="368.8916,-75.5 368.8916,-103.5 487.1719,-103.5 487.1719,-75.5 368.8916,-75.5"/>
<text text-anchor="start" x="376.8916" y="-91.5" font-family="Helvetica,sans-Serif" font-size="10.00" fill="#000000">include/indigox/classes</text>
<text text-anchor="middle" x="428.0317" y="-81.5" font-family="Helvetica,sans-Serif" font-size="10.00" fill="#000000">/molecule_impl.hpp</text>
</a>
</g>
</g>
<!-- Node28&#45;&gt;Node29 -->
<g id="edge11" class="edge">
<title>Node28&#45;&gt;Node29</title>
<path fill="none" stroke="#191970" d="M358.4415,-134.7337C373.9155,-124.6755 392.363,-112.6847 406.3756,-103.5765"/>
<polygon fill="#191970" stroke="#191970" points="356.2072,-132.0115 349.7302,-140.396 360.0222,-137.8806 356.2072,-132.0115"/>
</g>
<!-- Node30&#45;&gt;Node29 -->
<g id="edge13" class="edge">
<title>Node30&#45;&gt;Node29</title>
<path fill="none" stroke="#191970" d="M446.543,-130.9907C442.4445,-121.8044 437.882,-111.5781 434.312,-103.5765"/>
<polygon fill="#191970" stroke="#191970" points="443.4684,-132.6897 450.7392,-140.396 449.861,-129.8376 443.4684,-132.6897"/>
</g>
<!-- Node32 -->
<g id="node13" class="node">
<title>Node32</title>
<g id="a_node13"><a xlink:href="cherrypicker_8hpp.html" target="_top" xlink:title=" ">
<polygon fill="#ffffff" stroke="#000000" points="336,-205.5 336,-233.5 462.0635,-233.5 462.0635,-205.5 336,-205.5"/>
<text text-anchor="start" x="344" y="-221.5" font-family="Helvetica,sans-Serif" font-size="10.00" fill="#000000">include/indigox/algorithm</text>
<text text-anchor="middle" x="399.0317" y="-211.5" font-family="Helvetica,sans-Serif" font-size="10.00" fill="#000000">/cherrypicker.hpp</text>
</a>
</g>
</g>
<!-- Node31&#45;&gt;Node32 -->
<g id="edge15" class="edge">
<title>Node31&#45;&gt;Node32</title>
<path fill="none" stroke="#191970" d="M398.407,-260.1081C398.5448,-251.1539 398.696,-241.3227 398.8152,-233.5765"/>
<polygon fill="#191970" stroke="#191970" points="394.9031,-260.3433 398.2487,-270.396 401.9022,-260.451 394.9031,-260.3433"/>
</g>
</g>
</svg>
